<?xml version="1.0" encoding="UTF-8" standalone="no"?>
<!-- Created with Inkscape (http://www.inkscape.org/) -->

<svg
   xmlns:dc="http://purl.org/dc/elements/1.1/"
   xmlns:cc="http://creativecommons.org/ns#"
   xmlns:rdf="http://www.w3.org/1999/02/22-rdf-syntax-ns#"
   xmlns:svg="http://www.w3.org/2000/svg"
   xmlns="http://www.w3.org/2000/svg"
   xmlns:sodipodi="http://sodipodi.sourceforge.net/DTD/sodipodi-0.dtd"
   xmlns:inkscape="http://www.inkscape.org/namespaces/inkscape"
   width="57.306969mm"
   height="57.306969mm"
   viewBox="0 0 203.05619 203.0562"
   id="svg2"
   version="1.1"
   inkscape:version="0.91 r13725"
   sodipodi:docname="robotica_uchile_2018_ver.svg"
   inkscape:export-filename="/home/matias/LogosFCFM/Otros/Comunidad de Robótica/robotica_uchile_2018.png"
   inkscape:export-xdpi="1000"
   inkscape:export-ydpi="1000">
  <defs
     id="defs4">
    <clipPath
       clipPathUnits="userSpaceOnUse"
       id="clipPath4351">
      <path
         style="fill:none;fill-rule:evenodd;stroke:#000000;stroke-width:1px;stroke-linecap:butt;stroke-linejoin:miter;stroke-opacity:1"
         d="m -168.51652,212.75577 c -1.25,1.42857 -1.78572,5 -1.25,9.46428 0.53571,4.46429 -1.25,8.39286 1.25,9.10715 2.5,0.71428 4.82143,1.24999 5.35714,5.17857 0.53572,3.92857 2.32143,13.57142 9.28572,18.39285 6.96428,4.82143 23.21428,4.46429 27.67857,0.35715 4.46428,-4.10715 8.75,-17.85715 9.28571,-21.78572 0.53572,-3.92857 2.67857,-14.10714 3.57143,-19.10714 0.89286,-5 1.78571,-16.42857 -1.07143,-19.64286 -2.85714,-3.21428 -15,-16.07143 -24.10714,-16.96428 -9.10714,-0.89286 -22.14286,6.07143 -26.07143,11.07143 -3.92857,5 -3.92857,23.92857 -3.92857,23.92857 z"
         id="path4353"
         inkscape:connector-curvature="0" />
    </clipPath>
    <clipPath
       clipPathUnits="userSpaceOnUse"
       id="clipPath4351-0">
      <path
         style="fill:none;fill-rule:evenodd;stroke:#000000;stroke-width:1px;stroke-linecap:butt;stroke-linejoin:miter;stroke-opacity:1"
         d="m -168.51652,212.75577 c -1.25,1.42857 -1.78572,5 -1.25,9.46428 0.53571,4.46429 -1.25,8.39286 1.25,9.10715 2.5,0.71428 4.82143,1.24999 5.35714,5.17857 0.53572,3.92857 2.32143,13.57142 9.28572,18.39285 6.96428,4.82143 23.21428,4.46429 27.67857,0.35715 4.46428,-4.10715 8.75,-17.85715 9.28571,-21.78572 0.53572,-3.92857 2.67857,-14.10714 3.57143,-19.10714 0.89286,-5 1.78571,-16.42857 -1.07143,-19.64286 -2.85714,-3.21428 -15,-16.07143 -24.10714,-16.96428 -9.10714,-0.89286 -22.14286,6.07143 -26.07143,11.07143 -3.92857,5 -3.92857,23.92857 -3.92857,23.92857 z"
         id="path4353-6"
         inkscape:connector-curvature="0" />
    </clipPath>
  </defs>
  <sodipodi:namedview
     id="base"
     pagecolor="#ffffff"
     bordercolor="#666666"
     borderopacity="1.0"
     inkscape:pageopacity="0.0"
     inkscape:pageshadow="2"
     inkscape:zoom="1.979899"
     inkscape:cx="-80.278327"
     inkscape:cy="101.23858"
     inkscape:document-units="px"
     inkscape:current-layer="flowRoot4136-9-5-7-9-1"
     showgrid="false"
     showguides="true"
     fit-margin-top="1"
     fit-margin-left="1"
     fit-margin-right="1"
     fit-margin-bottom="1"
     inkscape:window-width="1855"
     inkscape:window-height="1056"
     inkscape:window-x="65"
     inkscape:window-y="24"
     inkscape:window-maximized="1"
     inkscape:guide-bbox="true" />
  <metadata
     id="metadata7">
    <rdf:RDF>
      <cc:Work
         rdf:about="">
        <dc:format>image/svg+xml</dc:format>
        <dc:type
           rdf:resource="http://purl.org/dc/dcmitype/StillImage" />
        <dc:title />
      </cc:Work>
    </rdf:RDF>
  </metadata>
  <g
     inkscape:label="Layer 1"
     inkscape:groupmode="layer"
     id="layer1"
     transform="translate(-982.32396,354.63326)">
    <g
       id="g4249" />
    <g
       transform="translate(494.18254,-189.96794)"
       id="g4267-9-36">
      <rect
         style="opacity:1;fill:#ffffff;fill-opacity:1;stroke:none;stroke-width:4;stroke-linecap:round;stroke-linejoin:round;stroke-miterlimit:4;stroke-dasharray:none;stroke-dashoffset:0;stroke-opacity:1"
         id="rect24686"
         width="195.96959"
         height="195.96959"
         x="491.68472"
         y="-161.12201"
         inkscape:export-xdpi="600"
         inkscape:export-ydpi="600" />
      <circle
         style="opacity:1;fill:#000000;fill-opacity:1;stroke:none;stroke-width:3;stroke-linecap:round;stroke-linejoin:round;stroke-miterlimit:4;stroke-dasharray:none;stroke-dashoffset:0;stroke-opacity:1"
         id="path4154-5-1-9-3-9-3-7"
         cx="608.83221"
         cy="-64.657669"
         r="13.8606"
         inkscape:export-xdpi="600"
         inkscape:export-ydpi="600" />
      <path
         sodipodi:nodetypes="ccc"
         inkscape:connector-curvature="0"
         id="path4255-8-3-3-1-0"
         d="m 610.23621,-117.84765 36.758,-23.47427 -4.62692,38.01059"
         style="fill:none;fill-rule:evenodd;stroke:#000000;stroke-width:5.20840597;stroke-linecap:butt;stroke-linejoin:round;stroke-miterlimit:4;stroke-dasharray:none;stroke-opacity:1"
         inkscape:export-xdpi="600"
         inkscape:export-ydpi="600" />
      <g
         transform="translate(470.91458,-39.49705)"
         style="font-style:normal;font-weight:normal;font-size:28.74022293px;line-height:125%;font-family:sans-serif;letter-spacing:0px;word-spacing:0px;fill:#000000;fill-opacity:1;stroke:none;stroke-width:1px;stroke-linecap:butt;stroke-linejoin:miter;stroke-opacity:1"
         id="flowRoot4136-9-5-7-9-1">
        <path
           d="m 56.635952,53.125078 q -0.852523,1.002505 -2.502314,1.002505 -1.365617,0 -2.083947,-0.789374 -0.710436,-0.797267 -0.71833,-2.352334 l 0,-5.557191 1.460341,0 0,5.517723 q 0,1.941859 1.578748,1.941859 1.673472,0 2.226034,-1.24721 l 0,-6.212372 1.460341,0 0,8.541024 -1.389298,0 -0.03157,-0.84463 z"
           style="font-style:normal;font-variant:normal;font-weight:normal;font-stretch:normal;font-size:16.16637421px;font-family:Roboto;-inkscape-font-specification:Roboto"
           id="path4250" />
        <path
           d="m 61.648475,45.428684 0.04736,1.073549 q 0.978823,-1.231424 2.557571,-1.231424 2.707552,0 2.731233,3.054877 l 0,5.644022 -1.460341,0 0,-5.651916 q -0.0079,-0.923567 -0.426262,-1.365616 -0.410475,-0.44205 -1.286679,-0.44205 -0.710437,0 -1.247211,0.3789 -0.536774,0.378899 -0.836736,0.994611 l 0,6.086071 -1.460342,0 0,-8.541024 1.381404,0 z"
           style="font-style:normal;font-variant:normal;font-weight:normal;font-stretch:normal;font-size:16.16637421px;font-family:Roboto;-inkscape-font-specification:Roboto"
           id="path4252" />
        <path
           d="m 70.789425,53.969708 -1.460342,0 0,-8.541024 1.460342,0 0,8.541024 z M 69.210677,43.163182 q 0,-0.355219 0.213131,-0.599924 0.221025,-0.244706 0.647286,-0.244706 0.426262,0 0.647287,0.244706 0.221025,0.244705 0.221025,0.599924 0,0.355218 -0.221025,0.59203 -0.221025,0.236812 -0.647287,0.236812 -0.426261,0 -0.647286,-0.236812 -0.213131,-0.236812 -0.213131,-0.59203 z"
           style="font-style:normal;font-variant:normal;font-weight:normal;font-stretch:normal;font-size:16.16637421px;font-family:Roboto;-inkscape-font-specification:Roboto"
           id="path4254" />
        <path
           d="m 75.93614,51.98838 2.115522,-6.559696 1.491916,0 -3.06277,8.541024 -1.113017,0 -3.094345,-8.541024 1.491917,0 2.170777,6.559696 z"
           style="font-style:normal;font-variant:normal;font-weight:normal;font-stretch:normal;font-size:16.16637421px;font-family:Roboto;-inkscape-font-specification:Roboto"
           id="path4256" />
        <path
           d="m 84.492952,54.127583 q -1.736623,0 -2.825958,-1.136698 -1.089336,-1.144592 -1.089336,-3.054877 l 0,-0.268387 q 0,-1.270891 0.481518,-2.265502 0.489411,-1.002505 1.357723,-1.56296 0.876204,-0.56835 1.894497,-0.56835 1.665578,0 2.589145,1.09723 0.923568,1.097229 0.923568,3.141707 l 0,0.607818 -5.78611,0 q 0.03158,1.262998 0.734118,2.044478 0.710436,0.773587 1.799772,0.773587 0.773586,0 1.31036,-0.31575 0.536774,-0.315749 0.939355,-0.836736 l 0.891992,0.694649 q -1.073548,1.649791 -3.220644,1.649791 z m -0.181556,-7.656925 q -0.884099,0 -1.484023,0.647286 -0.599924,0.639393 -0.742011,1.799772 l 4.278405,0 0,-0.110512 q -0.06315,-1.113017 -0.599924,-1.720835 -0.536774,-0.615711 -1.452447,-0.615711 z"
           style="font-style:normal;font-variant:normal;font-weight:normal;font-stretch:normal;font-size:16.16637421px;font-family:Roboto;-inkscape-font-specification:Roboto"
           id="path4258" />
        <path
           d="m 93.6339,46.739045 q -0.331537,-0.05526 -0.71833,-0.05526 -1.43666,0 -1.949753,1.22353 l 0,6.06239 -1.460341,0 0,-8.541024 1.420872,0 0.02368,0.986717 q 0.71833,-1.144592 2.036584,-1.144592 0.426262,0 0.647286,0.110513 l 0,1.357723 z"
           style="font-style:normal;font-variant:normal;font-weight:normal;font-stretch:normal;font-size:16.16637421px;font-family:Roboto;-inkscape-font-specification:Roboto"
           id="path4260" />
        <path
           d="m 99.940994,51.704205 q 0,-0.59203 -0.449943,-0.915673 -0.44205,-0.331537 -1.555067,-0.568349 -1.105123,-0.236812 -1.760303,-0.568349 -0.647287,-0.331537 -0.963036,-0.789374 -0.307856,-0.457837 -0.307856,-1.089336 0,-1.049867 0.884099,-1.776091 0.891992,-0.726224 2.273396,-0.726224 1.452448,0 2.352336,0.749906 0.90778,0.749905 0.90778,1.918178 l -1.468237,0 q 0,-0.599924 -0.513093,-1.03408 -0.5052,-0.434155 -1.278786,-0.434155 -0.797267,0 -1.24721,0.347324 -0.449943,0.347324 -0.449943,0.90778 0,0.52888 0.418368,0.797267 0.418368,0.268387 1.507704,0.513093 1.097229,0.244706 1.776087,0.584137 0.67886,0.339431 1.00251,0.820948 0.33154,0.473625 0.33154,1.16038 0,1.144592 -0.91568,1.839241 -0.915672,0.686755 -2.376013,0.686755 -1.026186,0 -1.81556,-0.363112 -0.789374,-0.363112 -1.239317,-1.010398 -0.442049,-0.655181 -0.442049,-1.412979 l 1.460341,0 q 0.03947,0.734117 0.584137,1.168273 0.552562,0.426262 1.452448,0.426262 0.828842,0 1.326147,-0.331537 0.5052,-0.339431 0.5052,-0.899887 z"
           style="font-style:normal;font-variant:normal;font-weight:normal;font-stretch:normal;font-size:16.16637421px;font-family:Roboto;-inkscape-font-specification:Roboto"
           id="path4262" />
        <path
           d="m 104.89037,53.969708 -1.46034,0 0,-8.541024 1.46034,0 0,8.541024 z m -1.57875,-10.806526 q 0,-0.355219 0.21313,-0.599924 0.22103,-0.244706 0.64729,-0.244706 0.42626,0 0.64729,0.244706 0.22102,0.244705 0.22102,0.599924 0,0.355218 -0.22102,0.59203 -0.22103,0.236812 -0.64729,0.236812 -0.42626,0 -0.64729,-0.236812 -0.21313,-0.236812 -0.21313,-0.59203 z"
           style="font-style:normal;font-variant:normal;font-weight:normal;font-stretch:normal;font-size:16.16637421px;font-family:Roboto;-inkscape-font-specification:Roboto"
           id="path4264" />
        <path
           d="m 106.8638,49.628153 q 0,-1.965541 0.93147,-3.157495 0.93146,-1.199849 2.43916,-1.199849 1.49981,0 2.37602,1.026186 l 0,-4.452068 1.46034,0 0,12.124781 -1.34194,0 -0.071,-0.915673 q -0.87621,1.073548 -2.43917,1.073548 -1.48402,0 -2.42337,-1.215636 -0.93147,-1.215635 -0.93147,-3.173282 l 0,-0.110512 z m 1.46035,0.165768 q 0,1.452448 0.59992,2.273396 0.59992,0.820949 1.65768,0.820949 1.3893,0 2.0287,-1.24721 l 0,-3.923188 q -0.65519,-1.207742 -2.01291,-1.207742 -1.07355,0 -1.67347,0.828843 -0.59992,0.828842 -0.59992,2.454952 z"
           style="font-style:normal;font-variant:normal;font-weight:normal;font-stretch:normal;font-size:16.16637421px;font-family:Roboto;-inkscape-font-specification:Roboto"
           id="path4266" />
        <path
           d="m 121.6172,53.969708 q -0.1263,-0.252599 -0.20524,-0.899886 -1.01829,1.057761 -2.43127,1.057761 -1.263,0 -2.07605,-0.710437 -0.80516,-0.71833 -0.80516,-1.815559 0,-1.334042 1.0104,-2.068159 1.01829,-0.742012 2.85753,-0.742012 l 1.42087,0 0,-0.670967 q 0,-0.765693 -0.45784,-1.215636 -0.45783,-0.457837 -1.34982,-0.457837 -0.78148,0 -1.31037,0.394687 -0.52888,0.394687 -0.52888,0.955142 l -1.46823,0 q 0,-0.639392 0.44994,-1.231423 0.45784,-0.599924 1.23143,-0.947248 0.78148,-0.347325 1.71294,-0.347325 1.47613,0 2.31286,0.742012 0.83674,0.734117 0.86831,2.02869 l 0,3.931082 q 0,1.176166 0.29996,1.870815 l 0,0.1263 -1.53138,0 z m -2.42338,-1.113017 q 0.68676,0 1.30247,-0.355218 0.61571,-0.355218 0.89199,-0.923567 l 0,-1.75241 -1.14459,0 q -2.68387,0 -2.68387,1.570854 0,0.686755 0.45784,1.073548 0.45783,0.386793 1.17616,0.386793 z"
           style="font-style:normal;font-variant:normal;font-weight:normal;font-stretch:normal;font-size:16.16637421px;font-family:Roboto;-inkscape-font-specification:Roboto"
           id="path4268" />
        <path
           d="m 124.79837,49.628153 q 0,-1.965541 0.93147,-3.157495 0.93146,-1.199849 2.43916,-1.199849 1.49981,0 2.37602,1.026186 l 0,-4.452068 1.46034,0 0,12.124781 -1.34194,0 -0.071,-0.915673 q -0.87621,1.073548 -2.43917,1.073548 -1.48402,0 -2.42337,-1.215636 -0.93147,-1.215635 -0.93147,-3.173282 l 0,-0.110512 z m 1.46035,0.165768 q 0,1.452448 0.59992,2.273396 0.59992,0.820949 1.65768,0.820949 1.3893,0 2.0287,-1.24721 l 0,-3.923188 q -0.65518,-1.207742 -2.01291,-1.207742 -1.07355,0 -1.67347,0.828843 -0.59992,0.828842 -0.59992,2.454952 z"
           style="font-style:normal;font-variant:normal;font-weight:normal;font-stretch:normal;font-size:16.16637421px;font-family:Roboto;-inkscape-font-specification:Roboto"
           id="path4270" />
        <path
           d="m 137.93355,49.628153 q 0,-1.965541 0.93146,-3.157495 0.93146,-1.199849 2.43917,-1.199849 1.49981,0 2.37601,1.026186 l 0,-4.452068 1.46034,0 0,12.124781 -1.34193,0 -0.071,-0.915673 q -0.87621,1.073548 -2.43917,1.073548 -1.48402,0 -2.42338,-1.215636 -0.93146,-1.215635 -0.93146,-3.173282 l 0,-0.110512 z m 1.46034,0.165768 q 0,1.452448 0.59993,2.273396 0.59992,0.820949 1.65768,0.820949 1.3893,0 2.02869,-1.24721 l 0,-3.923188 q -0.65518,-1.207742 -2.0129,-1.207742 -1.07355,0 -1.67347,0.828843 -0.59993,0.828842 -0.59993,2.454952 z"
           style="font-style:normal;font-variant:normal;font-weight:normal;font-stretch:normal;font-size:16.16637421px;font-family:Roboto;-inkscape-font-specification:Roboto"
           id="path4272" />
        <path
           d="m 150.95822,54.127583 q -1.73662,0 -2.82596,-1.136698 -1.08934,-1.144592 -1.08934,-3.054877 l 0,-0.268387 q 0,-1.270891 0.48152,-2.265502 0.48941,-1.002505 1.35773,-1.56296 0.8762,-0.56835 1.89449,-0.56835 1.66558,0 2.58915,1.09723 0.92357,1.097229 0.92357,3.141707 l 0,0.607818 -5.78611,0 q 0.0316,1.262998 0.73411,2.044478 0.71044,0.773587 1.79978,0.773587 0.77358,0 1.31036,-0.31575 0.53677,-0.315749 0.93935,-0.836736 l 0.89199,0.694649 q -1.07354,1.649791 -3.22064,1.649791 z m -0.18156,-7.656925 q -0.8841,0 -1.48402,0.647286 -0.59992,0.639393 -0.74201,1.799772 l 4.2784,0 0,-0.110512 q -0.0631,-1.113017 -0.59992,-1.720835 -0.53677,-0.615711 -1.45245,-0.615711 z"
           style="font-style:normal;font-variant:normal;font-weight:normal;font-stretch:normal;font-size:16.16637421px;font-family:Roboto;-inkscape-font-specification:Roboto"
           id="path4274" />
        <path
           d="m 163.40665,52.935629 q 0.78148,0 1.36561,-0.473625 0.58414,-0.473624 0.64729,-1.18406 l 1.3814,0 q -0.0395,0.734117 -0.5052,1.397191 -0.46573,0.663074 -1.24721,1.057761 -0.77358,0.394687 -1.64189,0.394687 -1.74452,0 -2.7786,-1.16038 -1.02619,-1.168273 -1.02619,-3.189069 l 0,-0.244706 q 0,-1.247211 0.45784,-2.218141 0.45784,-0.970929 1.31036,-1.507703 0.86042,-0.536775 2.02869,-0.536775 1.43666,0 2.38391,0.860418 0.95514,0.860417 1.01829,2.233928 l -1.3814,0 q -0.0631,-0.828843 -0.6315,-1.357723 -0.56046,-0.536774 -1.3893,-0.536774 -1.11301,0 -1.72873,0.805161 -0.60781,0.797267 -0.60781,2.312865 l 0,0.276281 q 0,1.476129 0.60781,2.273396 0.60782,0.797268 1.73663,0.797268 z"
           style="font-style:normal;font-variant:normal;font-weight:normal;font-stretch:normal;font-size:16.16637421px;font-family:Roboto;-inkscape-font-specification:Roboto"
           id="path4276" />
        <path
           d="m 169.90319,46.462764 q 0.97093,-1.191955 2.52599,-1.191955 2.70756,0 2.73124,3.054877 l 0,5.644022 -1.46034,0 0,-5.651916 q -0.008,-0.923567 -0.42627,-1.365616 -0.41047,-0.44205 -1.28668,-0.44205 -0.71043,0 -1.24721,0.3789 -0.53677,0.378899 -0.83673,0.994611 l 0,6.086071 -1.46034,0 0,-12.124781 1.46034,0 0,4.617837 z"
           style="font-style:normal;font-variant:normal;font-weight:normal;font-stretch:normal;font-size:16.16637421px;font-family:Roboto;-inkscape-font-specification:Roboto"
           id="path4278" />
        <path
           d="m 178.93362,53.969708 -1.46034,0 0,-8.541024 1.46034,0 0,8.541024 z m -1.57874,-10.806526 q 0,-0.355219 0.21313,-0.599924 0.22102,-0.244706 0.64728,-0.244706 0.42627,0 0.64729,0.244706 0.22102,0.244705 0.22102,0.599924 0,0.355218 -0.22102,0.59203 -0.22102,0.236812 -0.64729,0.236812 -0.42626,0 -0.64728,-0.236812 -0.21313,-0.236812 -0.21313,-0.59203 z"
           style="font-style:normal;font-variant:normal;font-weight:normal;font-stretch:normal;font-size:16.16637421px;font-family:Roboto;-inkscape-font-specification:Roboto"
           id="path4280" />
        <path
           d="m 182.84891,53.969708 -1.46034,0 0,-12.124781 1.46034,0 0,12.124781 z"
           style="font-style:normal;font-variant:normal;font-weight:normal;font-stretch:normal;font-size:16.16637421px;font-family:Roboto;-inkscape-font-specification:Roboto"
           id="path4282" />
        <path
           d="m 188.72186,54.127583 q -1.73662,0 -2.82596,-1.136698 -1.08933,-1.144592 -1.08933,-3.054877 l 0,-0.268387 q 0,-1.270891 0.48151,-2.265502 0.48942,-1.002505 1.35773,-1.56296 0.8762,-0.56835 1.89449,-0.56835 1.66558,0 2.58915,1.09723 0.92357,1.097229 0.92357,3.141707 l 0,0.607818 -5.78611,0 q 0.0316,1.262998 0.73412,2.044478 0.71043,0.773587 1.79977,0.773587 0.77358,0 1.31036,-0.31575 0.53677,-0.315749 0.93935,-0.836736 l 0.89199,0.694649 q -1.07354,1.649791 -3.22064,1.649791 z m -0.18156,-7.656925 q -0.88409,0 -1.48402,0.647286 -0.59992,0.639393 -0.74201,1.799772 l 4.27841,0 0,-0.110512 q -0.0632,-1.113017 -0.59993,-1.720835 -0.53677,-0.615711 -1.45245,-0.615711 z"
           style="font-style:normal;font-variant:normal;font-weight:normal;font-stretch:normal;font-size:16.16637421px;font-family:Roboto;-inkscape-font-specification:Roboto"
           id="path4284" />
      </g>
      <g
         style="font-style:normal;font-weight:normal;font-size:40px;line-height:125%;font-family:sans-serif;letter-spacing:0px;word-spacing:0px;fill:#000000;fill-opacity:1;stroke:none;stroke-width:1px;stroke-linecap:butt;stroke-linejoin:miter;stroke-opacity:1"
         id="text4148-7-29-2-4-0">
        <path
           d="m 532.60638,-18.046853 q -0.9375,-0.15625 -1.93359,-0.15625 -3.26172,0 -4.39453,2.5 l 0,14.4531253 -4.74609,0 0,-21.1328123 4.53125,0 0.11718,2.363281 q 1.71875,-2.753906 4.76563,-2.753906 1.01562,0 1.67969,0.273437 l -0.0195,4.453125 z"
           style="font-style:normal;font-variant:normal;font-weight:500;font-stretch:normal;font-family:Roboto;-inkscape-font-specification:'Roboto Medium'"
           id="path4232" />
        <path
           d="m 534.01263,-12.011696 q 0,-3.105469 1.23047,-5.585938 1.23047,-2.5 3.45703,-3.828125 2.22657,-1.347656 5.11719,-1.347656 4.27735,0 6.9336,2.753906 2.67578,2.753906 2.89062,7.304688 l 0.0195,1.113281 q 0,3.1249998 -1.21094,5.5859373 -1.1914,2.4609375 -3.4375,3.8085937 -2.22656,1.34765629 -5.15625,1.34765629 -4.47265,0 -7.16796,-2.96874999 -2.67579,-2.9882813 -2.67579,-7.9492183 l 0,-0.234375 z m 4.7461,0.410156 q 0,3.2617185 1.34765,5.1171873 1.34766,1.8359375 3.75,1.8359375 2.40235,0 3.73047,-1.875 1.34766,-1.875 1.34766,-5.4882808 0,-3.203125 -1.38672,-5.078125 -1.36719,-1.875 -3.73047,-1.875 -2.32422,0 -3.6914,1.855468 -1.36719,1.835938 -1.36719,5.507813 z"
           style="font-style:normal;font-variant:normal;font-weight:500;font-stretch:normal;font-family:Roboto;-inkscape-font-specification:'Roboto Medium'"
           id="path4234" />
        <path
           d="m 576.82513,-12.011696 q 0,-3.105469 1.23047,-5.585938 1.23047,-2.5 3.45703,-3.828125 2.22657,-1.347656 5.11719,-1.347656 4.27735,0 6.9336,2.753906 2.67578,2.753906 2.89062,7.304688 l 0.0195,1.113281 q 0,3.1249998 -1.21094,5.5859373 -1.1914,2.4609375 -3.4375,3.8085937 -2.22656,1.34765629 -5.15625,1.34765629 -4.47265,0 -7.16796,-2.96874999 -2.67579,-2.9882813 -2.67579,-7.9492183 l 0,-0.234375 z m 4.7461,0.410156 q 0,3.2617185 1.34765,5.1171873 1.34766,1.8359375 3.75,1.8359375 2.40235,0 3.73047,-1.875 1.34766,-1.875 1.34766,-5.4882808 0,-3.203125 -1.38672,-5.078125 -1.36719,-1.875 -3.73047,-1.875 -2.32422,0 -3.6914,1.855468 -1.36719,1.835938 -1.36719,5.507813 z m 6.36719,-19.648438 5.41015,0 -5.41015,5.917969 -3.8086,0 3.8086,-5.917969 z"
           style="font-style:normal;font-variant:normal;font-weight:500;font-stretch:normal;font-family:Roboto;-inkscape-font-specification:'Roboto Medium'"
           id="path4236" />
        <path
           d="m 606.47357,-27.519509 0,5.136719 3.73047,0 0,3.515625 -3.73047,0 0,11.7968748 q 0,1.2109375 0.46875,1.7578125 0.48828,0.5273437 1.71875,0.5273437 0.82031,0 1.66016,-0.1953125 l 0,3.671875 q -1.6211,0.44921879 -3.125,0.44921879 -5.46875,0 -5.46875,-6.03515629 l 0,-11.972656 -3.47656,0 0,-3.515625 3.47656,0 0,-5.136719 4.74609,0 z"
           style="font-style:normal;font-variant:normal;font-weight:500;font-stretch:normal;font-family:Roboto;-inkscape-font-specification:'Roboto Medium'"
           id="path4238" />
        <path
           d="m 618.85638,-1.2499777 -4.74609,0 0,-21.1328123 4.74609,0 0,21.1328123 z m -5.03906,-26.6210933 q 0,-1.09375 0.6836,-1.816407 0.70312,-0.722656 1.99218,-0.722656 1.28907,0 1.99219,0.722656 0.70313,0.722657 0.70313,1.816407 0,1.074218 -0.70313,1.796875 -0.70312,0.703125 -1.99219,0.703125 -1.28906,0 -1.99218,-0.703125 -0.6836,-0.722657 -0.6836,-1.796875 z"
           style="font-style:normal;font-variant:normal;font-weight:500;font-stretch:normal;font-family:Roboto;-inkscape-font-specification:'Roboto Medium'"
           id="path4240" />
        <path
           d="m 632.72357,-4.6484152 q 1.77735,0 2.94922,-1.0351563 1.17188,-1.0351562 1.25,-2.5585937 l 4.47266,0 q -0.0781,1.9726562 -1.23047,3.6914062 -1.15235,1.6992188 -3.125,2.6953125 -1.97266,0.99609379 -4.25781,0.99609379 -4.4336,0 -7.03125,-2.87109379 -2.59766,-2.8710937 -2.59766,-7.9296875 l 0,-0.488281 q 0,-4.824219 2.57812,-7.714844 2.57813,-2.910156 7.03125,-2.910156 3.76954,0 6.13282,2.207031 2.38281,2.1875 2.5,5.761719 l -4.47266,0 q -0.0781,-1.816406 -1.25,-2.988281 -1.15234,-1.171875 -2.94922,-1.171875 -2.30469,0 -3.55469,1.679687 -1.25,1.660156 -1.26953,5.058594 l 0,0.761719 q 0,3.4374995 1.23047,5.1367183 1.25,1.6796875 3.59375,1.6796875 z"
           style="font-style:normal;font-variant:normal;font-weight:500;font-stretch:normal;font-family:Roboto;-inkscape-font-specification:'Roboto Medium'"
           id="path4242" />
        <path
           d="m 657.60638,-1.2499777 q -0.3125,-0.6054688 -0.54687,-1.9726563 -2.26563,2.36328129 -5.54688,2.36328129 -3.18359,0 -5.19531,-1.81640629 -2.01172,-1.8164062 -2.01172,-4.4921875 0,-3.3789065 2.5,-5.1757815 2.51953,-1.816406 7.1875,-1.816406 l 2.91016,0 0,-1.386719 q 0,-1.640625 -0.91797,-2.617187 -0.91797,-0.996094 -2.79297,-0.996094 -1.62109,0 -2.65625,0.820313 -1.03515,0.800781 -1.03515,2.050781 l -4.7461,0 q 0,-1.738281 1.15235,-3.242188 1.15234,-1.523437 3.125,-2.382812 1.99218,-0.859375 4.43359,-0.859375 3.71094,0 5.91797,1.875 2.20703,1.855469 2.26562,5.234375 l 0,9.5312498 q 0,2.8515625 0.80078,4.5507812 l 0,0.3320313 -4.84375,0 z m -5.21484,-3.4179688 q 1.40625,0 2.63672,-0.6835937 1.25,-0.6835938 1.875,-1.8359375 l 0,-3.9843753 -2.55859,0 q -2.63672,0 -3.96485,0.917969 -1.32812,0.9179688 -1.32812,2.5976563 0,1.3671875 0.89843,2.1875 0.91797,0.8007812 2.44141,0.8007812 z"
           style="font-style:normal;font-variant:normal;font-weight:500;font-stretch:normal;font-family:Roboto;-inkscape-font-specification:'Roboto Medium'"
           id="path4244" />
      </g>
      <path
         style="fill:#0066ff;fill-rule:evenodd;stroke:none;stroke-width:2.59177494;stroke-linecap:butt;stroke-linejoin:miter;stroke-miterlimit:4;stroke-dasharray:none;stroke-opacity:1"
         d="m 558.43764,-108.94951 c 2.62537,-12.32442 9.29006,-24.25483 26.16743,-23.64902 18.60767,0.6679 28.409,14.42917 30.93524,24.10538 5.6109,21.49132 5.84528,45.10075 -9.92078,49.12344 -44.88631,11.45273 -51.74883,-8.95269 -51.74883,-8.95269 0,0 1.72766,-27.298495 4.56694,-40.62711 z"
         id="path4152-2-2-9-0-1"
         inkscape:connector-curvature="0"
         sodipodi:nodetypes="sssscs"
         inkscape:export-xdpi="600"
         inkscape:export-ydpi="600" />
      <circle
         style="opacity:1;fill:#000000;fill-opacity:1;stroke:none;stroke-width:3;stroke-linecap:round;stroke-linejoin:round;stroke-miterlimit:4;stroke-dasharray:none;stroke-dashoffset:0;stroke-opacity:1"
         id="path4154-5-1-9-3-3-5"
         cx="595.11548"
         cy="-55.726814"
         r="13.860599"
         inkscape:export-xdpi="600"
         inkscape:export-ydpi="600" />
      <path
         sodipodi:nodetypes="cccccc"
         inkscape:connector-curvature="0"
         id="path4257-7-6-6-6-1"
         d="m 639.81951,-86.19134 -6.74103,-4.71324 4.00078,-11.45426 10.86405,-3.46373 10.0653,7.350054 -3.17706,7.730716"
         style="fill:none;fill-rule:evenodd;stroke:#000000;stroke-width:5.20840645;stroke-linecap:round;stroke-linejoin:round;stroke-miterlimit:4;stroke-dasharray:none;stroke-opacity:1"
         inkscape:export-xdpi="600"
         inkscape:export-ydpi="600" />
      <g
         transform="matrix(0.96511431,-0.2618289,0.2618289,0.96511431,0,0)"
         style="font-style:normal;font-weight:normal;font-size:40px;line-height:125%;font-family:sans-serif;letter-spacing:0px;word-spacing:0px;fill:#0066ff;fill-opacity:1;stroke:none;stroke-width:1px;stroke-linecap:butt;stroke-linejoin:miter;stroke-opacity:1"
         id="text4259-2-0-1-1-3">
        <path
           d="m 558.50433,135.42451 q 0,4.92188 -2.20703,7.83204 -2.1875,2.91015 -6.03515,2.91015 -3.71094,0 -5.78125,-2.67578 l -0.23438,2.28516 -4.29687,0 0,-30 4.74609,0 0,10.89843 q 2.05078,-2.42187 5.52734,-2.42187 3.86719,0 6.07422,2.87109 2.20703,2.8711 2.20703,8.02735 l 0,0.27343 z m -4.74609,-0.41015 q 0,-3.4375 -1.21094,-5.15625 -1.21094,-1.71875 -3.51562,-1.71875 -3.08594,0 -4.33594,2.69531 l 0,8.71094 q 1.26953,2.7539 4.375,2.7539 2.22656,0 3.4375,-1.66015 1.21094,-1.66016 1.25,-5.01953 l 0,-0.60547 z"
           style="font-style:normal;font-variant:normal;font-weight:500;font-stretch:normal;font-family:Roboto;-inkscape-font-specification:'Roboto Medium';fill:#0066ff"
           id="path4247" />
      </g>
      <circle
         style="opacity:1;fill:#000000;fill-opacity:1;stroke:none;stroke-width:3;stroke-linecap:round;stroke-linejoin:round;stroke-miterlimit:4;stroke-dasharray:none;stroke-dashoffset:0;stroke-opacity:1"
         id="path4347-2-6-9"
         cx="608.66034"
         cy="-115.86868"
         r="6.4669962"
         inkscape:export-xdpi="600"
         inkscape:export-ydpi="600" />
      <circle
         style="opacity:1;fill:#000000;fill-opacity:1;stroke:none;stroke-width:3;stroke-linecap:round;stroke-linejoin:round;stroke-miterlimit:4;stroke-dasharray:none;stroke-dashoffset:0;stroke-opacity:1"
         id="path4154-54-0-7-3-4"
         cx="556.46368"
         cy="-62.341408"
         r="11.302899"
         inkscape:export-xdpi="600"
         inkscape:export-ydpi="600" />
    </g>
  </g>
</svg>
