<?xml version="1.0" encoding="UTF-8" standalone="no"?>
<!-- Created with Inkscape (http://www.inkscape.org/) -->

<svg
   xmlns:dc="http://purl.org/dc/elements/1.1/"
   xmlns:cc="http://creativecommons.org/ns#"
   xmlns:rdf="http://www.w3.org/1999/02/22-rdf-syntax-ns#"
   xmlns:svg="http://www.w3.org/2000/svg"
   xmlns="http://www.w3.org/2000/svg"
   xmlns:sodipodi="http://sodipodi.sourceforge.net/DTD/sodipodi-0.dtd"
   xmlns:inkscape="http://www.inkscape.org/namespaces/inkscape"
   width="60.20163mm"
   height="22.590628mm"
   viewBox="0 0 213.31286 80.045534"
   id="svg2"
   version="1.1"
   inkscape:version="0.91 r13725"
   sodipodi:docname="robotica_uchile_2018_hor.svg"
   inkscape:export-filename="/home/matias/LogosFCFM/Otros/Comunidad de Robótica/robotica_uchile_2018_hor.png"
   inkscape:export-xdpi="1000"
   inkscape:export-ydpi="1000">
  <defs
     id="defs4">
    <clipPath
       clipPathUnits="userSpaceOnUse"
       id="clipPath4351">
      <path
         style="fill:none;fill-rule:evenodd;stroke:#000000;stroke-width:1px;stroke-linecap:butt;stroke-linejoin:miter;stroke-opacity:1"
         d="m -168.51652,212.75577 c -1.25,1.42857 -1.78572,5 -1.25,9.46428 0.53571,4.46429 -1.25,8.39286 1.25,9.10715 2.5,0.71428 4.82143,1.24999 5.35714,5.17857 0.53572,3.92857 2.32143,13.57142 9.28572,18.39285 6.96428,4.82143 23.21428,4.46429 27.67857,0.35715 4.46428,-4.10715 8.75,-17.85715 9.28571,-21.78572 0.53572,-3.92857 2.67857,-14.10714 3.57143,-19.10714 0.89286,-5 1.78571,-16.42857 -1.07143,-19.64286 -2.85714,-3.21428 -15,-16.07143 -24.10714,-16.96428 -9.10714,-0.89286 -22.14286,6.07143 -26.07143,11.07143 -3.92857,5 -3.92857,23.92857 -3.92857,23.92857 z"
         id="path4353"
         inkscape:connector-curvature="0" />
    </clipPath>
    <clipPath
       clipPathUnits="userSpaceOnUse"
       id="clipPath4351-0">
      <path
         style="fill:none;fill-rule:evenodd;stroke:#000000;stroke-width:1px;stroke-linecap:butt;stroke-linejoin:miter;stroke-opacity:1"
         d="m -168.51652,212.75577 c -1.25,1.42857 -1.78572,5 -1.25,9.46428 0.53571,4.46429 -1.25,8.39286 1.25,9.10715 2.5,0.71428 4.82143,1.24999 5.35714,5.17857 0.53572,3.92857 2.32143,13.57142 9.28572,18.39285 6.96428,4.82143 23.21428,4.46429 27.67857,0.35715 4.46428,-4.10715 8.75,-17.85715 9.28571,-21.78572 0.53572,-3.92857 2.67857,-14.10714 3.57143,-19.10714 0.89286,-5 1.78571,-16.42857 -1.07143,-19.64286 -2.85714,-3.21428 -15,-16.07143 -24.10714,-16.96428 -9.10714,-0.89286 -22.14286,6.07143 -26.07143,11.07143 -3.92857,5 -3.92857,23.92857 -3.92857,23.92857 z"
         id="path4353-6"
         inkscape:connector-curvature="0" />
    </clipPath>
  </defs>
  <sodipodi:namedview
     id="base"
     pagecolor="#ffffff"
     bordercolor="#666666"
     borderopacity="1.0"
     inkscape:pageopacity="0.0"
     inkscape:pageshadow="2"
     inkscape:zoom="2.8"
     inkscape:cx="136.6971"
     inkscape:cy="34.744"
     inkscape:document-units="px"
     inkscape:current-layer="g4267-9-36"
     showgrid="false"
     showguides="true"
     fit-margin-top="3"
     fit-margin-left="3"
     fit-margin-right="3"
     fit-margin-bottom="3"
     inkscape:window-width="1855"
     inkscape:window-height="1056"
     inkscape:window-x="65"
     inkscape:window-y="24"
     inkscape:window-maximized="1"
     inkscape:guide-bbox="true" />
  <metadata
     id="metadata7">
    <rdf:RDF>
      <cc:Work
         rdf:about="">
        <dc:format>image/svg+xml</dc:format>
        <dc:type
           rdf:resource="http://purl.org/dc/dcmitype/StillImage" />
        <dc:title></dc:title>
      </cc:Work>
    </rdf:RDF>
  </metadata>
  <g
     inkscape:label="Layer 1"
     inkscape:groupmode="layer"
     id="layer1"
     transform="translate(-738.88496,283.14813)">
    <g
       id="g4249" />
    <g
       transform="translate(494.18254,-189.96794)"
       id="g4267-9-36">
      <circle
         style="opacity:1;fill:#000000;fill-opacity:1;stroke:none;stroke-width:3;stroke-linecap:round;stroke-linejoin:round;stroke-miterlimit:4;stroke-dasharray:none;stroke-dashoffset:0;stroke-opacity:1"
         id="path4154-5-1-9-3-9-3"
         cx="292.00656"
         cy="-36.892281"
         r="7.9835939"
         inkscape:export-xdpi="300"
         inkscape:export-ydpi="300" />
      <path
         sodipodi:nodetypes="ccc"
         inkscape:connector-curvature="0"
         id="path4255-8-3-3-1"
         d="m 292.81524,-67.529279 21.17231,-13.520995 23.80864,4.729519"
         style="fill:none;fill-rule:evenodd;stroke:#000000;stroke-width:3;stroke-linecap:butt;stroke-linejoin:round;stroke-miterlimit:4;stroke-dasharray:none;stroke-opacity:1"
         inkscape:export-xdpi="300"
         inkscape:export-ydpi="300" />
      <g
         transform="translate(255.33234,-82.550265)"
         style="font-style:normal;font-weight:normal;font-size:28.74022293px;line-height:125%;font-family:sans-serif;letter-spacing:0px;word-spacing:0px;fill:#000000;fill-opacity:1;stroke:none;stroke-width:1px;stroke-linecap:butt;stroke-linejoin:miter;stroke-opacity:1"
         id="flowRoot4136-9-5-7-9">
        <path
           d="m 56.635952,53.125078 q -0.852523,1.002505 -2.502314,1.002505 -1.365617,0 -2.083947,-0.789374 -0.710436,-0.797267 -0.71833,-2.352334 l 0,-5.557191 1.460341,0 0,5.517723 q 0,1.941859 1.578748,1.941859 1.673472,0 2.226034,-1.24721 l 0,-6.212372 1.460341,0 0,8.541024 -1.389298,0 -0.03157,-0.84463 z"
           style="font-style:normal;font-variant:normal;font-weight:normal;font-stretch:normal;font-size:16.16637421px;font-family:Roboto;-inkscape-font-specification:Roboto"
           id="path4189" />
        <path
           d="m 61.648475,45.428684 0.04736,1.073549 q 0.978823,-1.231424 2.557571,-1.231424 2.707552,0 2.731233,3.054877 l 0,5.644022 -1.460341,0 0,-5.651916 q -0.0079,-0.923567 -0.426262,-1.365616 -0.410475,-0.44205 -1.286679,-0.44205 -0.710437,0 -1.247211,0.3789 -0.536774,0.378899 -0.836736,0.994611 l 0,6.086071 -1.460342,0 0,-8.541024 1.381404,0 z"
           style="font-style:normal;font-variant:normal;font-weight:normal;font-stretch:normal;font-size:16.16637421px;font-family:Roboto;-inkscape-font-specification:Roboto"
           id="path4191" />
        <path
           d="m 70.789425,53.969708 -1.460342,0 0,-8.541024 1.460342,0 0,8.541024 z M 69.210677,43.163182 q 0,-0.355219 0.213131,-0.599924 0.221025,-0.244706 0.647286,-0.244706 0.426262,0 0.647287,0.244706 0.221025,0.244705 0.221025,0.599924 0,0.355218 -0.221025,0.59203 -0.221025,0.236812 -0.647287,0.236812 -0.426261,0 -0.647286,-0.236812 -0.213131,-0.236812 -0.213131,-0.59203 z"
           style="font-style:normal;font-variant:normal;font-weight:normal;font-stretch:normal;font-size:16.16637421px;font-family:Roboto;-inkscape-font-specification:Roboto"
           id="path4193" />
        <path
           d="m 75.93614,51.98838 2.115522,-6.559696 1.491916,0 -3.06277,8.541024 -1.113017,0 -3.094345,-8.541024 1.491917,0 2.170777,6.559696 z"
           style="font-style:normal;font-variant:normal;font-weight:normal;font-stretch:normal;font-size:16.16637421px;font-family:Roboto;-inkscape-font-specification:Roboto"
           id="path4195" />
        <path
           d="m 84.492952,54.127583 q -1.736623,0 -2.825958,-1.136698 -1.089336,-1.144592 -1.089336,-3.054877 l 0,-0.268387 q 0,-1.270891 0.481518,-2.265502 0.489411,-1.002505 1.357723,-1.56296 0.876204,-0.56835 1.894497,-0.56835 1.665578,0 2.589145,1.09723 0.923568,1.097229 0.923568,3.141707 l 0,0.607818 -5.78611,0 q 0.03158,1.262998 0.734118,2.044478 0.710436,0.773587 1.799772,0.773587 0.773586,0 1.31036,-0.31575 0.536774,-0.315749 0.939355,-0.836736 l 0.891992,0.694649 q -1.073548,1.649791 -3.220644,1.649791 z m -0.181556,-7.656925 q -0.884099,0 -1.484023,0.647286 -0.599924,0.639393 -0.742011,1.799772 l 4.278405,0 0,-0.110512 q -0.06315,-1.113017 -0.599924,-1.720835 -0.536774,-0.615711 -1.452447,-0.615711 z"
           style="font-style:normal;font-variant:normal;font-weight:normal;font-stretch:normal;font-size:16.16637421px;font-family:Roboto;-inkscape-font-specification:Roboto"
           id="path4197" />
        <path
           d="m 93.6339,46.739045 q -0.331537,-0.05526 -0.71833,-0.05526 -1.43666,0 -1.949753,1.22353 l 0,6.06239 -1.460341,0 0,-8.541024 1.420872,0 0.02368,0.986717 q 0.71833,-1.144592 2.036584,-1.144592 0.426262,0 0.647286,0.110513 l 0,1.357723 z"
           style="font-style:normal;font-variant:normal;font-weight:normal;font-stretch:normal;font-size:16.16637421px;font-family:Roboto;-inkscape-font-specification:Roboto"
           id="path4199" />
        <path
           d="m 99.940994,51.704205 q 0,-0.59203 -0.449943,-0.915673 -0.44205,-0.331537 -1.555067,-0.568349 -1.105123,-0.236812 -1.760303,-0.568349 -0.647287,-0.331537 -0.963036,-0.789374 -0.307856,-0.457837 -0.307856,-1.089336 0,-1.049867 0.884099,-1.776091 0.891992,-0.726224 2.273396,-0.726224 1.452448,0 2.352336,0.749906 0.90778,0.749905 0.90778,1.918178 l -1.468237,0 q 0,-0.599924 -0.513093,-1.03408 -0.5052,-0.434155 -1.278786,-0.434155 -0.797267,0 -1.24721,0.347324 -0.449943,0.347324 -0.449943,0.90778 0,0.52888 0.418368,0.797267 0.418368,0.268387 1.507704,0.513093 1.097229,0.244706 1.776087,0.584137 0.67886,0.339431 1.00251,0.820948 0.33154,0.473625 0.33154,1.16038 0,1.144592 -0.91568,1.839241 -0.915672,0.686755 -2.376013,0.686755 -1.026186,0 -1.81556,-0.363112 -0.789374,-0.363112 -1.239317,-1.010398 -0.442049,-0.655181 -0.442049,-1.412979 l 1.460341,0 q 0.03947,0.734117 0.584137,1.168273 0.552562,0.426262 1.452448,0.426262 0.828842,0 1.326147,-0.331537 0.5052,-0.339431 0.5052,-0.899887 z"
           style="font-style:normal;font-variant:normal;font-weight:normal;font-stretch:normal;font-size:16.16637421px;font-family:Roboto;-inkscape-font-specification:Roboto"
           id="path4201" />
        <path
           d="m 104.89037,53.969708 -1.46034,0 0,-8.541024 1.46034,0 0,8.541024 z m -1.57875,-10.806526 q 0,-0.355219 0.21313,-0.599924 0.22103,-0.244706 0.64729,-0.244706 0.42626,0 0.64729,0.244706 0.22102,0.244705 0.22102,0.599924 0,0.355218 -0.22102,0.59203 -0.22103,0.236812 -0.64729,0.236812 -0.42626,0 -0.64729,-0.236812 -0.21313,-0.236812 -0.21313,-0.59203 z"
           style="font-style:normal;font-variant:normal;font-weight:normal;font-stretch:normal;font-size:16.16637421px;font-family:Roboto;-inkscape-font-specification:Roboto"
           id="path4203" />
        <path
           d="m 106.8638,49.628153 q 0,-1.965541 0.93147,-3.157495 0.93146,-1.199849 2.43916,-1.199849 1.49981,0 2.37602,1.026186 l 0,-4.452068 1.46034,0 0,12.124781 -1.34194,0 -0.071,-0.915673 q -0.87621,1.073548 -2.43917,1.073548 -1.48402,0 -2.42337,-1.215636 -0.93147,-1.215635 -0.93147,-3.173282 l 0,-0.110512 z m 1.46035,0.165768 q 0,1.452448 0.59992,2.273396 0.59992,0.820949 1.65768,0.820949 1.3893,0 2.0287,-1.24721 l 0,-3.923188 q -0.65519,-1.207742 -2.01291,-1.207742 -1.07355,0 -1.67347,0.828843 -0.59992,0.828842 -0.59992,2.454952 z"
           style="font-style:normal;font-variant:normal;font-weight:normal;font-stretch:normal;font-size:16.16637421px;font-family:Roboto;-inkscape-font-specification:Roboto"
           id="path4205" />
        <path
           d="m 121.6172,53.969708 q -0.1263,-0.252599 -0.20524,-0.899886 -1.01829,1.057761 -2.43127,1.057761 -1.263,0 -2.07605,-0.710437 -0.80516,-0.71833 -0.80516,-1.815559 0,-1.334042 1.0104,-2.068159 1.01829,-0.742012 2.85753,-0.742012 l 1.42087,0 0,-0.670967 q 0,-0.765693 -0.45784,-1.215636 -0.45783,-0.457837 -1.34982,-0.457837 -0.78148,0 -1.31037,0.394687 -0.52888,0.394687 -0.52888,0.955142 l -1.46823,0 q 0,-0.639392 0.44994,-1.231423 0.45784,-0.599924 1.23143,-0.947248 0.78148,-0.347325 1.71294,-0.347325 1.47613,0 2.31286,0.742012 0.83674,0.734117 0.86831,2.02869 l 0,3.931082 q 0,1.176166 0.29996,1.870815 l 0,0.1263 -1.53138,0 z m -2.42338,-1.113017 q 0.68676,0 1.30247,-0.355218 0.61571,-0.355218 0.89199,-0.923567 l 0,-1.75241 -1.14459,0 q -2.68387,0 -2.68387,1.570854 0,0.686755 0.45784,1.073548 0.45783,0.386793 1.17616,0.386793 z"
           style="font-style:normal;font-variant:normal;font-weight:normal;font-stretch:normal;font-size:16.16637421px;font-family:Roboto;-inkscape-font-specification:Roboto"
           id="path4207" />
        <path
           d="m 124.79837,49.628153 q 0,-1.965541 0.93147,-3.157495 0.93146,-1.199849 2.43916,-1.199849 1.49981,0 2.37602,1.026186 l 0,-4.452068 1.46034,0 0,12.124781 -1.34194,0 -0.071,-0.915673 q -0.87621,1.073548 -2.43917,1.073548 -1.48402,0 -2.42337,-1.215636 -0.93147,-1.215635 -0.93147,-3.173282 l 0,-0.110512 z m 1.46035,0.165768 q 0,1.452448 0.59992,2.273396 0.59992,0.820949 1.65768,0.820949 1.3893,0 2.0287,-1.24721 l 0,-3.923188 q -0.65518,-1.207742 -2.01291,-1.207742 -1.07355,0 -1.67347,0.828843 -0.59992,0.828842 -0.59992,2.454952 z"
           style="font-style:normal;font-variant:normal;font-weight:normal;font-stretch:normal;font-size:16.16637421px;font-family:Roboto;-inkscape-font-specification:Roboto"
           id="path4209" />
        <path
           d="m 137.93355,49.628153 q 0,-1.965541 0.93146,-3.157495 0.93146,-1.199849 2.43917,-1.199849 1.49981,0 2.37601,1.026186 l 0,-4.452068 1.46034,0 0,12.124781 -1.34193,0 -0.071,-0.915673 q -0.87621,1.073548 -2.43917,1.073548 -1.48402,0 -2.42338,-1.215636 -0.93146,-1.215635 -0.93146,-3.173282 l 0,-0.110512 z m 1.46034,0.165768 q 0,1.452448 0.59993,2.273396 0.59992,0.820949 1.65768,0.820949 1.3893,0 2.02869,-1.24721 l 0,-3.923188 q -0.65518,-1.207742 -2.0129,-1.207742 -1.07355,0 -1.67347,0.828843 -0.59993,0.828842 -0.59993,2.454952 z"
           style="font-style:normal;font-variant:normal;font-weight:normal;font-stretch:normal;font-size:16.16637421px;font-family:Roboto;-inkscape-font-specification:Roboto"
           id="path4211" />
        <path
           d="m 150.95822,54.127583 q -1.73662,0 -2.82596,-1.136698 -1.08934,-1.144592 -1.08934,-3.054877 l 0,-0.268387 q 0,-1.270891 0.48152,-2.265502 0.48941,-1.002505 1.35773,-1.56296 0.8762,-0.56835 1.89449,-0.56835 1.66558,0 2.58915,1.09723 0.92357,1.097229 0.92357,3.141707 l 0,0.607818 -5.78611,0 q 0.0316,1.262998 0.73411,2.044478 0.71044,0.773587 1.79978,0.773587 0.77358,0 1.31036,-0.31575 0.53677,-0.315749 0.93935,-0.836736 l 0.89199,0.694649 q -1.07354,1.649791 -3.22064,1.649791 z m -0.18156,-7.656925 q -0.8841,0 -1.48402,0.647286 -0.59992,0.639393 -0.74201,1.799772 l 4.2784,0 0,-0.110512 q -0.0631,-1.113017 -0.59992,-1.720835 -0.53677,-0.615711 -1.45245,-0.615711 z"
           style="font-style:normal;font-variant:normal;font-weight:normal;font-stretch:normal;font-size:16.16637421px;font-family:Roboto;-inkscape-font-specification:Roboto"
           id="path4213" />
        <path
           d="m 163.40665,52.935629 q 0.78148,0 1.36561,-0.473625 0.58414,-0.473624 0.64729,-1.18406 l 1.3814,0 q -0.0395,0.734117 -0.5052,1.397191 -0.46573,0.663074 -1.24721,1.057761 -0.77358,0.394687 -1.64189,0.394687 -1.74452,0 -2.7786,-1.16038 -1.02619,-1.168273 -1.02619,-3.189069 l 0,-0.244706 q 0,-1.247211 0.45784,-2.218141 0.45784,-0.970929 1.31036,-1.507703 0.86042,-0.536775 2.02869,-0.536775 1.43666,0 2.38391,0.860418 0.95514,0.860417 1.01829,2.233928 l -1.3814,0 q -0.0631,-0.828843 -0.6315,-1.357723 -0.56046,-0.536774 -1.3893,-0.536774 -1.11301,0 -1.72873,0.805161 -0.60781,0.797267 -0.60781,2.312865 l 0,0.276281 q 0,1.476129 0.60781,2.273396 0.60782,0.797268 1.73663,0.797268 z"
           style="font-style:normal;font-variant:normal;font-weight:normal;font-stretch:normal;font-size:16.16637421px;font-family:Roboto;-inkscape-font-specification:Roboto"
           id="path4215" />
        <path
           d="m 169.90319,46.462764 q 0.97093,-1.191955 2.52599,-1.191955 2.70756,0 2.73124,3.054877 l 0,5.644022 -1.46034,0 0,-5.651916 q -0.008,-0.923567 -0.42627,-1.365616 -0.41047,-0.44205 -1.28668,-0.44205 -0.71043,0 -1.24721,0.3789 -0.53677,0.378899 -0.83673,0.994611 l 0,6.086071 -1.46034,0 0,-12.124781 1.46034,0 0,4.617837 z"
           style="font-style:normal;font-variant:normal;font-weight:normal;font-stretch:normal;font-size:16.16637421px;font-family:Roboto;-inkscape-font-specification:Roboto"
           id="path4217" />
        <path
           d="m 178.93362,53.969708 -1.46034,0 0,-8.541024 1.46034,0 0,8.541024 z m -1.57874,-10.806526 q 0,-0.355219 0.21313,-0.599924 0.22102,-0.244706 0.64728,-0.244706 0.42627,0 0.64729,0.244706 0.22102,0.244705 0.22102,0.599924 0,0.355218 -0.22102,0.59203 -0.22102,0.236812 -0.64729,0.236812 -0.42626,0 -0.64728,-0.236812 -0.21313,-0.236812 -0.21313,-0.59203 z"
           style="font-style:normal;font-variant:normal;font-weight:normal;font-stretch:normal;font-size:16.16637421px;font-family:Roboto;-inkscape-font-specification:Roboto"
           id="path4219" />
        <path
           d="m 182.84891,53.969708 -1.46034,0 0,-12.124781 1.46034,0 0,12.124781 z"
           style="font-style:normal;font-variant:normal;font-weight:normal;font-stretch:normal;font-size:16.16637421px;font-family:Roboto;-inkscape-font-specification:Roboto"
           id="path4221" />
        <path
           d="m 188.72186,54.127583 q -1.73662,0 -2.82596,-1.136698 -1.08933,-1.144592 -1.08933,-3.054877 l 0,-0.268387 q 0,-1.270891 0.48151,-2.265502 0.48942,-1.002505 1.35773,-1.56296 0.8762,-0.56835 1.89449,-0.56835 1.66558,0 2.58915,1.09723 0.92357,1.097229 0.92357,3.141707 l 0,0.607818 -5.78611,0 q 0.0316,1.262998 0.73412,2.044478 0.71043,0.773587 1.79977,0.773587 0.77358,0 1.31036,-0.31575 0.53677,-0.315749 0.93935,-0.836736 l 0.89199,0.694649 q -1.07354,1.649791 -3.22064,1.649791 z m -0.18156,-7.656925 q -0.88409,0 -1.48402,0.647286 -0.59992,0.639393 -0.74201,1.799772 l 4.27841,0 0,-0.110512 q -0.0632,-1.113017 -0.59993,-1.720835 -0.53677,-0.615711 -1.45245,-0.615711 z"
           style="font-style:normal;font-variant:normal;font-weight:normal;font-stretch:normal;font-size:16.16637421px;font-family:Roboto;-inkscape-font-specification:Roboto"
           id="path4223" />
      </g>
      <g
         style="font-style:normal;font-weight:normal;font-size:40px;line-height:125%;font-family:sans-serif;letter-spacing:0px;word-spacing:0px;fill:#000000;fill-opacity:1;stroke:none;stroke-width:1px;stroke-linecap:butt;stroke-linejoin:miter;stroke-opacity:1"
         id="text4148-7-29-2-4">
        <path
           d="m 317.0242,-61.100067 q -0.9375,-0.15625 -1.93359,-0.15625 -3.26172,0 -4.39453,2.5 l 0,14.453125 -4.7461,0 0,-21.132813 4.53125,0 0.11719,2.363282 q 1.71875,-2.753907 4.76562,-2.753907 1.01563,0 1.67969,0.273438 l -0.0195,4.453125 z"
           style="font-style:normal;font-variant:normal;font-weight:500;font-stretch:normal;font-family:Roboto;-inkscape-font-specification:'Roboto Medium'"
           id="path4174" />
        <path
           d="m 318.43045,-55.064911 q 0,-3.105469 1.23047,-5.585937 1.23047,-2.5 3.45703,-3.828125 2.22656,-1.347657 5.11719,-1.347657 4.27734,0 6.93359,2.753907 2.67578,2.753906 2.89063,7.304687 l 0.0195,1.113281 q 0,3.125 -1.21094,5.585938 -1.19141,2.460937 -3.4375,3.808594 -2.22656,1.347656 -5.15625,1.347656 -4.47266,0 -7.16797,-2.96875 -2.67578,-2.988281 -2.67578,-7.949219 l 0,-0.234375 z m 4.74609,0.410156 q 0,3.261719 1.34766,5.117188 1.34766,1.835937 3.75,1.835937 2.40234,0 3.73047,-1.875 1.34766,-1.875 1.34766,-5.488281 0,-3.203125 -1.38672,-5.078125 -1.36719,-1.875 -3.73047,-1.875 -2.32422,0 -3.69141,1.855469 -1.36719,1.835937 -1.36719,5.507812 z"
           style="font-style:normal;font-variant:normal;font-weight:500;font-stretch:normal;font-family:Roboto;-inkscape-font-specification:'Roboto Medium'"
           id="path4176" />
        <path
           d="m 361.24295,-55.064911 q 0,-3.105469 1.23047,-5.585937 1.23047,-2.5 3.45703,-3.828125 2.22656,-1.347657 5.11719,-1.347657 4.27734,0 6.93359,2.753907 2.67578,2.753906 2.89063,7.304687 l 0.0195,1.113281 q 0,3.125 -1.21094,5.585938 -1.19141,2.460937 -3.4375,3.808594 -2.22656,1.347656 -5.15625,1.347656 -4.47266,0 -7.16797,-2.96875 -2.67578,-2.988281 -2.67578,-7.949219 l 0,-0.234375 z m 4.74609,0.410156 q 0,3.261719 1.34766,5.117188 1.34766,1.835937 3.75,1.835937 2.40234,0 3.73047,-1.875 1.34766,-1.875 1.34766,-5.488281 0,-3.203125 -1.38672,-5.078125 -1.36719,-1.875 -3.73047,-1.875 -2.32422,0 -3.69141,1.855469 -1.36719,1.835937 -1.36719,5.507812 z m 6.36719,-19.648437 5.41016,0 -5.41016,5.917969 -3.80859,0 3.80859,-5.917969 z"
           style="font-style:normal;font-variant:normal;font-weight:500;font-stretch:normal;font-family:Roboto;-inkscape-font-specification:'Roboto Medium'"
           id="path4178" />
        <path
           d="m 390.89139,-70.572723 0,5.136718 3.73047,0 0,3.515625 -3.73047,0 0,11.796875 q 0,1.210938 0.46875,1.757813 0.48828,0.527344 1.71875,0.527344 0.82031,0 1.66015,-0.195313 l 0,3.671875 q -1.62109,0.449219 -3.125,0.449219 -5.46875,0 -5.46875,-6.035156 l 0,-11.972657 -3.47656,0 0,-3.515625 3.47656,0 0,-5.136718 4.7461,0 z"
           style="font-style:normal;font-variant:normal;font-weight:500;font-stretch:normal;font-family:Roboto;-inkscape-font-specification:'Roboto Medium'"
           id="path4180" />
        <path
           d="m 403.2742,-44.303192 -4.74609,0 0,-21.132813 4.74609,0 0,21.132813 z m -5.03906,-26.621094 q 0,-1.09375 0.68359,-1.816406 0.70313,-0.722656 1.99219,-0.722656 1.28906,0 1.99219,0.722656 0.70312,0.722656 0.70312,1.816406 0,1.074219 -0.70312,1.796875 -0.70313,0.703125 -1.99219,0.703125 -1.28906,0 -1.99219,-0.703125 -0.68359,-0.722656 -0.68359,-1.796875 z"
           style="font-style:normal;font-variant:normal;font-weight:500;font-stretch:normal;font-family:Roboto;-inkscape-font-specification:'Roboto Medium'"
           id="path4182" />
        <path
           d="m 417.14139,-47.70163 q 1.77734,0 2.94922,-1.035156 1.17187,-1.035156 1.25,-2.558594 l 4.47265,0 q -0.0781,1.972657 -1.23047,3.691407 -1.15234,1.699218 -3.125,2.695312 -1.97265,0.996094 -4.25781,0.996094 -4.43359,0 -7.03125,-2.871094 -2.59765,-2.871094 -2.59765,-7.929687 l 0,-0.488282 q 0,-4.824218 2.57812,-7.714843 2.57813,-2.910157 7.03125,-2.910157 3.76953,0 6.13281,2.207032 2.38282,2.1875 2.5,5.761718 l -4.47265,0 q -0.0781,-1.816406 -1.25,-2.988281 -1.15235,-1.171875 -2.94922,-1.171875 -2.30469,0 -3.55469,1.679688 -1.25,1.660156 -1.26953,5.058593 l 0,0.761719 q 0,3.4375 1.23047,5.136719 1.25,1.679687 3.59375,1.679687 z"
           style="font-style:normal;font-variant:normal;font-weight:500;font-stretch:normal;font-family:Roboto;-inkscape-font-specification:'Roboto Medium'"
           id="path4184" />
        <path
           d="m 442.0242,-44.303192 q -0.3125,-0.605469 -0.54687,-1.972656 -2.26563,2.363281 -5.54688,2.363281 -3.18359,0 -5.19531,-1.816406 -2.01172,-1.816407 -2.01172,-4.492188 0,-3.378906 2.5,-5.175781 2.51953,-1.816406 7.1875,-1.816406 l 2.91016,0 0,-1.386719 q 0,-1.640625 -0.91797,-2.617188 -0.91797,-0.996093 -2.79297,-0.996093 -1.6211,0 -2.65625,0.820312 -1.03516,0.800781 -1.03516,2.050781 l -4.74609,0 q 0,-1.738281 1.15234,-3.242187 1.15235,-1.523438 3.125,-2.382813 1.99219,-0.859375 4.4336,-0.859375 3.71093,0 5.91796,1.875 2.20704,1.855469 2.26563,5.234375 l 0,9.53125 q 0,2.851563 0.80078,4.550782 l 0,0.332031 -4.84375,0 z m -5.21484,-3.417969 q 1.40625,0 2.63672,-0.683594 1.25,-0.683593 1.875,-1.835937 l 0,-3.984375 -2.5586,0 q -2.63672,0 -3.96484,0.917969 -1.32813,0.917968 -1.32813,2.597656 0,1.367187 0.89844,2.1875 0.91797,0.800781 2.44141,0.800781 z"
           style="font-style:normal;font-variant:normal;font-weight:500;font-stretch:normal;font-family:Roboto;-inkscape-font-specification:'Roboto Medium'"
           id="path4186" />
      </g>
      <path
         style="fill:#0066ff;fill-rule:evenodd;stroke:none;stroke-width:2.59177494;stroke-linecap:butt;stroke-linejoin:miter;stroke-miterlimit:4;stroke-dasharray:none;stroke-opacity:1"
         d="m 262.97968,-62.404021 c 1.51219,-7.09877 5.351,-13.970592 15.07223,-13.621654 10.71787,0.384713 16.36336,8.31109 17.81845,13.884511 3.23183,12.378829 3.36683,25.977669 -5.71429,28.294709 -25.85415,6.596682 -29.80691,-5.15668 -29.80691,-5.15668 0,0 0.99512,-15.72372 2.63052,-23.400886 z"
         id="path4152-2-2-9-0"
         inkscape:connector-curvature="0"
         sodipodi:nodetypes="sssscs"
         inkscape:export-xdpi="300"
         inkscape:export-ydpi="300" />
      <circle
         style="opacity:1;fill:#000000;fill-opacity:1;stroke:none;stroke-width:3;stroke-linecap:round;stroke-linejoin:round;stroke-miterlimit:4;stroke-dasharray:none;stroke-dashoffset:0;stroke-opacity:1"
         id="path4154-5-1-9-3-3"
         cx="284.10587"
         cy="-31.748163"
         r="7.9835935"
         inkscape:export-xdpi="300"
         inkscape:export-ydpi="300" />
      <path
         sodipodi:nodetypes="cccccc"
         inkscape:connector-curvature="0"
         id="path4257-7-6-6-6"
         d="m 335.45593,-66.168854 -3.88278,-2.71479 2.30442,-6.59756 6.2576,-1.995081 5.79754,4.233571 -1.82996,4.45283"
         style="fill:none;fill-rule:evenodd;stroke:#000000;stroke-width:3.00000024;stroke-linecap:round;stroke-linejoin:round;stroke-miterlimit:4;stroke-dasharray:none;stroke-opacity:1"
         inkscape:export-xdpi="300"
         inkscape:export-ydpi="300" />
      <g
         transform="matrix(0.96511431,-0.2618289,0.2618289,0.96511431,0,0)"
         style="font-style:normal;font-weight:normal;font-size:40px;line-height:125%;font-family:sans-serif;letter-spacing:0px;word-spacing:0px;fill:#0066ff;fill-opacity:1;stroke:none;stroke-width:1px;stroke-linecap:butt;stroke-linejoin:miter;stroke-opacity:1"
         id="text4259-2-0-1-1">
        <path
           d="m 361.71542,37.427601 q 0,4.921875 -2.20703,7.832031 -2.1875,2.910156 -6.03515,2.910156 -3.71094,0 -5.78125,-2.675781 l -0.23438,2.285156 -4.29687,0 0,-30 4.74609,0 0,10.898438 q 2.05078,-2.421875 5.52734,-2.421875 3.86719,0 6.07422,2.871094 2.20703,2.871093 2.20703,8.027343 l 0,0.273438 z m -4.74609,-0.410156 q 0,-3.4375 -1.21094,-5.15625 -1.21094,-1.71875 -3.51562,-1.71875 -3.08594,0 -4.33594,2.695312 l 0,8.710938 q 1.26953,2.753906 4.375,2.753906 2.22656,0 3.4375,-1.660156 1.21094,-1.660157 1.25,-5.019532 l 0,-0.605468 z"
           style="font-style:normal;font-variant:normal;font-weight:500;font-stretch:normal;font-family:Roboto;-inkscape-font-specification:'Roboto Medium';fill:#0066ff"
           id="path4171" />
      </g>
      <circle
         style="opacity:1;fill:#000000;fill-opacity:1;stroke:none;stroke-width:3;stroke-linecap:round;stroke-linejoin:round;stroke-miterlimit:4;stroke-dasharray:none;stroke-dashoffset:0;stroke-opacity:1"
         id="path4347-2-6"
         cx="291.90759"
         cy="-66.389412"
         r="3.7249379"
         inkscape:export-xdpi="300"
         inkscape:export-ydpi="300" />
      <circle
         style="opacity:1;fill:#000000;fill-opacity:1;stroke:none;stroke-width:3;stroke-linecap:round;stroke-linejoin:round;stroke-miterlimit:4;stroke-dasharray:none;stroke-dashoffset:0;stroke-opacity:1"
         id="path4154-54-0-7-3"
         cx="261.84271"
         cy="-35.558136"
         r="6.5103793"
         inkscape:export-xdpi="300"
         inkscape:export-ydpi="300" />
    </g>
  </g>
</svg>
