<?xml version="1.0" encoding="utf-8"?>
<!-- Generator: Adobe Illustrator 16.0.0, SVG Export Plug-In . SVG Version: 6.00 Build 0)  -->
<!DOCTYPE svg PUBLIC "-//W3C//DTD SVG 1.1//EN" "http://www.w3.org/Graphics/SVG/1.1/DTD/svg11.dtd">
<svg version="1.1" id="Layer_1" xmlns="http://www.w3.org/2000/svg" xmlns:xlink="http://www.w3.org/1999/xlink" x="0px" y="0px"
	 width="792px" height="247px" viewBox="0 0 792 247" enable-background="new 0 0 792 247" xml:space="preserve">
<g>
	<rect x="39.445" y="97.68" fill="#3C3C3B" width="60.128" height="60.125"/>
	<rect x="39.445" y="157.811" fill="#3C3C3B" width="60.128" height="60.132"/>
	<rect x="39.445" y="37.555" fill="#3C3C3B" width="60.128" height="60.125"/>
	<rect x="99.574" y="37.555" fill="#6F6F6E" width="60.128" height="60.125"/>
	<rect x="219.831" y="97.688" fill="#6F6F6E" width="60.132" height="60.133"/>
	<rect x="159.702" y="37.555" fill="#6F6F6E" width="60.128" height="60.132"/>
	<rect x="99.574" y="97.68" fill="#6F6F6E" width="60.128" height="60.132"/>
	<rect x="99.574" y="157.805" fill="#6F6F6E" width="60.128" height="60.126"/>
	<rect x="159.702" y="157.811" fill="#6F6F6E" width="60.128" height="60.126"/>
	<rect x="279.963" y="37.552" fill="#B1B1B1" width="60.129" height="60.132"/>
	<rect x="340.092" y="37.552" fill="#B1B1B1" width="60.131" height="60.132"/>
	<rect x="279.963" y="97.694" fill="#B1B1B1" width="60.131" height="60.125"/>
	<rect x="279.963" y="157.811" fill="#B1B1B1" width="60.131" height="60.125"/>
	<rect x="219.831" y="157.819" fill="#9C9B9B" width="60.132" height="60.124"/>
	<g>
		<path fill="#3C3C3B" stroke="#3C3C3B" stroke-miterlimit="10" d="M444,82.048c0,0.226-0.136,0.361-0.361,0.361h-1.084
			c-0.226,0-0.361-0.135-0.361-0.361l0.046-31.696c0-0.226,0.135-0.361,0.36-0.361h0.994c0.226,0,0.36,0.136,0.36,0.361L444,82.048z
			"/>
		<path fill="#3C3C3B" stroke="#3C3C3B" stroke-miterlimit="10" d="M471.406,66.335v15.712c0,0.226-0.136,0.361-0.361,0.361h-0.993
			c-0.226,0-0.361-0.135-0.361-0.361V66.697c0-4.38-2.212-6.457-5.734-6.457c-3.477,0-6.186,2.077-8.172,5.599l0.045,16.209
			c0,0.226-0.136,0.361-0.361,0.361h-0.993c-0.226,0-0.361-0.135-0.361-0.361V59.337c0-0.226,0.136-0.361,0.361-0.361h0.948
			c0.226,0,0.361,0.135,0.361,0.361v3.612l0.271,0.045c1.852-2.257,4.47-4.379,8.354-4.379
			C468.652,58.615,471.406,61.188,471.406,66.335z"/>
		<path fill="#3C3C3B" stroke="#3C3C3B" stroke-miterlimit="10" d="M488.744,50.397c0,0.226-0.136,0.361-0.361,0.361
			c-4.47,0.09-6.05,1.31-6.05,6.412v1.806h5.824c0.226,0,0.361,0.135,0.361,0.361v0.723c0,0.226-0.136,0.361-0.361,0.361h-5.824
			l0.045,21.627c0,0.226-0.136,0.361-0.361,0.361h-1.038c-0.227,0-0.361-0.135-0.361-0.361V60.421h-3.432
			c-0.226,0-0.361-0.136-0.361-0.361v-0.723c0-0.226,0.136-0.361,0.361-0.361h3.432V57.26c0.045-6.276,2.348-8.037,7.766-7.992
			c0.226,0,0.361,0.135,0.361,0.361V50.397z"/>
		<path fill="#3C3C3B" stroke="#3C3C3B" stroke-miterlimit="10" d="M513.216,70.444c0,7.134-4.471,12.281-10.61,12.281
			c-6.051,0-10.295-5.012-10.295-12.01c0-7.179,4.425-12.101,10.565-12.101C508.972,58.615,513.216,63.355,513.216,70.444z
			 M493.981,70.625c0,6.186,3.612,10.565,8.714,10.565c5.147,0,8.805-4.425,8.805-10.655c0-6.231-3.567-10.34-8.715-10.34
			C497.639,60.195,493.981,64.349,493.981,70.625z"/>
		<path fill="#3C3C3B" stroke="#3C3C3B" stroke-miterlimit="10" d="M529.83,60.06c0,0.226-0.135,0.361-0.361,0.361
			c-3.611,0.135-6.547,1.896-8.217,6.276l0.045,15.351c0,0.226-0.136,0.361-0.361,0.361h-0.993c-0.226,0-0.361-0.135-0.361-0.361
			V59.337c0-0.226,0.136-0.361,0.361-0.361h0.948c0.226,0,0.361,0.135,0.361,0.361v4.29l0.271,0.045
			c1.626-2.754,4.154-4.921,7.946-5.057c0.227,0,0.361,0.135,0.361,0.361V60.06z"/>
		<path fill="#3C3C3B" stroke="#3C3C3B" stroke-miterlimit="10" d="M564.461,66.335v15.712c0,0.226-0.135,0.361-0.361,0.361h-0.993
			c-0.226,0-0.361-0.135-0.361-0.361V66.697c0-4.38-1.941-6.457-5.237-6.457c-3.205,0-5.824,1.986-7.54,5.644l0.045,16.164
			c0,0.226-0.135,0.361-0.36,0.361h-1.039c-0.226,0-0.361-0.135-0.361-0.361l0.045-15.351c0-4.38-1.986-6.457-5.327-6.457
			c-3.251,0-6.005,1.986-7.856,5.599v16.209c0,0.226-0.136,0.361-0.361,0.361h-0.993c-0.226,0-0.361-0.135-0.361-0.361l0.045-22.711
			c0-0.226,0.136-0.361,0.361-0.361h0.903c0.226,0,0.361,0.135,0.361,0.361l0.045,3.657h0.226c1.761-2.167,4.38-4.379,8.082-4.379
			c2.935,0,5.192,1.4,6.186,4.741h0.181c1.761-2.528,4.38-4.741,8.082-4.741C561.888,58.615,564.416,61.188,564.461,66.335z"/>
		<path fill="#3C3C3B" stroke="#3C3C3B" stroke-miterlimit="10" d="M587.714,66.11l0.09,15.938c0,0.226-0.135,0.361-0.361,0.361
			h-0.993c-0.226,0-0.361-0.135-0.361-0.361v-3.612l-0.271-0.045c-1.626,2.529-4.605,4.29-8.533,4.29
			c-4.154,0-7.225-1.987-7.225-6.366c0-4.515,3.296-6.728,12.101-7.36c2.799-0.181,3.928-0.677,3.928-3.07
			c0-3.206-2.076-5.779-6.728-5.779c-3.611,0-6.095,1.806-6.772,4.605c-0.09,0.226-0.181,0.316-0.406,0.316h-0.857
			c-0.271,0-0.406-0.136-0.361-0.316c0.768-3.702,3.793-6.095,8.488-6.095C584.959,58.615,587.714,61.549,587.714,66.11z
			 M585.862,69.406c-0.768,0.587-1.671,0.858-3.883,1.039c-7.404,0.542-10.249,2.303-10.249,5.779c0,3.341,2.393,4.921,5.869,4.921
			c4.425,0,7.54-2.664,8.488-5.238v-6.411L585.862,69.406z"/>
		<path fill="#3C3C3B" stroke="#3C3C3B" stroke-miterlimit="10" d="M605.142,60.015c0,0.226-0.136,0.361-0.361,0.361h-5.327
			l0.045,21.672c0,0.226-0.136,0.361-0.361,0.361h-1.038c-0.227,0-0.361-0.135-0.361-0.361l0.045-21.672h-4.244
			c-0.226,0-0.361-0.135-0.361-0.361v-0.678c0-0.226,0.136-0.361,0.361-0.361h4.244l0.045-9.256c0-0.226,0.136-0.361,0.361-0.361
			h0.903c0.226,0,0.361,0.135,0.361,0.361v9.256h5.327c0.226,0,0.361,0.135,0.361,0.361V60.015z"/>
		<path fill="#3C3C3B" stroke="#3C3C3B" stroke-miterlimit="10" d="M612.185,52.158c0,0.226-0.136,0.361-0.361,0.361h-0.948
			c-0.226,0-0.361-0.136-0.361-0.361V49.63c0-0.226,0.136-0.361,0.361-0.361h0.948c0.226,0,0.361,0.135,0.361,0.361V52.158z
			 M612.229,82.048c0,0.226-0.135,0.361-0.36,0.361h-0.994c-0.226,0-0.361-0.135-0.361-0.361V59.337
			c0-0.226,0.136-0.361,0.361-0.361h0.948c0.226,0,0.361,0.135,0.361,0.361L612.229,82.048z"/>
		<path fill="#3C3C3B" stroke="#3C3C3B" stroke-miterlimit="10" d="M639.952,70.444c0,7.134-4.471,12.281-10.61,12.281
			c-6.051,0-10.295-5.012-10.295-12.01c0-7.179,4.425-12.101,10.565-12.101C635.708,58.615,639.952,63.355,639.952,70.444z
			 M620.718,70.625c0,6.186,3.612,10.565,8.714,10.565c5.147,0,8.805-4.425,8.805-10.655c0-6.231-3.567-10.34-8.715-10.34
			C624.375,60.195,620.718,64.349,620.718,70.625z"/>
		<path fill="#3C3C3B" stroke="#3C3C3B" stroke-miterlimit="10" d="M663.61,66.335v15.712c0,0.226-0.136,0.361-0.361,0.361h-0.993
			c-0.226,0-0.361-0.135-0.361-0.361V66.697c0-4.38-2.212-6.457-5.734-6.457c-3.477,0-6.186,2.077-8.172,5.599l0.045,16.209
			c0,0.226-0.136,0.361-0.361,0.361h-0.993c-0.226,0-0.361-0.135-0.361-0.361V59.337c0-0.226,0.136-0.361,0.361-0.361h0.948
			c0.226,0,0.361,0.135,0.361,0.361v3.612l0.271,0.045c1.852-2.257,4.47-4.379,8.354-4.379
			C660.856,58.615,663.61,61.188,663.61,66.335z"/>
		<path fill="#3C3C3B" stroke="#3C3C3B" stroke-miterlimit="10" d="M456.146,122.243l0.09,15.938c0,0.226-0.135,0.361-0.361,0.361
			h-0.993c-0.226,0-0.361-0.135-0.361-0.361v-3.612l-0.271-0.045c-1.626,2.529-4.605,4.29-8.533,4.29
			c-4.154,0-7.225-1.987-7.225-6.366c0-4.515,3.296-6.728,12.101-7.36c2.799-0.181,3.928-0.677,3.928-3.07
			c0-3.206-2.076-5.779-6.728-5.779c-3.611,0-6.095,1.806-6.772,4.605c-0.09,0.226-0.181,0.316-0.406,0.316h-0.857
			c-0.271,0-0.406-0.136-0.361-0.316c0.768-3.702,3.793-6.095,8.488-6.095C453.391,114.748,456.146,117.683,456.146,122.243z
			 M454.294,125.539c-0.768,0.587-1.671,0.858-3.883,1.039c-7.404,0.542-10.249,2.303-10.249,5.779c0,3.341,2.393,4.921,5.869,4.921
			c4.425,0,7.54-2.664,8.488-5.237v-6.412L454.294,125.539z"/>
		<path fill="#3C3C3B" stroke="#3C3C3B" stroke-miterlimit="10" d="M481.249,122.469v15.712c0,0.226-0.136,0.361-0.361,0.361h-0.993
			c-0.226,0-0.361-0.135-0.361-0.361V122.83c0-4.38-2.212-6.457-5.734-6.457c-3.477,0-6.186,2.077-8.172,5.599l0.045,16.209
			c0,0.226-0.136,0.361-0.361,0.361h-0.993c-0.226,0-0.361-0.135-0.361-0.361V115.47c0-0.226,0.136-0.361,0.361-0.361h0.948
			c0.226,0,0.361,0.135,0.361,0.361v3.612l0.271,0.045c1.852-2.257,4.47-4.379,8.354-4.379
			C478.495,114.748,481.249,117.322,481.249,122.469z"/>
		<path fill="#3C3C3B" stroke="#3C3C3B" stroke-miterlimit="10" d="M508.068,138.181c0,0.226-0.136,0.361-0.361,0.361h-0.993
			c-0.226,0-0.361-0.135-0.361-0.361v-3.296l-0.226-0.045c-1.806,2.619-4.967,4.018-8.308,4.018
			c-6.141,0-10.159-4.876-10.159-11.875c0-7.314,4.289-12.236,10.475-12.236c3.342,0,6.051,1.535,8.037,4.063l0.181-0.09
			l0.045-12.958c0-0.226,0.136-0.361,0.361-0.361h0.903c0.226,0,0.361,0.135,0.361,0.361L508.068,138.181z M489.331,126.849
			c0,6.186,3.432,10.475,8.85,10.475c3.566,0,6.862-1.986,8.263-5.689v-9.346c-1.581-3.883-4.605-5.96-8.309-5.96
			C492.897,116.328,489.331,120.482,489.331,126.849z"/>
		<path fill="#3C3C3B" stroke="#3C3C3B" stroke-miterlimit="10" d="M535.79,106.124c9.076,0,14.494,6.367,14.494,15.758
			c0,9.662-5.645,16.661-14.765,16.661h-9.617c-0.226,0-0.361-0.135-0.361-0.361l0.046-31.696c0-0.226,0.135-0.361,0.36-0.361
			H535.79z M535.249,136.962c8.082,0,13.364-6.141,13.364-14.945c0-8.714-5.057-14.358-13.049-14.358h-8.263l0.046,29.303H535.249z"
			/>
		<path fill="#3C3C3B" stroke="#3C3C3B" stroke-miterlimit="10" d="M575.116,125.945c0,0.226-0.135,0.361-0.36,0.361h-18.061
			c-0.271,5.915,2.754,11.017,8.85,11.017c3.477,0,5.914-1.67,7.359-4.244c0.09-0.181,0.226-0.271,0.406-0.271h0.993
			c0.271,0,0.361,0.181,0.271,0.407c-1.716,3.567-4.831,5.644-9.121,5.644c-6.366,0-10.43-4.876-10.43-11.83
			c0-7.314,4.425-12.1,10.476-12.1C571.459,114.929,575.162,119.715,575.116,125.945z M556.83,124.862h16.616
			c-0.271-4.741-3.251-8.353-8.037-8.353C560.804,116.509,557.463,119.805,556.83,124.862z"/>
		<path fill="#3C3C3B" stroke="#3C3C3B" stroke-miterlimit="10" d="M599.407,120.843c0.09,0.226-0.045,0.406-0.316,0.406h-0.948
			c-0.226,0-0.36-0.09-0.451-0.271c-1.264-2.799-3.702-4.561-7.314-4.561c-5.644,0-8.533,4.651-8.533,10.565
			c0,5.734,2.89,10.339,8.624,10.339c3.611,0,6.005-1.715,7.179-4.289c0.09-0.181,0.226-0.271,0.451-0.271h0.993
			c0.271,0,0.406,0.181,0.271,0.406c-1.445,3.296-4.425,5.689-9.03,5.689c-6.276,0-10.159-4.876-10.159-11.83
			c0-7.179,3.974-12.146,10.204-12.146C594.938,114.883,598.008,117.322,599.407,120.843z"/>
		<path fill="#3C3C3B" stroke="#3C3C3B" stroke-miterlimit="10" d="M606.811,108.292c0,0.226-0.136,0.361-0.361,0.361h-0.948
			c-0.226,0-0.36-0.136-0.36-0.361v-2.528c0-0.226,0.135-0.361,0.36-0.361h0.948c0.226,0,0.361,0.135,0.361,0.361V108.292z
			 M606.855,138.181c0,0.226-0.135,0.361-0.36,0.361h-0.994c-0.226,0-0.36-0.135-0.36-0.361V115.47c0-0.226,0.135-0.361,0.36-0.361
			h0.948c0.226,0,0.361,0.135,0.361,0.361L606.855,138.181z"/>
		<path fill="#3C3C3B" stroke="#3C3C3B" stroke-miterlimit="10" d="M630.379,119.85c0.09,0.226-0.045,0.406-0.316,0.406h-0.902
			c-0.227,0-0.361-0.09-0.452-0.271c-1.129-2.212-3.025-3.702-6.637-3.702c-3.477,0-6.051,1.58-6.051,4.334
			c0,2.574,2.303,3.567,5.87,4.696l1.806,0.542c4.741,1.445,7.089,3.296,7.089,6.637c0,3.973-3.206,6.366-8.172,6.366
			c-4.425,0-7.812-1.986-9.166-5.779c-0.091-0.226,0.045-0.406,0.316-0.406h0.993c0.226,0,0.361,0.09,0.406,0.271
			c1.083,2.799,3.973,4.379,7.54,4.379c3.477,0,6.321-1.445,6.321-4.695c0-2.799-2.258-4.109-6.321-5.373l-1.716-0.497
			c-4.019-1.264-6.637-2.664-6.637-6.005c0-3.748,3.341-6.005,7.766-6.005C626.992,114.748,629.34,117.231,630.379,119.85z"/>
		<path fill="#3C3C3B" stroke="#3C3C3B" stroke-miterlimit="10" d="M638.912,108.292c0,0.226-0.136,0.361-0.361,0.361h-0.948
			c-0.226,0-0.36-0.136-0.36-0.361v-2.528c0-0.226,0.135-0.361,0.36-0.361h0.948c0.226,0,0.361,0.135,0.361,0.361V108.292z
			 M638.957,138.181c0,0.226-0.135,0.361-0.36,0.361h-0.994c-0.226,0-0.36-0.135-0.36-0.361V115.47c0-0.226,0.135-0.361,0.36-0.361
			h0.948c0.226,0,0.361,0.135,0.361,0.361L638.957,138.181z"/>
		<path fill="#3C3C3B" stroke="#3C3C3B" stroke-miterlimit="10" d="M666.68,126.578c0,7.134-4.471,12.281-10.61,12.281
			c-6.051,0-10.295-5.012-10.295-12.01c0-7.179,4.425-12.101,10.565-12.101C662.436,114.748,666.68,119.489,666.68,126.578z
			 M647.445,126.758c0,6.186,3.612,10.565,8.714,10.565c5.147,0,8.805-4.425,8.805-10.655c0-6.231-3.567-10.34-8.714-10.34
			C651.103,116.328,647.445,120.482,647.445,126.758z"/>
		<path fill="#3C3C3B" stroke="#3C3C3B" stroke-miterlimit="10" d="M690.339,122.469v15.712c0,0.226-0.136,0.361-0.361,0.361h-0.993
			c-0.226,0-0.361-0.135-0.361-0.361V122.83c0-4.38-2.212-6.457-5.734-6.457c-3.477,0-6.186,2.077-8.172,5.599l0.045,16.209
			c0,0.226-0.136,0.361-0.361,0.361h-0.993c-0.226,0-0.361-0.135-0.361-0.361V115.47c0-0.226,0.136-0.361,0.361-0.361h0.948
			c0.226,0,0.361,0.135,0.361,0.361v3.612l0.271,0.045c1.852-2.257,4.47-4.379,8.354-4.379
			C687.585,114.748,690.339,117.322,690.339,122.469z"/>
		<path fill="#3C3C3B" stroke="#3C3C3B" stroke-miterlimit="10" d="M460.932,168.895c0.09,0.226-0.046,0.407-0.316,0.407h-0.948
			c-0.226,0-0.361-0.09-0.451-0.271c-1.174-2.393-3.974-5.554-9.482-5.554c-5.057,0-8.397,2.393-8.397,6.095
			c0,3.883,3.251,5.328,8.443,6.954l2.257,0.677c6.547,2.032,9.753,4.65,9.753,9.256c0,5.237-4.154,8.533-10.881,8.533
			c-8.082,0-11.604-4.605-12.643-8.217c-0.045-0.271,0.09-0.406,0.316-0.406h1.038c0.226,0,0.361,0.09,0.406,0.271
			c1.084,2.979,4.063,6.772,10.972,6.772c5.463,0,9.075-2.483,9.075-6.728c0-3.973-3.205-6.141-8.984-7.901l-2.258-0.723
			c-5.779-1.761-9.166-3.792-9.211-8.262c-0.045-4.876,4.289-7.901,10.294-7.901C456.597,161.897,459.848,166.051,460.932,168.895z"
			/>
		<path fill="#3C3C3B" stroke="#3C3C3B" stroke-miterlimit="10" d="M483.867,171.243c0.271,0,0.406,0.181,0.316,0.406
			l-11.875,32.689c-0.045,0.181-0.181,0.271-0.406,0.271h-1.129c-0.271,0-0.406-0.181-0.315-0.406l3.296-8.85l-8.534-23.704
			c-0.09-0.226,0.046-0.406,0.316-0.406h0.903c0.226,0,0.361,0.09,0.406,0.271l7.63,21.266h0.227l7.855-21.266
			c0.046-0.181,0.181-0.271,0.406-0.271H483.867z"/>
		<path fill="#3C3C3B" stroke="#3C3C3B" stroke-miterlimit="10" d="M504.592,175.984c0.09,0.226-0.045,0.406-0.316,0.406h-0.902
			c-0.227,0-0.361-0.09-0.452-0.271c-1.129-2.212-3.025-3.702-6.637-3.702c-3.477,0-6.051,1.58-6.051,4.334
			c0,2.574,2.303,3.567,5.87,4.696l1.806,0.542c4.741,1.445,7.089,3.296,7.089,6.637c0,3.973-3.206,6.366-8.172,6.366
			c-4.425,0-7.812-1.986-9.166-5.779c-0.091-0.226,0.045-0.406,0.316-0.406h0.993c0.226,0,0.361,0.09,0.406,0.271
			c1.083,2.799,3.973,4.379,7.54,4.379c3.477,0,6.321-1.445,6.321-4.695c0-2.799-2.258-4.109-6.321-5.373l-1.716-0.497
			c-4.019-1.264-6.637-2.664-6.637-6.005c0-3.748,3.341-6.005,7.766-6.005C501.205,170.882,503.553,173.365,504.592,175.984z"/>
		<path fill="#3C3C3B" stroke="#3C3C3B" stroke-miterlimit="10" d="M520.619,172.281c0,0.226-0.136,0.361-0.361,0.361h-5.327
			l0.045,21.672c0,0.226-0.136,0.361-0.361,0.361h-1.038c-0.227,0-0.361-0.135-0.361-0.361l0.045-21.672h-4.244
			c-0.226,0-0.361-0.135-0.361-0.361v-0.677c0-0.226,0.136-0.361,0.361-0.361h4.244l0.045-9.256c0-0.226,0.136-0.361,0.361-0.361
			h0.903c0.226,0,0.361,0.135,0.361,0.361v9.256h5.327c0.226,0,0.361,0.135,0.361,0.361V172.281z"/>
		<path fill="#3C3C3B" stroke="#3C3C3B" stroke-miterlimit="10" d="M544.277,182.079c0,0.226-0.135,0.361-0.36,0.361h-18.061
			c-0.271,5.915,2.754,11.017,8.85,11.017c3.477,0,5.914-1.67,7.359-4.244c0.09-0.181,0.226-0.271,0.406-0.271h0.993
			c0.271,0,0.361,0.181,0.271,0.407c-1.716,3.567-4.831,5.644-9.121,5.644c-6.366,0-10.43-4.876-10.43-11.83
			c0-7.314,4.425-12.1,10.475-12.1C540.62,171.063,544.323,175.849,544.277,182.079z M525.992,180.996h16.615
			c-0.271-4.741-3.251-8.353-8.037-8.353C529.965,172.643,526.624,175.938,525.992,180.996z"/>
		<path fill="#3C3C3B" stroke="#3C3C3B" stroke-miterlimit="10" d="M580.398,178.603v15.712c0,0.226-0.135,0.361-0.361,0.361h-0.993
			c-0.226,0-0.361-0.135-0.361-0.361v-15.351c0-4.38-1.941-6.457-5.237-6.457c-3.205,0-5.824,1.986-7.54,5.644l0.045,16.164
			c0,0.226-0.135,0.361-0.36,0.361h-1.039c-0.226,0-0.361-0.135-0.361-0.361l0.045-15.351c0-4.38-1.986-6.457-5.327-6.457
			c-3.251,0-6.005,1.986-7.856,5.599v16.209c0,0.226-0.136,0.361-0.361,0.361h-0.993c-0.226,0-0.361-0.135-0.361-0.361l0.045-22.711
			c0-0.226,0.136-0.361,0.361-0.361h0.903c0.226,0,0.361,0.135,0.361,0.361l0.045,3.657h0.226c1.761-2.167,4.38-4.379,8.082-4.379
			c2.935,0,5.192,1.399,6.186,4.741h0.181c1.761-2.528,4.38-4.741,8.082-4.741C577.825,170.882,580.354,173.456,580.398,178.603z"/>
		<path fill="#3C3C3B" stroke="#3C3C3B" stroke-miterlimit="10" d="M623.652,179.731c0.271,0,0.406,0.181,0.406,0.406
			c-0.045,9.481-6.095,14.854-13.906,14.854c-8.397,0-14.177-6.908-14.177-16.57c0-9.797,6.095-16.525,14.538-16.525
			c5.689,0,10.114,3.025,12.101,7.63c0.136,0.226,0,0.406-0.271,0.406l-0.948,0.045c-0.227,0-0.361-0.09-0.452-0.271
			c-1.941-3.793-5.688-6.231-10.52-6.231c-7.45,0-12.778,5.915-12.778,14.9c0,8.895,5.192,15.035,12.643,15.035
			c6.186,0,11.604-4.019,12.056-12.055l-9.211-0.045c-0.226,0-0.361-0.135-0.361-0.361v-0.813c0-0.226,0.136-0.361,0.361-0.361
			L623.652,179.731z"/>
		<path fill="#3C3C3B" stroke="#3C3C3B" stroke-miterlimit="10" d="M641.125,172.327c0,0.226-0.135,0.361-0.361,0.361
			c-3.611,0.135-6.547,1.896-8.217,6.276l0.045,15.351c0,0.226-0.136,0.361-0.361,0.361h-0.993c-0.226,0-0.361-0.135-0.361-0.361
			v-22.711c0-0.226,0.136-0.361,0.361-0.361h0.948c0.226,0,0.361,0.135,0.361,0.361v4.29l0.271,0.045
			c1.626-2.754,4.154-4.921,7.946-5.057c0.227,0,0.361,0.135,0.361,0.361V172.327z"/>
		<path fill="#3C3C3B" stroke="#3C3C3B" stroke-miterlimit="10" d="M665.598,182.711c0,7.134-4.471,12.281-10.61,12.281
			c-6.051,0-10.295-5.012-10.295-12.01c0-7.179,4.425-12.101,10.565-12.101C661.354,170.882,665.598,175.623,665.598,182.711z
			 M646.363,182.892c0,6.186,3.612,10.565,8.714,10.565c5.147,0,8.805-4.425,8.805-10.655c0-6.231-3.567-10.34-8.714-10.34
			C650.021,172.462,646.363,176.616,646.363,182.892z"/>
		<path fill="#3C3C3B" stroke="#3C3C3B" stroke-miterlimit="10" d="M689.211,194.315c0,0.226-0.136,0.361-0.361,0.361h-1.039
			c-0.226,0-0.36-0.135-0.36-0.361l0.045-3.612l-0.226-0.09c-1.896,2.303-4.516,4.379-8.354,4.379c-4.199,0-6.998-2.573-6.953-7.766
			v-15.623c0-0.226,0.136-0.361,0.361-0.361h0.948c0.226,0,0.361,0.135,0.361,0.361v15.216c0,4.47,2.167,6.547,5.734,6.547
			c3.477,0,6.186-2.077,8.127-5.553v-16.209c0-0.226,0.135-0.361,0.361-0.361h0.948c0.226,0,0.36,0.135,0.36,0.361L689.211,194.315z
			"/>
		<path fill="#3C3C3B" stroke="#3C3C3B" stroke-miterlimit="10" d="M717.34,182.802c0,7.314-4.334,12.19-10.385,12.19
			c-3.386,0-6.095-1.445-8.082-4.018l-0.226,0.09v13.184c0,0.226-0.136,0.361-0.361,0.361h-0.993c-0.226,0-0.361-0.135-0.361-0.361
			v-32.644c0-0.226,0.136-0.361,0.361-0.361h0.903c0.226,0,0.361,0.135,0.361,0.361v3.341l0.226,0.045
			c1.896-2.664,5.057-4.109,8.353-4.109C713.366,170.882,717.34,175.758,717.34,182.802z M698.558,178.151v9.346
			c1.625,3.838,4.65,5.96,8.353,5.96c5.192,0,8.759-4.199,8.759-10.52c0-6.231-3.386-10.475-8.804-10.475
			C703.253,172.462,699.957,174.449,698.558,178.151z"/>
	</g>
</g>
</svg>
