<?xml version="1.0" encoding="utf-8"?>
<!-- Generator: Adobe Illustrator 16.0.0, SVG Export Plug-In . SVG Version: 6.00 Build 0)  -->
<!DOCTYPE svg PUBLIC "-//W3C//DTD SVG 1.1//EN" "http://www.w3.org/Graphics/SVG/1.1/DTD/svg11.dtd" [
	<!ENTITY st0 "fill-rule:evenodd;clip-rule:evenodd;fill:#D71216;">
	<!ENTITY st1 "fill-rule:evenodd;clip-rule:evenodd;fill:#010203;">
	<!ENTITY st2 "fill-rule:evenodd;clip-rule:evenodd;fill:#020203;">
	<!ENTITY st3 "fill-rule:evenodd;clip-rule:evenodd;fill:#020304;">
]>
<svg version="1.1" id="Layer_1" xmlns="http://www.w3.org/2000/svg" xmlns:xlink="http://www.w3.org/1999/xlink" x="0px" y="0px"
	 width="234px" height="136px" viewBox="0 0 234 136" style="enable-background:new 0 0 234 136;" xml:space="preserve">
<g>
	<path style="&st0;" d="M31.779,121.112c3.882-1.401,7.035-3.412,9.123-6.858c1.789-2.956,2.716-6.186,3.246-9.575
		c0.993-6.35,2.038-12.688,2.874-19.059c0.539-4.102,0.771-8.229,1.173-12.341c0.566-5.729,1.114-11.456,1.76-17.178
		c0.623-5.501,1.335-10.997,2.296-16.452c0.922-5.215,2.068-10.36,4.156-15.274c1.803-4.252,4.9-7.304,8.53-9.985
		c3.894-2.876,8.271-3.89,12.989-3.597c2.613,0.164,4.816,1.374,6.437,3.46c1.232,1.573,1.292,3.723,0.059,5.394
		c-2.657,3.602-7.811,5.072-11.725,0.632c-1.557-1.767-1.653-4.464-0.32-6.724c-1.76,0.548-3.296,1.317-4.747,2.267
		c-3.816,2.495-5.793,6.24-6.898,10.488c-1.086,4.151-1.399,8.445-2.011,12.682c-0.712,4.969-1.34,9.951-1.764,14.952
		c-0.632,7.477-1.596,14.918-2.52,22.358c-1.041,8.347-1.929,16.722-3.828,24.938c-0.701,3.042-1.646,6.007-2.835,8.901
		c-1.684,4.11-4.635,7.123-8.1,9.767c-4.02,3.069-8.548,4.307-13.517,3.965c-2.508-0.172-4.638-1.331-6.254-3.28
		c-1.408-1.705-1.458-3.919-0.139-5.694c1.62-2.178,3.862-3.431,6.555-3.226c2.636,0.201,4.77,1.552,5.925,4.063
		C33.052,117.494,32.712,119.245,31.779,121.112z"/>
	<path style="&st0;" d="M164.43,101.508c0-2.48-0.012-4.964,0.002-7.445c0.009-1.316,0.655-2.088,1.753-2.166
		c1.219-0.086,2.043,0.517,2.111,1.763c0.107,1.803,0.068,3.61,0.087,5.416c0.011,0.799,0.023,1.598-0.007,2.395
		c-0.019,0.504,0.045,0.732,0.644,0.516c2.207-0.799,4.43-1.572,6.656-2.333c0.42-0.148,0.539-0.367,0.534-0.801
		c-0.025-1.594-0.041-3.187,0-4.777c0.035-1.451,0.785-2.212,2.043-2.185c0.961,0.027,1.619,0.558,1.815,1.498
		c0.062,0.296,0.084,0.609,0.084,0.915c0.002,4.807,0.012,9.62-0.002,14.427c-0.003,1.65-0.831,2.531-2.189,2.397
		c-1.112-0.11-1.737-0.848-1.753-2.183c-0.027-1.84-0.032-3.679,0.004-5.517c0.012-0.604-0.16-0.77-0.762-0.76
		c-2.114,0.039-4.227,0.039-6.341,0c-0.66-0.014-0.737,0.27-0.732,0.814c0.023,1.808,0.045,3.618-0.014,5.421
		c-0.053,1.557-0.883,2.344-2.182,2.226c-1.132-0.105-1.744-0.836-1.749-2.176C164.418,106.471,164.43,103.987,164.43,101.508z"/>
	<path style="&st0;" d="M91.266,102.207c2.385-0.815,4.688-1.607,6.996-2.39c0.256-0.085,0.527-0.183,0.79-0.194
		c0.924-0.037,1.582,0.524,1.641,1.372c0.071,0.898-0.511,1.591-1.486,1.604c-2.326,0.036-4.659,0.052-6.987-0.003
		c-0.794-0.018-1.068,0.158-1.006,0.993c0.082,1.128,0.048,2.267,0.011,3.4c-0.021,0.525,0.148,0.669,0.671,0.665
		c2.445-0.028,4.898-0.019,7.352-0.012c0.429,0.005,0.86,0.019,1.276,0.101c0.753,0.152,1.155,0.648,1.196,1.42
		c0.03,0.757-0.292,1.282-1.029,1.549c-0.386,0.14-0.776,0.151-1.173,0.151c-3.188,0-6.379,0.004-9.563,0
		c-2.008-0.012-2.629-0.532-2.652-2.531c-0.05-4.535-0.05-9.07-0.005-13.606c0.019-1.997,0.646-2.528,2.646-2.53
		c3.186-0.005,6.373-0.012,9.563,0.002c1.242,0.009,1.828,0.463,1.913,1.401c0.091,0.993-0.562,1.646-1.721,1.659
		c-2.511,0.032-5.021,0.073-7.535,0.048c-0.728-0.004-0.931,0.199-0.913,0.922C91.298,98.183,91.266,100.141,91.266,102.207z"/>
	<path style="&st0;" d="M188.617,102.214c2.289-0.79,4.448-1.536,6.614-2.276c0.399-0.137,0.788-0.328,1.23-0.319
		c0.92,0.007,1.557,0.577,1.589,1.427c0.036,0.867-0.521,1.527-1.452,1.543c-2.173,0.046-4.348,0.025-6.521,0.029
		c-1.461,0.003-1.461,0-1.461,1.438c0,0.826,0.055,1.657-0.016,2.479c-0.08,0.855,0.147,1.162,1.077,1.13
		c2.232-0.073,4.469-0.025,6.705-0.022c0.304,0,0.612-0.01,0.918,0.014c1.185,0.091,1.81,0.682,1.771,1.666
		c-0.034,0.94-0.664,1.52-1.817,1.524c-3.458,0.022-6.92,0.032-10.38-0.005c-1.582-0.021-2.212-0.712-2.215-2.284
		c-0.011-4.718-0.011-9.432,0-14.146c0.003-1.429,0.621-2.164,2.029-2.183c3.488-0.055,6.978-0.048,10.468-0.014
		c1.043,0.012,1.675,0.715,1.627,1.603c-0.05,0.92-0.662,1.431-1.767,1.442c-2.54,0.027-5.083,0.046-7.621,0.068
		c-0.396,0.003-0.799-0.094-0.789,0.558C188.633,97.932,188.617,99.983,188.617,102.214z"/>
	<path style="&st0;" d="M153.675,91.896c2.139,0.08,4.587,1.066,6.215,3.634c0.335,0.525,0.523,1.103,0.609,1.71
		c0.124,0.855-0.308,1.644-1.052,1.947c-0.776,0.313-1.57,0.075-2.088-0.665c-0.276-0.396-0.495-0.84-0.753-1.253
		c-1.897-3.061-6.138-2.99-7.779,0.224c-1.331,2.618-1.303,5.398-0.123,8.075c0.735,1.662,2.187,2.393,4.015,2.386
		c1.828-0.005,3.173-0.776,3.997-2.415c0.189-0.379,0.322-0.792,0.498-1.183c0.438-0.968,1.13-1.354,2.024-1.127
		c0.913,0.228,1.457,0.992,1.317,2.018c-0.303,2.187-1.493,3.816-3.389,4.866c-5.699,3.138-12.371-0.299-13.136-6.74
		c-0.242-2.024-0.153-4.033,0.568-5.969C145.887,93.944,149.03,91.865,153.675,91.896z"/>
	<path style="&st0;" d="M128.383,100.355c0,1.899,0.011,3.798-0.007,5.695c-0.004,0.62,0.075,1.226,0.217,1.818
		c0.185,0.802,0.586,1.473,1.299,1.927c2.723,1.765,6.122,0.096,6.213-3.111c0.089-3.154,0.018-6.311,0.039-9.47
		c0.009-1.248-0.128-2.513,0.121-3.757c0.217-1.093,0.911-1.627,2.018-1.562c1.004,0.055,1.801,0.735,1.808,1.831
		c0.021,3.766,0.251,7.546-0.098,11.298c-0.352,3.782-2.444,5.706-6.249,6.066c-1.315,0.119-2.629,0.09-3.931-0.176
		c-3.284-0.664-4.994-2.559-5.291-5.891c-0.208-2.383-0.06-4.777-0.091-7.164c-0.021-1.317-0.027-2.635,0.011-3.954
		c0.046-1.291,0.756-2.006,1.906-2.013c1.162-0.012,1.945,0.657,1.988,1.936c0.066,2.171,0.021,4.348,0.021,6.525
		C128.36,100.355,128.372,100.355,128.383,100.355z"/>
	<path style="&st1;" d="M71.92,47.638c-0.048,1.326,0.14,2.521,0.683,3.646c0.781,1.618,2.139,2.323,3.855,2.308
		c1.723-0.014,3.038-0.799,3.775-2.42c0.137-0.301,0.237-0.625,0.374-0.931c0.414-0.937,1.037-1.278,1.867-1.041
		c0.902,0.263,1.315,0.988,1.137,2.002c-0.283,1.62-1.132,2.896-2.438,3.851c-4.866,3.561-11.972,0.468-12.743-5.506
		c-0.306-2.362-0.167-4.629,0.94-6.771c2.549-4.942,10.23-5.627,13.375-1.201c0.486,0.688,0.824,1.42,0.831,2.287
		c0,0.73-0.329,1.294-1.002,1.479c-0.653,0.185-1.354,0.146-1.783-0.564c-0.237-0.39-0.479-0.775-0.71-1.171
		c-0.936-1.598-2.335-2.287-4.156-2.067c-1.709,0.205-2.816,1.23-3.451,2.777C72.027,45.401,71.85,46.547,71.92,47.638z"/>
	<path style="&st0;" d="M202.467,101.591c0-2.355-0.007-4.716,0-7.071c0.005-1.604,0.603-2.289,2.176-2.313
		c3.03-0.045,6.062-0.022,9.095-0.009c0.523,0.005,1.046,0.089,1.413,0.534c0.399,0.493,0.484,1.041,0.242,1.632
		c-0.27,0.657-0.806,0.886-1.468,0.895c-2.232,0.025-4.467,0.068-6.701,0.05c-0.632-0.002-0.913,0.085-0.888,0.829
		c0.073,1.835,0.062,3.668,0.043,5.508c-0.004,0.577,0.123,0.688,0.671,0.442c1.644-0.734,3.31-1.429,4.965-2.134
		c0.771-0.324,1.47-0.174,1.97,0.486c0.664,0.876,0.118,2.143-0.984,2.316c-0.388,0.063-0.796,0.034-1.191,0.046
		c-1.769,0.045-3.542-0.101-5.307,0.079c-0.248,1.76-0.048,3.529-0.111,5.291c-0.016,0.397,0.009,0.799-0.039,1.194
		c-0.148,1.303-1.132,1.985-2.412,1.702c-0.945-0.205-1.459-0.886-1.468-2.036C202.455,106.553,202.467,104.074,202.467,101.591z"/>
	<path style="&st1;" d="M108.72,51.363c0.876-2.349,1.655-4.456,2.454-6.554c0.239-0.625,0.525-1.232,0.824-1.828
		c0.32-0.632,0.79-0.981,1.559-0.796c0.785,0.185,1.244,0.596,1.244,1.444c-0.004,3.769,0.019,7.537-0.018,11.301
		c-0.009,1.089-0.511,1.529-1.429,1.495c-0.835-0.03-1.317-0.607-1.326-1.637c-0.004-2.075,0-4.147,0-6.464
		c-1.021,1.216-1.922,2.229-2.748,3.298c-0.422,0.546-0.66,0.639-1.127,0.032c-0.852-1.107-1.794-2.148-2.883-3.438
		c0,1.555,0.004,2.849,0,4.143c0,0.92,0.018,1.84-0.025,2.755c-0.034,0.758-0.413,1.253-1.237,1.314
		c-0.86,0.062-1.303-0.408-1.486-1.178c-0.062-0.234-0.05-0.486-0.05-0.732c-0.007-3.49-0.007-6.984-0.007-10.479
		c0-0.776,0.137-1.468,0.995-1.77c0.977-0.347,1.634-0.111,2.114,0.856c1.068,2.157,1.707,4.482,2.577,6.724
		C108.312,50.27,108.467,50.689,108.72,51.363z"/>
	<path style="&st1;" d="M122.992,73.932c0-2.226-0.004-4.453,0.004-6.676c0-0.399,0.021-0.797,0.057-1.189
		c0.062-0.753,0.491-1.166,1.237-1.217c0.742-0.055,1.221,0.313,1.431,1.016c0.068,0.229,0.073,0.484,0.073,0.727
		c0.005,3.672,0.007,7.352,0,11.03c-0.002,1.114-0.479,1.726-1.319,1.749c-0.773,0.022-1.342-0.437-1.413-1.258
		c-0.075-0.822-0.053-1.65-0.071-2.477c-0.007-0.302,0.041-0.604-0.237-0.842c-1.917-1.612-3.823-3.232-5.9-4.99
		c0,1.395,0.012,2.598-0.002,3.803c-0.009,1.438-0.005,2.876-0.064,4.316c-0.037,0.922-0.637,1.481-1.422,1.447
		c-0.788-0.032-1.319-0.637-1.322-1.555c-0.011-3.68,0.012-7.352-0.018-11.028c-0.005-0.913,0.326-1.557,1.168-1.867
		c0.838-0.313,1.57,0.027,2.17,0.92c1.712,2.569,3.417,5.138,5.129,7.705c0.101,0.148,0.206,0.295,0.311,0.44
		C122.869,73.966,122.928,73.952,122.992,73.932z"/>
	<path style="&st1;" d="M68.003,73.961c0-2.257-0.002-4.459,0.007-6.664c0-0.427,0.012-0.86,0.066-1.283
		c0.084-0.691,0.479-1.111,1.198-1.164c0.682-0.048,1.191,0.213,1.417,0.893c0.055,0.174,0.112,0.358,0.114,0.532
		c0.005,3.894,0.012,7.79-0.007,11.679c-0.002,0.523-0.187,1.021-0.739,1.273c-0.886,0.416-1.851-0.098-1.983-1.072
		c-0.053-0.363-0.121-0.744-0.06-1.094c0.288-1.545-0.376-2.554-1.595-3.453c-1.536-1.132-2.942-2.446-4.551-3.803
		c0,2.488,0.002,4.773-0.004,7.058c0,0.395-0.007,0.794-0.053,1.191c-0.101,0.813-0.653,1.324-1.374,1.317
		c-0.771-0.007-1.356-0.573-1.378-1.418c-0.03-1.1-0.007-2.205-0.007-3.31c0-2.542,0-5.087,0-7.63c0-1.234,0.365-1.874,1.203-2.111
		c0.92-0.253,1.545,0.063,2.25,1.132c1.673,2.522,3.346,5.04,5.028,7.556C67.625,73.733,67.677,73.934,68.003,73.961z"/>
	<path style="&st1;" d="M136.716,46.878c0,2.586,0,4.935,0,7.283c0,0.309,0.012,0.614-0.021,0.915
		c-0.091,0.895-0.589,1.36-1.41,1.35c-0.808-0.007-1.365-0.512-1.372-1.395c-0.023-3.823-0.016-7.653,0.007-11.481
		c0.002-0.845,0.525-1.354,1.306-1.567c0.852-0.24,1.483,0.137,1.949,0.837c1.678,2.518,3.348,5.038,5.021,7.558
		c0.185,0.278,0.379,0.548,0.575,0.838c0.269-0.23,0.132-0.523,0.132-0.768c0.014-2.296,0.002-4.597,0.014-6.891
		c0-1.013,0.498-1.615,1.319-1.643c0.874-0.025,1.424,0.577,1.429,1.643c0.009,3.764,0.014,7.532-0.004,11.299
		c-0.002,1.081-0.457,1.574-1.342,1.57c-0.938,0-1.531-0.541-1.374-1.616c0.283-1.983-0.431-3.321-2.052-4.433
		C139.465,49.396,138.218,48.151,136.716,46.878z"/>
	<path style="&st1;" d="M189.807,74.35c0-2.823,0-5.357,0-7.893c0.002-0.811,0.239-1.457,1.161-1.589
		c0.904-0.128,1.577,0.395,1.587,1.328c0.021,3.919,0.021,7.843,0.002,11.757c-0.002,0.893-0.557,1.42-1.352,1.418
		c-0.775,0-1.319-0.544-1.392-1.399c-0.01-0.126-0.027-0.251-0.005-0.372c0.397-1.947-0.45-3.248-2.022-4.344
		c-1.374-0.958-2.584-2.146-3.873-3.229c-0.046-0.036-0.112-0.048-0.302-0.121c0,0.729,0,1.408,0,2.093c0,1.865,0.012,3.732,0,5.6
		c-0.007,1.125-0.531,1.767-1.405,1.773c-0.865,0.007-1.395-0.657-1.397-1.785c-0.007-3.554,0-7.104,0-10.654
		c0-1.116,0.413-1.79,1.217-2.021c0.908-0.265,1.536,0.032,2.205,1.036C186.038,68.668,187.841,71.389,189.807,74.35z"/>
	<path style="&st2;" d="M86.128,71.964c0-1.654-0.009-3.305,0.002-4.955c0.014-1.44,0.511-1.929,1.94-1.938
		c2.387-0.009,4.775-0.005,7.167,0c1.08,0.002,1.579,0.408,1.557,1.228c-0.019,0.77-0.514,1.144-1.545,1.153
		c-1.776,0.004-3.551,0.016-5.33-0.012c-0.518-0.009-0.76,0.057-0.732,0.673c0.055,1.254,0.034,2.511,0.007,3.767
		c-0.014,0.552,0.096,0.683,0.66,0.473c1.538-0.568,3.106-1.048,4.647-1.614c0.603-0.221,1.086-0.116,1.5,0.309
		c0.333,0.347,0.315,0.806,0.16,1.212c-0.214,0.555-0.708,0.712-1.267,0.707c-1.685-0.002-3.371,0.023-5.053-0.011
		c-0.53-0.014-0.689,0.155-0.646,0.666c0.084,0.993-0.409,2.294,0.198,2.901c0.482,0.481,1.794,0.137,2.737,0.144
		c1.164,0.009,2.328-0.009,3.492,0.007c0.865,0.014,1.458,0.507,1.419,1.214c-0.043,0.802-0.541,1.208-1.326,1.21
		c-2.666,0.01-5.328,0.032-7.993-0.007c-1.109-0.016-1.57-0.575-1.586-1.801C86.112,75.518,86.128,73.74,86.128,71.964z"/>
	<path style="&st2;" d="M143.037,72.067c0.004-3.746,1.803-6.305,5.133-7.046c2.374-0.532,4.553-0.053,6.309,1.773
		c0.539,0.565,0.89,1.232,1.034,2.004c0.127,0.689-0.133,1.267-0.733,1.533c-0.625,0.274-1.273,0.165-1.691-0.49
		c-0.176-0.278-0.331-0.58-0.502-0.865c-0.708-1.178-1.728-1.803-3.118-1.691c-1.34,0.101-2.328,0.811-2.837,2.022
		c-0.801,1.912-0.817,3.882,0.021,5.783c0.493,1.123,1.447,1.696,2.687,1.778c1.294,0.089,2.358-0.313,3.077-1.422
		c0.215-0.329,0.343-0.708,0.498-1.072c0.402-0.945,0.954-1.256,1.773-1.003c0.706,0.22,1.03,0.986,0.808,1.906
		c-0.493,2.059-2.239,3.646-4.341,3.948C146.202,79.95,143.034,77.152,143.037,72.067z"/>
	<path style="&st2;" d="M121.748,48.462c0,1.529-0.043,3.065,0.012,4.595c0.066,1.871,1.104,2.816,2.919,2.755
		c1.794-0.058,2.762-0.995,2.787-2.823c0.032-2.755,0.009-5.513,0.009-8.271c0-0.247-0.002-0.491,0-0.733
		c0.021-1.376,0.543-2.081,1.543-2.072c1,0.007,1.552,0.717,1.522,2.086c-0.05,2.628,0.171,5.271-0.127,7.896
		c-0.29,2.6-1.694,4.115-4.273,4.469c-1.303,0.178-2.627,0.155-3.917-0.203c-2.26-0.623-3.406-2.132-3.522-4.957
		c-0.107-2.511-0.064-5.024-0.039-7.539c0.011-1.128,0.659-1.785,1.579-1.751c0.875,0.032,1.452,0.683,1.472,1.771
		c0.027,1.591,0.005,3.184,0.005,4.779C121.732,48.462,121.741,48.462,121.748,48.462z"/>
	<path style="&st2;" d="M76.93,72.897c0-1.193,0-2.387,0-3.583c0-1.68,0-1.68-1.634-1.68c-0.368-0.005-0.74,0.011-1.103-0.034
		c-0.76-0.099-1.255-0.466-1.219-1.313c0.032-0.843,0.537-1.203,1.313-1.205c2.789-0.014,5.574-0.012,8.363-0.003
		c0.801,0.003,1.306,0.454,1.34,1.215c0.037,0.778-0.486,1.23-1.258,1.301c-0.609,0.055-1.226,0.066-1.837,0.027
		c-0.603-0.043-0.842,0.096-0.84,0.783c0.023,3.026-0.016,6.06-0.037,9.093c-0.007,1.215-0.509,1.833-1.524,1.865
		c-0.931,0.027-1.545-0.689-1.554-1.87C76.921,75.963,76.93,74.432,76.93,72.897z"/>
	<path style="&st3;" d="M213.338,78.666c1.763-0.669,3.442-1.299,5.113-1.938c0.568-0.219,1.127-0.365,1.6,0.16
		c0.379,0.425,0.44,0.949,0.249,1.468c-0.226,0.606-0.778,0.741-1.349,0.744c-2.328,0.009-4.654,0.024-6.98-0.01
		c-1.144-0.016-1.494-0.381-1.666-1.518c-0.034-0.21-0.043-0.427-0.043-0.642c0-3.3,0-6.612,0-9.917
		c0-0.614,0.036-1.242,0.456-1.728c0.454-0.532,1.101-0.56,1.689-0.343c0.721,0.263,0.924,0.913,0.924,1.637
		c0.007,3.645,0.007,7.29,0.007,10.931C213.338,77.846,213.338,78.184,213.338,78.666z"/>
	<path style="&st1;" d="M149.167,49.167c0-1.808-0.012-3.613,0-5.418c0.007-1.155,0.552-1.824,1.472-1.838
		c0.938-0.014,1.515,0.616,1.518,1.78c0.019,3.673,0.023,7.35,0,11.022c-0.004,1.182-0.55,1.736-1.557,1.712
		c-0.913-0.021-1.424-0.626-1.431-1.746C149.156,52.844,149.167,51.007,149.167,49.167z"/>
	<path style="&st1;" d="M161.488,72.097c0,1.835,0.002,3.673-0.004,5.51c-0.002,1.082-0.539,1.732-1.436,1.765
		c-0.876,0.031-1.52-0.58-1.529-1.68c-0.03-3.765-0.019-7.532,0.023-11.294c0.009-1.048,0.621-1.596,1.511-1.565
		c0.899,0.031,1.424,0.62,1.429,1.656C161.493,68.355,161.488,70.228,161.488,72.097z"/>
	<path style="&st0;" d="M77.941,96.781c2.611,0.986,4.403,2.559,4.804,5.315c0.58,4.036-1.839,7.501-5.827,8.375
		c-1.169,0.255-2.356,0.386-3.554,0.393c-3.159,0.002-6.311,0.002-9.467,0c-2.255-0.007-3.214-0.94-3.218-3.166
		c-0.007-6.737-0.007-13.48,0-20.22c0.004-2.123,0.753-3.1,2.828-3.159c4.223-0.128,8.47-0.452,12.652,0.265
		c4.56,0.783,6.87,5.834,4.572,9.688C80.084,95.353,79.101,96.076,77.941,96.781z M66.255,101.212c0,1.554,0.023,3.117-0.014,4.674
		c-0.009,0.56,0.144,0.747,0.719,0.729c1.283-0.041,2.57-0.019,3.851-0.01c1.226,0.01,2.447-0.018,3.638-0.349
		c1.369-0.377,2.355-1.174,2.593-2.639c0.242-1.516-0.043-2.871-1.456-3.762c-0.489-0.311-0.975-0.641-1.504-0.869
		c-2.403-1.041-4.83-2.031-7.229-3.077c-0.563-0.244-0.673-0.125-0.668,0.438c0.025,1.625,0.011,3.243,0.011,4.864
		C66.216,101.212,66.237,101.212,66.255,101.212z M69.583,95.021c0.947,0,1.895,0.012,2.844-0.009
		c0.331-0.007,0.664-0.08,0.995-0.145c1.58-0.313,2.625-1.574,2.634-3.172c0.014-1.604-0.753-2.518-2.504-2.864
		c-2.269-0.455-4.577-0.186-6.861-0.254c-0.393-0.012-0.438,0.205-0.438,0.522c0.009,1.801,0.014,3.611-0.002,5.414
		c-0.009,0.45,0.148,0.577,0.578,0.571c0.92-0.028,1.839-0.01,2.755-0.01C69.583,95.058,69.583,95.04,69.583,95.021z"/>
	<path style="&st0;" d="M119.226,111.136c-0.803,0.027-1.349-0.372-1.655-1.075c-0.427-0.977-0.824-1.975-1.198-2.974
		c-0.169-0.454-0.372-0.662-0.915-0.653c-2.02,0.037-4.045,0.034-6.067,0.002c-0.486-0.006-0.694,0.16-0.845,0.594
		c-0.356,1.007-0.726,2.011-1.155,2.988c-0.445,1.016-1.242,1.349-2.239,1.033c-0.929-0.289-1.444-1.13-1.234-2.161
		c0.121-0.591,0.358-1.166,0.577-1.73c1.696-4.322,3.406-8.639,5.108-12.957c0.427-1.091,0.965-2.07,2.271-2.278
		c1.55-0.241,2.59,0.324,3.262,1.901c0.888,2.077,1.707,4.187,2.554,6.281c0.984,2.431,1.972,4.864,2.947,7.307
		c0.18,0.447,0.329,0.92,0.443,1.395C121.385,110.072,120.529,111.136,119.226,111.136z M113.273,104.184
		c1.75-0.71,1.75-0.713,1.127-2.454c-0.062-0.173-0.116-0.345-0.18-0.516c-0.575-1.565-1.153-3.134-1.819-4.923
		c-1.173,3.327-2.26,6.406-3.399,9.625C110.535,105.297,111.904,104.742,113.273,104.184z"/>
	<path style="&st2;" d="M107.821,72.848c1.5,1.193,2.44,2.716,3.184,4.375c0.42,0.94,0.283,1.541-0.375,1.908
		c-0.721,0.406-1.693,0.22-2.193-0.504c-0.571-0.833-1.05-1.715-1.586-2.57c-0.354-0.568-0.712-1.137-1.1-1.682
		c-0.322-0.457-0.721-0.838-1.26-1.025c-1.563-0.536-1.897-0.308-1.897,1.304c0,0.979,0.035,1.958-0.009,2.935
		c-0.053,1.119-0.601,1.726-1.481,1.77c-0.858,0.043-1.557-0.578-1.563-1.563c-0.032-3.729-0.032-7.466,0-11.202
		c0.007-1.037,0.568-1.5,1.673-1.512c1.931-0.018,3.86-0.031,5.789,0.01c2.237,0.045,3.626,1.26,3.98,3.402
		c0.319,1.952-0.616,3.369-2.739,4.152C108.125,72.684,108.02,72.752,107.821,72.848z M107.031,70.718
		c0.739-0.42,1.086-1.075,0.885-1.919c-0.196-0.845-0.801-1.29-1.646-1.336c-1.062-0.052-2.129-0.022-3.2-0.05
		c-0.34-0.005-0.484,0.089-0.481,0.461c0.018,1.609,0.007,3.219,0.007,4.907C104.169,72.146,105.639,71.513,107.031,70.718z"/>
	<path style="&st2;" d="M155.615,49.204c0-1.715-0.009-3.429,0.002-5.146c0.004-1.287,0.367-1.789,1.602-1.876
		c1.983-0.139,3.99-0.203,5.948,0.162c2.244,0.416,3.538,1.963,4.151,4.065c0.493,1.698,0.5,3.439,0.084,5.17
		c-0.689,2.871-2.438,4.416-5.373,4.607c-1.589,0.101-3.188,0.066-4.78,0.027c-1.132-0.024-1.611-0.572-1.632-1.775
		C155.595,52.698,155.615,50.95,155.615,49.204z M158.696,51.294c0.025,0.817-0.381,1.918,0.181,2.362
		c0.573,0.462,1.636,0.135,2.488,0.063c1.68-0.151,2.465-0.744,2.942-2.365c0.477-1.627,0.436-3.272-0.059-4.877
		c-0.612-1.966-3.106-3.78-5.143-3.854c-0.525-0.021-0.416,0.311-0.416,0.594c-0.004,1.65-0.002,3.305-0.002,4.96
		C158.688,49.215,158.66,50.258,158.696,51.294z"/>
	<path style="&st2;" d="M184.854,49.138c0-1.717-0.01-3.433,0.002-5.147c0.007-1.219,0.384-1.739,1.568-1.814
		c1.985-0.128,3.994-0.196,5.959,0.167c2.287,0.42,3.588,1.999,4.18,4.143c0.497,1.789,0.456,3.634,0.007,5.435
		c-0.637,2.55-2.609,4.124-5.387,4.277c-1.557,0.082-3.127,0.057-4.684,0.022c-1.155-0.024-1.634-0.568-1.644-1.75
		C184.842,52.691,184.854,50.916,184.854,49.138z M187.875,48.24c0,1.68,0.023,3.36-0.016,5.042
		c-0.009,0.445,0.155,0.529,0.522,0.512c0.758-0.03,1.524-0.046,2.287-0.085c1.486-0.089,2.355-0.746,2.81-2.166
		c0.509-1.579,0.5-3.19,0.071-4.779c-0.587-2.173-2.936-4.001-5.18-4.141c-0.516-0.029-0.447,0.268-0.447,0.571
		c0.005,1.68,0,3.364,0,5.046C187.909,48.24,187.894,48.24,187.875,48.24z"/>
	<path style="&st2;" d="M99.326,49.29c0.082,1.092-0.119,2.297-0.625,3.422c-1.477,3.272-4.435,4.115-7.63,3.62
		c-4.448-0.691-5.731-4.501-5.435-8.017c0.222-2.695,1.31-4.875,4.024-5.904C94.82,40.455,99.326,43.594,99.326,49.29z
		 M89.37,44.536c-1.007,2.354-0.979,4.754-0.073,7.119c0.539,1.417,1.604,2.359,3.17,2.353c1.552-0.004,2.627-0.917,3.186-2.339
		c0.911-2.333,0.913-4.707-0.018-7.028c-0.552-1.383-1.602-2.193-3.195-2.238C90.972,42.425,89.947,43.196,89.37,44.536z"/>
	<path style="&st2;" d="M171.079,64.829c4.277-0.019,6.939,2.661,6.968,6.928c0.007,1.171-0.055,2.321-0.463,3.424
		c-1.201,3.245-3.972,4.391-7.067,4.146c-5.145-0.399-6.571-4.674-6.144-8.372c0.313-2.769,1.55-4.836,4.318-5.774
		C169.488,64.911,170.307,64.889,171.079,64.829z M174.174,67.176c-0.66-1.196-1.675-1.903-3.026-1.896
		c-1.354,0.004-2.415,0.707-2.979,1.949c-1.139,2.524-1.144,5.112-0.021,7.63c0.553,1.237,1.559,2.036,3.022,2.024
		c1.44-0.016,2.392-0.77,3.042-1.997c0.614-1.169,0.763-2.433,0.771-3.729C174.959,69.784,174.863,68.42,174.174,67.176z"/>
	<path style="&st2;" d="M182.437,54.668c0.062,1.075-0.375,1.533-1.039,1.721c-0.666,0.186-1.301,0.002-1.62-0.685
		c-0.347-0.744-0.674-1.504-0.945-2.278c-0.134-0.395-0.326-0.518-0.723-0.511c-1.47,0.021-2.94,0.021-4.408,0
		c-0.408-0.009-0.589,0.13-0.717,0.511c-0.239,0.72-0.52,1.432-0.833,2.123c-0.379,0.831-1.011,1.096-1.78,0.819
		c-0.739-0.27-1.141-1.057-0.831-1.862c1.116-2.963,2.275-5.897,3.423-8.845c0.217-0.568,0.457-1.127,0.667-1.695
		c0.402-1.08,0.904-2.048,2.26-2.052c1.347-0.003,1.874,0.949,2.296,2.018c1.116,2.793,2.239,5.587,3.359,8.383
		C181.897,53.182,182.356,54.018,182.437,54.668z M177.314,50.854c0.409-0.155,0.481-0.369,0.331-0.746
		c-0.573-1.522-1.139-3.054-1.767-4.733c-0.847,2.385-1.646,4.636-2.504,7.057C174.788,51.862,176.043,51.338,177.314,50.854z"/>
	<path style="&st2;" d="M201.426,64.846c1.041-0.025,1.66,0.518,2.032,1.426c1.081,2.68,2.18,5.353,3.259,8.034
		c0.408,1.019,0.829,2.029,1.183,3.063c0.294,0.862-0.048,1.557-0.822,1.871c-0.794,0.32-1.412,0.051-1.859-0.823
		c-0.167-0.327-0.324-0.66-0.457-0.998c-0.655-1.622-0.65-1.622-2.422-1.622c-0.951,0-1.901,0.036-2.849-0.017
		c-0.584-0.032-0.883,0.144-1.05,0.715c-0.191,0.639-0.444,1.262-0.719,1.874c-0.418,0.924-1,1.193-1.808,0.876
		c-0.838-0.326-1.155-0.988-0.814-1.933c0.565-1.575,1.185-3.13,1.796-4.688c0.771-1.981,1.543-3.972,2.33-5.95
		C199.628,65.674,200.146,64.776,201.426,64.846z M198.913,75.34c1.44-0.591,2.659-1.13,3.907-1.596
		c0.514-0.191,0.448-0.42,0.297-0.821c-0.555-1.47-1.077-2.956-1.705-4.686C200.538,70.723,199.756,72.945,198.913,75.34z"/>
	<path style="&st2;" d="M134.208,75.797c-1.878-0.72-2.762,0.538-3.241,2.444c-0.155,0.63-0.562,1.109-1.278,1.118
		c-0.58,0.012-1.082-0.235-1.36-0.773c-0.306-0.601-0.11-1.196,0.112-1.771c0.986-2.52,1.988-5.035,2.988-7.555
		c0.393-0.993,0.79-1.983,1.178-2.975c0.363-0.91,0.998-1.444,2.011-1.453c1.05-0.003,1.7,0.547,2.082,1.49
		c1.408,3.496,2.826,6.998,4.231,10.499c0.103,0.251,0.194,0.516,0.245,0.785c0.155,0.767-0.176,1.311-0.87,1.62
		c-0.726,0.324-1.372,0.124-1.735-0.55c-0.406-0.746-0.696-1.554-0.993-2.353c-0.151-0.409-0.358-0.564-0.794-0.541
		C136.045,75.826,135.308,75.797,134.208,75.797z M135.984,73.77c0.55-0.201,0.504-0.44,0.333-0.886
		c-0.472-1.216-0.881-2.463-1.358-3.677c-0.089-0.232-0.016-0.63-0.44-0.701c-0.776,2.212-1.55,4.408-2.403,6.829
		C133.56,74.744,134.76,74.215,135.984,73.77z"/>
</g>
</svg>
