<?xml version="1.0" encoding="utf-8"?>
<!-- Generator: Adobe Illustrator 22.1.0, SVG Export Plug-In . SVG Version: 6.00 Build 0)  -->
<svg version="1.1" id="Capa_1" xmlns="http://www.w3.org/2000/svg" xmlns:xlink="http://www.w3.org/1999/xlink" x="0px" y="0px"
	 viewBox="0 0 390.3 240" enable-background="new 0 0 390.3 240" xml:space="preserve">
<g>
	<g>
		<path fill="#E00109" d="M204,94.6c0,7.1-5.7,12.8-12.8,12.8c-7.1,0-12.8-5.7-12.8-12.8c0-7.1,5.7-12.8,12.8-12.8
			C198.3,81.8,204,87.5,204,94.6"/>
		<path fill="#004E97" d="M188.2,28.5c0,0-11.1,22.9-16.2,46.5c-3.2,14.7-1.8,28.4,5.1,34.6c5.5,4.9,9.5,5.7,13.4,5.7
			c4,0,7.7-1.6,12-5c2.5-2,3.6-4.3,5.8-2.1c2.2,2.3,3.2,6.8,0,11c-3.2,4.1-10.1,8.6-19.4,8.6c-13.1,0-30.4-8.9-27.8-36.4
			C163.7,63.9,186.2,30.9,188.2,28.5"/>
		<path fill="#5B6670" d="M180.6,77c0,0,14.3-7.7,27.1,3c10.8,9,9.3,22,8.2,30.4c-0.8,5.9-3.9,13.6,2.1,14c6.5,0.4,10.2-5.7,11-14.5
			c1.5-15.1-6.1-24.5-13.3-30.2C209.7,74.6,192.8,66.8,180.6,77"/>
	</g>
	<g>
		<path fill="#004E97" d="M76.1,167.1c0,8.9-5.6,16.4-15,16.4s-15-7.4-15-16.4c0-8.9,5.6-16.4,15-16.4S76.1,158.2,76.1,167.1z
			 M51.6,167.1c0,6,2.8,11.9,9.5,11.9c6.7,0,9.5-5.9,9.5-11.9s-2.8-11.9-9.5-11.9C54.4,155.2,51.6,161.1,51.6,167.1z"/>
		<path fill="#004E97" d="M81.2,160.1h4.7v3.1H86c1.4-2.6,4.1-3.7,7-3.7c7.1,0,10.6,5.4,10.6,12c0,6.1-3.1,11.8-9.8,11.8
			c-2.9,0-6-1.1-7.6-3.5h-0.1v11.3h-5V160.1z M92.3,163.4c-4.2,0-6.3,3.2-6.3,8c0,4.6,2.3,8,6.3,8c4.6,0,6.3-4,6.3-8
			C98.6,167.3,96.5,163.4,92.3,163.4z"/>
		<path fill="#004E97" d="M112.2,172.7c0,3.5,1.9,6.7,6.1,6.7c2.9,0,4.6-1.3,5.5-3.8h4.7c-1.1,4.9-5.3,7.7-10.2,7.7
			c-7.1,0-11.1-4.9-11.1-11.9c0-6.4,4.2-12,10.9-12c7.1,0,11.5,6.4,10.7,13.2H112.2z M123.8,169.4c-0.2-3.2-2.3-6-5.7-6
			c-3.5,0-5.8,2.6-6,6H123.8z"/>
		<path fill="#004E97" d="M133.2,160.1h4.7v3.3l0.1,0.1c1.5-2.5,4.1-4,7-4c4.9,0,8,2.6,8,7.7v15.5h-5v-14.2
			c-0.1-3.5-1.5-5.1-4.4-5.1c-3.3,0-5.5,2.6-5.5,6v13.4h-5V160.1z"/>
		<path fill="#5B6670" d="M159.4,151.5h11.3c2.8,0,6.4,0,8.3,1.1c2.1,1.2,3.7,3.5,3.7,6.5c0,3.3-1.8,5.8-4.6,7v0.1
			c3.9,0.8,6,3.7,6,7.5c0,4.6-3.3,9-9.5,9h-15.1V151.5z M163.6,164.9h8.3c4.7,0,6.7-1.7,6.7-5c0-4.3-3.1-4.9-6.7-4.9h-8.3V164.9z
			 M163.6,179.2H174c3.6,0,5.9-2.2,5.9-5.6c0-4.1-3.3-5.2-6.8-5.2h-9.5V179.2z"/>
		<path fill="#5B6670" d="M208.5,175.5c-1,5-4.6,7.7-9.7,7.7c-7.2,0-10.6-5-10.9-11.9c0-6.8,4.5-11.8,10.6-11.8
			c8,0,10.5,7.5,10.2,13h-16.9c-0.1,3.9,2.1,7.4,7.1,7.4c3.1,0,5.2-1.5,5.9-4.4H208.5z M204.9,169.2c-0.2-3.5-2.8-6.4-6.5-6.4
			c-3.9,0-6.2,2.9-6.5,6.4H204.9z"/>
		<path fill="#5B6670" d="M233.2,182.6c-0.7,0.4-1.5,0.6-2.7,0.6c-1.9,0-3.2-1.1-3.2-3.5c-2.1,2.4-4.8,3.5-8,3.5
			c-4.1,0-7.5-1.8-7.5-6.3c0-5.1,3.8-6.2,7.7-7c4.1-0.8,7.6-0.5,7.6-3.3c0-3.2-2.7-3.8-5-3.8c-3.2,0-5.5,1-5.6,4.3h-3.7
			c0.2-5.6,4.6-7.6,9.6-7.6c4.1,0,8.5,0.9,8.5,6.2v11.6c0,1.8,0,2.5,1.2,2.5c0.3,0,0.7,0,1.1-0.2V182.6z M227.2,171
			c-1.4,1-4.2,1.1-6.7,1.5c-2.5,0.4-4.6,1.3-4.6,4.1c0,2.5,2.1,3.3,4.4,3.3c4.9,0,6.9-3.1,6.9-5.1V171z"/>
		<path fill="#E00109" d="M255.6,182.7h-3.5v-3.6H252c-1.6,2.8-4.1,4.1-7.4,4.1c-6,0-7.8-3.4-7.8-8.3v-14.9h3.7v15.3
			c0,2.8,1.8,4.6,4.6,4.6c4.5,0,6.7-3,6.7-7.1v-12.8h3.7V182.7z"/>
		<path fill="#E00109" d="M277,167.4c-0.6-2.8-2.5-4.5-5.6-4.5c-5.4,0-7.1,4.2-7.1,8.8c0,4.2,1.9,8.3,6.6,8.3c3.6,0,5.7-2.1,6.2-5.5
			h3.8c-0.8,5.5-4.3,8.8-10,8.8c-6.9,0-10.6-4.8-10.6-11.6c0-6.8,3.5-12.1,10.7-12.1c5.1,0,9.2,2.4,9.8,7.8H277z"/>
		<path fill="#E00109" d="M285.5,151.5h3.7v12h0.1c1.2-2.7,4.4-3.9,7.1-3.9c6,0,7.8,3.4,7.8,8.3v14.9h-3.7v-15.3
			c0-2.8-1.8-4.6-4.6-4.6c-4.5,0-6.7,3-6.7,7.1v12.8h-3.7V151.5z"/>
		<path fill="#5B6670" d="M329.5,175.5c-1,5-4.6,7.7-9.7,7.7c-7.2,0-10.6-5-10.9-11.9c0-6.8,4.5-11.8,10.6-11.8
			c8,0,10.5,7.5,10.2,13h-16.9c-0.1,3.9,2.1,7.4,7.1,7.4c3.1,0,5.2-1.5,5.9-4.4H329.5z M325.9,169.2c-0.2-3.5-2.8-6.4-6.5-6.4
			c-3.9,0-6.2,2.9-6.5,6.4H325.9z"/>
		<path fill="#5B6670" d="M335.4,163.4h-3.8v-3.3h3.8v-3.4c0-3.7,2.2-5.6,6.3-5.6c0.7,0,1.7,0.1,2.4,0.3v3.2
			c-0.7-0.2-1.4-0.3-2.1-0.3c-1.8,0-2.8,0.6-2.8,2.5v3.2h4.4v3.3h-4.4v19.4h-3.7V163.4z"/>
	</g>
	<g>
		<path fill="#5B6670" d="M96.9,201.5h4.1c3,0,4.3,2.2,4.3,4.9c0,2.7-1.3,4.9-4.3,4.9h-4.1V201.5z M98.6,209.9h1.7
			c2.7,0,3.3-1.5,3.3-3.5c0-2-0.6-3.5-3.3-3.5h-1.7V209.9z"/>
		<path fill="#5B6670" d="M108,208.1c0,1.1,0.6,2.1,1.9,2.1c0.9,0,1.5-0.4,1.7-1.2h1.5c-0.3,1.5-1.7,2.4-3.2,2.4
			c-2.2,0-3.5-1.5-3.5-3.7c0-2,1.3-3.7,3.4-3.7c2.2,0,3.6,2,3.3,4.1H108z M111.7,207.1c-0.1-1-0.7-1.9-1.8-1.9
			c-1.1,0-1.8,0.8-1.9,1.9H111.7z"/>
		<path fill="#5B6670" d="M118.3,201.5h1.6v9.8h-1.6V201.5z"/>
		<path fill="#5B6670" d="M127.7,209.7c0,0.4,0.1,0.5,0.4,0.5c0.1,0,0.2,0,0.4,0v1.1c-0.2,0.1-0.7,0.2-1,0.2c-0.6,0-1.1-0.2-1.2-0.9
			c-0.6,0.6-1.6,0.9-2.5,0.9c-1.3,0-2.4-0.7-2.4-2.1c0-1.8,1.4-2.1,2.7-2.2c1.1-0.2,2.1-0.1,2.1-1c0-0.8-0.8-1-1.5-1
			c-0.9,0-1.5,0.4-1.6,1.1h-1.6c0.1-1.8,1.7-2.4,3.2-2.4c1.4,0,2.8,0.6,2.8,2.1V209.7z M126.1,207.7c-0.5,0.3-1.2,0.3-1.9,0.4
			c-0.7,0.1-1.3,0.4-1.3,1.2c0,0.7,0.9,0.9,1.4,0.9c0.7,0,1.8-0.4,1.8-1.3V207.7z"/>
		<path fill="#5B6670" d="M133.2,201.5h1.6v1.5h-1.6V201.5z M133.2,204.2h1.6v7.1h-1.6V204.2z"/>
		<path fill="#5B6670" d="M136.6,204.2h1.5v1l0,0c0.5-0.8,1.3-1.3,2.2-1.3c1.5,0,2.5,0.8,2.5,2.4v4.9h-1.6v-4.5
			c0-1.1-0.5-1.6-1.4-1.6c-1,0-1.7,0.8-1.7,1.9v4.2h-1.6V204.2z"/>
		<path fill="#5B6670" d="M143.8,204.2h1.7l1.8,5.4h0l1.7-5.4h1.6l-2.5,7.1h-1.8L143.8,204.2z"/>
		<path fill="#5B6670" d="M152.8,208.1c0,1.1,0.6,2.1,1.9,2.1c0.9,0,1.5-0.4,1.7-1.2h1.5c-0.3,1.5-1.7,2.4-3.2,2.4
			c-2.2,0-3.5-1.5-3.5-3.7c0-2,1.3-3.7,3.4-3.7c2.2,0,3.6,2,3.3,4.1H152.8z M156.4,207.1c-0.1-1-0.7-1.9-1.8-1.9
			c-1.1,0-1.8,0.8-1.9,1.9H156.4z"/>
		<path fill="#5B6670" d="M159.4,204.2h1.5v1l0,0c0.5-0.8,1.3-1.3,2.2-1.3c1.5,0,2.5,0.8,2.5,2.4v4.9H164v-4.5
			c0-1.1-0.5-1.6-1.4-1.6c-1,0-1.7,0.8-1.7,1.9v4.2h-1.6V204.2z"/>
		<path fill="#5B6670" d="M172.2,206.5c-0.1-0.9-0.8-1.3-1.6-1.3c-0.8,0-1.9,0.4-1.9,2.6c0,1.2,0.5,2.4,1.9,2.4
			c0.9,0,1.5-0.6,1.7-1.6h1.6c-0.3,1.8-1.4,2.9-3.2,2.9c-2.2,0-3.4-1.6-3.4-3.7c0-2.1,1.2-3.8,3.5-3.8c1.6,0,3,0.8,3.2,2.6H172.2z"
			/>
		<path fill="#5B6670" d="M175.2,201.5h1.6v1.5h-1.6V201.5z M175.2,204.2h1.6v7.1h-1.6V204.2z"/>
		<path fill="#5B6670" d="M178.3,207.7c0-2.2,1.3-3.7,3.6-3.7s3.6,1.6,3.6,3.7c0,2.2-1.3,3.7-3.6,3.7S178.3,209.9,178.3,207.7z
			 M183.9,207.7c0-1.2-0.6-2.5-2-2.5s-2,1.3-2,2.5c0,1.2,0.6,2.5,2,2.5S183.9,208.9,183.9,207.7z M182.1,201.2h1.9l-1.9,2h-1.1
			L182.1,201.2z"/>
		<path fill="#5B6670" d="M187,204.2h1.5v1l0,0c0.5-0.8,1.3-1.3,2.2-1.3c1.5,0,2.5,0.8,2.5,2.4v4.9h-1.6v-4.5c0-1.1-0.5-1.6-1.4-1.6
			c-1,0-1.7,0.8-1.7,1.9v4.2H187V204.2z"/>
		<path fill="#5B6670" d="M204.6,209.7c0,0.4,0.1,0.5,0.4,0.5c0.1,0,0.2,0,0.4,0v1.1c-0.2,0.1-0.7,0.2-1,0.2c-0.6,0-1.1-0.2-1.2-0.9
			c-0.6,0.6-1.6,0.9-2.5,0.9c-1.3,0-2.4-0.7-2.4-2.1c0-1.8,1.4-2.1,2.7-2.2c1.1-0.2,2.1-0.1,2.1-1c0-0.8-0.8-1-1.5-1
			c-0.9,0-1.5,0.4-1.6,1.1h-1.6c0.1-1.8,1.7-2.4,3.2-2.4c1.4,0,2.8,0.6,2.8,2.1V209.7z M203,207.7c-0.5,0.3-1.2,0.3-1.9,0.4
			c-0.7,0.1-1.3,0.4-1.3,1.2c0,0.7,0.9,0.9,1.4,0.9c0.7,0,1.8-0.4,1.8-1.3V207.7z"/>
		<path fill="#5B6670" d="M210.1,201.5h1.6v9.8h-1.6V201.5z"/>
		<path fill="#5B6670" d="M219.5,209.7c0,0.4,0.1,0.5,0.4,0.5c0.1,0,0.2,0,0.4,0v1.1c-0.2,0.1-0.7,0.2-1,0.2c-0.6,0-1.1-0.2-1.2-0.9
			c-0.6,0.6-1.6,0.9-2.5,0.9c-1.3,0-2.4-0.7-2.4-2.1c0-1.8,1.4-2.1,2.7-2.2c1.1-0.2,2.1-0.1,2.1-1c0-0.8-0.8-1-1.5-1
			c-0.9,0-1.5,0.4-1.6,1.1h-1.6c0.1-1.8,1.7-2.4,3.2-2.4c1.4,0,2.8,0.6,2.8,2.1V209.7z M217.9,207.7c-0.5,0.3-1.2,0.3-1.9,0.4
			c-0.7,0.1-1.3,0.4-1.3,1.2c0,0.7,0.9,0.9,1.4,0.9c0.7,0,1.8-0.4,1.8-1.3V207.7z"/>
		<path fill="#5B6670" d="M225.1,201.5h1.6v1.5h-1.6V201.5z M225.1,204.2h1.6v7.1h-1.6V204.2z"/>
		<path fill="#5B6670" d="M228.5,204.2h1.5v1l0,0c0.5-0.8,1.3-1.3,2.2-1.3c1.5,0,2.5,0.8,2.5,2.4v4.9h-1.6v-4.5
			c0-1.1-0.5-1.6-1.4-1.6c-1,0-1.7,0.8-1.7,1.9v4.2h-1.6V204.2z"/>
		<path fill="#5B6670" d="M236.5,204.2h1.5v1l0,0c0.5-0.8,1.3-1.3,2.2-1.3c1.5,0,2.5,0.8,2.5,2.4v4.9h-1.6v-4.5
			c0-1.1-0.5-1.6-1.4-1.6c-1,0-1.7,0.8-1.7,1.9v4.2h-1.6V204.2z"/>
		<path fill="#5B6670" d="M244.2,207.7c0-2.2,1.3-3.7,3.6-3.7c2.3,0,3.6,1.6,3.6,3.7c0,2.2-1.3,3.7-3.6,3.7
			C245.5,211.4,244.2,209.9,244.2,207.7z M249.8,207.7c0-1.2-0.6-2.5-2-2.5c-1.4,0-2,1.3-2,2.5c0,1.2,0.6,2.5,2,2.5
			C249.2,210.2,249.8,208.9,249.8,207.7z"/>
		<path fill="#5B6670" d="M251.9,204.2h1.7l1.8,5.4h0l1.7-5.4h1.6l-2.5,7.1h-1.8L251.9,204.2z"/>
		<path fill="#5B6670" d="M265.7,209.7c0,0.4,0.1,0.5,0.4,0.5c0.1,0,0.2,0,0.4,0v1.1c-0.2,0.1-0.7,0.2-1,0.2c-0.6,0-1.1-0.2-1.2-0.9
			c-0.6,0.6-1.6,0.9-2.5,0.9c-1.3,0-2.4-0.7-2.4-2.1c0-1.8,1.4-2.1,2.7-2.2c1.1-0.2,2.1-0.1,2.1-1c0-0.8-0.8-1-1.5-1
			c-0.9,0-1.5,0.4-1.6,1.1h-1.6c0.1-1.8,1.7-2.4,3.2-2.4c1.4,0,2.8,0.6,2.8,2.1V209.7z M264.1,207.7c-0.5,0.3-1.2,0.3-1.9,0.4
			c-0.7,0.1-1.3,0.4-1.3,1.2c0,0.7,0.9,0.9,1.4,0.9c0.7,0,1.8-0.4,1.8-1.3V207.7z"/>
		<path fill="#5B6670" d="M272.3,206.5c-0.1-0.9-0.8-1.3-1.6-1.3c-0.8,0-1.9,0.4-1.9,2.6c0,1.2,0.5,2.4,1.9,2.4
			c0.9,0,1.5-0.6,1.7-1.6h1.6c-0.3,1.8-1.4,2.9-3.2,2.9c-2.2,0-3.4-1.6-3.4-3.7c0-2.1,1.2-3.8,3.5-3.8c1.6,0,3,0.8,3.2,2.6H272.3z"
			/>
		<path fill="#5B6670" d="M275.4,201.5h1.6v1.5h-1.6V201.5z M275.4,204.2h1.6v7.1h-1.6V204.2z"/>
		<path fill="#5B6670" d="M278.5,207.7c0-2.2,1.3-3.7,3.6-3.7c2.3,0,3.6,1.6,3.6,3.7c0,2.2-1.3,3.7-3.6,3.7
			C279.8,211.4,278.5,209.9,278.5,207.7z M284.1,207.7c0-1.2-0.6-2.5-2-2.5s-2,1.3-2,2.5c0,1.2,0.6,2.5,2,2.5
			S284.1,208.9,284.1,207.7z M282.3,201.2h1.9l-1.9,2H281L282.3,201.2z"/>
		<path fill="#5B6670" d="M287.1,204.2h1.5v1l0,0c0.5-0.8,1.3-1.3,2.2-1.3c1.5,0,2.5,0.8,2.5,2.4v4.9h-1.6v-4.5
			c0-1.1-0.5-1.6-1.4-1.6c-1,0-1.7,0.8-1.7,1.9v4.2h-1.6V204.2z"/>
	</g>
</g>
</svg>
