<?xml version="1.0" encoding="utf-8"?>
<!-- Generator: Adobe Illustrator 22.1.0, SVG Export Plug-In . SVG Version: 6.00 Build 0)  -->
<svg version="1.1" id="Capa_1" xmlns="http://www.w3.org/2000/svg" xmlns:xlink="http://www.w3.org/1999/xlink" x="0px" y="0px"
	 viewBox="0 0 542.6 169.6" enable-background="new 0 0 542.6 169.6" xml:space="preserve">
<g>
	<g>
		<path fill="#E00109" d="M94.4,103c0,7.8-6.3,14.1-14.1,14.1c-7.8,0-14.1-6.3-14.1-14.1c0-7.8,6.3-14.1,14.1-14.1
			C88.1,88.8,94.4,95.1,94.4,103"/>
		<path fill="#004E97" d="M77,30.1c0,0-12.2,25.3-17.9,51.3c-3.5,16.2-2,31.3,5.7,38.1c6.1,5.4,10.5,6.3,14.8,6.3
			c4.4,0,8.4-1.7,13.2-5.5c2.7-2.2,4-4.8,6.4-2.4c2.5,2.5,3.5,7.5,0,12.1c-3.5,4.5-11.1,9.4-21.3,9.4c-14.4,0-33.5-9.9-30.7-40.1
			C50,69.1,74.7,32.7,77,30.1"/>
		<path fill="#5B6670" d="M68.6,83.5c0,0,15.7-8.5,29.9,3.3c11.9,9.9,10.3,24.3,9.1,33.5c-0.8,6.5-4.3,15,2.4,15.4
			c7.1,0.4,11.2-6.3,12.2-16c1.6-16.7-6.8-27-14.7-33.4C100.6,80.8,82.1,72.2,68.6,83.5"/>
	</g>
	<g>
		<g>
			<path fill="#004E97" d="M176.3,90.3c0,10.6-6.7,19.5-17.8,19.5c-11.2,0-17.8-8.9-17.8-19.5s6.7-19.5,17.8-19.5
				C169.6,70.8,176.3,79.7,176.3,90.3z M147.1,90.3c0,7.2,3.3,14.2,11.3,14.2c8,0,11.3-7,11.3-14.2s-3.3-14.2-11.3-14.2
				C150.4,76.1,147.1,83.2,147.1,90.3z"/>
			<path fill="#004E97" d="M182.3,82h5.6v3.7h0.1c1.7-3.1,4.9-4.4,8.4-4.4c8.5,0,12.6,6.5,12.6,14.4c0,7.3-3.7,14.1-11.6,14.1
				c-3.4,0-7.2-1.3-9-4.2h-0.1v13.5h-5.9V82z M195.6,86c-5,0-7.6,3.8-7.6,9.6c0,5.4,2.8,9.5,7.6,9.5c5.4,0,7.5-4.8,7.5-9.5
				C203.1,90.6,200.5,86,195.6,86z"/>
			<path fill="#004E97" d="M219.3,97c0,4.2,2.3,8,7.3,8c3.4,0,5.5-1.5,6.6-4.5h5.6c-1.3,5.9-6.3,9.2-12.2,9.2
				c-8.5,0-13.2-5.9-13.2-14.2c0-7.7,5-14.2,13-14.2c8.5,0,13.7,7.7,12.7,15.8H219.3z M233.1,93.1c-0.2-3.8-2.8-7.2-6.8-7.2
				c-4.1,0-6.9,3.1-7.1,7.2H233.1z"/>
			<path fill="#004E97" d="M244.3,82h5.6v4l0.1,0.1c1.8-3,4.9-4.8,8.4-4.8c5.8,0,9.6,3.1,9.6,9.2V109h-6V92
				c-0.1-4.2-1.8-6.1-5.3-6.1c-4,0-6.5,3.1-6.5,7.1V109h-5.9V82z"/>
			<path fill="#5B6670" d="M275.5,71.7h13.5c3.3,0,7.6,0,9.9,1.4c2.5,1.5,4.4,4.1,4.4,7.8c0,4-2.1,6.9-5.5,8.4v0.1
				c4.6,0.9,7.1,4.4,7.1,9c0,5.5-3.9,10.7-11.3,10.7h-18V71.7z M280.5,87.7h9.9c5.6,0,7.9-2,7.9-5.9c0-5.2-3.7-5.9-7.9-5.9h-9.9
				V87.7z M280.5,104.8h12.4c4.3,0,7-2.6,7-6.7c0-4.9-3.9-6.2-8.1-6.2h-11.3V104.8z"/>
			<path fill="#5B6670" d="M334,100.4c-1.2,5.9-5.5,9.2-11.5,9.2c-8.6,0-12.7-5.9-12.9-14.2c0-8.1,5.3-14,12.7-14
				c9.6,0,12.5,8.9,12.2,15.4h-20.2c-0.2,4.7,2.5,8.9,8.4,8.9c3.7,0,6.2-1.8,7-5.3H334z M329.7,92.9c-0.2-4.2-3.4-7.6-7.8-7.6
				c-4.6,0-7.4,3.5-7.7,7.6H329.7z"/>
			<path fill="#5B6670" d="M363.6,108.9c-0.8,0.5-1.8,0.7-3.2,0.7c-2.3,0-3.8-1.3-3.8-4.2c-2.5,2.9-5.7,4.2-9.5,4.2
				c-4.9,0-8.9-2.2-8.9-7.6c0-6.1,4.5-7.4,9.1-8.3c4.9-0.9,9.1-0.6,9.1-4c0-3.9-3.2-4.5-6-4.5c-3.8,0-6.5,1.1-6.7,5.1h-4.4
				c0.3-6.7,5.4-9,11.4-9c4.9,0,10.1,1.1,10.1,7.4v13.9c0,2.1,0,3,1.4,3c0.4,0,0.8-0.1,1.4-0.3V108.9z M356.4,95
				c-1.7,1.3-5.1,1.3-8,1.8c-2.9,0.5-5.4,1.6-5.4,4.9c0,2.9,2.5,4,5.2,4c5.8,0,8.2-3.7,8.2-6.1V95z"/>
			<path fill="#E00109" d="M390.3,109h-4.2v-4.3H386c-1.9,3.3-4.9,4.9-8.8,4.9c-7.1,0-9.3-4.1-9.3-9.9V82h4.4v18.3
				c0,3.3,2.1,5.4,5.5,5.4c5.4,0,8-3.6,8-8.5V82h4.4V109z"/>
			<path fill="#E00109" d="M415.8,90.7c-0.7-3.4-3-5.4-6.7-5.4c-6.4,0-8.4,5.1-8.4,10.5c0,5,2.2,9.9,7.9,9.9c4.3,0,6.8-2.5,7.4-6.6
				h4.5c-1,6.6-5.1,10.5-11.9,10.5c-8.2,0-12.6-5.7-12.6-13.8c0-8.1,4.2-14.5,12.7-14.5c6.1,0,11,2.9,11.6,9.3H415.8z"/>
			<path fill="#E00109" d="M425.9,71.7h4.4V86h0.1c1.5-3.2,5.3-4.6,8.5-4.6c7.1,0,9.3,4.1,9.3,9.9V109h-4.4V90.7
				c0-3.3-2.1-5.4-5.5-5.4c-5.4,0-8,3.6-8,8.5V109h-4.4V71.7z"/>
			<path fill="#5B6670" d="M478.3,100.4c-1.2,5.9-5.5,9.2-11.5,9.2c-8.6,0-12.7-5.9-12.9-14.2c0-8.1,5.3-14,12.7-14
				c9.6,0,12.5,8.9,12.2,15.4h-20.2c-0.2,4.7,2.5,8.9,8.4,8.9c3.7,0,6.2-1.8,7-5.3H478.3z M474,92.9c-0.2-4.2-3.4-7.6-7.8-7.6
				c-4.6,0-7.4,3.5-7.7,7.6H474z"/>
			<path fill="#5B6670" d="M485.4,85.9h-4.5V82h4.5v-4c0-4.4,2.6-6.7,7.5-6.7c0.8,0,2,0.2,2.9,0.4v3.9c-0.8-0.3-1.7-0.4-2.5-0.4
				c-2.1,0-3.4,0.7-3.4,3V82h5.2v3.9h-5.2V109h-4.4V85.9z"/>
		</g>
		<g>
			<path fill="#5B6670" d="M204.2,127.9h4.7c3.5,0,5,2.5,5,5.7s-1.5,5.7-5,5.7h-4.7V127.9z M206.2,137.7h2c3.1,0,3.8-1.8,3.8-4.1
				s-0.7-4.1-3.8-4.1h-2V137.7z"/>
			<path fill="#5B6670" d="M217.1,135.7c0,1.3,0.7,2.4,2.2,2.4c1.1,0,1.7-0.5,2-1.4h1.7c-0.4,1.8-1.9,2.8-3.7,2.8
				c-2.6,0-4-1.8-4-4.3c0-2.3,1.5-4.3,4-4.3c2.6,0,4.2,2.3,3.9,4.8H217.1z M221.3,134.5c-0.1-1.1-0.8-2.2-2.1-2.2
				c-1.3,0-2.1,1-2.2,2.2H221.3z"/>
			<path fill="#5B6670" d="M229,127.9h1.8v11.4H229V127.9z"/>
			<path fill="#5B6670" d="M239.9,137.5c0,0.4,0.1,0.6,0.4,0.6c0.1,0,0.3,0,0.4,0v1.3c-0.3,0.1-0.8,0.2-1.1,0.2
				c-0.7,0-1.3-0.3-1.4-1c-0.7,0.7-1.9,1-2.8,1c-1.5,0-2.8-0.8-2.8-2.4c0-2.1,1.6-2.4,3.2-2.6c1.3-0.2,2.5-0.1,2.5-1.2
				c0-0.9-1-1.1-1.7-1.1c-1,0-1.7,0.4-1.8,1.3h-1.8c0.1-2.1,1.9-2.7,3.7-2.7c1.6,0,3.3,0.7,3.3,2.4V137.5z M238.1,135.2
				c-0.6,0.4-1.4,0.3-2.2,0.5c-0.8,0.1-1.5,0.4-1.5,1.4c0,0.8,1,1,1.7,1c0.8,0,2-0.4,2-1.6V135.2z"/>
			<path fill="#5B6670" d="M246.3,127.9h1.8v1.7h-1.8V127.9z M246.3,131.1h1.8v8.2h-1.8V131.1z"/>
			<path fill="#5B6670" d="M250.3,131.1h1.7v1.2l0,0c0.5-0.9,1.5-1.5,2.6-1.5c1.8,0,2.9,1,2.9,2.8v5.6h-1.8v-5.2
				c0-1.3-0.5-1.8-1.6-1.8c-1.2,0-2,1-2,2.2v4.8h-1.8V131.1z"/>
			<path fill="#5B6670" d="M258.6,131.1h2l2.1,6.3h0l2-6.3h1.9l-2.9,8.2h-2L258.6,131.1z"/>
			<path fill="#5B6670" d="M269,135.7c0,1.3,0.7,2.4,2.2,2.4c1,0,1.7-0.5,2-1.4h1.7c-0.4,1.8-1.9,2.8-3.7,2.8c-2.6,0-4-1.8-4-4.3
				c0-2.3,1.5-4.3,4-4.3c2.6,0,4.2,2.3,3.9,4.8H269z M273.2,134.5c-0.1-1.1-0.8-2.2-2.1-2.2c-1.3,0-2.1,1-2.2,2.2H273.2z"/>
			<path fill="#5B6670" d="M276.7,131.1h1.7v1.2l0,0c0.5-0.9,1.5-1.5,2.6-1.5c1.8,0,2.9,1,2.9,2.8v5.6h-1.8v-5.2
				c0-1.3-0.5-1.8-1.6-1.8c-1.2,0-2,1-2,2.2v4.8h-1.8V131.1z"/>
			<path fill="#5B6670" d="M291.5,133.8c-0.1-1-0.9-1.5-1.9-1.5c-0.9,0-2.3,0.5-2.3,3c0,1.4,0.6,2.8,2.2,2.8c1,0,1.8-0.7,2-1.9h1.8
				c-0.3,2.1-1.7,3.3-3.8,3.3c-2.6,0-4-1.8-4-4.2c0-2.5,1.4-4.4,4.1-4.4c1.9,0,3.5,1,3.7,3H291.5z"/>
			<path fill="#5B6670" d="M295.1,127.9h1.8v1.7h-1.8V127.9z M295.1,131.1h1.8v8.2h-1.8V131.1z"/>
			<path fill="#5B6670" d="M298.7,135.2c0-2.5,1.5-4.3,4.2-4.3c2.6,0,4.1,1.8,4.1,4.3c0,2.5-1.5,4.3-4.1,4.3
				C300.2,139.5,298.7,137.7,298.7,135.2z M305.1,135.2c0-1.4-0.7-2.9-2.3-2.9s-2.3,1.5-2.3,2.9c0,1.4,0.7,2.9,2.3,2.9
				S305.1,136.6,305.1,135.2z M303,127.7h2.1l-2.3,2.3h-1.3L303,127.7z"/>
			<path fill="#5B6670" d="M308.7,131.1h1.7v1.2l0,0c0.5-0.9,1.5-1.5,2.6-1.5c1.8,0,2.9,1,2.9,2.8v5.6h-1.8v-5.2
				c0-1.3-0.5-1.8-1.6-1.8c-1.2,0-2,1-2,2.2v4.8h-1.8V131.1z"/>
			<path fill="#5B6670" d="M329.1,137.5c0,0.4,0.1,0.6,0.4,0.6c0.1,0,0.3,0,0.4,0v1.3c-0.3,0.1-0.8,0.2-1.1,0.2
				c-0.7,0-1.3-0.3-1.4-1c-0.7,0.7-1.9,1-2.8,1c-1.5,0-2.8-0.8-2.8-2.4c0-2.1,1.6-2.4,3.2-2.6c1.3-0.2,2.5-0.1,2.5-1.2
				c0-0.9-1-1.1-1.7-1.1c-1,0-1.7,0.4-1.8,1.3h-1.8c0.1-2.1,1.9-2.7,3.7-2.7c1.6,0,3.3,0.7,3.3,2.4V137.5z M327.3,135.2
				c-0.6,0.4-1.4,0.3-2.2,0.5c-0.8,0.1-1.5,0.4-1.5,1.4c0,0.8,1,1,1.7,1c0.8,0,2-0.4,2-1.6V135.2z"/>
			<path fill="#5B6670" d="M335.5,127.9h1.8v11.4h-1.8V127.9z"/>
			<path fill="#5B6670" d="M346.4,137.5c0,0.4,0.1,0.6,0.4,0.6c0.1,0,0.3,0,0.4,0v1.3c-0.3,0.1-0.8,0.2-1.1,0.2
				c-0.7,0-1.3-0.3-1.4-1c-0.7,0.7-1.9,1-2.8,1c-1.5,0-2.8-0.8-2.8-2.4c0-2.1,1.6-2.4,3.2-2.6c1.3-0.2,2.5-0.1,2.5-1.2
				c0-0.9-1-1.1-1.7-1.1c-1,0-1.7,0.4-1.8,1.3h-1.8c0.1-2.1,1.9-2.7,3.7-2.7c1.6,0,3.3,0.7,3.3,2.4V137.5z M344.6,135.2
				c-0.6,0.4-1.4,0.3-2.2,0.5c-0.8,0.1-1.5,0.4-1.5,1.4c0,0.8,1,1,1.7,1c0.8,0,2-0.4,2-1.6V135.2z"/>
			<path fill="#5B6670" d="M352.9,127.9h1.8v1.7h-1.8V127.9z M352.9,131.1h1.8v8.2h-1.8V131.1z"/>
			<path fill="#5B6670" d="M356.8,131.1h1.7v1.2l0,0c0.5-0.9,1.5-1.5,2.6-1.5c1.8,0,2.9,1,2.9,2.8v5.6h-1.8v-5.2
				c0-1.3-0.5-1.8-1.6-1.8c-1.2,0-2,1-2,2.2v4.8h-1.8V131.1z"/>
			<path fill="#5B6670" d="M366.2,131.1h1.7v1.2l0,0c0.5-0.9,1.5-1.5,2.6-1.5c1.8,0,2.9,1,2.9,2.8v5.6h-1.8v-5.2
				c0-1.3-0.5-1.8-1.6-1.8c-1.2,0-2,1-2,2.2v4.8h-1.8V131.1z"/>
			<path fill="#5B6670" d="M375.1,135.2c0-2.5,1.5-4.3,4.2-4.3c2.6,0,4.1,1.8,4.1,4.3c0,2.5-1.5,4.3-4.1,4.3
				C376.6,139.5,375.1,137.7,375.1,135.2z M381.6,135.2c0-1.4-0.7-2.9-2.3-2.9s-2.3,1.5-2.3,2.9c0,1.4,0.7,2.9,2.3,2.9
				S381.6,136.6,381.6,135.2z"/>
			<path fill="#5B6670" d="M384,131.1h2l2.1,6.3h0l2-6.3h1.9l-2.9,8.2h-2L384,131.1z"/>
			<path fill="#5B6670" d="M400,137.5c0,0.4,0.1,0.6,0.4,0.6c0.1,0,0.3,0,0.4,0v1.3c-0.3,0.1-0.8,0.2-1.1,0.2c-0.7,0-1.3-0.3-1.4-1
				c-0.7,0.7-1.9,1-2.8,1c-1.5,0-2.8-0.8-2.8-2.4c0-2.1,1.6-2.4,3.2-2.6c1.3-0.2,2.5-0.1,2.5-1.2c0-0.9-1-1.1-1.7-1.1
				c-1,0-1.7,0.4-1.8,1.3H393c0.1-2.1,1.9-2.7,3.7-2.7c1.6,0,3.3,0.7,3.3,2.4V137.5z M398.2,135.2c-0.6,0.4-1.4,0.3-2.2,0.5
				c-0.8,0.1-1.5,0.4-1.5,1.4c0,0.8,1,1,1.7,1c0.8,0,2-0.4,2-1.6V135.2z"/>
			<path fill="#5B6670" d="M407.7,133.8c-0.1-1-0.9-1.5-1.9-1.5c-0.9,0-2.3,0.5-2.3,3c0,1.4,0.6,2.8,2.2,2.8c1.1,0,1.8-0.7,2-1.9
				h1.8c-0.3,2.1-1.7,3.3-3.8,3.3c-2.6,0-4-1.8-4-4.2c0-2.5,1.4-4.4,4.1-4.4c1.9,0,3.5,1,3.7,3H407.7z"/>
			<path fill="#5B6670" d="M411.3,127.9h1.8v1.7h-1.8V127.9z M411.3,131.1h1.8v8.2h-1.8V131.1z"/>
			<path fill="#5B6670" d="M414.9,135.2c0-2.5,1.5-4.3,4.2-4.3s4.1,1.8,4.1,4.3c0,2.5-1.5,4.3-4.1,4.3S414.9,137.7,414.9,135.2z
				 M421.3,135.2c0-1.4-0.7-2.9-2.3-2.9s-2.3,1.5-2.3,2.9c0,1.4,0.7,2.9,2.3,2.9S421.3,136.6,421.3,135.2z M419.2,127.7h2.1
				l-2.3,2.3h-1.3L419.2,127.7z"/>
			<path fill="#5B6670" d="M424.9,131.1h1.7v1.2l0,0c0.5-0.9,1.5-1.5,2.6-1.5c1.8,0,2.9,1,2.9,2.8v5.6h-1.8v-5.2
				c0-1.3-0.5-1.8-1.6-1.8c-1.2,0-2,1-2,2.2v4.8h-1.8V131.1z"/>
		</g>
	</g>
</g>
</svg>
