<?xml version="1.0" encoding="utf-8"?>
<!-- Generator: Adobe Illustrator 16.0.0, SVG Export Plug-In . SVG Version: 6.00 Build 0)  -->
<!DOCTYPE svg PUBLIC "-//W3C//DTD SVG 1.1//EN" "http://www.w3.org/Graphics/SVG/1.1/DTD/svg11.dtd">
<svg version="1.1" id="Layer_1" xmlns="http://www.w3.org/2000/svg" xmlns:xlink="http://www.w3.org/1999/xlink" x="0px" y="0px"
	 width="792px" height="300px" viewBox="0 0 792 300" enable-background="new 0 0 792 300" xml:space="preserve">
<text transform="matrix(1 0 0 1 423.8691 215.3647)"><tspan x="0" y="0" fill="#3C3C3B" font-family="'DINRoundProMedium'" font-size="21.7235">Grupo de Aprendizaje de Máquinas, </tspan><tspan x="0" y="26.068" fill="#3C3C3B" font-family="'DINRoundProMedium'" font-size="21.7235">infErencia y Señales</tspan><tspan x="0" y="60.826" fill="#3C3C3B" font-family="'DINRoundProLight'" font-size="21.7235">Centro de Modelamiento Matemático</tspan></text>
<g>
	
		<text transform="matrix(1 0 0 1 16.7417 274.8394)" fill="#3C3C3B" font-family="'DINRoundProLight'" font-size="112.9624" letter-spacing="4">GAMES</text>
</g>
<polygon fill-rule="evenodd" clip-rule="evenodd" fill="#E71D73" points="16.745,149.305 18.029,150.335 19.314,151.353 
	20.587,152.037 21.786,152.292 23.064,152.037 24.349,151.014 25.627,149.565 26.905,147.597 28.099,145.464 29.384,143.162 
	30.662,140.859 31.94,138.381 33.225,135.733 34.418,132.747 35.703,129.335 36.975,125.664 38.254,121.823 39.543,118.066 
	40.731,114.655 42.016,111.753 43.294,109.275 44.573,107.396 45.857,105.773 47.051,104.325 48.335,102.961 49.608,101.677 
	50.892,100.484 52.086,99.714 53.37,99.459 54.649,99.884 55.927,100.993 57.206,102.702 58.399,104.834 59.683,107.227 
	60.962,109.875 62.246,112.602 63.524,115.588 64.718,119.005 65.996,123.016 67.281,127.626 68.559,132.922 69.838,138.557 
	71.037,144.27 72.316,149.819 73.594,154.77 74.878,159.035 76.157,162.531 77.356,165.176 78.635,167.066 79.914,168.163 
	81.191,168.593 82.476,167.994 83.67,166.376 84.948,163.561 86.227,159.375 87.511,154.085 88.789,147.766 89.983,140.774 
	91.268,133.34 92.54,125.749 93.824,118.326 95.108,111.068 96.302,103.979 97.581,97.242 98.859,90.838 100.143,85.119 
	101.422,80.338 102.616,76.927 103.899,75.128 105.178,75.298 106.457,77.357 107.651,81.193 108.935,86.318 110.213,92.462 
	111.492,99.2 112.776,106.203 113.969,113.286 115.249,120.284 116.526,127.197 117.81,133.94 119.089,140.344 120.289,146.233 
	121.562,151.438 122.845,155.539 124.13,158.526 125.408,160.313 126.607,161.089 127.88,160.999 129.165,160.229 130.443,159.205 
	131.721,157.842 132.921,156.218 134.2,154.425 135.478,152.292 136.762,149.904 138.041,147.427 139.234,145.04 140.513,142.985 
	141.791,141.623 143.075,141.029 144.36,141.283 145.548,142.301 146.832,143.676 148.11,145.294 149.395,146.657 150.673,147.766 
	151.867,148.451 153.151,148.706 154.43,148.451 155.708,147.936 156.986,146.918 158.186,145.379 159.465,143.246 160.749,140.344 
	162.021,136.842 163.221,132.831 164.499,128.306 165.783,123.701 167.067,119.175 168.346,114.909 169.528,111.068 
	170.813,107.905 172.091,105.349 173.375,103.386 174.648,102.186 175.853,101.762 177.132,102.271 178.416,103.64 179.694,106.033 
	180.973,109.529 182.172,113.88 183.451,119.09 184.729,124.809 186.014,130.868 187.298,136.927 188.48,142.816 189.764,148.281 
	191.042,153.146 192.321,157.412 193.605,160.999 194.799,163.815 196.083,165.776 197.362,166.975 198.64,167.314 199.925,166.885 
	201.124,165.867 202.402,164.161 203.681,161.943 204.959,159.465 206.238,156.727 207.432,153.83 208.716,150.844 209.988,147.936 
	211.272,144.949 212.551,142.131 213.751,139.575 215.029,137.188 216.313,135.31 217.586,133.771 218.791,132.747 220.069,132.322 
	221.348,132.237 222.632,132.577 223.911,133.17 225.099,133.94 226.377,134.709 227.656,135.479 228.94,136.078 230.219,136.587 
	231.418,136.842 232.696,136.927 233.98,136.672 235.259,136.158 236.538,135.31 237.737,134.11 239.016,132.661 240.3,131.038 
	241.579,129.42 242.863,127.881 244.051,126.518 245.329,125.403 246.607,124.639 247.886,124.13 249.17,123.961 250.364,124.041 
	251.654,124.47 252.927,125.233 254.205,126.518 255.489,128.136 256.688,130.354 257.967,132.831 259.251,135.733 260.524,138.636 
	261.809,141.623 262.997,144.355 264.281,146.657 265.553,148.706 266.837,150.244 268.116,151.523 269.316,152.461 
	270.594,152.976 271.878,153.146 273.157,152.722 274.356,151.613 275.634,149.735 276.918,147.172 278.197,143.931 
	279.476,140.259 280.669,136.417 281.942,132.577 283.227,128.735 284.511,125.149 285.784,121.562 286.988,118.156 
	288.267,114.909 289.545,111.922 290.824,109.275 292.108,107.312 293.302,106.203 294.586,106.033 295.865,106.967 297.143,108.76 
	298.427,111.238 299.615,114.055 300.893,117.042 302.172,120.029 303.456,122.931 304.735,125.664 305.935,128.396 
	307.219,130.953 308.492,133.51 309.776,135.733 311.054,137.696 312.253,139.066 313.532,139.83 314.816,139.999 316.089,139.575 
	317.379,138.896 318.562,137.957 319.846,137.097 321.124,136.328 322.402,135.564 323.681,134.794 324.88,133.94 326.165,132.831 
	327.443,131.468 328.728,130.104 329.92,128.82 331.205,127.712 332.483,127.027 333.762,126.688 335.046,126.688 336.234,126.772 
	337.507,126.688 338.791,126.348 340.076,125.749 341.354,124.725 342.553,123.446 343.832,121.992 345.11,120.544 346.395,119.175 
	347.673,117.812 348.872,116.443 350.157,114.909 351.429,113.286 352.713,111.662 353.992,110.214 355.18,109.19 356.458,108.76 
	357.743,109.105 359.021,110.468 360.306,112.602 361.499,115.333 362.783,118.496 364.062,121.902 365.34,125.403 366.619,128.99 
	367.818,132.661 369.103,136.417 370.381,140.344 371.66,144.27 372.944,148.111 374.132,151.613 375.41,154.425 376.694,156.388 
	377.967,157.412 379.251,157.502 380.445,156.558 381.729,154.854 383.014,152.377 384.292,149.39 385.491,145.803 386.77,141.543 
	388.048,136.672 389.327,131.383 390.611,125.749 391.799,120.029 393.078,114.569 394.361,109.614 395.641,105.603 
	396.918,102.532 398.118,100.399 399.396,99.03 400.675,98.436 401.959,98.266 403.243,98.605 404.442,99.375 405.721,100.653 
	406.994,102.532 408.278,105.004 409.554,108.081 410.742,111.577 412.031,115.164 413.311,118.745 414.589,121.902 
	415.868,124.639 415.868,93.226 414.589,90.153 413.311,87.082 412.031,84.18 410.742,81.363 409.554,78.63 408.278,75.897 
	406.994,73.256 405.721,70.863 404.442,68.73 403.243,67.276 401.959,66.682 400.675,66.937 399.396,68.221 398.118,70.353 
	396.918,73.256 395.641,76.667 394.361,80.593 393.078,84.864 391.799,89.475 390.611,94.51 389.327,99.884 388.048,105.433 
	386.77,110.808 385.491,115.849 384.292,120.199 383.014,123.616 381.729,125.918 380.445,127.027 379.251,127.118 377.967,126.433 
	376.694,125.063 375.41,123.271 374.132,121.053 372.944,118.406 371.66,115.249 370.381,111.662 369.103,107.566 367.818,103.216 
	366.619,98.775 365.34,94.51 364.062,90.669 362.783,87.421 361.499,84.864 360.306,82.901 359.021,81.532 357.743,80.593 
	356.458,79.999 355.18,79.829 353.992,80.083 352.713,80.854 351.429,82.131 350.157,83.919 348.872,85.973 347.673,88.19 
	346.395,90.323 345.11,92.032 343.832,93.31 342.553,94.08 341.354,94.51 340.076,94.849 338.791,95.188 337.507,95.618 
	336.234,96.297 335.046,96.982 333.762,97.751 332.483,98.436 331.205,98.945 329.92,99.375 328.728,99.884 327.443,100.568 
	326.165,101.502 324.88,102.786 323.681,104.24 322.402,105.773 321.124,107.312 319.846,108.421 318.562,109.105 317.379,109.359 
	316.089,109.275 314.816,108.935 313.532,108.421 312.253,107.821 311.054,106.967 309.776,105.858 308.492,104.24 307.219,102.102 
	305.935,99.285 304.735,96.042 303.456,92.462 302.172,88.875 300.893,85.543 299.615,82.641 298.427,80.338 297.143,78.63 
	295.865,77.606 294.586,77.012 293.302,76.927 292.108,77.437 290.824,78.46 289.545,80.253 288.267,82.816 286.988,85.973 
	285.784,89.814 284.511,93.91 283.227,98.097 281.942,102.102 280.669,105.773 279.476,109.02 278.197,111.922 276.918,114.395 
	275.634,116.612 274.356,118.406 273.157,119.769 271.878,120.544 270.594,120.544 269.316,119.514 268.116,117.466 
	266.837,114.485 265.553,110.808 264.281,106.717 262.997,102.447 261.809,98.097 260.524,94.08 259.251,90.323 257.967,86.906 
	256.688,84.01 255.489,81.447 254.205,79.399 252.927,77.866 251.654,76.842 250.364,76.242 249.17,76.158 247.886,76.497 
	246.607,77.097 245.329,77.776 244.051,78.63 242.863,79.314 241.579,79.999 240.3,80.593 239.016,81.193 237.737,81.702 
	236.538,82.217 235.259,82.556 233.98,82.816 232.696,82.901 231.418,82.731 230.219,82.301 228.94,81.702 227.656,80.854 
	226.377,79.999 225.099,79.145 223.911,78.46 222.632,77.946 221.348,77.776 220.069,77.946 218.791,78.46 217.586,79.399 
	216.313,80.684 215.029,82.471 213.751,84.519 212.551,87.082 211.272,89.899 209.988,92.971 208.716,96.127 207.432,99.2 
	206.238,102.186 204.959,104.919 203.681,107.312 202.402,109.275 201.124,110.808 199.925,111.838 198.64,112.262 197.362,112.008 
	196.083,110.983 194.799,109.105 193.605,106.373 192.321,102.786 191.042,98.436 189.764,93.57 188.48,88.19 187.298,82.731 
	186.014,77.357 184.729,72.231 183.451,67.536 182.172,63.35 180.973,59.769 179.694,56.952 178.416,54.729 177.132,53.45 
	175.853,52.94 174.648,53.45 173.375,54.729 172.091,56.952 170.813,59.854 169.528,63.271 168.346,67.191 167.067,71.547 
	165.783,76.073 164.499,80.933 163.221,85.973 162.021,91.093 160.749,96.127 159.465,100.993 158.186,105.264 156.986,108.935 
	155.708,111.492 154.43,113.031 153.151,113.54 151.867,113.201 150.673,112.347 149.395,111.322 148.11,110.299 146.832,109.529 
	145.548,109.105 144.36,108.935 143.075,109.105 141.791,109.529 140.513,110.214 139.234,111.408 138.041,113.11 136.762,115.333 
	135.478,117.981 134.2,120.968 132.921,123.961 131.721,126.518 130.443,128.396 129.165,129.42 127.88,129.42 126.607,128.565 
	125.408,126.942 124.13,124.639 122.845,121.823 121.562,118.326 120.289,114.225 119.089,109.19 117.81,103.301 116.526,96.382 
	115.249,88.791 113.969,80.854 112.776,72.825 111.492,65.404 110.213,58.83 108.935,53.365 107.651,49.184 106.457,46.367 
	105.178,44.829 103.899,44.574 102.616,45.598 101.422,48.076 100.143,51.911 98.859,57.206 97.581,63.689 96.302,71.208 
	95.108,79.229 93.824,87.506 92.54,95.449 91.268,102.871 89.983,109.705 88.789,115.758 87.511,121.144 86.227,126.003 
	84.948,130.274 83.67,133.771 82.476,136.417 81.191,137.957 79.914,138.126 78.635,136.842 77.356,134.37 76.157,130.784 
	74.878,126.433 73.594,121.732 72.316,116.787 71.037,112.008 69.838,107.227 68.559,102.532 67.281,97.836 65.996,93.056 
	64.718,88.445 63.524,84.18 62.246,80.253 60.962,77.097 59.683,74.534 58.399,72.741 57.206,71.547 55.927,70.778 54.649,70.184 
	53.37,69.754 52.086,69.415 50.892,69.245 49.608,69.584 48.335,70.438 47.051,71.893 45.857,73.94 44.573,76.497 43.294,79.314 
	42.016,82.217 40.731,85.119 39.543,87.936 38.254,90.838 36.975,93.825 35.703,97.072 34.418,100.568 33.225,104.149 
	31.94,107.736 30.662,111.068 29.384,113.88 28.099,116.097 26.905,117.642 25.627,118.745 24.349,119.429 23.064,119.944 
	21.786,120.374 20.587,120.713 19.314,120.883 18.029,120.798 16.745,120.199 "/>
<polyline fill="none" stroke="#951B81" stroke-width="2.0485" stroke-linejoin="round" stroke-miterlimit="10" points="
	45.857,81.532 47.051,81.277 48.335,81.532 49.608,82.471 50.892,83.84 52.086,85.543 53.37,87.597 54.649,89.814 55.927,91.862 
	57.206,94.51 58.399,96.813 59.683,99.285 60.962,101.847 62.246,104.24 63.524,106.887 64.718,109.875 65.996,113.031 
	67.281,116.357 68.559,120.199 69.838,124.13 71.037,128.565 72.316,132.922 73.594,137.357 74.878,141.792 76.157,146.233 
	77.356,150.074 78.635,153.401 79.914,156.048 81.191,157.502 82.476,157.842 83.67,156.988 84.948,154.685 86.227,151.014 
	87.511,145.978 88.789,139.66 89.983,131.977 91.268,123.101 92.54,113.71 93.824,103.81 95.108,93.655 96.302,83.84 97.581,74.364 
	98.859,66.088 100.143,58.66 101.422,52.856 102.616,48.585 103.899,46.367 105.178,46.028 106.457,47.646 107.651,50.978 
	108.935,56.182 110.213,62.841 111.492,70.778 112.776,79.829 113.969,89.305 115.249,99.115 116.526,109.02 117.81,118.496 
	119.089,126.772 120.289,134.625 121.562,140.683 122.845,145.888 124.13,149.65 125.408,151.868 126.607,152.637 127.88,152.292 
	129.165,150.753 130.443,148.451 131.721,145.634 132.921,142.301 134.2,138.805 135.478,135.564 136.762,132.661 138.041,130.184 
	139.234,128.48 140.513,127.536 141.791,127.288 143.075,127.626 144.36,128.82 145.548,130.354 146.832,132.237 148.11,134.37 
	149.395,136.328 150.673,138.042 151.867,139.145 153.151,139.575 154.43,138.975 155.708,137.612 156.986,135.14 158.186,131.553 
	159.465,126.942 160.749,121.392 162.021,114.739 163.221,107.905 164.499,100.314 165.783,92.711 167.067,85.034 168.346,77.696 
	169.528,70.863 170.813,64.973 172.091,59.769 173.375,55.928 174.648,53.195 175.853,52.002 177.132,51.911 178.416,53.365 
	179.694,56.013 180.973,59.938 182.172,64.634 183.451,70.438 184.729,77.012 186.014,84.01 187.298,91.523 188.48,99.03 
	189.764,106.797 191.042,114.31 192.321,121.392 193.605,128.221 194.799,134.37 196.083,140.174 197.362,145.124 198.64,149.39 
	199.925,153.146 201.124,155.878 202.402,158.356 203.681,159.805 204.959,160.744 206.238,160.744 207.432,160.313 
	208.716,159.125 209.988,157.157 211.272,154.685 212.551,151.698 213.751,148.026 215.029,144.016 216.313,139.49 217.586,134.54 
	218.791,129.42 220.069,124.041 221.348,118.666 222.632,113.286 223.911,107.996 225.099,102.961 226.377,98.266 227.656,94.08 
	228.94,90.408 230.219,87.421 231.418,85.034 232.696,83.331 233.98,82.301 235.259,81.962 236.538,82.301 237.737,83.331 
	239.016,84.689 240.3,86.318 241.579,88.445 242.863,90.669 244.051,93.31 245.329,95.698 246.607,97.836 247.886,100.053 
	249.17,102.186 250.364,103.979 251.654,105.603 252.927,107.312 254.205,108.591 255.489,109.784 256.688,110.983 257.967,112.347 
	259.251,113.54 260.524,115.164 261.809,116.787 262.997,118.326 264.281,120.459 265.553,122.501 266.837,124.895 268.116,126.857 
	269.316,129.075 270.594,131.208 271.878,133.001 273.157,134.285 274.356,135.31 275.634,135.564 276.918,135.394 278.197,134.37 
	279.476,132.661 280.669,130.354 281.942,127.536 283.227,123.701 284.511,119.769 285.784,115.509 286.988,111.068 
	288.267,106.542 289.545,102.356 290.824,98.436 292.108,95.188 293.302,92.541 294.586,90.669 295.865,89.814 297.143,89.983 
	298.427,91.008 299.615,92.711 300.893,95.279 302.172,98.86 303.456,102.532 304.735,106.717 305.935,110.983 307.219,115.333 
	308.492,119.344 309.776,123.016 311.054,125.918 312.253,128.221 313.532,129.844 314.816,130.523 316.089,130.444 
	317.379,129.335 318.562,127.712 319.846,125.573 321.124,122.931 322.402,120.029 323.681,116.957 324.88,114.14 326.165,111.408 
	327.443,109.105 328.728,107.481 329.92,106.373 331.205,105.773 332.483,105.942 333.762,106.717 335.046,107.736 336.234,109.02 
	337.507,110.808 338.791,112.432 340.076,113.971 341.354,115.164 342.553,116.019 343.832,116.188 345.11,115.927 346.395,114.909 
	347.673,113.201 348.872,110.808 350.157,108.166 351.429,105.004 352.713,101.677 353.992,98.097 355.18,95.279 356.458,92.632 
	357.743,90.578 359.021,89.475 360.306,89.215 361.499,90.238 362.783,92.117 364.062,95.358 365.34,99.544 366.619,104.495 
	367.818,110.299 369.103,116.787 370.381,123.355 371.66,129.76 372.944,136.078 374.132,141.792 375.41,146.918 376.694,150.753 
	377.967,153.401 379.251,154.77 379.348,154.685 "/>
<g>
	<line fill="#BE1622" x1="379.251" y1="155.794" x2="375.84" y2="155.794"/>
	<path fill="#BE1622" d="M49.608,48.754c0,1.415-1.143,2.563-2.557,2.563c-1.415,0-2.563-1.148-2.563-2.563
		c0-1.409,1.148-2.557,2.563-2.557C48.465,46.197,49.608,47.346,49.608,48.754"/>
	<path fill="#BE1622" d="M50.892,110.808c0,1.42-1.149,2.563-2.557,2.563c-1.42,0-2.568-1.143-2.568-2.563
		c0-1.409,1.148-2.557,2.568-2.557C49.743,108.251,50.892,109.399,50.892,110.808"/>
	<path fill="#BE1622" d="M52.17,91.862c0,1.415-1.143,2.563-2.563,2.563c-1.409,0-2.557-1.148-2.557-2.563
		c0-1.414,1.148-2.557,2.557-2.557C51.027,89.305,52.17,90.448,52.17,91.862"/>
	<path fill="#BE1622" d="M53.455,117.127c0,1.415-1.148,2.557-2.563,2.557c-1.415,0-2.557-1.142-2.557-2.557
		c0-1.414,1.142-2.558,2.557-2.558C52.306,114.569,53.455,115.713,53.455,117.127"/>
	<path fill="#BE1622" d="M54.649,45.688c0,1.409-1.149,2.558-2.563,2.558c-1.409,0-2.558-1.148-2.558-2.558
		c0-1.415,1.148-2.568,2.558-2.568C53.5,43.12,54.649,44.273,54.649,45.688"/>
	<path fill="#BE1622" d="M55.927,61.817c0,1.414-1.142,2.563-2.557,2.563c-1.42,0-2.563-1.148-2.563-2.563
		c0-1.415,1.142-2.563,2.563-2.563C54.785,59.254,55.927,60.402,55.927,61.817"/>
	<path fill="#BE1622" d="M57.206,97.327c0,1.415-1.149,2.557-2.557,2.557c-1.415,0-2.563-1.143-2.563-2.557
		c0-1.414,1.148-2.563,2.563-2.563C56.057,94.764,57.206,95.913,57.206,97.327"/>
	<path fill="#BE1622" d="M58.49,113.54c0,1.415-1.149,2.557-2.563,2.557c-1.415,0-2.557-1.143-2.557-2.557
		c0-1.414,1.143-2.557,2.557-2.557C57.341,110.983,58.49,112.126,58.49,113.54"/>
	<path fill="#BE1622" d="M59.768,56.527c0,1.415-1.148,2.557-2.563,2.557c-1.415,0-2.557-1.143-2.557-2.557
		c0-1.42,1.142-2.563,2.557-2.563C58.62,53.965,59.768,55.107,59.768,56.527"/>
	<path fill="#BE1622" d="M60.962,101.422c0,1.415-1.143,2.557-2.563,2.557c-1.409,0-2.557-1.142-2.557-2.557
		c0-1.414,1.148-2.563,2.557-2.563C59.819,98.86,60.962,100.008,60.962,101.422"/>
	<path fill="#BE1622" d="M62.246,95.528c0,1.414-1.148,2.569-2.563,2.569c-1.414,0-2.557-1.155-2.557-2.569
		c0-1.409,1.143-2.557,2.557-2.557C61.098,92.971,62.246,94.119,62.246,95.528"/>
	<path fill="#BE1622" d="M63.524,76.582c0,1.415-1.148,2.563-2.563,2.563c-1.415,0-2.563-1.148-2.563-2.563
		c0-1.414,1.148-2.557,2.563-2.557C62.376,74.025,63.524,75.168,63.524,76.582"/>
	<path fill="#BE1622" d="M64.808,92.971c0,1.414-1.154,2.557-2.562,2.557c-1.415,0-2.563-1.143-2.563-2.557
		c0-1.415,1.148-2.563,2.563-2.563C63.654,90.408,64.808,91.557,64.808,92.971"/>
	<path fill="#BE1622" d="M66.087,88.53c0,1.42-1.149,2.563-2.563,2.563c-1.415,0-2.563-1.143-2.563-2.563
		c0-1.414,1.148-2.557,2.563-2.557C64.938,85.973,66.087,87.116,66.087,88.53"/>
	<path fill="#BE1622" d="M67.281,104.749c0,1.415-1.148,2.563-2.563,2.563s-2.557-1.148-2.557-2.563
		c0-1.414,1.143-2.563,2.557-2.563S67.281,103.335,67.281,104.749"/>
	<path fill="#BE1622" d="M68.559,113.031c0,1.409-1.148,2.558-2.563,2.558c-1.408,0-2.557-1.148-2.557-2.558
		c0-1.414,1.148-2.563,2.557-2.563C67.411,110.468,68.559,111.617,68.559,113.031"/>
	<path fill="#BE1622" d="M69.838,79.145c0,1.414-1.143,2.557-2.557,2.557c-1.42,0-2.563-1.143-2.563-2.557s1.142-2.563,2.563-2.563
		C68.695,76.582,69.838,77.731,69.838,79.145"/>
	<path fill="#BE1622" d="M71.122,159.889c0,1.415-1.148,2.563-2.563,2.563s-2.563-1.148-2.563-2.563
		c0-1.414,1.148-2.563,2.563-2.563S71.122,158.475,71.122,159.889"/>
	<path fill="#BE1622" d="M72.401,105.349c0,1.415-1.149,2.557-2.563,2.557c-1.409,0-2.557-1.142-2.557-2.557
		c0-1.414,1.148-2.563,2.557-2.563C71.252,102.786,72.401,103.935,72.401,105.349"/>
	<path fill="#BE1622" d="M73.594,152.461c0,1.415-1.148,2.563-2.557,2.563c-1.414,0-2.563-1.148-2.563-2.563
		c0-1.414,1.148-2.557,2.563-2.557C72.446,149.904,73.594,151.047,73.594,152.461"/>
	<path fill="#BE1622" d="M74.878,86.318c0,1.408-1.154,2.557-2.563,2.557c-1.415,0-2.563-1.148-2.563-2.557
		c0-1.42,1.148-2.569,2.563-2.569C73.724,83.75,74.878,84.898,74.878,86.318"/>
	<path fill="#BE1622" d="M76.157,166.376c0,1.414-1.143,2.557-2.563,2.557c-1.414,0-2.557-1.143-2.557-2.557
		c0-1.412,1.143-2.561,2.557-2.561C75.014,163.815,76.157,164.964,76.157,166.376"/>
	<path fill="#BE1622" d="M77.436,116.873c0,1.415-1.148,2.557-2.557,2.557c-1.414,0-2.563-1.142-2.563-2.557
		s1.148-2.563,2.563-2.563C76.287,114.31,77.436,115.458,77.436,116.873"/>
	<path fill="#BE1622" d="M78.714,119.514c0,1.415-1.143,2.563-2.558,2.563s-2.563-1.148-2.563-2.563
		c0-1.414,1.148-2.557,2.563-2.557S78.714,118.1,78.714,119.514"/>
	<path fill="#BE1622" d="M79.914,184.128c0,1.414-1.148,2.568-2.557,2.568c-1.42,0-2.568-1.154-2.568-2.568
		c0-1.415,1.148-2.557,2.568-2.557C78.765,181.571,79.914,182.713,79.914,184.128"/>
	<path fill="#BE1622" d="M81.191,150.159c0,1.415-1.148,2.563-2.557,2.563c-1.414,0-2.563-1.148-2.563-2.563
		c0-1.414,1.148-2.563,2.563-2.563C80.043,147.597,81.191,148.745,81.191,150.159"/>
	<path fill="#BE1622" d="M82.476,120.374c0,1.415-1.148,2.557-2.562,2.557c-1.415,0-2.557-1.143-2.557-2.557
		c0-1.419,1.143-2.563,2.557-2.563C81.327,117.812,82.476,118.955,82.476,120.374"/>
	<path fill="#BE1622" d="M83.749,150.074c0,1.415-1.143,2.563-2.558,2.563c-1.414,0-2.557-1.148-2.557-2.563
		s1.143-2.557,2.557-2.557C82.606,147.517,83.749,148.66,83.749,150.074"/>
	<path fill="#BE1622" d="M85.033,149.565c0,1.415-1.148,2.557-2.557,2.557c-1.42,0-2.562-1.142-2.562-2.557
		c0-1.419,1.142-2.563,2.562-2.563C83.885,147.002,85.033,148.146,85.033,149.565"/>
	<path fill="#BE1622" d="M86.227,159.974c0,1.415-1.149,2.557-2.557,2.557c-1.415,0-2.563-1.143-2.563-2.557
		c0-1.414,1.148-2.562,2.563-2.562C85.078,157.412,86.227,158.56,86.227,159.974"/>
	<path fill="#BE1622" d="M87.511,156.479c0,1.409-1.148,2.557-2.563,2.557s-2.563-1.148-2.563-2.557
		c0-1.414,1.148-2.563,2.563-2.563S87.511,155.064,87.511,156.479"/>
	<path fill="#BE1622" d="M88.789,172.101c0,1.415-1.148,2.557-2.563,2.557c-1.408,0-2.557-1.143-2.557-2.557
		c0-1.425,1.148-2.568,2.557-2.568C87.641,169.532,88.789,170.675,88.789,172.101"/>
	<path fill="#BE1622" d="M90.068,128.48c0,1.415-1.148,2.558-2.557,2.558c-1.42,0-2.563-1.143-2.563-2.558
		c0-1.419,1.143-2.562,2.563-2.562C88.92,125.918,90.068,127.062,90.068,128.48"/>
	<path fill="#BE1622" d="M91.352,137.696c0,1.415-1.154,2.563-2.563,2.563c-1.414,0-2.563-1.148-2.563-2.563
		c0-1.414,1.148-2.557,2.563-2.557C90.198,135.14,91.352,136.282,91.352,137.696"/>
	<path fill="#BE1622" d="M92.54,138.636c0,1.414-1.143,2.563-2.557,2.563c-1.415,0-2.563-1.148-2.563-2.563
		c0-1.415,1.148-2.558,2.563-2.558C91.397,136.078,92.54,137.221,92.54,138.636"/>
	<path fill="#BE1622" d="M93.824,109.529c0,1.415-1.148,2.563-2.557,2.563c-1.42,0-2.563-1.148-2.563-2.563
		c0-1.414,1.143-2.563,2.563-2.563C92.676,106.967,93.824,108.115,93.824,109.529"/>
	<path fill="#BE1622" d="M95.108,97.072c0,1.409-1.148,2.557-2.568,2.557c-1.408,0-2.557-1.148-2.557-2.557
		c0-1.419,1.148-2.563,2.557-2.563C93.96,94.51,95.108,95.653,95.108,97.072"/>
	<path fill="#BE1622" d="M96.387,109.19c0,1.409-1.148,2.563-2.563,2.563c-1.415,0-2.557-1.154-2.557-2.563
		c0-1.414,1.142-2.563,2.557-2.563C95.238,106.627,96.387,107.776,96.387,109.19"/>
	<path fill="#BE1622" d="M97.666,97.412c0,1.409-1.148,2.557-2.557,2.557c-1.42,0-2.568-1.148-2.568-2.557
		c0-1.414,1.148-2.563,2.568-2.563C96.518,94.849,97.666,95.998,97.666,97.412"/>
	<path fill="#BE1622" d="M98.859,61.472c0,1.42-1.142,2.563-2.557,2.563c-1.42,0-2.563-1.143-2.563-2.563
		c0-1.415,1.142-2.557,2.563-2.557C97.717,58.915,98.859,60.057,98.859,61.472"/>
	<path fill="#BE1622" d="M100.143,87.766c0,1.415-1.148,2.557-2.562,2.557c-1.415,0-2.563-1.143-2.563-2.557
		c0-1.414,1.148-2.563,2.563-2.563C98.995,85.204,100.143,86.352,100.143,87.766"/>
	<path fill="#BE1622" d="M101.422,46.452c0,1.414-1.148,2.562-2.563,2.562c-1.408,0-2.557-1.148-2.557-2.562
		c0-1.409,1.148-2.563,2.557-2.563C100.273,43.889,101.422,45.043,101.422,46.452"/>
	<path fill="#BE1622" d="M102.7,110.214c0,1.414-1.143,2.557-2.557,2.557c-1.414,0-2.562-1.143-2.562-2.557s1.148-2.563,2.562-2.563
		C101.558,107.651,102.7,108.8,102.7,110.214"/>
	<path fill="#BE1622" d="M103.979,30.238c0,1.409-1.143,2.558-2.557,2.558c-1.415,0-2.563-1.148-2.563-2.558
		c0-1.42,1.148-2.563,2.563-2.563C102.836,27.676,103.979,28.818,103.979,30.238"/>
	<path fill="#BE1622" d="M105.178,47.051c0,1.415-1.148,2.557-2.563,2.557c-1.415,0-2.558-1.143-2.558-2.557
		c0-1.42,1.143-2.563,2.558-2.563C104.03,44.489,105.178,45.631,105.178,47.051"/>
	<path fill="#BE1622" d="M106.457,78.545c0,1.415-1.148,2.557-2.557,2.557c-1.414,0-2.568-1.142-2.568-2.557
		c0-1.414,1.154-2.563,2.568-2.563C105.308,75.982,106.457,77.131,106.457,78.545"/>
	<path fill="#BE1622" d="M107.735,52.081c0,1.42-1.143,2.568-2.557,2.568s-2.563-1.148-2.563-2.568c0-1.408,1.148-2.557,2.563-2.557
		S107.735,50.673,107.735,52.081"/>
	<path fill="#BE1622" d="M109.02,20.163c0,1.414-1.148,2.557-2.563,2.557c-1.414,0-2.557-1.143-2.557-2.557s1.143-2.563,2.557-2.563
		C107.871,17.601,109.02,18.749,109.02,20.163"/>
	<path fill="#BE1622" d="M110.213,71.802c0,1.415-1.148,2.563-2.563,2.563c-1.409,0-2.558-1.148-2.558-2.563
		c0-1.414,1.148-2.557,2.558-2.557C109.065,69.245,110.213,70.388,110.213,71.802"/>
	<path fill="#BE1622" d="M111.492,74.364c0,1.409-1.143,2.563-2.557,2.563c-1.42,0-2.563-1.154-2.563-2.563
		c0-1.414,1.143-2.563,2.563-2.563C110.349,71.802,111.492,72.95,111.492,74.364"/>
	<path fill="#BE1622" d="M112.776,82.047c0,1.415-1.148,2.557-2.563,2.557c-1.415,0-2.563-1.142-2.563-2.557
		s1.148-2.563,2.563-2.563C111.627,79.484,112.776,80.632,112.776,82.047"/>
	<path fill="#BE1622" d="M114.054,63.35c0,1.415-1.148,2.563-2.563,2.563c-1.415,0-2.557-1.148-2.557-2.563
		c0-1.409,1.142-2.558,2.557-2.558C112.906,60.792,114.054,61.941,114.054,63.35"/>
	<path fill="#BE1622" d="M115.338,65.573c0,1.409-1.154,2.557-2.563,2.557c-1.414,0-2.563-1.148-2.563-2.557
		c0-1.414,1.148-2.563,2.563-2.563C114.185,63.011,115.338,64.16,115.338,65.573"/>
	<path fill="#BE1622" d="M116.526,84.519c0,1.415-1.142,2.563-2.557,2.563c-1.414,0-2.557-1.148-2.557-2.563
		s1.143-2.557,2.557-2.557C115.384,81.962,116.526,83.104,116.526,84.519"/>
	<path fill="#BE1622" d="M117.81,122.247c0,1.414-1.148,2.563-2.562,2.563c-1.415,0-2.558-1.148-2.558-2.563
		c0-1.408,1.143-2.563,2.558-2.563C116.662,119.684,117.81,120.838,117.81,122.247"/>
	<path fill="#BE1622" d="M119.089,120.459c0,1.409-1.143,2.557-2.563,2.557c-1.415,0-2.557-1.148-2.557-2.557
		c0-1.414,1.143-2.563,2.557-2.563C117.947,117.896,119.089,119.045,119.089,120.459"/>
	<path fill="#BE1622" d="M120.373,133.001c0,1.415-1.154,2.563-2.563,2.563c-1.414,0-2.562-1.148-2.562-2.563
		c0-1.409,1.148-2.557,2.562-2.557C119.219,130.444,120.373,131.592,120.373,133.001"/>
	<path fill="#BE1622" d="M121.652,117.127c0,1.415-1.148,2.557-2.563,2.557c-1.415,0-2.563-1.142-2.563-2.557
		c0-1.414,1.148-2.558,2.563-2.558C120.503,114.569,121.652,115.713,121.652,117.127"/>
	<path fill="#BE1622" d="M122.845,170.052c0,1.403-1.148,2.558-2.557,2.558c-1.42,0-2.563-1.155-2.563-2.558
		c0-1.425,1.143-2.568,2.563-2.568C121.697,167.484,122.845,168.627,122.845,170.052"/>
	<path fill="#BE1622" d="M124.13,135.479c0,1.414-1.148,2.563-2.568,2.563c-1.409,0-2.557-1.148-2.557-2.563
		c0-1.415,1.148-2.557,2.557-2.557C122.982,132.922,124.13,134.064,124.13,135.479"/>
	<path fill="#BE1622" d="M125.408,160.059c0,1.415-1.148,2.563-2.563,2.563c-1.414,0-2.557-1.148-2.557-2.563
		c0-1.408,1.143-2.557,2.557-2.557C124.26,157.502,125.408,158.651,125.408,160.059"/>
	<path fill="#BE1622" d="M126.687,166.115c0,1.426-1.148,2.568-2.557,2.568c-1.414,0-2.568-1.143-2.568-2.568
		c0-1.411,1.154-2.554,2.568-2.554C125.539,163.561,126.687,164.704,126.687,166.115"/>
	<path fill="#BE1622" d="M127.965,179.771c0,1.415-1.143,2.568-2.558,2.568c-1.414,0-2.563-1.154-2.563-2.568
		c0-1.403,1.148-2.557,2.563-2.557C126.823,177.215,127.965,178.369,127.965,179.771"/>
	<path fill="#BE1622" d="M129.165,136.417c0,1.415-1.154,2.557-2.557,2.557c-1.419,0-2.568-1.143-2.568-2.557
		c0-1.414,1.149-2.562,2.568-2.562C128.011,133.855,129.165,135.004,129.165,136.417"/>
	<path fill="#BE1622" d="M130.443,156.648c0,1.409-1.143,2.557-2.563,2.557c-1.408,0-2.563-1.148-2.563-2.557
		c0-1.414,1.154-2.563,2.563-2.563C129.3,154.085,130.443,155.234,130.443,156.648"/>
	<path fill="#BE1622" d="M131.721,153.231c0,1.414-1.142,2.563-2.557,2.563c-1.414,0-2.557-1.148-2.557-2.563
		s1.143-2.557,2.557-2.557C130.579,150.674,131.721,151.817,131.721,153.231"/>
	<path fill="#BE1622" d="M133,142.477c0,1.415-1.143,2.563-2.558,2.563c-1.414,0-2.563-1.148-2.563-2.563
		c0-1.414,1.149-2.563,2.563-2.563C131.857,139.914,133,141.063,133,142.477"/>
	<path fill="#BE1622" d="M134.284,162.792c0,1.414-1.148,2.554-2.563,2.554c-1.414,0-2.557-1.14-2.557-2.554
		s1.143-2.563,2.557-2.563C133.136,160.229,134.284,161.378,134.284,162.792"/>
	<path fill="#BE1622" d="M135.478,130.274c0,1.409-1.148,2.557-2.557,2.557c-1.419,0-2.568-1.148-2.568-2.557
		c0-1.414,1.149-2.562,2.568-2.562C134.329,127.712,135.478,128.86,135.478,130.274"/>
	<path fill="#BE1622" d="M136.762,126.518c0,1.415-1.148,2.558-2.563,2.558s-2.563-1.143-2.563-2.558
		c0-1.414,1.149-2.557,2.563-2.557S136.762,125.104,136.762,126.518"/>
	<path fill="#BE1622" d="M138.041,131.038c0,1.415-1.148,2.563-2.563,2.563c-1.414,0-2.557-1.148-2.557-2.563
		c0-1.409,1.143-2.558,2.557-2.558C136.892,128.48,138.041,129.629,138.041,131.038"/>
	<path fill="#BE1622" d="M139.319,108.675c0,1.414-1.148,2.563-2.557,2.563c-1.42,0-2.563-1.148-2.563-2.563
		s1.143-2.557,2.563-2.557C138.171,106.119,139.319,107.261,139.319,108.675"/>
	<path fill="#BE1622" d="M140.603,133.686c0,1.415-1.153,2.563-2.563,2.563c-1.414,0-2.563-1.148-2.563-2.563
		c0-1.409,1.149-2.563,2.563-2.563C139.45,131.123,140.603,132.277,140.603,133.686"/>
	<path fill="#BE1622" d="M141.791,169.623c0,1.414-1.142,2.557-2.557,2.557c-1.414,0-2.563-1.143-2.563-2.557
		c0-1.415,1.148-2.557,2.563-2.557C140.649,167.066,141.791,168.208,141.791,169.623"/>
	<path fill="#BE1622" d="M143.075,127.712c0,1.414-1.148,2.562-2.562,2.562c-1.414,0-2.557-1.148-2.557-2.562
		c0-1.409,1.143-2.563,2.557-2.563C141.927,125.149,143.075,126.303,143.075,127.712"/>
	<path fill="#BE1622" d="M144.36,126.173c0,1.42-1.154,2.563-2.569,2.563c-1.408,0-2.557-1.142-2.557-2.563
		c0-1.414,1.149-2.557,2.557-2.557C143.206,123.616,144.36,124.759,144.36,126.173"/>
	<path fill="#BE1622" d="M145.632,142.816c0,1.415-1.143,2.563-2.557,2.563c-1.414,0-2.562-1.148-2.562-2.563
		c0-1.409,1.148-2.558,2.562-2.558C144.49,140.259,145.632,141.408,145.632,142.816"/>
	<path fill="#BE1622" d="M146.917,163.046c0,1.414-1.148,2.56-2.557,2.56c-1.414,0-2.569-1.146-2.569-2.56
		c0-1.409,1.155-2.557,2.569-2.557C145.769,160.489,146.917,161.638,146.917,163.046"/>
	<path fill="#BE1622" d="M148.11,73.595c0,1.414-1.143,2.563-2.563,2.563c-1.414,0-2.557-1.148-2.557-2.563
		c0-1.415,1.143-2.557,2.557-2.557C146.968,71.039,148.11,72.181,148.11,73.595"/>
	<path fill="#BE1622" d="M149.395,116.097c0,1.42-1.155,2.568-2.563,2.568c-1.414,0-2.563-1.148-2.563-2.568
		c0-1.408,1.148-2.557,2.563-2.557C148.24,113.54,149.395,114.689,149.395,116.097"/>
	<path fill="#BE1622" d="M150.673,143.331c0,1.414-1.148,2.557-2.563,2.557c-1.409,0-2.563-1.143-2.563-2.557
		s1.154-2.557,2.563-2.557C149.524,140.774,150.673,141.917,150.673,143.331"/>
	<path fill="#BE1622" d="M151.952,133.51c0,1.42-1.143,2.568-2.557,2.568c-1.42,0-2.563-1.148-2.563-2.568
		c0-1.409,1.143-2.558,2.563-2.558C150.809,130.953,151.952,132.102,151.952,133.51"/>
	<path fill="#BE1622" d="M153.23,190.283c0,1.403-1.143,2.558-2.557,2.558c-1.414,0-2.563-1.155-2.563-2.558
		c0-1.426,1.148-2.568,2.563-2.568C152.087,187.715,153.23,188.857,153.23,190.283"/>
	<path fill="#BE1622" d="M154.43,122.417c0,1.414-1.148,2.563-2.563,2.563c-1.415,0-2.563-1.148-2.563-2.563
		c0-1.409,1.148-2.557,2.563-2.557C153.281,119.86,154.43,121.008,154.43,122.417"/>
	<path fill="#BE1622" d="M155.708,138.466c0,1.415-1.148,2.563-2.557,2.563c-1.415,0-2.563-1.148-2.563-2.563
		c0-1.414,1.148-2.558,2.563-2.558C154.56,135.908,155.708,137.052,155.708,138.466"/>
	<path fill="#BE1622" d="M156.986,135.818c0,1.415-1.142,2.563-2.557,2.563s-2.563-1.148-2.563-2.563
		c0-1.414,1.148-2.557,2.563-2.557S156.986,134.404,156.986,135.818"/>
	<path fill="#BE1622" d="M158.271,159.714c0,1.42-1.148,2.568-2.563,2.568s-2.557-1.148-2.557-2.568
		c0-1.409,1.143-2.557,2.557-2.557S158.271,158.306,158.271,159.714"/>
	<path fill="#BE1622" d="M269.395,106.288c0,1.415-1.143,2.558-2.557,2.558s-2.557-1.143-2.557-2.558
		c0-1.414,1.143-2.557,2.557-2.557S269.395,104.874,269.395,106.288"/>
	<path fill="#BE1622" d="M270.679,132.322c0,1.415-1.143,2.563-2.563,2.563c-1.415,0-2.563-1.148-2.563-2.563
		s1.148-2.563,2.563-2.563C269.536,129.76,270.679,130.908,270.679,132.322"/>
	<path fill="#BE1622" d="M271.878,176.196c0,1.403-1.148,2.557-2.563,2.557c-1.415,0-2.558-1.154-2.558-2.557
		c0-1.415,1.143-2.568,2.558-2.568C270.73,173.628,271.878,174.782,271.878,176.196"/>
	<path fill="#BE1622" d="M273.157,114.569c0,1.415-1.149,2.558-2.563,2.558s-2.558-1.143-2.558-2.558
		c0-1.419,1.144-2.562,2.558-2.562S273.157,113.15,273.157,114.569"/>
	<path fill="#BE1622" d="M274.441,130.274c0,1.409-1.155,2.557-2.563,2.557c-1.415,0-2.563-1.148-2.563-2.557
		c0-1.414,1.148-2.562,2.563-2.562C273.287,127.712,274.441,128.86,274.441,130.274"/>
	<path fill="#BE1622" d="M275.719,135.908c0,1.409-1.148,2.558-2.562,2.558c-1.409,0-2.563-1.148-2.563-2.558
		c0-1.419,1.154-2.568,2.563-2.568C274.571,133.34,275.719,134.489,275.719,135.908"/>
	<path fill="#BE1622" d="M276.918,145.04c0,1.414-1.148,2.557-2.563,2.557c-1.415,0-2.563-1.143-2.563-2.557
		s1.148-2.563,2.563-2.563C275.77,142.477,276.918,143.625,276.918,145.04"/>
	<path fill="#BE1622" d="M278.197,167.145c0,1.414-1.148,2.557-2.563,2.557c-1.408,0-2.557-1.143-2.557-2.557
		c0-1.414,1.148-2.559,2.557-2.559C277.049,164.585,278.197,165.731,278.197,167.145"/>
	<path fill="#BE1622" d="M279.476,116.097c0,1.42-1.144,2.568-2.558,2.568s-2.563-1.148-2.563-2.568
		c0-1.408,1.148-2.557,2.563-2.557S279.476,114.689,279.476,116.097"/>
	<path fill="#BE1622" d="M280.754,113.625c0,1.415-1.142,2.563-2.557,2.563s-2.563-1.148-2.563-2.563
		c0-1.408,1.148-2.557,2.563-2.557S280.754,112.217,280.754,113.625"/>
	<path fill="#BE1622" d="M282.039,138.042c0,1.409-1.149,2.557-2.563,2.557c-1.409,0-2.558-1.148-2.558-2.557
		c0-1.415,1.148-2.563,2.558-2.563C280.89,135.479,282.039,136.627,282.039,138.042"/>
	<path fill="#BE1622" d="M283.227,135.14c0,1.414-1.149,2.557-2.558,2.557c-1.42,0-2.563-1.143-2.563-2.557
		c0-1.42,1.143-2.563,2.563-2.563C282.078,132.577,283.227,133.719,283.227,135.14"/>
	<path fill="#BE1622" d="M284.511,168.163c0,1.415-1.154,2.568-2.568,2.568c-1.409,0-2.557-1.154-2.557-2.568
		c0-1.403,1.148-2.557,2.557-2.557C283.356,165.606,284.511,166.76,284.511,168.163"/>
	<path fill="#BE1622" d="M285.784,81.447c0,1.414-1.143,2.563-2.557,2.563c-1.415,0-2.558-1.148-2.558-2.563
		c0-1.409,1.143-2.563,2.558-2.563C284.641,78.884,285.784,80.039,285.784,81.447"/>
	<path fill="#BE1622" d="M287.067,120.114c0,1.414-1.148,2.563-2.557,2.563c-1.42,0-2.568-1.148-2.568-2.563
		s1.148-2.557,2.568-2.557C285.919,117.557,287.067,118.7,287.067,120.114"/>
	<path fill="#BE1622" d="M288.346,75.558c0,1.414-1.143,2.558-2.563,2.558c-1.409,0-2.557-1.144-2.557-2.558
		c0-1.415,1.148-2.563,2.557-2.563C287.203,72.995,288.346,74.144,288.346,75.558"/>
	<path fill="#BE1622" d="M289.545,87.252c0,1.414-1.148,2.563-2.557,2.563c-1.414,0-2.568-1.148-2.568-2.563
		c0-1.409,1.154-2.563,2.568-2.563C288.397,84.689,289.545,85.843,289.545,87.252"/>
	<path fill="#BE1622" d="M290.824,92.88c0,1.42-1.149,2.569-2.557,2.569c-1.415,0-2.563-1.148-2.563-2.569
		c0-1.408,1.148-2.557,2.563-2.557C289.675,90.323,290.824,91.472,290.824,92.88"/>
	<path fill="#BE1622" d="M292.108,108.081c0,1.414-1.148,2.557-2.563,2.557c-1.414,0-2.557-1.143-2.557-2.557
		c0-1.42,1.143-2.563,2.557-2.563C290.96,105.519,292.108,106.661,292.108,108.081"/>
	<path fill="#BE1622" d="M293.387,106.458c0,1.415-1.148,2.563-2.563,2.563c-1.415,0-2.557-1.148-2.557-2.563
		c0-1.414,1.143-2.557,2.557-2.557C292.238,103.901,293.387,105.043,293.387,106.458"/>
	<path fill="#BE1622" d="M294.666,98.945c0,1.414-1.149,2.557-2.557,2.557c-1.415,0-2.563-1.143-2.563-2.557
		s1.148-2.563,2.563-2.563C293.517,96.382,294.666,97.531,294.666,98.945"/>
	<path fill="#BE1622" d="M295.865,82.047c0,1.415-1.143,2.557-2.563,2.557c-1.414,0-2.557-1.142-2.557-2.557
		s1.143-2.563,2.557-2.563C294.722,79.484,295.865,80.632,295.865,82.047"/>
	<path fill="#BE1622" d="M297.143,50.293c0,1.414-1.148,2.563-2.557,2.563c-1.414,0-2.563-1.148-2.563-2.563
		c0-1.415,1.148-2.563,2.563-2.563C295.995,47.73,297.143,48.878,297.143,50.293"/>
	<path fill="#BE1622" d="M298.427,105.349c0,1.415-1.148,2.557-2.563,2.557c-1.415,0-2.563-1.142-2.563-2.557
		c0-1.414,1.148-2.563,2.563-2.563C297.279,102.786,298.427,103.935,298.427,105.349"/>
	<path fill="#BE1622" d="M299.706,72.486c0,1.415-1.143,2.563-2.563,2.563c-1.409,0-2.557-1.148-2.557-2.563
		s1.148-2.563,2.557-2.563C298.563,69.924,299.706,71.072,299.706,72.486"/>
	<path fill="#BE1622" d="M300.984,105.942c0,1.42-1.148,2.563-2.557,2.563c-1.414,0-2.563-1.143-2.563-2.563
		c0-1.414,1.148-2.557,2.563-2.557C299.836,103.386,300.984,104.528,300.984,105.942"/>
	<path fill="#BE1622" d="M302.172,101.422c0,1.415-1.148,2.557-2.557,2.557c-1.414,0-2.563-1.142-2.563-2.557
		c0-1.414,1.148-2.563,2.563-2.563C301.024,98.86,302.172,100.008,302.172,101.422"/>
	<path fill="#BE1622" d="M303.456,106.627c0,1.415-1.148,2.563-2.563,2.563c-1.414,0-2.556-1.148-2.556-2.563
		c0-1.414,1.143-2.557,2.556-2.557C302.308,104.07,303.456,105.213,303.456,106.627"/>
	<path fill="#BE1622" d="M304.735,118.406c0,1.414-1.149,2.563-2.563,2.563c-1.408,0-2.557-1.148-2.557-2.563
		s1.148-2.557,2.557-2.557C303.586,115.849,304.735,116.992,304.735,118.406"/>
	<path fill="#BE1622" d="M306.014,89.384c0,1.414-1.143,2.563-2.558,2.563c-1.42,0-2.563-1.148-2.563-2.563
		c0-1.415,1.143-2.557,2.563-2.557C304.871,86.827,306.014,87.969,306.014,89.384"/>
	<path fill="#BE1622" d="M307.297,106.203c0,1.409-1.148,2.557-2.562,2.557c-1.415,0-2.563-1.148-2.563-2.557
		c0-1.414,1.148-2.563,2.563-2.563C306.149,103.64,307.297,104.789,307.297,106.203"/>
	<path fill="#BE1622" d="M308.492,116.443c0,1.414-1.143,2.563-2.557,2.563c-1.415,0-2.563-1.148-2.563-2.563
		c0-1.409,1.148-2.563,2.563-2.563C307.349,113.88,308.492,115.034,308.492,116.443"/>
	<path fill="#BE1622" d="M309.776,110.384c0,1.414-1.149,2.557-2.557,2.557c-1.42,0-2.568-1.143-2.568-2.557
		s1.148-2.563,2.568-2.563C308.627,107.821,309.776,108.97,309.776,110.384"/>
	<path fill="#BE1622" d="M311.054,118.066c0,1.415-1.143,2.563-2.562,2.563c-1.409,0-2.557-1.148-2.557-2.563
		c0-1.414,1.148-2.557,2.557-2.557C309.911,115.509,311.054,116.652,311.054,118.066"/>
	<path fill="#BE1622" d="M312.338,154.34c0,1.414-1.148,2.563-2.563,2.563c-1.415,0-2.557-1.148-2.557-2.563
		s1.143-2.557,2.557-2.557C311.19,151.783,312.338,152.926,312.338,154.34"/>
	<path fill="#BE1622" d="M313.611,107.566c0,1.415-1.144,2.557-2.558,2.557c-1.414,0-2.562-1.143-2.562-2.557
		s1.148-2.563,2.562-2.563C312.468,105.004,313.611,106.152,313.611,107.566"/>
	<path fill="#BE1622" d="M314.816,151.269c0,1.414-1.149,2.562-2.563,2.562c-1.415,0-2.557-1.148-2.557-2.562
		c0-1.409,1.143-2.563,2.557-2.563C313.667,148.706,314.816,149.859,314.816,151.269"/>
	<path fill="#BE1622" d="M316.089,77.526c0,1.409-1.143,2.557-2.557,2.557c-1.415,0-2.557-1.148-2.557-2.557
		c0-1.42,1.142-2.568,2.557-2.568C314.946,74.958,316.089,76.106,316.089,77.526"/>
	<path fill="#BE1622" d="M317.379,108.591c0,1.419-1.154,2.563-2.563,2.563c-1.415,0-2.563-1.143-2.563-2.563
		c0-1.415,1.148-2.558,2.563-2.558C316.225,106.033,317.379,107.176,317.379,108.591"/>
	<path fill="#BE1622" d="M318.658,131.893c0,1.414-1.149,2.563-2.569,2.563c-1.403,0-2.557-1.148-2.557-2.563
		s1.153-2.558,2.557-2.558C317.509,129.335,318.658,130.479,318.658,131.893"/>
	<path fill="#BE1622" d="M319.936,114.31c0,1.414-1.148,2.563-2.557,2.563c-1.42,0-2.563-1.148-2.563-2.563
		c0-1.415,1.143-2.557,2.563-2.557C318.787,111.753,319.936,112.896,319.936,114.31"/>
	<path fill="#BE1622" d="M321.124,116.957c0,1.415-1.143,2.557-2.563,2.557c-1.415,0-2.557-1.143-2.557-2.557
		c0-1.414,1.143-2.563,2.557-2.563C319.981,114.395,321.124,115.543,321.124,116.957"/>
	<path fill="#BE1622" d="M322.402,111.492c0,1.415-1.149,2.563-2.557,2.563c-1.415,0-2.563-1.148-2.563-2.563
		c0-1.414,1.148-2.557,2.563-2.557C321.253,108.935,322.402,110.078,322.402,111.492"/>
	<path fill="#BE1622" d="M323.681,138.296c0,1.415-1.143,2.563-2.557,2.563c-1.414,0-2.563-1.148-2.563-2.563
		c0-1.414,1.148-2.563,2.563-2.563C322.538,135.733,323.681,136.882,323.681,138.296"/>
	<path fill="#BE1622" d="M324.971,153.916c0,1.415-1.155,2.563-2.569,2.563c-1.415,0-2.557-1.148-2.557-2.563
		c0-1.414,1.142-2.563,2.557-2.563C323.816,151.353,324.971,152.501,324.971,153.916"/>
	<path fill="#BE1622" d="M326.244,133.855c0,1.414-1.143,2.562-2.563,2.562c-1.408,0-2.557-1.148-2.557-2.562
		c0-1.409,1.148-2.557,2.557-2.557C325.101,131.298,326.244,132.446,326.244,133.855"/>
	<path fill="#BE1622" d="M327.443,99.285c0,1.42-1.149,2.563-2.563,2.563c-1.409,0-2.558-1.143-2.558-2.563
		c0-1.415,1.148-2.558,2.558-2.558C326.294,96.727,327.443,97.87,327.443,99.285"/>
	<path fill="#BE1622" d="M328.728,90.753c0,1.414-1.149,2.557-2.563,2.557c-1.415,0-2.563-1.143-2.563-2.557
		s1.148-2.563,2.563-2.563C327.579,88.19,328.728,89.339,328.728,90.753"/>
	<path fill="#BE1622" d="M330.006,124.725c0,1.415-1.148,2.563-2.563,2.563c-1.409,0-2.563-1.148-2.563-2.563
		s1.154-2.563,2.563-2.563C328.857,122.162,330.006,123.31,330.006,124.725"/>
	<path fill="#BE1622" d="M331.284,104.24c0,1.414-1.149,2.557-2.557,2.557c-1.415,0-2.563-1.143-2.563-2.557
		c0-1.415,1.148-2.563,2.563-2.563C330.135,101.677,331.284,102.826,331.284,104.24"/>
	<path fill="#BE1622" d="M332.483,118.496c0,1.409-1.148,2.557-2.563,2.557c-1.408,0-2.557-1.148-2.557-2.557
		c0-1.419,1.148-2.568,2.557-2.568C331.335,115.927,332.483,117.076,332.483,118.496"/>
	<path fill="#BE1622" d="M333.762,115.849c0,1.409-1.148,2.557-2.557,2.557c-1.414,0-2.563-1.148-2.563-2.557
		c0-1.415,1.148-2.563,2.563-2.563C332.614,113.286,333.762,114.434,333.762,115.849"/>
	<path fill="#BE1622" d="M335.046,71.293c0,1.414-1.148,2.563-2.563,2.563s-2.563-1.148-2.563-2.563s1.148-2.563,2.563-2.563
		S335.046,69.879,335.046,71.293"/>
	<path fill="#BE1622" d="M336.325,114.395c0,1.42-1.148,2.563-2.563,2.563c-1.414,0-2.557-1.142-2.557-2.563
		c0-1.414,1.143-2.557,2.557-2.557C335.176,111.838,336.325,112.98,336.325,114.395"/>
	<path fill="#BE1622" d="M337.604,122.501c0,1.414-1.148,2.562-2.558,2.562c-1.414,0-2.563-1.148-2.563-2.562
		c0-1.415,1.148-2.557,2.563-2.557C336.455,119.944,337.604,121.087,337.604,122.501"/>
	<path fill="#BE1622" d="M338.791,123.871c0,1.414-1.148,2.563-2.557,2.563c-1.42,0-2.563-1.148-2.563-2.563
		s1.143-2.557,2.563-2.557C337.643,121.313,338.791,122.457,338.791,123.871"/>
	<path fill="#BE1622" d="M340.076,118.326c0,1.409-1.148,2.557-2.569,2.557c-1.403,0-2.557-1.148-2.557-2.557
		c0-1.42,1.154-2.568,2.557-2.568C338.927,115.758,340.076,116.906,340.076,118.326"/>
	<path fill="#BE1622" d="M341.354,103.901c0,1.409-1.149,2.557-2.563,2.557c-1.415,0-2.557-1.148-2.557-2.557
		c0-1.414,1.143-2.569,2.557-2.569C340.205,101.332,341.354,102.487,341.354,103.901"/>
	<path fill="#BE1622" d="M342.632,103.979c0,1.415-1.148,2.563-2.557,2.563c-1.415,0-2.569-1.148-2.569-2.563
		c0-1.408,1.154-2.557,2.569-2.557C341.484,101.422,342.632,102.571,342.632,103.979"/>
	<path fill="#BE1622" d="M343.917,98.175c0,1.415-1.148,2.568-2.563,2.568c-1.415,0-2.563-1.153-2.563-2.568
		c0-1.408,1.148-2.557,2.563-2.557C342.768,95.618,343.917,96.767,343.917,98.175"/>
	<path fill="#BE1622" d="M345.11,123.355c0,1.42-1.148,2.563-2.557,2.563c-1.415,0-2.563-1.143-2.563-2.563
		c0-1.414,1.148-2.557,2.563-2.557C343.962,120.798,345.11,121.941,345.11,123.355"/>
	<path fill="#BE1622" d="M346.395,108.845c0,1.414-1.148,2.563-2.563,2.563c-1.414,0-2.563-1.148-2.563-2.563
		s1.148-2.558,2.563-2.558C345.246,106.288,346.395,107.431,346.395,108.845"/>
	<path fill="#BE1622" d="M347.673,109.02c0,1.409-1.148,2.557-2.563,2.557c-1.409,0-2.557-1.148-2.557-2.557
		c0-1.414,1.148-2.563,2.557-2.563C346.525,106.458,347.673,107.606,347.673,109.02"/>
	<path fill="#BE1622" d="M348.952,99.459c0,1.415-1.143,2.557-2.557,2.557c-1.42,0-2.563-1.142-2.563-2.557
		c0-1.414,1.143-2.563,2.563-2.563C347.809,96.897,348.952,98.045,348.952,99.459"/>
	<path fill="#BE1622" d="M350.236,86.827c0,1.409-1.148,2.557-2.563,2.557c-1.414,0-2.563-1.148-2.563-2.557
		c0-1.414,1.148-2.563,2.563-2.563C349.087,84.264,350.236,85.413,350.236,86.827"/>
	<path fill="#BE1622" d="M351.429,136.248c0,1.409-1.143,2.557-2.557,2.557c-1.414,0-2.562-1.148-2.562-2.557
		c0-1.414,1.148-2.563,2.562-2.563C350.286,133.686,351.429,134.834,351.429,136.248"/>
	<path fill="#BE1622" d="M352.713,49.778c0,1.414-1.154,2.563-2.557,2.563c-1.42,0-2.569-1.148-2.569-2.563
		c0-1.409,1.148-2.557,2.569-2.557C351.56,47.221,352.713,48.37,352.713,49.778"/>
	<path fill="#BE1622" d="M353.992,99.459c0,1.415-1.143,2.557-2.563,2.557c-1.409,0-2.557-1.142-2.557-2.557
		c0-1.414,1.148-2.563,2.557-2.563C352.849,96.897,353.992,98.045,353.992,99.459"/>
	<path fill="#BE1622" d="M355.276,78.285c0,1.42-1.149,2.569-2.563,2.569s-2.557-1.148-2.557-2.569c0-1.408,1.143-2.557,2.557-2.557
		S355.276,76.876,355.276,78.285"/>
	<path fill="#BE1622" d="M356.549,68.045c0,1.414-1.143,2.563-2.557,2.563c-1.415,0-2.563-1.148-2.563-2.563
		c0-1.415,1.148-2.557,2.563-2.557C355.406,65.488,356.549,66.631,356.549,68.045"/>
	<path fill="#BE1622" d="M357.743,96.127c0,1.415-1.148,2.557-2.563,2.557s-2.563-1.143-2.563-2.557
		c0-1.414,1.148-2.557,2.563-2.557S357.743,94.713,357.743,96.127"/>
	<path fill="#BE1622" d="M359.021,120.544c0,1.415-1.148,2.557-2.563,2.557c-1.409,0-2.557-1.142-2.557-2.557
		c0-1.414,1.148-2.563,2.557-2.563C357.873,117.981,359.021,119.13,359.021,120.544"/>
	<path fill="#BE1622" d="M360.306,127.118c0,1.409-1.154,2.557-2.563,2.557c-1.414,0-2.563-1.148-2.563-2.557
		c0-1.414,1.148-2.568,2.563-2.568C359.151,124.549,360.306,125.704,360.306,127.118"/>
	<path fill="#BE1622" d="M361.583,99.544c0,1.415-1.143,2.557-2.563,2.557c-1.414,0-2.563-1.143-2.563-2.557
		s1.148-2.563,2.563-2.563C360.441,96.982,361.583,98.13,361.583,99.544"/>
	<path fill="#BE1622" d="M362.863,67.276c0,1.42-1.149,2.563-2.557,2.563c-1.415,0-2.563-1.143-2.563-2.563
		c0-1.414,1.148-2.557,2.563-2.557C361.714,64.719,362.863,65.862,362.863,67.276"/>
	<path fill="#BE1622" d="M364.062,84.094c0,1.415-1.149,2.563-2.563,2.563s-2.557-1.148-2.557-2.563
		c0-1.414,1.143-2.563,2.557-2.563S364.062,82.68,364.062,84.094"/>
	<path fill="#BE1622" d="M365.34,104.58c0,1.414-1.148,2.557-2.557,2.557c-1.414,0-2.563-1.143-2.563-2.557
		c0-1.415,1.148-2.563,2.563-2.563C364.192,102.016,365.34,103.165,365.34,104.58"/>
	<path fill="#BE1622" d="M366.619,72.231c0,1.409-1.143,2.558-2.557,2.558c-1.415,0-2.563-1.148-2.563-2.558
		c0-1.414,1.148-2.563,2.563-2.563C365.476,69.669,366.619,70.817,366.619,72.231"/>
	<path fill="#BE1622" d="M367.903,115.164c0,1.415-1.149,2.563-2.563,2.563c-1.414,0-2.557-1.148-2.557-2.563
		s1.143-2.563,2.557-2.563C366.754,112.602,367.903,113.75,367.903,115.164"/>
	<path fill="#BE1622" d="M369.181,140.774c0,1.414-1.142,2.557-2.563,2.557c-1.415,0-2.557-1.143-2.557-2.557
		c0-1.42,1.142-2.563,2.557-2.563C368.039,138.211,369.181,139.354,369.181,140.774"/>
	<path fill="#BE1622" d="M370.381,86.318c0,1.408-1.148,2.557-2.563,2.557c-1.409,0-2.557-1.148-2.557-2.557
		c0-1.42,1.148-2.569,2.557-2.569C369.232,83.75,370.381,84.898,370.381,86.318"/>
	<path fill="#BE1622" d="M371.66,136.328c0,1.42-1.143,2.568-2.557,2.568c-1.42,0-2.563-1.148-2.563-2.568
		c0-1.409,1.144-2.557,2.563-2.557C370.517,133.771,371.66,134.918,371.66,136.328"/>
	<path fill="#BE1622" d="M372.944,92.032c0,1.415-1.149,2.563-2.563,2.563c-1.408,0-2.563-1.148-2.563-2.563
		c0-1.414,1.154-2.557,2.563-2.557C371.795,89.475,372.944,90.618,372.944,92.032"/>
	<path fill="#BE1622" d="M374.222,115.849c0,1.409-1.148,2.557-2.563,2.557c-1.409,0-2.557-1.148-2.557-2.557
		c0-1.415,1.148-2.563,2.557-2.563C373.074,113.286,374.222,114.434,374.222,115.849"/>
	<path fill="#BE1622" d="M375.501,151.953c0,1.415-1.143,2.557-2.557,2.557c-1.42,0-2.563-1.142-2.563-2.557
		s1.143-2.563,2.563-2.563C374.358,149.39,375.501,150.538,375.501,151.953"/>
	<path fill="#BE1622" d="M376.694,136.248c0,1.409-1.148,2.557-2.563,2.557c-1.415,0-2.557-1.148-2.557-2.557
		c0-1.414,1.142-2.563,2.557-2.563C375.546,133.686,376.694,134.834,376.694,136.248"/>
	<path fill="#BE1622" d="M377.967,128.735c0,1.415-1.142,2.563-2.557,2.563c-1.414,0-2.563-1.148-2.563-2.563
		s1.148-2.563,2.563-2.563C376.825,126.173,377.967,127.321,377.967,128.735"/>
	<path fill="#BE1622" d="M379.251,158.526c0,1.414-1.148,2.563-2.557,2.563c-1.42,0-2.563-1.148-2.563-2.563
		c0-1.415,1.142-2.563,2.563-2.563C378.103,155.963,379.251,157.112,379.251,158.526"/>
	<path fill="#BE1622" d="M380.535,166.376c0,1.414-1.148,2.557-2.568,2.557c-1.408,0-2.557-1.143-2.557-2.557
		c0-1.412,1.148-2.561,2.557-2.561C379.387,163.815,380.535,164.964,380.535,166.376"/>
	<path fill="#BE1622" d="M381.808,141.368c0,1.414-1.143,2.563-2.557,2.563s-2.557-1.148-2.557-2.563
		c0-1.415,1.143-2.563,2.557-2.563S381.808,139.954,381.808,141.368"/>
</g>
<polyline fill="none" stroke="#662483" stroke-width="3.0728" stroke-linejoin="round" stroke-miterlimit="10" points="
	45.857,89.814 47.051,88.106 48.335,86.657 49.608,85.634 50.892,84.864 52.086,84.519 53.37,84.604 54.649,85.034 55.927,85.888 
	57.206,87.167 58.399,88.791 59.683,90.923 60.962,93.486 62.246,96.467 63.524,99.884 64.718,103.731 65.996,108.081 
	67.281,112.692 68.559,117.727 69.838,122.846 71.037,128.136 72.316,133.34 73.594,138.211 74.878,142.731 76.157,146.657 
	77.356,149.735 78.635,151.953 79.914,153.146 81.191,153.231 82.476,152.207 83.67,150.074 84.948,146.918 86.227,142.731 
	87.511,137.612 88.789,131.807 89.983,125.233 91.268,118.156 92.54,110.638 93.824,102.871 95.108,95.109 96.302,87.597 
	97.581,80.423 98.859,74.025 100.143,68.476 101.422,64.205 102.616,61.302 103.899,59.854 105.178,60.108 106.457,61.902 
	107.651,65.143 108.935,69.839 110.213,75.644 111.492,82.301 112.776,89.554 113.969,97.072 115.249,104.58 116.526,111.838 
	117.81,118.575 119.089,124.809 120.289,130.274 121.562,134.885 122.845,138.636 124.13,141.623 125.408,143.676 126.607,144.87 
	127.88,145.209 129.165,144.87 130.443,143.761 131.721,142.131 132.921,140.089 134.2,137.696 135.478,135.14 136.762,132.577 
	138.041,130.274 139.234,128.221 140.513,126.603 141.791,125.573 143.075,125.063 144.36,125.149 145.548,125.664 146.832,126.603 
	148.11,127.796 149.395,128.99 150.673,130.104 151.867,130.868 153.151,131.123 154.43,130.784 155.708,129.675 156.986,127.881 
	158.186,125.318 159.465,122.077 160.749,118.236 162.021,113.971 163.221,109.359 164.499,104.665 165.783,99.884 167.067,95.358 
	168.346,91.093 169.528,87.167 170.813,83.84 172.091,81.102 173.375,79.054 174.648,77.776 175.853,77.357 177.132,77.866 
	178.416,79.229 179.694,81.447 180.973,84.689 182.172,88.621 183.451,93.31 184.729,98.515 186.014,104.149 187.298,109.875 
	188.48,115.509 189.764,120.883 191.042,125.833 192.321,130.104 193.605,133.686 194.799,136.417 196.083,138.381 197.362,139.49 
	198.64,139.745 199.925,139.405 201.124,138.296 202.402,136.672 203.681,134.625 204.959,132.152 206.238,129.42 207.432,126.518 
	208.716,123.446 209.988,120.459 211.272,117.466 212.551,114.655 213.751,112.092 215.029,109.875 216.313,107.996 
	217.586,106.542 218.791,105.603 220.069,105.088 221.348,105.004 222.632,105.264 223.911,105.858 225.099,106.542 
	226.377,107.396 227.656,108.166 228.94,108.935 230.219,109.445 231.418,109.784 232.696,109.954 233.98,109.784 235.259,109.359 
	236.538,108.76 237.737,107.905 239.016,106.967 240.3,105.858 241.579,104.749 242.863,103.64 244.051,102.532 245.329,101.592 
	246.607,100.823 247.886,100.314 249.17,100.053 250.364,100.144 251.654,100.653 252.927,101.592 254.205,102.961 255.489,104.834 
	256.688,107.137 257.967,109.875 259.251,113.031 260.524,116.357 261.809,119.86 262.997,123.355 264.281,126.688 265.553,129.76 
	266.837,132.407 268.116,134.455 269.316,135.988 270.594,136.757 271.878,136.842 273.157,136.248 274.356,135.054 275.634,133.17 
	276.918,130.784 278.197,127.881 279.476,124.639 280.669,121.053 281.942,117.297 283.227,113.456 284.511,109.529 
	285.784,105.688 286.988,102.102 288.267,98.86 289.545,96.042 290.824,93.91 292.108,92.371 293.302,91.607 294.586,91.523 
	295.865,92.292 297.143,93.74 298.427,95.788 299.615,98.345 300.893,101.253 302.172,104.495 303.456,107.651 304.735,110.808 
	305.935,113.794 307.219,116.527 308.492,118.835 309.776,120.798 311.054,122.332 312.253,123.446 313.532,124.13 314.816,124.47 
	316.089,124.47 317.379,124.13 318.562,123.531 319.846,122.761 321.124,121.823 322.402,120.713 323.681,119.514 324.88,118.326 
	326.165,117.127 327.443,116.019 328.728,114.994 329.92,114.14 331.205,113.371 332.483,112.692 333.762,112.262 335.046,111.838 
	336.234,111.492 337.507,111.153 338.791,110.808 340.076,110.299 341.354,109.614 342.553,108.76 343.832,107.651 345.11,106.288 
	346.395,104.749 347.673,103.046 348.872,101.253 350.157,99.375 351.429,97.751 352.713,96.212 353.992,95.109 355.18,94.51 
	356.458,94.34 357.743,94.849 359.021,95.958 360.306,97.751 361.499,100.053 362.783,102.961 364.062,106.288 365.34,109.954 
	366.619,113.88 367.818,117.981 369.103,121.992 370.381,126.003 371.66,129.76 372.944,133.261 374.132,136.328 375.41,138.805 
	376.694,140.774 377.967,141.883 379.251,142.301 379.348,142.222 "/>
<polyline fill="none" stroke="#A3195B" stroke-width="2.1724" stroke-linejoin="round" stroke-miterlimit="10" points="
	45.857,89.814 47.051,88.445 48.335,87.506 49.608,86.906 50.892,86.736 52.086,86.827 53.37,87.252 54.649,88.021 55.927,89.129 
	57.206,90.493 58.399,92.201 59.683,94.255 60.962,96.643 62.246,99.375 63.524,102.532 64.718,106.033 65.996,109.954 
	67.281,114.225 68.559,118.835 69.838,123.616 71.037,128.65 72.316,133.601 73.594,138.557 74.878,143.246 76.157,147.517 
	77.356,151.183 78.635,154.17 79.914,156.133 81.191,157.157 82.476,156.902 83.67,155.454 84.948,152.722 86.227,148.62 
	87.511,143.331 88.789,136.842 89.983,129.335 91.268,121.144 92.54,112.262 93.824,103.216 95.108,94.08 96.302,85.289 
	97.581,77.097 98.859,69.839 100.143,63.689 101.422,59 102.616,55.752 103.899,54.219 105.178,54.389 106.457,56.357 
	107.651,59.854 108.935,64.889 110.213,71.208 111.492,78.545 112.776,86.657 113.969,95.279 115.249,103.979 116.526,112.602 
	117.81,120.713 119.089,128.136 120.289,134.625 121.562,139.999 122.845,144.1 124.13,146.918 125.408,148.451 126.607,148.796 
	127.88,148.026 129.165,146.402 130.443,144.016 131.721,141.029 132.921,137.872 134.2,134.625 135.478,131.638 136.762,128.905 
	138.041,126.772 139.234,125.233 140.513,124.379 141.791,124.209 143.075,124.639 144.36,125.749 145.548,127.197 146.832,128.905 
	148.11,130.614 149.395,132.237 150.673,133.431 151.867,134.11 153.151,134.025 154.43,133.17 155.708,131.208 156.986,128.306 
	158.186,124.47 159.465,119.599 160.749,113.88 162.021,107.481 163.221,100.568 164.499,93.396 165.783,86.228 167.067,79.399 
	168.346,72.995 169.528,67.367 170.813,62.755 172.091,59.338 173.375,57.206 174.648,56.527 175.853,57.297 177.132,59.599 
	178.416,63.271 179.694,68.221 180.973,74.279 182.172,81.277 183.451,88.96 184.729,97.157 186.014,105.519 187.298,113.794 
	188.48,121.823 189.764,129.244 191.042,135.988 192.321,141.883 193.605,146.657 194.799,150.414 196.083,152.976 197.362,154.34 
	198.64,154.685 199.925,153.916 201.124,152.207 202.402,149.735 203.681,146.572 204.959,142.901 206.238,138.975 207.432,134.794 
	208.716,130.614 209.988,126.518 211.272,122.677 212.551,119.09 213.751,116.019 215.029,113.371 216.313,111.153 217.586,109.445 
	218.791,108.166 220.069,107.396 221.348,106.887 222.632,106.717 223.911,106.797 225.099,107.057 226.377,107.312 
	227.656,107.651 228.94,107.821 230.219,107.905 231.418,107.821 232.696,107.481 233.98,106.887 235.259,106.119 236.538,105.088 
	237.737,103.901 239.016,102.616 240.3,101.163 241.579,99.714 242.863,98.266 244.051,96.982 245.329,95.873 246.607,95.109 
	247.886,94.595 249.17,94.595 250.364,94.934 251.654,95.873 252.927,97.242 254.205,99.2 255.489,101.592 256.688,104.495 
	257.967,107.651 259.251,111.238 260.524,114.994 261.809,118.835 262.997,122.761 264.281,126.433 265.553,129.935 
	266.837,133.001 268.116,135.564 269.316,137.527 270.594,138.805 271.878,139.405 273.157,139.235 274.356,138.211 
	275.634,136.503 276.918,134.025 278.197,130.953 279.476,127.288 280.669,123.271 281.942,118.915 283.227,114.485 
	284.511,110.044 285.784,105.773 286.988,101.762 288.267,98.266 289.545,95.358 290.824,93.056 292.108,91.523 293.302,90.669 
	294.586,90.669 295.865,91.438 297.143,92.88 298.427,94.934 299.615,97.497 300.893,100.484 302.172,103.731 303.456,107.137 
	304.735,110.554 305.935,113.88 307.219,116.957 308.492,119.599 309.776,121.902 311.054,123.701 312.253,124.979 313.532,125.749 
	314.816,126.003 316.089,125.749 317.379,125.063 318.562,124.041 319.846,122.846 321.124,121.392 322.402,119.944 
	323.681,118.496 324.88,117.042 326.165,115.758 327.443,114.739 328.728,113.88 329.92,113.201 331.205,112.771 332.483,112.517 
	333.762,112.432 335.046,112.347 336.234,112.347 337.507,112.177 338.791,111.922 340.076,111.577 341.354,110.898 
	342.553,110.044 343.832,108.845 345.11,107.481 346.395,105.858 347.673,104.07 348.872,102.186 350.157,100.314 351.429,98.515 
	352.713,96.982 353.992,95.698 355.18,94.849 356.458,94.595 357.743,94.849 359.021,95.788 360.306,97.327 361.499,99.629 
	362.783,102.532 364.062,106.119 365.34,110.124 366.619,114.569 367.818,119.344 369.103,124.13 370.381,128.905 371.66,133.431 
	372.944,137.527 374.132,141.113 375.41,144.016 376.694,146.148 377.967,147.257 379.251,147.427 379.348,147.427 "/>
</svg>
