<?xml version="1.0" encoding="UTF-8" standalone="no"?>
<!-- Created with Inkscape (http://www.inkscape.org/) -->

<svg
   xmlns:dc="http://purl.org/dc/elements/1.1/"
   xmlns:cc="http://creativecommons.org/ns#"
   xmlns:rdf="http://www.w3.org/1999/02/22-rdf-syntax-ns#"
   xmlns:svg="http://www.w3.org/2000/svg"
   xmlns="http://www.w3.org/2000/svg"
   xmlns:sodipodi="http://sodipodi.sourceforge.net/DTD/sodipodi-0.dtd"
   xmlns:inkscape="http://www.inkscape.org/namespaces/inkscape"
   width="403.23349"
   height="386.93704"
   id="svg2"
   version="1.1"
   inkscape:version="0.91 r13725"
   sodipodi:docname="integral-3.svg"
   inkscape:export-filename="/home/adderou/Logos/Radio/radiofinal.png"
   inkscape:export-xdpi="94"
   inkscape:export-ydpi="94">
  <defs
     id="defs4" />
  <sodipodi:namedview
     id="base"
     pagecolor="#ffffff"
     bordercolor="#666666"
     borderopacity="1.0"
     inkscape:pageopacity="0.0"
     inkscape:pageshadow="2"
     inkscape:zoom="1"
     inkscape:cx="24.19745"
     inkscape:cy="165.00785"
     inkscape:document-units="px"
     inkscape:current-layer="layer1"
     showgrid="false"
     showguides="true"
     inkscape:guide-bbox="true"
     inkscape:window-width="1366"
     inkscape:window-height="719"
     inkscape:window-x="0"
     inkscape:window-y="0"
     inkscape:window-maximized="1"
     fit-margin-top="0"
     fit-margin-left="0"
     fit-margin-right="0"
     fit-margin-bottom="0" />
  <metadata
     id="metadata7">
    <rdf:RDF>
      <cc:Work
         rdf:about="">
        <dc:format>image/svg+xml</dc:format>
        <dc:type
           rdf:resource="http://purl.org/dc/dcmitype/StillImage" />
        <dc:title />
      </cc:Work>
    </rdf:RDF>
  </metadata>
  <g
     inkscape:label="Capa 1"
     inkscape:groupmode="layer"
     id="layer1"
     transform="translate(-19.000005,-359.86299)">
    <flowRoot
       xml:space="preserve"
       id="flowRoot3442"
       style="font-style:normal;font-variant:normal;font-weight:500;font-stretch:normal;font-size:40px;line-height:125%;font-family:Mywriting;-inkscape-font-specification:'Mywriting Medium';letter-spacing:0px;word-spacing:0px;fill:#000000;fill-opacity:1;stroke:none"><flowRegion
         id="flowRegion3444"><rect
           id="rect3446"
           width="654.07373"
           height="149.90663"
           x="-142.12846"
           y="19.241526" /></flowRegion><flowPara
         id="flowPara3448" /></flowRoot>    <g
       id="g4222"
       transform="matrix(1.3494827,0,0,1.3494827,-80.375008,-252.45323)">
      <path
         inkscape:connector-curvature="0"
         id="path4243-1"
         d="m 175.582,464.85988 c -14.65768,1.18543 -30.54471,4.20881 -41.64298,14.32259 -3.95684,7.87243 2.17971,17.15153 9.32343,20.52154 1.62851,0.91971 4.92049,-0.55342 3.62439,2.29961 -0.18822,6.08643 4.78422,11.76521 9.74835,13.79768 -3.62351,7.54321 6.02825,17.15748 13.37275,12.49789 1.93559,-1.04398 4.33697,-3.06863 1.67472,-0.29994 -5.82587,6.99971 -3.677,16.83504 -5.68521,25.14703 -5.81441,45.21804 -11.75872,90.41924 -17.66086,135.62589 -12.72131,1.68454 -20.21246,19.90035 -10.37325,29.24508 8.65019,9.57901 27.42421,4.43544 29.22008,-8.57356 1.06548,-3.56985 1.23902,-8.18558 2.07465,-11.2481 3.66334,3.63909 10.2103,2.37245 13.02281,-0.82487 2.92407,4.36926 9.49459,4.19763 13.37274,1.62473 3.57566,2.83268 8.87771,2.09579 12.39792,-0.42493 5.00927,4.67084 13.09384,3.04887 17.822,-0.69988 6.66251,3.6672 15.65839,3.2934 21.54637,-1.29978 1.74533,0.55846 3.70541,0.31752 2.35084,2.94004 -0.56597,1.83093 -0.0162,6.46009 -1.60097,6.73333 -6.06883,-3.86864 -14.21243,1.13559 -14.94748,7.89867 -2.32936,9.37059 5.05931,20.81641 15.39741,19.5717 10.07031,-0.49842 16.72709,-9.89515 18.35868,-19.09324 1.4468,-5.17118 1.55255,-11.048 3.36266,-15.90086 3.39423,-0.12124 6.40751,-2.33841 8.17362,-5.14914 4.44556,5.56325 12.71049,5.18143 18.57187,2.82453 3.58976,1.5716 7.55148,0.56714 10.77319,2.74954 7.23593,2.2797 14.95986,-4.87022 13.37275,-12.24794 0.54038,-13.84066 5.54522,-27.04696 7.29877,-40.64316 -0.75099,-6.46896 -9.69319,-10.17429 -14.2726,-5.12413 -6.99908,6.14282 -7.62958,16.22637 -9.97332,24.67084 0.57968,3.75674 -1.3707,1.44276 -3.27445,0.5999 -4.4894,-2.28433 -9.86703,-1.41251 -14.37258,-0.67489 -3.69771,-2.59411 -8.54277,-1.16035 -12.69786,-1.84969 -2.39179,0.30275 -4.12562,3.59622 -5.99899,0.74988 -3.63985,-2.60145 -8.03193,-0.61435 -12.02297,-1.44976 -3.41125,-0.1211 -6.85389,1.8717 -9.67337,2.69955 -2.97578,-3.75279 -8.60352,-4.06423 -12.59788,-3.97433 -0.38431,-3.27588 -4.58793,-4.06775 -4.89918,-6.94883 4.01037,0.4014 7.71073,-1.85767 11.69803,-1.67472 2.07385,-0.53143 3.71512,-2.60627 5.57406,-0.49992 3.48608,1.49915 7.87818,0.44118 10.29827,-2.47458 7.64274,8.08817 23.01872,3.92523 26.02062,-6.67388 4.16597,-8.2877 3.51065,-21.05535 -5.974,-25.27074 -3.16786,-1.92085 -7.72032,-0.54282 -10.49823,-0.67489 -0.43301,-5.83262 -6.82266,-10.41631 -12.4729,-8.82351 0.89148,-5.88238 -0.23929,-13.83682 -7.02382,-15.4724 -7.23207,-2.14908 -13.41462,5.31273 -13.05733,12.14588 -0.79269,4.38965 -1.11868,9.13013 -1.96514,13.29984 -3.93547,0.62905 -7.53641,2.70438 -10.22327,5.64905 -3.64993,-3.67213 -9.25349,-4.61735 -14.12263,-4.19929 -0.11042,-2.18135 -2.29353,-4.63284 -3.04948,-5.62406 3.41837,0.68973 6.67035,-0.8857 9.64837,-1.82469 6.55083,4.27606 16.6694,-0.81522 16.32225,-8.8985 0.32756,-3.36763 -3.00471,-5.13015 -4.09931,-7.67371 0.96001,-9.5387 -10.13599,-17.26987 -19.02179,-14.44757 1.75348,-7.07664 6.69396,-15.20913 2.14964,-22.19626 -2.59652,-4.49893 -9.04531,-6.18025 -12.92283,-2.3496 -6.64986,6.1579 -7.00659,15.92947 -9.82334,24.04595 -2.36549,9.05006 -6.06487,19.00294 -2.84952,28.27024 0.13804,1.53734 3.41411,2.97913 2.59956,3.77436 -4.19898,2.92249 -6.45814,7.86536 -7.97366,12.67287 2.92594,-23.56004 5.74277,-47.07632 9.14846,-70.58812 6.42405,-0.89154 11.67239,-5.87853 14.04763,-11.74802 3.23671,5.50973 11.78671,4.89985 15.62237,0.34994 4.23659,7.77425 17.13785,6.53869 20.39657,-1.47475 5.85817,4.62425 14.81138,3.16753 20.64652,-0.67488 4.45038,-3.69067 2.78533,-9.91252 0.89344,-14.43109 -7.39078,-24.63618 -25.25189,-46.69286 -49.48526,-56.13203 -10.61055,-4.453 -22.11072,-6.73982 -33.66933,-6.47391 z m 17.19711,181.49444 c 3.0527,6.1716 11.42231,9.21828 17.57204,5.82401 -2.12751,3.40648 -2.02619,8.39414 -3.34944,11.49807 -4.06518,-2.90143 -10.2702,-1.42287 -13.99764,-0.94984 1.91275,-4.4302 0.14847,-10.07915 -3.84935,-12.64787 1.47653,-0.90749 2.77699,-2.54792 3.62439,-3.72437 z M 175.582,647.6041 c 0.64188,1.30917 2.88237,2.24571 0.54991,3.07449 -3.06436,4.39584 -0.36524,-3.29537 -0.54991,-3.07449 z m -2.07465,15.4724 c 1.29986,2.49631 -1.69325,1.60435 0,0 z"
         style="fill:#ffffff;fill-opacity:1;stroke:none" />
      <g
         transform="matrix(0.79986531,0,0,0.79986531,58.551711,149.86292)"
         id="g5703">
        <g
           id="g4838">
          <path
             style="fill:#2b1e41;fill-opacity:1;stroke:none"
             d="m 155.27664,472.25342 a 12.729268,14.266599 46.632292 0 0 -11.17845,14.56082 l -25.38158,194.5232 a 12.729268,14.266599 46.632292 0 0 -6.32167,0.3229 12.729268,14.266599 46.632292 0 0 -10.98531,16.75953 12.729268,14.266599 46.632292 0 0 15.72449,9.0734 12.729268,14.266599 46.632292 0 0 11.11356,-13.10051 l 24.6075,-196.17394 a 12.729268,14.266599 46.632292 0 0 7.16063,-0.13247 12.729268,14.266599 46.632292 0 0 10.9853,-16.75959 12.729268,14.266599 46.632292 0 0 -15.72447,-9.07336 z"
             id="path4243"
             inkscape:connector-curvature="0" />
          <g
             id="g4833">
            <path
               style="fill:#ff5300;fill-opacity:1;stroke:none"
               d="m 139.91313,401.66419 c -14.16442,1.33212 -38.96063,10.27218 -39.923915,14.58503 -0.655589,4.10865 5.992125,14.36872 10.135955,13.23221 5.79494,-2.91058 6.26161,-4.0222 9.56782,-5.59803 30.52098,-14.54712 70.07358,-4.54209 92.8201,25.10286 4.85225,7.404 9.15022,14.77114 11.84847,22.32922 3.70423,10.37599 1.40425,10.6815 3.4158,12.9839 3.35793,3.46031 13.77137,0.49728 16.41984,-1.10173 1.7603,-1.50684 -8.84554,-30.23057 -18.67243,-43.03773 -21.25617,-27.70261 -54.44994,-41.42664 -85.61169,-38.49601 z"
               id="path3674-2"
               inkscape:connector-curvature="0"
               sodipodi:nodetypes="cccscsccssc" />
            <path
               style="fill:#ff5300;fill-opacity:1;stroke:none"
               d="m 204.24973,459.66707 c 5.78953,8.41551 12.73939,26.17915 11.09784,28.68841 -1.68278,2.24606 -9.64701,3.29005 -10.98076,0.48544 -1.22833,-4.52816 -0.9044,-5.29525 -1.64604,-7.83984 -6.84652,-23.49014 -29.62893,-40.69328 -54.24722,-39.62673 -5.77222,0.72305 -11.27499,1.7346 -16.14341,3.71518 -6.68353,2.71896 -5.78644,4.12639 -7.80965,4.07428 -3.19272,-0.26277 -6.49289,-7.35972 -6.92478,-9.55247 -0.073,-1.66117 18.58855,-8.9945 29.2241,-9.45526 23.0053,-0.99669 44.69301,10.99677 57.42999,29.51088 z"
               id="path3674-2-6"
               inkscape:connector-curvature="0"
               sodipodi:nodetypes="cccscsccssc" />
            <path
               style="fill:#ff5300;fill-opacity:1;stroke:none"
               d="m 145.82313,453.64587 c -6.01045,0.8165 -16.41521,5.11399 -16.74911,7.00213 -0.20647,1.79434 2.80732,6.13574 4.55243,5.57275 2.41706,-1.36082 2.59613,-1.8512 3.97668,-2.59073 12.74414,-6.8275 29.7709,-3.15042 39.98636,9.33386 2.19831,3.13198 4.1598,6.25727 5.44322,9.49237 1.76192,4.44124 0.78757,4.61252 1.68527,5.57803 1.49182,1.44538 5.87544,-0.0158 6.97535,-0.7544 0.7232,-0.68362 -4.30401,-12.97235 -8.71729,-18.36579 -9.54614,-11.66632 -23.92995,-17.06455 -37.15295,-15.26829 z"
               id="path3674-2-6-3"
               inkscape:connector-curvature="0"
               sodipodi:nodetypes="cccscsccssc" />
          </g>
        </g>
        <path
           style="fill:#1f8683;fill-opacity:1;stroke:none"
           d="m 169.36902,570.80152 c -4.06587,7.07107 -9.19239,-1.41421 -7.07107,-10.96016 2.12132,-9.54594 10.96016,-51.61879 16.97056,-45.25483 6.01041,6.36396 1.76777,4.94975 -2.82842,26.51651 -4.5962,21.56675 -4.24264,23.68807 -7.07107,29.69848 z"
           id="path4531"
           inkscape:connector-curvature="0"
           sodipodi:nodetypes="csssc" />
        <path
           inkscape:connector-curvature="0"
           style="fill:#1f8683;fill-opacity:1;stroke:none"
           d="m 189.32645,547.16155 c -0.97883,0.0401 -2.03845,0.17613 -3.1875,0.375 -18.38477,3.18198 -10.61124,21.73106 -8.84375,23.3125 1.67938,1.5026 7.79597,4.24876 16.28125,-2.46875 0,0 6.72611,6.72119 10.96875,2.125 4.24264,-4.5962 -4.25,-7.78125 -4.25,-7.78125 0,0 3.71373,-16.16456 -10.96875,-15.5625 z m 0.34375,6.40625 c 0.43505,0.018 0.79481,0.32917 1.0625,1.03125 0.80882,2.12132 -0.0441,4.58803 -0.875,5.9375 -1.8584,3.01828 -3.17065,4.74097 -6.70618,3.32675 -0.39775,-6.14299 4.16944,-10.39263 6.51868,-10.2955 z"
           id="path4533-9"
           sodipodi:nodetypes="csscscccsscc" />
        <path
           inkscape:connector-curvature="0"
           style="fill:#1f8683;fill-opacity:1;stroke:none"
           d="m 188.3663,595.63129 c -0.97883,0.0401 -2.03845,0.17613 -3.1875,0.375 -18.38478,3.18198 -10.96507,22.25184 -8.84375,23.3125 2.12132,1.06066 7.79597,4.24876 16.28125,-2.46875 0,0 6.72611,6.72119 10.96875,2.125 4.24264,-4.5962 -4.25,-7.78125 -4.25,-7.78125 0,0 3.71373,-16.16456 -10.96875,-15.5625 z m 0.34375,6.40625 c 0.43505,0.018 0.79481,0.32917 1.0625,1.03125 0.80882,2.12132 -0.0441,4.58803 -0.875,5.9375 -1.85841,3.01828 -1.93322,3.94547 -5.46875,2.53125 -1.19324,-1.19324 2.932,-9.59713 5.28125,-9.5 z"
           id="path4533" />
        <path
           inkscape:connector-curvature="0"
           style="fill:#008080;stroke:none"
           d="m 230.40625,561.58174 c -1.70217,0.18558 -2.74556,1.55139 -3.1875,2.65625 -0.70711,1.76776 -4.14553,23.24587 -3.96875,29.875 -0.26517,-0.0884 -16.16973,-3.9027 -17.9375,13.15625 -0.52552,8.70026 2.16539,14.83908 7.3125,15.8125 6.62912,0 9.375,-3.78125 9.375,-3.78125 0,0 3.34884,2.83842 5.21875,0.875 1.76777,-1.85616 3.28125,-14.59375 3.28125,-14.59375 0,0 7.75336,-40.04121 3.6875,-42.78125 -1.5247,-1.02751 -2.75995,-1.3301 -3.78125,-1.21875 z m -10.875,39.875 c 0.37979,0.008 0.625,0.0625 0.625,0.0625 0,0 1.58471,1.67526 -0.625,6.625 -2.20971,4.94975 -6.375,4.96875 -6.375,4.96875 0,0 -1.75076,-0.011 0.8125,-6.375 1.92245,-4.77297 4.42312,-5.30611 5.5625,-5.28125 z"
           id="path4619" />
        <path
           inkscape:connector-curvature="0"
           style="fill:#008080;stroke:none"
           d="m 246.32238,581.0989 c -2.47487,0.0884 -4.21875,1.51441 -4.21875,3.8125 0.26517,2.47488 1.84207,4.31786 3.875,4.40625 2.03293,0.0884 4.59911,-0.87424 4.6875,-3.4375 0.0884,-2.56327 -1.86888,-4.86964 -4.34375,-4.78125 z m -2.84375,13.1875 c -2.98646,0.26924 -6.32793,7.90294 -6.96875,12.46875 -2.20971,7.86656 -1.94178,14.14645 1.59375,14.5 3.53553,0.35356 5.41345,-8.13864 6.5625,-13 1.14905,-4.86136 2.90073,-12.27865 -0.28125,-13.78125 -0.29831,-0.14087 -0.59731,-0.21535 -0.90625,-0.1875 z"
           id="path4624" />
        <path
           inkscape:connector-curvature="0"
           style="fill:#008080;stroke:none"
           d="m 264.19738,591.9114 c -8.90195,0.23463 -12.47,9.16123 -12.8125,10.53125 -2.03293,5.39169 -3.73252,17.87331 6.34375,19.90625 10.07627,2.03293 14.40809,-8.3243 15.46875,-12.125 1.06066,-3.8007 3.87263,-17.83689 -8.125,-18.28125 -0.29831,-0.0111 -0.58784,-0.0388 -0.875,-0.0312 z m 0.71875,8.3125 c 0.11256,0.002 0.15625,0 0.15625,0 0,0 3.44178,3.47259 -0.0937,8.6875 -3.53553,5.21491 -4.66973,4.21691 -6.4375,3.15625 -1.76777,-1.06066 -0.53125,-4.84375 -0.53125,-4.84375 2.78423,-6.65123 6.11835,-7.0145 6.90625,-7 z"
           id="path4628" />
        <path
           style="fill:#008080;stroke:#008080;stroke-width:1px;stroke-linecap:butt;stroke-linejoin:miter;stroke-opacity:1"
           d="m 162.0711,608.2447 c -1.41422,5.12652 -0.88389,10.87176 -6.27558,10.69499 -5.39169,-0.17678 -4.59619,-6.01041 -4.06586,-6.98268 0.53033,-0.97227 6.98268,-25.89779 11.66726,-26.33973 3.93538,-0.37126 2.91682,3.44715 2.91682,3.44715 0,0 6.5078,-5.3033 9.68978,-2.2981 3.18198,3.0052 -0.58578,6.8059 -2.97227,6.01041 -2.38648,-0.7955 -8.66206,5.39169 -10.96015,15.46796 z"
           id="path4570-0"
           inkscape:connector-curvature="0"
           sodipodi:nodetypes="cssscssc" />
        <path
           style="fill:#008080;stroke:#008080;stroke-width:0.80989075px;stroke-linecap:butt;stroke-linejoin:miter;stroke-opacity:1"
           d="m 268.88653,668.7507 c -1.12435,4.22955 -0.70272,8.96957 -4.98925,8.82373 -4.28653,-0.14585 -3.65409,-4.95879 -3.23246,-5.76095 0.42162,-0.80215 5.5514,-21.36655 9.27576,-21.73116 3.12873,-0.30631 2.31895,2.84401 2.31895,2.84401 0,0 5.17387,-4.3754 7.70363,-1.89601 2.52976,2.47939 -0.46571,5.6151 -2.36303,4.95879 -1.89732,-0.65631 -6.88657,4.44833 -8.7136,12.76159 z"
           id="path4570"
           inkscape:connector-curvature="0"
           sodipodi:nodetypes="cssscssc" />
        <path
           inkscape:connector-curvature="0"
           style="fill:#008080;stroke:none"
           d="m 155.20509,630.6229 c -3.04122,0.10862 -5.18417,1.86096 -5.18417,4.68495 0.32585,3.04123 2.26361,5.30596 4.76175,5.41458 2.49815,0.10863 5.65158,-1.0743 5.7602,-4.22414 0.10862,-3.14985 -2.29655,-5.98401 -5.33778,-5.87539 z m -3.49452,16.20533 c -3.66987,0.33085 -7.77601,9.71145 -8.56348,15.3221 -2.71538,9.66675 -2.38614,17.38373 1.95847,17.81819 4.34461,0.43447 6.65226,-10.00109 8.06426,-15.97493 1.412,-5.97383 3.56454,-15.0885 -0.34561,-16.93495 -0.36658,-0.17311 -0.73399,-0.26463 -1.11364,-0.23041 z"
           id="path4624-7" />
        <path
           inkscape:connector-curvature="0"
           style="fill:#1f8683;fill-opacity:1;stroke:none"
           d="m 293.49297,651.4598 c -0.97883,0.0401 -2.03845,0.17613 -3.1875,0.375 -18.38477,3.18198 -10.96507,22.25184 -8.84375,23.3125 2.12132,1.06066 7.79597,4.24876 16.28125,-2.46875 0,0 6.72611,6.72119 10.96875,2.125 4.24264,-4.5962 -4.25,-7.78125 -4.25,-7.78125 0,0 3.71373,-16.16456 -10.96875,-15.5625 z m 0.34375,6.40625 c 0.43505,0.018 0.79481,0.32917 1.0625,1.03125 0.80882,2.12132 -0.0441,4.58803 -0.875,5.9375 -1.8584,3.01828 -1.93321,3.94547 -5.46875,2.53125 -1.19324,-1.19324 2.93201,-9.59713 5.28125,-9.5 z"
           id="path4533-98" />
        <path
           style="fill:#008080;stroke:none"
           d="m 159.82436,672.69118 c -0.35356,2.82843 -0.53033,7.77818 3.18198,7.6014 3.71231,-0.17678 4.06586,-1.23744 5.3033,-7.24784 1.23744,-6.01041 3.18198,-15.90991 7.24784,-15.90991 4.06586,0 1.76777,11.84404 0.70711,14.14214 -1.06066,2.2981 -2.2981,9.36916 1.06066,9.01561 3.35875,-0.35355 4.59619,0.35355 7.77817,-10.42982 3.18198,-10.78338 -0.81507,-18.21376 -2.82843,-20.15255 -4.77297,-4.59619 -11.84403,-0.53033 -11.84403,-0.53033 0,0 -5.83363,-0.88388 -7.24785,3.71231 -1.41421,4.5962 -3.18198,15.02602 -3.35875,19.79899 z"
           id="path4733"
           inkscape:connector-curvature="0"
           sodipodi:nodetypes="ccccccccccc" />
        <path
           style="fill:#008080;stroke:none"
           d="m 195.33437,633.91079 c 0,0 -6.89429,27.93072 -6.01041,39.06765 0.88389,11.13693 9.01562,7.95495 12.02082,6.71752 3.0052,-1.23744 4.77297,-4.94975 1.41421,-7.42463 -3.35876,-2.47487 -6.54074,4.24265 -5.48008,-8.13172 1.06066,-12.37437 2.5962,-15.55635 2.5962,-15.55635 4.19262,1.39756 10.66206,-0.88389 11.01561,-3.88909 0.35355,-3.0052 -0.88388,-6.36396 -9.01561,-5.48008 0.35355,0 5.3033,-9.72272 0,-10.6066 -5.3033,-0.88388 -5.65686,3.35876 -6.54074,5.3033 z"
           id="path4735"
           inkscape:connector-curvature="0"
           sodipodi:nodetypes="csssssscsc" />
        <path
           inkscape:connector-curvature="0"
           style="fill:#008080;stroke:none"
           d="m 223.25,647.73799 c -3.40295,-0.0442 -7.15365,1.72059 -8.65625,2.78125 -3.0052,2.12132 -7.93658,7.44609 -7.40625,18.40625 0.53033,10.96015 11.85019,10.41697 15.5625,10.59375 3.71231,0.17678 9.16513,-1.93321 8.28125,-5.46875 -0.88388,-3.53553 -3.17157,-2.85264 -6,-1.96875 -2.82843,0.88388 -9.36428,-0.16269 -9.1875,-3.875 0,0 14.14553,-6.3e-4 13.96875,-12.375 -0.0884,-6.18718 -3.15955,-8.04956 -6.5625,-8.09375 z m -1.75,8.875 c 0.81138,0.0663 1.47379,0.49334 1.75,1.15625 0.88388,2.12132 -6.34375,4.78125 -6.34375,4.78125 0.3646,-4.49676 2.80872,-6.08325 4.59375,-5.9375 z"
           id="path4737" />
        <path
           inkscape:connector-curvature="0"
           style="fill:#008080;stroke:none"
           d="m 255.96875,649.11299 c -1.27093,0.0777 -2.46875,1.59375 -2.46875,1.59375 0,0 -12.55393,-5.46996 -19.625,5.84375 -7.07107,11.31371 3.98247,18.76641 6.1875,19.4375 4.06586,1.23743 7.0625,0.34375 7.0625,0.34375 0,0 0.87468,15.72399 -5.3125,30.75 -2.30031,5.58647 -4.04565,4.78125 -6.34375,4.78125 -2.2981,0 -2.29105,-3.16269 -1.9375,-6.875 0.35355,-3.71231 -2.14829,-3.5625 -3.5625,-3.5625 -1.41421,0 -2.80362,1.24388 -3.6875,3.71875 -0.88388,2.47487 -2.32167,16.97763 10.40625,16.09375 12.72792,-0.88388 15.91453,-12.3723 20.6875,-46.84375 2.98311,-21.54466 0.71196,-25.41073 -1.40625,-25.28125 z m -9.34375,8.125 c 1.9138,-0.0755 3.5,0.375 3.5,0.375 0,0 0.20952,11.62808 -1.40625,11.84375 -3.99569,0.53335 -7.82885,-1.17479 -8.125,-3.03125 -1.19772,-7.50811 2.84159,-9.0616 6.03125,-9.1875 z"
           id="path4744" />
        <path
           style="fill:#008080;stroke:none"
           d="m 310.59278,672.62489 c -0.11169,2.37519 1.2128,5.08042 2.65165,5.65685 4.77297,2.12132 7.42462,-2.82842 7.07106,-10.07627 -0.35355,-7.24784 5.87653,-35.75178 7.24785,-39.06765 1.75262,-4.23787 2.65165,-9.89949 -0.88388,-10.42982 -3.53554,-0.53033 -10.18719,6.51776 -16.08668,53.91689 z"
           id="path4747"
           inkscape:connector-curvature="0"
           sodipodi:nodetypes="ccsssc" />
      </g>
    </g>
  </g>
</svg>
