<?xml version="1.0" encoding="utf-8"?>
<!-- Generator: Adobe Illustrator 16.0.0, SVG Export Plug-In . SVG Version: 6.00 Build 0)  -->
<!DOCTYPE svg PUBLIC "-//W3C//DTD SVG 1.1//EN" "http://www.w3.org/Graphics/SVG/1.1/DTD/svg11.dtd" [
	<!ENTITY ns_extend "http://ns.adobe.com/Extensibility/1.0/">
	<!ENTITY ns_ai "http://ns.adobe.com/AdobeIllustrator/10.0/">
	<!ENTITY ns_graphs "http://ns.adobe.com/Graphs/1.0/">
	<!ENTITY ns_vars "http://ns.adobe.com/Variables/1.0/">
	<!ENTITY ns_imrep "http://ns.adobe.com/ImageReplacement/1.0/">
	<!ENTITY ns_sfw "http://ns.adobe.com/SaveForWeb/1.0/">
	<!ENTITY ns_custom "http://ns.adobe.com/GenericCustomNamespace/1.0/">
	<!ENTITY ns_adobe_xpath "http://ns.adobe.com/XPath/1.0/">
]>
<svg version="1.1" id="Layer_1" xmlns:x="&ns_extend;" xmlns:i="&ns_ai;" xmlns:graph="&ns_graphs;"
	 xmlns="http://www.w3.org/2000/svg" xmlns:xlink="http://www.w3.org/1999/xlink" x="0px" y="0px" width="488.5px" height="300px"
	 viewBox="0 0 488.5 300" enable-background="new 0 0 488.5 300" xml:space="preserve">
<metadata>
	<sfw  xmlns="&ns_sfw;">
		<slices></slices>
		<sliceSourceBounds  height="275.555" width="418.672" y="168.5" x="29.862" bottomLeftOrigin="true"></sliceSourceBounds>
	</sfw>
</metadata>
<g>
	<path fill="none" stroke="#73797D" stroke-width="1.9399" stroke-miterlimit="3.8635" d="M126.387,89.206v123.721
		c0,2.363-1.908,4.283-4.263,4.283H83.345c-2.593-0.063-4.467,4.27-4.467,4.27s-1.882-4.334-4.591-4.27
		c0.003-0.004-38.689,0-38.689,0c-2.354,0-4.263-1.92-4.263-4.283L31.332,89.215L126.387,89.206L126.387,89.206z"/>
	<path fill="none" stroke="#73797D" stroke-width="0.9654" stroke-miterlimit="3.8637" d="M93.118,108.906l-3.777-6.022
		c-4.525,1.045-3.413-2.88-0.961-4.423c2.695-1.691,5.742-1.096,3.787,2.648c0,0,0.871,1.417,2.324,3.729
		C94.491,104.839,93.499,106.724,93.118,108.906L93.118,108.906z M109.83,129.101l10.293,16.347l-0.757,0.761l-3.608-2.861
		c0,0-0.22-2.391-0.793-2.883c-1.938-1.673-0.789-2.594-1.539-4.146c-0.749-1.547-5.147-2.741-6.17-5.067
		c0.019,0.112-1.694-2.717-1.694-2.717C109.486,127.839,109.83,129.101,109.83,129.101L109.83,129.101z M97.762,109.823
		c-0.017-0.035,3.659,6.018,3.644,5.939c-2.274-0.275-3.378-0.929-3.831-2.152C97.039,112.231,97.458,110.397,97.762,109.823
		L97.762,109.823z M42.747,167.375l8.036,20.292 M43.403,167.964l7.459,14.42 M43.949,168.185l6.784,10.18 M44.352,168.002
		l6.22,7.392 M44.275,167.315l9.006,8.512 M44.201,166.817l12.34,9.232 M44.008,166.394l18.118,10.639 M53.804,134.039l-0.275,6.271
		h3.654l-0.277-6.271H53.804L53.804,134.039z M56.838,132.315L55.352,98.69l-1.52,33.625H56.838L56.838,132.315z M49.186,132.351
		H61.52v1.687H49.186V132.351L49.186,132.351z M59.242,140.319c0,2.521-1.742,4.265-3.891,4.265c-2.146,0-3.889-1.741-3.889-4.265
		H59.242L59.242,140.319z M49.692,117.048c0,3.221-2.661,5.832-5.942,5.832s-5.943-2.611-5.943-5.832H49.692L49.692,117.048z
		 M98.485,108.599c0,0,1.312,1.783,2.717,0.953c2.574-1.521-0.604-10.189-5.903-5.779c-1.165,0.973-2.723,5.478-2.421,8.365
		c0.303,2.892,1.586,6.545,4.842,7.301c1.966,0.457,5.882-0.637,7.508,2.041c1.209-0.453,2.531-5.229-0.847-5.387
		c-3.332-0.15-6.152-0.721-6.661-2.129C96.511,110.616,98.485,108.599,98.485,108.599L98.485,108.599z M101.486,122.153
		c-1.309,0.636-2.268,2.15-1.811,3.835c0.457,1.687,2.503,2.692,5.394,2.54c0.161-0.008,0.312-0.021,0.46-0.028
		c2.558-0.19,3.7-0.5,4.564,0.947c0.913-1.071,0.648-3.459-0.652-4.563C107.466,123.198,102.329,125.337,101.486,122.153
		L101.486,122.153z M107.204,131.281c-0.304,1.379-1.235,3.224-0.457,4.897c1.063,2.295,3.043,1.071,3.653,2.444
		c0.607,1.374,0.023,3.427,1.37,3.827c2.588,0.766,1.677,3.363,3.047,3.212c1.21-0.136,1.253-4.2,0-5.354
		c-1.828-1.686-0.611-2.908-1.522-4.285C112.378,134.647,109.029,134.035,107.204,131.281L107.204,131.281z"/>
	<path fill="none" stroke="#73797D" stroke-width="0.6207" stroke-miterlimit="3.8637" d="M80.567,139.841
		c0-0.095,0.076-0.17,0.172-0.17c0.096,0,0.171,0.075,0.171,0.17c0,0.096-0.075,0.17-0.171,0.17
		C80.644,140.017,80.567,139.935,80.567,139.841L80.567,139.841z M99.833,105.567c0.247-0.088,0.539,0.094,0.652,0.406
		c0.113,0.315,0.005,0.646-0.237,0.735c-0.246,0.092-0.539-0.092-0.651-0.408C99.483,105.988,99.591,105.658,99.833,105.567
		L99.833,105.567z"/>
	<path fill="none" stroke="#73797D" stroke-width="0.9654" stroke-miterlimit="3.8637" d="M52.724,187.677
		c0-4.869,3.923-8.808,8.765-8.808c4.842,0,8.765,3.938,8.765,8.808c0,4.861-3.923,8.807-8.765,8.807
		C56.646,196.483,52.724,192.538,52.724,187.677L52.724,187.677z M70.557,209.321h-4.265v-8.235H40.068v-4.213h30.487
		L70.557,209.321L70.557,209.321z M43.86,188.64c0-0.988,0.8-1.795,1.791-1.795c0.987,0,1.786,0.807,1.786,1.795
		c0,0.994-0.799,1.799-1.786,1.799C44.661,190.438,43.86,189.636,43.86,188.64L43.86,188.64z M43.939,188.125l-3.063,8.707
		l4.731-6.394 M47.359,188.125l3.061,8.707l-4.731-6.394 M53.981,183.536c-0.442,2.4,4.035,2.371,3.654,3.674
		c-0.918,3.135,0.913,3.021,1.218,4.666c0,0-0.305,3.898,0.76,4.209c0.61-0.84,0.154-2.486,0.913-3.367
		c0.801-0.916,1.904-1.418,1.904-3.057c0-1.191-1.65-1.568-2.134-1.914c-0.531-0.383-1.522-0.689-2.206-0.689
		c0,0-1.751-3.365-1.218-3.979c0.607-0.533,1.523,0.763,1.901,0.763c0.8,0,0.95-1.604,2.207-1.604c0-0.386-0.077-1.571-0.305-1.688
		c-1.257,0-2.053,0.614-3.122-0.688C57.559,179.856,54.426,181.127,53.981,183.536L53.981,183.536z M64.224,179.209
		c-0.98-0.376-2.477-0.228-2.477-0.228c1.296,0.613,1.22,2.33,1.752,2.33c1.068,0,1.599-0.877,2.664-1.067
		C66.166,180.244,65.203,179.585,64.224,179.209L64.224,179.209z M70.168,185.937c0-2.201-2.939-4.93-2.939-4.93
		s-1.446,2.68-0.764,5.434c0.686,0.074,2.665-0.152,2.665-0.152c0.497,0.229,0.304,1.033,0.304,1.527c0,1.227-0.381,4.36-0.381,4.36
		S70.168,188.144,70.168,185.937L70.168,185.937z"/>
	<polygon fill="none" stroke="#73797D" stroke-width="0.6207" stroke-miterlimit="3.8637" points="42.479,162.632 41.584,164.563 
		39.521,164.812 41.032,166.238 40.625,168.3 42.45,167.293 44.318,168.315 43.951,166.218 45.42,164.812 43.356,164.522 	"/>
	
		<line fill="none" stroke="#73797D" stroke-width="1.9399" stroke-miterlimit="3.8635" x1="78.859" y1="168.772" x2="78.859" y2="221.134"/>
	
		<path fill="none" stroke="#73797D" stroke-width="0.9657" stroke-linecap="round" stroke-linejoin="round" stroke-miterlimit="3.8637" d="
		M86.419,194.243l-2.252,2.561c-0.301,0.352-0.142,2.717,0.01,3.396c1.778,0.713,26.972,8.637,26.972,8.637l10.248-11.168
		l-1.603-0.689c-0.453-0.729,0.998-3.189,0.998-3.189l-4.96-1.956 M111.163,203.882c-0.4,0.324-0.305,4.512,0.019,4.977
		c0.02,0,10.217-11.188,10.217-11.188l-1.059-0.964c-0.09-1.006,0.182-2.822,0.182-2.822L111.163,203.882L111.163,203.882z
		 M110.208,196.998c-0.42,0.19-0.67,5.677-0.1,5.713c0.002-0.005,8.416-9.56,8.416-9.56l-0.815-0.459L110.208,196.998
		L110.208,196.998z"/>
	
		<path fill="none" stroke="#73797D" stroke-width="0.6204" stroke-linecap="round" stroke-linejoin="round" stroke-miterlimit="3.8637" d="
		M89.499,189.749l-2.629,2.686c-0.377,0.203-0.092,2.721,0,3.426c0.921,0.253,23.228,6.879,23.228,6.879l8.396-9.661l-2.663-0.954"
		/>
	<path fill="none" stroke="#73797D" stroke-width="0.9654" stroke-miterlimit="3.8637" d="M113.857,175.765v15.994
		c-2.184-0.521-10.389-1.572-11.225-0.269c-0.683-1.304-7.278-0.716-11.238,0.166v-15.392c-0.502,2.228-2.016,3.035-2.016,3.035
		v13.566l11.694-0.842c1.296,0.842,2.779,0.305,3.272,0.072l11.226,0.363v-15.188C115.571,177.279,114.461,177.183,113.857,175.765
		L113.857,175.765z M113.857,191.761c-2.388,0-9.512-1.914-11.188-0.229c1.522-0.037,1.563,0.952,0,0.993
		c-1.674-0.112-1.407-1.071,0-0.955c-1.447-1.877-11.255,0.389-11.255,0.389l-0.021-15.688c2.721,0,5.541-1.313,7.455-1.313
		s3.929,0.813,3.929,0.813s3.011-1.221,5.137-1.221c2.519,0,3.814,2.061,5.83,1.352
		C113.708,176.873,113.857,191.761,113.857,191.761L113.857,191.761z"/>
	
		<line fill="none" stroke="#73797D" stroke-width="0.6207" stroke-miterlimit="3.8637" x1="102.744" y1="175.791" x2="102.648" y2="191.476"/>
	<path fill="none" stroke="#73797D" stroke-width="0.6708" stroke-miterlimit="3.8637" d="M91.062,197.151l-0.842,0.852
		c-0.39,0.449-0.394,3.98,0.009,4.162c-0.009,0.059,1.823,0.529,1.01,0.159c-0.174-1.136-0.105-3.584,0.2-3.935l0.919-0.897
		L91.062,197.151L91.062,197.151z M93.993,197.992l-0.804,0.856c-0.388,0.44-0.549,4.072-0.144,4.25
		c-0.013,0.066,1.978,0.435,1.164,0.063c-0.178-1.137-0.106-3.584,0.2-3.936l0.851-0.851L93.993,197.992L93.993,197.992z
		 M101.112,200.097l-0.956,1.006c-0.389,0.449-0.595,3.895-0.189,4.072c-0.012,0.068,2.021,0.619,1.21,0.243
		c-0.177-1.128-0.106-3.582,0.199-3.935l1.032-1.043L101.112,200.097L101.112,200.097z M103.815,200.938l-0.956,1.01
		c-0.391,0.441-0.554,3.918-0.153,4.1c-0.011,0.063,1.983,0.588,1.171,0.217c-0.179-1.135-0.106-3.584,0.2-3.935l1.032-1.044
		L103.815,200.938L103.815,200.938z M91.06,192.774l-0.64,0.648c-0.295,0.342-0.354,3.301-0.048,3.438
		c-0.008,0.049,0.834,0.337,0.95,0.294c0.125-0.007-0.07-0.312-0.129-0.454c-0.134-0.861-0.078-2.725,0.154-2.99l0.695-0.675
		L91.06,192.774L91.06,192.774z"/>
	<path fill="none" stroke="#73797D" stroke-width="0.9654" stroke-miterlimit="3.8637" d="M102.782,175.646
		c-3.042-0.076-3.874-2.506-3.874-2.506l1.183-0.055c0,0-1.485-0.902-1.155-1.791c-0.024-0.041,1.034,0.112,1.034,0.112
		s-0.446-1.218-0.042-2.021l0.947,0.396c0.272-1.619,1.948-1.996,1.948-1.996s1.561,0.21,2.018,1.996l0.947-0.396
		c0.404,0.803-0.033,2.021-0.033,2.021s1.058-0.153,1.034-0.112c0.331,0.889-1.156,1.791-1.156,1.791l1.186,0.055
		C106.817,173.14,105.825,175.571,102.782,175.646L102.782,175.646z"/>
	
		<line fill="none" stroke="#73797D" stroke-width="1.9399" stroke-miterlimit="3.8635" x1="31.248" y1="153.979" x2="64.09" y2="153.979"/>
	
		<line fill="none" stroke="#73797D" stroke-width="1.8699" stroke-miterlimit="3.8637" x1="93.757" y1="153.979" x2="126.336" y2="153.979"/>
	<polygon fill="none" stroke="#FFFFFF" stroke-width="0.9654" stroke-miterlimit="3.8637" points="78.904,141.847 89.378,160.267 
		68.338,160.267 	"/>
	<path fill="none" stroke="#73797D" stroke-width="0.9654" stroke-miterlimit="3.8637" d="M78.814,150.952
		c3.791,0,7.087,3.119,7.046,3.613c0.035,0.466-3.257,3.59-7.046,3.59s-7.091-3.124-7.057-3.59
		C71.722,154.071,74.895,150.806,78.814,150.952L78.814,150.952z M75.281,154.554c0-1.959,1.58-3.545,3.528-3.545
		c1.949,0,3.53,1.59,3.53,3.545c0,1.957-1.581,3.549-3.53,3.549C76.86,158.099,75.281,156.511,75.281,154.554L75.281,154.554z"/>
	<path fill="#73797D" stroke="#73797D" stroke-width="0.6207" stroke-miterlimit="3.8637" d="M78.369,154.554
		c0-0.244,0.198-0.44,0.444-0.44c0.241,0,0.44,0.196,0.44,0.44c0,0.246-0.199,0.446-0.44,0.446
		C78.566,155,78.369,154.8,78.369,154.554L78.369,154.554z"/>
	<path fill="none" stroke="#73797D" stroke-width="0.9654" stroke-miterlimit="3.8637" d="M78.916,141.457
		c-6.922,0-12.588,5.657-12.588,12.61c0,6.955,5.61,12.594,12.532,12.594c6.922,0,12.533-5.639,12.533-12.594
		c0-6.256-4.54-11.442-10.49-12.428c-2.214,0.162-2.327-0.646-2.405-1.063c-0.204-1.134,1.271-1.8,2.323-1.8
		c1.828,0,1.674,1.07,2.77,1.3c5.825,1.979,10.015,7.519,10.015,14.034c0,8.182-6.601,14.813-14.742,14.813
		c-8.143,0-14.742-6.633-14.742-14.813c0-8.185,6.12-14.493,14.344-13.881C78.333,140.769,78.916,141.457,78.916,141.457
		L78.916,141.457z"/>
	<polygon fill="none" stroke="#73797D" stroke-width="1.7342" stroke-miterlimit="3.8635" points="78.839,37.107 74.329,46.226 
		64.136,47.702 71.483,54.992 69.967,64.873 78.839,60.366 87.713,64.873 86.083,54.901 93.198,47.919 83.421,46.318 	"/>
	<path fill="none" stroke="#73797D" stroke-width="0.8952" stroke-miterlimit="3.8635" d="M78.839,37.434v22.932 M64.484,47.916
		l21.598,6.985 M69.967,64.873l13.452-18.555 M87.713,64.873L74.332,46.227 M93.198,47.919l-21.714,7.075"/>
	<path fill="none" stroke="#73797D" stroke-width="1.7342" stroke-miterlimit="3.8635" d="M71.364,55.081L40.831,65.144
		 M116.709,40.139l-23.493,7.742 M74.303,46.206L55.444,20.181 M105.12,89.24L87.549,64.809 M83.435,46.29l18.768-26.223
		 M52.158,89.24l17.787-24.431 M64.388,47.889l-23.447-7.75 M116.598,65.144L86.199,54.959 M78.839,12.445v25.578"/>
	<path fill="none" stroke="#73797D" stroke-width="0.8952" stroke-miterlimit="3.8635" d="M70.953,58.58l-12.545,9.072
		 M99.328,37.782l-12.341,9.009 M75.895,61.94l-4.809,14.868 M86.746,28.388l-4.771,14.75 M81.869,61.951l4.774,14.76
		 M70.976,28.253l4.852,15.001 M86.639,58.37l12.462,9.098 M58.181,37.591l12.437,9.079 M88.534,52.705l15.712,0.003 M53.547,52.705
		H69.02"/>
	<path fill="none" stroke="#73797D" stroke-width="0.9654" stroke-miterlimit="3.8637" d="M104.612,120.726
		c0.69,1.021,2.094,3.402,2.054,3.402c0,0-3.311,0.229-4.489-0.88c-0.259-0.394-2.25-3.606-2.25-3.606
		S103.927,119.701,104.612,120.726L104.612,120.726z M43.736,103.517l-5.857,13.479l11.725,0.032L43.736,103.517L43.736,103.517z
		 M61.166,117.048c0,3.221,2.661,5.832,5.942,5.832c3.285,0,5.942-2.611,5.942-5.832H61.166L61.166,117.048z M67.12,103.517
		l5.859,13.479l-11.725,0.032L67.12,103.517L67.12,103.517z M53.639,139.429l3.504-1.646 M53.526,137.175l3.503-1.646"/>
	<path fill="none" stroke="#73797D" stroke-width="0.6207" stroke-miterlimit="3.8637" d="M55.279,103.282H43.743v-1.375h11.423
		L55.279,103.282L55.279,103.282z M55.469,101.907h11.608v1.375H55.543L55.469,101.907L55.469,101.907z M94.413,179.224
		c1.598-0.053,3.661-1.635,5.95-0.871 M94.398,180.972c1.594-0.047,3.672-1.558,5.962-0.787 M94.382,182.726
		c1.597-0.047,3.685-1.482,5.975-0.719 M94.373,184.478c1.595-0.047,3.693-1.412,5.985-0.645 M94.357,186.231
		c1.596-0.047,3.708-1.336,5.995-0.573 M94.341,187.985c1.596-0.053,3.722-1.264,6.011-0.496 M111.106,178.708
		c-1.597-0.052-3.728-1.119-6.016-0.354 M111.109,180.554c-1.597-0.052-3.729-1.139-6.017-0.369 M111.111,182.401
		c-1.597-0.053-3.728-1.16-6.016-0.396 M111.111,184.247c-1.597-0.053-3.728-1.182-6.013-0.413 M111.116,186.093
		c-1.598-0.054-3.729-1.197-6.014-0.435 M111.118,187.937c-1.598-0.051-3.728-1.215-6.016-0.447"/>
	<polygon fill="none" stroke="#73797D" stroke-width="0.9654" stroke-miterlimit="3.8637" points="78.904,141.847 89.378,160.267 
		68.338,160.267 	"/>
	<path fill="none" stroke="#73797D" stroke-width="0.6708" stroke-miterlimit="3.8637" d="M93.294,193.312l-0.639,0.646
		c-0.296,0.343-0.354,3.3-0.048,3.438c0.145,0.084,0.835,0.406,0.95,0.359c0.124,0-0.09-0.375-0.129-0.518
		c-0.135-0.861-0.08-2.723,0.152-2.991l0.698-0.679L93.294,193.312L93.294,193.312z"/>
	<polygon fill="#73797D" points="77.792,60.366 79.708,60.366 79.708,138.548 78.817,139.753 78.458,140.231 77.861,139.823 	"/>
	<path fill="none" stroke="#73797D" stroke-width="0.6708" stroke-miterlimit="3.8637" d="M102.388,195.929l-0.642,0.651
		c-0.293,0.34-0.353,3.3-0.048,3.438c-0.009,0.052,0.834,0.334,0.95,0.293c0.124-0.004-0.071-0.311-0.129-0.453
		c-0.136-0.854-0.08-2.721,0.153-2.985l0.696-0.679L102.388,195.929L102.388,195.929z M104.623,196.468l-0.638,0.648
		c-0.297,0.342-0.354,3.307-0.047,3.439c0.144,0.082,0.833,0.406,0.949,0.362c0.125-0.004-0.09-0.38-0.129-0.521
		c-0.136-0.858-0.079-2.727,0.152-2.99l0.697-0.684L104.623,196.468L104.623,196.468z"/>
</g>
<g>
	<path fill="none" stroke="#73797D" stroke-width="1.9164" stroke-miterlimit="3.8637" d="M448.076,249.478V74.17 M159.681,249.478
		V74.139"/>
	<path fill="#73797D" d="M182.99,127.394c0-12.529,6.209-17.113,17.384-16.231V89.282c-26.074-3.001-40.441,14.466-40.796,38.112
		v20.646v69.872h23.412V148.04h16.497v-20.646H182.99L182.99,127.394z"/>
	<path fill="#73797D" d="M240.624,217.911h18.268v-22.585h-16.32c-14.722,0-24.12-10.058-24.12-22.938
		c0-12.88,9.4-22.938,24.12-22.938h16.32v-22.407h-18.268c-27.846,0-45.588,19.938-45.588,45.349
		C195.036,197.8,212.777,217.911,240.624,217.911L240.624,217.911z"/>
	<path fill="#73797D" d="M447.791,165.38c0-23.813-15.069-40.568-40.605-40.568c-11.879,0-22.166,4.939-29.082,12.875
		c-6.559-7.936-16.665-12.875-29.082-12.875c-24.998,0-41.137,17.462-41.137,40.568v52.567h23.408v-53.095
		c0-10.229,7.271-17.287,17.729-17.287c15.428,0,17.025,12.17,17.025,17.287v53.095h23.403v-53.095
		c0-10.229,7.442-17.287,17.731-17.287c15.431,0,17.202,12.17,17.202,17.287v53.095h23.404V165.38H447.791L447.791,165.38z"/>
</g>
<g>
	<path d="M313.612,239.781c0,0.194-0.067,0.292-0.202,0.292c-0.209,0-1.535-0.045-3.976-0.135c-0.067,2.283-0.101,4.114-0.101,5.492
		c0,0.86,0.032,2.152,0.095,3.874c0.064,1.722,0.096,3.014,0.096,3.874c0,0.158-0.108,0.236-0.326,0.236
		c-0.135,0-0.341-0.012-0.618-0.033c-0.277-0.023-0.487-0.034-0.629-0.034c-0.135,0-0.341,0.011-0.618,0.034
		c-0.277,0.021-0.483,0.033-0.618,0.033c-0.187,0-0.281-0.094-0.281-0.281c0-0.854,0.036-2.135,0.107-3.846
		c0.071-1.711,0.106-2.997,0.106-3.857c0-1.333-0.041-3.164-0.124-5.492c-1.932,0.12-3.347,0.18-4.245,0.18
		c-0.09,0-0.135-0.037-0.135-0.112c0-0.135,0.034-0.329,0.101-0.584c0.083-0.329,0.131-0.524,0.146-0.584
		c0.015-0.262,0.067-0.625,0.157-1.089c0.038-0.098,0.101-0.146,0.191-0.146l0.135,0.012c2.65,0.156,4.398,0.235,5.245,0.235
		c0.749,0,1.973-0.056,3.672-0.169c1.161-0.074,1.644-0.111,1.449-0.111c0.195,0,0.303,0.066,0.326,0.201
		c-0.015-0.082-0.022,0.281-0.022,1.09c0,0.098,0.011,0.249,0.034,0.455S313.612,239.677,313.612,239.781z"/>
	<path d="M328.863,253.28c0,0.09-0.09,0.135-0.27,0.135c-0.142,0-0.35-0.012-0.624-0.033c-0.273-0.023-0.481-0.034-0.623-0.034
		s-0.355,0.011-0.64,0.034c-0.285,0.021-0.498,0.033-0.64,0.033c-0.209,0-0.478-0.567-0.803-1.701
		c-0.326-1.135-0.657-1.709-0.994-1.725c-0.277-0.015-1-0.021-2.167-0.021h-1.774c-1.235,0-1.939,0.007-2.111,0.021
		c-0.27,0.023-0.556,0.6-0.859,1.73c-0.304,1.13-0.538,1.695-0.702,1.695h-2.527c-0.15,0-0.225-0.053-0.225-0.157
		c0-0.075,0.052-0.243,0.157-0.505l2.751-7.525c0.232-0.605,0.936-2.354,2.111-5.244c0.209-0.479,0.494-1.201,0.854-2.168
		c0.09-0.284,0.187-0.426,0.292-0.426c0.142,0,0.352,0.019,0.629,0.056s0.487,0.056,0.629,0.056c0.135,0,0.339-0.021,0.612-0.062
		c0.273-0.041,0.473-0.062,0.601-0.062c0.067,0,0.161,0.139,0.281,0.416c0.18,0.419,1.067,2.676,2.662,6.771
		C327.736,250.323,328.863,253.228,328.863,253.28z M323.63,247.081c0-0.217-0.337-1.19-1.011-2.92
		c-0.651-1.677-1.112-2.777-1.381-3.302c-1.55,3.953-2.325,6.023-2.325,6.21c0,0.255,0.285,0.404,0.854,0.449
		c0.03,0.008,0.397,0.012,1.101,0.012h1.157C323.095,247.53,323.63,247.381,323.63,247.081z"/>
	<path d="M340.768,251.157c0,0.12-0.03,0.293-0.09,0.518c-0.067,0.284-0.108,0.456-0.124,0.516c-0.022,0.27-0.075,0.663-0.157,1.18
		c-0.038,0.135-0.135,0.202-0.292,0.202c-0.075,0-0.217-0.015-0.427-0.045c-0.921-0.135-2.347-0.202-4.279-0.202
		c-0.546,0-1.37,0.015-2.471,0.045s-1.924,0.045-2.471,0.045c-0.247,0-0.371-0.108-0.371-0.326c0-0.838,0.047-2.098,0.141-3.778
		c0.093-1.681,0.14-2.94,0.14-3.779c0-0.854-0.045-2.444-0.135-4.772c-0.015-0.6-0.056-1.494-0.124-2.685l-0.011-0.157
		c-0.007-0.172,0.09-0.258,0.292-0.258c0.524,0,1.31,0.015,2.358,0.045c1.048,0.029,1.834,0.045,2.358,0.045
		c0.501,0,1.252-0.016,2.251-0.045c1-0.03,1.75-0.045,2.252-0.045c0.352,0,0.543,0.108,0.573,0.325
		c0.157,0.988,0.236,1.603,0.236,1.842c0,0.172-0.083,0.259-0.247,0.259c-0.636,0-1.601-0.036-2.892-0.107
		c-1.292-0.071-2.263-0.106-2.915-0.106c-0.614,0-1.001,0.082-1.163,0.247c-0.161,0.165-0.241,0.572-0.241,1.225v1.673
		c0,0.457,0.011,0.723,0.034,0.798c0.067,0.231,0.262,0.348,0.584,0.348c0.09,0,0.217-0.004,0.382-0.012c0.172,0,0.299,0,0.382,0
		c1.467,0,2.785-0.025,3.953-0.078c0.457-0.015,0.996-0.053,1.617-0.112c0.157-0.015,0.236,0.053,0.236,0.202
		c0,0.239-0.028,0.606-0.084,1.101c-0.057,0.494-0.084,0.864-0.084,1.112c0,0.135-0.112,0.201-0.337,0.201
		c-0.09,0-0.423-0.025-1-0.078c-0.419-0.045-1.363-0.067-2.83-0.067c-1.235,0-2.018,0.015-2.347,0.045
		c-0.299,0.022-0.472,0.18-0.517,0.472c0.007-0.053,0.011,0.236,0.011,0.865v1.662c0,0.778,0.12,1.265,0.359,1.459
		c0.187,0.158,0.655,0.236,1.404,0.236l1.235-0.012c0.524,0,1.995-0.09,4.414-0.27l0.168-0.011
		C340.693,250.862,340.768,250.956,340.768,251.157z"/>
	<path d="M354.94,252.888c0,0.352-0.108,0.527-0.326,0.527h-2.583c-0.217,0-0.782-0.797-1.696-2.393
		c-0.771-1.348-1.284-2.32-1.539-2.92c-0.254-0.576-0.4-0.898-0.438-0.965c-0.225-0.375-0.487-0.573-0.786-0.596
		c-0.09-0.008-0.341-0.012-0.752-0.012c-0.943,0-1.415,0.116-1.415,0.349c0,0.688,0.024,1.718,0.073,3.089
		c0.048,1.369,0.073,2.396,0.073,3.076c0,0.248-0.094,0.371-0.281,0.371c-0.142,0-0.355-0.012-0.64-0.033
		c-0.285-0.023-0.498-0.034-0.64-0.034c-0.135,0-0.335,0.011-0.601,0.034c-0.266,0.021-0.466,0.033-0.601,0.033
		c-0.187,0-0.281-0.086-0.281-0.258c0-0.824,0.039-2.062,0.118-3.712c0.078-1.651,0.118-2.889,0.118-3.712
		c0-0.868-0.04-2.173-0.118-3.914c-0.079-1.74-0.118-3.045-0.118-3.914c0-0.164,0.094-0.246,0.281-0.246
		c0.135,0,0.341,0.011,0.618,0.033s0.487,0.033,0.629,0.033c0.135,0,0.337-0.011,0.606-0.033s0.472-0.033,0.606-0.033
		c0.172,0,0.258,0.066,0.258,0.201c0,0.637-0.021,1.596-0.062,2.875c-0.041,1.281-0.062,2.243-0.062,2.887
		c0,0.292,0.019,0.476,0.056,0.551c0.06,0.135,0.213,0.201,0.46,0.201c1.453,0,2.516-0.27,3.189-0.809
		c0.577-0.479,1.123-1.358,1.64-2.639c0.375-1.003,0.749-2.007,1.123-3.01c0.052-0.127,0.168-0.213,0.348-0.258
		c0.12-0.03,0.517-0.045,1.19-0.045c0.824,0,1.235,0.115,1.235,0.348c0,0.135-0.172,0.741-0.517,1.819
		c-0.404,1.258-0.928,2.366-1.572,3.324c-0.427,0.651-0.992,1.307-1.696,1.966c-0.18,0.156-0.27,0.299-0.27,0.426
		c0,0.135,0.303,0.806,0.91,2.011c0.524,1.041,1,1.876,1.426,2.505c0.472,0.576,1.13,1.463,1.977,2.661
		C354.922,252.741,354.94,252.813,354.94,252.888z"/>
	<path d="M374.897,243.409c0,0.06-0.749,1.662-2.246,4.807c-0.501,1.093-1.269,2.725-2.302,4.896
		c-0.097,0.201-0.198,0.303-0.303,0.303h-2.021c-0.142,0-0.258-0.102-0.348-0.303c-0.554-1.303-1.352-3.354-2.392-6.154
		c-0.517,1.377-1.321,3.429-2.415,6.154c-0.083,0.201-0.195,0.303-0.337,0.303h-2.01c-0.112,0-0.217-0.102-0.314-0.303
		c-0.517-1.086-1.292-2.719-2.325-4.896c-1.43-2.98-2.145-4.582-2.145-4.807c0-0.614,0.019-1.539,0.056-2.774
		s0.056-2.16,0.056-2.774c0-0.135,0.094-0.201,0.281-0.201c0.135,0,0.339,0.011,0.612,0.033c0.273,0.022,0.477,0.033,0.612,0.033
		c0.127,0,0.318-0.007,0.573-0.021c0.254-0.016,0.445-0.023,0.573-0.023c0.157,0,0.236,0.057,0.236,0.169
		c0,0.606-0.036,1.521-0.106,2.746c-0.071,1.224-0.107,2.14-0.107,2.745c0,0.383,0.756,2.111,2.269,5.189
		c0.501,1.018,0.775,1.527,0.82,1.527c0.015-0.008,0.034-0.034,0.056-0.079c0.09-0.172,0.281-0.651,0.573-1.438
		c0.539-1.46,1.093-3.118,1.662-4.976c0.022-0.187,0.034-0.778,0.034-1.773c0-0.442-0.013-1.103-0.04-1.982
		c-0.026-0.88-0.039-1.541-0.039-1.982c0-0.112,0.079-0.168,0.236-0.168c0.142,0,0.355,0.011,0.64,0.033s0.501,0.033,0.651,0.033
		c0.127,0,0.318-0.011,0.573-0.033s0.445-0.033,0.573-0.033c0.172,0,0.258,0.06,0.258,0.18c0,0.471-0.015,1.181-0.045,2.128
		s-0.045,1.656-0.045,2.128c0,0.771,0.004,1.239,0.011,1.404c0.022,0.374,0.588,2.018,1.696,4.93
		c0.12,0.329,0.314,0.801,0.584,1.415c0.007,0.03,0.022,0.056,0.045,0.079c0.045,0,0.311-0.498,0.797-1.494
		c1.475-3.018,2.212-4.721,2.212-5.109c0-0.614-0.034-1.531-0.101-2.752s-0.101-2.134-0.101-2.74c0-0.112,0.03-0.168,0.09-0.168
		c0.15,0,0.373,0.011,0.668,0.033c0.295,0.022,0.518,0.033,0.668,0.033c0.135,0,0.341-0.011,0.618-0.033s0.487-0.033,0.629-0.033
		c0.157,0,0.247,0.045,0.27,0.135c0-0.008,0,0.097,0,0.314c0,0.591,0.019,1.475,0.056,2.65
		C374.878,241.934,374.897,242.817,374.897,243.409z"/>
	<path d="M391.574,245.531c0,2.224-0.711,4.137-2.135,5.739c-1.482,1.662-3.324,2.492-5.525,2.492c-2.207,0-4.049-0.827-5.524-2.481
		c-1.422-1.595-2.134-3.512-2.134-5.75c0-2.216,0.719-4.129,2.156-5.739c1.482-1.669,3.316-2.504,5.502-2.504
		c2.195,0,4.033,0.835,5.516,2.504C390.859,241.395,391.574,243.308,391.574,245.531z M388.867,245.497
		c0-1.467-0.457-2.743-1.369-3.829c-0.959-1.153-2.16-1.729-3.605-1.729c-1.43,0-2.621,0.584-3.571,1.752
		c-0.898,1.093-1.348,2.373-1.348,3.841c0,1.46,0.449,2.736,1.348,3.829c0.95,1.168,2.142,1.752,3.571,1.752
		c1.453,0,2.658-0.584,3.615-1.752C388.414,248.268,388.867,246.979,388.867,245.497z"/>
	<path d="M407.544,237.905c0,0.861-0.03,2.16-0.09,3.897s-0.09,3.04-0.09,3.908c0,0.816,0.008,2.038,0.022,3.667
		c0.015,1.628,0.022,2.851,0.022,3.666c0,0.248-0.094,0.371-0.28,0.371c-0.113,0-0.281-0.012-0.506-0.033
		c-0.225-0.023-0.393-0.034-0.506-0.034c-0.119,0-0.303,0.011-0.55,0.034c-0.247,0.021-0.431,0.033-0.55,0.033
		c-0.135,0-0.296-0.123-0.483-0.371c-1.617-2.178-4.069-5.428-7.356-9.748c-0.509-0.658-0.805-1.025-0.887-1.1
		c-0.075,0-0.112,0.153-0.112,0.46c0,1.153,0.019,2.885,0.056,5.194c0.038,2.31,0.057,4.041,0.057,5.193
		c0,0.248-0.075,0.371-0.225,0.371c-0.127,0-0.322-0.012-0.584-0.033c-0.262-0.023-0.457-0.034-0.584-0.034
		c-0.135,0-0.335,0.011-0.601,0.034c-0.266,0.021-0.466,0.033-0.601,0.033c-0.188,0-0.281-0.075-0.281-0.225
		c0-0.823,0.039-2.064,0.118-3.723c0.078-1.658,0.118-2.903,0.118-3.734c0-0.906-0.034-2.538-0.102-4.896
		c-0.015-0.614-0.053-1.535-0.112-2.763l-0.011-0.146c-0.008-0.113,0.082-0.173,0.27-0.18c0.486-0.008,0.868-0.023,1.145-0.045
		c0.105-0.008,0.304-0.038,0.596-0.09c0.247-0.045,0.441-0.068,0.584-0.068c0.067,0,0.184,0.109,0.348,0.326
		c1.723,2.366,4.357,5.885,7.906,10.557c0.158,0.194,0.304,0.363,0.438,0.506c0.053-0.314,0.079-1.033,0.079-2.156
		c0-0.974-0.036-2.434-0.107-4.381c-0.071-1.946-0.106-3.402-0.106-4.368c0-0.247,0.075-0.37,0.225-0.37
		c0.135,0,0.339,0.011,0.612,0.033s0.477,0.033,0.611,0.033c0.143,0,0.356-0.011,0.641-0.033s0.498-0.033,0.641-0.033
		C407.465,237.659,407.544,237.741,407.544,237.905z"/>
	<path d="M423.749,245.452c0,2.104-0.599,3.924-1.797,5.459c-1.303,1.669-2.972,2.504-5.008,2.504c-0.39,0-0.976-0.015-1.758-0.045
		s-1.368-0.045-1.758-0.045c-0.352,0-0.882,0.015-1.589,0.045c-0.708,0.03-1.237,0.045-1.589,0.045
		c-0.188,0-0.281-0.094-0.281-0.281c0-0.815,0.032-2.047,0.096-3.694s0.096-2.883,0.096-3.706c0-0.868-0.03-2.175-0.09-3.92
		c-0.061-1.744-0.09-3.051-0.09-3.919c0-0.157,0.097-0.235,0.291-0.235c0.277,0,0.691,0.003,1.241,0.011
		c0.551,0.008,0.964,0.011,1.241,0.011c0.255,0,0.644-0.003,1.168-0.011s0.921-0.011,1.19-0.011c2.598,0,4.533,0.49,5.806,1.471
		c0.914,0.704,1.621,1.65,2.123,2.842C423.514,243.079,423.749,244.239,423.749,245.452z M420.998,245.452
		c0-1.617-0.46-2.935-1.382-3.953c-0.958-1.055-2.238-1.583-3.84-1.583c-1.326,0-1.861-0.008-1.606-0.022
		c-0.876,0.045-1.313,0.206-1.313,0.482c0,0.577-0.014,1.439-0.04,2.589s-0.039,2.013-0.039,2.589c0,0.569,0.013,1.423,0.039,2.561
		s0.04,1.991,0.04,2.561c0,0.284,0.449,0.449,1.348,0.494c-0.12-0.008,0.426-0.012,1.639-0.012c0.861,0,1.547-0.09,2.056-0.27
		c0.629-0.225,1.194-0.64,1.696-1.246C420.53,248.504,420.998,247.107,420.998,245.452z"/>
	<path d="M440.404,245.531c0,2.224-0.712,4.137-2.135,5.739c-1.482,1.662-3.324,2.492-5.525,2.492c-2.208,0-4.05-0.827-5.525-2.481
		c-1.422-1.595-2.133-3.512-2.133-5.75c0-2.216,0.719-4.129,2.156-5.739c1.482-1.669,3.316-2.504,5.502-2.504
		c2.194,0,4.032,0.835,5.515,2.504C439.688,241.395,440.404,243.308,440.404,245.531z M437.697,245.497
		c0-1.467-0.457-2.743-1.37-3.829c-0.958-1.153-2.16-1.729-3.604-1.729c-1.431,0-2.621,0.584-3.572,1.752
		c-0.898,1.093-1.348,2.373-1.348,3.841c0,1.46,0.449,2.736,1.348,3.829c0.951,1.168,2.142,1.752,3.572,1.752
		c1.452,0,2.657-0.584,3.615-1.752C437.244,248.268,437.697,246.979,437.697,245.497z"/>
</g>
<path fill-rule="evenodd" clip-rule="evenodd" fill="#EA1318" d="M311.351,168.592c-2.612,0.401-5.459-0.955-7.793,1.606
	c-2.558,2.809-4.197,5.625-4.129,9.447c0.178,9.934-0.009,19.871,0.11,29.807c0.028,2.35-0.802,4.318-1.639,6.445
	c-0.755,1.914-2.114,1.283-3.325,1.336c-2.076,0.09-2.545-1.787-1.553-2.422c3.743-2.402,2.848-5.818,3.113-9.096
	c0.408-5.023-1.372-10.232,1.596-15.074c0.655-1.066-1.229-1.574-1.592-2.467c-0.712-1.748,1.23-5.137-1.417-5.217
	c-4.392-0.135-1.08,3.59-1.898,5.453c-0.406,0.926-0.429,2.039-1.438,2.572c-4.203,2.215-3.836,5.9-3.774,9.555
	c0.069,4.182,1.328,8.873-0.277,12.436c-2.741,6.088,0.455,12.592-2.886,18.525c-1.005,1.783-1.332,5.148,1.484,7.09
	c1.4,6.996,6.35,13.223,5.106,20.801c-0.763,4.654,0.68,8.869,3.345,12.826c2.572,3.816,3.083,8.994,8.866,10.639
	c2.034,0.578,1.168,2.662,1.342,4.135c-2.826,0.566-15.734,1.256-17.3,0.924c-2.719-0.572-3.513-2.867-1.769-5.115
	c2.664-3.436,3.442-5.215,0.252-7.787c-5.951-4.801-5.535-12.158-9.595-17.658c-1.189-1.611-1.076-4.279-3.18-5.803
	c-0.358-0.26-0.674-0.914-0.587-1.305c0.936-4.168-2.485-7.723-1.799-11.916c0.574-3.514-2.469-6.549-1.765-10.344
	c0.585-3.15-0.633-6.377-1.256-9.574c-1.086-5.57-0.303-11.455-0.303-17.207c0-1.83,0.352-3.734-0.077-5.475
	c-0.755-3.055-4.192-5.076-3.444-8.934c0.639-3.293,0.133-6.777,0.133-10.176s0-6.797,0-10.196c0-1.83,0.024-3.661-0.007-5.49
	c-0.039-2.28,0.146-4.378,1.629-6.454c2.38-3.331,3.003-7.476,3.233-11.219c0.312-5.098,1.545-9.77,4.025-15.112
	c-1.506-1.156-3.009-2.991-4.984-3.705c-7.364-2.655-7.79-8.756-8.951-14.54c-0.193-0.963,0.259-2.323-1.169-2.488
	c-2.254-0.259-3.671-1.326-3.881-3.271c-0.251-2.323-0.149-4.698,0.067-7.028c0.056-0.598,1.036-1.227,1.729-1.651
	c3.166-1.947,8.794,0.104,9.942,3.732c0.34,1.077,0.382,1.938,1.895,1.898c1.614-0.042,2.884-0.299,3.489,2.086
	c0.457,1.8,3.761,1.392,4.832-0.468c3.773-6.548,5.403-13.653,6.964-20.892c1.279-5.935,0.111-12.542,4.834-17.75
	c0.532-0.587-0.107-1.961,1.469-2.265c3.677-0.71,2.033-2.829,1.215-4.567c-0.316-0.669-1.075-1.233-1.765-1.664
	c-2.407-1.502-3.299-3.837-2.405-6.053c0.966-2.395,1.524-5.304,4.65-6.552c2.874-1.148,5.733-2.349,8.508-3.689
	c8.601-4.152,8.583-4.183,16.627-3.969c1.63,3.273,0.682,5.909-2.347,8.032c-1.682,1.179-1.599,3.076-2.351,4.58
	c-1.532,3.072-1.271,7.585-6.501,8.454c-1.157,0.191-2.098,1.585-1.793,3.151c0.677,3.47-1.287,6.144-2.91,9.078
	c-2.563,4.632-4.654,9.592-3.806,14.981c0.98,6.222-1.925,12.053-1.763,18.181c0.154,5.837,3.292,11.407,1.377,17.228
	c7.778,3.319,12.79,4.167,20.43,3.536c-0.533-1.303-1.66-2.254-1.537-3.95c0.283-3.903,0.959-8.063-0.139-11.7
	c-1.258-4.173,3.996-4.908,3.725-8.175c-0.018-0.206,1.358-0.719,2.096-0.734c3.622-0.079,7.246-0.036,10.703-0.036
	c2.255,4.598,3.732,9.071,3.984,13.743c0.385,7.119-0.368,8.264-6.667,13.787c-0.423,0.371-0.056,1.517-0.056,2.301
	c0.897,2.773,3.644,4.806,3.47,8.068c-0.074,1.389,1.29,3.252,2.002,3.763c3.712,2.659,4.695,6.552,6.39,10.149
	c0,1.014-0.205,2.072,0.035,3.033c1.189,4.76,1.093,5.785-3.084,7.855c-2.349,1.163-4.102,2.112-3.729,4.813
	c-2.637,0.081-5.239,1.773-7.916,0.011c-2.925-1.926-5.773-1.158-8.586,0.35C315.063,166.783,313.194,167.669,311.351,168.592z"/>
</svg>
