<?xml version="1.0" encoding="utf-8"?>
<!-- Generator: Adobe Illustrator 16.0.0, SVG Export Plug-In . SVG Version: 6.00 Build 0)  -->
<!DOCTYPE svg PUBLIC "-//W3C//DTD SVG 1.1//EN" "http://www.w3.org/Graphics/SVG/1.1/DTD/svg11.dtd" [
	<!ENTITY st0 "fill-rule:evenodd;clip-rule:evenodd;fill:#73797D;">
	<!ENTITY st1 "fill:none;stroke:#73797D;stroke-width:0.2541;stroke-miterlimit:3.8637;">
	<!ENTITY st2 "fill:#E30613;">
	<!ENTITY st3 "fill:none;stroke:#73797D;stroke-width:0.7083;stroke-miterlimit:3.8637;">
	<!ENTITY st4 "fill:none;stroke:#73797D;stroke-width:0.6569;stroke-miterlimit:3.8635;">
	<!ENTITY st5 "fill:#73797D;stroke:#73797D;stroke-width:0.2351;stroke-miterlimit:3.8637;">
	<!ENTITY st6 "fill:none;stroke:#73797D;stroke-width:0.3657;stroke-miterlimit:3.8637;">
	<!ENTITY st7 "fill:none;stroke:#73797D;stroke-width:0.3391;stroke-miterlimit:3.8635;">
	
		<!ENTITY st8 "fill:none;stroke:#73797D;stroke-width:0.3658;stroke-linecap:round;stroke-linejoin:round;stroke-miterlimit:3.8637;">
	<!ENTITY st9 "fill:none;stroke:#73797D;stroke-width:0.7259;stroke-miterlimit:3.8637;">
	
		<!ENTITY st10 "fill:none;stroke:#73797D;stroke-width:0.235;stroke-linecap:round;stroke-linejoin:round;stroke-miterlimit:3.8637;">
	<!ENTITY st11 "fill:#73797D;">
	<!ENTITY st12 "fill:none;stroke:#73797D;stroke-width:0.2351;stroke-miterlimit:3.8637;">
	<!ENTITY st13 "fill:none;stroke:#73797D;stroke-width:0.7348;stroke-miterlimit:3.8635;">
	<!ENTITY st14 "fill:none;stroke:#FFFFFF;stroke-width:0.3657;stroke-miterlimit:3.8637;">
]>
<svg version="1.1" id="Layer_1" xmlns="http://www.w3.org/2000/svg" xmlns:xlink="http://www.w3.org/1999/xlink" x="0px" y="0px"
	 width="379.5px" height="144.5px" viewBox="0 0 379.5 144.5" style="enable-background:new 0 0 379.5 144.5;" xml:space="preserve"
	>
<g>
	<path style="&st13;" d="M66.548,45.587v40.836c0,0.78-0.63,1.412-1.407,1.412H52.341c-0.855-0.02-1.475,1.413-1.475,1.413
		s-0.622-1.433-1.515-1.413c0.001,0-12.771,0-12.771,0c-0.778,0-1.406-0.632-1.406-1.412l0-40.832L66.548,45.587L66.548,45.587z"/>
	<path style="&st6;" d="M55.566,52.09l-1.247-1.987c-1.492,0.344-1.125-0.952-0.316-1.46c0.89-0.559,1.895-0.361,1.249,0.874
		c0,0,0.288,0.469,0.768,1.23C56.02,50.746,55.694,51.369,55.566,52.09L55.566,52.09z M61.083,58.755l3.398,5.395l-0.251,0.251
		l-1.19-0.945c0,0-0.073-0.788-0.261-0.951c-0.64-0.552-0.26-0.856-0.508-1.368c-0.246-0.511-1.699-0.906-2.037-1.673
		c0.007,0.036-0.559-0.898-0.559-0.898C60.971,58.339,61.083,58.755,61.083,58.755L61.083,58.755z M57.1,52.393
		c-0.004-0.012,1.208,1.985,1.203,1.96c-0.75-0.09-1.115-0.306-1.265-0.711C56.861,53.187,57,52.582,57.1,52.393L57.1,52.393z
		 M38.941,71.389l2.653,6.699 M39.158,71.582l2.462,4.761 M39.338,71.656l2.239,3.36 M39.471,71.595l2.053,2.439 M39.445,71.369
		l2.973,2.807 M39.421,71.204l4.073,3.048 M39.357,71.064l5.98,3.513 M42.59,60.386L42.5,62.455h1.206l-0.091-2.069H42.59
		L42.59,60.386z M43.594,59.816l-0.491-11.099L42.6,59.816H43.594L43.594,59.816z M41.066,59.828h4.072v0.556h-4.072V59.828
		L41.066,59.828z M44.386,62.458c0,0.832-0.574,1.408-1.285,1.408c-0.708,0-1.283-0.576-1.283-1.408H44.386L44.386,62.458z
		 M41.234,54.776c0,1.063-0.879,1.926-1.961,1.926c-1.084,0-1.961-0.863-1.961-1.926H41.234L41.234,54.776z M57.339,51.987
		c0,0,0.433,0.589,0.896,0.316c0.851-0.502-0.199-3.363-1.948-1.908c-0.384,0.321-0.899,1.808-0.799,2.761
		c0.101,0.953,0.523,2.161,1.598,2.41c0.649,0.149,1.941-0.21,2.478,0.673c0.399-0.148,0.836-1.726-0.279-1.777
		c-1.1-0.05-2.03-0.238-2.199-0.703C56.687,52.654,57.339,51.987,57.339,51.987L57.339,51.987z M58.33,56.462
		c-0.433,0.21-0.749,0.71-0.598,1.266c0.15,0.556,0.826,0.889,1.78,0.838c0.053-0.002,0.103-0.006,0.152-0.01
		c0.844-0.062,1.221-0.164,1.506,0.313c0.303-0.353,0.213-1.142-0.215-1.507C60.304,56.808,58.607,57.513,58.33,56.462L58.33,56.462
		z M60.216,59.474c-0.101,0.456-0.408,1.064-0.15,1.617c0.351,0.757,1.004,0.354,1.206,0.808c0.202,0.454,0.008,1.13,0.453,1.263
		c0.854,0.253,0.554,1.111,1.006,1.06c0.398-0.044,0.413-1.385,0-1.767c-0.604-0.556-0.202-0.959-0.503-1.415
		C61.925,60.587,60.819,60.384,60.216,59.474L60.216,59.474z"/>
	<path style="&st12;" d="M51.425,62.3c0-0.031,0.025-0.056,0.056-0.056c0.032,0,0.057,0.025,0.057,0.056
		c0,0.031-0.024,0.056-0.057,0.056C51.45,62.357,51.425,62.331,51.425,62.3L51.425,62.3z M57.785,50.988
		c0.081-0.031,0.177,0.03,0.214,0.133c0.039,0.105,0.001,0.212-0.078,0.243c-0.081,0.03-0.178-0.031-0.216-0.135
		C57.668,51.127,57.703,51.018,57.785,50.988L57.785,50.988z"/>
	<path style="&st6;" d="M42.235,78.09c0-1.607,1.295-2.908,2.893-2.908c1.598,0,2.892,1.301,2.892,2.908
		c0,1.604-1.294,2.904-2.892,2.904C43.53,80.994,42.235,79.693,42.235,78.09L42.235,78.09z M48.119,85.233h-1.407v-2.718h-8.655
		v-1.39h10.062V85.233L48.119,85.233z M39.31,78.406c0-0.325,0.263-0.591,0.59-0.591c0.326,0,0.589,0.266,0.589,0.591
		c0,0.329-0.263,0.594-0.589,0.594C39.573,79,39.31,78.735,39.31,78.406L39.31,78.406z M39.336,78.237l-1.012,2.875L39.885,79
		 M40.464,78.237l1.011,2.875L39.912,79 M42.65,76.721c-0.146,0.795,1.332,0.785,1.206,1.213c-0.304,1.035,0.301,0.998,0.402,1.541
		c0,0-0.101,1.288,0.25,1.39c0.202-0.277,0.051-0.82,0.3-1.111c0.265-0.304,0.63-0.467,0.63-1.009c0-0.394-0.545-0.518-0.705-0.631
		c-0.176-0.129-0.502-0.23-0.728-0.23c0,0-0.578-1.111-0.402-1.313c0.199-0.174,0.502,0.253,0.627,0.253
		c0.262,0,0.313-0.529,0.727-0.529c0-0.127-0.024-0.519-0.099-0.556c-0.415,0-0.679,0.199-1.031-0.23
		C43.831,75.508,42.797,75.927,42.65,76.721L42.65,76.721z M46.03,75.293c-0.323-0.123-0.816-0.073-0.816-0.073
		c0.427,0.202,0.401,0.769,0.578,0.769c0.352,0,0.527-0.289,0.879-0.352C46.671,75.637,46.354,75.419,46.03,75.293L46.03,75.293z
		 M47.993,77.516c0-0.727-0.969-1.627-0.969-1.627s-0.479,0.883-0.253,1.794c0.226,0.022,0.879-0.052,0.879-0.052
		c0.165,0.074,0.1,0.341,0.1,0.503c0,0.405-0.125,1.44-0.125,1.44S47.993,78.244,47.993,77.516L47.993,77.516z"/>
	<polygon style="&st12;" points="38.853,69.823 38.558,70.46 37.877,70.542 38.375,71.013 38.24,71.693 38.844,71.361 
		39.459,71.699 39.34,71.007 39.824,70.542 39.143,70.447 	"/>
	<line style="&st13;" x1="50.86" y1="71.85" x2="50.86" y2="89.133"/>
	<path style="&st8;" d="M53.356,80.256l-0.743,0.846c-0.098,0.114-0.048,0.896,0.003,1.12c0.587,0.236,8.902,2.853,8.902,2.853
		l3.382-3.688l-0.529-0.226c-0.149-0.243,0.33-1.055,0.33-1.055l-1.638-0.646 M61.523,83.437c-0.133,0.108-0.101,1.491,0.006,1.645
		c0.006,0,3.372-3.693,3.372-3.693l-0.349-0.318c-0.029-0.331,0.06-0.932,0.06-0.932L61.523,83.437L61.523,83.437z M61.209,81.166
		c-0.14,0.063-0.222,1.874-0.033,1.885c0-0.001,2.778-3.154,2.778-3.154l-0.271-0.152L61.209,81.166L61.209,81.166z"/>
	<path style="&st10;" d="M54.373,78.773l-0.869,0.887c-0.125,0.066-0.029,0.896,0,1.129c0.304,0.085,7.667,2.271,7.667,2.271
		l2.771-3.188l-0.879-0.315"/>
	<path style="&st6;" d="M62.413,74.158v5.28c-0.721-0.174-3.429-0.521-3.705-0.09c-0.226-0.431-2.403-0.237-3.71,0.054v-5.081
		c-0.165,0.736-0.665,1.004-0.665,1.004v4.477l3.859-0.277c0.427,0.277,0.917,0.101,1.08,0.025l3.705,0.119v-5.013
		C62.978,74.656,62.612,74.625,62.413,74.158L62.413,74.158z M62.413,79.438c-0.788,0-3.14-0.634-3.693-0.078
		c0.502-0.012,0.516,0.314,0,0.328c-0.552-0.037-0.464-0.354,0-0.314c-0.477-0.62-3.714,0.127-3.714,0.127l-0.008-5.18
		c0.899,0,1.829-0.433,2.461-0.433s1.296,0.27,1.296,0.27s0.994-0.402,1.696-0.402c0.832,0,1.259,0.681,1.924,0.444
		C62.363,74.522,62.413,79.438,62.413,79.438L62.413,79.438z"/>
	<line style="&st12;" x1="58.745" y1="74.165" x2="58.713" y2="79.344"/>
	<path style="&st1;" d="M54.889,81.216l-0.279,0.28c-0.127,0.148-0.129,1.315,0.003,1.375c-0.003,0.019,0.602,0.175,0.333,0.053
		c-0.057-0.374-0.035-1.183,0.067-1.299l0.303-0.296L54.889,81.216L54.889,81.216z M55.856,81.494l-0.264,0.283
		c-0.129,0.146-0.182,1.343-0.049,1.403c-0.004,0.021,0.653,0.143,0.385,0.02c-0.06-0.375-0.036-1.184,0.065-1.298l0.28-0.28
		L55.856,81.494L55.856,81.494z M58.206,82.189l-0.315,0.331c-0.127,0.147-0.195,1.286-0.063,1.345
		c-0.003,0.021,0.667,0.202,0.398,0.079c-0.057-0.372-0.033-1.182,0.067-1.298l0.34-0.344L58.206,82.189L58.206,82.189z
		 M59.099,82.467L58.783,82.8c-0.129,0.146-0.183,1.294-0.051,1.354c-0.003,0.02,0.655,0.192,0.386,0.073
		c-0.059-0.378-0.034-1.185,0.066-1.301l0.341-0.344L59.099,82.467L59.099,82.467z M54.888,79.771l-0.21,0.215
		c-0.098,0.113-0.117,1.088-0.016,1.138c-0.002,0.017,0.274,0.109,0.314,0.094c0.042-0.001-0.024-0.101-0.043-0.147
		c-0.044-0.286-0.026-0.899,0.051-0.987l0.229-0.224L54.888,79.771L54.888,79.771z"/>
	<path style="&st6;" d="M58.757,74.117c-1.004-0.025-1.278-0.826-1.278-0.826l0.39-0.018c0,0-0.491-0.299-0.382-0.591
		c-0.008-0.014,0.343,0.038,0.343,0.038s-0.148-0.402-0.014-0.667l0.312,0.13c0.09-0.535,0.644-0.658,0.644-0.658
		s0.515,0.067,0.665,0.658l0.313-0.13c0.134,0.265-0.011,0.667-0.011,0.667s0.35-0.051,0.341-0.038
		c0.109,0.292-0.382,0.591-0.382,0.591l0.392,0.018C60.089,73.291,59.761,74.093,58.757,74.117L58.757,74.117z"/>
	<line style="&st13;" x1="35.146" y1="66.967" x2="45.987" y2="66.967"/>
	<line style="&st3;" x1="55.778" y1="66.967" x2="66.531" y2="66.967"/>
	<polygon style="&st14;" points="50.875,62.962 54.333,69.042 47.389,69.042 	"/>
	<path style="&st6;" d="M50.847,65.968c1.251,0,2.339,1.029,2.324,1.192c0.012,0.153-1.075,1.184-2.324,1.184
		c-1.251,0-2.341-1.031-2.33-1.184C48.505,66.997,49.552,65.918,50.847,65.968L50.847,65.968z M49.679,67.158
		c0-0.648,0.522-1.172,1.166-1.172c0.643,0,1.165,0.525,1.165,1.172c0,0.646-0.522,1.169-1.165,1.169
		C50.202,68.326,49.679,67.803,49.679,67.158L49.679,67.158z"/>
	<path style="&st5;" d="M50.699,67.158c0-0.082,0.065-0.148,0.147-0.148c0.079,0,0.145,0.066,0.145,0.148
		c0,0.08-0.065,0.146-0.145,0.146C50.764,67.303,50.699,67.237,50.699,67.158L50.699,67.158z"/>
	<path style="&st6;" d="M50.879,62.833c-2.284,0-4.154,1.868-4.154,4.162c0,2.296,1.853,4.158,4.136,4.158
		c2.286,0,4.137-1.862,4.137-4.158c0-2.064-1.498-3.775-3.462-4.101c-0.731,0.053-0.768-0.213-0.793-0.351
		c-0.067-0.375,0.419-0.594,0.767-0.594c0.604,0,0.551,0.354,0.914,0.429c1.922,0.654,3.306,2.482,3.306,4.633
		c0,2.701-2.179,4.89-4.867,4.89c-2.687,0-4.866-2.189-4.866-4.89c0-2.701,2.02-4.783,4.734-4.582
		C50.688,62.607,50.879,62.833,50.879,62.833L50.879,62.833z"/>
	<polygon style="&st4;" points="50.855,28.391 49.366,31.4 46.001,31.888 48.427,34.294 47.926,37.556 50.855,36.067 53.784,37.556 
		53.245,34.264 55.594,31.96 52.368,31.433 	"/>
	<path style="&st7;" d="M50.855,28.5v7.567 M46.117,31.959l7.128,2.304 M47.926,37.556l4.439-6.123 M53.784,37.556L49.367,31.4
		 M55.594,31.96l-7.167,2.336"/>
	<path style="&st4;" d="M48.387,34.324l-10.078,3.322 M63.354,29.392L55.6,31.948 M49.357,31.393l-6.225-8.589 M59.528,45.599
		l-5.8-8.064 M52.371,31.422l6.195-8.655 M42.047,45.599l5.871-8.064 M46.085,31.949l-7.739-2.557 M63.318,37.646l-10.034-3.361
		 M50.855,20.251v8.443"/>
	<path style="&st7;" d="M48.251,35.478l-4.141,2.995 M57.617,28.613l-4.073,2.974 M49.882,36.586l-1.586,4.908 M53.464,25.513
		l-1.575,4.868 M51.854,36.591l1.577,4.871 M48.259,25.469l1.601,4.951 M53.43,35.408l4.113,3.003 M44.036,28.551l4.104,2.996
		 M54.054,33.54l5.187,0.001 M42.507,33.54h5.107"/>
	<path style="&st6;" d="M59.362,55.991c0.227,0.337,0.691,1.123,0.677,1.123c0,0-1.092,0.076-1.481-0.29
		c-0.085-0.129-0.742-1.191-0.742-1.191S59.135,55.652,59.362,55.991L59.362,55.991z M39.269,50.311l-1.935,4.45l3.871,0.011
		L39.269,50.311L39.269,50.311z M45.021,54.776c0,1.063,0.878,1.926,1.962,1.926c1.084,0,1.961-0.863,1.961-1.926H45.021
		L45.021,54.776z M46.986,50.311l1.933,4.45l-3.87,0.011L46.986,50.311L46.986,50.311z M42.536,62.164l1.157-0.542 M42.5,61.42
		l1.156-0.544"/>
	<path style="&st12;" d="M43.079,50.234h-3.809v-0.455h3.77L43.079,50.234L43.079,50.234z M43.14,49.779h3.833v0.455h-3.808
		L43.14,49.779L43.14,49.779z M55.995,75.298c0.526-0.015,1.208-0.54,1.964-0.286 M55.99,75.876
		c0.526-0.015,1.212-0.515,1.968-0.259 M55.984,76.455c0.528-0.016,1.217-0.491,1.974-0.237 M55.981,77.034
		c0.527-0.017,1.219-0.468,1.976-0.212 M55.977,77.612c0.528-0.016,1.224-0.441,1.979-0.188 M55.973,78.189
		c0.526-0.017,1.227-0.418,1.982-0.161 M61.506,75.129c-0.527-0.017-1.231-0.371-1.987-0.117 M61.507,75.738
		c-0.527-0.018-1.232-0.377-1.987-0.121 M61.507,76.348c-0.527-0.018-1.231-0.384-1.986-0.13 M61.507,76.957
		c-0.527-0.017-1.231-0.391-1.985-0.135 M61.507,77.566c-0.526-0.02-1.23-0.396-1.985-0.143 M61.508,78.175
		c-0.527-0.018-1.23-0.403-1.986-0.146"/>
	<polygon style="&st6;" points="50.875,62.962 54.333,69.042 47.389,69.042 	"/>
	<path style="&st1;" d="M55.626,79.95l-0.211,0.213c-0.097,0.112-0.116,1.089-0.016,1.136c0.048,0.027,0.276,0.133,0.313,0.12
		c0.04,0-0.03-0.125-0.043-0.172c-0.044-0.286-0.026-0.898,0.051-0.988l0.229-0.225L55.626,79.95L55.626,79.95z"/>
	<polygon style="&st11;" points="50.509,36.067 51.141,36.067 51.141,61.873 50.848,62.271 50.728,62.429 50.532,62.294 	"/>
	<path style="&st1;" d="M58.626,80.813l-0.211,0.215c-0.097,0.113-0.116,1.09-0.016,1.137c-0.002,0.017,0.276,0.109,0.314,0.096
		c0.041-0.002-0.023-0.102-0.043-0.15c-0.044-0.282-0.027-0.898,0.051-0.983l0.229-0.225L58.626,80.813L58.626,80.813z
		 M59.365,80.99l-0.211,0.215c-0.098,0.112-0.117,1.09-0.016,1.136c0.048,0.026,0.275,0.135,0.314,0.121
		c0.041-0.003-0.031-0.126-0.044-0.173c-0.043-0.284-0.024-0.899,0.051-0.987l0.23-0.227L59.365,80.99L59.365,80.99z"/>
</g>
<g>
	<path style="&st2;" d="M122.62,58.075h3.851v7.289h-3.851V86.08c-0.861,7.319-5.622,12.795-13.332,12.492v-7.284
		c3.285,0.109,5.242-1.144,5.584-5.036l0.021-20.888h-3.632v-7.288h3.632l0.001-4.901c0.182-7.72,4.917-13.396,13.461-12.415v7.223
		c-3.655-0.29-5.702,1.197-5.737,5.25L122.62,58.075L122.62,58.075z"/>
	<path style="&st9;" d="M172.727,98.487V40.625 M77.538,98.487V40.614"/>
	<path style="&st11;" d="M85.231,58.191c0-4.135,2.049-5.648,5.738-5.357v-7.223c-8.606-0.991-13.349,4.776-13.465,12.58v6.815
		v23.062h7.727V65.006h5.445v-6.815H85.231L85.231,58.191z"/>
	<path style="&st11;" d="M104.254,88.068h6.03v-7.454h-5.387c-4.861,0-7.962-3.319-7.962-7.572c0-4.251,3.103-7.571,7.962-7.571
		h5.387v-7.396h-6.03c-9.191,0-15.047,6.582-15.047,14.967C89.207,81.428,95.063,88.068,104.254,88.068L104.254,88.068z"/>
	<path style="&st11;" d="M172.632,70.729c0-7.859-4.974-13.39-13.402-13.39c-3.92,0-7.315,1.63-9.597,4.25
		c-2.165-2.62-5.501-4.25-9.6-4.25c-8.251,0-13.579,5.763-13.579,13.39v17.353h7.726V70.556c0-3.376,2.402-5.706,5.853-5.706
		c5.092,0,5.62,4.017,5.62,5.706v17.526h7.725V70.556c0-3.376,2.457-5.706,5.852-5.706c5.093,0,5.678,4.017,5.678,5.706v17.526
		h7.725V70.729L172.632,70.729z"/>
</g>
<g>
	<path style="&st11;" d="M77.571,125.414v3.426c0,0.275,0.038,0.537,0.113,0.787c0.081,0.244,0.204,0.459,0.368,0.645
		c0.172,0.184,0.387,0.333,0.648,0.441c0.266,0.106,0.587,0.158,0.957,0.158c0.376,0,0.696-0.052,0.956-0.158
		c0.266-0.108,0.482-0.258,0.649-0.441c0.169-0.186,0.293-0.4,0.369-0.645c0.081-0.25,0.12-0.512,0.12-0.787v-3.426h-0.513v3.313
		c0,0.31-0.034,0.574-0.104,0.794c-0.07,0.215-0.171,0.393-0.307,0.533c-0.137,0.133-0.302,0.233-0.498,0.298
		c-0.195,0.059-0.419,0.089-0.67,0.089c-0.247,0-0.468-0.03-0.665-0.089c-0.196-0.064-0.36-0.164-0.496-0.298
		c-0.136-0.141-0.238-0.318-0.31-0.533c-0.07-0.22-0.104-0.484-0.104-0.794v-3.313H77.571L77.571,125.414z"/>
	<polygon style="&st11;" points="83.324,125.414 83.324,130.764 83.836,130.764 83.836,126.241 83.851,126.241 86.986,130.764 
		87.559,130.764 87.559,125.414 87.045,125.414 87.045,129.942 87.031,129.942 83.896,125.414 	"/>
	<polygon style="&st11;" points="89.22,125.414 89.22,130.764 89.732,130.764 89.732,125.414 	"/>
	<polygon style="&st11;" points="90.816,125.414 92.806,130.764 93.399,130.764 95.396,125.414 94.855,125.414 93.121,130.203 
		93.105,130.203 91.359,125.414 	"/>
	<polygon style="&st11;" points="96.419,125.414 96.419,130.764 100.17,130.764 100.17,130.331 96.931,130.331 96.931,128.22 
		99.931,128.22 99.931,127.784 96.931,127.784 96.931,125.851 100.133,125.851 100.133,125.414 	"/>
	<path style="&st11;" d="M101.945,127.955v-2.104h1.913c0.395,0,0.685,0.093,0.876,0.286c0.19,0.188,0.287,0.449,0.287,0.778
		c0,0.165-0.033,0.312-0.101,0.442c-0.06,0.124-0.142,0.231-0.248,0.32c-0.106,0.09-0.229,0.16-0.367,0.209
		c-0.142,0.048-0.29,0.068-0.447,0.068H101.945L101.945,127.955z M101.435,125.414v5.35h0.511v-2.375h1.944
		c0.241-0.008,0.43,0.031,0.564,0.121c0.143,0.088,0.244,0.209,0.316,0.358c0.076,0.146,0.122,0.315,0.143,0.504
		c0.025,0.186,0.043,0.372,0.055,0.562c0.004,0.057,0.01,0.121,0.016,0.194c0.005,0.075,0.011,0.153,0.014,0.231
		c0.01,0.075,0.024,0.151,0.037,0.228c0.021,0.068,0.045,0.128,0.076,0.177h0.564c-0.057-0.063-0.1-0.151-0.135-0.269
		c-0.03-0.121-0.054-0.244-0.068-0.373c-0.017-0.136-0.024-0.269-0.029-0.399c-0.004-0.13-0.01-0.236-0.014-0.329
		c-0.011-0.159-0.033-0.308-0.07-0.441c-0.032-0.14-0.083-0.262-0.159-0.369c-0.067-0.104-0.163-0.191-0.278-0.254
		c-0.113-0.069-0.26-0.118-0.438-0.142v-0.015c0.348-0.071,0.608-0.23,0.784-0.482c0.176-0.249,0.265-0.543,0.265-0.883
		c0-0.24-0.046-0.447-0.136-0.624c-0.086-0.179-0.201-0.323-0.355-0.434c-0.144-0.115-0.316-0.199-0.518-0.255
		c-0.195-0.054-0.406-0.082-0.627-0.082L101.435,125.414L101.435,125.414z"/>
	<path style="&st11;" d="M107.249,129.002h-0.514c-0.014,0.334,0.028,0.615,0.128,0.852c0.104,0.233,0.253,0.425,0.443,0.576
		c0.191,0.149,0.422,0.264,0.695,0.335c0.27,0.071,0.563,0.107,0.881,0.107c0.315,0,0.589-0.032,0.814-0.091
		c0.225-0.055,0.414-0.127,0.563-0.218c0.156-0.094,0.275-0.2,0.361-0.315c0.093-0.114,0.158-0.227,0.202-0.336
		c0.052-0.117,0.083-0.223,0.093-0.322c0.014-0.099,0.021-0.178,0.021-0.239c0-0.222-0.038-0.406-0.115-0.563
		c-0.069-0.154-0.169-0.285-0.301-0.39c-0.126-0.109-0.273-0.198-0.444-0.27c-0.164-0.076-0.344-0.138-0.536-0.187l-1.309-0.323
		c-0.11-0.025-0.217-0.057-0.314-0.097c-0.097-0.04-0.184-0.091-0.259-0.157c-0.075-0.063-0.134-0.143-0.18-0.231
		c-0.041-0.098-0.059-0.208-0.059-0.332c0-0.198,0.036-0.366,0.111-0.5c0.075-0.136,0.173-0.244,0.294-0.323
		c0.127-0.084,0.269-0.144,0.429-0.182c0.164-0.04,0.338-0.059,0.513-0.059c0.191,0,0.37,0.026,0.542,0.084
		c0.176,0.05,0.329,0.125,0.46,0.231c0.135,0.099,0.242,0.23,0.324,0.384c0.084,0.15,0.132,0.324,0.142,0.531h0.513
		c0-0.274-0.055-0.516-0.164-0.719c-0.105-0.212-0.249-0.385-0.429-0.524c-0.183-0.141-0.393-0.247-0.634-0.314
		c-0.242-0.072-0.495-0.104-0.761-0.104c-0.38,0-0.686,0.053-0.929,0.163c-0.237,0.104-0.43,0.235-0.57,0.389
		c-0.136,0.157-0.228,0.321-0.278,0.494c-0.05,0.177-0.076,0.326-0.076,0.458c0,0.21,0.033,0.387,0.098,0.531
		c0.07,0.147,0.162,0.269,0.273,0.368c0.11,0.097,0.237,0.178,0.382,0.239c0.151,0.059,0.304,0.11,0.46,0.149l1.198,0.291
		c0.125,0.031,0.252,0.07,0.383,0.121c0.13,0.045,0.249,0.104,0.354,0.181c0.111,0.076,0.198,0.167,0.265,0.276
		c0.07,0.111,0.106,0.238,0.106,0.389c0,0.196-0.049,0.36-0.145,0.502c-0.094,0.137-0.216,0.249-0.361,0.339
		c-0.14,0.085-0.293,0.148-0.458,0.188c-0.167,0.04-0.32,0.058-0.461,0.058c-0.244,0-0.477-0.021-0.692-0.066
		c-0.218-0.05-0.405-0.13-0.565-0.239c-0.156-0.109-0.278-0.255-0.369-0.441C107.286,129.51,107.244,129.277,107.249,129.002
		L107.249,129.002z"/>
	<polygon style="&st11;" points="112.339,125.414 112.339,130.764 112.851,130.764 112.851,125.414 	"/>
	<path style="&st11;" d="M114.521,125.414v5.35h1.857c0.821-0.017,1.437-0.244,1.848-0.68c0.417-0.44,0.625-1.104,0.625-1.994
		c0-0.89-0.208-1.55-0.625-1.986c-0.411-0.438-1.026-0.668-1.848-0.689H114.521L114.521,125.414z M115.031,130.331v-4.48h1.094
		c0.387,0,0.718,0.043,0.996,0.125c0.28,0.081,0.512,0.21,0.693,0.391c0.179,0.181,0.311,0.411,0.396,0.696
		c0.089,0.285,0.133,0.628,0.133,1.027c0,0.402-0.044,0.743-0.133,1.028c-0.085,0.284-0.217,0.517-0.396,0.694
		c-0.182,0.183-0.413,0.313-0.693,0.397c-0.278,0.08-0.609,0.121-0.996,0.121H115.031L115.031,130.331z"/>
	<path style="&st11;" d="M120.99,128.668l1.077-2.742l1.037,2.742H120.99L120.99,128.668z M121.803,125.414l-2.161,5.35h0.543
		l0.648-1.66h2.448l0.654,1.66h0.552l-2.11-5.35H121.803L121.803,125.414z"/>
	<path style="&st11;" d="M125.523,125.414v5.35h1.859c0.819-0.017,1.437-0.244,1.848-0.68c0.415-0.44,0.623-1.104,0.623-1.994
		c0-0.89-0.208-1.55-0.623-1.986c-0.411-0.438-1.028-0.668-1.848-0.689H125.523L125.523,125.414z M126.034,130.331v-4.48h1.096
		c0.384,0,0.716,0.043,0.993,0.125c0.28,0.081,0.51,0.21,0.692,0.391c0.181,0.181,0.313,0.411,0.398,0.696s0.128,0.628,0.128,1.027
		c0,0.402-0.044,0.743-0.128,1.028c-0.084,0.284-0.218,0.517-0.398,0.694c-0.183,0.183-0.412,0.313-0.692,0.397
		c-0.276,0.08-0.609,0.121-0.993,0.121H126.034L126.034,130.331z"/>
	<path style="&st11;" d="M135.763,125.414v5.35h1.86c0.818-0.017,1.435-0.244,1.847-0.68c0.417-0.44,0.624-1.104,0.624-1.994
		c0-0.89-0.207-1.55-0.624-1.986c-0.412-0.438-1.028-0.668-1.847-0.689H135.763L135.763,125.414z M136.274,130.331v-4.48h1.095
		c0.385,0,0.717,0.043,0.993,0.125c0.281,0.081,0.512,0.21,0.691,0.391c0.181,0.181,0.315,0.411,0.401,0.696
		c0.085,0.285,0.127,0.628,0.127,1.027c0,0.402-0.043,0.743-0.127,1.028c-0.085,0.284-0.221,0.517-0.401,0.694
		c-0.18,0.183-0.41,0.313-0.691,0.397c-0.276,0.08-0.608,0.121-0.993,0.121H136.274L136.274,130.331z"/>
	<polygon style="&st11;" points="141.471,125.414 141.471,130.764 145.224,130.764 145.224,130.331 141.983,130.331 141.983,128.22 
		144.982,128.22 144.982,127.784 141.983,127.784 141.983,125.851 145.186,125.851 145.186,125.414 	"/>
	<path style="&st11;" d="M154.95,127.033h0.516c-0.037-0.279-0.122-0.526-0.258-0.739c-0.132-0.216-0.298-0.396-0.498-0.541
		c-0.196-0.152-0.418-0.265-0.662-0.339c-0.243-0.074-0.489-0.109-0.746-0.109c-0.422,0-0.793,0.075-1.114,0.23
		c-0.315,0.15-0.579,0.356-0.791,0.613c-0.21,0.256-0.369,0.551-0.476,0.885c-0.105,0.335-0.158,0.688-0.158,1.057
		s0.053,0.724,0.158,1.056c0.106,0.337,0.266,0.634,0.476,0.888c0.212,0.255,0.476,0.457,0.791,0.613
		c0.321,0.15,0.692,0.226,1.114,0.226c0.316,0,0.602-0.053,0.858-0.149c0.262-0.103,0.488-0.245,0.678-0.428
		c0.19-0.185,0.349-0.412,0.469-0.673c0.118-0.267,0.195-0.563,0.232-0.893h-0.513c-0.024,0.239-0.083,0.464-0.171,0.675
		c-0.092,0.205-0.21,0.382-0.355,0.539c-0.146,0.155-0.317,0.276-0.521,0.367c-0.198,0.09-0.426,0.133-0.677,0.133
		c-0.354,0-0.663-0.066-0.918-0.199c-0.256-0.135-0.467-0.313-0.635-0.534c-0.159-0.223-0.28-0.477-0.36-0.756
		c-0.075-0.284-0.114-0.572-0.114-0.862c0-0.294,0.039-0.58,0.114-0.861c0.08-0.278,0.201-0.528,0.36-0.749
		c0.168-0.224,0.379-0.404,0.635-0.539c0.255-0.135,0.563-0.201,0.918-0.201c0.196,0,0.382,0.03,0.557,0.089
		c0.183,0.057,0.345,0.137,0.492,0.248c0.149,0.107,0.276,0.249,0.377,0.411C154.831,126.646,154.905,126.83,154.95,127.033
		L154.95,127.033z"/>
	<polygon style="&st11;" points="156.871,125.414 156.871,130.764 157.383,130.764 157.383,128.173 160.575,128.173 
		160.575,130.764 161.089,130.764 161.089,125.414 160.575,125.414 160.575,127.737 157.383,127.737 157.383,125.414 	"/>
	<polygon style="&st11;" points="162.76,125.414 162.76,130.764 163.271,130.764 163.271,125.414 	"/>
	<polygon style="&st11;" points="164.941,125.414 164.941,130.764 168.467,130.764 168.467,130.331 165.453,130.331 
		165.453,125.414 	"/>
	<polygon style="&st11;" points="169.535,125.414 169.535,130.764 173.287,130.764 173.287,130.331 170.049,130.331 170.049,128.22 
		173.045,128.22 173.045,127.784 170.049,127.784 170.049,125.851 173.249,125.851 173.249,125.414 	"/>
	<polygon style="&st11;" points="77.625,117.547 77.625,122.896 78.135,122.896 78.135,120.349 80.712,120.349 80.712,119.912 
		78.135,119.912 78.135,117.98 81.037,117.98 81.037,117.547 	"/>
	<path style="&st11;" d="M82.274,117.121l0.995-1.059h-0.587l-0.79,1.059H82.274L82.274,117.121z M82.078,117.547v5.35h0.513v-5.35
		H82.078L82.078,117.547z"/>
	<path style="&st11;" d="M84.326,121.137h-0.511c-0.016,0.329,0.026,0.61,0.126,0.847c0.105,0.236,0.254,0.426,0.445,0.577
		c0.191,0.148,0.422,0.261,0.693,0.336c0.271,0.069,0.564,0.104,0.882,0.104c0.316,0,0.588-0.029,0.814-0.087
		c0.226-0.057,0.413-0.127,0.563-0.22c0.157-0.094,0.276-0.198,0.363-0.313c0.091-0.115,0.158-0.227,0.204-0.336
		c0.049-0.114,0.08-0.227,0.089-0.324c0.016-0.099,0.023-0.181,0.023-0.238c0-0.222-0.039-0.408-0.112-0.563
		c-0.071-0.154-0.172-0.286-0.304-0.389c-0.124-0.109-0.272-0.202-0.443-0.272c-0.166-0.074-0.346-0.136-0.535-0.188l-1.311-0.32
		c-0.111-0.024-0.215-0.056-0.316-0.097c-0.095-0.04-0.181-0.091-0.257-0.159c-0.075-0.065-0.135-0.144-0.18-0.232
		c-0.041-0.094-0.059-0.204-0.059-0.329c0-0.201,0.036-0.367,0.111-0.502c0.077-0.134,0.174-0.242,0.294-0.321
		c0.126-0.088,0.269-0.146,0.43-0.179c0.164-0.04,0.336-0.06,0.51-0.06c0.192,0,0.374,0.024,0.544,0.081
		c0.174,0.05,0.33,0.126,0.458,0.233c0.136,0.099,0.243,0.229,0.324,0.382c0.086,0.148,0.133,0.325,0.143,0.529h0.512
		c0-0.272-0.055-0.512-0.164-0.717c-0.105-0.211-0.248-0.385-0.431-0.525c-0.182-0.141-0.391-0.247-0.632-0.314
		c-0.243-0.069-0.495-0.104-0.761-0.104c-0.378,0-0.686,0.055-0.927,0.163c-0.24,0.106-0.431,0.236-0.572,0.391
		c-0.136,0.153-0.229,0.319-0.278,0.494c-0.05,0.174-0.075,0.327-0.075,0.457c0,0.209,0.032,0.387,0.098,0.531
		c0.07,0.146,0.161,0.269,0.272,0.365c0.109,0.102,0.237,0.183,0.383,0.239c0.15,0.061,0.305,0.112,0.459,0.152l1.197,0.295
		c0.126,0.025,0.254,0.067,0.385,0.117c0.13,0.045,0.249,0.107,0.355,0.181c0.11,0.073,0.196,0.168,0.263,0.276
		c0.069,0.11,0.104,0.242,0.104,0.39c0,0.194-0.047,0.361-0.143,0.503c-0.095,0.132-0.214,0.246-0.362,0.335
		c-0.139,0.085-0.293,0.147-0.459,0.188c-0.166,0.041-0.318,0.06-0.46,0.06c-0.245,0-0.477-0.021-0.693-0.066
		c-0.216-0.049-0.403-0.13-0.564-0.239c-0.156-0.108-0.278-0.256-0.371-0.442C84.364,121.642,84.321,121.411,84.326,121.137
		L84.326,121.137z"/>
	<polygon style="&st11;" points="89.242,117.547 89.242,122.896 89.754,122.896 89.754,117.547 	"/>
	<path style="&st11;" d="M95.179,119.164h0.512c-0.034-0.278-0.12-0.528-0.255-0.741c-0.13-0.217-0.296-0.396-0.497-0.538
		c-0.196-0.151-0.417-0.266-0.662-0.34c-0.242-0.074-0.49-0.111-0.749-0.111c-0.42,0-0.792,0.075-1.112,0.232
		c-0.317,0.148-0.581,0.354-0.791,0.613c-0.212,0.256-0.37,0.553-0.477,0.885c-0.105,0.336-0.158,0.688-0.158,1.059
		c0,0.368,0.053,0.721,0.158,1.055c0.106,0.336,0.264,0.631,0.477,0.884c0.21,0.258,0.474,0.463,0.791,0.615
		c0.319,0.151,0.691,0.224,1.112,0.224c0.317,0,0.604-0.047,0.861-0.147c0.261-0.101,0.487-0.242,0.678-0.427
		c0.189-0.187,0.345-0.409,0.466-0.672c0.121-0.267,0.198-0.564,0.235-0.896h-0.514c-0.025,0.241-0.082,0.465-0.172,0.675
		c-0.09,0.205-0.209,0.386-0.355,0.541c-0.144,0.155-0.317,0.274-0.519,0.367c-0.201,0.087-0.427,0.133-0.679,0.133
		c-0.354,0-0.662-0.066-0.917-0.201c-0.256-0.134-0.466-0.312-0.633-0.532c-0.162-0.223-0.281-0.476-0.361-0.757
		c-0.077-0.282-0.114-0.571-0.114-0.859c0-0.297,0.037-0.584,0.114-0.863c0.08-0.28,0.199-0.527,0.361-0.751
		c0.166-0.222,0.377-0.404,0.633-0.537c0.256-0.135,0.563-0.202,0.917-0.202c0.198,0,0.383,0.029,0.56,0.09
		c0.181,0.055,0.343,0.138,0.489,0.245c0.151,0.114,0.277,0.25,0.378,0.415C95.059,118.777,95.136,118.962,95.179,119.164
		L95.179,119.164z"/>
	<path style="&st11;" d="M97.684,120.8l1.077-2.744l1.042,2.744H97.684L97.684,120.8z M98.499,117.547l-2.163,5.35h0.543
		l0.647-1.662h2.449l0.654,1.662h0.552l-2.11-5.35H98.499L98.499,117.547z"/>
	<path style="&st11;" d="M102.281,121.137h-0.511c-0.016,0.329,0.025,0.61,0.128,0.847c0.104,0.236,0.252,0.426,0.445,0.577
		c0.189,0.148,0.421,0.261,0.692,0.336c0.27,0.069,0.564,0.104,0.88,0.104c0.317,0,0.588-0.029,0.814-0.087
		c0.228-0.057,0.416-0.127,0.565-0.22c0.156-0.094,0.276-0.198,0.362-0.313c0.089-0.115,0.156-0.227,0.201-0.336
		c0.051-0.114,0.08-0.227,0.091-0.324c0.016-0.099,0.022-0.181,0.022-0.238c0-0.222-0.039-0.408-0.113-0.563
		c-0.07-0.154-0.171-0.286-0.301-0.389c-0.126-0.109-0.273-0.202-0.444-0.272c-0.167-0.074-0.346-0.136-0.535-0.188l-1.312-0.32
		c-0.111-0.024-0.216-0.056-0.316-0.097c-0.096-0.04-0.18-0.091-0.256-0.159c-0.074-0.063-0.135-0.144-0.182-0.232
		c-0.038-0.094-0.059-0.204-0.059-0.329c0-0.201,0.039-0.367,0.113-0.502c0.075-0.134,0.174-0.242,0.293-0.321
		c0.127-0.088,0.269-0.146,0.43-0.179c0.165-0.04,0.336-0.06,0.515-0.06c0.189,0,0.37,0.024,0.54,0.081
		c0.178,0.05,0.33,0.126,0.459,0.233c0.136,0.099,0.242,0.229,0.324,0.382c0.086,0.148,0.132,0.325,0.144,0.529h0.513
		c0-0.272-0.055-0.512-0.167-0.717c-0.104-0.211-0.248-0.385-0.428-0.525s-0.391-0.247-0.634-0.314
		c-0.239-0.069-0.496-0.104-0.76-0.104c-0.379,0-0.688,0.055-0.928,0.163c-0.239,0.106-0.433,0.236-0.573,0.391
		c-0.134,0.153-0.227,0.319-0.278,0.494c-0.049,0.174-0.075,0.327-0.075,0.457c0,0.209,0.033,0.387,0.101,0.531
		c0.067,0.146,0.158,0.269,0.27,0.365c0.11,0.102,0.238,0.183,0.384,0.239c0.148,0.061,0.302,0.112,0.46,0.152l1.198,0.295
		c0.123,0.025,0.253,0.067,0.384,0.117c0.129,0.045,0.247,0.107,0.353,0.181c0.11,0.073,0.2,0.168,0.262,0.276
		c0.075,0.11,0.106,0.242,0.106,0.39c0,0.194-0.045,0.361-0.143,0.503c-0.095,0.132-0.216,0.246-0.36,0.335
		c-0.14,0.085-0.295,0.147-0.459,0.188c-0.167,0.041-0.318,0.06-0.461,0.06c-0.244,0-0.477-0.021-0.691-0.066
		c-0.217-0.049-0.404-0.13-0.564-0.239c-0.155-0.108-0.278-0.256-0.37-0.442C102.319,121.642,102.278,121.411,102.281,121.137
		L102.281,121.137z"/>
	<polygon style="&st11;" points="112.312,120.693 112.312,122.896 112.824,122.896 112.824,120.693 114.948,117.547 
		114.337,117.547 112.573,120.258 110.805,117.547 110.201,117.547 	"/>
	<polygon style="&st11;" points="119.425,117.547 119.425,122.896 119.937,122.896 119.937,118.275 119.952,118.275 
		121.798,122.896 122.281,122.896 124.119,118.275 124.132,118.275 124.132,122.896 124.646,122.896 124.646,117.547 
		123.894,117.547 122.038,122.237 120.18,117.547 	"/>
	<path style="&st11;" d="M126.848,120.8l1.078-2.744l1.039,2.744H126.848L126.848,120.8z M127.662,117.547l-2.164,5.35h0.543
		l0.649-1.662h2.445l0.657,1.662h0.552l-2.11-5.35H127.662L127.662,117.547z"/>
	<polygon style="&st11;" points="130.119,117.547 130.119,117.98 131.988,117.98 131.988,122.896 132.501,122.896 132.501,117.98 
		134.376,117.98 134.376,117.547 	"/>
	<polygon style="&st11;" points="135.254,117.547 135.254,122.896 139.003,122.896 139.003,122.463 135.766,122.463 
		135.766,120.349 138.765,120.349 138.765,119.912 135.766,119.912 135.766,117.98 138.969,117.98 138.969,117.547 	"/>
	<polygon style="&st11;" points="140.076,117.547 140.076,122.896 140.591,122.896 140.591,118.275 140.605,118.275 142.45,122.896 
		142.931,122.896 144.772,118.275 144.786,118.275 144.786,122.896 145.3,122.896 145.3,117.547 144.545,117.547 142.691,122.237 
		140.831,117.547 	"/>
	<path style="&st11;" d="M148.511,117.121l0.992-1.059h-0.586l-0.791,1.059H148.511L148.511,117.121z M147.502,120.8l1.077-2.744
		l1.039,2.744H147.502L147.502,120.8z M148.314,117.547l-2.163,5.35h0.544l0.647-1.662h2.447l0.656,1.662h0.553l-2.112-5.35H148.314
		L148.314,117.547z"/>
	<polygon style="&st11;" points="151.283,117.547 151.283,117.98 153.152,117.98 153.152,122.896 153.665,122.896 153.665,117.98 
		155.541,117.98 155.541,117.547 	"/>
	<polygon style="&st11;" points="156.458,117.547 156.458,122.896 156.969,122.896 156.969,117.547 	"/>
	<path style="&st11;" d="M162.395,119.164h0.513c-0.034-0.278-0.119-0.528-0.255-0.741c-0.132-0.217-0.296-0.396-0.497-0.538
		c-0.195-0.151-0.416-0.266-0.665-0.34c-0.241-0.074-0.489-0.111-0.743-0.111c-0.422,0-0.794,0.075-1.115,0.232
		c-0.316,0.148-0.581,0.354-0.791,0.613c-0.211,0.256-0.371,0.553-0.475,0.885c-0.104,0.336-0.16,0.688-0.16,1.059
		c0,0.368,0.056,0.721,0.16,1.055c0.104,0.336,0.264,0.631,0.475,0.884c0.21,0.258,0.475,0.463,0.791,0.615
		c0.321,0.151,0.694,0.224,1.115,0.224c0.314,0,0.601-0.047,0.858-0.147c0.26-0.101,0.486-0.242,0.676-0.427
		c0.191-0.187,0.347-0.409,0.469-0.672c0.12-0.267,0.198-0.564,0.232-0.896h-0.512c-0.025,0.241-0.084,0.465-0.173,0.675
		c-0.091,0.205-0.209,0.386-0.354,0.541c-0.147,0.155-0.319,0.274-0.521,0.367c-0.202,0.087-0.427,0.133-0.676,0.133
		c-0.358,0-0.665-0.066-0.921-0.201c-0.256-0.134-0.466-0.312-0.634-0.532c-0.159-0.223-0.279-0.476-0.361-0.757
		c-0.076-0.282-0.113-0.571-0.113-0.859c0-0.297,0.037-0.584,0.113-0.863c0.082-0.28,0.202-0.527,0.361-0.751
		c0.168-0.222,0.378-0.404,0.634-0.537c0.256-0.135,0.563-0.202,0.921-0.202c0.195,0,0.381,0.029,0.556,0.09
		c0.182,0.055,0.344,0.138,0.49,0.245c0.152,0.114,0.276,0.25,0.378,0.415C162.274,118.777,162.351,118.962,162.395,119.164
		L162.395,119.164z"/>
	<path style="&st11;" d="M164.898,120.8l1.079-2.744l1.039,2.744H164.898L164.898,120.8z M165.712,117.547l-2.161,5.35h0.542
		l0.647-1.662h2.449l0.654,1.662h0.552l-2.11-5.35H165.712L165.712,117.547z"/>
	<path style="&st11;" d="M169.498,121.137h-0.514c-0.016,0.329,0.027,0.61,0.126,0.847c0.109,0.236,0.256,0.426,0.446,0.577
		c0.191,0.148,0.423,0.261,0.695,0.336c0.27,0.069,0.562,0.104,0.882,0.104c0.317,0,0.586-0.029,0.813-0.087
		c0.227-0.057,0.414-0.127,0.564-0.22c0.155-0.094,0.273-0.198,0.359-0.313c0.093-0.115,0.16-0.227,0.206-0.336
		c0.049-0.114,0.08-0.227,0.091-0.324c0.014-0.099,0.021-0.181,0.021-0.238c0-0.222-0.035-0.408-0.111-0.563
		c-0.073-0.154-0.171-0.286-0.304-0.389c-0.126-0.109-0.272-0.202-0.442-0.272c-0.167-0.074-0.346-0.136-0.534-0.188l-1.312-0.32
		c-0.112-0.024-0.216-0.056-0.319-0.097c-0.093-0.04-0.179-0.091-0.253-0.159c-0.076-0.065-0.137-0.144-0.183-0.232
		c-0.039-0.094-0.059-0.204-0.059-0.329c0-0.201,0.036-0.367,0.113-0.502c0.076-0.134,0.17-0.242,0.294-0.321
		c0.125-0.088,0.268-0.146,0.43-0.179c0.165-0.04,0.337-0.06,0.512-0.06c0.189,0,0.37,0.024,0.542,0.081
		c0.176,0.05,0.33,0.126,0.459,0.233c0.135,0.099,0.242,0.229,0.322,0.382c0.089,0.148,0.136,0.325,0.145,0.529h0.514
		c0-0.272-0.057-0.512-0.168-0.717c-0.103-0.211-0.248-0.385-0.426-0.525c-0.183-0.141-0.393-0.247-0.637-0.314
		c-0.239-0.069-0.492-0.104-0.759-0.104c-0.377,0-0.686,0.055-0.927,0.163c-0.242,0.106-0.432,0.236-0.572,0.391
		c-0.133,0.153-0.229,0.319-0.28,0.494c-0.049,0.174-0.074,0.327-0.074,0.457c0,0.209,0.032,0.387,0.097,0.531
		c0.072,0.146,0.161,0.269,0.271,0.365c0.111,0.102,0.238,0.183,0.386,0.239c0.15,0.061,0.305,0.112,0.459,0.152l1.197,0.295
		c0.125,0.025,0.256,0.067,0.385,0.117c0.129,0.045,0.247,0.107,0.354,0.181c0.11,0.073,0.199,0.168,0.265,0.276
		c0.069,0.11,0.104,0.242,0.104,0.39c0,0.194-0.048,0.361-0.141,0.503c-0.096,0.132-0.217,0.246-0.362,0.335
		c-0.141,0.085-0.294,0.147-0.459,0.188c-0.167,0.041-0.32,0.06-0.459,0.06c-0.248,0-0.479-0.021-0.691-0.066
		c-0.221-0.049-0.408-0.13-0.565-0.239c-0.158-0.108-0.279-0.256-0.371-0.442C169.535,121.642,169.492,121.411,169.498,121.137
		L169.498,121.137z"/>
	<polygon style="&st11;" points="77.625,109.678 77.625,115.029 78.135,115.029 78.135,112.48 80.712,112.48 80.712,112.048 
		78.135,112.048 78.135,110.113 81.037,110.113 81.037,109.678 	"/>
	<path style="&st11;" d="M82.541,112.932l1.078-2.742l1.038,2.742H82.541L82.541,112.932z M83.355,109.678l-2.162,5.352h0.541
		l0.648-1.664h2.448l0.656,1.664h0.552l-2.112-5.352H83.355L83.355,109.678z"/>
	<path style="&st11;" d="M90.982,111.297h0.513c-0.035-0.28-0.12-0.527-0.255-0.742c-0.131-0.215-0.296-0.395-0.498-0.539
		c-0.197-0.15-0.417-0.263-0.663-0.338c-0.241-0.075-0.489-0.113-0.745-0.113c-0.422,0-0.794,0.078-1.114,0.234
		c-0.317,0.148-0.581,0.353-0.791,0.615c-0.212,0.254-0.369,0.549-0.476,0.883c-0.105,0.334-0.159,0.688-0.159,1.058
		c0,0.368,0.054,0.722,0.159,1.054c0.107,0.338,0.264,0.63,0.476,0.887c0.21,0.254,0.474,0.459,0.791,0.615
		c0.32,0.146,0.692,0.225,1.114,0.225c0.315,0,0.6-0.052,0.859-0.15c0.261-0.1,0.487-0.242,0.677-0.428
		c0.191-0.184,0.347-0.41,0.467-0.674c0.122-0.264,0.198-0.563,0.233-0.891h-0.512c-0.024,0.238-0.083,0.465-0.173,0.674
		c-0.09,0.203-0.209,0.385-0.354,0.538c-0.145,0.155-0.319,0.277-0.521,0.368c-0.2,0.092-0.426,0.135-0.677,0.135
		c-0.355,0-0.663-0.067-0.921-0.203c-0.255-0.133-0.465-0.311-0.631-0.529c-0.16-0.225-0.281-0.478-0.362-0.758
		c-0.076-0.284-0.113-0.572-0.113-0.861c0-0.296,0.038-0.582,0.113-0.86c0.082-0.28,0.202-0.53,0.362-0.751
		c0.165-0.226,0.376-0.406,0.631-0.54c0.258-0.134,0.564-0.202,0.921-0.202c0.196,0,0.381,0.031,0.558,0.092
		c0.182,0.056,0.345,0.138,0.489,0.246c0.151,0.11,0.275,0.247,0.376,0.412C90.863,110.908,90.938,111.091,90.982,111.297
		L90.982,111.297z"/>
	<path style="&st11;" d="M92.827,109.678v3.424c0,0.276,0.037,0.539,0.113,0.787c0.08,0.245,0.203,0.459,0.369,0.645
		c0.171,0.187,0.387,0.334,0.649,0.443c0.266,0.104,0.586,0.158,0.957,0.158c0.375,0,0.694-0.055,0.956-0.158
		c0.267-0.109,0.483-0.257,0.649-0.443c0.169-0.186,0.292-0.399,0.367-0.645c0.082-0.248,0.123-0.511,0.123-0.787v-3.424h-0.514
		v3.313c0,0.309-0.035,0.574-0.106,0.795c-0.069,0.214-0.171,0.391-0.307,0.533c-0.137,0.133-0.303,0.232-0.497,0.299
		c-0.196,0.059-0.421,0.09-0.672,0.09c-0.246,0-0.468-0.029-0.662-0.09c-0.198-0.066-0.362-0.166-0.498-0.299
		c-0.137-0.143-0.239-0.319-0.31-0.533c-0.069-0.221-0.104-0.486-0.104-0.795v-3.313H92.827L92.827,109.678z"/>
	<polygon style="&st11;" points="98.565,109.678 98.565,115.029 102.09,115.029 102.09,114.594 99.078,114.594 99.078,109.678 	"/>
	<polygon style="&st11;" points="101.869,109.678 101.869,110.113 103.738,110.113 103.738,115.029 104.25,115.029 104.25,110.113 
		106.126,110.113 106.126,109.678 	"/>
	<path style="&st11;" d="M107.404,112.932l1.079-2.742l1.039,2.742H107.404L107.404,112.932z M108.218,109.678l-2.162,5.352h0.542
		l0.649-1.664h2.448l0.656,1.664h0.549l-2.108-5.352H108.218L108.218,109.678z"/>
	<path style="&st11;" d="M111.914,109.678v5.352h1.859c0.819-0.02,1.436-0.246,1.847-0.682c0.417-0.439,0.625-1.105,0.625-1.993
		c0-0.89-0.208-1.55-0.625-1.985c-0.411-0.441-1.027-0.669-1.847-0.69L111.914,109.678L111.914,109.678z M112.427,114.594v-4.482
		h1.093c0.386,0,0.719,0.044,0.994,0.126c0.281,0.081,0.511,0.213,0.691,0.391c0.184,0.181,0.316,0.413,0.398,0.696
		c0.088,0.285,0.128,0.629,0.128,1.029c0,0.398-0.041,0.739-0.128,1.025c-0.082,0.285-0.215,0.519-0.398,0.697
		c-0.181,0.182-0.41,0.313-0.691,0.398c-0.274,0.08-0.606,0.119-0.994,0.119H112.427L112.427,114.594z"/>
	<path style="&st11;" d="M122.018,109.678v5.352h1.859c0.819-0.02,1.437-0.246,1.848-0.682c0.417-0.439,0.624-1.105,0.624-1.993
		c0-0.89-0.207-1.55-0.624-1.985c-0.411-0.441-1.028-0.669-1.848-0.69L122.018,109.678L122.018,109.678z M122.528,114.594v-4.482
		h1.094c0.385,0,0.719,0.044,0.997,0.126c0.28,0.081,0.512,0.213,0.692,0.391c0.179,0.181,0.311,0.413,0.398,0.696
		c0.086,0.285,0.126,0.629,0.126,1.029c0,0.398-0.041,0.739-0.126,1.025c-0.088,0.285-0.22,0.519-0.398,0.697
		c-0.181,0.182-0.412,0.313-0.692,0.398c-0.278,0.08-0.61,0.119-0.997,0.119H122.528L122.528,114.594z"/>
	<polygon style="&st11;" points="127.704,109.678 127.704,115.029 131.456,115.029 131.456,114.594 128.216,114.594 128.216,112.48 
		131.216,112.48 131.216,112.048 128.216,112.048 128.216,110.113 131.415,110.113 131.415,109.678 	"/>
	<path style="&st11;" d="M141.045,111.297h0.513c-0.036-0.28-0.12-0.527-0.256-0.742c-0.129-0.215-0.297-0.395-0.497-0.539
		c-0.195-0.15-0.417-0.263-0.662-0.338c-0.24-0.075-0.492-0.113-0.746-0.113c-0.422,0-0.794,0.078-1.115,0.234
		c-0.315,0.148-0.58,0.353-0.79,0.615c-0.211,0.254-0.37,0.549-0.475,0.883c-0.105,0.334-0.16,0.688-0.16,1.058
		c0,0.368,0.055,0.722,0.16,1.054c0.104,0.338,0.264,0.63,0.475,0.887c0.21,0.254,0.475,0.459,0.79,0.615
		c0.321,0.146,0.693,0.225,1.115,0.225c0.313,0,0.601-0.052,0.857-0.15c0.262-0.1,0.488-0.242,0.678-0.428
		c0.189-0.184,0.347-0.41,0.467-0.674c0.122-0.264,0.199-0.563,0.234-0.891h-0.514c-0.024,0.238-0.08,0.465-0.173,0.674
		c-0.09,0.203-0.205,0.385-0.352,0.538c-0.145,0.155-0.319,0.277-0.522,0.368c-0.199,0.092-0.427,0.135-0.676,0.135
		c-0.357,0-0.664-0.067-0.922-0.203c-0.254-0.133-0.466-0.311-0.63-0.529c-0.162-0.225-0.282-0.478-0.362-0.758
		c-0.075-0.284-0.11-0.572-0.11-0.861c0-0.296,0.035-0.582,0.11-0.86c0.08-0.28,0.2-0.53,0.362-0.751
		c0.164-0.226,0.376-0.406,0.63-0.54c0.258-0.134,0.564-0.202,0.922-0.202c0.195,0,0.381,0.031,0.558,0.092
		c0.179,0.056,0.344,0.138,0.491,0.246c0.149,0.11,0.275,0.247,0.377,0.412C140.925,110.908,141,111.091,141.045,111.297
		L141.045,111.297z"/>
	<polygon style="&st11;" points="142.979,109.678 142.979,115.029 143.491,115.029 143.491,109.678 	"/>
	<polygon style="&st11;" points="145.138,109.678 145.138,115.029 148.889,115.029 148.889,114.594 145.651,114.594 145.651,112.48 
		148.648,112.48 148.648,112.048 145.651,112.048 145.651,110.113 148.853,110.113 148.853,109.678 	"/>
	<polygon style="&st11;" points="150.125,109.678 150.125,115.029 150.635,115.029 150.635,110.502 150.648,110.502 
		153.785,115.029 154.357,115.029 154.357,109.678 153.845,109.678 153.845,114.203 153.831,114.203 150.695,109.678 	"/>
	<path style="&st11;" d="M159.89,111.297h0.514c-0.034-0.28-0.119-0.527-0.254-0.742c-0.133-0.215-0.296-0.395-0.499-0.539
		c-0.194-0.15-0.416-0.263-0.664-0.338c-0.239-0.075-0.486-0.113-0.743-0.113c-0.422,0-0.794,0.078-1.115,0.234
		c-0.316,0.148-0.58,0.353-0.791,0.615c-0.21,0.254-0.37,0.549-0.474,0.883c-0.106,0.334-0.16,0.688-0.16,1.058
		c0,0.368,0.054,0.722,0.16,1.054c0.104,0.338,0.264,0.63,0.474,0.887c0.211,0.254,0.475,0.459,0.791,0.615
		c0.321,0.146,0.693,0.225,1.115,0.225c0.315,0,0.6-0.052,0.859-0.15c0.26-0.1,0.485-0.242,0.677-0.428
		c0.19-0.184,0.348-0.41,0.468-0.674c0.118-0.264,0.196-0.563,0.233-0.891h-0.514c-0.024,0.238-0.083,0.465-0.174,0.674
		c-0.088,0.203-0.209,0.385-0.354,0.538c-0.146,0.155-0.316,0.277-0.518,0.368c-0.203,0.092-0.429,0.135-0.679,0.135
		c-0.355,0-0.663-0.067-0.921-0.203c-0.255-0.133-0.465-0.311-0.632-0.529c-0.161-0.225-0.28-0.478-0.361-0.758
		c-0.075-0.284-0.116-0.572-0.116-0.861c0-0.296,0.041-0.582,0.116-0.86c0.081-0.28,0.2-0.53,0.361-0.751
		c0.167-0.226,0.377-0.406,0.632-0.54c0.258-0.134,0.563-0.202,0.921-0.202c0.196,0,0.381,0.031,0.557,0.092
		c0.182,0.056,0.344,0.138,0.49,0.246c0.15,0.11,0.278,0.247,0.378,0.412C159.77,110.908,159.847,111.091,159.89,111.297
		L159.89,111.297z"/>
	<polygon style="&st11;" points="161.826,109.678 161.826,115.029 162.339,115.029 162.339,109.678 	"/>
	<path style="&st11;" d="M164.746,112.932l1.079-2.742l1.039,2.742H164.746L164.746,112.932z M165.56,109.678l-2.163,5.352h0.545
		l0.647-1.664h2.447l0.657,1.664h0.549l-2.11-5.352H165.56L165.56,109.678z"/>
	<path style="&st11;" d="M169.498,113.268h-0.514c-0.016,0.33,0.027,0.611,0.126,0.847c0.109,0.234,0.256,0.429,0.446,0.576
		c0.191,0.151,0.423,0.263,0.695,0.339c0.27,0.069,0.562,0.105,0.882,0.105c0.317,0,0.586-0.033,0.813-0.091
		c0.227-0.054,0.414-0.127,0.564-0.216c0.155-0.095,0.273-0.2,0.359-0.314c0.093-0.116,0.16-0.229,0.206-0.338
		c0.049-0.116,0.08-0.223,0.091-0.324c0.014-0.099,0.021-0.179,0.021-0.238c0-0.219-0.035-0.406-0.111-0.561
		c-0.073-0.156-0.171-0.285-0.304-0.39c-0.126-0.11-0.272-0.2-0.442-0.271c-0.167-0.075-0.346-0.138-0.534-0.188l-1.312-0.32
		c-0.112-0.027-0.216-0.057-0.319-0.099c-0.093-0.038-0.179-0.091-0.253-0.157c-0.076-0.064-0.137-0.142-0.183-0.233
		c-0.039-0.095-0.059-0.204-0.059-0.328c0-0.2,0.036-0.368,0.113-0.505c0.076-0.133,0.17-0.239,0.294-0.32
		c0.125-0.085,0.268-0.145,0.43-0.18c0.165-0.04,0.337-0.06,0.512-0.06c0.189,0,0.37,0.028,0.542,0.084
		c0.176,0.05,0.33,0.127,0.459,0.231c0.135,0.1,0.242,0.227,0.322,0.383c0.089,0.148,0.136,0.327,0.145,0.532h0.514
		c0-0.275-0.057-0.516-0.168-0.721c-0.103-0.208-0.248-0.383-0.426-0.524c-0.183-0.141-0.393-0.244-0.637-0.316
		c-0.239-0.069-0.492-0.104-0.759-0.104c-0.377,0-0.686,0.057-0.927,0.164c-0.242,0.106-0.432,0.235-0.572,0.391
		c-0.133,0.154-0.229,0.32-0.28,0.496c-0.049,0.174-0.074,0.326-0.074,0.456c0,0.208,0.032,0.386,0.097,0.53
		c0.072,0.145,0.161,0.266,0.271,0.367c0.111,0.1,0.238,0.181,0.386,0.24c0.15,0.062,0.305,0.109,0.459,0.149l1.197,0.294
		c0.125,0.029,0.256,0.068,0.385,0.117c0.129,0.048,0.247,0.106,0.354,0.181c0.11,0.075,0.199,0.167,0.265,0.278
		c0.069,0.109,0.104,0.24,0.104,0.389c0,0.195-0.048,0.363-0.141,0.504c-0.096,0.135-0.217,0.246-0.362,0.337
		c-0.141,0.084-0.294,0.146-0.459,0.187c-0.167,0.038-0.32,0.06-0.459,0.06c-0.248,0-0.479-0.022-0.691-0.067
		c-0.221-0.05-0.408-0.131-0.565-0.239c-0.158-0.11-0.279-0.259-0.371-0.442C169.535,113.771,169.492,113.542,169.498,113.268
		L169.498,113.268z"/>
</g>
<g>
	<path style="&st0;" d="M190.408,69.682c0,0.45,0,0.78,0,1.098c-0.574,0.151-5.787,0.206-7.436,0.078c0-3.314,0-6.637,0-10.01
		c2.356,0,4.731,0,7.145,0c0,0.369,0,0.714,0,1.145c-1.948,0-3.893,0-5.876,0c0,1.06,0,2.034,0,3.078c1.851,0,3.671,0,5.531,0
		c0,0.416,0,0.761,0,1.199c-0.913,0.047-1.848,0.016-2.776,0.02c-0.908,0.008-1.82,0.004-2.755,0.004c0,1.157,0,2.236,0,3.389
		C186.298,69.682,188.32,69.682,190.408,69.682z"/>
	<path style="&st0;" d="M245.405,84.931c-0.295,0-0.594,0-0.873,0c-0.167-0.202-0.102-0.411-0.102-0.605
		c-0.008-1.3-0.004-2.597-0.004-3.9c0-0.226-0.008-0.454-0.016-0.684c-0.03-0.765-0.454-1.203-1.219-1.091
		c-0.128,0.016-0.252,0.031-0.333,0.039c-0.73,0.412-0.885,1.071-0.9,1.777c-0.023,1.223-0.016,2.445-0.023,3.668
		c0,0.249,0,0.497,0,0.784c-0.354,0-0.648,0-0.998,0c0-2.387,0-4.785,0-7.227c0.261-0.09,0.524-0.051,0.772-0.039
		c0.19,0.314,0.016,0.633,0.147,0.908c1.324-1.455,2.632-1.425,3.454,0.147c0.292-0.326,0.544-0.668,0.897-0.896
		c0.799-0.527,2.014-0.268,2.468,0.551c0.171,0.311,0.307,0.648,0.307,1.01c0.008,1.832,0.004,3.656,0.004,5.511
		c-0.307,0.147-0.598,0.039-0.947,0.082c0-0.423,0-0.772,0-1.122c-0.004-1.148-0.007-2.294-0.004-3.438
		c0.004-0.279-0.019-0.555-0.089-0.831c-0.144-0.609-0.361-0.861-0.85-0.924c-0.575-0.073-1.099,0.171-1.344,0.664
		c-0.186,0.393-0.291,0.808-0.287,1.25c0.016,1.199,0.008,2.395,0,3.59C245.467,84.402,245.521,84.659,245.405,84.931z"/>
	<path style="&st0;" d="M227.416,80.277c0,1.557,0,3.074,0,4.634c-0.357,0.082-0.672,0.055-1.04,0.031c0-3.346,0-6.664,0-9.986
		c0.325-0.136,0.628-0.027,1.028-0.093c0.031,1.381-0.008,2.717,0.023,4.102c1.412,0,2.798,0,4.261,0c0-1.319,0-2.654,0-4.005
		c0.389-0.116,0.703-0.066,1.06-0.063c0,3.35,0,6.648,0,9.994c-0.283,0.147-0.613,0.047-1.001,0.066c0-1.553,0-3.094,0-4.681
		C230.292,80.277,228.906,80.277,227.416,80.277z"/>
	<path style="&st0;" d="M313.043,63.561c-0.357,0.113-0.664,0.21-0.951,0.295c-0.252-0.225-0.303-0.512-0.396-0.765
		c-0.652-1.692-3.055-1.622-3.878-0.349c-0.321,0.497-0.59,1.009-0.667,1.595c-0.175,1.32-0.214,2.639,0.248,3.916
		c0.265,0.722,0.761,1.273,1.483,1.545c1.148,0.431,2.41-0.151,2.887-1.3c0.144-0.341,0.245-0.71,0.377-1.106
		c0.361,0.097,0.706,0.14,1.024,0.376c-0.206,0.939-0.559,1.797-1.284,2.492c-1.25,1.188-3.967,1.145-5.038-0.722
		c-0.823-1.44-1.079-2.966-0.896-4.604c0.101-0.928,0.338-1.785,0.812-2.589c0.749-1.284,2.717-2.177,4.304-1.42
		c0.656,0.314,1.199,0.749,1.525,1.42C312.771,62.707,312.915,63.08,313.043,63.561z"/>
	<path style="&st0;" d="M234.503,77.665c0.35-0.012,0.625-0.081,0.881,0.055c0.187,0.205,0.108,0.446,0.112,0.663
		c0.012,1.429,0.027,2.853,0.023,4.277c0,0.582,0.206,1.036,0.703,1.335c0.337,0.116,0.667,0.023,0.974,0.027
		c0.861-0.438,1.071-1.199,1.083-2.053c0.02-1.169,0-2.341,0.008-3.513c0.004-0.249-0.059-0.505,0.081-0.792
		c0.276-0.023,0.563-0.069,0.847,0.039c0.14,0.609,0.175,6.112,0.05,7.164c-0.089,0.117-0.225,0.094-0.349,0.094
		c-0.125,0.008-0.249,0.004-0.369,0.004c-0.229-0.261-0.051-0.563-0.159-0.831c-0.187-0.058-0.232,0.128-0.303,0.229
		c-0.551,0.788-1.362,0.877-2.177,0.698c-0.746-0.159-1.188-0.702-1.332-1.49c-0.046-0.271-0.108-0.547-0.108-0.826
		c-0.004-1.576-0.004-3.156-0.004-4.735C234.464,77.913,234.483,77.82,234.503,77.665z"/>
	<path style="&st0;" d="M328.024,70.846c-0.354,0.074-0.629,0.078-0.893,0.012c-0.222-0.217-0.144-0.489-0.144-0.729
		c-0.008-1.351,0.004-2.702-0.008-4.048c-0.008-0.749-0.02-0.749-0.528-1.366c-1.125-0.427-1.839-0.039-2.142,1.125
		c-0.086,0.33-0.113,0.648-0.113,0.982c0,1.118,0.004,2.24-0.008,3.357c0,0.221,0.07,0.458-0.089,0.703
		c-0.275,0.023-0.57,0.039-0.908-0.031c0-2.414,0-4.816,0-7.219c0.271-0.113,0.521-0.07,0.78-0.035
		c0.19,0.245,0.027,0.543,0.12,0.799c0.179,0.004,0.256-0.147,0.354-0.256c0.613-0.66,1.335-0.881,2.204-0.598
		c0.893,0.292,1.234,0.99,1.343,1.84c0.043,0.354,0.027,0.714,0.027,1.071C328.024,67.9,328.024,69.348,328.024,70.846z"/>
	<path style="&st0;" d="M261.776,84.946c-0.338,0-0.613,0-0.882,0c-0.193-0.183-0.116-0.396-0.12-0.594c-0.004-1.27,0-2.546,0-3.819
		c-0.004-0.202,0-0.407-0.008-0.609c-0.042-0.714-0.399-1.18-0.974-1.266c-0.741-0.116-1.366,0.202-1.596,0.866
		c-0.12,0.329-0.201,0.675-0.197,1.04c0.008,1.276-0.004,2.546-0.012,3.823c-0.004,0.171,0.058,0.353-0.09,0.543
		c-0.271,0-0.57,0-0.912,0c0-2.406,0-4.809,0-7.203c0.14-0.136,0.299-0.078,0.442-0.086c0.125,0,0.257-0.035,0.377,0.082
		c0.12,0.248,0.004,0.539,0.093,0.865c0.14-0.147,0.271-0.275,0.385-0.415c0.869-1.087,2.984-0.815,3.384,0.791
		c0.09,0.346,0.159,0.695,0.159,1.053c0,1.556,0,3.108,0,4.661C261.826,84.748,261.8,84.822,261.776,84.946z"/>
	<path style="&st0;" d="M348.351,65.474c-0.295,0.062-0.56,0.113-0.819,0.171c-0.648-1.401-1.708-1.646-2.646-0.621
		c-0.098,0.221-0.031,0.45-0.043,0.64c0.163,0.369,0.474,0.501,0.78,0.609c0.523,0.19,1.063,0.334,1.583,0.528
		c1.58,0.59,1.96,2.449,0.757,3.629c-0.167,0.163-0.353,0.295-0.57,0.376c-1.447,0.563-3.132,0.284-3.617-1.595
		c-0.031-0.121-0.051-0.249-0.081-0.396c0.256-0.209,0.566-0.252,0.923-0.213c0.063,0.136,0.129,0.271,0.183,0.407
		c0.346,0.874,0.873,1.168,1.773,0.99c0.963-0.194,1.242-0.823,0.754-1.762c-0.668-0.38-1.437-0.547-2.162-0.826
		c-1.168-0.45-1.378-1.312-1.266-2.306c0.105-0.869,0.873-1.564,1.824-1.677c0.54-0.066,1.06,0.023,1.553,0.264
		C348.013,64.054,348.335,64.655,348.351,65.474z"/>
	<path style="&st0;" d="M191.526,68.789c0.299-0.163,0.563-0.221,0.857-0.186c0.109,0.244,0.214,0.47,0.303,0.698
		c0.283,0.722,1.46,1.083,2.29,0.439c0.393-0.303,0.404-0.738,0.334-1.184c-0.14-0.337-0.438-0.466-0.753-0.578
		c-0.551-0.198-1.099-0.388-1.642-0.59c-0.823-0.303-1.238-0.862-1.262-1.688c-0.031-1.067,0.334-1.723,1.188-2.076
		c0.827-0.338,1.631-0.276,2.406,0.182c0.637,0.376,0.827,0.982,0.92,1.681c-0.287,0.074-0.602,0.042-0.846,0.178
		c-0.159-0.104-0.132-0.248-0.187-0.361c-0.376-0.846-1.428-1.145-2.177-0.625c-0.54,0.373-0.505,1.141,0.093,1.436
		c0.431,0.21,0.904,0.326,1.354,0.493c0.236,0.082,0.474,0.171,0.706,0.26c1.095,0.396,1.421,1.265,1.266,2.313
		c-0.155,1.071-1.032,1.824-2.104,1.852c-0.403,0.008-0.815,0.062-1.215-0.07C192.167,70.663,191.611,69.895,191.526,68.789z"/>
	<path style="&st0;" d="M266.837,70.826c-0.364,0.109-0.644,0.063-0.92,0.059c-0.147-0.536-0.201-5.709-0.077-7.211
		c0.112-0.151,0.275-0.105,0.423-0.113c0.124-0.004,0.248,0,0.373,0c0.163,0.326,0.03,0.648,0.124,0.975
		c0.353-0.45,0.71-0.854,1.272-1.017c1.11-0.318,2.213,0.268,2.488,1.382c0.089,0.365,0.147,0.749,0.151,1.129
		c0.016,1.525,0.008,3.051,0.004,4.58c0,0.074-0.031,0.144-0.055,0.249c-0.299,0.066-0.594,0.054-0.881,0.016
		c-0.167-0.221-0.097-0.462-0.097-0.679c-0.016-1.351-0.016-2.698-0.02-4.048c0-0.101,0.004-0.202,0-0.307
		c-0.039-0.687-0.466-1.227-1.044-1.327c-0.586-0.101-1.293,0.307-1.537,0.896c-0.151,0.353-0.19,0.733-0.19,1.118
		c-0.004,1.273-0.008,2.546-0.016,3.815C266.837,70.493,266.837,70.644,266.837,70.826z"/>
	<path style="&st0;" d="M297.336,73.698c-0.109-0.322-0.02-0.69-0.171-0.993c0.202-0.198,0.357,0,0.523-0.012
		c0.318-0.016,0.656-0.07,0.8-0.361c0.295-0.602,0.633-1.195,0.396-1.937c-0.575-1.773-1.114-3.563-1.665-5.344
		c-0.141-0.454-0.272-0.912-0.396-1.339c0.175-0.217,0.369-0.128,0.536-0.144c0.147-0.016,0.295,0,0.492,0
		c0.283,0.967,0.56,1.91,0.835,2.849c0.271,0.92,0.539,1.836,0.842,2.865c0.575-1.921,1.118-3.75,1.661-5.566
		c0.311-0.24,0.629-0.155,0.955-0.112c0.085,0.349-0.089,0.629-0.171,0.904c-0.733,2.414-1.49,4.824-2.235,7.23
		c-0.112,0.361-0.248,0.718-0.415,1.06C298.854,73.749,298.453,73.939,297.336,73.698z"/>
	<path style="&st0;" d="M291.242,82.854c0.268-0.07,0.513-0.132,0.757-0.19c0.047-0.012,0.097,0.004,0.175,0.008
		c0.069,0.171,0.163,0.35,0.205,0.539c0.163,0.761,1.367,1.254,2.221,0.749c0.364-0.213,0.586-0.563,0.547-1.017
		c-0.035-0.431-0.283-0.694-0.675-0.834c-0.641-0.229-1.301-0.42-1.926-0.688c-0.938-0.403-1.191-1.152-1.113-2.033
		c0.136-1.584,1.541-1.991,2.565-1.859c1.067,0.14,1.944,0.83,1.886,2.011c-0.256,0.065-0.52,0.136-0.826,0.213
		c-0.183-0.613-0.454-1.129-1.18-1.215c-0.54-0.062-0.971,0.086-1.433,0.54c-0.081,0.217-0.055,0.442-0.039,0.667
		c0.078,0.206,0.214,0.365,0.408,0.442c0.423,0.171,0.854,0.322,1.28,0.47c0.214,0.078,0.435,0.132,0.652,0.198
		c1.413,0.478,1.704,1.742,1.223,2.953c-0.229,0.579-0.625,0.971-1.23,1.157c-0.648,0.198-1.293,0.221-1.94,0.023
		C291.773,84.683,291.425,83.867,291.242,82.854z"/>
	<path style="&st0;" d="M251.596,70.865c-0.361,0-0.629,0-0.971,0c0-0.279,0.004-0.528,0-0.776c-0.02-1.42,0.047-2.845-0.073-4.27
		c-0.07-0.819-0.466-1.242-1.118-1.312c-0.683-0.066-1.331,0.435-1.518,1.137c-0.101,0.392-0.159,0.788-0.155,1.203
		c0.012,1.273,0,2.542-0.004,3.819c0,0.047-0.023,0.093-0.054,0.187c-0.275,0-0.567,0-0.866,0c-0.14-0.532-0.167-6.439-0.022-7.188
		c0.093-0.113,0.225-0.097,0.349-0.101s0.249,0,0.35,0c0.24,0.268,0.031,0.582,0.167,0.831c0.171,0.058,0.201-0.097,0.279-0.182
		c0.59-0.652,1.273-0.982,2.174-0.695c0.83,0.271,1.385,0.854,1.436,2.014c0.055,1.351,0.023,2.701,0.027,4.052
		C251.6,69.988,251.596,70.392,251.596,70.865z"/>
	<path style="&st0;" d="M203.232,63.642c0.291-0.144,0.574-0.042,0.818-0.082c0.226,0.171,0.144,0.392,0.147,0.586
		c0.008,1.374,0.008,2.748,0.016,4.122c0,0.229,0.004,0.462,0.055,0.683c0.116,0.5,0.376,0.893,0.919,1.009
		c0.579,0.12,1.134-0.113,1.456-0.598c0.419-0.633,0.368-1.366,0.407-2.061c0.047-0.966,0.008-1.937,0.012-2.903
		c0.004-0.252-0.047-0.504,0.059-0.768c0.256-0.128,0.531-0.063,0.799-0.043c0.145,0.574,0.19,5.698,0.063,7.262
		c-0.252,0.082-0.52,0.054-0.772,0.008c-0.159-0.256-0.046-0.524-0.14-0.819c-0.155,0.167-0.295,0.314-0.435,0.465
		c-0.602,0.633-1.366,0.684-2.115,0.443c-0.761-0.249-1.152-0.893-1.238-1.681c-0.193-1.774-0.101-3.555-0.112-5.336
		C203.17,63.833,203.209,63.735,203.232,63.642z"/>
	<path style="&st0;" d="M334.223,65.746c-0.213,0.167-0.505,0.019-0.722,0.167c-0.179-0.097-0.222-0.275-0.271-0.435
		c-0.183-0.594-0.54-0.978-1.181-1.009c-0.659-0.031-1.094,0.342-1.408,0.87c-0.094,0.151-0.147,0.326-0.19,0.5
		c-0.252,1.029-0.232,2.061,0.055,3.082c0.171,0.617,0.574,0.916,1.382,1.16c1.059-0.101,1.4-0.854,1.556-1.773
		c0.354-0.039,0.672-0.051,0.994,0.163c-0.086,0.652-0.295,1.242-0.691,1.742c-0.865,1.099-2.821,1.211-3.761-0.124
		c-0.396-0.555-0.598-1.172-0.679-1.832c-0.147-1.199-0.136-2.379,0.446-3.485c0.45-0.857,1.618-1.661,2.973-1.219
		C333.641,63.848,334.305,64.795,334.223,65.746z"/>
	<path style="&st0;" d="M202.358,65.629c-0.442,0.217-0.442,0.225-0.966,0.19c-0.116-0.085-0.082-0.232-0.128-0.345
		c-0.226-0.551-0.571-0.982-1.207-1.001c-0.672-0.02-1.177,0.314-1.444,0.924c-0.353,0.78-0.431,1.619-0.314,2.461
		c0.055,0.415,0.09,0.854,0.279,1.25c0.276,0.583,0.878,1.017,1.44,0.958c0.609-0.062,1.028-0.431,1.242-0.993
		c0.085-0.233,0.221-0.458,0.167-0.749c0.341-0.066,0.628-0.066,0.896,0.12c0.089,1.11-0.699,2.255-1.743,2.554
		c-1.071,0.303-2.224-0.183-2.786-1.207c-0.272-0.489-0.458-1.013-0.481-1.58c-0.035-0.939-0.14-1.894,0.179-2.798
		c0.329-0.947,0.881-1.688,1.964-1.914c1.133-0.233,2.146,0.233,2.615,1.296C202.192,65.063,202.266,65.354,202.358,65.629z"/>
	<path style="&st0;" d="M245.032,70.877c-0.388,0-0.687,0-1.036,0c0-3.326,0-6.652,0-10.018c0.287-0.132,0.613-0.023,1.036-0.085
		C245.036,64.154,245.032,67.477,245.032,70.877z"/>
	<path style="&st0;" d="M282.005,70.881c-0.365,0.012-0.66,0.05-0.997-0.031c0-2.391,0-4.774,0-7.168
		c0.264-0.183,0.531-0.109,0.838-0.109c0.02,0.346,0.035,0.645,0.055,1.021c0.318-0.512,0.57-1.056,1.176-1.161
		c0.388-0.07,0.745,0.085,1.032,0.318c0.175,0.435-0.136,0.749-0.14,1.091c-0.24,0.14-0.369-0.059-0.539-0.078
		c-0.625-0.069-1.041,0.163-1.207,0.78c-0.125,0.458-0.226,0.932-0.218,1.421c0.016,1.071,0.004,2.138,0,3.209
		C282.005,70.399,282.005,70.621,282.005,70.881z"/>
	<path style="&st0;" d="M191.216,84.927c-0.357,0-0.625,0-0.928,0c0-2.422,0-4.801,0-7.188c0.245-0.158,0.493-0.104,0.722-0.058
		c0.284,0.218,0.051,0.555,0.241,0.815c0.268-0.377,0.504-0.776,0.974-0.971c0.436-0.023,0.858,0.07,1.23,0.423
		c-0.104,0.334-0.197,0.664-0.314,1.052c-0.341-0.147-0.679-0.205-1.067-0.144c-0.787,0.442-0.787,1.277-0.83,2.038
		c-0.059,1.017-0.023,2.037-0.027,3.059C191.212,84.256,191.216,84.559,191.216,84.927z"/>
	<path style="&st0;" d="M215.978,60.816c0.311,0,0.56,0,0.808,0c0.14,0.555,0.171,9.133,0.031,10.053c-0.261,0-0.528,0-0.839,0
		C215.978,67.523,215.978,64.205,215.978,60.816z"/>
	<path style="&st0;" d="M336.214,70.85c-0.338,0.078-0.633,0.058-0.967,0.023c0-2.43,0-4.828,0-7.27
		c0.303-0.066,0.598-0.043,0.893-0.027C336.291,64.139,336.342,69.08,336.214,70.85z"/>
	<path style="&st0;" d="M264.361,84.892c-0.206,0.105-0.385,0.063-0.56,0.066c-0.12,0.004-0.244-0.012-0.403-0.027
		c0-2.434,0-4.828,0-7.27c0.334-0.012,0.625-0.062,0.963,0.059C264.361,80.099,264.361,82.474,264.361,84.892z"/>
	<path style="&st0;" d="M314.421,63.631c0.287-0.125,0.555-0.043,0.873-0.063c0,2.453,0,4.859,0,7.297c-0.287,0-0.555,0-0.873,0
		C314.421,68.443,314.421,66.045,314.421,63.631z"/>
	<path style="&st0;" d="M285.219,63.638c0.283-0.124,0.555-0.078,0.877-0.046c0,2.41,0,4.805,0,7.242
		c-0.264,0.121-0.551,0.055-0.877,0.047C285.219,68.436,285.219,66.041,285.219,63.638z"/>
	<path style="&st0;" d="M273.129,63.572c0,2.48,0,4.855,0,7.27c-0.307,0.085-0.59,0.07-0.904,0.016c0-2.434,0-4.828,0-7.234
		C272.527,63.518,272.795,63.584,273.129,63.572z"/>
	<path style="&st0;" d="M285.618,60.801c0.446,0,0.823,0,1.254,0c-0.314,0.683-0.776,1.215-1.099,1.785
		c-0.295,0.113-0.535,0.066-0.842,0.043C285.164,61.997,285.386,61.415,285.618,60.801z"/>
	<path style="&st0;" d="M263.445,74.894c0.314,0,0.59,0,0.9,0c0.116,0.478,0.065,0.939,0.046,1.437c-0.341,0-0.632,0-0.974,0
		C263.32,75.845,263.294,75.367,263.445,74.894z"/>
	<path style="&st0;" d="M335.239,62.206c0-0.508,0-0.928,0-1.378c0.334,0,0.629,0,0.955,0c0.128,0.442,0.031,0.877,0.055,1.3
		C335.884,62.269,335.589,62.183,335.239,62.206z"/>
	<path style="&st0;" d="M273.121,62.241c-0.338,0.05-0.582,0.07-0.881-0.016c-0.102-0.438-0.043-0.885-0.035-1.343
		c0.299-0.144,0.59-0.074,0.916-0.07C273.121,61.31,273.121,61.752,273.121,62.241z"/>
	<path style="&st0;" d="M315.294,62.175c-0.311,0-0.57,0-0.881,0c0-0.447,0-0.862,0-1.304c0.268-0.136,0.555-0.066,0.881-0.058
		C315.294,61.29,315.294,61.725,315.294,62.175z"/>
	<path style="&st0;" d="M256.929,70.073c-0.435,0.416-0.804,0.757-1.347,0.812c-0.959,0.101-1.653-0.314-2.182-1.087
		c-0.578-0.834-0.698-1.801-0.687-2.76c0.004-0.827,0.174-1.646,0.602-2.406c0.787-1.413,2.782-1.657,3.586-0.345
		c0.027,0.035,0.085,0.046,0.132,0.066c0.116-0.225-0.027-0.497,0.128-0.741c0.237-0.082,0.485-0.051,0.718-0.023
		c0.109,0.074,0.125,0.171,0.125,0.275c-0.008,2.267,0,4.533-0.023,6.8c-0.008,0.633-0.09,1.254-0.381,1.844
		c-0.411,0.835-1.079,1.242-1.983,1.3c-0.407,0.027-0.818,0.047-1.215-0.077c-0.985-0.299-1.471-1.032-1.416-2.131
		c0.14-0.155,0.268-0.008,0.407,0.02c0.12,0.027,0.248,0.039,0.369,0.054c0.038,0.042,0.097,0.078,0.104,0.117
		c0.155,0.877,0.939,1.129,1.599,1.075c0.757-0.063,1.344-0.609,1.452-1.425C256.971,71.024,256.929,70.598,256.929,70.073z
		 M253.913,68.517c0.248,0.896,0.729,1.327,1.436,1.327c0.656,0,1.161-0.357,1.437-1.036c0.407-1.013,0.341-2.045,0.073-3.058
		c-0.209-0.8-0.846-1.293-1.502-1.285c-0.621,0.008-1.191,0.501-1.421,1.281c-0.132,0.435-0.24,0.881-0.186,1.362
		C253.668,67.582,253.788,68.063,253.913,68.517z"/>
	<path style="&st0;" d="M189.478,84.915c-0.498,0.074-0.847,0.051-1.231,0.02c-0.314-0.978-0.625-1.956-0.955-2.984
		c-1.134,0-2.29,0-3.47,0c-0.31,1.009-0.609,1.995-0.912,2.988c-0.369,0.031-0.691,0.059-1.11-0.043
		c1.056-3.342,2.1-6.652,3.151-9.975c0.388,0,0.738,0,1.172,0C187.226,78.201,188.336,81.516,189.478,84.915z M185.483,76.016
		c-0.295,1.73-0.912,3.202-1.323,4.781c0.947,0,1.824,0,2.783,0C186.45,79.183,185.988,77.673,185.483,76.016z"/>
	<path style="&st0;" d="M231.7,64.209c0-1.099,0-2.224,0-3.381c0.33,0,0.598,0,0.908,0c0,3.354,0,6.676,0,10.033
		c-0.283,0-0.551,0-0.807,0c-0.175-0.202-0.012-0.458-0.159-0.675c-0.427,0.543-0.928,0.904-1.673,0.862
		c-0.489-0.023-0.889-0.19-1.246-0.489c-0.478-0.4-0.823-0.908-0.985-1.506c-0.408-1.514-0.404-2.996,0.341-4.429
		c0.575-1.102,2.306-1.789,3.365-0.493C231.491,64.189,231.545,64.251,231.7,64.209z M231.584,68.653
		c0.248-0.998,0.21-2.006-0.062-2.993c-0.19-0.679-0.854-1.203-1.421-1.195c-0.586,0.004-1.148,0.501-1.382,1.223
		c-0.02,0.047-0.039,0.097-0.051,0.144c-0.159,0.645-0.221,1.3-0.147,1.956c0.121,1.005,0.346,1.964,1.545,2.294
		C230.967,69.98,231.39,69.414,231.584,68.653z"/>
	<path style="&st0;" d="M213.948,78.438c0-1.238,0-2.349,0-3.438c0.314-0.171,0.586-0.105,0.85-0.09
		c0.147,0.556,0.198,8.527,0.07,9.967c-0.117,0.14-0.28,0.078-0.428,0.086c-0.12,0.008-0.244,0.004-0.337,0.004
		c-0.214-0.229-0.051-0.485-0.19-0.718c-0.361,0.477-0.784,0.846-1.429,0.869c-1.036,0.035-1.75-0.474-2.192-1.351
		c-0.501-0.994-0.656-2.058-0.501-3.175c0.104-0.761,0.26-1.49,0.714-2.127c0.454-0.645,1.397-1.157,2.333-0.854
		C213.253,77.742,213.475,78.104,213.948,78.438z M213.952,80.39c-0.02-0.226-0.105-0.446-0.183-0.656
		c-0.26-0.741-0.804-1.219-1.409-1.191c-0.741,0.031-1.121,0.532-1.335,1.169c-0.389,1.141-0.361,2.293,0.081,3.411
		c0.237,0.598,0.664,1.056,1.366,1.021c0.66-0.027,1.014-0.508,1.281-1.052c0.035-0.065,0.047-0.144,0.077-0.213
		c0.206-0.485,0.155-0.994,0.129-1.503C213.96,81.05,213.986,80.716,213.952,80.39z"/>
	<path style="&st0;" d="M269.787,78.317c0-1.118,0-2.231,0-3.369c0.303-0.097,0.57-0.055,0.83-0.043
		c0.14,0.617,0.171,9.028,0.035,10.025c-0.256,0.051-0.523,0.047-0.753,0.004c-0.171-0.19-0.047-0.392-0.159-0.563
		c-0.059,0.03-0.128,0.054-0.171,0.101c-1.048,1.122-2.601,0.698-3.299-0.435c-0.396-0.629-0.633-1.315-0.645-2.076
		c-0.012-0.788-0.054-1.572,0.171-2.349c0.151-0.516,0.373-0.989,0.733-1.397c0.645-0.718,1.887-1.024,2.791-0.201
		C269.445,78.131,269.538,78.302,269.787,78.317z M269.523,79.536c-0.269-0.563-0.676-0.951-1.32-0.994
		c-0.527-0.031-1.063,0.385-1.296,1.006c-0.124,0.329-0.226,0.675-0.264,1.024c-0.121,0.936-0.105,1.874,0.38,2.721
		c0.271,0.474,0.652,0.877,1.254,0.854c0.59-0.02,0.95-0.423,1.219-0.908c0.069-0.136,0.12-0.279,0.178-0.419
		c0.183-0.462,0.117-0.947,0.133-1.319C269.811,80.759,269.799,80.126,269.523,79.536z"/>
	<path style="&st0;" d="M282.599,74.901c0.389-0.008,0.641-0.054,0.924,0.055c0,3.295,0,6.59,0,9.92
		c-0.226,0.171-0.501,0.07-0.749,0.066c-0.226-0.151-0.047-0.411-0.222-0.586c-0.399,0.364-0.807,0.749-1.416,0.769
		c-0.672,0.023-1.234-0.198-1.704-0.68c-0.493-0.512-0.804-1.145-0.896-1.816c-0.136-0.951-0.163-1.917,0.07-2.876
		c0.112-0.481,0.317-0.904,0.598-1.3c0.757-1.067,2.033-1.223,3.023-0.369c0.093,0.082,0.151,0.206,0.372,0.233
		C282.599,77.191,282.599,76.074,282.599,74.901z M282.416,79.645c-0.256-0.598-0.659-1.032-1.335-1.106
		c-0.531-0.062-1.121,0.357-1.354,1.032c-0.396,1.149-0.454,2.329,0.012,3.479c0.24,0.586,0.66,1.086,1.331,1.094
		c0.714,0.008,1.11-0.531,1.386-1.137c0.236-0.524,0.179-1.091,0.19-1.592C282.642,80.777,282.649,80.191,282.416,79.645z"/>
	<path style="&st0;" d="M342.862,70.877c-0.407,0-0.706,0-0.985,0c-0.179-0.225-0.202-0.485-0.307-0.749
		c-0.249,0.174-0.485,0.345-0.727,0.516c-0.675,0.465-1.416,0.489-2.181,0.303c-0.672-0.167-1.254-0.846-1.316-1.855
		c-0.058-0.951,0.47-1.797,1.309-2.134c0.516-0.21,1.079-0.237,1.622-0.35c0.396-0.078,0.792-0.147,1.18-0.334
		c0.105-0.376,0.023-0.753,0-1.083c-0.423-0.722-1.063-0.796-1.75-0.707c-0.753,0.093-1.013,0.671-1.184,1.351
		c-0.35-0.074-0.656-0.14-0.963-0.206c0.283-2.251,2.632-2.55,3.979-1.937c0.749,0.338,0.97,1.005,0.993,1.747
		c0.027,1.141,0.012,2.29,0.012,3.435C342.544,69.538,342.587,70.19,342.862,70.877z M339.163,67.892
		c-0.555,0.175-0.83,0.745-0.714,1.265c0.14,0.605,0.559,0.947,1.188,0.951c0.932,0.012,1.759-0.733,1.836-1.665
		c0.023-0.326,0-0.656,0-1.122C340.662,67.52,339.901,67.663,339.163,67.892z"/>
	<path style="&st0;" d="M255.706,84.907c-0.419,0.078-0.718,0.063-0.975,0.031c-0.279-0.187-0.183-0.489-0.33-0.726
		c-0.209,0.155-0.407,0.311-0.62,0.438c-0.823,0.505-1.685,0.655-2.601,0.244c-0.396-0.179-0.652-0.478-0.8-0.873
		c-0.551-1.467,0.12-2.942,1.863-3.206c0.694-0.104,1.404-0.14,2.045-0.454c0.12-1.164-0.097-1.571-0.932-1.785
		c-0.932-0.24-1.563,0.159-2.033,1.288c-0.354,0.129-0.625-0.14-0.994-0.146c0.136-0.369,0.233-0.684,0.369-0.979
		c0.287-0.617,0.8-0.998,1.451-1.114c0.567-0.108,1.153-0.14,1.731-0.016c0.737,0.155,1.242,0.668,1.401,1.417
		c0.081,0.399,0.112,0.8,0.112,1.207c0,0.943,0.008,1.883,0.012,2.825C255.411,83.669,255.356,84.282,255.706,84.907z
		 M252.415,81.849c-0.544,0.078-0.87,0.354-1.118,0.823c0,0.232,0,0.485,0,0.737c0.442,0.69,0.854,0.9,1.561,0.753
		c0.547-0.112,0.935-0.446,1.215-0.932c0.329-0.566,0.275-1.156,0.244-1.84C253.629,81.565,253.027,81.764,252.415,81.849z"/>
	<path style="&st0;" d="M223.53,70.869c-0.376,0-0.647,0-0.908,0c-0.197-0.202-0.244-0.45-0.26-0.703
		c-0.268-0.039-0.376,0.159-0.524,0.272c-0.612,0.469-1.288,0.679-2.064,0.602c-0.893-0.089-1.579-0.788-1.673-1.688
		c-0.159-1.607,0.788-2.391,2.046-2.608c0.687-0.116,1.4-0.155,2.033-0.493c0.113-1.079-0.132-1.568-0.877-1.762
		c-0.967-0.252-1.661,0.183-2.096,1.308c-0.055,0.008-0.104,0.035-0.151,0.023c-0.241-0.05-0.485-0.108-0.726-0.163
		c0.046-1.017,0.625-1.805,1.552-2.096c0.699-0.217,1.409-0.225,2.097,0.016c0.625,0.225,1.078,0.645,1.184,1.358
		c0.069,0.481,0.132,0.955,0.124,1.44c-0.012,0.738-0.008,1.475,0.004,2.216C223.298,69.324,223.259,70.062,223.53,70.869z
		 M219.96,67.846c-0.625,0.175-0.854,0.609-0.78,1.296c0.055,0.536,0.501,0.928,1.099,0.967c0.679,0.046,1.417-0.392,1.73-1.032
		c0.269-0.547,0.272-1.122,0.179-1.754C221.423,67.496,220.682,67.64,219.96,67.846z"/>
	<path style="&st0;" d="M277.476,84.923c-0.388,0.047-0.683,0.077-0.939-0.004c-0.244-0.19-0.144-0.462-0.256-0.671
		c-0.245-0.07-0.35,0.14-0.493,0.256c-0.881,0.729-2.208,0.792-2.915,0.318c-0.221-0.147-0.399-0.303-0.531-0.528
		c-0.594-1.013-0.466-2.888,1.28-3.364c0.711-0.194,1.448-0.21,2.154-0.42c0.12-0.043,0.245-0.065,0.346-0.155
		c0.171-1.067-0.12-1.603-0.982-1.797c-0.95-0.21-1.622,0.229-1.956,1.3c-0.341,0.137-0.617-0.12-0.928-0.128
		c0.129-1.245,0.788-1.933,1.914-2.146c0.539-0.098,1.056-0.07,1.579,0.03c0.598,0.113,1.297,0.691,1.382,1.525
		c0.12,1.219,0.086,2.438,0.102,3.656C277.242,83.479,277.216,84.17,277.476,84.923z M274.064,81.888
		c-0.758,0.198-1.041,0.625-0.936,1.397c0.081,0.602,0.551,0.928,1.284,0.896c0.415-0.02,0.776-0.163,1.087-0.454
		c0.69-0.637,0.749-1.437,0.648-2.367C275.441,81.632,274.743,81.709,274.064,81.888z"/>
	<path style="&st0;" d="M291.708,66.254c0.116-0.431-0.023-0.769-0.097-1.114c-1.067-1.2-2.248-0.939-2.95,0.652
		c-0.295,0.097-0.521-0.159-0.796-0.113c-0.046-0.943,0.47-1.746,1.358-2.057c0.575-0.206,1.173-0.264,1.794-0.159
		c1.152,0.198,1.646,0.857,1.688,1.991c0.027,0.714,0.012,1.424,0.016,2.139c0.004,0.559,0.023,1.118,0.004,1.681
		c-0.008,0.532,0.167,1.032,0.275,1.576c-0.341,0.082-0.636,0.047-0.935,0.035c-0.19-0.202-0.151-0.485-0.322-0.741
		c-0.171,0.12-0.357,0.225-0.517,0.36c-0.609,0.517-1.331,0.621-2.08,0.521c-1.293-0.171-1.724-1.413-1.576-2.383
		c0.171-1.086,0.885-1.719,1.987-1.886c0.574-0.089,1.146-0.206,1.712-0.322C291.417,66.402,291.553,66.32,291.708,66.254z
		 M288.898,68.199c-0.579,0.737-0.257,1.677,0.655,1.882c0.501,0.113,0.955-0.027,1.354-0.337c0.788-0.609,0.865-1.456,0.808-2.43
		c-0.877,0.198-1.685,0.38-2.565,0.578C289.092,67.966,288.991,68.079,288.898,68.199z"/>
	<path style="&st0;" d="M205.576,84.938c-0.377,0-0.676,0-0.967,0c-0.163-0.229-0.104-0.524-0.333-0.718
		c-0.633,0.57-1.347,0.939-2.247,0.904c-1.223-0.051-2.03-0.998-1.891-2.263c0.132-1.188,0.804-1.832,2.011-2.042
		c0.594-0.104,1.191-0.213,1.785-0.318c0.132-0.02,0.244-0.077,0.338-0.163c0.124-1.052-0.098-1.475-0.904-1.715
		c-1.018-0.299-1.525,0-2.107,1.241c-0.318,0.094-0.586-0.046-0.854-0.17c0.035-1.006,0.66-1.82,1.607-2.054
		c0.621-0.155,1.265-0.144,1.886-0.02c0.796,0.155,1.339,0.831,1.366,1.708c0.035,1.168,0.031,2.344,0.031,3.513
		C205.297,83.533,205.394,84.205,205.576,84.938z M202.433,81.834c-0.729,0.101-1.145,0.469-1.25,1.203
		c0.078,0.602,0.35,1.048,1.01,1.141c0.811,0.116,1.684-0.381,1.94-1.152c0.166-0.497,0.291-1.021,0.132-1.615
		C203.644,81.554,203.046,81.744,202.433,81.834z"/>
	<path style="&st0;" d="M264.602,68.796c-0.12,0.299-0.202,0.536-0.311,0.769c-0.403,0.862-1.032,1.393-2.033,1.479
		c-1.165,0.101-2.085-0.299-2.601-1.332c-0.812-1.611-0.808-3.28,0.016-4.894c0.598-1.172,1.929-1.681,3.02-1.266
		c0.783,0.299,1.28,0.889,1.587,1.646c0.291,0.718,0.369,1.467,0.287,2.297c-1.436,0-2.876,0-4.3,0
		c-0.187,0.924,0.232,1.925,0.938,2.348c0.699,0.419,1.521,0.229,1.983-0.481c0.151-0.229,0.261-0.489,0.389-0.741
		C263.919,68.536,264.218,68.695,264.602,68.796z M262.661,64.679c-0.505-0.322-1.087-0.35-1.572,0.023
		c-0.582,0.447-0.928,1.041-0.772,1.852c1.06,0,2.073,0,3.171,0C263.538,65.742,263.313,65.094,262.661,64.679z"/>
	<path style="&st0;" d="M214.735,67.527c-1.49,0-2.906,0-4.315,0c-0.268,1.261,0.354,2.212,1.61,2.546
		c0.955-0.042,1.374-0.675,1.646-1.436c0.381-0.116,0.672,0.066,1.002,0.144c-0.198,0.962-0.648,1.758-1.58,2.084
		c-1.844,0.648-3.225-0.299-3.694-2.077c-0.261-0.998-0.253-2.018,0-3.012c0.291-1.114,0.873-1.987,2.088-2.286
		c0.776-0.186,1.459-0.007,2.053,0.485c0.815,0.675,1.091,1.619,1.185,2.624C214.755,66.875,214.735,67.151,214.735,67.527z
		 M213.649,66.518c-0.117-1.397-0.691-2.084-1.673-2.053c-0.908,0.027-1.572,0.862-1.611,2.053
		C211.499,66.518,212.57,66.518,213.649,66.518z"/>
	<path style="&st0;" d="M322.021,67.535c-1.545,0-2.989,0-4.437,0c0.039,1.646,0.47,2.243,1.738,2.53
		c0.99-0.027,1.27-0.795,1.635-1.428c0.349-0.097,0.625,0.023,0.9,0.136c-0.102,1.276-1.087,2.188-2.31,2.274
		c-1.572,0.112-2.495-0.854-2.829-2.026c-0.334-1.164-0.33-2.363,0.02-3.528c0.221-0.738,0.632-1.397,1.354-1.774
		c1.203-0.625,2.464-0.279,3.252,0.893c0.151,0.233,0.275,0.489,0.377,0.745c0.085,0.214,0.144,0.439,0.175,0.66
		C321.95,66.491,321.978,66.965,322.021,67.535z M319.951,64.636c-0.535-0.326-1.102-0.229-1.567,0.124
		c-0.571,0.431-0.827,1.037-0.733,1.778c1.094,0,2.127,0,3.183,0C320.91,65.699,320.65,65.059,319.951,64.636z"/>
	<path style="&st0;" d="M290.419,81.604c-1.532,0-2.953,0-4.358,0c-0.244,1.106,0.245,2.092,1.18,2.453
		c0.823,0.314,1.359-0.027,2.115-1.351c0.311-0.082,0.583,0.089,0.878,0.128c-0.14,1.148-0.874,2.088-1.859,2.239
		c-1.207,0.187-2.294-0.043-2.954-1.219c-0.313-0.563-0.504-1.16-0.527-1.809c-0.023-0.784-0.059-1.576,0.167-2.348
		c0.346-1.173,1.23-2.081,2.367-2.162c0.943-0.07,1.619,0.318,2.178,0.997c0.225,0.276,0.388,0.594,0.497,0.936
		C290.311,80.134,290.33,80.813,290.419,81.604z M289.231,80.615c-0.058-1.301-0.675-2.104-1.563-2.085
		c-1.006,0.023-1.677,0.854-1.649,2.085C287.128,80.615,288.18,80.615,289.231,80.615z"/>
	<path style="&st0;" d="M279.847,67.551c-1.56,0-3.027,0-4.502,0c0.268,1.878,0.528,2.228,1.844,2.526
		c0.893-0.082,1.276-0.722,1.564-1.424c0.085-0.027,0.136-0.062,0.182-0.054c0.241,0.046,0.485,0.101,0.727,0.151
		c-0.09,1.292-1.071,2.216-2.286,2.298c-1.945,0.132-2.779-1.293-2.978-2.608c-0.147-0.943-0.147-1.929,0.128-2.868
		c0.261-0.893,0.765-1.638,1.65-1.976c1.28-0.485,2.161-0.023,2.88,0.889c0.205,0.249,0.36,0.555,0.469,0.862
		C279.762,66.018,279.793,66.724,279.847,67.551z M278.706,66.425c-0.151-1.339-0.835-2.08-1.797-1.956
		c-0.916,0.117-1.549,1.04-1.394,2.049C276.758,66.658,278.232,66.615,278.706,66.425z"/>
	<path style="&st0;" d="M236.684,70.089c1.018-0.275,1.063-0.314,1.646-1.463c0.329-0.097,0.621,0.132,0.981,0.12
		c-0.132,0.508-0.287,0.947-0.578,1.335c-0.698,0.924-1.681,1.149-2.725,0.912c-1.122-0.252-1.724-1.118-1.991-2.189
		c-0.252-0.994-0.264-2.014-0.004-3.008c0.26-1.021,0.772-1.878,1.844-2.24c1.036-0.349,2.1,0.02,2.748,0.908
		c0.47,0.637,0.869,1.867,0.714,3.051c-0.706,0.008-1.433,0.016-2.162,0.02c-0.726,0.004-1.459,0-2.185,0
		C234.859,68.921,235.403,69.72,236.684,70.089z M236.634,64.461c-0.951,0.004-1.611,0.831-1.63,2.081c1.074,0,2.149,0,3.225,0
		C238.252,65.253,237.631,64.457,236.634,64.461z"/>
	<path style="&st0;" d="M194.744,81.624c0.05,0.869,0.225,1.575,0.818,2.123c0.808,0.749,1.755,0.376,2.186-0.241
		c0.171-0.24,0.287-0.527,0.427-0.795c0.338-0.136,0.617,0.116,0.936,0.12c-0.151,1.16-0.881,2.088-1.867,2.235
		c-1.219,0.183-2.267,0.07-2.934-1.203c-0.866-1.649-0.851-3.361,0.008-5.022c0.492-0.942,1.323-1.335,2.398-1.28
		c1.021,0.046,1.63,0.655,2.053,1.467c0.403,0.776,0.481,1.638,0.389,2.597C197.693,81.624,196.258,81.624,194.744,81.624z
		 M198.055,80.623c0.209-1.211-0.706-2.058-1.525-2.089c-0.753-0.026-1.813,0.776-1.626,2.089
		C195.993,80.623,197.026,80.623,198.055,80.623z"/>
	<path style="&st0;" d="M220.654,82.68c0.346-0.059,0.598,0.198,0.908,0.116c-0.093,1.296-0.989,2.22-2.204,2.31
		c-1.553,0.116-2.534-0.578-2.954-2.127c-0.345-1.277-0.321-2.554,0.183-3.792c0.415-1.021,1.518-1.917,2.931-1.595
		c0.889,0.205,1.436,0.799,1.797,1.599c0.334,0.733,0.369,1.514,0.33,2.402c-1.463,0-2.915,0-4.421,0
		c0.035,0.788,0.171,1.429,0.641,1.976c0.621,0.729,1.754,0.971,2.515-0.283C220.499,83.095,220.565,82.878,220.654,82.68z
		 M218.974,78.526c-0.753-0.012-1.813,0.882-1.587,2.097c1.04,0,2.084,0,3.136,0C220.593,79.393,219.952,78.546,218.974,78.526z"/>
</g>
</svg>
