<?xml version="1.0" encoding="utf-8"?>
<!-- Generator: Adobe Illustrator 16.0.0, SVG Export Plug-In . SVG Version: 6.00 Build 0)  -->
<!DOCTYPE svg PUBLIC "-//W3C//DTD SVG 1.1//EN" "http://www.w3.org/Graphics/SVG/1.1/DTD/svg11.dtd" [
	<!ENTITY ns_extend "http://ns.adobe.com/Extensibility/1.0/">
	<!ENTITY ns_ai "http://ns.adobe.com/AdobeIllustrator/10.0/">
	<!ENTITY ns_graphs "http://ns.adobe.com/Graphs/1.0/">
	<!ENTITY ns_vars "http://ns.adobe.com/Variables/1.0/">
	<!ENTITY ns_imrep "http://ns.adobe.com/ImageReplacement/1.0/">
	<!ENTITY ns_sfw "http://ns.adobe.com/SaveForWeb/1.0/">
	<!ENTITY ns_custom "http://ns.adobe.com/GenericCustomNamespace/1.0/">
	<!ENTITY ns_adobe_xpath "http://ns.adobe.com/XPath/1.0/">
]>
<svg version="1.1" id="Layer_1" xmlns:x="&ns_extend;" xmlns:i="&ns_ai;" xmlns:graph="&ns_graphs;"
	 xmlns="http://www.w3.org/2000/svg" xmlns:xlink="http://www.w3.org/1999/xlink" x="0px" y="0px" width="792px" height="331.5px"
	 viewBox="0 0 792 331.5" enable-background="new 0 0 792 331.5" xml:space="preserve">
<metadata>
	<sfw  xmlns="&ns_sfw;">
		<slices></slices>
		<sliceSourceBounds  width="726.926" height="243.37" x="44.875" y="177.857" bottomLeftOrigin="true"></sliceSourceBounds>
	</sfw>
</metadata>
<g>
	<path fill="none" stroke="#73797D" stroke-width="1.6166" stroke-miterlimit="3.8635" d="M115.208,106.762v89.839
		c0,1.717-1.386,3.105-3.095,3.105H83.952c-1.881-0.045-3.244,3.109-3.244,3.109s-1.368-3.154-3.333-3.109
		c0.002,0-28.097,0-28.097,0c-1.712,0-3.094-1.39-3.094-3.105v-89.831L115.208,106.762L115.208,106.762z"/>
	<path fill="none" stroke="#73797D" stroke-width="0.8045" stroke-miterlimit="3.8637" d="M91.047,121.069l-2.744-4.371
		c-3.281,0.757-2.475-2.095-0.694-3.212c1.958-1.23,4.169-0.794,2.747,1.923c0,0,0.634,1.031,1.69,2.706
		C92.046,118.113,91.329,119.483,91.047,121.069L91.047,121.069z M103.186,135.732l7.476,11.869l-0.553,0.552l-2.618-2.078
		c0,0-0.161-1.734-0.574-2.093c-1.407-1.214-0.571-1.884-1.117-3.009c-0.541-1.125-3.738-1.994-4.481-3.682
		c0.016,0.079-1.23-1.976-1.23-1.976C102.939,134.817,103.186,135.732,103.186,135.732L103.186,135.732z M94.422,121.736
		c-0.009-0.027,2.657,4.366,2.646,4.312c-1.649-0.197-2.453-0.673-2.783-1.563C93.896,123.482,94.202,122.152,94.422,121.736
		L94.422,121.736z M54.473,163.527l5.837,14.736 M54.949,163.952l5.417,10.474 M55.345,164.115l4.927,7.391 M55.64,163.979
		l4.516,5.367 M55.581,163.483l6.541,6.175 M55.527,163.12l8.961,6.706 M55.387,162.812l13.156,7.729 M62.5,139.32l-0.197,4.553
		h2.653l-0.2-4.553H62.5L62.5,139.32z M64.709,138.066l-1.081-24.418l-1.106,24.418H64.709L64.709,138.066z M59.147,138.093h8.959
		v1.222h-8.959V138.093L59.147,138.093z M66.452,143.878c0,1.831-1.263,3.099-2.827,3.099c-1.558,0-2.823-1.268-2.823-3.099H66.452
		L66.452,143.878z M59.518,126.978c0,2.339-1.934,4.237-4.314,4.237c-2.385,0-4.314-1.897-4.314-4.237H59.518L59.518,126.978z
		 M94.947,120.842c0,0,0.953,1.296,1.971,0.694c1.873-1.104-0.437-7.397-4.285-4.196c-0.845,0.705-1.978,3.979-1.758,6.074
		c0.222,2.096,1.151,4.754,3.516,5.302c1.428,0.327,4.271-0.462,5.452,1.481c0.877-0.327,1.839-3.798-0.614-3.91
		c-2.42-0.11-4.466-0.523-4.838-1.547C93.514,122.309,94.947,120.842,94.947,120.842L94.947,120.842z M97.128,130.687
		c-0.953,0.462-1.648,1.563-1.316,2.785c0.33,1.224,1.818,1.957,3.917,1.844c0.116-0.004,0.227-0.013,0.334-0.021
		c1.856-0.137,2.686-0.361,3.313,0.688c0.668-0.776,0.469-2.513-0.473-3.316C101.471,131.449,97.737,132.999,97.128,130.687
		L97.128,130.687z M101.276,137.314c-0.222,1.003-0.896,2.341-0.33,3.557c0.772,1.666,2.209,0.779,2.653,1.778
		c0.445,0.999,0.018,2.485,0.997,2.778c1.879,0.557,1.219,2.444,2.213,2.332c0.876-0.098,0.909-3.047,0-3.887
		c-1.329-1.224-0.444-2.11-1.106-3.113C105.037,139.762,102.604,139.315,101.276,137.314L101.276,137.314z"/>
	<path fill="none" stroke="#73797D" stroke-width="0.5172" stroke-miterlimit="3.8637" d="M81.938,143.531
		c0-0.068,0.056-0.123,0.123-0.123c0.071,0,0.126,0.055,0.126,0.123c0,0.068-0.053,0.123-0.126,0.123
		C81.992,143.656,81.938,143.599,81.938,143.531L81.938,143.531z M95.929,118.644c0.179-0.067,0.389,0.066,0.471,0.293
		c0.086,0.231,0.002,0.467-0.172,0.535c-0.179,0.065-0.391-0.068-0.475-0.298C95.671,118.951,95.749,118.71,95.929,118.644
		L95.929,118.644z"/>
	<path fill="none" stroke="#73797D" stroke-width="0.8045" stroke-miterlimit="3.8637" d="M61.719,178.27
		c0-3.537,2.849-6.398,6.364-6.398s6.362,2.861,6.362,6.398c0,3.526-2.847,6.389-6.362,6.389S61.719,181.796,61.719,178.27
		L61.719,178.27z M74.665,193.982h-3.097v-5.978h-19.04v-3.06h22.137V193.982L74.665,193.982z M55.284,178.964
		c0-0.715,0.578-1.302,1.297-1.302c0.718,0,1.296,0.587,1.296,1.302c0,0.724-0.578,1.308-1.296,1.308
		C55.862,180.271,55.284,179.688,55.284,178.964L55.284,178.964z M55.341,178.592l-2.226,6.323l3.433-4.646 M57.822,178.592
		l2.225,6.323l-3.438-4.646 M62.632,175.256c-0.321,1.749,2.93,1.729,2.653,2.67c-0.67,2.276,0.662,2.194,0.884,3.389
		c0,0-0.222,2.837,0.55,3.061c0.444-0.609,0.113-1.805,0.661-2.445c0.583-0.668,1.386-1.025,1.386-2.219
		c0-0.865-1.199-1.141-1.552-1.388c-0.387-0.286-1.104-0.509-1.602-0.509c0,0-1.271-2.441-0.884-2.889
		c0.437-0.383,1.104,0.559,1.379,0.559c0.577,0,0.688-1.164,1.6-1.164c0-0.279-0.053-1.143-0.218-1.223
		c-0.913,0-1.493,0.437-2.268-0.508C65.23,172.588,62.956,173.51,62.632,175.256L62.632,175.256z M70.067,172.116
		c-0.71-0.271-1.795-0.161-1.795-0.161c0.939,0.443,0.883,1.691,1.271,1.691c0.774,0,1.159-0.635,1.934-0.774
		C71.479,172.871,70.78,172.393,70.067,172.116L70.067,172.116z M74.387,177.005c0-1.599-2.133-3.579-2.133-3.579
		s-1.054,1.942-0.556,3.948c0.497,0.048,1.934-0.114,1.934-0.114c0.362,0.162,0.22,0.752,0.22,1.105
		c0,0.893-0.275,3.169-0.275,3.169S74.387,178.607,74.387,177.005L74.387,177.005z"/>
	<polygon fill="none" stroke="#73797D" stroke-width="0.5172" stroke-miterlimit="3.8637" points="54.278,160.082 53.63,161.483 
		52.131,161.663 53.228,162.7 52.931,164.195 54.259,163.464 55.611,164.209 55.351,162.686 56.416,161.663 54.917,161.454 	"/>
	
		<line fill="none" stroke="#73797D" stroke-width="1.6166" stroke-miterlimit="3.8635" x1="80.693" y1="164.541" x2="80.693" y2="202.563"/>
	
		<path fill="none" stroke="#73797D" stroke-width="0.8048" stroke-linecap="round" stroke-linejoin="round" stroke-miterlimit="3.8637" d="
		M86.186,183.034l-1.635,1.86c-0.215,0.252-0.105,1.973,0.008,2.467c1.291,0.518,19.584,6.275,19.584,6.275l7.439-8.115
		l-1.163-0.495c-0.327-0.535,0.727-2.323,0.727-2.323l-3.604-1.42 M104.152,190.034c-0.292,0.235-0.223,3.278,0.013,3.618
		c0.014,0,7.419-8.126,7.419-8.126l-0.769-0.7c-0.063-0.727,0.132-2.05,0.132-2.05L104.152,190.034L104.152,190.034z
		 M103.461,185.037c-0.308,0.137-0.488,4.122-0.072,4.146c0-0.004,6.112-6.939,6.112-6.939l-0.597-0.333L103.461,185.037
		L103.461,185.037z"/>
	
		<path fill="none" stroke="#73797D" stroke-width="0.517" stroke-linecap="round" stroke-linejoin="round" stroke-miterlimit="3.8637" d="
		M88.422,179.773l-1.912,1.949c-0.274,0.146-0.063,1.974,0,2.483c0.67,0.188,16.868,4.998,16.868,4.998l6.096-7.015l-1.934-0.694"/>
	<path fill="none" stroke="#73797D" stroke-width="0.8045" stroke-miterlimit="3.8637" d="M106.11,169.619v11.615
		c-1.587-0.383-7.544-1.146-8.151-0.198c-0.497-0.947-5.286-0.521-8.162,0.12v-11.18c-0.362,1.619-1.463,2.209-1.463,2.209v9.85
		l8.49-0.607c0.939,0.607,2.017,0.221,2.376,0.055l8.151,0.262v-11.027C107.354,170.714,106.548,170.646,106.11,169.619
		L106.11,169.619z M106.11,181.234c-1.733,0-6.908-1.393-8.124-0.172c1.104-0.026,1.134,0.69,0,0.722
		c-1.215-0.082-1.021-0.778,0-0.688c-1.05-1.365-8.172,0.278-8.172,0.278l-0.018-11.397c1.979,0,4.024-0.949,5.414-0.949
		c1.391,0,2.852,0.593,2.852,0.593s2.187-0.885,3.731-0.885c1.831,0,2.77,1.5,4.232,0.978
		C106,170.418,106.11,181.234,106.11,181.234L106.11,181.234z"/>
	
		<line fill="none" stroke="#73797D" stroke-width="0.5172" stroke-miterlimit="3.8637" x1="98.042" y1="169.635" x2="97.97" y2="181.027"/>
	<path fill="none" stroke="#73797D" stroke-width="0.559" stroke-miterlimit="3.8637" d="M89.559,185.146l-0.614,0.615
		c-0.279,0.327-0.283,2.893,0.007,3.025c-0.007,0.043,1.324,0.385,0.732,0.116c-0.125-0.823-0.076-2.603,0.148-2.857l0.666-0.651
		L89.559,185.146L89.559,185.146z M91.686,185.758l-0.581,0.623c-0.283,0.32-0.399,2.954-0.107,3.086
		c-0.009,0.047,1.437,0.314,0.848,0.045c-0.132-0.826-0.079-2.605,0.143-2.855l0.616-0.616L91.686,185.758L91.686,185.758z
		 M96.855,187.287l-0.692,0.727c-0.279,0.324-0.43,2.832-0.139,2.961c-0.007,0.045,1.468,0.442,0.876,0.172
		c-0.126-0.816-0.073-2.601,0.146-2.854l0.748-0.759L96.855,187.287L96.855,187.287z M98.819,187.898l-0.694,0.731
		c-0.285,0.32-0.403,2.847-0.113,2.98c-0.006,0.043,1.441,0.421,0.85,0.157c-0.13-0.828-0.075-2.604,0.146-2.86l0.75-0.756
		L98.819,187.898L98.819,187.898z M89.557,181.969l-0.462,0.473c-0.216,0.248-0.258,2.394-0.035,2.503
		c-0.005,0.036,0.603,0.237,0.69,0.206c0.093-0.002-0.053-0.221-0.095-0.324c-0.097-0.627-0.057-1.977,0.112-2.17l0.503-0.494
		L89.557,181.969L89.557,181.969z"/>
	<path fill="none" stroke="#73797D" stroke-width="0.8045" stroke-miterlimit="3.8637" d="M98.066,169.529
		c-2.208-0.057-2.811-1.817-2.811-1.817l0.857-0.039c0,0-1.08-0.657-0.841-1.301c-0.017-0.03,0.755,0.083,0.755,0.083
		s-0.325-0.885-0.03-1.468l0.686,0.287c0.198-1.178,1.417-1.448,1.417-1.448s1.134,0.147,1.464,1.448l0.688-0.287
		c0.294,0.583-0.025,1.468-0.025,1.468s0.771-0.111,0.751-0.083c0.24,0.644-0.84,1.301-0.84,1.301l0.861,0.039
		C100.998,167.711,100.276,169.475,98.066,169.529L98.066,169.529z"/>
	
		<line fill="none" stroke="#73797D" stroke-width="1.6166" stroke-miterlimit="3.8635" x1="46.124" y1="153.798" x2="69.974" y2="153.798"/>
	
		<line fill="none" stroke="#73797D" stroke-width="1.5583" stroke-miterlimit="3.8637" x1="91.514" y1="153.798" x2="115.169" y2="153.798"/>
	<polygon fill="none" stroke="#FFFFFF" stroke-width="0.8045" stroke-miterlimit="3.8637" points="80.728,144.987 88.334,158.364 
		73.059,158.364 	"/>
	<path fill="none" stroke="#73797D" stroke-width="0.8045" stroke-miterlimit="3.8637" d="M80.666,151.6
		c2.753,0,5.146,2.265,5.112,2.623c0.027,0.336-2.364,2.604-5.112,2.604c-2.752,0-5.15-2.269-5.126-2.604
		C75.514,153.865,77.815,151.491,80.666,151.6L80.666,151.6z M78.097,154.219c0-1.427,1.148-2.579,2.565-2.579
		c1.414,0,2.562,1.154,2.562,2.579c0,1.421-1.147,2.571-2.562,2.571C79.247,156.788,78.097,155.637,78.097,154.219L78.097,154.219z"
		/>
	<path fill="#73797D" stroke="#73797D" stroke-width="0.5172" stroke-miterlimit="3.8637" d="M80.34,154.219
		c0-0.181,0.143-0.327,0.323-0.327c0.173,0,0.319,0.146,0.319,0.327c0,0.175-0.145,0.321-0.319,0.321
		C80.482,154.537,80.34,154.392,80.34,154.219L80.34,154.219z"/>
	<path fill="none" stroke="#73797D" stroke-width="0.8045" stroke-miterlimit="3.8637" d="M80.735,144.703
		c-5.024,0-9.139,4.11-9.139,9.156c0,5.052,4.077,9.146,9.099,9.146c5.029,0,9.102-4.096,9.102-9.146
		c0-4.54-3.295-8.306-7.616-9.022c-1.607,0.117-1.689-0.468-1.744-0.771c-0.148-0.825,0.922-1.307,1.687-1.307
		c1.329,0,1.213,0.777,2.011,0.943c4.229,1.439,7.273,5.46,7.273,10.192c0,5.942-4.794,10.758-10.707,10.758
		c-5.912,0-10.705-4.815-10.705-10.758s4.444-10.522,10.415-10.08C80.315,144.206,80.735,144.703,80.735,144.703L80.735,144.703z"/>
	<polygon fill="none" stroke="#73797D" stroke-width="1.4452" stroke-miterlimit="3.8635" points="80.684,68.931 77.407,75.55 
		70.004,76.624 75.341,81.917 74.238,89.094 80.684,85.818 87.127,89.094 85.94,81.852 91.109,76.783 84.012,75.623 	"/>
	<path fill="none" stroke="#73797D" stroke-width="0.746" stroke-miterlimit="3.8635" d="M80.684,69.171v16.646 M70.26,76.781
		l15.681,5.069 M74.238,89.094l9.767-13.471 M87.127,89.094L77.409,75.55 M91.109,76.783l-15.769,5.14"/>
	<path fill="none" stroke="#73797D" stroke-width="1.4452" stroke-miterlimit="3.8635" d="M75.254,81.984l-22.172,7.309
		 M108.182,71.133l-17.059,5.624 M77.387,75.536L63.692,56.64 M99.764,106.788l-12.76-17.74 M84.019,75.599l13.629-19.041
		 M61.306,106.788l12.916-17.74 M70.189,76.759l-17.025-5.626 M108.102,89.292l-22.074-7.395 M80.684,51.023v18.574"/>
	<path fill="none" stroke="#73797D" stroke-width="0.746" stroke-miterlimit="3.8635" d="M74.955,84.523l-9.11,6.589 M95.561,69.419
		L86.6,75.962 M78.542,86.96l-3.489,10.798 M86.422,62.6l-3.464,10.709 M82.881,86.971l3.47,10.716 M74.972,62.502l3.522,10.893
		 M86.349,84.369l9.049,6.606 M65.682,69.283l9.029,6.592 M87.722,80.259l11.411,0.002 M62.316,80.259h11.235"/>
	<path fill="none" stroke="#73797D" stroke-width="0.8045" stroke-miterlimit="3.8637" d="M99.398,129.652
		c0.5,0.741,1.521,2.471,1.49,2.471c0,0-2.403,0.166-3.258-0.639c-0.188-0.284-1.633-2.621-1.633-2.621
		S98.898,128.905,99.398,129.652L99.398,129.652z M55.193,117.155l-4.257,9.79l8.517,0.024L55.193,117.155L55.193,117.155z
		 M67.849,126.978c0,2.339,1.932,4.237,4.316,4.237c2.384,0,4.314-1.897,4.314-4.237H67.849L67.849,126.978z M72.171,117.155
		l4.252,9.79l-8.514,0.024L72.171,117.155L72.171,117.155z M62.381,143.232l2.545-1.192 M62.302,141.595l2.543-1.197"/>
	<path fill="none" stroke="#73797D" stroke-width="0.5172" stroke-miterlimit="3.8637" d="M63.575,116.986h-8.38v-1.002h8.294
		L63.575,116.986L63.575,116.986z M63.71,115.984h8.433v1.002h-8.378L63.71,115.984L63.71,115.984z M91.991,172.126
		c1.156-0.032,2.657-1.188,4.32-0.63 M91.981,173.398c1.156-0.032,2.666-1.133,4.329-0.569 M91.966,174.672
		c1.163-0.033,2.679-1.08,4.344-0.521 M91.96,175.946c1.159-0.036,2.682-1.028,4.347-0.466 M91.952,177.217
		c1.161-0.035,2.693-0.971,4.354-0.414 M91.942,178.488c1.157-0.039,2.699-0.92,4.36-0.356 M104.114,171.754
		c-1.159-0.037-2.708-0.816-4.371-0.258 M104.116,173.096c-1.158-0.041-2.71-0.83-4.37-0.268 M104.116,174.436
		c-1.158-0.039-2.708-0.844-4.368-0.285 M104.116,175.777c-1.158-0.039-2.708-0.859-4.366-0.297 M104.116,177.117
		c-1.156-0.045-2.705-0.872-4.366-0.314 M104.12,178.455c-1.159-0.039-2.706-0.888-4.369-0.32"/>
	<polygon fill="none" stroke="#73797D" stroke-width="0.8045" stroke-miterlimit="3.8637" points="80.728,144.987 88.334,158.364 
		73.059,158.364 	"/>
	<path fill="none" stroke="#73797D" stroke-width="0.559" stroke-miterlimit="3.8637" d="M91.179,182.362l-0.464,0.468
		c-0.214,0.247-0.256,2.396-0.035,2.499c0.104,0.06,0.606,0.292,0.688,0.265c0.088,0-0.065-0.274-0.095-0.379
		c-0.097-0.629-0.057-1.975,0.112-2.174l0.504-0.494L91.179,182.362L91.179,182.362z"/>
	<polygon fill="#73797D" points="79.921,85.818 81.313,85.818 81.313,142.591 80.668,143.467 80.403,143.815 79.974,143.518 	"/>
	<path fill="none" stroke="#73797D" stroke-width="0.559" stroke-miterlimit="3.8637" d="M97.778,184.258l-0.463,0.473
		c-0.214,0.25-0.256,2.4-0.035,2.504c-0.004,0.037,0.606,0.238,0.69,0.211c0.091-0.006-0.05-0.225-0.095-0.329
		c-0.097-0.621-0.059-1.978,0.113-2.163l0.504-0.496L97.778,184.258L97.778,184.258z M99.405,184.65l-0.465,0.473
		c-0.215,0.244-0.257,2.396-0.035,2.498c0.105,0.059,0.605,0.299,0.691,0.268c0.09-0.008-0.069-0.277-0.097-0.381
		c-0.095-0.625-0.054-1.977,0.111-2.173l0.506-0.498L99.405,184.65L99.405,184.65z"/>
</g>
<g>
	<path fill="#E30613" d="M238.565,134.237h8.473v16.035h-8.473v45.576c-1.894,16.101-12.368,28.147-29.33,27.481v-16.024
		c7.228,0.238,11.532-2.517,12.285-11.08l0.046-45.953h-7.99v-16.033h7.99l0.002-10.783c0.4-16.983,10.817-29.472,29.614-27.313
		v15.892c-8.041-0.639-12.545,2.634-12.621,11.55L238.565,134.237L238.565,134.237z"/>
	<path fill="none" stroke="#73797D" stroke-width="1.597" stroke-miterlimit="3.8637" d="M348.801,223.141V95.846 M139.386,223.141
		V95.823"/>
	<path fill="#73797D" d="M156.311,134.491c0-9.097,4.508-12.425,12.624-11.785v-15.891c-18.934-2.18-29.368,10.508-29.623,27.676
		v14.993v50.736h16.999v-50.736h11.979v-14.993H156.311L156.311,134.491z"/>
	<path fill="#73797D" d="M198.161,200.221h13.267v-16.397h-11.852c-10.694,0-17.517-7.304-17.517-16.659
		c0-9.353,6.827-16.656,17.517-16.656h11.852v-16.271h-13.267c-20.22,0-33.104,14.48-33.104,32.927
		C165.058,185.612,177.94,200.221,198.161,200.221L198.161,200.221z"/>
	<path fill="#73797D" d="M348.592,162.075c0-17.289-10.942-29.458-29.484-29.458c-8.624,0-16.093,3.586-21.113,9.35
		c-4.764-5.764-12.103-9.35-21.119-9.35c-18.152,0-29.874,12.679-29.874,29.458v38.177H264v-38.557
		c0-7.428,5.284-12.554,12.877-12.554c11.201,0,12.363,8.838,12.363,12.554v38.557h16.995v-38.557
		c0-7.428,5.405-12.554,12.874-12.554c11.205,0,12.492,8.838,12.492,12.554v38.557h16.994v-38.177H348.592z"/>
</g>
<g>
	<path fill="#73797D" d="M139.458,282.383v7.535c0,0.605,0.084,1.182,0.25,1.73c0.178,0.537,0.448,1.011,0.809,1.419
		c0.379,0.405,0.852,0.735,1.427,0.972c0.584,0.23,1.291,0.348,2.105,0.348c0.827,0,1.53-0.115,2.102-0.348
		c0.586-0.236,1.062-0.566,1.429-0.972c0.372-0.408,0.645-0.878,0.812-1.419c0.178-0.549,0.264-1.125,0.264-1.73v-7.535h-1.129
		v7.286c0,0.685-0.074,1.265-0.229,1.749c-0.153,0.473-0.376,0.863-0.675,1.174c-0.302,0.291-0.665,0.512-1.096,0.652
		c-0.43,0.131-0.922,0.197-1.474,0.197c-0.544,0-1.03-0.066-1.463-0.197c-0.432-0.141-0.793-0.361-1.092-0.652
		c-0.3-0.313-0.524-0.701-0.682-1.174c-0.154-0.484-0.229-1.064-0.229-1.749v-7.286H139.458L139.458,282.383z"/>
	<polygon fill="#73797D" points="152.115,282.383 152.115,294.151 153.24,294.151 153.24,284.202 153.274,284.202 160.171,294.151 
		161.433,294.151 161.433,282.383 160.301,282.383 160.301,292.342 160.271,292.342 153.374,282.383 	"/>
	<polygon fill="#73797D" points="165.086,282.383 165.086,294.151 166.212,294.151 166.212,282.383 	"/>
	<polygon fill="#73797D" points="168.598,282.383 172.977,294.151 174.279,294.151 178.673,282.383 177.482,282.383 
		173.668,292.917 173.633,292.917 169.792,282.383 	"/>
	<polygon fill="#73797D" points="180.923,282.383 180.923,294.151 189.176,294.151 189.176,293.2 182.05,293.2 182.05,288.557 
		188.65,288.557 188.65,287.596 182.05,287.596 182.05,283.344 189.094,283.344 189.094,282.383 	"/>
	<path fill="#73797D" d="M193.081,287.973v-4.629h4.209c0.869,0,1.507,0.202,1.927,0.629c0.418,0.414,0.632,0.987,0.632,1.711
		c0,0.363-0.073,0.687-0.223,0.975c-0.132,0.271-0.313,0.507-0.545,0.702c-0.233,0.2-0.504,0.353-0.807,0.46
		c-0.313,0.105-0.639,0.15-0.984,0.15h-4.209V287.973z M191.959,282.383v11.769h1.123v-5.226h4.278
		c0.529-0.018,0.945,0.068,1.24,0.268c0.314,0.193,0.537,0.459,0.695,0.787c0.167,0.32,0.269,0.695,0.314,1.108
		c0.055,0.41,0.095,0.818,0.12,1.235c0.01,0.127,0.022,0.268,0.036,0.428c0.011,0.165,0.024,0.337,0.03,0.51
		c0.021,0.164,0.053,0.33,0.082,0.5c0.046,0.148,0.099,0.281,0.167,0.39h1.24c-0.125-0.138-0.219-0.331-0.297-0.591
		c-0.066-0.268-0.119-0.537-0.148-0.82c-0.038-0.299-0.053-0.592-0.064-0.879c-0.009-0.286-0.021-0.52-0.03-0.723
		c-0.025-0.353-0.073-0.679-0.155-0.972c-0.069-0.31-0.183-0.575-0.349-0.812c-0.148-0.229-0.359-0.422-0.612-0.56
		c-0.248-0.149-0.571-0.26-0.964-0.313v-0.031c0.766-0.157,1.338-0.505,1.726-1.061c0.387-0.549,0.583-1.193,0.583-1.941
		c0-0.528-0.102-0.982-0.3-1.375c-0.188-0.393-0.442-0.709-0.781-0.954c-0.316-0.253-0.694-0.438-1.14-0.562
		c-0.429-0.117-0.893-0.181-1.379-0.181L191.959,282.383L191.959,282.383z"/>
	<path fill="#73797D" d="M204.75,290.275h-1.131c-0.03,0.734,0.063,1.354,0.281,1.873c0.229,0.515,0.558,0.938,0.976,1.269
		c0.42,0.328,0.929,0.58,1.528,0.739c0.595,0.154,1.239,0.232,1.938,0.232c0.692,0,1.297-0.069,1.791-0.199
		c0.495-0.119,0.91-0.278,1.238-0.48c0.344-0.206,0.605-0.438,0.795-0.691c0.204-0.252,0.347-0.498,0.443-0.738
		c0.115-0.258,0.183-0.49,0.205-0.709c0.031-0.217,0.047-0.393,0.047-0.524c0-0.489-0.084-0.894-0.254-1.239
		c-0.151-0.34-0.372-0.627-0.662-0.856c-0.276-0.241-0.601-0.437-0.977-0.597c-0.36-0.166-0.757-0.303-1.179-0.409l-2.88-0.711
		c-0.242-0.056-0.478-0.128-0.691-0.214c-0.214-0.09-0.404-0.201-0.569-0.346c-0.165-0.14-0.295-0.314-0.396-0.509
		c-0.09-0.215-0.13-0.458-0.13-0.729c0-0.436,0.08-0.805,0.244-1.102c0.165-0.299,0.381-0.537,0.647-0.709
		c0.279-0.186,0.591-0.316,0.943-0.4c0.361-0.088,0.743-0.131,1.129-0.131c0.42,0,0.814,0.06,1.192,0.185
		c0.387,0.11,0.725,0.274,1.012,0.509c0.297,0.217,0.532,0.507,0.713,0.846c0.185,0.33,0.291,0.713,0.313,1.168h1.129
		c0-0.602-0.121-1.135-0.361-1.582c-0.229-0.469-0.547-0.849-0.943-1.154c-0.401-0.312-0.863-0.545-1.394-0.69
		c-0.533-0.159-1.09-0.228-1.675-0.228c-0.836,0-1.509,0.115-2.044,0.355c-0.521,0.229-0.946,0.518-1.254,0.854
		c-0.299,0.35-0.501,0.709-0.611,1.089c-0.109,0.391-0.168,0.717-0.168,1.01c0,0.459,0.073,0.851,0.216,1.166
		c0.155,0.324,0.356,0.591,0.601,0.812c0.243,0.215,0.522,0.391,0.841,0.525c0.332,0.129,0.669,0.242,1.013,0.328l2.635,0.641
		c0.275,0.066,0.555,0.152,0.843,0.264c0.286,0.103,0.548,0.23,0.779,0.397c0.244,0.168,0.435,0.37,0.582,0.608
		c0.155,0.244,0.233,0.523,0.233,0.857c0,0.43-0.107,0.789-0.319,1.104c-0.206,0.301-0.475,0.545-0.794,0.742
		c-0.309,0.19-0.645,0.328-1.009,0.416c-0.367,0.09-0.703,0.128-1.014,0.128c-0.537,0-1.05-0.046-1.522-0.145
		c-0.479-0.108-0.892-0.286-1.242-0.526c-0.344-0.24-0.612-0.561-0.813-0.969C204.832,291.393,204.738,290.881,204.75,290.275
		L204.75,290.275z"/>
	<polygon fill="#73797D" points="215.947,282.383 215.947,294.151 217.074,294.151 217.074,282.383 	"/>
	<path fill="#73797D" d="M220.749,282.383v11.769h4.085c1.807-0.036,3.161-0.537,4.066-1.495c0.917-0.967,1.375-2.428,1.375-4.387
		s-0.458-3.41-1.375-4.371c-0.905-0.963-2.258-1.469-4.066-1.514h-4.085V282.383z M221.87,293.2v-9.854h2.407
		c0.853,0,1.579,0.094,2.191,0.274c0.616,0.176,1.126,0.46,1.524,0.858c0.395,0.397,0.685,0.902,0.871,1.529
		c0.195,0.629,0.292,1.385,0.292,2.262c0,0.885-0.097,1.635-0.292,2.262c-0.187,0.625-0.477,1.137-0.871,1.527
		c-0.4,0.401-0.908,0.688-1.524,0.873c-0.612,0.176-1.339,0.266-2.191,0.266h-2.407V293.2z"/>
	<path fill="#73797D" d="M234.981,289.54l2.368-6.032l2.282,6.032H234.981L234.981,289.54z M236.77,282.383l-4.754,11.769h1.194
		l1.425-3.652h5.386l1.439,3.652h1.214l-4.642-11.769H236.77L236.77,282.383z"/>
	<path fill="#73797D" d="M244.953,282.383v11.769h4.09c1.802-0.036,3.161-0.537,4.065-1.495c0.913-0.967,1.371-2.428,1.371-4.387
		s-0.458-3.41-1.371-4.371c-0.904-0.963-2.261-1.469-4.065-1.514h-4.09V282.383z M246.078,293.2v-9.854h2.41
		c0.846,0,1.576,0.094,2.185,0.274c0.616,0.176,1.122,0.46,1.522,0.858c0.398,0.397,0.688,0.902,0.876,1.529
		c0.187,0.629,0.281,1.385,0.281,2.262c0,0.885-0.097,1.635-0.281,2.262c-0.186,0.625-0.479,1.137-0.876,1.527
		c-0.402,0.401-0.906,0.688-1.522,0.873c-0.606,0.176-1.339,0.266-2.185,0.266h-2.41V293.2z"/>
	<path fill="#73797D" d="M267.481,282.383v11.769h4.092c1.8-0.036,3.157-0.537,4.063-1.495c0.918-0.967,1.372-2.428,1.372-4.387
		s-0.454-3.41-1.372-4.371c-0.906-0.963-2.262-1.469-4.063-1.514h-4.092V282.383z M268.605,293.2v-9.854h2.409
		c0.847,0,1.577,0.094,2.184,0.274c0.619,0.176,1.127,0.46,1.521,0.858c0.397,0.397,0.692,0.902,0.882,1.529
		c0.187,0.629,0.279,1.385,0.279,2.262c0,0.885-0.095,1.635-0.279,2.262c-0.187,0.625-0.486,1.137-0.882,1.527
		c-0.396,0.401-0.902,0.688-1.521,0.873c-0.606,0.176-1.337,0.266-2.184,0.266h-2.409V293.2z"/>
	<polygon fill="#73797D" points="280.039,282.383 280.039,294.151 288.295,294.151 288.295,293.2 281.165,293.2 281.165,288.557 
		287.762,288.557 287.762,287.596 281.165,287.596 281.165,283.344 288.211,283.344 288.211,282.383 	"/>
	<path fill="#73797D" d="M309.692,285.944h1.134c-0.08-0.614-0.268-1.158-0.567-1.626c-0.29-0.475-0.655-0.87-1.096-1.19
		c-0.431-0.333-0.919-0.582-1.456-0.745c-0.534-0.164-1.075-0.24-1.642-0.24c-0.928,0-1.744,0.166-2.45,0.506
		c-0.693,0.332-1.274,0.783-1.74,1.351c-0.462,0.563-0.813,1.212-1.048,1.946c-0.23,0.736-0.347,1.513-0.347,2.324
		c0,0.813,0.116,1.595,0.347,2.324c0.233,0.739,0.586,1.396,1.048,1.953c0.466,0.561,1.047,1.006,1.74,1.348
		c0.706,0.33,1.522,0.498,2.45,0.498c0.696,0,1.324-0.115,1.889-0.326c0.575-0.229,1.073-0.541,1.491-0.943
		c0.418-0.404,0.768-0.906,1.032-1.479c0.259-0.59,0.429-1.238,0.51-1.965h-1.129c-0.053,0.524-0.183,1.02-0.376,1.484
		c-0.202,0.449-0.462,0.84-0.781,1.184c-0.32,0.345-0.696,0.61-1.146,0.809c-0.437,0.197-0.937,0.293-1.49,0.293
		c-0.778,0-1.458-0.145-2.02-0.438c-0.563-0.299-1.027-0.688-1.396-1.175c-0.351-0.489-0.616-1.049-0.792-1.663
		c-0.165-0.625-0.251-1.259-0.251-1.896c0-0.646,0.086-1.273,0.251-1.893c0.176-0.613,0.441-1.162,0.792-1.65
		c0.369-0.491,0.834-0.887,1.396-1.187c0.562-0.297,1.238-0.44,2.02-0.44c0.432,0,0.841,0.066,1.226,0.195
		c0.403,0.125,0.76,0.301,1.083,0.547c0.327,0.235,0.606,0.547,0.829,0.903C309.431,285.094,309.592,285.497,309.692,285.944
		L309.692,285.944z"/>
	<polygon fill="#73797D" points="313.918,282.383 313.918,294.151 315.044,294.151 315.044,288.452 322.067,288.452 
		322.067,294.151 323.197,294.151 323.197,282.383 322.067,282.383 322.067,287.491 315.044,287.491 315.044,282.383 	"/>
	<polygon fill="#73797D" points="326.874,282.383 326.874,294.151 327.999,294.151 327.999,282.383 	"/>
	<polygon fill="#73797D" points="331.672,282.383 331.672,294.151 339.429,294.151 339.429,293.2 332.799,293.2 332.799,282.383 	
		"/>
	<polygon fill="#73797D" points="341.779,282.383 341.779,294.151 350.033,294.151 350.033,293.2 342.91,293.2 342.91,288.557 
		349.5,288.557 349.5,287.596 342.91,287.596 342.91,283.344 349.949,283.344 349.949,282.383 	"/>
	<polygon fill="#73797D" points="139.577,265.074 139.577,276.844 140.698,276.844 140.698,271.24 146.369,271.24 146.369,270.278 
		140.698,270.278 140.698,266.028 147.083,266.028 147.083,265.074 	"/>
	<path fill="#73797D" d="M149.806,264.137l2.188-2.328h-1.291l-1.738,2.328H149.806L149.806,264.137z M149.374,265.074v11.77h1.128
		v-11.77H149.374L149.374,265.074z"/>
	<path fill="#73797D" d="M154.319,272.973h-1.125c-0.035,0.724,0.057,1.342,0.277,1.863c0.23,0.521,0.559,0.938,0.979,1.268
		c0.42,0.328,0.929,0.576,1.524,0.74c0.597,0.151,1.241,0.229,1.94,0.229c0.694,0,1.293-0.063,1.79-0.189
		c0.498-0.125,0.909-0.279,1.239-0.486c0.346-0.207,0.606-0.435,0.799-0.688c0.2-0.253,0.347-0.498,0.448-0.737
		c0.108-0.25,0.176-0.5,0.196-0.715c0.034-0.217,0.051-0.396,0.051-0.523c0-0.487-0.086-0.896-0.247-1.237
		c-0.156-0.339-0.378-0.629-0.668-0.854c-0.273-0.24-0.599-0.444-0.975-0.6c-0.365-0.161-0.762-0.299-1.178-0.415l-2.884-0.702
		c-0.244-0.054-0.473-0.123-0.695-0.213c-0.209-0.09-0.398-0.201-0.566-0.351c-0.164-0.144-0.296-0.315-0.395-0.509
		c-0.091-0.209-0.131-0.451-0.131-0.728c0-0.442,0.08-0.808,0.244-1.104c0.17-0.295,0.384-0.532,0.646-0.705
		c0.277-0.192,0.592-0.321,0.946-0.396c0.361-0.086,0.739-0.131,1.123-0.131c0.422,0,0.823,0.054,1.196,0.179
		c0.383,0.109,0.727,0.276,1.008,0.512c0.299,0.22,0.534,0.504,0.712,0.843c0.189,0.323,0.294,0.713,0.315,1.164h1.127
		c0-0.601-0.122-1.128-0.361-1.579c-0.23-0.464-0.546-0.848-0.948-1.153c-0.401-0.312-0.86-0.546-1.391-0.692
		c-0.534-0.149-1.089-0.228-1.675-0.228c-0.831,0-1.509,0.12-2.038,0.356c-0.529,0.233-0.949,0.521-1.26,0.861
		c-0.298,0.338-0.503,0.702-0.61,1.084c-0.111,0.385-0.166,0.723-0.166,1.006c0,0.461,0.071,0.854,0.216,1.17
		c0.154,0.322,0.354,0.593,0.599,0.804c0.239,0.223,0.521,0.403,0.842,0.526c0.331,0.135,0.672,0.246,1.011,0.332l2.634,0.648
		c0.276,0.057,0.559,0.148,0.846,0.258c0.287,0.1,0.548,0.236,0.781,0.399c0.243,0.159,0.432,0.37,0.579,0.606
		c0.151,0.241,0.229,0.531,0.229,0.858c0,0.425-0.103,0.795-0.314,1.106c-0.208,0.289-0.471,0.539-0.796,0.735
		c-0.307,0.188-0.645,0.322-1.01,0.413c-0.365,0.09-0.699,0.133-1.012,0.133c-0.54,0-1.05-0.047-1.525-0.146
		c-0.476-0.107-0.887-0.285-1.241-0.523c-0.343-0.239-0.611-0.563-0.815-0.974C154.402,274.084,154.309,273.576,154.319,272.973
		L154.319,272.973z"/>
	<polygon fill="#73797D" points="165.135,265.074 165.135,276.844 166.26,276.844 166.26,265.074 	"/>
	<path fill="#73797D" d="M178.196,268.633h1.125c-0.074-0.613-0.264-1.164-0.561-1.632c-0.285-0.478-0.65-0.87-1.094-1.184
		c-0.431-0.331-0.917-0.585-1.456-0.748c-0.532-0.163-1.078-0.245-1.648-0.245c-0.924,0-1.742,0.166-2.445,0.512
		c-0.697,0.326-1.278,0.777-1.74,1.35c-0.467,0.563-0.814,1.217-1.05,1.947c-0.231,0.737-0.347,1.512-0.347,2.327
		c0,0.812,0.115,1.586,0.347,2.32c0.233,0.741,0.581,1.391,1.05,1.946c0.462,0.566,1.043,1.019,1.74,1.354
		c0.701,0.33,1.52,0.491,2.445,0.491c0.698,0,1.329-0.104,1.896-0.324c0.573-0.221,1.07-0.531,1.491-0.938
		c0.415-0.41,0.759-0.9,1.025-1.479c0.266-0.586,0.436-1.239,0.517-1.97h-1.131c-0.055,0.527-0.181,1.021-0.378,1.484
		c-0.198,0.45-0.46,0.849-0.781,1.189c-0.317,0.342-0.697,0.604-1.142,0.807c-0.443,0.192-0.939,0.293-1.494,0.293
		c-0.779,0-1.456-0.146-2.018-0.441c-0.563-0.295-1.025-0.686-1.393-1.172c-0.356-0.489-0.617-1.045-0.794-1.664
		c-0.17-0.621-0.251-1.258-0.251-1.889c0-0.654,0.081-1.285,0.251-1.899c0.177-0.616,0.438-1.16,0.794-1.654
		c0.365-0.485,0.829-0.887,1.393-1.179c0.563-0.299,1.238-0.445,2.018-0.445c0.436,0,0.843,0.064,1.231,0.198
		c0.398,0.12,0.756,0.305,1.076,0.539c0.332,0.251,0.609,0.55,0.832,0.913C177.933,267.781,178.103,268.188,178.196,268.633
		L178.196,268.633z"/>
	<path fill="#73797D" d="M183.708,272.23l2.369-6.034l2.293,6.034H183.708L183.708,272.23z M185.5,265.074l-4.759,11.77h1.195
		l1.423-3.656h5.389l1.438,3.656h1.215l-4.643-11.77H185.5L185.5,265.074z"/>
	<path fill="#73797D" d="M193.819,272.973h-1.124c-0.035,0.724,0.055,1.342,0.282,1.863c0.229,0.521,0.554,0.938,0.979,1.268
		c0.416,0.328,0.927,0.576,1.522,0.74c0.595,0.151,1.241,0.229,1.937,0.229c0.697,0,1.293-0.063,1.79-0.189
		c0.502-0.125,0.916-0.279,1.243-0.486c0.344-0.207,0.607-0.435,0.796-0.688c0.196-0.253,0.344-0.498,0.442-0.737
		c0.113-0.25,0.177-0.5,0.201-0.715c0.034-0.217,0.049-0.396,0.049-0.523c0-0.487-0.086-0.896-0.25-1.237
		c-0.153-0.339-0.376-0.629-0.661-0.854c-0.277-0.24-0.601-0.444-0.978-0.6c-0.367-0.161-0.761-0.299-1.177-0.415l-2.886-0.702
		c-0.245-0.054-0.477-0.123-0.695-0.213c-0.212-0.09-0.396-0.201-0.564-0.351c-0.162-0.14-0.296-0.315-0.399-0.509
		c-0.084-0.209-0.13-0.451-0.13-0.728c0-0.442,0.086-0.808,0.248-1.104c0.166-0.295,0.383-0.532,0.645-0.705
		c0.279-0.192,0.592-0.321,0.946-0.396c0.363-0.086,0.739-0.131,1.134-0.131c0.415,0,0.813,0.054,1.187,0.179
		c0.393,0.109,0.727,0.276,1.01,0.512c0.3,0.22,0.533,0.504,0.714,0.843c0.188,0.323,0.29,0.713,0.316,1.164h1.129
		c0-0.601-0.121-1.128-0.367-1.579c-0.229-0.464-0.546-0.848-0.942-1.153c-0.396-0.31-0.86-0.546-1.394-0.692
		c-0.526-0.149-1.092-0.228-1.673-0.228c-0.834,0-1.514,0.12-2.041,0.356c-0.526,0.233-0.953,0.521-1.262,0.861
		c-0.294,0.338-0.499,0.702-0.61,1.084c-0.109,0.385-0.166,0.723-0.166,1.006c0,0.461,0.073,0.854,0.223,1.17
		c0.147,0.322,0.348,0.593,0.594,0.804c0.242,0.223,0.523,0.403,0.845,0.526c0.325,0.135,0.665,0.246,1.012,0.332l2.636,0.648
		c0.271,0.057,0.557,0.148,0.845,0.258c0.284,0.1,0.544,0.236,0.776,0.399c0.243,0.159,0.44,0.37,0.577,0.606
		c0.164,0.241,0.233,0.531,0.233,0.858c0,0.425-0.1,0.795-0.315,1.106c-0.208,0.289-0.475,0.539-0.791,0.735
		c-0.309,0.188-0.649,0.322-1.01,0.413c-0.368,0.09-0.699,0.133-1.015,0.133c-0.537,0-1.049-0.047-1.521-0.146
		c-0.478-0.107-0.889-0.285-1.241-0.523c-0.341-0.239-0.611-0.563-0.813-0.974C193.903,274.084,193.813,273.576,193.819,272.973
		L193.819,272.973z"/>
	<polygon fill="#73797D" points="215.889,271.996 215.889,276.844 217.016,276.844 217.016,271.996 221.688,265.074 
		220.343,265.074 216.463,271.038 212.573,265.074 211.245,265.074 	"/>
	<polygon fill="#73797D" points="231.537,265.074 231.537,276.844 232.664,276.844 232.664,266.678 232.696,266.678 
		236.757,276.844 237.819,276.844 241.863,266.678 241.893,266.678 241.893,276.844 243.023,276.844 243.023,265.074 
		241.369,265.074 237.286,275.391 233.198,265.074 	"/>
	<path fill="#73797D" d="M247.867,272.23l2.371-6.034l2.286,6.034H247.867L247.867,272.23z M249.658,265.074l-4.761,11.77h1.194
		l1.428-3.656h5.379l1.445,3.656h1.215l-4.643-11.77H249.658L249.658,265.074z"/>
	<polygon fill="#73797D" points="255.064,265.074 255.064,266.028 259.175,266.028 259.175,276.844 260.304,276.844 
		260.304,266.028 264.429,266.028 264.429,265.074 	"/>
	<polygon fill="#73797D" points="266.36,265.074 266.36,276.844 274.608,276.844 274.608,275.889 267.487,275.889 267.487,271.24 
		274.085,271.24 274.085,270.278 267.487,270.278 267.487,266.028 274.533,266.028 274.533,265.074 	"/>
	<polygon fill="#73797D" points="276.969,265.074 276.969,276.844 278.103,276.844 278.103,266.678 278.133,266.678 
		282.192,276.844 283.25,276.844 287.3,266.678 287.332,266.678 287.332,276.844 288.461,276.844 288.461,265.074 286.801,265.074 
		282.723,275.391 278.63,265.074 	"/>
	<path fill="#73797D" d="M295.526,264.137l2.182-2.328h-1.289l-1.74,2.328H295.526L295.526,264.137z M293.307,272.23l2.37-6.034
		l2.286,6.034H293.307L293.307,272.23z M295.093,265.074l-4.759,11.77h1.196l1.423-3.656h5.385l1.442,3.656h1.217l-4.646-11.77
		H295.093L295.093,265.074z"/>
	<polygon fill="#73797D" points="301.625,265.074 301.625,266.028 305.735,266.028 305.735,276.844 306.864,276.844 
		306.864,266.028 310.992,266.028 310.992,265.074 	"/>
	<polygon fill="#73797D" points="313.009,265.074 313.009,276.844 314.133,276.844 314.133,265.074 	"/>
	<path fill="#73797D" d="M326.07,268.633h1.129c-0.075-0.613-0.262-1.164-0.562-1.632c-0.29-0.478-0.65-0.87-1.093-1.184
		c-0.43-0.331-0.915-0.585-1.463-0.748c-0.53-0.163-1.076-0.245-1.635-0.245c-0.928,0-1.747,0.166-2.453,0.512
		c-0.695,0.326-1.277,0.777-1.74,1.35c-0.465,0.563-0.815,1.217-1.045,1.947c-0.229,0.737-0.352,1.512-0.352,2.327
		c0,0.812,0.123,1.586,0.352,2.32c0.229,0.741,0.58,1.391,1.045,1.946c0.463,0.566,1.045,1.019,1.74,1.354
		c0.706,0.33,1.527,0.491,2.453,0.491c0.69,0,1.322-0.104,1.888-0.324c0.572-0.221,1.068-0.531,1.487-0.938
		c0.42-0.41,0.763-0.9,1.031-1.479c0.265-0.586,0.437-1.239,0.511-1.97h-1.126c-0.056,0.527-0.185,1.021-0.382,1.484
		c-0.199,0.45-0.459,0.849-0.778,1.189c-0.323,0.342-0.701,0.604-1.146,0.807c-0.443,0.192-0.938,0.293-1.486,0.293
		c-0.787,0-1.463-0.146-2.026-0.441c-0.563-0.295-1.025-0.686-1.396-1.172c-0.349-0.489-0.613-1.045-0.794-1.664
		c-0.167-0.621-0.249-1.258-0.249-1.889c0-0.654,0.082-1.285,0.249-1.899c0.181-0.616,0.445-1.16,0.794-1.654
		c0.37-0.485,0.832-0.887,1.396-1.179c0.563-0.299,1.239-0.445,2.026-0.445c0.429,0,0.838,0.064,1.224,0.198
		c0.399,0.12,0.756,0.305,1.077,0.539c0.334,0.251,0.607,0.55,0.831,0.913C325.806,267.781,325.975,268.188,326.07,268.633
		L326.07,268.633z"/>
	<path fill="#73797D" d="M331.578,272.23l2.374-6.034l2.286,6.034H331.578L331.578,272.23z M333.369,265.074l-4.755,11.77h1.192
		l1.425-3.656h5.387l1.439,3.656h1.214l-4.642-11.77H333.369L333.369,265.074z"/>
	<path fill="#73797D" d="M341.697,272.973h-1.131c-0.036,0.724,0.059,1.342,0.277,1.863c0.239,0.521,0.563,0.938,0.981,1.268
		c0.42,0.328,0.931,0.576,1.528,0.74c0.595,0.151,1.236,0.229,1.94,0.229c0.698,0,1.29-0.063,1.788-0.189
		c0.5-0.125,0.911-0.279,1.241-0.486c0.342-0.207,0.602-0.435,0.79-0.688c0.204-0.253,0.352-0.498,0.454-0.737
		c0.107-0.25,0.175-0.5,0.199-0.715c0.031-0.217,0.047-0.396,0.047-0.523c0-0.487-0.078-0.896-0.244-1.237
		c-0.161-0.339-0.377-0.629-0.669-0.854c-0.277-0.24-0.599-0.444-0.973-0.6c-0.367-0.161-0.762-0.299-1.175-0.415l-2.887-0.702
		c-0.246-0.054-0.475-0.123-0.701-0.213c-0.205-0.09-0.395-0.201-0.557-0.351c-0.168-0.144-0.302-0.315-0.403-0.509
		c-0.086-0.209-0.13-0.451-0.13-0.728c0-0.442,0.08-0.808,0.249-1.104c0.167-0.295,0.374-0.532,0.647-0.705
		c0.274-0.192,0.59-0.321,0.945-0.396c0.362-0.086,0.742-0.131,1.127-0.131c0.415,0,0.813,0.054,1.192,0.179
		c0.387,0.109,0.726,0.276,1.01,0.512c0.296,0.22,0.532,0.504,0.707,0.843c0.197,0.323,0.3,0.713,0.319,1.164h1.131
		c0-0.601-0.125-1.128-0.369-1.579c-0.227-0.464-0.546-0.848-0.937-1.153c-0.403-0.312-0.865-0.546-1.402-0.692
		c-0.525-0.149-1.082-0.228-1.669-0.228c-0.83,0-1.51,0.12-2.04,0.356c-0.533,0.233-0.95,0.521-1.258,0.861
		c-0.293,0.338-0.504,0.702-0.616,1.084c-0.107,0.385-0.163,0.723-0.163,1.006c0,0.461,0.07,0.854,0.213,1.17
		c0.159,0.322,0.354,0.593,0.597,0.804c0.245,0.223,0.524,0.403,0.85,0.526c0.33,0.135,0.67,0.246,1.01,0.332l2.633,0.648
		c0.275,0.057,0.563,0.148,0.848,0.258c0.283,0.1,0.543,0.236,0.778,0.399c0.242,0.159,0.438,0.37,0.584,0.606
		c0.151,0.241,0.228,0.531,0.228,0.858c0,0.425-0.105,0.795-0.31,1.106c-0.212,0.289-0.478,0.539-0.797,0.735
		c-0.31,0.188-0.646,0.322-1.01,0.413c-0.367,0.09-0.704,0.133-1.01,0.133c-0.546,0-1.054-0.047-1.521-0.146
		c-0.485-0.107-0.896-0.285-1.242-0.523c-0.349-0.239-0.613-0.563-0.816-0.974C341.779,274.084,341.686,273.576,341.697,272.973
		L341.697,272.973z"/>
	<polygon fill="#73797D" points="139.577,247.762 139.577,259.536 140.698,259.536 140.698,253.928 146.369,253.928 
		146.369,252.977 140.698,252.977 140.698,248.721 147.083,248.721 147.083,247.762 	"/>
	<path fill="#73797D" d="M150.393,254.92l2.372-6.031l2.284,6.031H150.393L150.393,254.92z M152.184,247.762l-4.757,11.773h1.19
		l1.426-3.659h5.386l1.442,3.659h1.215l-4.646-11.773H152.184L152.184,247.762z"/>
	<path fill="#73797D" d="M168.962,251.324h1.129c-0.077-0.614-0.265-1.16-0.561-1.633c-0.289-0.473-0.652-0.867-1.096-1.187
		c-0.435-0.329-0.918-0.577-1.459-0.743c-0.53-0.162-1.076-0.248-1.64-0.248c-0.928,0-1.746,0.172-2.45,0.516
		c-0.698,0.326-1.278,0.777-1.74,1.354c-0.467,0.56-0.812,1.207-1.047,1.941c-0.231,0.734-0.351,1.513-0.351,2.329
		c0,0.808,0.119,1.588,0.351,2.317c0.235,0.743,0.58,1.387,1.047,1.951c0.462,0.559,1.042,1.01,1.74,1.354
		c0.704,0.319,1.522,0.493,2.45,0.493c0.693,0,1.32-0.113,1.89-0.328c0.575-0.223,1.072-0.533,1.49-0.941
		c0.42-0.404,0.763-0.902,1.027-1.484c0.269-0.58,0.436-1.238,0.512-1.959h-1.125c-0.053,0.521-0.183,1.022-0.382,1.482
		c-0.197,0.446-0.46,0.848-0.777,1.184c-0.319,0.34-0.703,0.61-1.147,0.811c-0.439,0.202-0.937,0.297-1.489,0.297
		c-0.78,0-1.459-0.148-2.025-0.447c-0.562-0.291-1.024-0.685-1.389-1.162c-0.352-0.496-0.618-1.053-0.797-1.668
		c-0.167-0.625-0.248-1.258-0.248-1.894c0-0.653,0.084-1.281,0.248-1.894c0.181-0.617,0.445-1.166,0.797-1.651
		c0.362-0.499,0.827-0.896,1.389-1.188c0.566-0.293,1.24-0.443,2.025-0.443c0.431,0,0.838,0.068,1.229,0.201
		c0.4,0.125,0.758,0.306,1.075,0.541c0.333,0.242,0.604,0.543,0.827,0.906C168.7,250.469,168.865,250.87,168.962,251.324
		L168.962,251.324z"/>
	<path fill="#73797D" d="M173.022,247.762v7.532c0,0.608,0.08,1.187,0.248,1.731c0.176,0.539,0.447,1.01,0.813,1.42
		c0.376,0.41,0.851,0.734,1.427,0.974c0.586,0.229,1.289,0.349,2.105,0.349c0.825,0,1.527-0.121,2.104-0.349
		c0.588-0.237,1.063-0.563,1.428-0.974c0.372-0.41,0.643-0.878,0.808-1.42c0.181-0.547,0.27-1.123,0.27-1.731v-7.532h-1.13v7.289
		c0,0.68-0.077,1.262-0.232,1.75c-0.153,0.471-0.376,0.858-0.676,1.17c-0.302,0.295-0.667,0.512-1.094,0.66
		c-0.431,0.129-0.926,0.197-1.479,0.197c-0.541,0-1.03-0.063-1.456-0.197c-0.436-0.146-0.796-0.365-1.096-0.66
		c-0.301-0.313-0.525-0.699-0.683-1.17c-0.151-0.488-0.229-1.07-0.229-1.75v-7.289H173.022L173.022,247.762z"/>
	<polygon fill="#73797D" points="185.646,247.762 185.646,259.536 193.399,259.536 193.399,258.578 186.773,258.578 
		186.773,247.762 	"/>
	<polygon fill="#73797D" points="192.915,247.762 192.915,248.721 197.024,248.721 197.024,259.536 198.151,259.536 
		198.151,248.721 202.278,248.721 202.278,247.762 	"/>
	<path fill="#73797D" d="M205.09,254.92l2.374-6.031l2.286,6.031H205.09L205.09,254.92z M206.881,247.762l-4.756,11.773h1.192
		l1.428-3.659h5.385l1.444,3.659h1.207l-4.637-11.773H206.881L206.881,247.762z"/>
	<path fill="#73797D" d="M215.014,247.762v11.773h4.09c1.801-0.043,3.159-0.539,4.063-1.5c0.917-0.965,1.375-2.43,1.375-4.383
		c0-1.959-0.458-3.411-1.375-4.367c-0.904-0.971-2.261-1.473-4.063-1.52L215.014,247.762L215.014,247.762z M216.142,258.578v-9.861
		h2.405c0.85,0,1.581,0.098,2.187,0.278c0.618,0.176,1.124,0.468,1.521,0.858c0.405,0.399,0.695,0.908,0.875,1.531
		c0.192,0.627,0.281,1.385,0.281,2.264c0,0.877-0.091,1.627-0.282,2.257c-0.18,0.627-0.473,1.143-0.875,1.534
		c-0.398,0.398-0.902,0.688-1.521,0.875c-0.603,0.178-1.333,0.261-2.187,0.261h-2.405L216.142,258.578L216.142,258.578z"/>
	<path fill="#73797D" d="M237.241,247.762v11.773h4.09c1.802-0.043,3.161-0.539,4.065-1.5c0.918-0.965,1.373-2.43,1.373-4.383
		c0-1.959-0.455-3.411-1.373-4.367c-0.904-0.971-2.262-1.473-4.065-1.52L237.241,247.762L237.241,247.762z M238.363,258.578v-9.861
		h2.407c0.846,0,1.581,0.098,2.193,0.278c0.615,0.176,1.126,0.468,1.522,0.858c0.394,0.399,0.684,0.908,0.875,1.531
		c0.189,0.625,0.277,1.385,0.277,2.264c0,0.875-0.091,1.625-0.277,2.256c-0.193,0.627-0.484,1.143-0.875,1.533
		c-0.399,0.399-0.907,0.688-1.522,0.877c-0.612,0.177-1.343,0.26-2.193,0.26h-2.407V258.578z"/>
	<polygon fill="#73797D" points="249.751,247.762 249.751,259.536 258.005,259.536 258.005,258.578 250.876,258.578 
		250.876,253.928 257.478,253.928 257.478,252.977 250.876,252.977 250.876,248.721 257.916,248.721 257.916,247.762 	"/>
	<path fill="#73797D" d="M279.102,251.324h1.129c-0.079-0.614-0.265-1.16-0.564-1.633c-0.283-0.473-0.652-0.867-1.092-1.187
		c-0.43-0.329-0.918-0.577-1.457-0.743c-0.528-0.162-1.083-0.248-1.642-0.248c-0.928,0-1.746,0.172-2.452,0.516
		c-0.694,0.326-1.276,0.777-1.738,1.354c-0.464,0.56-0.814,1.207-1.045,1.941c-0.231,0.734-0.353,1.513-0.353,2.329
		c0,0.808,0.121,1.588,0.353,2.317c0.229,0.743,0.581,1.387,1.045,1.951c0.462,0.559,1.044,1.01,1.738,1.354
		c0.706,0.319,1.524,0.493,2.452,0.493c0.688,0,1.322-0.113,1.886-0.328c0.577-0.223,1.074-0.533,1.492-0.941
		c0.415-0.404,0.763-0.902,1.026-1.484c0.269-0.58,0.438-1.238,0.515-1.959h-1.13c-0.054,0.521-0.176,1.022-0.381,1.482
		c-0.198,0.446-0.45,0.848-0.775,1.184c-0.318,0.34-0.701,0.61-1.147,0.811c-0.438,0.202-0.939,0.297-1.487,0.297
		c-0.785,0-1.461-0.148-2.028-0.447c-0.56-0.291-1.025-0.685-1.387-1.162c-0.355-0.496-0.619-1.053-0.796-1.668
		c-0.165-0.625-0.241-1.258-0.241-1.894c0-0.653,0.076-1.281,0.241-1.894c0.177-0.617,0.44-1.166,0.796-1.651
		c0.361-0.499,0.827-0.896,1.387-1.188c0.567-0.293,1.241-0.443,2.028-0.443c0.429,0,0.838,0.068,1.228,0.201
		c0.394,0.125,0.757,0.306,1.08,0.541c0.327,0.242,0.604,0.543,0.829,0.906C278.836,250.469,279.002,250.87,279.102,251.324
		L279.102,251.324z"/>
	<polygon fill="#73797D" points="283.356,247.762 283.356,259.536 284.482,259.536 284.482,247.762 	"/>
	<polygon fill="#73797D" points="288.106,247.762 288.106,259.536 296.357,259.536 296.357,258.578 289.233,258.578 
		289.233,253.928 295.828,253.928 295.828,252.977 289.233,252.977 289.233,248.721 296.278,248.721 296.278,247.762 	"/>
	<polygon fill="#73797D" points="299.077,247.762 299.077,259.536 300.198,259.536 300.198,249.576 300.229,249.576 
		307.129,259.536 308.387,259.536 308.387,247.762 307.261,247.762 307.261,257.719 307.23,257.719 300.331,247.762 	"/>
	<path fill="#73797D" d="M320.561,251.324h1.131c-0.074-0.614-0.262-1.16-0.559-1.633c-0.293-0.473-0.651-0.867-1.099-1.187
		c-0.426-0.329-0.915-0.577-1.461-0.743c-0.525-0.162-1.068-0.248-1.634-0.248c-0.928,0-1.746,0.172-2.453,0.516
		c-0.695,0.326-1.276,0.777-1.74,1.354c-0.462,0.56-0.814,1.207-1.042,1.941c-0.234,0.734-0.353,1.513-0.353,2.329
		c0,0.808,0.118,1.588,0.353,2.317c0.228,0.743,0.58,1.387,1.042,1.951c0.464,0.559,1.045,1.01,1.74,1.354
		c0.707,0.319,1.524,0.493,2.453,0.493c0.693,0,1.32-0.113,1.89-0.328c0.571-0.223,1.066-0.533,1.489-0.941
		c0.419-0.404,0.766-0.902,1.03-1.484c0.26-0.58,0.431-1.238,0.512-1.959h-1.131c-0.053,0.521-0.183,1.022-0.383,1.482
		c-0.193,0.446-0.459,0.848-0.778,1.184c-0.321,0.34-0.695,0.61-1.14,0.811c-0.447,0.202-0.943,0.297-1.493,0.297
		c-0.781,0-1.459-0.148-2.027-0.447c-0.561-0.291-1.022-0.685-1.39-1.162c-0.354-0.496-0.616-1.053-0.794-1.668
		c-0.166-0.625-0.256-1.258-0.256-1.894c0-0.653,0.09-1.281,0.256-1.894c0.178-0.617,0.439-1.166,0.794-1.651
		c0.367-0.499,0.829-0.896,1.39-1.188c0.568-0.293,1.238-0.443,2.027-0.443c0.431,0,0.838,0.068,1.225,0.201
		c0.4,0.125,0.757,0.306,1.078,0.541c0.33,0.242,0.611,0.543,0.832,0.906C320.296,250.469,320.466,250.87,320.561,251.324
		L320.561,251.324z"/>
	<polygon fill="#73797D" points="324.819,247.762 324.819,259.536 325.947,259.536 325.947,247.762 	"/>
	<path fill="#73797D" d="M331.244,254.92l2.374-6.031l2.285,6.031H331.244L331.244,254.92z M333.035,247.762l-4.759,11.773h1.198
		l1.424-3.659h5.384l1.444,3.659h1.209l-4.643-11.773H333.035L333.035,247.762z"/>
	<path fill="#73797D" d="M341.697,255.66h-1.131c-0.036,0.727,0.059,1.345,0.277,1.865c0.239,0.516,0.563,0.941,0.981,1.268
		c0.42,0.33,0.931,0.577,1.528,0.743c0.595,0.153,1.236,0.231,1.94,0.231c0.698,0,1.29-0.072,1.788-0.199
		c0.5-0.118,0.911-0.279,1.241-0.475c0.342-0.211,0.602-0.44,0.79-0.692c0.204-0.253,0.352-0.503,0.454-0.743
		c0.107-0.254,0.175-0.49,0.199-0.713c0.031-0.219,0.047-0.395,0.047-0.524c0-0.481-0.078-0.892-0.244-1.233
		c-0.161-0.344-0.377-0.627-0.669-0.856c-0.277-0.242-0.599-0.44-0.973-0.595c-0.367-0.168-0.762-0.307-1.175-0.415l-2.887-0.704
		c-0.246-0.059-0.475-0.125-0.701-0.219c-0.205-0.082-0.395-0.2-0.557-0.346c-0.168-0.14-0.302-0.312-0.403-0.514
		c-0.086-0.208-0.13-0.445-0.13-0.722c0-0.438,0.08-0.808,0.249-1.108c0.167-0.292,0.374-0.525,0.647-0.705
		c0.274-0.187,0.59-0.316,0.945-0.395c0.362-0.092,0.742-0.135,1.127-0.135c0.415,0,0.813,0.062,1.192,0.186
		c0.387,0.109,0.726,0.279,1.01,0.508c0.296,0.221,0.532,0.5,0.707,0.844c0.197,0.324,0.3,0.721,0.319,1.172h1.131
		c0-0.605-0.125-1.138-0.369-1.588c-0.227-0.457-0.546-0.843-0.937-1.153c-0.403-0.31-0.865-0.535-1.402-0.694
		c-0.525-0.152-1.082-0.229-1.669-0.229c-0.83,0-1.51,0.127-2.04,0.36c-0.533,0.233-0.95,0.519-1.258,0.861
		c-0.293,0.337-0.504,0.702-0.616,1.091c-0.107,0.383-0.163,0.716-0.163,1.004c0,0.457,0.07,0.85,0.213,1.164
		c0.159,0.32,0.354,0.587,0.597,0.809c0.245,0.22,0.524,0.399,0.85,0.528c0.33,0.138,0.67,0.24,1.01,0.326l2.633,0.647
		c0.275,0.064,0.563,0.15,0.848,0.259c0.283,0.104,0.543,0.231,0.778,0.397c0.242,0.166,0.438,0.367,0.584,0.611
		c0.151,0.239,0.228,0.525,0.228,0.855c0,0.43-0.105,0.799-0.31,1.107c-0.212,0.297-0.478,0.542-0.797,0.741
		c-0.31,0.185-0.646,0.319-1.01,0.41c-0.367,0.086-0.704,0.134-1.01,0.134c-0.546,0-1.054-0.048-1.521-0.146
		c-0.485-0.11-0.896-0.289-1.242-0.527c-0.349-0.24-0.613-0.567-0.816-0.971C341.779,256.768,341.686,256.264,341.697,255.66
		L341.697,255.66z"/>
</g>
<g>
	<path fill="#73797D" d="M383.434,141.854v2.253h-11.209v6.394h10.449v2.253h-10.449v6.957h11.294v2.253h-13.97v-20.11H383.434z"/>
	<path fill="#73797D" d="M388.193,158.711c0.225,0.366,0.521,0.657,0.887,0.873c0.366,0.216,0.779,0.371,1.239,0.465
		c0.46,0.094,0.934,0.141,1.422,0.141c0.376,0,0.771-0.028,1.184-0.084c0.413-0.056,0.793-0.159,1.141-0.31
		c0.347-0.15,0.634-0.37,0.859-0.662c0.225-0.291,0.338-0.662,0.338-1.113c0-0.62-0.235-1.088-0.704-1.408
		c-0.47-0.319-1.057-0.577-1.761-0.774c-0.704-0.197-1.47-0.375-2.296-0.535c-0.826-0.159-1.591-0.385-2.295-0.676
		s-1.291-0.699-1.761-1.225c-0.469-0.526-0.704-1.258-0.704-2.197c0-0.732,0.164-1.361,0.493-1.887
		c0.328-0.525,0.751-0.953,1.268-1.282c0.516-0.328,1.099-0.572,1.746-0.732c0.647-0.159,1.291-0.239,1.93-0.239
		c0.826,0,1.586,0.07,2.281,0.211c0.694,0.141,1.31,0.385,1.845,0.732c0.535,0.348,0.962,0.817,1.28,1.409
		c0.319,0.591,0.508,1.329,0.563,2.211h-2.395c-0.037-0.469-0.159-0.859-0.365-1.169c-0.207-0.31-0.47-0.559-0.789-0.747
		c-0.319-0.188-0.672-0.324-1.057-0.408c-0.385-0.084-0.774-0.127-1.168-0.127c-0.357,0-0.719,0.028-1.085,0.084
		c-0.366,0.057-0.699,0.155-1,0.296c-0.3,0.141-0.545,0.329-0.732,0.563s-0.281,0.54-0.281,0.915c0,0.414,0.146,0.756,0.437,1.028
		s0.662,0.498,1.112,0.676c0.451,0.179,0.958,0.329,1.521,0.451c0.563,0.123,1.126,0.249,1.689,0.38
		c0.601,0.131,1.188,0.291,1.761,0.479c0.572,0.188,1.079,0.437,1.521,0.747c0.441,0.31,0.798,0.7,1.07,1.169
		c0.271,0.469,0.408,1.052,0.408,1.746c0,0.883-0.184,1.615-0.549,2.197c-0.367,0.583-0.846,1.052-1.438,1.408
		c-0.592,0.357-1.258,0.604-2,0.747c-0.741,0.141-1.479,0.211-2.211,0.211c-0.808,0-1.577-0.085-2.31-0.254s-1.38-0.446-1.943-0.831
		c-0.563-0.385-1.014-0.892-1.352-1.521c-0.338-0.629-0.526-1.394-0.563-2.295h2.395
		C387.845,157.899,387.968,158.345,388.193,158.711z"/>
	<path fill="#73797D" d="M409.147,149.938c-0.603-0.507-1.408-0.761-2.422-0.761c-0.864,0-1.587,0.16-2.168,0.479
		c-0.583,0.319-1.048,0.742-1.396,1.268c-0.348,0.526-0.597,1.131-0.746,1.816c-0.149,0.686-0.226,1.394-0.226,2.126
		c0,0.676,0.08,1.333,0.239,1.972c0.158,0.639,0.408,1.207,0.746,1.704c0.339,0.498,0.779,0.896,1.324,1.197
		c0.543,0.301,1.191,0.451,1.942,0.451c1.183,0,2.108-0.31,2.774-0.929c0.666-0.619,1.074-1.493,1.225-2.62h2.451
		c-0.264,1.803-0.934,3.192-2.014,4.168c-1.08,0.977-2.549,1.465-4.408,1.465c-1.108,0-2.09-0.179-2.943-0.535
		s-1.568-0.864-2.141-1.521c-0.573-0.657-1.006-1.441-1.297-2.352s-0.437-1.91-0.437-3c0-1.089,0.142-2.107,0.423-3.056
		c0.281-0.948,0.709-1.774,1.281-2.479s1.291-1.258,2.155-1.662c0.862-0.403,1.866-0.605,3.014-0.605
		c0.826,0,1.599,0.099,2.324,0.296c0.723,0.197,1.36,0.502,1.914,0.915c0.555,0.414,1.01,0.935,1.366,1.563
		c0.355,0.629,0.582,1.375,0.677,2.239h-2.479C410.144,151.159,409.75,150.445,409.147,149.938z"/>
	<path fill="#73797D" d="M425.373,161.964v-2.31h-0.058c-0.508,0.901-1.156,1.563-1.942,1.986c-0.789,0.422-1.72,0.634-2.789,0.634
		c-0.957,0-1.756-0.127-2.396-0.38s-1.154-0.615-1.549-1.084c-0.396-0.469-0.673-1.028-0.83-1.676
		c-0.16-0.648-0.24-1.366-0.24-2.155v-9.576h2.396v9.858c0,0.901,0.262,1.615,0.789,2.141c0.524,0.526,1.248,0.789,2.168,0.789
		c0.731,0,1.365-0.113,1.899-0.338c0.535-0.226,0.981-0.544,1.338-0.958c0.357-0.413,0.625-0.896,0.804-1.451
		c0.18-0.554,0.268-1.159,0.268-1.816v-8.225h2.395v14.562h-2.252V161.964z"/>
	<path fill="#73797D" d="M441.539,161.035c-1.091,0.827-2.461,1.24-4.113,1.24c-1.164,0-2.174-0.188-3.027-0.563
		c-0.855-0.375-1.572-0.901-2.154-1.577c-0.582-0.676-1.02-1.483-1.311-2.422c-0.291-0.938-0.455-1.962-0.492-3.07
		c0-1.108,0.168-2.122,0.506-3.042c0.34-0.92,0.813-1.718,1.424-2.394c0.609-0.676,1.332-1.202,2.168-1.577s1.75-0.563,2.746-0.563
		c1.295,0,2.371,0.268,3.225,0.803c0.855,0.535,1.539,1.216,2.058,2.042c0.517,0.827,0.873,1.728,1.069,2.704
		c0.197,0.976,0.277,1.906,0.238,2.788h-10.899c-0.021,0.639,0.057,1.244,0.225,1.817c0.171,0.573,0.441,1.08,0.816,1.521
		s0.854,0.793,1.438,1.056c0.582,0.263,1.268,0.396,2.055,0.396c1.016,0,1.846-0.234,2.494-0.704
		c0.646-0.469,1.074-1.183,1.281-2.141h2.364C443.332,158.979,442.627,160.209,441.539,161.035z M440.961,151.684
		c-0.217-0.507-0.508-0.943-0.873-1.31c-0.367-0.366-0.799-0.657-1.295-0.873c-0.498-0.216-1.047-0.324-1.648-0.324
		c-0.619,0-1.178,0.108-1.676,0.324c-0.498,0.216-0.926,0.512-1.281,0.887c-0.357,0.375-0.639,0.812-0.846,1.31
		s-0.328,1.028-0.365,1.591h8.365C441.301,152.726,441.174,152.191,440.961,151.684z"/>
	<path fill="#73797D" d="M448.887,141.854v20.11h-2.395v-20.11H448.887z"/>
	<path fill="#73797D" d="M463.789,162.274c-0.621,0-1.113-0.174-1.479-0.521c-0.367-0.347-0.552-0.915-0.552-1.704
		c-0.655,0.789-1.422,1.356-2.295,1.704c-0.873,0.348-1.815,0.521-2.83,0.521c-0.657,0-1.276-0.071-1.858-0.211
		c-0.582-0.141-1.094-0.375-1.535-0.704c-0.44-0.329-0.789-0.751-1.041-1.268c-0.254-0.516-0.381-1.141-0.381-1.873
		c0-0.826,0.142-1.502,0.422-2.028c0.281-0.525,0.652-0.953,1.113-1.281c0.459-0.329,0.985-0.578,1.575-0.747
		c0.593-0.169,1.197-0.31,1.816-0.422c0.658-0.131,1.283-0.23,1.873-0.296c0.592-0.065,1.113-0.159,1.564-0.282
		c0.451-0.122,0.807-0.3,1.07-0.535c0.262-0.234,0.395-0.577,0.395-1.028c0-0.525-0.1-0.948-0.297-1.268
		c-0.197-0.319-0.449-0.563-0.76-0.732c-0.312-0.169-0.658-0.282-1.043-0.338s-0.767-0.084-1.142-0.084
		c-1.014,0-1.856,0.193-2.534,0.578c-0.677,0.385-1.041,1.112-1.099,2.183h-2.396c0.037-0.901,0.228-1.662,0.564-2.281
		s0.787-1.122,1.352-1.507c0.563-0.385,1.211-0.662,1.943-0.831s1.502-0.253,2.309-0.253c0.658,0,1.312,0.047,1.959,0.141
		c0.646,0.094,1.234,0.286,1.761,0.577c0.524,0.292,0.946,0.7,1.268,1.225c0.318,0.526,0.479,1.211,0.479,2.056v7.492
		c0,0.563,0.033,0.977,0.098,1.239c0.066,0.263,0.287,0.395,0.662,0.395c0.207,0,0.451-0.047,0.732-0.141v1.859
		C465.092,162.152,464.521,162.274,463.789,162.274z M460.437,154.937c-0.49,0.104-1,0.188-1.535,0.253
		c-0.535,0.066-1.076,0.141-1.621,0.226c-0.543,0.084-1.03,0.221-1.463,0.408c-0.435,0.188-0.785,0.456-1.058,0.803
		c-0.272,0.348-0.407,0.822-0.407,1.422c0,0.395,0.08,0.728,0.237,1c0.16,0.272,0.367,0.493,0.621,0.662
		c0.252,0.169,0.554,0.292,0.9,0.366c0.348,0.075,0.699,0.113,1.057,0.113c0.789,0,1.465-0.108,2.027-0.324s1.023-0.488,1.381-0.817
		c0.355-0.328,0.619-0.685,0.787-1.07c0.17-0.385,0.254-0.747,0.254-1.084v-2.45C461.317,154.669,460.922,154.834,460.437,154.937z"
		/>
	<path fill="#73797D" d="M486.178,161.964v-1.972h-0.057c-0.395,0.808-1.014,1.39-1.859,1.747c-0.844,0.357-1.772,0.535-2.788,0.535
		c-1.125,0-2.107-0.207-2.941-0.62c-0.836-0.413-1.53-0.967-2.086-1.662c-0.553-0.694-0.971-1.502-1.252-2.422
		c-0.282-0.92-0.424-1.896-0.424-2.929c0-1.033,0.137-2.009,0.407-2.929c0.273-0.92,0.687-1.723,1.24-2.408
		c0.553-0.685,1.248-1.229,2.084-1.634c0.836-0.403,1.808-0.605,2.916-0.605c0.375,0,0.777,0.038,1.211,0.113
		c0.433,0.075,0.863,0.202,1.295,0.38c0.433,0.178,0.84,0.413,1.226,0.704c0.385,0.291,0.709,0.652,0.974,1.084h0.057v-7.492h2.393
		v20.11H486.178z M477.573,156.796c0.179,0.648,0.451,1.225,0.816,1.732c0.366,0.507,0.836,0.911,1.407,1.211
		c0.574,0.301,1.244,0.451,2.017,0.451c0.808,0,1.492-0.159,2.055-0.479c0.564-0.319,1.023-0.736,1.382-1.253
		c0.354-0.517,0.614-1.103,0.772-1.761c0.16-0.657,0.239-1.324,0.239-2c0-0.713-0.084-1.403-0.254-2.07
		c-0.168-0.666-0.436-1.253-0.803-1.76c-0.365-0.507-0.84-0.915-1.422-1.225s-1.287-0.465-2.113-0.465
		c-0.807,0-1.492,0.16-2.055,0.479c-0.564,0.319-1.014,0.742-1.352,1.268c-0.34,0.526-0.584,1.126-0.732,1.802
		c-0.15,0.676-0.227,1.371-0.227,2.084C477.306,155.486,477.396,156.148,477.573,156.796z"/>
	<path fill="#73797D" d="M502.569,161.035c-1.09,0.827-2.459,1.24-4.11,1.24c-1.166,0-2.175-0.188-3.029-0.563
		s-1.572-0.901-2.154-1.577c-0.582-0.676-1.018-1.483-1.309-2.422c-0.291-0.938-0.455-1.962-0.494-3.07
		c0-1.108,0.17-2.122,0.508-3.042s0.813-1.718,1.422-2.394c0.609-0.676,1.334-1.202,2.17-1.577c0.834-0.375,1.75-0.563,2.746-0.563
		c1.295,0,2.369,0.268,3.225,0.803c0.854,0.535,1.539,1.216,2.056,2.042c0.519,0.827,0.873,1.728,1.069,2.704
		c0.197,0.976,0.277,1.906,0.24,2.788h-10.9c-0.018,0.639,0.058,1.244,0.228,1.817c0.168,0.573,0.438,1.08,0.815,1.521
		c0.375,0.441,0.854,0.793,1.437,1.056c0.582,0.263,1.269,0.396,2.058,0.396c1.014,0,1.844-0.234,2.492-0.704
		c0.647-0.469,1.073-1.183,1.28-2.141h2.367C504.362,158.979,503.659,160.209,502.569,161.035z M501.991,151.684
		c-0.215-0.507-0.506-0.943-0.872-1.31c-0.365-0.366-0.798-0.657-1.296-0.873c-0.498-0.216-1.047-0.324-1.647-0.324
		c-0.619,0-1.178,0.108-1.676,0.324c-0.496,0.216-0.925,0.512-1.281,0.887c-0.355,0.375-0.639,0.812-0.844,1.31
		c-0.207,0.498-0.33,1.028-0.367,1.591h8.365C502.336,152.726,502.209,152.191,501.991,151.684z"/>
	<path fill="#73797D" d="M518.397,141.854v20.11h-2.676v-20.11H518.397z"/>
	<path fill="#73797D" d="M524.762,147.403v2.31h0.058c0.996-1.765,2.572-2.647,4.731-2.647c0.957,0,1.757,0.132,2.396,0.395
		c0.638,0.263,1.154,0.629,1.55,1.098c0.395,0.47,0.67,1.028,0.829,1.676c0.16,0.648,0.24,1.366,0.24,2.155v9.576h-2.396v-9.858
		c0-0.901-0.264-1.615-0.789-2.141c-0.524-0.525-1.248-0.789-2.168-0.789c-0.731,0-1.367,0.113-1.901,0.338
		c-0.535,0.226-0.979,0.545-1.338,0.958c-0.355,0.413-0.623,0.896-0.804,1.45c-0.178,0.554-0.268,1.16-0.268,1.817v8.224h-2.393
		v-14.562H524.762L524.762,147.403z"/>
	<path fill="#73797D" d="M549.097,166.077c-1.089,1.183-2.798,1.774-5.125,1.774c-0.677,0-1.367-0.076-2.07-0.227
		c-0.705-0.15-1.344-0.395-1.916-0.732c-0.571-0.338-1.047-0.778-1.422-1.323c-0.375-0.545-0.582-1.211-0.619-2h2.396
		c0.018,0.432,0.154,0.798,0.408,1.098c0.252,0.3,0.563,0.544,0.93,0.732c0.365,0.188,0.764,0.324,1.195,0.409
		c0.43,0.085,0.846,0.126,1.239,0.126c0.789,0,1.455-0.136,2-0.408c0.543-0.272,0.994-0.648,1.353-1.126
		c0.354-0.479,0.615-1.057,0.774-1.732c0.158-0.676,0.238-1.417,0.238-2.225v-0.958h-0.058c-0.412,0.901-1.037,1.563-1.873,1.986
		c-0.836,0.422-1.723,0.633-2.66,0.633c-1.09,0-2.038-0.197-2.846-0.591c-0.807-0.394-1.481-0.925-2.026-1.591
		c-0.546-0.666-0.953-1.446-1.228-2.338c-0.271-0.892-0.408-1.835-0.408-2.831c0-0.863,0.113-1.75,0.338-2.662
		c0.228-0.91,0.603-1.736,1.127-2.479c0.525-0.741,1.222-1.352,2.085-1.831c0.862-0.479,1.926-0.718,3.184-0.718
		c0.92,0,1.765,0.202,2.535,0.605c0.771,0.404,1.369,1.01,1.804,1.817h0.026v-2.084h2.254v13.322
		C550.731,163.109,550.187,164.893,549.097,166.077z M546.043,159.528c0.553-0.328,1-0.76,1.338-1.295
		c0.338-0.535,0.586-1.141,0.746-1.816c0.157-0.676,0.237-1.352,0.237-2.028c0-0.638-0.073-1.267-0.225-1.887
		s-0.392-1.178-0.72-1.676s-0.756-0.896-1.28-1.197c-0.525-0.3-1.164-0.451-1.914-0.451c-0.771,0-1.429,0.146-1.974,0.437
		c-0.545,0.292-0.989,0.681-1.338,1.169c-0.348,0.489-0.602,1.052-0.76,1.69c-0.16,0.639-0.24,1.305-0.24,2
		c0,0.657,0.066,1.314,0.197,1.971c0.131,0.658,0.357,1.253,0.676,1.789c0.32,0.535,0.742,0.967,1.269,1.295
		c0.524,0.329,1.184,0.493,1.973,0.493C544.815,160.021,545.487,159.857,546.043,159.528z"/>
	<path fill="#73797D" d="M564.646,161.035c-1.09,0.827-2.461,1.24-4.113,1.24c-1.164,0-2.174-0.188-3.026-0.563
		c-0.855-0.375-1.572-0.901-2.154-1.577c-0.582-0.676-1.02-1.483-1.311-2.422c-0.291-0.938-0.455-1.962-0.492-3.07
		c0-1.108,0.168-2.122,0.506-3.042c0.34-0.92,0.813-1.718,1.424-2.394c0.609-0.676,1.332-1.202,2.168-1.577s1.75-0.563,2.746-0.563
		c1.295,0,2.371,0.268,3.225,0.803c0.855,0.535,1.539,1.216,2.057,2.042c0.517,0.827,0.873,1.728,1.07,2.704
		s0.277,1.906,0.238,2.788h-10.898c-0.02,0.639,0.058,1.244,0.226,1.817c0.17,0.573,0.44,1.08,0.815,1.521s0.855,0.793,1.438,1.056
		c0.582,0.263,1.269,0.396,2.056,0.396c1.016,0,1.846-0.234,2.493-0.704c0.646-0.469,1.074-1.183,1.281-2.141h2.364
		C566.438,158.979,565.733,160.209,564.646,161.035z M564.067,151.684c-0.217-0.507-0.508-0.943-0.873-1.31
		c-0.366-0.366-0.799-0.657-1.295-0.873c-0.498-0.216-1.047-0.324-1.647-0.324c-0.619,0-1.179,0.108-1.677,0.324
		c-0.497,0.216-0.926,0.512-1.28,0.887c-0.357,0.375-0.64,0.812-0.847,1.31s-0.327,1.028-0.364,1.591h8.364
		C564.409,152.726,564.282,152.191,564.067,151.684z"/>
	<path fill="#73797D" d="M571.713,147.403v2.31h0.058c0.994-1.765,2.571-2.647,4.729-2.647c0.959,0,1.756,0.132,2.396,0.395
		c0.64,0.263,1.153,0.629,1.549,1.098c0.396,0.47,0.672,1.028,0.832,1.676c0.158,0.648,0.238,1.366,0.238,2.155v9.576h-2.396v-9.858
		c0-0.901-0.262-1.615-0.787-2.141c-0.526-0.525-1.25-0.789-2.17-0.789c-0.731,0-1.365,0.113-1.899,0.338
		c-0.535,0.226-0.982,0.545-1.339,0.958s-0.625,0.896-0.803,1.45c-0.18,0.554-0.268,1.16-0.268,1.817v8.224h-2.395v-14.562H571.713
		L571.713,147.403z"/>
	<path fill="#73797D" d="M585.26,144.784v-2.929h2.396v2.929H585.26z M587.655,147.403v14.562h-2.396v-14.562H587.655z"/>
	<path fill="#73797D" d="M601.681,161.035c-1.091,0.827-2.46,1.24-4.111,1.24c-1.166,0-2.174-0.188-3.028-0.563
		s-1.572-0.901-2.154-1.577c-0.582-0.676-1.018-1.483-1.309-2.422c-0.291-0.938-0.455-1.962-0.494-3.07
		c0-1.108,0.17-2.122,0.508-3.042s0.813-1.718,1.422-2.394c0.609-0.676,1.334-1.202,2.17-1.577c0.834-0.375,1.75-0.563,2.746-0.563
		c1.295,0,2.369,0.268,3.225,0.803c0.854,0.535,1.539,1.216,2.055,2.042c0.519,0.827,0.873,1.728,1.07,2.704s0.277,1.906,0.24,2.788
		h-10.9c-0.018,0.639,0.057,1.244,0.228,1.817c0.168,0.573,0.438,1.08,0.815,1.521c0.375,0.441,0.854,0.793,1.437,1.056
		c0.582,0.263,1.269,0.396,2.057,0.396c1.015,0,1.845-0.234,2.492-0.704c0.647-0.469,1.074-1.183,1.281-2.141h2.366
		C603.474,158.979,602.771,160.209,601.681,161.035z M601.103,151.684c-0.216-0.507-0.507-0.943-0.873-1.31
		c-0.365-0.366-0.797-0.657-1.295-0.873c-0.498-0.216-1.048-0.324-1.647-0.324c-0.619,0-1.179,0.108-1.677,0.324
		c-0.496,0.216-0.924,0.512-1.28,0.887c-0.355,0.375-0.64,0.812-0.845,1.31c-0.207,0.498-0.33,1.028-0.367,1.591h8.365
		C601.446,152.726,601.319,152.191,601.103,151.684z"/>
	<path fill="#73797D" d="M608.666,147.403v3.07h0.057c0.582-1.183,1.295-2.056,2.141-2.62c0.844-0.563,1.914-0.826,3.211-0.789
		v2.535c-0.959,0-1.775,0.131-2.451,0.394c-0.676,0.263-1.221,0.648-1.633,1.155c-0.414,0.507-0.715,1.122-0.902,1.845
		s-0.28,1.554-0.28,2.493v6.478h-2.396v-14.562L608.666,147.403L608.666,147.403z"/>
	<path fill="#73797D" d="M620.974,141.375l-3.689,4.028h-1.803l2.422-4.028H620.974z M616.017,147.403h2.395v14.562h-2.395V147.403z
		"/>
	<path fill="#73797D" d="M633.31,162.274c-0.619,0-1.111-0.174-1.479-0.521c-0.364-0.347-0.549-0.915-0.549-1.704
		c-0.658,0.789-1.422,1.356-2.295,1.704c-0.873,0.348-1.818,0.521-2.832,0.521c-0.656,0-1.277-0.071-1.856-0.211
		c-0.584-0.141-1.097-0.375-1.535-0.704c-0.441-0.329-0.789-0.751-1.043-1.268c-0.254-0.516-0.381-1.141-0.381-1.873
		c0-0.826,0.141-1.502,0.424-2.028c0.28-0.525,0.651-0.953,1.11-1.281c0.461-0.329,0.986-0.578,1.578-0.747s1.197-0.31,1.816-0.422
		c0.656-0.131,1.281-0.23,1.873-0.296c0.592-0.065,1.112-0.159,1.563-0.282c0.451-0.122,0.81-0.3,1.07-0.535
		c0.264-0.234,0.395-0.577,0.395-1.028c0-0.525-0.098-0.948-0.295-1.268c-0.196-0.319-0.45-0.563-0.762-0.732
		c-0.309-0.169-0.656-0.282-1.041-0.338s-0.766-0.084-1.141-0.084c-1.015,0-1.859,0.193-2.535,0.578
		c-0.676,0.385-1.043,1.112-1.099,2.183h-2.395c0.037-0.901,0.225-1.662,0.563-2.281c0.338-0.619,0.788-1.122,1.352-1.507
		c0.563-0.385,1.211-0.662,1.943-0.831c0.731-0.169,1.502-0.253,2.311-0.253c0.656,0,1.309,0.047,1.957,0.141
		c0.648,0.094,1.234,0.286,1.76,0.577c0.525,0.292,0.949,0.7,1.269,1.225c0.319,0.526,0.479,1.211,0.479,2.056v7.492
		c0,0.563,0.033,0.977,0.101,1.239c0.065,0.263,0.284,0.395,0.661,0.395c0.207,0,0.451-0.047,0.732-0.141v1.859
		C634.614,162.152,634.042,162.274,633.31,162.274z M629.958,154.937c-0.487,0.104-1,0.188-1.534,0.253
		c-0.535,0.066-1.074,0.141-1.619,0.226s-1.033,0.221-1.465,0.408c-0.433,0.188-0.783,0.456-1.058,0.803
		c-0.271,0.348-0.408,0.822-0.408,1.422c0,0.395,0.08,0.728,0.24,1c0.158,0.272,0.365,0.493,0.619,0.662s0.555,0.292,0.902,0.366
		c0.346,0.075,0.698,0.113,1.055,0.113c0.789,0,1.465-0.108,2.029-0.324c0.563-0.216,1.021-0.488,1.379-0.817
		c0.356-0.328,0.619-0.685,0.789-1.07c0.168-0.385,0.254-0.747,0.254-1.084v-2.45C630.841,154.669,630.446,154.834,629.958,154.937z
		"/>
	<path fill="#73797D" d="M649.97,165.682c-0.273,0.488-0.574,0.887-0.902,1.197c-0.328,0.311-0.689,0.535-1.084,0.676
		c-0.395,0.142-0.863,0.211-1.408,0.211c-0.281,0-0.563-0.019-0.846-0.057c-0.281-0.038-0.553-0.104-0.816-0.197v-2.197
		c0.228,0.075,0.455,0.15,0.689,0.226c0.236,0.075,0.475,0.112,0.719,0.112c0.488,0,0.883-0.112,1.184-0.338
		c0.302-0.225,0.563-0.554,0.789-0.986l0.984-2.45l-5.773-14.477h2.703l4.254,11.914h0.058l4.084-11.914h2.535l-6.338,16.477
		C650.519,164.593,650.241,165.194,649.97,165.682z"/>
	<path fill="#73797D" d="M679.542,144.699c-1.022-0.713-2.237-1.07-3.646-1.07c-1.203,0-2.23,0.225-3.084,0.676
		c-0.855,0.451-1.562,1.056-2.113,1.817c-0.555,0.76-0.963,1.629-1.225,2.605c-0.265,0.977-0.396,1.991-0.396,3.042
		c0,1.146,0.131,2.23,0.396,3.253c0.262,1.024,0.67,1.916,1.225,2.676c0.553,0.761,1.262,1.366,2.127,1.817
		c0.863,0.451,1.896,0.676,3.099,0.676c0.883,0,1.666-0.146,2.352-0.438c0.686-0.291,1.277-0.694,1.775-1.211
		c0.496-0.517,0.887-1.131,1.168-1.845c0.28-0.713,0.45-1.483,0.508-2.31h2.676c-0.264,2.535-1.137,4.507-2.621,5.915
		c-1.481,1.408-3.51,2.112-6.082,2.112c-1.559,0-2.92-0.268-4.084-0.803c-1.166-0.535-2.133-1.272-2.902-2.211
		c-0.769-0.939-1.348-2.046-1.731-3.324c-0.385-1.276-0.576-2.647-0.576-4.112c0-1.465,0.207-2.84,0.619-4.126
		c0.412-1.286,1.018-2.408,1.816-3.366s1.793-1.713,2.985-2.267c1.191-0.554,2.56-0.831,4.099-0.831
		c1.051,0,2.047,0.141,2.985,0.423c0.938,0.281,1.773,0.695,2.506,1.239c0.733,0.544,1.343,1.225,1.83,2.042
		c0.488,0.816,0.81,1.76,0.959,2.831h-2.676C681.228,146.483,680.565,145.413,679.542,144.699z"/>
	<path fill="#73797D" d="M687.47,144.784v-2.929h2.395v2.929H687.47z M689.864,147.403v14.562h-2.395v-14.562H689.864z"/>
	<path fill="#73797D" d="M703.89,161.035c-1.09,0.827-2.459,1.24-4.111,1.24c-1.166,0-2.174-0.188-3.029-0.563
		c-0.854-0.375-1.571-0.901-2.153-1.577c-0.582-0.676-1.019-1.483-1.31-2.422c-0.291-0.938-0.455-1.962-0.494-3.07
		c0-1.108,0.171-2.122,0.509-3.042s0.813-1.718,1.422-2.394c0.608-0.676,1.334-1.202,2.17-1.577c0.834-0.375,1.75-0.563,2.746-0.563
		c1.295,0,2.369,0.268,3.225,0.803c0.854,0.535,1.539,1.216,2.056,2.042c0.518,0.827,0.872,1.728,1.069,2.704
		s0.277,1.906,0.24,2.788h-10.9c-0.018,0.639,0.058,1.244,0.228,1.817c0.168,0.573,0.438,1.08,0.815,1.521
		c0.375,0.441,0.854,0.793,1.437,1.056c0.582,0.263,1.268,0.396,2.057,0.396c1.015,0,1.844-0.234,2.492-0.704
		c0.648-0.469,1.074-1.183,1.281-2.141h2.367C705.683,158.979,704.979,160.209,703.89,161.035z M703.312,151.684
		c-0.215-0.507-0.506-0.943-0.873-1.31c-0.365-0.366-0.797-0.657-1.295-0.873c-0.498-0.216-1.047-0.324-1.648-0.324
		c-0.619,0-1.178,0.108-1.676,0.324c-0.496,0.216-0.924,0.512-1.281,0.887c-0.354,0.375-0.639,0.812-0.844,1.31
		c-0.207,0.498-0.33,1.028-0.367,1.591h8.365C703.655,152.726,703.528,152.191,703.312,151.684z"/>
	<path fill="#73797D" d="M710.958,147.403v2.31h0.058c0.996-1.765,2.572-2.647,4.731-2.647c0.957,0,1.757,0.132,2.396,0.395
		c0.637,0.263,1.154,0.629,1.549,1.098c0.396,0.47,0.67,1.028,0.83,1.676c0.16,0.648,0.24,1.366,0.24,2.155v9.576h-2.396v-9.858
		c0-0.901-0.264-1.615-0.789-2.141c-0.524-0.525-1.248-0.789-2.168-0.789c-0.731,0-1.367,0.113-1.901,0.338
		c-0.535,0.226-0.98,0.545-1.339,0.958c-0.354,0.413-0.622,0.896-0.803,1.45c-0.178,0.554-0.268,1.16-0.268,1.817v8.224h-2.394
		v-14.562H710.958L710.958,147.403z"/>
	<path fill="#73797D" d="M733.069,149.938c-0.602-0.507-1.408-0.761-2.424-0.761c-0.863,0-1.586,0.16-2.168,0.479
		c-0.582,0.319-1.047,0.742-1.396,1.268c-0.348,0.526-0.596,1.131-0.745,1.816c-0.15,0.686-0.226,1.394-0.226,2.126
		c0,0.676,0.08,1.333,0.238,1.972c0.16,0.639,0.408,1.207,0.746,1.704c0.34,0.498,0.778,0.896,1.323,1.197
		c0.546,0.301,1.193,0.451,1.943,0.451c1.185,0,2.107-0.31,2.775-0.929c0.666-0.62,1.074-1.493,1.225-2.62h2.451
		c-0.264,1.803-0.936,3.192-2.016,4.168c-1.078,0.977-2.55,1.465-4.406,1.465c-1.109,0-2.09-0.179-2.943-0.535
		c-0.854-0.356-1.567-0.864-2.141-1.521c-0.574-0.657-1.006-1.441-1.297-2.352s-0.437-1.91-0.437-3c0-1.089,0.142-2.107,0.422-3.056
		c0.281-0.949,0.709-1.774,1.281-2.479s1.291-1.258,2.156-1.662c0.863-0.403,1.867-0.605,3.014-0.605
		c0.824,0,1.601,0.099,2.322,0.296c0.722,0.197,1.361,0.502,1.916,0.915c0.553,0.414,1.008,0.935,1.365,1.563
		c0.356,0.629,0.582,1.375,0.676,2.239h-2.479C734.063,151.159,733.669,150.445,733.069,149.938z"/>
	<path fill="#73797D" d="M739.63,144.784v-2.929h2.395v2.929H739.63z M742.024,147.403v14.562h-2.395v-14.562H742.024z"/>
	<path fill="#73797D" d="M756.925,162.274c-0.621,0-1.113-0.174-1.479-0.521c-0.367-0.347-0.551-0.915-0.551-1.704
		c-0.656,0.789-1.422,1.356-2.295,1.704c-0.873,0.348-1.816,0.521-2.83,0.521c-0.658,0-1.277-0.071-1.859-0.211
		c-0.582-0.141-1.094-0.375-1.535-0.704c-0.44-0.329-0.788-0.751-1.041-1.268c-0.254-0.516-0.381-1.141-0.381-1.873
		c0-0.826,0.142-1.502,0.422-2.028c0.281-0.525,0.652-0.953,1.113-1.281c0.459-0.329,0.986-0.578,1.576-0.747
		c0.592-0.169,1.197-0.31,1.815-0.422c0.658-0.131,1.283-0.23,1.873-0.296c0.593-0.065,1.113-0.159,1.564-0.282
		c0.451-0.122,0.807-0.3,1.07-0.535c0.262-0.234,0.395-0.577,0.395-1.028c0-0.525-0.1-0.948-0.297-1.268
		c-0.197-0.319-0.449-0.563-0.76-0.732c-0.312-0.169-0.658-0.282-1.043-0.338s-0.767-0.084-1.142-0.084
		c-1.014,0-1.856,0.193-2.534,0.578c-0.677,0.385-1.041,1.112-1.099,2.183h-2.395c0.037-0.901,0.227-1.662,0.563-2.281
		s0.787-1.122,1.353-1.507c0.563-0.385,1.211-0.662,1.942-0.831c0.732-0.169,1.502-0.253,2.31-0.253
		c0.658,0,1.311,0.047,1.959,0.141c0.646,0.094,1.233,0.286,1.76,0.577c0.525,0.292,0.947,0.7,1.268,1.225
		c0.318,0.526,0.479,1.211,0.479,2.056v7.492c0,0.563,0.033,0.977,0.098,1.239c0.066,0.263,0.287,0.395,0.662,0.395
		c0.207,0,0.451-0.047,0.732-0.141v1.859C758.229,162.152,757.657,162.274,756.925,162.274z M753.573,154.937
		c-0.49,0.104-1,0.188-1.535,0.253c-0.534,0.066-1.075,0.141-1.621,0.226c-0.543,0.084-1.03,0.221-1.463,0.408
		c-0.434,0.188-0.784,0.456-1.057,0.803c-0.273,0.348-0.408,0.822-0.408,1.422c0,0.395,0.08,0.728,0.238,1
		c0.16,0.272,0.367,0.493,0.621,0.662c0.252,0.169,0.553,0.292,0.899,0.366c0.349,0.075,0.699,0.113,1.058,0.113
		c0.789,0,1.465-0.108,2.026-0.324c0.563-0.216,1.023-0.488,1.382-0.817c0.354-0.328,0.618-0.685,0.786-1.07
		c0.17-0.385,0.255-0.747,0.255-1.084v-2.45C754.454,154.669,754.06,154.834,753.573,154.937z"/>
	<path fill="#73797D" d="M762.698,158.711c0.226,0.366,0.521,0.657,0.887,0.873c0.365,0.216,0.779,0.371,1.238,0.465
		c0.461,0.094,0.935,0.141,1.422,0.141c0.377,0,0.771-0.028,1.185-0.084c0.414-0.056,0.793-0.159,1.141-0.31
		c0.349-0.15,0.635-0.37,0.859-0.662c0.225-0.291,0.338-0.662,0.338-1.113c0-0.62-0.234-1.088-0.703-1.408
		c-0.471-0.319-1.057-0.577-1.762-0.774c-0.703-0.197-1.47-0.375-2.295-0.535c-0.826-0.159-1.593-0.385-2.295-0.676
		c-0.705-0.291-1.291-0.699-1.763-1.225c-0.469-0.526-0.703-1.258-0.703-2.197c0-0.732,0.164-1.361,0.492-1.887
		c0.328-0.525,0.752-0.953,1.269-1.282c0.516-0.328,1.1-0.572,1.745-0.732c0.648-0.159,1.291-0.239,1.931-0.239
		c0.826,0,1.586,0.07,2.281,0.211c0.694,0.141,1.311,0.385,1.846,0.732c0.535,0.348,0.961,0.817,1.281,1.409
		c0.317,0.591,0.506,1.329,0.563,2.211h-2.395c-0.037-0.469-0.158-0.859-0.365-1.169c-0.207-0.31-0.469-0.559-0.789-0.747
		c-0.318-0.188-0.672-0.324-1.057-0.408c-0.386-0.084-0.773-0.127-1.169-0.127c-0.356,0-0.719,0.028-1.084,0.084
		c-0.366,0.057-0.698,0.155-1,0.296c-0.301,0.141-0.545,0.329-0.731,0.563c-0.188,0.234-0.281,0.54-0.281,0.915
		c0,0.414,0.146,0.756,0.437,1.028s0.662,0.498,1.112,0.676c0.451,0.179,0.957,0.329,1.521,0.451
		c0.563,0.123,1.125,0.249,1.688,0.38c0.601,0.131,1.188,0.291,1.761,0.479c0.571,0.188,1.08,0.437,1.521,0.747
		c0.441,0.31,0.797,0.7,1.07,1.169c0.271,0.469,0.408,1.052,0.408,1.746c0,0.883-0.185,1.615-0.55,2.197
		c-0.366,0.583-0.846,1.052-1.438,1.408c-0.592,0.357-1.258,0.604-2,0.747c-0.74,0.141-1.479,0.211-2.211,0.211
		c-0.808,0-1.576-0.085-2.31-0.254c-0.732-0.169-1.381-0.446-1.942-0.831c-0.564-0.385-1.015-0.892-1.353-1.521
		s-0.526-1.394-0.563-2.295h2.395C762.349,157.899,762.472,158.345,762.698,158.711z"/>
	<path fill="#73797D" d="M377.969,172.854l7.858,20.11h-2.958l-2.196-6.056h-8.506l-2.253,6.056h-2.732l7.83-20.11H377.969z
		 M379.829,184.656l-3.352-9.379h-0.057l-3.408,9.379H379.829z M380.25,167.391l-3.689,4.027h-1.803l2.423-4.027H380.25z"/>
	<path fill="#73797D" d="M389.573,178.403v3.069h0.056c0.582-1.183,1.296-2.056,2.141-2.619c0.845-0.563,1.915-0.826,3.211-0.789
		v2.535c-0.958,0-1.774,0.131-2.45,0.394c-0.676,0.263-1.221,0.647-1.634,1.155c-0.413,0.507-0.714,1.121-0.901,1.845
		c-0.188,0.724-0.281,1.554-0.281,2.493v6.478h-2.395v-14.562L389.573,178.403L389.573,178.403z"/>
	<path fill="#73797D" d="M406.586,192.035c-1.09,0.827-2.459,1.24-4.112,1.24c-1.165,0-2.175-0.188-3.028-0.563
		s-1.572-0.901-2.154-1.577s-1.019-1.482-1.31-2.422c-0.291-0.938-0.455-1.962-0.493-3.07c0-1.107,0.169-2.121,0.507-3.041
		c0.339-0.92,0.813-1.719,1.422-2.395s1.334-1.202,2.17-1.577c0.834-0.375,1.75-0.563,2.746-0.563c1.295,0,2.369,0.268,3.225,0.803
		s1.54,1.216,2.055,2.042c0.518,0.827,0.873,1.729,1.07,2.704s0.277,1.905,0.24,2.788h-10.9c-0.02,0.639,0.057,1.244,0.227,1.816
		c0.168,0.573,0.439,1.08,0.815,1.521c0.375,0.441,0.854,0.793,1.437,1.056s1.269,0.396,2.057,0.396
		c1.015,0,1.845-0.234,2.492-0.704s1.074-1.183,1.281-2.142h2.367C408.379,189.979,407.674,191.209,406.586,192.035z
		 M406.008,182.684c-0.217-0.506-0.508-0.942-0.873-1.31c-0.366-0.366-0.799-0.657-1.295-0.873
		c-0.498-0.216-1.047-0.323-1.648-0.323c-0.619,0-1.178,0.107-1.676,0.323c-0.497,0.216-0.926,0.513-1.281,0.888
		s-0.639,0.812-0.845,1.31c-0.207,0.498-0.329,1.028-0.366,1.591h8.365C406.351,183.727,406.224,183.191,406.008,182.684z"/>
	<path fill="#73797D" d="M422.584,193.273c-0.621,0-1.113-0.174-1.479-0.521c-0.367-0.347-0.552-0.915-0.552-1.704
		c-0.655,0.789-1.422,1.356-2.295,1.704c-0.873,0.349-1.815,0.521-2.83,0.521c-0.657,0-1.276-0.07-1.858-0.211
		s-1.094-0.375-1.534-0.703c-0.441-0.329-0.789-0.752-1.041-1.268c-0.255-0.517-0.382-1.142-0.382-1.873
		c0-0.826,0.142-1.502,0.423-2.029c0.28-0.524,0.651-0.952,1.112-1.28c0.459-0.329,0.985-0.578,1.576-0.747
		c0.592-0.169,1.196-0.311,1.815-0.422c0.658-0.131,1.283-0.23,1.873-0.296c0.592-0.065,1.113-0.159,1.564-0.282
		c0.451-0.122,0.807-0.3,1.07-0.535c0.262-0.234,0.395-0.576,0.395-1.027c0-0.525-0.1-0.948-0.297-1.269
		c-0.197-0.319-0.449-0.563-0.76-0.731c-0.312-0.17-0.658-0.282-1.043-0.338c-0.385-0.057-0.766-0.084-1.141-0.084
		c-1.015,0-1.857,0.192-2.535,0.577c-0.677,0.386-1.041,1.112-1.099,2.183h-2.396c0.037-0.9,0.228-1.661,0.564-2.28
		s0.787-1.122,1.352-1.507c0.563-0.385,1.211-0.662,1.943-0.831s1.502-0.253,2.309-0.253c0.658,0,1.312,0.047,1.959,0.141
		c0.646,0.094,1.234,0.286,1.761,0.577c0.524,0.292,0.946,0.7,1.269,1.226c0.317,0.525,0.479,1.211,0.479,2.055v7.492
		c0,0.563,0.033,0.978,0.098,1.239c0.066,0.263,0.287,0.396,0.662,0.396c0.207,0,0.451-0.047,0.732-0.141v1.858
		C423.887,193.152,423.315,193.273,422.584,193.273z M419.231,185.938c-0.49,0.104-1,0.188-1.535,0.252
		c-0.534,0.066-1.075,0.142-1.621,0.227c-0.543,0.084-1.03,0.221-1.463,0.408c-0.435,0.188-0.784,0.456-1.057,0.803
		c-0.273,0.348-0.408,0.822-0.408,1.422c0,0.396,0.08,0.729,0.237,1c0.16,0.272,0.367,0.493,0.621,0.662
		c0.252,0.169,0.554,0.292,0.9,0.366c0.348,0.075,0.699,0.112,1.057,0.112c0.789,0,1.465-0.107,2.027-0.323s1.023-0.488,1.381-0.817
		c0.355-0.328,0.619-0.685,0.787-1.07c0.17-0.385,0.254-0.746,0.254-1.084v-2.449C420.112,185.669,419.717,185.834,419.231,185.938z
		"/>
	<path fill="#73797D" d="M444.974,192.964v-1.972h-0.058c-0.395,0.809-1.014,1.391-1.858,1.747s-1.772,0.534-2.789,0.534
		c-1.125,0-2.106-0.206-2.94-0.619c-0.837-0.413-1.531-0.967-2.087-1.662c-0.553-0.694-0.971-1.502-1.252-2.422
		c-0.282-0.92-0.424-1.896-0.424-2.93s0.138-2.008,0.408-2.929c0.272-0.92,0.687-1.723,1.239-2.407
		c0.554-0.686,1.248-1.229,2.084-1.635c0.836-0.402,1.808-0.605,2.916-0.605c0.375,0,0.777,0.039,1.211,0.113
		c0.433,0.075,0.863,0.202,1.295,0.381c0.433,0.178,0.841,0.412,1.226,0.703c0.386,0.291,0.709,0.652,0.974,1.084h0.057v-7.492
		h2.393v20.11H444.974z M436.369,187.796c0.178,0.648,0.45,1.226,0.815,1.732c0.366,0.507,0.836,0.911,1.407,1.211
		c0.574,0.301,1.244,0.45,2.017,0.45c0.808,0,1.492-0.158,2.056-0.479c0.563-0.318,1.022-0.736,1.381-1.253
		c0.354-0.517,0.614-1.103,0.772-1.761c0.16-0.657,0.24-1.324,0.24-2c0-0.713-0.084-1.403-0.255-2.07
		c-0.168-0.666-0.436-1.253-0.803-1.76c-0.365-0.507-0.84-0.915-1.422-1.225c-0.582-0.311-1.287-0.465-2.113-0.465
		c-0.807,0-1.491,0.159-2.055,0.479c-0.563,0.318-1.014,0.742-1.352,1.268c-0.34,0.526-0.584,1.127-0.732,1.803
		c-0.15,0.676-0.227,1.371-0.227,2.084C436.101,186.486,436.19,187.148,436.369,187.796z"/>
	<path fill="#73797D" d="M461.366,192.035c-1.09,0.827-2.461,1.24-4.112,1.24c-1.164,0-2.174-0.188-3.027-0.563
		c-0.855-0.375-1.572-0.901-2.154-1.577s-1.02-1.482-1.311-2.422c-0.291-0.938-0.455-1.962-0.492-3.07
		c0-1.107,0.168-2.121,0.506-3.041c0.34-0.92,0.813-1.719,1.424-2.395c0.609-0.676,1.332-1.202,2.168-1.577s1.75-0.563,2.746-0.563
		c1.295,0,2.371,0.268,3.225,0.803c0.855,0.535,1.539,1.216,2.058,2.042c0.517,0.827,0.873,1.729,1.069,2.704
		c0.197,0.976,0.277,1.905,0.238,2.788h-10.897c-0.021,0.639,0.057,1.244,0.225,1.816c0.17,0.573,0.441,1.08,0.816,1.521
		s0.854,0.793,1.438,1.056c0.581,0.263,1.268,0.396,2.055,0.396c1.016,0,1.846-0.234,2.494-0.704c0.646-0.47,1.073-1.183,1.28-2.142
		h2.365C463.159,189.979,462.455,191.209,461.366,192.035z M460.789,182.684c-0.218-0.506-0.509-0.942-0.873-1.31
		c-0.367-0.366-0.8-0.657-1.295-0.873c-0.498-0.216-1.048-0.323-1.648-0.323c-0.619,0-1.178,0.107-1.676,0.323
		s-0.926,0.513-1.281,0.888c-0.357,0.375-0.639,0.812-0.846,1.31s-0.328,1.028-0.365,1.591h8.365
		C461.129,183.727,461.004,183.191,460.789,182.684z"/>
	<path fill="#73797D" d="M477.082,172.854v8.646h10.59v-8.646h2.676v20.11h-2.676v-9.21h-10.59v9.21h-2.677v-20.11H477.082z"/>
	<path fill="#73797D" d="M504.147,192.964v-2.31h-0.058c-0.506,0.9-1.153,1.563-1.942,1.986c-0.789,0.422-1.717,0.633-2.787,0.633
		c-0.959,0-1.758-0.127-2.396-0.379c-0.639-0.254-1.153-0.615-1.549-1.084c-0.395-0.469-0.672-1.028-0.832-1.676
		c-0.16-0.648-0.237-1.367-0.237-2.156v-9.575h2.393v9.858c0,0.9,0.265,1.614,0.789,2.141c0.524,0.525,1.248,0.789,2.17,0.789
		c0.732,0,1.365-0.113,1.9-0.338c0.534-0.227,0.979-0.545,1.338-0.959c0.354-0.412,0.623-0.896,0.803-1.45
		c0.179-0.554,0.269-1.159,0.269-1.816v-8.225h2.395v14.562L504.147,192.964L504.147,192.964z"/>
	<path fill="#73797D" d="M512.258,178.403v2.141h0.058c1.088-1.651,2.656-2.479,4.703-2.479c0.899,0,1.719,0.188,2.448,0.563
		c0.732,0.375,1.25,1.015,1.552,1.915c0.485-0.789,1.131-1.398,1.928-1.831c0.8-0.432,1.677-0.647,2.636-0.647
		c0.731,0,1.395,0.08,1.983,0.238c0.592,0.16,1.101,0.409,1.521,0.748c0.422,0.338,0.75,0.773,0.986,1.31
		c0.234,0.534,0.352,1.179,0.352,1.929v10.675h-2.395v-9.548c0-0.451-0.037-0.873-0.111-1.268c-0.076-0.396-0.217-0.737-0.424-1.028
		s-0.492-0.521-0.859-0.69c-0.364-0.168-0.84-0.252-1.422-0.252c-1.182,0-2.11,0.338-2.787,1.014
		c-0.676,0.676-1.016,1.576-1.016,2.703v9.069h-2.393v-9.548c0-0.469-0.043-0.9-0.127-1.296c-0.084-0.394-0.23-0.735-0.438-1.028
		c-0.207-0.291-0.482-0.516-0.83-0.676c-0.349-0.16-0.793-0.24-1.338-0.24c-0.695,0-1.291,0.142-1.789,0.424
		c-0.498,0.28-0.9,0.619-1.211,1.014c-0.31,0.395-0.535,0.803-0.677,1.225s-0.211,0.775-0.211,1.057v9.068h-2.396v-14.562h2.256
		V178.403z"/>
	<path fill="#73797D" d="M545.211,193.273c-0.619,0-1.11-0.174-1.479-0.521c-0.365-0.347-0.549-0.915-0.549-1.704
		c-0.658,0.789-1.422,1.356-2.295,1.704c-0.873,0.349-1.818,0.521-2.832,0.521c-0.656,0-1.277-0.07-1.857-0.211
		c-0.584-0.141-1.096-0.375-1.535-0.703c-0.44-0.329-0.789-0.752-1.043-1.268c-0.254-0.517-0.381-1.142-0.381-1.873
		c0-0.826,0.141-1.502,0.424-2.029c0.281-0.524,0.652-0.952,1.111-1.28c0.461-0.329,0.986-0.578,1.578-0.747
		s1.197-0.311,1.816-0.422c0.655-0.131,1.28-0.23,1.873-0.296c0.592-0.065,1.112-0.159,1.563-0.282
		c0.451-0.122,0.809-0.3,1.07-0.535c0.264-0.234,0.395-0.576,0.395-1.027c0-0.525-0.098-0.948-0.295-1.269
		c-0.197-0.319-0.451-0.563-0.762-0.731c-0.309-0.17-0.656-0.282-1.041-0.338c-0.385-0.057-0.766-0.084-1.141-0.084
		c-1.015,0-1.859,0.192-2.535,0.577c-0.676,0.386-1.043,1.112-1.099,2.183h-2.396c0.037-0.9,0.226-1.661,0.563-2.28
		c0.339-0.619,0.789-1.122,1.353-1.507s1.211-0.662,1.942-0.831c0.732-0.169,1.503-0.253,2.312-0.253
		c0.656,0,1.309,0.047,1.957,0.141c0.647,0.094,1.234,0.286,1.76,0.577c0.525,0.292,0.949,0.7,1.268,1.226
		c0.32,0.525,0.479,1.211,0.479,2.055v7.492c0,0.563,0.032,0.978,0.101,1.239c0.065,0.263,0.284,0.396,0.661,0.396
		c0.207,0,0.451-0.047,0.731-0.141v1.858C546.517,193.152,545.944,193.273,545.211,193.273z M541.86,185.938
		c-0.487,0.104-1,0.188-1.535,0.252c-0.534,0.066-1.073,0.142-1.618,0.227s-1.033,0.221-1.466,0.408
		c-0.432,0.188-0.782,0.456-1.057,0.803c-0.271,0.348-0.408,0.822-0.408,1.422c0,0.396,0.08,0.729,0.24,1
		c0.157,0.272,0.364,0.493,0.618,0.662c0.255,0.169,0.556,0.292,0.902,0.366c0.346,0.075,0.699,0.112,1.055,0.112
		c0.789,0,1.466-0.107,2.029-0.323s1.021-0.488,1.379-0.817c0.357-0.328,0.619-0.685,0.789-1.07
		c0.168-0.385,0.254-0.746,0.254-1.084v-2.449C542.744,185.669,542.349,185.834,541.86,185.938z"/>
	<path fill="#73797D" d="M551.407,178.403v2.31h0.058c0.996-1.765,2.572-2.646,4.731-2.646c0.957,0,1.757,0.132,2.396,0.395
		c0.637,0.264,1.154,0.629,1.549,1.098c0.395,0.471,0.67,1.028,0.83,1.677c0.16,0.647,0.24,1.366,0.24,2.155v9.576h-2.396v-9.859
		c0-0.9-0.265-1.614-0.789-2.141c-0.524-0.524-1.248-0.789-2.168-0.789c-0.731,0-1.367,0.113-1.901,0.338
		c-0.535,0.227-0.98,0.545-1.339,0.959c-0.354,0.412-0.622,0.896-0.803,1.449c-0.179,0.555-0.269,1.16-0.269,1.817v8.224h-2.393
		v-14.562H551.407L551.407,178.403z"/>
	<path fill="#73797D" d="M564.957,175.784v-2.929h2.395v2.929H564.957z M567.351,178.403v14.562h-2.396v-14.562H567.351z"/>
	<path fill="#73797D" d="M581.685,192.964v-1.972h-0.058c-0.395,0.809-1.014,1.391-1.856,1.747
		c-0.847,0.356-1.774,0.534-2.789,0.534c-1.127,0-2.106-0.206-2.942-0.619s-1.531-0.967-2.084-1.662
		c-0.556-0.694-0.974-1.502-1.255-2.422c-0.28-0.92-0.422-1.896-0.422-2.93s0.138-2.008,0.408-2.929
		c0.271-0.92,0.687-1.723,1.237-2.407c0.556-0.686,1.25-1.229,2.086-1.635c0.834-0.402,1.808-0.605,2.914-0.605
		c0.375,0,0.779,0.039,1.211,0.113c0.433,0.075,0.863,0.202,1.298,0.381c0.432,0.178,0.84,0.412,1.225,0.703
		c0.386,0.291,0.709,0.652,0.972,1.084h0.057v-7.492h2.395v20.11H581.685z M573.082,187.796c0.178,0.648,0.448,1.226,0.815,1.732
		c0.364,0.507,0.836,0.911,1.408,1.211c0.571,0.301,1.243,0.45,2.014,0.45c0.808,0,1.492-0.158,2.058-0.479
		c0.563-0.318,1.022-0.736,1.379-1.253s0.615-1.103,0.774-1.761c0.158-0.657,0.238-1.324,0.238-2c0-0.713-0.084-1.403-0.252-2.07
		c-0.171-0.666-0.438-1.253-0.804-1.76c-0.367-0.507-0.842-0.915-1.424-1.225c-0.582-0.311-1.285-0.465-2.111-0.465
		c-0.809,0-1.491,0.159-2.057,0.479c-0.563,0.318-1.014,0.742-1.352,1.268c-0.338,0.526-0.582,1.127-0.732,1.803
		s-0.225,1.371-0.225,2.084C572.813,186.486,572.901,187.148,573.082,187.796z"/>
	<path fill="#73797D" d="M598.95,193.273c-0.62,0-1.112-0.174-1.479-0.521c-0.367-0.347-0.552-0.915-0.552-1.704
		c-0.655,0.789-1.422,1.356-2.295,1.704c-0.873,0.349-1.815,0.521-2.83,0.521c-0.657,0-1.276-0.07-1.858-0.211
		s-1.095-0.375-1.535-0.703c-0.44-0.329-0.789-0.752-1.041-1.268c-0.254-0.517-0.381-1.142-0.381-1.873
		c0-0.826,0.142-1.502,0.422-2.029c0.281-0.524,0.651-0.952,1.113-1.28c0.459-0.329,0.985-0.578,1.575-0.747
		c0.593-0.169,1.197-0.311,1.816-0.422c0.658-0.131,1.283-0.23,1.873-0.296c0.592-0.065,1.113-0.159,1.564-0.282
		c0.451-0.122,0.807-0.3,1.07-0.535c0.262-0.234,0.395-0.576,0.395-1.027c0-0.525-0.1-0.948-0.297-1.269
		c-0.197-0.319-0.449-0.563-0.76-0.731c-0.312-0.17-0.658-0.282-1.043-0.338c-0.386-0.057-0.767-0.084-1.142-0.084
		c-1.015,0-1.856,0.192-2.535,0.577c-0.676,0.386-1.041,1.112-1.098,2.183h-2.396c0.037-0.9,0.228-1.661,0.564-2.28
		s0.787-1.122,1.352-1.507c0.563-0.385,1.211-0.662,1.943-0.831s1.502-0.253,2.309-0.253c0.658,0,1.312,0.047,1.959,0.141
		c0.646,0.094,1.234,0.286,1.76,0.577c0.525,0.292,0.947,0.7,1.269,1.226c0.317,0.525,0.479,1.211,0.479,2.055v7.492
		c0,0.563,0.033,0.978,0.098,1.239c0.066,0.263,0.287,0.396,0.662,0.396c0.207,0,0.451-0.047,0.732-0.141v1.858
		C600.254,193.152,599.683,193.273,598.95,193.273z M595.599,185.938c-0.49,0.104-1,0.188-1.535,0.252
		c-0.535,0.066-1.076,0.142-1.621,0.227c-0.543,0.084-1.03,0.221-1.463,0.408c-0.435,0.188-0.785,0.456-1.058,0.803
		c-0.272,0.348-0.407,0.822-0.407,1.422c0,0.396,0.079,0.729,0.237,1c0.16,0.272,0.367,0.493,0.621,0.662
		c0.252,0.169,0.553,0.292,0.9,0.366c0.348,0.075,0.699,0.112,1.057,0.112c0.789,0,1.465-0.107,2.027-0.323s1.023-0.488,1.381-0.817
		c0.355-0.328,0.619-0.685,0.787-1.07c0.17-0.385,0.254-0.746,0.254-1.084v-2.449C596.479,185.669,596.086,185.834,595.599,185.938z
		"/>
	<path fill="#73797D" d="M613.511,192.964v-1.972h-0.058c-0.395,0.809-1.014,1.391-1.856,1.747
		c-0.847,0.356-1.775,0.534-2.789,0.534c-1.127,0-2.107-0.206-2.943-0.619s-1.53-0.967-2.084-1.662
		c-0.555-0.694-0.973-1.502-1.254-2.422c-0.28-0.92-0.422-1.896-0.422-2.93s0.137-2.008,0.407-2.929
		c0.271-0.92,0.687-1.723,1.238-2.407c0.556-0.686,1.25-1.229,2.086-1.635c0.834-0.402,1.808-0.605,2.914-0.605
		c0.375,0,0.779,0.039,1.211,0.113c0.433,0.075,0.863,0.202,1.297,0.381c0.433,0.178,0.841,0.412,1.226,0.703
		s0.709,0.652,0.971,1.084h0.058v-7.492h2.395v20.11H613.511z M604.907,187.796c0.179,0.648,0.449,1.226,0.816,1.732
		c0.364,0.507,0.836,0.911,1.407,1.211c0.572,0.301,1.244,0.45,2.015,0.45c0.808,0,1.492-0.158,2.058-0.479
		c0.563-0.318,1.022-0.736,1.378-1.253c0.357-0.517,0.615-1.103,0.775-1.761c0.158-0.657,0.238-1.324,0.238-2
		c0-0.713-0.084-1.403-0.252-2.07c-0.17-0.666-0.438-1.253-0.804-1.76c-0.367-0.507-0.842-0.915-1.424-1.225
		c-0.582-0.311-1.285-0.465-2.111-0.465c-0.809,0-1.492,0.159-2.057,0.479c-0.563,0.318-1.014,0.742-1.352,1.268
		c-0.338,0.526-0.582,1.127-0.732,1.803s-0.225,1.371-0.225,2.084C604.64,186.486,604.728,187.148,604.907,187.796z"/>
	<path fill="#73797D" d="M629.903,192.035c-1.09,0.827-2.461,1.24-4.113,1.24c-1.164,0-2.174-0.188-3.026-0.563
		c-0.855-0.375-1.572-0.901-2.154-1.577s-1.02-1.482-1.311-2.422c-0.291-0.938-0.455-1.962-0.492-3.07
		c0-1.107,0.168-2.121,0.506-3.041c0.34-0.92,0.813-1.719,1.424-2.395c0.609-0.676,1.332-1.202,2.168-1.577s1.75-0.563,2.746-0.563
		c1.295,0,2.371,0.268,3.225,0.803c0.855,0.535,1.539,1.216,2.058,2.042c0.516,0.827,0.873,1.729,1.07,2.704
		c0.196,0.976,0.276,1.905,0.237,2.788h-10.897c-0.021,0.639,0.057,1.244,0.225,1.816c0.17,0.573,0.441,1.08,0.816,1.521
		s0.854,0.793,1.438,1.056c0.582,0.263,1.269,0.396,2.055,0.396c1.017,0,1.847-0.234,2.494-0.704
		c0.646-0.47,1.074-1.183,1.281-2.142h2.365C631.696,189.979,630.991,191.209,629.903,192.035z M629.325,182.684
		c-0.217-0.506-0.508-0.942-0.873-1.31c-0.367-0.366-0.799-0.657-1.295-0.873c-0.498-0.216-1.047-0.323-1.647-0.323
		c-0.619,0-1.179,0.107-1.677,0.323s-0.926,0.513-1.28,0.888c-0.357,0.375-0.64,0.812-0.847,1.31s-0.328,1.028-0.364,1.591h8.364
		C629.667,183.727,629.54,183.191,629.325,182.684z"/>
	<path fill="#73797D" d="M636.55,189.711c0.225,0.366,0.52,0.657,0.887,0.873c0.365,0.217,0.779,0.371,1.238,0.465
		c0.461,0.094,0.934,0.141,1.422,0.141c0.377,0,0.771-0.027,1.184-0.084c0.414-0.055,0.793-0.158,1.142-0.31
		c0.348-0.149,0.635-0.37,0.858-0.661c0.226-0.291,0.338-0.662,0.338-1.113c0-0.62-0.233-1.088-0.703-1.408
		c-0.471-0.319-1.057-0.577-1.762-0.774c-0.703-0.196-1.469-0.375-2.295-0.534c-0.826-0.16-1.592-0.386-2.295-0.677
		c-0.705-0.291-1.291-0.698-1.762-1.225c-0.47-0.526-0.703-1.259-0.703-2.197c0-0.731,0.164-1.36,0.492-1.887
		c0.327-0.525,0.752-0.953,1.268-1.282c0.516-0.328,1.1-0.572,1.746-0.732c0.648-0.158,1.291-0.238,1.93-0.238
		c0.826,0,1.586,0.07,2.281,0.211s1.311,0.385,1.846,0.732s0.961,0.816,1.281,1.408c0.318,0.592,0.506,1.329,0.563,2.211h-2.396
		c-0.037-0.469-0.158-0.859-0.365-1.169s-0.469-0.559-0.789-0.747c-0.317-0.188-0.672-0.324-1.057-0.408s-0.773-0.127-1.168-0.127
		c-0.357,0-0.719,0.028-1.084,0.084c-0.367,0.058-0.699,0.155-1,0.297c-0.301,0.141-0.545,0.328-0.732,0.563
		c-0.187,0.234-0.28,0.54-0.28,0.915c0,0.414,0.145,0.756,0.436,1.028c0.291,0.271,0.662,0.498,1.113,0.676
		c0.451,0.179,0.957,0.329,1.521,0.451c0.563,0.123,1.125,0.248,1.689,0.38c0.6,0.131,1.188,0.291,1.76,0.479
		c0.572,0.188,1.08,0.437,1.521,0.746c0.44,0.311,0.797,0.7,1.069,1.17c0.271,0.469,0.408,1.051,0.408,1.745
		c0,0.884-0.184,1.615-0.549,2.197c-0.367,0.583-0.846,1.052-1.438,1.408c-0.592,0.356-1.258,0.604-2,0.747
		c-0.739,0.141-1.479,0.211-2.211,0.211c-0.807,0-1.575-0.086-2.309-0.254c-0.733-0.17-1.381-0.446-1.943-0.832
		c-0.563-0.385-1.014-0.892-1.352-1.521s-0.527-1.394-0.564-2.295h2.396C636.2,188.898,636.323,189.346,636.55,189.711z"/>
</g>
</svg>
