<?xml version="1.0" encoding="utf-8"?>
<!-- Generator: Adobe Illustrator 16.0.0, SVG Export Plug-In . SVG Version: 6.00 Build 0)  -->
<!DOCTYPE svg PUBLIC "-//W3C//DTD SVG 1.1//EN" "http://www.w3.org/Graphics/SVG/1.1/DTD/svg11.dtd" [
	
		<!ENTITY st0 "fill-rule:evenodd;clip-rule:evenodd;fill:#0062AF;stroke:#0062AF;stroke-width:0.5;stroke-linecap:round;stroke-linejoin:round;stroke-miterlimit:10;">
	
		<!ENTITY st1 "fill-rule:evenodd;clip-rule:evenodd;fill:#0062AF;stroke:#0062AF;stroke-width:3;stroke-linecap:round;stroke-linejoin:round;stroke-miterlimit:10;">
	
		<!ENTITY st2 "fill-rule:evenodd;clip-rule:evenodd;fill:#010101;stroke:#010101;stroke-width:0.024;stroke-linecap:round;stroke-linejoin:round;stroke-miterlimit:10;">
	
		<!ENTITY st3 "fill-rule:evenodd;clip-rule:evenodd;fill:none;stroke:#0062AF;stroke-width:6;stroke-linecap:round;stroke-linejoin:round;stroke-miterlimit:10;">
	<!ENTITY st4 "fill-rule:evenodd;clip-rule:evenodd;fill:#010101;">
]>
<svg version="1.1" id="Layer_1" xmlns="http://www.w3.org/2000/svg" xmlns:xlink="http://www.w3.org/1999/xlink" x="0px" y="0px"
	 width="612px" height="490px" viewBox="0 0 612 490" style="enable-background:new 0 0 612 490;" xml:space="preserve">
<path style="&st4;" d="M109.803,129.248c0,0,69.696,65.533,272.904,54.042c0,0,65.99,29.229,128.62,17.29
	c50.798-9.753,27.605-19.731,27.605-19.731s-48.718,37.583-156.463-0.929C382.47,179.92,217.893,197.209,109.803,129.248z"/>
<path style="&st4;" d="M92.17,141.887c0,0,94.065,79.331,227.677,52.303c0,0,157.494,61.822,242.392,15.548
	c0,0,1.156,3.118,2.556,8.695c1.394,5.567-93.255,40.813-245.294-20.413C319.5,198.02,195.393,227.833,92.17,141.887z"/>
<g>
	<polyline style="&st3;" points="382.707,180.849 382.707,165.082 354.979,170.414 319.5,178.88 319.5,195.352 	"/>
	<path style="&st1;" d="M373.772,181.889c0-1.384,3.825-2.418,8.589-2.418c4.63,0,8.466,1.035,8.466,2.418
		c0,1.401-3.836,2.565-8.466,2.565C377.598,184.454,373.772,183.291,373.772,181.889z"/>
	<path style="&st1;" d="M311.493,196.399c0-1.389,3.821-2.556,8.467-2.556c4.641,0,8.465,1.167,8.465,2.556
		c0,1.396-3.824,2.552-8.465,2.552C315.314,198.952,311.493,197.795,311.493,196.399z"/>
	<polyline style="&st3;" points="321.575,179.695 353.935,195.583 382.589,164.625 	"/>
	<polyline style="&st3;" points="338.749,227.477 352.309,271.547 321.575,301.588 350.693,378.49 353.826,171.581 394.652,355.298 
		351.854,311.799 375.512,268.181 353.13,231.774 354.291,172.626 366.35,227.012 352.309,271.547 382.47,309.703 350.926,379.183 
		351.498,310.291 352.547,181.44 352.665,171.108 306.043,360.62 350.693,311.324 328.771,270.039 352.434,231.183 	"/>
	<polyline style="&st3;" points="334.578,185.848 353.367,171.343 370.293,178.88 	"/>
</g>
<g>
	<path style="&st2;" d="M206.651,239.432c-6.385-7.431-14.505-12.65-24.127-15.78c-14.392-4.514-27.957-3.133-40.95,4.292
		c-12.636,7.302-21.231,18.209-25.856,32.938c-4.517,14.267-3.716,28.185,2.55,41.631c6.38,13.684,16.699,22.862,30.858,27.26
		c3.236,1.054,8.574,1.853,15.878,2.198c8.703,0.475,13.348-0.346,14.03-2.431c0.707-1.978,1.286-5.797,1.982-11.372
		c0.692-6.143,0.578-9.26-0.351-9.632c0.572,0.237-1.74,0.712-6.845,1.522c-5.224,0.821-10.091,0.471-14.727-1.037
		c-8.357-2.561-14.386-8.012-18.211-16.137c-3.711-7.99-4.176-16.115-1.513-24.575c2.674-8.471,7.888-14.97,15.439-19.494
		c7.65-4.403,15.77-5.332,24.116-2.663c3.712,1.164,6.964,2.903,9.627,5.334l8.109,6.958c0.594,0.238,2.437-2.09,5.688-6.839
		c3.247-4.757,5.219-7.896,5.684-9.39C208.153,241.628,207.688,240.699,206.651,239.432z"/>
	<path style="&st2;" d="M278.205,288.369c-15.083,0.355-27.952-0.232-38.616-1.502c-2.669-0.228-3.835-1.156-3.604-2.67
		c0.697-6.617,4.063-12.301,9.859-16.926c5.802-4.759,11.94-6.726,18.676-5.936c5.915,0.702,10.896,3.717,15.078,8.94
		c4.171,5.11,5.911,10.675,5.105,16.704C284.58,287.785,282.5,288.245,278.205,288.369z M300.473,259.952
		c-7.887-11.015-18.562-17.39-32.014-19.019c-14.608-1.737-27.605,2.55-38.967,12.758c-10.783,9.869-17.168,22.149-18.903,37
		c-1.972,16.699,1.389,30.62,10.092,41.754c8.698,11.13,21.453,17.737,38.275,19.715c16.461,2.096,30.729-1.978,42.668-11.837
		c1.393-1.043,2.09-1.858,2.09-2.313c0-0.351-0.919-3.015-2.896-8.238c-1.858-5.101-2.9-7.774-3.133-8.001
		c-0.113-0.113-0.459-0.228-1.038-0.341l-3.825,2.426c-10.448,6.04-21.344,8.353-32.706,7.077
		c-6.622-0.811-12.533-3.701-17.87-8.697c-5.451-5.105-8.347-10.912-8.46-17.401c41.754,1.864,64.364,2.442,67.616,1.626
		c4.749-1.166,7.537-4.517,8.119-9.854C311.257,282.918,308.247,270.617,300.473,259.952z"/>
	<path style="&st2;" d="M454.144,278.164c-14.149,4.98-26.559,8.476-36.99,10.447c-2.556,0.558-3.944,0-4.289-1.409
		c-1.281-6.603,0.112-12.982,4.165-19.254c4.063-6.251,9.291-9.968,15.779-11.237c5.797-1.162,11.48,0.119,17.04,3.706
		c5.569,3.716,8.827,8.46,9.978,14.382C460.059,275.732,458.092,276.77,454.144,278.164z M466.558,244.072
		c-10.783-8.127-22.97-10.915-36.304-8.246c-14.268,2.785-25.288,10.78-32.938,24.013c-7.305,12.75-9.396,26.438-6.612,41.171
		c3.257,16.467,10.669,28.645,22.381,36.65c11.831,7.897,25.867,10.318,42.333,7.082c16.358-3.139,28.653-11.377,37.001-24.479
		c0.924-1.502,1.285-2.431,1.166-2.787c0-0.346-1.739-2.777-5.224-7.082c-3.365-4.273-5.219-6.483-5.456-6.598
		c-0.227-0.128-0.573-0.128-1.162,0l-2.89,3.366c-7.888,9.163-17.509,14.722-28.762,16.931c-6.504,1.281-12.993,0.352-19.491-2.663
		c-6.84-3.263-11.372-7.897-13.447-14.04c40.236-11.016,61.7-17.406,64.59-19.254c4.177-2.664,5.689-6.617,4.76-11.821
		C483.829,262.631,477.113,251.848,466.558,244.072z"/>
</g>
<path style="&st0;" d="M28.962,259.137c0-108.552,118.997-196.462,265.714-196.462c146.831,0,265.823,87.91,265.823,196.462
	c0,108.452-118.992,196.364-265.823,196.364C147.959,455.501,28.962,367.589,28.962,259.137z M55.748,236.641
	c0-108.436,119.002-196.346,265.828-196.346c146.722,0,265.719,87.91,265.719,196.346c0,108.555-118.997,196.467-265.719,196.467
	C174.75,433.108,55.748,345.196,55.748,236.641z"/>
<g>
	<path style="&st2;" d="M154.221,370.479c-0.691,0.242-1.512,0.464-2.085,0.691c-0.697,0.113-1.275,0.237-1.74,0.237
		c-0.464,0.113-1.048,0-1.394-0.124c-0.47,0-0.811-0.222-1.275-0.454c-0.691-0.475-1.279-0.929-1.507-1.621
		c-0.351-0.578-0.465-1.27-0.465-2.09c0-0.816,0.232-1.626,0.579-2.432c0.232-0.816,0.702-1.621,1.162-2.437
		c0.345-0.82,0.929-1.522,1.507-2.086c0.47-0.702,1.161-1.166,1.734-1.631c0.702-0.346,1.399-0.583,2.091-0.583
		c0.702-0.119,1.512,0.118,2.204,0.47c0.805,0.46,1.389,1.156,1.858,2.085c0.465,0.925,0.811,2.215,1.043,3.608L154.221,370.479z
		 M167.905,353.439c0.119-0.113,0.119-0.243,0.119-0.352c0,0-0.119-0.128-0.232-0.236c0-0.109-0.119-0.223-0.341-0.335
		c-0.123-0.238-0.351-0.356-0.712-0.486c-0.222-0.217-0.455-0.335-0.691-0.335c-0.222-0.119-0.336-0.119-0.573-0.223
		c-0.114,0-0.232,0-0.232,0.104c-0.119,0-0.237,0.119-0.237,0.119l-5.327,9.275c-0.243-1.161-0.712-2.209-1.28-3.139
		c-0.465-0.805-1.27-1.496-2.199-2.085c-1.043-0.579-2.204-0.929-3.252-1.037c-1.156,0-2.209,0.108-3.247,0.588
		c-1.043,0.449-1.973,1.156-2.907,2.08c-0.924,0.93-1.739,2.085-2.545,3.479c-0.697,1.166-1.151,2.328-1.512,3.474
		c-0.346,1.162-0.459,2.328-0.459,3.371c0.114,1.042,0.351,2.096,0.919,3.02c0.588,0.935,1.512,1.605,2.674,2.317
		c1.042,0.697,2.209,0.925,3.366,0.925c1.161,0,2.441-0.114,3.825-0.579l-1.156,2.086c-0.114,0.118-0.114,0.232-0.114,0.351
		c0,0,0,0.114,0.114,0.223c0.113,0.113,0.232,0.242,0.345,0.351c0.114,0.13,0.352,0.238,0.579,0.356
		c0.232,0.114,0.469,0.223,0.702,0.336c0.114,0.123,0.232,0.123,0.346,0.123c0.227,0,0.227,0,0.345,0
		c0.119-0.123,0.119-0.123,0.243-0.236L167.905,353.439z"/>
	<path style="&st2;" d="M167.792,371.656c0.341-0.713,0.806-1.301,1.275-1.755c0.578-0.589,1.161-0.93,1.745-1.271
		c0.573-0.247,1.275-0.355,1.967-0.355c0.691,0,1.388,0.108,2.085,0.588c1.507,0.692,2.328,1.616,2.673,2.896
		c0.222,1.279,0,2.663-0.815,4.284L167.792,371.656z M179.499,377.907c0.588-1.042,0.929-2.204,1.167-3.237
		c0.118-1.042,0.118-2.1-0.119-3.148c-0.227-0.929-0.687-1.857-1.394-2.777c-0.687-0.805-1.616-1.625-3.005-2.209
		c-1.166-0.568-2.328-0.918-3.484-1.042c-1.28,0-2.323,0.124-3.479,0.588c-1.053,0.454-1.977,1.156-2.901,2.075
		c-0.924,0.929-1.745,2.086-2.436,3.5c-0.811,1.491-1.28,2.901-1.513,4.165c-0.113,1.266-0.113,2.545,0.232,3.598
		c0.361,1.043,0.929,2.086,1.734,3.015c0.821,0.816,1.869,1.621,3.257,2.313c0.816,0.351,1.508,0.702,2.318,0.929
		c0.703,0.114,1.394,0.351,1.977,0.475c0.573,0.108,1.042,0.108,1.502,0.228c0.351,0,0.578,0,0.702-0.119
		c0.108,0,0.227,0,0.346-0.108c0,0,0.113-0.124,0.113-0.242c0.114,0,0.232-0.118,0.232-0.232c0.114-0.113,0.114-0.227,0.232-0.341
		c0.114-0.237,0.227-0.475,0.227-0.588c0.119-0.228,0.119-0.341,0.119-0.455c0-0.124,0-0.124,0-0.237
		c-0.119-0.129-0.119-0.129-0.232-0.237c-0.114,0-0.465-0.123-0.811-0.123c-0.351,0-0.697,0-1.275-0.104
		c-0.464,0-1.042-0.113-1.739-0.341c-0.691-0.119-1.394-0.476-2.204-0.816c-0.935-0.475-1.739-1.042-2.328-1.636
		c-0.455-0.687-0.805-1.379-1.027-2.08c-0.124-0.702-0.124-1.508,0-2.323c0.222-0.806,0.573-1.725,1.027-2.545l10.675,5.333
		c0.346,0.112,0.702,0.112,1.053,0.112c0.222-0.112,0.568-0.35,0.806-0.929L179.499,377.907z"/>
	<path style="&st2;" d="M202.697,371.76c0-0.104,0-0.238,0-0.352c0-0.124-0.103-0.237-0.103-0.237
		c-0.119-0.108-0.362-0.228-0.47-0.341c-0.238-0.108-0.465-0.237-0.81-0.351c-0.232-0.124-0.584-0.237-0.821-0.346
		c-0.227,0-0.335,0-0.459,0c-0.232,0-0.346,0-0.346,0c-0.119,0.108-0.232,0.108-0.232,0.222l-9.622,23.435
		c-0.119,0.135-0.119,0.238-0.119,0.352c0.119,0.119,0.119,0.237,0.222,0.237c0.124,0.104,0.243,0.236,0.47,0.345
		c0.227,0.13,0.459,0.238,0.821,0.347c0.222,0.232,0.568,0.232,0.691,0.346c0.227,0,0.465,0.108,0.578,0.108
		c0.119,0,0.228-0.108,0.341-0.108c0.124,0,0.124-0.113,0.237-0.232L202.697,371.76z"/>
	<path style="&st2;" d="M218.59,392.747c0.352-1.274,0.697-2.313,0.806-3.241c0-0.935,0-1.858-0.227-2.674
		c-0.346-0.806-0.806-1.497-1.389-2.199c-0.697-0.707-1.621-1.27-2.669-1.62c-1.048-0.362-2.085-0.465-3.252-0.362
		c-1.156,0.238-2.432,0.713-3.706,1.404l0.811-2.215c0-0.118,0-0.227,0-0.335c0-0.113-0.108-0.113-0.108-0.237
		c-0.124-0.113-0.238-0.237-0.47-0.346c-0.124,0-0.351-0.124-0.697-0.232c-0.232-0.113-0.459-0.113-0.697-0.228
		c-0.227,0-0.34,0-0.464,0c-0.108,0-0.232,0-0.346,0.114c0,0-0.124,0.113-0.124,0.222l-6.024,17.298
		c-0.114,0-0.114,0.103-0.114,0.217c0,0.113,0.114,0.113,0.238,0.237c0.108,0.113,0.232,0.237,0.454,0.352
		c0.119,0.113,0.47,0.113,0.703,0.227c0.345,0.114,0.572,0.227,0.81,0.351c0.227,0,0.47,0,0.573,0c0.118,0,0.232,0,0.232-0.124
		c0.119,0,0.119-0.112,0.232-0.227l4.294-12.059c1.162-0.691,2.318-1.279,3.366-1.507c0.929-0.341,1.858-0.341,2.664-0.113
		c0.578,0.227,1.038,0.577,1.512,0.929c0.346,0.454,0.583,0.93,0.692,1.373c0.232,0.588,0.232,1.177,0.124,1.869
		c0,0.691-0.232,1.512-0.588,2.437l-3.593,10.085c0,0.114,0,0.238,0,0.352c0,0,0.119,0.119,0.228,0.237
		c0.119,0.114,0.237,0.228,0.465,0.228c0.119,0.108,0.356,0.228,0.702,0.341c0.346,0.124,0.568,0.242,0.806,0.242
		c0.232,0.113,0.345,0.113,0.469,0.113c0.222,0,0.222-0.113,0.352-0.113c0.113-0.118,0.113-0.118,0.227-0.242L218.59,392.747z"/>
	<path style="&st2;" d="M232.161,411.65c-0.232,0.362-0.702,0.593-1.167,0.815c-0.459,0.237-1.032,0.341-1.739,0.341
		c-0.806,0-1.621-0.104-2.54-0.455c-1.631-0.339-2.782-0.918-3.495-1.62c-0.8-0.712-1.027-1.507-0.8-2.323
		c0.118-0.227,0.232-0.582,0.345-0.805c0.119-0.237,0.352-0.475,0.573-0.707c0.248-0.222,0.47-0.449,0.815-0.687
		c0.356-0.124,0.816-0.352,1.27-0.578l4.651,1.383c1.038,0.352,1.74,0.812,2.318,1.394c0.459,0.579,0.702,1.275,0.459,1.982
		C232.744,410.845,232.507,411.315,232.161,411.65z M234.365,397.269c-0.232,0.476-0.578,0.827-0.929,1.157
		c-0.46,0.237-0.929,0.361-1.508,0.476c-0.469,0.113-1.048,0-1.734-0.114c-1.172-0.361-1.983-0.93-2.437-1.859
		c-0.579-0.81-0.579-1.857-0.232-3.003c0.108-0.485,0.341-0.94,0.573-1.414c0.351-0.454,0.696-0.801,1.048-1.038
		c0.469-0.341,0.929-0.578,1.388-0.578c0.578-0.119,1.167-0.119,1.745,0.124c1.27,0.335,2.085,0.93,2.549,1.729
		c0.459,0.93,0.583,1.977,0.227,3.145C234.943,396.454,234.711,396.928,234.365,397.269z M241.55,391.581
		c-0.108-0.228-0.227-0.336-0.459-0.449l-5.337-1.512c-0.341-0.238-0.811-0.347-1.27-0.573c-0.465-0.232-0.935-0.356-1.508-0.476
		c-0.929-0.336-1.863-0.454-2.782-0.336c-0.939,0.104-1.864,0.217-2.561,0.692c-0.811,0.346-1.389,0.93-1.967,1.61
		c-0.583,0.707-1.042,1.519-1.27,2.561c-0.243,0.93-0.352,1.625-0.243,2.317c0,0.702,0.243,1.275,0.47,1.967
		c-0.579,0.361-1.162,0.815-1.631,1.28c-0.573,0.579-0.919,1.29-1.167,2.096c-0.098,0.568-0.098,1.156,0,1.734
		c0.248,0.573,0.594,1.048,1.167,1.621c-0.573,0.237-1.043,0.475-1.389,0.696c-0.47,0.232-0.805,0.465-1.151,0.821
		c-0.237,0.227-0.588,0.578-0.826,1.043c-0.232,0.34-0.341,0.691-0.459,1.151c-0.227,0.706-0.227,1.398-0.108,2.085
		c0.108,0.583,0.454,1.274,1.032,1.858c0.464,0.582,1.29,1.155,2.204,1.626c0.924,0.578,2.101,1.043,3.494,1.383
		c1.497,0.475,2.891,0.589,4.058,0.589c1.146,0,2.199-0.228,3.004-0.589c0.811-0.34,1.632-0.805,2.091-1.486
		c0.578-0.589,0.934-1.414,1.156-2.209c0.232-0.692,0.232-1.508,0.124-2.096c-0.124-0.692-0.47-1.275-0.811-1.858
		c-0.47-0.568-1.048-1.043-1.75-1.497c-0.568-0.356-1.383-0.707-2.308-0.935l-4.532-1.512c-0.692-0.228-1.27-0.573-1.621-0.93
		c-0.351-0.454-0.469-0.929-0.232-1.383c0.113-0.352,0.232-0.703,0.454-0.92c0.243-0.237,0.47-0.475,0.821-0.711
		c0.237,0.35,0.697,0.814,1.28,1.166c0.573,0.351,1.27,0.682,1.966,0.806c1.043,0.35,2.091,0.463,2.901,0.35
		c0.924,0,1.853-0.236,2.55-0.577c0.811-0.465,1.389-0.93,1.977-1.632c0.573-0.691,0.924-1.61,1.27-2.663
		c0.119-0.573,0.228-1.167,0.228-1.838c-0.108-0.593-0.228-1.177-0.573-1.755l2.549,0.691c0.228,0,0.352,0,0.584-0.237
		c0.113-0.113,0.345-0.454,0.464-0.929C241.55,392.17,241.55,391.818,241.55,391.581z"/>
	<path style="&st2;" d="M246.077,400.408c0.237-0.692,0.459-1.394,0.806-2.096c0.355-0.568,0.82-1.157,1.285-1.497
		c0.579-0.47,1.156-0.815,1.848-0.924c0.588-0.232,1.394-0.232,2.204-0.13c1.631,0.356,2.679,1.054,3.257,2.215
		c0.691,1.151,0.815,2.545,0.346,4.279L246.077,400.408z M259.069,403.299c0.232-1.157,0.352-2.313,0.232-3.346
		c-0.119-1.166-0.346-2.096-0.929-3.025c-0.47-0.928-1.157-1.625-2.081-2.313c-0.815-0.587-1.982-1.063-3.489-1.398
		c-1.275-0.232-2.55-0.232-3.707,0c-1.166,0.223-2.214,0.812-3.02,1.507c-0.929,0.692-1.745,1.622-2.432,2.783
		c-0.578,1.156-1.042,2.446-1.398,4.057c-0.341,1.622-0.341,3.025-0.232,4.398c0.119,1.291,0.588,2.446,1.172,3.376
		c0.567,0.919,1.394,1.745,2.426,2.313c1.048,0.701,2.318,1.156,3.711,1.404c0.929,0.237,1.74,0.341,2.432,0.341
		c0.82,0,1.518,0,2.096-0.104c0.583,0,1.161-0.135,1.507-0.135c0.346-0.103,0.686-0.232,0.686-0.351
		c0.124,0,0.248-0.104,0.248-0.104c0.114-0.124,0.114-0.237,0.222-0.237c0-0.114,0-0.223,0.124-0.351c0-0.103,0-0.346,0-0.465
		c0.113-0.217,0.113-0.465,0.113-0.567c0-0.238,0-0.352,0-0.476c0-0.113,0-0.113-0.113-0.217c-0.124,0-0.124-0.134-0.232-0.134
		c-0.114,0-0.459,0-0.702,0.134c-0.346,0-0.806,0.104-1.394,0.217c-0.459,0-1.038,0.124-1.735,0.124
		c-0.702,0-1.512-0.124-2.323-0.237c-1.156-0.237-1.972-0.583-2.668-1.032c-0.702-0.475-1.27-0.93-1.626-1.636
		c-0.345-0.697-0.469-1.379-0.572-2.308c0-0.821,0.103-1.751,0.227-2.674l11.831,2.198c0.341,0.104,0.583,0.104,0.929-0.118
		c0.34-0.114,0.464-0.465,0.583-1.038L259.069,403.299z"/>
	<path style="&st2;" d="M280.409,405.632c0.227-1.28,0.227-2.446,0.108-3.376c-0.108-0.929-0.346-1.848-0.805-2.54
		c-0.346-0.814-0.935-1.403-1.74-1.972c-0.811-0.476-1.74-0.816-3.02-1.053c-1.042-0.108-2.085,0-3.128,0.351
		c-1.156,0.465-2.214,1.156-3.479,2.2l0.346-2.427c0-0.124,0-0.232,0-0.361c0,0-0.108-0.108-0.232-0.228
		c-0.113,0-0.237-0.108-0.465-0.108C267.876,396,267.649,396,267.308,396c-0.356-0.108-0.583-0.108-0.702-0.108
		c-0.228,0-0.46,0-0.584,0c-0.108,0.108-0.222,0.108-0.222,0.227c0,0.108-0.119,0.108-0.119,0.228l-2.441,18.206
		c0,0.113,0,0.227,0,0.351c0,0,0.114,0.113,0.237,0.237c0.108,0,0.341,0.113,0.46,0.113c0.237,0.114,0.583,0.114,0.81,0.232
		c0.362,0,0.697,0,0.934,0c0.119,0,0.341,0,0.465,0c0.108,0,0.232-0.118,0.341-0.118c0-0.114,0-0.228,0.119-0.352l1.739-12.76
		c1.042-0.929,1.972-1.734,2.901-2.199s1.858-0.702,2.664-0.578c0.697,0.113,1.162,0.346,1.631,0.578
		c0.459,0.352,0.806,0.816,1.038,1.271c0.345,0.475,0.459,1.053,0.583,1.739c0,0.701,0,1.522-0.124,2.565l-1.497,10.665
		c0,0.113,0,0.227,0.109,0.227c0,0.114,0.118,0.228,0.237,0.228c0.113,0.128,0.227,0.128,0.459,0.236
		c0.232,0,0.47,0.129,0.815,0.129c0.346,0.108,0.579,0.108,0.811,0.108s0.34,0,0.578-0.108c0.124,0,0.227,0,0.227-0.129
		c0.119-0.108,0.119-0.108,0.119-0.236L280.409,405.632z"/>
	<path style="&st2;" d="M291.538,391.818c-0.341-0.346-0.811-0.573-1.616-0.573c-0.811-0.113-1.394,0-1.621,0.228
		c-0.356,0.237-0.584,0.811-0.702,1.512c0,0.806,0,1.395,0.346,1.631c0.237,0.347,0.806,0.568,1.513,0.568
		c0.805,0.119,1.394,0,1.739-0.222c0.341-0.238,0.459-0.82,0.573-1.522C291.889,392.624,291.771,392.057,291.538,391.818z
		 M290.728,399.479c0,0,0-0.124,0-0.236c-0.119-0.114-0.119-0.114-0.222-0.228c-0.119-0.113-0.362-0.113-0.47-0.113
		c-0.232-0.114-0.578-0.114-0.924-0.114c-0.238-0.124-0.583-0.124-0.81-0.124c-0.119,0-0.356,0-0.465,0.124
		c-0.119,0-0.237,0.114-0.351,0.114c0,0.113,0,0.227,0,0.341l-1.859,18.221c0,0.108,0,0.108,0,0.222
		c0.119,0.124,0.119,0.124,0.222,0.237c0.124,0.13,0.356,0.13,0.589,0.13c0.231,0.108,0.469,0.108,0.82,0.108
		c0.341,0.108,0.578,0.108,0.8,0.108c0.243,0,0.352,0,0.47-0.108c0.124,0,0.222-0.108,0.345-0.108c0-0.13,0.119-0.243,0.119-0.243
		L290.728,399.479z"/>
	<path style="&st2;" d="M298.62,407.604c0.119-0.815,0.34-1.518,0.578-2.209c0.232-0.584,0.579-1.173,1.038-1.74
		c0.464-0.469,1.047-0.81,1.739-1.042c0.588-0.356,1.28-0.471,2.209-0.356c1.625,0.124,2.782,0.702,3.479,1.744
		c0.811,1.043,1.151,2.447,0.935,4.182L298.62,407.604z M311.948,408.755c0.124-1.151,0-2.308-0.223-3.36
		c-0.232-1.043-0.69-1.972-1.279-2.782c-0.578-0.936-1.394-1.522-2.317-2.091c-1.049-0.465-2.21-0.806-3.717-0.93
		c-1.275-0.113-2.54,0.124-3.712,0.465c-1.032,0.465-2.08,1.033-2.89,1.858c-0.811,0.815-1.399,1.853-1.977,3.128
		c-0.465,1.167-0.692,2.561-0.811,4.182c-0.108,1.62,0,3.127,0.346,4.403c0.238,1.274,0.815,2.317,1.507,3.251
		c0.697,0.806,1.621,1.503,2.793,2.081c1.032,0.464,2.307,0.691,3.814,0.815c0.93,0.108,1.745,0,2.561,0
		c0.691-0.124,1.389-0.238,2.086-0.352c0.578-0.113,1.047-0.232,1.393-0.336c0.347-0.241,0.584-0.365,0.692-0.365
		c0.124-0.113,0.124-0.113,0.232-0.222c0-0.119,0.118-0.232,0.118-0.232c0-0.108,0-0.217,0-0.347
		c0.114-0.113,0.114-0.351,0.114-0.459c0-0.238,0-0.476,0-0.712c0-0.113,0-0.228-0.114-0.341c0-0.113,0-0.222-0.118-0.222
		c-0.108-0.13-0.108-0.13-0.232-0.13c-0.228,0-0.47,0.13-0.816,0.238c-0.222,0.113-0.69,0.227-1.15,0.341
		c-0.583,0.113-1.167,0.241-1.858,0.35c-0.691,0.129-1.508,0.129-2.312,0.129c-1.167-0.129-2.101-0.365-2.793-0.706
		c-0.703-0.352-1.27-0.816-1.739-1.395c-0.46-0.69-0.697-1.388-0.924-2.209c-0.124-0.794-0.124-1.724-0.124-2.787l12.068,0.825
		c0.347,0,0.573-0.113,0.929-0.351c0.232-0.237,0.455-0.583,0.455-1.032V408.755z"/>
	<path style="&st2;" d="M328.301,401.802c0-0.125,0-0.238-0.108-0.356c0-0.118,0-0.231,0-0.231c0-0.124-0.118-0.124-0.227-0.228
		c0-0.113-0.119-0.113-0.356-0.228c-0.232,0-0.46-0.113-0.696-0.113c-0.232-0.124-0.46-0.124-0.697-0.237c-0.228,0-0.454,0-0.573,0
		c-0.346,0-0.821,0-1.166,0.113c-0.46,0.124-0.801,0.352-1.167,0.568c-0.449,0.237-0.805,0.587-1.265,1.052
		c-0.47,0.471-0.935,1.044-1.503,1.745l0.108-2.673c0-0.124-0.108-0.124-0.108-0.228c0-0.113-0.118-0.113-0.237-0.228
		c-0.108,0-0.226-0.113-0.458-0.113c-0.243,0-0.471,0-0.708,0c-0.341-0.124-0.573,0-0.806,0c-0.119,0-0.345,0-0.469,0.113
		c-0.113,0-0.222,0.114-0.222,0.114c0,0.113-0.124,0.217-0.124,0.341l-0.347,18.323c0,0.114,0.124,0.238,0.124,0.238
		c0,0.108,0.108,0.237,0.223,0.237c0.124,0,0.346,0.113,0.587,0.113c0.228,0,0.46,0.114,0.801,0.114c0.356,0,0.594,0,0.826-0.114
		c0.228,0,0.347,0,0.464-0.113c0.108,0,0.228-0.129,0.346-0.129c0-0.108,0-0.232,0-0.347l0.223-12.047
		c0.589-0.702,0.935-1.28,1.399-1.858c0.341-0.485,0.805-0.935,1.146-1.172c0.366-0.346,0.707-0.573,1.054-0.692
		c0.341-0.113,0.701-0.227,1.053-0.227c0.227,0.113,0.464,0.113,0.687,0.113c0.232,0.113,0.465,0.113,0.701,0.232
		c0.232,0,0.346,0.113,0.573,0.228c0.124,0,0.232,0,0.352,0c0.118,0,0.237,0,0.237,0c0.108-0.114,0.108-0.228,0.227-0.347
		c0-0.113,0-0.227,0-0.469c0-0.113,0.108-0.454,0.108-0.687C328.301,402.256,328.301,402.028,328.301,401.802z"/>
	<path style="&st2;" d="M332.018,397.042c-0.113,0.227-0.228,0.341-0.228,0.465c0,0.113,0,0.113,0.114,0.237
		c0.113,0,0.232,0.113,0.346,0.113c0.228,0.119,0.465,0.119,0.691,0.119c0.356,0,0.579,0,0.702-0.119c0.222,0,0.341,0,0.465-0.113
		c0.118,0,0.227-0.124,0.346-0.124c0-0.113,0.124-0.237,0.237-0.352l3.587-4.872c0.124-0.113,0.232-0.227,0.232-0.34
		c0-0.108,0-0.108-0.108-0.238c-0.124-0.108-0.237-0.237-0.469-0.237c-0.232,0-0.573,0-0.924,0c-0.341,0-0.697,0-0.936,0
		c-0.227,0-0.35,0.129-0.577,0.129c-0.113,0.108-0.232,0.108-0.351,0.238c-0.114,0.108-0.228,0.222-0.228,0.335L332.018,397.042z
		 M335.384,401.327c0-0.113-0.119-0.237-0.119-0.341c-0.118,0-0.118-0.113-0.232-0.228c-0.113,0-0.341,0-0.578-0.113
		c-0.228,0-0.47,0-0.811,0c-0.346,0-0.583,0-0.805,0.113c-0.243,0-0.361,0-0.465,0.114c-0.237,0-0.237,0.113-0.356,0.217
		c0,0,0,0.124,0,0.237l0.232,18.324c0,0.124,0,0.232,0,0.232c0.124,0.129,0.124,0.242,0.346,0.242
		c0.119,0.114,0.243,0.114,0.465,0.114c0.237,0,0.46,0,0.805,0c0.361,0,0.589,0,0.826,0c0.228,0,0.455-0.114,0.573-0.114
		c0.119-0.113,0.232-0.113,0.232-0.242c0,0,0.108-0.108,0.108-0.232L335.384,401.327z"/>
	<path style="&st2;" d="M352.547,414.552c-0.692,0.934-1.507,1.637-2.199,2.086c-0.815,0.587-1.626,0.825-2.437,0.825
		c-1.161,0.108-1.972-0.124-2.556-0.712c-0.691-0.454-1.047-1.266-1.047-2.199c-0.108-0.578,0-1.043,0.242-1.497
		c0.113-0.476,0.459-0.812,0.924-1.177c0.465-0.341,0.93-0.563,1.621-0.795c0.702-0.135,1.513-0.238,2.437-0.352l2.901-0.124
		L352.547,414.552z M355.565,406.447c-0.117-1.172-0.241-2.096-0.587-2.906c-0.336-0.929-0.801-1.626-1.39-2.096
		c-0.577-0.572-1.383-1.037-2.322-1.275c-0.919-0.217-1.967-0.346-3.355-0.217c-0.697,0-1.403,0.104-2.096,0.217
		c-0.687,0.238-1.265,0.476-1.853,0.589c-0.568,0.228-1.157,0.568-1.498,0.805c-0.464,0.238-0.825,0.465-0.934,0.692
		c-0.237,0.124-0.352,0.356-0.352,0.589c0,0.113,0,0.454,0,0.696c0,0.227,0,0.459,0,0.573c0.114,0.237,0.114,0.346,0.232,0.475
		c0,0.108,0.119,0.108,0.228,0.222c0,0,0.119,0.114,0.232,0c0.232,0,0.479-0.113,0.701-0.222c0.352-0.237,0.821-0.475,1.271-0.821
		c0.465-0.227,1.047-0.469,1.75-0.701c0.567-0.222,1.378-0.336,2.204-0.454c0.691,0,1.388,0.118,1.967,0.232
		c0.464,0.113,0.929,0.454,1.275,0.696c0.35,0.346,0.696,0.811,0.814,1.384c0.232,0.47,0.352,1.161,0.352,1.863v1.394l-2.441,0.113
		c-1.502,0.113-2.793,0.346-3.825,0.578c-1.167,0.352-2.096,0.811-2.896,1.275c-0.691,0.583-1.284,1.285-1.749,1.967
		c-0.347,0.81-0.455,1.739-0.455,2.787c0,0.919,0.228,1.621,0.573,2.322c0.347,0.697,0.816,1.276,1.394,1.735
		c0.589,0.464,1.281,0.691,2.085,0.924c0.703,0.242,1.617,0.356,2.551,0.242c1.167,0,2.204-0.351,3.134-0.815
		c0.923-0.588,1.858-1.259,2.555-2.194l0.108,1.844c0,0.231,0.129,0.351,0.231,0.351c0,0.113,0.243,0.113,0.465,0.227
		c0.124,0,0.471,0,0.821,0c0.346,0,0.568-0.113,0.81-0.113c0.228-0.113,0.352-0.113,0.46-0.232c0.113-0.104,0.113-0.231,0.113-0.345
		L355.565,406.447z"/>
	<path style="&st2;" d="M387.808,413.628c0-0.232-0.124-0.336-0.124-0.471c-0.119-0.103-0.222-0.103-0.341-0.232
		c-0.113,0-0.113,0-0.232,0l-10.442,1.4l-1.274-9.4l8.812-1.157c0.119,0,0.231-0.113,0.231-0.113
		c0.124-0.113,0.237-0.113,0.237-0.231c0-0.124,0.119-0.356,0.119-0.465c0-0.228,0-0.465-0.119-0.702c0-0.228,0-0.454-0.113-0.579
		c0-0.231-0.124-0.35-0.236-0.463c0-0.124-0.119-0.228-0.228-0.228c-0.113,0-0.113,0-0.237,0l-8.807,1.155l-1.162-8.217
		l10.314-1.414c0,0,0.119,0,0.231-0.114c0.124-0.113,0.124-0.113,0.237-0.227c0-0.222,0-0.352,0-0.46c0-0.237,0-0.465,0-0.691
		c0-0.243-0.113-0.48-0.113-0.707c-0.124-0.108-0.124-0.352-0.236-0.454c-0.119-0.135-0.119-0.135-0.228-0.237
		c-0.113,0-0.237,0-0.346,0l-12.415,1.733c-0.346,0-0.572,0.119-0.811,0.356c-0.232,0.238-0.351,0.687-0.351,1.15l3.251,23.437
		c0,0.454,0.228,0.819,0.573,1.042c0.238,0.124,0.589,0.232,0.935,0.232l12.528-1.75c0.103,0,0.222-0.113,0.346-0.113
		c0-0.114,0.113-0.223,0.113-0.341c0.108-0.114,0.108-0.228,0.108-0.465c0-0.124,0-0.351-0.108-0.577
		C387.921,413.974,387.921,413.736,387.808,413.628z"/>
	<path style="&st2;" d="M392.448,386.604c0,0-0.119-0.118-0.119-0.227c-0.108,0-0.232-0.119-0.351-0.119c-0.119,0-0.352,0-0.578,0
		c-0.119,0-0.465,0-0.811,0.119c-0.232,0-0.578,0.108-0.806,0.108c-0.124,0.118-0.361,0.118-0.464,0.232
		c-0.119,0.113-0.119,0.113-0.238,0.237c0,0.113,0,0.237,0,0.352l4.879,26.779c0,0.13,0.103,0.238,0.103,0.352
		c0.119,0,0.232,0.113,0.356,0.113c0.108,0,0.232,0,0.46,0c0.232,0,0.577,0,0.814-0.113c0.347,0,0.688-0.113,0.812-0.113
		c0.222-0.108,0.464-0.238,0.578-0.238c0.113-0.113,0.113-0.232,0.232-0.232c0-0.118,0-0.227,0-0.346L392.448,386.604z"/>
	<path style="&st2;" d="M404.852,388.928c-0.113,0.119-0.113,0.346-0.113,0.454c0,0.124,0.113,0.124,0.113,0.238
		c0.114,0,0.238,0,0.465,0c0.119,0,0.352,0,0.697-0.114c0.236,0,0.464-0.124,0.696-0.124c0.113-0.108,0.237-0.108,0.341-0.217
		c0.124-0.118,0.243-0.118,0.243-0.237c0.108-0.113,0.232-0.237,0.232-0.356l2.55-5.44c0.113-0.242,0.113-0.356,0.113-0.48
		c0-0.103-0.113-0.217-0.232-0.217c-0.113-0.113-0.227-0.113-0.465-0.113c-0.222,0-0.572,0.113-0.928,0.113
		c-0.347,0.114-0.584,0.217-0.806,0.217c-0.232,0.124-0.465,0.238-0.584,0.238c-0.124,0.124-0.228,0.242-0.352,0.361
		c0,0.113-0.113,0.228-0.113,0.444L404.852,388.928z M403.82,401.09c-0.124-0.682-0.124-1.498-0.124-2.188
		c0.124-0.703,0.232-1.395,0.577-1.974c0.346-0.582,0.692-1.166,1.286-1.512c0.454-0.454,1.15-0.801,1.967-1.037
		c1.62-0.351,2.896-0.118,3.943,0.691c1.048,0.821,1.739,2.085,2.085,3.831L403.82,401.09z M416.921,398.426
		c-0.232-1.157-0.702-2.199-1.275-3.123c-0.465-0.924-1.161-1.75-1.977-2.318c-0.805-0.701-1.74-1.036-2.787-1.274
		c-1.151-0.237-2.426-0.237-3.831,0.108c-1.264,0.352-2.432,0.806-3.354,1.513c-0.935,0.697-1.74,1.522-2.199,2.561
		c-0.589,1.036-0.93,2.204-1.054,3.587c-0.118,1.28,0,2.663,0.347,4.176c0.356,1.621,0.929,3.021,1.517,4.172
		c0.692,1.161,1.514,1.977,2.432,2.668c0.93,0.589,2.085,1.043,3.242,1.156c1.166,0.119,2.556,0,3.948-0.217
		c0.936-0.248,1.626-0.485,2.432-0.826c0.707-0.217,1.285-0.588,1.858-0.805c0.47-0.341,0.935-0.578,1.274-0.815
		c0.352-0.347,0.465-0.455,0.584-0.579c0,0,0.108-0.113,0.108-0.227c0-0.124,0-0.247,0-0.355c0,0,0-0.114,0-0.336
		c0-0.124-0.108-0.237-0.108-0.361c0-0.341-0.119-0.454-0.119-0.682c-0.113-0.129-0.113-0.237-0.228-0.361
		c0,0-0.118-0.124-0.237-0.124c0,0-0.108-0.104-0.227,0c-0.113,0-0.346,0.124-0.702,0.356c-0.227,0.242-0.578,0.47-1.038,0.696
		c-0.459,0.352-1.042,0.589-1.626,0.92c-0.578,0.247-1.383,0.474-2.204,0.706c-1.037,0.232-1.966,0.347-2.776,0.114
		c-0.82-0.114-1.518-0.347-2.21-0.82c-0.577-0.444-1.042-1.038-1.394-1.849c-0.351-0.691-0.697-1.626-0.924-2.545l11.707-2.782
		c0.352,0,0.589-0.237,0.821-0.475c0.232-0.331,0.232-0.692,0.108-1.27L416.921,398.426z"/>
	<path style="&st2;" d="M436.98,399.953c-0.119-0.129-0.119-0.361-0.228-0.475c-0.119-0.124-0.119-0.124-0.237-0.236
		c-0.114,0-0.228,0-0.228,0c-0.228,0.112-0.351,0.236-0.573,0.582c-0.248,0.346-0.47,0.697-0.825,1.049
		c-0.346,0.454-0.692,0.804-1.281,1.269c-0.459,0.352-1.026,0.703-1.853,0.925c-0.687,0.232-1.502,0.232-2.199,0.232
		c-0.691-0.113-1.269-0.454-1.857-0.919c-0.579-0.352-1.152-1.053-1.621-1.858c-0.465-0.697-0.811-1.734-1.162-2.901
		c-0.691-2.204-0.806-4.067-0.351-5.563c0.47-1.4,1.513-2.334,3.02-2.783c0.812-0.227,1.502-0.346,2.091-0.227
		c0.578,0,1.15,0.118,1.62,0.227c0.46,0.108,0.821,0.347,1.162,0.449c0.351,0.135,0.583,0.135,0.805,0.135
		c0.124-0.135,0.232-0.237,0.346-0.476c0-0.217,0-0.567-0.113-1.146c-0.108-0.236-0.232-0.355-0.232-0.588
		c-0.113-0.113-0.113-0.227-0.222-0.34c-0.113-0.114-0.113-0.238-0.232-0.238c-0.123-0.113-0.227-0.237-0.469-0.351
		c-0.119-0.114-0.465-0.232-0.925-0.341c-0.346-0.119-0.814-0.119-1.279-0.228c-0.579,0-1.049,0-1.616,0
		c-0.588,0.108-1.167,0.228-1.74,0.336c-1.166,0.346-2.096,0.935-3.019,1.631c-0.93,0.573-1.632,1.503-2.08,2.539
		c-0.47,0.925-0.821,2.204-0.821,3.485c0,1.383,0.232,3.014,0.697,4.76c0.469,1.507,1.037,2.775,1.739,3.829
		c0.692,1.037,1.496,1.967,2.317,2.545c0.934,0.583,1.972,0.935,3.014,1.043c1.157,0.129,2.318,0,3.594-0.356
		c0.588-0.212,1.166-0.443,1.734-0.687c0.589-0.351,1.048-0.578,1.394-0.924c0.465-0.352,0.821-0.697,1.167-1.053
		c0.346-0.341,0.583-0.687,0.697-0.919c0.112-0.124,0.112-0.352,0.236-0.465c0,0,0-0.113,0-0.238c0-0.113,0-0.35-0.124-0.463
		c0-0.228,0-0.341-0.112-0.568C437.099,400.408,437.099,400.17,436.98,399.953z"/>
	<path style="&st2;" d="M451.247,396.583c-0.119-0.237-0.232-0.356-0.232-0.356c-0.124-0.108-0.124-0.108-0.232-0.108
		c0,0-0.113,0-0.236,0c0,0-0.108,0.108-0.228,0.228c-0.113,0-0.227,0.108-0.47,0.346c-0.104,0.124-0.341,0.236-0.454,0.351
		c-0.238,0.113-0.471,0.227-0.816,0.341c-0.923,0.361-1.62,0.237-2.204-0.228c-0.582-0.464-1.047-1.264-1.496-2.432l-3.495-9.626
		l4.533-1.62c0.113-0.114,0.23-0.228,0.339-0.465c0-0.238-0.108-0.579-0.226-1.054c-0.113-0.237-0.237-0.454-0.237-0.567
		c-0.108-0.237-0.223-0.361-0.347-0.47c0,0-0.118-0.124-0.222-0.124c-0.124,0-0.243,0-0.346,0l-4.419,1.636l-1.389-4.067
		c-0.118-0.113-0.118-0.232-0.232-0.232c-0.118-0.118-0.118-0.118-0.351-0.118c-0.113,0-0.228,0-0.46,0
		c-0.232,0.118-0.47,0.118-0.814,0.237c-0.352,0.113-0.579,0.237-0.812,0.352c-0.113,0.113-0.341,0.227-0.341,0.341
		c-0.123,0.113-0.247,0.113-0.247,0.237c0,0.112,0,0.236,0,0.236l1.512,4.172l-2.436,0.815c-0.113,0.113-0.113,0.113-0.228,0.227
		c0,0-0.118,0.114-0.118,0.228c0,0.124,0,0.361,0,0.475c0.118,0.228,0.118,0.455,0.232,0.691c0.113,0.46,0.346,0.692,0.469,0.93
		c0.222,0.113,0.47,0.237,0.568,0.113l2.446-0.919l3.593,10.076c0.341,1.042,0.811,1.869,1.271,2.561
		c0.465,0.691,0.934,1.166,1.512,1.497c0.589,0.361,1.281,0.475,1.977,0.475c0.697,0,1.503-0.113,2.432-0.475
		c0.237-0.114,0.584-0.228,0.806-0.331c0.356-0.129,0.589-0.361,0.82-0.475c0.222-0.124,0.459-0.236,0.578-0.464
		c0.237-0.113,0.346-0.352,0.346-0.465c0.119-0.124,0.119-0.352,0.119-0.573c0-0.232-0.119-0.47-0.228-0.821
		C451.36,396.928,451.247,396.691,451.247,396.583z"/>
	<path style="&st2;" d="M459.713,375.821c0-0.118-0.124-0.232-0.124-0.351c-0.104-0.119-0.104-0.119-0.223-0.243
		c0,0-0.112,0-0.226-0.113c0,0-0.238,0-0.465,0c-0.119,0-0.356,0-0.584,0.113c-0.356,0-0.578,0.124-0.702,0.124
		c-0.236,0.119-0.464,0.119-0.583,0.237c-0.346,0.114-0.691,0.347-1.032,0.568c-0.356,0.237-0.589,0.594-0.929,0.93
		c-0.232,0.474-0.47,0.929-0.702,1.518c-0.228,0.578-0.455,1.388-0.573,2.193l-1.048-2.432c0-0.113-0.118-0.232-0.118-0.232
		c-0.114,0-0.228-0.118-0.352-0.118c-0.108,0-0.222,0-0.46,0.118c-0.232,0-0.465,0.119-0.702,0.232
		c-0.345,0.124-0.572,0.238-0.686,0.352s-0.232,0.113-0.356,0.228c-0.104,0.113-0.104,0.237-0.222,0.35c0,0,0.118,0.124,0.118,0.237
		l7.062,16.922c0,0.129,0.119,0.129,0.242,0.237c0,0,0.104,0,0.228,0c0.113,0,0.346,0,0.583-0.108c0.232,0,0.46-0.129,0.697-0.237
		c0.346-0.119,0.584-0.228,0.81-0.346c0.223-0.108,0.347-0.238,0.46-0.341c0-0.135,0.119-0.135,0.119-0.243c0-0.113,0-0.232,0-0.346
		l-4.76-11.016c0.232-0.924,0.356-1.621,0.589-2.333c0.113-0.567,0.341-1.146,0.465-1.497c0.222-0.465,0.454-0.806,0.687-1.042
		c0.228-0.237,0.588-0.465,0.934-0.578c0.232-0.114,0.46-0.238,0.697-0.238c0.228,0,0.465-0.113,0.697-0.113
		c0.231,0,0.335,0,0.572,0c0.119,0,0.232,0,0.352-0.119c0.108,0,0.232-0.118,0.232-0.118c0-0.108,0-0.228,0-0.341
		c0-0.114,0-0.223-0.124-0.465c0-0.236-0.108-0.459-0.228-0.686C459.945,376.157,459.826,375.936,459.713,375.821z"/>
	<path style="&st2;" d="M462.614,365.379c-0.471-0.113-0.925,0-1.734,0.352c-0.702,0.351-1.167,0.691-1.291,1.032
		c-0.104,0.356,0,0.939,0.356,1.621c0.341,0.701,0.697,1.172,1.048,1.28c0.352,0.134,0.924,0,1.621-0.352
		c0.696-0.341,1.16-0.682,1.269-1.037c0.232-0.454,0.13-0.924-0.231-1.616C463.311,365.967,462.96,365.493,462.614,365.379z
		 M465.974,372.327c-0.118-0.118-0.118-0.118-0.226-0.217c-0.125,0-0.125,0-0.356,0c-0.108,0-0.228,0-0.449,0.099
		c-0.238,0-0.471,0.118-0.827,0.242c-0.232,0.247-0.464,0.36-0.686,0.464c-0.119,0.124-0.351,0.232-0.351,0.352
		c-0.119,0.118-0.238,0.118-0.238,0.237c0,0.124,0,0.232,0.119,0.346l7.882,16.462c0,0.123,0.124,0.123,0.124,0.227
		c0.118,0,0.232,0,0.346,0s0.346,0,0.465-0.104c0.232,0,0.465-0.123,0.801-0.231c0.36-0.243,0.593-0.346,0.706-0.48
		c0.228-0.103,0.352-0.217,0.46-0.341c0.124,0,0.124-0.108,0.124-0.217c0-0.118,0-0.237,0-0.351L465.974,372.327z"/>
	<path style="&st2;" d="M489.982,376.286c-0.113-0.129-0.227-0.242-0.351-0.351c-0.119-0.114-0.119-0.114-0.228-0.114
		c-0.119,0-0.237,0-0.237,0c-0.114,0.114-0.347,0.336-0.46,0.703c-0.113,0.341-0.346,0.686-0.578,1.15
		c-0.236,0.459-0.459,0.93-0.924,1.508c-0.351,0.464-0.93,0.929-1.626,1.279c-0.702,0.336-1.389,0.568-2.096,0.692
		c-0.691,0-1.384-0.124-1.967-0.465c-0.696-0.341-1.389-0.821-1.972-1.507c-0.691-0.578-1.275-1.508-1.858-2.55
		c-1.037-1.963-1.615-3.821-1.383-5.349c0.113-1.486,0.918-2.54,2.313-3.345c0.696-0.351,1.264-0.588,1.977-0.702
		c0.578-0.118,1.15-0.118,1.621-0.118c0.465,0.118,0.929,0.118,1.27,0.232c0.346,0,0.588,0,0.707-0.114
		c0.228,0,0.228-0.227,0.228-0.475c0-0.228-0.114-0.573-0.347-1.032c-0.118-0.237-0.242-0.352-0.351-0.578
		c0-0.114-0.114-0.237-0.237-0.352c-0.108,0-0.232-0.113-0.232-0.113c-0.108-0.119-0.346-0.119-0.572-0.243
		c-0.228,0-0.465-0.113-0.936-0.113c-0.458,0-0.923,0-1.394,0c-0.47,0.113-0.924,0.237-1.496,0.356
		c-0.584,0.228-1.049,0.465-1.513,0.691c-1.156,0.588-1.962,1.384-2.663,2.21c-0.811,0.795-1.281,1.837-1.508,2.891
		c-0.232,1.042-0.352,2.332-0.124,3.706c0.237,1.285,0.821,2.788,1.744,4.305c0.692,1.378,1.627,2.54,2.432,3.469
		c0.93,0.93,1.859,1.519,2.906,1.967c1.043,0.366,2.086,0.48,3.123,0.366c1.167-0.124,2.215-0.475,3.371-1.042
		c0.583-0.361,1.048-0.702,1.507-1.054c0.465-0.475,0.924-0.805,1.275-1.274c0.352-0.46,0.578-0.811,0.929-1.275
		c0.227-0.352,0.346-0.701,0.346-0.929c0.124-0.228,0.124-0.465,0.124-0.465c0-0.119,0-0.237,0-0.346
		c0-0.119-0.124-0.232-0.124-0.455c-0.119-0.129-0.228-0.365-0.346-0.479C490.215,376.751,490.097,376.524,489.982,376.286z"/>
	<path style="&st2;" d="M502.742,366.763c-0.232,1.285-0.47,2.322-0.815,3.139c-0.341,0.691-0.924,1.383-1.615,1.858
		c-0.935,0.691-1.858,0.938-2.669,0.811c-0.811-0.119-1.507-0.584-1.978-1.399c-0.346-0.449-0.583-0.929-0.583-1.373
		c-0.108-0.485,0-1.054,0.237-1.522c0.124-0.454,0.46-1.038,0.925-1.513c0.465-0.573,1.16-1.032,1.863-1.497l2.426-1.631
		L502.742,366.763z M501.003,358.421c-0.589-0.93-1.28-1.744-1.967-2.317c-0.702-0.471-1.394-0.806-2.204-1.049
		c-0.815-0.123-1.75-0.123-2.668,0.243c-0.925,0.222-1.863,0.687-3.021,1.492c-0.584,0.36-1.161,0.814-1.631,1.279
		c-0.46,0.579-0.919,1.054-1.271,1.508c-0.35,0.465-0.69,0.929-0.929,1.394c-0.232,0.46-0.351,0.815-0.459,1.053
		c0,0.341,0,0.454,0,0.697c0.108,0.232,0.227,0.465,0.459,0.687c0.119,0.228,0.238,0.352,0.356,0.464
		c0.108,0.124,0.223,0.243,0.345,0.243c0.114,0.108,0.228,0.108,0.347,0.108c0,0,0.113,0,0.232-0.108
		c0.113-0.119,0.227-0.355,0.459-0.707c0.114-0.341,0.352-0.687,0.703-1.156c0.227-0.465,0.577-1.042,1.047-1.522
		c0.465-0.563,0.925-1.038,1.616-1.491c0.696-0.476,1.285-0.816,1.858-0.93c0.459-0.119,1.042-0.119,1.502,0
		c0.465,0.113,0.93,0.341,1.279,0.691c0.471,0.352,0.925,0.811,1.275,1.394l0.811,1.157l-2.086,1.517
		c-1.161,0.805-2.209,1.621-3.009,2.427c-0.707,0.81-1.404,1.744-1.749,2.555c-0.352,0.924-0.455,1.75-0.352,2.545
		c0,0.929,0.352,1.734,0.934,2.674c0.46,0.697,1.049,1.291,1.739,1.625c0.584,0.46,1.275,0.697,1.973,0.812
		c0.81,0,1.513,0,2.323-0.232c0.805-0.243,1.615-0.696,2.431-1.15c0.815-0.692,1.632-1.405,2.09-2.437
		c0.579-0.94,0.93-1.982,1.157-3.14l1.043,1.498c0,0.113,0.118,0.237,0.231,0.237c0.232,0,0.352,0,0.578-0.124
		c0.124-0.113,0.347-0.222,0.697-0.33c0.352-0.228,0.465-0.47,0.697-0.6c0.118-0.113,0.227-0.217,0.227-0.341
		c0-0.222,0-0.341-0.108-0.454L501.003,358.421z"/>
</g>
<g>
	<path style="&st2;" d="M163.61,118.924c-0.113-0.119-0.227-0.232-0.227-0.338c-0.108-0.122-0.227-0.122-0.346-0.243
		c0,0-0.108,0-0.232,0.121c-0.119,0-0.346,0.228-0.583,0.692c-0.228,0.353-0.578,0.808-0.924,1.282
		c-0.351,0.452-0.929,1.038-1.513,1.619c-0.691,0.462-1.388,0.913-2.431,1.391c-1.156,0.452-2.199,0.691-3.36,0.691
		c-1.048-0.116-2.09-0.354-3.025-0.929c-0.924-0.462-1.842-1.28-2.663-2.32c-0.81-1.162-1.513-2.426-2.204-3.946
		c-0.702-1.619-1.048-3.01-1.156-4.401c-0.238-1.394-0.114-2.547,0.108-3.709c0.346-1.035,0.815-1.964,1.512-2.782
		c0.692-0.819,1.626-1.521,2.669-1.978c1.042-0.348,1.858-0.585,2.669-0.699c0.805,0,1.625,0,2.199,0.114
		c0.583,0.111,1.166,0.237,1.512,0.237c0.465,0.111,0.806,0.237,0.929,0.111c0.119,0,0.222-0.111,0.222-0.237
		c0,0,0.124-0.111,0.124-0.333c0-0.119-0.124-0.227-0.124-0.467c0-0.124-0.103-0.354-0.222-0.583
		c-0.124-0.217-0.237-0.46-0.237-0.588c-0.108-0.214-0.227-0.333-0.346-0.449c0-0.108-0.124-0.108-0.228-0.238
		c0-0.108-0.232-0.108-0.465-0.237c-0.237-0.114-0.583-0.225-1.166-0.344c-0.573,0-1.156,0-1.854,0c-0.573,0-1.28,0.119-1.972,0.23
		c-0.805,0.114-1.507,0.351-2.199,0.705c-1.631,0.705-2.901,1.504-4.068,2.668c-1.037,1.156-1.848,2.423-2.313,3.946
		c-0.47,1.5-0.588,3.123-0.47,4.979c0.119,1.745,0.578,3.722,1.399,5.696c0.924,1.964,1.848,3.583,3.02,4.974
		c1.038,1.27,2.313,2.313,3.588,2.898c1.389,0.702,2.782,1.045,4.294,1.045c1.502,0,3.015-0.343,4.63-1.045
		c0.934-0.349,1.745-0.815,2.442-1.268c0.696-0.472,1.27-1.05,1.734-1.512c0.47-0.467,0.939-0.929,1.162-1.383
		c0.351-0.364,0.578-0.709,0.578-0.922c0.119-0.131,0.119-0.245,0.119-0.374c0-0.108,0-0.217,0-0.335c0-0.114,0-0.351-0.119-0.459
		c0-0.129-0.113-0.352-0.113-0.583C163.848,119.399,163.729,119.157,163.61,118.924z"/>
	<path style="&st2;" d="M167.451,110.34c-0.242-0.697-0.351-1.505-0.351-2.201c0-0.703,0.108-1.396,0.351-1.977
		c0.222-0.703,0.573-1.157,1.146-1.748c0.47-0.449,1.048-0.813,1.863-1.146c1.507-0.467,2.896-0.351,3.944,0.333
		c1.151,0.705,1.966,1.858,2.431,3.495L167.451,110.34z M180.201,106.388c-0.341-1.04-0.929-2.083-1.513-3.012
		c-0.687-0.929-1.394-1.619-2.318-2.08c-0.815-0.591-1.853-0.935-2.901-1.045c-1.146-0.111-2.313,0.111-3.707,0.583
		c-1.27,0.346-2.313,1.038-3.247,1.729c-0.805,0.813-1.512,1.742-1.977,2.896c-0.464,1.048-0.691,2.215-0.691,3.606
		c0.114,1.275,0.346,2.676,0.815,4.168c0.578,1.518,1.162,2.896,1.972,3.937c0.815,1.063,1.616,1.866,2.664,2.452
		c0.929,0.454,2.085,0.818,3.247,0.818c1.275,0,2.55-0.234,3.943-0.71c0.924-0.219,1.626-0.572,2.318-0.924
		c0.692-0.341,1.28-0.707,1.74-1.045c0.583-0.354,0.924-0.702,1.285-0.927c0.227-0.341,0.459-0.465,0.459-0.576
		c0-0.129,0.114-0.237,0.114-0.353c0,0,0-0.111,0-0.23c0-0.111,0-0.238-0.114-0.349c0-0.126,0-0.24-0.114-0.467
		c0-0.225-0.119-0.349-0.237-0.586c0-0.108-0.108-0.227-0.232-0.338l-0.114-0.111c-0.124,0-0.232,0-0.356,0
		c-0.108,0-0.346,0.222-0.572,0.449c-0.238,0.238-0.579,0.478-1.049,0.813c-0.345,0.351-0.929,0.707-1.501,1.042
		c-0.579,0.364-1.28,0.705-2.09,0.929c-1.043,0.348-1.967,0.478-2.788,0.478c-0.81-0.129-1.615-0.366-2.199-0.702
		c-0.697-0.341-1.162-0.929-1.621-1.634c-0.465-0.689-0.924-1.61-1.167-2.537l11.366-3.828c0.346-0.121,0.584-0.359,0.703-0.588
		c0.227-0.336,0.227-0.685,0-1.268L180.201,106.388z"/>
	<path style="&st2;" d="M200.493,100.013c-0.335-1.28-0.692-2.317-1.146-3.133c-0.469-0.805-1.053-1.497-1.75-2.085
		c-0.697-0.452-1.507-0.818-2.432-1.038c-0.934-0.237-1.972-0.126-3.128,0.219c-1.058,0.237-1.977,0.818-2.792,1.631
		c-0.806,0.82-1.616,1.858-2.317,3.257l-0.579-2.328c-0.114-0.108-0.114-0.227-0.232-0.227c0-0.111-0.114-0.111-0.227-0.234
		c-0.124,0-0.232,0-0.475,0c-0.228,0.124-0.454,0.124-0.692,0.234c-0.346,0.119-0.578,0.119-0.805,0.227
		c-0.119,0-0.237,0.119-0.351,0.23c-0.113,0.114-0.237,0.114-0.237,0.243c0,0.108,0,0.232,0,0.348l4.873,17.729
		c0,0,0.119,0.113,0.119,0.24c0.118,0,0.232,0.111,0.346,0.111c0.113,0,0.356,0,0.578,0c0.242-0.111,0.47-0.111,0.815-0.237
		c0.228-0.113,0.573-0.224,0.697-0.224c0.222-0.116,0.47-0.225,0.47-0.225c0.098-0.116,0.222-0.24,0.222-0.349
		c0.124,0,0.124-0.129,0-0.238l-3.355-12.407c0.573-1.396,1.151-2.436,1.842-3.247c0.697-0.815,1.389-1.27,2.209-1.502
		c0.579-0.243,1.286-0.243,1.745-0.129c0.578,0.129,1.038,0.361,1.502,0.696c0.47,0.354,0.81,0.824,1.161,1.402
		c0.232,0.573,0.579,1.383,0.811,2.437l2.901,10.326c0,0.111,0.124,0.227,0.124,0.227c0.103,0.104,0.221,0.104,0.34,0.104
		c0.114,0,0.228,0,0.47,0c0.227,0,0.573-0.104,0.805-0.104c0.346-0.116,0.589-0.227,0.81-0.353c0.232,0,0.346-0.116,0.47-0.238
		c0.113-0.116,0.232-0.116,0.232-0.227c0-0.116,0-0.225,0-0.343L200.493,100.013z"/>
	<path style="&st2;" d="M218.017,105.575c0-0.227-0.124-0.341-0.124-0.341c-0.113-0.113-0.113-0.113-0.227-0.229
		c-0.119,0-0.119,0-0.237,0c-0.108,0.116-0.228,0.116-0.346,0.229c-0.118,0.114-0.232,0.114-0.346,0.225
		c-0.232,0.116-0.346,0.24-0.578,0.354c-0.237,0.122-0.578,0.24-0.815,0.24c-0.919,0.229-1.75,0.108-2.209-0.478
		c-0.454-0.57-0.918-1.381-1.156-2.658l-2.204-9.985l4.527-1.036c0.222,0,0.352-0.113,0.465-0.34c0-0.243,0-0.588-0.113-1.04
		c0-0.354-0.129-0.478-0.129-0.705c-0.098-0.119-0.222-0.23-0.222-0.346c-0.124-0.119-0.237-0.238-0.346-0.238c0,0-0.124,0-0.237,0
		l-4.635,1.045l-0.929-4.29c0-0.111,0-0.111-0.119-0.227c-0.119,0-0.238-0.108-0.346-0.108c-0.119,0-0.232,0-0.459,0
		c-0.237,0-0.464,0-0.81,0.108c-0.361,0.116-0.588,0.116-0.821,0.227c-0.228,0-0.346,0.114-0.459,0.228
		c-0.108,0.121-0.232,0.121-0.232,0.237c0,0.126,0,0.238,0,0.349l0.924,4.171l-2.432,0.588c-0.113,0-0.237,0.108-0.351,0.108
		c0,0.119-0.119,0.232-0.119,0.346c0,0.122,0,0.238,0,0.475c0,0.111,0,0.338,0.119,0.573c0.114,0.462,0.238,0.808,0.351,1.045
		c0.228,0.111,0.346,0.24,0.583,0.111l2.437-0.457l2.437,10.437c0.227,1.04,0.454,1.859,0.8,2.548
		c0.356,0.694,0.811,1.283,1.394,1.734c0.583,0.359,1.167,0.589,1.858,0.705c0.687,0.108,1.518,0.108,2.437-0.116
		c0.346-0.111,0.692-0.23,0.924-0.351c0.356-0.114,0.583-0.114,0.815-0.348c0.238-0.119,0.465-0.227,0.697-0.341
		c0.237-0.114,0.346-0.225,0.464-0.351c0-0.238,0.119-0.349,0.119-0.578c0-0.225-0.119-0.589-0.119-0.934
		C218.125,105.935,218.125,105.699,218.017,105.575z"/>
	<path style="&st2;" d="M229.848,87.143c-0.124-0.122-0.124-0.346-0.124-0.346c-0.108-0.111-0.108-0.222-0.108-0.222
		c-0.124-0.126-0.124-0.126-0.237-0.243c-0.124,0-0.232,0-0.47-0.121c-0.227,0-0.459,0-0.697,0c-0.221,0-0.454,0-0.686,0
		c-0.238,0-0.47,0-0.583,0.121c-0.346,0-0.811,0.116-1.152,0.354c-0.366,0.111-0.707,0.335-1.058,0.689
		c-0.335,0.355-0.687,0.808-1.048,1.277c-0.346,0.576-0.692,1.275-1.033,2.085l-0.459-2.671c0-0.114,0-0.114-0.119-0.225
		c0,0-0.124-0.111-0.248-0.111c-0.098-0.119-0.345-0.119-0.444-0.119c-0.248,0.119-0.469,0.119-0.826,0.119
		c-0.222,0.111-0.464,0.111-0.691,0.222c-0.238,0-0.352,0.114-0.47,0.23c-0.109,0-0.109,0.121-0.109,0.24
		c-0.118,0-0.118,0.119-0.118,0.229l3.37,17.977c0.114,0.114,0.114,0.243,0.114,0.243c0.113,0.108,0.232,0.108,0.341,0.225
		c0.124,0,0.346,0,0.593,0c0.099,0,0.459-0.116,0.692-0.116c0.346-0.108,0.692-0.108,0.805-0.237c0.238,0,0.47-0.114,0.583-0.235
		c0.124,0,0.124-0.119,0.228-0.225c0,0,0-0.121,0-0.229l-2.209-11.839c0.361-0.802,0.593-1.51,0.939-2.083
		c0.227-0.576,0.578-1.056,0.8-1.394c0.366-0.464,0.594-0.699,0.939-0.926c0.351-0.119,0.579-0.346,0.924-0.346
		c0.346-0.119,0.579-0.119,0.811-0.119c0.232,0,0.469,0.119,0.696,0.119c0.228,0,0.352,0,0.583,0
		c0.113,0.116,0.237,0.116,0.346,0.116c0.124-0.116,0.238-0.116,0.238-0.234c0.113,0,0.113-0.119,0.113-0.24
		c0-0.111,0-0.228,0-0.455c0-0.229-0.113-0.469-0.113-0.81C229.848,87.612,229.848,87.375,229.848,87.143z"/>
	<path style="&st2;" d="M248.746,96.075c0,0.934-0.228,1.726-0.697,2.436c-0.346,0.702-0.811,1.26-1.512,1.74
		c-0.692,0.455-1.513,0.691-2.426,0.821c-1.042,0.108-1.977,0.108-2.788-0.238c-0.815-0.242-1.393-0.694-1.966-1.283
		c-0.47-0.573-0.939-1.267-1.167-2.194c-0.345-0.821-0.573-1.75-0.697-2.795c-0.103-1.042-0.103-1.967,0-2.898
		c0-0.927,0.232-1.737,0.697-2.437c0.352-0.687,0.816-1.275,1.508-1.729c0.696-0.478,1.507-0.702,2.437-0.813
		c1.053-0.238,1.977-0.111,2.792,0.227c0.805,0.23,1.389,0.699,1.957,1.27c0.469,0.588,0.82,1.398,1.166,2.217
		c0.346,0.803,0.578,1.732,0.697,2.774C248.865,94.214,248.865,95.138,248.746,96.075z M251.063,88.422
		c-0.459-1.164-1.275-2.211-2.085-2.901c-0.811-0.699-1.854-1.286-3.021-1.505c-1.156-0.346-2.549-0.346-4.052-0.229
		c-1.513,0.229-2.901,0.691-3.949,1.381c-1.038,0.588-1.972,1.518-2.669,2.444c-0.578,1.04-1.042,2.199-1.27,3.464
		c-0.232,1.409-0.232,2.79,0,4.194c0.227,1.611,0.573,2.899,1.156,4.052c0.465,1.159,1.156,2.199,2.09,2.896
		c0.811,0.823,1.854,1.272,3.01,1.621c1.166,0.237,2.55,0.237,4.057,0.126c1.512-0.237,2.792-0.697,3.949-1.401
		c1.042-0.692,1.972-1.492,2.55-2.55c0.696-0.916,1.156-2.083,1.388-3.357c0.232-1.386,0.232-2.79,0-4.287
		C251.988,90.854,251.647,89.581,251.063,88.422z"/>
	<path style="&st2;" d="M279.242,94.214c-0.464,0.687-0.929,1.283-1.388,1.75c-0.47,0.464-0.816,0.916-1.275,1.153
		c-0.465,0.348-0.811,0.578-1.275,0.684c-0.352,0.246-0.811,0.246-1.275,0.246c-0.815,0.122-1.621-0.116-2.204-0.47
		c-0.578-0.335-1.156-0.921-1.507-1.501c-0.346-0.692-0.707-1.513-0.929-2.318c-0.124-0.934-0.232-1.861-0.346-2.79
		c0-0.805,0-1.74,0.113-2.545c0.108-0.811,0.351-1.626,0.703-2.325c0.345-0.692,0.81-1.275,1.388-1.619
		c0.578-0.462,1.27-0.691,2.09-0.808c0.919,0,1.848,0.228,2.777,0.808c0.81,0.468,1.74,1.278,2.783,2.434L279.242,94.214z
		 M281.452,72.413c0-0.116,0-0.116-0.108-0.225c0-0.116-0.119-0.116-0.238-0.237c-0.124,0-0.351,0-0.588-0.116
		c-0.108,0-0.459,0-0.805,0c-0.346,0.116-0.568,0.116-0.815,0.116c-0.222,0.121-0.346,0.121-0.465,0.121
		c-0.119,0.116-0.228,0.225-0.228,0.225c-0.119,0.116-0.119,0.23-0.119,0.341l0.589,10.672c-0.934-0.932-1.858-1.502-2.788-1.969
		c-0.815-0.343-1.858-0.573-2.906-0.573c-1.27,0.111-2.431,0.455-3.371,0.934c-1.027,0.565-1.734,1.27-2.421,2.197
		c-0.583,0.924-1.043,2.085-1.275,3.36c-0.355,1.282-0.355,2.779-0.355,4.297c0.123,1.376,0.355,2.658,0.696,3.828
		c0.352,1.153,0.815,2.193,1.394,3.017c0.697,0.921,1.507,1.502,2.441,1.961c1.033,0.472,2.199,0.71,3.479,0.581
		c1.27,0,2.431-0.351,3.355-1.04c1.048-0.581,1.973-1.502,2.912-2.545l0.108,2.414c0,0.131,0.113,0.131,0.113,0.242
		c0.113,0.127,0.232,0.127,0.351,0.238c0.108,0,0.227,0,0.47,0c0.103,0.111,0.346,0.111,0.691,0c0.232,0,0.459,0,0.697,0
		c0.108-0.111,0.346-0.111,0.455-0.111c0.119-0.127,0.119-0.127,0.232-0.238c0-0.131,0-0.24,0-0.351L281.452,72.413z"/>
	<path style="&st2;" d="M291.197,88.541c0-0.811,0.222-1.52,0.459-2.209c0.232-0.684,0.459-1.274,0.929-1.724
		c0.47-0.591,0.93-1.063,1.625-1.298c0.579-0.338,1.276-0.457,2.091-0.457c1.616,0,2.896,0.457,3.712,1.512
		c0.805,1.04,1.151,2.431,1.151,4.176H291.197z M304.531,88.879c0-1.148-0.119-2.305-0.454-3.357
		c-0.238-1.043-0.708-1.977-1.405-2.785c-0.696-0.695-1.507-1.396-2.56-1.859c-0.914-0.467-2.194-0.696-3.578-0.696
		c-1.394,0-2.561,0.229-3.711,0.696c-1.053,0.462-1.972,1.164-2.788,1.975c-0.691,0.934-1.383,1.969-1.734,3.244
		c-0.465,1.278-0.584,2.674-0.584,4.302c0,1.61,0.119,3.121,0.584,4.279c0.351,1.286,0.918,2.331,1.734,3.123
		c0.692,0.829,1.735,1.521,2.788,1.861c1.151,0.478,2.432,0.7,3.933,0.7c0.93,0,1.74-0.111,2.556-0.222
		c0.702-0.127,1.388-0.238,1.972-0.369c0.589-0.22,1.054-0.33,1.388-0.558c0.465-0.116,0.697-0.235,0.697-0.349
		c0.113,0,0.113-0.132,0.237-0.235c0,0,0-0.119,0.108-0.229c0-0.116,0-0.232,0-0.354c0-0.116,0-0.351,0-0.47
		c0-0.219,0-0.459,0-0.567c0-0.243,0-0.354-0.108-0.473c0-0.108-0.124-0.108-0.124-0.227c-0.113,0-0.227,0-0.227,0
		c-0.238,0-0.459,0-0.815,0.119c-0.227,0.228-0.692,0.338-1.157,0.581c-0.465,0.108-1.171,0.232-1.739,0.457
		c-0.697,0.111-1.507,0.111-2.432,0.111c-1.048,0-1.972-0.111-2.793-0.459c-0.691-0.237-1.264-0.689-1.842-1.283
		c-0.47-0.565-0.821-1.272-0.939-2.078c-0.222-0.826-0.341-1.748-0.341-2.79h12.058c0.351,0,0.583-0.114,0.93-0.341
		c0.227-0.227,0.346-0.588,0.346-1.161V88.879z"/>
	<path style="&st2;" d="M333.762,99.771c0-0.109-0.118-0.33-0.118-0.449c-0.123-0.108-0.123-0.108-0.231-0.225
		c-0.114-0.119-0.114-0.119-0.232-0.119l-10.438-0.81l0.816-9.397l8.816,0.694c0.104,0,0.104,0,0.222,0
		c0.119-0.119,0.243-0.119,0.243-0.238c0.103-0.121,0.103-0.232,0.222-0.457c0-0.119,0-0.349,0.119-0.588c0-0.23,0-0.452,0-0.684
		c0-0.24-0.119-0.356-0.119-0.478c-0.119-0.108-0.119-0.225-0.222-0.225c-0.124-0.111-0.124-0.111-0.243-0.111l-8.816-0.813
		l0.697-8.127l10.215,0.818c0.108,0,0.228,0,0.341,0c0.114-0.121,0.114-0.237,0.232-0.351c0,0,0.119-0.225,0.119-0.338
		c0.113-0.237,0.113-0.475,0.113-0.705c0-0.225,0-0.462,0-0.7c0-0.116,0-0.343-0.113-0.451c0-0.116-0.119-0.238-0.119-0.238
		c-0.118-0.116-0.232-0.116-0.346-0.116l-12.414-1.05c-0.341,0-0.568,0-0.93,0.238c-0.222,0.24-0.465,0.58-0.465,1.05l-1.972,23.419
		c0,0.449,0,0.929,0.361,1.159c0.232,0.225,0.46,0.353,0.805,0.353l12.534,1.038c0.103,0,0.222,0,0.341,0
		c0.118-0.114,0.232-0.242,0.232-0.351c0.108-0.106,0.108-0.225,0.231-0.341c0-0.238,0-0.475,0.118-0.699
		C333.762,100.251,333.762,100.013,333.762,99.771z"/>
	<path style="&st2;" d="M350.575,96.537c-0.114-0.572-0.471-1.153-0.811-1.636c-0.352-0.449-0.812-0.798-1.399-1.27
		c-0.454-0.335-1.037-0.573-1.615-0.927l-1.513-0.921c-0.573-0.228-1.037-0.581-1.394-0.93c-0.449-0.338-0.692-0.691-0.919-1.042
		c-0.238-0.464-0.352-0.816-0.238-1.389c0-0.356,0.119-0.692,0.356-1.047c0.108-0.354,0.455-0.579,0.697-0.689
		c0.347-0.238,0.692-0.354,1.15-0.475c0.465,0,0.925,0,1.514,0c0.691,0.121,1.161,0.237,1.62,0.475
		c0.584,0.227,0.929,0.457,1.275,0.689c0.346,0.237,0.578,0.355,0.805,0.578c0.243,0.114,0.356,0.23,0.471,0.23
		c0.118,0,0.232,0,0.232,0c0.118,0,0.232-0.116,0.232-0.23c0.113-0.111,0.113-0.222,0.113-0.341
		c0.113-0.237,0.113-0.353,0.113-0.591c0.123-0.225,0.123-0.447,0.123-0.573c0-0.116,0-0.351,0-0.464c0,0-0.123-0.111-0.123-0.227
		c0-0.108-0.113-0.235-0.227-0.351c-0.114-0.122-0.347-0.237-0.579-0.459c-0.232-0.124-0.583-0.338-0.929-0.468
		c-0.347-0.243-0.811-0.358-1.27-0.462c-0.465-0.229-0.935-0.346-1.513-0.346c-1.048-0.126-2.086-0.126-2.906,0
		c-0.919,0.228-1.615,0.565-2.204,0.937c-0.692,0.449-1.151,0.914-1.503,1.603c-0.345,0.585-0.582,1.288-0.696,1.972
		c-0.113,0.813-0.113,1.509,0.114,2.09c0.237,0.694,0.47,1.164,0.814,1.623c0.346,0.589,0.811,0.927,1.39,1.278
		c0.47,0.346,1.047,0.692,1.512,1.04c0.573,0.349,1.162,0.581,1.62,0.924c0.465,0.245,0.925,0.583,1.395,0.826
		c0.347,0.345,0.687,0.691,0.929,1.153c0.114,0.348,0.228,0.813,0.114,1.283c0,0.578-0.114,0.921-0.356,1.262
		c-0.222,0.351-0.567,0.589-0.908,0.819c-0.361,0.225-0.826,0.353-1.291,0.353c-0.464,0.108-1.032,0.108-1.621,0
		c-0.687-0.128-1.393-0.242-1.857-0.583c-0.579-0.238-1.033-0.48-1.502-0.81c-0.352-0.228-0.692-0.462-0.93-0.708
		c-0.352-0.222-0.46-0.333-0.697-0.333c-0.119,0-0.119,0-0.231,0c-0.119,0.111-0.119,0.111-0.232,0.229
		c0,0.103-0.113,0.235-0.113,0.467c-0.119,0.116-0.119,0.344-0.119,0.565c-0.108,0.478-0.108,0.819,0,1.043
		c0,0.237,0.119,0.475,0.232,0.591c0.113,0.225,0.345,0.333,0.577,0.575c0.352,0.238,0.697,0.465,1.162,0.576
		c0.46,0.23,0.929,0.47,1.507,0.702c0.584,0.119,1.157,0.227,1.858,0.341c1.038,0.111,1.967,0.111,2.896,0
		c0.93-0.114,1.739-0.449,2.441-0.813c0.692-0.459,1.27-0.919,1.734-1.605c0.47-0.71,0.697-1.521,0.815-2.442
		C350.808,97.801,350.808,97.118,350.575,96.537z"/>
	<path style="&st2;" d="M364.373,104.076c0-0.237-0.108-0.348-0.108-0.475c0,0,0-0.111-0.124-0.111c0-0.114-0.113-0.114-0.113-0.114
		c-0.114,0-0.228,0-0.347,0c-0.222,0-0.346,0.114-0.583,0.114c-0.232,0-0.46,0-0.697,0.111c-0.227,0-0.453,0-0.805-0.111
		c-0.935-0.114-1.508-0.573-1.853-1.272c-0.232-0.697-0.232-1.737,0-2.896l1.733-10.094l4.749,0.811c0.124,0,0.366-0.111,0.47-0.227
		c0.232-0.23,0.34-0.583,0.34-1.04c0.125-0.23,0.125-0.467,0.125-0.705c0-0.114,0-0.225,0-0.455
		c-0.125-0.113-0.125-0.113-0.232-0.237c-0.114,0-0.114-0.116-0.232-0.116l-4.635-0.811l0.69-4.297c0-0.108,0-0.225,0-0.343
		c0,0-0.113-0.106-0.232-0.237c-0.118-0.106-0.227-0.106-0.458-0.23c-0.232,0-0.465-0.119-0.816-0.119
		c-0.346-0.108-0.583-0.108-0.811-0.108s-0.469,0-0.573,0c-0.117,0-0.236,0.108-0.236,0.108c-0.113,0.119-0.113,0.243-0.113,0.349
		l-0.816,4.302l-2.556-0.467c-0.113,0-0.113,0-0.222,0c-0.124,0-0.247,0.116-0.247,0.243c-0.104,0.108-0.222,0.225-0.222,0.335
		c-0.124,0.228-0.124,0.464-0.232,0.702c0,0.457,0,0.813,0,1.045c0.108,0.222,0.232,0.336,0.454,0.452l2.56,0.358l-1.848,10.672
		c-0.243,1.038-0.356,1.967-0.243,2.788c0,0.8,0.243,1.489,0.589,2.075c0.336,0.576,0.801,1.045,1.502,1.383
		c0.584,0.354,1.395,0.594,2.323,0.823c0.232,0,0.578,0.106,0.924,0.106c0.352,0,0.584,0,0.924,0c0.237,0,0.465-0.106,0.697-0.106
		c0.237-0.121,0.465-0.121,0.583-0.229c0.119-0.119,0.232-0.24,0.347-0.478c0.113-0.227,0.113-0.57,0.237-0.924
		C364.265,104.414,364.373,104.194,364.373,104.076z"/>
	<path style="&st2;" d="M387.462,92.485c0-0.116,0-0.237,0-0.237c-0.119-0.116-0.119-0.238-0.232-0.352
		c-0.119,0-0.347-0.113-0.465-0.232c-0.228,0-0.469-0.108-0.815-0.227c-0.351,0-0.578-0.124-0.821-0.124c-0.222,0-0.335,0-0.567,0
		c-0.124,0-0.236,0.124-0.236,0.124c-0.119,0.119-0.119,0.119-0.228,0.227l-2.901,12.53c-1.162,0.927-2.204,1.505-3.134,1.967
		c-0.929,0.345-1.858,0.467-2.668,0.227c-0.697-0.106-1.156-0.335-1.621-0.689c-0.347-0.351-0.696-0.805-0.929-1.285
		c-0.238-0.576-0.347-1.146-0.347-1.851c0-0.563,0.108-1.492,0.347-2.55l2.441-10.321c0.108-0.111,0.108-0.227,0-0.345
		c0-0.119-0.119-0.119-0.232-0.24c-0.119-0.111-0.237-0.228-0.465-0.228c-0.237-0.108-0.47-0.108-0.815-0.227
		c-0.228-0.111-0.579-0.111-0.696-0.111c-0.232-0.119-0.471-0.119-0.579,0c-0.113,0-0.237,0-0.346,0.111
		c0,0-0.118,0.119-0.118,0.227l-2.551,10.783c-0.232,1.28-0.47,2.447-0.47,3.379c0,1.035,0.237,1.854,0.589,2.658
		c0.341,0.808,0.8,1.512,1.626,2.101c0.687,0.565,1.616,1.035,2.771,1.265c1.054,0.225,2.096,0.225,3.253,0
		c1.047-0.351,2.317-0.926,3.598-1.74l-0.589,2.317c0,0.124,0,0.243,0,0.243c0,0.111,0.118,0.225,0.242,0.225
		c0,0.108,0.228,0.229,0.347,0.229c0.232,0.116,0.459,0.23,0.806,0.23c0.237,0.126,0.469,0.126,0.706,0.126c0.228,0,0.346,0,0.46,0
		c0.113,0,0.232,0,0.346-0.126c0,0,0.119-0.114,0.119-0.23L387.462,92.485z"/>
	<path style="&st2;" d="M402.307,110.219c-0.711,0.477-1.398,0.815-1.981,1.159c-0.573,0.238-1.15,0.475-1.615,0.591
		c-0.471,0.222-0.925,0.222-1.394,0.222c-0.465,0-0.811,0-1.275-0.222c-0.815-0.227-1.513-0.591-1.978-1.161
		c-0.341-0.588-0.697-1.278-0.811-1.972c-0.112-0.81-0.112-1.624,0-2.553c0.113-0.823,0.346-1.75,0.584-2.681
		c0.227-0.8,0.583-1.492,1.043-2.305c0.346-0.705,0.923-1.394,1.388-1.855c0.584-0.576,1.285-0.93,1.858-1.157
		c0.702-0.237,1.508-0.237,2.317,0.116c0.93,0.229,1.622,0.813,2.318,1.613c0.594,0.821,1.167,1.858,1.739,3.255L402.307,110.219z
		 M411.929,90.626c0-0.111,0-0.111,0-0.227c0-0.126-0.113-0.237-0.232-0.361c-0.113,0-0.227-0.111-0.47-0.227
		c-0.103-0.119-0.464-0.23-0.69-0.346c-0.347,0-0.579-0.119-0.806-0.119c-0.238-0.119-0.46-0.119-0.584-0.119
		s-0.227,0.119-0.346,0.119c0,0.119-0.124,0.234-0.124,0.234l-3.117,10.19c-0.594-1.141-1.167-2.075-1.982-2.762
		c-0.691-0.7-1.512-1.174-2.55-1.513c-1.275-0.358-2.441-0.462-3.475-0.358c-1.047,0.245-2.096,0.583-3.024,1.29
		c-0.806,0.689-1.626,1.502-2.308,2.669c-0.696,1.043-1.285,2.424-1.755,3.944c-0.454,1.153-0.682,2.418-0.806,3.701
		c-0.118,1.169,0,2.323,0.352,3.368c0.222,1.04,0.815,1.961,1.513,2.671c0.805,0.808,1.842,1.383,3.128,1.854
		c1.15,0.341,2.317,0.341,3.474,0.116c1.167-0.24,2.317-0.705,3.593-1.394l-0.691,2.318c0,0.119,0,0.119,0,0.23
		c0,0.116,0.119,0.224,0.119,0.224c0.108,0.129,0.351,0.24,0.449,0.364c0.242,0,0.36,0.119,0.711,0.222
		c0.223,0,0.455,0.119,0.692,0.119c0.124,0,0.356,0,0.465,0c0.113,0,0.232,0,0.232-0.119c0.124,0,0.124-0.103,0.124-0.222
		L411.929,90.626z"/>
	<path style="&st2;" d="M421.681,95.27c-0.124-0.475-0.589-0.707-1.291-1.056c-0.801-0.237-1.389-0.348-1.734-0.111
		c-0.346,0.111-0.697,0.576-1.043,1.28c-0.228,0.815-0.228,1.272-0.119,1.734c0.237,0.348,0.692,0.578,1.395,0.929
		c0.81,0.237,1.274,0.354,1.734,0.122c0.361-0.122,0.707-0.592,0.935-1.288C421.901,96.075,421.901,95.608,421.681,95.27z
		 M419.001,102.563c0.124-0.116,0.124-0.227,0-0.346c0-0.108,0-0.108-0.113-0.217c-0.108-0.129-0.232-0.243-0.465-0.372
		c-0.113-0.108-0.465-0.108-0.692-0.333c-0.346-0.116-0.577-0.116-0.81-0.225c-0.232,0-0.47,0-0.583,0c-0.119,0-0.238,0-0.352,0.108
		c0,0-0.113,0.116-0.113,0.235l-6.381,17.171c-0.108,0.106-0.108,0.219-0.108,0.338c0.108,0,0.108,0.111,0.228,0.232
		c0.119,0.116,0.232,0.242,0.465,0.353c0.228,0,0.46,0.111,0.687,0.219c0.361,0.124,0.588,0.235,0.82,0.346c0.232,0,0.465,0,0.578,0
		c0.114,0,0.232,0,0.232-0.111c0.124,0,0.228-0.111,0.228-0.235L419.001,102.563z"/>
	<path style="&st2;" d="M429.438,121.931c-1.15,0.475-2.086,0.818-3.016,0.929c-0.81,0.111-1.739,0-2.549-0.34
		c-0.924-0.462-1.627-1.042-1.973-1.856c-0.345-0.699-0.345-1.507,0.124-2.431c0.222-0.472,0.454-0.935,0.806-1.288
		c0.352-0.23,0.811-0.452,1.394-0.576c0.459-0.111,1.156-0.111,1.854,0c0.701,0.124,1.394,0.465,2.318,0.801l2.549,1.174
		L429.438,121.931z M435.715,115.905c0.455-1.045,0.687-1.97,0.801-2.904c0.118-0.81,0-1.623-0.346-2.431
		c-0.232-0.803-0.703-1.505-1.508-2.094c-0.707-0.676-1.621-1.265-2.906-1.734c-0.687-0.354-1.264-0.581-1.972-0.689
		c-0.697-0.119-1.388-0.24-1.967-0.354c-0.573,0-1.156,0-1.739,0c-0.465,0-0.811,0.114-1.043,0.235
		c-0.243,0.119-0.47,0.227-0.584,0.348c-0.108,0.106-0.227,0.346-0.341,0.697c-0.122,0.232-0.236,0.346-0.236,0.583
		c0,0.111,0,0.238,0,0.462c0,0.114,0,0.222,0.114,0.222c0,0.119,0.122,0.119,0.122,0.229c0.232,0,0.455,0.124,0.806,0
		c0.465,0,0.936-0.11,1.507-0.11c0.465,0,1.162,0,1.865,0.11c0.577,0.124,1.388,0.238,2.09,0.589
		c0.691,0.346,1.27,0.702,1.739,1.045c0.341,0.459,0.691,0.815,0.811,1.267c0.222,0.475,0.222,1.05,0.113,1.512
		c0,0.581-0.232,1.156-0.459,1.861l-0.583,1.27l-2.323-0.934c-1.388-0.576-2.556-1.041-3.716-1.263
		c-1.168-0.234-2.199-0.234-3.129-0.113c-0.93,0.224-1.739,0.562-2.441,1.04c-0.692,0.575-1.265,1.27-1.61,2.194
		c-0.356,0.815-0.594,1.641-0.594,2.454c0,0.676,0.237,1.383,0.47,2.078c0.346,0.691,0.815,1.272,1.507,1.858
		c0.584,0.452,1.281,0.929,2.209,1.383c1.044,0.348,2.08,0.588,3.129,0.588c1.161-0.116,2.199-0.354,3.241-0.815l-0.691,1.737
		c0,0.119-0.118,0.23,0,0.346c0,0.116,0.114,0.229,0.347,0.349c0.123,0.113,0.469,0.237,0.814,0.353
		c0.228,0.227,0.573,0.338,0.697,0.338c0.228,0,0.346,0,0.584,0c0.108,0,0.231-0.111,0.231-0.222L435.715,115.905z"/>
	<path style="&st2;" d="M454.954,127.276c0.701-1.167,1.047-2.085,1.285-3.012c0.222-0.929,0.341-1.858,0.222-2.679
		c-0.113-0.922-0.46-1.732-1.043-2.429c-0.464-0.813-1.274-1.396-2.432-1.987c-0.934-0.558-1.972-0.801-3.138-0.801
		c-1.151,0-2.426,0.243-3.819,0.801l1.161-2.194c0,0,0-0.116,0-0.225c0-0.116,0-0.24-0.114-0.24c0-0.108-0.118-0.238-0.356-0.346
		c-0.108-0.119-0.346-0.229-0.573-0.341c-0.354-0.234-0.577-0.353-0.701-0.353c-0.222-0.114-0.346-0.114-0.465-0.114
		c-0.103,0-0.227,0-0.346,0c-0.119,0.114-0.119,0.114-0.119,0.232l-8.702,16.115c0,0.122,0,0.238,0,0.364c0,0,0,0.108,0.124,0.227
		c0.123,0.108,0.232,0.222,0.351,0.333c0.228,0.124,0.465,0.362,0.692,0.475c0.345,0.114,0.577,0.232,0.814,0.341
		c0.232,0.119,0.352,0.119,0.465,0.119c0.114,0,0.228,0,0.346,0c0.114-0.119,0.114-0.119,0.232-0.227l6.04-11.261
		c1.269-0.565,2.545-0.918,3.473-1.151c1.044-0.119,1.968,0,2.664,0.475c0.578,0.33,1.038,0.676,1.39,1.151
		c0.346,0.341,0.469,0.927,0.582,1.508c0,0.462,0,1.153-0.236,1.729c-0.113,0.586-0.46,1.404-0.919,2.323l-4.992,9.516
		c-0.119,0.116-0.119,0.116-0.119,0.237c0,0.116,0.119,0.225,0.119,0.341c0.119,0,0.237,0.225,0.47,0.349
		c0.114,0.113,0.347,0.237,0.692,0.351c0.231,0.224,0.458,0.34,0.696,0.34c0.227,0.111,0.346,0.111,0.583,0.111
		c0.114,0.116,0.228,0,0.228,0c0.119,0,0.237-0.111,0.237-0.227L454.954,127.276z"/>
	<path style="&st2;" d="M463.774,143.637c0.108-0.129,0.108-0.364,0.108-0.364c0-0.119,0-0.228,0-0.228
		c0-0.116-0.108-0.116-0.108-0.227c-0.123,0-0.236-0.111-0.345-0.111c-0.242,0-0.351,0-0.589-0.114c-0.113,0-0.351,0-0.573-0.124
		c-0.351-0.113-0.578-0.237-0.82-0.351c-0.805-0.583-1.161-1.162-1.161-1.972c0-0.697,0.356-1.626,1.059-2.677l5.439-8.7
		l4.058,2.565c0.124,0.108,0.356,0.108,0.583,0c0.114-0.119,0.46-0.47,0.697-0.818c0.119-0.222,0.232-0.449,0.232-0.575
		c0.123-0.238,0.123-0.354,0.223-0.462c0-0.111-0.1-0.232-0.1-0.345c0,0-0.123-0.122-0.236-0.238l-3.944-2.439l2.317-3.709
		c0-0.113,0.119-0.229,0.119-0.229c0-0.114-0.119-0.225-0.119-0.351c-0.119-0.111-0.228-0.238-0.341-0.465
		c-0.236-0.118-0.464-0.227-0.701-0.462c-0.352-0.113-0.584-0.243-0.692-0.351c-0.237-0.108-0.47-0.108-0.583-0.227
		c-0.123,0-0.223,0-0.345,0.119c-0.124,0-0.124,0.108-0.124,0.108l-2.437,3.714l-2.081-1.27c-0.123-0.124-0.231-0.124-0.351-0.124
		s-0.119,0-0.232,0c-0.113,0.124-0.237,0.238-0.346,0.349c-0.114,0.119-0.347,0.341-0.465,0.581
		c-0.228,0.351-0.347,0.689-0.347,0.926c0,0.24,0,0.468,0.228,0.576l2.215,1.394l-5.802,9.051c-0.589,0.929-0.935,1.742-1.162,2.434
		c-0.355,0.803-0.355,1.513-0.242,2.212c0,0.694,0.347,1.265,0.815,1.861c0.352,0.56,1.054,1.151,1.863,1.608
		c0.228,0.124,0.46,0.356,0.801,0.472c0.237,0.114,0.594,0.23,0.82,0.338c0.238,0.111,0.464,0.111,0.691,0.243
		c0.346,0,0.47,0,0.584,0c0.232-0.132,0.346-0.243,0.578-0.351c0.119-0.116,0.351-0.467,0.578-0.702
		C463.651,143.972,463.651,143.745,463.774,143.637z"/>
	<path style="&st2;" d="M474.44,140.034c0.469-0.583,1.042-1.151,1.631-1.513c0.578-0.464,1.15-0.691,1.853-0.921
		c0.584-0.129,1.274-0.246,1.956,0c0.713,0.108,1.405,0.346,2.106,0.792c1.265,1.058,1.967,2.22,1.967,3.495
		c0.118,1.267-0.347,2.671-1.502,4.055L474.44,140.034z M484.996,148.259c0.691-1.042,1.279-1.964,1.626-3.004
		c0.341-1.053,0.583-2.101,0.459-3.136c-0.118-0.932-0.341-1.972-0.924-2.906c-0.47-1.038-1.394-1.97-2.551-2.785
		c-1.042-0.803-2.198-1.384-3.359-1.621c-1.166-0.24-2.323-0.24-3.37,0c-1.152,0.237-2.318,0.691-3.366,1.509
		c-1.156,0.811-2.086,1.74-3.016,3.007c-1.042,1.409-1.729,2.673-2.198,3.949c-0.345,1.285-0.588,2.441-0.345,3.601
		c0.122,1.035,0.458,2.08,1.15,3.12c0.707,1.061,1.631,1.979,2.782,2.906c0.692,0.478,1.398,0.929,2.085,1.288
		c0.708,0.338,1.409,0.684,1.978,0.921c0.583,0.238,1.048,0.349,1.394,0.462c0.464,0,0.702,0.113,0.811,0c0.118,0,0.118,0,0.237,0
		c0.119-0.114,0.228-0.114,0.228-0.225c0.118,0,0.237-0.119,0.237-0.238c0.113-0.119,0.228-0.237,0.345-0.351
		c0.114-0.232,0.228-0.34,0.347-0.459c0.113-0.235,0.113-0.349,0.113-0.47c0-0.113,0-0.113,0-0.229c0-0.111-0.113-0.111-0.113-0.222
		c-0.119-0.116-0.347-0.116-0.691-0.238c-0.346-0.116-0.811-0.24-1.275-0.354c-0.583-0.119-1.161-0.343-1.729-0.697
		c-0.712-0.232-1.29-0.687-1.981-1.162c-0.93-0.696-1.626-1.381-1.982-2.09c-0.46-0.692-0.687-1.375-0.687-2.188
		c-0.114-0.708,0.113-1.526,0.341-2.323c0.346-0.689,0.815-1.507,1.398-2.328l9.741,7.193c0.227,0.119,0.572,0.235,0.928,0.235
		c0.347,0,0.697-0.235,1.044-0.697L484.996,148.259z"/>
	<path style="&st2;" d="M495.206,161.84c0.237-0.586,0.237-1.177,0.237-1.742c-0.124-0.7-0.237-1.275-0.47-1.856
		c-0.237-0.585-0.469-1.156-0.81-1.628l-0.821-1.742c-0.228-0.454-0.46-1.043-0.697-1.494c-0.108-0.478-0.108-0.934-0.108-1.404
		c0-0.452,0.232-0.808,0.578-1.272c0.228-0.227,0.589-0.469,0.816-0.707c0.346-0.114,0.69-0.227,1.042-0.227
		c0.346,0.113,0.806,0.113,1.162,0.359c0.459,0.237,0.923,0.459,1.269,0.802c0.46,0.475,0.93,0.929,1.173,1.278
		c0.222,0.462,0.459,0.934,0.691,1.283c0.108,0.34,0.227,0.699,0.341,0.929c0,0.219,0.113,0.454,0.237,0.573
		c0.118,0,0.118,0,0.222,0c0.119,0.119,0.119,0,0.243,0c0.103-0.119,0.222-0.119,0.346-0.232c0.119-0.121,0.346-0.232,0.46-0.459
		c0.123-0.111,0.231-0.349,0.35-0.47c0.119-0.113,0.119-0.229,0.232-0.34c0,0,0-0.111,0.108-0.227c0-0.122,0-0.238-0.108-0.362
		c0-0.232-0.113-0.456-0.232-0.694c-0.118-0.349-0.227-0.684-0.464-1.04c-0.227-0.351-0.47-0.692-0.815-1.04
		c-0.341-0.47-0.578-0.816-1.043-1.058c-0.811-0.809-1.615-1.27-2.436-1.605c-0.812-0.364-1.627-0.483-2.432-0.483
		c-0.692,0-1.395,0.119-2.085,0.483c-0.589,0.335-1.168,0.684-1.633,1.267c-0.577,0.581-0.928,1.265-1.047,1.855
		c-0.228,0.581-0.346,1.159-0.228,1.859c0,0.58,0.119,1.156,0.347,1.744c0.237,0.57,0.465,1.159,0.819,1.732
		c0.228,0.465,0.573,1.045,0.816,1.621c0.228,0.464,0.46,0.926,0.578,1.52c0.228,0.452,0.228,0.927,0.228,1.381
		c0,0.344-0.228,0.813-0.578,1.151c-0.352,0.483-0.692,0.71-1.044,0.826c-0.354,0.232-0.819,0.232-1.166,0.232
		c-0.465-0.124-0.924-0.232-1.271-0.459c-0.463-0.116-0.934-0.473-1.274-0.823c-0.583-0.583-1.053-1.043-1.398-1.505
		c-0.346-0.583-0.578-1.04-0.691-1.513c-0.232-0.457-0.347-0.81-0.46-1.148c-0.119-0.354-0.237-0.588-0.361-0.71
		c0,0-0.108-0.108-0.223-0.108c-0.123,0-0.123,0-0.231,0.108c-0.124,0-0.232,0.122-0.351,0.23c-0.232,0.126-0.346,0.242-0.46,0.48
		c-0.351,0.338-0.465,0.563-0.578,0.803c-0.119,0.237-0.243,0.462-0.119,0.687c0,0.132,0,0.48,0.232,0.821
		c0.114,0.351,0.232,0.699,0.579,1.151c0.227,0.364,0.464,0.818,0.928,1.293c0.347,0.461,0.812,0.932,1.271,1.386
		c0.811,0.705,1.626,1.283,2.437,1.628c0.815,0.338,1.631,0.579,2.442,0.692c0.804,0,1.625-0.113,2.437-0.465
		c0.69-0.335,1.393-0.813,1.972-1.504C494.736,163.004,495.082,162.418,495.206,161.84z"/>
</g>
</svg>
