<?xml version="1.0" encoding="utf-8"?>
<!-- Generator: Adobe Illustrator 16.0.0, SVG Export Plug-In . SVG Version: 6.00 Build 0)  -->
<!DOCTYPE svg PUBLIC "-//W3C//DTD SVG 1.1//EN" "http://www.w3.org/Graphics/SVG/1.1/DTD/svg11.dtd" [
	<!ENTITY ns_extend "http://ns.adobe.com/Extensibility/1.0/">
	<!ENTITY ns_ai "http://ns.adobe.com/AdobeIllustrator/10.0/">
	<!ENTITY ns_graphs "http://ns.adobe.com/Graphs/1.0/">
	<!ENTITY ns_vars "http://ns.adobe.com/Variables/1.0/">
	<!ENTITY ns_imrep "http://ns.adobe.com/ImageReplacement/1.0/">
	<!ENTITY ns_sfw "http://ns.adobe.com/SaveForWeb/1.0/">
	<!ENTITY ns_custom "http://ns.adobe.com/GenericCustomNamespace/1.0/">
	<!ENTITY ns_adobe_xpath "http://ns.adobe.com/XPath/1.0/">
]>
<svg version="1.1" id="Layer_1" xmlns:x="&ns_extend;" xmlns:i="&ns_ai;" xmlns:graph="&ns_graphs;"
	 xmlns="http://www.w3.org/2000/svg" xmlns:xlink="http://www.w3.org/1999/xlink" x="0px" y="0px" width="792px" height="612px"
	 viewBox="-90 -61 792 612" enable-background="new -90 -61 792 612" xml:space="preserve">
<metadata>
	<sfw  xmlns="&ns_sfw;">
		<slices></slices>
		<sliceSourceBounds  width="739.087" height="553.2" x="21.783" y="20.612" bottomLeftOrigin="true"></sliceSourceBounds>
	</sfw>
</metadata>
<path fill="#0062AF" stroke="#0062AF" stroke-width="0.65" stroke-linecap="round" stroke-linejoin="round" stroke-miterlimit="10" d="
	M-54.788,262.508c0-141.117,154.696-255.4,345.429-255.4c190.88,0,345.569,114.283,345.569,255.4
	c0,140.988-154.689,255.273-345.569,255.273C99.908,517.781-54.788,403.496-54.788,262.508z M-19.966,233.264
	c0-140.967,154.702-255.25,345.576-255.25c190.738,0,345.435,114.283,345.435,255.25c0,141.122-154.696,255.407-345.435,255.407
	C134.736,488.671-19.966,374.386-19.966,233.264z"/>
<g>
	<defs>
		<path id="SVGID_1_" d="M-33.32,252.13c0-137.956,151.398-249.798,338.195-249.798c186.665,0,338.057,111.842,338.057,249.798
			c0,138.106-151.392,249.952-338.057,249.952C118.078,502.082-33.32,390.236-33.32,252.13z"/>
	</defs>
	<use xlink:href="#SVGID_1_"  overflow="visible" fill="#FFFFFF"/>
	<clipPath id="SVGID_2_">
		<use xlink:href="#SVGID_1_"  overflow="visible"/>
	</clipPath>
	
		<path clip-path="url(#SVGID_2_)" fill="#FFFFFF" stroke="#FFFFFF" stroke-width="0.6361" stroke-linecap="round" stroke-linejoin="round" stroke-miterlimit="10" d="
		M-67.399,280.75c0-138.104,151.393-249.946,338.051-249.946c186.803,0,338.188,111.842,338.188,249.946
		c0,137.976-151.386,249.82-338.188,249.82C83.994,530.57-67.399,418.726-67.399,280.75z"/>
</g>
<path fill="#010101" d="M50.306,93.652c0,0,90.604,85.193,354.775,70.255c0,0,85.787,37.998,167.206,22.478
	c66.037-12.679,35.886-25.65,35.886-25.65s-63.333,48.857-203.401-1.208C404.773,159.526,190.822,182.002,50.306,93.652z"/>
<path fill="#010101" d="M27.383,110.084c0,0,122.284,103.13,295.98,67.993c0,0,204.741,80.368,315.109,20.212
	c0,0,1.502,4.054,3.322,11.305c1.813,7.236-121.231,53.057-318.882-26.537C322.912,183.057,161.572,221.813,27.383,110.084z"/>
<g>
	
		<polyline fill="none" stroke="#0062AF" stroke-width="7.8" stroke-linecap="round" stroke-linejoin="round" stroke-miterlimit="10" points="
		405.081,160.734 405.081,140.237 369.034,147.169 322.912,158.174 322.912,179.588 	"/>
	
		<path fill="#0062AF" stroke="#0062AF" stroke-width="3.9" stroke-linecap="round" stroke-linejoin="round" stroke-miterlimit="10" d="
		M393.465,162.086c0-1.799,4.974-3.144,11.167-3.144c6.019,0,11.005,1.346,11.005,3.144c0,1.821-4.986,3.335-11.005,3.335
		C398.438,165.421,393.465,163.908,393.465,162.086z"/>
	
		<path fill="#0062AF" stroke="#0062AF" stroke-width="3.9" stroke-linecap="round" stroke-linejoin="round" stroke-miterlimit="10" d="
		M312.503,180.949c0-1.807,4.968-3.323,11.007-3.323c6.034,0,11.004,1.517,11.004,3.323c0,1.814-4.97,3.317-11.004,3.317
		C317.471,184.269,312.503,182.764,312.503,180.949z"/>
	
		<polyline fill="none" stroke="#0062AF" stroke-width="7.8" stroke-linecap="round" stroke-linejoin="round" stroke-miterlimit="10" points="
		325.609,159.233 367.678,179.889 404.927,139.643 	"/>
	
		<polyline fill="none" stroke="#0062AF" stroke-width="7.8" stroke-linecap="round" stroke-linejoin="round" stroke-miterlimit="10" points="
		347.936,221.351 365.563,278.642 325.609,317.694 363.463,417.668 367.536,148.686 420.609,387.518 364.972,330.969 
		395.727,274.267 366.631,226.937 368.14,150.044 383.816,220.746 365.563,278.642 404.773,328.244 363.766,418.567 
		364.509,329.009 365.873,161.502 366.026,148.07 305.418,394.437 363.463,330.352 334.965,276.681 365.726,226.168 	"/>
	
		<polyline fill="none" stroke="#0062AF" stroke-width="7.8" stroke-linecap="round" stroke-linejoin="round" stroke-miterlimit="10" points="
		342.514,167.232 366.939,148.376 388.942,158.174 	"/>
</g>
<g>
	
		<path fill="#010101" stroke="#010101" stroke-width="0.0312" stroke-linecap="round" stroke-linejoin="round" stroke-miterlimit="10" d="
		M176.208,236.892c-8.301-9.66-18.856-16.444-31.365-20.514c-18.71-5.868-36.344-4.073-53.234,5.579
		c-16.428,9.493-27.601,23.671-33.613,42.819c-5.872,18.547-4.831,36.641,3.315,54.122c8.294,17.788,21.708,29.72,40.115,35.438
		c4.206,1.369,11.146,2.408,20.641,2.856c11.314,0.618,17.353-0.449,18.24-3.16c0.919-2.57,1.671-7.536,2.576-14.783
		c0.899-7.985,0.751-12.038-0.456-12.521c0.743,0.309-2.263,0.925-8.899,1.978c-6.791,1.067-13.118,0.613-19.145-1.347
		c-10.864-3.33-18.702-10.417-23.675-20.979c-4.824-10.386-5.429-20.948-1.967-31.947c3.477-11.012,10.255-19.461,20.071-25.343
		c9.944-5.723,20.501-6.931,31.351-3.461c4.826,1.514,9.054,3.773,12.515,6.935l10.542,9.044c0.772,0.31,3.168-2.717,7.395-8.889
		c4.222-6.186,6.784-10.266,7.39-12.208C178.16,239.747,177.556,238.539,176.208,236.892z"/>
	
		<path fill="#010101" stroke="#010101" stroke-width="0.0312" stroke-linecap="round" stroke-linejoin="round" stroke-miterlimit="10" d="
		M269.229,300.51c-19.608,0.463-36.338-0.302-50.201-1.952c-3.47-0.297-4.985-1.503-4.686-3.471
		c0.906-8.603,5.282-15.991,12.816-22.004c7.543-6.188,15.523-8.744,24.279-7.718c7.689,0.913,14.165,4.832,19.602,11.623
		c5.423,6.643,7.685,13.877,6.637,21.714C277.516,299.751,274.812,300.349,269.229,300.51z M298.177,263.568
		c-10.253-14.319-24.131-22.607-41.618-24.725c-18.99-2.259-35.887,3.314-50.657,16.585c-14.018,12.83-22.318,28.793-24.574,48.101
		c-2.563,21.707,1.806,39.805,13.12,54.28c11.307,14.469,27.889,23.057,49.758,25.629c21.398,2.725,39.947-2.572,55.468-15.388
		c1.812-1.356,2.717-2.416,2.717-3.008c0-0.456-1.194-3.919-3.765-10.71c-2.415-6.631-3.77-10.105-4.072-10.401
		c-0.147-0.146-0.597-0.296-1.35-0.442l-4.973,3.153c-13.582,7.852-27.747,10.859-42.518,9.2
		c-8.608-1.054-16.293-4.811-23.231-11.306c-7.086-6.637-10.852-14.186-10.998-22.621c54.28,2.423,83.673,3.175,87.9,2.113
		c6.174-1.516,9.799-5.873,10.556-12.81C312.195,293.424,308.283,277.433,298.177,263.568z"/>
	
		<path fill="#010101" stroke="#010101" stroke-width="0.0312" stroke-linecap="round" stroke-linejoin="round" stroke-miterlimit="10" d="
		M497.948,287.243c-18.393,6.475-34.526,11.02-48.086,13.582c-3.323,0.725-5.128,0-5.576-1.832
		c-1.665-8.583,0.146-16.876,5.415-25.03c5.281-8.126,12.078-12.958,20.512-14.608c7.537-1.511,14.925,0.155,22.152,4.817
		c7.24,4.831,11.475,10.998,12.972,18.697C505.638,284.082,503.081,285.431,497.948,287.243z M514.087,242.924
		c-14.018-10.565-29.861-14.189-47.195-10.72c-18.548,3.62-32.874,14.014-42.818,31.217c-9.496,16.575-12.216,34.37-8.597,53.522
		c4.234,21.406,13.87,37.238,29.096,47.646c15.38,10.265,33.627,13.412,55.033,9.206c21.266-4.081,37.249-14.79,48.101-31.823
		c1.201-1.952,1.671-3.16,1.516-3.623c0-0.449-2.261-3.609-6.79-9.207c-4.375-5.554-6.786-8.427-7.093-8.577
		c-0.296-0.166-0.745-0.166-1.511,0l-3.757,4.377c-10.255,11.911-22.763,19.138-37.392,22.01
		c-8.455,1.665-16.891,0.458-25.339-3.462c-8.892-4.242-14.782-10.266-17.479-18.253c52.306-14.32,80.21-22.626,83.967-25.029
		c5.43-3.462,7.395-8.602,6.188-15.368C536.539,267.051,527.809,253.032,514.087,242.924z"/>
</g>
<g>
	
		<path fill="#010101" stroke="#010101" stroke-width="0.0312" stroke-linecap="round" stroke-linejoin="round" stroke-miterlimit="10" d="
		M108.049,407.252c-0.898,0.315-1.966,0.604-2.711,0.899c-0.905,0.147-1.657,0.309-2.262,0.309c-0.603,0.146-1.362,0-1.812-0.161
		c-0.611,0-1.055-0.29-1.658-0.591c-0.897-0.618-1.663-1.207-1.958-2.107c-0.457-0.752-0.605-1.65-0.605-2.717
		c0-1.062,0.302-2.113,0.753-3.162c0.302-1.061,0.913-2.106,1.511-3.168c0.448-1.066,1.207-1.979,1.959-2.712
		c0.611-0.912,1.51-1.516,2.254-2.12c0.913-0.45,1.818-0.758,2.719-0.758c0.912-0.154,1.965,0.154,2.865,0.611
		c1.046,0.598,1.806,1.503,2.415,2.71c0.604,1.202,1.055,2.88,1.356,4.691L108.049,407.252z M125.838,385.102
		c0.155-0.147,0.155-0.316,0.155-0.458c0,0-0.155-0.167-0.302-0.308c0-0.141-0.155-0.289-0.443-0.436
		c-0.16-0.309-0.456-0.462-0.926-0.631c-0.288-0.282-0.591-0.436-0.898-0.436c-0.288-0.154-0.437-0.154-0.744-0.291
		c-0.148,0-0.302,0-0.302,0.137c-0.155,0-0.309,0.154-0.309,0.154l-6.925,12.057c-0.316-1.509-0.926-2.871-1.664-4.08
		c-0.604-1.046-1.651-1.945-2.858-2.71c-1.355-0.753-2.865-1.208-4.228-1.349c-1.503,0-2.872,0.141-4.222,0.765
		c-1.355,0.584-2.564,1.503-3.779,2.704c-1.2,1.208-2.26,2.71-3.308,4.522c-0.906,1.517-1.497,3.025-1.967,4.517
		c-0.449,1.511-0.597,3.026-0.597,4.382c0.149,1.354,0.457,2.725,1.195,3.926c0.765,1.216,1.966,2.087,3.477,3.013
		c1.354,0.906,2.871,1.202,4.375,1.202c1.51,0,3.174-0.148,4.973-0.753l-1.502,2.712c-0.148,0.153-0.148,0.302-0.148,0.457
		c0,0,0,0.146,0.148,0.289c0.146,0.147,0.302,0.314,0.448,0.456c0.148,0.17,0.457,0.31,0.753,0.463
		c0.301,0.148,0.609,0.29,0.912,0.437c0.148,0.16,0.302,0.16,0.45,0.16c0.295,0,0.295,0,0.448,0c0.154-0.16,0.154-0.16,0.315-0.307
		L125.838,385.102z"/>
	
		<path fill="#010101" stroke="#010101" stroke-width="0.0312" stroke-linecap="round" stroke-linejoin="round" stroke-miterlimit="10" d="
		M125.691,408.783c0.443-0.927,1.048-1.69,1.657-2.281c0.752-0.766,1.51-1.21,2.269-1.653c0.745-0.32,1.657-0.46,2.557-0.46
		s1.805,0.14,2.711,0.764c1.959,0.899,3.026,2.1,3.476,3.765c0.288,1.663,0,3.462-1.06,5.569L125.691,408.783z M140.91,416.909
		c0.765-1.354,1.208-2.865,1.518-4.208c0.153-1.354,0.153-2.729-0.155-4.092c-0.295-1.209-0.893-2.415-1.813-3.61
		c-0.893-1.046-2.1-2.112-3.906-2.872c-1.516-0.738-3.026-1.193-4.528-1.354c-1.665,0-3.021,0.161-4.523,0.765
		c-1.369,0.59-2.569,1.503-3.771,2.697c-1.202,1.208-2.269,2.712-3.167,4.55c-1.055,1.939-1.664,3.771-1.967,5.415
		c-0.147,1.646-0.147,3.309,0.301,4.677c0.47,1.356,1.208,2.712,2.254,3.919c1.068,1.062,2.431,2.107,4.235,3.008
		c1.061,0.456,1.96,0.913,3.013,1.207c0.914,0.148,1.813,0.457,2.57,0.618c0.744,0.14,1.354,0.14,1.952,0.296
		c0.457,0,0.752,0,0.913-0.154c0.141,0,0.295,0,0.449-0.14c0,0,0.147-0.161,0.147-0.315c0.148,0,0.302-0.153,0.302-0.302
		c0.147-0.146,0.147-0.295,0.302-0.443c0.147-0.309,0.295-0.617,0.295-0.764c0.154-0.296,0.154-0.443,0.154-0.592
		c0-0.161,0-0.161,0-0.309c-0.154-0.168-0.154-0.168-0.302-0.308c-0.147,0-0.604-0.16-1.054-0.16c-0.456,0-0.906,0-1.658-0.136
		c-0.603,0-1.354-0.146-2.26-0.442c-0.898-0.155-1.813-0.618-2.866-1.061c-1.215-0.618-2.26-1.355-3.026-2.128
		c-0.591-0.893-1.046-1.792-1.335-2.704c-0.161-0.911-0.161-1.96,0-3.019c0.289-1.049,0.745-2.243,1.335-3.309l13.878,6.932
		c0.449,0.146,0.912,0.146,1.369,0.146c0.288-0.146,0.738-0.455,1.048-1.208L140.91,416.909z"/>
	
		<path fill="#010101" stroke="#010101" stroke-width="0.0312" stroke-linecap="round" stroke-linejoin="round" stroke-miterlimit="10" d="
		M171.067,408.918c0-0.135,0-0.309,0-0.457c0-0.161-0.133-0.309-0.133-0.309c-0.155-0.14-0.472-0.296-0.611-0.443
		c-0.31-0.141-0.604-0.309-1.054-0.457c-0.301-0.159-0.759-0.307-1.066-0.449c-0.296,0-0.436,0-0.597,0c-0.302,0-0.45,0-0.45,0
		c-0.155,0.141-0.302,0.141-0.302,0.29l-12.509,30.465c-0.154,0.175-0.154,0.31-0.154,0.457c0.154,0.154,0.154,0.309,0.288,0.309
		c0.161,0.136,0.316,0.307,0.611,0.447c0.295,0.169,0.597,0.311,1.067,0.452c0.289,0.301,0.738,0.301,0.898,0.449
		c0.295,0,0.604,0.142,0.751,0.142c0.155,0,0.297-0.142,0.443-0.142c0.161,0,0.161-0.146,0.309-0.302L171.067,408.918z"/>
	
		<path fill="#010101" stroke="#010101" stroke-width="0.0312" stroke-linecap="round" stroke-linejoin="round" stroke-miterlimit="10" d="
		M191.729,436.201c0.458-1.656,0.906-3.007,1.048-4.213c0-1.216,0-2.415-0.295-3.477c-0.449-1.047-1.048-1.946-1.806-2.858
		c-0.906-0.92-2.107-1.65-3.47-2.106c-1.362-0.47-2.711-0.604-4.228-0.47c-1.503,0.309-3.162,0.927-4.818,1.824l1.055-2.879
		c0-0.154,0-0.295,0-0.436c0-0.147-0.141-0.147-0.141-0.309c-0.161-0.146-0.309-0.308-0.611-0.449c-0.16,0-0.455-0.162-0.905-0.302
		c-0.302-0.146-0.597-0.146-0.906-0.297c-0.295,0-0.442,0-0.604,0c-0.141,0-0.302,0-0.449,0.148c0,0-0.161,0.147-0.161,0.288
		l-7.831,22.487c-0.148,0-0.148,0.135-0.148,0.283c0,0.146,0.148,0.146,0.31,0.308c0.14,0.147,0.302,0.309,0.59,0.458
		c0.154,0.146,0.611,0.146,0.914,0.295c0.448,0.148,0.743,0.296,1.053,0.457c0.295,0,0.611,0,0.744,0c0.154,0,0.303,0,0.303-0.161
		c0.154,0,0.154-0.146,0.302-0.296l5.582-15.677c1.511-0.898,3.013-1.663,4.375-1.959c1.208-0.444,2.416-0.444,3.464-0.146
		c0.751,0.294,1.349,0.75,1.966,1.207c0.449,0.59,0.758,1.209,0.899,1.785c0.301,0.764,0.301,1.529,0.161,2.43
		c0,0.898-0.302,1.965-0.765,3.167l-4.671,13.111c0,0.148,0,0.31,0,0.458c0,0,0.154,0.154,0.296,0.309
		c0.155,0.147,0.309,0.296,0.605,0.296c0.154,0.141,0.463,0.296,0.912,0.442c0.45,0.161,0.738,0.315,1.048,0.315
		c0.302,0.147,0.448,0.147,0.609,0.147c0.289,0,0.289-0.147,0.458-0.147c0.146-0.154,0.146-0.154,0.295-0.315L191.729,436.201z"/>
	
		<path fill="#010101" stroke="#010101" stroke-width="0.0312" stroke-linecap="round" stroke-linejoin="round" stroke-miterlimit="10" d="
		M209.371,460.775c-0.302,0.47-0.913,0.771-1.517,1.06c-0.597,0.308-1.342,0.442-2.262,0.442c-1.047,0-2.107-0.135-3.302-0.592
		c-2.12-0.44-3.616-1.193-4.543-2.104c-1.04-0.927-1.336-1.96-1.04-3.021c0.153-0.296,0.301-0.756,0.448-1.046
		c0.154-0.309,0.458-0.618,0.745-0.919c0.322-0.289,0.611-0.584,1.059-0.894c0.463-0.161,1.062-0.457,1.651-0.752l6.047,1.798
		c1.349,0.458,2.262,1.057,3.014,1.813c0.597,0.753,0.912,1.657,0.597,2.576C210.129,459.729,209.82,460.34,209.371,460.775z
		 M212.236,442.079c-0.302,0.62-0.751,1.075-1.208,1.505c-0.598,0.309-1.208,0.47-1.96,0.619c-0.61,0.146-1.362,0-2.255-0.148
		c-1.523-0.47-2.577-1.209-3.168-2.417c-0.752-1.053-0.752-2.413-0.302-3.904c0.141-0.629,0.444-1.221,0.745-1.838
		c0.457-0.591,0.905-1.041,1.362-1.35c0.61-0.443,1.208-0.75,1.805-0.75c0.751-0.155,1.518-0.155,2.269,0.16
		c1.65,0.437,2.711,1.209,3.313,2.248c0.597,1.208,0.759,2.569,0.296,4.088C212.987,441.021,212.686,441.637,212.236,442.079z
		 M221.576,434.686c-0.14-0.297-0.294-0.437-0.597-0.584l-6.938-1.965c-0.443-0.311-1.055-0.451-1.651-0.745
		c-0.604-0.302-1.216-0.463-1.96-0.619c-1.208-0.437-2.422-0.59-3.617-0.437c-1.221,0.135-2.423,0.282-3.329,0.899
		c-1.055,0.45-1.806,1.21-2.557,2.093c-0.758,0.92-1.354,1.975-1.651,3.329c-0.316,1.21-0.457,2.112-0.316,3.013
		c0,0.913,0.316,1.656,0.611,2.557c-0.752,0.47-1.511,1.061-2.12,1.664c-0.745,0.753-1.194,1.678-1.517,2.725
		c-0.128,0.739-0.128,1.503,0,2.255c0.322,0.745,0.771,1.362,1.517,2.107c-0.745,0.308-1.355,0.617-1.806,0.904
		c-0.611,0.302-1.047,0.605-1.496,1.067c-0.309,0.296-0.765,0.751-1.074,1.355c-0.301,0.442-0.442,0.899-0.597,1.497
		c-0.295,0.918-0.295,1.816-0.14,2.71c0.14,0.759,0.59,1.656,1.341,2.415c0.604,0.757,1.677,1.502,2.865,2.114
		c1.201,0.751,2.731,1.355,4.543,1.799c1.946,0.616,3.758,0.766,5.275,0.766c1.489,0,2.858-0.298,3.905-0.766
		c1.054-0.443,2.121-1.048,2.718-1.933c0.751-0.766,1.214-1.838,1.503-2.872c0.302-0.899,0.302-1.96,0.161-2.724
		c-0.161-0.9-0.611-1.658-1.054-2.416c-0.611-0.739-1.363-1.356-2.275-1.946c-0.739-0.462-1.799-0.919-3.001-1.215l-5.892-1.967
		c-0.899-0.296-1.651-0.744-2.106-1.209c-0.457-0.59-0.61-1.207-0.303-1.797c0.147-0.459,0.303-0.914,0.591-1.196
		c0.316-0.309,0.611-0.618,1.067-0.924c0.308,0.454,0.906,1.058,1.664,1.516c0.745,0.456,1.65,0.886,2.556,1.047
		c1.356,0.455,2.719,0.603,3.771,0.455c1.201,0,2.409-0.307,3.314-0.749c1.055-0.605,1.807-1.21,2.57-2.123
		c0.745-0.897,1.201-2.092,1.651-3.461c0.154-0.745,0.296-1.517,0.296-2.391c-0.14-0.771-0.296-1.529-0.745-2.281l3.314,0.899
		c0.296,0,0.458,0,0.759-0.309c0.146-0.147,0.448-0.591,0.604-1.207C221.576,435.451,221.576,434.994,221.576,434.686z"/>
	
		<path fill="#010101" stroke="#010101" stroke-width="0.0312" stroke-linecap="round" stroke-linejoin="round" stroke-miterlimit="10" d="
		M227.462,446.161c0.308-0.9,0.597-1.813,1.048-2.726c0.461-0.738,1.066-1.504,1.67-1.945c0.753-0.612,1.504-1.06,2.403-1.202
		c0.764-0.301,1.812-0.301,2.865-0.169c2.12,0.464,3.482,1.37,4.233,2.879c0.898,1.497,1.06,3.309,0.45,5.563L227.462,446.161z
		 M244.352,449.919c0.301-1.505,0.457-3.007,0.301-4.35c-0.154-1.516-0.449-2.725-1.207-3.933c-0.611-1.206-1.504-2.113-2.705-3.007
		c-1.06-0.763-2.577-1.383-4.535-1.817c-1.658-0.302-3.315-0.302-4.819,0c-1.516,0.29-2.879,1.056-3.926,1.958
		c-1.208,0.9-2.27,2.109-3.162,3.618c-0.752,1.504-1.354,3.181-1.817,5.275c-0.443,2.107-0.443,3.932-0.302,5.717
		c0.154,1.678,0.765,3.18,1.523,4.389c0.737,1.194,1.813,2.269,3.153,3.008c1.363,0.91,3.015,1.502,4.824,1.824
		c1.208,0.309,2.263,0.444,3.162,0.444c1.066,0,1.974,0,2.725-0.136c0.759,0,1.51-0.176,1.959-0.176
		c0.45-0.135,0.893-0.302,0.893-0.457c0.161,0,0.322-0.135,0.322-0.135c0.147-0.161,0.147-0.308,0.289-0.308
		c0-0.149,0-0.29,0.16-0.456c0-0.135,0-0.451,0-0.604c0.147-0.283,0.147-0.605,0.147-0.737c0-0.31,0-0.457,0-0.62
		c0-0.146,0-0.146-0.147-0.281c-0.16,0-0.16-0.174-0.302-0.174c-0.147,0-0.597,0-0.912,0.174c-0.45,0-1.048,0.136-1.813,0.281
		c-0.597,0-1.349,0.161-2.255,0.161c-0.913,0-1.966-0.161-3.021-0.307c-1.503-0.309-2.563-0.758-3.468-1.342
		c-0.913-0.617-1.651-1.209-2.114-2.127c-0.448-0.906-0.609-1.792-0.744-3.001c0-1.066,0.135-2.276,0.296-3.476l15.38,2.857
		c0.444,0.135,0.758,0.135,1.208-0.153c0.442-0.148,0.604-0.604,0.758-1.35L244.352,449.919z"/>
	
		<path fill="#010101" stroke="#010101" stroke-width="0.0312" stroke-linecap="round" stroke-linejoin="round" stroke-miterlimit="10" d="
		M272.094,452.951c0.295-1.664,0.295-3.18,0.141-4.389c-0.141-1.207-0.45-2.401-1.047-3.302c-0.449-1.058-1.216-1.824-2.262-2.563
		c-1.055-0.619-2.263-1.061-3.926-1.368c-1.355-0.141-2.711,0-4.066,0.456c-1.504,0.604-2.879,1.503-4.523,2.86l0.45-3.155
		c0-0.161,0-0.302,0-0.47c0,0-0.141-0.141-0.302-0.297c-0.146,0-0.308-0.14-0.604-0.14c-0.153-0.153-0.449-0.153-0.892-0.153
		c-0.463-0.142-0.758-0.142-0.913-0.142c-0.296,0-0.598,0-0.759,0c-0.141,0.142-0.289,0.142-0.289,0.296
		c0,0.14-0.154,0.14-0.154,0.296l-3.173,23.668c0,0.147,0,0.296,0,0.457c0,0,0.147,0.146,0.308,0.308
		c0.141,0,0.443,0.146,0.598,0.146c0.308,0.148,0.758,0.148,1.054,0.303c0.47,0,0.905,0,1.214,0c0.154,0,0.443,0,0.604,0
		c0.14,0,0.302-0.154,0.442-0.154c0-0.148,0-0.297,0.155-0.458l2.261-16.588c1.354-1.207,2.563-2.254,3.771-2.858
		c1.207-0.604,2.415-0.912,3.463-0.752c0.906,0.147,1.511,0.451,2.12,0.752c0.597,0.458,1.049,1.062,1.35,1.652
		c0.448,0.617,0.597,1.369,0.758,2.262c0,0.91,0,1.978-0.161,3.333l-1.946,13.865c0,0.147,0,0.296,0.142,0.296
		c0,0.146,0.154,0.296,0.309,0.296c0.146,0.166,0.296,0.166,0.597,0.307c0.302,0,0.611,0.168,1.06,0.168
		c0.449,0.14,0.753,0.14,1.055,0.14s0.441,0,0.751-0.14c0.161,0,0.295,0,0.295-0.168c0.155-0.141,0.155-0.141,0.155-0.307
		L272.094,452.951z"/>
	
		<path fill="#010101" stroke="#010101" stroke-width="0.0312" stroke-linecap="round" stroke-linejoin="round" stroke-miterlimit="10" d="
		M286.562,434.994c-0.444-0.451-1.055-0.745-2.102-0.745c-1.054-0.147-1.813,0-2.107,0.296c-0.463,0.309-0.759,1.055-0.912,1.966
		c0,1.048,0,1.813,0.449,2.12c0.309,0.451,1.049,0.738,1.968,0.738c1.047,0.154,1.812,0,2.261-0.288
		c0.443-0.311,0.597-1.066,0.744-1.979C287.018,436.041,286.864,435.304,286.562,434.994z M285.508,444.952c0,0,0-0.16,0-0.306
		c-0.154-0.148-0.154-0.148-0.288-0.297c-0.154-0.146-0.471-0.146-0.611-0.146c-0.301-0.148-0.751-0.148-1.201-0.148
		c-0.31-0.161-0.758-0.161-1.053-0.161c-0.154,0-0.463,0-0.604,0.161c-0.155,0-0.309,0.148-0.457,0.148c0,0.146,0,0.295,0,0.443
		l-2.416,23.687c0,0.142,0,0.142,0,0.288c0.154,0.161,0.154,0.161,0.289,0.309c0.161,0.169,0.462,0.169,0.765,0.169
		c0.301,0.141,0.609,0.141,1.066,0.141c0.443,0.14,0.751,0.14,1.04,0.14c0.315,0,0.458,0,0.61-0.14c0.162,0,0.289-0.141,0.449-0.141
		c0-0.169,0.155-0.316,0.155-0.316L285.508,444.952z"/>
	
		<path fill="#010101" stroke="#010101" stroke-width="0.0312" stroke-linecap="round" stroke-linejoin="round" stroke-miterlimit="10" d="
		M295.768,455.515c0.154-1.059,0.442-1.973,0.752-2.871c0.302-0.76,0.752-1.525,1.349-2.262c0.604-0.61,1.361-1.054,2.261-1.354
		c0.765-0.463,1.664-0.613,2.872-0.463c2.112,0.161,3.616,0.912,4.522,2.267c1.056,1.356,1.497,3.182,1.215,5.437L295.768,455.515z
		 M313.095,457.012c0.161-1.497,0-3-0.291-4.368c-0.301-1.356-0.896-2.563-1.663-3.616c-0.75-1.218-1.812-1.979-3.012-2.718
		c-1.363-0.605-2.872-1.049-4.831-1.21c-1.658-0.147-3.303,0.161-4.826,0.604c-1.342,0.605-2.704,1.343-3.757,2.416
		c-1.055,1.06-1.818,2.408-2.57,4.066c-0.604,1.517-0.899,3.328-1.055,5.436c-0.14,2.106,0,4.065,0.45,5.725
		c0.31,1.656,1.06,3.013,1.959,4.227c0.906,1.047,2.107,1.953,3.631,2.705c1.342,0.603,2.999,0.898,4.958,1.06
		c1.21,0.14,2.269,0,3.33,0c0.898-0.161,1.805-0.31,2.711-0.458c0.752-0.147,1.361-0.301,1.811-0.437
		c0.452-0.313,0.76-0.475,0.9-0.475c0.161-0.146,0.161-0.146,0.301-0.288c0-0.155,0.155-0.303,0.155-0.303c0-0.14,0-0.281,0-0.45
		c0.146-0.147,0.146-0.456,0.146-0.597c0-0.311,0-0.618,0-0.926c0-0.147,0-0.296-0.146-0.443c0-0.147,0-0.288-0.155-0.288
		c-0.14-0.17-0.14-0.17-0.301-0.17c-0.296,0-0.61,0.17-1.061,0.31c-0.289,0.147-0.897,0.296-1.495,0.443
		c-0.758,0.147-1.518,0.313-2.415,0.456c-0.898,0.167-1.961,0.167-3.006,0.167c-1.517-0.167-2.731-0.475-3.631-0.918
		c-0.914-0.458-1.651-1.062-2.261-1.813c-0.599-0.896-0.906-1.805-1.201-2.872c-0.161-1.032-0.161-2.241-0.161-3.623l15.688,1.072
		c0.451,0,0.744-0.146,1.207-0.455c0.302-0.309,0.591-0.759,0.591-1.343L313.095,457.012L313.095,457.012z"/>
	
		<path fill="#010101" stroke="#010101" stroke-width="0.0312" stroke-linecap="round" stroke-linejoin="round" stroke-miterlimit="10" d="
		M334.353,447.973c0-0.163,0-0.309-0.14-0.462c0-0.154,0-0.301,0-0.301c0-0.162-0.153-0.162-0.296-0.296
		c0-0.147-0.153-0.147-0.463-0.298c-0.301,0-0.597-0.146-0.904-0.146c-0.302-0.161-0.598-0.161-0.906-0.309
		c-0.296,0-0.589,0-0.744,0c-0.45,0-1.067,0-1.516,0.147c-0.6,0.161-1.041,0.457-1.519,0.737c-0.584,0.309-1.046,0.763-1.644,1.367
		c-0.611,0.613-1.215,1.357-1.954,2.269l0.14-3.475c0-0.161-0.14-0.161-0.14-0.296c0-0.146-0.153-0.146-0.308-0.297
		c-0.141,0-0.294-0.147-0.597-0.147c-0.314,0-0.611,0-0.919,0c-0.444-0.159-0.746,0-1.049,0c-0.154,0-0.448,0-0.609,0.147
		c-0.146,0-0.289,0.148-0.289,0.148c0,0.147-0.16,0.282-0.16,0.443l-0.452,23.82c0,0.148,0.161,0.31,0.161,0.31
		c0,0.14,0.142,0.308,0.291,0.308c0.16,0,0.449,0.146,0.762,0.146c0.297,0,0.6,0.149,1.042,0.149c0.464,0,0.772,0,1.073-0.149
		c0.297,0,0.452,0,0.604-0.146c0.14,0,0.296-0.168,0.449-0.168c0-0.14,0-0.301,0-0.45l0.289-15.661
		c0.768-0.913,1.217-1.665,1.819-2.416c0.443-0.63,1.048-1.215,1.489-1.523c0.477-0.449,0.919-0.745,1.371-0.9
		c0.443-0.146,0.912-0.294,1.369-0.294c0.294,0.146,0.603,0.146,0.894,0.146c0.301,0.146,0.604,0.146,0.911,0.301
		c0.301,0,0.449,0.147,0.744,0.298c0.161,0,0.302,0,0.457,0s0.309,0,0.309,0c0.141-0.148,0.141-0.298,0.296-0.452
		c0-0.146,0-0.295,0-0.609c0-0.146,0.14-0.591,0.14-0.893C334.353,448.563,334.353,448.267,334.353,447.973z"/>
	
		<path fill="#010101" stroke="#010101" stroke-width="0.0312" stroke-linecap="round" stroke-linejoin="round" stroke-miterlimit="10" d="
		M339.185,441.785c-0.147,0.294-0.296,0.442-0.296,0.604c0,0.147,0,0.147,0.148,0.309c0.147,0,0.303,0.147,0.449,0.147
		c0.298,0.153,0.604,0.153,0.899,0.153c0.462,0,0.751,0,0.911-0.153c0.29,0,0.444,0,0.604-0.147c0.155,0,0.296-0.161,0.45-0.161
		c0-0.147,0.162-0.309,0.309-0.458l4.662-6.332c0.162-0.147,0.302-0.296,0.302-0.443c0-0.14,0-0.14-0.14-0.309
		c-0.162-0.141-0.309-0.309-0.609-0.309c-0.302,0-0.746,0-1.202,0c-0.442,0-0.905,0-1.216,0c-0.296,0-0.456,0.168-0.75,0.168
		c-0.147,0.141-0.303,0.141-0.457,0.31c-0.147,0.14-0.296,0.288-0.296,0.436L339.185,441.785z M343.561,447.355
		c0-0.147-0.153-0.309-0.153-0.443c-0.155,0-0.155-0.146-0.303-0.297c-0.146,0-0.444,0-0.751-0.147c-0.297,0-0.612,0-1.054,0
		c-0.451,0-0.76,0-1.048,0.147c-0.315,0-0.468,0-0.604,0.148c-0.308,0-0.308,0.147-0.463,0.282c0,0,0,0.161,0,0.309l0.302,23.821
		c0,0.161,0,0.301,0,0.301c0.161,0.168,0.161,0.314,0.45,0.314c0.154,0.149,0.315,0.149,0.604,0.149c0.309,0,0.6,0,1.048,0
		c0.469,0,0.766,0,1.072,0c0.298,0,0.592-0.149,0.747-0.149c0.153-0.146,0.301-0.146,0.301-0.314c0,0,0.141-0.14,0.141-0.301
		L343.561,447.355z"/>
	
		<path fill="#010101" stroke="#010101" stroke-width="0.0312" stroke-linecap="round" stroke-linejoin="round" stroke-miterlimit="10" d="
		M365.873,464.548c-0.899,1.215-1.959,2.129-2.859,2.711c-1.059,0.764-2.112,1.073-3.168,1.073
		c-1.509,0.141-2.563-0.161-3.322-0.926c-0.898-0.59-1.36-1.646-1.36-2.858c-0.142-0.752,0-1.356,0.313-1.946
		c0.147-0.618,0.597-1.056,1.202-1.53c0.604-0.442,1.209-0.731,2.107-1.033c0.911-0.175,1.965-0.31,3.167-0.457l3.772-0.161
		L365.873,464.548z M369.796,454.012c-0.151-1.523-0.313-2.726-0.762-3.778c-0.438-1.207-1.043-2.113-1.809-2.725
		c-0.75-0.743-1.797-1.348-3.019-1.657c-1.193-0.282-2.557-0.45-4.361-0.282c-0.906,0-1.824,0.135-2.726,0.282
		c-0.893,0.31-1.644,0.619-2.408,0.765c-0.737,0.298-1.504,0.739-1.947,1.048c-0.603,0.309-1.072,0.604-1.215,0.898
		c-0.308,0.161-0.457,0.464-0.457,0.766c0,0.147,0,0.591,0,0.905c0,0.295,0,0.597,0,0.745c0.148,0.308,0.148,0.449,0.302,0.617
		c0,0.141,0.155,0.141,0.298,0.288c0,0,0.153,0.148,0.301,0c0.301,0,0.623-0.146,0.91-0.288c0.458-0.309,1.068-0.617,1.652-1.067
		c0.604-0.295,1.361-0.609,2.275-0.91c0.737-0.29,1.791-0.438,2.865-0.591c0.897,0,1.804,0.152,2.559,0.301
		c0.602,0.147,1.206,0.591,1.656,0.905c0.456,0.449,0.905,1.054,1.058,1.799c0.302,0.611,0.458,1.51,0.458,2.423v1.812l-3.172,0.147
		c-1.954,0.146-3.633,0.449-4.975,0.751c-1.516,0.457-2.725,1.054-3.764,1.658c-0.897,0.758-1.67,1.669-2.274,2.557
		c-0.451,1.053-0.591,2.26-0.591,3.623c0,1.195,0.297,2.107,0.745,3.018c0.45,0.907,1.06,1.66,1.812,2.257
		c0.767,0.603,1.665,0.898,2.712,1.2c0.912,0.315,2.101,0.464,3.315,0.315c1.516,0,2.864-0.456,4.074-1.061
		c1.199-0.764,2.416-1.636,3.321-2.852l0.141,2.397c0,0.301,0.168,0.456,0.3,0.456c0,0.146,0.315,0.146,0.604,0.295
		c0.162,0,0.611,0,1.067,0c0.45,0,0.737-0.146,1.053-0.146c0.297-0.147,0.458-0.147,0.599-0.301c0.147-0.137,0.147-0.302,0.147-0.45
		L369.796,454.012z"/>
	
		<path fill="#010101" stroke="#010101" stroke-width="0.0312" stroke-linecap="round" stroke-linejoin="round" stroke-miterlimit="10" d="
		M411.713,463.347c0-0.301-0.162-0.437-0.162-0.612c-0.155-0.135-0.289-0.135-0.443-0.302c-0.146,0-0.146,0-0.301,0l-13.575,1.82
		l-1.657-12.221l11.457-1.504c0.154,0,0.299-0.146,0.299-0.146c0.163-0.147,0.309-0.147,0.309-0.301
		c0-0.161,0.155-0.462,0.155-0.604c0-0.296,0-0.604-0.155-0.912c0-0.296,0-0.591-0.146-0.753c0-0.3-0.163-0.455-0.308-0.602
		c0-0.162-0.154-0.296-0.297-0.296c-0.147,0-0.147,0-0.308,0l-11.448,1.5l-1.511-10.682l13.407-1.838c0,0,0.155,0,0.301-0.148
		c0.16-0.146,0.16-0.146,0.308-0.295c0-0.288,0-0.457,0-0.598c0-0.309,0-0.604,0-0.899c0-0.314-0.147-0.623-0.147-0.919
		c-0.16-0.14-0.16-0.457-0.306-0.589c-0.155-0.177-0.155-0.177-0.296-0.309c-0.147,0-0.31,0-0.451,0l-16.139,2.252
		c-0.45,0-0.744,0.155-1.054,0.464c-0.303,0.31-0.457,0.893-0.457,1.495l4.226,30.468c0,0.59,0.296,1.064,0.745,1.354
		c0.311,0.161,0.766,0.302,1.217,0.302l16.285-2.274c0.135,0,0.29-0.147,0.449-0.147c0-0.148,0.147-0.29,0.147-0.443
		c0.14-0.148,0.14-0.297,0.14-0.604c0-0.161,0-0.457-0.14-0.75C411.858,463.796,411.858,463.487,411.713,463.347z"/>
	
		<path fill="#010101" stroke="#010101" stroke-width="0.0312" stroke-linecap="round" stroke-linejoin="round" stroke-miterlimit="10" d="
		M417.744,428.215c0,0-0.154-0.152-0.154-0.295c-0.142,0-0.301-0.154-0.456-0.154s-0.458,0-0.752,0c-0.154,0-0.604,0-1.055,0.154
		c-0.301,0-0.752,0.142-1.047,0.142c-0.162,0.153-0.47,0.153-0.604,0.301c-0.154,0.147-0.154,0.147-0.309,0.309
		c0,0.146,0,0.309,0,0.457l6.343,34.813c0,0.169,0.133,0.31,0.133,0.457c0.155,0,0.303,0.147,0.464,0.147c0.141,0,0.301,0,0.598,0
		c0.302,0,0.75,0,1.059-0.147c0.451,0,0.894-0.146,1.055-0.146c0.289-0.142,0.604-0.31,0.752-0.31
		c0.147-0.147,0.147-0.303,0.302-0.303c0-0.152,0-0.294,0-0.449L417.744,428.215z"/>
	
		<path fill="#010101" stroke="#010101" stroke-width="0.0312" stroke-linecap="round" stroke-linejoin="round" stroke-miterlimit="10" d="
		M433.869,431.236c-0.146,0.155-0.146,0.45-0.146,0.59c0,0.162,0.146,0.162,0.146,0.311c0.148,0,0.31,0,0.605,0
		c0.153,0,0.457,0,0.905-0.148c0.307,0,0.603-0.162,0.904-0.162c0.147-0.14,0.309-0.14,0.443-0.281
		c0.161-0.153,0.316-0.153,0.316-0.309c0.141-0.146,0.302-0.308,0.302-0.462l3.315-7.073c0.146-0.314,0.146-0.462,0.146-0.623
		c0-0.135-0.146-0.283-0.302-0.283c-0.147-0.146-0.295-0.146-0.604-0.146c-0.289,0-0.744,0.146-1.206,0.146
		c-0.452,0.148-0.759,0.283-1.049,0.283c-0.301,0.161-0.604,0.309-0.759,0.309c-0.161,0.161-0.296,0.314-0.457,0.47
		c0,0.147-0.147,0.296-0.147,0.578L433.869,431.236z M432.528,447.047c-0.161-0.886-0.161-1.947-0.161-2.844
		c0.161-0.914,0.301-1.814,0.75-2.566c0.449-0.757,0.898-1.517,1.671-1.966c0.59-0.59,1.495-1.041,2.558-1.348
		c2.106-0.456,3.765-0.154,5.125,0.898c1.362,1.066,2.262,2.71,2.711,4.98L432.528,447.047z M449.559,443.584
		c-0.301-1.505-0.912-2.859-1.656-4.061c-0.605-1.2-1.51-2.274-2.571-3.013c-1.046-0.911-2.262-1.347-3.623-1.656
		c-1.495-0.309-3.153-0.309-4.98,0.141c-1.643,0.457-3.161,1.048-4.359,1.967c-1.216,0.906-2.263,1.979-2.859,3.329
		c-0.766,1.347-1.208,2.865-1.369,4.664c-0.154,1.663,0,3.461,0.45,5.429c0.464,2.107,1.207,3.926,1.972,5.423
		c0.9,1.51,1.969,2.569,3.162,3.469c1.209,0.766,2.711,1.355,4.215,1.503c1.517,0.155,3.322,0,5.132-0.283
		c1.218-0.321,2.113-0.63,3.162-1.072c0.919-0.283,1.671-0.765,2.415-1.048c0.611-0.443,1.216-0.752,1.656-1.059
		c0.457-0.452,0.604-0.592,0.76-0.753c0,0,0.14-0.147,0.14-0.296c0-0.161,0-0.321,0-0.461c0,0,0-0.148,0-0.437
		c0-0.161-0.14-0.309-0.14-0.47c0-0.443-0.155-0.591-0.155-0.886c-0.147-0.168-0.147-0.309-0.296-0.47c0,0-0.153-0.162-0.309-0.162
		c0,0-0.141-0.134-0.296,0c-0.146,0-0.449,0.162-0.911,0.464c-0.296,0.314-0.752,0.61-1.35,0.904
		c-0.597,0.458-1.354,0.767-2.113,1.196c-0.752,0.32-1.799,0.616-2.865,0.917c-1.349,0.302-2.556,0.452-3.609,0.148
		c-1.066-0.148-1.974-0.45-2.873-1.065c-0.751-0.577-1.354-1.349-1.812-2.404c-0.457-0.897-0.907-2.113-1.202-3.309l15.219-3.616
		c0.458,0,0.767-0.308,1.067-0.617c0.303-0.431,0.303-0.9,0.142-1.651L449.559,443.584z"/>
	
		<path fill="#010101" stroke="#010101" stroke-width="0.0312" stroke-linecap="round" stroke-linejoin="round" stroke-miterlimit="10" d="
		M475.637,445.569c-0.155-0.168-0.155-0.47-0.298-0.618c-0.154-0.161-0.154-0.161-0.309-0.306c-0.146,0-0.295,0-0.295,0
		c-0.298,0.145-0.457,0.306-0.746,0.756c-0.322,0.45-0.61,0.907-1.072,1.364c-0.449,0.59-0.898,1.044-1.664,1.648
		c-0.597,0.459-1.335,0.914-2.41,1.204c-0.893,0.301-1.952,0.301-2.858,0.301c-0.897-0.147-1.649-0.591-2.414-1.195
		c-0.753-0.457-1.498-1.368-2.107-2.414c-0.604-0.906-1.055-2.255-1.511-3.771c-0.898-2.866-1.047-5.288-0.455-7.233
		c0.61-1.818,1.966-3.034,3.925-3.616c1.057-0.296,1.953-0.451,2.719-0.296c0.751,0,1.495,0.153,2.105,0.296
		c0.599,0.14,1.068,0.45,1.511,0.582c0.456,0.177,0.758,0.177,1.046,0.177c0.162-0.177,0.303-0.309,0.451-0.619
		c0-0.282,0-0.736-0.147-1.489c-0.141-0.308-0.302-0.462-0.302-0.765c-0.146-0.147-0.146-0.296-0.288-0.442
		c-0.147-0.147-0.147-0.309-0.303-0.309c-0.158-0.147-0.294-0.309-0.609-0.457c-0.154-0.147-0.604-0.301-1.202-0.443
		c-0.449-0.155-1.059-0.155-1.663-0.296c-0.753,0-1.363,0-2.1,0c-0.766,0.14-1.518,0.296-2.263,0.437
		c-1.516,0.449-2.726,1.215-3.925,2.12c-1.209,0.745-2.122,1.954-2.704,3.301c-0.611,1.202-1.066,2.865-1.066,4.53
		c0,1.799,0.301,3.919,0.905,6.188c0.61,1.959,1.348,3.606,2.261,4.978c0.9,1.348,1.945,2.558,3.013,3.309
		c1.214,0.758,2.563,1.215,3.918,1.356c1.504,0.167,3.014,0,4.672-0.464c0.764-0.275,1.516-0.575,2.254-0.893
		c0.766-0.457,1.362-0.751,1.813-1.202c0.605-0.457,1.067-0.905,1.517-1.368c0.451-0.443,0.758-0.893,0.906-1.195
		c0.146-0.161,0.146-0.457,0.308-0.604c0,0,0-0.147,0-0.311c0-0.146,0-0.454-0.161-0.602c0-0.296,0-0.442-0.146-0.737
		C475.79,446.161,475.79,445.852,475.637,445.569z"/>
	
		<path fill="#010101" stroke="#010101" stroke-width="0.0312" stroke-linecap="round" stroke-linejoin="round" stroke-miterlimit="10" d="
		M494.183,441.188c-0.154-0.309-0.302-0.464-0.302-0.464c-0.161-0.14-0.161-0.14-0.301-0.14c0,0-0.147,0-0.308,0
		c0,0-0.14,0.14-0.296,0.296c-0.147,0-0.296,0.141-0.611,0.451c-0.135,0.161-0.443,0.306-0.591,0.455
		c-0.309,0.147-0.611,0.296-1.06,0.443c-1.2,0.47-2.106,0.309-2.865-0.296c-0.757-0.603-1.361-1.644-1.945-3.162l-4.544-12.514
		l5.894-2.105c0.147-0.148,0.3-0.297,0.44-0.605c0-0.309-0.14-0.753-0.293-1.37c-0.147-0.308-0.309-0.59-0.309-0.737
		c-0.142-0.307-0.29-0.469-0.451-0.61c0,0-0.153-0.161-0.289-0.161c-0.161,0-0.315,0-0.449,0l-5.745,2.128l-1.805-5.288
		c-0.154-0.147-0.154-0.302-0.303-0.302c-0.153-0.154-0.153-0.154-0.456-0.154c-0.146,0-0.297,0-0.598,0
		c-0.302,0.154-0.611,0.154-1.059,0.309c-0.457,0.147-0.753,0.309-1.055,0.459c-0.147,0.146-0.444,0.294-0.444,0.442
		c-0.16,0.147-0.321,0.147-0.321,0.309c0,0.145,0,0.306,0,0.306l1.966,5.424l-3.167,1.061c-0.146,0.146-0.146,0.146-0.296,0.294
		c0,0-0.153,0.148-0.153,0.297c0,0.161,0,0.469,0,0.617c0.153,0.297,0.153,0.592,0.302,0.899c0.146,0.598,0.449,0.898,0.609,1.208
		c0.288,0.147,0.61,0.309,0.737,0.147l3.181-1.194l4.671,13.099c0.444,1.354,1.055,2.429,1.652,3.329
		c0.604,0.898,1.214,1.516,1.966,1.946c0.766,0.47,1.665,0.616,2.57,0.616s1.954-0.146,3.161-0.616
		c0.309-0.149,0.76-0.298,1.048-0.431c0.463-0.168,0.766-0.47,1.066-0.617c0.288-0.161,0.597-0.308,0.751-0.604
		c0.309-0.146,0.449-0.457,0.449-0.604c0.155-0.161,0.155-0.457,0.155-0.743c0-0.303-0.155-0.612-0.296-1.068
		C494.33,441.637,494.183,441.329,494.183,441.188z"/>
	
		<path fill="#010101" stroke="#010101" stroke-width="0.0312" stroke-linecap="round" stroke-linejoin="round" stroke-miterlimit="10" d="
		M505.188,414.198c0-0.154-0.161-0.303-0.161-0.457c-0.135-0.155-0.135-0.155-0.29-0.316c0,0-0.146,0-0.294-0.146
		c0,0-0.309,0-0.604,0c-0.155,0-0.462,0-0.759,0.146c-0.463,0-0.752,0.161-0.913,0.161c-0.306,0.155-0.604,0.155-0.758,0.309
		c-0.449,0.148-0.897,0.45-1.341,0.739c-0.463,0.307-0.767,0.771-1.209,1.208c-0.301,0.616-0.61,1.207-0.912,1.973
		c-0.296,0.752-0.591,1.806-0.744,2.852l-1.362-3.161c0-0.147-0.153-0.302-0.153-0.302c-0.148,0-0.297-0.154-0.459-0.154
		c-0.14,0-0.288,0-0.598,0.154c-0.301,0-0.604,0.154-0.913,0.302c-0.447,0.161-0.742,0.309-0.891,0.457s-0.303,0.147-0.464,0.297
		c-0.134,0.146-0.134,0.308-0.288,0.455c0,0,0.154,0.161,0.154,0.309l9.18,21.998c0,0.168,0.154,0.168,0.314,0.309
		c0,0,0.136,0,0.297,0c0.146,0,0.45,0,0.759-0.141c0.301,0,0.598-0.168,0.904-0.309c0.451-0.155,0.76-0.296,1.054-0.449
		c0.29-0.142,0.451-0.311,0.599-0.443c0-0.177,0.154-0.177,0.154-0.316c0-0.147,0-0.302,0-0.449l-6.188-14.321
		c0.302-1.201,0.463-2.107,0.767-3.033c0.146-0.736,0.443-1.489,0.604-1.946c0.288-0.604,0.59-1.047,0.893-1.354
		c0.297-0.308,0.764-0.604,1.215-0.752c0.301-0.146,0.598-0.309,0.905-0.309c0.297,0,0.605-0.146,0.906-0.146s0.436,0,0.744,0
		c0.154,0,0.301,0,0.457-0.155c0.141,0,0.302-0.153,0.302-0.153c0-0.14,0-0.296,0-0.443c0-0.148,0-0.289-0.161-0.604
		c0-0.307-0.141-0.597-0.297-0.893C505.49,414.635,505.336,414.347,505.188,414.198z"/>
	
		<path fill="#010101" stroke="#010101" stroke-width="0.0312" stroke-linecap="round" stroke-linejoin="round" stroke-miterlimit="10" d="
		M508.96,400.623c-0.613-0.147-1.202,0-2.255,0.458c-0.912,0.456-1.517,0.897-1.678,1.341c-0.135,0.463,0,1.221,0.463,2.107
		c0.443,0.911,0.905,1.523,1.362,1.664c0.457,0.174,1.201,0,2.107-0.457c0.904-0.444,1.509-0.888,1.649-1.348
		c0.302-0.591,0.169-1.203-0.3-2.102C509.865,401.387,509.409,400.771,508.96,400.623z M513.327,409.655
		c-0.152-0.153-0.152-0.153-0.293-0.281c-0.162,0-0.162,0-0.464,0c-0.14,0-0.295,0-0.582,0.128c-0.31,0-0.613,0.153-1.075,0.314
		c-0.303,0.321-0.604,0.468-0.893,0.604c-0.155,0.161-0.456,0.301-0.456,0.457c-0.155,0.153-0.31,0.153-0.31,0.309
		c0,0.161,0,0.302,0.154,0.449l10.247,21.4c0,0.16,0.161,0.16,0.161,0.296c0.153,0,0.302,0,0.449,0c0.148,0,0.451,0,0.605-0.136
		c0.301,0,0.604-0.16,1.041-0.3c0.468-0.316,0.771-0.449,0.918-0.625c0.296-0.133,0.457-0.281,0.598-0.442
		c0.161,0,0.161-0.14,0.161-0.282c0-0.153,0-0.309,0-0.457L513.327,409.655z"/>
	
		<path fill="#010101" stroke="#010101" stroke-width="0.0312" stroke-linecap="round" stroke-linejoin="round" stroke-miterlimit="10" d="
		M544.539,414.802c-0.147-0.167-0.296-0.314-0.457-0.457c-0.155-0.146-0.155-0.146-0.296-0.146c-0.155,0-0.309,0-0.309,0
		c-0.148,0.146-0.451,0.437-0.598,0.914c-0.147,0.442-0.45,0.891-0.752,1.494c-0.308,0.597-0.597,1.208-1.201,1.96
		c-0.457,0.603-1.208,1.209-2.113,1.663c-0.913,0.437-1.806,0.739-2.725,0.9c-0.898,0-1.8-0.161-2.559-0.605
		c-0.903-0.443-1.805-1.066-2.563-1.959c-0.899-0.752-1.658-1.961-2.416-3.315c-1.347-2.552-2.099-4.968-1.798-6.953
		c0.147-1.932,1.193-3.302,3.008-4.35c0.903-0.455,1.643-0.764,2.569-0.911c0.752-0.153,1.495-0.153,2.107-0.153
		c0.604,0.153,1.207,0.153,1.651,0.301c0.449,0,0.765,0,0.918-0.147c0.297,0,0.297-0.296,0.297-0.618
		c0-0.296-0.148-0.745-0.45-1.342c-0.153-0.308-0.315-0.457-0.457-0.75c0-0.149-0.148-0.309-0.308-0.459
		c-0.141,0-0.302-0.147-0.302-0.147c-0.141-0.153-0.449-0.153-0.744-0.314c-0.296,0-0.604-0.147-1.216-0.147c-0.596,0-1.2,0-1.813,0
		c-0.61,0.147-1.201,0.309-1.944,0.462c-0.76,0.298-1.364,0.606-1.967,0.899c-1.503,0.764-2.551,1.799-3.462,2.873
		c-1.054,1.033-1.666,2.388-1.96,3.758c-0.303,1.354-0.457,3.031-0.161,4.817c0.308,1.671,1.067,3.625,2.267,5.598
		c0.899,1.791,2.115,3.302,3.161,4.51c1.21,1.208,2.418,1.974,3.778,2.557c1.356,0.476,2.712,0.624,4.061,0.476
		c1.517-0.161,2.879-0.618,4.382-1.354c0.758-0.47,1.362-0.913,1.959-1.37c0.604-0.618,1.201-1.047,1.658-1.656
		c0.457-0.598,0.75-1.054,1.207-1.658c0.295-0.457,0.449-0.91,0.449-1.207c0.161-0.296,0.161-0.604,0.161-0.604
		c0-0.155,0-0.309,0-0.449c0-0.155-0.161-0.303-0.161-0.592c-0.154-0.168-0.296-0.475-0.449-0.623
		C544.841,415.406,544.688,415.112,544.539,414.802z"/>
	
		<path fill="#010101" stroke="#010101" stroke-width="0.0312" stroke-linecap="round" stroke-linejoin="round" stroke-miterlimit="10" d="
		M561.127,402.422c-0.303,1.671-0.611,3.019-1.061,4.081c-0.443,0.897-1.201,1.798-2.099,2.415c-1.216,0.898-2.416,1.22-3.471,1.055
		c-1.054-0.154-1.959-0.759-2.571-1.819c-0.449-0.584-0.758-1.207-0.758-1.784c-0.141-0.63,0-1.37,0.309-1.979
		c0.161-0.59,0.599-1.35,1.202-1.968c0.604-0.744,1.509-1.341,2.423-1.946l3.153-2.12L561.127,402.422z M558.865,391.577
		c-0.766-1.208-1.664-2.268-2.557-3.013c-0.913-0.611-1.813-1.047-2.865-1.363c-1.061-0.16-2.275-0.16-3.469,0.316
		c-1.202,0.288-2.422,0.894-3.928,1.939c-0.759,0.469-1.508,1.058-2.12,1.663c-0.598,0.753-1.194,1.37-1.651,1.96
		c-0.456,0.604-0.897,1.208-1.209,1.813c-0.301,0.598-0.455,1.06-0.597,1.369c0,0.443,0,0.591,0,0.905
		c0.142,0.303,0.296,0.604,0.597,0.894c0.155,0.296,0.31,0.457,0.464,0.604c0.141,0.161,0.289,0.316,0.448,0.316
		c0.148,0.14,0.297,0.14,0.451,0.14c0,0,0.146,0,0.302-0.14c0.146-0.155,0.295-0.463,0.597-0.92
		c0.148-0.442,0.458-0.894,0.914-1.503c0.294-0.604,0.75-1.354,1.36-1.978c0.604-0.732,1.202-1.35,2.102-1.938
		c0.905-0.62,1.67-1.062,2.416-1.21c0.597-0.154,1.354-0.154,1.952,0c0.604,0.147,1.209,0.444,1.662,0.898
		c0.613,0.457,1.202,1.054,1.657,1.813l1.054,1.503l-2.711,1.973c-1.51,1.046-2.872,2.107-3.912,3.154
		c-0.919,1.053-1.825,2.268-2.273,3.321c-0.457,1.201-0.592,2.275-0.457,3.309c0,1.209,0.457,2.255,1.214,3.478
		c0.598,0.905,1.363,1.678,2.261,2.112c0.76,0.598,1.657,0.905,2.564,1.055c1.054,0,1.968,0,3.021-0.302
		c1.046-0.315,2.1-0.904,3.16-1.494c1.06-0.9,2.121-1.827,2.717-3.169c0.752-1.222,1.209-2.576,1.504-4.082l1.355,1.948
		c0,0.146,0.154,0.309,0.302,0.309c0.301,0,0.457,0,0.751-0.162c0.161-0.146,0.451-0.289,0.905-0.429
		c0.458-0.297,0.605-0.612,0.906-0.78c0.154-0.146,0.296-0.282,0.296-0.443c0-0.288,0-0.443-0.141-0.591L558.865,391.577z"/>
</g>
<g>
	
		<path fill="#010101" stroke="#010101" stroke-width="0.0312" stroke-linecap="round" stroke-linejoin="round" stroke-miterlimit="10" d="
		M120.255,80.231c-0.146-0.154-0.296-0.302-0.296-0.439c-0.14-0.158-0.295-0.158-0.449-0.316c0,0-0.14,0-0.302,0.158
		c-0.154,0-0.449,0.296-0.758,0.899c-0.296,0.459-0.751,1.05-1.201,1.666c-0.456,0.588-1.207,1.35-1.967,2.105
		c-0.898,0.601-1.805,1.187-3.16,1.809c-1.503,0.587-2.859,0.897-4.368,0.897c-1.362-0.15-2.717-0.46-3.933-1.207
		c-1.201-0.601-2.395-1.664-3.462-3.017c-1.053-1.511-1.967-3.153-2.865-5.13c-0.912-2.104-1.362-3.913-1.503-5.721
		c-0.309-1.813-0.147-3.312,0.141-4.822c0.45-1.346,1.06-2.553,1.966-3.616c0.899-1.065,2.113-1.978,3.47-2.571
		c1.354-0.452,2.416-0.761,3.47-0.909c1.046,0,2.112,0,2.858,0.148c0.758,0.145,1.516,0.309,1.966,0.309
		c0.604,0.144,1.048,0.308,1.208,0.144c0.154,0,0.288-0.144,0.288-0.308c0,0,0.161-0.145,0.161-0.433
		c0-0.155-0.161-0.296-0.161-0.607c0-0.162-0.134-0.461-0.288-0.759c-0.162-0.281-0.309-0.598-0.309-0.764
		c-0.14-0.278-0.295-0.433-0.45-0.584c0-0.14-0.161-0.14-0.296-0.31c0-0.14-0.302-0.14-0.604-0.308
		c-0.308-0.148-0.758-0.293-1.516-0.447c-0.745,0-1.503,0-2.41,0c-0.745,0-1.664,0.154-2.564,0.299
		c-1.046,0.148-1.958,0.456-2.857,0.917c-2.12,0.916-3.771,1.955-5.289,3.468c-1.348,1.503-2.402,3.15-3.007,5.13
		c-0.611,1.95-0.765,4.061-0.611,6.473c0.155,2.269,0.752,4.839,1.819,7.405c1.2,2.553,2.402,4.657,3.926,6.466
		c1.35,1.651,3.007,3.007,4.664,3.768c1.806,0.913,3.617,1.358,5.582,1.358c1.953,0,3.92-0.445,6.02-1.358
		c1.214-0.454,2.269-1.06,3.175-1.648c0.904-0.614,1.65-1.365,2.254-1.965c0.611-0.607,1.221-1.208,1.511-1.799
		c0.456-0.473,0.752-0.922,0.752-1.198c0.153-0.17,0.153-0.318,0.153-0.486c0-0.141,0-0.282,0-0.436c0-0.148,0-0.456-0.153-0.597
		c0-0.167-0.147-0.458-0.147-0.758C120.564,80.849,120.409,80.535,120.255,80.231z"/>
	
		<path fill="#010101" stroke="#010101" stroke-width="0.0312" stroke-linecap="round" stroke-linejoin="round" stroke-miterlimit="10" d="
		M125.248,69.072c-0.314-0.906-0.456-1.956-0.456-2.861c0-0.914,0.141-1.814,0.456-2.57c0.288-0.914,0.745-1.504,1.49-2.272
		c0.61-0.584,1.362-1.057,2.422-1.489c1.958-0.607,3.765-0.456,5.127,0.433c1.496,0.917,2.556,2.415,3.16,4.544L125.248,69.072z
		 M141.823,63.935c-0.443-1.352-1.208-2.708-1.967-3.915c-0.894-1.208-1.813-2.105-3.014-2.704c-1.06-0.769-2.409-1.216-3.771-1.358
		c-1.489-0.145-3.007,0.144-4.818,0.758c-1.651,0.449-3.007,1.35-4.222,2.247c-1.047,1.058-1.966,2.265-2.57,3.765
		c-0.603,1.362-0.897,2.88-0.897,4.688c0.147,1.657,0.449,3.479,1.059,5.418c0.752,1.974,1.511,3.765,2.563,5.118
		c1.061,1.382,2.102,2.426,3.464,3.188c1.207,0.591,2.71,1.063,4.221,1.063c1.657,0,3.315-0.304,5.126-0.923
		c1.201-0.285,2.114-0.743,3.014-1.201c0.899-0.443,1.664-0.919,2.262-1.358c0.758-0.46,1.201-0.913,1.671-1.205
		c0.295-0.443,0.597-0.604,0.597-0.749c0-0.168,0.147-0.308,0.147-0.459c0,0,0-0.145,0-0.299c0-0.145,0-0.31-0.147-0.453
		c0-0.164,0-0.313-0.148-0.607c0-0.293-0.154-0.454-0.309-0.762c0-0.141-0.14-0.296-0.301-0.439l-0.148-0.145
		c-0.161,0-0.302,0-0.463,0c-0.141,0-0.45,0.288-0.743,0.584c-0.311,0.309-0.753,0.621-1.364,1.057
		c-0.448,0.456-1.208,0.919-1.951,1.354c-0.753,0.474-1.664,0.917-2.717,1.208c-1.356,0.452-2.558,0.621-3.625,0.621
		c-1.053-0.167-2.099-0.476-2.858-0.912c-0.906-0.443-1.511-1.208-2.107-2.124c-0.604-0.896-1.201-2.094-1.517-3.299l14.775-4.977
		c0.45-0.157,0.76-0.467,0.914-0.764c0.295-0.438,0.295-0.891,0-1.648L141.823,63.935z"/>
	
		<path fill="#010101" stroke="#010101" stroke-width="0.0312" stroke-linecap="round" stroke-linejoin="round" stroke-miterlimit="10" d="
		M168.203,55.647c-0.436-1.664-0.9-3.013-1.49-4.073c-0.609-1.046-1.369-1.946-2.274-2.711c-0.907-0.587-1.96-1.063-3.162-1.349
		c-1.215-0.309-2.563-0.164-4.066,0.284c-1.376,0.309-2.57,1.063-3.63,2.12c-1.048,1.066-2.101,2.416-3.013,4.235l-0.752-3.027
		c-0.148-0.141-0.148-0.295-0.302-0.295c0-0.144-0.148-0.144-0.295-0.304c-0.161,0-0.302,0-0.617,0
		c-0.297,0.161-0.591,0.161-0.899,0.304c-0.45,0.154-0.752,0.154-1.047,0.295c-0.155,0-0.308,0.155-0.457,0.299
		c-0.146,0.148-0.308,0.148-0.308,0.316c0,0.141,0,0.302,0,0.452l6.335,23.048c0,0,0.154,0.147,0.154,0.313
		c0.153,0,0.303,0.144,0.45,0.144c0.146,0,0.463,0,0.752,0c0.313-0.144,0.61-0.144,1.059-0.308c0.297-0.147,0.745-0.291,0.906-0.291
		c0.289-0.151,0.611-0.293,0.611-0.293c0.128-0.151,0.289-0.313,0.289-0.454c0.161,0,0.161-0.167,0-0.309l-4.361-16.13
		c0.744-1.814,1.496-3.167,2.394-4.221c0.906-1.06,1.807-1.65,2.872-1.953c0.753-0.315,1.672-0.315,2.269-0.167
		c0.751,0.167,1.35,0.47,1.952,0.905c0.611,0.46,1.054,1.07,1.51,1.822c0.302,0.744,0.752,1.797,1.055,3.168l3.771,13.424
		c0,0.145,0.162,0.295,0.162,0.295c0.134,0.135,0.286,0.135,0.441,0.135c0.147,0,0.297,0,0.611,0c0.295,0,0.744-0.135,1.046-0.135
		c0.45-0.15,0.766-0.295,1.053-0.459c0.302,0,0.45-0.15,0.611-0.31c0.147-0.151,0.302-0.151,0.302-0.295c0-0.15,0-0.293,0-0.445
		L168.203,55.647z"/>
	
		<path fill="#010101" stroke="#010101" stroke-width="0.0312" stroke-linecap="round" stroke-linejoin="round" stroke-miterlimit="10" d="
		M190.984,62.878c0-0.295-0.162-0.443-0.162-0.443c-0.146-0.146-0.146-0.146-0.295-0.298c-0.154,0-0.154,0-0.308,0
		c-0.141,0.151-0.297,0.151-0.45,0.298c-0.153,0.148-0.302,0.148-0.45,0.292c-0.301,0.151-0.449,0.313-0.751,0.461
		c-0.309,0.158-0.751,0.312-1.06,0.312c-1.194,0.298-2.274,0.141-2.872-0.621c-0.59-0.741-1.193-1.796-1.502-3.455l-2.865-12.98
		l5.885-1.348c0.288,0,0.457-0.146,0.604-0.441c0-0.316,0-0.765-0.147-1.353c0-0.46-0.167-0.621-0.167-0.916
		c-0.128-0.155-0.288-0.299-0.288-0.45c-0.161-0.154-0.309-0.31-0.45-0.31c0,0-0.161,0-0.308,0l-6.026,1.358l-1.207-5.576
		c0-0.145,0-0.145-0.155-0.296c-0.154,0-0.31-0.14-0.45-0.14c-0.154,0-0.301,0-0.597,0c-0.308,0-0.603,0-1.053,0.14
		c-0.469,0.151-0.765,0.151-1.067,0.296c-0.296,0-0.449,0.148-0.597,0.296c-0.14,0.157-0.301,0.157-0.301,0.308
		c0,0.165,0,0.311,0,0.454l1.2,5.422l-3.161,0.766c-0.146,0-0.308,0.14-0.457,0.14c0,0.155-0.154,0.302-0.154,0.45
		c0,0.158,0,0.31,0,0.617c0,0.145,0,0.439,0.154,0.745c0.149,0.601,0.311,1.051,0.457,1.358c0.296,0.145,0.45,0.312,0.758,0.145
		l3.168-0.595l3.168,13.568c0.295,1.352,0.591,2.417,1.041,3.313c0.462,0.902,1.054,1.668,1.812,2.254
		c0.758,0.467,1.518,0.766,2.416,0.917c0.893,0.141,1.973,0.141,3.168-0.151c0.449-0.144,0.899-0.299,1.2-0.456
		c0.463-0.147,0.759-0.147,1.06-0.452c0.311-0.154,0.604-0.295,0.907-0.443c0.308-0.148,0.449-0.293,0.603-0.456
		c0-0.31,0.155-0.454,0.155-0.752c0-0.292-0.155-0.766-0.155-1.214C191.124,63.346,191.124,63.039,190.984,62.878z"/>
	
		<path fill="#010101" stroke="#010101" stroke-width="0.0312" stroke-linecap="round" stroke-linejoin="round" stroke-miterlimit="10" d="
		M206.364,38.916c-0.161-0.158-0.161-0.45-0.161-0.45c-0.141-0.144-0.141-0.288-0.141-0.288c-0.161-0.163-0.161-0.163-0.309-0.315
		c-0.161,0-0.301,0-0.61-0.158c-0.295,0-0.597,0-0.906,0c-0.287,0-0.591,0-0.892,0c-0.31,0-0.611,0-0.758,0.158
		c-0.45,0-1.055,0.15-1.498,0.46c-0.476,0.144-0.919,0.436-1.375,0.896c-0.436,0.462-0.894,1.051-1.362,1.66
		c-0.45,0.749-0.899,1.657-1.344,2.71l-0.597-3.472c0-0.148,0-0.148-0.154-0.293c0,0-0.161-0.144-0.322-0.144
		c-0.127-0.155-0.448-0.155-0.577-0.155c-0.322,0.155-0.609,0.155-1.073,0.155c-0.289,0.144-0.604,0.144-0.898,0.288
		c-0.31,0-0.458,0.148-0.611,0.299c-0.142,0-0.142,0.157-0.142,0.313c-0.153,0-0.153,0.154-0.153,0.297l4.381,23.371
		c0.147,0.148,0.147,0.315,0.147,0.315c0.147,0.141,0.302,0.141,0.444,0.293c0.161,0,0.449,0,0.771,0
		c0.129,0,0.597-0.151,0.899-0.151c0.45-0.14,0.9-0.14,1.047-0.308c0.309,0,0.611-0.148,0.758-0.306
		c0.161,0,0.161-0.154,0.296-0.292c0,0,0-0.158,0-0.298l-2.871-15.392c0.469-1.042,0.771-1.963,1.221-2.708
		c0.295-0.748,0.751-1.372,1.039-1.812c0.477-0.604,0.772-0.909,1.221-1.204c0.457-0.154,0.753-0.45,1.202-0.45
		c0.449-0.154,0.753-0.154,1.054-0.154c0.302,0,0.609,0.154,0.905,0.154s0.457,0,0.758,0c0.147,0.151,0.308,0.151,0.45,0.151
		c0.161-0.151,0.309-0.151,0.309-0.304c0.147,0,0.147-0.155,0.147-0.313c0-0.145,0-0.297,0-0.592c0-0.298-0.147-0.609-0.147-1.053
		C206.364,39.525,206.364,39.218,206.364,38.916z"/>
	
		<path fill="#010101" stroke="#010101" stroke-width="0.0312" stroke-linecap="round" stroke-linejoin="round" stroke-miterlimit="10" d="
		M230.932,50.528c0,1.214-0.297,2.243-0.906,3.166c-0.449,0.913-1.055,1.639-1.966,2.263c-0.899,0.591-1.967,0.897-3.153,1.066
		c-1.355,0.141-2.57,0.141-3.624-0.309c-1.061-0.315-1.812-0.902-2.557-1.669c-0.61-0.744-1.221-1.646-1.517-2.852
		c-0.448-1.067-0.745-2.275-0.906-3.634c-0.134-1.354-0.134-2.557,0-3.767c0-1.206,0.302-2.259,0.906-3.169
		c0.457-0.893,1.061-1.657,1.961-2.247c0.904-0.622,1.958-0.913,3.167-1.057c1.369-0.31,2.57-0.145,3.63,0.295
		c1.047,0.299,1.806,0.908,2.544,1.65c0.61,0.765,1.066,1.817,1.516,2.882c0.45,1.045,0.752,2.252,0.906,3.606
		C231.087,48.108,231.087,49.31,230.932,50.528z M233.943,40.579c-0.597-1.514-1.657-2.875-2.71-3.771
		c-1.055-0.908-2.41-1.672-3.928-1.956c-1.503-0.45-3.313-0.45-5.268-0.298c-1.967,0.298-3.771,0.898-5.134,1.795
		c-1.35,0.765-2.563,1.974-3.47,3.177c-0.751,1.353-1.354,2.859-1.65,4.504c-0.302,1.831-0.302,3.627,0,5.452
		c0.295,2.094,0.744,3.769,1.502,5.268c0.605,1.507,1.504,2.858,2.718,3.765c1.055,1.07,2.41,1.654,3.913,2.107
		c1.516,0.309,3.314,0.309,5.273,0.163c1.966-0.308,3.63-0.905,5.134-1.82c1.354-0.899,2.563-1.939,3.315-3.315
		c0.904-1.19,1.502-2.708,1.804-4.363c0.303-1.803,0.303-3.628,0-5.573C235.146,43.74,234.703,42.086,233.943,40.579z"/>
	
		<path fill="#010101" stroke="#010101" stroke-width="0.0312" stroke-linecap="round" stroke-linejoin="round" stroke-miterlimit="10" d="
		M270.576,48.108c-0.604,0.893-1.208,1.668-1.805,2.275c-0.61,0.603-1.061,1.19-1.657,1.499c-0.604,0.452-1.054,0.751-1.657,0.889
		c-0.457,0.319-1.054,0.319-1.658,0.319c-1.059,0.159-2.106-0.15-2.864-0.61c-0.752-0.436-1.503-1.197-1.96-1.951
		c-0.449-0.9-0.919-1.967-1.207-3.014c-0.161-1.214-0.302-2.419-0.45-3.627c0-1.046,0-2.262,0.147-3.309
		c0.141-1.055,0.456-2.114,0.913-3.022c0.449-0.899,1.054-1.657,1.805-2.104c0.752-0.601,1.651-0.898,2.717-1.051
		c1.195,0,2.403,0.297,3.611,1.051c1.052,0.608,2.261,1.661,3.617,3.164L270.576,48.108z M273.449,19.768
		c0-0.151,0-0.151-0.141-0.293c0-0.15-0.154-0.15-0.31-0.308c-0.161,0-0.456,0-0.764-0.151c-0.141,0-0.597,0-1.047,0
		c-0.449,0.151-0.738,0.151-1.06,0.151c-0.289,0.157-0.45,0.157-0.604,0.157c-0.154,0.15-0.296,0.292-0.296,0.292
		c-0.155,0.151-0.155,0.299-0.155,0.443l0.766,13.874c-1.214-1.212-2.415-1.953-3.624-2.561c-1.06-0.445-2.416-0.744-3.778-0.744
		c-1.65,0.144-3.16,0.592-4.382,1.214c-1.335,0.734-2.254,1.651-3.147,2.856c-0.758,1.201-1.355,2.71-1.657,4.367
		c-0.462,1.667-0.462,3.613-0.462,5.587c0.16,1.789,0.462,3.455,0.905,4.976c0.457,1.5,1.06,2.852,1.812,3.923
		c0.907,1.197,1.96,1.952,3.174,2.549c1.343,0.614,2.858,0.923,4.522,0.756c1.651,0,3.16-0.457,4.361-1.353
		c1.363-0.755,2.565-1.952,3.786-3.309l0.14,3.139c0,0.17,0.147,0.17,0.147,0.314c0.146,0.165,0.302,0.165,0.457,0.31
		c0.14,0,0.295,0,0.61,0c0.134,0.144,0.45,0.144,0.898,0c0.302,0,0.597,0,0.906,0c0.141-0.145,0.45-0.145,0.592-0.145
		c0.154-0.165,0.154-0.165,0.301-0.31c0-0.17,0-0.312,0-0.456L273.449,19.768z"/>
	
		<path fill="#010101" stroke="#010101" stroke-width="0.0312" stroke-linecap="round" stroke-linejoin="round" stroke-miterlimit="10" d="
		M286.117,40.733c0-1.054,0.289-1.976,0.598-2.871c0.302-0.89,0.597-1.656,1.207-2.242c0.611-0.768,1.21-1.382,2.113-1.687
		c0.752-0.439,1.658-0.595,2.718-0.595c2.101,0,3.765,0.595,4.826,1.966c1.046,1.353,1.496,3.16,1.496,5.429H286.117z
		 M303.452,41.173c0-1.492-0.154-2.996-0.59-4.364c-0.31-1.355-0.921-2.57-1.827-3.62c-0.904-0.903-1.959-1.815-3.328-2.417
		c-1.188-0.606-2.852-0.904-4.65-0.904c-1.813,0-3.33,0.298-4.824,0.904c-1.37,0.601-2.564,1.514-3.625,2.567
		c-0.898,1.215-1.798,2.561-2.255,4.218c-0.604,1.661-0.759,3.476-0.759,5.592c0,2.094,0.154,4.058,0.759,5.563
		c0.457,1.673,1.193,3.031,2.255,4.061c0.899,1.078,2.255,1.978,3.625,2.42c1.496,0.621,3.161,0.909,5.112,0.909
		c1.209,0,2.262-0.144,3.322-0.288c0.913-0.165,1.805-0.31,2.564-0.479c0.766-0.287,1.369-0.43,1.804-0.726
		c0.604-0.15,0.906-0.306,0.906-0.453c0.146,0,0.146-0.173,0.308-0.307c0,0,0-0.154,0.141-0.298c0-0.15,0-0.301,0-0.46
		c0-0.15,0-0.456,0-0.61c0-0.285,0-0.597,0-0.737c0-0.316,0-0.46-0.141-0.615c0-0.141-0.161-0.141-0.161-0.295
		c-0.146,0-0.295,0-0.295,0c-0.309,0-0.597,0-1.06,0.154c-0.295,0.297-0.899,0.439-1.504,0.756
		c-0.604,0.141-1.522,0.302-2.261,0.594c-0.905,0.145-1.959,0.145-3.162,0.145c-1.361,0-2.563-0.145-3.631-0.597
		c-0.897-0.309-1.643-0.896-2.394-1.668c-0.611-0.734-1.068-1.653-1.221-2.701c-0.289-1.074-0.444-2.272-0.444-3.628h15.676
		c0.456,0,0.758-0.147,1.209-0.442c0.296-0.296,0.45-0.765,0.45-1.51V41.173L303.452,41.173z"/>
	
		<path fill="#010101" stroke="#010101" stroke-width="0.0312" stroke-linecap="round" stroke-linejoin="round" stroke-miterlimit="10" d="
		M341.452,55.333c0-0.142-0.152-0.43-0.152-0.584c-0.16-0.141-0.16-0.141-0.301-0.292c-0.148-0.155-0.148-0.155-0.301-0.155
		l-13.57-1.053l1.06-12.217l11.462,0.902c0.135,0,0.135,0,0.289,0c0.153-0.154,0.315-0.154,0.315-0.31
		c0.134-0.157,0.134-0.301,0.289-0.594c0-0.155,0-0.454,0.155-0.765c0-0.299,0-0.587,0-0.889c0-0.313-0.155-0.463-0.155-0.622
		c-0.155-0.14-0.155-0.292-0.289-0.292c-0.162-0.145-0.162-0.145-0.315-0.145l-11.461-1.057l0.906-10.565l13.279,1.063
		c0.14,0,0.296,0,0.443,0c0.148-0.157,0.148-0.308,0.301-0.456c0,0,0.154-0.293,0.154-0.439c0.147-0.309,0.147-0.617,0.147-0.917
		c0-0.292,0-0.6,0-0.91c0-0.15,0-0.445-0.147-0.586c0-0.15-0.154-0.309-0.154-0.309c-0.152-0.151-0.301-0.151-0.449-0.151
		l-16.139-1.364c-0.443,0-0.739,0-1.209,0.309c-0.289,0.312-0.604,0.754-0.604,1.365l-2.564,30.444c0,0.584,0,1.208,0.47,1.507
		c0.302,0.293,0.598,0.459,1.046,0.459l16.294,1.35c0.134,0,0.288,0,0.443,0c0.153-0.148,0.302-0.314,0.302-0.456
		c0.14-0.138,0.14-0.293,0.3-0.443c0-0.31,0-0.618,0.153-0.909C341.452,55.957,341.452,55.647,341.452,55.333z"/>
	
		<path fill="#010101" stroke="#010101" stroke-width="0.0312" stroke-linecap="round" stroke-linejoin="round" stroke-miterlimit="10" d="
		M363.31,51.129c-0.148-0.744-0.613-1.5-1.055-2.128c-0.457-0.583-1.056-1.037-1.818-1.65c-0.591-0.436-1.349-0.745-2.1-1.205
		l-1.968-1.197c-0.744-0.296-1.348-0.755-1.812-1.209c-0.583-0.439-0.9-0.898-1.195-1.354c-0.31-0.604-0.457-1.061-0.31-1.806
		c0-0.463,0.155-0.899,0.464-1.361c0.141-0.46,0.591-0.753,0.905-0.896c0.451-0.31,0.901-0.46,1.495-0.618c0.604,0,1.203,0,1.968,0
		c0.898,0.158,1.511,0.309,2.107,0.618c0.759,0.295,1.207,0.594,1.656,0.896c0.451,0.308,0.752,0.462,1.048,0.752
		c0.314,0.147,0.462,0.299,0.612,0.299c0.152,0,0.302,0,0.302,0c0.152,0,0.301-0.151,0.301-0.299
		c0.146-0.146,0.146-0.289,0.146-0.444c0.146-0.308,0.146-0.459,0.146-0.768c0.16-0.293,0.16-0.581,0.16-0.745
		c0-0.15,0-0.456,0-0.604c0,0-0.16-0.144-0.16-0.295c0-0.141-0.146-0.306-0.294-0.456c-0.148-0.158-0.452-0.309-0.753-0.597
		c-0.301-0.161-0.758-0.439-1.207-0.608c-0.452-0.316-1.056-0.466-1.652-0.601c-0.604-0.298-1.215-0.45-1.966-0.45
		c-1.362-0.164-2.712-0.164-3.778,0c-1.195,0.297-2.1,0.734-2.865,1.218c-0.9,0.584-1.497,1.188-1.954,2.084
		c-0.448,0.761-0.757,1.675-0.904,2.564c-0.146,1.057-0.146,1.961,0.147,2.717c0.309,0.901,0.612,1.513,1.059,2.109
		c0.45,0.766,1.054,1.206,1.807,1.661c0.611,0.45,1.361,0.9,1.967,1.353c0.744,0.454,1.511,0.755,2.104,1.201
		c0.604,0.318,1.204,0.758,1.814,1.074c0.451,0.448,0.893,0.898,1.207,1.499c0.148,0.452,0.298,1.057,0.148,1.667
		c0,0.752-0.148,1.197-0.463,1.642c-0.288,0.456-0.736,0.766-1.181,1.064c-0.469,0.292-1.074,0.459-1.679,0.459
		c-0.602,0.14-1.34,0.14-2.107,0c-0.893-0.167-1.81-0.315-2.413-0.758c-0.753-0.31-1.343-0.624-1.952-1.054
		c-0.459-0.296-0.9-0.601-1.21-0.92c-0.457-0.289-0.597-0.434-0.905-0.434c-0.155,0-0.155,0-0.301,0
		c-0.155,0.145-0.155,0.145-0.301,0.298c0,0.134-0.147,0.307-0.147,0.607c-0.153,0.15-0.153,0.447-0.153,0.734
		c-0.143,0.622-0.143,1.064,0,1.356c0,0.308,0.153,0.617,0.301,0.768c0.146,0.293,0.448,0.434,0.75,0.748
		c0.457,0.309,0.906,0.604,1.511,0.748c0.597,0.299,1.207,0.611,1.958,0.913c0.76,0.155,1.505,0.295,2.417,0.443
		c1.348,0.145,2.557,0.145,3.764,0c1.209-0.148,2.262-0.584,3.173-1.058c0.9-0.597,1.651-1.194,2.255-2.086
		c0.611-0.923,0.906-1.978,1.059-3.175C363.613,52.771,363.613,51.884,363.31,51.129z"/>
	
		<path fill="#010101" stroke="#010101" stroke-width="0.0312" stroke-linecap="round" stroke-linejoin="round" stroke-miterlimit="10" d="
		M381.247,60.93c0-0.309-0.14-0.453-0.14-0.618c0,0,0-0.144-0.163-0.144c0-0.148-0.147-0.148-0.147-0.148c-0.146,0-0.296,0-0.449,0
		c-0.289,0-0.45,0.148-0.759,0.148c-0.301,0-0.597,0-0.906,0.144c-0.295,0-0.588,0-1.047-0.144c-1.215-0.148-1.96-0.745-2.408-1.654
		c-0.301-0.906-0.301-2.258,0-3.765l2.254-13.122l6.172,1.054c0.163,0,0.477-0.145,0.612-0.295c0.301-0.299,0.441-0.758,0.441-1.352
		c0.163-0.299,0.163-0.607,0.163-0.917c0-0.147,0-0.293,0-0.592c-0.163-0.146-0.163-0.146-0.303-0.308
		c-0.146,0-0.146-0.151-0.302-0.151l-6.025-1.054l0.897-5.586c0-0.141,0-0.293,0-0.446c0,0-0.146-0.138-0.301-0.309
		c-0.154-0.138-0.296-0.138-0.597-0.299c-0.301,0-0.604-0.154-1.06-0.154c-0.451-0.14-0.758-0.14-1.056-0.14
		c-0.296,0-0.609,0-0.743,0c-0.152,0-0.308,0.14-0.308,0.14c-0.147,0.154-0.147,0.315-0.147,0.453l-1.062,5.594l-3.32-0.607
		c-0.147,0-0.147,0-0.29,0c-0.161,0-0.321,0.15-0.321,0.315c-0.136,0.141-0.288,0.293-0.288,0.436
		c-0.161,0.297-0.161,0.604-0.302,0.913c0,0.594,0,1.057,0,1.358c0.141,0.289,0.302,0.437,0.59,0.588l3.328,0.465l-2.402,13.874
		c-0.314,1.35-0.462,2.557-0.314,3.624c0,1.04,0.314,1.937,0.764,2.698c0.437,0.748,1.041,1.358,1.953,1.797
		c0.759,0.461,1.813,0.772,3.021,1.07c0.301,0,0.75,0.138,1.2,0.138c0.457,0,0.76,0,1.201,0c0.308,0,0.604-0.138,0.906-0.138
		c0.308-0.157,0.604-0.157,0.757-0.298c0.155-0.154,0.303-0.312,0.452-0.621c0.147-0.295,0.147-0.741,0.308-1.201
		C381.107,61.368,381.247,61.082,381.247,60.93z"/>
	
		<path fill="#010101" stroke="#010101" stroke-width="0.0312" stroke-linecap="round" stroke-linejoin="round" stroke-miterlimit="10" d="
		M411.262,45.86c0-0.15,0-0.308,0-0.308c-0.154-0.151-0.154-0.31-0.301-0.458c-0.154,0-0.451-0.146-0.604-0.301
		c-0.298,0-0.611-0.141-1.061-0.296c-0.456,0-0.752-0.161-1.067-0.161c-0.288,0-0.436,0-0.736,0c-0.163,0-0.308,0.161-0.308,0.161
		c-0.154,0.155-0.154,0.155-0.297,0.296l-3.771,16.288c-1.511,1.206-2.865,1.957-4.075,2.558c-1.207,0.448-2.415,0.607-3.469,0.295
		c-0.905-0.138-1.502-0.436-2.107-0.896c-0.449-0.456-0.903-1.047-1.206-1.671c-0.31-0.749-0.451-1.489-0.451-2.406
		c0-0.731,0.14-1.939,0.451-3.314l3.173-13.418c0.141-0.144,0.141-0.295,0-0.448c0-0.154-0.155-0.154-0.301-0.312
		c-0.155-0.145-0.31-0.297-0.605-0.297c-0.309-0.141-0.61-0.141-1.061-0.295c-0.296-0.145-0.751-0.145-0.903-0.145
		c-0.303-0.154-0.612-0.154-0.753,0c-0.146,0-0.309,0-0.451,0.145c0,0-0.152,0.154-0.152,0.295l-3.315,14.019
		c-0.303,1.663-0.612,3.181-0.612,4.393c0,1.346,0.309,2.41,0.767,3.455c0.442,1.05,1.039,1.966,2.113,2.731
		c0.894,0.734,2.102,1.346,3.603,1.645c1.371,0.292,2.725,0.292,4.229,0c1.361-0.457,3.013-1.204,4.679-2.262l-0.767,3.012
		c0,0.161,0,0.315,0,0.315c0,0.145,0.153,0.293,0.314,0.293c0,0.14,0.297,0.298,0.452,0.298c0.301,0.15,0.597,0.299,1.047,0.299
		c0.309,0.163,0.609,0.163,0.918,0.163c0.296,0,0.449,0,0.597,0s0.303,0,0.451-0.163c0,0,0.154-0.148,0.154-0.299L411.262,45.86z"/>
	
		<path fill="#010101" stroke="#010101" stroke-width="0.0312" stroke-linecap="round" stroke-linejoin="round" stroke-miterlimit="10" d="
		M430.561,68.915c-0.925,0.62-1.817,1.06-2.575,1.507c-0.745,0.31-1.495,0.617-2.1,0.768c-0.611,0.289-1.202,0.289-1.812,0.289
		c-0.605,0-1.055,0-1.658-0.289c-1.06-0.294-1.966-0.768-2.57-1.509c-0.444-0.764-0.906-1.662-1.056-2.563
		c-0.146-1.054-0.146-2.111,0-3.318c0.147-1.07,0.451-2.275,0.76-3.486c0.296-1.04,0.758-1.939,1.355-2.996
		c0.451-0.917,1.2-1.813,1.805-2.412c0.759-0.748,1.67-1.209,2.415-1.503c0.913-0.309,1.961-0.309,3.013,0.15
		c1.209,0.298,2.109,1.057,3.013,2.097c0.773,1.067,1.518,2.416,2.262,4.231L430.561,68.915z M443.069,43.444
		c0-0.145,0-0.145,0-0.296c0-0.163-0.146-0.308-0.301-0.469c-0.147,0-0.296-0.145-0.612-0.295c-0.134-0.155-0.604-0.299-0.896-0.45
		c-0.45,0-0.753-0.154-1.047-0.154c-0.311-0.155-0.599-0.155-0.761-0.155c-0.16,0-0.295,0.155-0.449,0.155
		c0,0.154-0.161,0.304-0.161,0.304l-4.053,13.247c-0.771-1.483-1.517-2.697-2.576-3.591c-0.898-0.909-1.965-1.525-3.314-1.966
		c-1.658-0.466-3.174-0.601-4.519-0.466c-1.36,0.318-2.724,0.758-3.93,1.677c-1.049,0.896-2.115,1.953-3.002,3.47
		c-0.903,1.356-1.67,3.151-2.281,5.127c-0.59,1.499-0.886,3.144-1.047,4.812c-0.154,1.52,0,3.02,0.457,4.378
		c0.289,1.353,1.06,2.55,1.968,3.473c1.046,1.051,2.395,1.798,4.064,2.41c1.496,0.443,3.013,0.443,4.518,0.151
		c1.517-0.313,3.013-0.917,4.67-1.813l-0.897,3.013c0,0.155,0,0.155,0,0.3c0,0.15,0.154,0.291,0.154,0.291
		c0.141,0.168,0.457,0.313,0.584,0.474c0.314,0,0.468,0.154,0.924,0.288c0.291,0,0.592,0.155,0.9,0.155c0.161,0,0.462,0,0.604,0
		c0.146,0,0.302,0,0.302-0.155c0.161,0,0.161-0.134,0.161-0.288L443.069,43.444z"/>
	
		<path fill="#010101" stroke="#010101" stroke-width="0.0312" stroke-linecap="round" stroke-linejoin="round" stroke-miterlimit="10" d="
		M455.746,49.481c-0.161-0.618-0.765-0.919-1.678-1.373c-1.041-0.308-1.806-0.452-2.254-0.145c-0.45,0.145-0.906,0.749-1.355,1.664
		c-0.297,1.061-0.297,1.654-0.155,2.255c0.309,0.452,0.899,0.751,1.813,1.207c1.054,0.309,1.656,0.46,2.255,0.159
		c0.47-0.159,0.919-0.77,1.215-1.675C456.033,50.528,456.033,49.921,455.746,49.481z M452.263,58.962c0.161-0.15,0.161-0.295,0-0.45
		c0-0.14,0-0.14-0.147-0.281c-0.14-0.168-0.301-0.316-0.604-0.483c-0.147-0.141-0.604-0.141-0.899-0.434
		c-0.45-0.15-0.75-0.15-1.054-0.292c-0.301,0-0.61,0-0.758,0c-0.154,0-0.31,0-0.457,0.141c0,0-0.147,0.15-0.147,0.306l-8.295,22.321
		c-0.141,0.138-0.141,0.285-0.141,0.439c0.141,0,0.141,0.145,0.297,0.302c0.155,0.151,0.301,0.314,0.604,0.459
		c0.296,0,0.598,0.145,0.893,0.285c0.47,0.161,0.764,0.305,1.066,0.449c0.302,0,0.604,0,0.751,0c0.148,0,0.301,0,0.301-0.145
		c0.162,0,0.298-0.144,0.298-0.305L452.263,58.962z"/>
	
		<path fill="#010101" stroke="#010101" stroke-width="0.0312" stroke-linecap="round" stroke-linejoin="round" stroke-miterlimit="10" d="
		M465.83,84.141c-1.494,0.618-2.711,1.063-3.92,1.207c-1.053,0.146-2.261,0-3.313-0.441c-1.201-0.601-2.115-1.354-2.564-2.413
		c-0.449-0.908-0.449-1.958,0.161-3.16c0.288-0.613,0.589-1.216,1.048-1.675c0.457-0.299,1.054-0.587,1.812-0.748
		c0.597-0.145,1.503-0.145,2.41,0c0.912,0.161,1.812,0.604,3.015,1.041l3.313,1.526L465.83,84.141z M473.991,76.307
		c0.592-1.358,0.894-2.561,1.041-3.775c0.153-1.053,0-2.109-0.449-3.16c-0.303-1.044-0.914-1.956-1.961-2.722
		c-0.919-0.879-2.107-1.645-3.777-2.254c-0.893-0.461-1.644-0.756-2.563-0.896c-0.906-0.154-1.804-0.312-2.557-0.46
		c-0.745,0-1.504,0-2.262,0c-0.604,0-1.055,0.148-1.355,0.306c-0.316,0.154-0.61,0.295-0.759,0.452
		c-0.142,0.138-0.296,0.45-0.443,0.906c-0.159,0.302-0.308,0.45-0.308,0.758c0,0.145,0,0.31,0,0.601c0,0.148,0,0.289,0.148,0.289
		c0,0.154,0.159,0.154,0.159,0.297c0.301,0,0.592,0.162,1.047,0c0.604,0,1.217-0.143,1.959-0.143c0.604,0,1.511,0,2.425,0.143
		c0.751,0.162,1.805,0.31,2.717,0.766c0.899,0.45,1.652,0.913,2.262,1.358c0.442,0.597,0.897,1.06,1.054,1.647
		c0.289,0.618,0.289,1.365,0.146,1.966c0,0.755-0.302,1.503-0.597,2.419l-0.758,1.651l-3.02-1.214
		c-1.805-0.749-3.323-1.354-4.831-1.643c-1.519-0.304-2.859-0.304-4.067-0.146c-1.209,0.291-2.261,0.73-3.174,1.352
		c-0.899,0.748-1.645,1.651-2.093,2.853c-0.463,1.06-0.772,2.133-0.772,3.19c0,0.879,0.309,1.797,0.611,2.701
		c0.45,0.898,1.06,1.653,1.959,2.415c0.76,0.588,1.666,1.208,2.872,1.798c1.357,0.453,2.704,0.765,4.067,0.765
		c1.51-0.15,2.859-0.46,4.214-1.06l-0.899,2.259c0,0.154-0.153,0.299,0,0.449c0,0.15,0.148,0.298,0.452,0.454
		c0.159,0.146,0.609,0.308,1.058,0.458c0.296,0.296,0.745,0.439,0.906,0.439c0.296,0,0.449,0,0.76,0c0.14,0,0.299-0.144,0.299-0.288
		L473.991,76.307z"/>
	
		<path fill="#010101" stroke="#010101" stroke-width="0.0312" stroke-linecap="round" stroke-linejoin="round" stroke-miterlimit="10" d="
		M499.002,91.089c0.911-1.517,1.361-2.71,1.671-3.915c0.288-1.208,0.443-2.415,0.288-3.483c-0.147-1.198-0.598-2.251-1.355-3.157
		c-0.604-1.058-1.657-1.815-3.161-2.583c-1.216-0.726-2.564-1.041-4.081-1.041c-1.495,0-3.153,0.315-4.964,1.041l1.51-2.853
		c0,0,0-0.15,0-0.292c0-0.151,0-0.313-0.148-0.313c0-0.141-0.153-0.31-0.464-0.449c-0.14-0.155-0.449-0.298-0.743-0.443
		c-0.461-0.305-0.751-0.459-0.912-0.459c-0.289-0.148-0.45-0.148-0.604-0.148c-0.134,0-0.295,0-0.45,0
		c-0.155,0.148-0.155,0.148-0.155,0.302L474.12,94.244c0,0.159,0,0.31,0,0.473c0,0,0,0.141,0.161,0.296
		c0.159,0.14,0.302,0.288,0.456,0.433c0.296,0.161,0.604,0.471,0.9,0.617c0.448,0.148,0.749,0.302,1.058,0.443
		c0.302,0.155,0.458,0.155,0.604,0.155c0.148,0,0.297,0,0.45,0c0.147-0.155,0.147-0.155,0.301-0.295l7.853-14.64
		c1.65-0.734,3.308-1.193,4.514-1.496c1.357-0.154,2.56,0,3.464,0.617c0.751,0.429,1.35,0.879,1.808,1.496
		c0.449,0.443,0.609,1.205,0.757,1.961c0,0.601,0,1.499-0.308,2.248c-0.147,0.762-0.598,1.824-1.194,3.02l-6.49,12.37
		c-0.154,0.151-0.154,0.151-0.154,0.309c0,0.15,0.154,0.292,0.154,0.443c0.155,0,0.309,0.293,0.611,0.453
		c0.148,0.147,0.451,0.309,0.899,0.456c0.301,0.292,0.596,0.443,0.905,0.443c0.295,0.144,0.449,0.144,0.758,0.144
		c0.148,0.15,0.296,0,0.296,0c0.155,0,0.309-0.144,0.309-0.295L499.002,91.089z"/>
	
		<path fill="#010101" stroke="#010101" stroke-width="0.0312" stroke-linecap="round" stroke-linejoin="round" stroke-miterlimit="10" d="
		M510.469,112.358c0.14-0.168,0.14-0.474,0.14-0.474c0-0.154,0-0.296,0-0.296c0-0.15-0.14-0.15-0.14-0.295
		c-0.16,0-0.308-0.145-0.45-0.145c-0.314,0-0.455,0-0.765-0.148c-0.147,0-0.456,0-0.746-0.161c-0.455-0.146-0.75-0.308-1.064-0.456
		c-1.048-0.758-1.51-1.511-1.51-2.563c0-0.906,0.462-2.114,1.376-3.48l7.071-11.31l5.275,3.334c0.161,0.141,0.463,0.141,0.758,0
		c0.148-0.154,0.598-0.61,0.906-1.063c0.155-0.288,0.301-0.584,0.301-0.747c0.16-0.31,0.16-0.46,0.291-0.601
		c0-0.145-0.131-0.302-0.131-0.449c0,0-0.16-0.158-0.306-0.309l-5.128-3.171l3.013-4.821c0-0.147,0.154-0.298,0.154-0.298
		c0-0.148-0.154-0.293-0.154-0.457c-0.155-0.144-0.297-0.309-0.443-0.604c-0.307-0.154-0.604-0.296-0.911-0.601
		c-0.459-0.147-0.76-0.316-0.9-0.457c-0.309-0.14-0.61-0.14-0.758-0.295c-0.16,0-0.289,0-0.448,0.155
		c-0.161,0-0.161,0.14-0.161,0.14l-3.169,4.828l-2.705-1.65c-0.16-0.161-0.3-0.161-0.456-0.161s-0.154,0-0.302,0
		c-0.146,0.161-0.308,0.31-0.449,0.453c-0.149,0.155-0.451,0.443-0.604,0.756c-0.297,0.456-0.451,0.896-0.451,1.203
		c0,0.313,0,0.609,0.296,0.749l2.88,1.813l-7.543,11.766c-0.766,1.208-1.215,2.266-1.511,3.165
		c-0.461,1.044-0.461,1.967-0.314,2.875c0,0.902,0.452,1.645,1.06,2.42c0.457,0.728,1.37,1.496,2.423,2.09
		c0.296,0.161,0.598,0.463,1.041,0.613c0.307,0.148,0.771,0.299,1.066,0.44c0.309,0.144,0.603,0.144,0.897,0.315
		c0.449,0,0.61,0,0.759,0c0.303-0.172,0.449-0.315,0.752-0.457c0.154-0.15,0.456-0.606,0.751-0.912
		C510.309,112.794,510.309,112.499,510.469,112.358z"/>
	
		<path fill="#010101" stroke="#010101" stroke-width="0.0312" stroke-linecap="round" stroke-linejoin="round" stroke-miterlimit="10" d="
		M524.334,107.675c0.609-0.758,1.354-1.497,2.12-1.967c0.752-0.604,1.494-0.898,2.408-1.197c0.76-0.168,1.657-0.32,2.543,0
		c0.927,0.14,1.827,0.449,2.738,1.029c1.645,1.376,2.558,2.886,2.558,4.544c0.153,1.646-0.451,3.472-1.953,5.271L524.334,107.675z
		 M538.057,118.367c0.898-1.355,1.663-2.554,2.113-3.905c0.443-1.369,0.759-2.731,0.597-4.077c-0.153-1.211-0.442-2.563-1.2-3.777
		c-0.611-1.35-1.813-2.561-3.316-3.621c-1.354-1.044-2.857-1.799-4.367-2.106c-1.516-0.313-3.021-0.313-4.381,0
		c-1.498,0.308-3.014,0.897-4.376,1.961c-1.502,1.055-2.712,2.263-3.921,3.91c-1.354,1.831-2.248,3.475-2.857,5.133
		c-0.448,1.671-0.765,3.173-0.448,4.682c0.159,1.346,0.596,2.704,1.494,4.056c0.919,1.38,2.121,2.573,3.617,3.777
		c0.9,0.622,1.817,1.208,2.71,1.675c0.921,0.439,1.832,0.89,2.572,1.197c0.758,0.31,1.362,0.454,1.812,0.601
		c0.604,0,0.913,0.147,1.056,0c0.153,0,0.153,0,0.307,0c0.155-0.147,0.297-0.147,0.297-0.292c0.154,0,0.309-0.155,0.309-0.31
		c0.146-0.155,0.296-0.308,0.448-0.457c0.148-0.301,0.296-0.441,0.451-0.597c0.146-0.305,0.146-0.453,0.146-0.61
		c0-0.147,0-0.147,0-0.298c0-0.145-0.146-0.145-0.146-0.288c-0.155-0.151-0.451-0.151-0.897-0.31
		c-0.451-0.151-1.056-0.313-1.658-0.46c-0.758-0.155-1.51-0.446-2.249-0.906c-0.925-0.302-1.677-0.894-2.574-1.511
		c-1.209-0.905-2.113-1.796-2.577-2.717c-0.598-0.9-0.893-1.788-0.893-2.845c-0.148-0.921,0.147-1.983,0.443-3.02
		c0.449-0.896,1.06-1.96,1.817-3.026l12.663,9.351c0.296,0.154,0.743,0.305,1.207,0.305c0.45,0,0.905-0.305,1.357-0.905
		L538.057,118.367z"/>
	
		<path fill="#010101" stroke="#010101" stroke-width="0.0312" stroke-linecap="round" stroke-linejoin="round" stroke-miterlimit="10" d="
		M551.329,136.022c0.309-0.762,0.309-1.53,0.309-2.265c-0.161-0.91-0.309-1.657-0.611-2.413c-0.308-0.76-0.609-1.503-1.053-2.116
		l-1.067-2.265c-0.296-0.59-0.599-1.355-0.906-1.942c-0.14-0.621-0.14-1.214-0.14-1.825c0-0.588,0.301-1.05,0.751-1.653
		c0.296-0.295,0.766-0.61,1.061-0.919c0.45-0.148,0.897-0.295,1.354-0.295c0.45,0.146,1.049,0.146,1.511,0.466
		c0.597,0.309,1.199,0.597,1.65,1.043c0.598,0.617,1.208,1.208,1.524,1.661c0.288,0.601,0.597,1.215,0.897,1.668
		c0.141,0.442,0.296,0.909,0.444,1.208c0,0.284,0.146,0.59,0.308,0.745c0.153,0,0.153,0,0.289,0c0.153,0.154,0.153,0,0.315,0
		c0.134-0.155,0.289-0.155,0.45-0.302c0.155-0.157,0.449-0.302,0.598-0.597c0.16-0.145,0.3-0.453,0.455-0.611
		c0.154-0.146,0.154-0.298,0.302-0.441c0,0,0-0.145,0.14-0.295c0-0.159,0-0.311-0.14-0.472c0-0.301-0.147-0.593-0.302-0.901
		c-0.154-0.454-0.295-0.89-0.604-1.353c-0.294-0.456-0.61-0.899-1.059-1.352c-0.444-0.611-0.752-1.061-1.357-1.376
		c-1.054-1.052-2.099-1.65-3.166-2.086c-1.055-0.474-2.115-0.628-3.161-0.628c-0.9,0-1.814,0.154-2.71,0.628
		c-0.766,0.436-1.519,0.889-2.124,1.646c-0.749,0.756-1.206,1.646-1.361,2.412c-0.296,0.755-0.449,1.507-0.296,2.416
		c0,0.754,0.155,1.503,0.451,2.268c0.309,0.741,0.604,1.507,1.064,2.252c0.296,0.604,0.746,1.358,1.061,2.107
		c0.297,0.603,0.598,1.203,0.752,1.976c0.297,0.588,0.297,1.205,0.297,1.795c0,0.448-0.297,1.058-0.752,1.496
		c-0.458,0.629-0.9,0.924-1.357,1.074c-0.46,0.302-1.064,0.302-1.516,0.302c-0.604-0.161-1.201-0.302-1.652-0.597
		c-0.603-0.15-1.214-0.615-1.656-1.069c-0.758-0.758-1.369-1.356-1.817-1.957c-0.449-0.758-0.752-1.352-0.897-1.967
		c-0.303-0.594-0.452-1.053-0.599-1.492c-0.154-0.46-0.308-0.765-0.47-0.923c0,0-0.141-0.142-0.289-0.142
		c-0.16,0-0.16,0-0.301,0.142c-0.161,0-0.302,0.158-0.456,0.299c-0.302,0.164-0.45,0.314-0.598,0.624
		c-0.457,0.439-0.605,0.731-0.752,1.043c-0.154,0.309-0.315,0.601-0.154,0.894c0,0.172,0,0.624,0.301,1.067
		c0.148,0.457,0.302,0.908,0.753,1.496c0.296,0.474,0.603,1.063,1.207,1.682c0.451,0.599,1.055,1.211,1.651,1.801
		c1.056,0.917,2.114,1.668,3.169,2.117c1.059,0.439,2.12,0.752,3.174,0.899c1.046,0,2.112-0.147,3.169-0.604
		c0.896-0.436,1.811-1.058,2.563-1.955C550.719,137.535,551.168,136.773,551.329,136.022z"/>
</g>
</svg>
