<?xml version="1.0" encoding="utf-8"?>
<!-- Generator: Adobe Illustrator 16.0.0, SVG Export Plug-In . SVG Version: 6.00 Build 0)  -->
<!DOCTYPE svg PUBLIC "-//W3C//DTD SVG 1.1//EN" "http://www.w3.org/Graphics/SVG/1.1/DTD/svg11.dtd" [
	<!ENTITY ns_extend "http://ns.adobe.com/Extensibility/1.0/">
	<!ENTITY ns_ai "http://ns.adobe.com/AdobeIllustrator/10.0/">
	<!ENTITY ns_graphs "http://ns.adobe.com/Graphs/1.0/">
	<!ENTITY ns_vars "http://ns.adobe.com/Variables/1.0/">
	<!ENTITY ns_imrep "http://ns.adobe.com/ImageReplacement/1.0/">
	<!ENTITY ns_sfw "http://ns.adobe.com/SaveForWeb/1.0/">
	<!ENTITY ns_custom "http://ns.adobe.com/GenericCustomNamespace/1.0/">
	<!ENTITY ns_adobe_xpath "http://ns.adobe.com/XPath/1.0/">
]>
<svg version="1.1" id="Layer_1" xmlns:x="&ns_extend;" xmlns:i="&ns_ai;" xmlns:graph="&ns_graphs;"
	 xmlns="http://www.w3.org/2000/svg" xmlns:xlink="http://www.w3.org/1999/xlink" x="0px" y="0px" width="792px" height="612px"
	 viewBox="0 0 792 612" enable-background="new 0 0 792 612" xml:space="preserve">
<metadata>
	<sfw  xmlns="&ns_sfw;">
		<slices></slices>
		<sliceSourceBounds  width="739.087" height="553.199" y="23.509" x="19.655" bottomLeftOrigin="true"></sliceSourceBounds>
	</sfw>
</metadata>
<path fill="#0062AF" stroke="#0062AF" stroke-width="0.65" stroke-linecap="round" stroke-linejoin="round" stroke-miterlimit="10" d="
	M33.083,320.609c0-141.116,154.696-255.399,345.429-255.399c190.881,0,345.568,114.283,345.568,255.399
	c0,140.988-154.689,255.273-345.568,255.273C187.78,575.883,33.083,461.598,33.083,320.609z M67.906,291.367
	c0-140.967,154.702-255.25,345.576-255.25c190.738,0,345.436,114.283,345.436,255.25c0,141.122-154.697,255.407-345.436,255.407
	C222.607,546.773,67.906,432.488,67.906,291.367z"/>
<g>
	<g>
		<path id="SVGID_1_" fill="#FFFFFF" d="M54.552,310.232c0-137.956,151.398-249.798,338.195-249.798
			c186.664,0,338.057,111.842,338.057,249.798c0,138.105-151.393,249.951-338.057,249.951
			C205.95,560.184,54.552,448.338,54.552,310.232z"/>
	</g>
	<g>
		<defs>
			<path id="SVGID_2_" d="M54.552,310.232c0-137.956,151.398-249.798,338.195-249.798c186.664,0,338.057,111.842,338.057,249.798
				c0,138.105-151.393,249.951-338.057,249.951C205.95,560.184,54.552,448.338,54.552,310.232z"/>
		</defs>
		<clipPath id="SVGID_3_">
			<use xlink:href="#SVGID_2_"  overflow="visible"/>
		</clipPath>
		
			<path clip-path="url(#SVGID_3_)" fill="#FFFFFF" stroke="#FFFFFF" stroke-width="0.6361" stroke-linecap="round" stroke-linejoin="round" stroke-miterlimit="10" d="
			M20.473,338.852c0-138.103,151.393-249.945,338.051-249.945c186.804,0,338.188,111.842,338.188,249.945
			c0,137.977-151.387,249.82-338.188,249.82C171.866,588.672,20.473,476.828,20.473,338.852z"/>
	</g>
</g>
<path fill="#010101" d="M138.178,151.754c0,0,90.604,85.193,354.774,70.255c0,0,85.787,37.998,167.207,22.478
	c66.037-12.679,35.885-25.65,35.885-25.65s-63.332,48.857-203.4-1.208C492.646,217.628,278.693,240.104,138.178,151.754z"/>
<path fill="#010101" d="M115.254,168.187c0,0,122.284,103.13,295.98,67.993c0,0,204.741,80.367,315.108,20.212
	c0,0,1.502,4.054,3.322,11.305c1.814,7.236-121.23,53.058-318.881-26.537C410.784,241.16,249.443,279.916,115.254,168.187z"/>
<g>
	
		<polyline fill="none" stroke="#0062AF" stroke-width="7.8" stroke-linecap="round" stroke-linejoin="round" stroke-miterlimit="10" points="
		492.952,218.836 492.952,198.339 456.905,205.271 410.784,216.276 410.784,237.69 	"/>
	
		<path fill="#0062AF" stroke="#0062AF" stroke-width="3.9" stroke-linecap="round" stroke-linejoin="round" stroke-miterlimit="10" d="
		M481.337,220.188c0-1.799,4.975-3.144,11.166-3.144c6.02,0,11.006,1.346,11.006,3.144c0,1.821-4.986,3.335-11.006,3.335
		C486.31,223.523,481.337,222.011,481.337,220.188z"/>
	
		<path fill="#0062AF" stroke="#0062AF" stroke-width="3.9" stroke-linecap="round" stroke-linejoin="round" stroke-miterlimit="10" d="
		M400.374,239.052c0-1.807,4.969-3.323,11.008-3.323c6.033,0,11.004,1.517,11.004,3.323c0,1.814-4.971,3.317-11.004,3.317
		C405.343,242.372,400.374,240.867,400.374,239.052z"/>
	
		<polyline fill="none" stroke="#0062AF" stroke-width="7.8" stroke-linecap="round" stroke-linejoin="round" stroke-miterlimit="10" points="
		413.48,217.335 455.55,237.992 492.798,197.746 	"/>
	
		<polyline fill="none" stroke="#0062AF" stroke-width="7.8" stroke-linecap="round" stroke-linejoin="round" stroke-miterlimit="10" points="
		435.808,279.454 453.435,336.744 413.48,375.797 451.335,475.77 455.407,206.789 508.481,445.619 452.844,389.07 483.599,332.369 
		454.503,285.04 456.012,208.146 471.688,278.849 453.435,336.744 492.646,386.346 451.638,476.67 452.38,387.111 453.745,219.604 
		453.897,206.172 393.29,452.539 451.335,388.453 422.837,334.783 453.598,284.271 	"/>
	
		<polyline fill="none" stroke="#0062AF" stroke-width="7.8" stroke-linecap="round" stroke-linejoin="round" stroke-miterlimit="10" points="
		430.386,225.334 454.811,206.479 476.813,216.276 	"/>
</g>
<g>
	
		<path fill="#010101" stroke="#010101" stroke-width="0.0312" stroke-linecap="round" stroke-linejoin="round" stroke-miterlimit="10" d="
		M264.08,294.995c-8.301-9.66-18.856-16.444-31.365-20.514c-18.71-5.868-36.344-4.073-53.234,5.579
		c-16.428,9.493-27.601,23.671-33.613,42.819c-5.872,18.547-4.831,36.641,3.315,54.121c8.294,17.787,21.708,29.721,40.115,35.438
		c4.206,1.369,11.146,2.408,20.641,2.857c11.314,0.617,17.353-0.449,18.24-3.16c0.919-2.57,1.671-7.537,2.576-14.783
		c0.899-7.986,0.751-12.039-0.456-12.521c0.743,0.309-2.263,0.926-8.899,1.979c-6.791,1.066-13.118,0.613-19.145-1.348
		c-10.864-3.33-18.702-10.416-23.675-20.979c-4.824-10.387-5.429-20.947-1.967-31.947c3.477-11.012,10.255-19.461,20.071-25.344
		c9.944-5.722,20.501-6.93,31.351-3.46c4.826,1.515,9.054,3.773,12.515,6.935l10.542,9.045c0.772,0.309,3.168-2.717,7.395-8.891
		c4.222-6.185,6.784-10.265,7.39-12.207C266.032,297.85,265.428,296.642,264.08,294.995z"/>
	
		<path fill="#010101" stroke="#010101" stroke-width="0.0312" stroke-linecap="round" stroke-linejoin="round" stroke-miterlimit="10" d="
		M357.101,358.611c-19.608,0.465-36.338-0.301-50.201-1.951c-3.47-0.297-4.985-1.502-4.686-3.471
		c0.906-8.604,5.282-15.99,12.816-22.004c7.543-6.188,15.523-8.744,24.279-7.719c7.689,0.914,14.165,4.832,19.602,11.623
		c5.423,6.643,7.685,13.877,6.637,21.715C365.388,357.854,362.684,358.451,357.101,358.611z M386.048,321.67
		c-10.253-14.318-24.131-22.606-41.618-24.725c-18.99-2.259-35.887,3.314-50.657,16.584c-14.018,12.83-22.318,28.795-24.574,48.102
		c-2.563,21.707,1.806,39.805,13.12,54.279c11.307,14.471,27.889,23.059,49.758,25.629c21.398,2.727,39.947-2.57,55.468-15.387
		c1.812-1.355,2.717-2.416,2.717-3.008c0-0.457-1.194-3.92-3.765-10.711c-2.415-6.631-3.77-10.105-4.072-10.4
		c-0.147-0.146-0.597-0.297-1.35-0.441l-4.973,3.152c-13.582,7.852-27.747,10.859-42.518,9.199
		c-8.608-1.053-16.293-4.811-23.231-11.305c-7.086-6.637-10.852-14.188-10.998-22.621c54.28,2.422,83.673,3.174,87.9,2.113
		c6.174-1.518,9.799-5.873,10.556-12.811C400.066,351.525,396.155,335.535,386.048,321.67z"/>
	
		<path fill="#010101" stroke="#010101" stroke-width="0.0312" stroke-linecap="round" stroke-linejoin="round" stroke-miterlimit="10" d="
		M585.819,345.346c-18.393,6.475-34.525,11.02-48.086,13.582c-3.322,0.725-5.127,0-5.576-1.832
		c-1.664-8.584,0.146-16.877,5.416-25.031c5.281-8.125,12.078-12.957,20.512-14.607c7.537-1.51,14.924,0.154,22.152,4.816
		c7.24,4.832,11.475,10.998,12.971,18.697C593.509,342.184,590.952,343.533,585.819,345.346z M601.958,301.026
		c-14.018-10.565-29.861-14.189-47.195-10.72c-18.547,3.62-32.873,14.014-42.816,31.217c-9.496,16.574-12.217,34.369-8.598,53.521
		c4.234,21.406,13.869,37.238,29.096,47.646c15.381,10.264,33.627,13.412,55.033,9.205c21.266-4.08,37.25-14.789,48.102-31.822
		c1.201-1.953,1.67-3.16,1.516-3.623c0-0.449-2.262-3.609-6.791-9.207c-4.375-5.555-6.785-8.428-7.092-8.576
		c-0.297-0.166-0.746-0.166-1.512,0l-3.756,4.377c-10.256,11.91-22.764,19.137-37.393,22.01c-8.455,1.664-16.891,0.457-25.34-3.463
		c-8.891-4.242-14.781-10.266-17.479-18.252c52.307-14.32,80.211-22.627,83.967-25.029c5.43-3.463,7.395-8.602,6.188-15.369
		C624.411,325.152,615.681,311.135,601.958,301.026z"/>
</g>
<g>
	
		<path fill="#010101" stroke="#010101" stroke-width="0.0312" stroke-linecap="round" stroke-linejoin="round" stroke-miterlimit="10" d="
		M195.92,465.354c-0.898,0.316-1.966,0.605-2.711,0.9c-0.905,0.146-1.657,0.309-2.262,0.309c-0.603,0.146-1.362,0-1.812-0.162
		c-0.611,0-1.055-0.289-1.658-0.59c-0.897-0.619-1.663-1.207-1.958-2.107c-0.457-0.752-0.605-1.65-0.605-2.717
		c0-1.063,0.302-2.113,0.753-3.162c0.302-1.061,0.913-2.105,1.511-3.168c0.448-1.066,1.207-1.979,1.959-2.713
		c0.611-0.912,1.51-1.516,2.254-2.119c0.913-0.451,1.818-0.758,2.719-0.758c0.912-0.154,1.965,0.154,2.865,0.611
		c1.046,0.598,1.806,1.502,2.415,2.709c0.604,1.203,1.055,2.881,1.356,4.691L195.92,465.354z M213.709,443.203
		c0.155-0.146,0.155-0.314,0.155-0.457c0,0-0.155-0.168-0.302-0.309c0-0.141-0.155-0.289-0.443-0.436
		c-0.16-0.309-0.456-0.463-0.926-0.631c-0.288-0.281-0.591-0.436-0.898-0.436c-0.288-0.154-0.437-0.154-0.744-0.291
		c-0.148,0-0.302,0-0.302,0.137c-0.155,0-0.309,0.154-0.309,0.154l-6.925,12.057c-0.316-1.51-0.926-2.871-1.664-4.08
		c-0.604-1.047-1.651-1.945-2.858-2.711c-1.355-0.752-2.865-1.207-4.228-1.348c-1.503,0-2.872,0.141-4.222,0.764
		c-1.355,0.584-2.564,1.504-3.779,2.705c-1.2,1.207-2.26,2.709-3.308,4.521c-0.906,1.518-1.497,3.025-1.967,4.518
		c-0.449,1.51-0.597,3.025-0.597,4.381c0.149,1.355,0.457,2.727,1.195,3.928c0.765,1.215,1.966,2.086,3.477,3.012
		c1.354,0.906,2.871,1.203,4.375,1.203c1.51,0,3.174-0.148,4.973-0.754l-1.502,2.713c-0.148,0.152-0.148,0.301-0.148,0.457
		c0,0,0,0.145,0.148,0.289c0.146,0.146,0.302,0.313,0.448,0.455c0.148,0.17,0.457,0.311,0.753,0.463
		c0.301,0.148,0.609,0.291,0.912,0.438c0.148,0.16,0.302,0.16,0.45,0.16c0.295,0,0.295,0,0.448,0c0.154-0.16,0.154-0.16,0.315-0.307
		L213.709,443.203z"/>
	
		<path fill="#010101" stroke="#010101" stroke-width="0.0312" stroke-linecap="round" stroke-linejoin="round" stroke-miterlimit="10" d="
		M213.563,466.885c0.443-0.926,1.048-1.689,1.657-2.281c0.752-0.766,1.51-1.209,2.269-1.652c0.745-0.32,1.657-0.461,2.557-0.461
		c0.9,0,1.805,0.141,2.711,0.766c1.959,0.898,3.026,2.1,3.476,3.764c0.288,1.664,0,3.463-1.06,5.57L213.563,466.885z
		 M228.782,475.012c0.765-1.355,1.208-2.865,1.518-4.209c0.153-1.354,0.153-2.729-0.155-4.092c-0.295-1.209-0.893-2.414-1.813-3.609
		c-0.893-1.047-2.1-2.113-3.906-2.873c-1.516-0.738-3.026-1.193-4.528-1.354c-1.665,0-3.021,0.16-4.523,0.766
		c-1.369,0.59-2.569,1.502-3.771,2.697c-1.202,1.207-2.269,2.711-3.167,4.549c-1.055,1.939-1.664,3.771-1.967,5.416
		c-0.147,1.645-0.147,3.309,0.301,4.676c0.47,1.357,1.208,2.713,2.254,3.92c1.068,1.063,2.431,2.107,4.235,3.008
		c1.061,0.455,1.96,0.912,3.013,1.207c0.914,0.148,1.813,0.457,2.57,0.617c0.744,0.141,1.354,0.141,1.952,0.297
		c0.457,0,0.752,0,0.913-0.154c0.141,0,0.295,0,0.449-0.141c0,0,0.147-0.16,0.147-0.314c0.148,0,0.302-0.152,0.302-0.303
		c0.147-0.145,0.147-0.295,0.302-0.441c0.147-0.311,0.295-0.617,0.295-0.766c0.154-0.295,0.154-0.441,0.154-0.592
		c0-0.16,0-0.16,0-0.309c-0.154-0.168-0.154-0.168-0.302-0.309c-0.147,0-0.604-0.16-1.054-0.16c-0.456,0-0.906,0-1.658-0.135
		c-0.603,0-1.354-0.146-2.26-0.441c-0.898-0.156-1.813-0.619-2.866-1.063c-1.215-0.617-2.26-1.354-3.026-2.127
		c-0.591-0.893-1.046-1.793-1.335-2.705c-0.161-0.91-0.161-1.959,0-3.018c0.289-1.049,0.745-2.244,1.335-3.311l13.878,6.934
		c0.449,0.145,0.912,0.145,1.369,0.145c0.288-0.145,0.738-0.455,1.048-1.207L228.782,475.012z"/>
	
		<path fill="#010101" stroke="#010101" stroke-width="0.0312" stroke-linecap="round" stroke-linejoin="round" stroke-miterlimit="10" d="
		M258.938,467.02c0-0.135,0-0.309,0-0.457c0-0.16-0.133-0.309-0.133-0.309c-0.155-0.141-0.472-0.295-0.611-0.443
		c-0.31-0.141-0.604-0.309-1.054-0.457c-0.301-0.158-0.759-0.307-1.066-0.449c-0.296,0-0.436,0-0.597,0c-0.302,0-0.45,0-0.45,0
		c-0.155,0.143-0.302,0.143-0.302,0.291l-12.509,30.465c-0.154,0.176-0.154,0.311-0.154,0.457c0.154,0.154,0.154,0.309,0.288,0.309
		c0.161,0.137,0.316,0.307,0.611,0.447c0.295,0.17,0.597,0.311,1.067,0.451c0.289,0.303,0.738,0.303,0.898,0.449
		c0.295,0,0.604,0.143,0.751,0.143c0.155,0,0.297-0.143,0.443-0.143c0.161,0,0.161-0.145,0.309-0.301L258.938,467.02z"/>
	
		<path fill="#010101" stroke="#010101" stroke-width="0.0312" stroke-linecap="round" stroke-linejoin="round" stroke-miterlimit="10" d="
		M279.601,494.303c0.458-1.656,0.906-3.006,1.048-4.213c0-1.217,0-2.414-0.295-3.477c-0.449-1.047-1.048-1.945-1.806-2.857
		c-0.906-0.92-2.107-1.65-3.47-2.107c-1.362-0.469-2.711-0.604-4.228-0.469c-1.503,0.309-3.162,0.926-4.818,1.824l1.055-2.879
		c0-0.154,0-0.297,0-0.438c0-0.146-0.141-0.146-0.141-0.309c-0.161-0.146-0.309-0.309-0.611-0.449c-0.16,0-0.455-0.162-0.905-0.301
		c-0.302-0.146-0.597-0.146-0.906-0.299c-0.295,0-0.442,0-0.604,0c-0.141,0-0.302,0-0.449,0.148c0,0-0.161,0.148-0.161,0.289
		l-7.831,22.486c-0.148,0-0.148,0.135-0.148,0.283c0,0.146,0.148,0.146,0.31,0.309c0.14,0.146,0.302,0.309,0.59,0.457
		c0.154,0.146,0.611,0.146,0.914,0.295c0.448,0.148,0.743,0.297,1.053,0.457c0.295,0,0.611,0,0.744,0c0.154,0,0.303,0,0.303-0.16
		c0.154,0,0.154-0.146,0.302-0.297l5.582-15.676c1.511-0.898,3.013-1.664,4.375-1.959c1.208-0.445,2.416-0.445,3.464-0.146
		c0.751,0.293,1.349,0.75,1.966,1.207c0.449,0.59,0.758,1.209,0.899,1.785c0.301,0.764,0.301,1.529,0.161,2.43
		c0,0.898-0.302,1.965-0.765,3.166l-4.671,13.111c0,0.148,0,0.311,0,0.459c0,0,0.154,0.154,0.296,0.309
		c0.155,0.146,0.309,0.295,0.605,0.295c0.154,0.143,0.463,0.297,0.912,0.443c0.45,0.16,0.738,0.314,1.048,0.314
		c0.302,0.146,0.448,0.146,0.609,0.146c0.289,0,0.289-0.146,0.458-0.146c0.146-0.154,0.146-0.154,0.295-0.314L279.601,494.303z"/>
	
		<path fill="#010101" stroke="#010101" stroke-width="0.0312" stroke-linecap="round" stroke-linejoin="round" stroke-miterlimit="10" d="
		M297.243,518.877c-0.302,0.471-0.913,0.771-1.517,1.061c-0.597,0.307-1.342,0.441-2.262,0.441c-1.047,0-2.107-0.135-3.302-0.592
		c-2.12-0.439-3.616-1.193-4.543-2.104c-1.04-0.928-1.336-1.961-1.04-3.021c0.153-0.297,0.301-0.756,0.448-1.047
		c0.154-0.309,0.458-0.617,0.745-0.918c0.322-0.289,0.611-0.584,1.059-0.895c0.463-0.16,1.062-0.457,1.651-0.752l6.047,1.799
		c1.349,0.457,2.262,1.057,3.014,1.813c0.597,0.752,0.912,1.656,0.597,2.576C298,517.83,297.691,518.441,297.243,518.877z
		 M300.107,500.182c-0.302,0.619-0.751,1.074-1.208,1.504c-0.598,0.309-1.208,0.471-1.96,0.619c-0.61,0.146-1.362,0-2.255-0.148
		c-1.523-0.469-2.577-1.209-3.168-2.416c-0.752-1.053-0.752-2.414-0.302-3.904c0.141-0.629,0.444-1.221,0.745-1.838
		c0.457-0.592,0.905-1.041,1.362-1.35c0.61-0.443,1.208-0.75,1.805-0.75c0.751-0.156,1.518-0.156,2.269,0.16
		c1.65,0.436,2.711,1.209,3.313,2.248c0.597,1.207,0.759,2.568,0.296,4.088C300.858,499.123,300.558,499.738,300.107,500.182z
		 M309.448,492.787c-0.14-0.297-0.294-0.436-0.597-0.584l-6.938-1.965c-0.443-0.311-1.055-0.451-1.651-0.744
		c-0.604-0.303-1.216-0.463-1.96-0.619c-1.208-0.438-2.422-0.59-3.617-0.438c-1.221,0.135-2.423,0.283-3.329,0.9
		c-1.055,0.449-1.806,1.209-2.557,2.092c-0.758,0.92-1.354,1.975-1.651,3.33c-0.316,1.209-0.457,2.111-0.316,3.012
		c0,0.914,0.316,1.656,0.611,2.557c-0.752,0.471-1.511,1.063-2.12,1.664c-0.745,0.754-1.194,1.68-1.517,2.727
		c-0.128,0.738-0.128,1.502,0,2.254c0.322,0.746,0.771,1.363,1.517,2.107c-0.745,0.309-1.355,0.617-1.806,0.904
		c-0.611,0.301-1.047,0.605-1.496,1.066c-0.309,0.297-0.765,0.752-1.074,1.355c-0.301,0.441-0.442,0.898-0.597,1.496
		c-0.295,0.918-0.295,1.816-0.14,2.711c0.14,0.758,0.59,1.656,1.341,2.414c0.604,0.758,1.677,1.502,2.865,2.115
		c1.201,0.75,2.731,1.354,4.543,1.799c1.946,0.615,3.758,0.766,5.275,0.766c1.489,0,2.858-0.299,3.905-0.766
		c1.054-0.443,2.121-1.049,2.718-1.934c0.751-0.766,1.214-1.838,1.503-2.871c0.302-0.9,0.302-1.961,0.161-2.725
		c-0.161-0.9-0.611-1.658-1.054-2.416c-0.611-0.738-1.363-1.355-2.275-1.945c-0.739-0.463-1.799-0.92-3.001-1.215l-5.892-1.969
		c-0.899-0.295-1.651-0.742-2.106-1.209c-0.457-0.59-0.61-1.207-0.303-1.797c0.147-0.459,0.303-0.914,0.591-1.195
		c0.316-0.309,0.611-0.617,1.067-0.924c0.308,0.453,0.906,1.059,1.664,1.516c0.745,0.457,1.65,0.887,2.556,1.047
		c1.356,0.455,2.719,0.604,3.771,0.455c1.201,0,2.409-0.307,3.314-0.748c1.055-0.605,1.807-1.211,2.57-2.123
		c0.745-0.898,1.201-2.092,1.651-3.461c0.154-0.746,0.296-1.518,0.296-2.393c-0.14-0.77-0.296-1.527-0.745-2.279l3.314,0.898
		c0.296,0,0.458,0,0.759-0.309c0.146-0.148,0.448-0.592,0.604-1.207C309.448,493.553,309.448,493.096,309.448,492.787z"/>
	
		<path fill="#010101" stroke="#010101" stroke-width="0.0312" stroke-linecap="round" stroke-linejoin="round" stroke-miterlimit="10" d="
		M315.333,504.264c0.308-0.9,0.597-1.814,1.048-2.727c0.461-0.738,1.066-1.504,1.67-1.945c0.753-0.611,1.504-1.061,2.403-1.201
		c0.764-0.301,1.812-0.301,2.865-0.17c2.12,0.465,3.482,1.371,4.233,2.879c0.898,1.498,1.06,3.309,0.45,5.563L315.333,504.264z
		 M332.224,508.021c0.301-1.506,0.457-3.008,0.301-4.35c-0.154-1.518-0.449-2.727-1.207-3.934c-0.611-1.207-1.504-2.113-2.705-3.008
		c-1.06-0.762-2.577-1.383-4.535-1.816c-1.658-0.303-3.315-0.303-4.819,0c-1.516,0.289-2.879,1.057-3.926,1.957
		c-1.208,0.9-2.27,2.109-3.162,3.619c-0.752,1.504-1.354,3.182-1.817,5.275c-0.443,2.105-0.443,3.932-0.302,5.717
		c0.154,1.678,0.765,3.18,1.523,4.389c0.737,1.193,1.813,2.27,3.153,3.008c1.363,0.91,3.015,1.502,4.824,1.824
		c1.208,0.309,2.263,0.443,3.162,0.443c1.066,0,1.974,0,2.725-0.135c0.759,0,1.51-0.176,1.959-0.176
		c0.45-0.137,0.893-0.303,0.893-0.457c0.161,0,0.322-0.137,0.322-0.137c0.147-0.16,0.147-0.307,0.289-0.307
		c0-0.15,0-0.291,0.16-0.457c0-0.135,0-0.451,0-0.604c0.147-0.283,0.147-0.605,0.147-0.736c0-0.311,0-0.457,0-0.621
		c0-0.145,0-0.145-0.147-0.281c-0.16,0-0.16-0.174-0.302-0.174c-0.147,0-0.597,0-0.912,0.174c-0.45,0-1.048,0.137-1.813,0.281
		c-0.597,0-1.349,0.162-2.255,0.162c-0.913,0-1.966-0.162-3.021-0.307c-1.503-0.311-2.563-0.76-3.468-1.344
		c-0.913-0.617-1.651-1.209-2.114-2.127c-0.448-0.906-0.609-1.791-0.744-3c0-1.066,0.135-2.275,0.296-3.477l15.38,2.857
		c0.444,0.135,0.758,0.135,1.208-0.152c0.442-0.148,0.604-0.605,0.758-1.352L332.224,508.021z"/>
	
		<path fill="#010101" stroke="#010101" stroke-width="0.0312" stroke-linecap="round" stroke-linejoin="round" stroke-miterlimit="10" d="
		M359.965,511.053c0.295-1.664,0.295-3.18,0.141-4.389c-0.141-1.207-0.45-2.4-1.047-3.303c-0.449-1.057-1.216-1.824-2.262-2.563
		c-1.055-0.619-2.263-1.061-3.926-1.367c-1.355-0.143-2.711,0-4.066,0.455c-1.504,0.604-2.879,1.504-4.523,2.859l0.45-3.154
		c0-0.16,0-0.303,0-0.471c0,0-0.141-0.141-0.302-0.297c-0.146,0-0.308-0.139-0.604-0.139c-0.153-0.154-0.449-0.154-0.892-0.154
		c-0.463-0.141-0.758-0.141-0.913-0.141c-0.296,0-0.598,0-0.759,0c-0.141,0.141-0.289,0.141-0.289,0.295
		c0,0.141-0.154,0.141-0.154,0.297l-3.173,23.668c0,0.146,0,0.295,0,0.457c0,0,0.147,0.146,0.308,0.307
		c0.141,0,0.443,0.146,0.598,0.146c0.308,0.148,0.758,0.148,1.054,0.303c0.47,0,0.905,0,1.214,0c0.154,0,0.443,0,0.604,0
		c0.14,0,0.302-0.152,0.442-0.152c0-0.148,0-0.299,0.155-0.459l2.261-16.588c1.354-1.207,2.563-2.254,3.771-2.857
		c1.207-0.605,2.415-0.912,3.463-0.752c0.906,0.146,1.511,0.451,2.12,0.752c0.597,0.457,1.049,1.061,1.35,1.65
		c0.448,0.617,0.597,1.369,0.758,2.264c0,0.91,0,1.977-0.161,3.332l-1.946,13.865c0,0.146,0,0.297,0.142,0.297
		c0,0.145,0.154,0.295,0.309,0.295c0.146,0.166,0.296,0.166,0.597,0.307c0.302,0,0.611,0.168,1.06,0.168
		c0.449,0.141,0.753,0.141,1.055,0.141c0.302,0,0.441,0,0.751-0.141c0.161,0,0.295,0,0.295-0.168
		c0.155-0.141,0.155-0.141,0.155-0.307L359.965,511.053z"/>
	
		<path fill="#010101" stroke="#010101" stroke-width="0.0312" stroke-linecap="round" stroke-linejoin="round" stroke-miterlimit="10" d="
		M374.434,493.096c-0.444-0.451-1.055-0.744-2.102-0.744c-1.054-0.148-1.813,0-2.107,0.295c-0.463,0.309-0.759,1.055-0.912,1.967
		c0,1.047,0,1.813,0.449,2.119c0.309,0.451,1.049,0.738,1.968,0.738c1.047,0.154,1.812,0,2.261-0.287
		c0.443-0.313,0.597-1.066,0.744-1.98C374.89,494.143,374.736,493.406,374.434,493.096z M373.379,503.055c0,0,0-0.16,0-0.307
		c-0.154-0.148-0.154-0.148-0.288-0.297c-0.154-0.146-0.471-0.146-0.611-0.146c-0.301-0.148-0.751-0.148-1.201-0.148
		c-0.31-0.16-0.758-0.16-1.053-0.16c-0.154,0-0.463,0-0.604,0.16c-0.155,0-0.309,0.148-0.457,0.148c0,0.146,0,0.295,0,0.443
		l-2.416,23.688c0,0.141,0,0.141,0,0.287c0.154,0.162,0.154,0.162,0.289,0.309c0.161,0.17,0.462,0.17,0.765,0.17
		c0.301,0.141,0.609,0.141,1.066,0.141c0.443,0.141,0.751,0.141,1.04,0.141c0.315,0,0.458,0,0.61-0.141
		c0.162,0,0.289-0.141,0.449-0.141c0-0.17,0.155-0.316,0.155-0.316L373.379,503.055z"/>
	
		<path fill="#010101" stroke="#010101" stroke-width="0.0312" stroke-linecap="round" stroke-linejoin="round" stroke-miterlimit="10" d="
		M383.64,513.617c0.154-1.059,0.442-1.973,0.752-2.871c0.302-0.76,0.752-1.525,1.349-2.262c0.604-0.609,1.361-1.055,2.26-1.354
		c0.766-0.463,1.664-0.613,2.873-0.463c2.111,0.16,3.615,0.91,4.521,2.266c1.057,1.355,1.497,3.182,1.215,5.438L383.64,513.617z
		 M400.967,515.113c0.161-1.496,0-3-0.291-4.367c-0.302-1.355-0.896-2.563-1.663-3.615c-0.75-1.219-1.813-1.98-3.012-2.719
		c-1.363-0.605-2.873-1.049-4.832-1.211c-1.657-0.146-3.303,0.162-4.825,0.605c-1.342,0.604-2.704,1.342-3.757,2.416
		c-1.055,1.059-1.818,2.408-2.57,4.064c-0.604,1.518-0.899,3.328-1.055,5.438c-0.14,2.105,0,4.064,0.45,5.725
		c0.31,1.656,1.06,3.014,1.959,4.227c0.906,1.047,2.107,1.953,3.631,2.705c1.342,0.604,3,0.898,4.958,1.061
		c1.209,0.139,2.269,0,3.33,0c0.897-0.162,1.805-0.311,2.711-0.459c0.752-0.146,1.361-0.301,1.811-0.436
		c0.452-0.314,0.76-0.477,0.9-0.477c0.16-0.145,0.16-0.145,0.301-0.287c0-0.154,0.154-0.303,0.154-0.303c0-0.141,0-0.281,0-0.451
		c0.146-0.146,0.146-0.455,0.146-0.596c0-0.313,0-0.619,0-0.926c0-0.148,0-0.297-0.146-0.443c0-0.146,0-0.289-0.154-0.289
		c-0.141-0.17-0.141-0.17-0.301-0.17c-0.297,0-0.61,0.17-1.061,0.311c-0.289,0.146-0.898,0.297-1.496,0.443
		c-0.758,0.146-1.518,0.313-2.414,0.455c-0.898,0.168-1.961,0.168-3.006,0.168c-1.518-0.168-2.732-0.475-3.632-0.918
		c-0.914-0.459-1.651-1.063-2.261-1.813c-0.599-0.896-0.906-1.807-1.201-2.873c-0.161-1.031-0.161-2.24-0.161-3.623l15.688,1.072
		c0.451,0,0.744-0.146,1.207-0.455c0.302-0.309,0.591-0.76,0.591-1.344V515.113L400.967,515.113z"/>
	
		<path fill="#010101" stroke="#010101" stroke-width="0.0312" stroke-linecap="round" stroke-linejoin="round" stroke-miterlimit="10" d="
		M422.225,506.074c0-0.162,0-0.309-0.14-0.461c0-0.154,0-0.301,0-0.301c0-0.162-0.153-0.162-0.297-0.297
		c0-0.146-0.152-0.146-0.463-0.297c-0.301,0-0.597-0.146-0.904-0.146c-0.301-0.162-0.598-0.162-0.905-0.309
		c-0.296,0-0.589,0-0.744,0c-0.45,0-1.067,0-1.517,0.146c-0.6,0.16-1.041,0.457-1.518,0.736c-0.585,0.309-1.047,0.764-1.645,1.367
		c-0.611,0.613-1.215,1.357-1.954,2.27l0.14-3.475c0-0.162-0.14-0.162-0.14-0.297c0-0.146-0.153-0.146-0.308-0.297
		c-0.142,0-0.295-0.146-0.598-0.146c-0.314,0-0.611,0-0.919,0c-0.444-0.16-0.746,0-1.049,0c-0.154,0-0.448,0-0.608,0.146
		c-0.146,0-0.289,0.148-0.289,0.148c0,0.146-0.16,0.281-0.16,0.443l-0.453,23.82c0,0.146,0.162,0.309,0.162,0.309
		c0,0.141,0.142,0.309,0.291,0.309c0.16,0,0.449,0.146,0.762,0.146c0.297,0,0.6,0.148,1.042,0.148c0.464,0,0.772,0,1.073-0.148
		c0.297,0,0.451,0,0.604-0.146c0.141,0,0.296-0.168,0.449-0.168c0-0.141,0-0.301,0-0.449l0.289-15.662
		c0.768-0.912,1.217-1.664,1.818-2.416c0.443-0.629,1.049-1.215,1.489-1.523c0.478-0.449,0.919-0.744,1.371-0.898
		c0.442-0.146,0.912-0.295,1.369-0.295c0.294,0.146,0.603,0.146,0.894,0.146c0.301,0.146,0.604,0.146,0.912,0.301
		c0.301,0,0.448,0.146,0.743,0.297c0.161,0,0.302,0,0.457,0s0.31,0,0.31,0c0.141-0.146,0.141-0.297,0.295-0.451
		c0-0.146,0-0.295,0-0.609c0-0.146,0.141-0.59,0.141-0.893C422.225,506.664,422.225,506.369,422.225,506.074z"/>
	
		<path fill="#010101" stroke="#010101" stroke-width="0.0312" stroke-linecap="round" stroke-linejoin="round" stroke-miterlimit="10" d="
		M427.057,499.887c-0.147,0.295-0.296,0.441-0.296,0.604c0,0.148,0,0.148,0.148,0.311c0.146,0,0.303,0.146,0.448,0.146
		c0.298,0.152,0.604,0.152,0.899,0.152c0.462,0,0.751,0,0.91-0.152c0.291,0,0.445,0,0.604-0.146c0.155,0,0.296-0.162,0.45-0.162
		c0-0.146,0.162-0.309,0.309-0.457l4.662-6.332c0.162-0.148,0.303-0.297,0.303-0.443c0-0.141,0-0.141-0.141-0.309
		c-0.162-0.143-0.309-0.311-0.609-0.311c-0.302,0-0.746,0-1.201,0c-0.442,0-0.905,0-1.217,0c-0.295,0-0.455,0.168-0.75,0.168
		c-0.146,0.143-0.303,0.143-0.457,0.311c-0.146,0.141-0.295,0.289-0.295,0.436L427.057,499.887z M431.433,505.457
		c0-0.146-0.152-0.309-0.152-0.443c-0.156,0-0.156-0.146-0.304-0.297c-0.146,0-0.444,0-0.751-0.146c-0.297,0-0.611,0-1.055,0
		c-0.45,0-0.76,0-1.047,0.146c-0.315,0-0.469,0-0.604,0.148c-0.308,0-0.308,0.146-0.463,0.281c0,0,0,0.162,0,0.311l0.302,23.82
		c0,0.16,0,0.301,0,0.301c0.161,0.168,0.161,0.314,0.45,0.314c0.153,0.148,0.315,0.148,0.604,0.148c0.309,0,0.6,0,1.047,0
		c0.47,0,0.767,0,1.072,0c0.299,0,0.592-0.148,0.748-0.148c0.152-0.146,0.301-0.146,0.301-0.314c0,0,0.141-0.141,0.141-0.301
		L431.433,505.457z"/>
	
		<path fill="#010101" stroke="#010101" stroke-width="0.0312" stroke-linecap="round" stroke-linejoin="round" stroke-miterlimit="10" d="
		M453.745,522.65c-0.899,1.215-1.959,2.129-2.859,2.711c-1.059,0.764-2.112,1.072-3.168,1.072c-1.51,0.141-2.563-0.16-3.322-0.926
		c-0.898-0.59-1.359-1.646-1.359-2.857c-0.143-0.752,0-1.355,0.313-1.947c0.146-0.617,0.598-1.055,1.202-1.529
		c0.604-0.441,1.209-0.73,2.106-1.033c0.911-0.174,1.965-0.311,3.168-0.457l3.771-0.16L453.745,522.65z M457.667,512.113
		c-0.15-1.521-0.313-2.725-0.762-3.777c-0.438-1.207-1.043-2.113-1.809-2.725c-0.75-0.744-1.797-1.348-3.02-1.658
		c-1.192-0.281-2.557-0.449-4.36-0.281c-0.906,0-1.824,0.135-2.726,0.281c-0.894,0.311-1.645,0.619-2.408,0.766
		c-0.737,0.299-1.504,0.74-1.947,1.049c-0.604,0.309-1.072,0.604-1.215,0.896c-0.309,0.162-0.457,0.465-0.457,0.768
		c0,0.146,0,0.59,0,0.904c0,0.295,0,0.598,0,0.744c0.148,0.309,0.148,0.449,0.302,0.617c0,0.143,0.155,0.143,0.298,0.289
		c0,0,0.153,0.148,0.301,0c0.301,0,0.623-0.146,0.91-0.289c0.458-0.309,1.068-0.617,1.652-1.066c0.604-0.295,1.361-0.609,2.275-0.91
		c0.736-0.289,1.791-0.438,2.864-0.59c0.897,0,1.804,0.15,2.56,0.301c0.602,0.146,1.205,0.59,1.656,0.904
		c0.455,0.449,0.904,1.055,1.057,1.799c0.303,0.611,0.459,1.51,0.459,2.424v1.811l-3.172,0.148c-1.955,0.145-3.633,0.449-4.976,0.75
		c-1.516,0.457-2.725,1.055-3.764,1.658c-0.897,0.758-1.67,1.67-2.274,2.557c-0.451,1.053-0.591,2.26-0.591,3.623
		c0,1.195,0.298,2.107,0.745,3.02c0.45,0.906,1.061,1.658,1.813,2.256c0.767,0.604,1.664,0.898,2.711,1.199
		c0.912,0.316,2.102,0.465,3.315,0.316c1.517,0,2.864-0.457,4.074-1.061c1.198-0.766,2.416-1.637,3.321-2.854l0.141,2.398
		c0,0.301,0.168,0.455,0.3,0.455c0,0.146,0.315,0.146,0.604,0.295c0.162,0,0.611,0,1.066,0c0.45,0,0.737-0.146,1.053-0.146
		c0.297-0.146,0.459-0.146,0.6-0.301c0.146-0.137,0.146-0.301,0.146-0.449L457.667,512.113z"/>
	
		<path fill="#010101" stroke="#010101" stroke-width="0.0312" stroke-linecap="round" stroke-linejoin="round" stroke-miterlimit="10" d="
		M499.585,521.449c0-0.301-0.162-0.438-0.162-0.611c-0.154-0.137-0.289-0.137-0.443-0.303c-0.146,0-0.146,0-0.301,0l-13.574,1.82
		l-1.658-12.221l11.457-1.504c0.154,0,0.299-0.146,0.299-0.146c0.164-0.146,0.309-0.146,0.309-0.301
		c0-0.162,0.156-0.463,0.156-0.605c0-0.295,0-0.604-0.156-0.91c0-0.297,0-0.592-0.145-0.754c0-0.301-0.164-0.455-0.309-0.602
		c0-0.162-0.154-0.297-0.297-0.297c-0.146,0-0.146,0-0.309,0l-11.447,1.5l-1.512-10.682l13.408-1.838c0,0,0.154,0,0.301-0.148
		c0.16-0.146,0.16-0.146,0.307-0.295c0-0.287,0-0.457,0-0.598c0-0.309,0-0.604,0-0.898c0-0.314-0.146-0.623-0.146-0.92
		c-0.16-0.141-0.16-0.457-0.307-0.588c-0.154-0.178-0.154-0.178-0.295-0.311c-0.146,0-0.311,0-0.451,0l-16.139,2.252
		c-0.45,0-0.744,0.156-1.055,0.465c-0.303,0.311-0.457,0.893-0.457,1.494l4.227,30.469c0,0.59,0.296,1.064,0.745,1.354
		c0.312,0.162,0.766,0.303,1.217,0.303l16.284-2.273c0.137,0,0.291-0.148,0.449-0.148c0-0.146,0.148-0.289,0.148-0.441
		c0.139-0.148,0.139-0.299,0.139-0.605c0-0.16,0-0.457-0.139-0.75C499.729,521.898,499.729,521.59,499.585,521.449z"/>
	
		<path fill="#010101" stroke="#010101" stroke-width="0.0312" stroke-linecap="round" stroke-linejoin="round" stroke-miterlimit="10" d="
		M505.616,486.316c0,0-0.154-0.152-0.154-0.295c-0.143,0-0.301-0.154-0.457-0.154c-0.154,0-0.457,0-0.752,0
		c-0.154,0-0.604,0-1.055,0.154c-0.301,0-0.752,0.143-1.047,0.143c-0.162,0.152-0.471,0.152-0.604,0.301
		c-0.154,0.146-0.154,0.146-0.309,0.309c0,0.146,0,0.309,0,0.457l6.342,34.814c0,0.168,0.133,0.309,0.133,0.457
		c0.156,0,0.305,0.146,0.465,0.146c0.141,0,0.301,0,0.598,0c0.303,0,0.75,0,1.059-0.146c0.451,0,0.895-0.146,1.055-0.146
		c0.289-0.143,0.605-0.311,0.752-0.311c0.148-0.146,0.148-0.303,0.303-0.303c0-0.152,0-0.295,0-0.449L505.616,486.316z"/>
	
		<path fill="#010101" stroke="#010101" stroke-width="0.0312" stroke-linecap="round" stroke-linejoin="round" stroke-miterlimit="10" d="
		M521.741,489.338c-0.146,0.154-0.146,0.449-0.146,0.59c0,0.162,0.146,0.162,0.146,0.311c0.146,0,0.309,0,0.604,0
		c0.154,0,0.457,0,0.906-0.146c0.307,0,0.604-0.162,0.904-0.162c0.146-0.141,0.309-0.141,0.441-0.281
		c0.162-0.154,0.316-0.154,0.316-0.309c0.141-0.146,0.303-0.309,0.303-0.463l3.314-7.072c0.146-0.314,0.146-0.463,0.146-0.623
		c0-0.135-0.146-0.283-0.303-0.283c-0.146-0.146-0.295-0.146-0.604-0.146c-0.289,0-0.744,0.146-1.205,0.146
		c-0.453,0.148-0.76,0.283-1.051,0.283c-0.301,0.16-0.604,0.309-0.758,0.309c-0.162,0.16-0.297,0.314-0.457,0.471
		c0,0.146-0.146,0.295-0.146,0.576L521.741,489.338z M520.399,505.148c-0.16-0.885-0.16-1.947-0.16-2.844
		c0.16-0.914,0.301-1.814,0.75-2.566c0.449-0.756,0.896-1.516,1.67-1.965c0.59-0.59,1.496-1.041,2.559-1.348
		c2.105-0.457,3.766-0.154,5.125,0.896c1.361,1.066,2.262,2.711,2.711,4.98L520.399,505.148z M537.431,501.686
		c-0.301-1.504-0.912-2.859-1.656-4.061c-0.605-1.199-1.51-2.273-2.57-3.014c-1.047-0.91-2.262-1.346-3.623-1.656
		c-1.496-0.309-3.154-0.309-4.98,0.143c-1.643,0.457-3.16,1.047-4.359,1.967c-1.215,0.906-2.262,1.979-2.859,3.328
		c-0.766,1.348-1.207,2.865-1.369,4.664c-0.152,1.664,0,3.461,0.451,5.43c0.463,2.107,1.207,3.926,1.973,5.422
		c0.898,1.512,1.969,2.57,3.16,3.471c1.209,0.766,2.711,1.354,4.217,1.502c1.516,0.154,3.32,0,5.131-0.283
		c1.219-0.32,2.113-0.629,3.162-1.072c0.92-0.283,1.672-0.764,2.416-1.047c0.609-0.443,1.215-0.752,1.654-1.059
		c0.457-0.453,0.605-0.594,0.762-0.754c0,0,0.139-0.146,0.139-0.297c0-0.16,0-0.32,0-0.461c0,0,0-0.146,0-0.436
		c0-0.162-0.139-0.311-0.139-0.471c0-0.443-0.156-0.592-0.156-0.887c-0.146-0.168-0.146-0.309-0.295-0.469
		c0,0-0.154-0.162-0.311-0.162c0,0-0.141-0.135-0.295,0c-0.146,0-0.449,0.162-0.912,0.463c-0.295,0.314-0.752,0.611-1.35,0.904
		c-0.596,0.459-1.354,0.768-2.113,1.197c-0.752,0.318-1.799,0.615-2.865,0.916c-1.348,0.303-2.555,0.453-3.607,0.148
		c-1.066-0.148-1.975-0.451-2.873-1.064c-0.752-0.578-1.355-1.35-1.813-2.404c-0.457-0.896-0.906-2.113-1.201-3.309l15.219-3.617
		c0.457,0,0.766-0.309,1.066-0.617c0.303-0.43,0.303-0.9,0.143-1.65L537.431,501.686z"/>
	
		<path fill="#010101" stroke="#010101" stroke-width="0.0312" stroke-linecap="round" stroke-linejoin="round" stroke-miterlimit="10" d="
		M563.509,503.672c-0.154-0.168-0.154-0.471-0.299-0.619c-0.154-0.16-0.154-0.16-0.309-0.307c-0.146,0-0.295,0-0.295,0
		c-0.299,0.146-0.457,0.307-0.746,0.758c-0.322,0.449-0.609,0.906-1.072,1.363c-0.449,0.59-0.898,1.043-1.664,1.648
		c-0.596,0.459-1.334,0.914-2.41,1.203c-0.893,0.301-1.951,0.301-2.857,0.301c-0.896-0.146-1.648-0.59-2.414-1.195
		c-0.752-0.457-1.498-1.367-2.107-2.414c-0.604-0.904-1.055-2.254-1.51-3.77c-0.898-2.867-1.047-5.289-0.455-7.234
		c0.609-1.816,1.965-3.033,3.924-3.615c1.059-0.297,1.953-0.451,2.719-0.297c0.752,0,1.496,0.154,2.105,0.297
		c0.6,0.141,1.068,0.449,1.512,0.582c0.455,0.178,0.758,0.178,1.045,0.178c0.162-0.178,0.305-0.311,0.451-0.619
		c0-0.283,0-0.736-0.146-1.49c-0.141-0.307-0.303-0.461-0.303-0.764c-0.145-0.148-0.145-0.297-0.287-0.443
		c-0.146-0.146-0.146-0.309-0.303-0.309c-0.158-0.146-0.295-0.309-0.609-0.457c-0.154-0.146-0.604-0.301-1.201-0.443
		c-0.449-0.154-1.061-0.154-1.664-0.295c-0.752,0-1.363,0-2.1,0c-0.766,0.139-1.518,0.295-2.264,0.438
		c-1.516,0.447-2.725,1.215-3.924,2.119c-1.209,0.744-2.123,1.953-2.705,3.301c-0.611,1.203-1.066,2.865-1.066,4.529
		c0,1.801,0.303,3.92,0.906,6.189c0.609,1.959,1.348,3.605,2.26,4.977c0.9,1.35,1.945,2.559,3.014,3.311
		c1.215,0.758,2.563,1.215,3.918,1.355c1.504,0.166,3.014,0,4.672-0.465c0.764-0.273,1.516-0.574,2.254-0.893
		c0.766-0.457,1.363-0.75,1.813-1.201c0.605-0.457,1.068-0.906,1.518-1.369c0.451-0.443,0.758-0.893,0.906-1.195
		c0.146-0.16,0.146-0.457,0.309-0.604c0,0,0-0.146,0-0.311c0-0.146,0-0.453-0.162-0.602c0-0.297,0-0.443-0.145-0.738
		C563.661,504.264,563.661,503.953,563.509,503.672z"/>
	
		<path fill="#010101" stroke="#010101" stroke-width="0.0312" stroke-linecap="round" stroke-linejoin="round" stroke-miterlimit="10" d="
		M582.054,499.289c-0.152-0.309-0.301-0.463-0.301-0.463c-0.162-0.141-0.162-0.141-0.301-0.141c0,0-0.148,0-0.309,0
		c0,0-0.141,0.141-0.297,0.297c-0.146,0-0.295,0.141-0.609,0.451c-0.135,0.16-0.443,0.305-0.592,0.455
		c-0.309,0.146-0.611,0.295-1.061,0.441c-1.199,0.471-2.105,0.311-2.865-0.295c-0.756-0.604-1.359-1.645-1.943-3.162l-4.545-12.514
		l5.895-2.105c0.146-0.148,0.299-0.297,0.439-0.605c0-0.309-0.141-0.752-0.293-1.369c-0.146-0.309-0.309-0.59-0.309-0.738
		c-0.143-0.307-0.291-0.469-0.451-0.609c0,0-0.152-0.16-0.289-0.16c-0.16,0-0.314,0-0.449,0l-5.744,2.127l-1.805-5.287
		c-0.154-0.146-0.154-0.303-0.305-0.303c-0.152-0.154-0.152-0.154-0.455-0.154c-0.146,0-0.297,0-0.598,0
		c-0.303,0.154-0.611,0.154-1.059,0.311c-0.457,0.146-0.754,0.309-1.057,0.459c-0.146,0.145-0.443,0.293-0.443,0.441
		c-0.16,0.146-0.32,0.146-0.32,0.309c0,0.145,0,0.307,0,0.307l1.965,5.424l-3.166,1.061c-0.146,0.146-0.146,0.146-0.297,0.295
		c0,0-0.152,0.146-0.152,0.297c0,0.16,0,0.469,0,0.617c0.152,0.297,0.152,0.592,0.303,0.898c0.145,0.598,0.447,0.898,0.607,1.207
		c0.289,0.148,0.611,0.311,0.738,0.148l3.18-1.195l4.672,13.1c0.443,1.354,1.055,2.43,1.652,3.328
		c0.604,0.898,1.213,1.518,1.965,1.947c0.768,0.469,1.666,0.615,2.57,0.615c0.906,0,1.955-0.146,3.162-0.615
		c0.309-0.148,0.76-0.299,1.047-0.432c0.463-0.168,0.766-0.471,1.066-0.617c0.287-0.16,0.598-0.307,0.75-0.604
		c0.311-0.146,0.449-0.457,0.449-0.604c0.156-0.162,0.156-0.457,0.156-0.744c0-0.303-0.156-0.611-0.297-1.068
		C582.202,499.738,582.054,499.432,582.054,499.289z"/>
	
		<path fill="#010101" stroke="#010101" stroke-width="0.0312" stroke-linecap="round" stroke-linejoin="round" stroke-miterlimit="10" d="
		M593.06,472.301c0-0.154-0.16-0.305-0.16-0.457c-0.137-0.156-0.137-0.156-0.291-0.316c0,0-0.146,0-0.293-0.146c0,0-0.311,0-0.605,0
		c-0.154,0-0.461,0-0.758,0.146c-0.463,0-0.752,0.16-0.914,0.16c-0.305,0.156-0.604,0.156-0.758,0.309
		c-0.449,0.148-0.896,0.451-1.34,0.74c-0.465,0.307-0.768,0.771-1.209,1.207c-0.303,0.617-0.611,1.207-0.912,1.975
		c-0.297,0.752-0.592,1.805-0.744,2.852l-1.363-3.162c0-0.146-0.152-0.301-0.152-0.301c-0.148,0-0.297-0.154-0.459-0.154
		c-0.141,0-0.287,0-0.598,0.154c-0.301,0-0.604,0.154-0.914,0.301c-0.447,0.162-0.742,0.311-0.891,0.457
		c-0.148,0.148-0.303,0.148-0.463,0.297c-0.135,0.146-0.135,0.309-0.289,0.455c0,0,0.154,0.162,0.154,0.311l9.18,21.996
		c0,0.168,0.154,0.168,0.314,0.311c0,0,0.137,0,0.297,0c0.146,0,0.449,0,0.76-0.143c0.301,0,0.598-0.168,0.902-0.309
		c0.451-0.154,0.762-0.295,1.055-0.449c0.291-0.141,0.451-0.311,0.6-0.441c0-0.178,0.154-0.178,0.154-0.316c0-0.146,0-0.303,0-0.449
		l-6.189-14.32c0.303-1.201,0.463-2.107,0.768-3.033c0.146-0.736,0.443-1.49,0.604-1.947c0.289-0.604,0.59-1.047,0.895-1.354
		c0.297-0.309,0.764-0.604,1.215-0.752c0.301-0.146,0.598-0.309,0.904-0.309c0.297,0,0.605-0.146,0.906-0.146s0.436,0,0.744,0
		c0.154,0,0.301,0,0.457-0.154c0.141,0,0.301-0.154,0.301-0.154c0-0.139,0-0.295,0-0.441c0-0.148,0-0.289-0.16-0.605
		c0-0.307-0.141-0.596-0.297-0.893C593.362,472.736,593.208,472.449,593.06,472.301z"/>
	
		<path fill="#010101" stroke="#010101" stroke-width="0.0312" stroke-linecap="round" stroke-linejoin="round" stroke-miterlimit="10" d="
		M596.831,458.725c-0.613-0.146-1.201,0-2.254,0.459c-0.912,0.455-1.518,0.896-1.678,1.34c-0.137,0.463,0,1.221,0.463,2.107
		c0.441,0.912,0.904,1.523,1.361,1.664c0.457,0.174,1.201,0,2.107-0.457c0.904-0.443,1.508-0.889,1.648-1.348
		c0.303-0.592,0.17-1.203-0.301-2.102C597.737,459.488,597.28,458.873,596.831,458.725z M601.198,467.758
		c-0.152-0.154-0.152-0.154-0.293-0.281c-0.162,0-0.162,0-0.463,0c-0.141,0-0.295,0-0.582,0.127c-0.311,0-0.613,0.154-1.076,0.314
		c-0.303,0.32-0.604,0.469-0.893,0.604c-0.154,0.162-0.455,0.301-0.455,0.457c-0.156,0.154-0.311,0.154-0.311,0.309
		c0,0.162,0,0.303,0.154,0.449l10.246,21.4c0,0.16,0.162,0.16,0.162,0.297c0.152,0,0.301,0,0.447,0c0.148,0,0.451,0,0.605-0.137
		c0.301,0,0.604-0.16,1.041-0.301c0.469-0.314,0.771-0.447,0.918-0.625c0.297-0.133,0.457-0.279,0.598-0.441
		c0.162,0,0.162-0.141,0.162-0.281c0-0.154,0-0.309,0-0.457L601.198,467.758z"/>
	
		<path fill="#010101" stroke="#010101" stroke-width="0.0312" stroke-linecap="round" stroke-linejoin="round" stroke-miterlimit="10" d="
		M632.411,472.904c-0.148-0.168-0.297-0.314-0.457-0.457c-0.156-0.146-0.156-0.146-0.297-0.146c-0.154,0-0.309,0-0.309,0
		c-0.148,0.146-0.451,0.438-0.598,0.914c-0.146,0.441-0.451,0.891-0.752,1.494c-0.309,0.598-0.598,1.209-1.201,1.961
		c-0.457,0.602-1.209,1.209-2.113,1.662c-0.912,0.438-1.807,0.738-2.725,0.9c-0.898,0-1.801-0.162-2.559-0.605
		c-0.904-0.443-1.807-1.066-2.564-1.959c-0.898-0.752-1.658-1.961-2.416-3.314c-1.346-2.553-2.098-4.969-1.797-6.953
		c0.146-1.932,1.193-3.303,3.008-4.35c0.902-0.455,1.643-0.766,2.568-0.912c0.752-0.152,1.496-0.152,2.107-0.152
		c0.604,0.152,1.207,0.152,1.65,0.301c0.449,0,0.766,0,0.918-0.146c0.297,0,0.297-0.297,0.297-0.619
		c0-0.295-0.146-0.744-0.449-1.342c-0.152-0.309-0.314-0.457-0.457-0.75c0-0.148-0.148-0.309-0.309-0.459
		c-0.141,0-0.301-0.146-0.301-0.146c-0.141-0.154-0.449-0.154-0.744-0.314c-0.297,0-0.604-0.146-1.217-0.146
		c-0.596,0-1.199,0-1.813,0c-0.609,0.146-1.201,0.309-1.943,0.461c-0.762,0.299-1.365,0.607-1.967,0.9
		c-1.504,0.764-2.553,1.799-3.463,2.873c-1.055,1.031-1.666,2.387-1.961,3.758c-0.303,1.354-0.457,3.031-0.16,4.816
		c0.309,1.672,1.066,3.625,2.268,5.598c0.898,1.791,2.115,3.303,3.16,4.51c1.211,1.209,2.418,1.975,3.779,2.557
		c1.355,0.477,2.711,0.625,4.061,0.477c1.516-0.16,2.879-0.617,4.381-1.354c0.758-0.471,1.363-0.914,1.959-1.369
		c0.605-0.619,1.201-1.049,1.658-1.656c0.457-0.6,0.75-1.055,1.207-1.658c0.295-0.457,0.449-0.91,0.449-1.207
		c0.162-0.297,0.162-0.604,0.162-0.604c0-0.156,0-0.311,0-0.449c0-0.156-0.162-0.305-0.162-0.592
		c-0.154-0.17-0.295-0.477-0.449-0.623C632.712,473.508,632.56,473.215,632.411,472.904z"/>
	
		<path fill="#010101" stroke="#010101" stroke-width="0.0312" stroke-linecap="round" stroke-linejoin="round" stroke-miterlimit="10" d="
		M648.999,460.523c-0.303,1.672-0.611,3.02-1.061,4.082c-0.443,0.896-1.201,1.797-2.1,2.414c-1.217,0.898-2.416,1.221-3.471,1.055
		c-1.055-0.152-1.959-0.758-2.572-1.818c-0.447-0.584-0.758-1.207-0.758-1.783c-0.141-0.631,0-1.371,0.311-1.98
		c0.16-0.59,0.598-1.35,1.201-1.967c0.604-0.744,1.51-1.342,2.424-1.947l3.152-2.119L648.999,460.523z M646.737,449.68
		c-0.768-1.209-1.664-2.27-2.559-3.014c-0.912-0.611-1.813-1.047-2.863-1.363c-1.063-0.16-2.275-0.16-3.471,0.316
		c-1.201,0.287-2.422,0.895-3.928,1.939c-0.758,0.469-1.508,1.057-2.119,1.662c-0.598,0.754-1.193,1.371-1.65,1.961
		c-0.457,0.604-0.898,1.207-1.209,1.813c-0.303,0.598-0.455,1.061-0.598,1.369c0,0.443,0,0.59,0,0.904
		c0.143,0.303,0.295,0.604,0.598,0.895c0.154,0.295,0.309,0.457,0.463,0.604c0.141,0.162,0.289,0.316,0.449,0.316
		c0.146,0.141,0.297,0.141,0.449,0.141c0,0,0.146,0,0.303-0.141c0.146-0.154,0.295-0.463,0.598-0.92
		c0.146-0.441,0.457-0.895,0.914-1.504c0.293-0.604,0.75-1.354,1.359-1.977c0.604-0.732,1.201-1.352,2.102-1.939
		c0.906-0.619,1.67-1.061,2.416-1.209c0.598-0.154,1.354-0.154,1.953,0c0.604,0.146,1.209,0.443,1.662,0.898
		c0.611,0.457,1.201,1.053,1.656,1.813l1.055,1.502l-2.711,1.975c-1.512,1.045-2.873,2.105-3.912,3.152
		c-0.92,1.055-1.826,2.27-2.273,3.322c-0.457,1.201-0.592,2.275-0.457,3.309c0,1.209,0.457,2.256,1.213,3.479
		c0.6,0.904,1.363,1.678,2.262,2.111c0.76,0.598,1.656,0.904,2.564,1.055c1.055,0,1.967,0,3.021-0.301
		c1.045-0.316,2.1-0.904,3.16-1.494c1.059-0.9,2.119-1.828,2.717-3.17c0.752-1.221,1.209-2.576,1.504-4.082l1.354,1.949
		c0,0.145,0.154,0.309,0.303,0.309c0.301,0,0.457,0,0.752-0.162c0.16-0.146,0.449-0.289,0.904-0.43
		c0.457-0.297,0.605-0.611,0.906-0.779c0.154-0.146,0.295-0.283,0.295-0.443c0-0.287,0-0.443-0.141-0.592L646.737,449.68z"/>
</g>
<g>
	
		<path fill="#010101" stroke="#010101" stroke-width="0.0312" stroke-linecap="round" stroke-linejoin="round" stroke-miterlimit="10" d="
		M208.126,138.333c-0.146-0.154-0.296-0.302-0.296-0.439c-0.14-0.158-0.295-0.158-0.449-0.316c0,0-0.14,0-0.302,0.158
		c-0.154,0-0.449,0.296-0.758,0.899c-0.296,0.459-0.751,1.05-1.201,1.666c-0.456,0.588-1.207,1.35-1.967,2.105
		c-0.898,0.601-1.805,1.187-3.16,1.809c-1.503,0.587-2.859,0.897-4.368,0.897c-1.362-0.15-2.717-0.46-3.933-1.207
		c-1.201-0.601-2.395-1.664-3.462-3.017c-1.053-1.511-1.967-3.153-2.865-5.13c-0.912-2.104-1.362-3.913-1.503-5.721
		c-0.309-1.813-0.147-3.312,0.141-4.822c0.45-1.346,1.06-2.553,1.966-3.616c0.899-1.065,2.113-1.978,3.47-2.571
		c1.354-0.452,2.416-0.761,3.47-0.909c1.046,0,2.112,0,2.858,0.148c0.758,0.145,1.516,0.309,1.966,0.309
		c0.604,0.144,1.048,0.308,1.208,0.144c0.154,0,0.288-0.144,0.288-0.308c0,0,0.161-0.145,0.161-0.433
		c0-0.155-0.161-0.296-0.161-0.607c0-0.162-0.134-0.461-0.288-0.759c-0.162-0.281-0.309-0.598-0.309-0.764
		c-0.14-0.278-0.295-0.433-0.45-0.584c0-0.14-0.161-0.14-0.296-0.31c0-0.14-0.302-0.14-0.604-0.308
		c-0.308-0.148-0.758-0.293-1.516-0.447c-0.745,0-1.503,0-2.41,0c-0.745,0-1.664,0.154-2.564,0.299
		c-1.046,0.148-1.958,0.456-2.857,0.917c-2.12,0.916-3.771,1.955-5.289,3.468c-1.348,1.503-2.402,3.15-3.007,5.13
		c-0.611,1.95-0.765,4.061-0.611,6.473c0.155,2.269,0.752,4.839,1.819,7.405c1.2,2.553,2.402,4.657,3.926,6.466
		c1.35,1.651,3.007,3.007,4.664,3.768c1.806,0.913,3.617,1.358,5.582,1.358c1.953,0,3.92-0.445,6.02-1.358
		c1.214-0.454,2.269-1.06,3.175-1.648c0.904-0.614,1.65-1.365,2.254-1.965c0.611-0.607,1.221-1.208,1.511-1.799
		c0.456-0.473,0.752-0.922,0.752-1.198c0.153-0.17,0.153-0.318,0.153-0.486c0-0.141,0-0.282,0-0.436c0-0.148,0-0.456-0.153-0.597
		c0-0.167-0.147-0.458-0.147-0.758C208.436,138.952,208.281,138.638,208.126,138.333z"/>
	
		<path fill="#010101" stroke="#010101" stroke-width="0.0312" stroke-linecap="round" stroke-linejoin="round" stroke-miterlimit="10" d="
		M213.12,127.175c-0.314-0.906-0.456-1.956-0.456-2.861c0-0.914,0.141-1.814,0.456-2.57c0.288-0.914,0.745-1.504,1.49-2.272
		c0.61-0.584,1.362-1.057,2.422-1.489c1.958-0.607,3.765-0.456,5.127,0.433c1.496,0.917,2.556,2.415,3.16,4.544L213.12,127.175z
		 M229.695,122.038c-0.443-1.352-1.208-2.708-1.967-3.915c-0.894-1.208-1.813-2.105-3.014-2.704
		c-1.06-0.769-2.409-1.216-3.771-1.358c-1.489-0.145-3.007,0.144-4.818,0.758c-1.651,0.449-3.007,1.35-4.222,2.247
		c-1.047,1.058-1.966,2.265-2.57,3.765c-0.603,1.362-0.897,2.88-0.897,4.688c0.147,1.657,0.449,3.479,1.059,5.418
		c0.752,1.974,1.511,3.765,2.563,5.118c1.061,1.382,2.102,2.426,3.464,3.188c1.207,0.591,2.71,1.063,4.221,1.063
		c1.657,0,3.315-0.304,5.126-0.923c1.201-0.285,2.114-0.743,3.014-1.201c0.899-0.443,1.664-0.919,2.262-1.358
		c0.758-0.46,1.201-0.913,1.671-1.205c0.295-0.443,0.597-0.604,0.597-0.749c0-0.168,0.147-0.308,0.147-0.459c0,0,0-0.145,0-0.299
		c0-0.145,0-0.31-0.147-0.453c0-0.164,0-0.313-0.148-0.607c0-0.293-0.154-0.454-0.309-0.762c0-0.141-0.14-0.296-0.301-0.439
		l-0.148-0.145c-0.161,0-0.302,0-0.463,0c-0.141,0-0.45,0.288-0.743,0.584c-0.311,0.309-0.753,0.621-1.364,1.057
		c-0.448,0.456-1.208,0.919-1.951,1.354c-0.753,0.474-1.664,0.917-2.717,1.208c-1.356,0.452-2.558,0.621-3.625,0.621
		c-1.053-0.167-2.099-0.476-2.858-0.912c-0.906-0.443-1.511-1.208-2.107-2.124c-0.604-0.896-1.201-2.094-1.517-3.299l14.775-4.977
		c0.45-0.157,0.76-0.467,0.914-0.764c0.295-0.438,0.295-0.891,0-1.648L229.695,122.038z"/>
	
		<path fill="#010101" stroke="#010101" stroke-width="0.0312" stroke-linecap="round" stroke-linejoin="round" stroke-miterlimit="10" d="
		M256.075,113.75c-0.436-1.664-0.9-3.013-1.49-4.073c-0.609-1.046-1.369-1.946-2.274-2.711c-0.907-0.587-1.96-1.063-3.162-1.349
		c-1.215-0.309-2.563-0.164-4.066,0.284c-1.376,0.309-2.57,1.063-3.63,2.12c-1.048,1.066-2.101,2.416-3.013,4.235l-0.752-3.027
		c-0.148-0.141-0.148-0.295-0.302-0.295c0-0.144-0.148-0.144-0.295-0.304c-0.161,0-0.302,0-0.617,0
		c-0.297,0.161-0.591,0.161-0.899,0.304c-0.45,0.154-0.752,0.154-1.047,0.295c-0.155,0-0.308,0.155-0.457,0.299
		c-0.146,0.148-0.308,0.148-0.308,0.316c0,0.141,0,0.302,0,0.452l6.335,23.048c0,0,0.154,0.147,0.154,0.313
		c0.153,0,0.303,0.144,0.45,0.144c0.146,0,0.463,0,0.752,0c0.313-0.144,0.61-0.144,1.059-0.308c0.297-0.147,0.745-0.291,0.906-0.291
		c0.289-0.151,0.611-0.293,0.611-0.293c0.128-0.151,0.289-0.313,0.289-0.454c0.161,0,0.161-0.167,0-0.309l-4.361-16.13
		c0.744-1.814,1.496-3.167,2.394-4.221c0.906-1.06,1.807-1.65,2.872-1.953c0.753-0.315,1.672-0.315,2.269-0.167
		c0.751,0.167,1.35,0.47,1.952,0.905c0.611,0.46,1.054,1.07,1.51,1.822c0.302,0.744,0.752,1.797,1.055,3.168l3.771,13.424
		c0,0.145,0.162,0.295,0.162,0.295c0.134,0.135,0.286,0.135,0.441,0.135c0.147,0,0.297,0,0.611,0c0.295,0,0.744-0.135,1.046-0.135
		c0.45-0.15,0.766-0.295,1.053-0.459c0.302,0,0.45-0.15,0.611-0.31c0.147-0.151,0.302-0.151,0.302-0.295c0-0.15,0-0.293,0-0.445
		L256.075,113.75z"/>
	
		<path fill="#010101" stroke="#010101" stroke-width="0.0312" stroke-linecap="round" stroke-linejoin="round" stroke-miterlimit="10" d="
		M278.855,120.98c0-0.295-0.162-0.443-0.162-0.443c-0.146-0.146-0.146-0.146-0.295-0.298c-0.154,0-0.154,0-0.308,0
		c-0.141,0.151-0.297,0.151-0.45,0.298c-0.153,0.148-0.302,0.148-0.45,0.292c-0.301,0.151-0.449,0.313-0.751,0.461
		c-0.309,0.158-0.751,0.312-1.06,0.312c-1.194,0.298-2.274,0.141-2.872-0.621c-0.59-0.741-1.193-1.796-1.502-3.455l-2.865-12.98
		l5.885-1.348c0.288,0,0.457-0.146,0.604-0.441c0-0.316,0-0.765-0.147-1.353c0-0.46-0.167-0.621-0.167-0.916
		c-0.128-0.155-0.288-0.299-0.288-0.45c-0.161-0.154-0.309-0.31-0.45-0.31c0,0-0.161,0-0.308,0l-6.026,1.358l-1.207-5.576
		c0-0.145,0-0.145-0.155-0.296c-0.154,0-0.31-0.14-0.45-0.14c-0.154,0-0.301,0-0.597,0c-0.308,0-0.603,0-1.053,0.14
		c-0.469,0.151-0.765,0.151-1.067,0.296c-0.296,0-0.449,0.148-0.597,0.296c-0.14,0.157-0.301,0.157-0.301,0.308
		c0,0.165,0,0.312,0,0.454l1.2,5.422l-3.161,0.766c-0.146,0-0.308,0.14-0.457,0.14c0,0.155-0.154,0.302-0.154,0.45
		c0,0.158,0,0.31,0,0.617c0,0.145,0,0.439,0.154,0.745c0.149,0.601,0.311,1.051,0.457,1.358c0.296,0.145,0.45,0.312,0.758,0.145
		l3.168-0.595l3.168,13.568c0.295,1.352,0.591,2.417,1.041,3.313c0.462,0.902,1.054,1.668,1.812,2.254
		c0.758,0.467,1.518,0.766,2.416,0.917c0.893,0.141,1.973,0.141,3.168-0.151c0.449-0.144,0.899-0.299,1.2-0.456
		c0.463-0.147,0.759-0.147,1.06-0.452c0.311-0.154,0.604-0.295,0.907-0.443c0.308-0.148,0.449-0.293,0.603-0.456
		c0-0.31,0.155-0.454,0.155-0.752c0-0.292-0.155-0.766-0.155-1.214C278.996,121.449,278.996,121.142,278.855,120.98z"/>
	
		<path fill="#010101" stroke="#010101" stroke-width="0.0312" stroke-linecap="round" stroke-linejoin="round" stroke-miterlimit="10" d="
		M294.235,97.019c-0.161-0.158-0.161-0.45-0.161-0.45c-0.141-0.144-0.141-0.288-0.141-0.288c-0.161-0.163-0.161-0.163-0.309-0.315
		c-0.161,0-0.301,0-0.61-0.158c-0.295,0-0.597,0-0.906,0c-0.287,0-0.591,0-0.892,0c-0.31,0-0.611,0-0.758,0.158
		c-0.45,0-1.055,0.15-1.498,0.46c-0.476,0.144-0.919,0.436-1.375,0.896c-0.436,0.462-0.894,1.051-1.362,1.66
		c-0.45,0.749-0.899,1.657-1.344,2.71l-0.597-3.472c0-0.148,0-0.148-0.154-0.293c0,0-0.161-0.144-0.322-0.144
		c-0.127-0.155-0.448-0.155-0.577-0.155c-0.322,0.155-0.609,0.155-1.073,0.155c-0.289,0.144-0.604,0.144-0.898,0.288
		c-0.31,0-0.458,0.148-0.611,0.299c-0.142,0-0.142,0.157-0.142,0.313c-0.153,0-0.153,0.154-0.153,0.297l4.381,23.371
		c0.147,0.148,0.147,0.315,0.147,0.315c0.147,0.141,0.302,0.141,0.444,0.293c0.161,0,0.449,0,0.771,0
		c0.129,0,0.597-0.151,0.899-0.151c0.45-0.14,0.9-0.14,1.047-0.308c0.309,0,0.611-0.148,0.758-0.306
		c0.161,0,0.161-0.154,0.296-0.292c0,0,0-0.158,0-0.298l-2.871-15.392c0.469-1.042,0.771-1.963,1.221-2.708
		c0.295-0.748,0.751-1.372,1.039-1.812c0.477-0.604,0.772-0.909,1.221-1.204c0.457-0.154,0.753-0.45,1.202-0.45
		c0.449-0.154,0.753-0.154,1.054-0.154c0.302,0,0.609,0.154,0.905,0.154s0.457,0,0.758,0c0.147,0.151,0.308,0.151,0.45,0.151
		c0.161-0.151,0.309-0.151,0.309-0.304c0.147,0,0.147-0.155,0.147-0.313c0-0.145,0-0.297,0-0.592c0-0.298-0.147-0.609-0.147-1.053
		C294.235,97.627,294.235,97.32,294.235,97.019z"/>
	
		<path fill="#010101" stroke="#010101" stroke-width="0.0312" stroke-linecap="round" stroke-linejoin="round" stroke-miterlimit="10" d="
		M318.804,108.63c0,1.214-0.297,2.243-0.906,3.166c-0.449,0.913-1.055,1.639-1.966,2.263c-0.899,0.591-1.967,0.897-3.153,1.066
		c-1.355,0.141-2.57,0.141-3.624-0.309c-1.061-0.315-1.812-0.902-2.557-1.669c-0.61-0.744-1.221-1.646-1.517-2.852
		c-0.448-1.067-0.745-2.275-0.906-3.634c-0.134-1.354-0.134-2.557,0-3.767c0-1.206,0.302-2.259,0.906-3.169
		c0.457-0.893,1.061-1.657,1.961-2.247c0.904-0.622,1.958-0.913,3.167-1.057c1.369-0.31,2.57-0.145,3.63,0.295
		c1.047,0.299,1.806,0.908,2.544,1.65c0.61,0.765,1.066,1.817,1.516,2.882c0.45,1.045,0.752,2.252,0.906,3.606
		C318.958,106.21,318.958,107.413,318.804,108.63z M321.814,98.682c-0.597-1.514-1.657-2.875-2.71-3.771
		c-1.055-0.908-2.41-1.672-3.928-1.956c-1.503-0.45-3.313-0.45-5.268-0.298c-1.967,0.298-3.771,0.898-5.134,1.795
		c-1.35,0.765-2.563,1.974-3.47,3.177c-0.751,1.353-1.354,2.859-1.65,4.504c-0.302,1.831-0.302,3.627,0,5.452
		c0.295,2.094,0.744,3.769,1.502,5.268c0.605,1.507,1.504,2.858,2.718,3.765c1.055,1.07,2.41,1.654,3.913,2.107
		c1.516,0.309,3.314,0.309,5.273,0.163c1.966-0.308,3.63-0.905,5.134-1.82c1.354-0.899,2.563-1.939,3.315-3.315
		c0.904-1.19,1.502-2.708,1.804-4.363c0.303-1.803,0.303-3.628,0-5.573C323.018,101.843,322.575,100.188,321.814,98.682z"/>
	
		<path fill="#010101" stroke="#010101" stroke-width="0.0312" stroke-linecap="round" stroke-linejoin="round" stroke-miterlimit="10" d="
		M358.448,106.21c-0.604,0.893-1.208,1.668-1.805,2.275c-0.61,0.603-1.061,1.19-1.657,1.499c-0.604,0.452-1.054,0.751-1.657,0.889
		c-0.457,0.319-1.054,0.319-1.658,0.319c-1.059,0.159-2.106-0.15-2.864-0.61c-0.752-0.436-1.503-1.197-1.96-1.951
		c-0.449-0.9-0.919-1.967-1.207-3.014c-0.161-1.214-0.302-2.419-0.45-3.627c0-1.046,0-2.262,0.147-3.309
		c0.141-1.055,0.456-2.114,0.913-3.022c0.449-0.899,1.054-1.657,1.805-2.104c0.752-0.601,1.651-0.898,2.717-1.051
		c1.195,0,2.403,0.297,3.611,1.051c1.052,0.608,2.261,1.661,3.617,3.164L358.448,106.21z M361.321,77.871
		c0-0.151,0-0.151-0.141-0.293c0-0.15-0.154-0.15-0.31-0.308c-0.161,0-0.456,0-0.764-0.151c-0.141,0-0.597,0-1.047,0
		c-0.449,0.151-0.738,0.151-1.06,0.151c-0.289,0.157-0.45,0.157-0.604,0.157c-0.154,0.15-0.296,0.292-0.296,0.292
		c-0.155,0.151-0.155,0.299-0.155,0.443l0.766,13.874c-1.214-1.212-2.415-1.953-3.624-2.561c-1.06-0.445-2.416-0.744-3.778-0.744
		c-1.65,0.144-3.16,0.592-4.382,1.214c-1.335,0.734-2.254,1.651-3.147,2.856c-0.758,1.201-1.355,2.71-1.657,4.367
		c-0.462,1.667-0.462,3.613-0.462,5.587c0.16,1.789,0.462,3.455,0.905,4.976c0.457,1.5,1.06,2.852,1.812,3.923
		c0.907,1.197,1.96,1.952,3.174,2.549c1.343,0.614,2.858,0.923,4.522,0.756c1.651,0,3.16-0.457,4.361-1.353
		c1.363-0.755,2.565-1.952,3.786-3.309l0.14,3.139c0,0.17,0.147,0.17,0.147,0.314c0.146,0.165,0.302,0.165,0.457,0.31
		c0.14,0,0.295,0,0.61,0c0.134,0.144,0.45,0.144,0.898,0c0.302,0,0.597,0,0.906,0c0.141-0.145,0.45-0.145,0.592-0.145
		c0.154-0.165,0.154-0.165,0.301-0.31c0-0.17,0-0.312,0-0.456L361.321,77.871z"/>
	
		<path fill="#010101" stroke="#010101" stroke-width="0.0312" stroke-linecap="round" stroke-linejoin="round" stroke-miterlimit="10" d="
		M373.989,98.835c0-1.054,0.289-1.976,0.598-2.871c0.302-0.89,0.597-1.656,1.207-2.242c0.611-0.768,1.21-1.382,2.113-1.687
		c0.752-0.439,1.658-0.595,2.718-0.595c2.101,0,3.765,0.595,4.826,1.966c1.046,1.353,1.496,3.16,1.496,5.429H373.989z
		 M391.323,99.275c0-1.492-0.154-2.996-0.59-4.364c-0.311-1.355-0.921-2.57-1.826-3.62c-0.904-0.903-1.959-1.815-3.329-2.417
		c-1.188-0.606-2.852-0.904-4.65-0.904c-1.813,0-3.33,0.298-4.824,0.904c-1.37,0.601-2.564,1.514-3.625,2.567
		c-0.898,1.215-1.798,2.561-2.255,4.218c-0.604,1.661-0.759,3.476-0.759,5.592c0,2.094,0.154,4.058,0.759,5.563
		c0.457,1.673,1.193,3.031,2.255,4.061c0.899,1.078,2.255,1.978,3.625,2.42c1.496,0.621,3.161,0.909,5.112,0.909
		c1.209,0,2.262-0.144,3.322-0.288c0.913-0.165,1.805-0.31,2.564-0.479c0.766-0.287,1.369-0.43,1.805-0.726
		c0.604-0.15,0.905-0.306,0.905-0.453c0.146,0,0.146-0.173,0.308-0.307c0,0,0-0.154,0.142-0.298c0-0.15,0-0.301,0-0.46
		c0-0.15,0-0.456,0-0.61c0-0.285,0-0.597,0-0.737c0-0.316,0-0.46-0.142-0.615c0-0.141-0.16-0.141-0.16-0.295
		c-0.146,0-0.295,0-0.295,0c-0.31,0-0.598,0-1.061,0.154c-0.295,0.297-0.898,0.439-1.504,0.756
		c-0.604,0.141-1.522,0.302-2.261,0.594c-0.905,0.145-1.959,0.145-3.162,0.145c-1.361,0-2.563-0.145-3.631-0.597
		c-0.897-0.309-1.643-0.896-2.394-1.668c-0.611-0.734-1.068-1.653-1.221-2.701c-0.289-1.074-0.444-2.272-0.444-3.628h15.675
		c0.457,0,0.758-0.147,1.209-0.442c0.297-0.296,0.451-0.765,0.451-1.51V99.275L391.323,99.275z"/>
	
		<path fill="#010101" stroke="#010101" stroke-width="0.0312" stroke-linecap="round" stroke-linejoin="round" stroke-miterlimit="10" d="
		M429.323,113.436c0-0.142-0.152-0.43-0.152-0.584c-0.159-0.141-0.159-0.141-0.301-0.292c-0.147-0.155-0.147-0.155-0.301-0.155
		l-13.57-1.053l1.061-12.217l11.462,0.902c0.136,0,0.136,0,0.289,0c0.153-0.154,0.315-0.154,0.315-0.31
		c0.134-0.157,0.134-0.301,0.289-0.594c0-0.155,0-0.454,0.154-0.765c0-0.299,0-0.587,0-0.889c0-0.313-0.154-0.463-0.154-0.622
		c-0.155-0.14-0.155-0.292-0.289-0.292c-0.162-0.145-0.162-0.145-0.315-0.145l-11.461-1.057l0.905-10.565l13.279,1.063
		c0.141,0,0.297,0,0.443,0c0.148-0.157,0.148-0.308,0.301-0.456c0,0,0.154-0.293,0.154-0.439c0.146-0.309,0.146-0.617,0.146-0.917
		c0-0.292,0-0.6,0-0.91c0-0.15,0-0.445-0.146-0.586c0-0.15-0.154-0.309-0.154-0.309c-0.152-0.151-0.301-0.151-0.449-0.151
		l-16.139-1.364c-0.443,0-0.738,0-1.209,0.309c-0.289,0.312-0.604,0.754-0.604,1.365l-2.564,30.444c0,0.584,0,1.208,0.471,1.507
		c0.301,0.293,0.598,0.459,1.045,0.459l16.295,1.35c0.133,0,0.287,0,0.442,0c0.153-0.148,0.302-0.314,0.302-0.456
		c0.141-0.138,0.141-0.293,0.301-0.443c0-0.31,0-0.618,0.152-0.909C429.323,114.06,429.323,113.75,429.323,113.436z"/>
	
		<path fill="#010101" stroke="#010101" stroke-width="0.0312" stroke-linecap="round" stroke-linejoin="round" stroke-miterlimit="10" d="
		M451.182,109.231c-0.147-0.744-0.613-1.5-1.056-2.128c-0.457-0.583-1.055-1.037-1.817-1.65c-0.591-0.436-1.349-0.745-2.101-1.205
		l-1.967-1.197c-0.744-0.296-1.349-0.755-1.813-1.209c-0.583-0.439-0.9-0.898-1.195-1.354c-0.311-0.604-0.457-1.061-0.311-1.806
		c0-0.463,0.156-0.899,0.465-1.361c0.141-0.46,0.591-0.753,0.904-0.896c0.451-0.31,0.901-0.46,1.496-0.618c0.604,0,1.203,0,1.967,0
		c0.898,0.158,1.512,0.309,2.107,0.618c0.76,0.295,1.207,0.594,1.656,0.896c0.451,0.308,0.752,0.462,1.048,0.752
		c0.313,0.147,0.462,0.299,0.612,0.299c0.152,0,0.302,0,0.302,0c0.151,0,0.302-0.151,0.302-0.299
		c0.146-0.146,0.146-0.289,0.146-0.444c0.146-0.308,0.146-0.459,0.146-0.768c0.16-0.293,0.16-0.581,0.16-0.745
		c0-0.15,0-0.456,0-0.604c0,0-0.16-0.144-0.16-0.295c0-0.141-0.146-0.306-0.293-0.456c-0.148-0.158-0.453-0.309-0.754-0.597
		c-0.301-0.161-0.758-0.439-1.207-0.608c-0.451-0.316-1.056-0.466-1.652-0.601c-0.604-0.298-1.215-0.45-1.965-0.45
		c-1.363-0.164-2.713-0.164-3.779,0c-1.194,0.297-2.1,0.734-2.864,1.218c-0.899,0.584-1.497,1.188-1.954,2.084
		c-0.447,0.761-0.757,1.675-0.904,2.564c-0.146,1.057-0.146,1.961,0.147,2.717c0.31,0.901,0.612,1.513,1.06,2.109
		c0.449,0.766,1.053,1.206,1.807,1.661c0.611,0.45,1.361,0.9,1.967,1.353c0.744,0.454,1.511,0.755,2.104,1.201
		c0.604,0.318,1.205,0.758,1.814,1.074c0.451,0.448,0.893,0.898,1.207,1.499c0.148,0.452,0.298,1.057,0.148,1.667
		c0,0.752-0.148,1.197-0.463,1.642c-0.289,0.456-0.736,0.766-1.182,1.064c-0.469,0.292-1.074,0.459-1.68,0.459
		c-0.602,0.14-1.34,0.14-2.106,0c-0.894-0.167-1.81-0.315-2.413-0.758c-0.753-0.31-1.343-0.624-1.951-1.054
		c-0.459-0.296-0.9-0.601-1.211-0.92c-0.457-0.289-0.597-0.434-0.904-0.434c-0.155,0-0.155,0-0.301,0
		c-0.156,0.145-0.156,0.145-0.302,0.298c0,0.134-0.147,0.307-0.147,0.607c-0.152,0.15-0.152,0.447-0.152,0.734
		c-0.143,0.622-0.143,1.064,0,1.356c0,0.308,0.152,0.617,0.301,0.768c0.146,0.293,0.448,0.434,0.75,0.748
		c0.457,0.309,0.906,0.604,1.512,0.748c0.596,0.299,1.207,0.611,1.957,0.913c0.76,0.155,1.506,0.295,2.418,0.443
		c1.348,0.145,2.557,0.145,3.764,0c1.209-0.148,2.262-0.584,3.173-1.058c0.899-0.597,1.651-1.194,2.255-2.086
		c0.611-0.923,0.906-1.978,1.059-3.175C451.484,110.874,451.484,109.986,451.182,109.231z"/>
	
		<path fill="#010101" stroke="#010101" stroke-width="0.0312" stroke-linecap="round" stroke-linejoin="round" stroke-miterlimit="10" d="
		M469.118,119.033c0-0.309-0.14-0.453-0.14-0.618c0,0,0-0.144-0.163-0.144c0-0.148-0.146-0.148-0.146-0.148
		c-0.146,0-0.297,0-0.449,0c-0.289,0-0.45,0.148-0.76,0.148c-0.301,0-0.596,0-0.905,0.144c-0.295,0-0.589,0-1.048-0.144
		c-1.215-0.148-1.959-0.745-2.407-1.654c-0.302-0.906-0.302-2.258,0-3.765l2.254-13.122l6.172,1.054
		c0.163,0,0.478-0.145,0.612-0.295c0.301-0.299,0.441-0.758,0.441-1.352c0.162-0.299,0.162-0.607,0.162-0.917
		c0-0.147,0-0.293,0-0.592c-0.162-0.146-0.162-0.146-0.303-0.308c-0.146,0-0.146-0.151-0.302-0.151l-6.024-1.054l0.896-5.586
		c0-0.141,0-0.293,0-0.446c0,0-0.146-0.138-0.301-0.309c-0.154-0.138-0.297-0.138-0.598-0.299c-0.301,0-0.604-0.154-1.06-0.154
		c-0.451-0.14-0.759-0.14-1.056-0.14s-0.609,0-0.744,0c-0.151,0-0.308,0.14-0.308,0.14c-0.147,0.154-0.147,0.315-0.147,0.453
		l-1.062,5.594l-3.319-0.607c-0.147,0-0.147,0-0.291,0c-0.16,0-0.32,0.15-0.32,0.315c-0.137,0.141-0.288,0.293-0.288,0.436
		c-0.161,0.297-0.161,0.604-0.302,0.913c0,0.594,0,1.057,0,1.358c0.141,0.289,0.302,0.437,0.59,0.588l3.328,0.465l-2.402,13.874
		c-0.314,1.35-0.462,2.557-0.314,3.624c0,1.04,0.314,1.937,0.765,2.698c0.437,0.748,1.041,1.358,1.952,1.797
		c0.76,0.461,1.813,0.772,3.021,1.07c0.301,0,0.75,0.138,1.2,0.138c0.457,0,0.761,0,1.201,0c0.308,0,0.604-0.138,0.905-0.138
		c0.309-0.157,0.604-0.157,0.758-0.298c0.154-0.154,0.303-0.312,0.451-0.621c0.147-0.295,0.147-0.741,0.309-1.201
		C468.979,119.471,469.118,119.185,469.118,119.033z"/>
	
		<path fill="#010101" stroke="#010101" stroke-width="0.0312" stroke-linecap="round" stroke-linejoin="round" stroke-miterlimit="10" d="
		M499.134,103.962c0-0.15,0-0.308,0-0.308c-0.154-0.151-0.154-0.31-0.301-0.458c-0.154,0-0.451-0.146-0.604-0.301
		c-0.299,0-0.611-0.141-1.063-0.296c-0.455,0-0.752-0.161-1.066-0.161c-0.287,0-0.436,0-0.736,0c-0.162,0-0.309,0.161-0.309,0.161
		c-0.152,0.155-0.152,0.155-0.297,0.296l-3.77,16.288c-1.512,1.206-2.865,1.957-4.076,2.558c-1.207,0.448-2.414,0.607-3.469,0.295
		c-0.904-0.138-1.502-0.436-2.107-0.896c-0.448-0.456-0.902-1.047-1.205-1.671c-0.311-0.749-0.451-1.489-0.451-2.406
		c0-0.731,0.141-1.939,0.451-3.314l3.173-13.418c0.142-0.144,0.142-0.295,0-0.448c0-0.154-0.155-0.154-0.302-0.313
		c-0.154-0.145-0.309-0.297-0.604-0.297c-0.31-0.141-0.61-0.141-1.062-0.295c-0.295-0.145-0.75-0.145-0.902-0.145
		c-0.303-0.154-0.611-0.154-0.753,0c-0.146,0-0.31,0-0.451,0.145c0,0-0.151,0.154-0.151,0.295l-3.315,14.019
		c-0.304,1.663-0.612,3.181-0.612,4.393c0,1.346,0.309,2.41,0.768,3.455c0.441,1.05,1.039,1.966,2.113,2.731
		c0.894,0.734,2.102,1.346,3.603,1.645c1.37,0.292,2.726,0.292,4.229,0c1.359-0.457,3.012-1.204,4.678-2.262l-0.766,3.012
		c0,0.161,0,0.315,0,0.315c0,0.145,0.152,0.293,0.313,0.293c0,0.14,0.297,0.298,0.453,0.298c0.301,0.15,0.596,0.299,1.047,0.299
		c0.309,0.163,0.609,0.163,0.918,0.163c0.295,0,0.449,0,0.598,0c0.146,0,0.303,0,0.449-0.163c0,0,0.154-0.148,0.154-0.299
		L499.134,103.962z"/>
	
		<path fill="#010101" stroke="#010101" stroke-width="0.0312" stroke-linecap="round" stroke-linejoin="round" stroke-miterlimit="10" d="
		M518.433,127.018c-0.926,0.62-1.816,1.06-2.574,1.507c-0.746,0.31-1.496,0.617-2.102,0.768c-0.609,0.289-1.201,0.289-1.811,0.289
		c-0.605,0-1.057,0-1.658-0.289c-1.061-0.294-1.967-0.768-2.57-1.509c-0.443-0.764-0.906-1.662-1.057-2.563
		c-0.146-1.054-0.146-2.111,0-3.318c0.146-1.07,0.451-2.275,0.76-3.486c0.297-1.04,0.758-1.939,1.355-2.996
		c0.451-0.917,1.201-1.813,1.805-2.412c0.76-0.748,1.67-1.209,2.416-1.503c0.912-0.309,1.961-0.309,3.012,0.15
		c1.209,0.298,2.109,1.057,3.014,2.097c0.773,1.067,1.518,2.416,2.262,4.231L518.433,127.018z M530.94,101.546
		c0-0.145,0-0.145,0-0.296c0-0.163-0.146-0.308-0.301-0.469c-0.146,0-0.297-0.145-0.611-0.295c-0.135-0.155-0.605-0.299-0.896-0.45
		c-0.451,0-0.754-0.154-1.047-0.154c-0.311-0.155-0.6-0.155-0.762-0.155c-0.16,0-0.295,0.155-0.449,0.155
		c0,0.154-0.16,0.304-0.16,0.304l-4.053,13.247c-0.771-1.483-1.518-2.697-2.576-3.591c-0.898-0.909-1.965-1.525-3.314-1.966
		c-1.658-0.466-3.174-0.601-4.52-0.466c-1.359,0.318-2.723,0.758-3.93,1.677c-1.049,0.896-2.115,1.953-3.002,3.47
		c-0.902,1.356-1.67,3.151-2.281,5.127c-0.59,1.499-0.885,3.144-1.047,4.812c-0.154,1.52,0,3.02,0.457,4.378
		c0.289,1.353,1.061,2.55,1.969,3.473c1.045,1.051,2.395,1.798,4.064,2.41c1.496,0.443,3.012,0.443,4.518,0.151
		c1.516-0.313,3.012-0.917,4.67-1.813l-0.896,3.013c0,0.155,0,0.155,0,0.3c0,0.15,0.152,0.291,0.152,0.291
		c0.143,0.168,0.457,0.313,0.584,0.474c0.314,0,0.469,0.154,0.926,0.288c0.289,0,0.592,0.155,0.898,0.155c0.162,0,0.463,0,0.605,0
		c0.145,0,0.301,0,0.301-0.155c0.162,0,0.162-0.134,0.162-0.288L530.94,101.546z"/>
	
		<path fill="#010101" stroke="#010101" stroke-width="0.0312" stroke-linecap="round" stroke-linejoin="round" stroke-miterlimit="10" d="
		M543.618,107.583c-0.162-0.618-0.766-0.919-1.678-1.373c-1.041-0.308-1.807-0.452-2.254-0.145
		c-0.451,0.145-0.906,0.749-1.355,1.664c-0.297,1.061-0.297,1.654-0.156,2.255c0.311,0.452,0.9,0.751,1.814,1.207
		c1.053,0.309,1.656,0.46,2.254,0.159c0.471-0.159,0.92-0.77,1.215-1.675C543.905,108.63,543.905,108.023,543.618,107.583z
		 M540.134,117.064c0.162-0.15,0.162-0.295,0-0.45c0-0.14,0-0.14-0.146-0.281c-0.141-0.168-0.301-0.316-0.604-0.483
		c-0.146-0.141-0.604-0.141-0.898-0.434c-0.451-0.15-0.75-0.15-1.055-0.292c-0.301,0-0.609,0-0.758,0c-0.154,0-0.311,0-0.457,0.141
		c0,0-0.146,0.15-0.146,0.306l-8.295,22.321c-0.143,0.138-0.143,0.285-0.143,0.439c0.143,0,0.143,0.145,0.297,0.302
		c0.156,0.151,0.303,0.314,0.605,0.459c0.295,0,0.598,0.145,0.893,0.285c0.471,0.161,0.764,0.305,1.066,0.449
		c0.301,0,0.604,0,0.75,0c0.148,0,0.301,0,0.301-0.145c0.162,0,0.299-0.144,0.299-0.305L540.134,117.064z"/>
	
		<path fill="#010101" stroke="#010101" stroke-width="0.0312" stroke-linecap="round" stroke-linejoin="round" stroke-miterlimit="10" d="
		M553.702,142.244c-1.494,0.618-2.711,1.063-3.92,1.207c-1.053,0.146-2.262,0-3.314-0.441c-1.199-0.601-2.113-1.354-2.563-2.413
		c-0.449-0.908-0.449-1.958,0.16-3.16c0.289-0.613,0.59-1.216,1.049-1.675c0.457-0.299,1.053-0.587,1.811-0.748
		c0.598-0.145,1.504-0.145,2.41,0c0.912,0.161,1.813,0.604,3.016,1.041l3.313,1.526L553.702,142.244z M561.862,134.41
		c0.592-1.358,0.895-2.561,1.041-3.775c0.152-1.053,0-2.109-0.449-3.16c-0.303-1.044-0.914-1.956-1.961-2.722
		c-0.918-0.879-2.107-1.645-3.777-2.254c-0.893-0.461-1.643-0.756-2.563-0.896c-0.906-0.154-1.805-0.312-2.557-0.46
		c-0.744,0-1.504,0-2.262,0c-0.604,0-1.055,0.148-1.355,0.306c-0.316,0.154-0.609,0.295-0.76,0.452
		c-0.141,0.138-0.295,0.45-0.441,0.906c-0.16,0.302-0.309,0.45-0.309,0.758c0,0.145,0,0.31,0,0.601c0,0.148,0,0.289,0.148,0.289
		c0,0.154,0.158,0.154,0.158,0.297c0.301,0,0.592,0.162,1.047,0c0.604,0,1.217-0.143,1.959-0.143c0.604,0,1.512,0,2.426,0.143
		c0.75,0.162,1.805,0.31,2.717,0.766c0.898,0.45,1.652,0.913,2.262,1.358c0.441,0.597,0.896,1.06,1.055,1.647
		c0.289,0.618,0.289,1.365,0.145,1.966c0,0.755-0.301,1.503-0.596,2.419l-0.758,1.651l-3.021-1.214
		c-1.805-0.749-3.322-1.354-4.83-1.643c-1.52-0.304-2.859-0.304-4.066-0.146c-1.209,0.291-2.262,0.73-3.174,1.352
		c-0.9,0.748-1.646,1.651-2.094,2.853c-0.463,1.06-0.771,2.133-0.771,3.19c0,0.879,0.309,1.797,0.611,2.701
		c0.449,0.898,1.059,1.653,1.959,2.415c0.76,0.588,1.666,1.208,2.871,1.798c1.357,0.453,2.703,0.765,4.066,0.765
		c1.51-0.15,2.859-0.46,4.215-1.06l-0.898,2.259c0,0.154-0.154,0.299,0,0.449c0,0.15,0.146,0.298,0.451,0.454
		c0.158,0.146,0.609,0.308,1.059,0.458c0.295,0.296,0.744,0.439,0.906,0.439c0.295,0,0.447,0,0.76,0
		c0.139,0,0.299-0.144,0.299-0.288L561.862,134.41z"/>
	
		<path fill="#010101" stroke="#010101" stroke-width="0.0312" stroke-linecap="round" stroke-linejoin="round" stroke-miterlimit="10" d="
		M586.874,149.191c0.91-1.517,1.361-2.71,1.67-3.915c0.289-1.208,0.443-2.415,0.289-3.483c-0.146-1.198-0.598-2.251-1.355-3.157
		c-0.604-1.058-1.656-1.815-3.16-2.583c-1.217-0.726-2.564-1.041-4.082-1.041c-1.494,0-3.152,0.315-4.963,1.041l1.51-2.853
		c0,0,0-0.15,0-0.292c0-0.151,0-0.313-0.148-0.313c0-0.141-0.152-0.31-0.465-0.449c-0.139-0.155-0.449-0.298-0.742-0.443
		c-0.461-0.305-0.752-0.459-0.912-0.459c-0.289-0.148-0.449-0.148-0.604-0.148c-0.135,0-0.295,0-0.451,0
		c-0.154,0.148-0.154,0.148-0.154,0.302l-11.314,20.948c0,0.159,0,0.31,0,0.473c0,0,0,0.141,0.162,0.296
		c0.158,0.14,0.301,0.288,0.455,0.433c0.297,0.161,0.604,0.471,0.9,0.617c0.447,0.148,0.748,0.302,1.059,0.443
		c0.301,0.155,0.457,0.155,0.604,0.155c0.148,0,0.297,0,0.449,0c0.148-0.155,0.148-0.155,0.301-0.295l7.854-14.64
		c1.65-0.734,3.309-1.193,4.514-1.496c1.357-0.154,2.561,0,3.465,0.617c0.75,0.429,1.35,0.879,1.809,1.496
		c0.447,0.443,0.607,1.205,0.756,1.961c0,0.601,0,1.499-0.309,2.248c-0.146,0.762-0.598,1.824-1.193,3.021l-6.49,12.37
		c-0.154,0.151-0.154,0.151-0.154,0.309c0,0.15,0.154,0.292,0.154,0.443c0.156,0,0.309,0.293,0.611,0.453
		c0.148,0.147,0.451,0.309,0.898,0.456c0.301,0.292,0.596,0.443,0.906,0.443c0.295,0.144,0.449,0.144,0.758,0.144
		c0.148,0.15,0.295,0,0.295,0c0.156,0,0.311-0.144,0.311-0.295L586.874,149.191z"/>
	
		<path fill="#010101" stroke="#010101" stroke-width="0.0312" stroke-linecap="round" stroke-linejoin="round" stroke-miterlimit="10" d="
		M598.341,170.46c0.141-0.168,0.141-0.474,0.141-0.474c0-0.154,0-0.296,0-0.296c0-0.15-0.141-0.15-0.141-0.295
		c-0.16,0-0.309-0.145-0.451-0.145c-0.313,0-0.453,0-0.764-0.148c-0.146,0-0.457,0-0.746-0.161c-0.455-0.146-0.75-0.308-1.064-0.456
		c-1.049-0.758-1.51-1.511-1.51-2.563c0-0.906,0.461-2.114,1.375-3.48l7.072-11.31l5.275,3.334c0.16,0.141,0.463,0.141,0.758,0
		c0.148-0.154,0.598-0.61,0.906-1.063c0.154-0.288,0.301-0.584,0.301-0.747c0.16-0.31,0.16-0.46,0.291-0.601
		c0-0.145-0.131-0.302-0.131-0.449c0,0-0.16-0.158-0.307-0.309l-5.129-3.171l3.014-4.821c0-0.147,0.154-0.298,0.154-0.298
		c0-0.148-0.154-0.293-0.154-0.457c-0.154-0.144-0.297-0.309-0.443-0.604c-0.307-0.154-0.604-0.296-0.91-0.601
		c-0.459-0.147-0.76-0.316-0.9-0.457c-0.309-0.14-0.609-0.14-0.758-0.295c-0.16,0-0.289,0-0.447,0.155
		c-0.162,0-0.162,0.14-0.162,0.14l-3.168,4.828l-2.705-1.65c-0.16-0.161-0.301-0.161-0.457-0.161s-0.154,0-0.301,0
		c-0.146,0.161-0.309,0.311-0.449,0.453c-0.15,0.155-0.451,0.443-0.605,0.756c-0.297,0.456-0.449,0.896-0.449,1.203
		c0,0.313,0,0.609,0.295,0.749l2.881,1.813l-7.543,11.766c-0.768,1.208-1.215,2.266-1.512,3.165
		c-0.461,1.044-0.461,1.967-0.314,2.875c0,0.902,0.453,1.645,1.061,2.42c0.457,0.728,1.369,1.496,2.424,2.09
		c0.295,0.161,0.598,0.463,1.039,0.613c0.309,0.148,0.771,0.299,1.066,0.44c0.309,0.144,0.604,0.144,0.898,0.315
		c0.447,0,0.609,0,0.758,0c0.303-0.172,0.449-0.315,0.752-0.457c0.154-0.15,0.457-0.606,0.752-0.912
		C598.181,170.896,598.181,170.602,598.341,170.46z"/>
	
		<path fill="#010101" stroke="#010101" stroke-width="0.0312" stroke-linecap="round" stroke-linejoin="round" stroke-miterlimit="10" d="
		M612.206,165.777c0.609-0.758,1.354-1.497,2.119-1.967c0.752-0.604,1.494-0.898,2.408-1.197c0.76-0.168,1.656-0.32,2.543,0
		c0.928,0.14,1.828,0.449,2.738,1.029c1.645,1.376,2.559,2.886,2.559,4.544c0.152,1.646-0.451,3.472-1.953,5.271L612.206,165.777z
		 M625.929,176.47c0.898-1.355,1.662-2.554,2.113-3.905c0.443-1.369,0.758-2.731,0.596-4.077c-0.152-1.211-0.441-2.563-1.199-3.777
		c-0.611-1.35-1.813-2.561-3.316-3.621c-1.354-1.044-2.857-1.799-4.367-2.106c-1.516-0.313-3.02-0.313-4.381,0
		c-1.498,0.308-3.014,0.897-4.375,1.961c-1.502,1.055-2.713,2.263-3.922,3.91c-1.354,1.831-2.248,3.475-2.857,5.133
		c-0.447,1.671-0.764,3.173-0.447,4.682c0.158,1.346,0.596,2.704,1.494,4.056c0.92,1.38,2.121,2.573,3.617,3.777
		c0.9,0.622,1.816,1.208,2.709,1.675c0.922,0.439,1.832,0.89,2.572,1.197c0.758,0.31,1.363,0.454,1.813,0.601
		c0.604,0,0.914,0.147,1.057,0c0.152,0,0.152,0,0.307,0c0.154-0.147,0.297-0.147,0.297-0.292c0.154,0,0.309-0.155,0.309-0.31
		c0.146-0.155,0.297-0.308,0.449-0.457c0.146-0.301,0.295-0.441,0.451-0.597c0.145-0.305,0.145-0.453,0.145-0.61
		c0-0.147,0-0.147,0-0.298c0-0.145-0.145-0.145-0.145-0.288c-0.156-0.151-0.451-0.151-0.898-0.31
		c-0.451-0.151-1.055-0.313-1.658-0.46c-0.758-0.155-1.51-0.446-2.248-0.906c-0.926-0.302-1.678-0.894-2.574-1.511
		c-1.209-0.905-2.113-1.796-2.576-2.717c-0.6-0.9-0.895-1.788-0.895-2.845c-0.146-0.921,0.148-1.983,0.443-3.02
		c0.449-0.896,1.061-1.96,1.816-3.026l12.664,9.351c0.295,0.154,0.742,0.305,1.207,0.305c0.449,0,0.904-0.305,1.357-0.905
		L625.929,176.47z"/>
	
		<path fill="#010101" stroke="#010101" stroke-width="0.0312" stroke-linecap="round" stroke-linejoin="round" stroke-miterlimit="10" d="
		M639.2,194.125c0.309-0.762,0.309-1.53,0.309-2.265c-0.16-0.91-0.309-1.657-0.609-2.413c-0.309-0.76-0.609-1.503-1.055-2.116
		l-1.066-2.265c-0.295-0.59-0.6-1.355-0.906-1.942c-0.139-0.621-0.139-1.214-0.139-1.825c0-0.588,0.301-1.05,0.75-1.653
		c0.297-0.295,0.766-0.61,1.061-0.919c0.451-0.148,0.898-0.295,1.355-0.295c0.449,0.146,1.049,0.146,1.51,0.466
		c0.598,0.309,1.199,0.597,1.65,1.043c0.598,0.617,1.207,1.208,1.523,1.661c0.289,0.601,0.598,1.215,0.898,1.668
		c0.141,0.442,0.295,0.909,0.443,1.208c0,0.284,0.146,0.59,0.309,0.745c0.152,0,0.152,0,0.287,0c0.154,0.154,0.154,0,0.316,0
		c0.133-0.155,0.289-0.155,0.449-0.302c0.156-0.157,0.449-0.302,0.598-0.597c0.16-0.145,0.301-0.453,0.455-0.611
		c0.154-0.146,0.154-0.298,0.303-0.441c0,0,0-0.145,0.141-0.295c0-0.159,0-0.311-0.141-0.472c0-0.301-0.146-0.593-0.303-0.901
		c-0.154-0.454-0.295-0.89-0.604-1.353c-0.293-0.456-0.609-0.899-1.059-1.352c-0.443-0.611-0.752-1.061-1.357-1.376
		c-1.055-1.052-2.1-1.65-3.166-2.086c-1.055-0.474-2.115-0.628-3.16-0.628c-0.9,0-1.814,0.154-2.711,0.628
		c-0.766,0.436-1.52,0.889-2.123,1.646c-0.75,0.756-1.207,1.646-1.361,2.412c-0.297,0.755-0.449,1.507-0.297,2.416
		c0,0.754,0.156,1.503,0.451,2.268c0.309,0.741,0.604,1.507,1.064,2.252c0.295,0.604,0.746,1.358,1.061,2.107
		c0.297,0.603,0.598,1.203,0.752,1.976c0.297,0.588,0.297,1.205,0.297,1.795c0,0.448-0.297,1.058-0.752,1.496
		c-0.457,0.629-0.9,0.924-1.357,1.074c-0.459,0.302-1.063,0.302-1.516,0.302c-0.604-0.161-1.201-0.302-1.652-0.597
		c-0.602-0.15-1.213-0.615-1.654-1.069c-0.76-0.758-1.369-1.356-1.818-1.957c-0.449-0.758-0.752-1.352-0.896-1.967
		c-0.303-0.594-0.451-1.053-0.6-1.492c-0.154-0.46-0.307-0.765-0.469-0.923c0,0-0.143-0.142-0.289-0.142c-0.16,0-0.16,0-0.301,0.142
		c-0.162,0-0.303,0.158-0.457,0.299c-0.303,0.164-0.449,0.314-0.598,0.624c-0.457,0.439-0.605,0.731-0.752,1.043
		c-0.154,0.309-0.314,0.601-0.154,0.894c0,0.172,0,0.624,0.301,1.067c0.148,0.457,0.303,0.908,0.754,1.496
		c0.295,0.474,0.602,1.063,1.207,1.682c0.451,0.599,1.055,1.211,1.65,1.801c1.057,0.917,2.113,1.668,3.168,2.117
		c1.061,0.439,2.121,0.752,3.176,0.899c1.045,0,2.111-0.147,3.168-0.604c0.896-0.436,1.811-1.058,2.563-1.955
		C638.591,195.638,639.04,194.875,639.2,194.125z"/>
</g>
</svg>
