<?xml version="1.0" encoding="utf-8"?>
<!-- Generator: Adobe Illustrator 16.0.0, SVG Export Plug-In . SVG Version: 6.00 Build 0)  -->
<!DOCTYPE svg PUBLIC "-//W3C//DTD SVG 1.1//EN" "http://www.w3.org/Graphics/SVG/1.1/DTD/svg11.dtd" [
	<!ENTITY ns_extend "http://ns.adobe.com/Extensibility/1.0/">
	<!ENTITY ns_ai "http://ns.adobe.com/AdobeIllustrator/10.0/">
	<!ENTITY ns_graphs "http://ns.adobe.com/Graphs/1.0/">
	<!ENTITY ns_vars "http://ns.adobe.com/Variables/1.0/">
	<!ENTITY ns_imrep "http://ns.adobe.com/ImageReplacement/1.0/">
	<!ENTITY ns_sfw "http://ns.adobe.com/SaveForWeb/1.0/">
	<!ENTITY ns_custom "http://ns.adobe.com/GenericCustomNamespace/1.0/">
	<!ENTITY ns_adobe_xpath "http://ns.adobe.com/XPath/1.0/">
]>
<svg version="1.1" id="Layer_1" xmlns:x="&ns_extend;" xmlns:i="&ns_ai;" xmlns:graph="&ns_graphs;"
	 xmlns="http://www.w3.org/2000/svg" xmlns:xlink="http://www.w3.org/1999/xlink" x="0px" y="0px" width="792px" height="381.5px"
	 viewBox="-254.27 -235.135 792 381.5" enable-background="new -254.27 -235.135 792 381.5" xml:space="preserve">
<metadata>
	<sfw  xmlns="&ns_sfw;">
		<slices></slices>
		<sliceSourceBounds  width="698.964" height="316.573" x="47.018" y="269.891" bottomLeftOrigin="true"></sliceSourceBounds>
	</sfw>
</metadata>
<g>
	<path fill="#878787" d="M78.175-1.56c0-33.161-0.011-66.32,0.039-99.483c0-1.536-0.401-1.887-1.884-1.878
		c-16.195,0.056-32.388,0.052-48.579,0c-1.359-0.002-1.714,0.324-1.71,1.721c0.039,66.428,0.039,132.855,0,199.278
		c0,1.396,0.346,1.728,1.71,1.722c16.191-0.05,32.384-0.052,48.579,0.006c1.479,0.002,1.886-0.342,1.886-1.884
		C78.165,64.764,78.175,31.599,78.175-1.56z"/>
	<path fill="#878787" d="M51.9-116.091c17.497,0,30.841-13.671,30.953-31.509c0.113-17.404-14.571-31.911-31.847-31.419
		c-15.857,0.444-30.447,12.948-30.424,31.354C20.604-128.973,35.783-115.577,51.9-116.091z"/>
	<path fill="#878787" d="M-52.672-91.859c0-38.446,0.008-76.893-0.035-115.339c0-1.525,0.428-1.906,1.906-1.901
		c16.085,0.052,32.173,0.032,48.258,0.032c2.121,0.002,2.121,0.002,2.121,2.088C-0.42-141.348-0.418-75.722-0.431-10.087
		C-0.433-4.802-0.363,0.485-0.554,5.775c-0.319,8.77-1.596,17.374-3.998,25.809C-9.087,47.489-17.245,61.257-28.495,73.22
		c-8.714,9.258-18.584,16.917-30.005,22.454c-11.358,5.515-23.334,8.612-35.883,9.523c-12.036,0.872-23.951,0.163-35.696-2.761
		c-19.658-4.888-36.079-15.258-49.792-30.196c-9.306-10.134-16.432-21.611-20.984-34.685c-5.01-14.373-6.594-29.187-5.629-44.346
		c0.518-8.125,1.792-16.113,4.259-23.86c8.892-27.906,26.784-48.143,52.22-61.551c16.418-8.656,34.164-11.451,52.574-10.484
		c13.05,0.688,25.504,3.738,37.383,9.217c2.43,1.119,4.8,2.372,7.376,3.646C-52.672-90.621-52.672-91.24-52.672-91.859z
		 M-52.672,1.1c0.902-26.521-22.898-51.698-51.408-51.329c-27.244,0.353-50.646,23.271-50.669,51.389
		c-0.021,28.057,23.753,51.937,51.698,51.743C-75.1,52.714-51.816,28.413-52.672,1.1z"/>
	<g>
		
			<linearGradient id="SVGID_1_" gradientUnits="userSpaceOnUse" x1="88.9941" y1="176.5095" x2="461.103" y2="176.5095" gradientTransform="matrix(1 0 0 -1 0 142.73)">
			<stop  offset="0" style="stop-color:#F9ED32"/>
			<stop  offset="0.0961" style="stop-color:#F7D432"/>
			<stop  offset="0.2643" style="stop-color:#F4B131"/>
			<stop  offset="0.4299" style="stop-color:#F2932E"/>
			<stop  offset="0.5893" style="stop-color:#F17C2C"/>
			<stop  offset="0.7409" style="stop-color:#F16B2A"/>
			<stop  offset="0.8813" style="stop-color:#F15F29"/>
			<stop  offset="1" style="stop-color:#F15A29"/>
		</linearGradient>
		<path opacity="0.1" fill="url(#SVGID_1_)" enable-background="new    " d="M166.361-30.617c0-1.117-3.829-8.357,17.725-42.539
			c21.56-34.188,38.882-56.693,54.316-56.693c0,0,22.361,11.46,13.857,37.478c-8.501,26.018-60.171,58.088-75.264,60.803
			C169.122-30.156,166.361-29.496,166.361-30.617z M153.868,20.509c0,0,84.534-25.19,104.339-59.075
			c17.059-29.199,49.691-87.979,6.467-127.304c-30.611-27.853-89.944,7.958-149.815,112.136
			c-59.87,104.18-5.444,146.459,58.253,157.86c63.701,11.408,99.673-8.198,136.447-39.931
			C346.331,32.468,464.607-67.658,461.023-80.577c-3.572-12.914-97.693,69.251-126.42,94.633
			c-28.728,25.381-89.276,70.077-117.217,67.136C189.446,78.251,149.152,53.838,153.868,20.509z"/>
		
			<linearGradient id="SVGID_2_" gradientUnits="userSpaceOnUse" x1="97.7837" y1="177.2908" x2="469.896" y2="177.2908" gradientTransform="matrix(1 0 0 -1 0 142.73)">
			<stop  offset="0" style="stop-color:#F9ED32"/>
			<stop  offset="0.0961" style="stop-color:#F7D432"/>
			<stop  offset="0.2643" style="stop-color:#F4B131"/>
			<stop  offset="0.4299" style="stop-color:#F2932E"/>
			<stop  offset="0.5893" style="stop-color:#F17C2C"/>
			<stop  offset="0.7409" style="stop-color:#F16B2A"/>
			<stop  offset="0.8813" style="stop-color:#F15F29"/>
			<stop  offset="1" style="stop-color:#F15A29"/>
		</linearGradient>
		<path opacity="0.2" fill="url(#SVGID_2_)" enable-background="new    " d="M175.148-31.4c0-1.115-3.826-8.359,17.729-42.546
			c21.556-34.184,38.883-56.688,54.317-56.688c0,0,22.358,11.46,13.857,37.478c-8.504,26.018-60.174,58.094-75.267,60.81
			C177.915-30.938,175.148-30.281,175.148-31.4z M162.655,19.727c0,0,84.539-25.187,104.341-59.076
			c17.061-29.204,49.691-87.979,6.469-127.306c-30.61-27.848-89.942,7.96-149.817,112.136
			c-59.87,104.182-5.441,146.455,58.256,157.863c63.701,11.408,99.674-8.201,136.447-39.932
			C355.121,31.68,473.396-68.446,469.817-81.36c-3.582-12.912-97.7,69.253-126.43,94.635
			c-28.722,25.384-89.268,70.073-117.214,67.137C198.239,77.47,157.939,53.055,162.655,19.727z"/>
		
			<linearGradient id="SVGID_3_" gradientUnits="userSpaceOnUse" x1="109.1489" y1="176.4382" x2="481.2612" y2="176.4382" gradientTransform="matrix(1 0 0 -1 0 142.73)">
			<stop  offset="0" style="stop-color:#F9ED32"/>
			<stop  offset="0.0961" style="stop-color:#F7D432"/>
			<stop  offset="0.2643" style="stop-color:#F4B131"/>
			<stop  offset="0.4299" style="stop-color:#F2932E"/>
			<stop  offset="0.5893" style="stop-color:#F17C2C"/>
			<stop  offset="0.7409" style="stop-color:#F16B2A"/>
			<stop  offset="0.8813" style="stop-color:#F15F29"/>
			<stop  offset="1" style="stop-color:#F15A29"/>
		</linearGradient>
		<path opacity="0.5" fill="url(#SVGID_3_)" enable-background="new    " d="M186.517-30.542c0-1.121-3.83-8.357,17.725-42.546
			c21.556-34.184,38.883-56.688,54.317-56.688c0,0,22.36,11.46,13.857,37.478c-8.504,26.018-60.17,58.087-75.265,60.801
			C189.28-30.087,186.517-29.421,186.517-30.542z M174.026,20.584c0,0,84.533-25.194,104.335-59.082
			c17.061-29.199,49.691-87.98,6.469-127.301c-30.608-27.853-89.942,7.957-149.817,112.136
			c-59.87,104.178-5.441,146.454,58.258,157.864c63.701,11.402,99.672-8.204,136.445-39.937
			C366.488,32.538,484.763-67.588,481.182-80.504c-3.577-12.914-97.7,69.248-126.425,94.637
			c-28.725,25.382-89.272,70.069-117.215,67.132C209.604,78.323,169.308,53.909,174.026,20.584z"/>
		
			<linearGradient id="SVGID_4_" gradientUnits="userSpaceOnUse" x1="120.0972" y1="177.0564" x2="492.2114" y2="177.0564" gradientTransform="matrix(1 0 0 -1 0 142.73)">
			<stop  offset="0" style="stop-color:#F9ED32"/>
			<stop  offset="0.0961" style="stop-color:#F7D432"/>
			<stop  offset="0.2643" style="stop-color:#F4B131"/>
			<stop  offset="0.4299" style="stop-color:#F2932E"/>
			<stop  offset="0.5893" style="stop-color:#F17C2C"/>
			<stop  offset="0.7409" style="stop-color:#F16B2A"/>
			<stop  offset="0.8813" style="stop-color:#F15F29"/>
			<stop  offset="1" style="stop-color:#F15A29"/>
		</linearGradient>
		<path fill="url(#SVGID_4_)" d="M197.465-31.165c0-1.117-3.83-8.361,17.725-42.546c21.556-34.18,38.883-56.69,54.317-56.69
			c0,0,22.363,11.46,13.857,37.478c-8.504,26.018-60.174,58.089-75.265,60.803C200.224-30.703,197.465-30.048,197.465-31.165z
			 M184.97,19.964c0,0,84.537-25.193,104.341-59.082c17.059-29.2,49.693-87.975,6.467-127.302
			c-30.61-27.846-89.941,7.962-149.816,112.142C86.09,49.897,140.517,92.173,204.218,103.578
			c63.699,11.411,99.673-8.198,136.445-39.929c36.771-31.732,155.044-131.86,151.469-144.774
			c-3.575-12.912-97.698,69.253-126.429,94.635c-28.719,25.382-89.274,70.073-117.213,67.134
			C220.548,77.705,180.259,53.29,184.97,19.964z"/>
	</g>
</g>
</svg>
