<?xml version="1.0" encoding="utf-8"?>
<!-- Generator: Adobe Illustrator 16.0.0, SVG Export Plug-In . SVG Version: 6.00 Build 0)  -->
<!DOCTYPE svg PUBLIC "-//W3C//DTD SVG 1.1//EN" "http://www.w3.org/Graphics/SVG/1.1/DTD/svg11.dtd" [
	<!ENTITY ns_extend "http://ns.adobe.com/Extensibility/1.0/">
	<!ENTITY ns_ai "http://ns.adobe.com/AdobeIllustrator/10.0/">
	<!ENTITY ns_graphs "http://ns.adobe.com/Graphs/1.0/">
	<!ENTITY ns_vars "http://ns.adobe.com/Variables/1.0/">
	<!ENTITY ns_imrep "http://ns.adobe.com/ImageReplacement/1.0/">
	<!ENTITY ns_sfw "http://ns.adobe.com/SaveForWeb/1.0/">
	<!ENTITY ns_custom "http://ns.adobe.com/GenericCustomNamespace/1.0/">
	<!ENTITY ns_adobe_xpath "http://ns.adobe.com/XPath/1.0/">
]>
<svg version="1.1" id="Layer_1" xmlns:x="&ns_extend;" xmlns:i="&ns_ai;" xmlns:graph="&ns_graphs;"
	 xmlns="http://www.w3.org/2000/svg" xmlns:xlink="http://www.w3.org/1999/xlink" x="0px" y="0px" width="792px" height="381.5px"
	 viewBox="0 0 792 381.5" enable-background="new 0 0 792 381.5" xml:space="preserve">
<metadata>
	<sfw  xmlns="&ns_sfw;">
		<slices></slices>
		<sliceSourceBounds  height="316.573" width="698.964" y="148.213" x="51.218" bottomLeftOrigin="true"></sliceSourceBounds>
	</sfw>
</metadata>
<g>
	<path fill="#878787" d="M336.645,240.002c0-33.16-0.011-66.319,0.039-99.482c0-1.536-0.401-1.887-1.884-1.878
		c-16.195,0.056-32.388,0.052-48.579,0c-1.359-0.002-1.714,0.324-1.71,1.721c0.039,66.429,0.039,132.855,0,199.278
		c0,1.396,0.346,1.729,1.71,1.722c16.191-0.05,32.384-0.052,48.579,0.007c1.479,0.002,1.886-0.343,1.886-1.885
		C336.635,306.326,336.645,273.162,336.645,240.002z"/>
	<path fill="#878787" d="M310.37,125.472c17.497,0,30.841-13.671,30.953-31.509c0.113-17.404-14.571-31.911-31.847-31.419
		c-15.857,0.444-30.447,12.948-30.424,31.354C279.074,112.589,294.253,125.985,310.37,125.472z"/>
	<path fill="#878787" d="M205.798,149.704c0-38.446,0.008-76.893-0.035-115.339c0-1.525,0.428-1.906,1.906-1.901
		c16.085,0.052,32.173,0.032,48.258,0.032c2.121,0.002,2.121,0.002,2.121,2.088c0.002,65.631,0.004,131.257-0.009,196.892
		c-0.002,5.285,0.068,10.571-0.123,15.862c-0.319,8.77-1.596,17.373-3.998,25.809c-4.535,15.905-12.693,29.673-23.943,41.636
		c-8.714,9.259-18.584,16.917-30.005,22.454c-11.358,5.516-23.334,8.612-35.883,9.523c-12.036,0.871-23.951,0.162-35.696-2.762
		c-19.658-4.888-36.079-15.258-49.792-30.195c-9.306-10.135-16.432-21.611-20.984-34.686c-5.01-14.373-6.594-29.187-5.629-44.346
		c0.518-8.125,1.792-16.113,4.259-23.859c8.892-27.907,26.784-48.144,52.22-61.552c16.418-8.656,34.164-11.451,52.574-10.484
		c13.05,0.688,25.504,3.738,37.383,9.217c2.43,1.119,4.8,2.372,7.376,3.646C205.798,150.941,205.798,150.322,205.798,149.704z
		 M205.798,242.662c0.902-26.521-22.898-51.698-51.408-51.328c-27.244,0.353-50.646,23.271-50.669,51.389
		c-0.021,28.057,23.753,51.938,51.698,51.742C183.37,294.276,206.654,269.976,205.798,242.662z"/>
	<g>
		
			<linearGradient id="SVGID_1_" gradientUnits="userSpaceOnUse" x1="347.4653" y1="677.0527" x2="719.5742" y2="677.0527" gradientTransform="matrix(1 0 0 1 0 -469.2695)">
			<stop  offset="0" style="stop-color:#F9ED32"/>
			<stop  offset="0.0961" style="stop-color:#F7D432"/>
			<stop  offset="0.2643" style="stop-color:#F4B131"/>
			<stop  offset="0.4299" style="stop-color:#F2932E"/>
			<stop  offset="0.5893" style="stop-color:#F17C2C"/>
			<stop  offset="0.7409" style="stop-color:#F16B2A"/>
			<stop  offset="0.8813" style="stop-color:#F15F29"/>
			<stop  offset="1" style="stop-color:#F15A29"/>
		</linearGradient>
		<path opacity="0.1" fill="url(#SVGID_1_)" enable-background="new    " d="M424.831,210.945c0-1.117-3.829-8.357,17.726-42.539
			c21.56-34.188,38.881-56.693,54.315-56.693c0,0,22.361,11.46,13.856,37.478c-8.5,26.018-60.17,58.088-75.264,60.803
			C427.592,211.406,424.831,212.066,424.831,210.945z M412.338,262.071c0,0,84.534-25.19,104.34-59.075
			c17.059-29.199,49.69-87.979,6.467-127.304C492.533,47.839,433.2,83.65,373.329,187.829
			c-59.87,104.179-5.444,146.458,58.253,157.86c63.701,11.408,99.674-8.198,136.447-39.931
			c36.771-31.728,155.049-131.854,151.465-144.772c-3.572-12.914-97.693,69.251-126.421,94.634
			c-28.728,25.381-89.276,70.076-117.217,67.135C447.916,319.813,407.622,295.4,412.338,262.071z"/>
		
			<linearGradient id="SVGID_2_" gradientUnits="userSpaceOnUse" x1="356.2549" y1="676.2705" x2="728.3662" y2="676.2705" gradientTransform="matrix(1 0 0 1 0 -469.2695)">
			<stop  offset="0" style="stop-color:#F9ED32"/>
			<stop  offset="0.0961" style="stop-color:#F7D432"/>
			<stop  offset="0.2643" style="stop-color:#F4B131"/>
			<stop  offset="0.4299" style="stop-color:#F2932E"/>
			<stop  offset="0.5893" style="stop-color:#F17C2C"/>
			<stop  offset="0.7409" style="stop-color:#F16B2A"/>
			<stop  offset="0.8813" style="stop-color:#F15F29"/>
			<stop  offset="1" style="stop-color:#F15A29"/>
		</linearGradient>
		<path opacity="0.2" fill="url(#SVGID_2_)" enable-background="new    " d="M433.618,210.162c0-1.115-3.826-8.358,17.729-42.545
			c21.556-34.184,38.883-56.688,54.316-56.688c0,0,22.357,11.46,13.857,37.478c-8.504,26.018-60.174,58.094-75.268,60.811
			C436.385,210.625,433.618,211.281,433.618,210.162z M421.125,261.289c0,0,84.539-25.187,104.342-59.076
			c17.061-29.203,49.69-87.979,6.469-127.306c-30.61-27.848-89.942,7.96-149.817,112.136
			c-59.87,104.182-5.441,146.455,58.256,157.863c63.701,11.408,99.675-8.201,136.447-39.932
			c36.771-31.732,155.046-131.858,151.466-144.772c-3.582-12.912-97.699,69.252-126.43,94.635
			c-28.723,25.384-89.268,70.072-117.215,67.137C456.709,319.032,416.409,294.617,421.125,261.289z"/>
		
			<linearGradient id="SVGID_3_" gradientUnits="userSpaceOnUse" x1="367.6201" y1="677.125" x2="739.7314" y2="677.125" gradientTransform="matrix(1 0 0 1 0 -469.2695)">
			<stop  offset="0" style="stop-color:#F9ED32"/>
			<stop  offset="0.0961" style="stop-color:#F7D432"/>
			<stop  offset="0.2643" style="stop-color:#F4B131"/>
			<stop  offset="0.4299" style="stop-color:#F2932E"/>
			<stop  offset="0.5893" style="stop-color:#F17C2C"/>
			<stop  offset="0.7409" style="stop-color:#F16B2A"/>
			<stop  offset="0.8813" style="stop-color:#F15F29"/>
			<stop  offset="1" style="stop-color:#F15A29"/>
		</linearGradient>
		<path opacity="0.5" fill="url(#SVGID_3_)" enable-background="new    " d="M444.987,211.021c0-1.121-3.83-8.356,17.726-42.546
			c21.555-34.184,38.883-56.688,54.316-56.688c0,0,22.359,11.46,13.857,37.478c-8.504,26.018-60.17,58.087-75.266,60.801
			C447.75,211.476,444.987,212.142,444.987,211.021z M432.496,262.146c0,0,84.533-25.193,104.335-59.082
			c17.062-29.199,49.69-87.98,6.47-127.301c-30.608-27.853-89.942,7.957-149.817,112.136
			c-59.87,104.179-5.441,146.454,58.258,157.864c63.701,11.402,99.672-8.204,136.444-39.938
			c36.772-31.726,155.047-131.852,151.467-144.768c-3.576-12.914-97.7,69.248-126.426,94.637
			c-28.725,25.383-89.271,70.069-117.215,67.133C468.074,319.886,427.778,295.472,432.496,262.146z"/>
		
			<linearGradient id="SVGID_4_" gradientUnits="userSpaceOnUse" x1="378.5669" y1="676.5059" x2="750.6807" y2="676.5059" gradientTransform="matrix(1 0 0 1 0 -469.2695)">
			<stop  offset="0" style="stop-color:#F9ED32"/>
			<stop  offset="0.0961" style="stop-color:#F7D432"/>
			<stop  offset="0.2643" style="stop-color:#F4B131"/>
			<stop  offset="0.4299" style="stop-color:#F2932E"/>
			<stop  offset="0.5893" style="stop-color:#F17C2C"/>
			<stop  offset="0.7409" style="stop-color:#F16B2A"/>
			<stop  offset="0.8813" style="stop-color:#F15F29"/>
			<stop  offset="1" style="stop-color:#F15A29"/>
		</linearGradient>
		<path fill="url(#SVGID_4_)" d="M455.936,210.397c0-1.117-3.83-8.36,17.725-42.546c21.557-34.18,38.883-56.69,54.316-56.69
			c0,0,22.363,11.46,13.857,37.478c-8.504,26.018-60.174,58.089-75.265,60.803C458.694,210.859,455.936,211.515,455.936,210.397z
			 M443.44,261.526c0,0,84.536-25.192,104.341-59.082c17.059-29.2,49.693-87.975,6.467-127.302
			c-30.609-27.846-89.941,7.962-149.816,112.142c-59.872,104.174-5.444,146.451,58.256,157.856
			c63.699,11.411,99.674-8.198,136.445-39.93s155.045-131.859,151.469-144.773c-3.574-12.912-97.697,69.253-126.428,94.635
			c-28.72,25.383-89.274,70.073-117.213,67.135C479.018,319.268,438.729,294.853,443.44,261.526z"/>
	</g>
</g>
</svg>
