<?xml version="1.0" encoding="utf-8"?>
<!-- Generator: Adobe Illustrator 16.0.0, SVG Export Plug-In . SVG Version: 6.00 Build 0)  -->
<!DOCTYPE svg PUBLIC "-//W3C//DTD SVG 1.1//EN" "http://www.w3.org/Graphics/SVG/1.1/DTD/svg11.dtd">
<svg version="1.1" id="Layer_1" xmlns="http://www.w3.org/2000/svg" xmlns:xlink="http://www.w3.org/1999/xlink" x="0px" y="0px"
	 width="283.46px" height="141.73px" viewBox="0 0 283.46 141.73" enable-background="new 0 0 283.46 141.73" xml:space="preserve">
<path fill-rule="evenodd" clip-rule="evenodd" fill="#8C837B" d="M122.436,93.102c0-12.058-0.004-24.116,0.014-36.175
	c0-0.559-0.146-0.686-0.685-0.683c-5.889,0.02-11.777,0.018-17.665,0c-0.494-0.001-0.623,0.118-0.622,0.626
	c0.014,24.155,0.014,48.31,0,72.465c0,0.508,0.126,0.628,0.622,0.626c5.888-0.019,11.776-0.02,17.665,0.002
	c0.538,0.001,0.686-0.124,0.686-0.686C122.432,117.22,122.436,105.16,122.436,93.102z"/>
<path fill-rule="evenodd" clip-rule="evenodd" fill="#8C837B" d="M112.882,51.455c6.362,0,11.214-4.971,11.255-11.458
	c0.041-6.329-5.298-11.604-11.581-11.425c-5.766,0.162-11.071,4.709-11.063,11.401C101.501,46.77,107.021,51.641,112.882,51.455z"/>
<path fill-rule="evenodd" clip-rule="evenodd" fill="#8C837B" d="M74.855,60.266c0-13.98,0.003-27.961-0.012-41.941
	c0-0.555,0.155-0.692,0.692-0.691c5.85,0.018,11.7,0.011,17.549,0.011c0.771,0.001,0.771,0.001,0.771,0.76
	c0.001,23.865,0.002,47.73-0.003,71.597c-0.001,1.922,0.025,3.844-0.045,5.767c-0.116,3.19-0.58,6.319-1.454,9.386
	c-1.649,5.783-4.615,10.79-8.706,15.141c-3.169,3.366-6.758,6.151-10.911,8.165c-4.13,2.005-8.485,3.132-13.048,3.463
	c-4.377,0.317-8.71,0.059-12.981-1.004c-7.148-1.778-13.119-5.549-18.106-10.981c-3.383-3.685-5.975-7.858-7.631-12.612
	c-1.821-5.227-2.397-10.613-2.046-16.126c0.188-2.955,0.651-5.859,1.548-8.677c3.234-10.147,9.74-17.506,18.989-22.382
	c5.97-3.147,12.424-4.164,19.118-3.812c4.745,0.25,9.274,1.359,13.594,3.351c0.883,0.408,1.745,0.863,2.682,1.327
	C74.855,60.717,74.855,60.492,74.855,60.266z M74.855,94.07c0.328-9.644-8.326-18.8-18.694-18.665
	c-9.907,0.128-18.416,8.462-18.425,18.687c-0.008,10.202,8.638,18.885,18.799,18.815C66.699,112.839,75.167,104.002,74.855,94.07z"
	/>
<g>
	<linearGradient id="SVGID_1_" gradientUnits="userSpaceOnUse" x1="126.3696" y1="81.3867" x2="261.6836" y2="81.3867">
		<stop  offset="0" style="stop-color:#F9ED32"/>
		<stop  offset="0.0961" style="stop-color:#F7D432"/>
		<stop  offset="0.2643" style="stop-color:#F4B131"/>
		<stop  offset="0.4299" style="stop-color:#F2932E"/>
		<stop  offset="0.5893" style="stop-color:#F17C2C"/>
		<stop  offset="0.7409" style="stop-color:#F16B2A"/>
		<stop  offset="0.8813" style="stop-color:#F15F29"/>
		<stop  offset="1" style="stop-color:#F15A29"/>
	</linearGradient>
	<path opacity="0.1" fill-rule="evenodd" clip-rule="evenodd" fill="url(#SVGID_1_)" d="M154.503,82.536
		c0-0.406-1.392-3.039,6.446-15.469c7.839-12.431,14.139-20.615,19.752-20.615c0,0,8.131,4.167,5.039,13.628
		s-21.881,21.123-27.369,22.11C155.507,82.704,154.503,82.944,154.503,82.536z M149.96,101.128c0,0,30.741-9.16,37.942-21.483
		c6.203-10.618,18.069-31.992,2.352-46.292c-11.132-10.128-32.707,2.894-54.479,40.777c-21.771,37.883-1.979,53.257,21.184,57.404
		c23.163,4.148,36.244-2.981,49.616-14.521c13.372-11.537,56.381-47.947,55.079-52.644c-1.3-4.696-35.526,25.182-45.972,34.412
		c-10.446,9.23-32.464,25.482-42.624,24.413S148.246,113.247,149.96,101.128z"/>
	<linearGradient id="SVGID_2_" gradientUnits="userSpaceOnUse" x1="129.5669" y1="81.1016" x2="264.8809" y2="81.1016">
		<stop  offset="0" style="stop-color:#F9ED32"/>
		<stop  offset="0.0961" style="stop-color:#F7D432"/>
		<stop  offset="0.2643" style="stop-color:#F4B131"/>
		<stop  offset="0.4299" style="stop-color:#F2932E"/>
		<stop  offset="0.5893" style="stop-color:#F17C2C"/>
		<stop  offset="0.7409" style="stop-color:#F16B2A"/>
		<stop  offset="0.8813" style="stop-color:#F15F29"/>
		<stop  offset="1" style="stop-color:#F15A29"/>
	</linearGradient>
	<path opacity="0.2" fill-rule="evenodd" clip-rule="evenodd" fill="url(#SVGID_2_)" d="M157.699,82.252
		c0-0.406-1.392-3.04,6.447-15.471c7.838-12.431,14.139-20.614,19.751-20.614c0,0,8.131,4.167,5.039,13.628
		s-21.881,21.125-27.369,22.112C158.704,82.42,157.699,82.659,157.699,82.252z M153.156,100.844c0,0,30.741-9.16,37.942-21.483
		c6.204-10.619,18.069-31.992,2.352-46.293c-11.131-10.127-32.706,2.895-54.479,40.777c-21.771,37.884-1.979,53.256,21.184,57.405
		c23.164,4.148,36.245-2.983,49.617-14.521c13.371-11.539,56.381-47.948,55.079-52.644c-1.302-4.696-35.527,25.182-45.974,34.412
		c-10.445,9.23-32.462,25.481-42.623,24.413C166.095,121.841,151.441,112.963,153.156,100.844z"/>
	<linearGradient id="SVGID_3_" gradientUnits="userSpaceOnUse" x1="133.6997" y1="81.4121" x2="269.0137" y2="81.4121">
		<stop  offset="0" style="stop-color:#F9ED32"/>
		<stop  offset="0.0961" style="stop-color:#F7D432"/>
		<stop  offset="0.2643" style="stop-color:#F4B131"/>
		<stop  offset="0.4299" style="stop-color:#F2932E"/>
		<stop  offset="0.5893" style="stop-color:#F17C2C"/>
		<stop  offset="0.7409" style="stop-color:#F16B2A"/>
		<stop  offset="0.8813" style="stop-color:#F15F29"/>
		<stop  offset="1" style="stop-color:#F15A29"/>
	</linearGradient>
	<path opacity="0.5" fill-rule="evenodd" clip-rule="evenodd" fill="url(#SVGID_3_)" d="M161.833,82.563
		c0-0.407-1.393-3.039,6.446-15.47c7.838-12.431,14.139-20.615,19.751-20.615c0,0,8.132,4.167,5.039,13.628
		c-3.092,9.461-21.88,21.123-27.369,22.11C162.837,82.729,161.833,82.971,161.833,82.563z M157.29,101.155
		c0,0,30.74-9.162,37.941-21.484c6.204-10.618,18.069-31.993,2.352-46.292c-11.131-10.128-32.706,2.894-54.479,40.777
		c-21.771,37.883-1.979,53.256,21.184,57.405c23.164,4.146,36.245-2.983,49.617-14.522c13.372-11.537,56.381-47.946,55.079-52.644
		c-1.301-4.696-35.527,25.182-45.973,34.413c-10.445,9.231-32.463,25.481-42.623,24.412
		C170.228,122.151,155.575,113.273,157.29,101.155z"/>
	<linearGradient id="SVGID_4_" gradientUnits="userSpaceOnUse" x1="137.6812" y1="81.1865" x2="272.9961" y2="81.1865">
		<stop  offset="0" style="stop-color:#F9ED32"/>
		<stop  offset="0.0961" style="stop-color:#F7D432"/>
		<stop  offset="0.2643" style="stop-color:#F4B131"/>
		<stop  offset="0.4299" style="stop-color:#F2932E"/>
		<stop  offset="0.5893" style="stop-color:#F17C2C"/>
		<stop  offset="0.7409" style="stop-color:#F16B2A"/>
		<stop  offset="0.8813" style="stop-color:#F15F29"/>
		<stop  offset="1" style="stop-color:#F15A29"/>
	</linearGradient>
	<path fill-rule="evenodd" clip-rule="evenodd" fill="url(#SVGID_4_)" d="M165.814,82.337c0-0.407-1.393-3.04,6.446-15.471
		c7.838-12.429,14.139-20.615,19.751-20.615c0,0,8.132,4.167,5.039,13.628c-3.092,9.461-21.88,21.124-27.369,22.11
		C166.818,82.505,165.814,82.743,165.814,82.337z M161.271,100.929c0,0,30.74-9.161,37.941-21.484
		c6.204-10.618,18.07-31.991,2.352-46.292c-11.131-10.126-32.706,2.896-54.479,40.779c-21.771,37.882-1.979,53.255,21.185,57.403
		c23.163,4.149,36.244-2.982,49.616-14.52c13.372-11.539,56.38-47.949,55.08-52.645c-1.301-4.696-35.527,25.182-45.975,34.412
		c-10.443,9.23-32.462,25.481-42.622,24.413C174.209,121.926,159.557,113.048,161.271,100.929z"/>
</g>
</svg>
