<?xml version="1.0" encoding="utf-8"?>
<!-- Generator: Adobe Illustrator 16.0.0, SVG Export Plug-In . SVG Version: 6.00 Build 0)  -->
<!DOCTYPE svg PUBLIC "-//W3C//DTD SVG 1.1//EN" "http://www.w3.org/Graphics/SVG/1.1/DTD/svg11.dtd">
<svg version="1.1" id="Capa_1_xA0_Image_1_" xmlns="http://www.w3.org/2000/svg" xmlns:xlink="http://www.w3.org/1999/xlink"
	 x="0px" y="0px" width="920.16px" height="150px" viewBox="0 0 920.16 150" enable-background="new 0 0 920.16 150"
	 xml:space="preserve">
<g>
	<path fill-rule="evenodd" clip-rule="evenodd" fill="#5F6670" d="M67.139,59.958c0-16.306,0-32.625,0-49.047
		c7.299,0,14.642,0,21.912,0c0,0,0.021,58.662,0.001,87.43c-0.014,20.361-14.787,38.282-34.736,42.202
		c-22.871,4.497-45.341-10.01-50.359-32.922C0.553,92.085,4.6,78.354,15.799,66.997c7.017-7.115,15.679-11.123,25.656-12.162
		c8.78-0.914,17.065,0.715,24.851,4.883C66.542,59.844,66.759,60.065,67.139,59.958z M24.64,97.855
		c0.141,12.221,9.591,21.524,21.734,21.402c11.36-0.114,21.199-9.824,20.774-22.114c-0.409-11.855-10.346-20.93-21.904-20.651
		C34.032,76.763,24.509,86.495,24.64,97.855z"/>
	<path fill-rule="evenodd" clip-rule="evenodd" fill="#5F6670" d="M161.918,96.588c-1.644,5.016-3.051,9.945-2.982,15.147
		c0.051,3.826,0.901,7.462,2.921,10.771c3.021,4.951,7.49,7.438,13.219,7.73c7.063,0.359,13.397-1.921,19.402-5.403
		c3.344-1.939,6.3-4.42,9.442-6.64c0.688-0.485,1.391-0.953,2.2-1.219c2.06-0.675,3.917,0.628,4.081,2.782
		c0.114,1.51-0.429,2.677-1.406,3.805c-4.738,5.484-10.646,9.343-17.122,12.392c-7.958,3.746-16.344,5.72-25.157,5.321
		c-11.394-0.516-20.012-5.573-24.922-16.126c-2.337-5.023-2.828-10.396-2.271-15.877c1.142-11.219,5.194-21.319,12.116-30.163
		c8.004-10.225,17.849-18.189,30.107-22.82c7.027-2.655,14.316-3.474,21.568-1.128c9.611,3.109,15.913,9.541,18,19.612
		c0.919,4.44,0.364,8.86-1.034,13.165c-0.707,2.178-2.144,3.427-4.454,3.849c-3.523,0.645-7.091,0.777-10.64,1.111
		c-6.306,0.593-12.619,1.11-18.931,1.646c-6.072,0.516-12.146,1.013-18.219,1.521C165.886,96.229,163.934,96.408,161.918,96.588z
		 M164.683,87.594c0.371,0,0.569,0.008,0.766-0.002c7.89-0.373,15.795-0.514,23.65-1.442c3.061-0.361,6.137-0.665,9.017-1.916
		c2.054-0.893,3.761-2.166,4.711-4.249c1.417-3.103,2.037-6.364,1.288-9.718c-0.948-4.248-3.365-7.363-7.714-8.532
		c-3.324-0.895-6.607-0.421-9.734,0.979C175.644,67.648,169.173,76.62,164.683,87.594z"/>
	<path fill-rule="evenodd" clip-rule="evenodd" fill="#E11E1B" d="M130.266,116.275c0,1.804-0.004,3.606,0.003,5.412
		c0.001,0.334-0.081,0.623-0.282,0.893c-4.414,5.904-9.135,11.504-15.526,15.408c-2.523,1.541-5.195,2.671-8.235,2.673
		c-4.283,0.003-7.411-2.645-8.5-7.229c-0.879-3.699-0.441-7.335,0.592-10.919c3.162-10.961,6.356-21.912,9.539-32.867
		c1.33-4.573,2.669-9.146,3.989-13.725c0.481-1.667,0.765-3.373,0.471-5.104c-0.318-1.877-1.584-2.984-3.54-3.189
		c-1.936-0.204-3.834,0.238-5.75,0.365c-0.833,0.055-1.662,0.153-2.64,0.246c0-2.644,0-5.189,0-7.84
		c10.824-1.432,21.695-2.871,32.665-4.322c-0.076,1.26-0.49,2.338-0.776,3.435c-5.522,21.189-11.061,42.373-16.599,63.559
		c-0.195,0.743-0.32,1.485-0.21,2.257c0.215,1.518,1.2,2.244,2.715,1.951c1.581-0.308,2.884-1.176,4.115-2.156
		c2.822-2.247,5.027-5.048,7.082-7.978c0.222-0.317,0.447-0.632,0.67-0.948C130.122,116.222,130.194,116.249,130.266,116.275z"/>
	<path fill-rule="evenodd" clip-rule="evenodd" fill="#E11E1B" d="M127.545,44.382c-4.6-0.083-8.196-3.773-8.139-8.354
		c0.055-4.486,3.924-8.196,8.438-8.091c4.506,0.105,8.195,3.917,8.063,8.329C135.768,40.93,132.127,44.463,127.545,44.382z"/>
</g>
<g>
	<path fill="#5F6670" d="M255.21,69.018c0,2.078-0.266,3.894-0.798,5.446c-0.532,1.552-1.308,2.839-2.329,3.859
		c-1.021,1.021-2.273,1.785-3.757,2.292s-3.253,0.761-5.307,0.761h-5.084c-0.285,0-0.554-0.096-0.807-0.287
		c-0.254-0.191-0.38-0.529-0.38-1.012V58.664c0-0.482,0.126-0.819,0.38-1.011c0.253-0.191,0.522-0.288,0.807-0.288h5.437
		c2.078,0,3.834,0.269,5.27,0.807c1.435,0.538,2.638,1.312,3.609,2.319c0.971,1.008,1.707,2.23,2.208,3.665
		C254.959,65.591,255.21,67.212,255.21,69.018z M251.852,69.147c0-1.299-0.161-2.508-0.482-3.627
		c-0.322-1.119-0.826-2.087-1.512-2.904s-1.556-1.453-2.607-1.911c-1.052-0.458-2.406-0.687-4.063-0.687h-3.247v18.685h3.284
		c1.534,0,2.826-0.191,3.878-0.575c1.051-0.384,1.93-0.971,2.635-1.763c0.705-0.791,1.234-1.784,1.586-2.978
		C251.675,72.194,251.852,70.78,251.852,69.147z"/>
	<path fill="#5F6670" d="M273.638,80.058c0,0.223-0.013,0.417-0.037,0.585c-0.025,0.166-0.068,0.306-0.13,0.417
		c-0.062,0.111-0.133,0.192-0.213,0.241c-0.081,0.05-0.17,0.074-0.269,0.074h-11.522c-0.285,0-0.554-0.096-0.807-0.287
		c-0.254-0.191-0.38-0.529-0.38-1.012V58.664c0-0.482,0.126-0.819,0.38-1.011c0.253-0.191,0.522-0.288,0.807-0.288h11.393
		c0.099,0,0.188,0.025,0.269,0.074c0.08,0.05,0.145,0.13,0.195,0.241c0.049,0.111,0.089,0.25,0.121,0.417
		c0.031,0.167,0.046,0.375,0.046,0.622c0,0.223-0.016,0.417-0.046,0.584c-0.031,0.167-0.071,0.303-0.121,0.408
		c-0.05,0.105-0.115,0.183-0.195,0.232c-0.081,0.05-0.17,0.074-0.269,0.074h-9.389v7.533h8.053c0.099,0,0.188,0.028,0.269,0.083
		c0.08,0.056,0.148,0.133,0.204,0.232c0.056,0.099,0.096,0.235,0.121,0.408c0.024,0.173,0.037,0.377,0.037,0.612
		c0,0.223-0.013,0.415-0.037,0.575c-0.025,0.161-0.065,0.291-0.121,0.39c-0.056,0.099-0.124,0.17-0.204,0.213
		c-0.081,0.043-0.17,0.065-0.269,0.065h-8.053v8.591h9.519c0.099,0,0.188,0.024,0.269,0.074c0.08,0.05,0.151,0.127,0.213,0.231
		c0.062,0.105,0.105,0.242,0.13,0.408C273.625,79.604,273.638,79.811,273.638,80.058z"/>
	<path fill="#5F6670" d="M293.737,64.397c0,1.2-0.198,2.282-0.594,3.247c-0.396,0.965-0.962,1.788-1.698,2.468
		c-0.736,0.681-1.639,1.206-2.709,1.577c-1.07,0.371-2.347,0.557-3.832,0.557h-2.728v8.646c0,0.1-0.028,0.186-0.083,0.26
		s-0.143,0.133-0.26,0.176c-0.118,0.044-0.278,0.08-0.482,0.111s-0.461,0.047-0.77,0.047c-0.31,0-0.566-0.016-0.77-0.047
		s-0.368-0.067-0.492-0.111c-0.124-0.043-0.21-0.102-0.26-0.176c-0.05-0.074-0.074-0.16-0.074-0.26V58.738
		c0-0.495,0.13-0.847,0.39-1.058c0.26-0.21,0.55-0.315,0.872-0.315h5.14c0.52,0,1.017,0.022,1.494,0.065
		c0.476,0.043,1.039,0.136,1.688,0.278c0.649,0.143,1.311,0.408,1.985,0.798c0.674,0.39,1.246,0.869,1.716,1.438
		c0.47,0.569,0.832,1.228,1.085,1.976C293.61,62.669,293.737,63.495,293.737,64.397z M290.378,64.657
		c0-0.977-0.183-1.793-0.547-2.449c-0.365-0.655-0.816-1.144-1.354-1.466c-0.538-0.321-1.095-0.525-1.67-0.612
		c-0.575-0.086-1.135-0.13-1.679-0.13h-2.95v9.63h2.876c0.965,0,1.766-0.124,2.403-0.371c0.637-0.247,1.172-0.59,1.605-1.03
		c0.433-0.439,0.761-0.965,0.983-1.577S290.378,65.375,290.378,64.657z"/>
	<path fill="#5F6670" d="M313.946,80.243c0.099,0.272,0.151,0.491,0.158,0.659c0.006,0.166-0.041,0.293-0.139,0.38
		c-0.099,0.087-0.263,0.142-0.492,0.167c-0.229,0.024-0.535,0.037-0.918,0.037c-0.384,0-0.69-0.01-0.918-0.027
		c-0.229-0.02-0.402-0.051-0.52-0.094c-0.118-0.043-0.204-0.102-0.26-0.176s-0.108-0.167-0.158-0.278l-2.06-5.845h-9.982
		l-1.967,5.771c-0.037,0.111-0.087,0.208-0.148,0.288c-0.062,0.08-0.152,0.148-0.269,0.203c-0.118,0.057-0.285,0.096-0.501,0.121
		c-0.217,0.024-0.498,0.037-0.844,0.037c-0.359,0-0.653-0.016-0.881-0.047c-0.229-0.031-0.39-0.089-0.482-0.176
		c-0.093-0.086-0.136-0.213-0.13-0.381c0.006-0.166,0.059-0.386,0.158-0.658l8.053-22.303c0.049-0.136,0.114-0.247,0.195-0.334
		c0.08-0.086,0.198-0.154,0.353-0.204c0.154-0.049,0.353-0.083,0.594-0.102s0.547-0.028,0.918-0.028
		c0.396,0,0.724,0.009,0.983,0.028s0.47,0.053,0.631,0.102c0.161,0.05,0.284,0.121,0.371,0.213c0.086,0.093,0.154,0.208,0.204,0.343
		L313.946,80.243z M303.611,60.557h-0.019l-4.138,11.968h8.35L303.611,60.557z"/>
	<path fill="#5F6670" d="M334.119,80.893c0,0.1-0.019,0.186-0.056,0.26s-0.118,0.137-0.241,0.186
		c-0.124,0.049-0.297,0.086-0.52,0.111c-0.223,0.024-0.52,0.037-0.891,0.037c-0.322,0-0.584-0.013-0.789-0.037
		c-0.204-0.025-0.368-0.064-0.492-0.121c-0.124-0.055-0.22-0.133-0.288-0.231c-0.068-0.099-0.127-0.223-0.176-0.371l-2.208-5.659
		c-0.26-0.643-0.529-1.234-0.807-1.772s-0.609-1.002-0.993-1.392c-0.384-0.39-0.835-0.692-1.354-0.909
		c-0.52-0.216-1.145-0.325-1.874-0.325h-2.134v10.224c0,0.1-0.028,0.186-0.083,0.26s-0.143,0.133-0.26,0.176
		c-0.118,0.044-0.278,0.08-0.482,0.111s-0.461,0.047-0.77,0.047c-0.31,0-0.566-0.016-0.77-0.047s-0.368-0.067-0.492-0.111
		c-0.124-0.043-0.21-0.102-0.26-0.176c-0.05-0.074-0.074-0.16-0.074-0.26V58.664c0-0.482,0.126-0.819,0.38-1.011
		c0.253-0.191,0.522-0.288,0.807-0.288h5.103c0.606,0,1.11,0.016,1.512,0.046c0.402,0.031,0.764,0.065,1.085,0.102
		c0.928,0.161,1.747,0.415,2.458,0.761c0.711,0.347,1.308,0.786,1.791,1.317c0.482,0.532,0.844,1.141,1.085,1.828
		s0.362,1.444,0.362,2.273c0,0.804-0.108,1.525-0.325,2.162c-0.217,0.637-0.529,1.2-0.937,1.688
		c-0.408,0.489-0.897,0.913-1.466,1.271c-0.569,0.359-1.206,0.662-1.911,0.909c0.396,0.173,0.754,0.393,1.076,0.659
		c0.321,0.266,0.622,0.584,0.9,0.956s0.541,0.798,0.789,1.28c0.247,0.482,0.495,1.027,0.742,1.633l2.152,5.288
		c0.173,0.445,0.284,0.758,0.334,0.937C334.094,80.654,334.119,80.794,334.119,80.893z M329.313,64.026
		c0-0.94-0.21-1.735-0.631-2.384c-0.421-0.649-1.126-1.116-2.115-1.401c-0.31-0.086-0.659-0.148-1.048-0.186S324.619,60,323.988,60
		h-2.69v8.09h3.117c0.841,0,1.568-0.102,2.18-0.306s1.123-0.488,1.531-0.854c0.408-0.365,0.708-0.794,0.9-1.29
		C329.217,65.146,329.313,64.608,329.313,64.026z"/>
	<path fill="#5F6670" d="M353.567,58.738c0,0.235-0.013,0.439-0.037,0.612c-0.025,0.173-0.065,0.313-0.121,0.417
		c-0.056,0.105-0.124,0.183-0.204,0.232c-0.081,0.05-0.17,0.074-0.269,0.074h-6.754v20.818c0,0.1-0.025,0.186-0.074,0.26
		c-0.05,0.074-0.136,0.133-0.26,0.176c-0.124,0.044-0.288,0.08-0.492,0.111s-0.461,0.047-0.77,0.047
		c-0.297,0-0.551-0.016-0.761-0.047c-0.21-0.031-0.377-0.067-0.501-0.111c-0.124-0.043-0.21-0.102-0.26-0.176
		c-0.05-0.074-0.074-0.16-0.074-0.26V60.074h-6.754c-0.099,0-0.189-0.024-0.269-0.074c-0.081-0.049-0.146-0.126-0.195-0.232
		c-0.05-0.105-0.09-0.244-0.121-0.417c-0.031-0.173-0.046-0.377-0.046-0.612c0-0.235,0.015-0.442,0.046-0.622
		c0.031-0.179,0.071-0.325,0.121-0.436c0.049-0.111,0.114-0.191,0.195-0.241c0.08-0.049,0.17-0.074,0.269-0.074h16.699
		c0.099,0,0.188,0.025,0.269,0.074c0.08,0.05,0.148,0.13,0.204,0.241s0.096,0.257,0.121,0.436
		C353.555,58.296,353.567,58.503,353.567,58.738z"/>
	<path fill="#5F6670" d="M372.2,80.243c0.099,0.272,0.151,0.491,0.158,0.659c0.006,0.166-0.041,0.293-0.139,0.38
		c-0.099,0.087-0.263,0.142-0.492,0.167c-0.229,0.024-0.535,0.037-0.918,0.037c-0.384,0-0.69-0.01-0.918-0.027
		c-0.229-0.02-0.402-0.051-0.52-0.094c-0.118-0.043-0.204-0.102-0.26-0.176s-0.108-0.167-0.158-0.278l-2.06-5.845h-9.982
		l-1.967,5.771c-0.037,0.111-0.087,0.208-0.148,0.288c-0.062,0.08-0.152,0.148-0.269,0.203c-0.118,0.057-0.285,0.096-0.501,0.121
		c-0.217,0.024-0.498,0.037-0.844,0.037c-0.359,0-0.653-0.016-0.881-0.047c-0.229-0.031-0.39-0.089-0.482-0.176
		c-0.093-0.086-0.136-0.213-0.13-0.381c0.006-0.166,0.059-0.386,0.158-0.658l8.053-22.303c0.049-0.136,0.114-0.247,0.195-0.334
		c0.08-0.086,0.198-0.154,0.353-0.204c0.154-0.049,0.353-0.083,0.594-0.102s0.547-0.028,0.918-0.028
		c0.396,0,0.724,0.009,0.983,0.028s0.47,0.053,0.631,0.102c0.161,0.05,0.284,0.121,0.371,0.213c0.086,0.093,0.154,0.208,0.204,0.343
		L372.2,80.243z M361.865,60.557h-0.019l-4.138,11.968h8.35L361.865,60.557z"/>
	<path fill="#5F6670" d="M402.466,80.893c0,0.1-0.025,0.186-0.077,0.26c-0.051,0.074-0.14,0.133-0.268,0.176
		c-0.127,0.044-0.29,0.08-0.487,0.111s-0.456,0.047-0.774,0.047c-0.293,0-0.544-0.016-0.755-0.047
		c-0.21-0.031-0.375-0.067-0.497-0.111c-0.122-0.043-0.207-0.102-0.258-0.176c-0.051-0.074-0.076-0.16-0.076-0.26V59.981h-0.037
		l-8.461,21.004c-0.037,0.087-0.09,0.161-0.158,0.223c-0.068,0.062-0.167,0.114-0.297,0.157s-0.285,0.074-0.464,0.094
		c-0.18,0.018-0.393,0.027-0.64,0.027c-0.26,0-0.482-0.013-0.668-0.037c-0.186-0.025-0.34-0.059-0.464-0.102
		c-0.124-0.043-0.22-0.096-0.288-0.158c-0.068-0.062-0.115-0.13-0.139-0.204l-8.09-21.004h-0.019v20.911
		c0,0.1-0.025,0.186-0.077,0.26c-0.051,0.074-0.14,0.133-0.268,0.176c-0.127,0.044-0.293,0.08-0.497,0.111
		c-0.204,0.031-0.465,0.047-0.784,0.047c-0.306,0-0.561-0.016-0.764-0.047c-0.204-0.031-0.366-0.067-0.488-0.111
		c-0.121-0.043-0.204-0.102-0.248-0.176c-0.045-0.074-0.067-0.16-0.067-0.26v-22.08c0-0.52,0.138-0.891,0.414-1.113
		c0.276-0.223,0.584-0.334,0.924-0.334h1.959c0.402,0,0.753,0.037,1.055,0.111c0.302,0.074,0.565,0.192,0.792,0.353
		c0.226,0.161,0.415,0.365,0.565,0.612c0.15,0.248,0.282,0.538,0.396,0.872l6.865,17.386h0.093l7.144-17.33
		c0.138-0.371,0.289-0.687,0.452-0.946s0.343-0.467,0.538-0.622c0.195-0.154,0.412-0.266,0.65-0.334
		c0.239-0.068,0.515-0.102,0.83-0.102h2.054c0.188,0,0.368,0.028,0.538,0.083c0.169,0.056,0.314,0.143,0.434,0.26
		c0.12,0.118,0.217,0.266,0.292,0.445c0.076,0.18,0.113,0.399,0.113,0.659V80.893z"/>
	<path fill="#5F6670" d="M422.36,80.058c0,0.223-0.013,0.417-0.037,0.585c-0.025,0.166-0.068,0.306-0.13,0.417
		c-0.062,0.111-0.133,0.192-0.213,0.241c-0.081,0.05-0.17,0.074-0.269,0.074h-11.522c-0.285,0-0.554-0.096-0.807-0.287
		c-0.254-0.191-0.38-0.529-0.38-1.012V58.664c0-0.482,0.126-0.819,0.38-1.011c0.253-0.191,0.522-0.288,0.807-0.288h11.393
		c0.099,0,0.188,0.025,0.269,0.074c0.08,0.05,0.145,0.13,0.195,0.241c0.049,0.111,0.089,0.25,0.121,0.417
		c0.031,0.167,0.046,0.375,0.046,0.622c0,0.223-0.016,0.417-0.046,0.584c-0.031,0.167-0.071,0.303-0.121,0.408
		c-0.05,0.105-0.115,0.183-0.195,0.232c-0.081,0.05-0.17,0.074-0.269,0.074h-9.389v7.533h8.053c0.099,0,0.188,0.028,0.269,0.083
		c0.08,0.056,0.148,0.133,0.204,0.232c0.056,0.099,0.096,0.235,0.121,0.408c0.024,0.173,0.037,0.377,0.037,0.612
		c0,0.223-0.013,0.415-0.037,0.575c-0.025,0.161-0.065,0.291-0.121,0.39c-0.056,0.099-0.124,0.17-0.204,0.213
		c-0.081,0.043-0.17,0.065-0.269,0.065h-8.053v8.591h9.519c0.099,0,0.188,0.024,0.269,0.074c0.08,0.05,0.151,0.127,0.213,0.231
		c0.062,0.105,0.105,0.242,0.13,0.408C422.348,79.604,422.36,79.811,422.36,80.058z"/>
	<path fill="#5F6670" d="M445.854,80.058c0,0.247-0.042,0.458-0.125,0.631c-0.083,0.173-0.192,0.315-0.326,0.427
		c-0.135,0.111-0.285,0.191-0.451,0.241s-0.333,0.074-0.499,0.074h-1.055c-0.333,0-0.624-0.034-0.874-0.103
		c-0.25-0.067-0.486-0.191-0.71-0.371c-0.224-0.179-0.448-0.423-0.671-0.732c-0.224-0.309-0.462-0.705-0.713-1.188l-7.324-13.656
		c-0.383-0.705-0.769-1.444-1.158-2.217c-0.389-0.773-0.751-1.524-1.086-2.254h-0.037c0.024,0.891,0.043,1.8,0.056,2.728
		c0.012,0.928,0.019,1.85,0.019,2.765v14.491c0,0.087-0.026,0.17-0.078,0.25c-0.052,0.081-0.141,0.143-0.265,0.186
		c-0.124,0.044-0.287,0.08-0.489,0.111s-0.46,0.047-0.773,0.047c-0.313,0-0.571-0.016-0.773-0.047
		c-0.203-0.031-0.362-0.067-0.479-0.111c-0.118-0.043-0.203-0.104-0.255-0.186c-0.052-0.08-0.078-0.163-0.078-0.25V58.738
		c0-0.495,0.14-0.847,0.421-1.058c0.281-0.21,0.587-0.315,0.919-0.315h1.57c0.37,0,0.68,0.031,0.929,0.093
		c0.249,0.062,0.472,0.164,0.67,0.306c0.198,0.143,0.39,0.34,0.575,0.594c0.185,0.254,0.379,0.572,0.583,0.956l5.63,10.539
		c0.347,0.644,0.682,1.271,1.004,1.883s0.634,1.215,0.933,1.809s0.595,1.178,0.888,1.754c0.292,0.574,0.583,1.153,0.87,1.734h0.019
		c-0.025-0.977-0.041-1.995-0.046-3.052c-0.006-1.058-0.009-2.075-0.009-3.052V57.903c0-0.086,0.026-0.167,0.078-0.241
		s0.14-0.139,0.264-0.195s0.288-0.096,0.49-0.121c0.202-0.024,0.466-0.037,0.793-0.037c0.287,0,0.535,0.013,0.744,0.037
		c0.208,0.025,0.372,0.065,0.489,0.121s0.203,0.121,0.255,0.195s0.078,0.155,0.078,0.241V80.058z"/>
	<path fill="#5F6670" d="M467.437,58.738c0,0.235-0.014,0.439-0.037,0.612c-0.025,0.173-0.066,0.313-0.121,0.417
		c-0.057,0.105-0.123,0.183-0.205,0.232c-0.08,0.05-0.17,0.074-0.268,0.074h-6.753v20.818c0,0.1-0.025,0.186-0.074,0.26
		c-0.051,0.074-0.137,0.133-0.26,0.176c-0.125,0.044-0.289,0.08-0.492,0.111c-0.205,0.031-0.461,0.047-0.77,0.047
		c-0.297,0-0.551-0.016-0.762-0.047c-0.21-0.031-0.377-0.067-0.5-0.111c-0.124-0.043-0.21-0.102-0.26-0.176
		c-0.05-0.074-0.074-0.16-0.074-0.26V60.074h-6.754c-0.099,0-0.189-0.024-0.269-0.074c-0.081-0.049-0.146-0.126-0.195-0.232
		c-0.05-0.105-0.09-0.244-0.121-0.417c-0.031-0.173-0.046-0.377-0.046-0.612c0-0.235,0.015-0.442,0.046-0.622
		c0.031-0.179,0.071-0.325,0.121-0.436c0.049-0.111,0.114-0.191,0.195-0.241c0.08-0.049,0.17-0.074,0.269-0.074h16.699
		c0.098,0,0.188,0.025,0.268,0.074c0.082,0.05,0.148,0.13,0.205,0.241c0.055,0.111,0.096,0.257,0.121,0.436
		C467.423,58.296,467.437,58.503,467.437,58.738z"/>
	<path fill="#5F6670" d="M490.095,69.092c0,1.942-0.229,3.692-0.686,5.251c-0.459,1.559-1.143,2.886-2.051,3.979
		c-0.91,1.096-2.051,1.937-3.424,2.523c-1.373,0.588-2.975,0.882-4.805,0.882c-1.807,0-3.369-0.269-4.686-0.808
		c-1.318-0.537-2.406-1.32-3.266-2.347s-1.5-2.301-1.92-3.822c-0.422-1.521-0.631-3.271-0.631-5.251
		c0-1.893,0.229-3.612,0.686-5.158c0.457-1.546,1.145-2.86,2.061-3.943c0.914-1.082,2.059-1.917,3.432-2.505
		c1.373-0.587,2.975-0.881,4.807-0.881c1.768,0,3.309,0.266,4.619,0.798c1.311,0.532,2.402,1.308,3.275,2.329
		c0.871,1.021,1.521,2.282,1.947,3.785C489.882,65.427,490.095,67.15,490.095,69.092z M486.718,69.314
		c0-1.36-0.121-2.625-0.361-3.794s-0.643-2.183-1.205-3.043c-0.561-0.859-1.313-1.531-2.25-2.013
		c-0.939-0.482-2.102-0.724-3.484-0.724s-2.545,0.26-3.484,0.779s-1.701,1.212-2.289,2.078c-0.586,0.866-1.006,1.877-1.26,3.034
		c-0.254,1.157-0.379,2.372-0.379,3.646c0,1.41,0.117,2.709,0.352,3.896s0.631,2.211,1.186,3.07c0.557,0.86,1.301,1.528,2.234,2.004
		c0.932,0.477,2.102,0.715,3.51,0.715c1.396,0,2.57-0.26,3.521-0.779s1.717-1.221,2.299-2.105c0.58-0.885,0.994-1.908,1.24-3.071
		C486.595,71.844,486.718,70.613,486.718,69.314z"/>
	<path fill="#5F6670" d="M522.5,69.018c0,2.078-0.268,3.894-0.799,5.446s-1.309,2.839-2.328,3.859
		c-1.021,1.021-2.273,1.785-3.758,2.292s-3.254,0.761-5.307,0.761h-5.084c-0.285,0-0.553-0.096-0.807-0.287
		s-0.381-0.529-0.381-1.012V58.664c0-0.482,0.127-0.819,0.381-1.011c0.254-0.191,0.521-0.288,0.807-0.288h5.438
		c2.078,0,3.834,0.269,5.27,0.807c1.434,0.538,2.637,1.312,3.607,2.319c0.973,1.008,1.707,2.23,2.209,3.665
		C522.248,65.591,522.5,67.212,522.5,69.018z M519.14,69.147c0-1.299-0.16-2.508-0.482-3.627c-0.322-1.119-0.826-2.087-1.512-2.904
		c-0.688-0.816-1.557-1.453-2.607-1.911c-1.051-0.458-2.406-0.687-4.063-0.687h-3.248v18.685h3.285c1.533,0,2.826-0.191,3.877-0.575
		s1.93-0.971,2.635-1.763c0.705-0.791,1.234-1.784,1.586-2.978C518.964,72.194,519.14,70.78,519.14,69.147z"/>
	<path fill="#5F6670" d="M540.927,80.058c0,0.223-0.012,0.417-0.037,0.585c-0.025,0.166-0.068,0.306-0.129,0.417
		c-0.063,0.111-0.133,0.192-0.215,0.241c-0.08,0.05-0.17,0.074-0.268,0.074h-11.523c-0.285,0-0.553-0.096-0.807-0.287
		s-0.381-0.529-0.381-1.012V58.664c0-0.482,0.127-0.819,0.381-1.011c0.254-0.191,0.521-0.288,0.807-0.288h11.393
		c0.1,0,0.189,0.025,0.27,0.074c0.08,0.05,0.145,0.13,0.195,0.241c0.049,0.111,0.09,0.25,0.119,0.417
		c0.031,0.167,0.047,0.375,0.047,0.622c0,0.223-0.016,0.417-0.047,0.584c-0.029,0.167-0.07,0.303-0.119,0.408
		c-0.051,0.105-0.115,0.183-0.195,0.232c-0.08,0.05-0.17,0.074-0.27,0.074h-9.389v7.533h8.053c0.1,0,0.189,0.028,0.27,0.083
		s0.148,0.133,0.203,0.232c0.057,0.099,0.096,0.235,0.121,0.408c0.025,0.173,0.037,0.377,0.037,0.612
		c0,0.223-0.012,0.415-0.037,0.575c-0.025,0.161-0.064,0.291-0.121,0.39c-0.055,0.099-0.123,0.17-0.203,0.213
		c-0.08,0.043-0.17,0.065-0.27,0.065h-8.053v8.591h9.52c0.098,0,0.188,0.024,0.268,0.074c0.082,0.05,0.152,0.127,0.215,0.231
		c0.061,0.105,0.104,0.242,0.129,0.408C540.916,79.604,540.927,79.811,540.927,80.058z"/>
	<path fill="#5F6670" d="M558.208,80.893c0,0.1-0.025,0.186-0.074,0.26s-0.137,0.133-0.26,0.176
		c-0.123,0.044-0.287,0.08-0.492,0.111c-0.203,0.031-0.461,0.047-0.77,0.047c-0.297,0-0.551-0.016-0.76-0.047
		c-0.211-0.031-0.379-0.067-0.502-0.111c-0.123-0.043-0.211-0.102-0.26-0.176s-0.074-0.16-0.074-0.26V57.848
		c0-0.099,0.027-0.186,0.084-0.26c0.055-0.074,0.148-0.133,0.277-0.176c0.131-0.043,0.297-0.08,0.502-0.111
		c0.203-0.031,0.447-0.046,0.732-0.046c0.309,0,0.566,0.016,0.77,0.046c0.205,0.031,0.369,0.068,0.492,0.111
		c0.123,0.043,0.211,0.102,0.26,0.176s0.074,0.161,0.074,0.26V80.893z"/>
	<path fill="#5F6670" d="M582.89,80.058c0,0.247-0.041,0.458-0.125,0.631c-0.082,0.173-0.191,0.315-0.326,0.427
		c-0.133,0.111-0.283,0.191-0.451,0.241c-0.166,0.05-0.332,0.074-0.498,0.074h-1.055c-0.334,0-0.625-0.034-0.873-0.103
		c-0.25-0.067-0.486-0.191-0.711-0.371c-0.225-0.179-0.447-0.423-0.672-0.732c-0.223-0.309-0.461-0.705-0.713-1.188l-7.324-13.656
		c-0.383-0.705-0.77-1.444-1.158-2.217c-0.389-0.773-0.75-1.524-1.086-2.254h-0.037c0.025,0.891,0.043,1.8,0.057,2.728
		c0.012,0.928,0.018,1.85,0.018,2.765v14.491c0,0.087-0.025,0.17-0.078,0.25c-0.053,0.081-0.141,0.143-0.264,0.186
		c-0.125,0.044-0.287,0.08-0.49,0.111c-0.201,0.031-0.459,0.047-0.773,0.047c-0.313,0-0.57-0.016-0.773-0.047
		c-0.201-0.031-0.361-0.067-0.479-0.111c-0.119-0.043-0.203-0.104-0.256-0.186c-0.051-0.08-0.078-0.163-0.078-0.25V58.738
		c0-0.495,0.141-0.847,0.422-1.058c0.281-0.21,0.588-0.315,0.92-0.315h1.57c0.369,0,0.68,0.031,0.928,0.093
		c0.25,0.062,0.473,0.164,0.67,0.306c0.199,0.143,0.391,0.34,0.576,0.594c0.184,0.254,0.379,0.572,0.582,0.956l5.631,10.539
		c0.346,0.644,0.682,1.271,1.004,1.883s0.633,1.215,0.932,1.809s0.596,1.178,0.889,1.754c0.293,0.574,0.582,1.153,0.869,1.734h0.02
		c-0.025-0.977-0.041-1.995-0.047-3.052s-0.01-2.075-0.01-3.052V57.903c0-0.086,0.027-0.167,0.078-0.241
		c0.053-0.074,0.141-0.139,0.266-0.195c0.123-0.056,0.287-0.096,0.488-0.121c0.203-0.024,0.467-0.037,0.793-0.037
		c0.287,0,0.535,0.013,0.744,0.037c0.209,0.025,0.373,0.065,0.49,0.121s0.201,0.121,0.254,0.195s0.078,0.155,0.078,0.241V80.058z"/>
	<path fill="#5F6670" d="M607.46,60.631c0,0.235-0.012,0.442-0.037,0.622c-0.025,0.18-0.063,0.328-0.111,0.445
		c-0.049,0.118-0.111,0.201-0.186,0.25c-0.074,0.05-0.154,0.074-0.24,0.074c-0.148,0-0.396-0.117-0.742-0.353
		c-0.348-0.235-0.811-0.495-1.393-0.779c-0.582-0.284-1.277-0.544-2.088-0.779c-0.809-0.235-1.771-0.353-2.885-0.353
		c-1.324,0-2.512,0.241-3.563,0.724s-1.941,1.15-2.672,2.004s-1.289,1.868-1.68,3.043c-0.389,1.175-0.584,2.449-0.584,3.822
		c0,1.534,0.213,2.895,0.641,4.082c0.426,1.188,1.018,2.189,1.771,3.006s1.654,1.436,2.699,1.855
		c1.047,0.421,2.193,0.631,3.443,0.631c0.742,0,1.492-0.09,2.254-0.27c0.76-0.179,1.469-0.447,2.125-0.807v-6.995h-5.566
		c-0.211,0-0.369-0.105-0.475-0.315c-0.104-0.21-0.156-0.538-0.156-0.983c0-0.235,0.012-0.436,0.037-0.603
		c0.023-0.167,0.064-0.303,0.119-0.408c0.057-0.105,0.121-0.182,0.195-0.232c0.074-0.049,0.168-0.074,0.279-0.074h7.625
		c0.137,0,0.271,0.025,0.408,0.074c0.137,0.05,0.26,0.124,0.371,0.223c0.111,0.099,0.197,0.235,0.26,0.408
		c0.063,0.173,0.094,0.371,0.094,0.594v9.147c0,0.321-0.057,0.601-0.168,0.835c-0.111,0.235-0.346,0.442-0.705,0.621
		c-0.359,0.18-0.822,0.375-1.391,0.585c-0.57,0.21-1.158,0.39-1.764,0.538s-1.219,0.26-1.836,0.334
		c-0.619,0.074-1.232,0.111-1.838,0.111c-1.855,0-3.514-0.287-4.973-0.863c-1.459-0.574-2.693-1.395-3.701-2.458
		s-1.779-2.338-2.311-3.822s-0.797-3.142-0.797-4.973c0-1.905,0.287-3.63,0.861-5.177c0.576-1.546,1.387-2.863,2.432-3.952
		c1.045-1.088,2.301-1.933,3.766-2.533c1.467-0.6,3.09-0.9,4.871-0.9c0.916,0,1.775,0.081,2.58,0.241
		c0.803,0.161,1.518,0.35,2.143,0.566c0.625,0.217,1.15,0.452,1.576,0.705c0.428,0.254,0.721,0.461,0.883,0.622
		c0.16,0.161,0.271,0.347,0.334,0.557C607.429,59.932,607.46,60.235,607.46,60.631z"/>
	<path fill="#5F6670" d="M626.91,80.058c0,0.223-0.014,0.417-0.037,0.585c-0.025,0.166-0.068,0.306-0.131,0.417
		s-0.133,0.192-0.213,0.241c-0.08,0.05-0.17,0.074-0.27,0.074h-11.521c-0.285,0-0.555-0.096-0.807-0.287
		c-0.254-0.191-0.381-0.529-0.381-1.012V58.664c0-0.482,0.127-0.819,0.381-1.011c0.252-0.191,0.521-0.288,0.807-0.288h11.393
		c0.098,0,0.188,0.025,0.27,0.074c0.08,0.05,0.145,0.13,0.193,0.241s0.09,0.25,0.121,0.417s0.047,0.375,0.047,0.622
		c0,0.223-0.016,0.417-0.047,0.584s-0.072,0.303-0.121,0.408c-0.049,0.105-0.113,0.183-0.193,0.232
		c-0.082,0.05-0.172,0.074-0.27,0.074h-9.389v7.533h8.053c0.098,0,0.188,0.028,0.27,0.083c0.08,0.056,0.148,0.133,0.203,0.232
		c0.057,0.099,0.096,0.235,0.121,0.408c0.023,0.173,0.037,0.377,0.037,0.612c0,0.223-0.014,0.415-0.037,0.575
		c-0.025,0.161-0.064,0.291-0.121,0.39c-0.055,0.099-0.123,0.17-0.203,0.213c-0.082,0.043-0.172,0.065-0.27,0.065h-8.053v8.591
		h9.518c0.1,0,0.189,0.024,0.27,0.074s0.15,0.127,0.213,0.231c0.063,0.105,0.105,0.242,0.131,0.408
		C626.896,79.604,626.91,79.811,626.91,80.058z"/>
	<path fill="#5F6670" d="M650.404,80.058c0,0.247-0.043,0.458-0.125,0.631c-0.084,0.173-0.191,0.315-0.326,0.427
		s-0.285,0.191-0.451,0.241s-0.332,0.074-0.498,0.074h-1.057c-0.332,0-0.623-0.034-0.873-0.103c-0.25-0.067-0.486-0.191-0.709-0.371
		c-0.225-0.179-0.449-0.423-0.672-0.732c-0.225-0.309-0.463-0.705-0.713-1.188l-7.324-13.656c-0.383-0.705-0.77-1.444-1.158-2.217
		c-0.389-0.773-0.752-1.524-1.086-2.254h-0.037c0.023,0.891,0.043,1.8,0.055,2.728s0.02,1.85,0.02,2.765v14.491
		c0,0.087-0.027,0.17-0.078,0.25c-0.053,0.081-0.141,0.143-0.266,0.186c-0.123,0.044-0.287,0.08-0.488,0.111
		c-0.203,0.031-0.461,0.047-0.773,0.047c-0.314,0-0.572-0.016-0.773-0.047c-0.203-0.031-0.363-0.067-0.48-0.111
		c-0.117-0.043-0.201-0.104-0.254-0.186c-0.053-0.08-0.078-0.163-0.078-0.25V58.738c0-0.495,0.141-0.847,0.42-1.058
		c0.281-0.21,0.588-0.315,0.92-0.315h1.57c0.371,0,0.68,0.031,0.93,0.093c0.248,0.062,0.473,0.164,0.67,0.306
		c0.197,0.143,0.389,0.34,0.574,0.594c0.186,0.254,0.379,0.572,0.582,0.956l5.631,10.539c0.348,0.644,0.682,1.271,1.006,1.883
		c0.322,0.612,0.633,1.215,0.932,1.809s0.596,1.178,0.887,1.754c0.293,0.574,0.584,1.153,0.871,1.734h0.018
		c-0.025-0.977-0.039-1.995-0.045-3.052c-0.008-1.058-0.01-2.075-0.01-3.052V57.903c0-0.086,0.025-0.167,0.078-0.241
		s0.141-0.139,0.264-0.195c0.125-0.056,0.287-0.096,0.49-0.121c0.201-0.024,0.467-0.037,0.793-0.037
		c0.287,0,0.535,0.013,0.744,0.037c0.209,0.025,0.371,0.065,0.488,0.121s0.203,0.121,0.256,0.195
		c0.051,0.074,0.078,0.155,0.078,0.241V80.058z"/>
	<path fill="#5F6670" d="M660.13,80.893c0,0.1-0.025,0.186-0.074,0.26c-0.051,0.074-0.137,0.133-0.26,0.176
		c-0.125,0.044-0.287,0.08-0.492,0.111c-0.203,0.031-0.461,0.047-0.77,0.047c-0.297,0-0.551-0.016-0.762-0.047
		s-0.377-0.067-0.5-0.111c-0.125-0.043-0.211-0.102-0.26-0.176c-0.051-0.074-0.074-0.16-0.074-0.26V57.848
		c0-0.099,0.027-0.186,0.084-0.26c0.055-0.074,0.148-0.133,0.277-0.176c0.131-0.043,0.297-0.08,0.502-0.111
		c0.203-0.031,0.447-0.046,0.732-0.046c0.309,0,0.566,0.016,0.77,0.046c0.205,0.031,0.367,0.068,0.492,0.111
		c0.123,0.043,0.209,0.102,0.26,0.176c0.049,0.074,0.074,0.161,0.074,0.26V80.893z"/>
	<path fill="#5F6670" d="M680.023,80.058c0,0.223-0.012,0.417-0.037,0.585c-0.025,0.166-0.068,0.306-0.129,0.417
		c-0.063,0.111-0.133,0.192-0.215,0.241c-0.08,0.05-0.17,0.074-0.268,0.074h-11.523c-0.285,0-0.553-0.096-0.807-0.287
		s-0.381-0.529-0.381-1.012V58.664c0-0.482,0.127-0.819,0.381-1.011c0.254-0.191,0.521-0.288,0.807-0.288h11.393
		c0.1,0,0.189,0.025,0.27,0.074c0.08,0.05,0.145,0.13,0.195,0.241c0.049,0.111,0.09,0.25,0.119,0.417
		c0.031,0.167,0.047,0.375,0.047,0.622c0,0.223-0.016,0.417-0.047,0.584c-0.029,0.167-0.07,0.303-0.119,0.408
		c-0.051,0.105-0.115,0.183-0.195,0.232c-0.08,0.05-0.17,0.074-0.27,0.074h-9.389v7.533h8.053c0.1,0,0.189,0.028,0.27,0.083
		s0.148,0.133,0.203,0.232c0.057,0.099,0.096,0.235,0.121,0.408c0.025,0.173,0.037,0.377,0.037,0.612
		c0,0.223-0.012,0.415-0.037,0.575c-0.025,0.161-0.064,0.291-0.121,0.39c-0.055,0.099-0.123,0.17-0.203,0.213
		c-0.08,0.043-0.17,0.065-0.27,0.065h-8.053v8.591h9.52c0.098,0,0.188,0.024,0.268,0.074c0.082,0.05,0.152,0.127,0.215,0.231
		c0.061,0.105,0.104,0.242,0.129,0.408C680.011,79.604,680.023,79.811,680.023,80.058z"/>
	<path fill="#5F6670" d="M701.384,80.893c0,0.1-0.02,0.186-0.057,0.26s-0.117,0.137-0.24,0.186c-0.125,0.049-0.297,0.086-0.52,0.111
		c-0.223,0.024-0.52,0.037-0.891,0.037c-0.322,0-0.586-0.013-0.789-0.037c-0.205-0.025-0.369-0.064-0.492-0.121
		c-0.123-0.055-0.219-0.133-0.287-0.231s-0.127-0.223-0.176-0.371l-2.209-5.659c-0.26-0.643-0.529-1.234-0.807-1.772
		c-0.279-0.538-0.609-1.002-0.992-1.392c-0.385-0.39-0.836-0.692-1.355-0.909c-0.52-0.216-1.145-0.325-1.873-0.325h-2.135v10.224
		c0,0.1-0.027,0.186-0.084,0.26c-0.055,0.074-0.141,0.133-0.26,0.176c-0.117,0.044-0.277,0.08-0.482,0.111
		c-0.203,0.031-0.461,0.047-0.77,0.047s-0.566-0.016-0.77-0.047c-0.205-0.031-0.369-0.067-0.492-0.111
		c-0.123-0.043-0.211-0.102-0.26-0.176s-0.074-0.16-0.074-0.26V58.664c0-0.482,0.127-0.819,0.381-1.011
		c0.254-0.191,0.521-0.288,0.807-0.288h5.104c0.605,0,1.109,0.016,1.512,0.046c0.402,0.031,0.764,0.065,1.086,0.102
		c0.928,0.161,1.746,0.415,2.457,0.761c0.713,0.347,1.309,0.786,1.791,1.317c0.482,0.532,0.844,1.141,1.086,1.828
		c0.24,0.687,0.361,1.444,0.361,2.273c0,0.804-0.107,1.525-0.324,2.162c-0.217,0.637-0.529,1.2-0.938,1.688
		c-0.408,0.489-0.896,0.913-1.465,1.271c-0.57,0.359-1.207,0.662-1.912,0.909c0.396,0.173,0.754,0.393,1.076,0.659
		c0.322,0.266,0.621,0.584,0.9,0.956c0.277,0.371,0.541,0.798,0.789,1.28c0.246,0.482,0.494,1.027,0.742,1.633l2.152,5.288
		c0.172,0.445,0.283,0.758,0.334,0.937C701.359,80.654,701.384,80.794,701.384,80.893z M696.578,64.026
		c0-0.94-0.211-1.735-0.631-2.384s-1.125-1.116-2.115-1.401c-0.309-0.086-0.658-0.148-1.049-0.186
		c-0.389-0.037-0.898-0.056-1.529-0.056h-2.691v8.09h3.117c0.842,0,1.568-0.102,2.18-0.306c0.613-0.204,1.123-0.488,1.531-0.854
		c0.408-0.365,0.709-0.794,0.9-1.29C696.482,65.146,696.578,64.608,696.578,64.026z"/>
	<path fill="#5F6670" d="M709.347,80.893c0,0.1-0.025,0.186-0.074,0.26s-0.137,0.133-0.26,0.176
		c-0.123,0.044-0.287,0.08-0.492,0.111c-0.203,0.031-0.461,0.047-0.77,0.047c-0.297,0-0.551-0.016-0.76-0.047
		c-0.211-0.031-0.379-0.067-0.502-0.111c-0.123-0.043-0.211-0.102-0.26-0.176s-0.074-0.16-0.074-0.26V57.848
		c0-0.099,0.027-0.186,0.084-0.26c0.055-0.074,0.148-0.133,0.277-0.176c0.131-0.043,0.297-0.08,0.502-0.111
		c0.203-0.031,0.447-0.046,0.732-0.046c0.309,0,0.566,0.016,0.77,0.046c0.205,0.031,0.369,0.068,0.492,0.111
		c0.123,0.043,0.211,0.102,0.26,0.176s0.074,0.161,0.074,0.26V80.893z M709.886,50.741c0.135-0.161,0.268-0.284,0.398-0.371
		c0.129-0.086,0.275-0.154,0.436-0.204c0.16-0.049,0.354-0.083,0.576-0.102s0.488-0.028,0.797-0.028
		c0.371,0,0.662,0.028,0.873,0.083c0.209,0.056,0.357,0.127,0.445,0.213c0.086,0.087,0.113,0.186,0.082,0.297
		c-0.029,0.111-0.102,0.229-0.213,0.353l-4.211,3.934c-0.125,0.124-0.238,0.22-0.344,0.288c-0.105,0.068-0.227,0.124-0.361,0.167
		c-0.137,0.043-0.295,0.074-0.475,0.093c-0.178,0.019-0.398,0.028-0.658,0.028c-0.285,0-0.508-0.015-0.668-0.046
		c-0.16-0.031-0.271-0.08-0.334-0.148c-0.063-0.068-0.08-0.151-0.055-0.25c0.023-0.099,0.092-0.216,0.203-0.353L709.886,50.741z"/>
	<path fill="#5F6670" d="M733.861,80.243c0.1,0.272,0.152,0.491,0.158,0.659c0.006,0.166-0.041,0.293-0.139,0.38
		c-0.1,0.087-0.264,0.142-0.492,0.167c-0.229,0.024-0.535,0.037-0.918,0.037c-0.385,0-0.689-0.01-0.918-0.027
		c-0.23-0.02-0.402-0.051-0.52-0.094c-0.119-0.043-0.205-0.102-0.26-0.176c-0.057-0.074-0.109-0.167-0.158-0.278l-2.061-5.845
		h-9.982l-1.967,5.771c-0.037,0.111-0.086,0.208-0.148,0.288s-0.15,0.148-0.268,0.203c-0.119,0.057-0.285,0.096-0.502,0.121
		c-0.217,0.024-0.498,0.037-0.844,0.037c-0.359,0-0.652-0.016-0.881-0.047c-0.23-0.031-0.391-0.089-0.482-0.176
		c-0.094-0.086-0.137-0.213-0.131-0.381c0.006-0.166,0.059-0.386,0.158-0.658l8.053-22.303c0.049-0.136,0.113-0.247,0.195-0.334
		c0.08-0.086,0.197-0.154,0.352-0.204c0.154-0.049,0.354-0.083,0.594-0.102c0.242-0.019,0.547-0.028,0.918-0.028
		c0.396,0,0.725,0.009,0.984,0.028s0.469,0.053,0.631,0.102c0.16,0.05,0.283,0.121,0.371,0.213c0.086,0.093,0.154,0.208,0.203,0.343
		L733.861,80.243z M723.527,60.557h-0.02l-4.137,11.968h8.35L723.527,60.557z"/>
	<path fill="#5F6670" d="M760.123,80.058c0,0.223-0.012,0.417-0.037,0.585c-0.025,0.166-0.068,0.306-0.129,0.417
		c-0.063,0.111-0.133,0.192-0.215,0.241c-0.08,0.05-0.17,0.074-0.268,0.074h-11.523c-0.285,0-0.553-0.096-0.807-0.287
		s-0.381-0.529-0.381-1.012V58.664c0-0.482,0.127-0.819,0.381-1.011c0.254-0.191,0.521-0.288,0.807-0.288h11.393
		c0.1,0,0.189,0.025,0.27,0.074c0.08,0.05,0.145,0.13,0.195,0.241c0.049,0.111,0.09,0.25,0.119,0.417
		c0.031,0.167,0.047,0.375,0.047,0.622c0,0.223-0.016,0.417-0.047,0.584c-0.029,0.167-0.07,0.303-0.119,0.408
		c-0.051,0.105-0.115,0.183-0.195,0.232c-0.08,0.05-0.17,0.074-0.27,0.074h-9.389v7.533h8.053c0.1,0,0.189,0.028,0.27,0.083
		s0.148,0.133,0.203,0.232c0.057,0.099,0.096,0.235,0.121,0.408c0.025,0.173,0.037,0.377,0.037,0.612
		c0,0.223-0.012,0.415-0.037,0.575c-0.025,0.161-0.064,0.291-0.121,0.39c-0.055,0.099-0.123,0.17-0.203,0.213
		c-0.08,0.043-0.17,0.065-0.27,0.065h-8.053v8.591h9.52c0.098,0,0.188,0.024,0.268,0.074c0.082,0.05,0.152,0.127,0.215,0.231
		c0.061,0.105,0.104,0.242,0.129,0.408C760.111,79.604,760.123,79.811,760.123,80.058z"/>
	<path fill="#5F6670" d="M777.921,79.983c0,0.247-0.014,0.454-0.037,0.622c-0.025,0.166-0.066,0.309-0.121,0.426
		c-0.057,0.118-0.123,0.205-0.205,0.26c-0.08,0.057-0.176,0.084-0.287,0.084h-10.613c-0.285,0-0.553-0.096-0.807-0.287
		s-0.381-0.529-0.381-1.012V57.848c0-0.099,0.025-0.186,0.074-0.26s0.137-0.133,0.26-0.176c0.123-0.043,0.291-0.08,0.502-0.111
		c0.209-0.031,0.463-0.046,0.76-0.046c0.309,0,0.566,0.016,0.77,0.046c0.205,0.031,0.369,0.068,0.492,0.111
		c0.123,0.043,0.211,0.102,0.26,0.176s0.074,0.161,0.074,0.26V78.61h8.609c0.111,0,0.207,0.028,0.287,0.083
		c0.082,0.057,0.148,0.137,0.205,0.242c0.055,0.105,0.096,0.244,0.121,0.417C777.908,79.525,777.921,79.736,777.921,79.983z"/>
	<path fill="#5F6670" d="M794.958,80.058c0,0.223-0.014,0.417-0.037,0.585c-0.025,0.166-0.068,0.306-0.131,0.417
		s-0.133,0.192-0.213,0.241c-0.08,0.05-0.17,0.074-0.27,0.074h-11.521c-0.285,0-0.555-0.096-0.807-0.287
		c-0.254-0.191-0.381-0.529-0.381-1.012V58.664c0-0.482,0.127-0.819,0.381-1.011c0.252-0.191,0.521-0.288,0.807-0.288h11.393
		c0.098,0,0.188,0.025,0.27,0.074c0.08,0.05,0.145,0.13,0.193,0.241s0.09,0.25,0.121,0.417s0.047,0.375,0.047,0.622
		c0,0.223-0.016,0.417-0.047,0.584s-0.072,0.303-0.121,0.408c-0.049,0.105-0.113,0.183-0.193,0.232
		c-0.082,0.05-0.172,0.074-0.27,0.074h-9.389v7.533h8.053c0.098,0,0.188,0.028,0.27,0.083c0.08,0.056,0.148,0.133,0.203,0.232
		c0.057,0.099,0.096,0.235,0.121,0.408c0.023,0.173,0.037,0.377,0.037,0.612c0,0.223-0.014,0.415-0.037,0.575
		c-0.025,0.161-0.064,0.291-0.121,0.39c-0.055,0.099-0.123,0.17-0.203,0.213c-0.082,0.043-0.172,0.065-0.27,0.065h-8.053v8.591
		h9.518c0.1,0,0.189,0.024,0.27,0.074s0.15,0.127,0.213,0.231c0.063,0.105,0.105,0.242,0.131,0.408
		C794.945,79.604,794.958,79.811,794.958,80.058z M790.542,50.741c0.135-0.161,0.27-0.284,0.398-0.371
		c0.131-0.086,0.275-0.154,0.436-0.204c0.16-0.049,0.354-0.083,0.576-0.102s0.488-0.028,0.797-0.028
		c0.371,0,0.662,0.028,0.873,0.083c0.209,0.056,0.357,0.127,0.445,0.213c0.086,0.087,0.113,0.186,0.084,0.297
		c-0.031,0.111-0.104,0.229-0.215,0.353l-4.211,3.934c-0.125,0.124-0.238,0.22-0.344,0.288c-0.105,0.068-0.227,0.124-0.361,0.167
		c-0.137,0.043-0.295,0.074-0.473,0.093c-0.18,0.019-0.4,0.028-0.66,0.028c-0.285,0-0.508-0.015-0.668-0.046
		c-0.16-0.031-0.271-0.08-0.334-0.148c-0.063-0.068-0.08-0.151-0.055-0.25c0.023-0.099,0.092-0.216,0.203-0.353L790.542,50.741z"/>
	<path fill="#5F6670" d="M815.89,77.979c0,0.198-0.006,0.371-0.018,0.52c-0.014,0.148-0.035,0.278-0.066,0.39
		c-0.029,0.111-0.07,0.211-0.119,0.297c-0.051,0.087-0.137,0.191-0.26,0.315c-0.125,0.124-0.385,0.313-0.779,0.565
		c-0.396,0.254-0.889,0.502-1.477,0.742c-0.586,0.242-1.262,0.445-2.021,0.613c-0.762,0.166-1.594,0.25-2.496,0.25
		c-1.559,0-2.965-0.26-4.221-0.779s-2.326-1.286-3.211-2.301c-0.883-1.014-1.564-2.267-2.041-3.757
		c-0.475-1.49-0.713-3.207-0.713-5.149c0-1.991,0.256-3.767,0.77-5.325s1.234-2.879,2.162-3.961c0.928-1.082,2.037-1.908,3.33-2.477
		c1.293-0.569,2.725-0.854,4.295-0.854c0.693,0,1.367,0.065,2.023,0.195c0.654,0.13,1.262,0.294,1.818,0.492
		c0.557,0.198,1.051,0.427,1.484,0.687c0.432,0.26,0.732,0.473,0.898,0.64c0.168,0.167,0.275,0.294,0.326,0.38
		c0.049,0.087,0.09,0.189,0.119,0.306c0.031,0.118,0.057,0.257,0.074,0.417c0.02,0.161,0.029,0.353,0.029,0.575
		c0,0.248-0.014,0.458-0.037,0.631c-0.025,0.173-0.063,0.319-0.113,0.436c-0.049,0.118-0.107,0.204-0.176,0.26
		s-0.152,0.083-0.252,0.083c-0.174,0-0.418-0.121-0.729-0.362s-0.713-0.507-1.203-0.798c-0.49-0.291-1.088-0.557-1.791-0.798
		s-1.545-0.362-2.527-0.362c-1.07,0-2.043,0.213-2.92,0.64c-0.875,0.427-1.625,1.055-2.246,1.883
		c-0.623,0.829-1.105,1.84-1.447,3.034c-0.342,1.194-0.512,2.558-0.512,4.091c0,1.521,0.164,2.867,0.494,4.036
		c0.328,1.169,0.801,2.146,1.418,2.931c0.615,0.786,1.371,1.38,2.266,1.781c0.895,0.402,1.908,0.604,3.041,0.604
		c0.957,0,1.793-0.117,2.508-0.353s1.324-0.497,1.828-0.788s0.918-0.554,1.24-0.789c0.324-0.234,0.578-0.353,0.766-0.353
		c0.086,0,0.162,0.019,0.225,0.056c0.061,0.037,0.111,0.108,0.148,0.213c0.037,0.105,0.064,0.251,0.084,0.437
		C815.88,77.46,815.89,77.695,815.89,77.979z"/>
	<path fill="#5F6670" d="M835.507,58.738c0,0.235-0.014,0.439-0.037,0.612c-0.025,0.173-0.066,0.313-0.121,0.417
		c-0.057,0.105-0.123,0.183-0.205,0.232c-0.08,0.05-0.17,0.074-0.268,0.074h-6.754v20.818c0,0.1-0.025,0.186-0.074,0.26
		c-0.051,0.074-0.137,0.133-0.26,0.176c-0.125,0.044-0.289,0.08-0.492,0.111c-0.205,0.031-0.461,0.047-0.77,0.047
		c-0.297,0-0.551-0.016-0.762-0.047s-0.377-0.067-0.5-0.111c-0.125-0.043-0.211-0.102-0.26-0.176
		c-0.051-0.074-0.074-0.16-0.074-0.26V60.074h-6.754c-0.1,0-0.189-0.024-0.27-0.074c-0.08-0.049-0.146-0.126-0.195-0.232
		c-0.049-0.105-0.09-0.244-0.121-0.417c-0.029-0.173-0.045-0.377-0.045-0.612c0-0.235,0.016-0.442,0.045-0.622
		c0.031-0.179,0.072-0.325,0.121-0.436s0.115-0.191,0.195-0.241c0.08-0.049,0.17-0.074,0.27-0.074h16.699
		c0.098,0,0.188,0.025,0.268,0.074c0.082,0.05,0.148,0.13,0.205,0.241c0.055,0.111,0.096,0.257,0.121,0.436
		C835.494,58.296,835.507,58.503,835.507,58.738z"/>
	<path fill="#5F6670" d="M855.142,80.893c0,0.1-0.02,0.186-0.057,0.26s-0.117,0.137-0.24,0.186c-0.125,0.049-0.297,0.086-0.52,0.111
		c-0.223,0.024-0.52,0.037-0.891,0.037c-0.322,0-0.586-0.013-0.789-0.037c-0.205-0.025-0.369-0.064-0.492-0.121
		c-0.123-0.055-0.219-0.133-0.287-0.231s-0.127-0.223-0.176-0.371l-2.209-5.659c-0.26-0.643-0.529-1.234-0.807-1.772
		c-0.279-0.538-0.609-1.002-0.992-1.392c-0.385-0.39-0.836-0.692-1.355-0.909c-0.52-0.216-1.145-0.325-1.873-0.325h-2.135v10.224
		c0,0.1-0.027,0.186-0.084,0.26c-0.055,0.074-0.141,0.133-0.26,0.176c-0.117,0.044-0.277,0.08-0.482,0.111
		c-0.203,0.031-0.461,0.047-0.77,0.047s-0.566-0.016-0.77-0.047c-0.205-0.031-0.369-0.067-0.492-0.111
		c-0.123-0.043-0.211-0.102-0.26-0.176s-0.074-0.16-0.074-0.26V58.664c0-0.482,0.127-0.819,0.381-1.011
		c0.254-0.191,0.521-0.288,0.807-0.288h5.104c0.605,0,1.109,0.016,1.512,0.046c0.402,0.031,0.764,0.065,1.086,0.102
		c0.928,0.161,1.746,0.415,2.457,0.761c0.713,0.347,1.309,0.786,1.791,1.317c0.482,0.532,0.844,1.141,1.086,1.828
		c0.24,0.687,0.361,1.444,0.361,2.273c0,0.804-0.107,1.525-0.324,2.162c-0.217,0.637-0.529,1.2-0.938,1.688
		c-0.408,0.489-0.896,0.913-1.465,1.271c-0.57,0.359-1.207,0.662-1.912,0.909c0.396,0.173,0.754,0.393,1.076,0.659
		c0.322,0.266,0.621,0.584,0.9,0.956c0.277,0.371,0.541,0.798,0.789,1.28c0.246,0.482,0.494,1.027,0.742,1.633l2.152,5.288
		c0.172,0.445,0.283,0.758,0.334,0.937C855.117,80.654,855.142,80.794,855.142,80.893z M850.335,64.026
		c0-0.94-0.211-1.735-0.631-2.384s-1.125-1.116-2.115-1.401c-0.309-0.086-0.658-0.148-1.049-0.186
		c-0.389-0.037-0.898-0.056-1.529-0.056h-2.691v8.09h3.117c0.842,0,1.568-0.102,2.18-0.306c0.613-0.204,1.123-0.488,1.531-0.854
		c0.408-0.365,0.709-0.794,0.9-1.29C850.24,65.146,850.335,64.608,850.335,64.026z"/>
	<path fill="#5F6670" d="M863.105,80.893c0,0.1-0.025,0.186-0.074,0.26c-0.051,0.074-0.137,0.133-0.26,0.176
		c-0.125,0.044-0.287,0.08-0.492,0.111c-0.203,0.031-0.461,0.047-0.77,0.047c-0.297,0-0.551-0.016-0.762-0.047
		s-0.377-0.067-0.5-0.111c-0.125-0.043-0.211-0.102-0.26-0.176c-0.051-0.074-0.074-0.16-0.074-0.26V57.848
		c0-0.099,0.027-0.186,0.084-0.26c0.055-0.074,0.148-0.133,0.277-0.176c0.131-0.043,0.297-0.08,0.502-0.111
		c0.203-0.031,0.447-0.046,0.732-0.046c0.309,0,0.566,0.016,0.77,0.046c0.205,0.031,0.367,0.068,0.492,0.111
		c0.123,0.043,0.209,0.102,0.26,0.176c0.049,0.074,0.074,0.161,0.074,0.26V80.893z"/>
	<path fill="#5F6670" d="M885.671,77.979c0,0.198-0.008,0.371-0.02,0.52s-0.033,0.278-0.064,0.39s-0.072,0.211-0.121,0.297
		c-0.049,0.087-0.137,0.191-0.26,0.315s-0.383,0.313-0.779,0.565c-0.396,0.254-0.887,0.502-1.475,0.742
		c-0.588,0.242-1.262,0.445-2.021,0.613c-0.762,0.166-1.594,0.25-2.496,0.25c-1.559,0-2.967-0.26-4.221-0.779
		c-1.256-0.52-2.326-1.286-3.211-2.301c-0.885-1.014-1.564-2.267-2.041-3.757c-0.477-1.49-0.715-3.207-0.715-5.149
		c0-1.991,0.258-3.767,0.771-5.325c0.512-1.559,1.232-2.879,2.16-3.961c0.928-1.082,2.039-1.908,3.332-2.477
		c1.291-0.569,2.723-0.854,4.295-0.854c0.691,0,1.365,0.065,2.021,0.195s1.262,0.294,1.818,0.492
		c0.557,0.198,1.051,0.427,1.484,0.687s0.734,0.473,0.9,0.64c0.168,0.167,0.275,0.294,0.324,0.38
		c0.049,0.087,0.09,0.189,0.121,0.306c0.031,0.118,0.057,0.257,0.074,0.417c0.02,0.161,0.027,0.353,0.027,0.575
		c0,0.248-0.012,0.458-0.037,0.631c-0.025,0.173-0.063,0.319-0.111,0.436c-0.051,0.118-0.109,0.204-0.178,0.26
		s-0.152,0.083-0.252,0.083c-0.174,0-0.416-0.121-0.727-0.362c-0.313-0.241-0.713-0.507-1.203-0.798
		c-0.492-0.291-1.09-0.557-1.791-0.798c-0.703-0.241-1.545-0.362-2.527-0.362c-1.07,0-2.043,0.213-2.92,0.64
		s-1.627,1.055-2.248,1.883c-0.621,0.829-1.104,1.84-1.445,3.034c-0.342,1.194-0.514,2.558-0.514,4.091
		c0,1.521,0.166,2.867,0.494,4.036c0.33,1.169,0.803,2.146,1.418,2.931c0.615,0.786,1.371,1.38,2.268,1.781
		c0.895,0.402,1.908,0.604,3.039,0.604c0.957,0,1.795-0.117,2.51-0.353s1.324-0.497,1.828-0.788s0.916-0.554,1.24-0.789
		c0.322-0.234,0.578-0.353,0.764-0.353c0.088,0,0.162,0.019,0.225,0.056s0.111,0.108,0.148,0.213
		c0.037,0.105,0.066,0.251,0.084,0.437C885.662,77.46,885.671,77.695,885.671,77.979z"/>
	<path fill="#5F6670" d="M908.033,80.243c0.1,0.272,0.152,0.491,0.158,0.659c0.006,0.166-0.041,0.293-0.139,0.38
		c-0.1,0.087-0.264,0.142-0.492,0.167c-0.229,0.024-0.535,0.037-0.918,0.037c-0.385,0-0.689-0.01-0.918-0.027
		c-0.23-0.02-0.402-0.051-0.52-0.094c-0.119-0.043-0.205-0.102-0.26-0.176c-0.057-0.074-0.109-0.167-0.158-0.278l-2.061-5.845
		h-9.982l-1.967,5.771c-0.037,0.111-0.086,0.208-0.148,0.288s-0.15,0.148-0.268,0.203c-0.119,0.057-0.285,0.096-0.502,0.121
		c-0.217,0.024-0.498,0.037-0.844,0.037c-0.359,0-0.652-0.016-0.881-0.047c-0.23-0.031-0.391-0.089-0.482-0.176
		c-0.094-0.086-0.137-0.213-0.131-0.381c0.006-0.166,0.059-0.386,0.158-0.658l8.053-22.303c0.049-0.136,0.113-0.247,0.195-0.334
		c0.08-0.086,0.197-0.154,0.352-0.204c0.154-0.049,0.354-0.083,0.594-0.102c0.242-0.019,0.547-0.028,0.918-0.028
		c0.396,0,0.725,0.009,0.984,0.028s0.469,0.053,0.631,0.102c0.16,0.05,0.283,0.121,0.371,0.213c0.086,0.093,0.154,0.208,0.203,0.343
		L908.033,80.243z M897.699,60.557h-0.02l-4.137,11.968h8.35L897.699,60.557z"/>
</g>
<g>
	<path fill="#5F6670" d="M270.123,123.854c0,2.766-0.404,5.233-1.213,7.4c-0.809,2.168-1.963,4.003-3.463,5.502
		c-1.5,1.5-3.328,2.637-5.484,3.41c-2.157,0.773-4.605,1.16-7.348,1.16c-2.508,0-4.793-0.364-6.855-1.09
		c-2.063-0.726-3.832-1.798-5.309-3.217c-1.477-1.418-2.614-3.193-3.41-5.326c-0.797-2.132-1.195-4.593-1.195-7.383v-28.23
		c0-0.188,0.047-0.352,0.141-0.492c0.093-0.141,0.258-0.251,0.492-0.334c0.234-0.082,0.539-0.152,0.914-0.211
		c0.375-0.058,0.867-0.088,1.477-0.088c0.563,0,1.042,0.03,1.441,0.088c0.398,0.059,0.708,0.129,0.932,0.211
		c0.223,0.083,0.381,0.193,0.475,0.334c0.093,0.141,0.141,0.305,0.141,0.492v27.492c0,2.109,0.258,3.95,0.773,5.52
		c0.515,1.57,1.26,2.878,2.232,3.92c0.972,1.043,2.145,1.828,3.516,2.355s2.912,0.791,4.623,0.791c1.758,0,3.322-0.258,4.693-0.773
		c1.371-0.515,2.531-1.288,3.48-2.32c0.949-1.031,1.675-2.308,2.18-3.832c0.504-1.523,0.756-3.305,0.756-5.344V96.081
		c0-0.188,0.047-0.352,0.141-0.492c0.093-0.141,0.258-0.251,0.492-0.334c0.234-0.082,0.545-0.152,0.932-0.211
		c0.387-0.058,0.873-0.088,1.459-0.088c0.563,0,1.037,0.03,1.424,0.088c0.387,0.059,0.691,0.129,0.914,0.211
		c0.223,0.083,0.387,0.193,0.492,0.334s0.158,0.305,0.158,0.492V123.854z"/>
	<path fill="#5F6670" d="M316.494,138.163c0,0.47-0.079,0.867-0.236,1.195c-0.158,0.329-0.363,0.598-0.618,0.809
		c-0.255,0.211-0.54,0.364-0.855,0.457s-0.63,0.141-0.945,0.141h-2c-0.63,0-1.182-0.065-1.655-0.193s-0.921-0.363-1.345-0.703
		c-0.424-0.339-0.849-0.803-1.272-1.389c-0.424-0.585-0.875-1.336-1.35-2.25l-13.878-25.875c-0.726-1.336-1.457-2.736-2.194-4.201
		c-0.737-1.464-1.423-2.888-2.058-4.271h-0.07c0.047,1.688,0.082,3.41,0.105,5.168c0.023,1.758,0.035,3.504,0.035,5.238v27.457
		c0,0.164-0.049,0.322-0.148,0.475c-0.099,0.153-0.266,0.27-0.501,0.352c-0.235,0.083-0.544,0.152-0.927,0.211
		c-0.383,0.058-0.872,0.088-1.465,0.088c-0.594,0-1.082-0.03-1.466-0.088c-0.383-0.059-0.686-0.128-0.908-0.211
		c-0.223-0.082-0.384-0.198-0.482-0.352c-0.099-0.152-0.148-0.311-0.148-0.475V97.769c0-0.937,0.266-1.604,0.798-2.004
		c0.532-0.398,1.113-0.598,1.742-0.598h2.976c0.701,0,1.288,0.059,1.76,0.176c0.472,0.118,0.895,0.312,1.27,0.58
		c0.375,0.27,0.738,0.646,1.089,1.125c0.351,0.48,0.719,1.085,1.104,1.811l10.668,19.969c0.657,1.219,1.291,2.408,1.903,3.568
		c0.611,1.16,1.2,2.303,1.767,3.428s1.127,2.232,1.682,3.322s1.104,2.186,1.648,3.287h0.035c-0.047-1.851-0.076-3.779-0.088-5.783
		c-0.012-2.004-0.018-3.932-0.018-5.783v-24.68c0-0.163,0.049-0.316,0.148-0.457c0.099-0.141,0.265-0.264,0.5-0.369
		c0.235-0.105,0.544-0.181,0.928-0.229c0.383-0.047,0.884-0.07,1.502-0.07c0.543,0,1.014,0.023,1.409,0.07
		c0.396,0.048,0.705,0.123,0.928,0.229s0.384,0.229,0.482,0.369c0.099,0.141,0.148,0.294,0.148,0.457V138.163z"/>
	<path fill="#5F6670" d="M334.635,139.745c0,0.188-0.047,0.352-0.141,0.492c-0.094,0.141-0.258,0.252-0.492,0.334
		c-0.234,0.083-0.545,0.152-0.932,0.211c-0.387,0.058-0.874,0.088-1.459,0.088c-0.563,0-1.043-0.03-1.441-0.088
		c-0.399-0.059-0.715-0.128-0.949-0.211c-0.234-0.082-0.399-0.193-0.492-0.334c-0.094-0.141-0.141-0.304-0.141-0.492V96.081
		c0-0.188,0.053-0.352,0.158-0.492s0.281-0.251,0.527-0.334c0.246-0.082,0.563-0.152,0.949-0.211
		c0.387-0.058,0.849-0.088,1.389-0.088c0.585,0,1.072,0.03,1.459,0.088c0.387,0.059,0.697,0.129,0.932,0.211
		c0.234,0.083,0.398,0.193,0.492,0.334c0.093,0.141,0.141,0.305,0.141,0.492V139.745z"/>
	<path fill="#5F6670" d="M365.115,139.604c-0.094,0.259-0.223,0.47-0.387,0.633c-0.164,0.164-0.393,0.294-0.686,0.387
		c-0.293,0.093-0.668,0.158-1.125,0.193s-1.025,0.053-1.705,0.053c-0.516,0-0.967-0.006-1.354-0.018
		c-0.387-0.013-0.721-0.041-1.002-0.088c-0.281-0.048-0.522-0.101-0.721-0.158c-0.199-0.058-0.369-0.135-0.51-0.229
		c-0.141-0.093-0.252-0.205-0.334-0.334c-0.083-0.128-0.158-0.286-0.229-0.475l-14.871-42.258c-0.188-0.515-0.287-0.932-0.299-1.248
		c-0.012-0.316,0.088-0.557,0.299-0.721c0.211-0.163,0.55-0.269,1.02-0.316c0.469-0.047,1.102-0.07,1.898-0.07
		c0.656,0,1.178,0.018,1.564,0.053s0.686,0.101,0.896,0.193c0.211,0.094,0.369,0.217,0.475,0.369
		c0.105,0.153,0.205,0.347,0.299,0.58l13.043,38.285h0.035l12.691-38.215c0.07-0.258,0.152-0.469,0.246-0.633
		c0.093-0.163,0.258-0.293,0.492-0.387c0.234-0.093,0.563-0.158,0.984-0.193s0.984-0.053,1.688-0.053
		c0.726,0,1.301,0.03,1.723,0.088c0.422,0.059,0.708,0.171,0.861,0.334c0.152,0.164,0.211,0.404,0.176,0.721
		s-0.146,0.733-0.334,1.248L365.115,139.604z"/>
	<path fill="#5F6670" d="M412.893,138.163c0,0.422-0.023,0.791-0.07,1.107c-0.047,0.316-0.129,0.58-0.246,0.791
		c-0.118,0.211-0.252,0.364-0.404,0.457c-0.153,0.094-0.322,0.141-0.51,0.141H389.83c-0.54,0-1.049-0.181-1.529-0.545
		c-0.48-0.363-0.721-1.002-0.721-1.916v-40.57c0-0.914,0.24-1.552,0.721-1.916c0.48-0.363,0.99-0.545,1.529-0.545h21.586
		c0.188,0,0.357,0.048,0.51,0.141c0.152,0.094,0.275,0.246,0.369,0.457c0.093,0.211,0.17,0.475,0.229,0.791
		c0.058,0.316,0.088,0.709,0.088,1.178c0,0.422-0.03,0.791-0.088,1.107c-0.059,0.316-0.135,0.575-0.229,0.773
		c-0.094,0.199-0.217,0.347-0.369,0.439c-0.153,0.094-0.322,0.141-0.51,0.141h-17.789v14.273h15.258c0.188,0,0.357,0.053,0.51,0.158
		c0.152,0.105,0.281,0.252,0.387,0.439c0.105,0.188,0.181,0.445,0.229,0.773c0.047,0.329,0.07,0.716,0.07,1.16
		c0,0.422-0.023,0.786-0.07,1.09c-0.047,0.305-0.123,0.551-0.229,0.738c-0.105,0.188-0.234,0.322-0.387,0.404
		c-0.153,0.083-0.322,0.123-0.51,0.123h-15.258v16.277h18.035c0.188,0,0.357,0.048,0.51,0.141c0.152,0.094,0.287,0.241,0.404,0.439
		c0.117,0.199,0.199,0.457,0.246,0.773C412.869,137.302,412.893,137.694,412.893,138.163z"/>
	<path fill="#5F6670" d="M453.076,139.745c0,0.188-0.035,0.352-0.105,0.492s-0.223,0.259-0.457,0.352
		c-0.234,0.093-0.563,0.163-0.984,0.211c-0.422,0.047-0.984,0.07-1.688,0.07c-0.61,0-1.107-0.023-1.494-0.07
		c-0.387-0.048-0.698-0.123-0.932-0.229c-0.234-0.105-0.417-0.251-0.545-0.439c-0.129-0.188-0.241-0.422-0.334-0.703l-4.184-10.723
		c-0.492-1.218-1.002-2.338-1.529-3.357s-1.155-1.898-1.881-2.637c-0.727-0.738-1.582-1.313-2.566-1.723
		c-0.984-0.409-2.168-0.615-3.551-0.615h-4.043v19.371c0,0.188-0.053,0.352-0.158,0.492s-0.27,0.252-0.492,0.334
		c-0.223,0.083-0.527,0.152-0.914,0.211c-0.387,0.058-0.874,0.088-1.459,0.088c-0.586,0-1.072-0.03-1.459-0.088
		c-0.387-0.059-0.698-0.128-0.932-0.211c-0.234-0.082-0.399-0.193-0.492-0.334c-0.094-0.141-0.141-0.304-0.141-0.492V97.628
		c0-0.914,0.24-1.552,0.721-1.916c0.48-0.363,0.99-0.545,1.529-0.545h9.668c1.148,0,2.104,0.03,2.865,0.088
		c0.761,0.059,1.447,0.123,2.057,0.193c1.758,0.305,3.31,0.786,4.658,1.441c1.348,0.656,2.479,1.489,3.393,2.496
		c0.914,1.008,1.6,2.162,2.057,3.463s0.686,2.737,0.686,4.307c0,1.524-0.206,2.889-0.615,4.096c-0.41,1.208-1.002,2.273-1.775,3.199
		c-0.773,0.927-1.7,1.729-2.777,2.408c-1.078,0.681-2.285,1.254-3.621,1.723c0.75,0.329,1.429,0.744,2.039,1.248
		c0.609,0.505,1.178,1.107,1.705,1.811s1.025,1.512,1.494,2.426c0.469,0.914,0.937,1.946,1.406,3.094l4.078,10.02
		c0.328,0.844,0.539,1.437,0.633,1.775C453.029,139.294,453.076,139.558,453.076,139.745z M443.971,107.788
		c0-1.78-0.399-3.287-1.195-4.518c-0.797-1.23-2.133-2.114-4.008-2.654c-0.586-0.163-1.248-0.281-1.986-0.352
		s-1.705-0.105-2.9-0.105h-5.098v15.328h5.906c1.594,0,2.971-0.193,4.131-0.58s2.127-0.926,2.9-1.617
		c0.773-0.69,1.341-1.506,1.705-2.443C443.789,109.91,443.971,108.891,443.971,107.788z"/>
	<path fill="#5F6670" d="M485.314,127.897c0,2.133-0.393,4.031-1.178,5.695c-0.785,1.665-1.875,3.076-3.27,4.236
		s-3.035,2.034-4.922,2.619s-3.92,0.879-6.1,0.879c-1.523,0-2.936-0.129-4.236-0.387c-1.301-0.259-2.461-0.574-3.48-0.949
		c-1.02-0.374-1.875-0.761-2.566-1.16c-0.691-0.398-1.172-0.738-1.441-1.02s-0.469-0.638-0.598-1.072
		c-0.129-0.434-0.193-1.014-0.193-1.74c0-0.515,0.023-0.943,0.07-1.283c0.047-0.339,0.117-0.615,0.211-0.826
		s0.211-0.356,0.352-0.439c0.141-0.082,0.305-0.123,0.492-0.123c0.328,0,0.791,0.199,1.389,0.598
		c0.598,0.399,1.365,0.832,2.302,1.301c0.938,0.47,2.068,0.909,3.393,1.318c1.324,0.41,2.854,0.615,4.588,0.615
		c1.313,0,2.514-0.176,3.604-0.527s2.027-0.849,2.813-1.494c0.785-0.645,1.389-1.436,1.811-2.373
		c0.422-0.937,0.633-2.004,0.633-3.199c0-1.288-0.293-2.391-0.879-3.305s-1.359-1.717-2.32-2.408
		c-0.961-0.69-2.057-1.323-3.287-1.898c-1.23-0.574-2.49-1.16-3.779-1.758s-2.543-1.26-3.762-1.986
		c-1.219-0.726-2.309-1.582-3.27-2.566s-1.74-2.139-2.337-3.463c-0.598-1.323-0.896-2.912-0.896-4.764
		c0-1.898,0.346-3.591,1.037-5.08c0.691-1.488,1.652-2.736,2.882-3.744c1.23-1.007,2.695-1.775,4.395-2.303s3.533-0.791,5.502-0.791
		c1.008,0,2.021,0.088,3.041,0.264s1.98,0.41,2.883,0.703c0.902,0.294,1.705,0.621,2.408,0.984c0.703,0.364,1.166,0.656,1.389,0.879
		c0.223,0.224,0.369,0.399,0.439,0.527c0.07,0.129,0.129,0.294,0.176,0.492c0.047,0.199,0.082,0.439,0.105,0.721
		s0.035,0.646,0.035,1.09c0,0.422-0.018,0.797-0.053,1.125c-0.035,0.329-0.088,0.604-0.158,0.826
		c-0.07,0.224-0.17,0.387-0.299,0.492s-0.275,0.158-0.439,0.158c-0.258,0-0.662-0.163-1.213-0.492
		c-0.551-0.328-1.225-0.697-2.021-1.107c-0.797-0.409-1.74-0.785-2.83-1.125c-1.09-0.339-2.314-0.51-3.674-0.51
		c-1.266,0-2.367,0.171-3.305,0.51c-0.938,0.34-1.711,0.791-2.32,1.354s-1.066,1.23-1.371,2.004s-0.457,1.595-0.457,2.461
		c0,1.266,0.293,2.355,0.879,3.27s1.365,1.723,2.338,2.426s2.08,1.349,3.322,1.934c1.242,0.586,2.508,1.178,3.797,1.775
		s2.555,1.254,3.797,1.969c1.242,0.716,2.35,1.56,3.322,2.531c0.973,0.973,1.758,2.122,2.355,3.445
		C485.015,124.528,485.314,126.093,485.314,127.897z"/>
	<path fill="#5F6670" d="M500.009,139.745c0,0.188-0.047,0.352-0.141,0.492s-0.258,0.252-0.492,0.334
		c-0.234,0.083-0.545,0.152-0.932,0.211c-0.387,0.058-0.873,0.088-1.459,0.088c-0.563,0-1.043-0.03-1.441-0.088
		c-0.398-0.059-0.715-0.128-0.949-0.211c-0.234-0.082-0.398-0.193-0.492-0.334s-0.141-0.304-0.141-0.492V96.081
		c0-0.188,0.053-0.352,0.158-0.492s0.281-0.251,0.527-0.334c0.246-0.082,0.563-0.152,0.949-0.211
		c0.387-0.058,0.85-0.088,1.389-0.088c0.586,0,1.072,0.03,1.459,0.088c0.387,0.059,0.697,0.129,0.932,0.211
		c0.234,0.083,0.398,0.193,0.492,0.334s0.141,0.305,0.141,0.492V139.745z"/>
	<path fill="#5F6670" d="M547.083,117.245c0,3.938-0.504,7.378-1.512,10.318c-1.008,2.941-2.479,5.379-4.412,7.313
		s-4.307,3.381-7.119,4.342c-2.813,0.962-6.164,1.441-10.055,1.441h-9.633c-0.539,0-1.049-0.181-1.529-0.545
		c-0.48-0.363-0.721-1.002-0.721-1.916v-40.57c0-0.914,0.24-1.552,0.721-1.916c0.48-0.363,0.99-0.545,1.529-0.545h10.301
		c3.938,0,7.266,0.51,9.984,1.529s4.998,2.484,6.838,4.395c1.84,1.911,3.234,4.225,4.184,6.943
		C546.609,110.754,547.083,113.823,547.083,117.245z M540.72,117.491c0-2.461-0.305-4.751-0.914-6.873
		c-0.609-2.121-1.564-3.955-2.865-5.502s-2.947-2.754-4.939-3.621c-1.992-0.866-4.559-1.301-7.699-1.301h-6.152v35.402h6.223
		c2.906,0,5.355-0.363,7.348-1.09c1.992-0.726,3.656-1.84,4.992-3.34c1.336-1.499,2.338-3.38,3.006-5.643
		C540.386,123.263,540.72,120.585,540.72,117.491z"/>
	<path fill="#5F6670" d="M589.412,138.515c0.188,0.516,0.287,0.932,0.299,1.248s-0.076,0.558-0.264,0.721
		c-0.188,0.164-0.498,0.269-0.932,0.316c-0.434,0.047-1.014,0.07-1.74,0.07s-1.307-0.018-1.74-0.053s-0.762-0.094-0.984-0.176
		s-0.387-0.193-0.492-0.334s-0.205-0.316-0.299-0.527l-3.902-11.074h-18.914l-3.727,10.934c-0.07,0.211-0.164,0.393-0.281,0.545
		c-0.117,0.153-0.287,0.281-0.51,0.387s-0.539,0.181-0.949,0.229c-0.41,0.047-0.943,0.07-1.6,0.07c-0.68,0-1.236-0.03-1.67-0.088
		c-0.434-0.059-0.738-0.17-0.914-0.334c-0.176-0.163-0.258-0.404-0.246-0.721s0.111-0.732,0.299-1.248l15.258-42.258
		c0.094-0.258,0.217-0.469,0.369-0.633c0.152-0.163,0.375-0.293,0.668-0.387c0.293-0.093,0.668-0.158,1.125-0.193
		s1.037-0.053,1.74-0.053c0.75,0,1.371,0.018,1.863,0.053s0.891,0.101,1.195,0.193c0.305,0.094,0.539,0.229,0.703,0.404
		s0.293,0.393,0.387,0.65L589.412,138.515z M569.83,101.214h-0.035l-7.84,22.676h15.82L569.83,101.214z"/>
	<path fill="#5F6670" d="M631.986,117.245c0,3.938-0.504,7.378-1.512,10.318c-1.008,2.941-2.479,5.379-4.412,7.313
		s-4.307,3.381-7.119,4.342c-2.813,0.962-6.164,1.441-10.055,1.441h-9.633c-0.539,0-1.049-0.181-1.529-0.545
		c-0.48-0.363-0.721-1.002-0.721-1.916v-40.57c0-0.914,0.24-1.552,0.721-1.916c0.48-0.363,0.99-0.545,1.529-0.545h10.301
		c3.938,0,7.266,0.51,9.984,1.529s4.998,2.484,6.838,4.395c1.84,1.911,3.234,4.225,4.184,6.943
		C631.511,110.754,631.986,113.823,631.986,117.245z M625.623,117.491c0-2.461-0.305-4.751-0.914-6.873
		c-0.609-2.121-1.564-3.955-2.865-5.502s-2.947-2.754-4.939-3.621c-1.992-0.866-4.559-1.301-7.699-1.301h-6.152v35.402h6.223
		c2.906,0,5.355-0.363,7.348-1.09c1.992-0.726,3.656-1.84,4.992-3.34c1.336-1.499,2.338-3.38,3.006-5.643
		C625.289,123.263,625.623,120.585,625.623,117.491z"/>
	<path fill="#5F6670" d="M692.56,117.245c0,3.938-0.504,7.378-1.512,10.318c-1.008,2.941-2.479,5.379-4.412,7.313
		s-4.307,3.381-7.119,4.342c-2.813,0.962-6.164,1.441-10.055,1.441h-9.633c-0.539,0-1.049-0.181-1.529-0.545
		c-0.48-0.363-0.721-1.002-0.721-1.916v-40.57c0-0.914,0.24-1.552,0.721-1.916c0.48-0.363,0.99-0.545,1.529-0.545h10.301
		c3.938,0,7.266,0.51,9.984,1.529s4.998,2.484,6.838,4.395c1.84,1.911,3.234,4.225,4.184,6.943
		C692.085,110.754,692.56,113.823,692.56,117.245z M686.197,117.491c0-2.461-0.305-4.751-0.914-6.873
		c-0.609-2.121-1.564-3.955-2.865-5.502s-2.947-2.754-4.939-3.621c-1.992-0.866-4.559-1.301-7.699-1.301h-6.152v35.402h6.223
		c2.906,0,5.355-0.363,7.348-1.09c1.992-0.726,3.656-1.84,4.992-3.34c1.336-1.499,2.338-3.38,3.006-5.643
		C685.863,123.263,686.197,120.585,686.197,117.491z"/>
	<path fill="#5F6670" d="M727.189,138.163c0,0.422-0.023,0.791-0.07,1.107s-0.129,0.58-0.246,0.791s-0.252,0.364-0.404,0.457
		c-0.152,0.094-0.322,0.141-0.51,0.141h-21.832c-0.539,0-1.049-0.181-1.529-0.545c-0.48-0.363-0.721-1.002-0.721-1.916v-40.57
		c0-0.914,0.24-1.552,0.721-1.916c0.48-0.363,0.99-0.545,1.529-0.545h21.586c0.188,0,0.357,0.048,0.51,0.141
		c0.152,0.094,0.275,0.246,0.369,0.457s0.17,0.475,0.229,0.791s0.088,0.709,0.088,1.178c0,0.422-0.029,0.791-0.088,1.107
		s-0.135,0.575-0.229,0.773c-0.094,0.199-0.217,0.347-0.369,0.439c-0.152,0.094-0.322,0.141-0.51,0.141h-17.789v14.273h15.258
		c0.188,0,0.357,0.053,0.51,0.158s0.281,0.252,0.387,0.439c0.105,0.188,0.182,0.445,0.229,0.773c0.047,0.329,0.07,0.716,0.07,1.16
		c0,0.422-0.023,0.786-0.07,1.09c-0.047,0.305-0.123,0.551-0.229,0.738c-0.105,0.188-0.234,0.322-0.387,0.404
		c-0.152,0.083-0.322,0.123-0.51,0.123h-15.258v16.277h18.035c0.188,0,0.357,0.048,0.51,0.141c0.152,0.094,0.287,0.241,0.404,0.439
		c0.117,0.199,0.199,0.457,0.246,0.773S727.189,137.694,727.189,138.163z"/>
	<path fill="#5F6670" d="M783.685,134.226c0,0.375-0.012,0.703-0.035,0.984s-0.064,0.527-0.123,0.738s-0.135,0.399-0.229,0.563
		c-0.094,0.164-0.258,0.364-0.492,0.598c-0.234,0.234-0.727,0.593-1.477,1.072c-0.75,0.48-1.682,0.949-2.795,1.406
		s-2.391,0.844-3.832,1.16s-3.018,0.475-4.729,0.475c-2.953,0-5.619-0.492-7.998-1.477s-4.406-2.438-6.082-4.359
		c-1.676-1.921-2.965-4.294-3.867-7.119c-0.902-2.824-1.354-6.076-1.354-9.756c0-3.773,0.486-7.137,1.459-10.09
		s2.338-5.454,4.096-7.506c1.758-2.051,3.861-3.615,6.311-4.693c2.449-1.077,5.162-1.617,8.139-1.617
		c1.313,0,2.59,0.123,3.832,0.369s2.391,0.558,3.445,0.932c1.055,0.375,1.992,0.809,2.813,1.301s1.389,0.896,1.705,1.213
		s0.521,0.558,0.615,0.721c0.094,0.164,0.17,0.357,0.229,0.58c0.059,0.224,0.105,0.487,0.141,0.791
		c0.035,0.305,0.053,0.668,0.053,1.09c0,0.47-0.023,0.867-0.07,1.195c-0.047,0.329-0.117,0.604-0.213,0.826
		c-0.094,0.224-0.205,0.387-0.334,0.492c-0.131,0.105-0.289,0.158-0.479,0.158c-0.33,0-0.789-0.229-1.379-0.686
		c-0.588-0.457-1.35-0.961-2.279-1.512c-0.93-0.55-2.063-1.055-3.393-1.512c-1.332-0.457-2.928-0.686-4.789-0.686
		c-2.027,0-3.871,0.404-5.531,1.213c-1.662,0.809-3.082,1.999-4.26,3.568c-1.178,1.57-2.09,3.486-2.738,5.748
		c-0.648,2.263-0.973,4.847-0.973,7.752c0,2.883,0.313,5.432,0.938,7.646c0.623,2.215,1.52,4.066,2.686,5.555
		c1.166,1.489,2.598,2.614,4.295,3.375c1.695,0.762,3.615,1.143,5.76,1.143c1.814,0,3.398-0.223,4.754-0.668
		c1.355-0.444,2.51-0.943,3.463-1.494c0.955-0.55,1.738-1.049,2.352-1.494c0.611-0.444,1.096-0.668,1.449-0.668
		c0.164,0,0.307,0.035,0.424,0.105s0.211,0.206,0.283,0.404c0.07,0.199,0.123,0.475,0.158,0.826S783.685,133.687,783.685,134.226z"
		/>
	<path fill="#5F6670" d="M824.466,139.745c0,0.188-0.047,0.352-0.141,0.492s-0.258,0.252-0.492,0.334
		c-0.234,0.083-0.545,0.152-0.932,0.211c-0.387,0.058-0.861,0.088-1.424,0.088c-0.609,0-1.102-0.03-1.477-0.088
		c-0.375-0.059-0.68-0.128-0.914-0.211c-0.234-0.082-0.398-0.193-0.492-0.334s-0.141-0.304-0.141-0.492v-20.18h-20.707v20.18
		c0,0.188-0.047,0.352-0.141,0.492s-0.258,0.252-0.492,0.334c-0.234,0.083-0.545,0.152-0.932,0.211
		c-0.387,0.058-0.873,0.088-1.459,0.088c-0.563,0-1.043-0.03-1.441-0.088c-0.398-0.059-0.715-0.128-0.949-0.211
		c-0.234-0.082-0.398-0.193-0.492-0.334s-0.141-0.304-0.141-0.492V96.081c0-0.188,0.047-0.352,0.141-0.492s0.258-0.251,0.492-0.334
		c0.234-0.082,0.551-0.152,0.949-0.211c0.398-0.058,0.879-0.088,1.441-0.088c0.586,0,1.072,0.03,1.459,0.088
		c0.387,0.059,0.697,0.129,0.932,0.211c0.234,0.083,0.398,0.193,0.492,0.334s0.141,0.305,0.141,0.492v18.211h20.707V96.081
		c0-0.188,0.047-0.352,0.141-0.492s0.258-0.251,0.492-0.334c0.234-0.082,0.539-0.152,0.914-0.211
		c0.375-0.058,0.867-0.088,1.477-0.088c0.563,0,1.037,0.03,1.424,0.088c0.387,0.059,0.697,0.129,0.932,0.211
		c0.234,0.083,0.398,0.193,0.492,0.334s0.141,0.305,0.141,0.492V139.745z"/>
	<path fill="#5F6670" d="M842.607,139.745c0,0.188-0.047,0.352-0.141,0.492s-0.258,0.252-0.492,0.334
		c-0.234,0.083-0.545,0.152-0.932,0.211c-0.387,0.058-0.873,0.088-1.459,0.088c-0.563,0-1.043-0.03-1.441-0.088
		c-0.398-0.059-0.715-0.128-0.949-0.211c-0.234-0.082-0.398-0.193-0.492-0.334s-0.141-0.304-0.141-0.492V96.081
		c0-0.188,0.053-0.352,0.158-0.492s0.281-0.251,0.527-0.334c0.246-0.082,0.563-0.152,0.949-0.211
		c0.387-0.058,0.85-0.088,1.389-0.088c0.586,0,1.072,0.03,1.459,0.088c0.387,0.059,0.697,0.129,0.932,0.211
		c0.234,0.083,0.398,0.193,0.492,0.334s0.141,0.305,0.141,0.492V139.745z"/>
	<path fill="#5F6670" d="M878.291,138.022c0,0.47-0.023,0.861-0.07,1.178s-0.123,0.586-0.229,0.809
		c-0.105,0.224-0.234,0.387-0.387,0.492s-0.334,0.158-0.545,0.158h-20.109c-0.539,0-1.049-0.181-1.529-0.545
		c-0.48-0.363-0.721-1.002-0.721-1.916V96.081c0-0.188,0.047-0.352,0.141-0.492s0.258-0.251,0.492-0.334
		c0.234-0.082,0.551-0.152,0.949-0.211c0.398-0.058,0.879-0.088,1.441-0.088c0.586,0,1.072,0.03,1.459,0.088
		c0.387,0.059,0.697,0.129,0.932,0.211c0.234,0.083,0.398,0.193,0.492,0.334s0.141,0.305,0.141,0.492v39.34h16.313
		c0.211,0,0.393,0.053,0.545,0.158s0.281,0.259,0.387,0.457c0.105,0.199,0.182,0.463,0.229,0.791
		C878.267,137.156,878.291,137.554,878.291,138.022z"/>
	<path fill="#5F6670" d="M910.283,138.163c0,0.422-0.023,0.791-0.07,1.107s-0.129,0.58-0.246,0.791s-0.252,0.364-0.404,0.457
		c-0.152,0.094-0.322,0.141-0.51,0.141H887.22c-0.539,0-1.049-0.181-1.529-0.545c-0.48-0.363-0.721-1.002-0.721-1.916v-40.57
		c0-0.914,0.24-1.552,0.721-1.916c0.48-0.363,0.99-0.545,1.529-0.545h21.586c0.188,0,0.357,0.048,0.51,0.141
		c0.152,0.094,0.275,0.246,0.369,0.457s0.17,0.475,0.229,0.791s0.088,0.709,0.088,1.178c0,0.422-0.029,0.791-0.088,1.107
		s-0.135,0.575-0.229,0.773c-0.094,0.199-0.217,0.347-0.369,0.439c-0.152,0.094-0.322,0.141-0.51,0.141h-17.789v14.273h15.258
		c0.188,0,0.357,0.053,0.51,0.158s0.281,0.252,0.387,0.439c0.105,0.188,0.182,0.445,0.229,0.773c0.047,0.329,0.07,0.716,0.07,1.16
		c0,0.422-0.023,0.786-0.07,1.09c-0.047,0.305-0.123,0.551-0.229,0.738c-0.105,0.188-0.234,0.322-0.387,0.404
		c-0.152,0.083-0.322,0.123-0.51,0.123h-15.258v16.277h18.035c0.188,0,0.357,0.048,0.51,0.141c0.152,0.094,0.287,0.241,0.404,0.439
		c0.117,0.199,0.199,0.457,0.246,0.773S910.283,137.694,910.283,138.163z"/>
</g>
</svg>
