<?xml version="1.0" encoding="utf-8"?>
<!-- Generator: Adobe Illustrator 16.0.0, SVG Export Plug-In . SVG Version: 6.00 Build 0)  -->
<!DOCTYPE svg PUBLIC "-//W3C//DTD SVG 1.1//EN" "http://www.w3.org/Graphics/SVG/1.1/DTD/svg11.dtd" [
	<!ENTITY st0 "fill:#234795;">
	<!ENTITY st1 "fill:#234797;">
	<!ENTITY st2 "fill:#244896;">
	<!ENTITY st3 "fill:#244997;">
	<!ENTITY st4 "fill:#254796;">
	<!ENTITY st5 "fill:#254998;">
	<!ENTITY st6 "fill:#264997;">
	<!ENTITY st7 "fill:#264998;">
	<!ENTITY st8 "fill:#5E8AA1;">
	<!ENTITY st9 "fill:#2A4A97;">
	<!ENTITY st10 "fill:#2B4A95;">
	<!ENTITY st11 "fill:#2B4B97;">
	<!ENTITY st12 "fill:#2D4C97;">
	<!ENTITY st13 "fill:#2E4B97;">
	<!ENTITY st14 "fill:#6088A0;">
	<!ENTITY st15 "fill:#6089A0;">
	<!ENTITY st16 "fill:#61899F;">
	<!ENTITY st17 "fill:#618AA0;">
	<!ENTITY st18 "fill:#628A9F;">
]>
<svg version="1.1" id="Layer_1" xmlns="http://www.w3.org/2000/svg" xmlns:xlink="http://www.w3.org/1999/xlink" x="0px" y="0px"
	 width="379.5px" height="144.5px" viewBox="0 0 379.5 144.5" style="enable-background:new 0 0 379.5 144.5;" xml:space="preserve"
	>
<path style="&st8;" d="M343.488,88.017c0.026,0.408,0.153,0.868-0.362,1.275c-2.31,0-193.947-0.016-193.947-0.016
	c-0.021-2.1-0.259-4.646-0.397-6.591c-0.161-2.266-0.687-4.512-1.145-6.749c-0.466-2.272-1.165-4.483-1.998-6.649
	c-1.057-2.751-2.224-5.441-3.676-8.021c-1.501-2.665-3.175-5.216-5.082-7.574c-2.128-2.628-4.523-5.029-7.084-7.274
	c-1.945-1.706-4.029-3.199-6.143-4.652c-1.924-1.322-4.002-2.412-6.106-3.436c-4.006-1.949-8.22-3.343-12.552-4.307
	c-2.134-0.476-4.343-0.684-6.534-0.928c-2.772-0.308-5.534-0.229-8.288-0.154c-1.827,0.051-3.677,0.265-5.501,0.643
	c-1.799,0.374-3.612,0.655-5.398,1.13c-2.465,0.658-4.852,1.504-7.221,2.435c-4.51,1.769-8.583,4.304-12.448,7.167
	c-2.837,2.101-5.404,4.548-7.729,7.193c-2.947,3.357-5.488,7.018-7.566,10.994c-1.329,2.541-2.544,5.138-3.44,7.846
	c-0.878,2.654-1.611,5.362-2.063,8.149c-0.405,2.494-0.781,4.971-0.796,7.5c-0.006,0.972-0.404,1.913-0.208,2.816
	c-0.449,0.658-0.916,0.64-1.331,0.416c-0.275-0.273-0.306-0.488-0.306-0.719c0.006-2.405-0.101-4.821,0.284-7.207
	c0.503-3.111,1.152-6.187,2.009-9.231c0.921-3.271,2.206-6.388,3.694-9.408c1.298-2.636,2.915-5.101,4.615-7.521
	c1.893-2.695,3.965-5.229,6.307-7.5c3.144-3.049,6.516-5.843,10.335-8.078c3.162-1.85,6.381-3.526,9.814-4.825
	c2.758-1.044,5.564-1.889,8.438-2.498c1.501-0.318,3.043-0.491,4.558-0.749c1.491-0.256,2.997-0.258,4.482-0.396
	c2.065-0.192,4.189-0.357,6.263,0.16c0.17,0.042,0.358,0.017,0.537,0.015c2.175-0.016,4.29,0.421,6.426,0.764
	c3.095,0.499,6.073,1.355,9.01,2.415c3.648,1.315,7.093,3.022,10.42,5.024c2.471,1.487,4.81,3.144,7.001,4.982
	c2.075,1.742,4.064,3.589,5.827,5.692c1.764,2.105,3.562,4.176,5.061,6.481c2.689,4.137,4.936,8.488,6.528,13.178
	c0.86,2.537,1.58,5.114,2.067,7.731c0.295,1.588,0.556,3.204,0.665,4.843c0.088,1.324,0.208,2.647,0.203,3.977
	c-0.001,0.386,0.109,0.991,0.224,1.034c0.106,0.042,1.164,0.075,1.692,0.075c62.958,0.006,125.918,0.004,188.877,0.009
	C342.156,87.48,342.857,87.316,343.488,88.017z"/>
<g>
	<path style="&st5;" d="M82.406,85.318c-1.105,0.15-2.015,0.275-3.085,0.422c-0.258,1.325-0.096,2.66-0.123,3.978
		c-0.028,1.34-0.006,2.681-0.006,4.011c-1.305,0.322-3.377-0.47-4.801-1.842c0-1.556,0-3.162,0-4.842
		c-0.593-0.411-0.374-1.467-1.354-1.534c0-0.585,0-1.07,0-1.658c2.339-0.759,4.642-1.614,7.092-2.031
		c6.601-1.12,13.258-0.844,19.896-0.747c3.222,0.048,6.463,0.439,9.605,1.304c0.423,0.117,0.854,0.245,1.199,0.59
		c0.172,0.559,0.079,1.136,0.069,1.796c-0.761,0.188-0.808,1.11-1.531,1.367c0,2.087,0,4.095,0,6.046
		c-0.486,1.099-1.422,1.555-2.369,1.908c-1.874,0.697-3.848,0.948-5.824,1.209c-1.948,0.257-3.905,0.287-5.856,0.435
		c-2.087,0.158-4.177,0.091-6.279-0.131c-1.722-0.183-3.44-0.378-5.159-0.58c-0.494-0.059-0.943-0.191-1.474-0.439
		C82.406,91.575,82.406,88.544,82.406,85.318z"/>
	<path style="&st5;" d="M88.489,58.954c1.712-1.698,3.698-1.698,5.706-0.876c2.403,0.98,3.905,2.833,4.63,5.328
		c0.442,1.523,0.905,3.031,1.159,4.611c0.191,1.188,0.279,2.383,0.345,3.568c0.125,2.231,0.055,4.474,0.058,6.712
		c0,0.125-0.065,0.253-0.123,0.464c-0.624,0.117-1.252,0.302-1.953-0.24c0-1.769-0.038-3.596,0.007-5.421
		c0.091-3.639-0.366-7.188-1.7-10.586c-0.515-1.308-1.371-2.387-2.726-2.961c-0.115-0.05-0.249-0.126-0.43,0.089
		c0.733,0.807,1.472,1.631,1.923,2.704c0.733,1.74,1.048,3.542,1.307,5.396c0.441,3.167,0.137,6.338,0.237,9.505
		c0.013,0.394,0.083,0.801-0.153,1.358c-3.712-0.098-7.501-0.205-11.253,0.289c-3.672,0.483-7.366,0.908-10.952,2.194
		c-0.32-0.535-0.432-1.067-0.427-1.643c0.038-4.289,0.524-8.491,2.359-12.439c1.355-2.915,3.397-5.203,6.21-6.774
		C84.2,59.4,86.079,58.999,88.489,58.954z"/>
	<path style="&st5;" d="M134.934,86.632c-1.525,0.58-2.939,1.085-4.326,1.659c-0.703,0.292-1.355,0.386-1.953-0.016
		c-1.518,0.229-2.832,0.852-4.316,1.383c0.553-0.847,1.52-1.021,1.957-1.987c-2.402,0.495-4.415,2.259-6.935,1.577
		c-0.123-0.158-0.102-0.328-0.052-0.51c0.399-0.384,0.962-0.388,1.447-0.579c0.468-0.49,0.882-1.012,1.186-1.667
		c0.648-0.092,1.295-0.214,1.902-0.469c0.971-0.41,1.088-0.65,0.941-1.924c-0.842-0.288-1.615-0.068-2.397,0.318
		c-2.186,1.082-4.388,2.129-6.721,2.866c-0.164,0.054-0.326,0.11-0.693,0.234c0.703-0.971,1.738-1.236,2.501-2.102
		c-0.916,0-1.68,0-2.442,0c-0.351-0.084-0.324-0.473-0.547-0.623c-0.966-0.026-1.872,0.364-2.842,0.43
		c1.949-1.078,4.04-1.77,6.088-2.375c0.737,0.121,0.629,0.726,0.831,1.141c0.208,0.427,0.66,0.573,1.07,0.746
		c1.837-0.287,3.481-1.251,5.391-1.615c0.292,1.05,1.414,1.112,1.986,1.843c0.542,0.691,0.991,1.479,1.951,2.141
		c-0.552-1.622-1.29-2.788-2.808-3.443c0.688-0.781,1.659-0.731,2.374-1.18c0.699-0.439,1.193-1.193,2.128-1.366
		c1.241,1.154,2.876,1.83,4.074,3.116c0.833,0.896,1.911,1.431,3.163,1.614c0.557-0.159,1.051-0.657,1.802-0.463
		c0.499,1.112,1.433,1.967,2.107,3.095c-0.997,0.11-1.237-0.923-2.289-1.298c-0.795-0.094-1.787,1.042-2.998,0.521
		C135.999,87.349,135.482,87.001,134.934,86.632z"/>
	<path style="&st3;" d="M46.061,88.908c0.029-0.579,0.199-0.855,0.524-1.136c3.78-0.041,6.896-2.084,10.15-3.857
		c1.256,1.167,2.677,2.004,3.959,3.024c0.76,0.604,1.484,0.67,2.333,0.219c0.781-0.416,1.572-0.809,2.295-1.343
		c0.642,0.297,0.766,1.044,1.432,1.36c1.085-0.545,1.861-1.683,3.1-2.093c0.783,0.138,1.292,0.761,1.978,1.038
		c0.15,0.571,0.124,1.098,0.024,1.651c-0.816,0.378-1.653,0.209-2.62,0.228c0.204-0.662,0.375-1.215,0.546-1.771
		c-0.383-0.224-0.63-0.104-0.885,0.11c-0.543,0.461-1.092,0.915-1.655,1.35c-0.838,0.646-1.725,0.865-2.976,0.766
		c-0.288-0.269,0.013-0.707-0.27-0.98c-0.297-0.063-0.509,0.148-0.731,0.273c-0.808,0.448-1.571,0.619-2.535,0.331
		c-1.459-0.439-2.791,0.11-3.989,0.988c-0.965,0.708-1.935,1.404-2.994,1.98c-0.638,0.345-1.33,0.473-1.998,0.688
		c-0.317,0.102-0.71,0.156-1.048-0.227c0.075-0.664,0.545-1.134,0.987-1.617c1.144-1.253,2.286-2.508,3.435-3.757
		c0.266-0.289,0.554-0.557,0.617-1.057c-0.691-0.016-1.156,0.432-1.645,0.751c-1.836,1.201-3.807,2.055-5.933,2.607
		C47.464,88.616,46.731,88.307,46.061,88.908z"/>
	<path style="&st2;" d="M105.922,78.801c-0.138,0.315-0.425,0.436-0.664,0.571c-0.416-0.028-0.71-0.201-1.06-0.478
		c0-1.52,0.021-3.08-0.004-4.64c-0.056-3.515-0.673-6.948-1.615-10.321c-0.358-1.284-1.041-2.443-1.884-3.475
		c-0.914-1.12-2.129-1.699-3.581-1.753c-0.222-0.008-0.448,0.018-0.653-0.136c-0.037-0.494,0.362-0.655,0.678-0.869
		c0.099-0.024,0.184-0.063,0.27-0.063c2.676-0.001,4.554,1.298,5.72,3.633c1.152,2.308,1.794,4.765,2.185,7.326
		c0.464,3.04,0.702,6.08,0.698,9.146C106.011,78.097,106.072,78.459,105.922,78.801z"/>
	<path style="&st7;" d="M105.006,63.548c3.384,4.683,5.66,13.723,4.142,16.672c-0.771-0.235-1.608-0.282-2.366-0.642
		c0.085-2.074,0.386-4.105,0.22-6.201c-0.253-3.165-0.864-6.218-1.896-9.205c-0.07-0.204-0.052-0.436-0.075-0.654L105.006,63.548z"
		/>
	<path style="&st10;" d="M74.243,55.469c0.281,0.693-0.354,1.296-0.094,2.037c0.256,0.234,0.572,0.522,0.971,0.886
		c-0.613,0.037-1.096,0.066-1.608,0.098c-0.297,0.556-0.586,1.094-0.918,1.714c-0.169-0.689-0.317-1.298-0.47-1.921
		c-0.514-0.284-1.114,0.042-1.657-0.207c0.308-0.266,0.601-0.521,0.848-0.733c0.292-0.642-0.167-1.167-0.166-1.768
		c0.659,0.226,1.088,0.673,1.532,0.997C73.36,56.336,73.604,55.631,74.243,55.469z"/>
	<path style="&st10;" d="M82.858,50.503c0.186,0.5,0.339,0.912,0.51,1.37c0.521,0.151,1.065,0.311,1.631,0.474
		c-0.326,0.575-1.114,0.534-1.501,1.199c0,0.42,0,0.948,0,1.527c-0.697-0.157-0.874-0.78-1.353-1.189
		c-0.461,0.214-0.956,0.443-1.485,0.688c-0.09-0.569,0.494-0.932,0.43-1.401c0.011-0.55-0.451-0.825-0.527-1.293
		c0.477-0.431,0.892,0.149,1.362,0.09C82.361,51.599,82.424,50.977,82.858,50.503z"/>
	<path style="&st11;" d="M103.423,48.753c-0.399,0.172-0.827,0.357-1.271,0.549c-0.346-0.583,0.411-0.943,0.197-1.451
		c-0.253-0.464-0.506-0.929-0.774-1.421c0.579-0.199,1.095,0.42,1.747,0.061c0.218-0.417,0.479-0.914,0.767-1.465
		c0.158,0.563,0.298,1.065,0.456,1.628c0.353,0.183,0.737,0.38,1.185,0.609c-0.424,0.228-0.817,0.438-1.149,0.615
		c-0.305,0.657,0.246,1.182,0.063,1.817C104.13,49.531,103.935,48.963,103.423,48.753z"/>
	<path style="&st10;" d="M114.232,43.965c0.233,0.421,0.433,0.749,0.473,1.131c0.434,0.36,0.961,0.422,1.495,0.494
		c-0.238,0.548-0.917,0.491-1.03,0.81c-0.328,0.542-0.124,0.968-0.28,1.415c-0.428-0.067-0.747-0.338-1.084-0.615
		c-0.45,0.14-0.9,0.28-1.352,0.421c-0.182-0.524,0.334-0.862,0.334-1.39c-0.225-0.263-0.479-0.563-0.843-0.989
		C113.136,45.452,113.79,44.917,114.232,43.965z"/>
	<path style="&st13;" d="M109.134,55.19c0.263-0.659,0.046-1.142,0.356-1.526c0.561,0.236,0.476,0.848,0.854,1.217
		c0.388,0.052,0.821,0.111,1.241,0.169c0.115,0.308-0.116,0.405-0.268,0.55c-0.125,0.122-0.238,0.256-0.355,0.381
		c0,0.486,0.394,0.8,0.47,1.237c-0.404,0.364-0.736-0.11-1.124-0.091c-0.438,0.187-0.656,0.646-1.109,1.127
		c-0.09-0.745-0.155-1.295-0.22-1.83c-0.29-0.273-0.73-0.302-1.008-0.722C108.313,55.315,109.086,55.563,109.134,55.19z"/>
	<path style="&st12;" d="M107.792,40.064c0.567,0.019,0.828,0.553,1.319,0.625c0.489,0.089,0.678-0.567,1.14-0.501
		c0.371,0.45-0.251,0.753-0.076,1.209c0.192,0.384,0.734,0.565,0.91,1.104c-0.347,0.05-0.683,0.1-0.954,0.138
		c-0.396,0.346-0.469,0.796-0.692,1.158c-0.495-0.259-0.435-0.88-0.846-1.2c-0.425-0.042-0.813,0.36-1.283,0.146
		c-0.019-0.525,0.507-0.744,0.695-1.158C108.111,41.058,107.858,40.566,107.792,40.064z"/>
</g>
<path style="&st7;" d="M105.028,63.52c-0.139,0.037-0.236,0.031-0.16-0.157c0.047,0.064,0.092,0.125,0.138,0.185L105.028,63.52z"/>
<g>
	<path style="&st2;" d="M179.803,55.125c-0.331,0.487-0.74,0.817-1.2,1.205c-0.663-0.896-1.214-1.795-1.968-2.555
		c-1.98-1.999-4.334-2.944-7.155-2.945c-4.115,0-7.274,2.592-8.831,6.555c-1.155,2.938-1.229,5.985-1.059,9.072
		c0.147,2.665,0.823,5.167,2.407,7.34c1.768,2.419,4.234,3.579,7.202,3.731c1.844,0.094,3.614-0.12,5.309-0.951
		c1.748-0.859,3.034-2.143,3.937-3.845c0.188-0.355,0.391-0.699,0.618-1.104c0.51,0.249,0.801,0.702,1.158,0.99
		c0.214,0.665-0.155,1.113-0.467,1.521c-2.961,3.853-6.765,5.729-11.707,5.042c-1.743-0.242-3.345-0.774-4.839-1.684
		c-2.269-1.381-3.691-3.461-4.619-5.856c-1.164-3-1.405-6.176-1.091-9.342c0.311-3.148,1.103-6.192,3.11-8.773
		c2.725-3.505,6.242-4.927,10.669-4.297c2.672,0.38,4.914,1.441,6.786,3.363C178.791,53.34,179.305,54.205,179.803,55.125z"/>
	<path style="&st2;" d="M276.095,72.809c0.02,0.421-0.128,0.728-0.341,1.032c-2.042,2.896-4.686,4.786-8.281,5.329
		c-3.238,0.489-6.189-0.125-8.873-1.944c-2.387-1.617-3.854-3.958-4.568-6.695c-0.727-2.795-1.061-5.618-0.661-8.563
		c0.36-2.642,0.945-5.157,2.331-7.412c2.243-3.651,5.563-5.602,9.87-5.5c3.418,0.08,6.42,1.308,8.694,4.004
		c0.519,0.616,0.956,1.277,1.251,2.059c-0.23,0.525-0.707,0.783-1.148,1.212c-0.689-0.95-1.297-1.865-2.072-2.665
		c-1.99-2.055-4.413-2.899-7.212-2.821c-4.133,0.116-6.764,2.415-8.402,5.977c-1.03,2.243-1.386,4.658-1.38,7.143
		c0.003,2.187,0.139,4.328,0.808,6.43c0.971,3.046,2.712,5.48,5.795,6.521c4.821,1.626,10.105,0.468,12.703-4.788
		c0.074-0.152,0.165-0.3,0.291-0.528C275.387,71.971,275.811,72.339,276.095,72.809z"/>
	<path style="&st4;" d="M342.982,78.277c-0.653,0-1.172,0-1.7,0c-0.212-0.521-0.106-1.016-0.111-1.498
		c-0.029-4.03-0.006-8.061-0.081-12.09c-0.041-2.148-1.498-4.136-3.264-4.767c-2.021-0.721-3.855-0.246-5.493,0.969
		c-2.102,1.563-3.04,3.766-3.06,6.353c-0.025,3.225-0.007,6.451-0.007,9.675c0,0.437,0,0.874,0,1.292
		c-0.554,0.187-0.992,0.125-1.52,0.08c0-6.465,0-12.927,0-19.414c0.447-0.174,0.883-0.099,1.396-0.058
		c0.295,1.263,0,2.562,0.174,3.843c0.535-0.025,0.546-0.528,0.728-0.833c1.47-2.479,3.604-3.75,6.509-3.66
		c3.426,0.104,5.457,2.231,6.133,5.109c0.245,1.042,0.317,2.109,0.309,3.191C342.963,70.361,342.982,74.254,342.982,78.277z"/>
	<path style="&st1;" d="M300.572,49.606c0.62,0,1.144,0,1.735,0c0,9.64,0,19.237,0,28.907c-0.543,0.162-1.1,0.087-1.735,0.051
		C300.572,68.915,300.572,59.321,300.572,49.606z"/>
	<path style="&st6;" d="M224.886,58.77c0,0.596,0,1.165,0,1.826c-0.81-0.244-1.51-0.579-2.328-0.574
		c-1.111,0.006-1.973,0.417-2.746,1.152c-1.06,1.01-1.704,2.277-2.106,3.64c-0.552,1.867-0.903,3.771-0.853,5.75
		c0.066,2.54,0.016,5.084,0.016,7.625c-0.585,0.276-1.116,0.062-1.729,0.173c0-6.497,0-12.911,0-19.341
		c0.473-0.414,0.973-0.281,1.612-0.086c0,1.865,0,3.723,0,5.581c0.067,0.01,0.135,0.02,0.204,0.028
		c0.422-0.959,0.8-1.942,1.278-2.874c0.565-1.108,1.227-2.135,2.364-2.808C222.032,58.014,223.419,57.934,224.886,58.77z"/>
	<path style="&st0;" d="M212.852,58.795c-0.051,0.646-0.092,1.171-0.133,1.703c-0.725,0.188-1.162-0.431-1.795-0.472
		c-1.762-0.113-3.088,0.496-4.097,1.972c-0.926,1.35-1.417,2.851-1.786,4.406c-0.559,2.359-0.593,4.762-0.549,7.171
		c0.028,1.519,0.006,3.038,0.006,4.563c-0.473,0.341-0.964,0.146-1.524,0.173c0-6.486,0-12.946,0-19.426
		c0.439-0.199,0.88-0.102,1.387-0.08c0.297,0.994,0.093,2.017,0.13,3.024c0.036,0.981,0.009,1.965,0.075,2.966
		c0.62-1.275,1.025-2.638,1.799-3.834c0.792-1.229,1.742-2.161,3.2-2.63C210.764,57.95,211.715,58.428,212.852,58.795z"/>
	<path style="&st9;" d="M313.968,55.714c-0.567,0.092-0.913,0.033-1.233-0.006c-0.042-0.089-0.082-0.141-0.071-0.157
		c1.188-1.863,2.382-3.722,3.597-5.617c1.015,0,2.04,0,3.254,0c-0.881,1.088-1.881,1.926-2.777,2.858
		C315.808,53.761,314.889,54.74,313.968,55.714z"/>
	<path style="&st2;" d="M323.54,77.304c0.111,0.523,0.125,0.952,0.005,1.375c-1.836,0.73-3.702-0.248-4.044-3.332
		c-0.622,0.593-1.146,1.206-1.775,1.676c-2.525,1.892-5.285,2.492-8.255,1.201c-2.304-1-3.499-2.911-3.563-5.353
		c-0.063-2.509,1.288-4.265,3.529-5.368c1.724-0.849,3.564-1.261,5.444-1.537c1.734-0.256,3.354-0.764,4.655-1.964
		c-0.104-2.655-1.466-4.063-4.474-4.212c-1.021-0.051-2.039-0.025-3.058,0.229c-1.653,0.412-2.877,1.314-3.688,2.808
		c-0.207,0.379-0.232,0.875-0.679,1.12c-0.421-0.269-0.754-0.625-1.069-0.993c0.717-2.636,3.005-4.207,6.189-4.534
		c1.196-0.122,2.366-0.174,3.563-0.001c1.264,0.181,2.391,0.621,3.388,1.398c1.207,0.94,1.475,2.286,1.483,3.695
		c0.024,3.536,0.009,7.071,0.009,10.609c0,0.269-0.003,0.537,0,0.806C321.214,76.773,321.615,77.198,323.54,77.304z M314.443,67.504
		c-0.875,0.151-1.736,0.322-2.57,0.614c-1.182,0.413-2.384,0.897-3.16,1.895c-2.115,2.727-0.592,6.016,1.955,6.927
		c2.072,0.743,4.182,0.471,6.121-0.73c1.282-0.795,2.113-1.931,2.485-3.34c0.59-2.231,0.224-4.513,0.344-7.105
		C317.802,66.85,316.126,67.213,314.443,67.504z"/>
	<path style="&st2;" d="M280.751,63.96c-0.518-0.191-0.926-0.501-1.276-1.093c0.529-1.552,1.471-2.867,3.053-3.578
		c1.926-0.863,3.945-1.154,6.082-0.906c1.173,0.136,2.294,0.301,3.293,0.912c1.37,0.838,2.174,2.005,2.154,3.715
		c-0.047,3.894-0.015,7.789-0.017,11.685c-0.001,0.972,0.171,1.864,1.109,2.518c0.362,0.029,0.793,0.063,1.234,0.099
		c0.115,0.498,0.106,0.931,0.018,1.361c-2.293,0.593-2.968,0.056-4.082-3.292c-0.642,0.715-1.277,1.395-2.022,1.96
		c-2.187,1.66-6.373,2.259-8.996,0.251c-1.708-1.308-2.418-2.978-2.394-5.063c0.03-2.254,1.253-3.721,3.087-4.803
		c1.795-1.063,3.803-1.416,5.816-1.765c1.661-0.289,3.325-0.595,4.547-1.912c0.159-2.158-0.812-3.495-2.838-4.018
		c-1.638-0.423-3.271-0.38-4.875,0.072c-1.711,0.482-3.008,1.498-3.605,3.254C280.97,63.567,280.849,63.759,280.751,63.96z
		 M280.811,73.429c0.198,1.795,1.269,2.861,2.856,3.547c0.777,0.336,1.576,0.249,2.376,0.287c3.14,0.154,6.604-2.439,6.396-6.359
		c-0.069-1.295-0.006-2.598-0.016-3.897c-0.002-0.326,0.077-0.676-0.116-1.035c-1.216,0.659-2.43,1.132-3.704,1.298
		c-1.197,0.157-2.348,0.444-3.496,0.776c-2.317,0.668-4.11,1.873-4.523,4.58C280.667,72.916,280.781,73.168,280.811,73.429z"/>
	<path style="&st2;" d="M184.304,69.122c-0.088,3.108,0.582,5.75,3.333,7.328c2.423,1.391,4.975,1.516,7.44,0.029
		c1.179-0.711,1.861-1.866,2.313-3.163c0.634-0.183,0.83,0.379,1.253,0.609c-0.419,1.971-1.606,3.333-3.278,4.062
		c-3.381,1.477-6.736,1.43-9.813-0.896c-1.289-0.976-2.049-2.382-2.47-3.867c-0.911-3.222-0.995-6.476,0.175-9.688
		c2.237-6.148,9.78-6.742,13.287-2.918c1.383,1.508,2.144,3.342,2.303,5.399c0.074,0.959,0.412,1.915,0.06,3.011
		c-1.169,0.207-2.37,0.064-3.558,0.088c-1.254,0.025-2.507,0.004-3.761,0.004c-1.209,0-2.418,0-3.627,0
		C186.767,69.122,185.571,69.122,184.304,69.122z M197.247,67.438c0.121-1.805-0.238-3.499-1.206-5.049
		c-1.069-1.717-2.612-2.565-4.645-2.652c-2.63-0.11-4.727,0.756-6.011,3.131c-0.765,1.413-1.188,2.939-1.063,4.57
		C185.527,67.628,196.032,67.628,197.247,67.438z"/>
	<path style="&st2;" d="M224.928,68.73c-0.03-2.233,0.404-4.168,1.38-5.946c1.573-2.871,3.993-4.535,7.305-4.526
		c3.314,0.009,5.742,1.652,7.306,4.555c0.813,1.507,1.149,3.115,1.274,4.841c0.193,2.66-0.237,5.119-1.672,7.355
		c-1.886,2.936-4.619,4.298-8.075,3.833c-3.11-0.419-5.188-2.292-6.455-5.143C225.252,72.043,224.876,70.338,224.928,68.73z
		 M240.234,65.648c-0.238-1.366-0.791-2.649-1.697-3.713c-1.389-1.633-3.184-2.298-5.339-2.187c-2.455,0.128-4.182,1.285-5.302,3.42
		c-0.795,1.519-1.106,3.136-1.113,4.856c-0.009,1.878,0.144,3.686,0.846,5.465c1.86,4.706,8.318,5.303,11.102,1.483
		c1.374-1.882,1.734-4.033,1.846-6.711C240.739,67.65,240.409,66.647,240.234,65.648z"/>
</g>
<g>
	<path style="&st14;" d="M166.411,112.052c-0.668,0.262-1.202,0.131-1.779,0.157c-0.499-1.102-1-2.208-1.542-3.399
		c-2.271,0-4.578,0-6.966,0c-0.718,0.978-1.095,2.206-1.682,3.357c-0.595,0-1.162,0-1.863,0c2.05-4.674,4.06-9.263,6.089-13.892
		c0.516,0,1.044,0,1.759,0C162.397,102.815,164.485,107.379,166.411,112.052z M159.647,107.102c0.865-0.019,1.741,0.084,2.691-0.087
		c-0.925-2.12-1.792-4.105-2.743-6.277c-1.156,2.107-1.9,4.171-2.855,6.369C157.873,107.106,158.761,107.12,159.647,107.102z"/>
	<path style="&st17;" d="M38.317,105.348c-0.008-1.301,0.126-5.85,4.463-5.85c4.238,0,4.736,4.647,4.734,5.816
		c-0.002,1.275-0.397,5.658-4.734,5.658C38.495,110.973,38.324,106.418,38.317,105.348z M42.666,112.672
		c6.25,0,6.74-5.787,6.75-7.437c0.016-2.454-0.697-7.273-6.806-7.273c-6.251,0-6.467,6.039-6.467,7.352
		C36.144,106.694,36.49,112.672,42.666,112.672z"/>
	<path style="&st15;" d="M51.646,98.208c0,0,0.491,0,0.844-0.001c0.354-0.001,0.334,0.44,0.334,0.44v5.984
		c0,0,0.522-0.567,0.892-1.104c0.339-0.493,1.045-1.031,1.971-1.064c3.741-0.137,3.854,3.852,3.86,4.32
		c0.063,4.376-2.166,5.763-3.715,5.704c-1.549-0.06-2.72-2.061-2.72-2.061c-0.25,0.011-0.17,0.17-0.258,0.988
		c-0.023,0.208,0.02,0.544-0.046,0.826c-0.06,0.255-0.444,0.251-1.126,0.248c-0.342-0.002-0.332-0.538-0.332-0.538V98.647
		C51.352,98.165,51.646,98.208,51.646,98.208z M52.963,106.785c0,0-0.171,1.963,0.39,2.751c0.561,0.789,1.971,2.533,3.724,1.036
		c0.782-0.67,0.899-2.706,0.858-3.509c-0.042-0.805-0.552-3.597-2.376-3.415C53.489,103.855,53.008,106.01,52.963,106.785z"/>
	<path style="&st18;" d="M67.711,105.451c0,0,0.747-0.343,0.852-0.51c0.105-0.169,0.101-0.343,0-0.563
		c-0.101-0.222-0.897-2.068-3.727-2.053c-2.829,0.019-3.397,1.847-3.394,2.354s-0.286,2.151,1.52,2.837
		c1.806,0.686,2.346,0.633,3.178,0.92c0.831,0.287,1.219,0.606,1.17,1.588s-1.44,1.142-2.143,1.165
		c-0.703,0.023-2.467-0.27-3.02-1.994c0,0-0.835,0.366-0.923,0.465c-0.089,0.1-0.398,1.606,1.827,2.521
		c2.225,0.916,4.951,0.112,5.743-1.738c0.792-1.85-0.817-2.926-1.086-3.079c-0.446-0.256-1.235-0.763-2.624-0.885
		c-1.389-0.122-2.306-0.628-2.306-1.351c0-0.724,0.471-1.153,1.046-1.315c0.575-0.16,1.981-0.586,2.956,0.402
		C67.754,105.205,67.711,105.451,67.711,105.451z"/>
	<path style="&st18;" d="M173.961,105.376c0,0,0.747-0.342,0.852-0.511c0.105-0.167,0.102-0.343,0-0.563
		c-0.102-0.221-0.896-2.068-3.726-2.051c-2.83,0.017-3.399,1.845-3.395,2.354c0.005,0.508-0.286,2.15,1.52,2.837
		c1.806,0.686,2.346,0.632,3.178,0.919s1.221,0.607,1.172,1.589s-1.44,1.142-2.145,1.163c-0.702,0.023-2.467-0.269-3.018-1.992
		c0,0-0.835,0.365-0.925,0.464c-0.088,0.099-0.398,1.605,1.826,2.521c2.226,0.915,4.951,0.113,5.744-1.738
		c0.792-1.851-0.817-2.926-1.086-3.079c-0.446-0.255-1.235-0.763-2.623-0.884c-1.39-0.122-2.307-0.627-2.307-1.352
		c0-0.724,0.472-1.153,1.046-1.315c0.576-0.161,1.981-0.585,2.956,0.403C174.005,105.13,173.961,105.376,173.961,105.376z"/>
	<path style="&st18;" d="M75.157,103.6c2.325,0.119,2.377,2.892,2.377,2.892h-5.062C72.478,106.127,72.832,103.479,75.157,103.6z
		 M72.505,107.948h6.653c0,0,0.658-5.617-4.161-5.619c-3.91-0.003-4.146,4.401-4.196,5.51c-0.03,0.672,0.729,4.645,4.185,4.645
		c2.902,0.001,3.747-2.101,3.848-2.27c0.137-0.229,0.232-0.453,0.041-0.554c-0.191-0.099-0.674-0.384-0.851-0.373
		c-0.176,0.01-0.325,0.067-0.425,0.33c0,0-0.552,1.383-1.825,1.504C74.502,111.244,72.708,111.036,72.505,107.948z"/>
	<path style="&st18;" d="M81.951,111.924v-9.152c0,0-0.005-0.161,0.179-0.177c0.29-0.021,1.107,0,1.107,0s0.142,0.001,0.194,0.187
		c0.051,0.186,0.061,1.315,0.061,1.315s0.898-1.151,1.293-1.338c0.395-0.186,0.467-0.186,0.94-0.186s0.832-0.006,0.848,0.021
		c0.016,0.027,0.186,0.357,0.153,0.64s-0.047,0.563-0.174,0.599c-0.127,0.037-1.258,0.009-2.159,0.672
		c-0.901,0.664-0.905,1.251-0.903,1.793c0.003,0.542,0.003,5.627,0.003,5.627s0.044,0.25-0.201,0.292
		c-0.246,0.043-1.197,0.073-1.252-0.032C81.988,112.083,81.946,112.069,81.951,111.924z"/>
	<path style="&st18;" d="M88.41,102.809l2.981,9.292c0,0,0.045,0.14,0.319,0.14c0.374,0,1.139,0.024,1.217,0
		c0.149-0.049,0.202-0.075,0.273-0.31c0.073-0.232,2.865-9.179,2.865-9.179s0.038-0.182-0.251-0.199
		c-0.195-0.013-0.606,0.005-0.852,0.018c-0.12,0.006-0.22-0.019-0.3,0.17c-0.053,0.127-0.134,0.352-0.254,0.749l-2.179,6.312
		l-2.344-7.167c0,0-0.009-0.12-0.317-0.111c-0.308,0.011-1.071,0-1.071,0S88.296,102.52,88.41,102.809z"/>
	<path style="&st18;" d="M101.417,102.319c1.435-0.145,2.245,0.271,2.989,0.663s0.869,1.024,0.869,1.587
		c0.001,0.563,0.002,3.621-0.004,4.71c-0.006,1.09,0.143,1.684,0.525,1.862c0.382,0.181,0.28,0.439,0.29,0.596
		c0.011,0.156-0.031,0.654-0.697,0.752c-0.667,0.098-1.114-0.171-1.346-0.727c-0.232-0.557-0.45-0.851-0.45-0.851
		c-0.186,0.229-1.788,1.732-3.265,1.583c-1.477-0.151-2.615-1.306-2.624-3.213c-0.009-1.906,1.462-2.724,2.312-2.962
		c0.85-0.239,2.807-0.493,3.131-0.601c0.323-0.105,0.722-0.56,0.626-1.096c-0.097-0.537-0.657-1.025-1.93-1.029
		c-1.272-0.005-2.282,1.114-2.472,1.328c-0.19,0.213-0.25,0.156-0.25,0.156s-0.851-0.415-1.011-0.492
		c-0.16-0.078-0.054-0.213-0.054-0.213C98.796,102.687,99.982,102.463,101.417,102.319z M100.674,107.43
		c-0.971,0.254-1.545,1.045-1.473,2.334c0.073,1.29,1.507,1.37,1.926,1.369c1.617-0.004,2.342-1.169,2.487-1.819
		c0.145-0.648,0.05-2.659,0.05-2.659C103.132,106.994,101.646,107.174,100.674,107.43z"/>
	<path style="&st18;" d="M109.57,103.915v7.664c0,0-0.099,0.308,0.82,0.675c0.918,0.368,2.227,0.234,2.673-0.235
		c0.128-0.135-0.009-0.794-0.367-0.832c0,0-1.527,0.094-1.545-0.333c-0.007-0.145,0.012-6.938,0.012-6.938s1.47-0.03,1.596-0.07
		c0.127-0.041,0.288-0.067,0.313-0.523c0.014-0.26,0.021-0.532-0.082-0.623s-0.17-0.162-0.558-0.16c-0.387,0.002-1.292,0-1.292,0
		l0.003-3.271c0,0-0.127-0.273-0.395-0.094c-0.096,0.066-0.214,0.145-0.357,0.237c-0.54,0.351-0.823,0.519-0.823,0.833
		s0,2.301,0,2.301l-1.36-0.012c0,0-0.511-0.034-0.511,0.294c-0.001,0.451-0.006,0.708,0,0.809c0.005,0.1,0.153,0.28,0.44,0.28
		C108.908,103.915,109.57,103.915,109.57,103.915z"/>
	<path style="&st18;" d="M178.253,103.946v7.666c0,0-0.1,0.308,0.819,0.675c0.918,0.366,2.228,0.233,2.674-0.235
		c0.127-0.136-0.009-0.795-0.368-0.831c0,0-1.526,0.091-1.545-0.335c-0.006-0.144,0.013-6.938,0.013-6.938s1.468-0.029,1.596-0.07
		c0.126-0.039,0.286-0.067,0.312-0.522c0.015-0.26,0.021-0.533-0.083-0.623c-0.103-0.091-0.17-0.162-0.556-0.161
		c-0.388,0.003-1.293,0-1.293,0l0.002-3.271c0,0-0.127-0.273-0.395-0.092c-0.096,0.065-0.215,0.145-0.356,0.236
		c-0.541,0.35-0.823,0.519-0.823,0.833c0,0.315,0,2.3,0,2.3l-1.361-0.013c0,0-0.511-0.032-0.511,0.294c0,0.454-0.006,0.71,0,0.81
		c0.006,0.099,0.153,0.28,0.442,0.28C177.591,103.946,178.253,103.946,178.253,103.946z"/>
	<path style="&st16;" d="M116.745,107.442c0.012-0.765,0.146-3.762,2.742-3.763c2.597,0,2.946,2.915,2.972,3.709
		c0.024,0.795-0.379,3.76-2.819,3.748S116.729,108.372,116.745,107.442z M119.655,112.517c3.8-0.151,4.445-3.842,4.444-5.291
		c-0.001-1.448-0.943-4.871-4.612-4.855c-3.669,0.017-4.283,3.67-4.264,4.855C115.244,108.573,115.855,112.669,119.655,112.517z"/>
	<path style="&st16;" d="M139.342,107.442c0.012-0.765,0.145-3.762,2.742-3.763c2.597,0,2.947,2.915,2.972,3.709
		c0.025,0.795-0.378,3.76-2.818,3.748C139.795,111.125,139.326,108.372,139.342,107.442z M142.252,112.517
		c3.8-0.151,4.445-3.842,4.443-5.291c0-1.448-0.942-4.871-4.611-4.855c-3.67,0.017-4.284,3.67-4.265,4.855
		C137.841,108.573,138.451,112.669,142.252,112.517z"/>
	<path style="&st18;" d="M126.592,111.872v-9.154c0,0-0.005-0.161,0.179-0.175c0.291-0.023,1.108,0,1.108,0s0.143,0,0.193,0.186
		c0.051,0.187,0.061,1.316,0.061,1.316s0.899-1.152,1.295-1.338c0.395-0.188,0.467-0.188,0.938-0.188
		c0.473,0,0.832-0.005,0.849,0.023c0.017,0.026,0.185,0.356,0.152,0.639s-0.048,0.563-0.174,0.6
		c-0.128,0.036-1.258,0.007-2.159,0.671c-0.901,0.663-0.905,1.252-0.903,1.792c0.003,0.542,0.003,5.628,0.003,5.628
		s0.044,0.25-0.2,0.293c-0.245,0.043-1.197,0.073-1.252-0.034C126.63,112.03,126.588,112.019,126.592,111.872z"/>
	<path style="&st17;" d="M134.018,102.593c0,0-0.225-0.037-0.25,0.234c-0.024,0.271,0,9.206,0,9.206s-0.028,0.199,0.25,0.188
		c0.276-0.011,1.114,0,1.114,0s0.128-0.023,0.145-0.171c0.018-0.146-0.05-9.297-0.05-9.297s-0.007-0.165-0.212-0.163
		C134.809,102.593,134.018,102.593,134.018,102.593z"/>
	<path style="&st17;" d="M134.062,98.528c0,0-0.226-0.007-0.25,0.052c-0.025,0.061-0.012,1.966-0.012,1.966
		s-0.009,0.121,0.207,0.121c0.277,0,1.168,0,1.168,0s0.159,0,0.153-0.13c-0.001-0.036-0.006-1.869-0.006-1.869
		s-0.06-0.142-0.264-0.14C134.853,98.528,134.062,98.528,134.062,98.528z"/>
	<path style="&st16;" d="M192.031,107.359c0.012-0.764,0.146-3.762,2.742-3.762c2.597-0.002,2.946,2.913,2.971,3.708
		c0.025,0.795-0.378,3.759-2.818,3.748C192.484,111.042,192.015,108.288,192.031,107.359z M194.941,112.434
		c3.8-0.152,4.444-3.844,4.443-5.293c0-1.447-0.942-4.871-4.612-4.854c-3.669,0.016-4.282,3.669-4.264,4.854
		C190.53,108.491,191.141,112.586,194.941,112.434z"/>
	<path style="&st16;" d="M213.496,107.395c0.012-0.764,0.146-3.762,2.741-3.763c2.598-0.001,2.947,2.915,2.972,3.709
		c0.026,0.794-0.378,3.76-2.818,3.748C213.949,111.078,213.48,108.324,213.496,107.395z M216.405,112.47
		c3.8-0.152,4.445-3.844,4.444-5.292c0-1.448-0.942-4.872-4.612-4.856c-3.669,0.018-4.283,3.671-4.263,4.856
		C211.995,108.525,212.605,112.62,216.405,112.47z"/>
	<path style="&st16;" d="M254.947,107.422c0.012-0.764,0.146-3.762,2.741-3.762c2.598-0.001,2.948,2.913,2.972,3.709
		c0.025,0.794-0.377,3.759-2.818,3.747S254.932,108.352,254.947,107.422z M257.857,112.496c3.801-0.152,4.444-3.844,4.444-5.291
		c-0.001-1.449-0.943-4.873-4.612-4.856c-3.67,0.018-4.283,3.67-4.265,4.856C253.447,108.554,254.058,112.648,257.857,112.496z"/>
	<path style="&st16;" d="M310.372,107.436c0.013-0.765,0.146-3.762,2.742-3.763c2.598,0,2.947,2.915,2.972,3.71
		c0.026,0.793-0.377,3.759-2.819,3.747C310.826,111.118,310.356,108.364,310.372,107.436z M313.282,112.51
		c3.8-0.152,4.446-3.844,4.444-5.291c-0.001-1.448-0.943-4.873-4.612-4.855c-3.669,0.017-4.283,3.67-4.265,4.855
		C308.871,108.566,309.482,112.662,313.282,112.51z"/>
	<path style="&st18;" d="M286.92,102.335c1.435-0.144,2.244,0.271,2.989,0.663c0.744,0.393,0.868,1.024,0.868,1.587
		c0.002,0.563,0.003,3.621-0.004,4.71c-0.005,1.09,0.143,1.683,0.525,1.862c0.382,0.18,0.28,0.439,0.29,0.596
		c0.01,0.155-0.031,0.652-0.697,0.751c-0.665,0.097-1.113-0.171-1.345-0.727c-0.234-0.557-0.451-0.85-0.451-0.85
		c-0.186,0.229-1.787,1.732-3.265,1.582c-1.479-0.15-2.615-1.306-2.624-3.212c-0.01-1.908,1.462-2.725,2.313-2.964
		s2.808-0.493,3.131-0.599c0.323-0.107,0.722-0.562,0.626-1.098c-0.096-0.537-0.657-1.025-1.931-1.03
		c-1.272-0.003-2.281,1.116-2.472,1.329s-0.25,0.157-0.25,0.157s-0.853-0.415-1.012-0.493c-0.161-0.078-0.055-0.213-0.055-0.213
		C284.3,102.702,285.485,102.479,286.92,102.335z M286.179,107.444c-0.972,0.256-1.547,1.045-1.474,2.335
		c0.073,1.289,1.508,1.369,1.927,1.368c1.617-0.004,2.342-1.169,2.485-1.818c0.146-0.648,0.052-2.66,0.052-2.66
		C288.636,107.011,287.15,107.189,286.179,107.444z"/>
	<path style="&st18;" d="M334.157,102.357c1.435-0.143,2.244,0.272,2.989,0.664c0.744,0.392,0.869,1.023,0.869,1.587
		c0.001,0.563,0.002,3.621-0.004,4.71c-0.007,1.09,0.142,1.683,0.524,1.863c0.383,0.179,0.28,0.439,0.289,0.595
		c0.012,0.156-0.031,0.654-0.696,0.751c-0.666,0.098-1.113-0.17-1.346-0.727c-0.232-0.556-0.45-0.849-0.45-0.849
		c-0.185,0.228-1.788,1.732-3.265,1.581c-1.478-0.149-2.615-1.306-2.623-3.212c-0.01-1.907,1.461-2.725,2.312-2.963
		c0.85-0.239,2.807-0.493,3.13-0.6c0.324-0.106,0.723-0.56,0.628-1.097c-0.098-0.537-0.658-1.025-1.931-1.029
		s-2.283,1.115-2.473,1.328s-0.25,0.157-0.25,0.157s-0.852-0.415-1.012-0.493s-0.054-0.213-0.054-0.213
		C331.537,102.726,332.723,102.502,334.157,102.357z M333.415,107.468c-0.972,0.256-1.546,1.045-1.474,2.335s1.507,1.37,1.927,1.369
		c1.617-0.004,2.343-1.17,2.487-1.818c0.144-0.65,0.049-2.66,0.049-2.66C335.872,107.034,334.388,107.213,333.415,107.468z"/>
	<path style="&st17;" d="M239.775,102.552c0,0-0.225-0.037-0.25,0.236c-0.023,0.271,0,9.206,0,9.206s-0.025,0.198,0.25,0.187
		c0.278-0.01,1.115,0,1.115,0s0.128-0.022,0.145-0.171c0.017-0.147-0.049-9.296-0.049-9.296s-0.01-0.165-0.213-0.163
		C240.567,102.552,239.775,102.552,239.775,102.552z"/>
	<path style="&st17;" d="M239.818,98.416c0,0-0.226-0.008-0.249,0.052c-0.025,0.062-0.011,1.967-0.011,1.967
		s-0.008,0.121,0.206,0.121c0.277,0,1.169,0,1.169,0s0.159,0,0.152-0.13c-0.001-0.036-0.006-1.871-0.006-1.871
		s-0.06-0.14-0.264-0.139C240.611,98.416,239.818,98.416,239.818,98.416z"/>
	<path style="&st17;" d="M304.636,102.6c0,0-0.225-0.037-0.25,0.234c-0.024,0.272,0,9.206,0,9.206s-0.028,0.199,0.25,0.188
		c0.277-0.012,1.114,0,1.114,0s0.128-0.024,0.145-0.171c0.018-0.146-0.05-9.296-0.05-9.296s-0.007-0.166-0.213-0.164
		C305.427,102.6,304.636,102.6,304.636,102.6z"/>
	<path style="&st17;" d="M304.679,98.535c0,0-0.226-0.009-0.25,0.052s-0.011,1.967-0.011,1.967s-0.008,0.12,0.207,0.12
		c0.276,0,1.167,0,1.167,0s0.161,0,0.153-0.13c-0.001-0.036-0.006-1.869-0.006-1.869s-0.06-0.14-0.265-0.14
		C305.472,98.535,304.679,98.535,304.679,98.535z"/>
	<path style="&st17;" d="M341.82,98.011c0,0-0.236-0.055-0.264,0.347c-0.025,0.402,0,13.603,0,13.603s-0.027,0.294,0.264,0.277
		c0.293-0.017,1.176,0,1.176,0s0.136-0.035,0.153-0.253c0.019-0.217-0.052-13.735-0.052-13.735s-0.009-0.244-0.225-0.241
		C342.658,98.011,341.82,98.011,341.82,98.011z"/>
	<path style="&st18;" d="M184.442,111.908v-9.154c0,0-0.005-0.16,0.179-0.175c0.292-0.023,1.108,0,1.108,0s0.142,0,0.193,0.186
		c0.051,0.187,0.062,1.316,0.062,1.316s0.898-1.152,1.294-1.339s0.468-0.187,0.939-0.187s0.831-0.005,0.848,0.021
		c0.018,0.028,0.185,0.358,0.153,0.641c-0.032,0.282-0.048,0.563-0.175,0.6c-0.126,0.035-1.258,0.007-2.159,0.67
		c-0.9,0.664-0.906,1.253-0.904,1.793c0.004,0.543,0.005,5.628,0.005,5.628s0.044,0.25-0.202,0.293
		c-0.244,0.043-1.196,0.073-1.251-0.033C184.48,112.066,184.439,112.053,184.442,111.908z"/>
	<path style="&st16;" d="M201.806,102.983v8.91c0,0-0.025,0.316,0.213,0.333c0.283,0.02,1.044,0.012,1.192,0.013
		c0.217,0.001,0.213-0.17,0.213-0.578c0-0.436-0.007-5.167-0.007-5.167s-0.022-2.23,1.995-2.715
		c1.811-0.434,2.582,1.477,2.581,2.544c-0.001,1.066,0,5.595,0,5.595s-0.044,0.284,0.211,0.309c0.253,0.024,1.053-0.038,1.053-0.038
		s0.182-0.01,0.2-0.2s0.022-6.535,0.002-6.974c-0.057-1.218-1.309-2.646-3.083-2.641c-1.21,0.004-2.564,1.097-2.906,1.771
		c0,0-0.003-1.04,0-1.198c0.004-0.157-0.077-0.437-0.436-0.437c-0.515,0.002-0.785-0.02-0.951,0.007
		C201.921,102.545,201.801,102.656,201.806,102.983z"/>
	<path style="&st17;" d="M215.759,101.472h1.091c0,0,0.095-0.046,0.328-0.354c0.234-0.31,1.424-1.88,1.424-1.88
		s0.184-0.171-0.183-0.316c-0.365-0.146-0.56-0.321-1.274-0.128c-0.261,0.071-0.523,0.502-0.786,0.937
		c-0.263,0.434-0.623,1.149-0.687,1.429C215.608,101.437,215.675,101.472,215.759,101.472z"/>
	<path style="&st16;" d="M223.715,102.479c-0.342-0.007-0.311,0.202-0.311,0.365c0,0.164,0,9.135,0,9.135s-0.002,0.25,0.237,0.24
		c0.237-0.01,1.198,0,1.198,0s0.095-0.03,0.095-0.304c0-0.272,0-5.366,0-5.366s-0.096-2.404,1.492-2.719
		c1.591-0.314,2.537,0.013,2.54,2.082c0.002,2.071,0,6.012,0,6.012s-0.051,0.285,0.195,0.295c0.318,0.011,0.943,0,1.271,0.009
		c0.121,0.002,0.116-0.221,0.116-0.395c0.002-0.362,0-5.218,0-5.376c0-0.909,0.206-1.995,1.152-2.462
		c0.947-0.468,2.957-0.564,2.957,1.567c0,2.13,0,6.235,0,6.235s-0.068,0.424,0.113,0.429c0.183,0.007,1.382,0,1.382,0
		s0.111-0.085,0.093-0.321c-0.019-0.235,0.002-6.211,0.002-6.211s0.011-1.895-1.251-2.784c-0.337-0.237-3.137-1.563-4.699,1.151
		c0,0-0.531-1.48-2.093-1.661c-1.563-0.179-2.893,0.701-3.252,1.631c0,0-0.016-1.043-0.006-1.234
		c0.009-0.19-0.055-0.308-0.237-0.319C224.438,102.461,223.715,102.479,223.715,102.479z"/>
	<path style="&st16;" d="M320.229,103.102v8.911c0,0-0.026,0.316,0.213,0.332c0.284,0.021,1.043,0.012,1.193,0.013
		c0.215,0,0.213-0.169,0.213-0.577c0-0.437-0.007-5.168-0.007-5.168s-0.022-2.231,1.993-2.714c1.812-0.434,2.584,1.477,2.583,2.543
		c-0.003,1.067,0,5.596,0,5.596s-0.045,0.283,0.21,0.308s1.054-0.038,1.054-0.038s0.183-0.01,0.2-0.2
		c0.019-0.19,0.021-6.536,0.001-6.975c-0.056-1.216-1.309-2.645-3.084-2.64c-1.21,0.004-2.563,1.097-2.904,1.771
		c0,0-0.003-1.042,0-1.199c0.003-0.156-0.079-0.436-0.436-0.436c-0.517,0.001-0.787-0.021-0.951,0.007
		C320.344,102.664,320.225,102.775,320.229,103.102z"/>
	<path style="&st17;" d="M243.702,107.294c-0.059,1.724,0.495,4.634,3.892,5.095c3.398,0.462,4.205-2.07,4.229-2.131
		c0.021-0.061,0.044-0.165-0.107-0.388c-0.248-0.363-0.527-0.582-0.753-0.598c-0.224-0.018-0.279,0.101-0.425,0.437
		c-0.054,0.123-0.305,1.491-2.396,1.418c-2.089-0.073-2.851-2.543-2.807-3.833c0.046-1.29,0.767-3.671,2.458-3.696
		c1.69-0.027,2.226,1.124,2.428,1.413c0.202,0.29,0.306,0.53,0.556,0.437c0.251-0.095,0.788-0.339,0.881-0.475
		c0.096-0.138,0.087-0.229-0.137-0.666c-0.224-0.438-0.928-2.012-3.489-2.019C245.471,102.281,243.785,104.807,243.702,107.294z"/>
	<path style="&st17;" d="M293.447,107.353c-0.059,1.725,0.495,4.633,3.893,5.095s4.205-2.07,4.228-2.131
		c0.021-0.06,0.046-0.165-0.106-0.389c-0.247-0.362-0.526-0.581-0.752-0.599c-0.226-0.017-0.28,0.103-0.426,0.438
		c-0.053,0.124-0.305,1.49-2.395,1.417c-2.092-0.073-2.851-2.543-2.807-3.832c0.043-1.289,0.765-3.671,2.458-3.697
		c1.69-0.026,2.224,1.124,2.425,1.414c0.202,0.29,0.306,0.53,0.557,0.436c0.25-0.094,0.79-0.338,0.883-0.475
		s0.085-0.228-0.139-0.665c-0.224-0.439-0.929-2.011-3.488-2.02C295.217,102.339,293.531,104.865,293.447,107.353z"/>
	<path style="&st17;" d="M269.982,98.943c0.004,0.327,0,12.821,0,12.821s-0.058,0.475,0.628,0.471
		c0.972-0.006,0.855-0.059,0.855-0.059s0.324-0.089,0.324-0.451c0-0.364,0-10.171,0-10.171s-0.05-0.308,0.013-0.408
		c0.074-0.117,0.272-0.02,0.398,0.202c0.234,0.415,5.986,10.599,5.986,10.599s0.08,0.293,0.698,0.288
		c0.619-0.006,1.452-0.003,1.452-0.003s0.302-0.099,0.32-0.372c0.019-0.288-0.01-12.765-0.001-13.085
		c0.008-0.318-0.027-0.481-0.536-0.481c-0.507,0-1.022-0.016-1.022-0.016s-0.277,0-0.277,0.354c0,0.836,0,10.719,0,10.719
		l-6.147-10.712c0,0-0.217-0.357-0.652-0.35c-0.436,0.006-1.63,0.003-1.63,0.003S269.981,98.252,269.982,98.943z"/>
</g>
</svg>
