<?xml version="1.0" encoding="utf-8"?>
<!-- Generator: Adobe Illustrator 16.0.0, SVG Export Plug-In . SVG Version: 6.00 Build 0)  -->
<!DOCTYPE svg PUBLIC "-//W3C//DTD SVG 1.1//EN" "http://www.w3.org/Graphics/SVG/1.1/DTD/svg11.dtd" [
	<!ENTITY ns_extend "http://ns.adobe.com/Extensibility/1.0/">
	<!ENTITY ns_ai "http://ns.adobe.com/AdobeIllustrator/10.0/">
	<!ENTITY ns_graphs "http://ns.adobe.com/Graphs/1.0/">
	<!ENTITY ns_vars "http://ns.adobe.com/Variables/1.0/">
	<!ENTITY ns_imrep "http://ns.adobe.com/ImageReplacement/1.0/">
	<!ENTITY ns_sfw "http://ns.adobe.com/SaveForWeb/1.0/">
	<!ENTITY ns_custom "http://ns.adobe.com/GenericCustomNamespace/1.0/">
	<!ENTITY ns_adobe_xpath "http://ns.adobe.com/XPath/1.0/">
]>
<svg version="1.1" id="Layer_1" xmlns:x="&ns_extend;" xmlns:i="&ns_ai;" xmlns:graph="&ns_graphs;"
	 xmlns="http://www.w3.org/2000/svg" xmlns:xlink="http://www.w3.org/1999/xlink" x="0px" y="0px" width="792px" height="277.5px"
	 viewBox="-206.25 -233.75 792 277.5" enable-background="new -206.25 -233.75 792 277.5" xml:space="preserve">
<metadata>
	<sfw  xmlns="&ns_sfw;">
		<slices></slices>
		<sliceSourceBounds  width="706.967" height="188.047" x="40.694" y="387.935" bottomLeftOrigin="true"></sliceSourceBounds>
	</sfw>
</metadata>
<path fill="#5E8AA1" d="M541.837-65.89c0.059,0.938,0.352,1.994-0.832,2.932c-5.313,0-446.078-0.039-446.078-0.039
	c-0.049-4.83-0.596-10.686-0.912-15.156c-0.371-5.215-1.58-10.381-2.635-15.525c-1.072-5.225-2.68-10.309-4.596-15.291
	c-2.432-6.326-5.115-12.514-8.455-18.447c-3.451-6.131-7.303-11.998-11.688-17.422c-4.895-6.043-10.404-11.566-16.295-16.73
	c-4.473-3.924-9.266-7.357-14.129-10.699c-4.424-3.041-9.203-5.547-14.043-7.902c-9.213-4.482-18.906-7.689-28.869-9.906
	c-4.908-1.096-9.99-1.574-15.029-2.135c-6.375-0.707-12.727-0.525-19.063-0.354c-4.201,0.117-8.455,0.609-12.652,1.479
	c-4.137,0.861-8.307,1.508-12.414,2.6c-5.67,1.514-11.16,3.459-16.607,5.6c-10.375,4.068-19.742,9.9-28.631,16.484
	c-6.525,4.832-12.43,10.461-17.777,16.543c-6.777,7.723-12.623,16.143-17.402,25.287c-3.057,5.844-5.85,11.818-7.912,18.047
	c-2.018,6.104-3.705,12.332-4.744,18.742c-0.932,5.736-1.797,11.432-1.83,17.25c-0.016,2.234-0.93,4.4-0.479,6.477
	c-1.033,1.516-2.107,1.473-3.063,0.957c-0.633-0.629-0.703-1.123-0.703-1.656c0.014-5.531-0.232-11.088,0.654-16.572
	c1.156-7.156,2.648-14.234,4.619-21.232c2.119-7.523,5.074-14.693,8.496-21.639c2.986-6.063,6.705-11.732,10.615-17.299
	c4.354-6.197,9.119-12.025,14.506-17.25c7.232-7.014,14.986-13.439,23.771-18.58c7.271-4.254,14.676-8.109,22.57-11.096
	c6.344-2.4,12.799-4.346,19.408-5.746c3.453-0.732,6.998-1.129,10.484-1.723c3.428-0.59,6.891-0.594,10.309-0.91
	c4.748-0.441,9.635-0.822,14.404,0.367c0.391,0.096,0.824,0.039,1.234,0.035c5.004-0.037,9.867,0.967,14.781,1.758
	c7.117,1.146,13.967,3.115,20.723,5.553c8.389,3.025,16.314,6.951,23.965,11.557c5.684,3.42,11.063,7.23,16.102,11.457
	c4.773,4.008,9.348,8.256,13.402,13.092c4.059,4.842,8.193,9.605,11.641,14.906c6.186,9.516,11.354,19.523,15.014,30.311
	c1.98,5.834,3.635,11.762,4.754,17.781c0.68,3.652,1.279,7.369,1.531,11.139c0.203,3.045,0.479,6.088,0.467,9.145
	c-0.002,0.893,0.25,2.283,0.516,2.381c0.244,0.096,2.678,0.172,3.891,0.172c144.803,0.014,289.611,0.008,434.418,0.021
	C538.774-67.124,540.386-67.503,541.837-65.89z"/>
<g>
	<path fill="#254998" d="M-58.651-72.099c-2.543,0.342-4.635,0.629-7.096,0.971c-0.594,3.047-0.221,6.119-0.283,9.148
		c-0.064,3.084-0.014,6.166-0.014,9.225c-3,0.742-7.768-1.08-11.041-4.236c0-3.578,0-7.271,0-11.135
		c-1.365-0.945-0.861-3.375-3.115-3.529c0-1.346,0-2.459,0-3.813c5.379-1.746,10.678-3.709,16.311-4.668
		c15.184-2.576,30.494-1.943,45.762-1.719c7.41,0.109,14.865,1.006,22.092,2.998c0.973,0.27,1.963,0.564,2.758,1.357
		c0.395,1.287,0.182,2.615,0.158,4.135c-1.75,0.432-1.859,2.549-3.521,3.141c0,4.799,0,9.42,0,13.904
		c-1.117,2.531-3.271,3.578-5.447,4.389c-4.311,1.604-8.852,2.182-13.396,2.781c-4.48,0.59-8.98,0.66-13.469,1.004
		c-4.801,0.363-9.607,0.207-14.441-0.301c-3.961-0.424-7.912-0.871-11.865-1.334c-1.137-0.139-2.17-0.441-3.391-1.012
		C-58.651-57.706-58.651-64.679-58.651-72.099z"/>
	<path fill="#254998" d="M-44.661-132.735c3.939-3.906,8.506-3.906,13.123-2.016c5.529,2.254,8.982,6.518,10.65,12.256
		c1.018,3.502,2.082,6.971,2.666,10.605c0.438,2.732,0.643,5.48,0.793,8.205c0.287,5.133,0.127,10.289,0.135,15.438
		c0,0.287-0.15,0.582-0.283,1.066c-1.436,0.27-2.881,0.695-4.492-0.551c0-4.068-0.088-8.271,0.016-12.469
		c0.209-8.369-0.842-16.531-3.91-24.346c-1.184-3.008-3.152-5.49-6.27-6.809c-0.266-0.117-0.572-0.291-0.99,0.203
		c1.686,1.857,3.387,3.752,4.424,6.221c1.686,4,2.41,8.146,3.006,12.41c1.014,7.283,0.316,14.576,0.545,21.861
		c0.029,0.906,0.191,1.842-0.352,3.121c-8.537-0.227-17.252-0.471-25.883,0.666c-8.445,1.109-16.939,2.086-25.189,5.045
		c-0.734-1.232-0.992-2.453-0.98-3.779c0.086-9.863,1.205-19.529,5.424-28.609c3.117-6.705,7.814-11.967,14.283-15.58
		C-54.524-131.71-50.204-132.632-44.661-132.735z"/>
	<path fill="#254998" d="M62.163-69.077c-3.508,1.334-6.76,2.496-9.951,3.816c-1.617,0.672-3.115,0.887-4.492-0.035
		c-3.49,0.525-6.512,1.957-9.926,3.18c1.273-1.949,3.496-2.35,4.502-4.57c-5.525,1.139-10.154,5.195-15.951,3.627
		c-0.283-0.363-0.234-0.754-0.119-1.172c0.918-0.885,2.213-0.895,3.328-1.332c1.076-1.127,2.029-2.33,2.727-3.834
		c1.49-0.211,2.979-0.494,4.375-1.078c2.234-0.943,2.504-1.496,2.166-4.426c-1.938-0.664-3.715-0.156-5.514,0.729
		c-5.027,2.488-10.094,4.896-15.459,6.592c-0.377,0.123-0.75,0.25-1.594,0.537c1.617-2.234,3.998-2.842,5.752-4.836
		c-2.105,0-3.863,0-5.615,0c-0.809-0.193-0.746-1.09-1.26-1.434c-2.221-0.061-4.305,0.838-6.535,0.99
		c4.48-2.479,9.291-4.07,14.002-5.461c1.693,0.275,1.445,1.67,1.91,2.623c0.479,0.984,1.52,1.316,2.461,1.715
		c4.227-0.66,8.006-2.879,12.4-3.711c0.672,2.414,3.252,2.553,4.566,4.238c1.248,1.584,2.281,3.4,4.488,4.928
		c-1.27-3.734-2.967-6.416-6.459-7.92c1.582-1.797,3.816-1.68,5.461-2.713c1.607-1.012,2.744-2.746,4.895-3.143
		c2.854,2.652,6.613,4.207,9.369,7.166c1.916,2.061,4.396,3.291,7.275,3.709c1.281-0.361,2.418-1.508,4.145-1.064
		c1.148,2.559,3.297,4.525,4.846,7.123c-2.291,0.248-2.844-2.127-5.264-2.99c-1.828-0.215-4.109,2.398-6.895,1.199
		C64.612-67.427,63.423-68.228,62.163-69.077z"/>
	<path fill="#244997" d="M-142.245-63.841c0.066-1.332,0.457-1.969,1.205-2.615c8.695-0.094,15.861-4.793,23.346-8.869
		c2.889,2.684,6.156,4.609,9.105,6.955c1.748,1.389,3.414,1.541,5.365,0.504c1.797-0.957,3.617-1.859,5.279-3.09
		c1.477,0.682,1.762,2.402,3.293,3.125c2.496-1.252,4.281-3.869,7.131-4.813c1.801,0.316,2.971,1.75,4.549,2.387
		c0.346,1.313,0.285,2.525,0.055,3.797c-1.877,0.867-3.801,0.48-6.025,0.525c0.469-1.523,0.861-2.795,1.256-4.074
		c-0.881-0.518-1.449-0.238-2.035,0.252c-1.25,1.061-2.512,2.104-3.807,3.104c-1.928,1.486-3.967,1.99-6.846,1.766
		c-0.662-0.619,0.029-1.627-0.621-2.25c-0.682-0.146-1.17,0.336-1.68,0.623c-1.859,1.029-3.615,1.424-5.832,0.762
		c-3.355-1.008-6.418,0.25-9.174,2.271c-2.221,1.625-4.451,3.227-6.887,4.553c-1.467,0.793-3.059,1.09-4.596,1.584
		c-0.729,0.232-1.633,0.359-2.41-0.525c0.172-1.527,1.254-2.609,2.27-3.717c2.633-2.885,5.26-5.771,7.902-8.645
		c0.611-0.664,1.273-1.279,1.418-2.43c-1.59-0.039-2.658,0.992-3.783,1.727c-4.223,2.758-8.756,4.727-13.646,5.992
		C-139.019-64.513-140.704-65.226-142.245-63.841z"/>
	<path fill="#244896" d="M-4.565-87.089c-0.316,0.727-0.977,1.002-1.527,1.314c-0.957-0.064-1.633-0.463-2.438-1.098
		c0-3.5,0.049-7.084-0.01-10.676c-0.127-8.084-1.547-15.98-3.713-23.738c-0.824-2.953-2.395-5.619-4.334-7.992
		c-2.104-2.576-4.896-3.908-8.236-4.031c-0.51-0.02-1.029,0.041-1.502-0.314c-0.086-1.135,0.834-1.506,1.561-1.998
		c0.227-0.057,0.422-0.146,0.621-0.146c6.154-0.002,10.473,2.986,13.154,8.357c2.65,5.309,4.127,10.959,5.025,16.85
		c1.068,6.992,1.615,13.984,1.607,21.037C-4.36-88.706-4.22-87.874-4.565-87.089z"/>
	<path fill="#264998" d="M-6.671-122.169c7.783,10.77,13.018,31.563,9.525,38.344c-1.773-0.541-3.697-0.648-5.441-1.475
		c0.195-4.771,0.889-9.443,0.506-14.264c-0.582-7.279-1.986-14.301-4.361-21.172c-0.16-0.469-0.119-1.002-0.172-1.504
		L-6.671-122.169z"/>
	<path fill="#2B4A95" d="M-77.427-140.751c0.646,1.594-0.814,2.98-0.217,4.686c0.59,0.539,1.316,1.199,2.234,2.037
		c-1.41,0.086-2.521,0.152-3.697,0.227c-0.686,1.277-1.35,2.516-2.113,3.941c-0.389-1.584-0.729-2.984-1.08-4.418
		c-1.184-0.654-2.563,0.096-3.813-0.477c0.709-0.611,1.383-1.197,1.951-1.688c0.672-1.475-0.385-2.684-0.381-4.064
		c1.516,0.52,2.502,1.547,3.523,2.293C-79.458-138.757-78.896-140.378-77.427-140.751z"/>
	<path fill="#2B4A95" d="M-57.612-152.173c0.428,1.15,0.779,2.098,1.174,3.15c1.197,0.348,2.449,0.717,3.75,1.092
		c-0.75,1.32-2.563,1.227-3.451,2.756c0,0.967,0,2.182,0,3.514c-1.604-0.361-2.01-1.795-3.111-2.736
		c-1.061,0.494-2.199,1.02-3.416,1.584c-0.207-1.311,1.135-2.145,0.988-3.223c0.025-1.266-1.037-1.898-1.211-2.975
		c1.096-0.99,2.051,0.342,3.131,0.207C-58.755-149.651-58.61-151.083-57.612-152.173z"/>
	<path fill="#2B4B97" d="M-10.313-156.198c-0.916,0.395-1.9,0.82-2.922,1.262c-0.795-1.34,0.945-2.168,0.453-3.336
		c-0.582-1.066-1.164-2.137-1.779-3.268c1.33-0.459,2.518,0.965,4.016,0.141c0.502-0.959,1.102-2.104,1.766-3.371
		c0.363,1.295,0.686,2.449,1.049,3.744c0.811,0.422,1.695,0.875,2.725,1.402c-0.975,0.523-1.879,1.008-2.643,1.414
		c-0.701,1.512,0.566,2.719,0.145,4.178C-8.687-154.407-9.134-155.716-10.313-156.198z"/>
	<path fill="#2B4A95" d="M14.548-167.21c0.535,0.967,0.996,1.723,1.088,2.602c0.998,0.828,2.211,0.971,3.439,1.135
		c-0.549,1.262-2.109,1.131-2.369,1.863c-0.756,1.246-0.285,2.227-0.645,3.254c-0.984-0.152-1.719-0.775-2.492-1.412
		c-1.035,0.32-2.07,0.643-3.109,0.967c-0.42-1.205,0.768-1.982,0.768-3.197c-0.518-0.605-1.102-1.295-1.939-2.273
		C12.028-163.79,13.532-165.021,14.548-167.21z"/>
	<path fill="#2E4B97" d="M2.823-141.394c0.604-1.514,0.105-2.627,0.818-3.51c1.289,0.543,1.094,1.951,1.965,2.799
		c0.893,0.121,1.889,0.256,2.854,0.389c0.266,0.709-0.266,0.934-0.617,1.266c-0.287,0.281-0.547,0.59-0.816,0.877
		c0,1.117,0.906,1.84,1.082,2.844c-0.93,0.838-1.693-0.252-2.586-0.209c-1.006,0.432-1.508,1.486-2.549,2.592
		c-0.209-1.713-0.357-2.977-0.508-4.209c-0.666-0.627-1.678-0.693-2.318-1.66C0.935-141.106,2.712-140.534,2.823-141.394z"/>
	<path fill="#2D4C97" d="M-0.265-176.183c1.305,0.043,1.906,1.271,3.035,1.438c1.125,0.205,1.559-1.305,2.621-1.152
		c0.854,1.035-0.576,1.732-0.176,2.781c0.443,0.883,1.689,1.299,2.094,2.539c-0.799,0.113-1.57,0.23-2.193,0.316
		c-0.912,0.797-1.078,1.832-1.592,2.664c-1.139-0.596-1-2.023-1.947-2.76c-0.977-0.096-1.869,0.828-2.949,0.336
		c-0.043-1.209,1.166-1.711,1.598-2.664C0.47-173.896-0.112-175.028-0.265-176.183z"/>
</g>
<path fill="#264998" d="M-6.622-122.233c-0.318,0.084-0.541,0.07-0.367-0.361c0.109,0.146,0.211,0.287,0.318,0.426L-6.622-122.233z"
	/>
<g>
	<path fill="#244896" d="M165.362-141.542c-0.762,1.119-1.703,1.879-2.76,2.771c-1.525-2.061-2.793-4.129-4.527-5.877
		c-4.555-4.598-9.969-6.771-16.457-6.773c-9.463,0-16.73,5.961-20.311,15.076c-2.656,6.758-2.826,13.766-2.436,20.865
		c0.338,6.131,1.893,11.885,5.535,16.883c4.066,5.563,9.738,8.232,16.566,8.58c4.24,0.217,8.311-0.275,12.209-2.186
		c4.021-1.977,6.979-4.93,9.055-8.844c0.434-0.816,0.9-1.607,1.422-2.539c1.172,0.572,1.842,1.615,2.664,2.277
		c0.492,1.529-0.357,2.559-1.074,3.496c-6.811,8.865-15.561,13.178-26.926,11.6c-4.01-0.557-7.693-1.779-11.131-3.875
		c-5.219-3.176-8.488-7.959-10.623-13.469c-2.678-6.9-3.23-14.205-2.51-21.486c0.717-7.24,2.537-14.242,7.152-20.178
		c6.27-8.063,14.357-11.332,24.539-9.883c6.146,0.873,11.303,3.314,15.609,7.734C163.034-145.647,164.216-143.657,165.362-141.542z"
		/>
	<path fill="#244896" d="M386.835-100.87c0.047,0.971-0.297,1.678-0.787,2.375c-4.695,6.658-10.775,11.008-19.047,12.256
		c-7.447,1.125-14.23-0.287-20.408-4.469c-5.488-3.721-8.861-9.107-10.502-15.398c-1.676-6.43-2.443-12.922-1.52-19.695
		c0.824-6.076,2.172-11.861,5.361-17.047c5.156-8.396,12.793-12.885,22.701-12.65c7.861,0.186,14.766,3.01,19.992,9.209
		c1.197,1.416,2.201,2.938,2.879,4.736c-0.527,1.207-1.627,1.801-2.639,2.787c-1.584-2.186-2.982-4.289-4.766-6.129
		c-4.576-4.727-10.15-6.668-16.588-6.488c-9.506,0.266-15.561,5.553-19.322,13.748c-2.371,5.158-3.191,10.713-3.176,16.428
		c0.01,5.029,0.32,9.955,1.861,14.789c2.232,7.004,6.236,12.604,13.328,14.998c11.086,3.74,23.242,1.076,29.217-11.012
		c0.17-0.35,0.377-0.689,0.67-1.215C385.204-102.796,386.179-101.95,386.835-100.87z"/>
	<path fill="#254796" d="M540.675-88.292c-1.504,0-2.695,0-3.91,0c-0.488-1.199-0.246-2.34-0.258-3.445
		c-0.064-9.27-0.012-18.543-0.186-27.809c-0.094-4.939-3.445-9.512-7.506-10.963c-4.65-1.658-8.869-0.566-12.635,2.229
		c-4.836,3.596-6.992,8.662-7.037,14.611c-0.059,7.418-0.018,14.838-0.018,22.252c0,1.004,0,2.012,0,2.973
		c-1.275,0.432-2.283,0.287-3.498,0.184c0-14.869,0-29.73,0-44.652c1.027-0.4,2.031-0.229,3.211-0.133
		c0.678,2.904,0,5.893,0.398,8.84c1.23-0.059,1.254-1.217,1.676-1.916c3.383-5.703,8.289-8.625,14.971-8.42
		c7.881,0.24,12.551,5.133,14.107,11.752c0.566,2.396,0.729,4.852,0.713,7.338C540.63-106.499,540.675-97.546,540.675-88.292z"/>
	<path fill="#234797" d="M443.13-154.235c1.426,0,2.631,0,3.99,0c0,22.172,0,44.244,0,66.486c-1.25,0.371-2.531,0.197-3.99,0.117
		C443.13-109.825,443.13-131.892,443.13-154.235z"/>
	<path fill="#264997" d="M269.054-133.159c0,1.371,0,2.68,0,4.201c-1.863-0.563-3.475-1.332-5.354-1.322
		c-2.555,0.014-4.541,0.961-6.316,2.65c-2.439,2.324-3.922,5.238-4.844,8.373c-1.271,4.293-2.074,8.672-1.963,13.225
		c0.15,5.84,0.039,11.693,0.039,17.537c-1.346,0.633-2.568,0.143-3.979,0.396c0-14.941,0-29.693,0-44.482
		c1.088-0.953,2.238-0.646,3.707-0.197c0,4.287,0,8.563,0,12.836c0.152,0.021,0.309,0.045,0.469,0.064
		c0.971-2.207,1.84-4.467,2.939-6.611c1.297-2.549,2.822-4.91,5.436-6.459C262.489-134.897,265.679-135.081,269.054-133.159z"/>
	<path fill="#234795" d="M241.374-133.101c-0.117,1.484-0.213,2.691-0.307,3.916c-1.666,0.432-2.672-0.992-4.129-1.086
		c-4.051-0.26-7.102,1.141-9.422,4.537c-2.131,3.104-3.258,6.557-4.107,10.133c-1.285,5.426-1.363,10.953-1.262,16.494
		c0.063,3.492,0.012,6.986,0.012,10.496c-1.086,0.781-2.217,0.334-3.504,0.395c0-14.916,0-29.773,0-44.682
		c1.01-0.457,2.021-0.232,3.189-0.184c0.686,2.287,0.217,4.639,0.303,6.955c0.08,2.258,0.02,4.52,0.17,6.822
		c1.424-2.932,2.355-6.066,4.139-8.818c1.822-2.826,4.006-4.971,7.357-6.049C236.571-135.044,238.759-133.946,241.374-133.101z"/>
	<path fill="#2A4A97" d="M473.94-140.188c-1.305,0.213-2.1,0.076-2.836-0.014c-0.096-0.203-0.189-0.324-0.16-0.361
		c2.732-4.283,5.479-8.559,8.271-12.918c2.336,0,4.693,0,7.488,0c-2.029,2.502-4.33,4.43-6.387,6.572
		C478.175-144.681,476.058-142.427,473.94-140.188z"/>
	<path fill="#244896" d="M495.956-90.528c0.254,1.201,0.289,2.188,0.012,3.162c-4.223,1.678-8.516-0.57-9.301-7.664
		c-1.432,1.361-2.635,2.771-4.082,3.854c-5.805,4.354-12.154,5.732-18.988,2.764c-5.299-2.301-8.045-6.697-8.193-12.313
		c-0.145-5.771,2.961-9.811,8.117-12.348c3.965-1.953,8.193-2.9,12.518-3.535c3.99-0.588,7.715-1.756,10.707-4.518
		c-0.238-6.105-3.373-9.344-10.291-9.688c-2.348-0.115-4.689-0.057-7.035,0.527c-3.801,0.947-6.617,3.021-8.48,6.459
		c-0.477,0.871-0.535,2.012-1.566,2.576c-0.969-0.623-1.734-1.438-2.455-2.285c1.648-6.063,6.912-9.676,14.232-10.428
		c2.75-0.281,5.441-0.4,8.193-0.002c2.908,0.416,5.5,1.428,7.793,3.215c2.777,2.162,3.396,5.258,3.41,8.5
		c0.055,8.131,0.021,16.262,0.021,24.4c0,0.619-0.008,1.234,0,1.852C490.606-91.751,491.53-90.774,495.956-90.528z M475.034-113.071
		c-2.012,0.348-3.994,0.742-5.912,1.414c-2.717,0.949-5.484,2.063-7.268,4.357c-4.865,6.273-1.361,13.838,4.496,15.93
		c4.766,1.713,9.617,1.086,14.078-1.678c2.947-1.828,4.861-4.439,5.715-7.682c1.357-5.131,0.516-10.379,0.793-16.34
		C482.759-114.575,478.905-113.739,475.034-113.071z"/>
	<path fill="#244896" d="M397.542-121.222c-1.193-0.439-2.129-1.152-2.936-2.514c1.217-3.57,3.383-6.594,7.021-8.23
		c4.434-1.984,9.074-2.654,13.988-2.084c2.701,0.314,5.281,0.693,7.574,2.098c3.152,1.928,5.004,4.611,4.955,8.545
		c-0.109,8.957-0.035,17.914-0.039,26.877c-0.002,2.236,0.393,4.285,2.549,5.793c0.836,0.066,1.824,0.145,2.838,0.23
		c0.266,1.146,0.244,2.141,0.043,3.127c-5.275,1.365-6.824,0.131-9.389-7.572c-1.475,1.646-2.936,3.211-4.65,4.508
		c-5.031,3.818-14.658,5.197-20.691,0.578c-3.928-3.008-5.561-6.85-5.504-11.645c0.068-5.186,2.881-8.559,7.1-11.047
		c4.129-2.445,8.746-3.258,13.377-4.061c3.818-0.664,7.645-1.367,10.459-4.396c0.363-4.963-1.871-8.039-6.527-9.24
		c-3.771-0.975-7.525-0.875-11.213,0.164c-3.936,1.109-6.918,3.445-8.293,7.484C398.048-122.126,397.769-121.685,397.542-121.222z
		 M397.679-99.442c0.457,4.129,2.922,6.58,6.57,8.158c1.785,0.773,3.625,0.57,5.465,0.66c7.223,0.354,15.188-5.607,14.711-14.627
		c-0.158-2.979-0.014-5.975-0.039-8.963c-0.006-0.75,0.176-1.555-0.266-2.381c-2.799,1.516-5.59,2.604-8.518,2.986
		c-2.754,0.359-5.404,1.02-8.041,1.783c-5.33,1.537-9.453,4.309-10.404,10.535C397.349-100.624,397.612-100.044,397.679-99.442z"/>
	<path fill="#244896" d="M175.714-109.349c-0.203,7.148,1.34,13.225,7.666,16.854c5.572,3.199,11.441,3.486,17.111,0.066
		c2.711-1.637,4.279-4.291,5.322-7.273c1.455-0.424,1.908,0.871,2.879,1.396c-0.961,4.537-3.693,7.666-7.537,9.344
		c-7.777,3.398-15.494,3.291-22.572-2.061c-2.963-2.244-4.711-5.479-5.68-8.891c-2.096-7.414-2.289-14.898,0.402-22.283
		c5.146-14.141,22.494-15.508,30.561-6.711c3.18,3.467,4.93,7.686,5.299,12.416c0.168,2.207,0.945,4.404,0.139,6.926
		c-2.691,0.477-5.451,0.146-8.186,0.203c-2.883,0.057-5.768,0.008-8.652,0.008c-2.779,0-5.561,0-8.342,0
		C181.38-109.349,178.628-109.349,175.714-109.349z M205.483-113.222c0.277-4.152-0.549-8.049-2.775-11.613
		c-2.457-3.949-6.006-5.898-10.682-6.1c-6.049-0.254-10.875,1.738-13.828,7.201c-1.76,3.25-2.732,6.76-2.445,10.512
		C178.526-112.786,202.688-112.786,205.483-113.222z"/>
	<path fill="#244896" d="M269.147-110.251c-0.066-5.135,0.932-9.586,3.178-13.676c3.615-6.604,9.182-10.43,16.801-10.41
		c7.621,0.021,13.207,3.801,16.805,10.477c1.869,3.467,2.641,7.164,2.928,11.135c0.443,6.117-0.543,11.775-3.844,16.916
		c-4.34,6.754-10.625,9.885-18.576,8.816c-7.148-0.965-11.932-5.271-14.842-11.828C269.894-102.632,269.03-106.552,269.147-110.251z
		 M304.354-117.339c-0.549-3.143-1.82-6.094-3.904-8.541c-3.193-3.756-7.322-5.285-12.281-5.029
		c-5.645,0.295-9.619,2.955-12.193,7.865c-1.828,3.494-2.543,7.213-2.561,11.17c-0.021,4.318,0.332,8.477,1.945,12.57
		c4.277,10.822,19.133,12.195,25.535,3.41c3.162-4.332,3.988-9.279,4.248-15.439C305.513-112.735,304.755-115.042,304.354-117.339z"
		/>
</g>
<g>
	<path fill="#6088A0" d="M134.56-10.61c-1.535,0.604-2.764,0.303-4.092,0.361c-1.148-2.533-2.301-5.078-3.547-7.816
		c-5.223,0-10.527,0-16.021,0c-1.652,2.25-2.518,5.072-3.869,7.719c-1.367,0-2.672,0-4.283,0
		c4.715-10.748,9.338-21.303,14.004-31.949c1.188,0,2.4,0,4.045,0C125.327-31.856,130.13-21.358,134.56-10.61z M119.003-21.997
		c1.99-0.041,4.004,0.193,6.189-0.197c-2.127-4.879-4.123-9.439-6.309-14.436c-2.66,4.846-4.371,9.594-6.566,14.646
		C114.923-21.987,116.966-21.954,119.003-21.997z"/>
	<path fill="#618AA0" d="M-160.056-26.03c-0.02-2.992,0.289-13.455,10.264-13.455c9.748,0,10.895,10.688,10.889,13.379
		c-0.004,2.928-0.912,13.014-10.889,13.014C-159.647-13.093-160.04-23.569-160.056-26.03z M-150.054-9.185
		c14.375,0,15.502-13.311,15.525-17.105c0.037-5.643-1.604-16.727-15.654-16.727c-14.377,0-14.873,13.889-14.873,16.91
		C-165.054-22.935-164.257-9.185-150.054-9.185z"/>
	<path fill="#6089A0" d="M-129.399-42.452c0,0,1.129,0,1.941-0.002c0.814-0.002,0.768,1.012,0.768,1.012v13.762
		c0,0,1.201-1.301,2.051-2.541c0.781-1.133,2.404-2.369,4.535-2.445c8.604-0.314,8.863,8.859,8.877,9.936
		c0.145,10.064-4.982,13.254-8.545,13.115c-3.561-0.137-6.256-4.738-6.256-4.738c-0.574,0.025-0.391,0.391-0.594,2.271
		c-0.053,0.479,0.047,1.252-0.105,1.9c-0.137,0.588-1.021,0.578-2.59,0.57c-0.787-0.004-0.764-1.236-0.764-1.236v-30.594
		C-130.075-42.55-129.399-42.452-129.399-42.452z M-126.37-22.724c0,0-0.395,4.514,0.896,6.326c1.291,1.816,4.533,5.824,8.566,2.383
		c1.797-1.539,2.066-6.223,1.973-8.072c-0.098-1.852-1.27-8.273-5.465-7.852C-125.161-29.462-126.267-24.507-126.37-22.724z"/>
	<path fill="#628A9F" d="M-92.45-25.792c0,0,1.719-0.791,1.959-1.172c0.242-0.393,0.232-0.791,0-1.297
		c-0.232-0.51-2.063-4.756-8.572-4.721c-6.506,0.043-7.813,4.246-7.805,5.414c0.006,1.164-0.658,4.945,3.496,6.523
		c4.152,1.578,5.395,1.455,7.309,2.115c1.912,0.66,2.803,1.393,2.691,3.652c-0.113,2.258-3.313,2.629-4.93,2.682
		c-1.617,0.051-5.674-0.623-6.945-4.586c0,0-1.92,0.84-2.123,1.068c-0.205,0.23-0.914,3.693,4.201,5.801
		c5.117,2.105,11.389,0.254,13.209-3.998c1.822-4.26-1.879-6.73-2.496-7.084c-1.025-0.59-2.842-1.752-6.035-2.035
		c-3.195-0.279-5.305-1.443-5.305-3.109s1.084-2.65,2.406-3.023c1.322-0.367,4.557-1.348,6.797,0.924
		C-92.351-26.358-92.45-25.792-92.45-25.792z"/>
	<path fill="#628A9F" d="M151.925-25.966c0,0,1.719-0.785,1.959-1.174c0.242-0.385,0.236-0.791,0-1.297
		c-0.234-0.508-2.061-4.754-8.568-4.717c-6.51,0.039-7.818,4.244-7.809,5.416c0.01,1.168-0.658,4.941,3.496,6.523
		c4.152,1.578,5.395,1.455,7.309,2.115s2.809,1.393,2.695,3.654c-0.111,2.258-3.311,2.625-4.934,2.676
		c-1.615,0.049-5.674-0.623-6.941-4.582c0,0-1.92,0.84-2.127,1.066c-0.203,0.227-0.914,3.689,4.199,5.797
		c5.119,2.107,11.389,0.26,13.211-3.994c1.822-4.258-1.879-6.732-2.496-7.082c-1.025-0.586-2.842-1.758-6.033-2.037
		c-3.197-0.275-5.307-1.441-5.307-3.107c0-1.664,1.086-2.65,2.406-3.023c1.324-0.369,4.557-1.348,6.797,0.926
		C152.026-26.53,151.925-25.966,151.925-25.966z"/>
	<path fill="#628A9F" d="M-75.323-30.052c5.346,0.275,5.467,6.656,5.467,6.656h-11.643C-81.485-24.237-80.671-30.329-75.323-30.052z
		 M-81.425-20.05h15.303c0,0,1.514-12.918-9.57-12.924c-8.992-0.006-9.535,10.123-9.65,12.674
		c-0.068,1.545,1.676,10.684,9.625,10.684c6.676,0,8.617-4.834,8.852-5.223c0.314-0.527,0.533-1.041,0.094-1.273
		c-0.439-0.229-1.551-0.885-1.957-0.857c-0.404,0.023-0.748,0.152-0.979,0.76c0,0-1.27,3.18-4.197,3.459
		C-76.831-12.468-80.956-12.946-81.425-20.05z"/>
	<path fill="#628A9F" d="M-59.698-10.905v-21.051c0,0-0.012-0.367,0.412-0.404c0.666-0.047,2.545,0,2.545,0s0.328,0,0.447,0.432
		c0.117,0.428,0.141,3.023,0.141,3.023s2.064-2.65,2.975-3.08c0.908-0.426,1.072-0.426,2.16-0.426c1.09,0,1.914-0.016,1.951,0.047
		s0.428,0.822,0.352,1.473c-0.076,0.652-0.107,1.297-0.4,1.379c-0.293,0.086-2.893,0.021-4.965,1.547
		c-2.072,1.527-2.082,2.877-2.076,4.123s0.006,12.941,0.006,12.941s0.102,0.576-0.463,0.672c-0.566,0.1-2.752,0.168-2.879-0.068
		C-59.614-10.538-59.71-10.573-59.698-10.905z"/>
	<path fill="#628A9F" d="M-44.843-31.87l6.857,21.373c0,0,0.104,0.324,0.732,0.324c0.861,0,2.621,0.055,2.801,0
		c0.342-0.117,0.463-0.174,0.627-0.715c0.168-0.531,6.59-21.113,6.59-21.113s0.088-0.418-0.578-0.457
		c-0.447-0.029-1.393,0.014-1.959,0.039c-0.277,0.02-0.506-0.041-0.689,0.396c-0.123,0.291-0.309,0.809-0.584,1.723l-5.014,14.516
		l-5.391-16.484c0,0-0.02-0.271-0.729-0.254c-0.709,0.027-2.463,0-2.463,0S-45.104-32.534-44.843-31.87z"/>
	<path fill="#628A9F" d="M-14.927-32.997c3.301-0.336,5.164,0.621,6.875,1.527c1.711,0.9,1.998,2.352,1.998,3.646
		c0.002,1.295,0.006,8.328-0.008,10.836c-0.014,2.506,0.328,3.871,1.207,4.281c0.879,0.418,0.645,1.008,0.666,1.369
		c0.027,0.359-0.07,1.506-1.602,1.732C-7.325-9.38-8.353-9.997-8.886-11.28c-0.535-1.279-1.037-1.957-1.037-1.957
		c-0.426,0.525-4.111,3.98-7.508,3.643c-3.396-0.35-6.016-3.008-6.035-7.393c-0.021-4.383,3.363-6.268,5.318-6.814
		s6.455-1.131,7.199-1.381c0.744-0.242,1.662-1.287,1.441-2.521c-0.225-1.234-1.512-2.355-4.439-2.367
		c-2.926-0.012-5.248,2.563-5.686,3.055c-0.438,0.49-0.574,0.359-0.574,0.359s-1.959-0.955-2.326-1.131
		c-0.367-0.18-0.123-0.49-0.123-0.49C-20.954-32.149-18.228-32.665-14.927-32.997z M-16.636-21.241
		c-2.232,0.584-3.553,2.402-3.387,5.367c0.168,2.971,3.465,3.152,4.43,3.15c3.719-0.01,5.387-2.689,5.719-4.184
		c0.334-1.488,0.115-6.117,0.115-6.117C-10.981-22.243-14.399-21.831-16.636-21.241z"/>
	<path fill="#628A9F" d="M3.825-29.325v17.627c0,0-0.227,0.707,1.887,1.553c2.111,0.846,5.123,0.539,6.148-0.539
		c0.293-0.313-0.021-1.828-0.846-1.914c0,0-3.512,0.219-3.553-0.768C7.446-13.7,7.489-29.323,7.489-29.323s3.381-0.07,3.67-0.162
		c0.293-0.094,0.664-0.152,0.721-1.199c0.033-0.602,0.049-1.225-0.188-1.434c-0.236-0.211-0.393-0.371-1.283-0.367s-2.973,0-2.973,0
		l0.008-7.525c0,0-0.293-0.625-0.908-0.217c-0.223,0.152-0.492,0.334-0.822,0.545c-1.242,0.809-1.893,1.195-1.893,1.916
		s0,5.293,0,5.293l-3.129-0.027c0,0-1.176-0.078-1.176,0.676c-0.002,1.037-0.014,1.629,0,1.859c0.014,0.229,0.354,0.645,1.014,0.645
		C2.304-29.325,3.825-29.325,3.825-29.325z"/>
	<path fill="#628A9F" d="M161.796-29.255v17.631c0,0-0.23,0.709,1.885,1.555c2.111,0.84,5.123,0.535,6.15-0.541
		c0.291-0.313-0.021-1.828-0.848-1.912c0,0-3.51,0.211-3.553-0.77c-0.014-0.33,0.029-15.957,0.029-15.957s3.377-0.066,3.672-0.162
		c0.289-0.09,0.658-0.154,0.717-1.201c0.035-0.598,0.049-1.223-0.191-1.434c-0.236-0.207-0.391-0.373-1.277-0.365
		c-0.893,0.006-2.975,0-2.975,0l0.006-7.525c0,0-0.293-0.627-0.91-0.211c-0.221,0.146-0.494,0.336-0.818,0.541
		c-1.244,0.807-1.893,1.195-1.893,1.914c0,0.727,0,5.295,0,5.295l-3.131-0.035c0,0-1.176-0.068-1.176,0.68
		c0,1.041-0.014,1.631,0,1.863c0.014,0.23,0.354,0.645,1.018,0.645C160.274-29.255,161.796-29.255,161.796-29.255z"/>
	<path fill="#61899F" d="M20.329-21.214c0.025-1.762,0.336-8.652,6.305-8.652c5.975,0,6.777,6.699,6.836,8.529
		c0.055,1.83-0.871,8.648-6.482,8.617C21.376-12.745,20.292-19.073,20.329-21.214z M27.021-9.54
		c8.74-0.346,10.225-8.838,10.223-12.168c-0.002-3.334-2.17-11.205-10.609-11.166c-8.438,0.043-9.85,8.441-9.807,11.166
		C16.876-18.612,18.28-9.19,27.021-9.54z"/>
	<path fill="#61899F" d="M72.302-21.214c0.027-1.762,0.332-8.652,6.307-8.652c5.973,0,6.777,6.699,6.836,8.529
		c0.057,1.83-0.869,8.648-6.482,8.617C73.343-12.743,72.265-19.073,72.302-21.214z M78.995-9.54
		c8.738-0.346,10.223-8.838,10.217-12.168c0-3.334-2.166-11.205-10.604-11.166c-8.441,0.043-9.854,8.441-9.811,11.166
		C68.849-18.612,70.253-9.19,78.995-9.54z"/>
	<path fill="#628A9F" d="M42.976-11.024v-21.055c0,0-0.012-0.371,0.412-0.402c0.67-0.053,2.549,0,2.549,0s0.328,0,0.443,0.428
		c0.117,0.434,0.141,3.027,0.141,3.027s2.068-2.65,2.979-3.078c0.908-0.43,1.074-0.43,2.158-0.43c1.086,0,1.914-0.014,1.951,0.049
		c0.039,0.059,0.426,0.816,0.352,1.473c-0.076,0.646-0.111,1.295-0.402,1.379c-0.293,0.082-2.893,0.016-4.965,1.543
		c-2.072,1.525-2.082,2.881-2.076,4.123c0.006,1.246,0.006,12.943,0.006,12.943s0.102,0.576-0.459,0.674
		c-0.564,0.1-2.754,0.168-2.881-0.078C43.063-10.663,42.968-10.685,42.976-11.024z"/>
	<path fill="#618AA0" d="M60.056-32.366c0,0-0.518-0.084-0.574,0.539c-0.055,0.621,0,21.174,0,21.174s-0.064,0.457,0.574,0.432
		c0.635-0.025,2.563,0,2.563,0s0.295-0.051,0.334-0.395c0.041-0.334-0.115-21.383-0.115-21.383s-0.016-0.379-0.488-0.375
		C61.876-32.366,60.056-32.366,60.056-32.366z"/>
	<path fill="#618AA0" d="M60.157-41.718c0,0-0.52-0.014-0.574,0.121c-0.059,0.141-0.029,4.521-0.029,4.521s-0.02,0.279,0.477,0.279
		c0.639,0,2.686,0,2.686,0s0.367,0,0.354-0.299c-0.002-0.082-0.014-4.299-0.014-4.299s-0.139-0.328-0.607-0.324
		C61.978-41.718,60.157-41.718,60.157-41.718z"/>
	<path fill="#61899F" d="M193.487-21.403c0.025-1.756,0.334-8.652,6.307-8.652c5.973-0.004,6.771,6.695,6.832,8.527
		c0.059,1.828-0.869,8.646-6.482,8.617C194.528-12.933,193.45-19.267,193.487-21.403z M200.181-9.733
		c8.738-0.346,10.217-8.84,10.215-12.174c0-3.328-2.166-11.203-10.607-11.162c-8.436,0.035-9.846,8.438-9.809,11.162
		C190.032-18.8,191.438-9.382,200.181-9.733z"/>
	<path fill="#61899F" d="M242.856-21.323c0.025-1.756,0.336-8.65,6.301-8.654c5.979-0.002,6.779,6.705,6.838,8.531
		s-0.869,8.65-6.482,8.621C243.897-12.851,242.819-19.185,242.856-21.323z M249.544-9.647c8.742-0.35,10.225-8.842,10.225-12.174
		c0-3.328-2.168-11.203-10.611-11.166c-8.436,0.041-9.848,8.443-9.801,11.166C239.403-18.722,240.808-9.304,249.544-9.647z"/>
	<path fill="#61899F" d="M338.192-21.259c0.027-1.758,0.336-8.652,6.303-8.652c5.979-0.002,6.783,6.699,6.838,8.529
		c0.059,1.826-0.867,8.646-6.482,8.619C339.235-12.792,338.157-19.122,338.192-21.259z M344.886-9.589
		c8.742-0.35,10.219-8.84,10.219-12.17c-0.002-3.332-2.168-11.207-10.604-11.168c-8.441,0.043-9.852,8.441-9.814,11.168
		C334.743-18.653,336.149-9.239,344.886-9.589z"/>
	<path fill="#61899F" d="M465.671-21.228c0.029-1.76,0.334-8.652,6.307-8.654c5.975,0,6.775,6.703,6.834,8.533
		c0.059,1.822-0.867,8.646-6.482,8.617C466.714-12.759,465.632-19.093,465.671-21.228z M472.364-9.558
		c8.738-0.35,10.227-8.84,10.221-12.17c-0.004-3.328-2.17-11.207-10.607-11.162c-8.439,0.037-9.852,8.441-9.809,11.162
		C462.218-18.628,463.624-9.208,472.364-9.558z"/>
	<path fill="#628A9F" d="M411.729-32.96c3.303-0.33,5.162,0.623,6.877,1.525c1.709,0.902,1.996,2.354,1.996,3.65
		c0.004,1.295,0.006,8.328-0.01,10.832c-0.014,2.508,0.328,3.873,1.205,4.283c0.881,0.414,0.645,1.01,0.666,1.371
		c0.025,0.357-0.068,1.498-1.602,1.727c-1.527,0.225-2.561-0.393-3.094-1.67c-0.535-1.281-1.033-1.959-1.033-1.959
		c-0.432,0.525-4.111,3.984-7.514,3.639c-3.402-0.342-6.016-3.004-6.035-7.389c-0.023-4.387,3.361-6.268,5.318-6.816
		c1.959-0.551,6.459-1.135,7.201-1.379c0.74-0.244,1.662-1.293,1.438-2.525c-0.221-1.234-1.508-2.357-4.438-2.371
		c-2.926-0.004-5.248,2.57-5.688,3.059c-0.441,0.49-0.576,0.359-0.576,0.359s-1.963-0.953-2.326-1.131
		c-0.371-0.18-0.125-0.49-0.125-0.49C405.704-32.114,408.429-32.63,411.729-32.96z M410.028-21.21
		c-2.238,0.59-3.561,2.406-3.393,5.373c0.166,2.965,3.469,3.148,4.432,3.145c3.721-0.01,5.389-2.688,5.717-4.18
		c0.336-1.49,0.119-6.119,0.119-6.119C415.677-22.206,412.261-21.794,410.028-21.21z"/>
	<path fill="#628A9F" d="M520.376-32.907c3.299-0.334,5.16,0.621,6.875,1.527c1.713,0.9,2,2.35,2,3.646s0.004,8.328-0.01,10.836
		c-0.02,2.506,0.324,3.869,1.201,4.285c0.881,0.408,0.641,1.006,0.666,1.365c0.027,0.359-0.072,1.506-1.602,1.73
		c-1.531,0.225-2.557-0.391-3.096-1.676c-0.535-1.277-1.035-1.951-1.035-1.951c-0.43,0.527-4.113,3.98-7.514,3.635
		c-3.398-0.344-6.01-3.004-6.033-7.389c-0.021-4.385,3.361-6.268,5.322-6.814c1.955-0.549,6.457-1.133,7.197-1.381
		c0.746-0.246,1.668-1.287,1.447-2.523c-0.227-1.234-1.514-2.357-4.443-2.367c-2.928-0.01-5.25,2.564-5.691,3.055
		c-0.434,0.49-0.574,0.361-0.574,0.361s-1.959-0.955-2.328-1.135c-0.367-0.18-0.123-0.488-0.123-0.488
		C514.351-32.06,517.077-32.575,520.376-32.907z M518.669-21.153c-2.234,0.59-3.555,2.404-3.389,5.369
		c0.166,2.967,3.465,3.152,4.432,3.15c3.717-0.01,5.389-2.691,5.721-4.184c0.33-1.49,0.111-6.117,0.111-6.117
		C524.321-22.151,520.909-21.741,518.669-21.153z"/>
	<path fill="#618AA0" d="M303.298-32.46c0,0-0.521-0.084-0.574,0.543c-0.055,0.621,0,21.174,0,21.174s-0.059,0.453,0.574,0.432
		c0.637-0.025,2.564,0,2.564,0s0.293-0.051,0.334-0.396c0.037-0.334-0.113-21.381-0.113-21.381s-0.021-0.379-0.49-0.375
		C305.118-32.46,303.298-32.46,303.298-32.46z"/>
	<path fill="#618AA0" d="M303.397-41.974c0,0-0.523-0.018-0.576,0.119c-0.055,0.146-0.021,4.525-0.021,4.525
		s-0.023,0.279,0.471,0.279c0.637,0,2.691,0,2.691,0s0.361,0,0.346-0.301c-0.002-0.08-0.014-4.303-0.014-4.303
		s-0.139-0.322-0.611-0.32C305.22-41.974,303.397-41.974,303.397-41.974z"/>
	<path fill="#618AA0" d="M452.478-32.351c0,0-0.518-0.086-0.576,0.539c-0.057,0.625,0,21.174,0,21.174s-0.064,0.459,0.576,0.434
		c0.637-0.031,2.563,0,2.563,0s0.293-0.057,0.332-0.396c0.045-0.336-0.113-21.377-0.113-21.377s-0.018-0.383-0.49-0.377
		C454.296-32.351,452.478-32.351,452.478-32.351z"/>
	<path fill="#618AA0" d="M452.577-41.698c0,0-0.52-0.023-0.574,0.119c-0.059,0.141-0.027,4.525-0.027,4.525
		s-0.018,0.273,0.477,0.273c0.633,0,2.684,0,2.684,0s0.371,0,0.354-0.299c-0.006-0.082-0.014-4.299-0.014-4.299
		s-0.143-0.32-0.613-0.32C454.401-41.698,452.577-41.698,452.577-41.698z"/>
	<path fill="#618AA0" d="M538.001-42.905c0,0-0.543-0.125-0.605,0.797c-0.059,0.926,0,31.291,0,31.291s-0.064,0.676,0.605,0.639
		c0.674-0.043,2.705,0,2.705,0s0.313-0.082,0.35-0.588c0.045-0.498-0.117-31.586-0.117-31.586s-0.023-0.563-0.52-0.555
		C539.929-42.905,538.001-42.905,538.001-42.905z"/>
	<path fill="#628A9F" d="M176.03-10.94v-21.055c0,0-0.01-0.369,0.412-0.402c0.672-0.053,2.549,0,2.549,0s0.326,0,0.443,0.428
		c0.119,0.432,0.143,3.025,0.143,3.025s2.066-2.646,2.977-3.078s1.076-0.432,2.16-0.432s1.91-0.014,1.949,0.047
		c0.043,0.061,0.426,0.82,0.352,1.475c-0.072,0.648-0.109,1.295-0.4,1.381c-0.291,0.08-2.895,0.018-4.967,1.541
		c-2.07,1.527-2.084,2.883-2.078,4.123c0.008,1.252,0.01,12.947,0.01,12.947s0.102,0.574-0.463,0.674
		c-0.563,0.098-2.752,0.166-2.877-0.076C176.118-10.577,176.024-10.608,176.03-10.94z"/>
	<path fill="#61899F" d="M215.97-31.47v20.492c0,0-0.057,0.727,0.49,0.77c0.648,0.045,2.398,0.025,2.74,0.029
		c0.498,0.002,0.488-0.395,0.488-1.33c0-1.004-0.016-11.885-0.016-11.885s-0.051-5.131,4.59-6.244
		c4.164-0.998,5.938,3.396,5.936,5.852c-0.002,2.449,0,12.867,0,12.867s-0.1,0.654,0.486,0.711c0.582,0.055,2.42-0.086,2.42-0.086
		s0.42-0.023,0.461-0.459c0.041-0.438,0.049-15.031,0.004-16.041c-0.129-2.803-3.01-6.084-7.09-6.076
		c-2.783,0.01-5.896,2.523-6.684,4.072c0,0-0.008-2.389,0-2.752c0.01-0.361-0.178-1.008-1.002-1.008
		c-1.184,0.004-1.807-0.045-2.188,0.018C216.233-32.478,215.956-32.22,215.97-31.47z"/>
	<path fill="#618AA0" d="M248.06-34.942h2.51c0,0,0.219-0.107,0.754-0.814c0.539-0.713,3.275-4.322,3.275-4.322
		s0.426-0.398-0.42-0.729c-0.838-0.334-1.287-0.734-2.932-0.295c-0.6,0.164-1.199,1.156-1.807,2.156
		c-0.605,1-1.432,2.643-1.58,3.289C247.712-35.024,247.866-34.942,248.06-34.942z"/>
	<path fill="#61899F" d="M266.358-32.63c-0.785-0.014-0.715,0.467-0.715,0.84c0,0.379,0,21.01,0,21.01s-0.004,0.576,0.545,0.553
		c0.543-0.021,2.754,0,2.754,0s0.219-0.066,0.219-0.697c0-0.627,0-12.344,0-12.344s-0.221-5.529,3.43-6.252
		c3.664-0.723,5.836,0.029,5.844,4.789c0.004,4.762,0,13.826,0,13.826s-0.117,0.656,0.449,0.678c0.727,0.027,2.164,0,2.924,0.023
		c0.275,0.004,0.266-0.51,0.266-0.91c0.004-0.834,0-12,0-12.365c0-2.09,0.473-4.588,2.65-5.662c2.174-1.076,6.801-1.295,6.801,3.605
		c0,4.896,0,14.336,0,14.336s-0.158,0.979,0.256,0.992c0.424,0.012,3.18,0,3.18,0s0.256-0.199,0.217-0.742
		c-0.045-0.539,0.004-14.285,0.004-14.285s0.025-4.359-2.877-6.4c-0.775-0.547-7.217-3.594-10.809,2.645
		c0,0-1.219-3.402-4.813-3.818c-3.594-0.412-6.658,1.613-7.48,3.752c0,0-0.041-2.398-0.018-2.84
		c0.025-0.436-0.127-0.707-0.541-0.732C268.021-32.669,266.358-32.63,266.358-32.63z"/>
	<path fill="#61899F" d="M488.341-31.196v20.498c0,0-0.057,0.725,0.488,0.764c0.656,0.049,2.4,0.027,2.746,0.027
		c0.494,0,0.488-0.387,0.488-1.324c0-1.008-0.016-11.885-0.016-11.885s-0.051-5.133,4.584-6.248c4.17-0.996,5.943,3.4,5.941,5.85
		c-0.006,2.455,0,12.875,0,12.875s-0.104,0.646,0.482,0.709c0.588,0.059,2.426-0.086,2.426-0.086s0.424-0.025,0.459-0.461
		c0.045-0.438,0.049-15.031,0.002-16.045c-0.127-2.797-3.01-6.082-7.092-6.07c-2.783,0.008-5.896,2.521-6.678,4.074
		c0,0-0.01-2.395,0-2.758c0.004-0.357-0.186-1.004-1.004-1.004c-1.189,0.002-1.811-0.049-2.189,0.02
		C488.604-32.202,488.331-31.946,488.341-31.196z"/>
	<path fill="#618AA0" d="M312.329-21.554c-0.137,3.965,1.139,10.658,8.951,11.717c7.816,1.066,9.672-4.762,9.729-4.9
		c0.047-0.139,0.1-0.379-0.248-0.891c-0.57-0.836-1.211-1.34-1.732-1.377c-0.516-0.043-0.641,0.232-0.977,1.006
		c-0.123,0.283-0.703,3.43-5.51,3.262c-4.809-0.166-6.561-5.85-6.459-8.816c0.105-2.967,1.766-8.443,5.652-8.502
		c3.885-0.063,5.125,2.588,5.586,3.252c0.463,0.666,0.707,1.219,1.281,1.008c0.574-0.221,1.811-0.783,2.025-1.098
		c0.221-0.316,0.201-0.525-0.314-1.531c-0.518-1.006-2.139-4.627-8.025-4.643C316.397-33.083,312.521-27.274,312.329-21.554z"/>
	<path fill="#618AA0" d="M426.743-21.417c-0.135,3.969,1.137,10.656,8.953,11.721c7.818,1.063,9.672-4.762,9.725-4.906
		c0.051-0.137,0.107-0.377-0.242-0.895c-0.568-0.83-1.207-1.334-1.729-1.375c-0.521-0.039-0.643,0.234-0.98,1.008
		c-0.125,0.283-0.705,3.422-5.512,3.256c-4.811-0.166-6.557-5.848-6.455-8.813c0.1-2.965,1.762-8.441,5.654-8.504
		c3.887-0.059,5.113,2.588,5.576,3.252c0.465,0.67,0.705,1.223,1.281,1.004c0.574-0.215,1.818-0.777,2.029-1.094
		c0.219-0.314,0.201-0.525-0.318-1.527c-0.514-1.01-2.137-4.627-8.023-4.645C430.813-32.95,426.937-27.14,426.743-21.417z"/>
	<path fill="#618AA0" d="M372.774-40.761c0.008,0.75,0,29.486,0,29.486s-0.137,1.096,1.441,1.084
		c2.238-0.014,1.965-0.137,1.965-0.137s0.746-0.205,0.746-1.037c0-0.834,0-23.391,0-23.391s-0.113-0.711,0.029-0.938
		c0.172-0.27,0.627-0.051,0.916,0.463c0.535,0.955,13.766,24.379,13.766,24.379s0.184,0.674,1.605,0.66
		c1.424-0.014,3.34-0.006,3.34-0.006s0.695-0.23,0.736-0.857c0.043-0.66-0.021-29.355-0.004-30.094
		c0.02-0.73-0.061-1.105-1.23-1.105c-1.168,0-2.35-0.039-2.35-0.039s-0.639,0-0.639,0.813c0,1.924,0,24.658,0,24.658L378.96-41.462
		c0,0-0.498-0.818-1.496-0.805c-1.006,0.014-3.75,0.006-3.75,0.006S372.771-42.351,372.774-40.761z"/>
</g>
</svg>
