<?xml version="1.0" encoding="UTF-8" standalone="no"?>
<!-- Created with Inkscape (http://www.inkscape.org/) -->

<svg
   xmlns:dc="http://purl.org/dc/elements/1.1/"
   xmlns:cc="http://creativecommons.org/ns#"
   xmlns:rdf="http://www.w3.org/1999/02/22-rdf-syntax-ns#"
   xmlns:svg="http://www.w3.org/2000/svg"
   xmlns="http://www.w3.org/2000/svg"
   xmlns:sodipodi="http://sodipodi.sourceforge.net/DTD/sodipodi-0.dtd"
   xmlns:inkscape="http://www.inkscape.org/namespaces/inkscape"
   width="1500"
   height="1500"
   id="svg2"
   version="1.1"
   inkscape:version="0.91 r13725"
   sodipodi:docname="comfeli.svg">
  <defs
     id="defs4" />
  <sodipodi:namedview
     id="base"
     pagecolor="#ffffff"
     bordercolor="#666666"
     borderopacity="1.0"
     inkscape:pageopacity="0.0"
     inkscape:pageshadow="2"
     inkscape:zoom="0.24748737"
     inkscape:cx="70.11263"
     inkscape:cy="798.90786"
     inkscape:document-units="px"
     inkscape:current-layer="layer1"
     showgrid="false"
     inkscape:window-width="1366"
     inkscape:window-height="719"
     inkscape:window-x="0"
     inkscape:window-y="0"
     inkscape:window-maximized="1"
     fit-margin-top="100"
     fit-margin-left="100"
     fit-margin-right="100"
     fit-margin-bottom="100" />
  <metadata
     id="metadata7">
    <rdf:RDF>
      <cc:Work
         rdf:about="">
        <dc:format>image/svg+xml</dc:format>
        <dc:type
           rdf:resource="http://purl.org/dc/dcmitype/StillImage" />
        <dc:title></dc:title>
      </cc:Work>
    </rdf:RDF>
  </metadata>
  <g
     inkscape:label="Layer 1"
     inkscape:groupmode="layer"
     id="layer1"
     transform="translate(-40.753025,484.40529)">
    <g
       id="g8272">
      <g
         transform="matrix(0.9860592,0,0,0.9860592,5.9464886,-241.76652)"
         id="g8074">
        <circle
           r="80"
           cy="534.50507"
           cx="382.14285"
           style="fill:#ffdd55;stroke:none"
           id="path2996"
           transform="matrix(2.7172593,0,0,2.7172593,-684.28806,-1042.0205)" />
        <g
           id="g8071">
          <path
             sodipodi:nodetypes="ccccccccccccc"
             inkscape:connector-curvature="0"
             id="path2998"
             d="m 339.53644,622.89676 c 0,0 98.01543,-21.34989 98.98587,-279.48953 -0.97044,0.97044 26.20215,7.76359 35.90665,-14.55674 -1.94091,0.97045 69.87237,-0.97046 81.51778,145.56747 -3.88179,-7.76362 32.02483,-123.24714 -39.78844,-191.17862 -2.91136,0 -44.64069,0.97047 -45.61113,8.73406 3.88179,-1.94091 -20.37945,-35.90665 -44.64071,-27.17259 1.94091,-2.91136 -14.55674,-53.37475 -14.55674,-53.37475 0,0 -98.98587,-43.67024 -207.67625,48.52248 4.85224,3.88182 114.51308,-16.49762 183.41501,23.2908 0.97044,1.94091 -11.64539,18.43859 4.85224,34.93621 -181.35266,106.15718 -230.20363,193.58864 -211.55804,212.52848 0,0 48.52248,80.54734 159.15376,92.19273 z"
             style="fill:#ffffff;stroke:none" />
        </g>
      </g>
      <g
         id="g8263">
        <line
           style="fill:#000000;fill-opacity:0;stroke:#b3b3b3;stroke-width:5.35528851;stroke-miterlimit:3.86400008;stroke-opacity:1"
           stroke-miterlimit="3.864"
           x1="1416.0114"
           y1="460.28577"
           x2="1416.0114"
           y2="-29.523827"
           id="line5664" />
        <line
           style="fill:#000000;fill-opacity:0;stroke:#b3b3b3;stroke-width:5.35528851;stroke-miterlimit:3.86400008;stroke-opacity:1"
           stroke-miterlimit="3.864"
           x1="610.21014"
           y1="460.28577"
           x2="610.21014"
           y2="-29.627144"
           id="line5666" />
        <path
           inkscape:connector-curvature="0"
           style="clip-rule:evenodd;fill:#b3b3b3;fill-rule:evenodd"
           d="m 675.33641,119.17762 c 0,-35.00854 17.34936,-47.82139 48.57378,-45.35767 l 0,-61.13585 C 651.0532,4.30447 610.91067,53.10694 609.92221,119.17762 l 0,252.91565 65.4142,0 0,-195.2246 46.0953,0 0,-57.69105 -46.0953,0"
           id="path5668" />
        <path
           inkscape:connector-curvature="0"
           style="clip-rule:evenodd;fill:#ffdd55;fill-opacity:1;fill-rule:evenodd"
           d="m 836.37126,372.0859 51.04488,0 0,-63.10536 -45.5937,0 c -41.13837,0 -67.40583,-28.09682 -67.40583,-64.08642 0,-35.9896 26.26746,-64.0938 67.40583,-64.0938 l 45.5937,0 0,-62.61852 -51.04488,0 c -77.81396,0 -127.3762,55.71417 -127.3762,126.71232 0,70.99814 49.56224,127.19178 127.3762,127.19178"
           id="path5670" />
        <path
           inkscape:connector-curvature="0"
           style="clip-rule:evenodd;fill:#b3b3b3;fill-rule:evenodd"
           d="m 1415.2218,225.31708 c 0,-66.5354 -42.1194,-113.35362 -113.4568,-113.35362 -33.1939,0 -61.9325,13.80131 -81.2588,35.97486 -18.3304,-22.17355 -46.5674,-35.97486 -81.2587,-35.97486 -69.8548,0 -114.9396,48.78771 -114.9396,113.35362 l 0,146.87208 65.3995,0 0,-148.34737 c 0,-28.58368 20.3147,-48.30088 49.5401,-48.30088 43.1152,0 47.5706,34.00535 47.5706,48.30088 l 0,148.34737 65.3994,0 0,-148.34737 c 0,-28.58368 20.8015,-48.30088 49.5401,-48.30088 43.1078,0 48.0574,34.00535 48.0574,48.30088 l 0,148.34737 65.3995,0 0,-146.87208"
           id="path5672" />
        <circle
           style="opacity:1;fill:#ffdd55;fill-opacity:1;stroke:none;stroke-width:5;stroke-linecap:round;stroke-linejoin:round;stroke-miterlimit:4;stroke-dasharray:none;stroke-dashoffset:1.29999995;stroke-opacity:1"
           id="path6470"
           cx="960.17029"
           cy="335.98126"
           r="39.39595" />
        <circle
           style="opacity:1;fill:#ffdd55;fill-opacity:1;stroke:none;stroke-width:5;stroke-linecap:round;stroke-linejoin:round;stroke-miterlimit:4;stroke-dasharray:none;stroke-dashoffset:1.29999995;stroke-opacity:1"
           id="path6470-6"
           cx="960.17029"
           cy="147.2655"
           r="39.39595" />
      </g>
      <g
         transform="matrix(1.2576519,0,0,1.2576519,-300.79088,-382.03671)"
         id="g8156">
        <g
           id="g8134"
           style="fill:#999999">
          <path
             d="m 706.21113,716.31502 q 0.5396,1.07919 0.10792,2.26631 -0.43168,1.07919 -1.51087,1.61879 -1.0792,0.43168 -2.26631,0 l -2.26631,-0.86336 q -2.26631,-0.86335 -3.34551,-1.18711 -0.97127,-0.32376 -3.66926,-0.97128 -2.59007,-0.53959 -6.25933,-0.64751 -3.66926,-0.10792 -5.07221,0 -1.29504,0.21584 -4.10094,1.29503 -2.59007,0.97128 -5.28806,3.23758 -2.91382,2.37423 -4.64053,4.9643 -1.83464,2.59007 -2.59007,4.10094 -0.64752,1.40295 -2.05047,5.93557 -1.29503,4.4247 -1.61879,6.25933 -0.32376,1.94255 -0.5396,5.93557 -0.10792,3.8851 0.10792,6.69101 0.21584,2.59007 1.07919,6.04349 0.86336,3.23758 1.51088,4.53262 0.64751,1.29503 3.23758,4.20886 2.37423,2.8059 4.85638,4.20886 2.48214,1.40295 3.77718,1.83463 1.51087,0.43167 3.77718,0.75543 2.26631,0.43168 5.18013,0.32376 3.12967,0 5.5039,-0.32376 2.26631,-0.32376 3.3455,-0.64751 0.86336,-0.32376 1.61879,-0.75544 l 1.0792,-0.5396 q 0.97127,-0.64751 2.15839,-0.32376 1.18711,0.21584 1.83463,1.29504 0.64751,0.97127 0.32376,2.15839 -0.32376,1.18711 -1.29504,1.83463 l -1.07919,0.64752 q -1.40296,0.75543 -3.02175,1.29503 -1.40295,0.43168 -4.20886,0.75544 -2.69798,0.43167 -6.15141,0.43167 -3.45342,0.10792 -6.25933,-0.32376 -2.69798,-0.53959 -4.42469,-1.07919 -1.94255,-0.5396 -5.07222,-2.26631 -3.23758,-1.83463 -6.36725,-5.50389 -3.02174,-3.45342 -3.99302,-5.28806 -0.97127,-1.83463 -1.94255,-5.82765 -1.07919,-3.8851 -1.29503,-7.12268 -0.21584,-3.12967 0,-7.33853 0.21584,-4.20886 0.53959,-6.47516 0.32376,-2.26631 1.83464,-7.12269 1.51087,-4.9643 2.37422,-6.79893 0.86336,-1.83463 3.02175,-4.85637 2.15839,-3.23759 5.61181,-6.04349 3.56134,-2.91383 7.01477,-4.20886 3.3455,-1.29504 5.28805,-1.61879 1.94255,-0.32376 6.15141,-0.10792 4.20886,0.10792 7.23061,0.86335 3.02174,0.5396 4.31677,0.97128 1.18712,0.43167 3.56135,1.29503 l 2.26631,0.97128 q 1.18711,0.32375 1.61879,1.51087 z"
             style="font-style:normal;font-variant:normal;font-weight:500;font-stretch:normal;font-size:medium;line-height:125%;font-family:'Dudu Calligraphy';-inkscape-font-specification:'Dudu Calligraphy Medium';letter-spacing:0px;word-spacing:0px;fill:#999999;fill-opacity:1;stroke:none;stroke-width:1px;stroke-linecap:butt;stroke-linejoin:miter;stroke-opacity:1"
             id="path8080"
             inkscape:connector-curvature="0" />
          <path
             d="m 746.68936,779.12415 q -0.75543,1.0792 -2.05047,1.18711 l -1.72671,0.21584 q -2.15839,0.32376 -5.39597,-0.32375 -3.23759,-0.5396 -5.93557,-1.94256 -2.48215,-1.29503 -4.10094,-2.59006 -1.72671,-1.40296 -4.20886,-4.85638 -2.48215,-3.3455 -3.45343,-5.39597 -0.97127,-2.15839 -1.51087,-7.55437 -0.64751,-5.28805 -0.32376,-7.66228 0.43168,-2.15839 1.72672,-5.82765 1.40295,-3.66926 2.91382,-6.25933 1.61879,-2.59007 3.02175,-4.10094 1.51087,-1.51087 4.53261,-3.56134 3.23759,-2.05047 7.77021,-2.80591 4.42469,-0.75543 6.47516,-0.53959 1.94255,0.32375 5.61182,1.83463 3.56134,1.51087 5.28805,2.69798 1.72671,1.18712 3.56134,3.45343 1.94255,2.15839 2.80591,3.99302 0.97128,1.94255 1.83463,6.04349 0.86336,3.99302 0.75544,7.33852 0,3.12967 -0.32376,5.28806 -0.21584,2.15838 -1.40295,5.93557 -1.18712,3.8851 -2.69799,6.36725 -1.61879,2.59006 -4.31678,4.85637 -2.69799,2.26631 -4.31678,3.02175 -1.51087,0.64751 -4.53262,1.18711 z m -12.95033,-6.25933 q 1.29503,-0.97127 2.8059,-0.43168 l 1.61879,0.64752 q 1.29504,0.43168 2.91383,0.64752 1.51087,0.10792 4.10094,-0.21584 2.69799,-0.43168 3.56134,-0.86336 0.97128,-0.43168 3.02175,-2.15839 2.05047,-1.61879 3.12966,-3.45342 1.0792,-1.83463 2.05047,-5.07222 1.0792,-3.3455 1.29504,-4.96429 0.21584,-1.72671 0.21584,-4.64054 0,-2.69799 -0.64752,-6.04349 -0.64752,-3.3455 -1.29503,-4.53262 -0.64752,-1.29503 -2.05047,-2.91382 -1.40296,-1.72671 -2.59007,-2.48215 -1.0792,-0.86336 -4.10094,-2.05047 -2.91383,-1.18711 -4.20886,-1.40295 -1.18712,-0.10792 -4.64054,0.43167 -3.23758,0.5396 -5.50389,2.05047 -2.48215,1.6188 -3.45342,2.59007 -0.97128,1.0792 -2.26631,3.23759 -1.29504,2.05047 -2.48215,5.18013 -1.18712,3.12967 -1.40295,4.74846 -0.21584,1.51087 0.21583,6.04349 0.5396,4.4247 1.18712,5.82765 0.64752,1.51087 2.69799,4.31678 2.05047,2.8059 3.23758,3.77718 0.97127,0.86336 2.59007,1.72671 z"
             style="font-style:normal;font-variant:normal;font-weight:500;font-stretch:normal;font-size:medium;line-height:125%;font-family:'Dudu Calligraphy';-inkscape-font-specification:'Dudu Calligraphy Medium';letter-spacing:0px;word-spacing:0px;fill:#999999;fill-opacity:1;stroke:none;stroke-width:1px;stroke-linecap:butt;stroke-linejoin:miter;stroke-opacity:1"
             id="path8082"
             inkscape:connector-curvature="0" />
          <path
             d="m 775.9524,729.58911 q 0.64752,-1.07919 1.72671,-1.40295 1.18712,-0.32376 2.26631,0.32376 1.0792,0.5396 1.40296,1.61879 l 0.43167,1.51087 q 0.5396,1.94255 0.32376,4.53262 -0.10792,2.15839 -0.10792,6.69101 -0.10792,4.4247 -0.10792,6.04349 0.10792,1.61879 0.21584,3.45342 0,0.64752 0.10792,1.61879 0.43168,-1.18711 0.97128,-2.8059 1.40295,-4.20886 3.12966,-7.23061 1.72671,-3.12966 2.80591,-4.4247 0.97127,-1.29503 3.23758,-3.56134 2.48215,-2.48215 4.64054,-3.77718 2.15839,-1.40295 4.20886,-1.94255 2.15839,-0.64752 3.77718,-0.5396 1.72671,0.10792 3.66926,1.0792 1.83463,0.97127 2.69799,2.15839 0.75544,1.07919 2.05047,4.31678 1.07919,3.02174 1.40295,4.74845 0.32376,1.72671 0.86336,4.9643 0.21584,1.18711 0.43168,2.26631 0.64751,-1.83463 2.26631,-4.9643 1.83463,-3.66926 2.8059,-4.96429 0.97128,-1.40296 2.59007,-3.23759 1.83463,-1.94255 3.23758,-2.8059 1.40296,-1.0792 3.34551,-1.6188 2.59006,-0.64751 5.28805,0.75544 2.59007,1.29503 3.99302,3.77718 0.97128,2.05047 1.40295,3.56134 0.32376,1.40296 0.97128,5.5039 0.75544,4.20886 0.86336,6.15141 0.21583,1.94255 0.64751,5.71973 0.32376,3.77718 0.5396,6.36725 0.21584,2.59006 0.21584,5.18013 0.10792,2.48215 0.21584,4.31678 0.10792,1.83463 0.21584,2.69799 l 0.10792,0.86335 q 0.10792,1.18712 -0.64752,2.15839 -0.75544,0.86336 -1.94255,0.97128 -1.18712,0.10792 -2.15839,-0.64752 -0.86336,-0.75544 -1.0792,-1.94255 l 0,-0.75544 q -0.10791,-0.97127 -0.32375,-2.91382 -0.10792,-1.94255 -0.21584,-4.64054 0,-2.48215 -0.21584,-4.96429 -0.21584,-2.48215 -0.5396,-6.15141 -0.32376,-3.66927 -0.5396,-5.61182 -0.21584,-1.83463 -0.86335,-5.82765 -0.64752,-3.99302 -0.97128,-5.07221 -0.21584,-0.86336 -0.86335,-2.26631 -0.43168,-0.86336 -1.40296,-1.29504 -0.75543,-0.43167 -1.07919,-0.32375 -0.97128,0.21583 -1.61879,0.75543 -0.97128,0.64752 -2.26631,2.05047 -1.51087,1.51087 -2.26631,2.59007 -0.64752,0.97127 -2.37423,4.31678 -1.61879,3.23758 -2.05047,4.64054 -0.43168,1.51087 -1.18711,4.53261 -0.64752,3.02175 -1.0792,6.25933 -0.5396,3.66926 -0.64752,4.4247 -0.21583,1.18712 -0.64751,3.02175 -0.43168,1.83463 -0.64752,2.69798 -0.10792,0 -0.21584,0.10792 -0.10792,0.10792 -0.5396,0.32376 -0.32375,0.10792 -0.75543,0.32376 -0.32376,0.10792 -0.86336,0.32376 -0.53959,0.10792 -0.97127,0.21584 -0.43168,0 -0.86336,0 -0.43168,0 -0.86335,-0.10792 -0.32376,-0.21584 -0.5396,-0.5396 -0.21584,-0.32376 -0.21584,-0.86336 0,-0.86335 -0.10792,-0.86335 0,-0.10792 0.10792,-0.32376 0.10792,-0.21584 0.21584,-0.64752 0.21584,-0.97127 0.32376,-2.26631 0.10792,-1.40295 0.10792,-3.77718 -0.10792,-2.37423 -0.43168,-5.28805 -0.43168,-3.02175 -0.75544,-5.61181 -0.32376,-2.48215 -0.86335,-5.61182 -0.5396,-3.23758 -0.86336,-4.64053 -0.21584,-1.29504 -1.18711,-3.99302 -0.75544,-2.15839 -1.18712,-2.80591 -0.21584,-0.21584 -0.86335,-0.64752 -0.64752,-0.32376 -1.18712,-0.32376 -0.53959,-0.10792 -1.72671,0.32376 -1.40295,0.32376 -2.91382,1.29504 -1.51088,0.97127 -3.45343,2.91382 -2.15839,2.05047 -2.91382,3.12967 -0.75544,0.86335 -2.26631,3.56134 -1.40296,2.59007 -2.69799,6.36725 -1.40295,3.8851 -1.83463,5.50389 -0.32376,1.40295 -0.97128,5.28806 -0.53959,3.8851 -0.75543,5.39597 -0.10792,1.51087 -0.21584,3.8851 -0.10792,2.37423 -0.10792,3.3455 0,0.21584 0,0.5396 0.10792,0.21584 0.21584,0.97128 0.10792,0.75543 -0.32376,1.18711 -0.32376,0.32376 -1.07919,0.64752 -0.75544,0.43167 -2.37423,0 -2.15839,-0.43168 -2.80591,-1.29504 -0.5396,-0.86335 0,-1.51087 l 0.43168,-0.64752 q -0.10792,-1.29503 -0.21584,-2.26631 -0.10792,-1.07919 -0.43168,-4.10093 -0.32376,-3.02175 -0.5396,-4.64054 -0.21583,-1.72671 -0.75543,-6.25933 -0.5396,-4.53262 -0.64752,-6.47517 -0.10792,-1.83463 -0.21584,-3.56134 0,-1.72671 0.10792,-6.36725 0,-4.64054 0.10792,-6.90685 0.10792,-1.61879 -0.10792,-2.69798 l -0.43168,-1.40296 q -0.32375,-1.18711 0.21584,-2.15839 z"
             style="font-style:normal;font-variant:normal;font-weight:500;font-stretch:normal;font-size:medium;line-height:125%;font-family:'Dudu Calligraphy';-inkscape-font-specification:'Dudu Calligraphy Medium';letter-spacing:0px;word-spacing:0px;fill:#999999;fill-opacity:1;stroke:none;stroke-width:1px;stroke-linecap:butt;stroke-linejoin:miter;stroke-opacity:1"
             id="path8084"
             inkscape:connector-curvature="0" />
          <path
             d="m 859.27635,730.12871 q 0.97128,-0.75544 2.15839,-0.5396 1.18712,0.21584 1.83463,1.18712 0.75544,0.97127 0.5396,2.15839 l -0.10792,0.75543 q -0.10792,0.86336 -0.64752,3.66927 -0.53959,2.59006 -0.97127,6.90684 -0.43168,4.10094 0.43168,8.74148 0.86335,4.64054 1.61879,6.36725 0.75544,1.72671 1.72671,3.45342 0.97128,1.51087 4.20886,4.85638 3.23758,3.23758 4.4247,4.10094 1.29503,0.75543 2.48215,1.29503 0.75543,0.21584 3.23758,-0.21584 2.69799,-0.5396 3.3455,-0.97127 0.75544,-0.5396 2.26631,-2.59007 1.51088,-2.15839 2.26631,-4.4247 0.64752,-2.48215 1.0792,-6.47517 0.32375,-3.99302 0.21584,-5.93557 0,-1.94255 -0.10792,-3.77718 -0.21584,-1.72671 -0.75544,-4.4247 l -0.64752,-2.91382 q -0.21584,-1.18712 0.43168,-2.15839 0.64752,-1.0792 1.72671,-1.29504 1.18712,-0.32376 2.15839,0.32376 1.0792,0.64752 1.40295,1.83463 l 0.64752,2.91383 q 0.64752,3.12966 0.75544,5.28805 0.21584,1.94255 0.21584,4.10094 0.10792,2.15839 -0.32376,6.58309 -0.32376,4.53262 -1.29504,7.55436 -0.97127,3.23759 -3.02174,6.15141 -2.05047,2.91383 -3.56134,3.99302 -1.61879,1.18712 -5.71973,1.94255 -4.20886,0.75544 -6.47517,-0.10792 -1.72671,-0.75543 -3.56135,-1.83463 -1.72671,-1.18711 -5.39597,-4.96429 -3.66926,-3.77718 -4.9643,-5.82765 -1.18711,-2.05047 -2.15838,-4.20886 -0.97128,-2.26631 -1.94255,-7.55437 -0.97128,-5.39597 -0.5396,-10.36027 0.5396,-4.64053 1.07919,-7.44644 0.5396,-2.69799 0.64752,-3.45342 l 0.10792,-0.86336 q 0.21584,-1.07919 1.18711,-1.83463 z"
             style="font-style:normal;font-variant:normal;font-weight:500;font-stretch:normal;font-size:medium;line-height:125%;font-family:'Dudu Calligraphy';-inkscape-font-specification:'Dudu Calligraphy Medium';letter-spacing:0px;word-spacing:0px;fill:#999999;fill-opacity:1;stroke:none;stroke-width:1px;stroke-linecap:butt;stroke-linejoin:miter;stroke-opacity:1"
             id="path8086"
             inkscape:connector-curvature="0" />
          <path
             d="m 907.16562,729.58911 q 0.75543,-1.07919 1.83463,-1.29503 1.18711,-0.32376 2.15839,0.43168 1.07919,0.64751 1.29503,1.72671 l 0.32376,1.40295 q 0.32376,1.61879 0.43168,2.91383 0.10792,1.18711 0.21584,5.28805 0,3.99302 0,6.25933 0,1.18712 0,2.59007 0.21583,-0.5396 0.43167,-0.97128 1.83463,-4.74845 3.77718,-7.44644 2.05047,-2.69799 3.12967,-3.77718 1.40295,-1.18712 4.20886,-2.37423 2.69799,-1.07919 4.10094,-1.18711 1.07919,0 2.15839,0 1.40295,0.10792 3.77718,1.40295 2.48215,1.40295 4.10094,4.10094 1.40295,2.26631 2.80591,7.2306 1.40295,4.64054 1.94255,7.01477 0.43167,2.37423 1.51087,7.2306 0.97127,4.9643 1.51087,8.20188 0.43168,3.12967 0.75544,6.25933 0.32376,3.12967 0.43168,4.10094 0,0.86336 0.10792,1.94255 l 0,1.0792 q 0.10791,1.18711 -0.75544,2.05047 -0.75544,0.86335 -1.94255,0.86335 -1.18712,0.10792 -2.15839,-0.75543 -0.86336,-0.75544 -0.97128,-1.94255 l 0,-0.97128 q -0.10792,-1.07919 -0.10792,-1.94255 -0.10792,-0.86335 -0.32375,-3.8851 -0.32376,-2.91383 -0.75544,-5.93557 -0.5396,-3.12967 -1.51087,-7.87812 -1.0792,-4.85638 -1.51088,-7.12269 -0.53959,-2.26631 -1.83463,-6.691 -1.18711,-4.20886 -2.15839,-5.93558 -0.86335,-1.29503 -1.94255,-1.83463 -0.97127,-0.64751 -1.51087,-0.75543 -0.5396,0 -1.18711,0 -0.5396,0.10792 -2.37423,0.86335 -1.83463,0.64752 -2.37423,1.18712 -0.75544,0.64751 -2.37423,2.91382 -1.61879,2.05047 -3.12966,6.04349 -1.6188,4.20886 -1.94255,6.04349 -0.43168,1.83463 -0.75544,6.04349 -0.43168,4.31678 -0.43168,7.23061 0,2.91382 -0.10792,4.53262 0,1.83463 -0.21584,3.23758 0,0.21584 0,0.5396 0,0.32376 -0.21584,1.07919 -0.21583,0.75544 -0.64751,1.0792 -0.43168,0.43168 -1.29504,0.64751 -0.86335,0.32376 -2.15839,-0.43167 -0.64751,-0.32376 -1.07919,-0.64752 -0.43168,-0.43168 -0.64752,-0.75544 -0.10792,-0.32376 -0.21584,-0.64751 0,-0.32376 0,-0.5396 0,-0.21584 0,-0.21584 -0.43167,-1.72671 -0.64751,-3.3455 -0.21584,-1.6188 -0.5396,-5.61182 -0.43168,-4.10094 -0.64752,-7.55436 -0.10792,-3.45342 -0.10792,-7.87812 0,-4.20886 0,-6.47517 0,-2.26631 0,-6.25933 -0.10792,-3.8851 -0.21584,-4.85637 0,-0.86336 -0.32375,-2.15839 l -0.21584,-1.40296 q -0.32376,-1.07919 0.32376,-2.05047 z"
             style="font-style:normal;font-variant:normal;font-weight:500;font-stretch:normal;font-size:medium;line-height:125%;font-family:'Dudu Calligraphy';-inkscape-font-specification:'Dudu Calligraphy Medium';letter-spacing:0px;word-spacing:0px;fill:#999999;fill-opacity:1;stroke:none;stroke-width:1px;stroke-linecap:butt;stroke-linejoin:miter;stroke-opacity:1"
             id="path8088"
             inkscape:connector-curvature="0" />
          <path
             d="m 962.5536,719.5526 q -2.69799,-0.10792 -2.91382,-2.15839 -0.10792,-1.29503 0.32375,-2.05047 -0.10792,-0.43168 0,-0.86335 0.21584,-1.51088 1.51088,-2.15839 0.21584,-0.86336 0.75543,-1.40296 0.86336,-0.86335 2.05047,-0.86335 1.18712,0 2.05047,0.86335 l 0.32376,0.32376 q 1.29504,1.29504 0.64752,3.12967 0.32376,0.53959 0.32376,1.18711 0.32376,1.29504 -0.43168,2.59007 -0.75544,1.18711 -1.83463,1.51087 -1.29504,0.5396 -2.80591,-0.10792 z m 4.64054,58.81611 q -0.86336,0.75544 -2.05047,0.75544 -1.18712,-0.10792 -2.05047,-0.97127 -0.75544,-0.86336 -0.75544,-2.05047 l 0.10792,-1.0792 q 0,-1.07919 0,-3.66926 0,-2.59007 0,-4.20886 0,-1.51087 -0.10792,-4.20886 -0.10792,-2.80591 -0.32376,-6.58309 -0.32375,-3.8851 -0.43167,-7.2306 -0.21584,-3.45343 -0.43168,-5.5039 -0.10792,-2.15838 -0.32376,-4.31677 -0.21584,-2.26631 -0.32376,-3.12967 0,-0.64752 -0.21584,-1.40295 l -0.10792,-0.97128 q -0.21584,-1.18711 0.43168,-2.15839 0.75544,-0.97127 1.94255,-1.18711 1.18712,-0.21584 2.15839,0.5396 1.0792,0.64751 1.18712,1.83463 l 0.21583,0.97127 q 0.10792,1.0792 0.21584,1.94255 0,0.75544 0.32376,2.91383 0.21584,2.26631 0.32376,4.4247 0.21584,2.15839 0.43168,5.71973 0.10792,3.3455 0.32376,7.2306 0.32375,3.8851 0.43167,6.69101 0.10792,2.69799 0.10792,4.31678 0,1.61879 0,4.31678 0,2.69799 0,3.8851 l -0.10792,1.07919 q 0,1.18712 -0.97127,2.05047 z"
             style="font-style:normal;font-variant:normal;font-weight:500;font-stretch:normal;font-size:medium;line-height:125%;font-family:'Dudu Calligraphy';-inkscape-font-specification:'Dudu Calligraphy Medium';letter-spacing:0px;word-spacing:0px;fill:#999999;fill-opacity:1;stroke:none;stroke-width:1px;stroke-linecap:butt;stroke-linejoin:miter;stroke-opacity:1"
             id="path8090"
             inkscape:connector-curvature="0" />
          <path
             d="m 1020.4574,777.39744 q -0.4316,1.07919 -1.5108,1.61879 -1.0792,0.43168 -2.2663,0 -1.0792,-0.5396 -1.5109,-1.61879 l -0.3238,-0.75544 q -0.2158,-0.53959 -0.3237,-0.97127 -0.6475,0.97127 -1.5109,2.15839 -1.295,1.72671 -2.4821,3.02174 -1.403,1.61879 -2.9139,2.48215 -1.4029,0.64752 -2.59,0.97128 -1.1872,0.32375 -2.9139,0.43167 -1.6188,0 -2.69795,-0.21584 -0.75544,-0.10792 -1.61879,-0.32375 -0.86336,-0.32376 -2.91383,-0.97128 -2.26631,-0.86336 -4.53262,-2.37423 -2.48215,-1.72671 -4.10094,-3.77718 -1.40295,-1.83463 -1.94255,-2.91383 -0.5396,-0.97127 -1.29503,-3.02174 -0.75544,-1.94255 -1.72671,-4.85638 -0.97128,-3.12966 -1.40296,-7.66228 -0.53959,-4.64054 0.21584,-8.20188 0.75544,-3.66926 2.26631,-6.15141 1.61879,-2.48215 3.45342,-4.10094 1.94256,-1.61879 4.74846,-2.8059 2.91383,-1.18712 5.61181,-1.40296 2.26631,-0.21584 3.45343,-0.21584 1.40291,0 4.53261,0.86336 3.0218,0.75544 4.3168,1.51087 1.1871,0.5396 3.5613,2.37423 0.2159,0.10792 0.4317,0.32376 -0.1079,-2.37423 -0.3238,-4.20886 -0.1079,-1.94255 -0.2158,-4.4247 -0.1079,-2.48215 -0.1079,-3.77718 0,-1.18712 -0.1079,-2.91383 0,-1.72671 0,-3.99302 -0.108,-2.26631 -0.108,-3.23758 -0.1079,-0.97128 -0.2158,-3.23759 0,-2.2663 -0.1079,-2.91382 0,-0.75544 0,-1.61879 l -0.1079,-0.97128 q 0,-1.18711 0.7554,-2.05047 0.8634,-0.86335 2.0505,-0.97127 1.1871,-0.10792 2.0504,0.75543 0.9713,0.75544 0.9713,1.94255 l 0.1079,0.97128 q 0,0.97127 0,1.72671 0.108,0.64752 0.108,2.91383 0.1079,2.37422 0.2158,3.23758 0,0.97127 0.1079,3.23758 0,2.26631 0,4.10094 0.1079,1.72672 0.1079,3.02175 0,1.18711 0.108,3.56134 0.1079,2.37423 0.2158,4.20886 0.2158,1.94255 0.3238,4.64054 0.2158,2.59007 0.2158,3.8851 0,1.29503 0.1079,2.69799 0,0.75543 0,2.37422 l 0.2159,0.64752 q 0.5396,1.40295 -0.2159,2.59007 0,2.59007 0,3.66926 0.1079,1.18711 0.1079,2.48215 0,1.29503 0.108,3.99302 0.2158,2.69799 0.3237,3.66926 0,0.97128 0.1079,1.83463 0.108,0.86336 0.4317,3.12967 0.3238,2.05047 0.4317,2.59006 l 0.3237,0.75544 q 0.5396,1.07919 0,2.26631 z m -7.6622,-26.44027 q -0.5396,-1.18712 -1.5109,-2.80591 -0.8634,-1.61879 -2.698,-3.02174 -1.9425,-1.40296 -2.8059,-1.94255 -0.7554,-0.32376 -3.1297,-0.97128 -2.3742,-0.64752 -3.02171,-0.64752 -0.97128,0 -3.02175,0.21584 -1.72671,0.10792 -3.77718,0.97128 -2.05047,0.86335 -3.23758,1.94255 -1.18712,0.97127 -2.26631,2.59007 -0.97128,1.72671 -1.51088,4.31678 -0.53959,2.69798 -0.21583,6.47516 0.43167,3.8851 1.18711,6.47517 0.97128,2.69799 1.61879,4.53262 0.64752,1.61879 0.97128,2.37423 0.43168,0.64751 1.51087,2.05047 0.97128,1.29503 2.69799,2.48215 1.72671,1.18711 3.23758,1.72671 1.83463,0.64751 2.48215,0.75543 0.64752,0.21584 1.29507,0.32376 0.4316,0.10792 1.4029,0.10792 0.9713,0 1.5109,-0.21584 0.6475,-0.10792 1.4029,-0.53959 0.5396,-0.32376 1.2951,-1.0792 0.9713,-1.18711 2.1584,-2.69799 1.0792,-1.51087 1.6188,-2.59006 0.5396,-1.0792 0.8633,-2.15839 0.4317,-1.18712 0.5396,-1.83463 0.1079,-0.43168 0.1079,-0.86336 l 0,-0.75544 q 0,-1.72671 1.6188,-2.59006 0,0 0,-0.10792 -0.1079,-2.80591 -0.2158,-4.10094 0,-1.29504 -0.1079,-2.48215 0,-1.40295 0,-4.85638 0,-0.53959 0,-1.07919 z"
             style="font-style:normal;font-variant:normal;font-weight:500;font-stretch:normal;font-size:medium;line-height:125%;font-family:'Dudu Calligraphy';-inkscape-font-specification:'Dudu Calligraphy Medium';letter-spacing:0px;word-spacing:0px;fill:#999999;fill-opacity:1;stroke:none;stroke-width:1px;stroke-linecap:butt;stroke-linejoin:miter;stroke-opacity:1"
             id="path8092"
             inkscape:connector-curvature="0" />
          <path
             d="m 1068.9487,764.01542 q -0.5396,-0.97127 -1.0792,-1.83463 -0.7554,-1.18711 -1.7267,-2.48214 -0.8634,-1.18712 -3.993,-3.88511 -2.8059,-2.48214 -3.6693,-2.8059 -0.7554,-0.32376 -2.8059,-0.10792 -2.2663,0.21584 -3.993,0.97127 -1.9426,0.75544 -3.0218,1.51088 -0.9712,0.64751 -1.8346,1.40295 -0.7554,0.5396 -2.0505,2.48215 -1.4029,1.94255 -1.7267,2.8059 -0.3237,0.97128 -0.6475,2.48215 -0.2158,1.51087 -0.1079,2.37423 0,0.86336 0.6475,2.80591 0.6475,1.83463 1.295,2.69798 0.8634,1.0792 1.6188,1.51088 0.7555,0.53959 1.6188,1.07919 0.8634,0.43168 2.8059,1.0792 1.7268,0.53959 3.0218,0.53959 1.4029,0 2.3742,-0.32376 1.0792,-0.21583 2.1584,-0.75543 1.1871,-0.5396 2.3742,-1.29504 0.9713,-0.64751 3.5614,-3.23758 2.4821,-2.69799 3.0217,-3.45342 0.5396,-0.86336 0.9713,-1.61879 0.5396,-0.75544 1.1871,-1.94256 z m 5.0722,2.91383 q -0.7554,1.18711 -1.1871,1.94255 -0.4317,0.86336 -1.1871,1.94255 -0.7554,1.18712 -3.6693,4.31678 -3.0217,3.12966 -4.6405,4.10094 -1.5109,0.97128 -3.1297,1.61879 -1.5108,0.75544 -3.0217,1.18712 -1.6188,0.43167 -3.7772,0.43167 -2.2663,0.10792 -4.9643,-0.86335 -2.4821,-0.75544 -3.7772,-1.51087 -1.1871,-0.64752 -2.3742,-1.51088 -1.1871,-0.86335 -2.4821,-2.48214 -1.5109,-1.72672 -2.3743,-4.53262 -0.8633,-2.69799 -0.9713,-4.31678 -0.1079,-1.51087 0.2159,-3.66926 0.4317,-2.05047 0.9713,-3.56135 0.5396,-1.51087 2.2663,-4.10094 1.7267,-2.48214 3.1296,-3.66926 1.1871,-0.97127 2.5901,-1.83463 1.403,-0.86335 3.6693,-1.94255 2.59,-1.07919 5.8276,-1.40295 3.3455,-0.32376 5.396,0.43168 1.8346,0.64751 5.7197,4.10094 -0.6475,-2.05047 -0.9713,-3.34551 -0.6475,-1.83463 -1.8346,-4.64054 -1.295,-2.69798 -2.2663,-4.20885 -0.9713,-1.51088 -2.1584,-2.59007 -0.9713,-0.97128 -3.6692,-2.37423 -2.698,-1.40295 -4.6406,-1.83463 -2.1584,-0.32376 -3.4534,-0.43168 -1.295,0 -2.5901,0.10792 -1.0792,0.10792 -3.8851,1.29503 -2.0504,0.86336 -2.698,1.40296 l -0.6475,0.86335 q -0.6475,0.97128 -1.8346,1.18712 -1.1871,0.21584 -2.2663,-0.43168 -0.9713,-0.75544 -1.1871,-1.94255 -0.2159,-1.18712 0.5396,-2.15839 l 0.6475,-0.97128 q 1.1871,-1.72671 5.1801,-3.3455 3.6693,-1.51087 5.6118,-1.72671 1.6188,-0.10792 3.3455,-0.10792 1.7267,0.10792 4.4247,0.5396 2.8059,0.53959 6.1514,2.37422 3.4535,1.83464 5.0723,3.45343 1.5108,1.51087 2.9138,3.45342 1.295,1.94255 2.698,5.07222 1.4029,3.12966 2.0504,5.28805 0.6476,2.05047 1.7268,5.82765 1.0791,3.77718 1.5108,5.28806 0.5396,1.51087 0.9713,3.23758 0.4317,1.72671 0.6475,2.37423 l 0,0.10792 q 0.5396,0.86335 -0.3237,2.37423 l -1.2951,1.18711 z"
             style="font-style:normal;font-variant:normal;font-weight:500;font-stretch:normal;font-size:medium;line-height:125%;font-family:'Dudu Calligraphy';-inkscape-font-specification:'Dudu Calligraphy Medium';letter-spacing:0px;word-spacing:0px;fill:#999999;fill-opacity:1;stroke:none;stroke-width:1px;stroke-linecap:butt;stroke-linejoin:miter;stroke-opacity:1"
             id="path8094"
             inkscape:connector-curvature="0" />
          <path
             d="m 1127.9554,777.39744 q -0.4317,1.07919 -1.5109,1.61879 -1.0792,0.43168 -2.2663,0 -1.0792,-0.5396 -1.5109,-1.61879 l -0.3237,-0.75544 q -0.2159,-0.53959 -0.3238,-0.97127 -0.6475,0.97127 -1.5109,2.15839 -1.295,1.72671 -2.4821,3.02174 -1.403,1.61879 -2.9138,2.48215 -1.403,0.64752 -2.5901,0.97128 -1.1871,0.32375 -2.9138,0.43167 -1.6188,0 -2.698,-0.21584 -0.7555,-0.10792 -1.6188,-0.32375 -0.8634,-0.32376 -2.9138,-0.97128 -2.2664,-0.86336 -4.5327,-2.37423 -2.4821,-1.72671 -4.1009,-3.77718 -1.403,-1.83463 -1.9426,-2.91383 -0.5396,-0.97127 -1.295,-3.02174 -0.7554,-1.94255 -1.7267,-4.85638 -0.9713,-3.12966 -1.403,-7.66228 -0.5395,-4.64054 0.2159,-8.20188 0.7554,-3.66926 2.2663,-6.15141 1.6188,-2.48215 3.4534,-4.10094 1.9426,-1.61879 4.7485,-2.8059 2.9138,-1.18712 5.6118,-1.40296 2.2663,-0.21584 3.4534,-0.21584 1.403,0 4.5326,0.86336 3.0218,0.75544 4.3168,1.51087 1.1871,0.5396 3.5614,2.37423 0.2158,0.10792 0.4316,0.32376 -0.1079,-2.37423 -0.3237,-4.20886 -0.1079,-1.94255 -0.2159,-4.4247 -0.1079,-2.48215 -0.1079,-3.77718 0,-1.18712 -0.1079,-2.91383 0,-1.72671 0,-3.99302 -0.1079,-2.26631 -0.1079,-3.23758 -0.1079,-0.97128 -0.2159,-3.23759 0,-2.2663 -0.1079,-2.91382 0,-0.75544 0,-1.61879 l -0.1079,-0.97128 q 0,-1.18711 0.7554,-2.05047 0.8634,-0.86335 2.0505,-0.97127 1.1871,-0.10792 2.0505,0.75543 0.9712,0.75544 0.9712,1.94255 l 0.108,0.97128 q 0,0.97127 0,1.72671 0.1079,0.64752 0.1079,2.91383 0.1079,2.37422 0.2158,3.23758 0,0.97127 0.1079,3.23758 0,2.26631 0,4.10094 0.108,1.72672 0.108,3.02175 0,1.18711 0.1079,3.56134 0.1079,2.37423 0.2158,4.20886 0.2159,1.94255 0.3238,4.64054 0.2158,2.59007 0.2158,3.8851 0,1.29503 0.1079,2.69799 0,0.75543 0,2.37422 l 0.2159,0.64752 q 0.5396,1.40295 -0.2159,2.59007 0,2.59007 0,3.66926 0.108,1.18711 0.108,2.48215 0,1.29503 0.1079,3.99302 0.2158,2.69799 0.3237,3.66926 0,0.97128 0.108,1.83463 0.1079,0.86336 0.4316,3.12967 0.3238,2.05047 0.4317,2.59006 l 0.3238,0.75544 q 0.5396,1.07919 0,2.26631 z m -7.6623,-26.44027 q -0.5396,-1.18712 -1.5109,-2.80591 -0.8633,-1.61879 -2.698,-3.02174 -1.9425,-1.40296 -2.8059,-1.94255 -0.7554,-0.32376 -3.1296,-0.97128 -2.3743,-0.64752 -3.0218,-0.64752 -0.9713,0 -3.0217,0.21584 -1.7267,0.10792 -3.7772,0.97128 -2.0505,0.86335 -3.2376,1.94255 -1.1871,0.97127 -2.2663,2.59007 -0.9713,1.72671 -1.5109,4.31678 -0.5396,2.69798 -0.2158,6.47516 0.4317,3.8851 1.1871,6.47517 0.9713,2.69799 1.6188,4.53262 0.6475,1.61879 0.9713,2.37423 0.4316,0.64751 1.5108,2.05047 0.9713,1.29503 2.698,2.48215 1.7267,1.18711 3.2376,1.72671 1.8346,0.64751 2.4822,0.75543 0.6475,0.21584 1.295,0.32376 0.4317,0.10792 1.4029,0.10792 0.9713,0 1.5109,-0.21584 0.6475,-0.10792 1.403,-0.53959 0.5396,-0.32376 1.295,-1.0792 0.9713,-1.18711 2.1584,-2.69799 1.0792,-1.51087 1.6188,-2.59006 0.5396,-1.0792 0.8633,-2.15839 0.4317,-1.18712 0.5396,-1.83463 0.108,-0.43168 0.108,-0.86336 l 0,-0.75544 q 0,-1.72671 1.6187,-2.59006 0,0 0,-0.10792 -0.1079,-2.80591 -0.2158,-4.10094 0,-1.29504 -0.1079,-2.48215 0,-1.40295 0,-4.85638 0,-0.53959 0,-1.07919 z"
             style="font-style:normal;font-variant:normal;font-weight:500;font-stretch:normal;font-size:medium;line-height:125%;font-family:'Dudu Calligraphy';-inkscape-font-specification:'Dudu Calligraphy Medium';letter-spacing:0px;word-spacing:0px;fill:#999999;fill-opacity:1;stroke:none;stroke-width:1px;stroke-linecap:butt;stroke-linejoin:miter;stroke-opacity:1"
             id="path8096"
             inkscape:connector-curvature="0" />
        </g>
        <g
           id="g8145"
           style="fill:#ffdd55;fill-opacity:1"
           transform="translate(6.0609153,-48.487322)">
          <path
             d="m 657.21569,881.10805 q -0.10792,-0.21584 -0.10792,-0.43168 0,-0.21584 0,-0.43167 0,-2.69799 -0.10792,-4.4247 -0.10792,-2.48215 -0.5396,-7.98604 -0.43168,-5.61182 -0.64751,-7.33853 -0.10792,-1.83463 -0.21584,-3.45342 -0.21584,-1.51087 -0.32376,-3.66926 -0.10792,-2.26631 0.10792,-3.56135 0.43168,-2.69798 2.8059,-3.45342 0.75544,-0.21584 1.83463,-0.5396 1.0792,-0.32375 2.05047,-0.43167 0.75544,-0.10792 3.56135,-0.43168 2.69798,-0.21584 4.10094,-0.43168 1.51087,-0.21584 5.61181,-0.43168 4.20886,-0.32376 5.93557,-0.43168 1.61879,0 4.53262,0 2.91382,0 4.96429,0.21584 1.6188,0.10792 3.23759,1.40296 1.72671,1.29503 0.75543,3.77718 l -0.32375,0.97127 q -0.43168,1.0792 -1.6188,1.6188 -1.07919,0.43167 -2.15839,0.10792 -1.51087,-0.64752 -1.83463,-2.15839 -1.40295,-0.10792 -3.02174,-0.10792 -2.80591,0 -4.4247,0 -1.61879,0.10792 -5.61181,0.43167 -3.99302,0.21584 -5.39598,0.43168 -1.40295,0.10792 -4.20886,0.43168 -2.69798,0.32376 -3.3455,0.43168 -0.5396,0 -1.29503,0.21584 -0.21584,0.10792 -0.43168,0.10792 0,0.64751 0,1.51087 0.10792,1.94255 0.32376,3.45342 0.10792,1.61879 0.21584,3.45342 0.21584,1.83464 0.64751,7.44645 0.43168,5.61181 0.5396,8.09396 0,0.97127 0.10792,1.94255 0.86336,-0.10792 2.48215,-0.32376 1.94255,-0.21584 3.12966,-0.21584 1.0792,0 3.23759,0 2.26631,0 3.56134,0 1.29503,0.10792 2.26631,0.10792 l 1.18711,0 q 1.18712,0 2.05047,0.86336 0.86336,0.75543 0.86336,2.05047 0,1.18711 -0.86336,2.05047 -0.86335,0.86335 -2.05047,0.86335 l -1.18711,0 q -1.0792,0 -2.48215,-0.10792 -1.18711,0 -3.23758,0 -2.15839,0 -3.23759,0 -0.97127,0 -2.69798,0.21584 -1.72672,0.21584 -2.69799,0.32376 -0.10792,0 -0.21584,0 0.21584,4.4247 0.21584,7.44644 0.10792,3.12967 0.10792,5.07222 0.10792,1.94255 0.10792,5.39597 0.10792,3.45343 0,6.25933 l -0.10792,2.91383 q 0,1.18711 -0.97128,2.05047 -0.86335,0.75543 -2.05047,0.75543 -1.18711,0 -2.05047,-0.86335 -0.75543,-0.97128 -0.75543,-2.15839 l 0.10792,-2.80591 q 0.10792,-2.69798 0,-6.04349 0,-3.45342 -0.10792,-5.39597 0,-1.94255 -0.10792,-5.07222 0,-3.12966 -0.21584,-7.87812 0,-1.07919 0,-1.83463 z"
             style="font-style:normal;font-variant:normal;font-weight:500;font-stretch:normal;font-size:medium;line-height:125%;font-family:'Dudu Calligraphy';-inkscape-font-specification:'Dudu Calligraphy Medium';letter-spacing:13.27998638px;word-spacing:0px;fill:#ffdd55;fill-opacity:1;stroke:none;stroke-width:1px;stroke-linecap:butt;stroke-linejoin:miter;stroke-opacity:1"
             id="path8098"
             inkscape:connector-curvature="0" />
          <path
             d="m 727.00332,884.1298 q 0.75544,0 1.51088,0.10792 0.86335,0 3.56134,0.10792 2.69798,0.10792 3.8851,0.10792 1.18711,0 2.26631,-0.10792 1.18711,-0.10792 4.20886,-0.5396 3.02174,-0.32376 3.8851,-0.5396 0.86335,-0.21584 2.48215,-0.86335 1.40295,-0.5396 1.83463,-0.75544 0.32376,-0.32376 0.86335,-0.97128 0.43168,-0.43167 0.75544,-1.18711 0.32376,-0.97128 0.43168,-1.40295 0,-0.43168 -0.32376,-1.94255 -0.32376,-1.51088 -0.5396,-1.94255 -0.32376,-0.43168 -1.29503,-1.40296 -0.97128,-1.07919 -1.94255,-1.51087 -1.18712,-0.64752 -2.15839,-0.86336 -0.86336,-0.32375 -3.02175,-0.53959 -2.05047,-0.32376 -3.45342,-0.10792 -1.29503,0.10792 -3.12967,0.86335 -1.72671,0.64752 -2.48214,1.0792 -0.75544,0.53959 -2.15839,1.94255 -1.29504,1.40295 -2.59007,3.77718 -1.40295,2.48215 -1.72671,3.56134 -0.32376,0.86336 -0.86336,3.12967 z m -6.36725,1.29503 q 0.21584,-0.86336 0.43168,-1.83463 0.75544,-3.23758 1.29504,-4.64054 0.53959,-1.40295 2.15838,-4.31678 1.72672,-3.02174 3.56135,-4.96429 1.72671,-1.83463 2.91382,-2.69799 1.29504,-0.97127 3.77718,-1.83463 2.48215,-0.97128 4.64054,-1.18711 2.05047,-0.21584 4.74846,0.10791 2.69799,0.32376 3.99302,0.75544 1.40295,0.43168 3.02174,1.18712 1.83464,0.97127 3.45343,2.59006 1.72671,1.72671 2.26631,2.80591 0.64751,1.07919 1.18711,3.56134 0.5396,2.48215 0.43168,3.66926 -0.10792,1.18712 -0.75544,2.91383 -0.75543,1.83463 -1.83463,3.12966 -1.07919,1.0792 -1.94255,1.72672 -0.97127,0.64751 -3.12966,1.51087 -1.94255,0.64751 -3.12967,0.97127 -1.18711,0.32376 -4.53262,0.75544 -3.12966,0.43168 -4.53261,0.5396 -1.29504,0.10792 -2.69799,0.10792 -1.18712,0 -4.10094,-0.10792 -2.80591,-0.10792 -3.66926,-0.10792 -0.86336,-0.10792 -1.6188,-0.10792 -0.32375,0 -0.75543,0 -0.10792,0.86335 -0.21584,1.61879 -0.10792,1.07919 0.10792,4.10094 0.32376,2.91383 0.5396,3.8851 0.21584,1.0792 0.64751,2.15839 0.32376,0.97128 1.40296,3.02175 0.97127,1.83463 1.83463,2.8059 1.07919,1.18712 1.83463,1.72671 0.64752,0.5396 2.59007,1.40296 1.94255,0.97127 3.45342,1.40295 1.51087,0.43168 3.56134,0.5396 2.15839,0.21584 2.91383,0.10792 0.64751,0 2.48215,-0.75544 1.61879,-0.64752 2.15838,-0.97127 0.5396,-0.43168 0.97128,-0.97128 0.43168,-0.64752 1.18711,-2.15839 0.75544,-1.61879 1.0792,-2.48215 0.32376,-0.97127 0.5396,-1.72671 l 0.21583,-0.86335 q 0.21584,-1.18712 1.18712,-1.83464 1.07919,-0.64751 2.26631,-0.43167 1.18711,0.21584 1.83463,1.29503 0.64752,0.97128 0.43168,2.15839 l -0.21584,0.97127 q -0.32376,1.0792 -0.75544,2.37423 -0.43168,1.18712 -1.40295,3.12967 -0.97128,2.05047 -1.83463,3.12966 -0.75544,0.97128 -1.72671,1.83463 -1.0792,0.97128 -3.77719,2.05047 -2.69798,0.97128 -4.10094,1.0792 -1.29503,0.10792 -3.8851,-0.10792 -2.69798,-0.21584 -4.74845,-0.75544 -2.05047,-0.64751 -4.31678,-1.72671 -2.48215,-1.18711 -3.66926,-2.05047 -1.0792,-0.86335 -2.48215,-2.37423 -1.51087,-1.61879 -2.80591,-4.20886 -1.29503,-2.37423 -1.72671,-3.77718 -0.5396,-1.29503 -0.86336,-2.59007 -0.32375,-1.40295 -0.64751,-4.85637 -0.21584,-3.45343 -0.10792,-4.9643 0.10792,-1.40295 0.32376,-2.8059 0,-0.32376 0.10792,-0.64752 0,-0.32376 0,-0.5396 -0.10792,-0.86335 0.43167,-1.72671 z"
             style="font-style:normal;font-variant:normal;font-weight:500;font-stretch:normal;font-size:medium;line-height:125%;font-family:'Dudu Calligraphy';-inkscape-font-specification:'Dudu Calligraphy Medium';letter-spacing:13.27998638px;word-spacing:0px;fill:#ffdd55;fill-opacity:1;stroke:none;stroke-width:1px;stroke-linecap:butt;stroke-linejoin:miter;stroke-opacity:1"
             id="path8100"
             inkscape:connector-curvature="0" />
          <path
             d="m 787.95674,913.69973 q -0.97128,0.64752 -2.15839,0.32376 -1.18712,-0.32376 -1.83463,-1.29503 -0.5396,-1.0792 -0.21584,-2.26631 l 0.21584,-0.86336 q 0.21584,-0.64751 0.21584,-1.18711 0.10792,-0.64752 0.10792,-1.61879 0.10792,-0.97128 0,-4.20886 0,-3.34551 0,-4.9643 0,-1.72671 0.10792,-5.82765 0.10791,-4.10094 0.10791,-7.7702 0,-3.66926 0,-6.25933 0,-2.59007 0.10792,-7.23061 0.10792,-4.64053 0.21584,-6.691 0,-2.05047 0,-4.64054 0,-2.59007 0,-5.07222 -0.10792,-2.37422 -0.10792,-3.12966 -0.10792,-0.64752 -0.21584,-1.83463 l -0.21583,-1.40296 q -0.21584,-1.07919 0.43167,-2.05047 0.75544,-1.07919 1.94255,-1.18711 1.18712,-0.21584 2.15839,0.5396 0.97128,0.64751 1.18712,1.83463 l 0.21584,1.40295 q 0.21584,1.51087 0.32376,2.37423 0,0.86336 0.10791,3.3455 0,2.59007 0,5.18014 0,2.59007 -0.10791,4.74846 0,2.05047 -0.10792,6.691 -0.10792,4.64054 -0.10792,7.23061 0,2.48215 0,6.25933 0,3.66926 -0.10792,7.7702 -0.10792,3.99302 -0.10792,5.61181 0,1.61879 0,5.07222 0.10792,3.45342 0,4.53261 0,1.0792 -0.10792,1.94255 -0.10792,0.86336 -0.43168,2.05047 l -0.21584,0.86336 q -0.32376,1.0792 -1.40295,1.72671 z"
             style="font-style:normal;font-variant:normal;font-weight:500;font-stretch:normal;font-size:medium;line-height:125%;font-family:'Dudu Calligraphy';-inkscape-font-specification:'Dudu Calligraphy Medium';letter-spacing:13.27998638px;word-spacing:0px;fill:#ffdd55;fill-opacity:1;stroke:none;stroke-width:1px;stroke-linecap:butt;stroke-linejoin:miter;stroke-opacity:1"
             id="path8102"
             inkscape:connector-curvature="0" />
          <path
             d="m 818.38243,854.45194 q -2.69799,-0.10792 -2.91383,-2.15839 -0.10792,-1.29503 0.32376,-2.05047 -0.10792,-0.43168 0,-0.86335 0.21584,-1.51088 1.51087,-2.15839 0.21584,-0.86336 0.75544,-1.40296 0.86336,-0.86335 2.05047,-0.86335 1.18711,0 2.05047,0.86335 l 0.32376,0.32376 q 1.29503,1.29504 0.64752,3.12967 0.32375,0.53959 0.32375,1.18711 0.32376,1.29504 -0.43167,2.59007 -0.75544,1.18711 -1.83464,1.51087 -1.29503,0.5396 -2.8059,-0.10792 z m 4.64054,58.81611 q -0.86336,0.75544 -2.05047,0.75544 -1.18712,-0.10792 -2.05047,-0.97127 -0.75544,-0.86336 -0.75544,-2.05047 l 0.10792,-1.0792 q 0,-1.07919 0,-3.66926 0,-2.59007 0,-4.20886 0,-1.51087 -0.10792,-4.20886 -0.10792,-2.80591 -0.32376,-6.58309 -0.32376,-3.8851 -0.43168,-7.2306 -0.21584,-3.45343 -0.43167,-5.5039 -0.10792,-2.15839 -0.32376,-4.31677 -0.21584,-2.26631 -0.32376,-3.12967 0,-0.64752 -0.21584,-1.40295 l -0.10792,-0.97128 q -0.21584,-1.18711 0.43168,-2.15839 0.75543,-0.97127 1.94255,-1.18711 1.18711,-0.21584 2.15839,0.5396 1.07919,0.64751 1.18711,1.83463 l 0.21584,0.97127 q 0.10792,1.0792 0.21584,1.94255 0,0.75544 0.32376,2.91383 0.21584,2.26631 0.32376,4.4247 0.21584,2.15839 0.43167,5.71973 0.10792,3.3455 0.32376,7.2306 0.32376,3.8851 0.43168,6.69101 0.10792,2.69799 0.10792,4.31678 0,1.61879 0,4.31678 0,2.69799 0,3.8851 l -0.10792,1.07919 q 0,1.18712 -0.97127,2.05047 z"
             style="font-style:normal;font-variant:normal;font-weight:500;font-stretch:normal;font-size:medium;line-height:125%;font-family:'Dudu Calligraphy';-inkscape-font-specification:'Dudu Calligraphy Medium';letter-spacing:13.27998638px;word-spacing:0px;fill:#ffdd55;fill-opacity:1;stroke:none;stroke-width:1px;stroke-linecap:butt;stroke-linejoin:miter;stroke-opacity:1"
             id="path8104"
             inkscape:connector-curvature="0" />
          <path
             d="m 887.5158,870.3161 q 0.32376,1.18712 -0.21584,2.26631 -0.5396,0.97128 -1.72671,1.29504 -1.18711,0.32376 -2.15839,-0.21584 l -0.86335,-0.43168 q -0.75544,-0.43168 -1.83464,-0.97128 -0.97127,-0.43167 -2.59006,-1.18711 -1.6188,-0.64752 -2.37423,-0.86336 -0.86336,-0.21583 -1.83463,-0.32375 -0.86336,-0.10792 -2.37423,-0.10792 -1.40295,0 -2.37423,0.21584 -0.97127,0.21583 -1.94255,0.53959 -0.86336,0.32376 -2.80591,1.6188 -1.94255,1.18711 -3.02174,2.48214 -1.29503,1.40296 -2.05047,2.37423 -0.64752,1.0792 -1.29503,2.26631 -0.5396,1.0792 -1.83464,4.74846 -1.18711,3.56134 -1.40295,4.74845 -0.10792,1.40296 -0.21584,2.80591 0,1.40295 0.10792,2.69799 0.10792,1.29503 0.5396,3.12966 0.5396,1.94255 1.72671,4.20886 1.18711,2.37423 1.94255,3.3455 0.75544,0.97128 1.61879,1.83464 0.75544,0.64751 2.26631,1.51087 1.51087,0.75543 3.99302,1.29503 2.59007,0.43168 3.77718,0.5396 1.40296,0 2.69799,0 1.0792,-0.10792 2.69799,-0.43168 1.40295,-0.32376 2.8059,-1.29503 1.40296,-1.0792 1.83463,-1.51087 0.5396,-0.64752 0.97128,-1.29504 0.43168,-0.64752 0.86336,-1.61879 l 0.53959,-1.0792 q 0.5396,-1.07919 1.72671,-1.40295 1.18712,-0.32376 2.15839,0.21584 1.0792,0.5396 1.40296,1.72671 0.43168,1.0792 -0.10792,2.15839 l -0.5396,1.0792 q -0.64752,1.29503 -1.18711,2.15839 -0.64752,0.86335 -1.29504,1.72671 -0.97127,1.07919 -3.12966,2.59006 -2.26631,1.6188 -4.64054,2.15839 -2.15839,0.5396 -3.8851,0.64752 -1.51087,0 -3.02175,0 -1.72671,-0.10792 -4.74845,-0.64752 -3.34551,-0.64751 -5.61181,-1.83463 -2.26631,-1.18711 -3.56135,-2.48214 -1.29503,-1.0792 -2.37423,-2.48215 -0.97127,-1.40296 -2.48214,-4.31678 -1.40296,-2.80591 -2.05047,-5.28806 -0.64752,-2.37422 -0.75544,-4.20886 -0.10792,-1.61879 -0.10792,-3.3455 0.10792,-1.72671 0.32376,-3.45342 0.21584,-1.72671 1.61879,-5.82765 1.40295,-4.10094 2.15839,-5.61182 0.86336,-1.40295 1.72671,-2.69798 0.97128,-1.40296 2.48215,-3.02175 1.61879,-1.83463 4.20886,-3.45342 2.48215,-1.61879 3.99302,-2.15839 1.29503,-0.5396 2.69799,-0.86336 1.40295,-0.21584 3.45342,-0.32375 1.94255,0 3.23758,0.10791 1.18712,0.21584 2.48215,0.43168 1.29504,0.43168 3.23759,1.18712 1.83463,0.86335 3.02174,1.40295 1.0792,0.5396 1.94255,1.07919 l 0.75544,0.43168 q 1.07919,0.5396 1.40295,1.72671 z"
             style="font-style:normal;font-variant:normal;font-weight:500;font-stretch:normal;font-size:medium;line-height:125%;font-family:'Dudu Calligraphy';-inkscape-font-specification:'Dudu Calligraphy Medium';letter-spacing:13.27998638px;word-spacing:0px;fill:#ffdd55;fill-opacity:1;stroke:none;stroke-width:1px;stroke-linecap:butt;stroke-linejoin:miter;stroke-opacity:1"
             id="path8106"
             inkscape:connector-curvature="0" />
          <path
             d="m 916.18611,854.45194 q -2.69799,-0.10792 -2.91383,-2.15839 -0.10792,-1.29503 0.32376,-2.05047 -0.10792,-0.43168 0,-0.86335 0.21584,-1.51088 1.51087,-2.15839 0.21584,-0.86336 0.75544,-1.40296 0.86336,-0.86335 2.05047,-0.86335 1.18711,0 2.05047,0.86335 l 0.32376,0.32376 q 1.29503,1.29504 0.64752,3.12967 0.32375,0.53959 0.32375,1.18711 0.32376,1.29504 -0.43167,2.59007 -0.75544,1.18711 -1.83463,1.51087 -1.29504,0.5396 -2.80591,-0.10792 z m 4.64054,58.81611 q -0.86336,0.75544 -2.05047,0.75544 -1.18712,-0.10792 -2.05047,-0.97127 -0.75544,-0.86336 -0.75544,-2.05047 l 0.10792,-1.0792 q 0,-1.07919 0,-3.66926 0,-2.59007 0,-4.20886 0,-1.51087 -0.10792,-4.20886 -0.10792,-2.80591 -0.32376,-6.58309 -0.32376,-3.8851 -0.43168,-7.2306 -0.21584,-3.45343 -0.43167,-5.5039 -0.10792,-2.15839 -0.32376,-4.31677 -0.21584,-2.26631 -0.32376,-3.12967 0,-0.64752 -0.21584,-1.40295 l -0.10792,-0.97128 q -0.21584,-1.18711 0.43168,-2.15839 0.75543,-0.97127 1.94255,-1.18711 1.18711,-0.21584 2.15839,0.5396 1.07919,0.64751 1.18711,1.83463 l 0.21584,0.97127 q 0.10792,1.0792 0.21584,1.94255 0,0.75544 0.32376,2.91383 0.21584,2.26631 0.32376,4.4247 0.21584,2.15839 0.43168,5.71973 0.10791,3.3455 0.32375,7.2306 0.32376,3.8851 0.43168,6.69101 0.10792,2.69799 0.10792,4.31678 0,1.61879 0,4.31678 0,2.69799 0,3.8851 l -0.10792,1.07919 q 0,1.18712 -0.97127,2.05047 z"
             style="font-style:normal;font-variant:normal;font-weight:500;font-stretch:normal;font-size:medium;line-height:125%;font-family:'Dudu Calligraphy';-inkscape-font-specification:'Dudu Calligraphy Medium';letter-spacing:13.27998638px;word-spacing:0px;fill:#ffdd55;fill-opacity:1;stroke:none;stroke-width:1px;stroke-linecap:butt;stroke-linejoin:miter;stroke-opacity:1"
             id="path8108"
             inkscape:connector-curvature="0" />
          <path
             d="m 987.36995,912.29678 q -0.43168,1.07919 -1.51087,1.61879 -1.0792,0.43168 -2.26631,0 -1.07919,-0.5396 -1.51087,-1.61879 l -0.32376,-0.75544 q -0.21584,-0.53959 -0.32376,-0.97127 -0.64752,0.97127 -1.51087,2.15839 -1.29504,1.72671 -2.48215,3.02174 -1.40295,1.61879 -2.91383,2.48215 -1.40295,0.64752 -2.59006,0.97127 -1.18712,0.32376 -2.91383,0.43168 -1.61879,0 -2.69799,-0.21584 -0.75543,-0.10792 -1.61879,-0.32375 -0.86335,-0.32376 -2.91382,-0.97128 -2.26631,-0.86336 -4.53262,-2.37423 -2.48215,-1.72671 -4.10094,-3.77718 -1.40295,-1.83463 -1.94255,-2.91383 -0.5396,-0.97127 -1.29504,-3.02174 -0.75543,-1.94255 -1.72671,-4.85638 -0.97127,-3.12966 -1.40295,-7.66228 -0.5396,-4.64054 0.21584,-8.20188 0.75544,-3.66926 2.26631,-6.15141 1.61879,-2.48215 3.45342,-4.10094 1.94255,-1.61879 4.74846,-2.80591 2.91382,-1.18711 5.61181,-1.40295 2.26631,-0.21584 3.45342,-0.21584 1.40296,0 4.53262,0.86336 3.02175,0.75543 4.31678,1.51087 1.18711,0.5396 3.56134,2.37423 0.21584,0.10792 0.43168,0.32376 -0.10792,-2.37423 -0.32376,-4.20886 -0.10792,-1.94255 -0.21584,-4.4247 -0.10792,-2.48215 -0.10792,-3.77718 0,-1.18712 -0.10792,-2.91383 0,-1.72671 0,-3.99302 -0.10792,-2.26631 -0.10792,-3.23758 -0.10791,-0.97128 -0.21583,-3.23759 0,-2.2663 -0.10792,-2.91382 0,-0.75544 0,-1.61879 l -0.10792,-0.97128 q 0,-1.18711 0.75543,-2.05047 0.86336,-0.86335 2.05047,-0.97127 1.18712,-0.10792 2.05047,0.75543 0.97128,0.75544 0.97128,1.94255 l 0.10792,0.97128 q 0,0.97127 0,1.72671 0.10792,0.64752 0.10792,2.91383 0.10792,2.37422 0.21584,3.23758 0,0.97127 0.10792,3.23758 0,2.26631 0,4.10094 0.10791,1.72671 0.10791,3.02175 0,1.18711 0.10792,3.56134 0.10792,2.37423 0.21584,4.20886 0.21584,1.94255 0.32376,4.64054 0.21584,2.59007 0.21584,3.8851 0,1.29503 0.10792,2.69799 0,0.75543 0,2.37422 l 0.21584,0.64752 q 0.5396,1.40295 -0.21584,2.59007 0,2.59007 0,3.66926 0.10792,1.18711 0.10792,2.48215 0,1.29503 0.10792,3.99302 0.21584,2.69799 0.32376,3.66926 0,0.97128 0.10792,1.83463 0.10792,0.86336 0.43167,3.12967 0.32376,2.05047 0.43168,2.59006 l 0.32376,0.75544 q 0.5396,1.07919 0,2.26631 z m -7.66228,-26.44027 q -0.5396,-1.18712 -1.51087,-2.80591 -0.86336,-1.61879 -2.69799,-3.02174 -1.94255,-1.40296 -2.80591,-1.94255 -0.75543,-0.32376 -3.12966,-0.97128 -2.37423,-0.64752 -3.02175,-0.64752 -0.97127,0 -3.02174,0.21584 -1.72671,0.10792 -3.77718,0.97128 -2.05047,0.86335 -3.23759,1.94255 -1.18711,0.97127 -2.26631,2.59007 -0.97127,1.72671 -1.51087,4.31678 -0.5396,2.69798 -0.21584,6.47516 0.43168,3.8851 1.18712,6.47517 0.97127,2.69799 1.61879,4.53262 0.64751,1.61879 0.97127,2.37423 0.43168,0.64751 1.51088,2.05047 0.97127,1.29503 2.69798,2.48215 1.72671,1.18711 3.23759,1.72671 1.83463,0.64751 2.48214,0.75543 0.64752,0.21584 1.29504,0.32376 0.43168,0.10792 1.40295,0.10792 0.97128,0 1.51087,-0.21584 0.64752,-0.10792 1.40296,-0.53959 0.53959,-0.32376 1.29503,-1.0792 0.97128,-1.18711 2.15839,-2.69799 1.0792,-1.51087 1.61879,-2.59006 0.5396,-1.0792 0.86336,-2.15839 0.43168,-1.18712 0.5396,-1.83463 0.10792,-0.43168 0.10792,-0.86336 l 0,-0.75544 q 0,-1.72671 1.61879,-2.59006 0,0 0,-0.10792 -0.10792,-2.80591 -0.21584,-4.10094 0,-1.29504 -0.10792,-2.48215 0,-1.40295 0,-4.85638 0,-0.53959 0,-1.07919 z"
             style="font-style:normal;font-variant:normal;font-weight:500;font-stretch:normal;font-size:medium;line-height:125%;font-family:'Dudu Calligraphy';-inkscape-font-specification:'Dudu Calligraphy Medium';letter-spacing:13.27998638px;word-spacing:0px;fill:#ffdd55;fill-opacity:1;stroke:none;stroke-width:1px;stroke-linecap:butt;stroke-linejoin:miter;stroke-opacity:1"
             id="path8110"
             inkscape:connector-curvature="0" />
          <path
             d="m 1049.1412,898.91476 q -0.5396,-0.97127 -1.0792,-1.83463 -0.7554,-1.18711 -1.7267,-2.48214 -0.8634,-1.18712 -3.993,-3.88511 -2.806,-2.48214 -3.6693,-2.8059 -0.7554,-0.32376 -2.8059,-0.10792 -2.2663,0.21584 -3.993,0.97127 -1.9426,0.75544 -3.0218,1.51088 -0.9713,0.64751 -1.8346,1.40295 -0.7554,0.5396 -2.0505,2.48215 -1.4029,1.94255 -1.7267,2.8059 -0.3237,0.97128 -0.6475,2.48215 -0.2158,1.51087 -0.1079,2.37423 0,0.86336 0.6475,2.80591 0.6475,1.83463 1.295,2.69798 0.8634,1.0792 1.6188,1.51088 0.7555,0.53959 1.6188,1.07919 0.8634,0.43168 2.8059,1.0792 1.7267,0.53959 3.0218,0.53959 1.4029,0 2.3742,-0.32376 1.0792,-0.21583 2.1584,-0.75543 1.1871,-0.5396 2.3742,-1.29504 0.9713,-0.64751 3.5613,-3.23758 2.4822,-2.69799 3.0218,-3.45342 0.5396,-0.86336 0.9713,-1.6188 0.5396,-0.75543 1.1871,-1.94255 z m 5.0722,2.91383 q -0.7554,1.18711 -1.1871,1.94255 -0.4317,0.86336 -1.1871,1.94255 -0.7555,1.18712 -3.6693,4.31678 -3.0217,3.12966 -4.6405,4.10094 -1.5109,0.97128 -3.1297,1.61879 -1.5109,0.75544 -3.0217,1.18712 -1.6188,0.43167 -3.7772,0.43167 -2.2663,0.10792 -4.9643,-0.86335 -2.4822,-0.75544 -3.7772,-1.51087 -1.1871,-0.64752 -2.3742,-1.51088 -1.1871,-0.86335 -2.4822,-2.48214 -1.5108,-1.72672 -2.3742,-4.53262 -0.8634,-2.69799 -0.9713,-4.31678 -0.1079,-1.51087 0.2159,-3.66926 0.4316,-2.05047 0.9712,-3.56135 0.5396,-1.51087 2.2663,-4.10094 1.7268,-2.48214 3.1297,-3.66926 1.1871,-0.97127 2.5901,-1.83463 1.4029,-0.86335 3.6692,-1.94255 2.5901,-1.07919 5.8277,-1.40295 3.3455,-0.32376 5.396,0.43168 1.8346,0.64751 5.7197,4.10094 -0.6475,-2.05047 -0.9713,-3.34551 -0.6475,-1.83463 -1.8346,-4.64054 -1.295,-2.69798 -2.2663,-4.20886 -0.9713,-1.51087 -2.1584,-2.59006 -0.9713,-0.97128 -3.6693,-2.37423 -2.698,-1.40295 -4.6405,-1.83463 -2.1584,-0.32376 -3.4534,-0.43168 -1.2951,0 -2.5901,0.10792 -1.0792,0.10792 -3.8851,1.29503 -2.0505,0.86336 -2.698,1.40296 l -0.6475,0.86335 q -0.6475,0.97128 -1.8346,1.18712 -1.1871,0.21584 -2.2663,-0.43168 -0.9713,-0.75544 -1.1872,-1.94255 -0.2158,-1.18712 0.5396,-2.15839 l 0.6476,-0.97128 q 1.1871,-1.72671 5.1801,-3.3455 3.6693,-1.51087 5.6118,-1.72671 1.6188,-0.10792 3.3455,-0.10792 1.7267,0.10792 4.4247,0.5396 2.8059,0.53959 6.1514,2.37422 3.4534,1.83464 5.0722,3.45343 1.5109,1.51087 2.9139,3.45342 1.295,1.94255 2.6979,5.07222 1.403,3.12966 2.0505,5.28805 0.6475,2.05047 1.7267,5.82765 1.0792,3.77718 1.5109,5.28806 0.5396,1.51087 0.9713,3.23758 0.4317,1.72671 0.6475,2.37423 l 0,0.10792 q 0.5396,0.86335 -0.3238,2.37423 l -1.295,1.18711 z"
             style="font-style:normal;font-variant:normal;font-weight:500;font-stretch:normal;font-size:medium;line-height:125%;font-family:'Dudu Calligraphy';-inkscape-font-specification:'Dudu Calligraphy Medium';letter-spacing:13.27998638px;word-spacing:0px;fill:#ffdd55;fill-opacity:1;stroke:none;stroke-width:1px;stroke-linecap:butt;stroke-linejoin:miter;stroke-opacity:1"
             id="path8112"
             inkscape:connector-curvature="0" />
          <path
             d="m 1121.4278,912.29678 q -0.4316,1.07919 -1.5108,1.61879 -1.0792,0.43168 -2.2663,0 -1.0792,-0.5396 -1.5109,-1.61879 l -0.3238,-0.75544 q -0.2158,-0.53959 -0.3237,-0.97127 -0.6475,0.97127 -1.5109,2.15839 -1.295,1.72671 -2.4821,3.02174 -1.403,1.61879 -2.9139,2.48215 -1.4029,0.64752 -2.59,0.97127 -1.1872,0.32376 -2.9139,0.43168 -1.6188,0 -2.698,-0.21584 -0.7554,-0.10792 -1.6187,-0.32375 -0.8634,-0.32376 -2.9139,-0.97128 -2.2663,-0.86336 -4.5326,-2.37423 -2.4821,-1.72671 -4.1009,-3.77718 -1.403,-1.83463 -1.9426,-2.91383 -0.5396,-0.97127 -1.295,-3.02174 -0.7554,-1.94255 -1.7267,-4.85638 -0.9713,-3.12966 -1.403,-7.66228 -0.5396,-4.64054 0.2159,-8.20188 0.7554,-3.66926 2.2663,-6.15141 1.6188,-2.48215 3.4534,-4.10094 1.9425,-1.61879 4.7484,-2.80591 2.9139,-1.18711 5.6119,-1.40295 2.2663,-0.21584 3.4534,-0.21584 1.4029,0 4.5326,0.86336 3.0217,0.75543 4.3168,1.51087 1.1871,0.5396 3.5613,2.37423 0.2159,0.10792 0.4317,0.32376 -0.1079,-2.37423 -0.3238,-4.20886 -0.1079,-1.94255 -0.2158,-4.4247 -0.1079,-2.48215 -0.1079,-3.77718 0,-1.18712 -0.1079,-2.91383 0,-1.72671 0,-3.99302 -0.108,-2.26631 -0.108,-3.23758 -0.1079,-0.97128 -0.2158,-3.23759 0,-2.2663 -0.1079,-2.91382 0,-0.75544 0,-1.61879 l -0.1079,-0.97128 q 0,-1.18711 0.7554,-2.05047 0.8634,-0.86335 2.0505,-0.97127 1.1871,-0.10792 2.0504,0.75543 0.9713,0.75544 0.9713,1.94255 l 0.1079,0.97128 q 0,0.97127 0,1.72671 0.108,0.64752 0.108,2.91383 0.1079,2.37422 0.2158,3.23758 0,0.97127 0.1079,3.23758 0,2.26631 0,4.10094 0.1079,1.72671 0.1079,3.02175 0,1.18711 0.108,3.56134 0.1079,2.37423 0.2158,4.20886 0.2158,1.94255 0.3238,4.64054 0.2158,2.59007 0.2158,3.8851 0,1.29503 0.1079,2.69799 0,0.75543 0,2.37422 l 0.2159,0.64752 q 0.5395,1.40295 -0.2159,2.59007 0,2.59007 0,3.66926 0.1079,1.18711 0.1079,2.48215 0,1.29503 0.108,3.99302 0.2158,2.69799 0.3237,3.66926 0,0.97128 0.1079,1.83463 0.1079,0.86336 0.4317,3.12967 0.3238,2.05047 0.4317,2.59006 l 0.3237,0.75544 q 0.5396,1.07919 0,2.26631 z m -7.6622,-26.44027 q -0.5396,-1.18712 -1.5109,-2.80591 -0.8634,-1.61879 -2.698,-3.02174 -1.9425,-1.40296 -2.8059,-1.94255 -0.7554,-0.32376 -3.1297,-0.97128 -2.3742,-0.64752 -3.0217,-0.64752 -0.9713,0 -3.0218,0.21584 -1.7267,0.10792 -3.7771,0.97128 -2.0505,0.86335 -3.2376,1.94255 -1.1871,0.97127 -2.2663,2.59007 -0.9713,1.72671 -1.5109,4.31678 -0.5396,2.69798 -0.2158,6.47516 0.4316,3.8851 1.1871,6.47517 0.9712,2.69799 1.6188,4.53262 0.6475,1.61879 0.9712,2.37423 0.4317,0.64751 1.5109,2.05047 0.9713,1.29503 2.698,2.48215 1.7267,1.18711 3.2376,1.72671 1.8346,0.64751 2.4821,0.75543 0.6475,0.21584 1.2951,0.32376 0.4316,0.10792 1.4029,0.10792 0.9713,0 1.5109,-0.21584 0.6475,-0.10792 1.4029,-0.53959 0.5396,-0.32376 1.2951,-1.0792 0.9712,-1.18711 2.1584,-2.69799 1.0792,-1.51087 1.6188,-2.59006 0.5396,-1.0792 0.8633,-2.15839 0.4317,-1.18712 0.5396,-1.83463 0.1079,-0.43168 0.1079,-0.86336 l 0,-0.75544 q 0,-1.72671 1.6188,-2.59006 0,0 0,-0.10792 -0.1079,-2.80591 -0.2158,-4.10094 0,-1.29504 -0.1079,-2.48215 0,-1.40295 0,-4.85638 0,-0.53959 0,-1.07919 z"
             style="font-style:normal;font-variant:normal;font-weight:500;font-stretch:normal;font-size:medium;line-height:125%;font-family:'Dudu Calligraphy';-inkscape-font-specification:'Dudu Calligraphy Medium';letter-spacing:13.27998638px;word-spacing:0px;fill:#ffdd55;fill-opacity:1;stroke:none;stroke-width:1px;stroke-linecap:butt;stroke-linejoin:miter;stroke-opacity:1"
             id="path8114"
             inkscape:connector-curvature="0" />
        </g>
      </g>
    </g>
  </g>
</svg>
