<?xml version="1.0" encoding="utf-8"?>
<!-- Generator: Adobe Illustrator 16.0.0, SVG Export Plug-In . SVG Version: 6.00 Build 0)  -->
<!DOCTYPE svg PUBLIC "-//W3C//DTD SVG 1.1//EN" "http://www.w3.org/Graphics/SVG/1.1/DTD/svg11.dtd" [
	<!ENTITY ns_extend "http://ns.adobe.com/Extensibility/1.0/">
	<!ENTITY ns_ai "http://ns.adobe.com/AdobeIllustrator/10.0/">
	<!ENTITY ns_graphs "http://ns.adobe.com/Graphs/1.0/">
	<!ENTITY ns_vars "http://ns.adobe.com/Variables/1.0/">
	<!ENTITY ns_imrep "http://ns.adobe.com/ImageReplacement/1.0/">
	<!ENTITY ns_sfw "http://ns.adobe.com/SaveForWeb/1.0/">
	<!ENTITY ns_custom "http://ns.adobe.com/GenericCustomNamespace/1.0/">
	<!ENTITY ns_adobe_xpath "http://ns.adobe.com/XPath/1.0/">
]>
<svg version="1.1" id="Layer_1" xmlns:x="&ns_extend;" xmlns:i="&ns_ai;" xmlns:graph="&ns_graphs;"
	 xmlns="http://www.w3.org/2000/svg" xmlns:xlink="http://www.w3.org/1999/xlink" x="0px" y="0px" width="792px" height="612px"
	 viewBox="0 0 792 612" enable-background="new 0 0 792 612" xml:space="preserve">
<metadata>
	<sfw  xmlns="&ns_sfw;">
		<slices></slices>
		<sliceSourceBounds  width="701.344" height="558.318" x="44.385" y="-585.159" bottomLeftOrigin="true"></sliceSourceBounds>
	</sfw>
</metadata>
<path d="M701.463,563.144v8.016c0,3.432,0.057,5.828,0.158,7.197c0.109,1.365,0.375,2.232,0.801,2.596
	c0.424,0.363,1.023,0.621,1.797,0.775c0.775,0.15,2.012,0.225,3.713,0.225c1.457,0,2.582-0.074,3.369-0.225
	c0.791-0.154,1.445-0.502,1.961-1.051c0.271-0.303,0.531-0.719,0.773-1.252c0.242-0.529,0.379-1.023,0.412-1.48
	c0.059-0.455,0.225-0.682,0.498-0.682c0.242,0,0.363,0.258,0.363,0.775c0,0.15-0.014,0.418-0.043,0.797
	c-0.031,0.377-0.082,0.887-0.16,1.523s-0.152,1.209-0.227,1.709c-0.076,0.502-0.16,0.902-0.252,1.207
	c-0.152,0.516-0.379,0.85-0.682,1.002c-0.305,0.15-1.033,0.229-2.189,0.229c-1.639,0-3.064-0.012-4.279-0.035
	s-2.645-0.057-4.281-0.104c-2.035-0.061-3.598-0.09-4.691-0.09c-0.242,0-0.955,0.016-2.141,0.045
	c-1.764,0.031-2.961,0.045-3.598,0.045c-0.607,0-0.912-0.15-0.912-0.455c0-0.244,0.244-0.365,0.729-0.365
	c0.547,0,1.094-0.059,1.639-0.18c0.426-0.092,0.721-0.336,0.891-0.73c0.166-0.393,0.309-0.986,0.432-1.775
	c0.09-0.881,0.152-2.041,0.182-3.482c0.031-1.445,0.047-3.516,0.047-6.219v-8.016v-7.012c0-1.004-0.033-1.883-0.094-2.643
	c-0.061-0.82-0.221-1.42-0.479-1.799c-0.258-0.381-0.75-0.645-1.479-0.797c-0.363-0.092-0.865-0.137-1.502-0.137
	c-0.516,0-0.775-0.137-0.775-0.41s0.334-0.41,1-0.41c0.732,0,2.037,0.031,3.92,0.092c1.273,0.029,2.047,0.045,2.322,0.045
	c0.244,0,1.047-0.016,2.414-0.045c1.943-0.061,3.203-0.092,3.779-0.092c0.639,0,0.957,0.137,0.957,0.41s-0.271,0.41-0.82,0.41
	c-0.637,0-1.229,0.045-1.777,0.137c-0.604,0.121-1.021,0.379-1.25,0.773s-0.371,1.002-0.432,1.822
	c-0.061,0.76-0.094,1.639-0.094,2.643V563.144z M671.195,571.159v-8.016v-7.012c0-1.004-0.031-1.883-0.09-2.643
	c-0.094-1.488-0.609-2.338-1.551-2.549c-0.455-0.123-1-0.184-1.639-0.184c-0.484,0-0.729-0.152-0.729-0.455
	c0-0.244,0.365-0.365,1.092-0.365c0.576,0,1.688,0.031,3.328,0.092c1.287,0.029,2.158,0.045,2.619,0.045
	c0.367,0,1.117-0.016,2.25-0.045c1.582-0.061,2.689-0.092,3.328-0.092c0.637,0,0.957,0.121,0.957,0.365
	c0,0.303-0.242,0.455-0.73,0.455c-0.363,0-0.82,0.045-1.363,0.137c-0.609,0.121-1.027,0.379-1.254,0.773
	c-0.229,0.395-0.373,1.002-0.434,1.822c-0.063,0.76-0.09,1.639-0.09,2.643v7.012v8.016c0,2.824,0.004,4.971,0.021,6.445
	c0.016,1.473,0.068,2.648,0.158,3.529c0.092,0.699,0.258,1.221,0.502,1.57c0.242,0.35,0.682,0.57,1.32,0.662l1.139,0.113
	c0.426,0.045,0.82,0.066,1.186,0.066c0.486,0,0.727,0.121,0.727,0.365c0,0.305-0.285,0.455-0.865,0.455
	c-1.273,0-2.945-0.027-5.016-0.09c-0.979-0.031-1.684-0.047-2.111-0.047c-0.246,0-0.965,0.016-2.158,0.047
	c-1.766,0.063-2.965,0.09-3.602,0.09c-0.609,0-0.912-0.15-0.912-0.455c0-0.244,0.24-0.365,0.729-0.365
	c0.547,0,1.092-0.059,1.641-0.18c0.727-0.152,1.168-0.912,1.32-2.279c0.09-0.879,0.152-2.055,0.18-3.527
	C671.182,576.085,671.195,573.952,671.195,571.159z M628.871,564.421h17.4c0.184,0,0.271-0.107,0.271-0.32v-0.957v-7.012
	c0-1.004-0.027-1.883-0.088-2.643c-0.061-0.82-0.221-1.42-0.479-1.799c-0.26-0.381-0.754-0.645-1.48-0.797
	c-0.367-0.092-0.957-0.137-1.777-0.137c-0.518,0-0.775-0.137-0.775-0.41s0.318-0.41,0.955-0.41c1.035,0,2.479,0.031,4.33,0.092
	c1.123,0.029,1.865,0.045,2.23,0.045c0.244,0,0.986-0.016,2.232-0.045c1.762-0.061,2.93-0.092,3.506-0.092
	c0.639,0,0.959,0.137,0.959,0.41s-0.275,0.41-0.82,0.41c-0.336,0-0.777,0.045-1.32,0.137c-0.609,0.121-1.027,0.379-1.254,0.773
	s-0.373,1.002-0.434,1.822c-0.061,0.76-0.09,1.639-0.09,2.643v7.012v8.016c0,2.703,0.016,4.773,0.045,6.219
	c0.031,1.441,0.092,2.617,0.182,3.529c0.094,0.727,0.252,1.299,0.48,1.705c0.227,0.41,0.658,0.662,1.295,0.754l1.139,0.113
	c0.428,0.045,0.82,0.066,1.188,0.066c0.484,0,0.727,0.121,0.727,0.365c0,0.305-0.303,0.455-0.91,0.455
	c-1.215,0-2.855-0.027-4.92-0.09c-1.033-0.031-1.76-0.047-2.186-0.047c-0.244,0-0.957,0.016-2.141,0.047
	c-1.76,0.063-2.945,0.09-3.553,0.09c-0.639,0-0.957-0.15-0.957-0.455c0-0.244,0.244-0.365,0.729-0.365
	c0.547,0,1.094-0.059,1.641-0.18c0.426-0.092,0.721-0.336,0.887-0.73c0.168-0.393,0.314-0.986,0.434-1.775
	c0.092-0.881,0.152-2.041,0.184-3.482c0.029-1.445,0.043-3.516,0.043-6.219v-4.008c0-0.18-0.088-0.271-0.271-0.271h-17.4
	c-0.182,0-0.273,0.092-0.273,0.271v4.008c0,2.703,0.016,4.773,0.047,6.219c0.027,1.441,0.09,2.617,0.184,3.529
	c0.088,0.727,0.248,1.299,0.477,1.705c0.229,0.41,0.662,0.662,1.299,0.754l1.139,0.113c0.422,0.045,0.818,0.066,1.182,0.066
	c0.488,0,0.732,0.121,0.732,0.365c0,0.305-0.305,0.455-0.912,0.455c-1.217,0-2.855-0.027-4.92-0.09
	c-1.031-0.031-1.762-0.047-2.188-0.047c-0.24,0-0.955,0.016-2.139,0.047c-1.764,0.063-2.963,0.09-3.6,0.09
	c-0.605,0-0.91-0.15-0.91-0.455c0-0.244,0.244-0.365,0.727-0.365c0.549,0,1.094-0.059,1.641-0.18
	c0.426-0.092,0.723-0.336,0.891-0.73c0.164-0.393,0.309-0.986,0.432-1.775c0.092-0.881,0.15-2.041,0.182-3.482
	c0.029-1.445,0.045-3.516,0.045-6.219v-8.016v-7.012c0-1.004-0.029-1.883-0.092-2.643c-0.061-0.82-0.219-1.42-0.477-1.799
	c-0.258-0.381-0.75-0.645-1.482-0.797c-0.363-0.092-0.955-0.137-1.775-0.137c-0.516,0-0.773-0.137-0.773-0.41s0.318-0.41,0.955-0.41
	c1.033,0,2.475,0.031,4.326,0.092c1.125,0.029,1.871,0.045,2.234,0.045c0.242,0,0.986-0.016,2.23-0.045
	c1.762-0.061,2.934-0.092,3.51-0.092c0.637,0,0.955,0.137,0.955,0.41s-0.273,0.41-0.82,0.41c-0.332,0-0.773,0.045-1.32,0.137
	c-0.607,0.121-1.025,0.379-1.252,0.773c-0.23,0.395-0.373,1.002-0.434,1.822c-0.059,0.76-0.092,1.639-0.092,2.643v7.012v0.957
	C628.598,564.313,628.689,564.421,628.871,564.421z M595.602,585.153c-3.869,0-7.342-0.471-10.418-1.41
	c-3.074-0.943-5.805-2.443-8.193-4.506c-2.459-2.17-4.197-4.629-5.209-7.377c-1.014-2.75-1.52-5.625-1.52-8.627
	c0-1.049,0.098-2.18,0.301-3.393c0.195-1.211,0.531-2.486,1.002-3.824c0.469-1.338,1.121-2.668,1.953-3.99
	c0.832-1.318,1.863-2.539,3.094-3.66c2.061-1.883,4.467-3.309,7.217-4.287c2.748-0.977,6.061-1.465,9.93-1.465
	c1.557,0,2.914,0.045,4.07,0.137c1.158,0.088,2.424,0.225,3.797,0.408c0.615,0.07,1.539,0.234,2.77,0.486
	c1.191,0.217,2.078,0.361,2.66,0.434c0.541,0.035,0.813,0.254,0.813,0.652c0,0.107-0.02,0.326-0.055,0.648
	c-0.107,0.725-0.182,1.502-0.217,2.334c-0.035,0.652-0.055,1.684-0.055,3.094c-0.037,1.52-0.072,2.441-0.107,2.766
	c-0.037,0.832-0.254,1.25-0.652,1.25c-0.359,0-0.543-0.398-0.543-1.193c-0.035-0.869-0.234-1.746-0.596-2.635
	c-0.361-0.885-0.869-1.67-1.518-2.357c-0.906-0.977-2.363-1.781-4.369-2.416c-2.01-0.633-4.225-0.949-6.646-0.949
	c-2.281,0-4.242,0.281-5.891,0.842c-1.645,0.561-3.082,1.4-4.314,2.523c-1.842,1.699-3.137,3.725-3.879,6.076
	c-0.744,2.352-1.113,5.01-1.113,7.977c0,3.074,0.525,5.832,1.574,8.273c1.051,2.443,2.424,4.477,4.125,6.104
	c1.699,1.629,3.553,2.859,5.561,3.689c2.01,0.834,3.953,1.25,5.836,1.25c2.568,0,4.602-0.209,6.102-0.625
	c1.504-0.416,2.777-1.221,3.826-2.416c0.436-0.469,0.824-1.047,1.166-1.734c0.346-0.689,0.572-1.303,0.68-1.846
	c0.07-0.432,0.156-0.723,0.244-0.867c0.09-0.146,0.244-0.217,0.463-0.217c0.324,0,0.486,0.27,0.486,0.814
	c0,0.18-0.035,0.578-0.107,1.191c-0.072,0.615-0.162,1.275-0.271,1.98c-0.107,0.707-0.234,1.438-0.381,2.199
	c-0.143,0.76-0.287,1.373-0.434,1.844c-0.145,0.469-0.299,0.805-0.461,1.004s-0.48,0.389-0.949,0.57
	c-1.051,0.398-2.48,0.705-4.287,0.922C599.275,585.046,597.449,585.153,595.602,585.153z M524.379,571.159v-8.016v-7.012
	c0-1.004-0.031-1.883-0.092-2.643c-0.061-0.82-0.221-1.42-0.479-1.799c-0.258-0.381-0.75-0.645-1.48-0.797
	c-0.363-0.092-0.957-0.137-1.777-0.137c-0.516,0-0.773-0.137-0.773-0.41s0.332-0.41,1.004-0.41c0.758,0,2.17,0.047,4.234,0.137
	h2.322c7.016,0,10.811-0.016,11.387-0.045c1.002-0.123,1.656-0.213,1.959-0.275c0.061,0,0.152-0.027,0.273-0.088
	c0.215-0.061,0.363-0.092,0.455-0.092c0.184,0,0.275,0.137,0.275,0.41c0,0.061-0.016,0.197-0.047,0.408
	c-0.15,0.76-0.258,1.609-0.32,2.553l-0.043,0.955l-0.092,1.207c-0.031,0.381-0.061,0.662-0.092,0.842
	c-0.059,0.336-0.213,0.502-0.455,0.502c-0.273,0-0.41-0.213-0.41-0.639c0-0.242-0.023-0.518-0.07-0.82
	c-0.045-0.301-0.111-0.576-0.203-0.82c-0.184-0.453-0.475-0.811-0.869-1.068c-0.398-0.26-1.131-0.447-2.197-0.568
	c-0.182-0.031-0.527-0.055-1.029-0.07l-2.174-0.066c-1.402-0.033-2.498-0.047-3.293-0.047c-0.213,0-0.322,0.152-0.322,0.455v11.521
	c0,0.336,0.109,0.502,0.322,0.502c1.371,0,2.814-0.008,4.324-0.023c1.51-0.014,2.508-0.037,2.994-0.066
	c1.131-0.094,1.861-0.318,2.197-0.684c0.35-0.428,0.578-0.594,0.73-0.594c0.213,0,0.318,0.123,0.318,0.365
	c0,0.031-0.016,0.168-0.043,0.41c-0.156,0.813-0.258,1.768-0.32,2.869l-0.113,1.617c-0.045,0.682-0.068,1.16-0.068,1.436
	c0,0.271-0.023,0.484-0.07,0.637c-0.045,0.15-0.16,0.227-0.34,0.227c-0.275,0-0.41-0.135-0.41-0.41c0-0.09-0.014-0.227-0.047-0.41
	c-0.029-0.516-0.076-0.926-0.137-1.23c-0.121-0.484-0.381-0.879-0.777-1.184c-0.398-0.301-0.992-0.498-1.787-0.59
	c-0.182-0.031-0.563-0.055-1.143-0.068c-0.58-0.016-1.252-0.023-2.016-0.023h-3.338c-0.184,0-0.277,0.15-0.277,0.455v3.598v7.059
	c0.031,0.852,0.115,1.512,0.254,1.98c0.137,0.473,0.395,0.844,0.775,1.117c0.383,0.273,0.916,0.463,1.602,0.57
	c0.684,0.105,1.639,0.16,2.859,0.16c0.914,0,1.729-0.033,2.443-0.094s1.334-0.211,1.852-0.455c0.58-0.271,1.029-0.668,1.348-1.184
	c0.324-0.516,0.559-1.244,0.711-2.186c0.092-0.455,0.258-0.684,0.502-0.684c0.152,0,0.25,0.063,0.295,0.182
	c0.045,0.121,0.068,0.334,0.068,0.637c0,0.244-0.014,0.586-0.045,1.027c-0.031,0.439-0.084,0.955-0.16,1.547
	s-0.143,1.094-0.203,1.504c-0.061,0.408-0.121,0.736-0.184,0.98c-0.152,0.576-0.365,0.916-0.637,1.023
	c-0.273,0.105-0.881,0.16-1.824,0.16c-1.82,0-3.355-0.012-4.598-0.035c-1.246-0.023-2.766-0.057-4.557-0.104
	c-1.607-0.061-2.764-0.09-3.461-0.09c-0.242,0-0.957,0.016-2.141,0.045c-1.762,0.031-2.963,0.045-3.6,0.045
	c-0.607,0-0.91-0.15-0.91-0.455c0-0.244,0.244-0.365,0.727-0.365c0.549,0,1.096-0.059,1.641-0.18
	c0.428-0.092,0.723-0.336,0.889-0.73c0.166-0.393,0.313-0.986,0.434-1.775c0.09-0.881,0.15-2.041,0.184-3.482
	C524.361,575.933,524.379,573.862,524.379,571.159z M483.805,562.415v5.74c0,2.457,0.01,4.492,0.023,6.1
	c0.018,1.611,0.039,2.645,0.07,3.1c0.029,0.789,0.082,1.508,0.16,2.162c0.074,0.654,0.188,1.086,0.34,1.299
	c0.336,0.484,1.004,0.912,2.004,1.275c1.004,0.363,2.324,0.545,3.963,0.545c2.338,0,4.334-0.25,5.988-0.75
	c1.658-0.5,3.152-1.344,4.488-2.527c1.367-1.184,2.346-2.734,2.938-4.646s0.891-4.146,0.891-6.695c0-2.611-0.436-4.881-1.299-6.807
	c-0.867-1.93-1.891-3.455-3.074-4.58c-1.004-0.939-2.068-1.721-3.188-2.344c-1.125-0.623-2.256-1.092-3.395-1.41
	s-2.217-0.533-3.234-0.639c-1.018-0.107-2.059-0.158-3.121-0.158c-0.486,0-1.055,0.027-1.707,0.088
	c-0.654,0.063-1.07,0.137-1.254,0.23c-0.363,0.15-0.547,0.455-0.547,0.91C483.822,554.339,483.805,557.376,483.805,562.415z
	 M478.115,571.159v-8.016v-7.012c0-1.004-0.033-1.883-0.094-2.643c-0.061-0.82-0.221-1.42-0.479-1.799
	c-0.258-0.381-0.75-0.645-1.479-0.797c-0.363-0.092-0.959-0.137-1.777-0.137c-0.518,0-0.775-0.137-0.775-0.41s0.336-0.41,1.004-0.41
	c0.758,0,2.17,0.031,4.236,0.092c1.182,0.029,1.957,0.045,2.32,0.045c0.428,0,1.232-0.016,2.414-0.045
	c2.156-0.061,3.689-0.092,4.604-0.092c1.973,0,3.68,0.037,5.123,0.115c1.441,0.074,2.953,0.271,4.533,0.59
	c1.578,0.318,3.113,0.838,4.598,1.549c1.488,0.713,2.824,1.693,4.008,2.938c1.309,1.336,2.371,2.977,3.191,4.92
	c0.816,1.943,1.23,4.16,1.23,6.648c0,2.672-0.475,5.094-1.414,7.264s-2.125,3.984-3.553,5.441c-0.607,0.609-1.344,1.215-2.211,1.824
	c-0.861,0.607-1.926,1.184-3.188,1.73c-1.26,0.545-2.719,0.986-4.373,1.32s-3.482,0.5-5.486,0.5c-0.791,0-1.617-0.021-2.482-0.068
	c-0.867-0.045-1.953-0.129-3.258-0.25c-1.973-0.152-3.295-0.229-3.961-0.229c-0.244,0-0.959,0.016-2.143,0.047
	c-1.762,0.063-2.959,0.09-3.6,0.09c-0.605,0-0.91-0.15-0.91-0.455c0-0.244,0.244-0.365,0.73-0.365c0.545,0,1.094-0.059,1.637-0.18
	c0.428-0.092,0.723-0.336,0.891-0.73c0.168-0.393,0.311-0.986,0.432-1.775c0.092-0.881,0.152-2.041,0.184-3.482
	C478.098,575.933,478.115,573.862,478.115,571.159z M419.586,562.415v5.74c0,2.457,0.006,4.492,0.021,6.1
	c0.018,1.611,0.037,2.645,0.068,3.1c0.031,0.789,0.084,1.508,0.16,2.162c0.074,0.654,0.189,1.086,0.342,1.299
	c0.332,0.484,1.002,0.912,2.004,1.275c1,0.363,2.322,0.545,3.963,0.545c2.34,0,4.334-0.25,5.99-0.75
	c1.654-0.5,3.15-1.344,4.486-2.527c1.363-1.184,2.344-2.734,2.938-4.646c0.592-1.912,0.887-4.146,0.887-6.695
	c0-2.611-0.43-4.881-1.297-6.807c-0.865-1.93-1.891-3.455-3.076-4.58c-1-0.939-2.063-1.721-3.188-2.344s-2.254-1.092-3.393-1.41
	c-1.141-0.318-2.219-0.533-3.234-0.639c-1.018-0.107-2.059-0.158-3.121-0.158c-0.484,0-1.055,0.027-1.707,0.088
	c-0.652,0.063-1.07,0.137-1.252,0.23c-0.365,0.15-0.547,0.455-0.547,0.91C419.602,554.339,419.586,557.376,419.586,562.415z
	 M413.891,571.159v-8.016v-7.012c0-1.004-0.029-1.883-0.088-2.643c-0.061-0.82-0.221-1.42-0.48-1.799
	c-0.258-0.381-0.752-0.645-1.479-0.797c-0.367-0.092-0.957-0.137-1.777-0.137c-0.516,0-0.773-0.137-0.773-0.41s0.332-0.41,1-0.41
	c0.758,0,2.172,0.031,4.236,0.092c1.186,0.029,1.959,0.045,2.324,0.045c0.422,0,1.229-0.016,2.414-0.045
	c2.154-0.061,3.689-0.092,4.6-0.092c1.973,0,3.682,0.037,5.123,0.115c1.443,0.074,2.953,0.271,4.533,0.59
	c1.578,0.318,3.111,0.838,4.6,1.549c1.488,0.713,2.824,1.693,4.008,2.938c1.307,1.336,2.369,2.977,3.189,4.92
	c0.818,1.943,1.229,4.16,1.229,6.648c0,2.672-0.469,5.094-1.41,7.264c-0.943,2.17-2.127,3.984-3.553,5.441
	c-0.607,0.609-1.346,1.215-2.209,1.824c-0.867,0.607-1.932,1.184-3.189,1.73c-1.258,0.545-2.717,0.986-4.371,1.32
	s-3.488,0.5-5.488,0.5c-0.793,0-1.617-0.021-2.484-0.068c-0.865-0.045-1.951-0.129-3.256-0.25c-1.975-0.152-3.295-0.229-3.963-0.229
	c-0.244,0-0.957,0.016-2.143,0.047c-1.758,0.063-2.959,0.09-3.596,0.09c-0.609,0-0.912-0.15-0.912-0.455
	c0-0.244,0.242-0.365,0.729-0.365c0.547,0,1.094-0.059,1.641-0.18c0.422-0.092,0.721-0.336,0.887-0.73
	c0.168-0.393,0.313-0.986,0.434-1.775c0.092-0.881,0.152-2.041,0.18-3.482C413.877,575.933,413.891,573.862,413.891,571.159z
	 M380.744,570.202h8.383c0.152,0,0.227-0.09,0.227-0.271l-4.1-11.25c-0.061-0.287-0.135-0.41-0.227-0.41
	c-0.123,0-0.213,0.137-0.273,0.41l-4.191,11.203C380.563,570.097,380.625,570.202,380.744,570.202z M389.992,572.481h-10.158
	c-0.182,0-0.318,0.119-0.41,0.363l-2.459,6.514c-0.455,1.121-0.684,2.047-0.684,2.777c0,0.453,0.137,0.805,0.41,1.047
	c0.273,0.244,0.744,0.363,1.412,0.363h0.684c0.455,0,0.684,0.121,0.684,0.365c0,0.305-0.258,0.455-0.775,0.455h-2.459
	c-1.184-0.061-1.975-0.09-2.369-0.09c-0.09,0-0.424,0.016-1.002,0.045c-0.455,0-1.1,0.008-1.936,0.023
	c-0.834,0.014-1.646,0.021-2.438,0.021c-0.576,0-0.865-0.15-0.865-0.455c0-0.244,0.184-0.365,0.547-0.365
	c0.455,0,0.926-0.027,1.412-0.09c0.973-0.121,1.73-0.508,2.277-1.162c0.547-0.65,1.078-1.631,1.594-2.936l11.434-28.602
	c0.273-0.699,0.5-1.176,0.682-1.434c0.184-0.258,0.381-0.387,0.594-0.387c0.334,0,0.713,0.484,1.139,1.455
	c0.213,0.457,0.668,1.564,1.365,3.326l2.732,6.875l4.352,10.816l1.207,3.006c0.516,1.291,1.063,2.619,1.641,3.986
	c0.758,1.82,1.457,3.066,2.094,3.734c0.639,0.668,1.275,1.078,1.914,1.23c0.605,0.121,1.244,0.18,1.912,0.18
	c0.393,0,0.592,0.121,0.592,0.365c0,0.184-0.137,0.305-0.41,0.365c-0.271,0.063-0.834,0.09-1.684,0.09h-3.988
	c-1.289,0-2.83-0.027-4.621-0.09h-0.184c-0.789-0.061-1.184-0.182-1.184-0.365c0-0.244,0.213-0.379,0.639-0.41
	c0.334-0.092,0.5-0.318,0.5-0.682c0-0.121-0.029-0.244-0.09-0.365l-3.645-9.654C390.355,572.587,390.205,572.481,389.992,572.481z
	 M337.078,562.415v5.74c0,2.457,0.006,4.492,0.021,6.1c0.016,1.611,0.039,2.645,0.068,3.1c0.029,0.789,0.084,1.508,0.158,2.162
	c0.076,0.654,0.191,1.086,0.344,1.299c0.334,0.484,1.002,0.912,2.004,1.275s2.322,0.545,3.963,0.545c2.338,0,4.334-0.25,5.988-0.75
	c1.656-0.5,3.15-1.344,4.486-2.527c1.367-1.184,2.346-2.734,2.938-4.646c0.594-1.912,0.889-4.146,0.889-6.695
	c0-2.611-0.432-4.881-1.297-6.807c-0.865-1.93-1.891-3.455-3.074-4.58c-1.002-0.939-2.066-1.721-3.189-2.344
	s-2.254-1.092-3.393-1.41s-2.217-0.533-3.234-0.639c-1.018-0.107-2.059-0.158-3.119-0.158c-0.486,0-1.057,0.027-1.709,0.088
	c-0.652,0.063-1.07,0.137-1.252,0.23c-0.365,0.15-0.547,0.455-0.547,0.91C337.092,554.339,337.078,557.376,337.078,562.415z
	 M331.383,571.159v-8.016v-7.012c0-1.004-0.029-1.883-0.09-2.643c-0.061-0.82-0.221-1.42-0.479-1.799
	c-0.258-0.381-0.752-0.645-1.48-0.797c-0.365-0.092-0.957-0.137-1.777-0.137c-0.516,0-0.773-0.137-0.773-0.41s0.334-0.41,1.002-0.41
	c0.76,0,2.17,0.031,4.236,0.092c1.184,0.029,1.959,0.045,2.322,0.045c0.426,0,1.23-0.016,2.414-0.045
	c2.156-0.061,3.689-0.092,4.6-0.092c1.975,0,3.684,0.037,5.125,0.115c1.443,0.074,2.953,0.271,4.531,0.59
	c1.58,0.318,3.113,0.838,4.602,1.549c1.488,0.713,2.824,1.693,4.008,2.938c1.305,1.336,2.369,2.977,3.189,4.92s1.23,4.16,1.23,6.648
	c0,2.672-0.473,5.094-1.414,7.264s-2.125,3.984-3.553,5.441c-0.605,0.609-1.344,1.215-2.209,1.824
	c-0.865,0.607-1.928,1.184-3.188,1.73c-1.26,0.545-2.719,0.986-4.373,1.32s-3.484,0.5-5.488,0.5c-0.791,0-1.617-0.021-2.482-0.068
	c-0.865-0.045-1.951-0.129-3.256-0.25c-1.975-0.152-3.297-0.229-3.965-0.229c-0.242,0-0.955,0.016-2.139,0.047
	c-1.762,0.063-2.961,0.09-3.6,0.09c-0.607,0-0.91-0.15-0.91-0.455c0-0.244,0.242-0.365,0.729-0.365c0.547,0,1.092-0.059,1.641-0.18
	c0.424-0.092,0.721-0.336,0.887-0.73c0.168-0.393,0.311-0.986,0.434-1.775c0.092-0.881,0.15-2.041,0.182-3.482
	C331.367,575.933,331.383,573.862,331.383,571.159z M306.809,571.159v-8.016v-7.012c0-1.004-0.029-1.883-0.092-2.643
	c-0.09-1.488-0.605-2.338-1.549-2.549c-0.455-0.123-1.002-0.184-1.639-0.184c-0.486,0-0.729-0.152-0.729-0.455
	c0-0.244,0.363-0.365,1.092-0.365c0.578,0,1.688,0.031,3.33,0.092c1.285,0.029,2.158,0.045,2.617,0.045
	c0.367,0,1.117-0.016,2.248-0.045c1.582-0.061,2.691-0.092,3.33-0.092c0.637,0,0.955,0.121,0.955,0.365
	c0,0.303-0.242,0.455-0.729,0.455c-0.363,0-0.82,0.045-1.365,0.137c-0.607,0.121-1.025,0.379-1.254,0.773
	c-0.227,0.395-0.371,1.002-0.432,1.822c-0.061,0.76-0.092,1.639-0.092,2.643v7.012v8.016c0,2.824,0.008,4.971,0.023,6.445
	c0.016,1.473,0.068,2.648,0.16,3.529c0.09,0.699,0.258,1.221,0.5,1.57s0.684,0.57,1.32,0.662l1.139,0.113
	c0.426,0.045,0.82,0.066,1.186,0.066c0.484,0,0.727,0.121,0.727,0.365c0,0.305-0.287,0.455-0.863,0.455
	c-1.275,0-2.947-0.027-5.018-0.09c-0.98-0.031-1.684-0.047-2.111-0.047c-0.246,0-0.965,0.016-2.158,0.047
	c-1.764,0.063-2.965,0.09-3.604,0.09c-0.607,0-0.912-0.15-0.912-0.455c0-0.244,0.244-0.365,0.73-0.365
	c0.545,0,1.092-0.059,1.639-0.18c0.729-0.152,1.17-0.912,1.322-2.279c0.09-0.879,0.15-2.055,0.182-3.527
	C306.793,576.085,306.809,573.952,306.809,571.159z M280.506,585.003c-1.336,0-2.537-0.088-3.598-0.271
	c-1.064-0.182-2.08-0.486-3.053-0.912c-0.363-0.152-0.6-0.324-0.707-0.521c-0.105-0.197-0.158-0.539-0.158-1.027
	c0-0.908,0.021-1.875,0.068-2.889c0.045-1.018,0.098-1.998,0.158-2.939v-0.137c0.061-0.789,0.244-1.184,0.547-1.184
	c0.182,0,0.305,0.068,0.365,0.205s0.09,0.324,0.09,0.568c0,0.275,0.039,0.623,0.115,1.049c0.074,0.424,0.174,0.85,0.295,1.273
	c0.486,1.58,1.314,2.74,2.484,3.486c1.168,0.742,2.512,1.115,4.029,1.115c1.914,0,3.408-0.531,4.486-1.594
	c1.078-1.064,1.617-2.264,1.617-3.6c0-1.275-0.305-2.473-0.91-3.596c-0.607-1.125-1.793-2.354-3.553-3.689l-2.096-1.641
	c-2.43-1.912-4.16-3.719-5.191-5.418c-1.033-1.701-1.551-3.492-1.551-5.375c0-2.52,0.973-4.586,2.916-6.193
	c1.943-1.609,4.479-2.414,7.607-2.414c1.305,0,2.436,0.074,3.393,0.227c0.955,0.152,1.844,0.336,2.664,0.547
	c0.426,0.09,0.639,0.273,0.639,0.547c0,0.123-0.016,0.363-0.047,0.727c-0.029,0.609-0.061,1.309-0.09,2.096
	c-0.031,0.791-0.045,1.672-0.045,2.645c0,0.908-0.168,1.363-0.502,1.363c-0.305,0-0.457-0.271-0.457-0.82
	c0-0.332-0.09-0.787-0.271-1.363s-0.486-1.125-0.912-1.641c-0.486-0.607-1.107-1.131-1.867-1.57
	c-0.758-0.441-1.791-0.662-3.098-0.662c-1.639,0-2.953,0.432-3.939,1.299c-0.986,0.865-1.48,1.998-1.48,3.395
	c0,1.061,0.342,2.072,1.025,3.027c0.684,0.957,1.951,2.133,3.803,3.529l1.275,0.957c2.732,2.123,4.662,4.053,5.785,5.785
	c1.123,1.729,1.686,3.672,1.686,5.828c0,1.488-0.334,2.93-1.002,4.326c-0.67,1.395-1.762,2.596-3.279,3.598
	c-1.064,0.668-2.203,1.146-3.416,1.436C283.117,584.86,281.842,585.003,280.506,585.003z M243.963,552.897v13.844
	c0,0.426,0.139,0.699,0.41,0.82c0.457,0.152,0.996,0.268,1.617,0.342c0.623,0.076,1.238,0.113,1.846,0.113
	c0.879,0,1.533-0.053,1.957-0.16c0.426-0.105,0.852-0.309,1.277-0.613c0.789-0.576,1.434-1.428,1.936-2.551
	c0.5-1.123,0.752-2.549,0.752-4.281c0-1.518-0.221-2.824-0.662-3.916c-0.439-1.094-1.018-1.965-1.73-2.619s-1.473-1.115-2.277-1.389
	s-1.57-0.408-2.301-0.408c-1.213,0-2.018,0.059-2.414,0.18C244.102,552.351,243.963,552.563,243.963,552.897z M238.59,571.159
	v-8.016v-7.012c0-1.004-0.031-1.883-0.092-2.643c-0.061-0.82-0.221-1.42-0.479-1.799c-0.258-0.381-0.75-0.645-1.48-0.797
	c-0.363-0.092-0.955-0.137-1.775-0.137c-0.518,0-0.775-0.137-0.775-0.41s0.334-0.41,1.002-0.41h1.801
	c0.561,0,1.434,0.016,2.617,0.047c1.064,0.027,1.672,0.045,1.822,0.045c0.547,0,1.67-0.031,3.371-0.092h3.053
	c1.699,0,3.24,0.137,4.623,0.41c1.381,0.273,2.635,0.789,3.756,1.549c0.76,0.516,1.465,1.336,2.119,2.459
	c0.652,1.123,0.979,2.383,0.979,3.781c0,1.789-0.447,3.492-1.342,5.1c-0.896,1.609-2.453,3.309-4.67,5.1l1.594,2.006
	c3.979,5.01,6.742,8.334,8.291,9.973c1.092,1.123,2.041,1.893,2.846,2.299c0.805,0.41,1.541,0.676,2.209,0.797
	c0.563,0.092,0.986,0.137,1.322,0.137c0.363,0,0.545,0.121,0.545,0.365c0,0.305-0.287,0.455-0.863,0.455h-4.328
	c-1.275,0-2.256-0.061-2.938-0.18c-0.684-0.123-1.33-0.35-1.938-0.686c-0.91-0.484-1.822-1.23-2.732-2.23
	c-0.91-1.002-2.08-2.49-3.508-4.463c-0.605-0.82-1.381-1.914-2.322-3.279l-1.617-2.254c-0.227-0.318-0.416-0.57-0.568-0.752
	c-0.182-0.215-0.455-0.32-0.82-0.32l-3.963-0.09c-0.242,0-0.365,0.121-0.365,0.365v0.637c0,2.703,0.016,4.781,0.047,6.24
	c0.029,1.457,0.092,2.625,0.182,3.506c0.092,0.76,0.25,1.346,0.479,1.752c0.229,0.41,0.66,0.662,1.297,0.754
	c0.365,0.029,0.754,0.066,1.164,0.113c0.408,0.045,0.766,0.066,1.068,0.066c0.365,0,0.547,0.121,0.547,0.365
	c0,0.305-0.303,0.455-0.91,0.455s-1.244-0.008-1.912-0.021l-3.326-0.068c-0.76-0.031-1.244-0.047-1.457-0.047
	c-0.244,0-0.865,0.016-1.867,0.047c-1.641,0.063-2.871,0.09-3.689,0.09c-0.609,0-0.912-0.15-0.912-0.455
	c0-0.244,0.244-0.365,0.729-0.365c0.547,0,1.094-0.059,1.641-0.18c0.424-0.092,0.721-0.336,0.887-0.73
	c0.168-0.393,0.313-0.986,0.434-1.775c0.092-0.881,0.152-2.041,0.182-3.482C238.574,575.933,238.59,573.862,238.59,571.159z
	 M205.813,571.159v-8.016v-7.012c0-1.004-0.029-1.883-0.09-2.643c-0.061-0.82-0.221-1.42-0.479-1.799
	c-0.258-0.381-0.752-0.645-1.48-0.797c-0.365-0.092-0.957-0.137-1.777-0.137c-0.516,0-0.773-0.137-0.773-0.41s0.334-0.41,1.002-0.41
	c0.76,0,2.172,0.047,4.236,0.137h2.324h11.387c1.002-0.121,1.654-0.211,1.957-0.273c0.063,0,0.152-0.029,0.273-0.09
	c0.213-0.063,0.365-0.092,0.457-0.092c0.182,0,0.271,0.135,0.271,0.41c0,0.061-0.014,0.193-0.045,0.402
	c-0.152,0.744-0.258,1.582-0.318,2.514l-0.047,0.955l-0.09,1.207c-0.031,0.381-0.061,0.662-0.092,0.842
	c-0.061,0.336-0.213,0.502-0.455,0.502c-0.273,0-0.41-0.213-0.41-0.639c0-0.242-0.021-0.518-0.068-0.82
	c-0.047-0.301-0.115-0.576-0.205-0.82c-0.184-0.453-0.473-0.811-0.871-1.068c-0.395-0.26-1.127-0.447-2.195-0.568
	c-0.184-0.031-0.525-0.055-1.029-0.07l-2.174-0.066c-1.402-0.033-2.5-0.047-3.293-0.047c-0.215,0-0.32,0.152-0.32,0.455v11.521
	c0,0.336,0.105,0.502,0.32,0.502c1.371,0,2.813-0.008,4.322-0.023c1.51-0.014,2.51-0.037,2.996-0.066
	c1.129-0.094,1.861-0.318,2.197-0.684c0.35-0.428,0.578-0.594,0.73-0.594c0.213,0,0.318,0.123,0.318,0.365
	c0,0.031-0.016,0.168-0.045,0.41c-0.152,0.813-0.258,1.768-0.318,2.869l-0.115,1.617c-0.045,0.682-0.068,1.16-0.068,1.436
	c0,0.271-0.021,0.484-0.068,0.637c-0.045,0.15-0.158,0.227-0.34,0.227c-0.273,0-0.41-0.135-0.41-0.41c0-0.09-0.016-0.227-0.047-0.41
	c-0.029-0.516-0.076-0.926-0.137-1.23c-0.121-0.484-0.381-0.879-0.777-1.184c-0.396-0.301-0.992-0.498-1.785-0.59
	c-0.184-0.031-0.564-0.055-1.145-0.068c-0.58-0.016-1.252-0.023-2.014-0.023h-3.342c-0.182,0-0.273,0.15-0.273,0.455v3.598v7.059
	c0.029,0.852,0.113,1.512,0.25,1.98c0.137,0.473,0.396,0.844,0.777,1.117c0.383,0.273,0.916,0.463,1.602,0.57
	c0.686,0.105,1.637,0.16,2.857,0.16c0.914,0,1.73-0.033,2.445-0.094c0.717-0.061,1.334-0.211,1.852-0.455
	c0.58-0.271,1.031-0.668,1.35-1.184c0.32-0.516,0.557-1.244,0.709-2.186c0.092-0.455,0.258-0.684,0.502-0.684
	c0.15,0,0.25,0.063,0.295,0.182c0.045,0.121,0.068,0.334,0.068,0.637c0,0.244-0.016,0.586-0.045,1.027
	c-0.031,0.439-0.084,0.955-0.16,1.547s-0.145,1.094-0.205,1.504c-0.061,0.408-0.121,0.736-0.182,0.98
	c-0.152,0.576-0.365,0.916-0.639,1.023c-0.273,0.105-0.879,0.16-1.82,0.16c-1.822,0-3.357-0.012-4.602-0.035
	c-1.246-0.023-2.764-0.057-4.555-0.104c-1.609-0.061-2.764-0.09-3.461-0.09c-0.244,0-0.957,0.016-2.143,0.045
	c-1.76,0.031-2.959,0.045-3.598,0.045c-0.607,0-0.91-0.15-0.91-0.455c0-0.244,0.242-0.365,0.729-0.365
	c0.547,0,1.094-0.059,1.641-0.18c0.424-0.092,0.721-0.336,0.889-0.73c0.166-0.393,0.311-0.986,0.432-1.775
	c0.09-0.881,0.15-2.041,0.182-3.482C205.799,575.933,205.813,573.862,205.813,571.159z M176.115,582.226l-11.479-27.826
	c-0.486-1.184-0.965-1.994-1.436-2.436s-1.146-0.783-2.027-1.023c-0.303-0.092-0.6-0.146-0.889-0.16
	c-0.287-0.016-0.584-0.023-0.887-0.023c-0.365,0-0.547-0.137-0.547-0.41c0-0.152,0.098-0.258,0.295-0.318
	c0.199-0.061,0.494-0.092,0.889-0.092c0.881,0,2.201,0.031,3.963,0.092c1.244,0.029,2.127,0.045,2.643,0.045
	c0.334,0,0.955-0.016,1.867-0.045c1.518-0.061,2.764-0.092,3.734-0.092c0.305,0,0.555,0.031,0.752,0.092s0.297,0.166,0.297,0.318
	c0,0.273-0.229,0.41-0.684,0.41c-0.912,0-1.504,0.105-1.777,0.318c-0.303,0.211-0.455,0.529-0.455,0.957
	c0,0.545,0.35,1.715,1.047,3.506l7.836,20.676h0.182l3.508-8.836c0.395-0.969,1.039-2.572,1.936-4.805
	c0.895-2.23,1.465-3.656,1.707-4.279l0.957-2.482l0.865-2.277c0.273-0.699,0.41-1.258,0.41-1.686c0-0.455-0.197-0.742-0.592-0.865
	c-0.455-0.152-1.063-0.227-1.822-0.227c-0.518,0-0.775-0.121-0.775-0.365c0-0.303,0.426-0.455,1.275-0.455
	c1.033,0,2.293,0.031,3.781,0.092c0.486,0.029,0.82,0.045,1.002,0.045s0.713-0.016,1.594-0.045c1.336-0.061,2.232-0.092,2.688-0.092
	c0.639,0,0.957,0.137,0.957,0.41s-0.242,0.41-0.729,0.41c-0.396,0-0.773,0.031-1.139,0.092s-0.729,0.213-1.094,0.455
	c-0.334,0.242-0.691,0.652-1.07,1.23c-0.381,0.576-0.857,1.531-1.436,2.867l-1.389,3.234c-0.471,1.094-0.979,2.246-1.525,3.461
	c-0.973,2.094-1.822,3.979-2.551,5.648c-1.367,3.096-2.779,6.344-4.236,9.744l-1.82,4.145l-0.275,0.549
	c-0.516,1.184-0.879,1.949-1.092,2.299s-0.455,0.521-0.729,0.521c-0.275,0-0.51-0.172-0.707-0.521S176.6,583.38,176.115,582.226z
	 M144.252,571.159v-8.016v-7.012c0-1.004-0.031-1.883-0.092-2.643c-0.09-1.488-0.607-2.338-1.549-2.549
	c-0.455-0.123-1.002-0.184-1.639-0.184c-0.486,0-0.729-0.152-0.729-0.455c0-0.244,0.363-0.365,1.092-0.365
	c0.578,0,1.688,0.031,3.328,0.092c1.287,0.029,2.158,0.045,2.617,0.045c0.367,0,1.117-0.016,2.25-0.045
	c1.582-0.061,2.691-0.092,3.328-0.092c0.639,0,0.957,0.121,0.957,0.365c0,0.303-0.242,0.455-0.729,0.455
	c-0.363,0-0.82,0.045-1.365,0.137c-0.609,0.121-1.025,0.379-1.254,0.773s-0.373,1.002-0.434,1.822
	c-0.059,0.76-0.09,1.639-0.09,2.643v7.012v8.016c0,2.824,0.008,4.971,0.021,6.445c0.016,1.473,0.068,2.648,0.16,3.529
	c0.092,0.699,0.258,1.221,0.502,1.57c0.242,0.35,0.684,0.57,1.32,0.662l1.139,0.113c0.424,0.045,0.82,0.066,1.184,0.066
	c0.486,0,0.729,0.121,0.729,0.365c0,0.305-0.287,0.455-0.863,0.455c-1.277,0-2.949-0.027-5.018-0.09
	c-0.98-0.031-1.684-0.047-2.113-0.047c-0.244,0-0.963,0.016-2.156,0.047c-1.766,0.063-2.967,0.09-3.604,0.09
	c-0.607,0-0.912-0.15-0.912-0.455c0-0.244,0.244-0.365,0.73-0.365c0.545,0,1.092-0.059,1.639-0.18
	c0.729-0.152,1.168-0.912,1.32-2.279c0.092-0.879,0.152-2.055,0.182-3.527C144.236,576.085,144.252,573.952,144.252,571.159z
	 M99.229,559.044l0.502,19.131c0.031,1.668,0.184,2.883,0.455,3.641c0.273,0.76,0.654,1.23,1.139,1.414
	c0.607,0.211,1.396,0.316,2.369,0.316c0.516,0,0.773,0.121,0.773,0.365c0,0.305-0.35,0.455-1.047,0.455
	c-1.275,0-2.732-0.027-4.373-0.09c-0.576-0.031-1.002-0.047-1.275-0.047c-0.121,0-0.379,0.016-0.773,0.047
	c-0.426,0-1.041,0.016-1.846,0.045c-0.805,0.031-1.57,0.045-2.299,0.045c-0.668,0-1.002-0.15-1.002-0.455
	c0-0.244,0.242-0.365,0.729-0.365c0.85,0,1.533-0.074,2.049-0.225c0.576-0.184,0.949-0.654,1.115-1.414
	c0.168-0.76,0.268-2.17,0.297-4.234l0.41-26.963c0-1.031,0.197-1.547,0.592-1.547c0.273,0,0.699,0.318,1.275,0.957
	c0.152,0.182,0.289,0.332,0.41,0.453l1.617,1.709l3.303,3.506c1.152,1.23,2.58,2.717,4.281,4.463
	c1.699,1.746,3.34,3.395,4.918,4.943c0.699,0.699,1.451,1.465,2.256,2.299l4.486,4.67c1.002,1.061,1.76,1.857,2.277,2.391
	l1.002,1.023h0.227l-0.453-20.449c-0.031-1.367-0.16-2.33-0.389-2.891c-0.227-0.563-0.615-0.965-1.162-1.209
	c-0.271-0.119-0.615-0.197-1.025-0.227c-0.408-0.031-0.871-0.045-1.389-0.045c-0.484,0-0.729-0.137-0.729-0.41
	c0-0.152,0.1-0.258,0.297-0.318s0.494-0.092,0.889-0.092c1.002,0,2.307,0.031,3.916,0.092c0.76,0.029,1.291,0.045,1.596,0.045
	c0.09,0,0.363-0.016,0.818-0.045c1.428-0.061,2.643-0.092,3.645-0.092c0.365,0,0.629,0.031,0.797,0.092s0.25,0.166,0.25,0.318
	c0,0.273-0.271,0.41-0.82,0.41c-0.545,0-1.002,0.045-1.365,0.137c-0.639,0.182-1.07,0.553-1.299,1.115
	c-0.227,0.563-0.355,1.48-0.387,2.756l-0.502,28.736c0,0.943-0.197,1.414-0.592,1.414c-0.211,0-0.439-0.084-0.684-0.252
	c-0.242-0.166-0.529-0.418-0.863-0.752c-0.699-0.668-1.693-1.646-2.984-2.936l-4.396-4.395c-2.943-2.977-4.965-4.998-6.057-6.059
	c-0.941-0.912-1.898-1.883-2.869-2.914l-2.666-2.824c-0.805-0.852-1.67-1.777-2.596-2.777c-0.926-1.004-1.494-1.627-1.709-1.867
	l-1.002-1.096H99.229z M49.889,566.954v-7.957v-8.393c0-1.197-0.035-2.252-0.107-3.162c-0.074-0.979-0.264-1.697-0.572-2.15
	c-0.311-0.455-0.898-0.771-1.771-0.955c-0.438-0.107-1.145-0.162-2.125-0.162c-0.619,0-0.928-0.164-0.928-0.492
	s0.4-0.488,1.199-0.488c1.018,0,2.707,0.035,5.07,0.107c1.561,0.037,2.523,0.053,2.889,0.053c0.436,0,1.344-0.016,2.725-0.053
	c1.961-0.072,3.287-0.107,3.979-0.107c0.799,0,1.199,0.16,1.199,0.488s-0.291,0.492-0.871,0.492c-0.402,0-0.928,0.055-1.582,0.162
	c-0.727,0.148-1.227,0.457-1.498,0.928c-0.273,0.475-0.445,1.203-0.518,2.184c-0.074,0.91-0.109,1.965-0.109,3.166v8.404v7.641
	c0,3.748,0.354,6.631,1.063,8.65c0.707,2.021,1.771,3.611,3.189,4.777c1.09,0.908,2.197,1.51,3.324,1.799
	c1.125,0.291,2.289,0.438,3.488,0.438c1.344,0,2.68-0.234,4.006-0.709c1.326-0.473,2.498-1.219,3.516-2.238
	c1.344-1.348,2.207-3.074,2.588-5.184c0.383-2.111,0.574-4.896,0.574-8.352v-6.822v-8.404c0-1.201-0.037-2.256-0.109-3.166
	c-0.072-0.98-0.264-1.699-0.574-2.154c-0.307-0.455-0.898-0.773-1.77-0.957c-0.184-0.035-0.475-0.072-0.873-0.107
	c-0.4-0.037-0.764-0.055-1.09-0.055c-0.617,0-0.926-0.164-0.926-0.492s0.381-0.488,1.143-0.488c0.947,0,1.963,0.018,3.053,0.053
	l3.053,0.107h0.164c0.145,0,0.672-0.016,1.58-0.053c0.727-0.035,1.535-0.064,2.426-0.082s1.625-0.025,2.207-0.025
	c0.764,0,1.145,0.16,1.145,0.488s-0.326,0.492-0.98,0.492c-0.4,0-0.928,0.055-1.58,0.162c-0.727,0.146-1.229,0.455-1.5,0.926
	c-0.273,0.475-0.445,1.201-0.518,2.18c-0.072,0.91-0.109,1.965-0.109,3.162v8.393v5.832c0,1.781-0.063,3.398-0.191,4.852
	c-0.125,1.453-0.363,2.887-0.707,4.303c-0.346,1.418-0.873,2.744-1.58,3.98c-0.709,1.234-1.609,2.324-2.699,3.27
	c-1.781,1.525-3.588,2.561-5.422,3.107c-1.836,0.543-3.807,0.818-5.916,0.818c-0.943,0-1.879-0.039-2.807-0.111
	c-0.926-0.072-1.924-0.227-2.996-0.463c-1.072-0.238-2.162-0.617-3.271-1.145s-2.117-1.207-3.025-2.043
	c-1.525-1.381-2.715-3.207-3.57-5.479C50.316,573.647,49.889,570.659,49.889,566.954z M727.328,571.159v-8.016v-7.012
	c0-1.004-0.033-1.883-0.092-2.643c-0.061-0.82-0.221-1.42-0.48-1.799c-0.258-0.381-0.75-0.645-1.479-0.797
	c-0.363-0.092-0.957-0.137-1.773-0.137c-0.52,0-0.777-0.137-0.777-0.41s0.336-0.41,1.002-0.41c0.76,0,2.172,0.047,4.236,0.137h2.324
	c7.014,0,10.809-0.016,11.387-0.045c1.002-0.123,1.656-0.213,1.957-0.275c0.063,0,0.152-0.027,0.275-0.088
	c0.211-0.061,0.363-0.092,0.455-0.092c0.182,0,0.271,0.137,0.271,0.41c0,0.061-0.014,0.197-0.045,0.408
	c-0.152,0.76-0.258,1.609-0.318,2.553l-0.045,0.955l-0.092,1.207c-0.029,0.381-0.061,0.662-0.092,0.842
	c-0.061,0.336-0.211,0.502-0.453,0.502c-0.275,0-0.414-0.213-0.414-0.639c0-0.242-0.02-0.518-0.064-0.82
	c-0.047-0.301-0.117-0.576-0.207-0.82c-0.182-0.453-0.473-0.811-0.871-1.068c-0.395-0.26-1.127-0.447-2.193-0.568
	c-0.184-0.031-0.527-0.055-1.031-0.07l-2.174-0.066c-1.404-0.033-2.5-0.047-3.293-0.047c-0.215,0-0.32,0.152-0.32,0.455v11.521
	c0,0.336,0.105,0.502,0.32,0.502c1.371,0,2.813-0.008,4.322-0.023c1.51-0.014,2.508-0.037,2.996-0.066
	c1.129-0.094,1.859-0.318,2.197-0.684c0.352-0.428,0.58-0.594,0.732-0.594c0.211,0,0.318,0.123,0.318,0.365
	c0,0.031-0.018,0.168-0.047,0.41c-0.15,0.813-0.258,1.768-0.318,2.869l-0.113,1.617c-0.047,0.682-0.07,1.16-0.07,1.436
	c0,0.271-0.023,0.484-0.066,0.637c-0.047,0.15-0.158,0.227-0.342,0.227c-0.273,0-0.412-0.135-0.412-0.41
	c0-0.09-0.014-0.227-0.045-0.41c-0.029-0.516-0.076-0.926-0.139-1.23c-0.121-0.484-0.379-0.879-0.777-1.184
	c-0.395-0.301-0.988-0.498-1.783-0.59c-0.184-0.031-0.564-0.055-1.145-0.068c-0.578-0.016-1.252-0.023-2.014-0.023h-3.342
	c-0.182,0-0.273,0.15-0.273,0.455v3.598v7.059c0.029,0.852,0.115,1.512,0.25,1.98c0.137,0.473,0.396,0.844,0.779,1.117
	c0.379,0.273,0.914,0.463,1.6,0.57c0.688,0.105,1.639,0.16,2.857,0.16c0.914,0,1.73-0.033,2.447-0.094s1.334-0.211,1.852-0.455
	c0.578-0.271,1.029-0.668,1.35-1.184c0.318-0.516,0.555-1.244,0.707-2.186c0.09-0.455,0.258-0.684,0.502-0.684
	c0.15,0,0.248,0.063,0.295,0.182c0.045,0.121,0.068,0.334,0.068,0.637c0,0.244-0.016,0.586-0.045,1.027
	c-0.031,0.439-0.084,0.955-0.158,1.547c-0.078,0.592-0.146,1.094-0.207,1.504c-0.061,0.408-0.121,0.736-0.182,0.98
	c-0.15,0.576-0.363,0.916-0.639,1.023c-0.271,0.105-0.881,0.16-1.82,0.16c-1.822,0-3.354-0.012-4.602-0.035
	c-1.244-0.023-2.764-0.057-4.557-0.104c-1.607-0.061-2.76-0.09-3.459-0.09c-0.244,0-0.955,0.016-2.143,0.045
	c-1.76,0.031-2.959,0.045-3.598,0.045c-0.605,0-0.91-0.15-0.91-0.455c0-0.244,0.242-0.365,0.73-0.365
	c0.543,0,1.092-0.059,1.639-0.18c0.424-0.092,0.719-0.336,0.889-0.73c0.166-0.393,0.309-0.986,0.43-1.775
	c0.094-0.881,0.156-2.041,0.184-3.482C727.313,575.933,727.328,573.862,727.328,571.159z"/>
<path fill="#FFFFFF" d="M395.365,511.562c-4.02-4.367-10.76-6.096-16.834-5.871c0,0-68.395,0.043-71.389-0.008
	c-17.354-0.873-23.748-16.086-23.748-29.951l0.033-264.486h222.186c0.016,16.752,0.229,266.021,0.035,267.832
	c-0.75,12.238-8.193,23.914-20.967,26.303c-1.875,0.35-73.523,0.311-73.523,0.311C405.459,505.69,399.295,506.849,395.365,511.562z"
	/>
<path fill="#06B058" d="M294.068,221.745h96.594v105.461c-14.863,1.607-26.752,12.023-28.91,26.711h-67.684V221.745z"/>
<path fill="#FFCD33" d="M398.113,221.745h97.098v132.484h-68.453c-2.021-14.734-13.822-25.242-28.645-26.988V221.745z"/>
<path fill="#EE2927" d="M294.002,361.479h67.973c0.533,16.428,13.143,29.25,29.24,30.992v105.215c0,0-4.854-2.484-16.961-2.484
	h-53.047c-18.826,0-27.205-4.102-27.205-27.887V361.479z"/>
<path fill="#1365A7" d="M495.498,361.479v105.836c0,25.996-8.379,27.887-27.203,27.887h-53.049c-12.107,0-15.854,3.039-15.854,3.039
	V392.415c15.867-1.951,27.125-14.672,27.652-30.936H495.498z"/>
<path fill="#FFFFFF" d="M392.182,331.616c-0.586,0.057-2.162,0.238-3.885,0.646c-13.707,3.26-20.631,13.102-20.631,27.699
	c0,16.082,14.129,26.648,26.906,26.648c12.467,0,27.098-8.316,27.098-27.326c0-15.063-9.592-22.064-12.508-23.664
	c-2.736-1.506-5.813-3.211-9.064-2.766c-2.008,0.271-8.104,0.418-7.844,0.229c0.635-0.459,0.225-3.818-0.484-4.527l-1.059-1.529
	c5.297-1.646,12.17-1.082,17.156,1.295c10.57,5.039,19.512,16.111,19.512,30.65c0,17.625-13.402,33.053-32.469,33.053
	c-19.086,0-32.775-15.635-32.775-32.258c0-15.256,8.514-28.35,25.457-31.621l3.059-0.119c0.732,0.734,1.006,1.773,1.648,2.592
	L392.182,331.616z M395.012,336.079l21.801,36.762h-43.736L395.012,336.079z M466.059,315.663c0.59-0.029,1.195-0.051,1.639-0.041
	c6.99,0.117,9.443,3.609,8.098,10.393c-0.178,0.904-0.502,2.064-0.797,3.293l7.916,12.148c1.469,1.881-0.559,4.973-2.887,3.207
	l-1.523-1.605c-0.318,0.129-1.186,0.1-1.688,0c-3.691-0.721-6.168-4.904-6.42-9.064c-0.045-0.717-0.508-3.547-0.48-4.092
	l-6.473-8.719c-0.713,0.154-5.377,0.881-5.377,0.881c-8.547-0.27-7.621-6.146-7.303-8.666c0.189-1.518,1.27-4.602,2.324-7.113
	l-9.121-12.838c-1.088,0.084-11.797,1.523-16.021-3.342c-4.252-4.898-1.869-13.145,0.32-18.99c-1.254-1.889-5.309-7.752-5.539-7.863
	c-0.637-0.303-3.086,1.883-4.494-1.043c-1.279-2.662,3.131-7.275,3.131-7.275c2.764-4.607,7.789,3.602,10.164,7.516
	c2.566-6.98,4.395-15.43-3.262-19.148c-0.461-0.227-1.512-0.66-1.686-0.723c-2.383-0.045-4.018-0.043-6.018-1.443l-2.168-1.365
	c-1.043-0.883-6.744-3.211-4.896-5.348c2.572-2.98,9.646-1.48,12.529-0.52c15.021,5.006,18.102,15.359,13.955,28.672
	c-0.893,2.869-2.061,5.648-3.154,8.453l9.951,15.166c0.996,0.002,2.26,0.016,3.018,0.051c1.424,0.068,3.443,0.373,3.443,0.373
	c10.498,1.969,9.973,9.559,7.15,17.02c-0.168,0.451-0.656,1.041-1.043,1.928L466.059,315.663z M412.457,439.169l9.273-5.986V407.8
	h4.615v-3.623c0,0,0.65,0.045,1.289,0.117c4.553,0.514,8.826-4.309,13.236-4.67c-0.613-1.152-1.301-3.23-1.301-4.66
	c0-4.234,1.457-6.504,4.42-9.078c0.947-0.693,1.229,1.082,0.795,2.096c-0.758,1.76,3.105,3.322,2.602-1.014
	c-0.246-2.115-2.215-3.34-3.035-5.129c-0.111-0.238-0.652-1.229-0.652-1.229s1.184,0.662,1.953,1.012
	c4.91,2.236,9.012,5.826,5.924,11.561c1.982,1.283,2.467,4.152,1.734,6.441c4.156,0.922,7.963,5.141,12.607,4.648
	c0.664-0.07,1.537-0.242,1.537-0.242v3.77h4.512v25.504l6.65,0.725c0.426,0.02,1.23,1.57,1.23,1.57
	c0.354,1.543,0.322,3.24,0.152,4.799c0.773,0.131,7.09,1.133,7.734,1.879c1.477,1.713,0.609,6.781-0.361,8.236
	c-0.387,0.576-21.334,27.045-21.334,27.045l-58.494-19.375v-8.176l-3.117-1.012l11.066-5.996l0.07-2.818L412.457,439.169z
	 M395.18,89.188l11.547,22.199l22.363,2.373l-17.326,17.32l4.445,23.1l-21.029-11.248l-20.883,11.248l3.557-23.543l-17.029-16.877
	l22.205-2.223L395.18,89.188z M311.861,443.087l4.268-19.113c0.389-1.723,0.76-2.594,2.076-2.719
	c1.324-0.123,1.617,0.961,1.783,1.906l3.576,19.307l-5.412-12.58L311.861,443.087z M367.705,415.964
	c7.596,6.838,8.209,18.543,1.369,26.137c-6.84,7.598-18.543,8.211-26.139,1.371c-7.598-6.842-8.211-18.543-1.371-26.141
	C348.404,409.735,360.107,409.124,367.705,415.964z M309.313,449.538l64.725-0.047v27.779c-3.789-1.592-2.523-3.482-5.543-4.955
	l-0.857-0.398c-0.27-0.123-2.785-0.717-2.785-1.143v-14.025h-50.074c-0.613,0-1.676-2.617-2.027-3.066
	C311.689,452.323,309.121,451.462,309.313,449.538z M316.924,377.597l3.861,0.398l-3.447,3.031l1.078,4.242l-3.799-2.041
	l-3.873,2.158l0.781-4.266l-3.201-3.166l4.006-0.334l2.301-4.426L316.924,377.597z M380.209,294.329c0,0-4.244,7.916-14.443,7.916
	s-12.162-7.916-12.162-7.916H380.209z M306.939,249.991l4.625,1.771l25.844-2.691l2.609-17.555l3.535,17.555l25.842,2.691
	l4.625-1.771l0.57,3.293h-30.598l1.143,24.891v41.045h8.297l-9.059,6.967l0.57,15.773c0,0,2.283,1.391,2.283,3.102
	s-2.664,2.094-2.664,2.094h-3.541h-1.082h-3.543c0,0-2.662-0.383-2.662-2.094s2.283-3.102,2.283-3.102l0.57-15.773l-9.059-6.967
	h8.297v-41.045l1.141-24.891h-30.598L306.939,249.991z M300.164,294.329h26.604c0,0-1.961,7.916-12.16,7.916
	S300.164,294.329,300.164,294.329z"/>
<path d="M407.396,142.062l-2.795-13.699l10.314-9.441l-13.895-1.574l-5.789-12.727l-5.793,12.727l-13.893,1.574l10.314,9.441
	l-2.797,13.699l12.168-6.895L407.396,142.062z M410.838,146.925l-15.605-8.844l-15.607,8.844l3.586-17.576l-13.23-12.111
	l17.822-2.018l7.43-16.326l7.428,16.326l17.822,2.018l-13.23,12.111L410.838,146.925z M418.824,157.919l-23.766-13.465
	l-23.766,13.465l5.461-26.764l-20.15-18.441l27.143-3.076l11.313-24.861l11.314,24.861l27.141,3.076l-20.15,18.441L418.824,157.919z
	 M414.471,151.86l-4.424-21.664l16.313-14.93l-21.969-2.49l-9.158-20.125l-9.158,20.125l-21.971,2.49l16.311,14.93l-4.422,21.664
	l19.24-10.898L414.471,151.86z M444.369,159.13c1.625,1.221-0.205,3.658-1.832,2.438l-13.857-10.406
	c0.617-0.807,1.205-1.635,1.768-2.486L444.369,159.13z M487.996,154.771c1.922,0.666,0.924,3.547-0.998,2.881l-52.021-18.014
	c0.344-0.951,0.656-1.92,0.932-2.904L487.996,154.771z M411.521,68.272c0.607-1.941,3.518-1.027,2.908,0.912l-4.898,15.611
	c-0.951-0.352-1.916-0.672-2.895-0.959L411.521,68.272z M441.742,87.753c1.633-1.207,3.445,1.246,1.813,2.453l-13.82,10.209
	c-0.582-0.834-1.195-1.646-1.836-2.434L441.742,87.753z M453.389,46.526c1.232-1.613,3.656,0.232,2.424,1.85l-33.484,43.922
	c-0.773-0.656-1.572-1.287-2.393-1.889L453.389,46.526z M407.602,166.003c0.973-0.311,1.93-0.654,2.871-1.029l5.182,15.521
	c0.643,1.928-2.25,2.893-2.893,0.965L407.602,166.003z M454.174,122.737c2.031,0,2.031,3.049,0,3.049h-16.666l0.004-0.721
	c0-0.779-0.02-1.555-0.061-2.328H454.174z M419.105,160.315c0.836-0.58,1.648-1.189,2.436-1.83l32.363,43.35
	c1.217,1.629-1.227,3.453-2.443,1.824L419.105,160.315z M487.336,91.3c1.924-0.648,2.9,2.238,0.975,2.891L435.5,112.038
	c-0.309-0.973-0.65-1.93-1.025-2.871L487.336,91.3z M393.57,28.366c0-2.033,3.049-2.033,3.049,0v53.801
	c-0.682-0.033-1.369-0.051-2.059-0.051c-0.33,0-0.66,0.004-0.99,0.012V28.366z M345.75,159.13l13.922-10.455
	c0.559,0.852,1.148,1.68,1.766,2.486l-13.857,10.406C345.955,162.788,344.123,160.351,345.75,159.13z M302.121,154.771
	l52.088-18.037c0.277,0.984,0.588,1.953,0.932,2.904l-52.021,18.014C301.197,158.317,300.201,155.437,302.121,154.771z
	 M378.596,68.272l4.885,15.564c-0.98,0.287-1.945,0.607-2.895,0.959l-4.898-15.611C375.078,67.245,377.988,66.331,378.596,68.272z
	 M348.375,87.753l13.846,10.229c-0.643,0.787-1.254,1.6-1.84,2.434l-13.816-10.209C344.93,88.999,346.74,86.546,348.375,87.753z
	 M336.729,46.526l33.453,43.883c-0.822,0.602-1.619,1.232-2.395,1.889l-33.48-43.922C333.072,46.759,335.498,44.913,336.729,46.526z
	 M382.518,166.003l-5.162,15.457c-0.645,1.928-3.535,0.963-2.893-0.965l5.184-15.521
	C380.586,165.349,381.545,165.692,382.518,166.003z M335.943,122.737h16.725c-0.043,0.773-0.063,1.549-0.063,2.328l0.006,0.721
	h-16.668C333.912,125.786,333.912,122.737,335.943,122.737z M371.012,160.315l-32.357,43.344c-1.215,1.629-3.656-0.195-2.441-1.824
	l32.361-43.35C369.363,159.126,370.178,159.735,371.012,160.315z M302.783,91.3l52.861,17.867c-0.375,0.941-0.719,1.898-1.027,2.871
	L301.807,94.19C299.883,93.538,300.857,90.651,302.783,91.3z M393.498,168.003c0.354,0.01,0.707,0.016,1.063,0.016
	c0.666,0,1.328-0.018,1.986-0.047v38.477h-3.049V168.003z M365.695,264.513l-9.311,28.398h9.311V264.513z M354.041,292.911
	l11.654-34.158v-3.965h-21.229c0.412,4.32,0.777,8.557,1.031,12.26c1.037,15.172,0.521,45.268,0.4,51.465h8.016
	c1.354,0,1.744,1.252,0.631,2.02l-8.805,6.076c0.047,2.289,0.238,10.67,0.67,15.445c1.371,0.709,2.217,1.137,2.195,3.025
	c-0.029,2.471-2.285,3.361-4.303,3.191h-4.807l-3.178-0.002c0,0-0.254-0.004-0.609-0.063c-3.631-0.592-4.713-5.098-1.105-6.125
	c0.295-4.639,0.348-13.186,0.355-15.477l-8.66-6.076c-1.104-0.775-0.713-2.016,0.637-2.016h7.566
	c-0.133-6.342-0.725-37.639,0.244-51.412c0.26-3.686,0.643-7.996,1.078-12.416h-21.168v4.098l11.646,34.135h2.566
	c0,0-0.748,2.09-1.275,2.988c-3.053,5.197-8.592,7.664-14.602,7.664c-7.342,0-12.131-4.531-14.879-10.652h2.676l11.65-34.143v-4.09
	h-6.697c-2.025,0-0.594-4.4-0.451-5.115c0.721-3.631,4.471,0.498,5.391,1.174c1.678,0.279,7.416-0.561,8.93-0.76
	c4.799-0.629,10.121-1.422,12.863-1.617c0.479-0.033,3.271-0.285,4.094-0.971c1.221-11.506,2.502-21.855,2.502-21.855
	c0.186-1.498,2.018-1.494,2.201,0.002c0,0,1.268,10.359,2.471,21.98c0.857,0.666,3.594,0.914,4.066,0.947
	c6.42,0.455,12.764,1.832,19.184,2.332c0.82,0.063,1.785,0.182,2.609,0.045c1.035-0.76,2.34-2.414,3.635-2.57
	c2.221-0.264,2.197,3.83,2.402,5.244c0.102,0.701-0.387,1.268-1.098,1.268h-6.629v3.959l11.658,34.164h2.695
	c0,0-0.967,2.15-1.523,3.023c-2.943,4.613-7.68,7.627-13.355,7.627c-7.77,0-13.379-3.67-15.877-10.65H354.041z M377.227,292.911
	l-9.314-28.408v28.408H377.227z M303.131,292.917h9.309V264.53L303.131,292.917z M314.656,292.917h9.303l-9.303-28.377V292.917z
	 M325.467,295.134H301.76c2.551,3.762,6.484,6.217,11.232,6.217C318.061,301.351,322.74,299.427,325.467,295.134z M372.961,250.864
	c-1.006,0.811-2.129,1.355-2.605,1.707h2.895C373.168,252.06,373.066,251.452,372.961,250.864z M364.227,252.571
	c-4.973-0.623-11.584-1.537-16.576-1.889c-1.602-0.113-2.779-0.346-3.648-0.629l0.25,2.518H364.227z M342.152,253.872
	c-0.328-3.574-0.805-13.748-0.873-14.904c-0.068-1.152-0.215-1.879-0.215-1.879l0.223,81.424l2.395-0.002
	c0.119-6.076,0.641-36.162-0.396-51.311C343.012,263.192,342.605,258.56,342.152,253.872z M307.322,250.761
	c-0.107,0.59-0.207,1.195-0.289,1.707h2.895C309.451,252.116,308.328,251.573,307.322,250.761z M316.055,252.468h19.988l0.258-2.527
	c-0.879,0.289-2.064,0.523-3.67,0.639C327.639,250.931,321.029,251.845,316.055,252.468z M336.844,341.755h7.314
	c-0.371-4.49-0.557-11.588-0.621-14.447h-6.363C337.156,330.21,337.094,337.394,336.844,341.755z M345.352,343.972h-9.568
	c-0.33,0.148-0.701,0.254-1.066,0.477c-0.363,1.141,0.75,1.563,1.652,1.605h3.129h4.857l0.123,0.01c0,0,0.137,0.012,0.342,0.01
	c1.305-0.027,2.258-1.252,1.209-1.77C345.791,344.183,345.563,344.083,345.352,343.972z M336.66,325.091h7.375l6.32-4.361h-19.91
	L336.66,325.091z M339.07,318.513l0.225-81.381c0,0-0.096,0.873-0.232,2.25c-0.137,1.379-0.898,14.361-0.918,14.354
	c-0.479,4.805-0.906,9.529-1.188,13.521c-0.967,13.75-0.369,45.045-0.238,51.254L339.07,318.513z M354.912,295.128
	c2.729,4.293,7.404,6.217,12.475,6.217c4.438,0,8.863-2.498,11.289-6.217H354.912z M421.695,234.847
	c0.961-0.051,3.02,0.605,2.645,1.922c-0.473,1.652-4.316,0.551-3.844-1.102C420.594,235.319,420.967,234.886,421.695,234.847z
	 M475.658,331.896c-0.154,1.268-0.111,2.443,0.33,3.293c0.973,1.861,1.951,3.713,2.957,5.553l2.006,2.955
	c0,0,0.738,0.486,1.377,0.199c0.643-0.289,0.555-1.193,0.555-1.193L475.658,331.896z M472.852,323.62l-0.004,0.168
	c-0.029,1.801-0.527,3.813-0.779,5.301c-0.047,0.473-0.1,1.02-0.148,1.57c-0.139,2.529,0.037,4.758,1.336,7.188
	c1.424,2.66,2.844,3.613,3.734,3.965l-0.365-0.684c-1.299-2.152-2.584-4.189-3.063-6.484c-0.207-0.785-0.258-1.473-0.191-2.244
	c0.01-0.195,0.023-0.395,0.043-0.594c0.051-0.473,0.125-0.906,0.191-1.307c0.129-0.75,0.924-3.604,1.045-4.043
	c0.092-0.398,0.184-0.82,0.277-1.27c1.205-5.689-0.568-7.848-6.287-7.994l1.533,2.344
	C472.273,319.972,472.854,321.655,472.852,323.62z M423.254,261.991c1.629,0.77,4.484,5.387,5.471,6.863l2.064-5.434
	c-1.143-1.797-4.729-7.975-7.086-8.682c-0.17,0.016-0.344,0.123-0.379,0.141c-0.213,0.236-0.357,0.557-0.545,0.818
	c-0.619,0.859-3.783,4.354-3.107,5.756C420.313,262.794,421.645,261.229,423.254,261.991z M439.09,287.481
	c-5.342-0.387-7.381-5.186-5.924-10.088l1.242-3.527c0.572-1.633,1.232-3.27,1.912-4.912l0.258-0.662
	c2.236-5.352,4.543-10.816,4.375-16.631c-0.184-6.408-3.76-12.625-14.402-16.205c-1.891-0.635-9.832-2.279-11.777-0.211
	c0.482,1,5.086,3.824,6.305,4.676c1.719,1.203,3.777,1.367,5.828,1.387c0,0,0.719,0.229,1.549,0.633
	c12.271,5.973,5.725,18.355,2.469,27.563c0,0-2.604,6.992-3.189,8.766c-3.188,9.639,2.479,13.941,11.502,14.264
	c1.379,0.051,2.494,0.053,3.338,0.041l-2.746-4.043L439.09,287.481z M460.086,317.591c-2.443-0.309-3.789-2.436-3.533-4.863
	c0.574-5.465,4.229-9.961,4.932-15.408c0.449-3.48-0.439-7.77-7.492-9.129c-1.518-0.234-3.037-0.377-4.574-0.422l3.23,4.895
	c6.107,1.508,5.25,6.854,3.309,11.393c-2.33,4.969-8.588,16.205,2.25,16.672c1.289-0.068,2.582-0.162,3.857-0.371L460.086,317.591z
	 M453.473,304.146l0.453-0.979c0.41-0.961,0.781-1.939,1.02-2.883l-7.463-11.359l-2.283-3.434l-8.113-12.389l-0.516,1.346
	l-0.344,0.92l-0.951,2.707l-0.029,0.111l4.961,7.066l2.273,3.238L453.473,304.146z M463.477,322.335
	c-0.684,0.137-1.375,0.266-1.857,0.328c-1.328,0.178-3.402,0.281-3.402,0.281c-8.854-0.352-8.611-7.021-8.262-9.563
	c0.211-1.527,1.381-4.43,2.473-6.918l-8.273-11.773c-1.389,0.07-3.201,0.121-4.998,0.059c-3.568-0.129-8.625-0.684-12.148-4.598
	c-4.416-4.898-1.51-12.836,0.777-18.689c-1.309-1.967-3.154-4.717-4.113-5.996c-0.809-1.082-1.18-1.385-1.367-1.471
	c-0.529-0.254-3.17,1.467-4.633-1.58c-1.428-2.973,2.211-6.242,3.582-8.434c2.895-4.639,7.994,2.625,10.549,6.762
	c2.271-6.846,3.174-14.086-5.273-17.225c-6.328-0.18-5.926-1.918-10.436-4.293c-1.906-1.006-2.996-2.025-3.422-2.973
	c-0.25-0.078-0.477-0.168-0.637-0.219c-1.807-0.594-3.014-1.313-4.453-2.523c-0.412-0.346-0.371-0.648-0.168-0.967
	c0.234-0.363,0.693-0.703,1.189-0.342c1.951,1.41,2.316,1.609,4.576,1.607c1.93-1.906,7.578-2.637,14.076-0.453
	c15.164,5.098,18.455,15.434,14.041,28.908c-0.922,2.813-2.111,5.533-3.234,8.277l9.879,14.984c1.125,0.021,2.311,0.047,2.939,0.082
	c1.451,0.08,3.51,0.402,3.51,0.402c10.695,2.063,10.59,10.07,7.574,17.691c-0.176,0.445-0.51,1.141-0.896,1.979l6.125,9.326
	c0.6-0.023,1.182-0.035,1.594-0.027c7.104,0.18,9.785,3.688,8.311,10.668c-0.184,0.859-0.512,1.98-0.816,3.176l8.412,12.646
	c1.555,1.992-1.287,6.619-5.256,3.773l-0.766-1.092c-2.637,1.082-6.355-3.361-7.371-5.26c-1.469-2.748-1.703-5.1-1.605-7.852
	L463.477,322.335z M461.398,315.37l0.461,0.66l8.16,11.578l0.105-0.613c0.096-0.65,0.186-1.252,0.236-1.523l0.094-0.521
	c0.031-0.205,0.055-0.369,0.064-0.467l0.037-0.32l-10.549-16.063l-0.057,0.125c-0.441,1.102-0.84,2.25-1.051,3.295l-0.047,0.248
	L461.398,315.37z M450.543,415.808c5.785-1.504,8.34,2.219,13.629,2.516c1.475,0.082,1.352,2.295-0.125,2.213
	c-5.221-0.293-8.281-3.795-12.943-2.58C449.672,418.325,449.113,416.181,450.543,415.808z M450.627,407.552
	c6.197-1.447,8.166,2.334,13.557,2.623c1.477,0.076,1.359,2.291-0.117,2.211c-5.184-0.275-7.959-3.836-12.936-2.676
	C449.691,410.046,449.188,407.886,450.627,407.552z M450.59,423.968c6.057-1.684,8.297,2.393,13.502,2.504
	c1.479,0.033,1.43,2.25-0.049,2.219c-4.922-0.109-8.166-3.891-12.863-2.588C449.758,426.499,449.164,424.362,450.59,423.968z
	 M443.234,426.103c-4.691-1.303-7.938,2.479-12.861,2.588c-1.477,0.031-1.523-2.186-0.047-2.219
	c5.203-0.111,7.447-4.188,13.504-2.504C445.256,424.362,444.66,426.499,443.234,426.103z M443.314,417.956
	c-3.807-0.992-5.545,0.674-8.799,1.775c-1.168,0.396-2.508,0.713-4.145,0.805c-1.475,0.082-1.602-2.131-0.125-2.213
	c5.289-0.297,7.844-4.02,13.627-2.516C445.305,416.181,444.744,418.325,443.314,417.956z M443.287,409.71
	c-4.977-1.16-7.748,2.4-12.936,2.676c-1.475,0.08-1.594-2.135-0.117-2.211c5.391-0.289,7.361-4.07,13.557-2.623
	C445.232,407.886,444.727,410.046,443.287,409.71z M461.129,451.044l-44.393-9.713v5.6l44.393,11.643V451.044z M448.256,401.69
	v32.252c2.863-0.861,5.92-1.361,8.883-1.361c3.205,0,6.443,0.576,9.529,1.41v-28.668c-6.281,0.664-9.359-4.832-13.744-4.832
	C451.258,400.491,449.703,400.954,448.256,401.69z M446.039,433.862v-32.188c-0.309-0.164-0.639-0.328-0.943-0.449
	c-0.932-0.371-2.203-0.734-3.611-0.734c-4.381,0-7.826,5.52-13.779,4.848l-0.018,28.393c2.699-1.006,5.703-1.311,8.555-1.311
	C439.336,432.421,442.951,432.841,446.039,433.862z M445.918,399.167c0.51,0.203,0.926,0.406,1.236,0.57
	c1.277-0.656,2.674-1.127,4.104-1.338c0.303-0.064,0.607-0.102,0.916-0.102c0.291-0.715,0.361-1.563,0.057-2.52
	c-1.102,2.199-4.191,0.689-2.586-2.043c0.945-1.607,1.762-2.549,1.59-4.643c-0.168-2.051-1.914-3.496-3.584-4.4
	c0,0,0.688,1.52,0.83,2.459c0.828,5.473-5.447,4.299-4.227,1.219c-1.328,1.262-3.123,3.004-3.123,6.553
	c0,1.266,0.365,2.426,1.012,3.381l0.385,0.029C443.867,398.46,445.035,398.815,445.918,399.167z M479.018,440.474
	c0.109-0.867,0.238-2.018,0.217-2.498c-0.023-0.623-0.037-1.262-0.123-1.885l-15.764,14.645v6.563
	c4.375-4.49,14.861-15.258,15.203-15.676c0.271-0.332,0.445-1.105,0.455-1.148H479.018z M467.656,474.612
	c5.283-6.758,18.971-24.271,19.281-24.734c0.664-1.002,0.764-4.006,0.482-5.893l-19.764,22.986V474.612z M408.838,451.522v4.781
	v1.465l56.602,18.643v-9.01L408.838,451.522z M409.953,447.503l-2.428,1.34l0.359,0.109l58.283,16.352l19.424-22.592
	c-1.43-0.248-3.314-0.568-4.723-0.809c-1.213,2.426-9.033,9.854-9.424,10.254c-4.23,4.35-8.854,9.092-8.854,9.092l-47.252-12.395
	L409.953,447.503z M420.693,435.608l-5.209,3.18l46.51,10.178l11.283-10.482c-1.426-0.25-10.539-1.846-14.816-2.129
	c-4.098-0.275-9.844,0.119-11.072,0.207l-0.197,0.074l-0.098-0.029l-0.234-0.047c-1.32-0.086-6.859-0.424-10.814-0.205
	c-4.535,0.25-15.352,2.16-15.352,2.16V435.608z M476.85,435.165l-3.385-0.355v3.502L476.85,435.165z M468.885,435.304
	c0.793,0.143,1.576,0.283,2.352,0.42v-3.377l0.012-23.572h-2.363V435.304z M422.91,431.655l0.105-0.064l-0.02,4.168
	c0.645-0.107,1.494-0.248,2.477-0.4v-26.584h-2.563V431.655z M409.584,439.794l11.109-6.785v-26.451h4.779v-4.164
	c0,0,1.867,0.674,2.48,0.742c4.438,0.5,7.656-3.625,11.762-4.639c-0.525-1.088-0.813-2.32-0.813-3.637
	c0-4.236,2.082-6.943,5.045-9.516c0.947-0.693,1.561-0.914,1.555-0.934c0.029-0.014,0.063-0.041,0.063-0.039
	c-0.012-0.018-0.023-0.031-0.037-0.047c-0.633-0.809-1.34-1.564-1.762-2.486c-0.113-0.238-0.568-1.92-0.568-1.92
	s1.98,0.729,2.75,1.078c4.91,2.236,9.545,5.908,6.459,11.641c1.887,1.221,2.586,3.6,2.023,5.799
	c4.223,0.891,7.313,5.18,11.959,4.688c0.639-0.068,2.496-0.703,2.496-0.703v4.137h4.58v26.023l5.297,0.557
	c2.039,0.213,2.359,0.994,2.568,2.912c0.137,1.244,0.146,2.439,0.018,3.684c1.926,0.328,5.92,1.008,6.668,1.158
	c2.719,0.543,1.668,8.859,0.766,10.213c-0.387,0.582-21.912,28.111-21.912,28.111l-64.705-21.311l4.457-2.82v-4.195l-4.785-1.438
	l12.68-6.998v-1.568L409.584,439.794z M396.459,327.03c1.982-0.031,2.02,2.279,0.039,2.311
	C394.518,329.37,394.477,327.06,396.459,327.03z M394.842,357.479c1.611,0,2.92,1.303,2.92,2.916c0,1.611-1.311,2.916-2.92,2.916
	c-1.611,0-2.92-1.305-2.92-2.916C391.922,358.782,393.23,357.479,394.842,357.479z M329.26,424.649l-11.512-30.361
	c0.729-0.168,1.436-0.396,2.115-0.676l11.469,30.25C331.857,425.245,329.783,426.03,329.26,424.649z M310.635,450.214
	c0.043,1.641,2.324,2.441,3.297,3.686c0.268,0.342,1.357,2.063,1.801,2.063h49.852l0.014,13.574c0.557,0.902,3.91,1.314,4.555,3.389
	c0.379,1.227,1.715,2.061,2.814,2.564v-25.318L310.635,450.214z M324.381,447.987l-0.6-2.877l-2.43-3.064l-3.186-8.475l-3.744,9.178
	l-2.369,2.291l-0.701,2.957L324.381,447.987z M313.18,439.923l5.072-12.428l4.467,11.887l-2.898-14.883
	c-0.287-1.643-0.885-1.996-1.512-1.941c-1.033,0.1-1.344,0.732-1.701,2.307L313.18,439.923z M368.549,415.261
	c8.047,7.246,8.697,19.645,1.451,27.693c-2.027,2.252-4.459,3.924-7.086,5.006l12.27-0.01v30.551c0,0-1.682-0.428-2.139-0.59
	c-5.137-1.834-3.408-3.779-6.123-5.1c-1.408-0.686-3.553-1.383-3.553-3.305v-11.328h-47.637c-2.414,0-2.713-2.645-4.107-3.48
	c-2.611-1.568-4.09-3.824-2.613-6.457l5.436-23.863c0.326-1.445,0.906-3.768,3.654-4.025c2.49-0.234,3.568,1.85,3.9,3.756
	l4.65,23.879l21.313-0.016c-2.021-0.832-3.939-2.02-5.658-3.566c-8.047-7.248-8.697-19.646-1.451-27.695
	C348.102,408.663,360.5,408.013,368.549,415.261z M357.189,443.001c-3.453,1.82-6.746,2.416-9.225,2.545
	c3.807,1.813,8.115,2.146,12.092,1.055c-0.484-0.652-1.309-1.73-2.402-3.047L357.189,443.001z M368.262,431.614
	c-0.861,1.588-1.979,3.266-3.416,5.018c-1.832,2.23-3.76,3.92-5.678,5.191c1.08,1.299,2.109,2.637,3.08,4.014
	c2.26-0.961,4.352-2.422,6.104-4.367c1.969-2.186,3.281-4.734,3.947-7.4c-0.643-0.361-2.051-1.17-3.867-2.342L368.262,431.614z
	 M370.908,421.896c0.021,2.066-0.359,4.703-1.689,7.76c1.143,0.74,2.309,1.445,3.494,2.111
	C373.086,428.401,372.477,424.956,370.908,421.896z M354.354,416.587c2.662-1.408,5.576-2.396,8.502-2.486
	c-3.615-1.709-7.676-2.092-11.475-1.184c0.494,0.65,1.203,1.561,2.092,2.629C353.762,415.896,354.057,416.241,354.354,416.587z
	 M342.975,427.556c1.434-2.764,3.459-5.264,6.029-7.373c1.029-0.844,2.156-1.672,3.354-2.434c-1.133-1.334-2.213-2.715-3.23-4.135
	c-2.459,0.955-4.738,2.484-6.623,4.58c-1.816,2.016-3.072,4.338-3.781,6.781c0.588,0.324,2.051,1.16,3.971,2.398L342.975,427.556z
	 M340.461,438.7c-0.094-3.197,0.455-6.291,1.6-9.152c-1.25-0.818-2.527-1.592-3.832-2.318
	C337.641,431.151,338.396,435.22,340.461,438.7z M350.914,436.46l-6.156,6.775c0.277,0.035,0.635,0.072,1.063,0.096
	c3.512,0.199,6.852-0.555,9.855-2.061C354.168,439.601,352.578,437.989,350.914,436.46z M360.529,425.88l-8.115,8.932
	c1.854,1.674,3.621,3.445,5.281,5.307c2.018-1.303,3.85-2.959,5.436-4.893c1.041-1.268,2.203-2.98,3.203-4.902
	C364.336,428.938,362.395,427.456,360.529,425.88z M367.928,417.737l-5.912,6.508c1.684,1.447,3.438,2.816,5.254,4.09
	c1.467-3.477,2.174-7.33,0.684-10.359l0.135-0.07L367.928,417.737z M360.357,422.774l5.578-6.141
	c-3.348-0.852-6.893,0.068-10.061,1.662C357.301,419.849,358.795,421.345,360.357,422.774z M350.746,433.349l8.111-8.928
	c-1.754-1.576-3.432-3.24-5.018-4.984c-1.244,0.771-2.402,1.617-3.43,2.459c-2.24,1.84-4.154,4.252-5.525,6.947
	C346.904,430.243,348.863,431.749,350.746,433.349z M342.941,441.938l0.102-0.045l6.217-6.908c-1.691-1.463-3.453-2.846-5.277-4.135
	c-1.375,3.52-1.828,7.371-0.953,10.99l-0.104,0.084L342.941,441.938z M318.211,376.056l7,0.725l-5.656,4.973l1.801,7.088
	l-6.502-3.496l-6.279,3.504l1.287-7.025l-5.252-5.193l6.877-0.576l3.357-6.459L318.211,376.056z M316.795,378.14l-1.947-3.742
	l-1.957,3.764l-3.301,0.275l2.664,2.635l-0.65,3.549l3.229-1.803l3.133,1.684l-0.893-3.516l2.867-2.521L316.795,378.14z
	 M326.08,388.604l14.199,11.348c1.154,0.922-0.229,2.654-1.383,1.732l-14.215-11.361C325.191,389.788,325.66,389.214,326.08,388.604
	z M328.246,409.56l-7.955-16.129c0.68-0.305,1.33-0.662,1.945-1.068l7.998,16.219C330.889,409.907,328.9,410.886,328.246,409.56z
	 M338.332,411.267l-15.732-19.15c0.607-0.428,1.178-0.9,1.707-1.416l15.736,19.158C340.982,410.999,339.27,412.407,338.332,411.267z
	 M354.348,405.546l-27.939-17.441c0.395-0.625,0.738-1.283,1.031-1.969l28.082,17.527
	C356.775,404.446,355.602,406.327,354.348,405.546z M388.588,333.618c-1.307,0.322-2.553,0.717-3.734,1.176
	c-9.359,3.803-15.643,13.248-15.643,25.197c0,4.223,1.113,8.096,2.977,11.477l22.119-36.695c-0.896-0.043-1.791-0.25-2.695-0.746
	c-0.385-0.211-0.695-0.484-0.979-0.785C389.941,333.339,389.258,333.466,388.588,333.618z M389.664,326.028l0.029-103.457H295.6
	V352.46h65.932c2.408-14.156,12.094-22.18,26.676-25.791C388.689,326.437,389.176,326.226,389.664,326.028z M428.479,352.46h65.967
	V222.571h-94.002v102.045c2.729,0.322,5.479,1.143,8.203,2.439C418.186,331.593,426.295,340.392,428.479,352.46z M318.563,493.679
	l0.094-0.002h58.564c4.293,0,7.977,0.389,11.988,2.01l0.484,0.201V393.212c-16.086-2.393-27.088-15.318-28.578-30.002H295.6v103.051
	l-0.004,6.428c0,15.568,7.004,20.99,16.781,20.99H318.563z M496.809,466.597l-0.002,6.092c0,16.625-7.826,23.346-19.137,23.346
	h-2.893h-8.063h-54.301c-5.877,0-9.281,0.582-14.328,3.383V393.493c-0.975,0.076-1.965,0.115-2.971,0.115
	c-1.037,0-2.061-0.043-3.064-0.125l0.002,105.879c0,0-1.953-1.039-2.967-1.449c-3.791-1.531-7.809-1.879-11.865-1.879h-58.564
	c-0.787,0-1.574,0.006-2.359,0h-3.92c-11.309,0-19.137-6.721-19.137-23.346v-6.377V360.853h67.721
	c-0.012-0.352-0.018-0.703-0.018-1.057c0-1.732,0.088-3.393,0.26-4.979H293.24V220.21h98.813l-0.002,105.02
	c1.984-0.543,4-0.797,6.035-0.771V220.21h98.723v134.607h-67.982c0.15,1.357,0.229,2.754,0.229,4.186
	c0,0.625-0.014,1.246-0.043,1.863h67.797V466.597z M475.273,493.679h2.396c9.777,0,16.781-5.422,16.781-20.99v-5.771l-0.002-0.314
	l-0.004-103.377H428.82c-1.701,15.123-12.482,27.695-28.377,30.004v102.664c4.119-1.811,7.969-2.217,12.426-2.217h61.908
	L475.273,493.679z M383.402,357.159c3.586-1.857,7.605-2.936,11.648-2.936c4,0,8.004,1.074,11.578,2.9l-11.604-19.25
	L383.402,357.159z M409.992,362.704l-3.961,1.945c-2.959,2.619-7.25,4.277-11.172,4.277c-3.74,0-7.834-1.463-10.553-4.107
	l-4.246-2.117l-5.305,8.801h40.539L409.992,362.704z M417.916,371.554c1.732-3.422,2.76-7.496,2.76-12.242
	c0-11.514-6.152-20.449-16.168-24.551c-3.352-1.367-6.127-0.295-8.789-0.031L417.916,371.554z M373.59,373.72
	c4.996,7.172,13.475,11.611,21.188,11.611c7.852,0,16.84-3.783,21.898-11.611H373.59z M392.053,327.472l0.654,0.672l0.152,0.16
	l0.178,0.191c0.463,0.492,0.955,1,1.188,1.57c0.076,0.129,0.15,0.26,0.221,0.393c0,0-0.076,0.623-0.236,0.98
	c-0.098,0.217-0.217,0.42-0.355,0.609c-0.092,0.127-0.193,0.248-0.301,0.365c1.994,0.436,5.063-0.412,6.623-0.625
	c3.338-0.455,6.977,1.717,9.783,3.254c2.963,1.623,12.936,9.094,12.936,24.27c0,19.168-15.537,28.236-28.117,28.236
	c-12.902,0-27.783-11.33-27.783-27.557c0-13.787,6.314-21.146,12.707-25.004c5.389-3.254,10.768-3.98,12.27-4.129l0.027-0.152
	c-0.615-0.781-1.324-1.482-2.027-2.188l-1.74,0.336c-16.879,3.254-25.07,15.762-25.07,30.941c0,16.525,12.939,31.596,31.955,31.596
	c18.992,0,31.723-14.855,31.723-32.389c0-14.459-8.605-24.934-19.143-29.945C402.875,326.765,397.207,325.972,392.053,327.472z
	 M388.15,364.923c-0.797-1.256-1.258-2.744-1.258-4.342c0-0.961,0.168-1.885,0.477-2.742c-2.014,0.73-3.932,1.725-5.674,2.922
	l-0.232,0.162l4.168,2.08c0,0,0.338,0.355,0.711,0.664C386.906,364.138,387.514,364.558,388.15,364.923z M402.703,357.829
	c0.309,0.859,0.477,1.785,0.477,2.752c0,1.531-0.426,2.967-1.164,4.189c1.02-0.561,1.957-1.225,2.752-1.973l3.881-1.881
	l-0.178-0.123C406.701,359.577,404.748,358.569,402.703,357.829z M390.289,357.038c-0.74,0.988-1.18,2.213-1.18,3.543
	c0,3.262,2.652,5.91,5.928,5.91c3.273,0,5.926-2.648,5.926-5.91c0-1.348-0.459-2.551-1.219-3.545
	c-1.523-0.354-3.117-0.541-4.676-0.541C393.467,356.495,391.852,356.679,390.289,357.038z M395.246,513.729
	c-0.557-0.686-5.508-6.934-16.516-6.523c0,0-69.789,0.041-72.844-0.01c-22.879-1.154-23.852-27.291-23.852-32.568l0.033-265.869
	h225.896c0,0,0.238,267.443,0.035,269.357c-1.762,28.715-24.246,29.09-24.246,29.09h-71.316
	C399.156,507.206,395.801,513.044,395.246,513.729z M395.209,508.905c3.928-4.715,11.201-5.871,16.904-5.871h69.943
	c0,0,1.248,0.037,3.123-0.314c12.775-2.389,17.902-14.063,18.656-26.299c0.191-1.813-0.023-246.455-0.039-263.207H286.24
	l-0.033,259.857c0,13.865,4.08,29.078,21.434,29.953c2.994,0.051,39.33,0.027,62.502,0.014l8.887-0.008
	C385.104,502.806,391.189,504.534,395.209,508.905z"/>
</svg>
