<?xml version="1.0" encoding="utf-8"?>
<!-- Generator: Adobe Illustrator 16.0.0, SVG Export Plug-In . SVG Version: 6.00 Build 0)  -->
<!DOCTYPE svg PUBLIC "-//W3C//DTD SVG 1.1//EN" "http://www.w3.org/Graphics/SVG/1.1/DTD/svg11.dtd">
<svg version="1.1" id="Layer_1" xmlns="http://www.w3.org/2000/svg" xmlns:xlink="http://www.w3.org/1999/xlink" x="0px" y="0px"
	 width="792px" height="336px" viewBox="0 232.5 792 336" enable-background="new 0 232.5 792 336" xml:space="preserve">
<g>
	<path fill="#FFFFFF" d="M103.554,536.443c-2.324-2.524-6.22-3.524-9.732-3.395c0,0-39.541,0.025-41.272-0.005
		c-10.033-0.505-13.729-9.3-13.729-17.314l0.019-152.908h128.452c0.01,9.685,0.133,153.795,0.021,154.842
		c-0.434,7.075-4.737,13.826-12.122,15.207c-1.084,0.202-42.506,0.18-42.506,0.18C109.389,533.049,105.826,533.719,103.554,536.443z
		"/>
	<path fill="#06B058" d="M44.991,368.892h55.844v60.97c-8.593,0.93-15.466,6.951-16.714,15.442h-39.13V368.892z"/>
	<path fill="#FFCD33" d="M105.143,368.892h56.136v76.593h-39.575c-1.169-8.519-7.991-14.593-16.561-15.603V368.892z"/>
	<path fill="#EE2927" d="M44.953,449.676h39.298c0.308,9.498,7.598,16.91,16.904,17.917v60.828c0,0-2.806-1.436-9.806-1.436H60.681
		c-10.884,0-15.728-2.372-15.728-16.122V449.676z"/>
	<path fill="#1365A7" d="M161.444,449.676v61.188c0,15.028-4.844,16.122-15.727,16.122h-30.67c-6.999,0-9.165,1.757-9.165,1.757
		v-61.182c9.173-1.128,15.682-8.482,15.986-17.885H161.444z"/>
	<path fill="#FFFFFF" d="M101.714,432.411c-0.339,0.032-1.25,0.138-2.247,0.373c-7.924,1.885-11.927,7.575-11.927,16.014
		c0,9.298,8.168,15.406,15.555,15.406c7.208,0,15.667-4.808,15.667-15.798c0-8.709-5.546-12.756-7.232-13.681
		c-1.582-0.871-3.36-1.856-5.24-1.6c-1.162,0.157-4.686,0.242-4.536,0.133c0.368-0.266,0.131-2.208-0.279-2.617l-0.612-0.884
		c3.062-0.952,7.036-0.626,9.918,0.748c6.111,2.914,11.281,9.314,11.281,17.72c0,10.189-7.749,19.109-18.772,19.109
		c-11.034,0-18.948-9.039-18.948-18.649c0-8.82,4.922-16.391,14.717-18.281l1.769-0.068c0.423,0.424,0.582,1.024,0.953,1.498
		L101.714,432.411z M103.35,434.991l12.604,21.253H90.669L103.35,434.991z M144.425,423.188c0.341-0.018,0.691-0.029,0.947-0.024
		c4.042,0.068,5.459,2.087,4.682,6.009c-0.103,0.522-0.29,1.193-0.461,1.903l4.576,7.023c0.85,1.088-0.323,2.875-1.669,1.854
		l-0.88-0.929c-0.184,0.075-0.686,0.059-0.976,0c-2.134-0.416-3.566-2.834-3.712-5.239c-0.026-0.415-0.293-2.051-0.278-2.366
		l-3.742-5.041c-0.412,0.09-3.109,0.51-3.109,0.51c-4.941-0.156-4.406-3.553-4.222-5.01c0.109-0.878,0.734-2.661,1.344-4.112
		l-5.273-7.422c-0.629,0.048-6.82,0.881-9.262-1.933c-2.458-2.832-1.081-7.6,0.185-10.979c-0.725-1.092-3.07-4.481-3.202-4.546
		c-0.368-0.175-1.784,1.089-2.599-0.604c-0.739-1.538,1.81-4.205,1.81-4.205c1.599-2.664,4.503,2.082,5.876,4.345
		c1.483-4.035,2.541-8.92-1.886-11.07c-0.267-0.131-0.874-0.381-0.975-0.418c-1.377-0.025-2.323-0.024-3.479-0.834l-1.253-0.789
		c-0.603-0.511-3.899-1.856-2.831-3.092c1.487-1.723,5.577-0.855,7.244-0.301c8.684,2.895,10.465,8.88,8.068,16.576
		c-0.516,1.659-1.191,3.266-1.824,4.887l5.753,8.769c0.576,0.001,1.307,0.009,1.745,0.029c0.823,0.039,1.99,0.216,1.99,0.216
		c6.069,1.138,5.766,5.526,4.134,9.84c-0.097,0.261-0.379,0.602-0.603,1.114L144.425,423.188z M113.435,494.591l5.361-3.461v-14.675
		h2.668v-2.095c0,0,0.375,0.026,0.745,0.068c2.632,0.297,5.103-2.491,7.652-2.7c-0.354-0.666-0.752-1.867-0.752-2.694
		c0-2.448,0.843-3.76,2.556-5.248c0.547-0.4,0.71,0.625,0.459,1.212c-0.438,1.018,1.795,1.92,1.504-0.587
		c-0.142-1.223-1.28-1.931-1.754-2.965c-0.064-0.138-0.377-0.71-0.377-0.71s0.685,0.383,1.129,0.585
		c2.839,1.293,5.21,3.368,3.425,6.684c1.146,0.741,1.427,2.4,1.002,3.724c2.403,0.533,4.604,2.972,7.289,2.688
		c0.383-0.041,0.888-0.14,0.888-0.14v2.179h2.609V491.2l3.844,0.419c0.247,0.012,0.711,0.907,0.711,0.907
		c0.205,0.893,0.187,1.873,0.088,2.775c0.447,0.075,4.099,0.654,4.471,1.086c0.854,0.99,0.353,3.92-0.209,4.761
		c-0.224,0.333-12.333,15.636-12.333,15.636l-33.817-11.201v-4.727l-1.802-0.585l6.397-3.467l0.041-1.629L113.435,494.591z
		 M103.448,292.256l6.675,12.834l12.929,1.372l-10.017,10.013l2.57,13.355l-12.157-6.503l-12.074,6.503l2.057-13.611l-9.845-9.757
		l12.837-1.285L103.448,292.256z M55.278,496.855l2.467-11.05c0.225-0.996,0.439-1.499,1.2-1.571
		c0.766-0.071,0.935,0.555,1.031,1.102l2.067,11.162l-3.129-7.273L55.278,496.855z M87.563,481.175
		c4.392,3.953,4.746,10.721,0.792,15.11c-3.954,4.394-10.72,4.747-15.111,0.793c-4.393-3.955-4.747-10.72-0.792-15.112
		C76.405,477.574,83.171,477.221,87.563,481.175z M53.805,500.585l37.419-0.026v16.06c-2.191-0.921-1.458-2.013-3.205-2.864
		l-0.495-0.23c-0.157-0.071-1.61-0.414-1.61-0.661v-8.108H56.965c-0.355,0-0.969-1.513-1.172-1.772
		C55.178,502.195,53.694,501.697,53.805,500.585z M58.205,458.994l2.232,0.23l-1.993,1.752l0.623,2.452l-2.196-1.18l-2.239,1.247
		l0.452-2.466l-1.851-1.83l2.316-0.193l1.33-2.559L58.205,458.994z M94.792,410.854c0,0-2.454,4.576-8.35,4.576
		c-5.896,0-7.031-4.576-7.031-4.576H94.792z M52.432,385.221l2.674,1.024l14.941-1.556l1.508-10.149l2.044,10.149l14.94,1.556
		l2.674-1.024l0.329,1.904H73.853l0.661,14.39v23.729h4.796l-5.237,4.028l0.33,9.119c0,0,1.32,0.804,1.32,1.793
		s-1.54,1.211-1.54,1.211h-2.047H71.51h-2.048c0,0-1.539-0.222-1.539-1.211s1.32-1.793,1.32-1.793l0.329-9.119l-5.237-4.028h4.797
		v-23.729l0.66-14.39H52.102L52.432,385.221z M48.515,410.854h15.381c0,0-1.134,4.576-7.03,4.576S48.515,410.854,48.515,410.854z"/>
	<path d="M110.51,322.824l-1.616-7.92l5.962-5.458l-8.033-0.91l-3.347-7.358l-3.349,7.358l-8.032,0.91l5.963,5.458l-1.617,7.92
		l7.035-3.986L110.51,322.824z M112.499,325.636l-9.021-5.113l-9.023,5.113l2.073-10.161l-7.648-7.002l10.304-1.167l4.295-9.438
		l4.294,9.438l10.304,1.167l-7.649,7.002L112.499,325.636z M117.116,331.991l-13.74-7.784l-13.74,7.784l3.157-15.473l-11.649-10.662
		l15.692-1.778l6.541-14.373l6.541,14.373l15.691,1.778l-11.65,10.662L117.116,331.991z M114.6,328.488l-2.558-12.524l9.431-8.632
		l-12.701-1.439l-5.295-11.635l-5.294,11.635l-12.702,1.439l9.43,8.632l-2.556,12.524l11.123-6.3L114.6,328.488z M131.885,332.691
		c0.939,0.706-0.118,2.115-1.059,1.409l-8.011-6.016c0.357-0.467,0.697-0.945,1.022-1.438L131.885,332.691z M157.107,330.172
		c1.112,0.385,0.535,2.05-0.577,1.665l-30.075-10.414c0.199-0.55,0.379-1.11,0.539-1.679L157.107,330.172z M112.894,280.164
		c0.351-1.122,2.034-0.594,1.682,0.527l-2.832,9.025c-0.55-0.204-1.108-0.389-1.673-0.555L112.894,280.164z M130.366,291.426
		c0.944-0.698,1.992,0.72,1.048,1.418l-7.99,5.902c-0.336-0.482-0.691-0.952-1.062-1.407L130.366,291.426z M137.1,267.592
		c0.712-0.933,2.114,0.134,1.401,1.069l-19.358,25.393c-0.447-0.379-0.909-0.744-1.383-1.092L137.1,267.592z M110.629,336.665
		c0.563-0.18,1.116-0.378,1.66-0.595l2.996,8.973c0.372,1.115-1.301,1.673-1.672,0.559L110.629,336.665z M137.554,311.651
		c1.173,0,1.173,1.763,0,1.763h-9.635l0.002-0.417c0-0.45-0.012-0.898-0.035-1.346H137.554z M117.279,333.377
		c0.483-0.336,0.953-0.688,1.408-1.059l18.71,25.063c0.704,0.941-0.709,1.996-1.412,1.055L117.279,333.377z M156.726,293.477
		c1.112-0.375,1.676,1.294,0.563,1.672l-30.532,10.318c-0.178-0.563-0.375-1.116-0.592-1.66L156.726,293.477z M102.516,257.093
		c0-1.175,1.763-1.175,1.763,0v31.104c-0.394-0.019-0.792-0.029-1.19-0.029c-0.191,0-0.382,0.002-0.573,0.007V257.093
		L102.516,257.093z M74.87,332.691l8.049-6.044c0.323,0.492,0.664,0.971,1.021,1.437l-8.012,6.017
		C74.989,334.807,73.929,333.397,74.87,332.691z M49.647,330.172l30.114-10.428c0.16,0.568,0.34,1.129,0.539,1.679l-30.075,10.414
		C49.113,332.222,48.537,330.557,49.647,330.172z M93.86,280.164l2.824,8.998c-0.567,0.166-1.125,0.351-1.674,0.555l-2.831-9.025
		C91.825,279.57,93.508,279.042,93.86,280.164z M76.387,291.426l8.005,5.914c-0.372,0.455-0.726,0.925-1.064,1.407l-7.987-5.902
		C74.396,292.146,75.443,290.729,76.387,291.426z M69.655,267.592l19.34,25.37c-0.476,0.348-0.936,0.712-1.385,1.092l-19.355-25.393
		C67.541,267.726,68.943,266.659,69.655,267.592z M96.127,336.665l-2.984,8.937c-0.374,1.114-2.044,0.557-1.673-0.559l2.997-8.973
		C95.01,336.287,95.564,336.485,96.127,336.665z M69.2,311.651h9.669c-0.025,0.447-0.036,0.896-0.036,1.346l0.003,0.417H69.2
		C68.026,313.414,68.026,311.651,69.2,311.651z M89.475,333.377l-18.707,25.059c-0.702,0.941-2.114-0.113-1.412-1.055l18.709-25.063
		C88.522,332.689,88.993,333.041,89.475,333.377z M50.03,293.477l30.561,10.33c-0.217,0.544-0.417,1.098-0.594,1.66l-30.531-10.319
		C48.353,294.771,48.916,293.102,50.03,293.477z M102.474,337.821c0.205,0.006,0.409,0.009,0.615,0.009
		c0.385,0,0.768-0.01,1.147-0.026v22.244h-1.763V337.821L102.474,337.821z M86.401,393.617l-5.383,16.417h5.383V393.617z
		 M79.663,410.034l6.738-19.748v-2.292H74.128c0.238,2.498,0.449,4.947,0.596,7.088c0.6,8.771,0.301,26.171,0.231,29.754h4.634
		c0.783,0,1.009,0.724,0.365,1.168l-5.09,3.513c0.027,1.323,0.138,6.169,0.387,8.929c0.792,0.41,1.281,0.658,1.269,1.749
		c-0.017,1.429-1.321,1.943-2.488,1.845h-2.779l-1.837-0.001c0,0-0.147-0.003-0.353-0.036c-2.099-0.343-2.725-2.947-0.638-3.541
		c0.17-2.682,0.201-7.624,0.205-8.948L63.624,426c-0.638-0.448-0.413-1.166,0.369-1.166h4.374
		c-0.077-3.666-0.419-21.76,0.141-29.723c0.15-2.131,0.372-4.622,0.624-7.178H56.893v2.369l6.732,19.734h1.484
		c0,0-0.433,1.208-0.737,1.728c-1.765,3.005-4.967,4.431-8.442,4.431c-4.245,0-7.013-2.619-8.602-6.158h1.547l6.735-19.739v-2.364
		h-3.872c-1.171,0-0.343-2.544-0.261-2.957c0.417-2.1,2.584,0.288,3.117,0.679c0.97,0.161,4.287-0.324,5.162-0.439
		c2.774-0.363,5.852-0.822,7.437-0.935c0.276-0.02,1.891-0.165,2.367-0.562c0.706-6.652,1.446-12.635,1.446-12.635
		c0.107-0.866,1.167-0.864,1.272,0.001c0,0,0.733,5.988,1.429,12.707c0.496,0.385,2.078,0.528,2.351,0.548
		c3.712,0.263,7.379,1.059,11.091,1.348c0.474,0.037,1.032,0.105,1.508,0.026c0.598-0.439,1.353-1.396,2.102-1.486
		c1.284-0.152,1.271,2.215,1.389,3.032c0.059,0.405-0.224,0.733-0.635,0.733h-3.833v2.288l6.74,19.752h1.559
		c0,0-0.56,1.243-0.881,1.748c-1.702,2.666-4.44,4.409-7.721,4.409c-4.492,0-7.735-2.122-9.179-6.157H79.663L79.663,410.034z
		 M93.068,410.034l-5.385-16.423v16.423H93.068z M50.231,410.038h5.382v-16.412L50.231,410.038z M56.894,410.038h5.378
		l-5.378-16.406V410.038z M63.144,411.319H49.438c1.475,2.175,3.749,3.595,6.494,3.595
		C58.863,414.914,61.567,413.802,63.144,411.319z M90.601,385.726c-0.582,0.469-1.23,0.783-1.505,0.987h1.673
		C90.721,386.417,90.662,386.065,90.601,385.726z M85.552,386.713c-2.875-0.36-6.697-0.889-9.583-1.092
		c-0.927-0.066-1.607-0.2-2.109-0.364l0.145,1.456H85.552z M72.79,387.465c-0.19-2.066-0.465-7.948-0.505-8.616
		c-0.04-0.666-0.124-1.087-0.124-1.087l0.128,47.074l1.385-0.002c0.068-3.513,0.371-20.905-0.229-29.664
		C73.287,392.853,73.052,390.175,72.79,387.465z M52.654,385.666c-0.062,0.342-0.12,0.691-0.167,0.987h1.674
		C53.885,386.45,53.235,386.136,52.654,385.666z M57.703,386.653h11.555l0.149-1.461c-0.508,0.167-1.193,0.302-2.122,0.369
		C64.4,385.765,60.578,386.293,57.703,386.653z M69.721,438.272h4.229c-0.215-2.596-0.322-6.699-0.359-8.353h-3.679
		C69.902,431.598,69.866,435.751,69.721,438.272z M74.64,439.554h-5.532c-0.191,0.086-0.406,0.147-0.617,0.276
		c-0.209,0.659,0.434,0.903,0.955,0.928h1.809h2.808l0.071,0.006c0,0,0.079,0.007,0.198,0.006c0.754-0.016,1.305-0.724,0.699-1.023
		C74.894,439.676,74.762,439.618,74.64,439.554z M69.615,428.639h4.264l3.654-2.521H66.022L69.615,428.639z M71.008,424.836
		l0.13-47.049c0,0-0.055,0.505-0.134,1.301c-0.079,0.797-0.519,8.303-0.531,8.298c-0.277,2.778-0.524,5.51-0.687,7.817
		c-0.559,7.949-0.213,26.042-0.137,29.631L71.008,424.836z M80.167,411.316c1.578,2.481,4.281,3.594,7.213,3.594
		c2.565,0,5.124-1.444,6.526-3.594H80.167z M118.776,376.466c0.556-0.029,1.747,0.35,1.53,1.111
		c-0.274,0.955-2.496,0.318-2.223-0.638C118.14,376.738,118.355,376.488,118.776,376.466z M149.974,432.572
		c-0.088,0.733-0.064,1.413,0.191,1.904c0.563,1.076,1.128,2.146,1.709,3.211l1.16,1.708c0,0,0.427,0.28,0.796,0.114
		c0.372-0.166,0.321-0.689,0.321-0.689L149.974,432.572z M148.352,427.788l-0.002,0.098c-0.017,1.041-0.305,2.204-0.451,3.064
		c-0.027,0.273-0.058,0.59-0.085,0.907c-0.081,1.463,0.021,2.751,0.772,4.155c0.823,1.538,1.644,2.09,2.158,2.293l-0.21-0.396
		c-0.751-1.244-1.494-2.422-1.771-3.749c-0.12-0.453-0.149-0.852-0.111-1.297c0.006-0.112,0.014-0.229,0.025-0.344
		c0.03-0.273,0.072-0.523,0.111-0.755c0.074-0.434,0.534-2.084,0.604-2.338c0.053-0.23,0.107-0.475,0.16-0.734
		c0.697-3.289-0.329-4.537-3.635-4.621l0.887,1.354C148.017,425.679,148.353,426.652,148.352,427.788z M119.678,392.159
		c0.942,0.444,2.592,3.114,3.163,3.967l1.193-3.142c-0.661-1.038-2.734-4.61-4.097-5.02c-0.099,0.01-0.199,0.071-0.219,0.082
		c-0.123,0.137-0.206,0.322-0.315,0.473c-0.358,0.497-2.188,2.518-1.796,3.328C117.977,392.623,118.747,391.718,119.678,392.159z
		 M128.833,406.896c-3.089-0.225-4.268-2.999-3.425-5.832l0.718-2.039c0.331-0.944,0.712-1.891,1.105-2.84l0.149-0.383
		c1.293-3.095,2.626-6.253,2.529-9.615c-0.106-3.705-2.174-7.299-8.326-9.368c-1.093-0.367-5.685-1.318-6.809-0.122
		c0.278,0.578,2.94,2.21,3.645,2.703c0.994,0.695,2.184,0.79,3.369,0.802c0,0,0.416,0.133,0.896,0.366
		c7.095,3.453,3.31,10.611,1.428,15.935c0,0-1.505,4.043-1.844,5.068c-1.843,5.572,1.434,8.06,6.65,8.246
		c0.797,0.029,1.442,0.03,1.93,0.023l-1.588-2.337L128.833,406.896z M140.972,424.303c-1.413-0.179-2.191-1.408-2.043-2.812
		c0.332-3.159,2.445-5.759,2.851-8.907c0.26-2.013-0.253-4.493-4.332-5.278c-0.877-0.136-1.756-0.218-2.644-0.244l1.867,2.83
		c3.531,0.872,3.035,3.962,1.914,6.587c-1.347,2.873-4.965,9.368,1.301,9.639c0.745-0.039,1.492-0.094,2.229-0.215L140.972,424.303z
		 M137.148,416.529l0.262-0.565c0.237-0.556,0.451-1.121,0.589-1.667l-4.314-6.567l-1.32-1.984l-4.69-7.163l-0.298,0.778
		l-0.199,0.532l-0.55,1.564l-0.017,0.064l2.869,4.085l1.313,1.872L137.148,416.529z M142.932,427.045
		c-0.395,0.079-0.795,0.154-1.074,0.19c-0.768,0.103-1.966,0.162-1.966,0.162c-5.119-0.204-4.979-4.06-4.777-5.528
		c0.123-0.883,0.799-2.562,1.43-4l-4.783-6.807c-0.803,0.041-1.851,0.07-2.889,0.034c-2.063-0.074-4.986-0.396-7.023-2.658
		c-2.553-2.831-0.874-7.421,0.449-10.805c-0.756-1.137-1.823-2.727-2.377-3.466c-0.468-0.626-0.683-0.801-0.791-0.851
		c-0.306-0.146-1.833,0.848-2.679-0.914c-0.826-1.719,1.278-3.608,2.071-4.876c1.673-2.682,4.621,1.518,6.099,3.91
		c1.313-3.958,1.835-8.144-3.049-9.959c-3.658-0.104-3.426-1.108-6.033-2.481c-1.102-0.582-1.732-1.171-1.979-1.719
		c-0.145-0.045-0.275-0.098-0.368-0.127c-1.044-0.344-1.742-0.759-2.575-1.459c-0.238-0.199-0.214-0.374-0.097-0.559
		c0.135-0.21,0.4-0.406,0.688-0.197c1.128,0.814,1.338,0.93,2.646,0.929c1.116-1.103,4.381-1.524,8.138-0.262
		c8.767,2.947,10.67,8.923,8.118,16.713c-0.533,1.626-1.221,3.198-1.87,4.785l5.711,8.662c0.65,0.012,1.336,0.027,1.7,0.048
		c0.838,0.046,2.029,0.232,2.029,0.232c6.184,1.192,6.123,5.821,4.379,10.228c-0.102,0.257-0.295,0.659-0.518,1.144l3.541,5.392
		c0.347-0.013,0.684-0.02,0.921-0.016c4.107,0.104,5.657,2.133,4.805,6.168c-0.107,0.496-0.296,1.145-0.472,1.836l4.863,7.312
		c0.899,1.151-0.744,3.826-3.039,2.181l-0.442-0.631c-1.525,0.626-3.674-1.943-4.262-3.041c-0.85-1.589-0.984-2.948-0.928-4.539
		L142.932,427.045z M141.73,423.019l0.267,0.382l4.718,6.693l0.061-0.354c0.055-0.376,0.107-0.724,0.136-0.881l0.054-0.301
		c0.018-0.118,0.032-0.213,0.038-0.27l0.021-0.186l-6.099-9.286l-0.034,0.072c-0.254,0.637-0.485,1.301-0.607,1.904l-0.027,0.144
		L141.73,423.019z M135.455,481.085c3.344-0.87,4.821,1.283,7.879,1.455c0.853,0.047,0.782,1.326-0.072,1.279
		c-3.019-0.17-4.788-2.194-7.483-1.492C134.951,482.54,134.628,481.301,135.455,481.085z M135.503,476.312
		c3.582-0.836,4.721,1.35,7.837,1.517c0.854,0.044,0.786,1.324-0.068,1.278c-2.997-0.158-4.601-2.218-7.478-1.547
		C134.962,477.754,134.671,476.505,135.503,476.312z M135.482,485.803c3.501-0.974,4.797,1.384,7.806,1.447
		c0.854,0.02,0.826,1.301-0.028,1.283c-2.846-0.063-4.721-2.25-7.437-1.497C135.001,487.266,134.657,486.03,135.482,485.803z
		 M131.229,487.036c-2.712-0.753-4.589,1.434-7.436,1.497c-0.854,0.018-0.88-1.264-0.027-1.283c3.008-0.063,4.306-2.421,7.807-1.447
		C132.398,486.03,132.053,487.266,131.229,487.036z M131.275,482.327c-2.201-0.574-3.206,0.39-5.087,1.026
		c-0.675,0.229-1.45,0.412-2.396,0.465c-0.853,0.048-0.926-1.231-0.072-1.279c3.058-0.172,4.535-2.324,7.878-1.455
		C132.426,481.301,132.101,482.54,131.275,482.327z M131.259,477.56c-2.877-0.671-4.479,1.388-7.478,1.547
		c-0.853,0.046-0.922-1.234-0.068-1.278c3.116-0.167,4.256-2.354,7.837-1.517C132.384,476.505,132.092,477.754,131.259,477.56z
		 M141.574,501.456l-25.665-5.615v3.237l25.665,6.731V501.456z M134.133,472.923v18.646c1.655-0.498,3.422-0.787,5.135-0.787
		c1.853,0,3.725,0.333,5.509,0.815v-16.574c-3.631,0.384-5.411-2.794-7.946-2.794C135.868,472.229,134.969,472.497,134.133,472.923z
		 M132.85,491.522v-18.609c-0.179-0.095-0.369-0.189-0.545-0.259c-0.539-0.215-1.274-0.425-2.088-0.425
		c-2.533,0-4.524,3.191-7.966,2.803l-0.01,16.415c1.561-0.582,3.297-0.758,4.946-0.758
		C128.975,490.689,131.065,490.933,132.85,491.522z M132.781,471.464c0.295,0.118,0.536,0.235,0.714,0.33
		c0.739-0.379,1.546-0.651,2.373-0.773c0.175-0.037,0.351-0.06,0.529-0.06c0.168-0.413,0.208-0.903,0.033-1.456
		c-0.637,1.271-2.423,0.397-1.495-1.182c0.546-0.929,1.019-1.474,0.919-2.685c-0.097-1.186-1.106-2.021-2.072-2.543
		c0,0,0.398,0.878,0.48,1.422c0.479,3.163-3.149,2.484-2.444,0.704c-0.768,0.729-1.806,1.736-1.806,3.788
		c0,0.732,0.211,1.402,0.585,1.955l0.223,0.017C131.594,471.056,132.27,471.261,132.781,471.464z M151.917,495.345
		c0.063-0.501,0.138-1.166,0.125-1.444c-0.013-0.359-0.021-0.729-0.071-1.089l-9.114,8.467v3.794
		c2.529-2.596,8.592-8.821,8.79-9.063c0.156-0.192,0.257-0.64,0.263-0.664L151.917,495.345L151.917,495.345z M145.348,515.082
		c3.054-3.907,10.968-14.032,11.147-14.3c0.384-0.58,0.441-2.316,0.279-3.407l-11.426,13.289L145.348,515.082L145.348,515.082z
		 M111.343,501.732v2.764v0.847l32.724,10.778v-5.208L111.343,501.732z M111.988,499.409l-1.404,0.774l0.207,0.063l33.696,9.453
		l11.229-13.062c-0.827-0.144-1.917-0.328-2.731-0.467c-0.701,1.402-5.222,5.696-5.448,5.928c-2.445,2.515-5.119,5.256-5.119,5.256
		l-27.318-7.165L111.988,499.409z M118.197,492.532l-3.011,1.838l26.889,5.885l6.523-6.06c-0.824-0.145-6.093-1.068-8.565-1.231
		c-2.369-0.159-5.691,0.068-6.401,0.119l-0.114,0.043l-0.056-0.017l-0.136-0.027c-0.763-0.05-3.965-0.245-6.251-0.118
		c-2.622,0.145-8.876,1.248-8.876,1.248L118.197,492.532L118.197,492.532z M150.663,492.275l-1.957-0.205v2.024L150.663,492.275z
		 M146.058,492.356c0.458,0.083,0.912,0.163,1.36,0.242v-1.952l0.007-13.627h-1.366L146.058,492.356L146.058,492.356z
		 M119.479,490.247l0.061-0.037l-0.012,2.409c0.374-0.062,0.864-0.144,1.433-0.23V477.02h-1.482L119.479,490.247L119.479,490.247z
		 M111.774,494.952l6.423-3.923v-15.292h2.763v-2.407c0,0,1.08,0.39,1.434,0.429c2.566,0.289,4.426-2.096,6.8-2.682
		c-0.304-0.629-0.47-1.342-0.47-2.103c0-2.449,1.204-4.015,2.917-5.502c0.547-0.4,0.903-0.528,0.899-0.54
		c0.016-0.008,0.036-0.023,0.036-0.022c-0.007-0.011-0.014-0.018-0.021-0.027c-0.366-0.468-0.775-0.904-1.019-1.438
		c-0.065-0.138-0.329-1.109-0.329-1.109s1.145,0.422,1.59,0.623c2.839,1.293,5.518,3.416,3.734,6.729
		c1.091,0.707,1.495,2.082,1.169,3.354c2.441,0.515,4.228,2.994,6.914,2.71c0.369-0.039,1.443-0.406,1.443-0.406v2.392h2.648v15.045
		l3.063,0.321c1.179,0.123,1.363,0.575,1.484,1.684c0.08,0.72,0.084,1.41,0.01,2.131c1.114,0.188,3.423,0.582,3.855,0.669
		c1.572,0.313,0.964,5.121,0.443,5.904c-0.224,0.336-12.668,16.252-12.668,16.252l-37.408-12.32l2.577-1.631v-2.425l-2.766-0.831
		l7.331-4.046v-0.907L111.774,494.952z M104.186,429.76c1.146-0.018,1.168,1.317,0.023,1.336
		C103.065,431.112,103.041,429.776,104.186,429.76z M103.252,447.363c0.931,0,1.688,0.753,1.688,1.686
		c0,0.932-0.758,1.686-1.688,1.686c-0.931,0-1.688-0.754-1.688-1.686C101.563,448.116,102.32,447.363,103.252,447.363z
		 M65.337,486.196l-6.656-17.553c0.421-0.097,0.83-0.229,1.223-0.391l6.63,17.488C66.838,486.541,65.639,486.995,65.337,486.196z
		 M54.57,500.976c0.024,0.949,1.343,1.412,1.906,2.132c0.155,0.197,0.784,1.192,1.041,1.192h28.821l0.008,7.848
		c0.322,0.521,2.26,0.76,2.633,1.959c0.219,0.71,0.992,1.192,1.626,1.482v-14.637L54.57,500.976z M62.516,499.688l-0.347-1.663
		l-1.405-1.771l-1.842-4.899l-2.165,5.306l-1.369,1.325l-0.405,1.709L62.516,499.688z M56.041,495.026l2.932-7.185l2.583,6.872
		l-1.676-8.604c-0.166-0.949-0.511-1.154-0.874-1.122c-0.597,0.058-0.777,0.423-0.983,1.334L56.041,495.026z M88.051,480.769
		c4.653,4.189,5.028,11.357,0.839,16.011c-1.172,1.302-2.578,2.269-4.097,2.894l7.094-0.006v17.663c0,0-0.973-0.248-1.237-0.342
		c-2.97-1.06-1.97-2.185-3.54-2.948c-0.813-0.396-2.054-0.8-2.054-1.911v-6.549H57.516c-1.396,0-1.568-1.528-2.375-2.012
		c-1.509-0.906-2.365-2.211-1.51-3.732l3.143-13.797c0.188-0.835,0.524-2.178,2.112-2.327c1.439-0.135,2.063,1.07,2.254,2.172
		l2.688,13.806l12.322-0.01c-1.168-0.48-2.277-1.167-3.271-2.062c-4.652-4.19-5.028-11.358-0.839-16.011
		C76.23,476.954,83.397,476.578,88.051,480.769z M81.484,496.806c-1.997,1.053-3.9,1.397-5.333,1.472
		c2.201,1.049,4.691,1.241,6.991,0.609c-0.28-0.376-0.757-0.999-1.389-1.761L81.484,496.806z M87.885,490.223
		c-0.498,0.918-1.145,1.889-1.975,2.901c-1.059,1.289-2.174,2.266-3.283,3.001c0.625,0.751,1.22,1.524,1.781,2.32
		c1.307-0.556,2.517-1.399,3.529-2.524c1.138-1.264,1.896-2.736,2.281-4.278c-0.371-0.209-1.186-0.676-2.235-1.354L87.885,490.223z
		 M89.415,484.604c0.012,1.194-0.208,2.719-0.976,4.486c0.661,0.428,1.334,0.835,2.02,1.221
		C90.674,488.365,90.322,486.374,89.415,484.604z M79.844,481.535c1.539-0.814,3.224-1.385,4.915-1.438
		c-2.09-0.988-4.438-1.209-6.634-0.684c0.286,0.376,0.696,0.901,1.21,1.52C79.502,481.136,79.673,481.335,79.844,481.535z
		 M73.266,487.877c0.829-1.598,2-3.043,3.485-4.263c0.595-0.488,1.247-0.967,1.939-1.407c-0.655-0.771-1.279-1.569-1.868-2.391
		c-1.422,0.553-2.739,1.436-3.829,2.648c-1.049,1.165-1.775,2.508-2.186,3.92c0.34,0.188,1.186,0.671,2.296,1.387L73.266,487.877z
		 M71.812,494.319c-0.054-1.848,0.263-3.637,0.925-5.291c-0.723-0.473-1.461-0.92-2.215-1.34
		C70.182,489.955,70.619,492.308,71.812,494.319z M77.856,493.024l-3.559,3.917c0.16,0.02,0.367,0.041,0.615,0.056
		c2.03,0.115,3.961-0.321,5.697-1.192C79.737,494.84,78.818,493.908,77.856,493.024z M83.414,486.908l-4.691,5.163
		c1.072,0.969,2.093,1.992,3.053,3.068c1.166-0.753,2.226-1.71,3.142-2.829c0.602-0.732,1.274-1.723,1.852-2.833
		C85.615,488.676,84.493,487.819,83.414,486.908z M87.692,482.2l-3.418,3.763c0.974,0.837,1.987,1.628,3.038,2.364
		c0.848-2.01,1.257-4.237,0.395-5.989l0.078-0.04L87.692,482.2z M83.315,485.112l3.225-3.551c-1.936-0.492-3.985,0.04-5.817,0.961
		C81.548,483.421,82.412,484.286,83.315,485.112z M77.759,491.226l4.689-5.161c-1.014-0.911-1.985-1.873-2.901-2.882
		c-0.719,0.446-1.389,0.935-1.983,1.422c-1.295,1.064-2.402,2.459-3.194,4.017C75.537,489.431,76.67,490.301,77.759,491.226z
		 M73.246,496.191l0.059-0.026l3.595-3.993c-0.978-0.846-1.997-1.646-3.051-2.391c-0.795,2.035-1.057,4.261-0.551,6.354
		l-0.061,0.049L73.246,496.191z M58.949,458.103l4.047,0.42l-3.27,2.875l1.041,4.098l-3.759-2.021l-3.63,2.025l0.744-4.061
		l-3.037-3.003l3.976-0.333l1.94-3.733L58.949,458.103z M58.13,459.308l-1.125-2.163l-1.131,2.176l-1.909,0.159l1.54,1.523
		l-0.375,2.052l1.866-1.042l1.812,0.974l-0.516-2.033l1.657-1.457L58.13,459.308z M63.498,465.357l8.209,6.561
		c0.667,0.533-0.133,1.535-0.799,1.001l-8.218-6.567C62.985,466.042,63.256,465.71,63.498,465.357z M64.75,477.473l-4.599-9.325
		c0.393-0.176,0.769-0.382,1.125-0.616l4.624,9.376C66.279,477.674,65.129,478.239,64.75,477.473z M70.581,478.459l-9.095-11.07
		c0.351-0.247,0.681-0.521,0.987-0.818l9.097,11.075C72.114,478.305,71.124,479.119,70.581,478.459z M79.841,475.152l-16.153-10.084
		c0.229-0.361,0.427-0.741,0.597-1.138l16.235,10.133C81.244,474.517,80.566,475.604,79.841,475.152z M99.636,433.568
		c-0.755,0.187-1.476,0.414-2.159,0.68c-5.411,2.198-9.044,7.659-9.044,14.567c0,2.441,0.644,4.681,1.722,6.635l12.788-21.214
		c-0.518-0.025-1.036-0.145-1.558-0.432c-0.223-0.121-0.402-0.279-0.566-0.453C100.418,433.407,100.023,433.48,99.636,433.568z
		 M100.258,429.181l0.017-59.813H45.877v75.094h38.117c1.392-8.185,6.992-12.823,15.422-14.911
		C99.695,429.417,99.976,429.295,100.258,429.181z M122.698,444.462h38.137v-75.094H106.49v58.996
		c1.578,0.187,3.167,0.66,4.743,1.41C116.748,432.397,121.436,437.484,122.698,444.462z M59.153,526.104l0.054-0.001h33.858
		c2.482,0,4.611,0.225,6.93,1.162l0.28,0.116v-59.36c-9.3-1.383-15.661-8.856-16.522-17.345H45.877v59.576l-0.002,3.717
		c0,9,4.049,12.135,9.701,12.135H59.153z M162.202,510.447l-0.001,3.522c0,9.611-4.524,13.497-11.063,13.497h-1.673h-4.661H113.41
		c-3.397,0-5.366,0.337-8.284,1.956v-61.239c-0.563,0.045-1.136,0.067-1.717,0.067c-0.6,0-1.191-0.025-1.771-0.072l0.001,61.212
		c0,0-1.129-0.602-1.716-0.838c-2.191-0.886-4.514-1.087-6.859-1.087H59.206c-0.455,0-0.91,0.004-1.364,0h-2.266
		c-6.538,0-11.063-3.885-11.063-13.496v-3.688v-60.969h39.151c-0.007-0.203-0.01-0.406-0.01-0.61c0-1.002,0.051-1.962,0.15-2.879
		H44.512v-77.82h57.127l-0.001,60.716c1.147-0.314,2.313-0.462,3.489-0.446v-60.27h57.075v77.82H122.9
		c0.087,0.784,0.132,1.593,0.132,2.42c0,0.361-0.008,0.721-0.025,1.077h39.196L162.202,510.447L162.202,510.447z M149.752,526.104
		h1.385c5.652,0,9.701-3.135,9.701-12.135v-3.337l-0.001-0.181l-0.002-59.767h-37.939c-0.983,8.743-7.216,16.012-16.405,17.348
		v59.353c2.381-1.047,4.607-1.282,7.184-1.282h35.791L149.752,526.104z M96.638,447.179c2.073-1.074,4.396-1.698,6.734-1.698
		c2.313,0,4.628,0.621,6.693,1.677l-6.708-11.129L96.638,447.179z M112.01,450.384l-2.29,1.125
		c-1.711,1.514-4.191,2.472-6.459,2.472c-2.162,0-4.529-0.846-6.101-2.374l-2.455-1.224l-3.067,5.088h23.437L112.01,450.384z
		 M116.592,455.5c1.001-1.979,1.595-4.334,1.595-7.077c0-6.656-3.556-11.822-9.347-14.193c-1.938-0.791-3.542-0.171-5.081-0.019
		L116.592,455.5z M90.965,456.752c2.888,4.146,7.791,6.713,12.25,6.713c4.54,0,9.736-2.187,12.66-6.713H90.965z M101.639,430.015
		l0.378,0.389l0.088,0.093l0.103,0.11c0.268,0.285,0.552,0.578,0.687,0.908c0.043,0.074,0.086,0.15,0.127,0.227
		c0,0-0.044,0.36-0.137,0.567c-0.056,0.125-0.125,0.242-0.205,0.352c-0.053,0.073-0.112,0.144-0.174,0.211
		c1.152,0.252,2.927-0.238,3.829-0.361c1.93-0.263,4.034,0.992,5.656,1.881c1.713,0.938,7.479,5.258,7.479,14.031
		c0,11.082-8.983,16.324-16.255,16.324c-7.459,0-16.063-6.55-16.063-15.931c0-7.971,3.65-12.226,7.346-14.456
		c3.115-1.881,6.226-2.301,7.094-2.387l0.015-0.088c-0.355-0.452-0.766-0.857-1.171-1.266l-1.006,0.194
		c-9.758,1.882-14.494,9.112-14.494,17.888c0,9.554,7.48,18.267,18.474,18.267c10.98,0,18.34-8.588,18.34-18.725
		c0-8.359-4.975-14.415-11.067-17.313C107.896,429.606,104.619,429.147,101.639,430.015z M99.383,451.667
		c-0.461-0.727-0.727-1.587-0.727-2.511c0-0.556,0.097-1.089,0.275-1.585c-1.164,0.422-2.273,0.997-3.28,1.689l-0.134,0.094
		l2.41,1.202c0,0,0.196,0.206,0.411,0.384C98.664,451.213,99.015,451.455,99.383,451.667z M107.796,447.565
		c0.179,0.497,0.276,1.032,0.276,1.591c0,0.886-0.247,1.716-0.673,2.423c0.589-0.325,1.131-0.709,1.591-1.142l2.244-1.087
		l-0.103-0.071C110.108,448.576,108.979,447.993,107.796,447.565z M100.619,447.108c-0.428,0.571-0.682,1.279-0.682,2.048
		c0,1.886,1.534,3.417,3.427,3.417c1.893,0,3.426-1.531,3.426-3.417c0-0.778-0.265-1.475-0.705-2.049
		c-0.88-0.205-1.802-0.313-2.703-0.313C102.457,446.794,101.523,446.9,100.619,447.108z M103.485,537.696
		c-0.322-0.396-3.184-4.009-9.548-3.771c0,0-40.348,0.023-42.113-0.006c-13.228-0.667-13.79-15.777-13.79-18.828l0.019-153.707
		h130.598c0,0,0.137,154.617,0.02,155.724c-1.019,16.601-14.017,16.817-14.017,16.817h-41.23
		C105.746,533.925,103.806,537.3,103.485,537.696z M103.464,534.907c2.271-2.726,6.476-3.395,9.773-3.395h40.437
		c0,0,0.722,0.021,1.806-0.182c7.385-1.381,10.349-8.13,10.786-15.204c0.11-1.048-0.014-142.483-0.022-152.168H40.466L40.447,514.19
		c0,8.016,2.359,16.812,12.392,17.317c1.73,0.029,22.738,0.015,36.134,0.008l5.137-0.005
		C97.622,531.381,101.14,532.38,103.464,534.907z"/>
</g>
<g>
	<path d="M209.681,395.798v-32.789h9.055c11.555,0,17.332,5.327,17.332,15.982c0,5.062-1.604,9.128-4.813,12.199
		c-3.209,3.072-7.504,4.607-12.885,4.607H209.681z M213.523,366.484v25.838h4.893c4.299,0,7.645-1.15,10.038-3.453
		c2.393-2.301,3.59-5.563,3.59-9.786c0-8.399-4.467-12.599-13.399-12.599H213.523z"/>
	<path d="M260.831,385.028H244.3c0.061,2.606,0.762,4.619,2.104,6.036c1.341,1.418,3.186,2.127,5.533,2.127
		c2.637,0,5.061-0.869,7.271-2.606v3.521c-2.058,1.494-4.779,2.241-8.163,2.241c-3.308,0-5.907-1.063-7.797-3.189
		c-1.89-2.127-2.835-5.118-2.835-8.975c0-3.644,1.032-6.612,3.098-8.906c2.065-2.294,4.63-3.441,7.694-3.441
		s5.434,0.991,7.111,2.973s2.515,4.732,2.515,8.254V385.028z M256.99,381.85c-0.015-2.164-0.537-3.849-1.566-5.053
		c-1.029-1.204-2.458-1.807-4.288-1.807c-1.769,0-3.27,0.633-4.504,1.897c-1.235,1.266-1.997,2.92-2.287,4.962H256.99z"/>
	<path d="M270.344,392.414h-0.092v14.153h-3.75v-34.184h3.75v4.115h0.092c1.844-3.109,4.542-4.664,8.094-4.664
		c3.018,0,5.374,1.048,7.065,3.144c1.692,2.097,2.538,4.905,2.538,8.426c0,3.918-0.953,7.055-2.858,9.409
		c-1.906,2.355-4.513,3.533-7.82,3.533C274.329,396.347,271.99,395.036,270.344,392.414z M270.252,382.971v3.27
		c0,1.936,0.629,3.578,1.887,4.928c1.257,1.349,2.854,2.023,4.79,2.023c2.271,0,4.051-0.869,5.339-2.606
		c1.288-1.738,1.932-4.154,1.932-7.249c0-2.606-0.603-4.649-1.807-6.128s-2.835-2.218-4.893-2.218c-2.18,0-3.933,0.759-5.259,2.275
		C270.915,378.782,270.252,380.684,270.252,382.971z"/>
	<path d="M310.793,395.798h-3.75v-3.658h-0.091c-1.631,2.805-4.032,4.207-7.203,4.207c-2.333,0-4.158-0.617-5.477-1.853
		c-1.318-1.234-1.978-2.873-1.978-4.916c0-4.375,2.576-6.92,7.729-7.637l7.02-0.983c0-3.979-1.608-5.968-4.825-5.968
		c-2.82,0-5.366,0.96-7.637,2.881v-3.841c2.302-1.464,4.954-2.195,7.958-2.195c5.502,0,8.254,2.911,8.254,8.734V395.798z
		 M307.043,383.953l-5.648,0.777c-1.738,0.244-3.049,0.675-3.933,1.292c-0.884,0.618-1.326,1.712-1.326,3.281
		c0,1.144,0.408,2.077,1.223,2.802c0.815,0.724,1.901,1.086,3.258,1.086c1.86,0,3.396-0.652,4.607-1.955
		c1.212-1.304,1.818-2.953,1.818-4.95V383.953z"/>
	<path d="M330.068,376.18c-0.656-0.504-1.601-0.755-2.835-0.755c-1.601,0-2.938,0.755-4.013,2.264s-1.612,3.567-1.612,6.174v11.936
		h-3.75v-23.414h3.75v4.824h0.092c0.533-1.646,1.349-2.931,2.446-3.853c1.098-0.922,2.325-1.384,3.682-1.384
		c0.975,0,1.722,0.107,2.241,0.32V376.18z"/>
	<path d="M344.999,395.569c-0.884,0.487-2.05,0.731-3.499,0.731c-4.101,0-6.151-2.286-6.151-6.859v-13.856h-4.024v-3.201h4.024
		v-5.717l3.75-1.212v6.929h5.899v3.201H339.1v13.193c0,1.57,0.267,2.69,0.8,3.361s1.418,1.006,2.652,1.006
		c0.945,0,1.761-0.259,2.447-0.777V395.569z"/>
	<path d="M366.767,395.798h-3.75v-3.658h-0.091c-1.631,2.805-4.032,4.207-7.203,4.207c-2.333,0-4.158-0.617-5.477-1.853
		c-1.318-1.234-1.978-2.873-1.978-4.916c0-4.375,2.576-6.92,7.729-7.637l7.02-0.983c0-3.979-1.608-5.968-4.825-5.968
		c-2.82,0-5.366,0.96-7.637,2.881v-3.841c2.302-1.464,4.954-2.195,7.958-2.195c5.502,0,8.254,2.911,8.254,8.734V395.798z
		 M363.017,383.953l-5.648,0.777c-1.738,0.244-3.049,0.675-3.933,1.292c-0.884,0.618-1.326,1.712-1.326,3.281
		c0,1.144,0.408,2.077,1.223,2.802c0.815,0.724,1.901,1.086,3.258,1.086c1.86,0,3.396-0.652,4.607-1.955
		c1.212-1.304,1.818-2.953,1.818-4.95V383.953z"/>
	<path d="M407.08,395.798h-3.75v-13.445c0-2.591-0.4-4.466-1.201-5.625c-0.801-1.158-2.145-1.737-4.035-1.737
		c-1.601,0-2.961,0.731-4.082,2.195c-1.121,1.463-1.681,3.216-1.681,5.259v13.354h-3.75v-13.902c0-4.604-1.776-6.905-5.328-6.905
		c-1.646,0-3.003,0.689-4.07,2.069s-1.601,3.175-1.601,5.385v13.354h-3.75v-23.414h3.75v3.704h0.092
		c1.661-2.835,4.085-4.253,7.271-4.253c1.601,0,2.996,0.445,4.185,1.338c1.189,0.892,2.004,2.062,2.447,3.51
		c1.738-3.231,4.329-4.848,7.774-4.848c5.152,0,7.729,3.178,7.729,9.535V395.798z"/>
	<path d="M432.986,385.028h-16.532c0.061,2.606,0.763,4.619,2.104,6.036c1.342,1.418,3.187,2.127,5.534,2.127
		c2.637,0,5.061-0.869,7.271-2.606v3.521c-2.058,1.494-4.778,2.241-8.163,2.241c-3.308,0-5.907-1.063-7.797-3.189
		c-1.891-2.127-2.835-5.118-2.835-8.975c0-3.644,1.032-6.612,3.098-8.906s4.631-3.441,7.694-3.441c3.064,0,5.435,0.991,7.111,2.973
		s2.516,4.732,2.516,8.254V385.028z M429.144,381.85c-0.016-2.164-0.537-3.849-1.566-5.053c-1.028-1.204-2.458-1.807-4.287-1.807
		c-1.769,0-3.27,0.633-4.505,1.897c-1.234,1.266-1.997,2.92-2.286,4.962H429.144z"/>
	<path d="M458.093,395.798h-3.75v-13.354c0-4.97-1.814-7.454-5.442-7.454c-1.875,0-3.426,0.705-4.652,2.115
		c-1.228,1.41-1.841,3.189-1.841,5.339v13.354h-3.75v-23.414h3.75v3.887h0.091c1.769-2.957,4.329-4.436,7.684-4.436
		c2.561,0,4.52,0.827,5.876,2.48c1.356,1.654,2.035,4.044,2.035,7.169V395.798z"/>
	<path d="M476.019,395.569c-0.885,0.487-2.051,0.731-3.499,0.731c-4.101,0-6.15-2.286-6.15-6.859v-13.856h-4.024v-3.201h4.024
		v-5.717l3.75-1.212v6.929h5.899v3.201h-5.899v13.193c0,1.57,0.267,2.69,0.8,3.361s1.418,1.006,2.652,1.006
		c0.945,0,1.761-0.259,2.447-0.777V395.569z"/>
	<path d="M490.812,396.347c-3.461,0-6.224-1.094-8.289-3.281s-3.098-5.088-3.098-8.7c0-3.933,1.074-7.005,3.224-9.215
		s5.054-3.315,8.712-3.315c3.49,0,6.216,1.074,8.175,3.224c1.958,2.149,2.938,5.13,2.938,8.94c0,3.735-1.056,6.727-3.166,8.975
		C497.195,395.223,494.364,396.347,490.812,396.347z M491.087,374.99c-2.408,0-4.314,0.819-5.717,2.458s-2.104,3.898-2.104,6.779
		c0,2.775,0.709,4.962,2.127,6.563s3.315,2.401,5.693,2.401c2.424,0,4.287-0.785,5.591-2.355c1.303-1.569,1.955-3.803,1.955-6.699
		c0-2.927-0.652-5.183-1.955-6.769C495.374,375.783,493.51,374.99,491.087,374.99z"/>
	<path d="M541.277,395.798h-3.75v-3.979h-0.092c-1.737,3.019-4.421,4.527-8.049,4.527c-2.941,0-5.293-1.048-7.054-3.145
		c-1.761-2.096-2.641-4.95-2.641-8.563c0-3.872,0.976-6.975,2.927-9.307s4.55-3.498,7.797-3.498c3.216,0,5.557,1.266,7.02,3.796
		h0.092v-14.497h3.75V395.798z M537.527,385.211v-3.452c0-1.891-0.625-3.491-1.875-4.802c-1.25-1.312-2.835-1.967-4.756-1.967
		c-2.287,0-4.086,0.839-5.396,2.516c-1.312,1.677-1.967,3.993-1.967,6.951c0,2.697,0.629,4.828,1.887,6.391s2.945,2.344,5.064,2.344
		c2.089,0,3.784-0.755,5.088-2.264C536.876,389.418,537.527,387.513,537.527,385.211z"/>
	<path d="M567.687,385.028h-16.532c0.061,2.606,0.763,4.619,2.104,6.036c1.342,1.418,3.187,2.127,5.534,2.127
		c2.637,0,5.061-0.869,7.271-2.606v3.521c-2.058,1.494-4.778,2.241-8.163,2.241c-3.308,0-5.907-1.063-7.797-3.189
		c-1.891-2.127-2.835-5.118-2.835-8.975c0-3.644,1.032-6.612,3.098-8.906s4.631-3.441,7.694-3.441c3.064,0,5.435,0.991,7.111,2.973
		s2.516,4.732,2.516,8.254V385.028z M563.845,381.85c-0.016-2.164-0.537-3.849-1.566-5.053c-1.028-1.204-2.458-1.807-4.287-1.807
		c-1.769,0-3.27,0.633-4.505,1.897c-1.234,1.266-1.997,2.92-2.286,4.962H563.845z"/>
	<path d="M213.523,434.28v12.394h-3.841v-32.789h9.009c3.506,0,6.223,0.854,8.152,2.561c1.928,1.708,2.892,4.116,2.892,7.226
		c0,3.11-1.071,5.656-3.212,7.638s-5.034,2.972-8.677,2.972H213.523z M213.523,417.36v13.444h4.024c2.652,0,4.676-0.605,6.071-1.817
		c1.395-1.212,2.092-2.923,2.092-5.133c0-4.329-2.561-6.494-7.683-6.494H213.523z"/>
	<path d="M243.453,447.223c-3.46,0-6.223-1.094-8.289-3.281c-2.066-2.188-3.098-5.088-3.098-8.7c0-3.933,1.074-7.005,3.224-9.215
		s5.053-3.315,8.712-3.315c3.491,0,6.215,1.074,8.174,3.224c1.958,2.149,2.938,5.13,2.938,8.94c0,3.735-1.056,6.727-3.167,8.975
		C249.837,446.099,247.005,447.223,243.453,447.223z M243.728,425.866c-2.409,0-4.314,0.819-5.716,2.458
		c-1.403,1.639-2.104,3.898-2.104,6.779c0,2.775,0.708,4.962,2.126,6.563c1.417,1.601,3.315,2.401,5.693,2.401
		c2.424,0,4.287-0.785,5.591-2.355c1.303-1.569,1.955-3.803,1.955-6.699c0-2.927-0.652-5.183-1.955-6.769
		C248.015,426.659,246.152,425.866,243.728,425.866z"/>
	<path d="M259.688,445.828v-4.024c2.042,1.509,4.291,2.264,6.746,2.264c3.292,0,4.939-1.098,4.939-3.293
		c0-0.625-0.141-1.154-0.423-1.589s-0.663-0.819-1.143-1.155c-0.48-0.335-1.044-0.636-1.692-0.902
		c-0.648-0.267-1.346-0.545-2.092-0.835c-1.037-0.412-1.948-0.827-2.732-1.246c-0.786-0.419-1.441-0.892-1.967-1.418
		c-0.526-0.525-0.922-1.124-1.189-1.795s-0.4-1.455-0.4-2.355c0-1.097,0.251-2.069,0.754-2.915s1.174-1.555,2.012-2.126
		c0.838-0.572,1.795-1.003,2.87-1.292c1.075-0.29,2.184-0.435,3.327-0.435c2.027,0,3.841,0.351,5.442,1.052v3.796
		c-1.723-1.128-3.704-1.692-5.945-1.692c-0.701,0-1.334,0.08-1.897,0.24c-0.564,0.16-1.048,0.385-1.452,0.675
		c-0.404,0.289-0.717,0.637-0.938,1.04c-0.221,0.404-0.332,0.85-0.332,1.338c0,0.609,0.11,1.12,0.332,1.531
		c0.221,0.412,0.545,0.777,0.972,1.098s0.945,0.61,1.555,0.869c0.609,0.26,1.303,0.541,2.081,0.846
		c1.037,0.396,1.966,0.805,2.79,1.224c0.823,0.42,1.524,0.892,2.104,1.418c0.579,0.525,1.025,1.132,1.338,1.817
		c0.312,0.687,0.469,1.502,0.469,2.446c0,1.159-0.255,2.165-0.766,3.019c-0.511,0.854-1.193,1.563-2.046,2.127
		c-0.854,0.563-1.837,0.983-2.95,1.257c-1.113,0.274-2.279,0.412-3.499,0.412C263.545,447.223,261.456,446.758,259.688,445.828z"/>
	<path d="M291.837,446.445c-0.884,0.487-2.05,0.731-3.499,0.731c-4.101,0-6.151-2.286-6.151-6.859v-13.856h-4.024v-3.201h4.024
		v-5.717l3.75-1.212v6.929h5.899v3.201h-5.899v13.193c0,1.57,0.267,2.69,0.8,3.361s1.418,1.006,2.652,1.006
		c0.945,0,1.761-0.259,2.447-0.777V446.445z"/>
	<path d="M316.829,444.799c0,8.598-4.116,12.896-12.348,12.896c-2.896,0-5.427-0.549-7.591-1.646v-3.75
		c2.637,1.463,5.152,2.195,7.546,2.195c5.762,0,8.643-3.064,8.643-9.192v-2.561h-0.091c-1.784,2.987-4.467,4.481-8.049,4.481
		c-2.912,0-5.255-1.04-7.031-3.121s-2.664-4.874-2.664-8.38c0-3.979,0.956-7.142,2.87-9.489c1.913-2.348,4.531-3.521,7.854-3.521
		c3.155,0,5.495,1.266,7.02,3.796h0.091v-3.247h3.75V444.799z M313.079,436.087v-3.452c0-1.86-0.629-3.453-1.887-4.779
		c-1.257-1.326-2.824-1.989-4.699-1.989c-2.317,0-4.131,0.843-5.442,2.526c-1.311,1.685-1.966,4.044-1.966,7.077
		c0,2.606,0.629,4.691,1.886,6.254c1.258,1.563,2.923,2.344,4.996,2.344c2.104,0,3.814-0.747,5.133-2.241
		C312.42,440.333,313.079,438.419,313.079,436.087z"/>
	<path d="M336.631,427.056c-0.656-0.504-1.601-0.755-2.835-0.755c-1.601,0-2.938,0.755-4.013,2.264s-1.612,3.567-1.612,6.174v11.936
		h-3.75V423.26h3.75v4.824h0.092c0.533-1.646,1.349-2.931,2.446-3.853c1.098-0.922,2.325-1.384,3.682-1.384
		c0.975,0,1.722,0.107,2.241,0.32V427.056z"/>
	<path d="M357.461,446.674h-3.75v-3.658h-0.091c-1.631,2.805-4.032,4.207-7.203,4.207c-2.333,0-4.158-0.617-5.477-1.853
		c-1.318-1.234-1.978-2.873-1.978-4.916c0-4.375,2.576-6.92,7.729-7.637l7.02-0.983c0-3.979-1.608-5.968-4.825-5.968
		c-2.82,0-5.366,0.96-7.637,2.881v-3.841c2.302-1.464,4.954-2.195,7.958-2.195c5.502,0,8.254,2.911,8.254,8.734V446.674z
		 M353.711,434.829l-5.648,0.777c-1.738,0.244-3.049,0.675-3.933,1.292c-0.884,0.618-1.326,1.712-1.326,3.281
		c0,1.144,0.408,2.077,1.223,2.802c0.815,0.724,1.901,1.086,3.258,1.086c1.86,0,3.396-0.652,4.607-1.955
		c1.212-1.304,1.818-2.953,1.818-4.95V434.829z"/>
	<path d="M384.511,446.674h-3.75v-3.979h-0.091c-1.738,3.019-4.421,4.527-8.049,4.527c-2.942,0-5.293-1.048-7.054-3.145
		c-1.761-2.096-2.641-4.95-2.641-8.563c0-3.872,0.975-6.975,2.927-9.307c1.951-2.332,4.55-3.498,7.797-3.498
		c3.216,0,5.557,1.266,7.02,3.796h0.091V412.01h3.75V446.674z M380.761,436.087v-3.452c0-1.891-0.625-3.491-1.875-4.802
		c-1.25-1.312-2.835-1.967-4.756-1.967c-2.287,0-4.085,0.839-5.396,2.516s-1.966,3.993-1.966,6.951c0,2.697,0.629,4.828,1.886,6.391
		c1.258,1.563,2.946,2.344,5.065,2.344c2.088,0,3.784-0.755,5.087-2.264C380.109,440.294,380.761,438.389,380.761,436.087z"/>
	<path d="M401.888,447.223c-3.461,0-6.223-1.094-8.288-3.281c-2.066-2.188-3.098-5.088-3.098-8.7c0-3.933,1.074-7.005,3.224-9.215
		s5.053-3.315,8.711-3.315c3.49,0,6.217,1.074,8.176,3.224c1.957,2.149,2.938,5.13,2.938,8.94c0,3.735-1.057,6.727-3.166,8.975
		C408.271,446.099,405.441,447.223,401.888,447.223z M402.164,425.866c-2.408,0-4.314,0.819-5.717,2.458
		c-1.403,1.639-2.104,3.898-2.104,6.779c0,2.775,0.708,4.962,2.126,6.563c1.418,1.601,3.315,2.401,5.694,2.401
		c2.424,0,4.287-0.785,5.59-2.355c1.303-1.569,1.955-3.803,1.955-6.699c0-2.927-0.652-5.183-1.955-6.769
		C406.451,426.659,404.588,425.866,402.164,425.866z"/>
	<path d="M451.004,423.26l-10.77,27.164c-1.921,4.848-4.618,7.271-8.094,7.271c-0.977,0-1.792-0.1-2.447-0.298v-3.361
		c0.808,0.274,1.547,0.412,2.218,0.412c1.891,0,3.309-1.128,4.254-3.384l1.875-4.437l-9.146-23.368h4.161l6.334,18.018
		c0.076,0.229,0.236,0.823,0.48,1.784h0.137c0.076-0.366,0.229-0.945,0.457-1.738l6.654-18.063H451.004z"/>
	<path d="M472.2,434.28v12.394h-3.841v-32.789h9.009c3.506,0,6.223,0.854,8.151,2.561c1.929,1.708,2.893,4.116,2.893,7.226
		c0,3.11-1.071,5.656-3.212,7.638c-2.143,1.981-5.035,2.972-8.678,2.972H472.2z M472.2,417.36v13.444h4.024
		c2.652,0,4.677-0.605,6.071-1.817s2.092-2.923,2.092-5.133c0-4.329-2.561-6.494-7.683-6.494H472.2z"/>
	<path d="M502.132,447.223c-3.461,0-6.224-1.094-8.289-3.281s-3.098-5.088-3.098-8.7c0-3.933,1.074-7.005,3.224-9.215
		s5.054-3.315,8.712-3.315c3.49,0,6.216,1.074,8.175,3.224c1.958,2.149,2.938,5.13,2.938,8.94c0,3.735-1.056,6.727-3.166,8.975
		C508.514,446.099,505.683,447.223,502.132,447.223z M502.406,425.866c-2.408,0-4.314,0.819-5.717,2.458s-2.104,3.898-2.104,6.779
		c0,2.775,0.709,4.962,2.127,6.563s3.315,2.401,5.693,2.401c2.424,0,4.287-0.785,5.591-2.355c1.303-1.569,1.955-3.803,1.955-6.699
		c0-2.927-0.652-5.183-1.955-6.769C506.693,426.659,504.83,425.866,502.406,425.866z"/>
	<path d="M518.366,445.828v-4.024c2.043,1.509,4.291,2.264,6.745,2.264c3.293,0,4.939-1.098,4.939-3.293
		c0-0.625-0.142-1.154-0.423-1.589c-0.282-0.435-0.663-0.819-1.144-1.155c-0.48-0.335-1.044-0.636-1.692-0.902
		c-0.647-0.267-1.346-0.545-2.092-0.835c-1.037-0.412-1.947-0.827-2.732-1.246s-1.44-0.892-1.967-1.418
		c-0.525-0.525-0.922-1.124-1.188-1.795c-0.268-0.671-0.4-1.455-0.4-2.355c0-1.097,0.251-2.069,0.755-2.915
		c0.503-0.846,1.173-1.555,2.012-2.126c0.838-0.572,1.795-1.003,2.87-1.292c1.074-0.29,2.184-0.435,3.326-0.435
		c2.027,0,3.842,0.351,5.442,1.052v3.796c-1.723-1.128-3.704-1.692-5.945-1.692c-0.701,0-1.334,0.08-1.897,0.24
		c-0.564,0.16-1.049,0.385-1.452,0.675c-0.404,0.289-0.717,0.637-0.938,1.04c-0.221,0.404-0.331,0.85-0.331,1.338
		c0,0.609,0.11,1.12,0.331,1.531c0.221,0.412,0.545,0.777,0.972,1.098s0.945,0.61,1.555,0.869c0.609,0.26,1.304,0.541,2.081,0.846
		c1.036,0.396,1.967,0.805,2.79,1.224c0.822,0.42,1.523,0.892,2.104,1.418c0.579,0.525,1.024,1.132,1.337,1.817
		c0.313,0.687,0.469,1.502,0.469,2.446c0,1.159-0.255,2.165-0.766,3.019c-0.511,0.854-1.193,1.563-2.047,2.127
		c-0.854,0.563-1.837,0.983-2.949,1.257c-1.113,0.274-2.279,0.412-3.498,0.412C522.222,447.223,520.135,446.758,518.366,445.828z"/>
	<path d="M550.515,446.445c-0.885,0.487-2.051,0.731-3.499,0.731c-4.101,0-6.15-2.286-6.15-6.859v-13.856h-4.024v-3.201h4.024
		v-5.717l3.75-1.212v6.929h5.899v3.201h-5.899v13.193c0,1.57,0.267,2.69,0.8,3.361s1.418,1.006,2.652,1.006
		c0.945,0,1.761-0.259,2.447-0.777V446.445z"/>
	<path d="M562.634,411.324l-5.991,7.499h-2.904l5.1-7.499H562.634z M559.272,446.674h-3.75V423.26h3.75V446.674z"/>
	<path d="M577.725,446.445c-0.885,0.487-2.051,0.731-3.499,0.731c-4.101,0-6.15-2.286-6.15-6.859v-13.856h-4.024v-3.201h4.024
		v-5.717l3.75-1.212v6.929h5.899v3.201h-5.899v13.193c0,1.57,0.267,2.69,0.8,3.361s1.418,1.006,2.652,1.006
		c0.945,0,1.761-0.259,2.447-0.777V446.445z"/>
	<path d="M601.665,446.674h-3.75v-3.704h-0.092c-1.555,2.835-3.964,4.253-7.226,4.253c-5.579,0-8.368-3.323-8.368-9.97V423.26h3.727
		v13.399c0,4.938,1.891,7.408,5.671,7.408c1.829,0,3.334-0.675,4.516-2.023c1.182-1.35,1.772-3.113,1.772-5.294v-13.49h3.75V446.674
		z"/>
	<path d="M612.983,446.674h-3.75V412.01h3.75V446.674z"/>
	<path d="M630.361,447.223c-3.461,0-6.224-1.094-8.289-3.281s-3.098-5.088-3.098-8.7c0-3.933,1.074-7.005,3.224-9.215
		s5.054-3.315,8.712-3.315c3.49,0,6.216,1.074,8.175,3.224c1.958,2.149,2.938,5.13,2.938,8.94c0,3.735-1.056,6.727-3.166,8.975
		C636.744,446.099,633.913,447.223,630.361,447.223z M630.635,425.866c-2.408,0-4.314,0.819-5.717,2.458s-2.104,3.898-2.104,6.779
		c0,2.775,0.709,4.962,2.127,6.563s3.315,2.401,5.693,2.401c2.424,0,4.287-0.785,5.591-2.355c1.303-1.569,1.955-3.803,1.955-6.699
		c0-2.927-0.652-5.183-1.955-6.769C634.923,426.659,633.059,425.866,630.635,425.866z"/>
</g>
<g>
	<path d="M224.308,469.792l-8.994,24.288h-3.133l-8.808-24.288h3.167l6.724,19.258c0.214,0.621,0.378,1.338,0.491,2.151h0.068
		c0.09-0.678,0.276-1.406,0.559-2.186l6.86-19.224H224.308z"/>
	<path d="M228.847,472.332c-0.497,0-0.92-0.169-1.271-0.508s-0.525-0.768-0.525-1.287s0.175-0.951,0.525-1.296
		c0.35-0.344,0.773-0.517,1.271-0.517c0.508,0,0.94,0.173,1.296,0.517c0.355,0.345,0.533,0.776,0.533,1.296
		c0,0.497-0.178,0.92-0.533,1.271C229.787,472.157,229.356,472.332,228.847,472.332z M230.202,494.08h-2.778v-17.344h2.778V494.08z"
		/>
	<path d="M247.648,493.284c-1.333,0.802-2.913,1.202-4.742,1.202c-2.473,0-4.469-0.805-5.987-2.413
		c-1.519-1.609-2.278-3.695-2.278-6.259c0-2.856,0.818-5.151,2.456-6.885c1.637-1.733,3.822-2.6,6.555-2.6
		c1.524,0,2.868,0.282,4.031,0.847v2.846c-1.288-0.903-2.665-1.355-4.133-1.355c-1.773,0-3.227,0.635-4.361,1.905
		s-1.702,2.938-1.702,5.005c0,2.033,0.533,3.637,1.601,4.811c1.067,1.175,2.498,1.762,4.293,1.762c1.513,0,2.936-0.503,4.268-1.508
		V493.284z"/>
	<path d="M265.788,486.103h-12.246c0.045,1.931,0.564,3.421,1.558,4.472c0.994,1.05,2.36,1.575,4.099,1.575
		c1.953,0,3.749-0.644,5.386-1.931v2.608c-1.524,1.106-3.54,1.659-6.046,1.659c-2.45,0-4.376-0.787-5.776-2.362
		s-2.1-3.791-2.1-6.648c0-2.698,0.765-4.897,2.295-6.597s3.43-2.549,5.7-2.549s4.025,0.733,5.268,2.201
		c1.242,1.469,1.863,3.506,1.863,6.114V486.103z M262.943,483.748c-0.012-1.604-0.398-2.851-1.16-3.743
		c-0.762-0.892-1.821-1.338-3.176-1.338c-1.31,0-2.422,0.469-3.337,1.406c-0.915,0.937-1.479,2.162-1.694,3.675H262.943z"/>
	<path d="M279.032,479.548c-0.485-0.373-1.186-0.559-2.1-0.559c-1.186,0-2.176,0.559-2.973,1.677
		c-0.796,1.117-1.194,2.642-1.194,4.572v8.842h-2.778v-17.344h2.778v3.573h0.068c0.395-1.219,0.999-2.17,1.812-2.854
		s1.722-1.024,2.727-1.024c0.723,0,1.276,0.079,1.66,0.236V479.548z"/>
	<path d="M291.092,479.548c-0.485-0.373-1.186-0.559-2.1-0.559c-1.186,0-2.176,0.559-2.973,1.677
		c-0.796,1.117-1.194,2.642-1.194,4.572v8.842h-2.778v-17.344h2.778v3.573h0.068c0.395-1.219,0.999-2.17,1.812-2.854
		s1.722-1.024,2.727-1.024c0.723,0,1.276,0.079,1.66,0.236V479.548z"/>
	<path d="M308.047,486.103h-12.246c0.045,1.931,0.564,3.421,1.558,4.472c0.994,1.05,2.36,1.575,4.099,1.575
		c1.953,0,3.749-0.644,5.386-1.931v2.608c-1.524,1.106-3.54,1.659-6.046,1.659c-2.45,0-4.376-0.787-5.776-2.362
		s-2.1-3.791-2.1-6.648c0-2.698,0.765-4.897,2.295-6.597s3.43-2.549,5.7-2.549s4.025,0.733,5.268,2.201
		c1.242,1.469,1.863,3.506,1.863,6.114V486.103z M305.201,483.748c-0.012-1.604-0.398-2.851-1.16-3.743
		c-0.762-0.892-1.821-1.338-3.176-1.338c-1.31,0-2.422,0.469-3.337,1.406c-0.915,0.937-1.479,2.162-1.694,3.675H305.201z"/>
	<path d="M324.07,493.284c-1.333,0.802-2.913,1.202-4.742,1.202c-2.473,0-4.469-0.805-5.987-2.413
		c-1.519-1.609-2.278-3.695-2.278-6.259c0-2.856,0.818-5.151,2.456-6.885c1.637-1.733,3.822-2.6,6.555-2.6
		c1.524,0,2.868,0.282,4.031,0.847v2.846c-1.288-0.903-2.665-1.355-4.133-1.355c-1.773,0-3.227,0.635-4.361,1.905
		s-1.702,2.938-1.702,5.005c0,2.033,0.533,3.637,1.601,4.811c1.067,1.175,2.498,1.762,4.293,1.762c1.513,0,2.936-0.503,4.268-1.508
		V493.284z"/>
	<path d="M336.315,493.911c-0.655,0.36-1.519,0.542-2.591,0.542c-3.038,0-4.556-1.694-4.556-5.082v-10.264h-2.981v-2.371h2.981
		v-4.234l2.777-0.897v5.132h4.37v2.371h-4.37v9.772c0,1.163,0.198,1.993,0.593,2.49c0.395,0.497,1.05,0.745,1.964,0.745
		c0.7,0,1.304-0.191,1.813-0.576V493.911z"/>
	<path d="M347.274,494.486c-2.563,0-4.61-0.81-6.14-2.431c-1.53-1.62-2.295-3.769-2.295-6.444c0-2.913,0.796-5.188,2.388-6.826
		c1.592-1.637,3.743-2.455,6.453-2.455c2.585,0,4.604,0.796,6.055,2.388c1.451,1.592,2.176,3.8,2.176,6.623
		c0,2.767-0.782,4.982-2.346,6.647C352.002,493.654,349.905,494.486,347.274,494.486z M347.477,478.667
		c-1.784,0-3.196,0.607-4.234,1.821c-1.039,1.214-1.558,2.888-1.558,5.021c0,2.056,0.525,3.676,1.575,4.861
		c1.05,1.186,2.456,1.778,4.217,1.778c1.795,0,3.176-0.582,4.141-1.745c0.965-1.162,1.448-2.816,1.448-4.962
		c0-2.168-0.483-3.84-1.448-5.014C350.653,479.254,349.273,478.667,347.477,478.667z"/>
	<path d="M369.394,479.548c-0.485-0.373-1.186-0.559-2.1-0.559c-1.186,0-2.176,0.559-2.973,1.677
		c-0.796,1.117-1.194,2.642-1.194,4.572v8.842h-2.778v-17.344h2.778v3.573h0.068c0.395-1.219,0.999-2.17,1.812-2.854
		s1.722-1.024,2.727-1.024c0.723,0,1.276,0.079,1.66,0.236V479.548z"/>
	<path d="M377.677,467.895l-4.438,5.556h-2.151l3.777-5.556H377.677z M375.187,494.08h-2.778v-17.344h2.778V494.08z"/>
	<path d="M393.225,494.08h-2.777v-2.71h-0.068c-1.208,2.078-2.987,3.116-5.335,3.116c-1.728,0-3.08-0.457-4.057-1.372
		c-0.977-0.914-1.465-2.128-1.465-3.642c0-3.24,1.908-5.126,5.725-5.656l5.2-0.729c0-2.947-1.192-4.421-3.574-4.421
		c-2.089,0-3.975,0.711-5.657,2.134v-2.845c1.705-1.084,3.669-1.626,5.894-1.626c4.076,0,6.114,2.156,6.114,6.47V494.08z
		 M390.448,485.307l-4.184,0.576c-1.288,0.181-2.259,0.499-2.914,0.956c-0.655,0.458-0.982,1.269-0.982,2.431
		c0,0.848,0.302,1.539,0.906,2.075s1.409,0.805,2.414,0.805c1.377,0,2.515-0.483,3.413-1.448c0.897-0.966,1.347-2.188,1.347-3.667
		V485.307z"/>
	<path d="M422.764,494.08h-2.778v-2.947h-0.067c-1.287,2.236-3.274,3.354-5.962,3.354c-2.18,0-3.921-0.776-5.226-2.329
		c-1.304-1.552-1.956-3.666-1.956-6.343c0-2.868,0.723-5.166,2.168-6.894s3.37-2.591,5.775-2.591c2.383,0,4.116,0.937,5.2,2.812
		h0.067v-10.738h2.778V494.08z M419.986,486.238v-2.558c0-1.4-0.463-2.586-1.389-3.557c-0.926-0.972-2.101-1.457-3.522-1.457
		c-1.694,0-3.026,0.621-3.998,1.863c-0.971,1.242-1.456,2.958-1.456,5.148c0,1.999,0.466,3.577,1.397,4.734s2.182,1.736,3.751,1.736
		c1.547,0,2.804-0.56,3.769-1.677C419.504,489.354,419.986,487.943,419.986,486.238z"/>
	<path d="M442.327,486.103h-12.246c0.046,1.931,0.565,3.421,1.559,4.472c0.993,1.05,2.36,1.575,4.099,1.575
		c1.954,0,3.749-0.644,5.387-1.931v2.608c-1.524,1.106-3.54,1.659-6.047,1.659c-2.45,0-4.376-0.787-5.775-2.362
		c-1.4-1.575-2.101-3.791-2.101-6.648c0-2.698,0.765-4.897,2.295-6.597s3.43-2.549,5.699-2.549s4.025,0.733,5.268,2.201
		c1.242,1.469,1.863,3.506,1.863,6.114V486.103z M439.481,483.748c-0.011-1.604-0.397-2.851-1.16-3.743
		c-0.762-0.892-1.82-1.338-3.176-1.338c-1.31,0-2.422,0.469-3.336,1.406c-0.915,0.937-1.479,2.162-1.694,3.675H439.481z"/>
	<path d="M475.202,494.08h-3.15l-2.574-6.809h-10.298l-2.422,6.809h-3.167l9.315-24.288h2.947L475.202,494.08z M468.546,484.714
		l-3.811-10.349c-0.125-0.339-0.249-0.881-0.373-1.626h-0.067c-0.113,0.688-0.243,1.23-0.39,1.626l-3.777,10.349H468.546z"/>
	<path d="M477.353,493.453v-2.98c1.513,1.117,3.178,1.677,4.996,1.677c2.439,0,3.659-0.813,3.659-2.439
		c0-0.463-0.105-0.855-0.313-1.177c-0.209-0.322-0.491-0.607-0.848-0.855c-0.355-0.248-0.773-0.472-1.253-0.669
		c-0.48-0.197-0.997-0.403-1.55-0.618c-0.768-0.305-1.442-0.612-2.024-0.923c-0.581-0.311-1.066-0.661-1.456-1.051
		s-0.684-0.832-0.881-1.329s-0.297-1.078-0.297-1.745c0-0.813,0.187-1.532,0.56-2.159c0.372-0.627,0.869-1.151,1.49-1.575
		s1.33-0.742,2.126-0.957c0.796-0.214,1.617-0.321,2.464-0.321c1.502,0,2.846,0.26,4.031,0.778v2.812
		c-1.276-0.835-2.744-1.253-4.403-1.253c-0.52,0-0.988,0.06-1.406,0.178c-0.418,0.119-0.776,0.285-1.075,0.5
		c-0.3,0.215-0.531,0.472-0.694,0.771c-0.164,0.299-0.246,0.63-0.246,0.991c0,0.451,0.082,0.829,0.246,1.135
		c0.163,0.305,0.403,0.575,0.72,0.813c0.315,0.237,0.7,0.452,1.151,0.644c0.452,0.192,0.966,0.401,1.542,0.627
		c0.768,0.294,1.456,0.596,2.065,0.906c0.61,0.311,1.13,0.66,1.559,1.05s0.76,0.839,0.991,1.347s0.347,1.112,0.347,1.813
		c0,0.858-0.188,1.604-0.567,2.235c-0.378,0.633-0.884,1.158-1.516,1.575c-0.633,0.418-1.36,0.729-2.185,0.932
		c-0.825,0.203-1.688,0.305-2.592,0.305C480.21,494.486,478.663,494.142,477.353,493.453z"/>
	<path d="M507.146,494.08h-2.778v-2.744h-0.067c-1.151,2.101-2.936,3.15-5.353,3.15c-4.133,0-6.198-2.461-6.198-7.385v-10.365h2.761
		v9.925c0,3.659,1.399,5.488,4.2,5.488c1.354,0,2.47-0.5,3.345-1.499s1.313-2.307,1.313-3.921v-9.993h2.778V494.08z"/>
	<path d="M527.149,494.08h-2.777v-9.892c0-3.681-1.344-5.521-4.031-5.521c-1.389,0-2.538,0.522-3.446,1.566
		c-0.909,1.045-1.364,2.363-1.364,3.955v9.892h-2.777v-17.344h2.777v2.879h0.068c1.31-2.19,3.207-3.285,5.69-3.285
		c1.897,0,3.349,0.612,4.354,1.837c1.005,1.226,1.507,2.996,1.507,5.311V494.08z"/>
	<path d="M540.427,493.911c-0.654,0.36-1.519,0.542-2.591,0.542c-3.038,0-4.557-1.694-4.557-5.082v-10.264h-2.98v-2.371h2.98v-4.234
		l2.778-0.897v5.132h4.369v2.371h-4.369v9.772c0,1.163,0.197,1.993,0.593,2.49c0.395,0.497,1.05,0.745,1.965,0.745
		c0.699,0,1.304-0.191,1.812-0.576V493.911z"/>
	<path d="M551.386,494.486c-2.563,0-4.609-0.81-6.14-2.431c-1.53-1.62-2.295-3.769-2.295-6.444c0-2.913,0.796-5.188,2.389-6.826
		c1.592-1.637,3.743-2.455,6.453-2.455c2.585,0,4.604,0.796,6.055,2.388s2.177,3.8,2.177,6.623c0,2.767-0.782,4.982-2.346,6.647
		C556.115,493.654,554.017,494.486,551.386,494.486z M551.59,478.667c-1.784,0-3.195,0.607-4.234,1.821s-1.558,2.888-1.558,5.021
		c0,2.056,0.524,3.676,1.575,4.861c1.05,1.186,2.456,1.778,4.217,1.778c1.796,0,3.176-0.582,4.142-1.745
		c0.966-1.162,1.448-2.816,1.448-4.962c0-2.168-0.482-3.84-1.448-5.014C554.765,479.254,553.385,478.667,551.59,478.667z"/>
	<path d="M563.413,493.453v-2.98c1.513,1.117,3.178,1.677,4.996,1.677c2.439,0,3.659-0.813,3.659-2.439
		c0-0.463-0.105-0.855-0.313-1.177c-0.209-0.322-0.491-0.607-0.848-0.855c-0.355-0.248-0.773-0.472-1.253-0.669
		c-0.48-0.197-0.997-0.403-1.55-0.618c-0.768-0.305-1.442-0.612-2.024-0.923c-0.581-0.311-1.066-0.661-1.456-1.051
		s-0.684-0.832-0.881-1.329s-0.297-1.078-0.297-1.745c0-0.813,0.187-1.532,0.56-2.159c0.372-0.627,0.869-1.151,1.49-1.575
		s1.33-0.742,2.126-0.957c0.796-0.214,1.617-0.321,2.464-0.321c1.502,0,2.846,0.26,4.031,0.778v2.812
		c-1.276-0.835-2.744-1.253-4.403-1.253c-0.52,0-0.988,0.06-1.406,0.178c-0.418,0.119-0.776,0.285-1.075,0.5
		c-0.3,0.215-0.531,0.472-0.694,0.771c-0.164,0.299-0.246,0.63-0.246,0.991c0,0.451,0.082,0.829,0.246,1.135
		c0.163,0.305,0.403,0.575,0.72,0.813c0.315,0.237,0.7,0.452,1.151,0.644c0.452,0.192,0.966,0.401,1.542,0.627
		c0.768,0.294,1.456,0.596,2.065,0.906c0.61,0.311,1.13,0.66,1.559,1.05s0.76,0.839,0.991,1.347s0.347,1.112,0.347,1.813
		c0,0.858-0.188,1.604-0.567,2.235c-0.378,0.633-0.884,1.158-1.516,1.575c-0.633,0.418-1.36,0.729-2.185,0.932
		c-0.825,0.203-1.688,0.305-2.592,0.305C566.269,494.486,564.722,494.142,563.413,493.453z"/>
	<path d="M607.855,494.08h-3.15l-2.574-6.809h-10.298l-2.422,6.809h-3.167l9.315-24.288h2.947L607.855,494.08z M601.199,484.714
		l-3.811-10.349c-0.125-0.339-0.249-0.881-0.373-1.626h-0.067c-0.113,0.688-0.243,1.23-0.39,1.626l-3.777,10.349H601.199z"/>
	<path d="M622.88,493.284c-1.332,0.802-2.913,1.202-4.742,1.202c-2.473,0-4.469-0.805-5.987-2.413
		c-1.519-1.609-2.278-3.695-2.278-6.259c0-2.856,0.818-5.151,2.456-6.885c1.637-1.733,3.822-2.6,6.555-2.6
		c1.524,0,2.868,0.282,4.031,0.847v2.846c-1.287-0.903-2.665-1.355-4.133-1.355c-1.773,0-3.227,0.635-4.361,1.905
		s-1.702,2.938-1.702,5.005c0,2.033,0.533,3.637,1.601,4.811c1.066,1.175,2.498,1.762,4.293,1.762c1.514,0,2.937-0.503,4.269-1.508
		V493.284z"/>
	<path d="M639.495,494.08h-2.777v-2.71h-0.068c-1.208,2.078-2.986,3.116-5.335,3.116c-1.728,0-3.08-0.457-4.057-1.372
		c-0.977-0.914-1.465-2.128-1.465-3.642c0-3.24,1.908-5.126,5.725-5.656l5.2-0.729c0-2.947-1.191-4.421-3.574-4.421
		c-2.089,0-3.975,0.711-5.657,2.134v-2.845c1.705-1.084,3.67-1.626,5.895-1.626c4.076,0,6.114,2.156,6.114,6.47V494.08z
		 M636.718,485.307l-4.184,0.576c-1.287,0.181-2.259,0.499-2.913,0.956c-0.655,0.458-0.982,1.269-0.982,2.431
		c0,0.848,0.302,1.539,0.906,2.075c0.604,0.536,1.408,0.805,2.413,0.805c1.378,0,2.516-0.483,3.413-1.448
		c0.897-0.966,1.347-2.188,1.347-3.667V485.307z"/>
	<path d="M659.532,494.08h-2.778v-2.947h-0.067c-1.287,2.236-3.274,3.354-5.962,3.354c-2.18,0-3.921-0.776-5.226-2.329
		c-1.304-1.552-1.956-3.666-1.956-6.343c0-2.868,0.723-5.166,2.168-6.894s3.37-2.591,5.775-2.591c2.383,0,4.116,0.937,5.2,2.812
		h0.067v-10.738h2.778V494.08z M656.754,486.238v-2.558c0-1.4-0.463-2.586-1.389-3.557c-0.926-0.972-2.101-1.457-3.522-1.457
		c-1.694,0-3.026,0.621-3.998,1.863c-0.971,1.242-1.456,2.958-1.456,5.148c0,1.999,0.466,3.577,1.397,4.734s2.182,1.736,3.751,1.736
		c1.547,0,2.804-0.56,3.769-1.677C656.271,489.354,656.754,487.943,656.754,486.238z"/>
	<path d="M679.094,486.103h-12.246c0.046,1.931,0.565,3.421,1.559,4.472c0.993,1.05,2.36,1.575,4.099,1.575
		c1.954,0,3.749-0.644,5.387-1.931v2.608c-1.524,1.106-3.54,1.659-6.047,1.659c-2.45,0-4.376-0.787-5.775-2.362
		c-1.4-1.575-2.101-3.791-2.101-6.648c0-2.698,0.765-4.897,2.295-6.597s3.43-2.549,5.699-2.549s4.025,0.733,5.268,2.201
		c1.242,1.469,1.863,3.506,1.863,6.114V486.103z M676.249,483.748c-0.011-1.604-0.397-2.851-1.16-3.743
		c-0.762-0.892-1.82-1.338-3.176-1.338c-1.31,0-2.422,0.469-3.336,1.406c-0.915,0.937-1.479,2.162-1.694,3.675H676.249z
		 M675.808,467.895l-4.438,5.556h-2.15l3.776-5.556H675.808z"/>
	<path d="M707.923,494.08h-2.777v-9.959c0-1.92-0.297-3.309-0.89-4.167c-0.593-0.857-1.589-1.287-2.989-1.287
		c-1.186,0-2.193,0.542-3.023,1.626s-1.245,2.383-1.245,3.896v9.892h-2.777v-10.298c0-3.41-1.315-5.115-3.946-5.115
		c-1.22,0-2.225,0.511-3.015,1.533c-0.791,1.021-1.187,2.352-1.187,3.988v9.892h-2.777v-17.344h2.777v2.744h0.068
		c1.23-2.101,3.025-3.15,5.386-3.15c1.186,0,2.219,0.33,3.1,0.99c0.881,0.661,1.484,1.527,1.813,2.6
		c1.287-2.394,3.207-3.59,5.759-3.59c3.816,0,5.725,2.354,5.725,7.063V494.08z"/>
	<path d="M714.595,472.332c-0.497,0-0.921-0.169-1.271-0.508s-0.524-0.768-0.524-1.287s0.175-0.951,0.524-1.296
		c0.35-0.344,0.773-0.517,1.271-0.517c0.508,0,0.94,0.173,1.296,0.517c0.355,0.345,0.533,0.776,0.533,1.296
		c0,0.497-0.178,0.92-0.533,1.271C715.536,472.157,715.103,472.332,714.595,472.332z M715.95,494.08h-2.777v-17.344h2.777V494.08z"
		/>
	<path d="M733.396,493.284c-1.332,0.802-2.913,1.202-4.742,1.202c-2.473,0-4.469-0.805-5.987-2.413
		c-1.519-1.609-2.278-3.695-2.278-6.259c0-2.856,0.818-5.151,2.456-6.885c1.637-1.733,3.822-2.6,6.555-2.6
		c1.524,0,2.868,0.282,4.031,0.847v2.846c-1.287-0.903-2.665-1.355-4.133-1.355c-1.773,0-3.227,0.635-4.361,1.905
		s-1.702,2.938-1.702,5.005c0,2.033,0.533,3.637,1.601,4.811c1.066,1.175,2.498,1.762,4.293,1.762c1.514,0,2.937-0.503,4.269-1.508
		V493.284z"/>
	<path d="M744.845,494.486c-2.563,0-4.609-0.81-6.14-2.431c-1.53-1.62-2.295-3.769-2.295-6.444c0-2.913,0.796-5.188,2.389-6.826
		c1.592-1.637,3.743-2.455,6.453-2.455c2.585,0,4.604,0.796,6.055,2.388s2.177,3.8,2.177,6.623c0,2.767-0.782,4.982-2.346,6.647
		C749.574,493.654,747.476,494.486,744.845,494.486z M745.049,478.667c-1.784,0-3.195,0.607-4.234,1.821s-1.558,2.888-1.558,5.021
		c0,2.056,0.524,3.676,1.575,4.861c1.05,1.186,2.456,1.778,4.217,1.778c1.796,0,3.176-0.582,4.142-1.745
		c0.966-1.162,1.448-2.816,1.448-4.962c0-2.168-0.482-3.84-1.448-5.014C748.224,479.254,746.844,478.667,745.049,478.667z"/>
	<path d="M756.872,493.453v-2.98c1.513,1.117,3.178,1.677,4.996,1.677c2.439,0,3.659-0.813,3.659-2.439
		c0-0.463-0.105-0.855-0.313-1.177c-0.209-0.322-0.491-0.607-0.848-0.855c-0.355-0.248-0.773-0.472-1.253-0.669
		c-0.48-0.197-0.997-0.403-1.55-0.618c-0.768-0.305-1.442-0.612-2.024-0.923c-0.581-0.311-1.066-0.661-1.456-1.051
		s-0.684-0.832-0.881-1.329s-0.297-1.078-0.297-1.745c0-0.813,0.187-1.532,0.56-2.159c0.372-0.627,0.869-1.151,1.49-1.575
		s1.33-0.742,2.126-0.957c0.796-0.214,1.617-0.321,2.464-0.321c1.502,0,2.846,0.26,4.031,0.778v2.812
		c-1.276-0.835-2.744-1.253-4.403-1.253c-0.52,0-0.988,0.06-1.406,0.178c-0.418,0.119-0.776,0.285-1.075,0.5
		c-0.3,0.215-0.531,0.472-0.694,0.771c-0.164,0.299-0.246,0.63-0.246,0.991c0,0.451,0.082,0.829,0.246,1.135
		c0.163,0.305,0.403,0.575,0.72,0.813c0.315,0.237,0.7,0.452,1.151,0.644c0.452,0.192,0.966,0.401,1.542,0.627
		c0.768,0.294,1.456,0.596,2.065,0.906c0.61,0.311,1.13,0.66,1.559,1.05s0.76,0.839,0.991,1.347s0.347,1.112,0.347,1.813
		c0,0.858-0.188,1.604-0.567,2.235c-0.378,0.633-0.884,1.158-1.516,1.575c-0.633,0.418-1.36,0.729-2.185,0.932
		c-0.825,0.203-1.688,0.305-2.592,0.305C759.728,494.486,758.181,494.142,756.872,493.453z"/>
	<path d="M224.02,522.413c0,6.819-3.077,10.229-9.231,10.229c-5.894,0-8.841-3.28-8.841-9.841v-14.854h2.845v14.668
		c0,4.979,2.101,7.469,6.301,7.469c4.054,0,6.081-2.405,6.081-7.215v-14.922h2.846V522.413z"/>
	<path d="M244.108,532.236h-2.778v-9.892c0-3.681-1.344-5.521-4.031-5.521c-1.389,0-2.538,0.522-3.447,1.566
		c-0.909,1.045-1.363,2.363-1.363,3.955v9.892h-2.778v-17.344h2.778v2.879h0.068c1.31-2.19,3.207-3.285,5.691-3.285
		c1.897,0,3.348,0.612,4.353,1.837c1.005,1.226,1.507,2.996,1.507,5.311V532.236z"/>
	<path d="M250.764,510.488c-0.497,0-0.92-0.169-1.271-0.508s-0.525-0.768-0.525-1.287s0.175-0.951,0.525-1.296
		c0.35-0.344,0.773-0.517,1.271-0.517c0.508,0,0.94,0.173,1.296,0.517c0.355,0.345,0.533,0.776,0.533,1.296
		c0,0.497-0.178,0.92-0.533,1.271C251.704,510.313,251.273,510.488,250.764,510.488z M252.119,532.236h-2.778v-17.344h2.778V532.236
		z"/>
	<path d="M271.377,514.893l-6.911,17.344h-2.727l-6.572-17.344h3.048l4.404,12.602c0.328,0.926,0.531,1.733,0.61,2.422h0.068
		c0.113-0.869,0.293-1.654,0.542-2.354l4.607-12.669H271.377z"/>
	<path d="M288.298,524.259h-12.246c0.045,1.931,0.564,3.421,1.558,4.472c0.994,1.05,2.36,1.575,4.099,1.575
		c1.953,0,3.749-0.644,5.386-1.931v2.608c-1.524,1.106-3.54,1.659-6.046,1.659c-2.45,0-4.376-0.787-5.776-2.362
		s-2.1-3.791-2.1-6.648c0-2.698,0.765-4.897,2.295-6.597s3.43-2.549,5.7-2.549s4.025,0.733,5.268,2.201
		c1.242,1.469,1.863,3.506,1.863,6.114V524.259z M285.452,521.904c-0.012-1.604-0.398-2.851-1.16-3.743
		c-0.762-0.892-1.821-1.338-3.176-1.338c-1.31,0-2.422,0.469-3.337,1.406c-0.915,0.937-1.479,2.162-1.694,3.675H285.452z"/>
	<path d="M301.543,517.704c-0.485-0.373-1.186-0.559-2.1-0.559c-1.186,0-2.176,0.559-2.973,1.677
		c-0.796,1.117-1.194,2.642-1.194,4.572v8.842h-2.778v-17.344h2.778v3.573h0.068c0.395-1.219,0.999-2.17,1.812-2.854
		s1.722-1.024,2.727-1.024c0.723,0,1.276,0.079,1.66,0.236V517.704z"/>
	<path d="M303.508,531.609v-2.98c1.513,1.117,3.178,1.677,4.996,1.677c2.439,0,3.659-0.813,3.659-2.439
		c0-0.463-0.104-0.855-0.313-1.177c-0.209-0.322-0.491-0.607-0.847-0.855c-0.356-0.248-0.773-0.472-1.253-0.669
		s-0.997-0.403-1.55-0.618c-0.768-0.305-1.442-0.612-2.024-0.923s-1.067-0.661-1.457-1.051s-0.684-0.832-0.881-1.329
		c-0.198-0.497-0.296-1.078-0.296-1.745c0-0.813,0.186-1.532,0.559-2.159c0.373-0.627,0.869-1.151,1.49-1.575
		s1.33-0.742,2.125-0.957c0.796-0.214,1.618-0.321,2.465-0.321c1.501,0,2.845,0.26,4.031,0.778v2.812
		c-1.276-0.835-2.744-1.253-4.404-1.253c-0.52,0-0.988,0.06-1.406,0.178c-0.417,0.119-0.776,0.285-1.075,0.5
		c-0.299,0.215-0.531,0.472-0.695,0.771s-0.246,0.63-0.246,0.991c0,0.451,0.082,0.829,0.246,1.135
		c0.164,0.305,0.404,0.575,0.72,0.813c0.316,0.237,0.7,0.452,1.151,0.644c0.452,0.192,0.966,0.401,1.542,0.627
		c0.768,0.294,1.457,0.596,2.066,0.906s1.129,0.66,1.558,1.05s0.759,0.839,0.991,1.347s0.348,1.112,0.348,1.813
		c0,0.858-0.189,1.604-0.567,2.235c-0.379,0.633-0.884,1.158-1.516,1.575c-0.632,0.418-1.361,0.729-2.185,0.932
		s-1.688,0.305-2.591,0.305C306.364,532.643,304.817,532.298,303.508,531.609z"/>
	<path d="M320.699,510.488c-0.497,0-0.92-0.169-1.271-0.508s-0.525-0.768-0.525-1.287s0.175-0.951,0.525-1.296
		c0.35-0.344,0.773-0.517,1.271-0.517c0.508,0,0.94,0.173,1.296,0.517c0.355,0.345,0.533,0.776,0.533,1.296
		c0,0.497-0.178,0.92-0.533,1.271C321.639,510.313,321.207,510.488,320.699,510.488z M322.054,532.236h-2.778v-17.344h2.778V532.236
		z"/>
	<path d="M342.48,532.236h-2.777v-2.947h-0.068c-1.287,2.236-3.275,3.354-5.962,3.354c-2.18,0-3.921-0.776-5.226-2.329
		c-1.304-1.552-1.956-3.666-1.956-6.343c0-2.868,0.723-5.166,2.168-6.894s3.371-2.591,5.776-2.591c2.382,0,4.116,0.937,5.2,2.812
		h0.068V506.56h2.777V532.236z M339.703,524.395v-2.558c0-1.4-0.463-2.586-1.389-3.557c-0.926-0.972-2.1-1.457-3.523-1.457
		c-1.694,0-3.026,0.621-3.997,1.863c-0.971,1.242-1.457,2.958-1.457,5.148c0,1.999,0.466,3.577,1.397,4.734
		c0.932,1.157,2.182,1.736,3.752,1.736c1.547,0,2.803-0.56,3.769-1.677C339.22,527.511,339.703,526.1,339.703,524.395z"/>
	<path d="M360.519,532.236h-2.777v-2.71h-0.068c-1.208,2.078-2.987,3.116-5.335,3.116c-1.728,0-3.08-0.457-4.057-1.372
		c-0.977-0.914-1.465-2.128-1.465-3.642c0-3.24,1.908-5.126,5.725-5.656l5.2-0.729c0-2.947-1.192-4.421-3.574-4.421
		c-2.089,0-3.975,0.711-5.657,2.134v-2.845c1.705-1.084,3.669-1.626,5.894-1.626c4.076,0,6.114,2.156,6.114,6.47V532.236z
		 M357.741,523.463l-4.184,0.576c-1.288,0.181-2.259,0.499-2.914,0.956c-0.655,0.458-0.982,1.269-0.982,2.431
		c0,0.848,0.302,1.539,0.906,2.075s1.409,0.805,2.414,0.805c1.377,0,2.515-0.483,3.413-1.448c0.897-0.966,1.347-2.188,1.347-3.667
		V523.463z"/>
	<path d="M380.556,532.236h-2.777v-2.947h-0.068c-1.287,2.236-3.275,3.354-5.962,3.354c-2.18,0-3.921-0.776-5.226-2.329
		c-1.304-1.552-1.956-3.666-1.956-6.343c0-2.868,0.723-5.166,2.168-6.894s3.371-2.591,5.776-2.591c2.382,0,4.116,0.937,5.2,2.812
		h0.068V506.56h2.777V532.236z M377.779,524.395v-2.558c0-1.4-0.463-2.586-1.389-3.557c-0.926-0.972-2.1-1.457-3.523-1.457
		c-1.694,0-3.026,0.621-3.997,1.863c-0.971,1.242-1.457,2.958-1.457,5.148c0,1.999,0.466,3.577,1.397,4.734
		c0.932,1.157,2.182,1.736,3.752,1.736c1.547,0,2.803-0.56,3.769-1.677C377.296,527.511,377.779,526.1,377.779,524.395z"/>
	<path d="M410.484,532.236h-2.777v-2.947h-0.068c-1.287,2.236-3.273,3.354-5.961,3.354c-2.18,0-3.922-0.776-5.226-2.329
		c-1.304-1.552-1.956-3.666-1.956-6.343c0-2.868,0.723-5.166,2.168-6.894c1.445-1.728,3.369-2.591,5.775-2.591
		c2.383,0,4.115,0.937,5.199,2.812h0.068V506.56h2.777V532.236z M407.707,524.395v-2.558c0-1.4-0.463-2.586-1.389-3.557
		c-0.926-0.972-2.102-1.457-3.523-1.457c-1.693,0-3.025,0.621-3.998,1.863c-0.971,1.242-1.455,2.958-1.455,5.148
		c0,1.999,0.465,3.577,1.396,4.734s2.182,1.736,3.752,1.736c1.547,0,2.803-0.56,3.768-1.677
		C407.224,527.511,407.707,526.1,407.707,524.395z"/>
	<path d="M430.047,524.259h-12.246c0.046,1.931,0.565,3.421,1.559,4.472c0.993,1.05,2.36,1.575,4.099,1.575
		c1.954,0,3.749-0.644,5.387-1.931v2.608c-1.524,1.106-3.54,1.659-6.047,1.659c-2.45,0-4.376-0.787-5.775-2.362
		c-1.4-1.575-2.101-3.791-2.101-6.648c0-2.698,0.765-4.897,2.295-6.597s3.43-2.549,5.699-2.549s4.025,0.733,5.268,2.201
		c1.242,1.469,1.863,3.506,1.863,6.114V524.259z M427.201,521.904c-0.011-1.604-0.397-2.851-1.16-3.743
		c-0.762-0.892-1.82-1.338-3.176-1.338c-1.31,0-2.422,0.469-3.336,1.406c-0.915,0.937-1.479,2.162-1.694,3.675H427.201z"/>
	<path d="M460.652,531.22c-1.795,0.949-4.031,1.423-6.707,1.423c-3.455,0-6.222-1.111-8.299-3.336
		c-2.078-2.225-3.117-5.144-3.117-8.757c0-3.885,1.169-7.023,3.507-9.418c2.337-2.394,5.301-3.59,8.892-3.59
		c2.304,0,4.212,0.333,5.725,0.999v3.031c-1.738-0.971-3.658-1.456-5.759-1.456c-2.789,0-5.05,0.932-6.783,2.795
		c-1.733,1.862-2.6,4.353-2.6,7.469c0,2.959,0.81,5.316,2.431,7.071c1.62,1.756,3.745,2.634,6.377,2.634
		c2.438,0,4.55-0.542,6.334-1.626V531.22z"/>
	<path d="M479.623,532.236h-2.777v-9.993c0-3.613-1.344-5.42-4.031-5.42c-1.354,0-2.495,0.522-3.421,1.566
		c-0.927,1.045-1.39,2.386-1.39,4.023v9.823h-2.777V506.56h2.777v11.212h0.068c1.332-2.19,3.229-3.285,5.69-3.285
		c3.907,0,5.86,2.354,5.86,7.063V532.236z"/>
	<path d="M486.279,510.488c-0.497,0-0.921-0.169-1.271-0.508s-0.524-0.768-0.524-1.287s0.175-0.951,0.524-1.296
		c0.35-0.344,0.773-0.517,1.271-0.517c0.508,0,0.94,0.173,1.296,0.517c0.355,0.345,0.533,0.776,0.533,1.296
		c0,0.497-0.178,0.92-0.533,1.271C487.219,510.313,486.787,510.488,486.279,510.488z M487.634,532.236h-2.777v-17.344h2.777V532.236
		z"/>
	<path d="M496.035,532.236h-2.777V506.56h2.777V532.236z"/>
	<path d="M515.597,524.259h-12.246c0.046,1.931,0.565,3.421,1.559,4.472c0.993,1.05,2.36,1.575,4.099,1.575
		c1.954,0,3.749-0.644,5.387-1.931v2.608c-1.524,1.106-3.54,1.659-6.047,1.659c-2.45,0-4.376-0.787-5.775-2.362
		c-1.4-1.575-2.101-3.791-2.101-6.648c0-2.698,0.765-4.897,2.295-6.597s3.43-2.549,5.699-2.549s4.025,0.733,5.268,2.201
		c1.242,1.469,1.863,3.506,1.863,6.114V524.259z M512.752,521.904c-0.011-1.604-0.397-2.851-1.16-3.743
		c-0.762-0.892-1.82-1.338-3.176-1.338c-1.31,0-2.422,0.469-3.336,1.406c-0.915,0.937-1.479,2.162-1.694,3.675H512.752z"/>
</g>
</svg>
