<?xml version="1.0" encoding="utf-8"?>
<!-- Generator: Adobe Illustrator 16.0.0, SVG Export Plug-In . SVG Version: 6.00 Build 0)  -->
<!DOCTYPE svg PUBLIC "-//W3C//DTD SVG 1.1//EN" "http://www.w3.org/Graphics/SVG/1.1/DTD/svg11.dtd">
<svg version="1.1" id="Layer_1" xmlns="http://www.w3.org/2000/svg" xmlns:xlink="http://www.w3.org/1999/xlink" x="0px" y="0px"
	 width="792px" height="336px" viewBox="0 0 792 336" enable-background="new 0 0 792 336" xml:space="preserve">
<g>
	<path fill="#FFFFFF" d="M102.377,303.508c-2.324-2.524-6.22-3.524-9.732-3.396c0,0-39.541,0.025-41.272-0.005
		c-10.033-0.505-13.729-9.3-13.729-17.314l0.019-152.907h128.452c0.01,9.685,0.133,153.795,0.021,154.842
		c-0.434,7.075-4.737,13.826-12.122,15.207c-1.084,0.202-42.506,0.18-42.506,0.18C108.212,300.113,104.649,300.783,102.377,303.508z
		"/>
	<path fill="#06B058" d="M43.814,135.956h55.844v60.971c-8.593,0.93-15.466,6.95-16.714,15.441h-39.13V135.956z"/>
	<path fill="#FFCD33" d="M103.966,135.956h56.136v76.594h-39.575c-1.169-8.52-7.991-14.594-16.561-15.604V135.956z"/>
	<path fill="#EE2927" d="M43.776,216.74h39.298c0.308,9.498,7.598,16.91,16.904,17.917v60.828c0,0-2.806-1.436-9.806-1.436H59.504
		c-10.884,0-15.728-2.372-15.728-16.122V216.74z"/>
	<path fill="#1365A7" d="M160.267,216.74v61.188c0,15.027-4.844,16.122-15.727,16.122h-30.67c-6.999,0-9.165,1.757-9.165,1.757
		v-61.183c9.173-1.128,15.682-8.481,15.986-17.885H160.267L160.267,216.74z"/>
	<path fill="#FFFFFF" d="M100.537,199.476c-0.339,0.032-1.25,0.138-2.247,0.373c-7.924,1.885-11.927,7.575-11.927,16.014
		c0,9.298,8.168,15.406,15.555,15.406c7.208,0,15.667-4.808,15.667-15.798c0-8.709-5.546-12.756-7.232-13.682
		c-1.582-0.871-3.36-1.855-5.24-1.6c-1.162,0.157-4.686,0.242-4.536,0.133c0.368-0.266,0.131-2.208-0.279-2.617l-0.612-0.884
		c3.062-0.952,7.036-0.626,9.918,0.748c6.111,2.914,11.281,9.314,11.281,17.72c0,10.189-7.749,19.109-18.772,19.109
		c-11.034,0-18.948-9.039-18.948-18.649c0-8.819,4.922-16.391,14.717-18.28l1.769-0.068c0.423,0.424,0.582,1.024,0.953,1.498
		L100.537,199.476z M102.173,202.056l12.604,21.253H89.492L102.173,202.056z M143.248,190.252c0.341-0.018,0.691-0.028,0.947-0.023
		c4.042,0.068,5.459,2.087,4.682,6.009c-0.103,0.522-0.29,1.193-0.461,1.903l4.576,7.022c0.85,1.089-0.323,2.875-1.669,1.854
		l-0.88-0.929c-0.184,0.074-0.686,0.059-0.976,0c-2.134-0.416-3.566-2.834-3.712-5.239c-0.026-0.415-0.293-2.051-0.278-2.366
		l-3.742-5.041c-0.412,0.09-3.109,0.51-3.109,0.51c-4.941-0.155-4.406-3.553-4.222-5.01c0.109-0.878,0.734-2.661,1.344-4.112
		l-5.273-7.422c-0.629,0.048-6.82,0.881-9.262-1.933c-2.458-2.832-1.081-7.601,0.185-10.979c-0.725-1.092-3.07-4.48-3.202-4.546
		c-0.368-0.175-1.784,1.089-2.599-0.604c-0.739-1.538,1.81-4.205,1.81-4.205c1.599-2.664,4.503,2.082,5.876,4.345
		c1.483-4.035,2.541-8.92-1.886-11.07c-0.267-0.131-0.874-0.381-0.975-0.418c-1.377-0.024-2.323-0.023-3.479-0.834l-1.253-0.789
		c-0.603-0.511-3.899-1.855-2.831-3.092c1.487-1.723,5.577-0.854,7.244-0.301c8.684,2.896,10.465,8.88,8.068,16.576
		c-0.516,1.659-1.191,3.266-1.824,4.887l5.753,8.77c0.576,0.001,1.307,0.009,1.745,0.028c0.823,0.039,1.99,0.216,1.99,0.216
		c6.069,1.139,5.766,5.526,4.134,9.841c-0.097,0.261-0.379,0.602-0.603,1.113L143.248,190.252z M112.258,261.655l5.361-3.461V243.52
		h2.668v-2.095c0,0,0.375,0.025,0.745,0.067c2.632,0.297,5.103-2.49,7.652-2.7c-0.354-0.665-0.752-1.866-0.752-2.693
		c0-2.448,0.843-3.76,2.556-5.248c0.547-0.4,0.71,0.625,0.459,1.212c-0.438,1.018,1.795,1.92,1.504-0.587
		c-0.142-1.223-1.28-1.931-1.754-2.965c-0.064-0.139-0.377-0.71-0.377-0.71s0.685,0.383,1.129,0.585
		c2.839,1.293,5.21,3.368,3.425,6.684c1.146,0.741,1.427,2.4,1.002,3.724c2.403,0.533,4.604,2.973,7.289,2.688
		c0.383-0.041,0.888-0.14,0.888-0.14v2.179h2.609v14.744l3.844,0.419c0.247,0.012,0.711,0.907,0.711,0.907
		c0.205,0.893,0.187,1.873,0.088,2.774c0.447,0.075,4.099,0.654,4.471,1.086c0.854,0.99,0.353,3.92-0.209,4.762
		c-0.224,0.333-12.333,15.636-12.333,15.636l-33.817-11.201v-4.727l-1.802-0.585l6.397-3.468l0.041-1.629L112.258,261.655z
		 M102.271,59.32l6.675,12.834l12.929,1.372l-10.017,10.013l2.57,13.355l-12.157-6.503l-12.074,6.503l2.057-13.611l-9.845-9.757
		l12.837-1.285L102.271,59.32z M54.101,263.92l2.467-11.051c0.225-0.996,0.439-1.499,1.2-1.57c0.766-0.071,0.935,0.555,1.031,1.102
		l2.067,11.162l-3.129-7.273L54.101,263.92z M86.386,248.239c4.392,3.953,4.746,10.722,0.792,15.11
		c-3.954,4.394-10.72,4.747-15.111,0.793c-4.393-3.955-4.747-10.72-0.792-15.112C75.228,244.639,81.994,244.285,86.386,248.239z
		 M52.628,267.649l37.419-0.026v16.061c-2.191-0.921-1.458-2.013-3.205-2.864l-0.495-0.229c-0.157-0.071-1.61-0.414-1.61-0.661
		v-8.108H55.788c-0.355,0-0.969-1.513-1.172-1.771C54.001,269.26,52.517,268.762,52.628,267.649z M57.028,226.059l2.232,0.229
		l-1.993,1.752l0.623,2.452l-2.196-1.18l-2.239,1.247l0.452-2.466l-1.851-1.83l2.316-0.193l1.33-2.559L57.028,226.059z
		 M93.615,177.918c0,0-2.454,4.576-8.35,4.576s-7.031-4.576-7.031-4.576H93.615z M51.255,152.285l2.674,1.024l14.941-1.556
		l1.508-10.149l2.044,10.149l14.94,1.556l2.674-1.024l0.329,1.904H72.676l0.661,14.39v23.729h4.796l-5.237,4.028l0.33,9.118
		c0,0,1.32,0.805,1.32,1.793c0,0.989-1.54,1.211-1.54,1.211h-2.047h-0.626h-2.048c0,0-1.539-0.222-1.539-1.211
		c0-0.988,1.32-1.793,1.32-1.793l0.329-9.118l-5.237-4.028h4.797v-23.729l0.66-14.39h-17.69L51.255,152.285z M47.338,177.918h15.381
		c0,0-1.134,4.576-7.03,4.576S47.338,177.918,47.338,177.918z"/>
	<path d="M109.333,89.889l-1.616-7.92l5.962-5.458l-8.033-0.91l-3.347-7.358l-3.349,7.358l-8.032,0.91l5.963,5.458l-1.617,7.92
		l7.035-3.986L109.333,89.889z M111.322,92.7l-9.021-5.112L93.278,92.7l2.073-10.161l-7.648-7.002l10.304-1.167l4.295-9.438
		l4.294,9.438l10.304,1.167l-7.649,7.002L111.322,92.7z M115.939,99.056l-13.74-7.784l-13.74,7.784l3.157-15.474L79.967,72.921
		l15.692-1.778L102.2,56.77l6.541,14.373l15.691,1.778l-11.65,10.661L115.939,99.056z M113.423,95.553l-2.558-12.524l9.431-8.632
		l-12.701-1.439L102.3,61.322l-5.294,11.635l-12.702,1.439l9.43,8.632l-2.556,12.524l11.123-6.3L113.423,95.553z M130.708,99.756
		c0.939,0.706-0.118,2.114-1.059,1.408l-8.011-6.016c0.357-0.467,0.697-0.945,1.022-1.438L130.708,99.756z M155.93,97.236
		c1.112,0.385,0.535,2.05-0.577,1.665l-30.075-10.414c0.199-0.55,0.379-1.109,0.539-1.679L155.93,97.236z M111.717,47.229
		c0.351-1.122,2.034-0.594,1.682,0.527l-2.832,9.024c-0.55-0.204-1.108-0.389-1.673-0.555L111.717,47.229z M129.189,58.49
		c0.944-0.697,1.992,0.721,1.048,1.418l-7.99,5.902c-0.336-0.482-0.691-0.952-1.062-1.407L129.189,58.49z M135.923,34.656
		c0.712-0.933,2.114,0.135,1.401,1.069l-19.358,25.394c-0.447-0.38-0.909-0.744-1.383-1.093L135.923,34.656z M109.452,103.729
		c0.563-0.18,1.116-0.378,1.66-0.595l2.996,8.973c0.372,1.115-1.301,1.673-1.672,0.559L109.452,103.729z M136.377,78.716
		c1.173,0,1.173,1.763,0,1.763h-9.635l0.002-0.417c0-0.45-0.012-0.898-0.035-1.346H136.377z M116.102,100.441
		c0.483-0.336,0.953-0.688,1.408-1.059l18.71,25.063c0.704,0.941-0.709,1.996-1.412,1.055L116.102,100.441z M155.549,60.541
		c1.112-0.375,1.676,1.295,0.563,1.672L125.58,72.531c-0.178-0.563-0.375-1.116-0.592-1.66L155.549,60.541z M101.339,24.157
		c0-1.175,1.763-1.175,1.763,0v31.104c-0.394-0.02-0.792-0.029-1.19-0.029c-0.191,0-0.382,0.002-0.573,0.007V24.157L101.339,24.157z
		 M73.693,99.756l8.049-6.044c0.323,0.491,0.664,0.971,1.021,1.437l-8.012,6.017C73.812,101.871,72.752,100.462,73.693,99.756z
		 M48.47,97.236l30.114-10.428c0.16,0.567,0.34,1.129,0.539,1.679L49.048,98.901C47.936,99.286,47.36,97.621,48.47,97.236z
		 M92.683,47.229l2.824,8.998c-0.567,0.166-1.125,0.352-1.674,0.555l-2.831-9.025C90.648,46.635,92.331,46.106,92.683,47.229z
		 M75.21,58.49l8.005,5.914c-0.372,0.455-0.726,0.925-1.064,1.407l-7.987-5.901C73.219,59.211,74.266,57.793,75.21,58.49z
		 M68.478,34.656l19.34,25.37c-0.476,0.349-0.936,0.712-1.385,1.093L67.078,35.726C66.364,34.791,67.766,33.724,68.478,34.656z
		 M94.95,103.729l-2.984,8.937c-0.374,1.114-2.044,0.558-1.673-0.559l2.997-8.973C93.833,103.352,94.387,103.55,94.95,103.729z
		 M68.023,78.716h9.669c-0.025,0.446-0.036,0.896-0.036,1.346l0.003,0.417h-9.636C66.849,80.479,66.849,78.716,68.023,78.716z
		 M88.298,100.441L69.591,125.5c-0.702,0.941-2.114-0.112-1.412-1.055l18.709-25.063C87.345,99.754,87.816,100.105,88.298,100.441z
		 M48.853,60.541l30.561,10.33c-0.217,0.544-0.417,1.099-0.594,1.66L48.289,62.213C47.176,61.836,47.739,60.166,48.853,60.541z
		 M101.297,104.886c0.205,0.006,0.409,0.009,0.615,0.009c0.385,0,0.768-0.01,1.147-0.026v22.244h-1.763L101.297,104.886
		L101.297,104.886z M85.224,160.682l-5.383,16.417h5.383V160.682z M78.486,177.099l6.738-19.748v-2.292H72.951
		c0.238,2.498,0.449,4.947,0.596,7.088c0.6,8.771,0.301,26.171,0.231,29.754h4.634c0.783,0,1.009,0.724,0.365,1.168l-5.09,3.513
		c0.027,1.323,0.138,6.169,0.387,8.93c0.792,0.41,1.281,0.657,1.269,1.749c-0.017,1.429-1.321,1.942-2.488,1.845h-2.779
		l-1.837-0.001c0,0-0.147-0.003-0.353-0.036c-2.099-0.343-2.725-2.947-0.638-3.541c0.17-2.682,0.201-7.624,0.205-8.948l-5.006-3.514
		c-0.638-0.448-0.413-1.166,0.369-1.166h4.374c-0.077-3.666-0.419-21.76,0.141-29.723c0.15-2.131,0.372-4.622,0.624-7.179H55.716
		v2.369l6.732,19.734h1.484c0,0-0.433,1.208-0.737,1.728c-1.765,3.005-4.967,4.432-8.442,4.432c-4.245,0-7.013-2.619-8.602-6.158
		h1.547l6.735-19.739v-2.364h-3.872c-1.171,0-0.343-2.544-0.261-2.957c0.417-2.1,2.584,0.288,3.117,0.68
		c0.97,0.161,4.287-0.324,5.162-0.439c2.774-0.363,5.852-0.822,7.437-0.935c0.276-0.021,1.891-0.165,2.367-0.563
		c0.706-6.651,1.446-12.635,1.446-12.635c0.107-0.866,1.167-0.864,1.272,0.001c0,0,0.733,5.988,1.429,12.707
		c0.496,0.385,2.078,0.528,2.351,0.548c3.712,0.263,7.379,1.06,11.091,1.349c0.474,0.036,1.032,0.104,1.508,0.025
		c0.598-0.438,1.353-1.396,2.102-1.486c1.284-0.151,1.271,2.216,1.389,3.032c0.059,0.405-0.224,0.733-0.635,0.733h-3.833v2.288
		l6.74,19.752h1.559c0,0-0.56,1.243-0.881,1.748c-1.702,2.666-4.44,4.409-7.721,4.409c-4.492,0-7.735-2.122-9.179-6.157H78.486
		L78.486,177.099z M91.891,177.099l-5.385-16.423v16.423H91.891z M49.054,177.103h5.382V160.69L49.054,177.103z M55.717,177.103
		h5.378l-5.378-16.406V177.103z M61.967,178.384H48.261c1.475,2.175,3.749,3.595,6.494,3.595
		C57.686,181.979,60.39,180.866,61.967,178.384z M89.424,152.79c-0.582,0.47-1.23,0.783-1.505,0.987h1.673
		C89.544,153.481,89.485,153.13,89.424,152.79z M84.375,153.777c-2.875-0.359-6.697-0.889-9.583-1.092
		c-0.927-0.066-1.607-0.2-2.109-0.364l0.145,1.456H84.375L84.375,153.777z M71.613,154.529c-0.19-2.065-0.465-7.948-0.505-8.616
		c-0.04-0.666-0.124-1.087-0.124-1.087l0.128,47.074l1.385-0.002c0.068-3.513,0.371-20.905-0.229-29.664
		C72.11,159.917,71.875,157.239,71.613,154.529z M51.477,152.73c-0.062,0.342-0.12,0.691-0.167,0.987h1.674
		C52.708,153.515,52.058,153.2,51.477,152.73z M56.526,153.718h11.555l0.149-1.461c-0.508,0.167-1.193,0.302-2.122,0.368
		C63.223,152.829,59.401,153.357,56.526,153.718z M68.544,205.337h4.229c-0.215-2.597-0.322-6.699-0.359-8.354h-3.679
		C68.725,198.662,68.689,202.815,68.544,205.337z M73.463,206.618h-5.532c-0.191,0.086-0.406,0.147-0.617,0.276
		c-0.209,0.659,0.434,0.903,0.955,0.928h1.809h2.808l0.071,0.006c0,0,0.079,0.008,0.198,0.006c0.754-0.016,1.305-0.724,0.699-1.022
		C73.717,206.74,73.585,206.683,73.463,206.618z M68.438,195.703h4.264l3.654-2.521H64.845L68.438,195.703z M69.831,191.9
		l0.13-47.049c0,0-0.055,0.505-0.134,1.301c-0.079,0.797-0.519,8.303-0.531,8.298c-0.277,2.778-0.524,5.511-0.687,7.817
		c-0.559,7.949-0.213,26.042-0.137,29.631L69.831,191.9z M78.99,178.381c1.578,2.48,4.281,3.594,7.213,3.594
		c2.565,0,5.124-1.444,6.526-3.594H78.99z M117.599,143.53c0.556-0.028,1.747,0.351,1.53,1.111
		c-0.274,0.955-2.496,0.317-2.223-0.638C116.963,143.803,117.178,143.553,117.599,143.53z M148.797,199.637
		c-0.088,0.732-0.064,1.413,0.191,1.903c0.563,1.076,1.128,2.146,1.709,3.211l1.16,1.708c0,0,0.427,0.28,0.796,0.114
		c0.372-0.166,0.321-0.688,0.321-0.688L148.797,199.637z M147.175,194.853l-0.002,0.098c-0.017,1.041-0.305,2.204-0.451,3.064
		c-0.027,0.272-0.058,0.59-0.085,0.907c-0.081,1.463,0.021,2.751,0.772,4.154c0.823,1.538,1.644,2.09,2.158,2.293l-0.21-0.396
		c-0.751-1.244-1.494-2.422-1.771-3.749c-0.12-0.453-0.149-0.853-0.111-1.297c0.006-0.112,0.014-0.229,0.025-0.345
		c0.03-0.272,0.072-0.522,0.111-0.755c0.074-0.434,0.534-2.084,0.604-2.338c0.053-0.229,0.107-0.475,0.16-0.733
		c0.697-3.289-0.329-4.537-3.635-4.621l0.887,1.354C146.84,192.743,147.176,193.717,147.175,194.853z M118.501,159.224
		c0.942,0.443,2.592,3.114,3.163,3.967l1.193-3.142c-0.661-1.038-2.734-4.61-4.097-5.021c-0.099,0.01-0.199,0.071-0.219,0.082
		c-0.123,0.137-0.206,0.322-0.315,0.473c-0.358,0.497-2.188,2.519-1.796,3.328C116.8,159.688,117.57,158.782,118.501,159.224z
		 M127.656,173.961c-3.089-0.226-4.268-2.999-3.425-5.832l0.718-2.039c0.331-0.944,0.712-1.892,1.105-2.841l0.149-0.383
		c1.293-3.095,2.626-6.253,2.529-9.614c-0.106-3.705-2.174-7.3-8.326-9.368c-1.093-0.367-5.685-1.318-6.809-0.122
		c0.278,0.578,2.94,2.21,3.645,2.703c0.994,0.694,2.184,0.79,3.369,0.802c0,0,0.416,0.133,0.896,0.366
		c7.095,3.453,3.31,10.61,1.428,15.935c0,0-1.505,4.043-1.844,5.068c-1.843,5.571,1.434,8.06,6.65,8.246
		c0.797,0.028,1.442,0.029,1.93,0.022l-1.588-2.337L127.656,173.961z M139.795,191.367c-1.413-0.179-2.191-1.408-2.043-2.812
		c0.332-3.159,2.445-5.759,2.851-8.907c0.26-2.013-0.253-4.493-4.332-5.278c-0.877-0.136-1.756-0.218-2.644-0.244l1.867,2.83
		c3.531,0.872,3.035,3.962,1.914,6.587c-1.347,2.873-4.965,9.368,1.301,9.64c0.745-0.039,1.492-0.094,2.229-0.215L139.795,191.367z
		 M135.971,183.594l0.262-0.565c0.237-0.556,0.451-1.121,0.589-1.667l-4.314-6.566l-1.32-1.984l-4.69-7.163l-0.298,0.778
		l-0.199,0.531l-0.55,1.564l-0.017,0.064l2.869,4.085l1.313,1.872L135.971,183.594z M141.755,194.109
		c-0.395,0.079-0.795,0.154-1.074,0.19c-0.768,0.103-1.966,0.162-1.966,0.162c-5.119-0.204-4.979-4.061-4.777-5.528
		c0.123-0.883,0.799-2.563,1.43-4l-4.783-6.807c-0.803,0.04-1.851,0.069-2.889,0.033c-2.063-0.073-4.986-0.396-7.023-2.657
		c-2.553-2.831-0.874-7.422,0.449-10.806c-0.756-1.137-1.823-2.727-2.377-3.466c-0.468-0.626-0.683-0.801-0.791-0.851
		c-0.306-0.146-1.833,0.848-2.679-0.914c-0.826-1.72,1.278-3.608,2.071-4.876c1.673-2.683,4.621,1.518,6.099,3.909
		c1.313-3.958,1.835-8.144-3.049-9.959c-3.658-0.104-3.426-1.107-6.033-2.48c-1.102-0.582-1.732-1.171-1.979-1.719
		c-0.145-0.045-0.275-0.099-0.368-0.127c-1.044-0.345-1.742-0.76-2.575-1.459c-0.238-0.199-0.214-0.374-0.097-0.56
		c0.135-0.21,0.4-0.406,0.688-0.197c1.128,0.814,1.338,0.931,2.646,0.93c1.116-1.104,4.381-1.524,8.138-0.263
		c8.767,2.947,10.67,8.924,8.118,16.714c-0.533,1.626-1.221,3.197-1.87,4.784l5.711,8.662c0.65,0.013,1.336,0.027,1.7,0.048
		c0.838,0.047,2.029,0.232,2.029,0.232c6.184,1.192,6.123,5.821,4.379,10.228c-0.102,0.258-0.295,0.659-0.518,1.145l3.541,5.392
		c0.347-0.013,0.684-0.02,0.921-0.016c4.107,0.104,5.657,2.133,4.805,6.168c-0.107,0.496-0.296,1.145-0.472,1.836l4.863,7.313
		c0.899,1.15-0.744,3.825-3.039,2.181l-0.442-0.631c-1.525,0.626-3.674-1.943-4.262-3.041c-0.85-1.589-0.984-2.948-0.928-4.539
		L141.755,194.109z M140.553,190.083l0.267,0.383l4.718,6.692l0.061-0.354c0.055-0.376,0.107-0.725,0.136-0.881l0.054-0.302
		c0.018-0.117,0.032-0.213,0.038-0.27l0.021-0.187l-6.099-9.285l-0.034,0.071c-0.254,0.638-0.485,1.302-0.607,1.904L139.081,188
		L140.553,190.083z M134.278,248.149c3.344-0.87,4.821,1.283,7.879,1.455c0.853,0.047,0.782,1.326-0.072,1.279
		c-3.019-0.17-4.788-2.194-7.483-1.492C133.774,249.604,133.451,248.365,134.278,248.149z M134.326,243.377
		c3.582-0.837,4.721,1.35,7.837,1.517c0.854,0.044,0.786,1.324-0.068,1.278c-2.997-0.158-4.601-2.219-7.478-1.548
		C133.785,244.818,133.494,243.569,134.326,243.377z M134.305,252.867c3.501-0.974,4.797,1.385,7.806,1.447
		c0.854,0.02,0.826,1.301-0.028,1.283c-2.846-0.063-4.721-2.25-7.437-1.497C133.824,254.33,133.48,253.095,134.305,252.867z
		 M130.052,254.101c-2.712-0.753-4.589,1.434-7.436,1.497c-0.854,0.018-0.88-1.265-0.027-1.283c3.008-0.063,4.306-2.421,7.807-1.447
		C131.221,253.095,130.876,254.33,130.052,254.101z M130.098,249.392c-2.201-0.574-3.206,0.39-5.087,1.025
		c-0.675,0.229-1.45,0.412-2.396,0.466c-0.853,0.048-0.926-1.231-0.072-1.279c3.058-0.172,4.535-2.324,7.878-1.455
		C131.249,248.365,130.924,249.604,130.098,249.392z M130.082,244.624c-2.877-0.671-4.479,1.389-7.478,1.548
		c-0.853,0.046-0.922-1.234-0.068-1.278c3.116-0.167,4.256-2.354,7.837-1.518C131.207,243.569,130.915,244.818,130.082,244.624z
		 M140.397,268.521l-25.665-5.615v3.237l25.665,6.73V268.521z M132.956,239.987v18.646c1.655-0.498,3.422-0.787,5.135-0.787
		c1.853,0,3.725,0.333,5.509,0.814v-16.573c-3.631,0.384-5.411-2.795-7.946-2.795C134.691,239.293,133.792,239.562,132.956,239.987z
		 M131.673,258.587v-18.609c-0.179-0.095-0.369-0.189-0.545-0.259c-0.539-0.215-1.274-0.426-2.088-0.426
		c-2.533,0-4.524,3.191-7.966,2.804l-0.01,16.415c1.561-0.582,3.297-0.758,4.946-0.758
		C127.798,257.754,129.888,257.997,131.673,258.587z M131.604,238.528c0.295,0.118,0.536,0.235,0.714,0.33
		c0.739-0.379,1.546-0.651,2.373-0.773c0.175-0.036,0.351-0.06,0.529-0.06c0.168-0.413,0.208-0.903,0.033-1.456
		c-0.637,1.271-2.423,0.397-1.495-1.182c0.546-0.93,1.019-1.475,0.919-2.686c-0.097-1.186-1.106-2.021-2.072-2.543
		c0,0,0.398,0.878,0.48,1.422c0.479,3.163-3.149,2.484-2.444,0.704c-0.768,0.729-1.806,1.736-1.806,3.788
		c0,0.732,0.211,1.402,0.585,1.955l0.223,0.017C130.417,238.12,131.093,238.325,131.604,238.528z M150.74,262.409
		c0.063-0.501,0.138-1.166,0.125-1.443c-0.013-0.359-0.021-0.729-0.071-1.089l-9.114,8.467v3.794
		c2.529-2.597,8.592-8.821,8.79-9.063c0.156-0.191,0.257-0.64,0.263-0.664L150.74,262.409L150.74,262.409z M144.171,282.146
		c3.054-3.907,10.968-14.032,11.147-14.3c0.384-0.58,0.441-2.316,0.279-3.407l-11.426,13.289V282.146L144.171,282.146z
		 M110.166,268.797v2.764v0.847l32.724,10.778v-5.208L110.166,268.797z M110.811,266.474l-1.404,0.773l0.207,0.063l33.696,9.453
		l11.229-13.063c-0.827-0.144-1.917-0.328-2.731-0.467c-0.701,1.402-5.222,5.696-5.448,5.928c-2.445,2.516-5.119,5.256-5.119,5.256
		l-27.318-7.164L110.811,266.474z M117.02,259.597l-3.011,1.838l26.889,5.885l6.523-6.06c-0.824-0.146-6.093-1.068-8.565-1.231
		c-2.369-0.159-5.691,0.068-6.401,0.119l-0.114,0.043l-0.056-0.017l-0.136-0.027c-0.763-0.05-3.965-0.245-6.251-0.118
		c-2.622,0.146-8.876,1.248-8.876,1.248L117.02,259.597L117.02,259.597z M149.486,259.34l-1.957-0.205v2.023L149.486,259.34z
		 M144.881,259.421c0.458,0.083,0.912,0.162,1.36,0.241v-1.951l0.007-13.628h-1.366L144.881,259.421L144.881,259.421z
		 M118.302,257.312l0.061-0.037l-0.012,2.409c0.374-0.063,0.864-0.145,1.433-0.23v-15.369h-1.482V257.312L118.302,257.312z
		 M110.597,262.017l6.423-3.923v-15.292h2.763v-2.407c0,0,1.08,0.39,1.434,0.429c2.566,0.289,4.426-2.096,6.8-2.682
		c-0.304-0.629-0.47-1.342-0.47-2.104c0-2.448,1.204-4.015,2.917-5.502c0.547-0.399,0.903-0.527,0.899-0.54
		c0.016-0.008,0.036-0.022,0.036-0.021c-0.007-0.011-0.014-0.019-0.021-0.027c-0.366-0.468-0.775-0.904-1.019-1.438
		c-0.065-0.139-0.329-1.109-0.329-1.109s1.145,0.422,1.59,0.623c2.839,1.293,5.518,3.416,3.734,6.729
		c1.091,0.707,1.495,2.082,1.169,3.354c2.441,0.515,4.228,2.994,6.914,2.71c0.369-0.039,1.443-0.406,1.443-0.406v2.393h2.648v15.045
		l3.063,0.32c1.179,0.123,1.363,0.575,1.484,1.685c0.08,0.72,0.084,1.41,0.01,2.131c1.114,0.188,3.423,0.582,3.855,0.669
		c1.572,0.313,0.964,5.121,0.443,5.904c-0.224,0.336-12.668,16.252-12.668,16.252l-37.408-12.32l2.577-1.631v-2.425l-2.766-0.831
		l7.331-4.046v-0.907L110.597,262.017z M103.009,196.824c1.146-0.018,1.168,1.317,0.023,1.336
		C101.888,198.177,101.864,196.841,103.009,196.824z M102.075,214.428c0.931,0,1.688,0.753,1.688,1.686s-0.758,1.687-1.688,1.687
		c-0.931,0-1.688-0.754-1.688-1.687C100.386,215.181,101.143,214.428,102.075,214.428z M64.16,253.261l-6.656-17.554
		c0.421-0.097,0.83-0.229,1.223-0.391l6.63,17.488C65.661,253.605,64.462,254.06,64.16,253.261z M53.393,268.04
		c0.024,0.949,1.343,1.412,1.906,2.133c0.155,0.196,0.784,1.191,1.041,1.191h28.821l0.008,7.849c0.322,0.521,2.26,0.76,2.633,1.959
		c0.219,0.71,0.992,1.191,1.626,1.481v-14.637L53.393,268.04z M61.339,266.752l-0.347-1.662l-1.405-1.771l-1.842-4.898l-2.165,5.306
		l-1.369,1.325l-0.405,1.709L61.339,266.752z M54.864,262.091l2.932-7.186l2.583,6.872l-1.676-8.604
		c-0.166-0.949-0.511-1.154-0.874-1.122c-0.597,0.058-0.777,0.423-0.983,1.334L54.864,262.091z M86.874,247.833
		c4.653,4.189,5.028,11.357,0.839,16.012c-1.172,1.302-2.578,2.269-4.097,2.894l7.094-0.006v17.663c0,0-0.973-0.248-1.237-0.342
		c-2.97-1.061-1.97-2.186-3.54-2.948c-0.813-0.396-2.054-0.8-2.054-1.911v-6.549h-27.54c-1.396,0-1.568-1.528-2.375-2.012
		c-1.509-0.906-2.365-2.211-1.51-3.732l3.143-13.797c0.188-0.835,0.524-2.178,2.112-2.327c1.439-0.135,2.063,1.07,2.254,2.172
		l2.688,13.807l12.322-0.011c-1.168-0.479-2.277-1.167-3.271-2.062c-4.652-4.19-5.028-11.358-0.839-16.011
		C75.053,244.019,82.22,243.643,86.874,247.833z M80.307,263.87c-1.997,1.054-3.9,1.397-5.333,1.473
		c2.201,1.049,4.691,1.24,6.991,0.608c-0.28-0.376-0.757-0.999-1.389-1.761L80.307,263.87z M86.708,257.287
		c-0.498,0.918-1.145,1.89-1.975,2.901c-1.059,1.289-2.174,2.266-3.283,3.001c0.625,0.751,1.22,1.524,1.781,2.32
		c1.307-0.557,2.517-1.399,3.529-2.524c1.138-1.264,1.896-2.736,2.281-4.278c-0.371-0.209-1.186-0.676-2.235-1.354L86.708,257.287z
		 M88.238,251.668c0.012,1.194-0.208,2.72-0.976,4.486c0.661,0.428,1.334,0.835,2.02,1.221
		C89.497,255.43,89.145,253.438,88.238,251.668z M78.667,248.6c1.539-0.814,3.224-1.385,4.915-1.438
		c-2.09-0.987-4.438-1.209-6.634-0.684c0.286,0.376,0.696,0.901,1.21,1.52C78.325,248.2,78.496,248.399,78.667,248.6z
		 M72.089,254.941c0.829-1.598,2-3.043,3.485-4.263c0.595-0.488,1.247-0.967,1.939-1.407c-0.655-0.771-1.279-1.569-1.868-2.391
		c-1.422,0.553-2.739,1.436-3.829,2.647c-1.049,1.165-1.775,2.508-2.186,3.92c0.34,0.188,1.186,0.671,2.296,1.388L72.089,254.941z
		 M70.635,261.384c-0.054-1.849,0.263-3.638,0.925-5.291c-0.723-0.474-1.461-0.92-2.215-1.34
		C69.005,257.02,69.442,259.372,70.635,261.384z M76.679,260.089l-3.559,3.917c0.16,0.02,0.367,0.041,0.615,0.056
		c2.03,0.115,3.961-0.321,5.697-1.192C78.56,261.904,77.641,260.973,76.679,260.089z M82.237,253.973l-4.691,5.163
		c1.072,0.969,2.093,1.991,3.053,3.067c1.166-0.753,2.226-1.71,3.142-2.829c0.602-0.731,1.274-1.723,1.852-2.833
		C84.438,255.74,83.316,254.884,82.237,253.973z M86.515,249.265l-3.418,3.763c0.974,0.837,1.987,1.628,3.038,2.364
		c0.848-2.01,1.257-4.237,0.395-5.989l0.078-0.04L86.515,249.265z M82.138,252.177l3.225-3.552c-1.936-0.491-3.985,0.04-5.817,0.962
		C80.371,250.485,81.235,251.351,82.138,252.177z M76.582,258.29l4.689-5.16c-1.014-0.911-1.985-1.873-2.901-2.883
		c-0.719,0.446-1.389,0.936-1.983,1.423c-1.295,1.063-2.402,2.459-3.194,4.017C74.36,256.495,75.493,257.365,76.582,258.29z
		 M72.069,263.256l0.059-0.026l3.595-3.993c-0.978-0.846-1.997-1.646-3.051-2.391c-0.795,2.035-1.057,4.261-0.551,6.354
		l-0.061,0.049L72.069,263.256z M57.772,225.167l4.047,0.421l-3.27,2.875l1.041,4.098l-3.759-2.021l-3.63,2.025l0.744-4.061
		l-3.037-3.004l3.976-0.333l1.94-3.732L57.772,225.167z M56.953,226.372l-1.125-2.163l-1.131,2.177l-1.909,0.159l1.54,1.522
		l-0.375,2.052l1.866-1.042l1.812,0.975l-0.516-2.033l1.657-1.457L56.953,226.372z M62.321,232.422l8.209,6.561
		c0.667,0.533-0.133,1.535-0.799,1.001l-8.218-6.567C61.808,233.106,62.079,232.774,62.321,232.422z M63.573,244.537l-4.599-9.324
		c0.393-0.177,0.769-0.383,1.125-0.616l4.624,9.376C65.102,244.738,63.952,245.304,63.573,244.537z M69.404,245.523l-9.095-11.07
		c0.351-0.247,0.681-0.521,0.987-0.817l9.097,11.075C70.937,245.369,69.947,246.184,69.404,245.523z M78.664,242.217l-16.153-10.084
		c0.229-0.361,0.427-0.741,0.597-1.139l16.235,10.133C80.067,241.581,79.389,242.668,78.664,242.217z M98.459,200.633
		c-0.755,0.187-1.476,0.414-2.159,0.68c-5.411,2.198-9.044,7.659-9.044,14.567c0,2.44,0.644,4.681,1.722,6.635l12.788-21.214
		c-0.518-0.025-1.036-0.146-1.558-0.433c-0.223-0.121-0.402-0.278-0.566-0.453C99.241,200.472,98.846,200.545,98.459,200.633z
		 M99.081,196.245l0.017-59.813H44.7v75.094h38.117c1.392-8.185,6.992-12.823,15.422-14.911
		C98.518,196.481,98.799,196.359,99.081,196.245z M121.521,211.526h38.137v-75.094h-54.345v58.996
		c1.578,0.187,3.167,0.66,4.743,1.41C115.571,199.462,120.259,204.549,121.521,211.526z M57.976,293.168h0.054h33.858
		c2.482,0,4.611,0.225,6.93,1.161l0.28,0.116v-59.359c-9.3-1.384-15.661-8.856-16.522-17.346H44.7v59.576l-0.002,3.717
		c0,9,4.049,12.136,9.701,12.136L57.976,293.168L57.976,293.168z M161.025,277.512l-0.001,3.521c0,9.611-4.524,13.497-11.063,13.497
		h-1.673h-4.661h-31.394c-3.397,0-5.366,0.337-8.284,1.956v-61.239c-0.563,0.045-1.136,0.067-1.717,0.067
		c-0.6,0-1.191-0.025-1.771-0.072l0.001,61.212c0,0-1.129-0.602-1.716-0.838c-2.191-0.886-4.514-1.087-6.859-1.087H58.029
		c-0.455,0-0.91,0.004-1.364,0h-2.266c-6.538,0-11.063-3.885-11.063-13.496v-3.688v-60.969h39.151
		c-0.007-0.203-0.01-0.406-0.01-0.61c0-1.002,0.051-1.962,0.15-2.879H43.335v-77.82h57.127l-0.001,60.716
		c1.147-0.313,2.313-0.462,3.489-0.445v-60.271h57.075v77.82h-39.302c0.087,0.784,0.132,1.593,0.132,2.42
		c0,0.361-0.008,0.721-0.025,1.077h39.196L161.025,277.512L161.025,277.512z M148.575,293.168h1.385
		c5.652,0,9.701-3.135,9.701-12.135v-3.337l-0.001-0.181l-0.002-59.768h-37.939c-0.983,8.743-7.216,16.013-16.405,17.349v59.353
		c2.381-1.047,4.607-1.281,7.184-1.281h35.791H148.575z M95.461,214.243c2.073-1.073,4.396-1.697,6.734-1.697
		c2.313,0,4.628,0.62,6.693,1.677l-6.708-11.129L95.461,214.243z M110.833,217.448l-2.29,1.125
		c-1.711,1.515-4.191,2.473-6.459,2.473c-2.162,0-4.529-0.847-6.101-2.374l-2.455-1.225l-3.067,5.088h23.437L110.833,217.448z
		 M115.415,222.564c1.001-1.979,1.595-4.334,1.595-7.077c0-6.656-3.556-11.822-9.347-14.192c-1.938-0.791-3.542-0.172-5.081-0.02
		L115.415,222.564z M89.788,223.816c2.888,4.146,7.791,6.713,12.25,6.713c4.54,0,9.736-2.187,12.66-6.713H89.788z M100.462,197.079
		l0.378,0.39l0.088,0.093l0.103,0.11c0.268,0.284,0.552,0.577,0.687,0.907c0.043,0.074,0.086,0.15,0.127,0.228
		c0,0-0.044,0.359-0.137,0.566c-0.056,0.125-0.125,0.242-0.205,0.353c-0.053,0.073-0.112,0.144-0.174,0.211
		c1.152,0.252,2.927-0.238,3.829-0.361c1.93-0.263,4.034,0.992,5.656,1.881c1.713,0.938,7.479,5.259,7.479,14.031
		c0,11.082-8.983,16.324-16.255,16.324c-7.459,0-16.063-6.55-16.063-15.931c0-7.972,3.65-12.227,7.346-14.456
		c3.115-1.882,6.226-2.302,7.094-2.388l0.015-0.088c-0.355-0.452-0.766-0.856-1.171-1.266l-1.006,0.193
		c-9.758,1.883-14.494,9.112-14.494,17.889c0,9.554,7.48,18.267,18.474,18.267c10.98,0,18.34-8.588,18.34-18.725
		c0-8.359-4.975-14.415-11.067-17.313C106.719,196.671,103.442,196.212,100.462,197.079z M98.206,218.731
		c-0.461-0.727-0.727-1.587-0.727-2.511c0-0.557,0.097-1.089,0.275-1.585c-1.164,0.422-2.273,0.997-3.28,1.688l-0.134,0.094
		l2.41,1.202c0,0,0.196,0.206,0.411,0.385C97.487,218.277,97.838,218.52,98.206,218.731z M106.619,214.63
		c0.179,0.497,0.276,1.031,0.276,1.591c0,0.886-0.247,1.716-0.673,2.423c0.589-0.325,1.131-0.709,1.591-1.142l2.244-1.088
		l-0.103-0.07C108.931,215.641,107.802,215.058,106.619,214.63z M99.442,214.173c-0.428,0.57-0.682,1.278-0.682,2.048
		c0,1.886,1.534,3.417,3.427,3.417c1.893,0,3.426-1.531,3.426-3.417c0-0.778-0.265-1.476-0.705-2.049
		c-0.88-0.205-1.802-0.313-2.703-0.313C101.28,213.858,100.346,213.965,99.442,214.173z M102.308,304.761
		c-0.322-0.396-3.184-4.009-9.548-3.771c0,0-40.348,0.023-42.113-0.006c-13.228-0.667-13.79-15.777-13.79-18.828l0.019-153.707
		h130.598c0,0,0.137,154.617,0.02,155.725c-1.019,16.601-14.017,16.816-14.017,16.816h-41.23
		C104.569,300.989,102.629,304.364,102.308,304.761z M102.287,301.972c2.271-2.727,6.476-3.396,9.773-3.396h40.437
		c0,0,0.722,0.021,1.806-0.182c7.385-1.381,10.349-8.13,10.786-15.204c0.11-1.048-0.014-142.483-0.022-152.168H39.289L39.27,281.255
		c0,8.016,2.359,16.812,12.392,17.316c1.73,0.029,22.738,0.016,36.134,0.008l5.137-0.005
		C96.445,298.445,99.963,299.444,102.287,301.972z"/>
</g>
<g>
	<path d="M208.504,162.862v-32.789h9.055c11.555,0,17.332,5.327,17.332,15.982c0,5.062-1.604,9.128-4.813,12.199
		s-7.504,4.606-12.885,4.606L208.504,162.862L208.504,162.862z M212.346,133.549v25.838h4.893c4.299,0,7.645-1.15,10.038-3.453
		c2.393-2.301,3.59-5.563,3.59-9.786c0-8.399-4.467-12.599-13.399-12.599H212.346z"/>
	<path d="M259.654,152.093h-16.531c0.061,2.605,0.762,4.619,2.104,6.036c1.341,1.418,3.186,2.127,5.533,2.127
		c2.637,0,5.061-0.869,7.271-2.606v3.521c-2.058,1.493-4.779,2.24-8.163,2.24c-3.308,0-5.907-1.063-7.797-3.188
		c-1.89-2.127-2.835-5.118-2.835-8.976c0-3.644,1.032-6.611,3.098-8.905c2.065-2.294,4.63-3.441,7.694-3.441
		s5.434,0.991,7.111,2.973c1.677,1.982,2.515,4.732,2.515,8.255V152.093L259.654,152.093z M255.813,148.914
		c-0.015-2.164-0.537-3.849-1.566-5.053c-1.029-1.204-2.458-1.807-4.288-1.807c-1.769,0-3.27,0.633-4.504,1.896
		c-1.235,1.267-1.997,2.92-2.287,4.962L255.813,148.914L255.813,148.914z"/>
	<path d="M269.167,159.479h-0.092v14.153h-3.75v-34.185h3.75v4.115h0.092c1.844-3.109,4.542-4.664,8.094-4.664
		c3.018,0,5.374,1.048,7.065,3.145c1.692,2.097,2.538,4.904,2.538,8.426c0,3.918-0.953,7.055-2.858,9.409
		c-1.906,2.354-4.513,3.532-7.82,3.532C273.152,163.411,270.813,162.101,269.167,159.479z M269.075,150.035v3.271
		c0,1.936,0.629,3.578,1.887,4.928c1.257,1.349,2.854,2.023,4.79,2.023c2.271,0,4.051-0.869,5.339-2.606
		c1.288-1.738,1.932-4.154,1.932-7.249c0-2.605-0.603-4.648-1.807-6.128c-1.204-1.479-2.835-2.218-4.893-2.218
		c-2.18,0-3.933,0.759-5.259,2.274C269.738,145.847,269.075,147.748,269.075,150.035z"/>
	<path d="M309.616,162.862h-3.75v-3.658h-0.091c-1.631,2.806-4.032,4.207-7.203,4.207c-2.333,0-4.158-0.616-5.477-1.853
		c-1.318-1.234-1.978-2.873-1.978-4.916c0-4.375,2.576-6.92,7.729-7.637l7.02-0.983c0-3.979-1.608-5.968-4.825-5.968
		c-2.82,0-5.366,0.96-7.637,2.881v-3.841c2.302-1.464,4.954-2.195,7.958-2.195c5.502,0,8.254,2.911,8.254,8.734V162.862z
		 M305.866,151.018l-5.648,0.777c-1.738,0.243-3.049,0.675-3.933,1.292c-0.884,0.617-1.326,1.712-1.326,3.28
		c0,1.145,0.408,2.077,1.223,2.803c0.815,0.724,1.901,1.086,3.258,1.086c1.86,0,3.396-0.652,4.607-1.955
		c1.212-1.305,1.818-2.953,1.818-4.95L305.866,151.018L305.866,151.018z"/>
	<path d="M328.891,143.244c-0.656-0.504-1.601-0.755-2.835-0.755c-1.601,0-2.938,0.755-4.013,2.265
		c-1.075,1.509-1.612,3.566-1.612,6.174v11.936h-3.75v-23.414h3.75v4.824h0.092c0.533-1.646,1.349-2.931,2.446-3.853
		c1.098-0.923,2.325-1.385,3.682-1.385c0.975,0,1.722,0.107,2.241,0.32L328.891,143.244L328.891,143.244z"/>
	<path d="M343.822,162.634c-0.884,0.486-2.05,0.73-3.499,0.73c-4.101,0-6.151-2.286-6.151-6.858v-13.856h-4.024v-3.201h4.024v-5.717
		l3.75-1.212v6.929h5.899v3.201h-5.898v13.193c0,1.569,0.267,2.689,0.8,3.36c0.533,0.671,1.418,1.006,2.652,1.006
		c0.945,0,1.761-0.259,2.447-0.776V162.634z"/>
	<path d="M365.59,162.862h-3.75v-3.658h-0.091c-1.631,2.806-4.032,4.207-7.203,4.207c-2.333,0-4.158-0.616-5.477-1.853
		c-1.318-1.234-1.978-2.873-1.978-4.916c0-4.375,2.576-6.92,7.729-7.637l7.02-0.983c0-3.979-1.608-5.968-4.825-5.968
		c-2.82,0-5.366,0.96-7.637,2.881v-3.841c2.302-1.464,4.954-2.195,7.958-2.195c5.502,0,8.254,2.911,8.254,8.734V162.862z
		 M361.84,151.018l-5.648,0.777c-1.738,0.243-3.049,0.675-3.933,1.292c-0.884,0.617-1.326,1.712-1.326,3.28
		c0,1.145,0.408,2.077,1.223,2.803c0.815,0.724,1.901,1.086,3.258,1.086c1.86,0,3.396-0.652,4.607-1.955
		c1.212-1.305,1.818-2.953,1.818-4.95L361.84,151.018L361.84,151.018z"/>
	<path d="M405.902,162.862h-3.75v-13.445c0-2.591-0.4-4.466-1.201-5.625c-0.801-1.157-2.145-1.736-4.035-1.736
		c-1.6,0-2.96,0.73-4.081,2.194c-1.121,1.464-1.681,3.217-1.681,5.26v13.354h-3.75v-13.901c0-4.604-1.776-6.905-5.328-6.905
		c-1.646,0-3.003,0.688-4.07,2.068c-1.067,1.381-1.601,3.176-1.601,5.386v13.354h-3.75V139.45h3.75v3.704h0.092
		c1.661-2.835,4.085-4.253,7.271-4.253c1.601,0,2.996,0.445,4.185,1.338s2.004,2.063,2.447,3.511
		c1.738-3.231,4.329-4.849,7.774-4.849c5.152,0,7.729,3.178,7.729,9.535V162.862L405.902,162.862z"/>
	<path d="M431.809,152.093h-16.531c0.061,2.605,0.762,4.619,2.104,6.036c1.342,1.418,3.188,2.127,5.533,2.127
		c2.637,0,5.063-0.869,7.271-2.606v3.521c-2.059,1.493-4.777,2.24-8.162,2.24c-3.309,0-5.908-1.063-7.799-3.188
		c-1.891-2.127-2.834-5.118-2.834-8.976c0-3.644,1.031-6.611,3.098-8.905s4.631-3.441,7.695-3.441c3.063,0,5.434,0.991,7.109,2.973
		c1.678,1.982,2.518,4.732,2.518,8.255v1.965H431.809z M427.967,148.914c-0.016-2.164-0.537-3.849-1.566-5.053
		c-1.027-1.204-2.457-1.807-4.287-1.807c-1.768,0-3.27,0.633-4.504,1.896c-1.234,1.267-1.998,2.92-2.287,4.962L427.967,148.914
		L427.967,148.914z"/>
	<path d="M456.916,162.862h-3.75v-13.354c0-4.971-1.814-7.454-5.441-7.454c-1.875,0-3.428,0.705-4.652,2.115
		c-1.229,1.409-1.842,3.188-1.842,5.339v13.354h-3.75v-23.414h3.75v3.887h0.092c1.768-2.956,4.328-4.436,7.684-4.436
		c2.561,0,4.52,0.827,5.875,2.48c1.357,1.653,2.035,4.044,2.035,7.169V162.862L456.916,162.862z"/>
	<path d="M474.842,162.634c-0.885,0.486-2.051,0.73-3.498,0.73c-4.102,0-6.15-2.286-6.15-6.858v-13.856h-4.025v-3.201h4.025v-5.717
		l3.75-1.212v6.929h5.898v3.201h-5.898v13.193c0,1.569,0.266,2.689,0.799,3.36s1.418,1.006,2.652,1.006
		c0.945,0,1.762-0.259,2.447-0.776V162.634z"/>
	<path d="M489.635,163.411c-3.461,0-6.225-1.094-8.289-3.28c-2.064-2.188-3.098-5.089-3.098-8.7c0-3.934,1.074-7.005,3.225-9.215
		c2.148-2.21,5.053-3.315,8.711-3.315c3.49,0,6.217,1.074,8.176,3.224c1.957,2.149,2.938,5.131,2.938,8.94
		c0,3.735-1.057,6.727-3.166,8.975C496.018,162.287,493.188,163.411,489.635,163.411z M489.91,142.055
		c-2.408,0-4.314,0.818-5.717,2.458c-1.404,1.639-2.105,3.897-2.105,6.778c0,2.775,0.709,4.963,2.127,6.563s3.316,2.401,5.693,2.401
		c2.424,0,4.287-0.785,5.592-2.355c1.303-1.569,1.955-3.803,1.955-6.699c0-2.927-0.652-5.183-1.955-6.769
		C494.197,142.848,492.332,142.055,489.91,142.055z"/>
	<path d="M540.1,162.862h-3.75v-3.979h-0.092c-1.736,3.019-4.422,4.526-8.049,4.526c-2.941,0-5.293-1.048-7.055-3.145
		c-1.76-2.096-2.641-4.95-2.641-8.563c0-3.872,0.977-6.975,2.928-9.307s4.549-3.498,7.797-3.498c3.215,0,5.557,1.266,7.02,3.796
		h0.092v-14.497h3.75V162.862z M536.35,152.275v-3.452c0-1.891-0.625-3.491-1.875-4.802c-1.25-1.313-2.834-1.967-4.756-1.967
		c-2.287,0-4.086,0.839-5.396,2.516s-1.967,3.993-1.967,6.951c0,2.697,0.629,4.828,1.887,6.391c1.258,1.563,2.945,2.345,5.064,2.345
		c2.09,0,3.785-0.756,5.088-2.265C535.699,156.482,536.35,154.577,536.35,152.275z"/>
	<path d="M566.51,152.093h-16.531c0.061,2.605,0.762,4.619,2.104,6.036c1.342,1.418,3.188,2.127,5.533,2.127
		c2.637,0,5.063-0.869,7.271-2.606v3.521c-2.059,1.493-4.777,2.24-8.162,2.24c-3.309,0-5.908-1.063-7.797-3.188
		c-1.893-2.127-2.836-5.118-2.836-8.976c0-3.644,1.031-6.611,3.098-8.905s4.631-3.441,7.693-3.441c3.064,0,5.436,0.991,7.111,2.973
		c1.676,1.982,2.518,4.732,2.518,8.255v1.965H566.51z M562.668,148.914c-0.016-2.164-0.537-3.849-1.566-5.053
		c-1.027-1.204-2.457-1.807-4.287-1.807c-1.77,0-3.27,0.633-4.504,1.896c-1.234,1.267-1.998,2.92-2.287,4.962L562.668,148.914
		L562.668,148.914z"/>
	<path d="M212.346,201.345v12.394h-3.841v-32.789h9.009c3.506,0,6.223,0.854,8.152,2.562c1.928,1.708,2.892,4.116,2.892,7.226
		c0,3.11-1.071,5.656-3.212,7.638c-2.141,1.982-5.034,2.973-8.677,2.973h-4.323V201.345z M212.346,184.425v13.443h4.024
		c2.652,0,4.676-0.604,6.071-1.816s2.092-2.923,2.092-5.134c0-4.328-2.561-6.493-7.683-6.493H212.346L212.346,184.425z"/>
	<path d="M242.276,214.287c-3.46,0-6.223-1.094-8.289-3.28c-2.066-2.188-3.098-5.089-3.098-8.7c0-3.934,1.074-7.005,3.224-9.215
		s5.053-3.315,8.712-3.315c3.491,0,6.215,1.074,8.174,3.224c1.958,2.149,2.938,5.131,2.938,8.94c0,3.735-1.056,6.727-3.167,8.975
		C248.66,213.163,245.828,214.287,242.276,214.287z M242.551,192.931c-2.409,0-4.314,0.818-5.716,2.458
		c-1.403,1.639-2.104,3.897-2.104,6.778c0,2.775,0.708,4.963,2.126,6.563c1.417,1.601,3.315,2.401,5.693,2.401
		c2.424,0,4.287-0.785,5.591-2.355c1.303-1.569,1.955-3.803,1.955-6.699c0-2.927-0.652-5.183-1.955-6.769
		C246.838,193.724,244.975,192.931,242.551,192.931z"/>
	<path d="M258.511,212.893v-4.024c2.042,1.51,4.291,2.265,6.746,2.265c3.292,0,4.939-1.099,4.939-3.293
		c0-0.625-0.141-1.154-0.423-1.59c-0.282-0.435-0.663-0.818-1.143-1.154c-0.48-0.335-1.044-0.636-1.692-0.902
		c-0.648-0.267-1.346-0.545-2.092-0.835c-1.037-0.412-1.948-0.827-2.732-1.246c-0.786-0.419-1.441-0.892-1.967-1.418
		c-0.526-0.524-0.922-1.124-1.189-1.795c-0.267-0.671-0.4-1.455-0.4-2.354c0-1.098,0.251-2.069,0.754-2.915
		c0.503-0.847,1.174-1.556,2.012-2.126c0.838-0.572,1.795-1.004,2.87-1.292c1.075-0.29,2.184-0.436,3.327-0.436
		c2.027,0,3.841,0.352,5.442,1.052v3.796c-1.723-1.128-3.704-1.691-5.945-1.691c-0.701,0-1.334,0.08-1.897,0.24
		c-0.564,0.159-1.048,0.385-1.452,0.675c-0.404,0.289-0.717,0.637-0.938,1.04c-0.221,0.403-0.332,0.85-0.332,1.338
		c0,0.608,0.11,1.12,0.332,1.531c0.221,0.411,0.545,0.776,0.972,1.098c0.427,0.321,0.945,0.61,1.555,0.869
		c0.609,0.26,1.303,0.541,2.081,0.846c1.037,0.396,1.966,0.805,2.79,1.224c0.823,0.421,1.524,0.893,2.104,1.419
		c0.579,0.524,1.025,1.132,1.338,1.816c0.312,0.688,0.469,1.502,0.469,2.446c0,1.159-0.255,2.165-0.766,3.019
		c-0.511,0.854-1.193,1.563-2.046,2.127c-0.854,0.563-1.837,0.983-2.95,1.258c-1.113,0.273-2.279,0.411-3.499,0.411
		C262.368,214.287,260.279,213.822,258.511,212.893z"/>
	<path d="M290.66,213.51c-0.884,0.486-2.05,0.73-3.499,0.73c-4.101,0-6.151-2.286-6.151-6.858v-13.856h-4.024v-3.201h4.024v-5.717
		l3.75-1.212v6.929h5.899v3.201h-5.899v13.193c0,1.569,0.267,2.689,0.8,3.36c0.533,0.671,1.418,1.006,2.652,1.006
		c0.945,0,1.761-0.259,2.447-0.776L290.66,213.51L290.66,213.51z"/>
	<path d="M315.652,211.863c0,8.599-4.116,12.896-12.348,12.896c-2.896,0-5.427-0.549-7.591-1.646v-3.75
		c2.637,1.463,5.152,2.195,7.546,2.195c5.762,0,8.643-3.064,8.643-9.192v-2.561h-0.091c-1.784,2.987-4.467,4.48-8.049,4.48
		c-2.912,0-5.255-1.04-7.031-3.121c-1.776-2.081-2.664-4.874-2.664-8.38c0-3.979,0.956-7.142,2.87-9.488
		c1.913-2.349,4.531-3.521,7.854-3.521c3.155,0,5.495,1.266,7.02,3.796h0.091v-3.247h3.75V211.863L315.652,211.863z
		 M311.902,203.151v-3.452c0-1.859-0.629-3.453-1.887-4.778c-1.257-1.326-2.824-1.989-4.699-1.989c-2.317,0-4.131,0.843-5.442,2.525
		c-1.311,1.686-1.966,4.045-1.966,7.077c0,2.606,0.629,4.691,1.886,6.254c1.258,1.563,2.923,2.345,4.996,2.345
		c2.104,0,3.814-0.747,5.133-2.241C311.243,207.397,311.902,205.483,311.902,203.151z"/>
	<path d="M335.454,194.12c-0.656-0.504-1.601-0.755-2.835-0.755c-1.601,0-2.938,0.755-4.013,2.265
		c-1.075,1.509-1.612,3.566-1.612,6.174v11.936h-3.75v-23.415h3.75v4.824h0.092c0.533-1.646,1.349-2.931,2.446-3.853
		c1.098-0.923,2.325-1.385,3.682-1.385c0.975,0,1.722,0.107,2.241,0.32L335.454,194.12L335.454,194.12z"/>
	<path d="M356.284,213.738h-3.75v-3.658h-0.091c-1.631,2.806-4.032,4.207-7.203,4.207c-2.333,0-4.158-0.616-5.477-1.853
		c-1.318-1.234-1.978-2.873-1.978-4.916c0-4.375,2.576-6.92,7.729-7.637l7.02-0.983c0-3.979-1.608-5.968-4.825-5.968
		c-2.82,0-5.366,0.96-7.637,2.881v-3.841c2.302-1.464,4.954-2.195,7.958-2.195c5.502,0,8.254,2.911,8.254,8.734V213.738z
		 M352.534,201.894l-5.648,0.777c-1.738,0.243-3.049,0.675-3.933,1.292c-0.884,0.617-1.326,1.712-1.326,3.28
		c0,1.145,0.408,2.077,1.223,2.803c0.815,0.724,1.901,1.086,3.258,1.086c1.86,0,3.396-0.652,4.607-1.955
		c1.212-1.305,1.818-2.953,1.818-4.95L352.534,201.894L352.534,201.894z"/>
	<path d="M383.333,213.738h-3.75v-3.979h-0.091c-1.738,3.019-4.421,4.526-8.049,4.526c-2.942,0-5.293-1.048-7.054-3.145
		c-1.761-2.096-2.641-4.95-2.641-8.563c0-3.872,0.975-6.975,2.927-9.307c1.951-2.332,4.55-3.498,7.797-3.498
		c3.216,0,5.557,1.266,7.02,3.796h0.091v-14.495h3.75V213.738z M379.583,203.151v-3.452c0-1.891-0.625-3.491-1.875-4.802
		c-1.25-1.312-2.835-1.967-4.756-1.967c-2.287,0-4.085,0.839-5.396,2.516s-1.966,3.993-1.966,6.951c0,2.697,0.629,4.828,1.886,6.391
		c1.258,1.563,2.946,2.345,5.065,2.345c2.088,0,3.784-0.756,5.087-2.265C378.932,207.358,379.583,205.453,379.583,203.151z"/>
	<path d="M400.711,214.287c-3.461,0-6.223-1.094-8.288-3.28c-2.066-2.188-3.098-5.089-3.098-8.7c0-3.934,1.074-7.005,3.224-9.215
		s5.053-3.315,8.711-3.315c3.49,0,6.217,1.074,8.176,3.224c1.957,2.149,2.938,5.131,2.938,8.94c0,3.735-1.057,6.727-3.166,8.975
		C407.094,213.163,404.264,214.287,400.711,214.287z M400.986,192.931c-2.408,0-4.314,0.818-5.717,2.458
		c-1.403,1.639-2.104,3.897-2.104,6.778c0,2.775,0.708,4.963,2.126,6.563c1.417,1.601,3.316,2.401,5.695,2.401
		c2.424,0,4.287-0.785,5.59-2.355c1.303-1.569,1.955-3.803,1.955-6.699c0-2.927-0.652-5.183-1.955-6.769
		C405.273,193.724,403.41,192.931,400.986,192.931z"/>
	<path d="M449.826,190.324l-10.77,27.164c-1.92,4.849-4.617,7.271-8.094,7.271c-0.977,0-1.793-0.101-2.447-0.298v-3.361
		c0.809,0.273,1.547,0.412,2.219,0.412c1.891,0,3.309-1.128,4.254-3.384l1.875-4.438l-9.146-23.368h4.16l6.334,18.019
		c0.076,0.229,0.236,0.822,0.48,1.783h0.137c0.076-0.365,0.23-0.944,0.457-1.737l6.654-18.063H449.826L449.826,190.324z"/>
	<path d="M471.023,201.345v12.394h-3.842v-32.789h9.01c3.506,0,6.223,0.854,8.15,2.562c1.93,1.708,2.893,4.116,2.893,7.226
		c0,3.11-1.07,5.656-3.211,7.638c-2.145,1.981-5.035,2.973-8.678,2.973h-4.322V201.345z M471.023,184.425v13.443h4.023
		c2.652,0,4.678-0.604,6.07-1.816c1.395-1.212,2.092-2.923,2.092-5.134c0-4.328-2.561-6.493-7.682-6.493H471.023L471.023,184.425z"
		/>
	<path d="M500.955,214.287c-3.461,0-6.225-1.094-8.289-3.28c-2.064-2.188-3.098-5.089-3.098-8.7c0-3.934,1.074-7.005,3.223-9.215
		c2.15-2.21,5.055-3.315,8.713-3.315c3.49,0,6.217,1.074,8.176,3.224c1.957,2.149,2.938,5.131,2.938,8.94
		c0,3.735-1.057,6.727-3.166,8.975C507.336,213.163,504.506,214.287,500.955,214.287z M501.229,192.931
		c-2.408,0-4.314,0.818-5.717,2.458c-1.402,1.639-2.104,3.897-2.104,6.778c0,2.775,0.709,4.963,2.127,6.563s3.314,2.401,5.693,2.401
		c2.424,0,4.287-0.785,5.59-2.355c1.303-1.569,1.955-3.803,1.955-6.699c0-2.927-0.652-5.183-1.955-6.769
		C505.516,193.724,503.652,192.931,501.229,192.931z"/>
	<path d="M517.189,212.893v-4.024c2.043,1.51,4.291,2.265,6.744,2.265c3.293,0,4.939-1.099,4.939-3.293
		c0-0.625-0.143-1.154-0.424-1.59c-0.281-0.435-0.662-0.818-1.143-1.154c-0.48-0.335-1.045-0.636-1.693-0.902
		c-0.646-0.267-1.346-0.545-2.092-0.835c-1.037-0.412-1.947-0.827-2.732-1.246c-0.783-0.419-1.439-0.892-1.967-1.418
		c-0.523-0.524-0.922-1.124-1.188-1.795c-0.268-0.671-0.4-1.455-0.4-2.354c0-1.098,0.252-2.069,0.756-2.915
		c0.502-0.847,1.172-1.556,2.012-2.126c0.838-0.572,1.795-1.004,2.869-1.292c1.074-0.29,2.186-0.436,3.326-0.436
		c2.027,0,3.842,0.352,5.443,1.052v3.796c-1.725-1.128-3.705-1.691-5.945-1.691c-0.701,0-1.334,0.08-1.896,0.24
		c-0.564,0.159-1.051,0.385-1.453,0.675c-0.404,0.289-0.717,0.637-0.938,1.04s-0.332,0.85-0.332,1.338
		c0,0.608,0.111,1.12,0.332,1.531s0.545,0.776,0.973,1.098c0.426,0.321,0.943,0.61,1.555,0.869c0.607,0.26,1.303,0.541,2.08,0.846
		c1.037,0.396,1.967,0.805,2.791,1.224c0.82,0.421,1.521,0.893,2.104,1.419c0.578,0.524,1.023,1.132,1.336,1.816
		c0.314,0.688,0.471,1.502,0.471,2.446c0,1.159-0.256,2.165-0.768,3.019c-0.51,0.854-1.191,1.563-2.047,2.127
		c-0.854,0.563-1.836,0.983-2.949,1.258c-1.111,0.273-2.277,0.411-3.498,0.411C521.045,214.287,518.957,213.822,517.189,212.893z"/>
	<path d="M549.338,213.51c-0.885,0.486-2.051,0.73-3.5,0.73c-4.1,0-6.148-2.286-6.148-6.858v-13.856h-4.025v-3.201h4.025v-5.717
		l3.75-1.212v6.929h5.898v3.201h-5.898v13.193c0,1.569,0.266,2.689,0.799,3.36s1.418,1.006,2.652,1.006
		c0.945,0,1.762-0.259,2.447-0.776V213.51L549.338,213.51z"/>
	<path d="M561.457,178.389l-5.992,7.499h-2.902l5.1-7.499H561.457z M558.096,213.738h-3.75v-23.414h3.75V213.738z"/>
	<path d="M576.547,213.51c-0.885,0.486-2.051,0.73-3.498,0.73c-4.102,0-6.15-2.286-6.15-6.858v-13.856h-4.023v-3.201h4.023v-5.717
		l3.75-1.212v6.929h5.898v3.201h-5.898v13.193c0,1.569,0.268,2.689,0.801,3.36s1.418,1.006,2.652,1.006
		c0.943,0,1.76-0.259,2.445-0.776V213.51L576.547,213.51z"/>
	<path d="M600.488,213.738h-3.75v-3.704h-0.092c-1.557,2.835-3.965,4.253-7.227,4.253c-5.58,0-8.367-3.322-8.367-9.97v-13.993h3.727
		v13.399c0,4.938,1.891,7.408,5.67,7.408c1.83,0,3.334-0.676,4.516-2.023c1.184-1.35,1.773-3.113,1.773-5.294v-13.49h3.75V213.738z"
		/>
	<path d="M611.807,213.738h-3.75v-34.664h3.75V213.738z"/>
	<path d="M629.184,214.287c-3.461,0-6.225-1.094-8.289-3.28c-2.064-2.188-3.098-5.089-3.098-8.7c0-3.934,1.074-7.005,3.225-9.215
		c2.148-2.21,5.053-3.315,8.711-3.315c3.49,0,6.217,1.074,8.176,3.224c1.957,2.149,2.938,5.131,2.938,8.94
		c0,3.735-1.057,6.727-3.166,8.975C635.566,213.163,632.736,214.287,629.184,214.287z M629.457,192.931
		c-2.408,0-4.313,0.818-5.717,2.458c-1.402,1.639-2.104,3.897-2.104,6.778c0,2.775,0.709,4.963,2.127,6.563s3.314,2.401,5.693,2.401
		c2.424,0,4.287-0.785,5.59-2.355c1.305-1.569,1.955-3.803,1.955-6.699c0-2.927-0.65-5.183-1.955-6.769
		C633.746,193.724,631.881,192.931,629.457,192.931z"/>
</g>
<g>
	<path d="M223.131,236.856l-8.994,24.288h-3.133l-8.808-24.288h3.167l6.724,19.258c0.214,0.621,0.378,1.338,0.491,2.151h0.068
		c0.09-0.678,0.276-1.406,0.559-2.187l6.86-19.224L223.131,236.856L223.131,236.856z"/>
	<path d="M227.67,239.396c-0.497,0-0.92-0.169-1.271-0.508c-0.351-0.339-0.525-0.769-0.525-1.287c0-0.52,0.175-0.951,0.525-1.296
		c0.35-0.344,0.773-0.518,1.271-0.518c0.508,0,0.94,0.174,1.296,0.518c0.355,0.345,0.533,0.775,0.533,1.296
		c0,0.497-0.178,0.92-0.533,1.271C228.61,239.222,228.179,239.396,227.67,239.396z M229.025,261.145h-2.778v-17.344h2.778V261.145z"
		/>
	<path d="M246.471,260.349c-1.333,0.802-2.913,1.202-4.742,1.202c-2.473,0-4.469-0.806-5.987-2.413
		c-1.519-1.609-2.278-3.695-2.278-6.259c0-2.856,0.818-5.151,2.456-6.886c1.637-1.732,3.822-2.6,6.555-2.6
		c1.524,0,2.868,0.282,4.031,0.847v2.846c-1.288-0.902-2.665-1.354-4.133-1.354c-1.773,0-3.227,0.635-4.361,1.905
		c-1.134,1.27-1.702,2.938-1.702,5.005c0,2.033,0.533,3.637,1.601,4.811c1.067,1.175,2.498,1.763,4.293,1.763
		c1.513,0,2.936-0.504,4.268-1.509L246.471,260.349L246.471,260.349z"/>
	<path d="M264.611,253.167h-12.246c0.045,1.932,0.564,3.422,1.558,4.473c0.994,1.05,2.36,1.575,4.099,1.575
		c1.953,0,3.749-0.645,5.386-1.932v2.608c-1.524,1.105-3.54,1.659-6.046,1.659c-2.45,0-4.376-0.787-5.776-2.362
		c-1.4-1.575-2.1-3.791-2.1-6.648c0-2.697,0.765-4.896,2.295-6.597s3.43-2.549,5.7-2.549c2.27,0,4.025,0.733,5.268,2.201
		c1.242,1.469,1.863,3.506,1.863,6.113L264.611,253.167L264.611,253.167z M261.766,250.813c-0.012-1.604-0.398-2.852-1.16-3.743
		c-0.762-0.892-1.821-1.338-3.176-1.338c-1.31,0-2.422,0.469-3.337,1.406c-0.915,0.937-1.479,2.162-1.694,3.675H261.766
		L261.766,250.813z"/>
	<path d="M277.855,246.612c-0.485-0.373-1.186-0.559-2.1-0.559c-1.186,0-2.176,0.559-2.973,1.677
		c-0.796,1.117-1.194,2.642-1.194,4.572v8.842h-2.778v-17.344h2.778v3.572h0.068c0.395-1.219,0.999-2.17,1.812-2.854
		s1.722-1.024,2.727-1.024c0.723,0,1.276,0.079,1.66,0.236V246.612z"/>
	<path d="M289.915,246.612c-0.485-0.373-1.186-0.559-2.1-0.559c-1.186,0-2.176,0.559-2.973,1.677
		c-0.796,1.117-1.194,2.642-1.194,4.572v8.842h-2.778v-17.344h2.778v3.572h0.068c0.395-1.219,0.999-2.17,1.812-2.854
		s1.722-1.024,2.727-1.024c0.723,0,1.276,0.079,1.66,0.236V246.612z"/>
	<path d="M306.87,253.167h-12.246c0.045,1.932,0.564,3.422,1.558,4.473c0.994,1.05,2.36,1.575,4.099,1.575
		c1.953,0,3.749-0.645,5.386-1.932v2.608c-1.524,1.105-3.54,1.659-6.046,1.659c-2.45,0-4.376-0.787-5.776-2.362
		s-2.1-3.791-2.1-6.648c0-2.697,0.765-4.896,2.295-6.597c1.53-1.7,3.43-2.549,5.7-2.549s4.025,0.733,5.268,2.201
		c1.242,1.469,1.863,3.506,1.863,6.113L306.87,253.167L306.87,253.167z M304.024,250.813c-0.012-1.604-0.398-2.852-1.16-3.743
		c-0.762-0.892-1.821-1.338-3.176-1.338c-1.31,0-2.422,0.469-3.337,1.406c-0.915,0.937-1.479,2.162-1.694,3.675H304.024
		L304.024,250.813z"/>
	<path d="M322.893,260.349c-1.333,0.802-2.913,1.202-4.742,1.202c-2.473,0-4.469-0.806-5.987-2.413
		c-1.519-1.609-2.278-3.695-2.278-6.259c0-2.856,0.818-5.151,2.456-6.886c1.637-1.732,3.822-2.6,6.555-2.6
		c1.524,0,2.868,0.282,4.031,0.847v2.846c-1.288-0.902-2.665-1.354-4.133-1.354c-1.773,0-3.227,0.635-4.361,1.905
		c-1.134,1.27-1.702,2.938-1.702,5.005c0,2.033,0.533,3.637,1.601,4.811c1.067,1.175,2.498,1.763,4.293,1.763
		c1.513,0,2.936-0.504,4.268-1.509L322.893,260.349L322.893,260.349z"/>
	<path d="M335.138,260.976c-0.655,0.36-1.519,0.542-2.591,0.542c-3.038,0-4.556-1.694-4.556-5.082v-10.264h-2.981v-2.371h2.981
		v-4.234l2.777-0.896v5.132h4.37v2.371h-4.37v9.771c0,1.163,0.198,1.993,0.593,2.49s1.05,0.745,1.964,0.745
		c0.7,0,1.304-0.191,1.813-0.576V260.976L335.138,260.976z"/>
	<path d="M346.097,261.551c-2.563,0-4.61-0.811-6.14-2.432c-1.53-1.62-2.295-3.769-2.295-6.443c0-2.913,0.796-5.188,2.388-6.826
		c1.592-1.637,3.743-2.455,6.453-2.455c2.585,0,4.604,0.796,6.055,2.388c1.451,1.592,2.176,3.8,2.176,6.623
		c0,2.768-0.782,4.982-2.346,6.647C350.825,260.719,348.728,261.551,346.097,261.551z M346.3,245.731
		c-1.784,0-3.196,0.607-4.234,1.821c-1.039,1.214-1.558,2.888-1.558,5.021c0,2.057,0.525,3.676,1.575,4.861
		c1.05,1.186,2.456,1.778,4.217,1.778c1.795,0,3.176-0.582,4.141-1.745c0.965-1.162,1.448-2.816,1.448-4.962
		c0-2.168-0.483-3.841-1.448-5.015C349.476,246.318,348.096,245.731,346.3,245.731z"/>
	<path d="M368.217,246.612c-0.485-0.373-1.186-0.559-2.1-0.559c-1.186,0-2.176,0.559-2.973,1.677
		c-0.796,1.117-1.194,2.642-1.194,4.572v8.842h-2.778v-17.344h2.778v3.572h0.068c0.395-1.219,0.999-2.17,1.812-2.854
		s1.722-1.024,2.727-1.024c0.723,0,1.276,0.079,1.66,0.236V246.612z"/>
	<path d="M376.5,234.959l-4.438,5.557h-2.151l3.777-5.557H376.5z M374.01,261.145h-2.778v-17.344h2.778V261.145z"/>
	<path d="M392.048,261.145h-2.777v-2.71h-0.068c-1.208,2.078-2.987,3.116-5.335,3.116c-1.728,0-3.08-0.457-4.057-1.372
		c-0.977-0.914-1.465-2.128-1.465-3.643c0-3.239,1.908-5.126,5.725-5.655l5.2-0.729c0-2.947-1.192-4.421-3.574-4.421
		c-2.089,0-3.975,0.711-5.657,2.134v-2.845c1.705-1.084,3.669-1.626,5.894-1.626c4.076,0,6.114,2.156,6.114,6.47V261.145
		L392.048,261.145z M389.271,252.371l-4.184,0.576c-1.288,0.182-2.259,0.499-2.914,0.956c-0.655,0.458-0.982,1.27-0.982,2.431
		c0,0.849,0.302,1.539,0.906,2.075s1.409,0.806,2.414,0.806c1.377,0,2.515-0.483,3.413-1.448c0.897-0.966,1.347-2.188,1.347-3.667
		V252.371z"/>
	<path d="M421.586,261.145h-2.777v-2.947h-0.066c-1.287,2.236-3.275,3.354-5.963,3.354c-2.18,0-3.92-0.776-5.227-2.329
		c-1.303-1.552-1.955-3.666-1.955-6.343c0-2.868,0.723-5.166,2.168-6.895c1.445-1.728,3.369-2.591,5.775-2.591
		c2.383,0,4.115,0.937,5.199,2.812h0.066v-10.737h2.779V261.145L421.586,261.145z M418.809,253.303v-2.559
		c0-1.399-0.463-2.586-1.389-3.557c-0.926-0.972-2.102-1.457-3.521-1.457c-1.695,0-3.027,0.621-3.998,1.863
		c-0.973,1.242-1.457,2.958-1.457,5.147c0,1.999,0.467,3.577,1.396,4.734c0.932,1.157,2.184,1.736,3.752,1.736
		c1.547,0,2.805-0.561,3.77-1.678C418.326,256.418,418.809,255.008,418.809,253.303z"/>
	<path d="M441.15,253.167h-12.246c0.045,1.932,0.564,3.422,1.559,4.473c0.992,1.05,2.359,1.575,4.1,1.575
		c1.953,0,3.748-0.645,5.387-1.932v2.608c-1.525,1.105-3.541,1.659-6.047,1.659c-2.451,0-4.377-0.787-5.775-2.362
		c-1.4-1.575-2.102-3.791-2.102-6.648c0-2.697,0.766-4.896,2.295-6.597c1.531-1.7,3.43-2.549,5.699-2.549s4.025,0.733,5.268,2.201
		c1.242,1.469,1.863,3.506,1.863,6.113V253.167L441.15,253.167z M438.305,250.813c-0.012-1.604-0.398-2.852-1.16-3.743
		c-0.764-0.892-1.82-1.338-3.178-1.338c-1.309,0-2.422,0.469-3.336,1.406c-0.914,0.937-1.479,2.162-1.693,3.675H438.305
		L438.305,250.813z"/>
	<path d="M474.025,261.145h-3.15l-2.574-6.809h-10.299l-2.422,6.809h-3.166l9.314-24.288h2.947L474.025,261.145z M467.369,251.778
		l-3.811-10.349c-0.125-0.339-0.25-0.881-0.373-1.626h-0.068c-0.113,0.688-0.242,1.229-0.389,1.626l-3.777,10.349H467.369z"/>
	<path d="M476.176,260.518v-2.98c1.514,1.117,3.178,1.678,4.996,1.678c2.439,0,3.658-0.813,3.658-2.439
		c0-0.463-0.104-0.854-0.313-1.177s-0.49-0.607-0.848-0.855c-0.355-0.248-0.773-0.472-1.254-0.669
		c-0.479-0.197-0.996-0.402-1.549-0.618c-0.768-0.305-1.441-0.611-2.023-0.923c-0.582-0.311-1.066-0.661-1.457-1.051
		s-0.684-0.832-0.881-1.329s-0.297-1.078-0.297-1.745c0-0.813,0.188-1.532,0.561-2.159c0.371-0.627,0.869-1.15,1.49-1.574
		c0.619-0.425,1.328-0.742,2.125-0.957c0.797-0.214,1.617-0.321,2.465-0.321c1.502,0,2.846,0.26,4.029,0.778v2.812
		c-1.275-0.835-2.742-1.253-4.402-1.253c-0.52,0-0.988,0.06-1.406,0.178c-0.418,0.119-0.775,0.285-1.074,0.5
		c-0.301,0.215-0.531,0.473-0.693,0.771c-0.164,0.299-0.246,0.63-0.246,0.991c0,0.45,0.082,0.828,0.246,1.135
		c0.162,0.305,0.402,0.575,0.719,0.813c0.314,0.237,0.701,0.452,1.15,0.645c0.453,0.191,0.967,0.4,1.543,0.627
		c0.768,0.294,1.455,0.596,2.064,0.906c0.611,0.311,1.131,0.659,1.559,1.05c0.43,0.39,0.762,0.839,0.992,1.347
		s0.348,1.112,0.348,1.813c0,0.857-0.189,1.604-0.568,2.234c-0.377,0.633-0.883,1.158-1.516,1.575
		c-0.633,0.418-1.359,0.729-2.186,0.932c-0.824,0.203-1.688,0.306-2.592,0.306C479.033,261.551,477.486,261.206,476.176,260.518z"/>
	<path d="M505.969,261.145h-2.777V258.4h-0.068c-1.15,2.102-2.936,3.15-5.352,3.15c-4.133,0-6.199-2.461-6.199-7.386v-10.364h2.762
		v9.925c0,3.659,1.398,5.488,4.199,5.488c1.355,0,2.471-0.5,3.346-1.499s1.313-2.308,1.313-3.922v-9.992h2.779v17.344H505.969z"/>
	<path d="M525.973,261.145h-2.777v-9.893c0-3.681-1.344-5.521-4.031-5.521c-1.389,0-2.539,0.522-3.445,1.566
		c-0.91,1.045-1.365,2.362-1.365,3.954v9.893h-2.777v-17.344h2.777v2.879h0.068c1.311-2.19,3.207-3.285,5.689-3.285
		c1.896,0,3.35,0.612,4.354,1.837c1.006,1.226,1.508,2.996,1.508,5.311V261.145L525.973,261.145z"/>
	<path d="M539.25,260.976c-0.654,0.36-1.52,0.542-2.592,0.542c-3.037,0-4.557-1.694-4.557-5.082v-10.264h-2.98v-2.371h2.98v-4.234
		l2.777-0.896v5.132h4.369v2.371h-4.369v9.771c0,1.163,0.197,1.993,0.594,2.49c0.395,0.497,1.051,0.745,1.965,0.745
		c0.699,0,1.305-0.191,1.813-0.576V260.976L539.25,260.976z"/>
	<path d="M550.209,261.551c-2.563,0-4.609-0.811-6.141-2.432c-1.529-1.62-2.295-3.769-2.295-6.443c0-2.913,0.797-5.188,2.389-6.826
		c1.592-1.637,3.744-2.455,6.453-2.455c2.586,0,4.605,0.796,6.055,2.388c1.451,1.592,2.178,3.8,2.178,6.623
		c0,2.768-0.781,4.982-2.346,6.647C554.938,260.719,552.84,261.551,550.209,261.551z M550.412,245.731
		c-1.783,0-3.193,0.607-4.232,1.821s-1.559,2.888-1.559,5.021c0,2.057,0.523,3.676,1.574,4.861s2.457,1.778,4.217,1.778
		c1.797,0,3.176-0.582,4.143-1.745c0.967-1.162,1.447-2.816,1.447-4.962c0-2.168-0.48-3.841-1.447-5.015
		C553.588,246.318,552.207,245.731,550.412,245.731z"/>
	<path d="M562.236,260.518v-2.98c1.512,1.117,3.178,1.678,4.996,1.678c2.438,0,3.658-0.813,3.658-2.439
		c0-0.463-0.105-0.854-0.313-1.177c-0.209-0.322-0.492-0.607-0.848-0.855s-0.773-0.472-1.254-0.669s-0.996-0.402-1.549-0.618
		c-0.77-0.305-1.443-0.611-2.025-0.923c-0.58-0.311-1.066-0.661-1.455-1.051c-0.391-0.39-0.684-0.832-0.881-1.329
		s-0.297-1.078-0.297-1.745c0-0.813,0.186-1.532,0.559-2.159s0.869-1.15,1.49-1.574c0.621-0.425,1.33-0.742,2.127-0.957
		c0.795-0.214,1.617-0.321,2.463-0.321c1.502,0,2.846,0.26,4.031,0.778v2.812c-1.275-0.835-2.744-1.253-4.402-1.253
		c-0.52,0-0.988,0.06-1.406,0.178c-0.418,0.119-0.775,0.285-1.074,0.5c-0.301,0.215-0.531,0.473-0.695,0.771
		s-0.246,0.63-0.246,0.991c0,0.45,0.082,0.828,0.246,1.135c0.164,0.305,0.404,0.575,0.721,0.813c0.314,0.237,0.699,0.452,1.15,0.645
		c0.453,0.191,0.967,0.4,1.543,0.627c0.768,0.294,1.455,0.596,2.064,0.906s1.131,0.659,1.559,1.05c0.43,0.39,0.76,0.839,0.992,1.347
		c0.23,0.508,0.346,1.112,0.346,1.813c0,0.857-0.188,1.604-0.566,2.234c-0.379,0.633-0.885,1.158-1.516,1.575
		c-0.633,0.418-1.361,0.729-2.186,0.932c-0.824,0.203-1.688,0.306-2.592,0.306C565.092,261.551,563.545,261.206,562.236,260.518z"/>
	<path d="M606.678,261.145h-3.15l-2.574-6.809h-10.297l-2.422,6.809h-3.168l9.314-24.288h2.947L606.678,261.145z M600.021,251.778
		l-3.811-10.349c-0.125-0.339-0.25-0.881-0.373-1.626h-0.066c-0.113,0.688-0.244,1.229-0.391,1.626l-3.777,10.349H600.021z"/>
	<path d="M621.703,260.349c-1.332,0.802-2.914,1.202-4.742,1.202c-2.473,0-4.469-0.806-5.986-2.413
		c-1.52-1.609-2.279-3.695-2.279-6.259c0-2.856,0.818-5.151,2.457-6.886c1.637-1.732,3.822-2.6,6.555-2.6
		c1.523,0,2.867,0.282,4.031,0.847v2.846c-1.287-0.902-2.666-1.354-4.133-1.354c-1.773,0-3.229,0.635-4.361,1.905
		c-1.135,1.27-1.703,2.938-1.703,5.005c0,2.033,0.533,3.637,1.602,4.811c1.066,1.175,2.498,1.763,4.293,1.763
		c1.514,0,2.938-0.504,4.27-1.509v2.643H621.703z"/>
	<path d="M638.318,261.145h-2.777v-2.71h-0.068c-1.207,2.078-2.986,3.116-5.334,3.116c-1.729,0-3.08-0.457-4.059-1.372
		c-0.977-0.914-1.465-2.128-1.465-3.643c0-3.239,1.908-5.126,5.725-5.655l5.201-0.729c0-2.947-1.191-4.421-3.574-4.421
		c-2.09,0-3.975,0.711-5.656,2.134v-2.845c1.705-1.084,3.67-1.626,5.895-1.626c4.076,0,6.113,2.156,6.113,6.47V261.145
		L638.318,261.145z M635.541,252.371l-4.184,0.576c-1.287,0.182-2.26,0.499-2.914,0.956c-0.654,0.458-0.982,1.27-0.982,2.431
		c0,0.849,0.303,1.539,0.906,2.075c0.605,0.536,1.408,0.806,2.414,0.806c1.377,0,2.516-0.483,3.412-1.448
		c0.896-0.966,1.348-2.188,1.348-3.667V252.371z"/>
	<path d="M658.355,261.145h-2.779v-2.947h-0.066c-1.287,2.236-3.273,3.354-5.963,3.354c-2.18,0-3.92-0.776-5.225-2.329
		c-1.305-1.552-1.957-3.666-1.957-6.343c0-2.868,0.723-5.166,2.168-6.895c1.445-1.728,3.371-2.591,5.775-2.591
		c2.383,0,4.117,0.937,5.201,2.812h0.066v-10.737h2.777v25.676H658.355z M655.576,253.303v-2.559c0-1.399-0.463-2.586-1.389-3.557
		c-0.926-0.972-2.102-1.457-3.521-1.457c-1.693,0-3.025,0.621-3.998,1.863c-0.971,1.242-1.457,2.958-1.457,5.147
		c0,1.999,0.467,3.577,1.398,4.734c0.93,1.157,2.182,1.736,3.75,1.736c1.547,0,2.805-0.561,3.77-1.678
		C655.094,256.418,655.576,255.008,655.576,253.303z"/>
	<path d="M677.916,253.167H665.67c0.047,1.932,0.566,3.422,1.561,4.473c0.992,1.05,2.359,1.575,4.098,1.575
		c1.955,0,3.75-0.645,5.389-1.932v2.608c-1.525,1.105-3.541,1.659-6.049,1.659c-2.449,0-4.375-0.787-5.773-2.362
		c-1.4-1.575-2.102-3.791-2.102-6.648c0-2.697,0.766-4.896,2.295-6.597s3.43-2.549,5.699-2.549s4.025,0.733,5.268,2.201
		c1.242,1.469,1.863,3.506,1.863,6.113v1.458H677.916z M675.072,250.813c-0.012-1.604-0.396-2.852-1.16-3.743
		c-0.762-0.892-1.82-1.338-3.176-1.338c-1.311,0-2.422,0.469-3.336,1.406c-0.916,0.937-1.48,2.162-1.695,3.675H675.072
		L675.072,250.813z M674.631,234.959l-4.438,5.557h-2.15l3.775-5.557H674.631z"/>
	<path d="M706.746,261.145h-2.777v-9.959c0-1.92-0.297-3.31-0.891-4.167c-0.592-0.857-1.588-1.287-2.988-1.287
		c-1.186,0-2.193,0.542-3.023,1.626s-1.244,2.383-1.244,3.896v9.892h-2.777v-10.298c0-3.41-1.314-5.115-3.945-5.115
		c-1.221,0-2.227,0.511-3.016,1.533c-0.791,1.021-1.188,2.352-1.188,3.988v9.892h-2.777v-17.344h2.777v2.744h0.068
		c1.23-2.102,3.025-3.15,5.387-3.15c1.186,0,2.219,0.33,3.1,0.99c0.881,0.661,1.484,1.526,1.813,2.6
		c1.287-2.394,3.207-3.59,5.76-3.59c3.814,0,5.725,2.354,5.725,7.063v10.687H706.746z"/>
	<path d="M713.418,239.396c-0.498,0-0.922-0.169-1.271-0.508s-0.523-0.769-0.523-1.287c0-0.52,0.174-0.951,0.523-1.296
		c0.35-0.344,0.773-0.518,1.271-0.518c0.508,0,0.939,0.174,1.295,0.518c0.355,0.345,0.533,0.775,0.533,1.296
		c0,0.497-0.178,0.92-0.533,1.271C714.359,239.222,713.926,239.396,713.418,239.396z M714.773,261.145h-2.777v-17.344h2.777V261.145
		z"/>
	<path d="M732.219,260.349c-1.332,0.802-2.912,1.202-4.742,1.202c-2.473,0-4.469-0.806-5.986-2.413
		c-1.52-1.609-2.279-3.695-2.279-6.259c0-2.856,0.818-5.151,2.457-6.886c1.637-1.732,3.822-2.6,6.555-2.6
		c1.523,0,2.867,0.282,4.031,0.847v2.846c-1.287-0.902-2.666-1.354-4.133-1.354c-1.773,0-3.227,0.635-4.361,1.905
		c-1.135,1.27-1.701,2.938-1.701,5.005c0,2.033,0.531,3.637,1.6,4.811c1.066,1.175,2.498,1.763,4.293,1.763
		c1.514,0,2.938-0.504,4.27-1.509v2.643H732.219z"/>
	<path d="M743.668,261.551c-2.563,0-4.609-0.811-6.141-2.432c-1.529-1.62-2.295-3.769-2.295-6.443c0-2.913,0.797-5.188,2.389-6.826
		c1.592-1.637,3.744-2.455,6.453-2.455c2.586,0,4.605,0.796,6.055,2.388c1.451,1.592,2.178,3.8,2.178,6.623
		c0,2.768-0.781,4.982-2.346,6.647C748.396,260.719,746.299,261.551,743.668,261.551z M743.871,245.731
		c-1.783,0-3.193,0.607-4.232,1.821s-1.559,2.888-1.559,5.021c0,2.057,0.523,3.676,1.574,4.861s2.457,1.778,4.217,1.778
		c1.797,0,3.176-0.582,4.143-1.745c0.967-1.162,1.447-2.816,1.447-4.962c0-2.168-0.48-3.841-1.447-5.015
		C747.047,246.318,745.666,245.731,743.871,245.731z"/>
	<path d="M755.695,260.518v-2.98c1.512,1.117,3.178,1.678,4.996,1.678c2.438,0,3.658-0.813,3.658-2.439
		c0-0.463-0.105-0.854-0.313-1.177c-0.209-0.322-0.492-0.607-0.848-0.855s-0.773-0.472-1.254-0.669s-0.996-0.402-1.549-0.618
		c-0.77-0.305-1.443-0.611-2.025-0.923c-0.58-0.311-1.066-0.661-1.455-1.051c-0.391-0.39-0.684-0.832-0.881-1.329
		s-0.297-1.078-0.297-1.745c0-0.813,0.186-1.532,0.559-2.159s0.869-1.15,1.49-1.574c0.621-0.425,1.33-0.742,2.127-0.957
		c0.795-0.214,1.617-0.321,2.463-0.321c1.502,0,2.846,0.26,4.031,0.778v2.812c-1.275-0.835-2.744-1.253-4.402-1.253
		c-0.52,0-0.988,0.06-1.406,0.178c-0.418,0.119-0.775,0.285-1.074,0.5c-0.301,0.215-0.531,0.473-0.695,0.771
		s-0.246,0.63-0.246,0.991c0,0.45,0.082,0.828,0.246,1.135c0.164,0.305,0.404,0.575,0.721,0.813c0.314,0.237,0.699,0.452,1.15,0.645
		c0.453,0.191,0.967,0.4,1.543,0.627c0.768,0.294,1.455,0.596,2.064,0.906s1.131,0.659,1.559,1.05c0.43,0.39,0.76,0.839,0.992,1.347
		c0.23,0.508,0.346,1.112,0.346,1.813c0,0.857-0.188,1.604-0.566,2.234c-0.379,0.633-0.885,1.158-1.516,1.575
		c-0.633,0.418-1.361,0.729-2.186,0.932c-0.824,0.203-1.688,0.306-2.592,0.306C758.551,261.551,757.004,261.206,755.695,260.518z"/>
	<path d="M222.843,289.478c0,6.819-3.077,10.229-9.231,10.229c-5.894,0-8.841-3.279-8.841-9.841v-14.854h2.845v14.668
		c0,4.979,2.101,7.469,6.301,7.469c4.054,0,6.081-2.405,6.081-7.215v-14.922h2.846L222.843,289.478L222.843,289.478z"/>
	<path d="M242.931,299.301h-2.778v-9.893c0-3.681-1.344-5.521-4.031-5.521c-1.389,0-2.538,0.521-3.447,1.565
		c-0.909,1.045-1.363,2.363-1.363,3.955v9.893h-2.778v-17.345h2.778v2.88h0.068c1.31-2.19,3.207-3.285,5.691-3.285
		c1.897,0,3.348,0.611,4.353,1.837s1.507,2.996,1.507,5.311V299.301L242.931,299.301z"/>
	<path d="M249.587,277.553c-0.497,0-0.92-0.169-1.271-0.508c-0.351-0.34-0.525-0.769-0.525-1.287c0-0.52,0.175-0.951,0.525-1.296
		c0.35-0.345,0.773-0.518,1.271-0.518c0.508,0,0.94,0.173,1.296,0.518c0.355,0.345,0.533,0.775,0.533,1.296
		c0,0.497-0.178,0.92-0.533,1.271C250.527,277.377,250.096,277.553,249.587,277.553z M250.942,299.301h-2.778v-17.345h2.778V299.301
		z"/>
	<path d="M270.2,281.957l-6.911,17.345h-2.727l-6.572-17.345h3.048l4.404,12.603c0.328,0.926,0.531,1.732,0.61,2.422h0.068
		c0.113-0.869,0.293-1.654,0.542-2.354l4.607-12.669L270.2,281.957L270.2,281.957z"/>
	<path d="M287.121,291.323h-12.246c0.045,1.932,0.564,3.421,1.558,4.472c0.994,1.051,2.36,1.575,4.099,1.575
		c1.953,0,3.749-0.644,5.386-1.931v2.607c-1.524,1.106-3.54,1.659-6.046,1.659c-2.45,0-4.376-0.787-5.776-2.361
		c-1.4-1.575-2.1-3.791-2.1-6.648c0-2.698,0.765-4.896,2.295-6.597c1.53-1.7,3.43-2.549,5.7-2.549s4.025,0.732,5.268,2.2
		c1.242,1.47,1.863,3.507,1.863,6.114L287.121,291.323L287.121,291.323z M284.275,288.969c-0.012-1.604-0.398-2.852-1.16-3.743
		c-0.762-0.893-1.821-1.338-3.176-1.338c-1.31,0-2.422,0.469-3.337,1.405c-0.915,0.938-1.479,2.162-1.694,3.676H284.275z"/>
	<path d="M300.366,284.769c-0.485-0.373-1.186-0.56-2.1-0.56c-1.186,0-2.176,0.56-2.973,1.678c-0.796,1.117-1.194,2.642-1.194,4.571
		v8.843h-2.778v-17.345h2.778v3.573h0.068c0.395-1.219,0.999-2.17,1.813-2.854c0.813-0.685,1.722-1.024,2.727-1.024
		c0.723,0,1.276,0.079,1.66,0.236V284.769z"/>
	<path d="M302.331,298.674v-2.98c1.513,1.117,3.178,1.677,4.996,1.677c2.439,0,3.659-0.813,3.659-2.438
		c0-0.463-0.104-0.855-0.313-1.177c-0.209-0.322-0.491-0.607-0.847-0.855s-0.773-0.472-1.253-0.669s-0.997-0.403-1.55-0.618
		c-0.768-0.305-1.442-0.612-2.024-0.923c-0.582-0.311-1.067-0.661-1.457-1.051c-0.39-0.391-0.684-0.832-0.881-1.329
		c-0.198-0.497-0.296-1.078-0.296-1.745c0-0.813,0.186-1.532,0.559-2.159s0.869-1.15,1.49-1.575c0.621-0.424,1.33-0.741,2.125-0.957
		c0.796-0.214,1.618-0.32,2.465-0.32c1.501,0,2.845,0.26,4.031,0.777v2.813c-1.276-0.835-2.744-1.253-4.404-1.253
		c-0.52,0-0.988,0.06-1.406,0.178c-0.417,0.119-0.776,0.285-1.075,0.5c-0.299,0.215-0.531,0.472-0.695,0.771
		c-0.164,0.299-0.246,0.63-0.246,0.991c0,0.45,0.082,0.828,0.246,1.135c0.164,0.305,0.404,0.575,0.72,0.813s0.7,0.452,1.151,0.645
		c0.452,0.191,0.966,0.4,1.542,0.627c0.768,0.294,1.457,0.596,2.066,0.906c0.609,0.31,1.129,0.659,1.558,1.05
		c0.429,0.39,0.759,0.839,0.991,1.347s0.348,1.112,0.348,1.813c0,0.858-0.189,1.604-0.567,2.235
		c-0.379,0.633-0.884,1.158-1.516,1.575c-0.632,0.418-1.361,0.729-2.185,0.932c-0.824,0.203-1.688,0.306-2.591,0.306
		C305.187,299.707,303.64,299.362,302.331,298.674z"/>
	<path d="M319.522,277.553c-0.497,0-0.92-0.169-1.271-0.508c-0.351-0.34-0.525-0.769-0.525-1.287c0-0.52,0.175-0.951,0.525-1.296
		c0.35-0.345,0.773-0.518,1.271-0.518c0.508,0,0.94,0.173,1.296,0.518c0.355,0.345,0.533,0.775,0.533,1.296
		c0,0.497-0.178,0.92-0.533,1.271C320.462,277.377,320.03,277.553,319.522,277.553z M320.877,299.301h-2.778v-17.345h2.778V299.301z
		"/>
	<path d="M341.303,299.301h-2.777v-2.947h-0.068c-1.287,2.236-3.275,3.354-5.962,3.354c-2.18,0-3.921-0.775-5.226-2.328
		c-1.304-1.553-1.956-3.666-1.956-6.344c0-2.867,0.723-5.166,2.168-6.894c1.445-1.729,3.371-2.591,5.776-2.591
		c2.382,0,4.116,0.937,5.2,2.812h0.068v-10.738h2.777V299.301z M338.526,291.459v-2.558c0-1.399-0.463-2.586-1.389-3.557
		c-0.926-0.973-2.1-1.457-3.523-1.457c-1.694,0-3.026,0.621-3.997,1.862c-0.971,1.242-1.457,2.959-1.457,5.148
		c0,1.999,0.466,3.577,1.397,4.734c0.932,1.156,2.182,1.735,3.752,1.735c1.547,0,2.803-0.56,3.769-1.677
		C338.043,294.575,338.526,293.164,338.526,291.459z"/>
	<path d="M359.342,299.301h-2.777v-2.71h-0.068c-1.208,2.077-2.987,3.115-5.335,3.115c-1.728,0-3.08-0.456-4.057-1.372
		c-0.977-0.913-1.465-2.128-1.465-3.642c0-3.24,1.908-5.126,5.725-5.656l5.2-0.729c0-2.947-1.192-4.421-3.574-4.421
		c-2.089,0-3.975,0.711-5.657,2.134v-2.845c1.705-1.084,3.669-1.626,5.894-1.626c4.076,0,6.114,2.155,6.114,6.47V299.301
		L359.342,299.301z M356.564,290.527l-4.184,0.576c-1.288,0.181-2.259,0.499-2.914,0.956c-0.655,0.458-0.982,1.269-0.982,2.431
		c0,0.849,0.302,1.539,0.906,2.075s1.409,0.805,2.414,0.805c1.377,0,2.515-0.482,3.413-1.447c0.897-0.967,1.347-2.188,1.347-3.667
		V290.527z"/>
	<path d="M379.379,299.301h-2.777v-2.947h-0.068c-1.287,2.236-3.275,3.354-5.962,3.354c-2.18,0-3.921-0.775-5.226-2.328
		c-1.304-1.553-1.956-3.666-1.956-6.344c0-2.867,0.723-5.166,2.168-6.894c1.445-1.729,3.371-2.591,5.776-2.591
		c2.382,0,4.116,0.937,5.2,2.812h0.068v-10.738h2.777V299.301z M376.602,291.459v-2.558c0-1.399-0.463-2.586-1.389-3.557
		c-0.926-0.973-2.1-1.457-3.523-1.457c-1.694,0-3.026,0.621-3.997,1.862c-0.971,1.242-1.457,2.959-1.457,5.148
		c0,1.999,0.466,3.577,1.397,4.734c0.932,1.156,2.182,1.735,3.752,1.735c1.547,0,2.803-0.56,3.769-1.677
		C376.119,294.575,376.602,293.164,376.602,291.459z"/>
	<path d="M409.307,299.301h-2.777v-2.947h-0.068c-1.287,2.236-3.271,3.354-5.961,3.354c-2.18,0-3.922-0.775-5.225-2.328
		c-1.304-1.553-1.956-3.666-1.956-6.344c0-2.867,0.723-5.166,2.168-6.894c1.445-1.729,3.369-2.591,5.775-2.591
		c2.383,0,4.115,0.937,5.199,2.812h0.068v-10.738h2.775v25.677H409.307z M406.529,291.459v-2.558c0-1.399-0.463-2.586-1.389-3.557
		c-0.926-0.973-2.102-1.457-3.523-1.457c-1.693,0-3.025,0.621-3.998,1.862c-0.971,1.242-1.455,2.959-1.455,5.148
		c0,1.999,0.464,3.577,1.396,4.734c0.932,1.156,2.182,1.735,3.752,1.735c1.547,0,2.803-0.56,3.768-1.677
		C406.047,294.575,406.529,293.164,406.529,291.459z"/>
	<path d="M428.869,291.323h-12.246c0.047,1.932,0.566,3.421,1.559,4.472c0.994,1.051,2.361,1.575,4.1,1.575
		c1.955,0,3.75-0.644,5.387-1.931v2.607c-1.523,1.106-3.539,1.659-6.047,1.659c-2.449,0-4.375-0.787-5.775-2.361
		c-1.398-1.575-2.1-3.791-2.1-6.648c0-2.698,0.764-4.896,2.295-6.597c1.529-1.7,3.43-2.549,5.699-2.549
		c2.268,0,4.025,0.732,5.268,2.2c1.242,1.47,1.863,3.507,1.863,6.114v1.458H428.869z M426.023,288.969
		c-0.01-1.604-0.396-2.852-1.16-3.743c-0.762-0.893-1.82-1.338-3.176-1.338c-1.311,0-2.422,0.469-3.336,1.405
		c-0.916,0.938-1.479,2.162-1.693,3.676H426.023z"/>
	<path d="M459.475,298.284c-1.795,0.949-4.031,1.423-6.707,1.423c-3.455,0-6.223-1.11-8.299-3.336
		c-2.078-2.225-3.117-5.144-3.117-8.757c0-3.885,1.17-7.022,3.508-9.418c2.336-2.394,5.301-3.59,8.891-3.59
		c2.305,0,4.213,0.333,5.727,0.999v3.031c-1.738-0.972-3.658-1.456-5.76-1.456c-2.789,0-5.051,0.932-6.783,2.795
		c-1.732,1.862-2.6,4.353-2.6,7.469c0,2.959,0.811,5.316,2.432,7.071c1.619,1.756,3.744,2.634,6.377,2.634
		c2.438,0,4.549-0.542,6.334-1.626v2.761H459.475z"/>
	<path d="M478.445,299.301h-2.777v-9.993c0-3.613-1.344-5.42-4.029-5.42c-1.355,0-2.496,0.521-3.422,1.565
		c-0.928,1.045-1.391,2.387-1.391,4.023v9.823h-2.777v-25.676h2.777v11.212h0.068c1.332-2.189,3.229-3.284,5.689-3.284
		c3.908,0,5.861,2.354,5.861,7.063V299.301L478.445,299.301z"/>
	<path d="M485.102,277.553c-0.496,0-0.92-0.169-1.271-0.508c-0.35-0.34-0.523-0.769-0.523-1.287c0-0.52,0.176-0.951,0.523-1.296
		c0.352-0.345,0.773-0.518,1.271-0.518c0.508,0,0.939,0.173,1.297,0.518c0.354,0.345,0.533,0.775,0.533,1.296
		c0,0.497-0.18,0.92-0.533,1.271C486.041,277.377,485.609,277.553,485.102,277.553z M486.457,299.301h-2.777v-17.345h2.777V299.301z
		"/>
	<path d="M494.857,299.301h-2.777v-25.677h2.777V299.301z"/>
	<path d="M514.42,291.323h-12.246c0.047,1.932,0.564,3.421,1.559,4.472s2.359,1.575,4.1,1.575c1.953,0,3.748-0.644,5.387-1.931
		v2.607c-1.523,1.106-3.539,1.659-6.047,1.659c-2.449,0-4.377-0.787-5.775-2.361c-1.4-1.575-2.102-3.791-2.102-6.648
		c0-2.698,0.766-4.896,2.295-6.597c1.531-1.7,3.432-2.549,5.699-2.549c2.27,0,4.025,0.732,5.27,2.2
		c1.24,1.47,1.861,3.507,1.861,6.114V291.323L514.42,291.323z M511.574,288.969c-0.01-1.604-0.396-2.852-1.16-3.743
		c-0.762-0.893-1.818-1.338-3.176-1.338c-1.309,0-2.422,0.469-3.336,1.405c-0.914,0.938-1.479,2.162-1.693,3.676H511.574z"/>
</g>
</svg>
