<?xml version="1.0" encoding="utf-8"?>
<!-- Generator: Adobe Illustrator 16.0.0, SVG Export Plug-In . SVG Version: 6.00 Build 0)  -->
<!DOCTYPE svg PUBLIC "-//W3C//DTD SVG 1.1//EN" "http://www.w3.org/Graphics/SVG/1.1/DTD/svg11.dtd" [
	<!ENTITY ns_extend "http://ns.adobe.com/Extensibility/1.0/">
	<!ENTITY ns_ai "http://ns.adobe.com/AdobeIllustrator/10.0/">
	<!ENTITY ns_graphs "http://ns.adobe.com/Graphs/1.0/">
	<!ENTITY ns_vars "http://ns.adobe.com/Variables/1.0/">
	<!ENTITY ns_imrep "http://ns.adobe.com/ImageReplacement/1.0/">
	<!ENTITY ns_sfw "http://ns.adobe.com/SaveForWeb/1.0/">
	<!ENTITY ns_custom "http://ns.adobe.com/GenericCustomNamespace/1.0/">
	<!ENTITY ns_adobe_xpath "http://ns.adobe.com/XPath/1.0/">
]>
<svg version="1.1" id="Layer_1" xmlns:x="&ns_extend;" xmlns:i="&ns_ai;" xmlns:graph="&ns_graphs;"
	 xmlns="http://www.w3.org/2000/svg" xmlns:xlink="http://www.w3.org/1999/xlink" x="0px" y="0px" width="792px" height="300px"
	 viewBox="0 0 792 300" enable-background="new 0 0 792 300" xml:space="preserve">
<metadata>
	<sfw  xmlns="&ns_sfw;">
		<slices></slices>
		<sliceSourceBounds  width="734.39" height="237.33" x="-61.138" y="277.081" bottomLeftOrigin="true"></sliceSourceBounds>
	</sfw>
</metadata>
<g>
	<path fill="none" stroke="#73797D" stroke-width="1.9399" stroke-miterlimit="3.8635" d="M125.387,108.85v123.72
		c0,2.363-1.908,4.283-4.263,4.283H82.345c-2.593-0.063-4.467,4.27-4.467,4.27s-1.882-4.334-4.591-4.27
		c0.003-0.004-38.689,0-38.689,0c-2.354,0-4.263-1.92-4.263-4.283l-0.003-123.712L125.387,108.85L125.387,108.85z"/>
	<path fill="none" stroke="#73797D" stroke-width="0.9654" stroke-miterlimit="3.8637" d="M92.118,128.55l-3.777-6.022
		c-4.525,1.045-3.413-2.88-0.961-4.423c2.695-1.691,5.742-1.096,3.787,2.648c0,0,0.871,1.417,2.324,3.729
		C93.491,124.482,92.499,126.367,92.118,128.55L92.118,128.55z M108.83,148.744l10.293,16.347l-0.757,0.761l-3.608-2.86
		c0,0-0.22-2.392-0.793-2.884c-1.938-1.672-0.789-2.594-1.539-4.146c-0.749-1.547-5.147-2.741-6.17-5.067
		c0.019,0.113-1.694-2.717-1.694-2.717C108.486,147.482,108.83,148.744,108.83,148.744L108.83,148.744z M96.762,129.467
		c-0.017-0.035,3.659,6.018,3.644,5.939c-2.274-0.275-3.378-0.93-3.831-2.152C96.039,131.875,96.458,130.041,96.762,129.467
		L96.762,129.467z M41.747,187.02l8.036,20.291 M42.403,187.607l7.459,14.42 M42.949,187.828l6.784,10.18 M43.352,187.646
		l6.22,7.392 M43.275,186.959l9.006,8.512 M43.201,186.461l12.34,9.232 M43.008,186.037l18.118,10.639 M52.804,153.684l-0.275,6.271
		h3.654l-0.277-6.271H52.804L52.804,153.684z M55.838,151.959l-1.486-33.625l-1.52,33.625H55.838L55.838,151.959z M48.186,151.994
		H60.52v1.688H48.186V151.994L48.186,151.994z M58.242,159.964c0,2.521-1.742,4.265-3.891,4.265c-2.146,0-3.889-1.742-3.889-4.265
		H58.242L58.242,159.964z M48.692,136.691c0,3.221-2.661,5.832-5.942,5.832s-5.943-2.611-5.943-5.832H48.692L48.692,136.691z
		 M97.485,128.242c0,0,1.312,1.783,2.717,0.953c2.574-1.521-0.604-10.188-5.903-5.779c-1.165,0.974-2.723,5.479-2.421,8.365
		c0.303,2.893,1.586,6.545,4.842,7.301c1.966,0.457,5.882-0.637,7.508,2.041c1.209-0.453,2.531-5.229-0.847-5.387
		c-3.332-0.15-6.152-0.721-6.661-2.129C95.511,130.26,97.485,128.242,97.485,128.242L97.485,128.242z M100.486,141.797
		c-1.309,0.636-2.268,2.15-1.811,3.835c0.457,1.687,2.503,2.692,5.394,2.54c0.161-0.008,0.312-0.021,0.46-0.028
		c2.558-0.19,3.7-0.5,4.564,0.947c0.913-1.071,0.648-3.459-0.652-4.563C106.466,142.842,101.329,144.98,100.486,141.797
		L100.486,141.797z M106.204,150.925c-0.304,1.38-1.235,3.224-0.457,4.897c1.063,2.295,3.043,1.07,3.653,2.443
		c0.607,1.375,0.023,3.428,1.37,3.827c2.588,0.767,1.677,3.363,3.047,3.212c1.21-0.136,1.253-4.199,0-5.354
		c-1.828-1.686-0.611-2.908-1.522-4.285C111.378,154.291,108.029,153.68,106.204,150.925L106.204,150.925z"/>
	<path fill="none" stroke="#73797D" stroke-width="0.6207" stroke-miterlimit="3.8637" d="M79.567,159.484
		c0-0.096,0.076-0.17,0.172-0.17c0.096,0,0.171,0.074,0.171,0.17s-0.075,0.17-0.171,0.17
		C79.644,159.66,79.567,159.578,79.567,159.484L79.567,159.484z M98.833,125.211c0.247-0.088,0.539,0.094,0.652,0.406
		c0.113,0.314,0.005,0.646-0.237,0.734c-0.246,0.092-0.539-0.092-0.651-0.408C98.483,125.632,98.591,125.302,98.833,125.211
		L98.833,125.211z"/>
	<path fill="none" stroke="#73797D" stroke-width="0.9654" stroke-miterlimit="3.8637" d="M51.724,207.32
		c0-4.869,3.923-8.809,8.765-8.809c4.842,0,8.765,3.938,8.765,8.809c0,4.861-3.923,8.807-8.765,8.807
		C55.646,216.127,51.724,212.182,51.724,207.32L51.724,207.32z M69.557,228.965h-4.265v-8.234H39.068v-4.213h30.487L69.557,228.965
		L69.557,228.965z M42.86,208.283c0-0.988,0.8-1.795,1.791-1.795c0.987,0,1.786,0.807,1.786,1.795c0,0.994-0.799,1.799-1.786,1.799
		C43.661,210.082,42.86,209.279,42.86,208.283L42.86,208.283z M42.939,207.77l-3.063,8.707l4.731-6.395 M46.359,207.77l3.061,8.707
		l-4.731-6.395 M52.981,203.18c-0.442,2.4,4.035,2.371,3.654,3.674c-0.918,3.136,0.913,3.021,1.218,4.666
		c0,0-0.305,3.898,0.76,4.209c0.61-0.84,0.154-2.485,0.913-3.367c0.801-0.916,1.904-1.418,1.904-3.057
		c0-1.19-1.65-1.568-2.134-1.914c-0.531-0.383-1.522-0.688-2.206-0.688c0,0-1.751-3.365-1.218-3.979
		c0.607-0.533,1.523,0.764,1.901,0.764c0.8,0,0.95-1.604,2.207-1.604c0-0.386-0.077-1.571-0.305-1.688
		c-1.257,0-2.053,0.615-3.122-0.688C56.559,199.5,53.426,200.771,52.981,203.18L52.981,203.18z M63.224,198.854
		c-0.98-0.377-2.477-0.229-2.477-0.229c1.296,0.613,1.22,2.33,1.752,2.33c1.068,0,1.599-0.877,2.664-1.066
		C65.166,199.889,64.203,199.229,63.224,198.854L63.224,198.854z M69.168,205.58c0-2.201-2.939-4.93-2.939-4.93
		s-1.446,2.68-0.764,5.434c0.686,0.074,2.665-0.152,2.665-0.152c0.497,0.229,0.304,1.033,0.304,1.527
		c0,1.227-0.381,4.359-0.381,4.359S69.168,207.787,69.168,205.58L69.168,205.58z"/>
	<polygon fill="none" stroke="#73797D" stroke-width="0.6207" stroke-miterlimit="3.8637" points="41.479,182.275 40.584,184.207 
		38.521,184.455 40.032,185.882 39.625,187.943 41.45,186.938 43.318,187.959 42.951,185.861 44.42,184.455 42.356,184.166 	"/>
	
		<line fill="none" stroke="#73797D" stroke-width="1.9399" stroke-miterlimit="3.8635" x1="77.859" y1="188.416" x2="77.859" y2="240.777"/>
	
		<path fill="none" stroke="#73797D" stroke-width="0.9657" stroke-linecap="round" stroke-linejoin="round" stroke-miterlimit="3.8637" d="
		M85.419,213.887l-2.252,2.562c-0.301,0.352-0.142,2.717,0.01,3.396c1.778,0.713,26.972,8.637,26.972,8.637l10.248-11.168
		l-1.603-0.688c-0.453-0.729,0.998-3.188,0.998-3.188l-4.96-1.957 M110.163,223.525c-0.4,0.324-0.305,4.512,0.019,4.977
		c0.02,0,10.217-11.188,10.217-11.188l-1.059-0.965c-0.09-1.006,0.182-2.822,0.182-2.822L110.163,223.525L110.163,223.525z
		 M109.208,216.643c-0.42,0.189-0.67,5.676-0.1,5.713c0.002-0.006,8.416-9.561,8.416-9.561l-0.815-0.459L109.208,216.643
		L109.208,216.643z"/>
	
		<path fill="none" stroke="#73797D" stroke-width="0.6204" stroke-linecap="round" stroke-linejoin="round" stroke-miterlimit="3.8637" d="
		M88.499,209.393l-2.629,2.687c-0.377,0.203-0.092,2.721,0,3.426c0.921,0.253,23.228,6.879,23.228,6.879l8.396-9.661l-2.663-0.953"
		/>
	<path fill="none" stroke="#73797D" stroke-width="0.9654" stroke-miterlimit="3.8637" d="M112.857,195.408v15.994
		c-2.184-0.521-10.389-1.572-11.225-0.27c-0.683-1.304-7.278-0.716-11.238,0.166v-15.392c-0.502,2.228-2.016,3.034-2.016,3.034
		v13.566l11.694-0.842c1.296,0.842,2.779,0.305,3.272,0.072l11.226,0.363v-15.188C114.571,196.923,113.461,196.826,112.857,195.408
		L112.857,195.408z M112.857,211.404c-2.388,0-9.512-1.914-11.188-0.229c1.522-0.036,1.563,0.952,0,0.993
		c-1.674-0.111-1.407-1.07,0-0.953c-1.447-1.879-11.255,0.387-11.255,0.387l-0.021-15.688c2.721,0,5.541-1.313,7.455-1.313
		s3.929,0.813,3.929,0.813s3.011-1.221,5.137-1.221c2.519,0,3.814,2.061,5.83,1.352
		C112.708,196.518,112.857,211.404,112.857,211.404L112.857,211.404z"/>
	
		<line fill="none" stroke="#73797D" stroke-width="0.6207" stroke-miterlimit="3.8637" x1="101.744" y1="195.436" x2="101.648" y2="211.119"/>
	<path fill="none" stroke="#73797D" stroke-width="0.6708" stroke-miterlimit="3.8637" d="M90.062,216.795l-0.842,0.852
		c-0.39,0.449-0.394,3.98,0.009,4.162c-0.009,0.06,1.823,0.53,1.01,0.159c-0.174-1.136-0.105-3.584,0.2-3.935l0.919-0.897
		L90.062,216.795L90.062,216.795z M92.993,217.636l-0.804,0.856c-0.388,0.439-0.549,4.072-0.144,4.25
		c-0.013,0.066,1.978,0.435,1.164,0.063c-0.178-1.137-0.106-3.584,0.2-3.936l0.851-0.852L92.993,217.636L92.993,217.636z
		 M100.112,219.74l-0.956,1.006c-0.389,0.449-0.595,3.895-0.189,4.072c-0.012,0.067,2.021,0.619,1.21,0.242
		c-0.177-1.127-0.106-3.582,0.199-3.935l1.032-1.043L100.112,219.74L100.112,219.74z M102.815,220.582l-0.956,1.01
		c-0.391,0.441-0.554,3.918-0.153,4.1c-0.011,0.063,1.983,0.589,1.171,0.218c-0.179-1.136-0.106-3.584,0.2-3.935l1.032-1.045
		L102.815,220.582L102.815,220.582z M90.06,212.418l-0.64,0.648c-0.295,0.342-0.354,3.301-0.048,3.438
		c-0.008,0.049,0.834,0.337,0.95,0.294c0.125-0.007-0.07-0.312-0.129-0.454c-0.134-0.861-0.078-2.725,0.154-2.99l0.695-0.674
		L90.06,212.418L90.06,212.418z"/>
	<path fill="none" stroke="#73797D" stroke-width="0.9654" stroke-miterlimit="3.8637" d="M101.782,195.289
		c-3.042-0.076-3.874-2.506-3.874-2.506l1.183-0.055c0,0-1.485-0.902-1.155-1.791c-0.024-0.041,1.034,0.111,1.034,0.111
		s-0.446-1.218-0.042-2.021l0.947,0.396c0.272-1.619,1.948-1.996,1.948-1.996s1.561,0.211,2.018,1.996l0.947-0.396
		c0.404,0.805-0.033,2.021-0.033,2.021s1.058-0.152,1.034-0.111c0.331,0.889-1.156,1.791-1.156,1.791l1.186,0.055
		C105.817,192.783,104.825,195.215,101.782,195.289L101.782,195.289z"/>
	
		<line fill="none" stroke="#73797D" stroke-width="1.9399" stroke-miterlimit="3.8635" x1="30.248" y1="173.623" x2="63.09" y2="173.623"/>
	
		<line fill="none" stroke="#73797D" stroke-width="1.8699" stroke-miterlimit="3.8637" x1="92.757" y1="173.623" x2="125.336" y2="173.623"/>
	<polygon fill="none" stroke="#FFFFFF" stroke-width="0.9654" stroke-miterlimit="3.8637" points="77.904,161.49 88.378,179.91 
		67.338,179.91 	"/>
	<path fill="none" stroke="#73797D" stroke-width="0.9654" stroke-miterlimit="3.8637" d="M77.814,170.596
		c3.791,0,7.087,3.119,7.046,3.613c0.035,0.466-3.257,3.59-7.046,3.59s-7.091-3.124-7.057-3.59
		C70.722,173.715,73.895,170.449,77.814,170.596L77.814,170.596z M74.281,174.197c0-1.959,1.58-3.545,3.528-3.545
		c1.949,0,3.53,1.59,3.53,3.545c0,1.957-1.581,3.549-3.53,3.549C75.86,177.742,74.281,176.154,74.281,174.197L74.281,174.197z"/>
	<path fill="#73797D" stroke="#73797D" stroke-width="0.6207" stroke-miterlimit="3.8637" d="M77.369,174.197
		c0-0.244,0.198-0.44,0.444-0.44c0.241,0,0.44,0.196,0.44,0.44c0,0.246-0.199,0.445-0.44,0.445
		C77.566,174.645,77.369,174.443,77.369,174.197L77.369,174.197z"/>
	<path fill="none" stroke="#73797D" stroke-width="0.9654" stroke-miterlimit="3.8637" d="M77.916,161.102
		c-6.922,0-12.588,5.656-12.588,12.609c0,6.955,5.61,12.594,12.532,12.594c6.922,0,12.533-5.639,12.533-12.594
		c0-6.256-4.54-11.441-10.49-12.428c-2.214,0.16-2.327-0.646-2.405-1.063c-0.204-1.134,1.271-1.8,2.323-1.8
		c1.828,0,1.674,1.07,2.77,1.3c5.825,1.979,10.015,7.52,10.015,14.035c0,8.181-6.601,14.813-14.742,14.813
		c-8.143,0-14.742-6.633-14.742-14.813c0-8.187,6.12-14.494,14.344-13.882C77.333,160.412,77.916,161.102,77.916,161.102
		L77.916,161.102z"/>
	<polygon fill="none" stroke="#73797D" stroke-width="1.7342" stroke-miterlimit="3.8635" points="77.839,56.75 73.329,65.87 
		63.136,67.346 70.483,74.636 68.967,84.517 77.839,80.01 86.713,84.517 85.083,74.544 92.198,67.563 82.421,65.961 	"/>
	<path fill="none" stroke="#73797D" stroke-width="0.8952" stroke-miterlimit="3.8635" d="M77.839,57.078V80.01 M63.484,67.56
		l21.598,6.985 M68.967,84.517l13.452-18.555 M86.713,84.517L73.332,65.871 M92.198,67.563l-21.714,7.075"/>
	<path fill="none" stroke="#73797D" stroke-width="1.7342" stroke-miterlimit="3.8635" d="M70.364,74.725L39.831,84.788
		 M115.709,59.783l-23.493,7.742 M73.303,65.85L54.444,39.825 M104.12,108.884L86.549,84.453 M82.435,65.934l18.768-26.223
		 M51.158,108.884l17.787-24.431 M63.388,67.533l-23.447-7.75 M115.598,84.788L85.199,74.603 M77.839,32.089v25.578"/>
	<path fill="none" stroke="#73797D" stroke-width="0.8952" stroke-miterlimit="3.8635" d="M69.953,78.224l-12.545,9.072
		 M98.328,57.426l-12.341,9.009 M74.895,81.583l-4.809,14.868 M85.746,48.032l-4.771,14.75 M80.869,81.595l4.774,14.76
		 M69.976,47.896l4.852,15.001 M85.639,78.014l12.462,9.098 M57.181,57.234l12.437,9.079 M87.534,72.349l15.712,0.003
		 M52.547,72.349H68.02"/>
	<path fill="none" stroke="#73797D" stroke-width="0.9654" stroke-miterlimit="3.8637" d="M103.612,140.369
		c0.69,1.021,2.094,3.402,2.054,3.402c0,0-3.311,0.229-4.489-0.88c-0.259-0.394-2.25-3.606-2.25-3.606
		S102.927,139.345,103.612,140.369L103.612,140.369z M42.736,123.16l-5.857,13.479l11.725,0.032L42.736,123.16L42.736,123.16z
		 M60.166,136.691c0,3.221,2.661,5.832,5.942,5.832c3.285,0,5.942-2.611,5.942-5.832H60.166L60.166,136.691z M66.12,123.16
		l5.859,13.479l-11.725,0.032L66.12,123.16L66.12,123.16z M52.639,159.072l3.504-1.646 M52.526,156.818l3.503-1.646"/>
	<path fill="none" stroke="#73797D" stroke-width="0.6207" stroke-miterlimit="3.8637" d="M54.279,122.926H42.743v-1.375h11.423
		L54.279,122.926L54.279,122.926z M54.469,121.551h11.608v1.375H54.543L54.469,121.551L54.469,121.551z M93.413,198.867
		c1.598-0.053,3.661-1.635,5.95-0.871 M93.398,200.615c1.594-0.047,3.672-1.559,5.962-0.787 M93.382,202.369
		c1.597-0.047,3.685-1.482,5.975-0.719 M93.373,204.121c1.595-0.047,3.693-1.412,5.985-0.645 M93.357,205.875
		c1.596-0.047,3.708-1.336,5.995-0.573 M93.341,207.629c1.596-0.053,3.722-1.264,6.011-0.496 M110.106,198.352
		c-1.597-0.052-3.728-1.119-6.016-0.354 M110.109,200.197c-1.597-0.053-3.729-1.139-6.017-0.369 M110.111,202.045
		c-1.597-0.053-3.728-1.16-6.016-0.396 M110.111,203.891c-1.597-0.052-3.728-1.182-6.013-0.412 M110.116,205.736
		c-1.598-0.055-3.729-1.197-6.014-0.436 M110.118,207.58c-1.598-0.053-3.728-1.215-6.016-0.447"/>
	<polygon fill="none" stroke="#73797D" stroke-width="0.9654" stroke-miterlimit="3.8637" points="77.904,161.49 88.378,179.91 
		67.338,179.91 	"/>
	<path fill="none" stroke="#73797D" stroke-width="0.6708" stroke-miterlimit="3.8637" d="M92.294,212.955l-0.639,0.646
		c-0.296,0.342-0.354,3.299-0.048,3.438c0.145,0.084,0.835,0.406,0.95,0.359c0.124,0-0.09-0.375-0.129-0.519
		c-0.135-0.86-0.08-2.723,0.152-2.991l0.698-0.679L92.294,212.955L92.294,212.955z"/>
	<polygon fill="#73797D" points="76.792,80.01 78.708,80.01 78.708,158.191 77.817,159.396 77.458,159.875 76.861,159.467 	"/>
	<path fill="none" stroke="#73797D" stroke-width="0.6708" stroke-miterlimit="3.8637" d="M101.388,215.572l-0.642,0.65
		c-0.293,0.34-0.353,3.301-0.048,3.438c-0.009,0.052,0.834,0.334,0.95,0.293c0.124-0.004-0.071-0.312-0.129-0.453
		c-0.136-0.854-0.08-2.721,0.153-2.985l0.696-0.679L101.388,215.572L101.388,215.572z M103.623,216.111l-0.638,0.647
		c-0.297,0.343-0.354,3.308-0.047,3.439c0.144,0.081,0.833,0.405,0.949,0.362c0.125-0.004-0.09-0.381-0.129-0.521
		c-0.136-0.857-0.079-2.727,0.152-2.99l0.697-0.684L103.623,216.111L103.623,216.111z"/>
</g>
<g>
	<path fill="#E30613" d="M295.267,146.684h11.667v22.082h-11.667v62.769c-2.609,22.172-17.031,38.767-40.39,37.849v-22.074
		c9.952,0.336,15.882-3.461,16.917-15.256l0.061-63.285h-11.003V146.69h11.003l0.006-14.845
		c0.551-23.392,14.897-40.593,40.789-37.614v21.883c-11.077-0.877-17.273,3.624-17.383,15.908v14.665L295.267,146.684
		L295.267,146.684z"/>
	<path fill="none" stroke="#73797D" stroke-width="1.9164" stroke-miterlimit="3.8637" d="M447.076,269.121V93.813 M158.681,269.121
		V93.783"/>
	<path fill="#73797D" d="M181.99,147.037c0-12.528,6.209-17.112,17.384-16.23v-21.881c-26.074-3.001-40.441,14.466-40.796,38.111
		v20.646v69.871h23.412v-69.871h16.497v-20.646H181.99L181.99,147.037z"/>
	<path fill="#73797D" d="M239.624,237.555h18.268V214.97h-16.32c-14.722,0-24.12-10.058-24.12-22.938s9.4-22.938,24.12-22.938h16.32
		v-22.407h-18.268c-27.846,0-45.588,19.938-45.588,45.349C194.036,217.443,211.777,237.555,239.624,237.555L239.624,237.555z"/>
	<path fill="#73797D" d="M446.791,185.023c0-23.813-15.069-40.568-40.605-40.568c-11.88,0-22.166,4.939-29.082,12.875
		c-6.559-7.936-16.662-12.875-29.082-12.875c-24.995,0-41.137,17.463-41.137,40.568v52.566h23.408v-53.095
		c0-10.229,7.271-17.287,17.729-17.287c15.431,0,17.025,12.17,17.025,17.287v53.095h23.403v-53.095
		c0-10.229,7.441-17.287,17.73-17.287c15.432,0,17.202,12.17,17.202,17.287v53.095h23.404v-52.566H446.791L446.791,185.023z"/>
</g>
<g>
	<path fill="#73797D" d="M473.765,215.75v10.379c0,0.828,0.114,1.623,0.345,2.383c0.244,0.74,0.616,1.394,1.114,1.953
		c0.521,0.559,1.175,1.005,1.964,1.34c0.81,0.316,1.773,0.478,2.898,0.478c1.146,0,2.109-0.16,2.9-0.478
		c0.805-0.335,1.459-0.781,1.961-1.34c0.516-0.563,0.891-1.213,1.121-1.953c0.242-0.76,0.358-1.555,0.358-2.383V215.75h-1.551
		v10.039c0,0.938-0.104,1.742-0.313,2.4c-0.22,0.653-0.523,1.188-0.938,1.611c-0.414,0.405-0.912,0.711-1.506,0.907
		c-0.595,0.183-1.271,0.271-2.031,0.271c-0.748,0-1.418-0.092-2.014-0.271c-0.597-0.196-1.093-0.5-1.504-0.907
		c-0.41-0.423-0.725-0.958-0.938-1.611c-0.214-0.658-0.313-1.467-0.313-2.4V215.75H473.765L473.765,215.75z"/>
	<polygon fill="#73797D" points="491.193,215.75 491.193,231.959 492.744,231.959 492.744,218.25 492.791,218.25 502.289,231.959 
		504.021,231.959 504.021,215.75 502.472,215.75 502.472,229.466 502.422,229.466 492.929,215.75 	"/>
	<polygon fill="#73797D" points="509.06,215.75 509.06,231.959 510.611,231.959 510.611,215.75 	"/>
	<polygon fill="#73797D" points="513.891,215.75 519.918,231.959 521.717,231.959 527.77,215.75 526.127,215.75 520.877,230.258 
		520.83,230.258 515.535,215.75 	"/>
	<polygon fill="#73797D" points="530.865,215.75 530.865,231.959 542.234,231.959 542.234,230.645 532.416,230.645 532.416,224.246 
		541.502,224.246 541.502,222.928 532.416,222.928 532.416,217.07 542.115,217.07 542.115,215.75 	"/>
	<path fill="#73797D" d="M547.613,223.447v-6.377h5.795c1.188,0,2.072,0.283,2.647,0.863c0.578,0.574,0.865,1.362,0.865,2.363
		c0,0.493-0.098,0.942-0.299,1.334c-0.18,0.376-0.433,0.707-0.752,0.977c-0.32,0.272-0.691,0.482-1.115,0.635
		c-0.428,0.142-0.875,0.205-1.35,0.205H547.613L547.613,223.447z M546.061,215.75v16.209h1.558v-7.195h5.887
		c0.732-0.027,1.301,0.092,1.713,0.363c0.429,0.273,0.74,0.637,0.955,1.09c0.229,0.441,0.375,0.947,0.437,1.521
		c0.075,0.562,0.129,1.128,0.164,1.701c0.014,0.168,0.026,0.362,0.045,0.593c0.016,0.227,0.028,0.465,0.041,0.698
		c0.028,0.23,0.069,0.459,0.116,0.688c0.063,0.213,0.138,0.394,0.229,0.541h1.713c-0.17-0.194-0.305-0.463-0.414-0.813
		c-0.086-0.365-0.158-0.74-0.201-1.135c-0.051-0.412-0.07-0.812-0.092-1.205c-0.016-0.394-0.031-0.722-0.045-1.003
		c-0.031-0.479-0.1-0.93-0.207-1.337c-0.094-0.423-0.254-0.792-0.479-1.111c-0.212-0.32-0.494-0.58-0.849-0.773
		c-0.346-0.205-0.787-0.355-1.323-0.428v-0.051c1.057-0.211,1.85-0.693,2.379-1.453c0.528-0.752,0.799-1.65,0.799-2.678
		c0-0.728-0.142-1.354-0.41-1.888c-0.26-0.545-0.611-0.981-1.072-1.313c-0.438-0.351-0.961-0.607-1.572-0.771
		c-0.594-0.166-1.229-0.254-1.896-0.254h-7.461v0.006h-0.015V215.75z"/>
	<path fill="#73797D" d="M563.674,226.623h-1.551c-0.047,1,0.082,1.854,0.387,2.576c0.318,0.709,0.771,1.285,1.351,1.746
		c0.571,0.447,1.272,0.795,2.104,1.018c0.818,0.217,1.711,0.316,2.67,0.316c0.953,0,1.779-0.094,2.467-0.272
		c0.685-0.165,1.257-0.382,1.709-0.659c0.474-0.281,0.836-0.604,1.097-0.951c0.274-0.349,0.479-0.688,0.61-1.022
		c0.154-0.347,0.248-0.67,0.279-0.976c0.041-0.297,0.064-0.539,0.064-0.725c0-0.666-0.113-1.232-0.351-1.704
		c-0.211-0.472-0.516-0.868-0.914-1.181c-0.383-0.334-0.823-0.604-1.348-0.821c-0.496-0.226-1.041-0.413-1.617-0.567l-3.971-0.974
		c-0.336-0.077-0.656-0.175-0.957-0.294c-0.289-0.125-0.547-0.275-0.781-0.475c-0.227-0.195-0.404-0.436-0.543-0.707
		c-0.123-0.289-0.182-0.623-0.182-1c0-0.604,0.11-1.115,0.342-1.521c0.229-0.406,0.521-0.729,0.893-0.977
		c0.386-0.26,0.816-0.438,1.302-0.545c0.504-0.125,1.021-0.184,1.553-0.184c0.58,0,1.127,0.082,1.645,0.25
		c0.531,0.153,0.996,0.385,1.396,0.707c0.401,0.299,0.731,0.692,0.979,1.157c0.258,0.455,0.398,0.988,0.433,1.611h1.555
		c0-0.828-0.168-1.563-0.498-2.181c-0.318-0.636-0.752-1.168-1.299-1.594c-0.555-0.419-1.191-0.738-1.92-0.949
		c-0.73-0.213-1.5-0.313-2.31-0.313c-1.146,0-2.075,0.164-2.807,0.498c-0.729,0.313-1.313,0.709-1.732,1.176
		c-0.411,0.476-0.688,0.978-0.846,1.496c-0.15,0.531-0.227,0.99-0.227,1.39c0,0.635,0.098,1.172,0.293,1.608
		c0.217,0.44,0.485,0.813,0.822,1.112c0.334,0.3,0.725,0.541,1.159,0.726c0.457,0.181,0.922,0.338,1.396,0.457l3.631,0.882
		c0.381,0.092,0.768,0.21,1.164,0.364c0.393,0.136,0.752,0.319,1.063,0.547c0.337,0.228,0.604,0.507,0.808,0.838
		c0.211,0.339,0.315,0.724,0.315,1.177c0,0.596-0.146,1.1-0.436,1.524c-0.285,0.408-0.654,0.748-1.1,1.024
		c-0.423,0.259-0.888,0.446-1.39,0.564c-0.5,0.123-0.965,0.18-1.393,0.18c-0.742,0-1.443-0.063-2.103-0.203
		c-0.651-0.151-1.229-0.396-1.713-0.729c-0.475-0.326-0.846-0.771-1.119-1.334C563.787,228.156,563.658,227.459,563.674,226.623
		L563.674,226.623z"/>
	<polygon fill="#73797D" points="579.096,215.75 579.096,231.959 580.648,231.959 580.648,215.75 	"/>
	<path fill="#73797D" d="M585.707,215.75v16.209h5.635c2.486-0.057,4.353-0.748,5.601-2.063c1.262-1.334,1.893-3.347,1.893-6.043
		c0-2.688-0.631-4.696-1.893-6.02c-1.248-1.323-3.109-2.023-5.601-2.088h-5.635V215.75z M587.26,230.645V217.07h3.313
		c1.172,0,2.176,0.129,3.018,0.383c0.853,0.246,1.551,0.635,2.101,1.186c0.547,0.545,0.946,1.245,1.205,2.105
		c0.268,0.859,0.395,1.904,0.395,3.111c0,1.217-0.129,2.252-0.395,3.112c-0.259,0.861-0.658,1.568-1.205,2.109
		c-0.55,0.545-1.248,0.94-2.101,1.198c-0.842,0.242-1.846,0.365-3.018,0.365L587.26,230.645L587.26,230.645z"/>
	<path fill="#73797D" d="M605.311,225.609l3.263-8.312l3.146,8.312H605.311L605.311,225.609z M607.77,215.75l-6.549,16.209h1.646
		l1.963-5.035h7.418l1.986,5.035h1.664l-6.392-16.209H607.77L607.77,215.75z"/>
	<path fill="#73797D" d="M619.041,215.75v16.209h5.637c2.48-0.057,4.353-0.748,5.599-2.063c1.264-1.334,1.893-3.347,1.893-6.043
		c0-2.688-0.629-4.696-1.893-6.02c-1.246-1.323-3.113-2.023-5.599-2.088h-5.637V215.75z M620.594,230.645V217.07h3.313
		c1.17,0,2.176,0.129,3.012,0.383c0.854,0.246,1.551,0.635,2.098,1.186c0.556,0.545,0.953,1.245,1.212,2.105
		c0.264,0.859,0.389,1.904,0.389,3.111c0,1.217-0.129,2.252-0.389,3.112c-0.255,0.861-0.656,1.568-1.212,2.109
		c-0.547,0.545-1.243,0.94-2.098,1.198c-0.834,0.242-1.842,0.365-3.012,0.365L620.594,230.645L620.594,230.645z"/>
	<path fill="#73797D" d="M650.068,215.75v16.209h5.635c2.479-0.057,4.346-0.748,5.594-2.063c1.264-1.334,1.896-3.347,1.896-6.043
		c0-2.688-0.634-4.696-1.896-6.02c-1.248-1.323-3.113-2.023-5.594-2.088h-5.635V215.75z M651.619,230.645V217.07h3.311
		c1.17,0,2.181,0.129,3.015,0.383c0.852,0.246,1.553,0.635,2.1,1.186c0.547,0.545,0.955,1.245,1.213,2.105
		c0.26,0.859,0.387,1.904,0.387,3.111c0,1.217-0.129,2.252-0.387,3.112c-0.256,0.861-0.666,1.568-1.213,2.109
		c-0.547,0.545-1.248,0.94-2.1,1.198c-0.832,0.242-1.845,0.365-3.015,0.365L651.619,230.645L651.619,230.645z"/>
	<polygon fill="#73797D" points="667.361,215.75 667.361,231.959 678.73,231.959 678.73,230.645 668.914,230.645 668.914,224.246 
		677.998,224.246 677.998,222.928 668.914,222.928 668.914,217.07 678.611,217.07 678.611,215.75 	"/>
	<path fill="#73797D" d="M708.199,220.658h1.557c-0.104-0.848-0.365-1.598-0.775-2.25c-0.396-0.646-0.896-1.193-1.51-1.635
		c-0.592-0.457-1.262-0.799-2.01-1.023c-0.73-0.223-1.479-0.336-2.256-0.336c-1.279,0-2.404,0.23-3.377,0.701
		c-0.957,0.453-1.76,1.078-2.396,1.861c-0.639,0.772-1.121,1.664-1.438,2.682c-0.318,1.012-0.48,2.078-0.48,3.195
		s0.162,2.19,0.48,3.201c0.313,1.018,0.801,1.918,1.438,2.686c0.642,0.771,1.439,1.393,2.396,1.861
		c0.973,0.453,2.098,0.68,3.377,0.68c0.955,0,1.822-0.156,2.602-0.453c0.789-0.303,1.479-0.734,2.056-1.293
		c0.573-0.563,1.053-1.244,1.418-2.039c0.356-0.809,0.6-1.705,0.707-2.701h-1.556c-0.076,0.723-0.254,1.406-0.522,2.041
		c-0.273,0.623-0.631,1.162-1.07,1.637c-0.443,0.471-0.963,0.838-1.58,1.113c-0.604,0.268-1.295,0.402-2.049,0.402
		c-1.078,0-2.01-0.205-2.787-0.604c-0.772-0.411-1.414-0.948-1.918-1.612c-0.484-0.683-0.854-1.447-1.094-2.295
		c-0.229-0.859-0.351-1.73-0.351-2.611c0-0.891,0.119-1.762,0.351-2.609c0.241-0.844,0.604-1.604,1.094-2.266
		c0.504-0.684,1.146-1.229,1.918-1.639c0.777-0.408,1.707-0.607,2.787-0.607c0.592,0,1.158,0.094,1.686,0.268
		c0.554,0.172,1.045,0.42,1.488,0.754c0.459,0.329,0.838,0.752,1.146,1.248C707.838,219.482,708.064,220.039,708.199,220.658
		L708.199,220.658z"/>
	<polygon fill="#73797D" points="714.014,215.75 714.014,231.959 715.566,231.959 715.566,224.107 725.246,224.107 725.246,231.959 
		726.797,231.959 726.797,215.75 725.246,215.75 725.246,222.787 715.566,222.787 715.566,215.75 	"/>
	<polygon fill="#73797D" points="731.855,215.75 731.855,231.959 733.408,231.959 733.408,215.75 	"/>
	<polygon fill="#73797D" points="738.471,215.75 738.471,231.959 749.148,231.959 749.148,230.645 740.023,230.645 740.023,215.75 	
		"/>
	<polygon fill="#73797D" points="752.389,215.75 752.389,231.959 763.752,231.959 763.752,230.645 753.939,230.645 753.939,224.246 
		763.02,224.246 763.02,222.928 753.939,222.928 753.939,217.07 763.639,217.07 763.639,215.75 	"/>
	<polygon fill="#73797D" points="473.924,191.912 473.924,208.123 475.478,208.123 475.478,200.404 483.277,200.404 
		483.277,199.084 475.478,199.084 475.478,193.229 484.265,193.229 484.265,191.912 	"/>
	<path fill="#73797D" d="M488.013,190.617l3.019-3.201h-1.78l-2.396,3.201H488.013L488.013,190.617z M487.418,191.912v16.211h1.554
		v-16.211H487.418L487.418,191.912z"/>
	<path fill="#73797D" d="M494.229,202.793h-1.551c-0.047,0.994,0.082,1.85,0.39,2.561c0.317,0.713,0.77,1.297,1.346,1.75
		c0.58,0.453,1.279,0.795,2.103,1.021c0.821,0.215,1.709,0.315,2.674,0.315c0.962,0,1.776-0.088,2.466-0.27
		c0.688-0.17,1.257-0.387,1.711-0.659c0.472-0.29,0.839-0.605,1.097-0.95c0.272-0.35,0.479-0.69,0.619-1.024
		c0.146-0.345,0.239-0.677,0.271-0.976c0.05-0.305,0.067-0.547,0.067-0.729c0-0.664-0.113-1.23-0.34-1.703
		c-0.217-0.467-0.521-0.861-0.92-1.18c-0.379-0.332-0.824-0.605-1.349-0.818c-0.496-0.229-1.045-0.415-1.616-0.566l-3.974-0.975
		c-0.336-0.074-0.649-0.174-0.957-0.297c-0.289-0.119-0.547-0.275-0.776-0.479c-0.229-0.195-0.408-0.436-0.549-0.707
		c-0.121-0.281-0.181-0.617-0.181-0.992c0-0.611,0.113-1.115,0.34-1.521c0.232-0.408,0.525-0.738,0.896-0.975
		c0.381-0.266,0.813-0.443,1.299-0.547c0.5-0.119,1.021-0.182,1.553-0.182c0.576,0,1.13,0.075,1.646,0.248
		c0.528,0.149,0.998,0.385,1.394,0.704c0.412,0.302,0.733,0.688,0.979,1.154c0.261,0.455,0.396,0.989,0.433,1.604h1.553
		c0-0.824-0.168-1.551-0.5-2.174c-0.317-0.639-0.754-1.162-1.303-1.59c-0.549-0.43-1.185-0.742-1.916-0.951
		c-0.731-0.212-1.5-0.32-2.306-0.32c-1.146,0-2.077,0.168-2.813,0.498c-0.727,0.319-1.303,0.713-1.729,1.185
		c-0.411,0.469-0.692,0.97-0.842,1.498c-0.151,0.524-0.229,0.989-0.229,1.384c0,0.639,0.098,1.174,0.299,1.608
		c0.211,0.438,0.488,0.813,0.822,1.108c0.334,0.305,0.721,0.547,1.164,0.724c0.452,0.184,0.92,0.342,1.389,0.459l3.629,0.894
		c0.383,0.086,0.771,0.206,1.164,0.358c0.396,0.14,0.752,0.319,1.072,0.541c0.336,0.229,0.602,0.515,0.799,0.842
		c0.213,0.334,0.32,0.729,0.32,1.181c0,0.596-0.146,1.102-0.438,1.522c-0.284,0.401-0.651,0.748-1.099,1.021
		c-0.424,0.26-0.887,0.446-1.393,0.567c-0.5,0.123-0.968,0.179-1.396,0.179c-0.742,0-1.44-0.063-2.098-0.201
		c-0.654-0.146-1.227-0.392-1.709-0.726c-0.477-0.332-0.846-0.776-1.123-1.336C494.345,204.318,494.215,203.621,494.229,202.793
		L494.229,202.793z"/>
	<polygon fill="#73797D" points="509.121,191.912 509.121,208.123 510.672,208.123 510.672,191.912 	"/>
	<path fill="#73797D" d="M527.111,196.816h1.553c-0.104-0.849-0.365-1.601-0.773-2.252c-0.396-0.648-0.896-1.189-1.506-1.629
		c-0.596-0.459-1.264-0.801-2.01-1.025c-0.729-0.229-1.482-0.342-2.26-0.342c-1.275,0-2.402,0.231-3.375,0.707
		c-0.959,0.451-1.76,1.072-2.398,1.855c-0.639,0.771-1.119,1.674-1.438,2.686c-0.32,1.018-0.482,2.084-0.482,3.199
		c0,1.119,0.162,2.188,0.482,3.203c0.315,1.01,0.799,1.907,1.438,2.676c0.644,0.779,1.439,1.397,2.398,1.862
		c0.973,0.453,2.1,0.681,3.375,0.681c0.959,0,1.824-0.146,2.604-0.447c0.789-0.307,1.479-0.734,2.058-1.295
		c0.573-0.563,1.045-1.242,1.407-2.039c0.369-0.807,0.605-1.705,0.718-2.707h-1.562c-0.074,0.729-0.248,1.406-0.521,2.047
		c-0.271,0.617-0.638,1.162-1.072,1.636c-0.439,0.47-0.965,0.833-1.578,1.112c-0.606,0.271-1.289,0.398-2.051,0.398
		c-1.078,0-2.006-0.199-2.785-0.605c-0.775-0.403-1.412-0.941-1.918-1.61c-0.49-0.683-0.854-1.442-1.096-2.292
		c-0.23-0.861-0.347-1.732-0.347-2.607c0-0.893,0.111-1.764,0.347-2.608c0.239-0.853,0.604-1.604,1.096-2.272
		c0.5-0.681,1.143-1.228,1.918-1.627c0.779-0.412,1.707-0.611,2.785-0.611c0.596,0,1.155,0.086,1.688,0.271
		c0.554,0.166,1.041,0.413,1.484,0.743c0.459,0.341,0.836,0.753,1.143,1.257C526.744,195.645,526.977,196.197,527.111,196.816
		L527.111,196.816z"/>
	<path fill="#73797D" d="M534.699,201.766l3.26-8.313l3.156,8.313H534.699L534.699,201.766z M537.166,191.912l-6.551,16.211h1.645
		l1.961-5.037h7.42l1.984,5.037h1.672l-6.395-16.211H537.166L537.166,191.912z"/>
	<path fill="#73797D" d="M548.627,202.793h-1.551c-0.047,0.994,0.082,1.85,0.387,2.561c0.32,0.713,0.771,1.297,1.354,1.75
		c0.573,0.453,1.271,0.795,2.098,1.021c0.82,0.215,1.709,0.315,2.672,0.315c0.959,0,1.777-0.088,2.463-0.27
		c0.688-0.17,1.261-0.387,1.713-0.659c0.478-0.29,0.832-0.605,1.101-0.95c0.271-0.35,0.475-0.69,0.608-1.024
		c0.158-0.345,0.244-0.677,0.275-0.976c0.047-0.305,0.063-0.547,0.063-0.729c0-0.664-0.111-1.23-0.343-1.703
		c-0.211-0.467-0.518-0.861-0.911-1.18c-0.386-0.332-0.824-0.605-1.351-0.818c-0.502-0.229-1.043-0.415-1.615-0.566l-3.975-0.975
		c-0.34-0.074-0.656-0.174-0.961-0.297c-0.285-0.119-0.547-0.275-0.773-0.479c-0.229-0.191-0.411-0.436-0.549-0.707
		c-0.121-0.281-0.18-0.617-0.18-0.992c0-0.611,0.111-1.115,0.346-1.521c0.229-0.408,0.521-0.738,0.888-0.975
		c0.383-0.266,0.813-0.443,1.301-0.547c0.506-0.119,1.021-0.182,1.559-0.182c0.578,0,1.125,0.075,1.641,0.248
		c0.537,0.149,1,0.385,1.392,0.704c0.412,0.302,0.735,0.688,0.979,1.154c0.269,0.455,0.404,0.989,0.438,1.604h1.553
		c0-0.824-0.168-1.551-0.502-2.174c-0.32-0.639-0.754-1.162-1.301-1.59c-0.545-0.43-1.188-0.742-1.92-0.951
		c-0.728-0.212-1.498-0.32-2.306-0.32c-1.143,0-2.077,0.168-2.807,0.498c-0.729,0.319-1.31,0.713-1.736,1.185
		c-0.405,0.469-0.688,0.97-0.846,1.498c-0.148,0.524-0.229,0.989-0.229,1.384c0,0.639,0.104,1.174,0.303,1.608
		c0.211,0.438,0.481,0.813,0.815,1.108c0.337,0.305,0.728,0.547,1.166,0.724c0.453,0.184,0.919,0.342,1.396,0.459l3.631,0.894
		c0.377,0.086,0.77,0.206,1.162,0.358c0.393,0.14,0.748,0.319,1.068,0.541c0.332,0.229,0.604,0.515,0.799,0.842
		c0.217,0.334,0.315,0.729,0.315,1.181c0,0.596-0.145,1.102-0.434,1.522c-0.285,0.401-0.654,0.748-1.096,1.021
		c-0.427,0.26-0.892,0.446-1.39,0.567c-0.506,0.123-0.971,0.179-1.393,0.179c-0.748,0-1.449-0.063-2.104-0.201
		c-0.653-0.146-1.227-0.392-1.711-0.726c-0.475-0.332-0.846-0.776-1.12-1.336C548.742,204.316,548.619,203.621,548.627,202.793
		L548.627,202.793z"/>
	<polygon fill="#73797D" points="579.014,201.445 579.014,208.123 580.566,208.123 580.566,201.445 587.002,191.912 
		585.154,191.912 579.814,200.131 574.451,191.912 572.625,191.912 	"/>
	<polygon fill="#73797D" points="600.568,191.912 600.568,208.123 602.119,208.123 602.119,194.119 602.166,194.119 
		607.756,208.123 609.219,208.123 614.787,194.119 614.828,194.119 614.828,208.123 616.381,208.123 616.381,191.912 
		614.104,191.912 608.486,206.127 602.852,191.912 	"/>
	<path fill="#73797D" d="M623.053,201.766l3.271-8.313l3.145,8.313H623.053L623.053,201.766z M625.523,191.912l-6.556,16.211h1.646
		l1.965-5.037h7.414l1.983,5.037h1.671l-6.396-16.211H625.523L625.523,191.912z"/>
	<polygon fill="#73797D" points="632.969,191.912 632.969,193.229 638.631,193.229 638.631,208.123 640.182,208.123 
		640.182,193.229 645.865,193.229 645.865,191.912 	"/>
	<polygon fill="#73797D" points="648.521,191.912 648.521,208.123 659.891,208.123 659.891,206.809 650.076,206.809 
		650.076,200.404 659.158,200.404 659.158,199.084 650.076,199.084 650.076,193.229 659.775,193.229 659.775,191.912 	"/>
	<polygon fill="#73797D" points="663.139,191.912 663.139,208.123 664.689,208.123 664.689,194.119 664.736,194.119 
		670.326,208.123 671.785,208.123 677.359,194.119 677.404,194.119 677.404,208.123 678.957,208.123 678.957,191.912 
		676.674,191.912 671.059,206.127 665.422,191.912 	"/>
	<path fill="#73797D" d="M688.688,190.617l3.015-3.201h-1.779l-2.396,3.201H688.688L688.688,190.617z M685.629,201.766l3.266-8.313
		l3.148,8.313H685.629L685.629,201.766z M688.096,191.912l-6.553,16.211h1.646l1.963-5.037h7.418l1.979,5.037h1.672l-6.395-16.211
		H688.096L688.096,191.912z"/>
	<polygon fill="#73797D" points="697.092,191.912 697.092,193.229 702.754,193.229 702.754,208.123 704.307,208.123 
		704.307,193.229 709.988,193.229 709.988,191.912 	"/>
	<polygon fill="#73797D" points="712.762,191.912 712.762,208.123 714.314,208.123 714.314,191.912 	"/>
	<path fill="#73797D" d="M730.752,196.816h1.553c-0.104-0.849-0.356-1.601-0.771-2.252c-0.396-0.648-0.896-1.189-1.506-1.629
		c-0.599-0.459-1.269-0.801-2.017-1.025c-0.729-0.229-1.479-0.342-2.256-0.342c-1.272,0-2.397,0.231-3.377,0.707
		c-0.957,0.451-1.758,1.072-2.395,1.855c-0.644,0.771-1.121,1.674-1.439,2.686c-0.318,1.018-0.479,2.084-0.479,3.199
		c0,1.119,0.157,2.188,0.479,3.203c0.318,1.01,0.799,1.907,1.439,2.676c0.637,0.779,1.438,1.397,2.395,1.862
		c0.978,0.453,2.104,0.681,3.377,0.681c0.957,0,1.822-0.146,2.604-0.447c0.789-0.307,1.477-0.734,2.053-1.295
		c0.578-0.563,1.047-1.242,1.412-2.039c0.362-0.807,0.604-1.705,0.713-2.707h-1.553c-0.078,0.729-0.252,1.406-0.527,2.047
		c-0.271,0.617-0.631,1.162-1.067,1.636c-0.441,0.47-0.972,0.833-1.58,1.112c-0.605,0.271-1.291,0.398-2.052,0.398
		c-1.082,0-2.014-0.199-2.786-0.605c-0.775-0.403-1.41-0.941-1.919-1.61c-0.481-0.683-0.852-1.442-1.098-2.292
		c-0.229-0.861-0.34-1.732-0.34-2.607c0-0.893,0.11-1.764,0.34-2.608c0.246-0.853,0.613-1.604,1.098-2.272
		c0.509-0.681,1.144-1.228,1.919-1.627c0.772-0.412,1.704-0.611,2.786-0.611c0.597,0,1.158,0.086,1.688,0.271
		c0.551,0.166,1.043,0.413,1.484,0.743c0.459,0.341,0.837,0.753,1.141,1.257C730.391,195.645,730.617,196.197,730.752,196.816
		L730.752,196.816z"/>
	<path fill="#73797D" d="M738.342,201.766l3.269-8.313l3.146,8.313H738.342L738.342,201.766z M740.801,191.912l-6.549,16.211h1.646
		l1.963-5.037h7.416l1.983,5.037h1.67l-6.395-16.211H740.801L740.801,191.912z"/>
	<path fill="#73797D" d="M752.27,202.793h-1.553c-0.047,0.994,0.082,1.85,0.385,2.561c0.324,0.713,0.775,1.297,1.355,1.75
		c0.578,0.453,1.275,0.795,2.098,1.021c0.82,0.215,1.709,0.315,2.672,0.315c0.959,0,1.777-0.088,2.468-0.27
		c0.686-0.17,1.254-0.387,1.711-0.659c0.469-0.29,0.832-0.605,1.094-0.95c0.273-0.35,0.479-0.69,0.615-1.024
		c0.149-0.345,0.246-0.677,0.272-0.976c0.047-0.305,0.068-0.547,0.068-0.729c0-0.664-0.113-1.23-0.344-1.703
		c-0.215-0.467-0.517-0.861-0.912-1.18c-0.381-0.332-0.828-0.605-1.346-0.818c-0.507-0.229-1.05-0.415-1.619-0.566l-3.979-0.975
		c-0.336-0.074-0.653-0.174-0.957-0.297c-0.289-0.119-0.547-0.275-0.772-0.479c-0.229-0.195-0.408-0.436-0.543-0.707
		c-0.127-0.281-0.188-0.617-0.188-0.992c0-0.611,0.113-1.115,0.349-1.521c0.229-0.408,0.521-0.738,0.889-0.975
		c0.381-0.266,0.813-0.443,1.305-0.547c0.498-0.119,1.016-0.182,1.551-0.182c0.578,0,1.125,0.075,1.644,0.248
		c0.53,0.149,0.994,0.385,1.393,0.704c0.41,0.302,0.734,0.688,0.982,1.154c0.26,0.455,0.399,0.989,0.432,1.604h1.553
		c0-0.824-0.168-1.551-0.502-2.174c-0.315-0.639-0.754-1.162-1.299-1.59c-0.547-0.43-1.186-0.742-1.92-0.951
		c-0.727-0.212-1.5-0.32-2.305-0.32c-1.146,0-2.078,0.168-2.813,0.498c-0.725,0.319-1.303,0.713-1.729,1.185
		c-0.408,0.469-0.691,0.97-0.851,1.498c-0.146,0.524-0.227,0.989-0.227,1.384c0,0.639,0.098,1.174,0.301,1.608
		c0.211,0.438,0.484,0.813,0.818,1.108c0.338,0.305,0.723,0.547,1.166,0.724c0.453,0.184,0.918,0.342,1.393,0.459l3.629,0.894
		c0.377,0.086,0.771,0.206,1.16,0.358c0.396,0.14,0.758,0.319,1.07,0.541c0.336,0.229,0.604,0.515,0.801,0.842
		c0.219,0.334,0.318,0.729,0.318,1.181c0,0.596-0.146,1.102-0.432,1.522c-0.289,0.401-0.654,0.748-1.097,1.021
		c-0.428,0.26-0.893,0.446-1.393,0.567c-0.504,0.123-0.972,0.179-1.396,0.179c-0.748,0-1.448-0.063-2.098-0.201
		c-0.654-0.146-1.229-0.392-1.713-0.726c-0.478-0.332-0.843-0.776-1.123-1.336C752.389,204.318,752.254,203.621,752.27,202.793
		L752.27,202.793z"/>
	<polygon fill="#73797D" points="473.924,168.074 473.924,184.285 475.478,184.285 475.478,176.563 483.277,176.563 
		483.277,175.252 475.478,175.252 475.478,169.391 484.265,169.391 484.265,168.074 	"/>
	<path fill="#73797D" d="M488.82,177.928l3.264-8.307l3.148,8.307H488.82L488.82,177.928z M491.285,168.074l-6.549,16.211h1.641
		l1.965-5.041h7.421l1.983,5.041h1.668l-6.396-16.211H491.285L491.285,168.074z"/>
	<path fill="#73797D" d="M514.396,172.979h1.551c-0.104-0.852-0.363-1.6-0.773-2.248c-0.393-0.649-0.895-1.194-1.502-1.635
		c-0.596-0.453-1.268-0.797-2.01-1.022c-0.731-0.228-1.484-0.341-2.26-0.341c-1.277,0-2.404,0.231-3.375,0.709
		c-0.959,0.449-1.761,1.063-2.396,1.861c-0.641,0.769-1.121,1.665-1.438,2.676c-0.319,1.013-0.481,2.084-0.481,3.203
		c0,1.117,0.162,2.187,0.481,3.195c0.314,1.021,0.8,1.908,1.438,2.688c0.641,0.771,1.438,1.388,2.396,1.86
		c0.971,0.448,2.098,0.681,3.375,0.681c0.957,0,1.819-0.153,2.602-0.453c0.791-0.305,1.477-0.737,2.051-1.295
		c0.578-0.563,1.054-1.241,1.416-2.043c0.369-0.799,0.604-1.705,0.709-2.698h-1.553c-0.074,0.726-0.252,1.403-0.525,2.038
		c-0.271,0.615-0.631,1.166-1.065,1.636c-0.439,0.471-0.968,0.838-1.58,1.112c-0.605,0.274-1.289,0.406-2.05,0.406
		c-1.077,0-2.009-0.199-2.786-0.613c-0.773-0.401-1.412-0.938-1.919-1.604c-0.483-0.684-0.854-1.443-1.098-2.297
		c-0.229-0.857-0.346-1.729-0.346-2.605c0-0.896,0.115-1.765,0.346-2.606c0.242-0.854,0.609-1.604,1.098-2.272
		c0.503-0.683,1.146-1.229,1.919-1.633c0.777-0.406,1.706-0.613,2.786-0.613c0.597,0,1.157,0.094,1.688,0.274
		c0.554,0.168,1.049,0.418,1.486,0.748c0.459,0.334,0.834,0.744,1.143,1.248C514.033,171.803,514.262,172.354,514.396,172.979
		L514.396,172.979z"/>
	<path fill="#73797D" d="M519.984,168.074v10.375c0,0.834,0.108,1.629,0.342,2.381c0.242,0.744,0.615,1.395,1.119,1.955
		c0.516,0.563,1.17,1.013,1.963,1.342c0.805,0.313,1.772,0.479,2.896,0.479c1.146,0,2.107-0.164,2.9-0.479
		c0.807-0.329,1.463-0.777,1.961-1.342c0.516-0.563,0.891-1.211,1.117-1.955c0.246-0.752,0.369-1.547,0.369-2.381v-10.375h-1.56
		v10.033c0,0.938-0.104,1.738-0.313,2.408c-0.209,0.647-0.521,1.188-0.937,1.613c-0.408,0.401-0.918,0.706-1.506,0.907
		c-0.596,0.181-1.271,0.271-2.037,0.271c-0.737,0-1.412-0.088-2.006-0.271c-0.596-0.201-1.094-0.506-1.506-0.907
		c-0.412-0.429-0.723-0.966-0.938-1.613c-0.212-0.67-0.314-1.47-0.314-2.408v-10.033H519.984L519.984,168.074z"/>
	<polygon fill="#73797D" points="537.367,168.074 537.367,184.285 548.051,184.285 548.051,182.966 538.92,182.966 538.92,168.074 	
		"/>
	<polygon fill="#73797D" points="547.381,168.074 547.381,169.391 553.037,169.391 553.037,184.285 554.592,184.285 
		554.592,169.391 560.275,169.391 560.275,168.074 	"/>
	<path fill="#73797D" d="M564.148,177.928l3.264-8.307l3.15,8.307H564.148L564.148,177.928z M566.613,168.074l-6.549,16.211h1.641
		l1.965-5.041h7.416l1.99,5.041h1.666l-6.389-16.211H566.613L566.613,168.074z"/>
	<path fill="#73797D" d="M577.813,168.074v16.211h5.64c2.479-0.061,4.346-0.744,5.594-2.063c1.264-1.33,1.896-3.353,1.896-6.039
		c0-2.691-0.632-4.693-1.896-6.019c-1.248-1.338-3.115-2.024-5.594-2.09L577.813,168.074L577.813,168.074z M579.365,182.966v-13.579
		h3.311c1.17,0,2.174,0.133,3.01,0.385c0.854,0.244,1.558,0.642,2.104,1.183c0.551,0.545,0.953,1.25,1.211,2.106
		c0.262,0.866,0.387,1.905,0.387,3.116c0,1.208-0.129,2.247-0.387,3.11c-0.258,0.857-0.66,1.566-1.211,2.107
		c-0.547,0.547-1.248,0.946-2.104,1.207c-0.83,0.241-1.838,0.358-3.01,0.358L579.365,182.966L579.365,182.966z"/>
	<path fill="#73797D" d="M608.42,168.074v16.211h5.635c2.486-0.061,4.353-0.744,5.601-2.063c1.266-1.33,1.893-3.353,1.893-6.039
		c0-2.691-0.629-4.693-1.893-6.019c-1.248-1.338-3.109-2.024-5.601-2.09L608.42,168.074L608.42,168.074z M609.973,182.966v-13.579
		h3.313c1.172,0,2.178,0.133,3.02,0.385c0.851,0.244,1.556,0.642,2.103,1.183c0.545,0.545,0.942,1.25,1.207,2.106
		c0.262,0.866,0.383,1.905,0.383,3.116c0,1.208-0.123,2.247-0.383,3.11c-0.265,0.857-0.662,1.566-1.207,2.107
		c-0.547,0.547-1.252,0.946-2.103,1.207c-0.84,0.241-1.846,0.358-3.02,0.358L609.973,182.966L609.973,182.966z"/>
	<polygon fill="#73797D" points="625.646,168.074 625.646,184.285 637.012,184.285 637.012,182.966 627.199,182.966 
		627.199,176.563 636.283,176.563 636.283,175.252 627.199,175.252 627.199,169.391 636.898,169.391 636.898,168.074 	"/>
	<path fill="#73797D" d="M666.072,172.979h1.553c-0.109-0.852-0.367-1.6-0.779-2.248c-0.391-0.649-0.895-1.194-1.506-1.635
		c-0.594-0.453-1.264-0.797-2.006-1.022c-0.732-0.228-1.484-0.341-2.262-0.341c-1.277,0-2.402,0.231-3.377,0.709
		c-0.955,0.449-1.758,1.063-2.396,1.861c-0.635,0.769-1.121,1.665-1.434,2.676c-0.318,1.013-0.486,2.084-0.486,3.203
		c0,1.117,0.168,2.187,0.486,3.195c0.313,1.021,0.799,1.908,1.434,2.688c0.639,0.771,1.439,1.388,2.396,1.86
		c0.975,0.448,2.1,0.681,3.377,0.681c0.957,0,1.824-0.153,2.602-0.453c0.795-0.305,1.48-0.737,2.053-1.295
		c0.578-0.563,1.056-1.241,1.418-2.043c0.365-0.799,0.603-1.705,0.707-2.698h-1.553c-0.078,0.726-0.252,1.403-0.521,2.038
		c-0.273,0.615-0.627,1.166-1.07,1.636c-0.439,0.471-0.965,0.838-1.576,1.112c-0.604,0.274-1.293,0.406-2.055,0.406
		c-1.076,0-2.008-0.199-2.785-0.613c-0.772-0.401-1.414-0.938-1.914-1.604c-0.49-0.684-0.854-1.443-1.098-2.297
		c-0.23-0.857-0.345-1.729-0.345-2.605c0-0.896,0.111-1.765,0.345-2.606c0.237-0.854,0.604-1.604,1.098-2.272
		c0.5-0.683,1.142-1.229,1.914-1.633c0.777-0.406,1.707-0.613,2.785-0.613c0.594,0,1.158,0.094,1.688,0.274
		c0.545,0.168,1.043,0.418,1.486,0.748c0.453,0.334,0.834,0.744,1.139,1.248C665.705,171.803,665.932,172.354,666.072,172.979
		L666.072,172.979z"/>
	<polygon fill="#73797D" points="671.93,168.074 671.93,184.285 673.48,184.285 673.48,168.074 	"/>
	<polygon fill="#73797D" points="678.473,168.074 678.473,184.285 689.838,184.285 689.838,182.966 680.025,182.966 
		680.025,176.563 689.105,176.563 689.105,175.252 680.025,175.252 680.025,169.391 689.723,169.391 689.723,168.074 	"/>
	<polygon fill="#73797D" points="693.576,168.074 693.576,184.285 695.127,184.285 695.127,170.57 695.168,170.57 704.666,184.285 
		706.4,184.285 706.4,168.074 704.848,168.074 704.848,181.783 704.805,181.783 695.309,168.074 	"/>
	<path fill="#73797D" d="M723.166,172.979h1.553c-0.104-0.852-0.356-1.6-0.771-2.248c-0.396-0.649-0.896-1.194-1.506-1.635
		c-0.597-0.453-1.269-0.797-2.015-1.022c-0.725-0.228-1.479-0.341-2.256-0.341c-1.274,0-2.399,0.231-3.379,0.709
		c-0.955,0.449-1.756,1.063-2.395,1.861c-0.642,0.769-1.121,1.665-1.438,2.676c-0.32,1.013-0.479,2.084-0.479,3.203
		c0,1.117,0.159,2.187,0.479,3.195c0.316,1.021,0.799,1.908,1.438,2.688c0.639,0.771,1.438,1.388,2.395,1.86
		c0.979,0.448,2.104,0.681,3.379,0.681c0.957,0,1.822-0.153,2.604-0.453c0.791-0.305,1.477-0.737,2.051-1.295
		c0.578-0.563,1.053-1.241,1.418-2.043c0.361-0.799,0.598-1.705,0.707-2.698H723.4c-0.076,0.726-0.252,1.403-0.525,2.038
		c-0.273,0.615-0.631,1.166-1.068,1.636c-0.442,0.471-0.965,0.838-1.573,1.112c-0.611,0.274-1.3,0.406-2.058,0.406
		c-1.078,0-2.008-0.199-2.787-0.613c-0.771-0.401-1.412-0.938-1.918-1.604c-0.483-0.684-0.852-1.443-1.094-2.297
		c-0.227-0.857-0.346-1.729-0.346-2.605c0-0.896,0.119-1.765,0.346-2.606c0.242-0.854,0.607-1.604,1.094-2.272
		c0.506-0.683,1.146-1.229,1.918-1.633c0.779-0.406,1.707-0.613,2.787-0.613c0.599,0,1.156,0.094,1.688,0.274
		c0.553,0.168,1.045,0.418,1.485,0.748c0.459,0.334,0.843,0.744,1.146,1.248C722.801,171.803,723.033,172.354,723.166,172.979
		L723.166,172.979z"/>
	<polygon fill="#73797D" points="729.029,168.074 729.029,184.285 730.582,184.285 730.582,168.074 	"/>
	<path fill="#73797D" d="M737.879,177.928l3.264-8.307l3.15,8.307H737.879L737.879,177.928z M740.342,168.074l-6.549,16.211h1.646
		l1.961-5.041h7.418l1.985,5.041h1.668l-6.395-16.211H740.342L740.342,168.074z"/>
	<path fill="#73797D" d="M752.27,178.947h-1.553c-0.047,1.002,0.082,1.854,0.385,2.563c0.324,0.715,0.775,1.301,1.355,1.748
		c0.578,0.458,1.275,0.794,2.098,1.024c0.82,0.213,1.709,0.317,2.672,0.317c0.959,0,1.777-0.098,2.468-0.272
		c0.686-0.162,1.254-0.384,1.711-0.654c0.469-0.286,0.832-0.604,1.094-0.95c0.273-0.351,0.479-0.693,0.615-1.023
		c0.149-0.352,0.246-0.676,0.272-0.979c0.047-0.303,0.068-0.547,0.068-0.725c0-0.66-0.113-1.231-0.344-1.698
		c-0.215-0.477-0.517-0.863-0.912-1.181c-0.381-0.334-0.828-0.606-1.346-0.819c-0.507-0.229-1.05-0.419-1.619-0.572l-3.979-0.97
		c-0.336-0.083-0.653-0.174-0.957-0.301c-0.289-0.117-0.547-0.274-0.772-0.479c-0.229-0.193-0.408-0.429-0.543-0.703
		c-0.127-0.287-0.188-0.613-0.188-0.996c0-0.604,0.113-1.111,0.349-1.523c0.229-0.402,0.521-0.729,0.889-0.971
		c0.381-0.264,0.813-0.438,1.305-0.549c0.498-0.119,1.016-0.183,1.551-0.183c0.578,0,1.125,0.087,1.644,0.255
		c0.53,0.147,0.994,0.387,1.393,0.701c0.41,0.305,0.734,0.688,0.982,1.159c0.26,0.447,0.399,0.987,0.432,1.608h1.553
		c0-0.832-0.168-1.562-0.502-2.186c-0.315-0.633-0.754-1.158-1.299-1.584c-0.547-0.428-1.186-0.742-1.92-0.958
		c-0.727-0.212-1.5-0.313-2.305-0.313c-1.146,0-2.078,0.166-2.813,0.496c-0.725,0.32-1.303,0.715-1.729,1.183
		c-0.408,0.472-0.691,0.969-0.851,1.504c-0.146,0.524-0.227,0.987-0.227,1.379c0,0.636,0.098,1.172,0.301,1.606
		c0.211,0.438,0.484,0.813,0.818,1.115c0.338,0.303,0.723,0.547,1.166,0.728c0.453,0.188,0.918,0.33,1.393,0.453l3.629,0.889
		c0.377,0.095,0.771,0.212,1.16,0.358c0.396,0.146,0.758,0.32,1.07,0.548c0.336,0.229,0.604,0.506,0.801,0.842
		c0.219,0.328,0.318,0.729,0.318,1.183c0,0.588-0.146,1.1-0.432,1.521c-0.289,0.405-0.654,0.748-1.097,1.021
		c-0.428,0.26-0.893,0.442-1.393,0.565c-0.504,0.119-0.972,0.183-1.396,0.183c-0.748,0-1.448-0.063-2.098-0.201
		c-0.654-0.15-1.229-0.396-1.713-0.728c-0.478-0.329-0.843-0.782-1.123-1.342C752.389,180.477,752.254,179.779,752.27,178.947
		L752.27,178.947z"/>
</g>
<g>
	<path fill="#E30613" d="M487.05,103.065c-1.091-0.76-2.385-1.14-3.885-1.14c-1.28,0-2.376,0.24-3.285,0.72
		c-0.91,0.48-1.66,1.125-2.25,1.935c-0.591,0.81-1.025,1.735-1.306,2.775c-0.28,1.04-0.42,2.12-0.42,3.24
		c0,1.22,0.14,2.375,0.42,3.465c0.28,1.09,0.715,2.04,1.306,2.85c0.59,0.81,1.345,1.455,2.265,1.935s2.02,0.72,3.3,0.72
		c0.94,0,1.775-0.155,2.505-0.465c0.73-0.31,1.36-0.74,1.891-1.29c0.529-0.55,0.944-1.205,1.245-1.965
		c0.3-0.76,0.479-1.58,0.54-2.46h2.85c-0.28,2.7-1.21,4.8-2.79,6.3s-3.74,2.25-6.479,2.25c-1.661,0-3.11-0.285-4.351-0.855
		s-2.27-1.354-3.09-2.355c-0.82-1-1.436-2.18-1.845-3.54c-0.41-1.36-0.615-2.82-0.615-4.38s0.22-3.025,0.66-4.395
		c0.439-1.37,1.085-2.565,1.935-3.585s1.91-1.825,3.181-2.415c1.27-0.59,2.725-0.885,4.364-0.885c1.12,0,2.18,0.15,3.181,0.45
		c0.999,0.3,1.89,0.74,2.67,1.32c0.779,0.581,1.43,1.305,1.95,2.175c0.52,0.87,0.859,1.875,1.02,3.015h-2.85
		C488.845,104.965,488.14,103.825,487.05,103.065z"/>
	<path fill="#E30613" d="M495.494,103.155v-3.12h2.55v3.12H495.494z M498.044,105.945v15.51h-2.55v-15.51H498.044z"/>
	<path fill="#E30613" d="M512.984,120.465c-1.16,0.88-2.621,1.32-4.381,1.32c-1.24,0-2.314-0.2-3.225-0.6s-1.675-0.96-2.295-1.68
		c-0.62-0.72-1.085-1.58-1.395-2.58c-0.311-1-0.485-2.09-0.525-3.27c0-1.18,0.18-2.26,0.54-3.24c0.36-0.979,0.864-1.83,1.515-2.55
		c0.65-0.72,1.42-1.28,2.311-1.68c0.89-0.4,1.864-0.6,2.925-0.6c1.38,0,2.524,0.285,3.435,0.855c0.91,0.57,1.64,1.295,2.19,2.175
		c0.55,0.88,0.93,1.84,1.14,2.88c0.21,1.04,0.295,2.03,0.255,2.97h-11.609c-0.021,0.68,0.06,1.325,0.239,1.935
		c0.181,0.61,0.47,1.15,0.87,1.62c0.4,0.47,0.91,0.845,1.53,1.125c0.62,0.28,1.35,0.42,2.19,0.42c1.08,0,1.965-0.25,2.654-0.75
		c0.69-0.5,1.146-1.26,1.365-2.28h2.521C514.894,118.275,514.144,119.585,512.984,120.465z M512.369,110.505
		c-0.23-0.54-0.54-1.005-0.93-1.395c-0.391-0.39-0.851-0.7-1.381-0.93c-0.529-0.23-1.115-0.345-1.755-0.345
		c-0.66,0-1.255,0.115-1.785,0.345c-0.529,0.23-0.985,0.545-1.364,0.945c-0.381,0.4-0.681,0.865-0.9,1.395
		c-0.221,0.53-0.35,1.095-0.39,1.695h8.91C512.733,111.615,512.599,111.045,512.369,110.505z"/>
	<path fill="#E30613" d="M520.514,105.945v2.46h0.06c1.06-1.88,2.74-2.82,5.04-2.82c1.021,0,1.87,0.14,2.55,0.42
		c0.68,0.28,1.23,0.67,1.65,1.17s0.715,1.095,0.885,1.785s0.255,1.455,0.255,2.295v10.2h-2.55v-10.5c0-0.96-0.28-1.72-0.84-2.28
		c-0.561-0.56-1.33-0.84-2.311-0.84c-0.779,0-1.454,0.12-2.024,0.36c-0.57,0.24-1.046,0.58-1.425,1.02
		c-0.381,0.44-0.665,0.956-0.855,1.545s-0.285,1.235-0.285,1.935v8.76h-2.55v-15.51H520.514z"/>
	<path fill="#E30613" d="M544.063,108.645c-0.641-0.54-1.5-0.81-2.58-0.81c-0.921,0-1.69,0.17-2.311,0.51
		c-0.62,0.34-1.115,0.79-1.484,1.35c-0.371,0.56-0.636,1.205-0.796,1.935c-0.16,0.73-0.239,1.485-0.239,2.265
		c0,0.72,0.085,1.42,0.255,2.1c0.17,0.68,0.435,1.285,0.795,1.815c0.36,0.53,0.83,0.956,1.41,1.275c0.58,0.32,1.27,0.48,2.069,0.48
		c1.261,0,2.245-0.33,2.955-0.99c0.71-0.66,1.146-1.59,1.306-2.79h2.609c-0.28,1.92-0.995,3.4-2.145,4.44
		c-1.15,1.04-2.715,1.56-4.695,1.56c-1.18,0-2.225-0.19-3.135-0.57c-0.91-0.379-1.67-0.919-2.28-1.62s-1.07-1.535-1.38-2.505
		c-0.311-0.97-0.465-2.035-0.465-3.195c0-1.16,0.15-2.245,0.45-3.255c0.3-1.01,0.755-1.89,1.364-2.64
		c0.61-0.75,1.375-1.34,2.296-1.77c0.919-0.43,1.989-0.645,3.21-0.645c0.88,0,1.704,0.105,2.475,0.315
		c0.77,0.21,1.45,0.536,2.04,0.975c0.59,0.44,1.075,0.995,1.455,1.665c0.38,0.67,0.619,1.465,0.72,2.385h-2.64
		C545.123,109.945,544.703,109.185,544.063,108.645z"/>
	<path fill="#E30613" d="M551.054,103.155v-3.12h2.55v3.12H551.054z M553.604,105.945v15.51h-2.55v-15.51H553.604z"/>
	<path fill="#E30613" d="M569.473,121.785c-0.66,0-1.186-0.185-1.575-0.555c-0.39-0.37-0.585-0.975-0.585-1.815
		c-0.7,0.84-1.515,1.445-2.445,1.815c-0.93,0.37-1.935,0.555-3.015,0.555c-0.7,0-1.36-0.075-1.979-0.225
		c-0.621-0.15-1.166-0.4-1.636-0.75c-0.47-0.35-0.84-0.8-1.109-1.35c-0.271-0.55-0.405-1.215-0.405-1.995
		c0-0.879,0.15-1.6,0.45-2.16c0.3-0.56,0.694-1.015,1.185-1.365c0.49-0.35,1.05-0.615,1.68-0.795c0.631-0.18,1.275-0.33,1.936-0.45
		c0.7-0.14,1.365-0.245,1.995-0.315c0.63-0.07,1.185-0.169,1.665-0.3c0.479-0.13,0.859-0.32,1.14-0.57s0.42-0.615,0.42-1.095
		c0-0.56-0.104-1.01-0.314-1.35c-0.21-0.34-0.48-0.6-0.811-0.78c-0.33-0.18-0.7-0.3-1.109-0.36c-0.41-0.06-0.815-0.09-1.216-0.09
		c-1.08,0-1.979,0.206-2.699,0.615c-0.721,0.41-1.11,1.185-1.17,2.325h-2.551c0.04-0.96,0.24-1.77,0.601-2.43
		c0.359-0.66,0.84-1.195,1.439-1.605c0.601-0.41,1.29-0.705,2.07-0.885c0.78-0.18,1.6-0.27,2.46-0.27c0.7,0,1.395,0.05,2.085,0.15
		c0.69,0.101,1.314,0.305,1.875,0.615c0.56,0.31,1.01,0.745,1.35,1.305s0.511,1.29,0.511,2.19v7.98c0,0.6,0.034,1.04,0.104,1.32
		c0.07,0.28,0.305,0.42,0.705,0.42c0.22,0,0.48-0.049,0.78-0.15v1.98C570.862,121.655,570.253,121.785,569.473,121.785z
		 M565.902,113.97c-0.521,0.11-1.064,0.2-1.635,0.27c-0.57,0.07-1.146,0.15-1.725,0.24c-0.581,0.09-1.101,0.235-1.561,0.435
		c-0.46,0.2-0.835,0.485-1.125,0.855c-0.29,0.371-0.435,0.875-0.435,1.515c0,0.42,0.085,0.775,0.255,1.065
		c0.17,0.29,0.39,0.525,0.66,0.705c0.27,0.18,0.59,0.31,0.96,0.39c0.369,0.08,0.744,0.12,1.125,0.12c0.84,0,1.56-0.115,2.16-0.345
		c0.6-0.23,1.09-0.52,1.47-0.87c0.38-0.35,0.66-0.73,0.84-1.14c0.18-0.41,0.27-0.795,0.27-1.155v-2.61
		C566.843,113.685,566.423,113.86,565.902,113.97z"/>
	<path fill="#E30613" d="M575.622,117.99c0.24,0.39,0.555,0.7,0.945,0.93c0.39,0.23,0.829,0.396,1.319,0.495
		c0.49,0.101,0.995,0.15,1.516,0.15c0.399,0,0.819-0.03,1.26-0.09c0.439-0.06,0.845-0.17,1.215-0.33
		c0.37-0.16,0.675-0.395,0.915-0.705c0.24-0.31,0.36-0.705,0.36-1.185c0-0.66-0.251-1.16-0.75-1.5
		c-0.501-0.34-1.125-0.615-1.875-0.825s-1.565-0.4-2.445-0.57c-0.881-0.169-1.695-0.41-2.445-0.72s-1.375-0.745-1.875-1.305
		c-0.5-0.56-0.75-1.339-0.75-2.34c0-0.78,0.175-1.45,0.525-2.01c0.35-0.56,0.8-1.015,1.35-1.365c0.55-0.35,1.17-0.61,1.86-0.78
		c0.689-0.169,1.375-0.255,2.055-0.255c0.88,0,1.69,0.075,2.431,0.225c0.739,0.15,1.395,0.41,1.965,0.78
		c0.569,0.371,1.024,0.87,1.364,1.5c0.34,0.63,0.54,1.416,0.601,2.355h-2.55c-0.041-0.5-0.171-0.915-0.391-1.245
		s-0.5-0.595-0.84-0.795c-0.34-0.2-0.715-0.345-1.125-0.435c-0.41-0.09-0.825-0.135-1.245-0.135c-0.38,0-0.765,0.03-1.154,0.09
		c-0.391,0.06-0.746,0.165-1.065,0.315c-0.32,0.15-0.58,0.35-0.78,0.6c-0.2,0.25-0.3,0.575-0.3,0.975
		c0,0.44,0.154,0.806,0.465,1.095c0.31,0.29,0.705,0.53,1.186,0.72c0.479,0.19,1.02,0.351,1.62,0.48c0.6,0.13,1.199,0.266,1.8,0.405
		c0.64,0.14,1.265,0.31,1.875,0.51c0.609,0.2,1.149,0.465,1.62,0.795c0.47,0.33,0.85,0.745,1.14,1.245
		c0.29,0.5,0.435,1.121,0.435,1.86c0,0.94-0.194,1.72-0.585,2.34c-0.39,0.62-0.899,1.12-1.529,1.5s-1.341,0.645-2.13,0.795
		c-0.791,0.15-1.575,0.225-2.355,0.225c-0.86,0-1.68-0.09-2.46-0.27s-1.47-0.475-2.07-0.885c-0.6-0.41-1.08-0.95-1.439-1.62
		c-0.36-0.67-0.561-1.485-0.601-2.445h2.551C575.252,117.125,575.382,117.6,575.622,117.99z"/>
	<path fill="#E30613" d="M608.322,121.455v-2.1h-0.061c-0.42,0.86-1.08,1.48-1.979,1.86c-0.9,0.38-1.891,0.57-2.971,0.57
		c-1.2,0-2.245-0.22-3.135-0.66c-0.89-0.439-1.63-1.03-2.22-1.77c-0.591-0.74-1.035-1.6-1.335-2.58c-0.3-0.979-0.45-2.02-0.45-3.12
		s0.145-2.14,0.435-3.12s0.73-1.835,1.32-2.565s1.33-1.31,2.22-1.74c0.89-0.43,1.925-0.645,3.105-0.645
		c0.399,0,0.829,0.041,1.29,0.12c0.46,0.08,0.92,0.215,1.38,0.405c0.46,0.19,0.895,0.44,1.305,0.75
		c0.41,0.311,0.755,0.695,1.035,1.155h0.061v-7.98h2.55v21.42H608.322z M599.157,115.95c0.189,0.69,0.479,1.305,0.869,1.845
		c0.391,0.54,0.89,0.971,1.5,1.29c0.61,0.32,1.325,0.48,2.146,0.48c0.859,0,1.59-0.169,2.189-0.51
		c0.601-0.34,1.09-0.785,1.471-1.335c0.38-0.55,0.654-1.175,0.825-1.875c0.169-0.7,0.255-1.41,0.255-2.13
		c0-0.76-0.09-1.495-0.271-2.205c-0.18-0.71-0.465-1.335-0.854-1.875c-0.391-0.54-0.896-0.975-1.516-1.305s-1.37-0.495-2.25-0.495
		c-0.859,0-1.59,0.17-2.189,0.51c-0.601,0.34-1.08,0.79-1.44,1.35c-0.359,0.56-0.62,1.2-0.78,1.92c-0.16,0.72-0.239,1.46-0.239,2.22
		C598.872,114.555,598.967,115.26,599.157,115.95z"/>
	<path fill="#E30613" d="M625.782,120.465c-1.16,0.88-2.621,1.32-4.381,1.32c-1.24,0-2.314-0.2-3.225-0.6s-1.675-0.96-2.295-1.68
		c-0.62-0.72-1.085-1.58-1.395-2.58c-0.311-1-0.485-2.09-0.525-3.27c0-1.18,0.18-2.26,0.54-3.24c0.36-0.979,0.864-1.83,1.515-2.55
		c0.65-0.72,1.42-1.28,2.311-1.68c0.89-0.4,1.864-0.6,2.925-0.6c1.38,0,2.524,0.285,3.435,0.855c0.91,0.57,1.64,1.295,2.19,2.175
		c0.55,0.88,0.93,1.84,1.14,2.88c0.21,1.04,0.295,2.03,0.255,2.97h-11.609c-0.021,0.68,0.06,1.325,0.239,1.935
		c0.181,0.61,0.47,1.15,0.87,1.62c0.4,0.47,0.91,0.845,1.53,1.125c0.62,0.28,1.35,0.42,2.19,0.42c1.08,0,1.965-0.25,2.654-0.75
		c0.69-0.5,1.146-1.26,1.365-2.28h2.521C627.691,118.275,626.941,119.585,625.782,120.465z M625.167,110.505
		c-0.23-0.54-0.54-1.005-0.93-1.395c-0.391-0.39-0.851-0.7-1.381-0.93c-0.529-0.23-1.115-0.345-1.755-0.345
		c-0.66,0-1.255,0.115-1.785,0.345c-0.529,0.23-0.985,0.545-1.364,0.945c-0.381,0.4-0.681,0.865-0.9,1.395
		c-0.221,0.53-0.35,1.095-0.39,1.695h8.91C625.531,111.615,625.396,111.045,625.167,110.505z"/>
	<path fill="#E30613" d="M641.951,100.035v21.42h-2.55v-21.42H641.951z"/>
	<path fill="#E30613" d="M657.821,121.785c-0.66,0-1.186-0.185-1.575-0.555c-0.39-0.37-0.585-0.975-0.585-1.815
		c-0.7,0.84-1.515,1.445-2.445,1.815c-0.93,0.37-1.935,0.555-3.015,0.555c-0.7,0-1.36-0.075-1.979-0.225
		c-0.621-0.15-1.166-0.4-1.636-0.75c-0.47-0.35-0.84-0.8-1.109-1.35c-0.271-0.55-0.405-1.215-0.405-1.995
		c0-0.879,0.15-1.6,0.45-2.16c0.3-0.56,0.694-1.015,1.185-1.365c0.49-0.35,1.05-0.615,1.68-0.795c0.631-0.18,1.275-0.33,1.936-0.45
		c0.7-0.14,1.365-0.245,1.995-0.315c0.63-0.07,1.185-0.169,1.665-0.3c0.479-0.13,0.859-0.32,1.14-0.57s0.42-0.615,0.42-1.095
		c0-0.56-0.104-1.01-0.314-1.35c-0.21-0.34-0.48-0.6-0.811-0.78c-0.33-0.18-0.7-0.3-1.109-0.36c-0.41-0.06-0.815-0.09-1.216-0.09
		c-1.08,0-1.979,0.206-2.699,0.615c-0.721,0.41-1.11,1.185-1.17,2.325h-2.551c0.04-0.96,0.24-1.77,0.601-2.43
		c0.359-0.66,0.84-1.195,1.439-1.605c0.601-0.41,1.29-0.705,2.07-0.885c0.78-0.18,1.6-0.27,2.46-0.27c0.7,0,1.395,0.05,2.085,0.15
		c0.69,0.101,1.314,0.305,1.875,0.615c0.56,0.31,1.01,0.745,1.35,1.305s0.511,1.29,0.511,2.19v7.98c0,0.6,0.034,1.04,0.104,1.32
		c0.07,0.28,0.305,0.42,0.705,0.42c0.22,0,0.48-0.049,0.78-0.15v1.98C659.211,121.655,658.602,121.785,657.821,121.785z
		 M654.251,113.97c-0.521,0.11-1.064,0.2-1.635,0.27c-0.57,0.07-1.146,0.15-1.725,0.24c-0.581,0.09-1.101,0.235-1.561,0.435
		c-0.46,0.2-0.835,0.485-1.125,0.855c-0.29,0.371-0.435,0.875-0.435,1.515c0,0.42,0.085,0.775,0.255,1.065
		c0.17,0.29,0.39,0.525,0.66,0.705c0.27,0.18,0.59,0.31,0.96,0.39c0.369,0.08,0.744,0.12,1.125,0.12c0.84,0,1.56-0.115,2.16-0.345
		c0.6-0.23,1.09-0.52,1.47-0.87c0.38-0.35,0.66-0.73,0.84-1.14c0.18-0.41,0.27-0.795,0.27-1.155v-2.61
		C655.191,113.685,654.771,113.86,654.251,113.97z"/>
	<path fill="#E30613" d="M487.05,133.065c-1.091-0.76-2.385-1.14-3.885-1.14c-1.28,0-2.376,0.24-3.285,0.72
		c-0.91,0.48-1.66,1.125-2.25,1.935c-0.591,0.81-1.025,1.735-1.306,2.775s-0.42,2.12-0.42,3.239c0,1.221,0.14,2.376,0.42,3.466
		s0.715,2.039,1.306,2.85c0.59,0.81,1.345,1.455,2.265,1.935c0.92,0.48,2.02,0.721,3.3,0.721c0.94,0,1.775-0.155,2.505-0.466
		c0.73-0.31,1.36-0.739,1.891-1.289c0.529-0.551,0.944-1.205,1.245-1.966c0.3-0.76,0.479-1.579,0.54-2.46h2.85
		c-0.28,2.7-1.21,4.801-2.79,6.301s-3.74,2.25-6.479,2.25c-1.661,0-3.11-0.285-4.351-0.855s-2.27-1.354-3.09-2.355
		c-0.82-0.999-1.436-2.18-1.845-3.539c-0.41-1.36-0.615-2.82-0.615-4.381c0-1.56,0.22-3.024,0.66-4.395
		c0.439-1.37,1.085-2.565,1.935-3.585s1.91-1.825,3.181-2.415c1.27-0.59,2.725-0.885,4.364-0.885c1.12,0,2.18,0.15,3.181,0.45
		c0.999,0.3,1.89,0.74,2.67,1.32c0.779,0.581,1.43,1.305,1.95,2.175c0.52,0.87,0.859,1.875,1.02,3.015h-2.85
		C488.845,134.965,488.14,133.825,487.05,133.065z"/>
	<path fill="#E30613" d="M494.983,140.521c0.32-0.99,0.8-1.851,1.44-2.58c0.64-0.73,1.43-1.306,2.37-1.726
		c0.939-0.42,2.02-0.63,3.24-0.63c1.239,0,2.324,0.21,3.255,0.63c0.93,0.42,1.715,0.995,2.354,1.726c0.64,0.729,1.12,1.59,1.44,2.58
		c0.319,0.989,0.479,2.055,0.479,3.194c0,1.141-0.16,2.2-0.479,3.181c-0.32,0.979-0.801,1.835-1.44,2.564
		c-0.64,0.73-1.425,1.301-2.354,1.71c-0.931,0.41-2.016,0.615-3.255,0.615c-1.221,0-2.301-0.205-3.24-0.615
		c-0.94-0.409-1.73-0.979-2.37-1.71c-0.641-0.729-1.12-1.585-1.44-2.564c-0.319-0.98-0.479-2.04-0.479-3.181
		C494.504,142.575,494.664,141.51,494.983,140.521z M497.579,146.22c0.25,0.73,0.595,1.341,1.035,1.83
		c0.439,0.49,0.954,0.865,1.545,1.125c0.589,0.261,1.215,0.391,1.875,0.391c0.659,0,1.284-0.13,1.875-0.391
		c0.589-0.26,1.104-0.635,1.545-1.125c0.439-0.489,0.784-1.1,1.035-1.83c0.249-0.729,0.375-1.564,0.375-2.505
		c0-0.939-0.126-1.774-0.375-2.505c-0.251-0.729-0.596-1.345-1.035-1.845c-0.44-0.5-0.956-0.88-1.545-1.141
		c-0.591-0.259-1.216-0.39-1.875-0.39c-0.66,0-1.286,0.131-1.875,0.39c-0.591,0.261-1.105,0.641-1.545,1.141
		c-0.44,0.5-0.785,1.115-1.035,1.845c-0.251,0.73-0.375,1.565-0.375,2.505C497.204,144.655,497.328,145.49,497.579,146.22z"/>
	<path fill="#E30613" d="M514.964,135.945v2.279h0.06c1.16-1.759,2.83-2.64,5.01-2.64c0.96,0,1.83,0.2,2.61,0.6s1.33,1.08,1.65,2.04
		c0.52-0.84,1.204-1.489,2.055-1.95c0.85-0.459,1.785-0.69,2.805-0.69c0.78,0,1.485,0.085,2.115,0.255
		c0.63,0.17,1.17,0.435,1.62,0.795c0.45,0.36,0.8,0.825,1.05,1.396c0.25,0.569,0.375,1.255,0.375,2.055v11.37h-2.55v-10.17
		c0-0.48-0.04-0.93-0.12-1.35c-0.08-0.421-0.23-0.785-0.45-1.096c-0.22-0.31-0.524-0.555-0.915-0.734
		c-0.39-0.181-0.896-0.271-1.515-0.271c-1.26,0-2.25,0.36-2.97,1.08c-0.721,0.72-1.08,1.68-1.08,2.88v9.66h-2.551v-10.17
		c0-0.5-0.045-0.96-0.135-1.38s-0.245-0.785-0.465-1.095c-0.221-0.311-0.515-0.551-0.885-0.721s-0.846-0.255-1.425-0.255
		c-0.74,0-1.376,0.15-1.905,0.45c-0.53,0.3-0.96,0.66-1.29,1.08s-0.57,0.854-0.72,1.305c-0.15,0.45-0.226,0.825-0.226,1.125v9.66
		h-2.55v-15.51H514.964z"/>
	<path fill="#E30613" d="M540.793,135.945v2.1h0.061c0.42-0.859,1.08-1.484,1.979-1.875c0.9-0.39,1.891-0.585,2.971-0.585
		c1.199,0,2.244,0.22,3.135,0.66c0.89,0.44,1.63,1.035,2.22,1.785s1.035,1.615,1.335,2.595c0.3,0.98,0.45,2.021,0.45,3.12
		c0,1.101-0.146,2.141-0.435,3.12c-0.291,0.98-0.73,1.835-1.32,2.564c-0.59,0.73-1.33,1.306-2.22,1.726
		c-0.891,0.42-1.926,0.63-3.105,0.63c-0.38,0-0.806-0.04-1.274-0.12c-0.471-0.08-0.936-0.21-1.396-0.39
		c-0.46-0.181-0.896-0.425-1.305-0.735c-0.41-0.31-0.756-0.694-1.035-1.155h-0.061v7.98h-2.55v-21.42H540.793z M549.958,141.45
		c-0.189-0.69-0.479-1.305-0.869-1.845c-0.391-0.54-0.891-0.971-1.5-1.29c-0.61-0.32-1.325-0.48-2.146-0.48
		c-0.86,0-1.59,0.17-2.19,0.51c-0.6,0.341-1.09,0.785-1.47,1.335c-0.38,0.551-0.655,1.176-0.825,1.875
		c-0.17,0.701-0.255,1.41-0.255,2.131c0,0.76,0.09,1.495,0.271,2.204c0.18,0.711,0.465,1.335,0.854,1.875
		c0.391,0.54,0.896,0.976,1.516,1.306c0.619,0.33,1.369,0.495,2.25,0.495c0.88,0,1.614-0.17,2.205-0.511
		c0.589-0.34,1.064-0.789,1.425-1.35c0.359-0.56,0.619-1.2,0.779-1.92s0.24-1.46,0.24-2.22
		C550.243,142.845,550.148,142.14,549.958,141.45z"/>
	<path fill="#E30613" d="M566.384,151.455v-2.46h-0.061c-0.54,0.96-1.229,1.665-2.069,2.115c-0.841,0.45-1.83,0.675-2.971,0.675
		c-1.02,0-1.87-0.135-2.55-0.405c-0.68-0.27-1.229-0.654-1.65-1.155c-0.42-0.499-0.715-1.095-0.885-1.784
		c-0.17-0.69-0.255-1.455-0.255-2.295v-10.2h2.55v10.5c0,0.96,0.28,1.72,0.84,2.279c0.561,0.561,1.33,0.841,2.311,0.841
		c0.78,0,1.455-0.12,2.024-0.36c0.57-0.24,1.045-0.58,1.426-1.02c0.379-0.44,0.664-0.955,0.854-1.546
		c0.19-0.589,0.285-1.234,0.285-1.935v-8.76h2.55v15.51H566.384z"/>
	<path fill="#E30613" d="M579.253,135.945v2.25h-3.09v9.63c0,0.3,0.024,0.54,0.075,0.72c0.05,0.18,0.145,0.32,0.285,0.42
		c0.14,0.101,0.334,0.165,0.585,0.195c0.25,0.03,0.574,0.045,0.975,0.045h1.17v2.25h-1.95c-0.659,0-1.225-0.045-1.694-0.135
		c-0.471-0.09-0.851-0.255-1.141-0.495s-0.505-0.58-0.645-1.021c-0.141-0.439-0.21-1.02-0.21-1.739v-9.87h-2.641v-2.25h2.641v-4.65
		h2.55v4.65H579.253z"/>
	<path fill="#E30613" d="M593.983,151.785c-0.66,0-1.186-0.186-1.575-0.555c-0.39-0.37-0.585-0.976-0.585-1.815
		c-0.7,0.84-1.515,1.445-2.445,1.815c-0.93,0.369-1.935,0.555-3.015,0.555c-0.7,0-1.36-0.075-1.979-0.225
		c-0.621-0.15-1.166-0.4-1.636-0.75c-0.47-0.351-0.84-0.8-1.109-1.351c-0.271-0.55-0.405-1.215-0.405-1.995
		c0-0.88,0.15-1.6,0.45-2.16c0.3-0.56,0.694-1.015,1.185-1.364s1.05-0.615,1.68-0.795c0.631-0.181,1.275-0.33,1.936-0.45
		c0.7-0.14,1.365-0.245,1.995-0.315c0.63-0.069,1.185-0.17,1.665-0.3c0.479-0.13,0.859-0.319,1.14-0.57
		c0.28-0.25,0.42-0.614,0.42-1.095c0-0.56-0.104-1.01-0.314-1.35s-0.48-0.601-0.811-0.78s-0.7-0.3-1.109-0.36
		c-0.41-0.06-0.815-0.09-1.216-0.09c-1.08,0-1.979,0.205-2.699,0.615c-0.721,0.41-1.11,1.185-1.17,2.325h-2.551
		c0.04-0.96,0.24-1.771,0.601-2.431c0.359-0.659,0.84-1.194,1.439-1.604c0.601-0.41,1.29-0.705,2.07-0.885
		c0.78-0.18,1.6-0.27,2.46-0.27c0.7,0,1.395,0.05,2.085,0.15c0.69,0.101,1.314,0.305,1.875,0.615c0.56,0.31,1.01,0.746,1.35,1.305
		s0.511,1.29,0.511,2.189v7.98c0,0.6,0.034,1.04,0.104,1.32s0.305,0.42,0.705,0.42c0.22,0,0.48-0.05,0.78-0.15v1.98
		C595.373,151.654,594.764,151.785,593.983,151.785z M590.413,143.97c-0.521,0.11-1.064,0.2-1.635,0.271s-1.146,0.149-1.725,0.24
		c-0.581,0.09-1.101,0.235-1.561,0.435c-0.46,0.2-0.835,0.485-1.125,0.855s-0.435,0.875-0.435,1.515c0,0.42,0.085,0.775,0.255,1.064
		c0.17,0.291,0.39,0.525,0.66,0.705c0.27,0.181,0.59,0.311,0.96,0.391c0.369,0.08,0.744,0.12,1.125,0.12
		c0.84,0,1.56-0.115,2.16-0.346c0.6-0.229,1.09-0.52,1.47-0.87c0.38-0.35,0.66-0.729,0.84-1.14c0.18-0.409,0.27-0.795,0.27-1.155
		v-2.609C591.354,143.686,590.934,143.86,590.413,143.97z"/>
	<path fill="#E30613" d="M607.453,138.646c-0.641-0.54-1.5-0.811-2.58-0.811c-0.921,0-1.69,0.17-2.311,0.51
		c-0.62,0.341-1.115,0.791-1.484,1.351c-0.371,0.56-0.636,1.205-0.796,1.935c-0.16,0.73-0.239,1.485-0.239,2.266
		c0,0.72,0.085,1.42,0.255,2.1s0.435,1.285,0.795,1.815c0.36,0.529,0.83,0.955,1.41,1.274c0.58,0.32,1.27,0.48,2.069,0.48
		c1.261,0,2.245-0.33,2.955-0.99s1.146-1.59,1.306-2.79h2.609c-0.28,1.92-0.995,3.4-2.145,4.439
		c-1.15,1.041-2.715,1.561-4.695,1.561c-1.18,0-2.225-0.19-3.135-0.57s-1.67-0.92-2.28-1.62c-0.61-0.699-1.07-1.534-1.38-2.505
		c-0.311-0.97-0.465-2.034-0.465-3.194s0.15-2.245,0.45-3.256c0.3-1.009,0.755-1.89,1.364-2.64c0.61-0.75,1.375-1.34,2.296-1.77
		c0.919-0.43,1.989-0.645,3.21-0.645c0.88,0,1.704,0.105,2.475,0.315c0.77,0.21,1.45,0.536,2.04,0.975
		c0.59,0.44,1.075,0.995,1.455,1.665s0.619,1.466,0.72,2.385h-2.64C608.513,139.945,608.093,139.186,607.453,138.646z"/>
	<path fill="#E30613" d="M614.442,133.155v-3.12h2.55v3.12H614.442z M616.992,135.945v15.51h-2.55v-15.51H616.992z"/>
	<path fill="#E30613" d="M620.592,140.521c0.32-0.99,0.8-1.851,1.44-2.58c0.64-0.73,1.43-1.306,2.37-1.726
		c0.939-0.42,2.02-0.63,3.24-0.63c1.239,0,2.324,0.21,3.255,0.63c0.93,0.42,1.715,0.995,2.354,1.726c0.64,0.729,1.12,1.59,1.44,2.58
		c0.319,0.989,0.479,2.055,0.479,3.194c0,1.141-0.16,2.2-0.479,3.181c-0.32,0.979-0.801,1.835-1.44,2.564
		c-0.64,0.73-1.425,1.301-2.354,1.71c-0.931,0.41-2.016,0.615-3.255,0.615c-1.221,0-2.301-0.205-3.24-0.615
		c-0.94-0.409-1.73-0.979-2.37-1.71c-0.641-0.729-1.12-1.585-1.44-2.564c-0.319-0.98-0.479-2.04-0.479-3.181
		C620.112,142.575,620.272,141.51,620.592,140.521z M623.188,146.22c0.25,0.73,0.595,1.341,1.035,1.83
		c0.439,0.49,0.954,0.865,1.545,1.125c0.589,0.261,1.215,0.391,1.875,0.391c0.659,0,1.284-0.13,1.875-0.391
		c0.589-0.26,1.104-0.635,1.545-1.125c0.439-0.489,0.784-1.1,1.035-1.83c0.249-0.729,0.375-1.564,0.375-2.505
		c0-0.939-0.126-1.774-0.375-2.505c-0.251-0.729-0.596-1.345-1.035-1.845c-0.44-0.5-0.956-0.88-1.545-1.141
		c-0.591-0.259-1.216-0.39-1.875-0.39c-0.66,0-1.286,0.131-1.875,0.39c-0.591,0.261-1.105,0.641-1.545,1.141
		c-0.44,0.5-0.785,1.115-1.035,1.845c-0.251,0.73-0.375,1.565-0.375,2.505C622.813,144.655,622.937,145.49,623.188,146.22z
		 M631.662,129.525l-3.93,4.29h-1.92l2.58-4.29H631.662z"/>
	<path fill="#E30613" d="M640.572,135.945v2.46h0.06c1.06-1.88,2.74-2.82,5.04-2.82c1.021,0,1.87,0.14,2.55,0.42
		c0.68,0.28,1.23,0.671,1.65,1.17c0.42,0.5,0.715,1.096,0.885,1.785c0.17,0.69,0.255,1.455,0.255,2.295v10.2h-2.55v-10.5
		c0-0.96-0.28-1.72-0.84-2.28c-0.561-0.56-1.33-0.84-2.311-0.84c-0.779,0-1.454,0.12-2.024,0.36s-1.046,0.58-1.425,1.02
		c-0.381,0.44-0.665,0.955-0.855,1.545c-0.19,0.591-0.285,1.235-0.285,1.936v8.76h-2.55v-15.51H640.572z"/>
</g>
</svg>
