<?xml version="1.0" encoding="utf-8"?>
<!-- Generator: Adobe Illustrator 16.0.0, SVG Export Plug-In . SVG Version: 6.00 Build 0)  -->
<!DOCTYPE svg [
	<!ENTITY ns_extend "http://ns.adobe.com/Extensibility/1.0/">
	<!ENTITY ns_ai "http://ns.adobe.com/AdobeIllustrator/10.0/">
	<!ENTITY ns_graphs "http://ns.adobe.com/Graphs/1.0/">
	<!ENTITY ns_vars "http://ns.adobe.com/Variables/1.0/">
	<!ENTITY ns_imrep "http://ns.adobe.com/ImageReplacement/1.0/">
	<!ENTITY ns_sfw "http://ns.adobe.com/SaveForWeb/1.0/">
	<!ENTITY ns_custom "http://ns.adobe.com/GenericCustomNamespace/1.0/">
	<!ENTITY ns_adobe_xpath "http://ns.adobe.com/XPath/1.0/">
]>
<svg version="1.2" baseProfile="tiny" id="Layer_1" xmlns:x="&ns_extend;" xmlns:i="&ns_ai;" xmlns:graph="&ns_graphs;"
	 xmlns="http://www.w3.org/2000/svg" xmlns:xlink="http://www.w3.org/1999/xlink" x="0px" y="0px" width="792px" height="183px"
	 viewBox="0 0 792 183" xml:space="preserve">
<metadata>
	<sfw  xmlns="&ns_sfw;">
		<slices></slices>
		<sliceSourceBounds  height="131.057" width="734.187" x="31.968" y="-154.755" bottomLeftOrigin="true"></sliceSourceBounds>
	</sfw>
</metadata>
<g>
	<path fill-rule="evenodd" fill="#BE222E" d="M363.93,153.992c-6.65,0-12.68,0-19.375,0c0-15.07-0.003-30.021,0.001-44.971
		c0.001-4.495-0.421-8.875-2.234-13.098c-5.441-12.67-19.92-20.65-33.132-18.127c-15.34,2.93-25.313,14.36-25.443,29.383
		c-0.13,15.156-0.106,30.314-0.161,45.472c-0.001,0.277-0.149,0.554-0.327,1.173c-6.033,0-12.177,0-19.015,0
		c0-6.882-0.184-13.886,0.041-20.876c0.397-12.373-1.746-24.93,1.303-37.09c4.617-18.415,16.965-29.939,34.957-34.836
		c18.654-5.077,35.365-0.629,49.525,12.732c1.353,1.277,2.603,2.662,4.214,4.32c8.601-9.56,18.902-15.868,31.563-18.346
		c29.493-5.772,57.753,16.393,58.401,46.34c0.343,15.836,0.06,31.685,0.06,47.802c-6.542,0-12.678,0-19.547,0
		c0-15.13-0.068-30.214,0.033-45.295c0.039-5.909-1.095-11.384-4.159-16.507c-6.939-11.602-21.339-17.171-34.984-13.385
		c-12.682,3.519-21.658,15.247-21.707,28.543C363.887,122.647,363.93,138.069,363.93,153.992z"/>
	<path fill-rule="evenodd" fill="#404042" d="M125.388,95.426c-6.181,0-12.082,0-17.905,0C97.75,77.695,81.771,75.08,69.184,79.658
		c-12.627,4.593-20.016,16.813-19.031,31.195c0.748,10.917,11.793,22.843,23.546,25.422c13.574,2.979,25.652-3.515,33.957-18.472
		c5.814,0,11.806,0,17.8,0.003c-0.042,16.791-22.338,35.978-42.686,36.736c-27.335,1.017-48.647-17.581-50.67-44.222
		c-1.879-24.74,16.567-46.851,41.681-49.963C97.92,57.366,121.75,73.372,125.388,95.426z"/>
	<path fill-rule="evenodd" fill="#BE222E" d="M650.486,95.361c-5.881,0-11.756,0-17.566,0c-13.64-17.092-23.88-21.19-38.664-15.533
		c-11.991,4.589-19.682,16.688-18.862,29.677c0.737,11.693,10.925,23.548,22.808,26.538c13.869,3.491,25.29-2.413,35.146-18.296
		c5.751,0,11.62,0,17.491,0c-0.122,17.762-23.308,36.682-44.859,36.757c-27.014,0.093-47.866-19.769-48.337-46.042
		c-0.478-26.713,19.73-47.74,46.494-48.378C626.732,59.547,649.872,77.068,650.486,95.361z"/>
	<path fill-rule="evenodd" fill="#414142" d="M254.251,53.77c-5.906,0-11.326,0-16.978,0c0-6.347,0-12.448,0-18.797
		c5.678,0,11.206,0,16.978,0C254.251,41.248,254.251,47.352,254.251,53.77z"/>
	<path fill-rule="evenodd" fill="#404041" d="M254.27,154.39c-24.56,0-48.915-0.007-73.268,0.006
		c-5.054,0.002-10.058-0.228-15.005-1.483c-20.762-5.27-35.872-26.012-35.111-48.323c0.724-21.209,17.79-40.515,39.272-44.424
		c21.869-3.981,44.111,7.521,52.108,27.344c3.318,8.224,3.449,17.081,3.799,26.197c-25.293,0-50.212,0-75.143,0
		c0.387,10.93,12.379,22.308,24.852,22.599c20.189,0.471,40.396,0.126,61.123,0.126c0-25.417,0-50.71,0-76.209
		c6.066,0,11.605,0,17.374,0C254.27,91.529,254.27,122.624,254.27,154.39z M204.032,96.751
		c-2.968-10.213-14.317-17.915-26.479-18.203c-11.456-0.271-23.131,7.579-26.61,18.203
		C168.698,96.751,186.322,96.751,204.032,96.751z"/>
	<path fill-rule="evenodd" fill="#BE222E" d="M546.693,113.782c-25.411,0-50.331,0-75.279,0
		c0.935,11.422,12.313,21.937,25.214,22.484c14.121,0.599,28.284,0.241,42.43,0.299c1.837,0.007,3.674,0.001,5.751,0.001
		c0,5.963,0,11.517,0,17.667c-19.277-0.665-38.542,2.372-57.445-1.442c-21.252-4.287-36.229-25.003-35.813-47.572
		c0.391-21.181,17.323-40.823,38.787-44.991c21.721-4.218,44.033,7.108,52.373,26.925
		C546.176,95.387,546.176,104.305,546.693,113.782z M497.396,78.539c-11.617,0.277-23.159,8.359-25.807,18.264
		c17.722,0,35.38,0,53.139,0C521.596,86.198,509.515,78.249,497.396,78.539z"/>
	<path fill-rule="evenodd" fill="#404042" d="M643.359,109.365c0-2.355,0-4.307,0-6.746c7.693,0.938,14.139-0.522,16.987-8.438
		c2.408-6.695-0.657-11.654-5.938-15.999c1.779-1.622,3.336-3.04,5.068-4.619c4.274,5.994,9.562,9.218,16.736,6.48
		c6.931-2.646,9.171-8.232,8.219-15.51c2.514,0,4.708,0,7.086,0c-1.548,7.3,0.351,13.07,7.038,16.16
		c6.891,3.185,12.55,0.506,17.303-5.406c1.594,1.692,3.024,3.21,4.645,4.929c-6.113,4.309-9.3,9.607-6.476,16.79
		c2.723,6.926,8.388,8.988,15.603,8.047c0,2.481,0,4.669,0,7.089c-7.499-1.489-13.416,0.425-16.412,7.403
		c-2.894,6.742-0.426,12.301,5.604,16.757c-1.777,1.701-3.417,3.269-5.196,4.974c-3.615-6.203-8.919-8.998-15.652-7.053
		c-7.696,2.223-10.29,8.153-9.119,15.977c-2.52,0-4.62,0-6.978,0c1.32-7.533-0.176-13.805-7.729-16.882
		c-6.945-2.83-12.258,0.115-16.763,6c-1.672-1.752-3.2-3.353-4.89-5.125c6.377-4.492,9.698-10.044,6.313-17.505
		C655.938,110.366,650.454,108.422,643.359,109.365z M686.53,126.01c10.337-0.051,18.799-8.452,18.781-18.645
		c-0.02-10.371-8.224-18.553-18.655-18.604c-10.522-0.051-18.608,7.967-18.642,18.485
		C667.981,117.639,676.294,126.063,686.53,126.01z"/>
	<path fill-rule="evenodd" fill="#404041" d="M702.792,49.968c0.431-1.813,0.722-3.039,1.109-4.67
		c5.325,1.786,10.329,1.651,13.616-3.611c2.745-4.396,1.302-8.509-1.782-12.44c1.379-0.864,2.579-1.616,4.048-2.536
		c2.699,4.625,5.9,8.52,11.894,7.133c4.978-1.153,7.333-4.7,7.798-10.146c1.647,0.369,3.089,0.691,4.833,1.081
		c-1.589,5.293-1.722,10.291,3.463,13.436c4.319,2.62,8.576,1.683,12.605-1.762c0.904,1.426,1.705,2.691,2.633,4.156
		c-4.915,2.4-8.198,5.719-7.274,11.253c0.916,5.481,4.997,7.707,10.421,8.416c-0.483,1.707-0.896,3.166-1.361,4.805
		c-5.209-2.054-9.953-1.662-13.153,3.066c-2.901,4.287-2.096,8.688,1.628,12.732c-1.569,0.988-2.86,1.8-4.345,2.734
		c-2.316-4.776-5.458-8.056-11.123-7.22c-5.636,0.833-7.78,4.779-8.583,10.096c-1.65-0.385-3.136-0.732-4.842-1.129
		c2.114-4.961,1.953-9.416-2.138-12.762c-4.629-3.783-9.323-2.367-13.843,0.994c-0.888-1.409-1.632-2.588-2.571-4.076
		c5.086-2.458,8.425-6.083,7.127-11.886C711.84,52.667,708.043,50.429,702.792,49.968z M748.319,55.129
		c-0.101-7.678-6.529-13.915-14.232-13.808c-7.218,0.1-13.313,6.309-13.383,13.635c-0.075,7.813,6.008,13.905,13.871,13.892
		C742.092,68.836,748.415,62.523,748.319,55.129z"/>
</g>
</svg>
