<?xml version="1.0" encoding="utf-8"?>
<!-- Generator: Adobe Illustrator 16.0.0, SVG Export Plug-In . SVG Version: 6.00 Build 0)  -->
<!DOCTYPE svg PUBLIC "-//W3C//DTD SVG 1.1//EN" "http://www.w3.org/Graphics/SVG/1.1/DTD/svg11.dtd" [
	<!ENTITY ns_extend "http://ns.adobe.com/Extensibility/1.0/">
	<!ENTITY ns_ai "http://ns.adobe.com/AdobeIllustrator/10.0/">
	<!ENTITY ns_graphs "http://ns.adobe.com/Graphs/1.0/">
	<!ENTITY ns_vars "http://ns.adobe.com/Variables/1.0/">
	<!ENTITY ns_imrep "http://ns.adobe.com/ImageReplacement/1.0/">
	<!ENTITY ns_sfw "http://ns.adobe.com/SaveForWeb/1.0/">
	<!ENTITY ns_custom "http://ns.adobe.com/GenericCustomNamespace/1.0/">
	<!ENTITY ns_adobe_xpath "http://ns.adobe.com/XPath/1.0/">
]>
<svg version="1.1" id="Layer_1" xmlns:x="&ns_extend;" xmlns:i="&ns_ai;" xmlns:graph="&ns_graphs;"
	 xmlns="http://www.w3.org/2000/svg" xmlns:xlink="http://www.w3.org/1999/xlink" x="0px" y="0px" width="792px" height="221px"
	 viewBox="0 0 792 221" enable-background="new 0 0 792 221" xml:space="preserve">
<metadata>
	<sfw  xmlns="&ns_sfw;">
		<slices></slices>
		<sliceSourceBounds  width="727.826" height="16383" x="29" y="-8498" bottomLeftOrigin="true"></sliceSourceBounds>
	</sfw>
</metadata>
<path fill="#363530" d="M93.543,34.92c32.676,0,46.173,26.901,46.173,47.661c0,20.759,0,21.446,0,63.552
	s-46.669,42.199-46.669,42.199H29V34.92C29,34.92,60.866,34.92,93.543,34.92z M58.293,61.729v100.789h30.285
	c0,0,20.356-0.995,20.356-20.359c0-19.363,0-60.57,0-60.57s-2.981-19.366-24.577-19.86C62.762,61.235,58.293,61.729,58.293,61.729z"
	/>
<rect x="157.093" y="34.92" fill="#D22D27" width="29.79" height="153.413"/>
<polygon fill="#363530" points="209.224,34.92 209.224,188.333 239.51,188.333 239.51,100.214 269.299,158.052 290.151,157.558 
	319.94,100.214 319.94,188.333 348.24,188.333 348.24,34.92 319.692,34.925 279.228,116.947 239.51,34.92 "/>
<polygon fill="#363530" points="471.865,34.92 371.08,34.92 371.08,188.333 471.865,188.333 471.865,162.021 401.364,162.021 
	401.364,122.922 461.438,122.922 461.438,99.09 401.364,99.181 401.364,61.578 471.865,61.854 "/>
<path fill="#363530" d="M593.504,81.59c0,0,0.39-46.669-51.633-46.669c-52.024,0-56.103,42.352-56.103,51.635
	c0,9.283,0,45.353,0,48.654c0,3.303-0.995,53.124,53.993,53.124c54.487,0,53.37-47.413,53.37-47.413h-25.694
	c0,0-2.479,24.298-27.676,24.33c-21.94,0.029-26.521-22.529-26.502-30.288c0.021-7.758,0.127-36.43,0.063-44.436
	s0.641-28.899,26.438-28.899c25.797,0,27.676,19.962,27.676,19.962H593.504z"/>
<path fill="#838687" d="M621.307,98.221v26.315h-65.793v7.447c0,0,1.405,19.735-14.396,19.735
	c-16.501,0-15.887-19.735-15.887-19.735l-0.003-41.704c0,0-1.868-17.751,15.89-17.751c16.268,0,14.266,17.812,14.266,17.812
	l0.015,7.633L621.307,98.221z"/>
<path fill="#108BC7" d="M637.889,84.755h-9.197v38.167c0,0,0.385,16.197,20.498,16.197c20.111,0,19.347-16.197,19.347-16.197
	l0.003-38.167h-9.199v37.236c0,0-2.063,7.745-10.15,7.913c-8.907,0.186-11.301-8.006-11.301-8.006V84.755z"/>
<path fill="#108BC7" d="M712.41,101.319c0,0,0.143-16.564-18.328-16.564c-18.472,0-19.918,15.037-19.918,18.327
	c0,3.302,0,16.108,0,17.28c0,1.169-0.357,18.856,19.162,18.856c19.35,0,18.95-16.829,18.95-16.829h-9.117
	c0,0-0.887,8.616-9.833,8.637c-7.781,0.011-9.413-7.997-9.402-10.757c0-2.75,0.042-12.928,0.021-15.771
	c-0.021-2.842,0.224-10.26,9.382-10.26c9.162,0,9.833,7.08,9.833,7.08H712.41z"/>
<polygon fill="#108BC7" points="718.349,84.755 727.037,84.755 727.037,107.777 748.137,107.777 748.137,84.804 756.826,84.804 
	756.826,139.17 748.137,139.17 748.137,116.47 727.037,116.47 727.037,139.12 718.349,139.12 "/>
</svg>
