<?xml version="1.0" encoding="utf-8"?>
<!-- Generator: Adobe Illustrator 16.0.0, SVG Export Plug-In . SVG Version: 6.00 Build 0)  -->
<!DOCTYPE svg PUBLIC "-//W3C//DTD SVG 1.1//EN" "http://www.w3.org/Graphics/SVG/1.1/DTD/svg11.dtd" [
	<!ENTITY ns_extend "http://ns.adobe.com/Extensibility/1.0/">
	<!ENTITY ns_ai "http://ns.adobe.com/AdobeIllustrator/10.0/">
	<!ENTITY ns_graphs "http://ns.adobe.com/Graphs/1.0/">
	<!ENTITY ns_vars "http://ns.adobe.com/Variables/1.0/">
	<!ENTITY ns_imrep "http://ns.adobe.com/ImageReplacement/1.0/">
	<!ENTITY ns_sfw "http://ns.adobe.com/SaveForWeb/1.0/">
	<!ENTITY ns_custom "http://ns.adobe.com/GenericCustomNamespace/1.0/">
	<!ENTITY ns_adobe_xpath "http://ns.adobe.com/XPath/1.0/">
]>
<svg version="1.1" id="Layer_1" xmlns:x="&ns_extend;" xmlns:i="&ns_ai;" xmlns:graph="&ns_graphs;"
	 xmlns="http://www.w3.org/2000/svg" xmlns:xlink="http://www.w3.org/1999/xlink" x="0px" y="0px" width="792px" height="300px"
	 viewBox="0 0 792 300" enable-background="new 0 0 792 300" xml:space="preserve">
<metadata>
	<sfw  xmlns="&ns_sfw;">
		<slices></slices>
		<sliceSourceBounds  height="415.893" width="16383" y="182.392" x="-7796" bottomLeftOrigin="true"></sliceSourceBounds>
	</sfw>
</metadata>
<g>
	<rect x="238.073" y="124.54" fill="#73797D" width="24.393" height="114.137"/>
	<path fill="#E30613" d="M214.909,146.367h12.143v22.983h-12.143v65.329c-2.717,23.075-17.728,40.349-42.04,39.391v-22.974
		c10.358,0.35,16.531-3.603,17.608-15.878l0.065-65.867h-11.455v-22.979h11.455l0.004-15.45
		c0.574-24.345,15.504-42.249,42.45-39.149v22.778c-11.529-0.915-17.978,3.771-18.091,16.555v15.265L214.909,146.367
		L214.909,146.367z"/>
	<circle fill="#73797D" cx="250.16" cy="106.111" r="12.087"/>
	<path fill="#73797D" d="M153.464,154.466c0-16.348,0.006-49.854,0.006-49.854l22.213,0.014c0,0,0.001,56.703-0.004,84.615
		c-0.002,2.251,0.027,4.494-0.054,6.746c-0.135,3.729-0.678,7.387-1.698,10.977c-1.927,6.763-5.396,12.617-10.183,17.704
		c-3.703,3.938-7.901,7.193-12.758,9.549c-4.832,2.345-9.923,3.661-15.26,4.051c-5.118,0.369-10.186,0.066-15.179-1.174
		c-8.361-2.079-15.343-6.489-21.176-12.845c-3.957-4.307-6.988-9.188-8.923-14.75c-2.129-6.109-2.806-12.409-2.394-18.855
		c0.22-3.455,0.762-6.853,1.811-10.146c3.78-11.867,11.389-20.476,22.207-26.176c6.981-3.679,14.529-4.871,22.359-4.458
		c5.548,0.291,10.842,1.59,15.896,3.92c1.033,0.475,2.041,1.01,3.136,1.549C153.464,154.992,153.464,154.73,153.464,154.466z
		 M153.464,193.995c0.383-11.274-9.737-21.981-21.863-21.823c-11.583,0.149-21.537,9.895-21.545,21.852
		c-0.009,11.931,10.1,22.086,21.985,22.005C143.925,215.946,153.828,205.612,153.464,193.995z"/>
</g>
<g>
	<path fill="none" stroke="#73797D" stroke-width="1.9399" stroke-miterlimit="3.8635" d="M392.37,109.791v123.721
		c0,2.363-1.908,4.283-4.263,4.283h-38.779c-2.593-0.063-4.467,4.27-4.467,4.27s-1.882-4.334-4.591-4.27
		c0.003-0.004-38.689,0-38.689,0c-2.354,0-4.263-1.92-4.263-4.283L297.315,109.8L392.37,109.791L392.37,109.791z"/>
	<path fill="none" stroke="#73797D" stroke-width="0.9654" stroke-miterlimit="3.8637" d="M359.102,129.491l-3.777-6.022
		c-4.524,1.045-3.413-2.88-0.961-4.423c2.695-1.691,5.742-1.096,3.787,2.648c0,0,0.871,1.417,2.324,3.729
		C360.475,125.424,359.482,127.309,359.102,129.491L359.102,129.491z M375.813,149.686l10.293,16.347l-0.757,0.761l-3.608-2.861
		c0,0-0.22-2.391-0.793-2.883c-1.938-1.673-0.789-2.594-1.539-4.146c-0.749-1.547-5.146-2.741-6.17-5.067
		c0.02,0.112-1.693-2.717-1.693-2.717C375.47,148.424,375.813,149.686,375.813,149.686L375.813,149.686z M363.745,130.408
		c-0.017-0.035,3.659,6.018,3.645,5.939c-2.274-0.275-3.379-0.929-3.831-2.152C363.022,132.816,363.441,130.982,363.745,130.408
		L363.745,130.408z M308.73,187.96l8.036,20.292 M309.386,188.549l7.459,14.42 M309.933,188.77l6.784,10.18 M310.335,188.587
		l6.22,7.392 M310.258,187.9l9.006,8.512 M310.185,187.402l12.34,9.232 M309.991,186.979l18.118,10.639 M319.788,154.624
		l-0.275,6.271h3.654l-0.277-6.271H319.788L319.788,154.624z M322.821,152.9l-1.486-33.625l-1.52,33.625H322.821L322.821,152.9z
		 M315.169,152.936h12.334v1.687h-12.334V152.936L315.169,152.936z M325.226,160.904c0,2.521-1.742,4.265-3.891,4.265
		c-2.146,0-3.889-1.741-3.889-4.265H325.226L325.226,160.904z M315.675,137.633c0,3.221-2.661,5.832-5.942,5.832
		s-5.943-2.611-5.943-5.832H315.675L315.675,137.633z M364.468,129.184c0,0,1.313,1.783,2.718,0.953
		c2.573-1.521-0.604-10.189-5.903-5.779c-1.165,0.973-2.723,5.478-2.421,8.365c0.304,2.892,1.586,6.545,4.843,7.301
		c1.965,0.457,5.881-0.637,7.508,2.041c1.209-0.453,2.53-5.229-0.848-5.387c-3.332-0.15-6.152-0.721-6.66-2.129
		C362.495,131.201,364.468,129.184,364.468,129.184L364.468,129.184z M367.47,142.738c-1.31,0.636-2.269,2.15-1.812,3.835
		c0.457,1.687,2.503,2.692,5.394,2.54c0.162-0.008,0.313-0.021,0.461-0.028c2.558-0.19,3.699-0.5,4.563,0.947
		c0.913-1.071,0.648-3.459-0.651-4.563C373.449,143.783,368.313,145.922,367.47,142.738L367.47,142.738z M373.188,151.866
		c-0.304,1.379-1.235,3.224-0.457,4.897c1.063,2.295,3.043,1.071,3.653,2.444c0.606,1.374,0.022,3.427,1.369,3.827
		c2.588,0.766,1.678,3.363,3.047,3.212c1.211-0.136,1.254-4.2,0-5.354c-1.828-1.686-0.61-2.908-1.521-4.285
		C378.361,155.232,375.013,154.62,373.188,151.866L373.188,151.866z"/>
	<path fill="none" stroke="#73797D" stroke-width="0.6207" stroke-miterlimit="3.8637" d="M346.55,160.426
		c0-0.095,0.076-0.17,0.172-0.17c0.096,0,0.171,0.075,0.171,0.17c0,0.096-0.075,0.17-0.171,0.17
		C346.627,160.602,346.55,160.52,346.55,160.426L346.55,160.426z M365.816,126.152c0.247-0.088,0.539,0.094,0.651,0.406
		c0.113,0.315,0.006,0.646-0.236,0.735c-0.246,0.092-0.539-0.092-0.65-0.408C365.466,126.573,365.574,126.243,365.816,126.152
		L365.816,126.152z"/>
	<path fill="none" stroke="#73797D" stroke-width="0.9654" stroke-miterlimit="3.8637" d="M318.708,208.262
		c0-4.869,3.923-8.808,8.765-8.808c4.842,0,8.765,3.938,8.765,8.808c0,4.861-3.923,8.807-8.765,8.807
		C322.629,217.068,318.708,213.123,318.708,208.262L318.708,208.262z M336.541,229.906h-4.265v-8.235h-26.224v-4.213h30.487
		L336.541,229.906L336.541,229.906z M309.843,209.225c0-0.988,0.8-1.795,1.791-1.795c0.987,0,1.786,0.807,1.786,1.795
		c0,0.994-0.799,1.799-1.786,1.799C310.645,211.023,309.843,210.221,309.843,209.225L309.843,209.225z M309.922,208.71l-3.063,8.707
		l4.731-6.394 M313.342,208.71l3.061,8.707l-4.731-6.394 M319.964,204.121c-0.442,2.4,4.035,2.371,3.654,3.674
		c-0.918,3.135,0.913,3.021,1.218,4.666c0,0-0.305,3.898,0.76,4.209c0.61-0.84,0.154-2.486,0.913-3.367
		c0.801-0.916,1.904-1.418,1.904-3.057c0-1.191-1.65-1.568-2.134-1.914c-0.531-0.383-1.522-0.689-2.206-0.689
		c0,0-1.751-3.365-1.218-3.979c0.607-0.533,1.523,0.763,1.901,0.763c0.8,0,0.95-1.604,2.207-1.604c0-0.386-0.077-1.571-0.305-1.688
		c-1.257,0-2.053,0.614-3.122-0.688C323.542,200.441,320.409,201.712,319.964,204.121L319.964,204.121z M330.208,199.794
		c-0.98-0.376-2.477-0.228-2.477-0.228c1.296,0.613,1.22,2.33,1.752,2.33c1.068,0,1.599-0.877,2.664-1.067
		C332.149,200.829,331.187,200.17,330.208,199.794L330.208,199.794z M336.151,206.521c0-2.201-2.939-4.93-2.939-4.93
		s-1.446,2.68-0.764,5.434c0.686,0.074,2.665-0.152,2.665-0.152c0.497,0.229,0.304,1.033,0.304,1.527c0,1.227-0.381,4.36-0.381,4.36
		S336.151,208.729,336.151,206.521L336.151,206.521z"/>
	<polygon fill="none" stroke="#73797D" stroke-width="0.6207" stroke-miterlimit="3.8637" points="308.462,183.217 307.567,185.148 
		305.504,185.396 307.016,186.823 306.608,188.885 308.434,187.878 310.301,188.9 309.935,186.803 311.403,185.396 309.339,185.107 
			"/>
	
		<line fill="none" stroke="#73797D" stroke-width="1.9399" stroke-miterlimit="3.8635" x1="344.842" y1="189.357" x2="344.842" y2="241.719"/>
	
		<path fill="none" stroke="#73797D" stroke-width="0.9657" stroke-linecap="round" stroke-linejoin="round" stroke-miterlimit="3.8637" d="
		M352.402,214.828l-2.252,2.561c-0.301,0.352-0.142,2.717,0.01,3.396c1.778,0.713,26.972,8.637,26.972,8.637l10.248-11.168
		l-1.603-0.689c-0.453-0.729,0.998-3.189,0.998-3.189l-4.96-1.956 M377.146,224.467c-0.399,0.324-0.306,4.512,0.019,4.977
		c0.021,0,10.217-11.188,10.217-11.188l-1.059-0.964c-0.09-1.006,0.182-2.822,0.182-2.822L377.146,224.467L377.146,224.467z
		 M376.191,217.583c-0.42,0.19-0.67,5.677-0.101,5.713c0.002-0.005,8.416-9.56,8.416-9.56l-0.814-0.459L376.191,217.583
		L376.191,217.583z"/>
	
		<path fill="none" stroke="#73797D" stroke-width="0.6204" stroke-linecap="round" stroke-linejoin="round" stroke-miterlimit="3.8637" d="
		M355.482,210.334l-2.629,2.686c-0.377,0.203-0.093,2.721,0,3.426c0.921,0.253,23.228,6.879,23.228,6.879l8.396-9.661l-2.663-0.954"
		/>
	<path fill="none" stroke="#73797D" stroke-width="0.9654" stroke-miterlimit="3.8637" d="M379.841,196.35v15.994
		c-2.185-0.521-10.39-1.572-11.226-0.269c-0.683-1.304-7.278-0.716-11.237,0.166V196.85c-0.502,2.228-2.017,3.035-2.017,3.035
		v13.566l11.694-0.842c1.296,0.842,2.779,0.305,3.271,0.072l11.227,0.363v-15.188C381.554,197.864,380.444,197.768,379.841,196.35
		L379.841,196.35z M379.841,212.346c-2.389,0-9.512-1.914-11.188-0.229c1.522-0.037,1.563,0.952,0,0.993
		c-1.674-0.112-1.407-1.071,0-0.955c-1.446-1.877-11.255,0.389-11.255,0.389l-0.021-15.688c2.721,0,5.541-1.313,7.455-1.313
		s3.93,0.813,3.93,0.813s3.011-1.221,5.137-1.221c2.52,0,3.814,2.061,5.83,1.352C379.691,197.458,379.841,212.346,379.841,212.346
		L379.841,212.346z"/>
	
		<line fill="none" stroke="#73797D" stroke-width="0.6207" stroke-miterlimit="3.8637" x1="368.728" y1="196.376" x2="368.632" y2="212.061"/>
	<path fill="none" stroke="#73797D" stroke-width="0.6708" stroke-miterlimit="3.8637" d="M357.046,217.736l-0.842,0.852
		c-0.391,0.449-0.395,3.98,0.008,4.162c-0.008,0.059,1.823,0.529,1.01,0.159c-0.174-1.136-0.104-3.584,0.201-3.935l0.918-0.897
		L357.046,217.736L357.046,217.736z M359.977,218.577l-0.804,0.856c-0.389,0.44-0.549,4.072-0.145,4.25
		c-0.013,0.066,1.979,0.435,1.164,0.063c-0.178-1.137-0.105-3.584,0.2-3.936l0.851-0.851L359.977,218.577L359.977,218.577z
		 M367.095,220.682l-0.955,1.006c-0.389,0.449-0.596,3.895-0.189,4.072c-0.012,0.068,2.021,0.619,1.21,0.243
		c-0.177-1.128-0.106-3.582,0.199-3.935l1.032-1.043L367.095,220.682L367.095,220.682z M369.798,221.523l-0.955,1.01
		c-0.392,0.441-0.555,3.918-0.153,4.1c-0.011,0.063,1.983,0.588,1.171,0.217c-0.179-1.135-0.105-3.584,0.2-3.935l1.032-1.044
		L369.798,221.523L369.798,221.523z M357.044,213.359l-0.641,0.648c-0.295,0.342-0.354,3.301-0.048,3.438
		c-0.009,0.049,0.834,0.337,0.95,0.294c0.125-0.007-0.07-0.312-0.129-0.454c-0.135-0.861-0.078-2.725,0.154-2.99l0.694-0.675
		L357.044,213.359L357.044,213.359z"/>
	<path fill="none" stroke="#73797D" stroke-width="0.9654" stroke-miterlimit="3.8637" d="M368.766,196.23
		c-3.042-0.076-3.874-2.506-3.874-2.506l1.183-0.055c0,0-1.485-0.902-1.155-1.791c-0.023-0.041,1.035,0.112,1.035,0.112
		s-0.447-1.218-0.043-2.021l0.947,0.396c0.271-1.619,1.947-1.996,1.947-1.996s1.562,0.21,2.019,1.996l0.947-0.396
		c0.403,0.803-0.033,2.021-0.033,2.021s1.058-0.153,1.034-0.112c0.331,0.889-1.156,1.791-1.156,1.791l1.186,0.055
		C372.8,193.725,371.809,196.156,368.766,196.23L368.766,196.23z"/>
	
		<line fill="none" stroke="#73797D" stroke-width="1.9399" stroke-miterlimit="3.8635" x1="297.231" y1="174.564" x2="330.073" y2="174.564"/>
	
		<line fill="none" stroke="#73797D" stroke-width="1.8699" stroke-miterlimit="3.8637" x1="359.74" y1="174.564" x2="392.319" y2="174.564"/>
	<polygon fill="none" stroke="#FFFFFF" stroke-width="0.9654" stroke-miterlimit="3.8637" points="344.887,162.432 355.361,180.852 
		334.321,180.852 	"/>
	<path fill="none" stroke="#73797D" stroke-width="0.9654" stroke-miterlimit="3.8637" d="M344.797,171.537
		c3.791,0,7.086,3.119,7.045,3.613c0.035,0.466-3.256,3.59-7.045,3.59s-7.091-3.124-7.057-3.59
		C337.706,174.656,340.878,171.391,344.797,171.537L344.797,171.537z M341.264,175.139c0-1.959,1.58-3.545,3.528-3.545
		c1.949,0,3.53,1.59,3.53,3.545c0,1.957-1.581,3.549-3.53,3.549C342.843,178.684,341.264,177.096,341.264,175.139L341.264,175.139z"
		/>
	<path fill="#73797D" stroke="#73797D" stroke-width="0.6207" stroke-miterlimit="3.8637" d="M344.353,175.139
		c0-0.244,0.198-0.44,0.444-0.44c0.241,0,0.44,0.196,0.44,0.44c0,0.246-0.199,0.446-0.44,0.446
		C344.549,175.585,344.353,175.385,344.353,175.139L344.353,175.139z"/>
	<path fill="none" stroke="#73797D" stroke-width="0.9654" stroke-miterlimit="3.8637" d="M344.899,162.042
		c-6.922,0-12.588,5.657-12.588,12.61c0,6.955,5.61,12.594,12.532,12.594c6.922,0,12.533-5.639,12.533-12.594
		c0-6.256-4.539-11.442-10.49-12.428c-2.214,0.162-2.327-0.646-2.405-1.063c-0.204-1.134,1.271-1.8,2.323-1.8
		c1.828,0,1.674,1.07,2.77,1.3c5.825,1.979,10.015,7.519,10.015,14.034c0,8.182-6.601,14.813-14.742,14.813
		c-8.143,0-14.742-6.633-14.742-14.813c0-8.185,6.12-14.493,14.344-13.881C344.316,161.354,344.899,162.042,344.899,162.042
		L344.899,162.042z"/>
	<polygon fill="none" stroke="#73797D" stroke-width="1.7342" stroke-miterlimit="3.8635" points="344.822,57.692 340.313,66.811 
		330.12,68.287 337.466,75.577 335.95,85.458 344.822,80.951 353.696,85.458 352.066,75.486 359.182,68.504 349.404,66.903 	"/>
	<path fill="none" stroke="#73797D" stroke-width="0.8952" stroke-miterlimit="3.8635" d="M344.822,58.019v22.932 M330.467,68.501
		l21.598,6.985 M335.95,85.458l13.452-18.555 M353.696,85.458l-13.381-18.646 M359.182,68.504l-21.714,7.075"/>
	<path fill="none" stroke="#73797D" stroke-width="1.7342" stroke-miterlimit="3.8635" d="M337.347,75.666l-30.533,10.063
		 M382.692,60.724l-23.493,7.742 M340.287,66.791l-18.859-26.025 M371.104,109.825l-17.571-24.431 M349.418,66.875l18.768-26.223
		 M318.142,109.825l17.787-24.431 M330.372,68.474l-23.447-7.75 M382.581,85.729l-30.398-10.185 M344.822,33.03v25.578"/>
	<path fill="none" stroke="#73797D" stroke-width="0.8952" stroke-miterlimit="3.8635" d="M336.937,79.165l-12.545,9.072
		 M365.312,58.367l-12.342,9.009 M341.878,82.525l-4.809,14.868 M352.729,48.973l-4.771,14.75 M347.853,82.536l4.773,14.76
		 M336.959,48.838l4.852,15.001 M352.622,78.955l12.463,9.098 M324.165,58.176l12.437,9.079 M354.518,73.29l15.712,0.003
		 M319.53,73.29h15.473"/>
	<path fill="none" stroke="#73797D" stroke-width="0.9654" stroke-miterlimit="3.8637" d="M370.595,141.311
		c0.69,1.021,2.095,3.402,2.055,3.402c0,0-3.311,0.229-4.489-0.88c-0.259-0.394-2.25-3.606-2.25-3.606
		S369.91,140.286,370.595,141.311L370.595,141.311z M309.719,124.102l-5.857,13.479l11.725,0.032L309.719,124.102L309.719,124.102z
		 M327.149,137.633c0,3.221,2.661,5.832,5.942,5.832c3.285,0,5.942-2.611,5.942-5.832H327.149L327.149,137.633z M333.104,124.102
		l5.859,13.479l-11.725,0.032L333.104,124.102L333.104,124.102z M319.623,160.014l3.504-1.646 M319.509,157.76l3.503-1.646"/>
	<path fill="none" stroke="#73797D" stroke-width="0.6207" stroke-miterlimit="3.8637" d="M321.262,123.867h-11.536v-1.375h11.423
		L321.262,123.867L321.262,123.867z M321.453,122.492h11.608v1.375h-11.534L321.453,122.492L321.453,122.492z M360.396,199.809
		c1.599-0.053,3.661-1.635,5.95-0.871 M360.382,201.557c1.594-0.047,3.672-1.558,5.961-0.787 M360.365,203.311
		c1.597-0.047,3.685-1.482,5.976-0.719 M360.356,205.063c1.595-0.047,3.693-1.412,5.984-0.645 M360.341,206.816
		c1.596-0.047,3.707-1.336,5.994-0.573 M360.324,208.57c1.597-0.053,3.722-1.264,6.011-0.496 M377.089,199.293
		c-1.597-0.052-3.728-1.119-6.016-0.354 M377.093,201.139c-1.598-0.052-3.729-1.139-6.018-0.369 M377.095,202.986
		c-1.598-0.053-3.729-1.16-6.016-0.396 M377.095,204.832c-1.598-0.053-3.729-1.182-6.014-0.413 M377.1,206.678
		c-1.599-0.054-3.729-1.197-6.015-0.435 M377.102,208.521c-1.599-0.051-3.728-1.215-6.017-0.447"/>
	<polygon fill="none" stroke="#73797D" stroke-width="0.9654" stroke-miterlimit="3.8637" points="344.887,162.432 355.361,180.852 
		334.321,180.852 	"/>
	<path fill="none" stroke="#73797D" stroke-width="0.6708" stroke-miterlimit="3.8637" d="M359.277,213.896l-0.64,0.646
		c-0.295,0.343-0.354,3.3-0.047,3.438c0.145,0.084,0.834,0.406,0.949,0.359c0.125,0-0.09-0.375-0.129-0.518
		c-0.135-0.861-0.08-2.723,0.152-2.991l0.697-0.679L359.277,213.896L359.277,213.896z"/>
	<polygon fill="#73797D" points="343.775,80.951 345.691,80.951 345.691,159.133 344.8,160.338 344.441,160.816 343.844,160.408 	
		"/>
	<path fill="none" stroke="#73797D" stroke-width="0.6708" stroke-miterlimit="3.8637" d="M368.372,216.514l-0.643,0.651
		c-0.293,0.34-0.354,3.3-0.048,3.438c-0.009,0.052,0.834,0.334,0.95,0.293c0.123-0.004-0.071-0.311-0.129-0.453
		c-0.137-0.854-0.08-2.721,0.152-2.985l0.696-0.679L368.372,216.514L368.372,216.514z M370.606,217.053l-0.639,0.648
		c-0.297,0.342-0.354,3.307-0.047,3.439c0.145,0.082,0.834,0.406,0.949,0.362c0.125-0.004-0.09-0.38-0.129-0.521
		c-0.136-0.858-0.078-2.727,0.152-2.99l0.697-0.684L370.606,217.053L370.606,217.053z"/>
</g>
<path fill="#E30613" d="M562.251,147.625h11.668v22.081h-11.668v62.769c-2.609,22.172-17.031,38.767-40.391,37.849v-22.074
	c9.952,0.336,15.882-3.461,16.917-15.256l0.062-63.285h-11.004V147.63h11.004l0.006-14.845
	c0.551-23.392,14.896-40.593,40.785-37.614v21.883c-11.076-0.877-17.272,3.624-17.383,15.908v14.665L562.251,147.625
	L562.251,147.625z"/>
<path fill="none" stroke="#73797D" stroke-width="1.9164" stroke-miterlimit="3.8637" d="M714.06,270.063V94.755 M425.665,270.063
	V94.724"/>
<path fill="#73797D" d="M448.974,147.979c0-12.529,6.209-17.113,17.384-16.231v-21.881c-26.074-3.001-40.44,14.466-40.796,38.112
	v20.646v69.872h23.412v-69.872h16.496v-20.646H448.974L448.974,147.979z"/>
<path fill="#73797D" d="M506.607,238.496h18.269v-22.585h-16.32c-14.723,0-24.12-10.058-24.12-22.938
	c0-12.88,9.399-22.938,24.12-22.938h16.32v-22.407h-18.269c-27.847,0-45.588,19.938-45.588,45.349
	C461.02,218.385,478.761,238.496,506.607,238.496L506.607,238.496z"/>
<path fill="#73797D" d="M713.774,185.965c0-23.813-15.069-40.568-40.605-40.568c-11.879,0-22.166,4.939-29.082,12.875
	c-6.559-7.936-16.664-12.875-29.082-12.875c-24.998,0-41.137,17.462-41.137,40.568v52.567h23.408v-53.095
	c0-10.229,7.271-17.287,17.729-17.287c15.429,0,17.025,12.17,17.025,17.287v53.095h23.403v-53.095
	c0-10.229,7.442-17.287,17.731-17.287c15.431,0,17.202,12.17,17.202,17.287v53.095h23.404v-52.567H713.774L713.774,185.965z"/>
</svg>
