<?xml version="1.0" encoding="utf-8"?>
<!-- Generator: Adobe Illustrator 22.1.0, SVG Export Plug-In . SVG Version: 6.00 Build 0)  -->
<svg version="1.1" id="Layer_1" xmlns="http://www.w3.org/2000/svg" xmlns:xlink="http://www.w3.org/1999/xlink" x="0px" y="0px"
	 viewBox="0 0 390.8 244.7" enable-background="new 0 0 390.8 244.7" xml:space="preserve">
<g>
	<path d="M109.8,41.8L39.1,82.3v1.7v78.9l2.6,1.5l3.5,2l20.1-6.7l-0.1,17.8l42.6,24.6l1.6,0.9l70.3-39.8v-2.4V160V82.3L109.8,41.8z
		 M45.2,163.3l-3.5-2V85.4l3.7,2.2L45.2,163.3z M107.8,199.1l-40-22.9l0-75.7l40,23.2V199.1z M109.3,121.1L68.4,97.5l22.2-6.9
		c0.4-0.1,0.9,0,1.3,0.2c0.2,0.1,16.3,11.7,36.2,7.3c8.8-2,14.7-5.4,16.8-9.8c1.9-3.8,0.6-7.5-0.2-9.3c-2-4.1-13.8-14.6-41.6-9.1
		L47.6,85.3l-4.3-2.5l66.4-38l65.7,38.1L109.3,121.1z M110.7,199.1l0-75.4l65.9-38l0.2,75.9L110.7,199.1z"/>
	<g>
		<g>
			<path d="M192.2,120.4h-5V92.7c0-2.6,0-5.1,2.3-7.1c1.9-1.6,4.2-1.6,6.6-1.6h11.3v4.7h-11.3c-1.9,0-2.7,0-3.2,0.4
				c-0.7,0.5-0.7,1.4-0.7,3.6v6.5h12.6v4.7h-12.6V120.4z"/>
		</g>
		<g>
			<path d="M236.2,120.4h-5.1l-2.8-10.4h-13.5l-2.8,10.4H207l7.8-29.1c1.1-4.2,1.6-5.1,2.6-6.1c1.1-1,2.6-1.6,4.2-1.6
				c1.6,0,3.1,0.6,4.2,1.6c1,1,1.5,1.9,2.6,6.1L236.2,120.4z M216.1,105.3H227l-3.4-12.8c-0.6-2.4-0.9-3.5-1.3-3.8
				c-0.3-0.3-1.2-0.3-1.5,0c-0.3,0.3-0.6,1.4-1.3,3.8L216.1,105.3z"/>
		</g>
		<g>
			<path d="M250.4,120.4h-0.6c-2.4,0-4.7,0-6.6-1.6c-2.3-2-2.3-4.5-2.3-7.1V92.7c0-2.7,0-5.2,2.3-7.2c1.9-1.6,4.2-1.6,6.6-1.6h0.1
				c3.9,0,6.9,0,9.7,2.2c2.3,1.8,3.6,4.6,3.6,7.9c0,3.1-1.2,5.7-3.4,7.4c2.9,1.8,4.5,4.8,4.5,8.5c0,3-1.1,5.6-3,7.5
				C258.2,120.4,254.4,120.4,250.4,120.4z M245.8,104v7.6c0,2.2,0,3.1,0.7,3.6c0.5,0.4,1.3,0.4,3.2,0.4h0.6c3.6,0,5.8,0,7.4-1.7
				c0.9-1,1.5-2.5,1.5-4.1c0-1.6-0.5-3.2-1.5-4.1c-1.6-1.7-3.8-1.7-7.4-1.7H245.8z M245.8,99.2h4c3.5,0,5.8,0,7.2-1.7
				c0.8-0.9,1.2-2.2,1.2-3.6c0-1.4-0.4-2.6-1.2-3.6c-1.4-1.7-3.7-1.7-7.2-1.7h-0.1c-1.9,0-2.7,0-3.2,0.4c-0.7,0.5-0.7,1.4-0.7,3.6
				V99.2z"/>
		</g>
		<g>
			<path d="M289.8,120.4H279c-2.4,0-4.7,0-6.6-1.6c-2.3-2-2.3-4.5-2.3-7.1V83.9h5v27.7c0,2.2,0,3.1,0.7,3.6c0.5,0.4,1.3,0.4,3.2,0.4
				h10.8V120.4z"/>
		</g>
		<g>
			<path d="M323.6,120.4h-5.1l-2.8-10.4h-13.5l-2.8,10.4h-5.1l7.8-29.1c1.1-4.2,1.6-5.1,2.6-6.1c1.1-1,2.6-1.6,4.2-1.6
				c1.6,0,3.1,0.6,4.2,1.6c1,1,1.5,1.9,2.6,6.1L323.6,120.4z M303.6,105.3h10.9l-3.4-12.8c-0.6-2.4-0.9-3.5-1.3-3.8
				c-0.3-0.3-1.2-0.3-1.5,0c-0.3,0.3-0.6,1.4-1.3,3.8L303.6,105.3z"/>
		</g>
		<g>
			<path d="M337.8,120.4h-0.6c-2.4,0-4.7,0-6.6-1.6c-2.3-2-2.3-4.5-2.3-7.1V92.7c0-2.7,0-5.2,2.3-7.2c1.9-1.6,4.2-1.6,6.5-1.6h0.1
				c3.9,0,6.9,0,9.7,2.2c2.3,1.8,3.6,4.6,3.6,7.9c0,3.1-1.2,5.7-3.4,7.4c2.9,1.8,4.5,4.8,4.5,8.5c0,2.9-1.1,5.6-3,7.5
				C345.7,120.4,341.9,120.4,337.8,120.4z M333.3,104v7.6c0,2.2,0,3.1,0.7,3.6c0.5,0.4,1.3,0.4,3.2,0.4h0.6c3.6,0,5.8,0,7.4-1.7
				c0.9-1,1.5-2.5,1.5-4.1c0-1.6-0.5-3.2-1.5-4.1c-1.6-1.7-3.8-1.7-7.4-1.7H333.3z M333.3,99.2h4c3.5,0,5.8,0,7.2-1.7
				c0.8-0.9,1.2-2.2,1.2-3.6c0-1.4-0.4-2.6-1.2-3.6c-1.4-1.7-3.7-1.7-7.2-1.7h-0.1c-1.9,0-2.7,0-3.2,0.4c-0.7,0.5-0.7,1.4-0.7,3.6
				V99.2z"/>
		</g>
	</g>
	<g>
		<path fill="#000101" d="M190.7,130.5v18.8c0,3.9,0,6.7,1.7,8.5c1.2,1.3,2.9,1.9,4.8,1.9c1.9,0,3.6-0.6,4.8-1.9
			c1.7-1.8,1.7-4.6,1.7-8.5v-18.8h3.6v18.8c0,4.4,0,7.9-2.5,10.7c-1.7,2-4.5,3.1-7.5,3.1c-3,0-5.8-1.1-7.5-3.1
			c-2.5-2.9-2.5-6.4-2.5-10.7v-18.8H190.7z"/>
		<path fill="#000101" d="M217,160.6c0,1.5-1,2.5-2.5,2.5c-1.5,0-2.5-1-2.5-2.5c0-1.5,1-2.5,2.5-2.5C216,158.1,217,159.2,217,160.6z
			"/>
		<path fill="#000101" d="M235.2,142.3v-11.8h3.4v21.1c0,3.6,0,6.1-1.7,8.4c-1.4,1.9-3.8,3.2-6.8,3.2c-2.9,0-5.2-1.2-6.7-2.7
			c-2.7-2.8-2.7-6.2-2.7-9.1c0-3.3,0-6.5,2.2-9.1c1.4-1.7,3.7-2.9,6.6-2.9C231.8,139.3,233.9,140.4,235.2,142.3z M233.8,144.2
			c-0.9-1-2.3-1.7-4.1-1.7c-1.8,0-3.3,0.7-4.1,1.7c-1.5,1.7-1.5,4.4-1.5,7.1c0,2.5,0,5,1.7,6.8c1.1,1.2,2.7,1.7,4.4,1.7
			c1.5,0,3-0.5,3.9-1.7c1.2-1.4,1.2-3.5,1.2-6.1C235.2,148.6,235.2,145.9,233.8,144.2z"/>
		<path fill="#000101" d="M252.9,159.9c2.1,0,4.2-0.5,5.9-1.4l1.4,2.9c-2.3,1.2-4.8,1.7-7.3,1.7c-3.3,0-6-1.2-7.6-3.3
			c-1.8-2.5-1.8-5.4-1.8-8.6c0-3.8,0-6,1.7-8.4c1.6-2.2,4.5-3.4,7.9-3.4c2.4,0,4.4,0.6,5.8,1.8c1.5,1.2,2.4,3,2.4,4.9
			c0,2.1-1.1,3.8-2.4,4.8c-2,1.5-4.1,1.5-7.6,1.5h-4.5c0,1.3,0,4.1,1.1,5.6C249,159.2,250.6,159.9,252.9,159.9z M256.7,143.5
			c-0.8-0.7-2.1-1-3.6-1c-2.2,0-3.9,0.6-5,1.9c-1.2,1.4-1.2,3.8-1.2,4.8h4.5c3.1,0,4.4,0,5.4-0.8c0.6-0.5,1.2-1.3,1.2-2.4
			C257.9,145.1,257.5,144.1,256.7,143.5z"/>
		<path fill="#000101" d="M285.9,133.1l-2.1,2.7c-1.7-1.5-4.1-2.3-6.4-2.3c-2.5,0-4.4,0.9-5.6,2.4c-1.7,2.2-1.7,4.6-1.7,10.6
			c0,6.1,0,8.4,1.7,10.6c1.2,1.5,3.1,2.4,5.6,2.4c2.5,0,5-0.9,6.8-2.6l2.2,2.7c-2.4,2.1-5.7,3.3-9,3.3c-4.1,0-6.9-1.7-8.6-3.9
			c-2.3-3.1-2.3-6.3-2.3-12.6c0-6.3,0-9.5,2.3-12.6c1.7-2.2,4.5-3.9,8.6-3.9C280.4,130.2,283.5,131.2,285.9,133.1z"/>
		<path fill="#000101" d="M295.9,130.5V142c1.1-1.6,3.1-2.7,5.3-2.7c2.9,0,4.9,1.3,6,2.5c2.2,2.4,2.2,5.2,2.2,8.6v12.4h-3.4v-12.4
			c0-3,0-5-1.4-6.5c-0.8-0.8-2.1-1.4-3.7-1.4c-1.6,0-2.9,0.6-3.7,1.4c-1.4,1.4-1.4,3.4-1.4,6.5v12.4h-3.4v-32.3H295.9z"/>
		<path fill="#000101" d="M319.3,133.6c0,1.4-1,2.3-2.3,2.3c-1.3,0-2.3-0.9-2.3-2.3c0-1.4,1-2.3,2.3-2.3
			C318.3,131.3,319.3,132.2,319.3,133.6z M315.3,139.6h3.4v23.2h-3.4V139.6z"/>
		<path fill="#000101" d="M328.4,130.4v32.4H325v-32.4H328.4z"/>
		<path fill="#000101" d="M343.2,159.9c2.1,0,4.2-0.5,5.9-1.4l1.4,2.9c-2.3,1.2-4.8,1.7-7.3,1.7c-3.3,0-6-1.2-7.6-3.3
			c-1.8-2.5-1.8-5.4-1.8-8.6c0-3.8,0-6,1.7-8.4c1.6-2.2,4.5-3.4,7.9-3.4c2.4,0,4.4,0.6,5.8,1.8c1.5,1.2,2.4,3,2.4,4.9
			c0,2.1-1.1,3.8-2.4,4.8c-2,1.5-4.1,1.5-7.6,1.5h-4.5c0,1.3,0,4.1,1.1,5.6C339.3,159.2,340.9,159.9,343.2,159.9z M347,143.5
			c-0.8-0.7-2.1-1-3.6-1c-2.2,0-3.9,0.6-5,1.9c-1.2,1.4-1.2,3.8-1.2,4.8h4.5c3.1,0,4.4,0,5.4-0.8c0.6-0.5,1.2-1.3,1.2-2.4
			C348.2,145.1,347.8,144.1,347,143.5z"/>
	</g>
</g>
</svg>
