<?xml version="1.0" encoding="UTF-8" standalone="no"?>
<!-- Created with Inkscape (http://www.inkscape.org/) -->

<svg
   xmlns:dc="http://purl.org/dc/elements/1.1/"
   xmlns:cc="http://creativecommons.org/ns#"
   xmlns:rdf="http://www.w3.org/1999/02/22-rdf-syntax-ns#"
   xmlns:svg="http://www.w3.org/2000/svg"
   xmlns="http://www.w3.org/2000/svg"
   xmlns:sodipodi="http://sodipodi.sourceforge.net/DTD/sodipodi-0.dtd"
   xmlns:inkscape="http://www.inkscape.org/namespaces/inkscape"
   width="86.216431mm"
   height="59.181274mm"
   viewBox="0 0 305.49129 209.69742"
   id="svg2"
   version="1.1"
   inkscape:version="0.91 r13725"
   sodipodi:docname="centro_energia.svg"
   inkscape:export-filename="/home/matias/LogosFCFM/Otros/Centro de Energía/centro_energia.png"
   inkscape:export-xdpi="300"
   inkscape:export-ydpi="300">
  <defs
     id="defs4" />
  <sodipodi:namedview
     id="base"
     pagecolor="#ffffff"
     bordercolor="#666666"
     borderopacity="1.0"
     inkscape:pageopacity="0.0"
     inkscape:pageshadow="2"
     inkscape:zoom="1"
     inkscape:cx="349.54474"
     inkscape:cy="95.014589"
     inkscape:document-units="px"
     inkscape:current-layer="layer1"
     showgrid="false"
     inkscape:window-width="1855"
     inkscape:window-height="1056"
     inkscape:window-x="65"
     inkscape:window-y="24"
     inkscape:window-maximized="1"
     fit-margin-top="2"
     fit-margin-right="2"
     fit-margin-bottom="2"
     fit-margin-left="2" />
  <metadata
     id="metadata7">
    <rdf:RDF>
      <cc:Work
         rdf:about="">
        <dc:format>image/svg+xml</dc:format>
        <dc:type
           rdf:resource="http://purl.org/dc/dcmitype/StillImage" />
        <dc:title></dc:title>
      </cc:Work>
    </rdf:RDF>
  </metadata>
  <g
     inkscape:label="Layer 1"
     inkscape:groupmode="layer"
     id="layer1"
     transform="translate(-257.05247,-150.53253)">
    <path
       style="opacity:1;fill:#1bb5bc;fill-opacity:1;fill-rule:evenodd;stroke:none;stroke-width:3;stroke-linecap:round;stroke-linejoin:round;stroke-miterlimit:4;stroke-dasharray:none;stroke-dashoffset:0;stroke-opacity:1"
       d="m 416.81445,218.85938 a 8.7125654,8.7125654 0 0 0 -8.71289,8.71289 8.7125654,8.7125654 0 0 0 8.71289,8.71289 8.7125654,8.7125654 0 0 0 0.7461,-0.0371 l 64.63867,-4.88282 a 3.7937257,3.7937257 0 0 0 0.0273,0.002 3.7937257,3.7937257 0 0 0 3.79492,-3.79492 3.7937257,3.7937257 0 0 0 -3.79492,-3.79297 3.7937257,3.7937257 0 0 0 -0.0254,0 l -64.72461,-4.89649 0,0.0117 a 8.7125654,8.7125654 0 0 0 -0.66211,-0.0352 z"
       id="path4181"
       inkscape:connector-curvature="0" />
    <path
       style="opacity:1;fill:#1bb5bc;fill-opacity:1;fill-rule:evenodd;stroke:none;stroke-width:3;stroke-linecap:round;stroke-linejoin:round;stroke-miterlimit:4;stroke-dasharray:none;stroke-dashoffset:0;stroke-opacity:1"
       d="m 546.74414,218.85938 a 8.7125654,8.7125654 0 0 0 -1.71289,0.17968 l 0,-0.0215 -21.5625,4.83594 0,0.004 a 3.7937257,3.7937257 0 0 0 -3.04492,3.71485 3.7937257,3.7937257 0 0 0 3.04297,3.71875 3.7937257,3.7937257 0 0 0 0.004,0 l 20.64453,4.58593 a 8.7125654,8.7125654 0 0 0 2.62891,0.40821 8.7125654,8.7125654 0 0 0 8.71289,-8.71289 8.7125654,8.7125654 0 0 0 -8.71289,-8.71289 z"
       id="path4181-6"
       inkscape:connector-curvature="0" />
    <path
       style="opacity:1;fill:#f9a600;fill-opacity:1;fill-rule:evenodd;stroke:none;stroke-width:3;stroke-linecap:round;stroke-linejoin:round;stroke-miterlimit:4;stroke-dasharray:none;stroke-dashoffset:0;stroke-opacity:1"
       d="m 448.12891,163.80664 a 8.7125654,8.7125654 0 0 0 -8.71289,8.71289 8.7125654,8.7125654 0 0 0 8.71289,8.71289 8.7125654,8.7125654 0 0 0 3.11132,-0.57617 l 77.7793,77.7793 a 8.7125654,8.7125654 0 0 0 -0.33008,2.3457 8.7125654,8.7125654 0 0 0 8.71094,8.71289 8.7125654,8.7125654 0 0 0 8.71289,-8.71289 8.7125654,8.7125654 0 0 0 -8.71289,-8.71289 8.7125654,8.7125654 0 0 0 -3.72266,0.84766 L 456.29297,175.5293 a 8.7125654,8.7125654 0 0 0 0.54883,-3.00977 8.7125654,8.7125654 0 0 0 -8.71289,-8.71289 z"
       id="path4181-6-5"
       inkscape:connector-curvature="0" />
    <path
       style="opacity:1;fill:#1bb5bc;fill-opacity:1;fill-rule:evenodd;stroke:none;stroke-width:3;stroke-linecap:round;stroke-linejoin:round;stroke-miterlimit:4;stroke-dasharray:none;stroke-dashoffset:0;stroke-opacity:1"
       d="m 503.05664,244.74023 a 3.7937257,3.7937257 0 0 0 -3.79492,3.79297 3.7937257,3.7937257 0 0 0 0.008,0.23047 l -0.008,0 0,32.4668 a 8.7125654,8.7125654 0 0 0 -4.91797,7.83594 8.7125654,8.7125654 0 0 0 8.71289,8.71093 8.7125654,8.7125654 0 0 0 8.71094,-8.71093 8.7125654,8.7125654 0 0 0 -4.91797,-7.83203 l 0,-32.47071 -0.0117,0 a 3.7937257,3.7937257 0 0 0 0.0117,-0.23047 3.7937257,3.7937257 0 0 0 -3.79297,-3.79297 z"
       id="path4181-6-5-3"
       inkscape:connector-curvature="0" />
    <path
       style="opacity:1;fill:#1bb5bc;fill-opacity:1;fill-rule:evenodd;stroke:none;stroke-width:3;stroke-linecap:round;stroke-linejoin:round;stroke-miterlimit:4;stroke-dasharray:none;stroke-dashoffset:0;stroke-opacity:1"
       d="m 503.05664,157.61914 a 8.7125654,8.7125654 0 0 0 -8.71289,8.71289 8.7125654,8.7125654 0 0 0 4.91797,7.83203 l 0,31.58008 a 3.7937257,3.7937257 0 0 0 3.79492,3.77734 3.7937257,3.7937257 0 0 0 3.79297,-3.79296 l 0,-31.56055 a 8.7125654,8.7125654 0 0 0 4.91797,-7.83594 8.7125654,8.7125654 0 0 0 -8.71094,-8.71289 z"
       id="path4181-6-5-5"
       inkscape:connector-curvature="0" />
    <path
       style="opacity:1;fill:#656565;fill-opacity:1;fill-rule:evenodd;stroke:none;stroke-width:3;stroke-linecap:round;stroke-linejoin:round;stroke-miterlimit:4;stroke-dasharray:none;stroke-dashoffset:0;stroke-opacity:1"
       d="m 525.24819,187.27418 a 12.529048,12.529048 0 0 0 -2.15584,14.81748 l -8.19112,8.19112 0.007,0.007 a 3.5749757,3.5749757 0 0 0 0.15743,4.88345 3.5749757,3.5749757 0 0 0 4.88346,0.15744 l 0.008,0.008 8.19387,-8.19388 a 12.529048,12.529048 0 0 0 14.81472,-2.15309 12.529048,12.529048 0 0 0 0,-17.7191 12.529048,12.529048 0 0 0 -17.71772,10e-4 z m 4.50642,4.50643 a 6.1548223,6.1548223 0 0 1 8.7035,0 6.1548223,6.1548223 0 0 1 10e-4,8.70487 6.1548223,6.1548223 0 0 1 -8.70488,-0.001 6.1548223,6.1548223 0 0 1 0,-8.70349 z"
       id="path4181-3-7-2-9-2-6"
       inkscape:connector-curvature="0" />
    <path
       style="opacity:1;fill:#656565;fill-opacity:1;fill-rule:evenodd;stroke:none;stroke-width:3;stroke-linecap:round;stroke-linejoin:round;stroke-miterlimit:4;stroke-dasharray:none;stroke-dashoffset:0;stroke-opacity:1"
       d="m 423.33913,284.55593 a 15.4375,15.4375 0 0 0 0,21.83192 15.4375,15.4375 0 0 0 21.83192,0 15.4375,15.4375 0 0 0 2.218,-18.99521 l 42.28415,-42.28415 -0.0249,-0.0249 a 3.5749757,3.5749757 0 0 0 0.36187,-0.3121 3.5749757,3.5749757 0 0 0 0,-5.05471 3.5749757,3.5749757 0 0 0 -5.05609,-0.001 3.5749757,3.5749757 0 0 0 -0.31075,0.36322 l -0.0262,-0.0262 -42.28415,42.28415 a 15.4375,15.4375 0 0 0 -18.99383,2.21938 z m 5.23563,5.23563 a 8.0320578,8.0320578 0 0 1 11.35928,10e-4 8.0320578,8.0320578 0 0 1 0,11.3579 8.0320578,8.0320578 0 0 1 -11.35929,10e-4 8.0320578,8.0320578 0 0 1 1e-5,-11.36066 z"
       id="path4181-3-7-2-9-2-1-9"
       inkscape:connector-curvature="0" />
    <text
       xml:space="preserve"
       style="font-style:normal;font-weight:normal;font-size:40px;line-height:125%;font-family:sans-serif;letter-spacing:0px;word-spacing:0px;fill:#000000;fill-opacity:1;stroke:none;stroke-width:1px;stroke-linecap:butt;stroke-linejoin:miter;stroke-opacity:1"
       x="260.5"
       y="285.86221"
       id="text4565"
       sodipodi:linespacing="125%"><tspan
         sodipodi:role="line"
         id="tspan4567"
         x="260.5"
         y="285.86221"
         style="font-style:normal;font-variant:normal;font-weight:normal;font-stretch:normal;font-family:Trenda;-inkscape-font-specification:Trenda" /><tspan
         sodipodi:role="line"
         x="260.5"
         y="335.86221"
         style="font-style:normal;font-variant:normal;font-weight:normal;font-stretch:normal;font-family:Trenda;-inkscape-font-specification:Trenda"
         id="tspan4569" /></text>
    <g
       style="font-style:normal;font-weight:normal;font-size:40px;line-height:125%;font-family:sans-serif;letter-spacing:0px;word-spacing:0px;fill:#656565;fill-opacity:1;stroke:none;stroke-width:1px;stroke-linecap:butt;stroke-linejoin:miter;stroke-opacity:1"
       id="text4275">
      <path
         d="m 279.69033,310.32184 q -6.97125,0 -11.26125,-4.24875 -4.29,-4.24875 -4.29,-10.6425 0,-6.3525 4.29,-10.60125 4.29,-4.24875 11.26125,-4.24875 5.89875,0 9.6525,2.8875 l -3.01125,5.48625 q -2.805,-1.85625 -6.3525,-1.85625 -3.96,0 -6.31125,2.26875 -2.35125,2.2275 -2.35125,6.06375 0,3.83625 2.35125,6.105 2.35125,2.26875 6.31125,2.26875 3.5475,0 6.3525,-1.85625 l 3.01125,5.48625 q -3.75375,2.8875 -9.6525,2.8875 z"
         style="font-style:normal;font-variant:normal;font-weight:800;font-stretch:normal;font-size:41.25px;font-family:Trenda;-inkscape-font-specification:'Trenda Ultra-Bold';letter-spacing:2.69000006px;fill:#656565;fill-opacity:1"
         id="path4317"
         inkscape:connector-curvature="0" />
      <path
         d="m 303.00211,303.88684 13.65375,0 0,6.06375 -20.58375,0 0,-28.99875 20.3775,0 0,6.105 -13.4475,0 0,5.23875 11.88,0 0,6.105 -11.88,0 0,5.48625 z"
         style="font-style:normal;font-variant:normal;font-weight:800;font-stretch:normal;font-size:41.25px;font-family:Trenda;-inkscape-font-specification:'Trenda Ultra-Bold';letter-spacing:2.69000006px;fill:#656565;fill-opacity:1"
         id="path4319"
         inkscape:connector-curvature="0" />
      <path
         d="m 344.8345,280.95184 6.80625,0 0,29.37 -3.83625,0 -16.29375,-17.44875 0,17.0775 -6.765,0 0,-29.2875 3.83625,0 16.2525,17.36625 0,-17.0775 z"
         style="font-style:normal;font-variant:normal;font-weight:800;font-stretch:normal;font-size:41.25px;font-family:Trenda;-inkscape-font-specification:'Trenda Ultra-Bold';letter-spacing:2.69000006px;fill:#656565;fill-opacity:1"
         id="path4321"
         inkscape:connector-curvature="0" />
      <path
         d="m 383.8883,280.95184 0,6.105 -9.4875,0 0,22.89375 -6.93,0 0,-22.89375 -9.44625,0 0,-6.105 25.86375,0 z"
         style="font-style:normal;font-variant:normal;font-weight:800;font-stretch:normal;font-size:41.25px;font-family:Trenda;-inkscape-font-specification:'Trenda Ultra-Bold';letter-spacing:2.69000006px;fill:#656565;fill-opacity:1"
         id="path4323"
         inkscape:connector-curvature="0" />
      <path
         d="m 414.07079,309.95059 -8.085,0 -5.28,-7.755 -0.0412,0 -3.5475,0 0,7.755 -6.93,0 0,-28.99875 10.8075,0 q 5.445,0 8.745,3.01125 3.34125,2.97 3.34125,7.755 0,3.01125 -1.44375,5.32125 -1.44375,2.31 -4.0425,3.63 l 6.47625,9.28125 z m -16.95375,-22.97625 0,9.19875 3.34125,0 q 2.43375,0 3.91875,-1.19625 1.485,-1.2375 1.485,-3.25875 0,-2.10375 -1.485,-3.42375 -1.485,-1.32 -3.96,-1.32 l -3.3,0 z"
         style="font-style:normal;font-variant:normal;font-weight:800;font-stretch:normal;font-size:41.25px;font-family:Trenda;-inkscape-font-specification:'Trenda Ultra-Bold';letter-spacing:2.69000006px;fill:#656565;fill-opacity:1"
         id="path4325"
         inkscape:connector-curvature="0" />
      <path
         d="m 433.92723,310.32184 q -6.64125,0 -11.055,-4.24875 -4.3725,-4.29 -4.3725,-10.56 0,-6.3525 4.3725,-10.6425 4.41375,-4.29 11.055,-4.29 6.64125,0 10.9725,4.24875 4.33125,4.2075 4.33125,10.68375 0,6.39375 -4.3725,10.60125 -4.33125,4.2075 -10.93125,4.2075 z m 0,-6.39375 q 3.5475,0 5.8575,-2.3925 2.35125,-2.43375 2.35125,-6.0225 0,-3.67125 -2.35125,-6.06375 -2.31,-2.43375 -5.8575,-2.43375 -3.58875,0 -5.98125,2.43375 -2.35125,2.43375 -2.35125,6.06375 0,3.58875 2.35125,6.0225 2.3925,2.3925 5.98125,2.3925 z"
         style="font-style:normal;font-variant:normal;font-weight:800;font-stretch:normal;font-size:41.25px;font-family:Trenda;-inkscape-font-specification:'Trenda Ultra-Bold';letter-spacing:2.69000006px;fill:#656565;fill-opacity:1"
         id="path4327"
         inkscape:connector-curvature="0" />
    </g>
    <g
       style="font-style:normal;font-weight:normal;font-size:40px;line-height:125%;font-family:sans-serif;letter-spacing:0px;word-spacing:0px;fill:#f9a600;fill-opacity:1;stroke:none;stroke-width:1px;stroke-linecap:butt;stroke-linejoin:miter;stroke-opacity:1"
       id="text4275-3">
      <path
         d="m 277.52873,323.77334 q 6.88875,0 11.055,4.00125 4.2075,3.96 4.2075,10.4775 0,6.5175 -4.2075,10.51875 -4.2075,4.00125 -11.055,4.00125 l -11.7975,0 0,-28.99875 11.7975,0 z m -0.4125,22.89375 q 4.0425,0 6.31125,-2.26875 2.31,-2.26875 2.31,-6.06375 0,-3.8775 -2.31,-6.14625 -2.26875,-2.31 -6.31125,-2.31 l -4.455,0 0,16.78875 4.455,0 z"
         style="font-style:normal;font-variant:normal;font-weight:800;font-stretch:normal;font-size:41.25px;font-family:Trenda;-inkscape-font-specification:'Trenda Ultra-Bold';letter-spacing:3.00999999px;fill:#f9a600;fill-opacity:1"
         id="path4298"
         inkscape:connector-curvature="0" />
      <path
         d="m 307.65609,346.70834 13.65375,0 0,6.06375 -20.58375,0 0,-28.99875 20.3775,0 0,6.105 -13.4475,0 0,5.23875 11.88,0 0,6.105 -11.88,0 0,5.48625 z"
         style="font-style:normal;font-variant:normal;font-weight:800;font-stretch:normal;font-size:41.25px;font-family:Trenda;-inkscape-font-specification:'Trenda Ultra-Bold';letter-spacing:3.00999999px;fill:#f9a600;fill-opacity:1"
         id="path4300"
         inkscape:connector-curvature="0" />
      <path
         d="m 348.88361,346.70834 13.65375,0 0,6.06375 -20.58375,0 0,-28.99875 20.3775,0 0,6.105 -13.4475,0 0,5.23875 11.88,0 0,6.105 -11.88,0 0,5.48625 z"
         style="font-style:normal;font-variant:normal;font-weight:800;font-stretch:normal;font-size:41.25px;font-family:Trenda;-inkscape-font-specification:'Trenda Ultra-Bold';letter-spacing:3.00999999px;fill:#f9a600;fill-opacity:1"
         id="path4302"
         inkscape:connector-curvature="0" />
      <path
         d="m 391.036,323.77334 6.80625,0 0,29.37 -3.83625,0 -16.29375,-17.44875 0,17.0775 -6.765,0 0,-29.2875 3.83625,0 16.2525,17.36625 0,-17.0775 z"
         style="font-style:normal;font-variant:normal;font-weight:800;font-stretch:normal;font-size:41.25px;font-family:Trenda;-inkscape-font-specification:'Trenda Ultra-Bold';letter-spacing:3.00999999px;fill:#f9a600;fill-opacity:1"
         id="path4304"
         inkscape:connector-curvature="0" />
      <path
         d="m 414.28106,346.70834 13.65375,0 0,6.06375 -20.58375,0 0,-28.99875 20.3775,0 0,6.105 -13.4475,0 0,5.23875 11.88,0 0,6.105 -11.88,0 0,5.48625 z"
         style="font-style:normal;font-variant:normal;font-weight:800;font-stretch:normal;font-size:41.25px;font-family:Trenda;-inkscape-font-specification:'Trenda Ultra-Bold';letter-spacing:3.00999999px;fill:#f9a600;fill-opacity:1"
         id="path4306"
         inkscape:connector-curvature="0" />
      <path
         d="m 460.18719,352.77209 -8.085,0 -5.28,-7.755 -0.0412,0 -3.5475,0 0,7.755 -6.93,0 0,-28.99875 10.8075,0 q 5.445,0 8.745,3.01125 3.34125,2.97 3.34125,7.755 0,3.01125 -1.44375,5.32125 -1.44375,2.31 -4.0425,3.63 l 6.47625,9.28125 z m -16.95375,-22.97625 0,9.19875 3.34125,0 q 2.43375,0 3.91875,-1.19625 1.485,-1.2375 1.485,-3.25875 0,-2.10375 -1.485,-3.42375 -1.485,-1.32 -3.96,-1.32 l -3.3,0 z"
         style="font-style:normal;font-variant:normal;font-weight:800;font-stretch:normal;font-size:41.25px;font-family:Trenda;-inkscape-font-specification:'Trenda Ultra-Bold';letter-spacing:3.00999999px;fill:#f9a600;fill-opacity:1"
         id="path4308"
         inkscape:connector-curvature="0" />
      <path
         d="m 485.23114,337.75709 6.39375,0 0,11.7975 q -3.91875,3.58875 -11.09625,3.58875 -6.8475,0 -11.22,-4.24875 -4.3725,-4.29 -4.3725,-10.6425 0,-6.31125 4.41375,-10.56 4.41375,-4.29 11.34375,-4.29 5.775,0 10.1475,2.84625 l -3.01125,5.48625 q -3.09375,-1.815 -6.93,-1.815 -3.91875,0 -6.3525,2.26875 -2.43375,2.26875 -2.43375,6.06375 0,3.795 2.51625,6.27 2.5575,2.43375 6.31125,2.43375 2.51625,0 4.29,-0.9075 l 0,-8.29125 z"
         style="font-style:normal;font-variant:normal;font-weight:800;font-stretch:normal;font-size:41.25px;font-family:Trenda;-inkscape-font-specification:'Trenda Ultra-Bold';letter-spacing:3.00999999px;fill:#f9a600;fill-opacity:1"
         id="path4310"
         inkscape:connector-curvature="0" />
      <path
         d="m 499.03786,322.05334 -2.01625,-3.8975 11.26125,-7.13875 3.53,6.0775 z m 0.81,30.71875 0,-28.99875 6.93,0 0,28.99875 z"
         style="font-style:normal;font-variant:normal;font-weight:800;font-stretch:normal;font-size:41.25px;font-family:Trenda;-inkscape-font-specification:'Trenda Ultra-Bold';letter-spacing:3.00999999px;fill:#f9a600;fill-opacity:1"
         id="path4312"
         inkscape:connector-curvature="0"
         sodipodi:nodetypes="cccccccccc" />
      <path
         d="m 535.37187,352.77209 -2.0625,-5.15625 -11.17875,0 -2.10375,5.15625 -7.3425,0 12.91125,-28.99875 4.33125,0 12.7875,28.99875 -7.3425,0 z m -7.6725,-19.14 -3.3825,8.1675 6.80625,0 -3.42375,-8.1675 z"
         style="font-style:normal;font-variant:normal;font-weight:800;font-stretch:normal;font-size:41.25px;font-family:Trenda;-inkscape-font-specification:'Trenda Ultra-Bold';letter-spacing:3.00999999px;fill:#f9a600;fill-opacity:1"
         id="path4314"
         inkscape:connector-curvature="0" />
    </g>
  </g>
</svg>
