<?xml version="1.0" encoding="UTF-8" ?>
<!DOCTYPE svg PUBLIC "-//W3C//DTD SVG 1.1//EN" "http://www.w3.org/Graphics/SVG/1.1/DTD/svg11.dtd">
<svg width="1250pt" height="1000pt" viewBox="0 0 1250 1000" version="1.1" xmlns="http://www.w3.org/2000/svg">
<g id="#ffffffff">
<path fill="#ffffff" opacity="1.00" d=" M 393.64 203.49 C 421.29 187.74 452.19 177.05 484.06 174.84 C 506.71 173.22 529.84 176.97 550.49 186.53 C 575.78 198.35 597.39 217.44 613.56 240.08 C 615.03 241.54 615.51 244.56 613.07 245.33 C 610.68 245.33 608.42 244.36 606.11 243.86 C 584.21 238.39 561.24 236.21 538.82 239.57 C 518.81 242.50 499.61 250.43 483.20 262.21 C 457.93 280.34 439.51 306.46 426.22 334.26 C 418.65 350.28 412.32 366.94 407.78 384.08 C 417.65 389.41 426.72 396.06 435.52 402.97 C 435.46 397.84 437.18 392.94 438.32 388.00 C 441.40 381.68 446.65 376.40 453.01 373.39 C 457.31 372.46 461.53 370.95 465.94 370.73 C 553.31 370.73 640.68 370.74 728.04 370.73 C 741.72 370.97 755.61 369.76 769.06 372.88 C 778.74 375.20 788.63 377.00 797.79 381.06 C 807.92 385.26 816.79 391.85 825.47 398.45 C 836.26 406.91 844.26 418.26 851.55 429.73 C 870.09 404.98 895.89 385.76 924.93 375.13 C 956.75 363.36 992.31 362.10 1024.92 371.41 C 1037.83 375.22 1050.66 379.77 1062.24 386.74 C 1078.59 396.83 1094.24 408.72 1105.70 424.33 C 1114.74 435.99 1122.77 448.50 1128.63 462.07 C 1145.06 499.20 1146.67 542.57 1133.18 580.86 C 1122.04 612.91 1100.47 641.21 1072.56 660.50 C 1046.18 678.92 1014.17 689.06 982.01 689.24 C 956.37 689.50 930.70 683.53 907.83 671.93 C 868.78 652.33 838.47 616.23 825.93 574.37 C 817.18 581.04 808.24 587.70 798.03 591.99 C 788.75 596.15 778.68 597.95 768.85 600.32 C 759.09 602.57 749.03 602.53 739.07 602.42 C 739.07 618.27 739.05 634.11 739.08 649.96 C 739.33 655.15 737.52 660.11 736.40 665.11 C 733.46 671.44 728.21 676.55 722.01 679.70 C 717.69 680.73 713.40 682.09 708.97 682.50 C 694.00 682.50 679.02 682.53 664.05 682.48 C 664.52 674.38 661.37 665.04 653.53 661.47 C 648.47 658.72 642.60 658.85 637.03 658.98 C 625.33 659.10 613.63 658.83 601.94 659.03 C 598.83 658.65 597.41 661.72 595.60 663.62 C 592.05 667.98 586.98 670.68 582.00 673.07 C 577.01 675.46 571.56 676.86 566.03 677.05 C 558.95 677.37 552.09 675.05 545.03 675.03 C 536.66 674.95 528.29 675.08 519.93 674.97 C 513.19 674.74 506.76 677.58 500.01 676.98 C 489.34 676.12 478.44 672.00 471.30 663.75 C 469.22 661.75 467.28 658.80 464.03 658.99 C 434.35 659.09 404.66 658.89 374.98 659.05 C 372.42 658.98 369.90 658.56 367.37 658.23 C 398.35 650.10 426.45 630.39 443.06 602.81 C 442.92 602.22 442.63 601.03 442.49 600.44 C 425.72 590.70 408.95 580.95 392.15 571.27 C 391.61 571.42 390.54 571.73 390.00 571.88 C 382.26 585.57 368.67 595.36 353.60 599.48 C 337.26 603.97 319.49 603.20 303.55 597.48 C 288.78 592.16 276.10 581.25 268.84 567.31 C 260.28 551.10 258.36 532.02 260.91 514.05 C 263.32 497.12 271.39 480.64 284.87 469.83 C 300.11 457.36 320.65 453.04 339.95 454.73 C 356.52 456.16 372.94 463.41 383.82 476.23 C 386.23 478.91 387.88 482.17 390.28 484.85 C 391.62 485.76 393.05 484.98 394.27 484.28 C 410.46 474.93 426.54 465.39 442.84 456.23 C 443.04 452.43 440.18 449.63 438.22 446.70 C 421.71 423.70 397.03 406.97 369.83 399.32 C 374.38 379.59 379.81 360.02 387.15 341.13 C 393.37 325.32 400.81 309.80 411.27 296.33 C 429.77 272.21 452.70 251.34 479.00 236.03 C 489.70 229.92 501.11 224.99 513.02 221.78 C 518.57 220.31 524.22 218.78 530.02 218.90 C 549.68 219.30 569.14 222.88 588.10 227.91 C 574.95 220.49 562.17 212.29 548.12 206.62 C 534.47 200.85 519.70 198.26 504.97 197.33 C 487.00 196.28 468.76 197.67 451.39 202.58 C 427.01 209.71 405.49 224.05 385.99 239.97 C 373.82 250.05 362.26 260.87 351.40 272.34 C 331.22 294.53 317.24 321.59 306.39 349.35 C 299.98 365.94 294.73 382.97 290.51 400.24 C 262.91 408.50 238.18 426.19 221.88 449.99 C 195.08 488.71 191.06 541.33 209.51 584.38 C 220.72 610.65 240.99 632.93 266.20 646.39 C 263.88 682.34 258.78 719.02 242.55 751.61 C 235.62 765.59 226.70 778.63 215.89 789.91 C 202.16 804.07 184.39 813.83 165.70 819.75 C 147.76 825.34 128.72 827.82 109.97 825.94 C 90.83 824.01 71.83 817.37 56.83 805.11 C 62.60 817.26 70.98 828.15 80.96 837.14 C 96.08 850.67 115.70 858.91 135.91 860.53 C 145.60 861.66 155.35 860.13 165.06 861.12 C 198.63 862.51 231.58 850.00 258.63 830.68 C 267.53 824.42 275.75 817.22 283.15 809.26 C 284.25 815.08 284.82 821.47 288.83 826.17 C 291.64 829.61 295.89 831.43 300.05 832.66 C 288.57 843.51 276.23 853.53 262.50 861.42 C 227.79 881.69 186.89 889.99 146.96 888.51 C 123.01 887.00 98.89 879.89 79.51 865.39 C 67.13 856.27 57.43 843.85 50.57 830.16 C 43.50 816.04 38.98 800.66 36.90 785.03 C 36.11 782.63 38.84 780.17 40.98 781.91 C 55.56 789.76 71.13 795.76 87.16 799.88 C 107.96 805.30 130.14 805.35 150.96 800.05 C 168.46 795.44 185.11 786.83 198.05 774.08 C 211.75 760.88 221.29 743.92 227.62 726.11 C 235.18 704.47 238.73 681.40 238.29 658.50 C 224.34 649.07 211.98 637.25 202.45 623.33 C 191.31 608.67 182.96 591.85 178.56 573.94 C 176.46 564.97 174.02 556.07 172.80 546.93 C 170.90 533.05 170.96 518.89 172.99 505.03 C 174.19 496.56 176.45 488.30 178.38 479.99 C 182.63 462.46 190.54 445.89 201.32 431.45 C 208.85 420.52 217.74 410.47 228.17 402.23 C 239.15 393.76 250.57 385.67 263.36 380.16 C 272.31 356.36 282.74 333.10 294.64 310.62 C 302.83 295.27 311.77 280.29 322.05 266.24 C 340.81 240.28 365.96 219.38 393.64 203.49 M 900.90 419.85 C 876.65 437.51 859.35 464.09 852.22 493.16 C 843.29 529.30 848.26 569.22 867.94 601.07 C 882.94 625.68 906.65 644.71 933.78 654.34 C 962.30 664.47 994.15 665.36 1023.10 656.42 C 1051.85 647.66 1077.30 628.38 1092.98 602.67 C 1092.37 601.43 1091.92 600.00 1090.55 599.44 C 1074.65 590.26 1058.79 580.98 1042.87 571.84 C 1039.59 570.15 1038.25 574.59 1036.67 576.57 C 1026.42 591.51 1008.76 600.03 991.04 601.86 C 971.88 603.83 951.43 599.90 935.95 587.95 C 922.67 577.88 914.23 562.37 911.25 546.12 C 908.41 530.59 909.13 514.23 914.29 499.25 C 918.94 485.74 927.94 473.65 940.01 465.89 C 955.55 455.81 974.92 452.81 993.09 455.12 C 1011.08 457.42 1028.59 467.02 1038.27 482.66 C 1039.08 484.32 1040.89 486.20 1042.85 484.90 C 1059.45 475.41 1075.91 465.67 1092.52 456.19 C 1093.10 452.67 1090.15 450.16 1088.48 447.42 C 1068.49 419.02 1036.08 400.27 1001.81 395.56 C 966.77 390.64 929.54 398.69 900.90 419.85 M 462.42 402.06 C 462.33 486.58 462.44 571.10 462.36 655.62 C 462.78 656.08 463.63 657.01 464.05 657.47 C 517.47 657.53 570.90 657.35 624.32 657.56 C 625.11 656.51 626.16 655.49 625.94 654.05 C 625.93 636.35 626.00 618.64 625.91 600.95 C 626.25 598.69 623.86 597.67 621.99 597.97 C 589.34 597.99 556.69 597.97 524.04 597.98 C 524.04 584.07 524.01 570.17 524.05 556.27 C 553.82 556.37 583.60 556.14 613.37 556.39 C 614.54 555.23 615.26 553.75 615.04 552.07 C 615.00 535.01 615.08 517.94 615.01 500.88 C 615.23 499.43 614.15 498.44 613.36 497.42 C 583.61 497.69 553.84 497.41 524.08 497.56 C 523.97 484.63 524.06 471.70 524.04 458.76 C 556.04 458.76 588.03 458.75 620.03 458.77 C 621.63 458.99 623.02 458.24 624.20 457.24 C 624.00 438.50 624.18 419.75 624.10 401.01 C 623.73 400.59 622.98 399.73 622.61 399.30 C 570.41 399.17 518.20 399.31 466.00 399.24 C 464.29 398.94 462.17 400.13 462.42 402.06 M 652.34 399.25 C 651.92 399.69 651.06 400.56 650.64 400.99 C 650.64 485.32 650.64 569.64 650.64 653.97 C 650.25 655.94 651.93 657.90 654.00 657.45 C 672.33 657.48 690.67 657.49 709.00 657.45 C 710.97 657.85 712.61 655.99 712.27 654.09 C 712.30 628.52 712.27 602.95 712.29 577.38 C 725.87 577.32 739.46 577.49 753.04 577.29 C 781.37 576.35 808.99 561.47 824.70 537.76 C 836.25 520.73 841.35 499.56 839.20 479.12 C 837.25 459.21 828.22 440.09 814.07 425.94 C 800.42 412.11 782.12 403.08 762.92 400.30 C 754.01 398.89 744.96 399.31 735.98 399.25 C 708.10 399.25 680.22 399.25 652.34 399.25 Z" />
<path fill="#ffffff" opacity="1.00" d=" M 712.28 457.28 C 724.53 457.30 736.79 457.26 749.04 457.30 C 756.79 457.29 764.52 460.51 769.77 466.25 C 780.83 478.20 780.77 498.71 769.62 510.58 C 764.37 516.21 756.73 519.34 749.07 519.37 C 736.80 519.40 724.53 519.40 712.27 519.36 C 712.31 498.66 712.27 477.97 712.28 457.28 Z" />
</g>
<g id="#ffb931ff">
<path fill="#ffb931" opacity="1.00" d=" M 451.39 202.58 C 468.76 197.67 487.00 196.28 504.97 197.33 C 519.70 198.26 534.47 200.85 548.12 206.62 C 562.17 212.29 574.95 220.49 588.10 227.91 C 569.14 222.88 549.68 219.30 530.02 218.90 C 524.22 218.78 518.57 220.31 513.02 221.78 C 501.11 224.99 489.70 229.92 479.00 236.03 C 452.70 251.34 429.77 272.21 411.27 296.33 C 400.81 309.80 393.37 325.32 387.15 341.13 C 379.81 360.02 374.38 379.59 369.83 399.32 C 344.03 392.03 316.16 392.57 290.51 400.24 C 294.73 382.97 299.98 365.94 306.39 349.35 C 317.24 321.59 331.22 294.53 351.40 272.34 C 362.26 260.87 373.82 250.05 385.99 239.97 C 405.49 224.05 427.01 209.71 451.39 202.58 Z" />
<path fill="#ffb931" opacity="1.00" d=" M 266.20 646.39 C 291.03 659.80 320.04 664.71 347.99 661.71 C 342.78 694.26 333.41 726.27 318.91 755.93 C 309.46 775.20 297.77 793.49 283.15 809.26 C 275.75 817.22 267.53 824.42 258.63 830.68 C 231.58 850.00 198.63 862.51 165.06 861.12 C 155.35 860.13 145.60 861.66 135.91 860.53 C 115.70 858.91 96.08 850.67 80.96 837.14 C 70.98 828.15 62.60 817.26 56.83 805.11 C 71.83 817.37 90.83 824.01 109.97 825.94 C 128.72 827.82 147.76 825.34 165.70 819.75 C 184.39 813.83 202.16 804.07 215.89 789.91 C 226.70 778.63 235.62 765.59 242.55 751.61 C 258.78 719.02 263.88 682.34 266.20 646.39 Z" />
</g>
<g id="#0da098ff">
<path fill="#0da098" opacity="1.00" d=" M 290.51 400.24 C 316.16 392.57 344.03 392.03 369.83 399.32 C 397.03 406.97 421.71 423.70 438.22 446.70 C 440.18 449.63 443.04 452.43 442.84 456.23 C 426.54 465.39 410.46 474.93 394.27 484.28 C 393.05 484.98 391.62 485.76 390.28 484.85 C 387.88 482.17 386.23 478.91 383.82 476.23 C 372.94 463.41 356.52 456.16 339.95 454.73 C 320.65 453.04 300.11 457.36 284.87 469.83 C 271.39 480.64 263.32 497.12 260.91 514.05 C 258.36 532.02 260.28 551.10 268.84 567.31 C 276.10 581.25 288.78 592.16 303.55 597.48 C 319.49 603.20 337.26 603.97 353.60 599.48 C 368.67 595.36 382.26 585.57 390.00 571.88 C 390.54 571.73 391.61 571.42 392.15 571.27 C 408.95 580.95 425.72 590.70 442.49 600.44 C 442.63 601.03 442.92 602.22 443.06 602.81 C 426.45 630.39 398.35 650.10 367.37 658.23 C 360.96 659.66 354.53 661.03 347.99 661.71 C 320.04 664.71 291.03 659.80 266.20 646.39 C 240.99 632.93 220.72 610.65 209.51 584.38 C 191.06 541.33 195.08 488.71 221.88 449.99 C 238.18 426.19 262.91 408.50 290.51 400.24 Z" />
<path fill="#0da098" opacity="1.00" d=" M 900.90 419.85 C 929.54 398.69 966.77 390.64 1001.81 395.56 C 1036.08 400.27 1068.49 419.02 1088.48 447.42 C 1090.15 450.16 1093.10 452.67 1092.52 456.19 C 1075.91 465.67 1059.45 475.41 1042.85 484.90 C 1040.89 486.20 1039.08 484.32 1038.27 482.66 C 1028.59 467.02 1011.08 457.42 993.09 455.12 C 974.92 452.81 955.55 455.81 940.01 465.89 C 927.94 473.65 918.94 485.74 914.29 499.25 C 909.13 514.23 908.41 530.59 911.25 546.12 C 914.23 562.37 922.67 577.88 935.95 587.95 C 951.43 599.90 971.88 603.83 991.04 601.86 C 1008.76 600.03 1026.42 591.51 1036.67 576.57 C 1038.25 574.59 1039.59 570.15 1042.87 571.84 C 1058.79 580.98 1074.65 590.26 1090.55 599.44 C 1091.92 600.00 1092.37 601.43 1092.98 602.67 C 1077.30 628.38 1051.85 647.66 1023.10 656.42 C 994.15 665.36 962.30 664.47 933.78 654.34 C 906.65 644.71 882.94 625.68 867.94 601.07 C 848.26 569.22 843.29 529.30 852.22 493.16 C 859.35 464.09 876.65 437.51 900.90 419.85 Z" />
<path fill="#0da098" opacity="1.00" d=" M 462.42 402.06 C 462.17 400.13 464.29 398.94 466.00 399.24 C 518.20 399.31 570.41 399.17 622.61 399.30 C 622.98 399.73 623.73 400.59 624.10 401.01 C 624.18 419.75 624.00 438.50 624.20 457.24 C 623.02 458.24 621.63 458.99 620.03 458.77 C 588.03 458.75 556.04 458.76 524.04 458.76 C 524.06 471.70 523.97 484.63 524.08 497.56 C 553.84 497.41 583.61 497.69 613.36 497.42 C 614.15 498.44 615.23 499.43 615.01 500.88 C 615.08 517.94 615.00 535.01 615.04 552.07 C 615.26 553.75 614.54 555.23 613.37 556.39 C 583.60 556.14 553.82 556.37 524.05 556.27 C 524.01 570.17 524.04 584.07 524.04 597.98 C 556.69 597.97 589.34 597.99 621.99 597.97 C 623.86 597.67 626.25 598.69 625.91 600.95 C 626.00 618.64 625.93 636.35 625.94 654.05 C 626.16 655.49 625.11 656.51 624.32 657.56 C 570.90 657.35 517.47 657.53 464.05 657.47 C 463.63 657.01 462.78 656.08 462.36 655.62 C 462.44 571.10 462.33 486.58 462.42 402.06 Z" />
<path fill="#0da098" opacity="1.00" d=" M 652.34 399.25 C 680.22 399.25 708.10 399.25 735.98 399.25 C 744.96 399.31 754.01 398.89 762.92 400.30 C 782.12 403.08 800.42 412.11 814.07 425.94 C 828.22 440.09 837.25 459.21 839.20 479.12 C 841.35 499.56 836.25 520.73 824.70 537.76 C 808.99 561.47 781.37 576.35 753.04 577.29 C 739.46 577.49 725.87 577.32 712.29 577.38 C 712.27 602.95 712.30 628.52 712.27 654.09 C 712.61 655.99 710.97 657.85 709.00 657.45 C 690.67 657.49 672.33 657.48 654.00 657.45 C 651.93 657.90 650.25 655.94 650.64 653.97 C 650.64 569.64 650.64 485.32 650.64 400.99 C 651.06 400.56 651.92 399.69 652.34 399.25 M 712.28 457.28 C 712.27 477.97 712.31 498.66 712.27 519.36 C 724.53 519.40 736.80 519.40 749.07 519.37 C 756.73 519.34 764.37 516.21 769.62 510.58 C 780.77 498.71 780.83 478.20 769.77 466.25 C 764.52 460.51 756.79 457.29 749.04 457.30 C 736.79 457.26 724.53 457.30 712.28 457.28 Z" />
</g>
<g id="#fffcf7ff">
<path fill="#fffcf7" opacity="1.00" d=" M 347.99 661.71 C 354.53 661.03 360.96 659.66 367.37 658.23 C 369.90 658.56 372.42 658.98 374.98 659.05 C 404.66 658.89 434.35 659.09 464.03 658.99 C 467.28 658.80 469.22 661.75 471.30 663.75 C 478.44 672.00 489.34 676.12 500.01 676.98 C 506.76 677.58 513.19 674.74 519.93 674.97 C 528.29 675.08 536.66 674.95 545.03 675.03 C 552.09 675.05 558.95 677.37 566.03 677.05 C 571.56 676.86 577.01 675.46 582.00 673.07 C 586.98 670.68 592.05 667.98 595.60 663.62 C 597.41 661.72 598.83 658.65 601.94 659.03 C 613.63 658.83 625.33 659.10 637.03 658.98 C 642.60 658.85 648.47 658.72 653.53 661.47 C 661.37 665.04 664.52 674.38 664.05 682.48 C 663.91 726.32 664.09 770.16 663.96 813.99 C 663.74 824.30 654.34 833.24 644.04 832.99 C 531.04 833.02 418.04 832.98 305.03 833.01 C 303.37 832.97 301.69 832.93 300.05 832.66 C 295.89 831.43 291.64 829.61 288.83 826.17 C 284.82 821.47 284.25 815.08 283.15 809.26 C 297.77 793.49 309.46 775.20 318.91 755.93 C 333.41 726.27 342.78 694.26 347.99 661.71 M 394.41 694.07 C 392.96 700.21 393.18 707.48 397.43 712.51 C 401.36 717.26 408.87 718.43 414.03 715.05 C 416.31 713.70 417.66 711.34 418.95 709.13 C 417.51 708.48 416.06 707.83 414.64 707.21 C 413.22 709.19 411.66 711.44 409.08 711.92 C 405.12 713.00 400.84 710.47 399.48 706.68 C 398.10 702.74 398.10 698.27 399.43 694.32 C 400.75 690.46 405.06 687.90 409.08 688.94 C 411.57 689.39 413.12 691.53 414.61 693.37 C 416.05 692.71 417.50 692.06 418.95 691.40 C 416.79 687.81 413.52 684.50 409.15 684.04 C 402.53 682.84 395.95 687.67 394.41 694.07 M 426.25 684.15 C 426.25 695.02 426.25 705.89 426.25 716.76 C 432.76 716.76 439.28 716.76 445.80 716.76 C 445.79 715.20 445.79 713.65 445.80 712.11 C 440.88 712.10 435.96 712.10 431.05 712.10 C 431.04 709.20 431.04 706.29 431.07 703.39 C 434.62 703.41 438.17 703.41 441.72 703.41 C 441.72 701.85 441.72 700.30 441.72 698.75 C 438.16 698.74 434.61 698.74 431.06 698.76 C 431.04 695.42 431.04 692.08 431.05 688.75 C 435.96 688.75 440.88 688.75 445.80 688.75 C 445.79 687.21 445.79 685.67 445.80 684.15 C 439.28 684.15 432.76 684.15 426.25 684.15 M 453.09 684.28 C 453.08 695.10 453.09 705.93 453.09 716.75 C 454.72 716.74 456.35 716.74 457.99 716.76 C 458.04 708.88 457.91 701.00 458.07 693.13 C 462.95 700.95 467.85 708.77 472.61 716.67 C 474.15 716.71 475.69 716.74 477.24 716.79 C 477.26 705.92 477.25 695.06 477.25 684.19 C 475.61 684.18 473.97 684.18 472.34 684.19 C 472.33 692.11 472.35 700.03 472.33 707.95 C 467.43 700.02 462.59 692.06 457.73 684.10 C 456.18 684.15 454.63 684.21 453.09 684.28 M 482.66 684.26 C 482.64 685.81 482.63 687.37 482.61 688.95 C 485.25 688.99 487.89 689.00 490.53 689.05 C 490.48 698.32 490.49 707.59 490.53 716.86 C 492.15 716.84 493.77 716.83 495.41 716.83 C 495.40 707.56 495.44 698.30 495.39 689.04 C 498.02 688.99 500.66 689.00 503.31 688.99 C 503.33 687.43 503.35 685.87 503.39 684.32 C 496.48 684.18 489.57 684.27 482.66 684.26 M 508.34 684.28 C 508.34 695.09 508.33 705.90 508.34 716.71 C 509.98 716.67 511.62 716.65 513.28 716.62 C 513.24 713.24 513.24 709.87 513.25 706.49 C 514.97 706.49 516.70 706.49 518.44 706.51 C 520.24 709.86 522.07 713.21 523.79 716.61 C 525.72 716.64 527.65 716.67 529.58 716.69 C 527.56 712.96 525.55 709.23 523.58 705.48 C 530.09 701.47 531.01 690.93 524.98 686.15 C 520.19 682.54 513.84 684.29 508.34 684.28 M 544.48 684.63 C 539.58 686.30 536.36 691.14 535.69 696.15 C 534.81 702.22 535.46 709.35 540.27 713.73 C 545.32 718.48 554.20 717.93 558.60 712.55 C 563.07 707.12 563.17 699.20 561.18 692.76 C 559.03 686.05 551.10 682.08 544.48 684.63 M 584.34 684.27 C 584.34 695.10 584.34 705.92 584.34 716.74 C 590.07 716.50 596.42 717.80 601.54 714.49 C 606.34 711.47 607.93 705.40 607.74 700.04 C 607.70 694.69 605.84 688.83 601.11 685.83 C 596.11 682.57 589.89 684.27 584.34 684.27 M 615.25 684.15 C 615.25 695.02 615.25 705.89 615.25 716.76 C 621.76 716.76 628.28 716.76 634.79 716.76 C 634.79 715.20 634.79 713.65 634.80 712.11 C 629.88 712.10 624.96 712.10 620.04 712.10 C 620.04 709.19 620.04 706.29 620.07 703.39 C 623.62 703.41 627.17 703.41 630.72 703.41 C 630.72 701.85 630.72 700.30 630.72 698.75 C 627.16 698.74 623.60 698.74 620.05 698.75 C 620.04 695.42 620.04 692.08 620.05 688.75 C 624.96 688.74 629.88 688.75 634.80 688.75 C 634.79 687.21 634.79 685.67 634.80 684.15 C 628.28 684.15 621.76 684.15 615.25 684.15 M 351.25 726.91 C 351.27 737.78 351.21 748.66 351.28 759.53 C 357.78 759.49 364.29 759.52 370.79 759.51 C 370.79 757.95 370.79 756.40 370.79 754.85 C 365.88 754.85 360.96 754.85 356.05 754.86 C 356.04 751.95 356.04 749.05 356.05 746.16 C 359.60 746.16 363.16 746.16 366.72 746.16 C 366.72 744.60 366.72 743.05 366.72 741.50 C 363.17 741.49 359.63 741.49 356.08 741.53 C 356.03 738.17 356.03 734.82 356.09 731.47 C 360.99 731.52 365.89 731.49 370.79 731.50 C 370.79 729.96 370.79 728.42 370.79 726.90 C 364.28 726.90 357.76 726.89 351.25 726.91 M 377.44 738.69 C 380.10 744.07 387.14 743.97 391.11 747.82 C 393.38 750.35 391.18 754.61 387.91 754.69 C 384.53 755.46 381.98 752.78 380.93 749.89 C 379.35 750.38 377.77 750.89 376.19 751.43 C 377.79 757.79 384.96 761.45 391.07 759.10 C 396.65 757.51 399.10 750.04 395.71 745.39 C 392.54 740.98 386.13 741.17 382.69 737.18 C 380.97 734.34 384.08 731.18 387.00 731.49 C 389.90 731.20 391.87 733.53 392.99 735.88 C 394.47 735.49 395.95 735.11 397.44 734.72 C 396.08 728.87 389.64 725.34 383.94 727.00 C 378.85 727.94 375.09 733.79 377.44 738.69 M 400.63 731.74 C 403.25 731.75 405.87 731.74 408.50 731.75 C 408.50 741.03 408.50 750.31 408.50 759.59 C 410.13 759.57 411.77 759.57 413.42 759.58 C 413.43 750.29 413.37 741.01 413.45 731.73 C 416.08 731.74 418.72 731.74 421.36 731.75 C 421.33 730.15 421.31 728.56 421.29 726.98 C 414.42 727.01 407.56 727.01 400.69 726.98 C 400.66 728.56 400.65 730.14 400.63 731.74 M 425.83 727.10 C 426.00 734.74 425.36 742.42 426.06 750.04 C 426.88 756.49 433.67 760.90 439.94 759.57 C 445.28 758.93 449.35 754.06 449.63 748.78 C 449.91 741.53 449.53 734.26 449.63 727.00 C 448.00 726.94 446.37 726.90 444.75 726.88 C 444.70 733.92 444.99 740.97 444.72 748.01 C 444.62 751.53 441.76 754.87 438.09 754.82 C 434.18 755.20 430.78 751.75 430.74 747.92 C 430.49 740.96 430.72 733.98 430.73 727.01 C 429.09 727.02 427.46 727.05 425.83 727.10 M 458.33 727.04 C 458.36 737.86 458.31 748.68 458.36 759.50 C 464.26 759.24 470.93 760.62 476.06 756.88 C 480.43 753.79 481.87 748.10 481.74 743.01 C 481.73 737.66 479.96 731.77 475.29 728.70 C 470.28 725.28 463.95 727.00 458.33 727.04 M 490.09 726.95 C 490.09 737.80 490.09 748.65 490.09 759.50 C 491.72 759.49 493.36 759.49 495.00 759.50 C 495.00 748.56 495.00 737.63 495.00 726.69 C 493.36 726.77 491.72 726.85 490.09 726.95 M 511.19 727.16 C 507.85 737.97 504.47 748.76 501.14 759.56 C 502.79 759.53 504.45 759.51 506.11 759.48 C 506.72 757.39 507.31 755.31 507.94 753.24 C 512.19 753.25 516.45 753.25 520.70 753.26 C 521.32 755.35 521.93 757.44 522.56 759.54 C 524.19 759.53 525.83 759.52 527.48 759.52 C 524.10 748.61 520.76 737.68 517.34 726.79 C 515.28 726.90 513.24 727.03 511.19 727.16 M 533.59 727.04 C 533.59 737.86 533.59 748.68 533.59 759.50 C 535.22 759.49 536.86 759.49 538.50 759.50 C 538.51 751.62 538.48 743.75 538.51 735.88 C 543.52 743.66 548.31 751.58 553.18 759.45 C 554.68 759.48 556.19 759.52 557.70 759.56 C 557.81 748.69 557.72 737.81 557.75 726.94 C 556.11 726.93 554.47 726.93 552.84 726.94 C 552.82 734.80 552.87 742.65 552.82 750.51 C 547.76 742.73 543.11 734.70 538.20 726.84 C 536.66 726.89 535.12 726.96 533.59 727.04 M 563.15 727.00 C 563.14 728.57 563.15 730.16 563.15 731.75 C 565.76 731.74 568.38 731.74 571.00 731.75 C 571.02 741.04 570.96 750.32 571.04 759.61 C 572.65 759.59 574.27 759.58 575.90 759.58 C 575.92 750.30 575.90 741.03 575.91 731.75 C 578.55 731.74 581.19 731.74 583.83 731.75 C 583.83 730.16 583.83 728.58 583.84 727.00 C 576.94 726.99 570.04 727.00 563.15 727.00 M 588.75 726.91 C 588.75 737.77 588.75 748.64 588.75 759.51 C 595.26 759.51 601.78 759.51 608.30 759.51 C 608.29 757.95 608.29 756.40 608.29 754.86 C 603.37 754.85 598.46 754.86 593.54 754.84 C 593.54 751.95 593.54 749.05 593.54 746.17 C 597.10 746.15 600.66 746.16 604.22 746.16 C 604.22 744.60 604.22 743.05 604.22 741.50 C 600.66 741.49 597.10 741.50 593.55 741.50 C 593.54 738.16 593.54 734.83 593.55 731.50 C 598.46 731.50 603.38 731.50 608.30 731.50 C 608.29 729.96 608.29 728.43 608.29 726.90 C 601.78 726.90 595.26 726.90 588.75 726.91 M 615.08 738.98 C 617.85 743.96 624.38 744.07 628.38 747.56 C 631.10 750.12 628.64 754.82 625.11 754.73 C 621.88 755.33 619.48 752.71 618.46 749.96 C 616.88 750.37 615.32 750.80 613.76 751.24 C 615.08 757.60 622.13 761.34 628.20 759.22 C 633.90 757.85 636.63 750.41 633.36 745.62 C 630.35 741.19 624.24 741.14 620.54 737.65 C 618.26 735.12 620.99 731.41 623.99 731.51 C 627.07 730.98 629.34 733.40 630.53 735.93 C 632.01 735.50 633.47 735.07 634.96 734.65 C 633.46 728.63 626.67 725.14 620.86 727.16 C 615.91 728.35 612.59 734.30 615.08 738.98 M 587.25 767.75 C 588.52 768.65 589.80 769.56 591.08 770.48 C 592.88 768.00 594.69 765.52 596.49 763.05 C 595.22 762.11 593.95 761.17 592.70 760.25 C 590.87 762.74 589.05 765.23 587.25 767.75 M 514.38 769.61 C 508.92 770.70 504.84 775.59 503.95 780.97 C 502.86 787.10 503.44 794.33 508.15 798.89 C 514.02 804.69 525.10 803.42 529.24 796.19 C 532.60 790.25 532.62 782.50 529.68 776.39 C 526.95 770.91 520.25 768.18 514.38 769.61 M 576.25 770.00 C 576.59 777.69 575.83 785.46 576.87 793.10 C 578.41 801.08 588.25 804.45 595.14 801.17 C 599.48 799.32 602.03 794.64 602.05 790.04 C 602.17 783.22 601.98 776.40 602.01 769.59 C 599.14 769.58 596.27 769.58 593.41 769.59 C 593.37 776.09 593.59 782.59 593.44 789.10 C 593.47 791.19 592.17 793.57 589.88 793.73 C 587.16 794.26 584.91 791.66 585.07 789.08 C 584.83 782.56 584.96 776.04 584.86 769.52 C 581.98 769.67 579.11 769.83 576.25 770.00 M 342.84 770.03 C 342.84 780.78 342.84 791.53 342.84 802.28 C 345.72 802.28 348.61 802.28 351.50 802.28 C 351.50 799.37 351.50 796.46 351.50 793.56 C 354.90 793.50 358.67 793.63 361.48 791.37 C 368.05 786.44 367.38 774.71 360.01 770.83 C 354.69 768.08 348.53 770.16 342.84 770.03 M 370.25 769.85 C 370.25 780.65 370.25 791.45 370.25 802.26 C 376.19 802.26 382.13 802.26 388.07 802.26 C 388.07 799.53 388.07 796.82 388.07 794.11 C 385.05 794.10 382.02 794.10 379.00 794.10 C 379.00 785.85 379.00 777.59 379.00 769.34 C 376.08 769.50 373.16 769.67 370.25 769.85 M 401.11 770.01 C 397.83 780.77 394.54 791.52 391.27 802.28 C 394.17 802.28 397.08 802.28 399.99 802.28 C 400.41 800.72 400.83 799.15 401.26 797.61 C 404.64 797.59 408.02 797.59 411.40 797.59 C 411.83 799.15 412.27 800.71 412.71 802.28 C 415.61 802.28 418.51 802.28 421.42 802.28 C 418.19 791.32 414.80 780.41 411.66 769.43 C 408.14 769.55 404.62 769.78 401.11 770.01 M 425.50 769.93 C 425.50 780.70 425.50 791.47 425.50 802.25 C 428.42 802.24 431.33 802.25 434.25 802.25 C 434.26 796.83 434.22 791.42 434.29 786.01 C 437.46 791.44 440.69 796.84 443.89 802.26 C 446.51 802.24 449.14 802.24 451.77 802.23 C 451.69 791.35 451.84 780.47 451.69 769.60 C 448.79 769.63 445.89 769.63 443.00 769.65 C 442.98 775.10 443.05 780.57 442.95 786.03 C 439.69 780.50 436.58 774.89 433.32 769.37 C 430.71 769.56 428.11 769.74 425.50 769.93 M 475.64 774.74 C 471.63 780.23 471.54 787.91 473.86 794.10 C 476.78 801.65 486.81 804.82 493.68 800.68 C 496.64 799.08 498.30 796.04 499.59 793.07 C 496.99 792.00 494.39 790.96 491.76 790.00 C 490.56 792.51 488.00 794.82 485.01 793.65 C 480.95 792.40 480.68 787.33 481.09 783.81 C 481.16 780.68 483.74 777.58 487.08 777.99 C 489.20 778.00 490.38 779.93 491.69 781.28 C 494.27 780.28 496.85 779.27 499.40 778.20 C 498.11 776.02 496.88 773.71 494.82 772.18 C 489.16 767.57 479.92 768.87 475.64 774.74 M 537.25 769.93 C 537.24 780.69 537.28 791.45 537.22 802.21 C 540.14 802.24 543.07 802.25 546.00 802.26 C 546.00 796.82 545.98 791.38 546.02 785.95 C 547.79 789.25 549.57 792.56 551.32 795.88 C 553.02 795.86 554.72 795.84 556.43 795.82 C 558.16 792.50 559.95 789.22 561.75 785.94 C 561.75 791.37 561.74 796.81 561.75 802.25 C 564.66 802.25 567.58 802.24 570.50 802.25 C 570.50 791.47 570.50 780.70 570.50 769.92 C 567.58 769.74 564.67 769.56 561.76 769.39 C 559.09 773.99 556.68 778.75 553.78 783.22 C 551.18 778.61 548.59 774.00 545.99 769.39 C 543.07 769.56 540.16 769.74 537.25 769.93 M 608.00 769.92 C 608.00 780.70 608.00 791.47 608.00 802.25 C 610.91 802.25 613.83 802.24 616.75 802.25 C 616.45 796.94 617.45 791.43 616.09 786.27 C 617.65 786.94 618.27 788.62 619.15 789.97 C 621.50 794.06 623.98 798.08 626.30 802.20 C 628.94 802.24 631.59 802.25 634.25 802.26 C 634.25 791.38 634.25 780.51 634.25 769.64 C 631.33 769.63 628.41 769.63 625.50 769.64 C 625.50 775.13 625.50 780.63 625.50 786.13 C 622.26 780.57 619.08 774.97 615.87 769.39 C 613.24 769.56 610.62 769.74 608.00 769.92 Z" />
<path fill="#fffcf7" opacity="1.00" d=" M 513.25 688.84 C 515.97 688.91 518.98 688.25 521.46 689.70 C 525.60 692.50 524.82 700.29 519.81 701.72 C 517.65 702.15 515.43 701.97 513.24 702.02 C 513.25 697.62 513.25 693.23 513.25 688.84 Z" />
<path fill="#fffcf7" opacity="1.00" d=" M 545.26 689.29 C 548.39 687.74 552.57 688.43 554.84 691.14 C 557.18 693.82 557.57 697.57 557.52 700.99 C 557.48 704.28 556.81 707.88 554.32 710.26 C 551.31 713.22 545.88 713.09 543.07 709.92 C 540.14 706.69 540.04 702.00 540.34 697.90 C 540.58 694.52 542.05 690.85 545.26 689.29 Z" />
<path fill="#fffcf7" opacity="1.00" d=" M 589.25 688.86 C 592.82 688.73 597.16 688.19 599.73 691.30 C 603.46 695.86 603.74 702.92 601.01 708.04 C 598.62 712.16 593.38 711.94 589.26 711.85 C 589.24 704.19 589.26 696.52 589.25 688.86 Z" />
<path fill="#fffcf7" opacity="1.00" d=" M 463.23 731.64 C 466.23 731.63 469.60 730.93 472.24 732.77 C 475.51 734.99 476.70 739.17 476.75 742.94 C 476.87 746.54 476.09 750.68 473.01 752.95 C 470.20 755.04 466.50 754.49 463.23 754.57 C 463.26 746.92 463.26 739.28 463.23 731.64 Z" />
<path fill="#fffcf7" opacity="1.00" d=" M 509.27 748.75 C 510.97 743.16 512.61 737.56 514.36 731.99 C 516.00 737.59 517.72 743.16 519.32 748.77 C 515.97 748.74 512.62 748.74 509.27 748.75 Z" />
<path fill="#fffcf7" opacity="1.00" d=" M 515.49 777.68 C 518.47 776.31 522.14 778.26 522.68 781.50 C 523.37 785.13 523.65 789.33 521.62 792.61 C 519.23 796.01 513.24 794.63 512.61 790.49 C 511.87 786.29 511.15 780.16 515.49 777.68 Z" />
<path fill="#fffcf7" opacity="1.00" d=" M 351.51 785.85 C 351.50 783.19 351.50 780.53 351.55 777.87 C 354.23 777.59 357.78 778.58 357.33 782.00 C 357.54 785.24 353.99 785.92 351.51 785.85 Z" />
<path fill="#fffcf7" opacity="1.00" d=" M 406.29 779.46 C 407.47 782.83 408.38 786.29 409.26 789.75 C 407.31 789.74 405.37 789.74 403.43 789.75 C 404.35 786.31 405.21 782.85 406.29 779.46 Z" />
</g>
<g id="#282828ff">
<path fill="#282828" opacity="1.00" d=" M 394.41 694.07 C 395.95 687.67 402.53 682.84 409.15 684.04 C 413.52 684.50 416.79 687.81 418.95 691.40 C 417.50 692.06 416.05 692.71 414.61 693.37 C 413.12 691.53 411.57 689.39 409.08 688.94 C 405.06 687.90 400.75 690.46 399.43 694.32 C 398.10 698.27 398.10 702.74 399.48 706.68 C 400.84 710.47 405.12 713.00 409.08 711.92 C 411.66 711.44 413.22 709.19 414.64 707.21 C 416.06 707.83 417.51 708.48 418.95 709.13 C 417.66 711.34 416.31 713.70 414.03 715.05 C 408.87 718.43 401.36 717.26 397.43 712.51 C 393.18 707.48 392.96 700.21 394.41 694.07 Z" />
<path fill="#282828" opacity="1.00" d=" M 426.25 684.15 C 432.76 684.15 439.28 684.15 445.80 684.15 C 445.79 685.67 445.79 687.21 445.80 688.75 C 440.88 688.75 435.96 688.75 431.05 688.75 C 431.04 692.08 431.04 695.42 431.06 698.76 C 434.61 698.74 438.16 698.74 441.72 698.75 C 441.72 700.30 441.72 701.85 441.72 703.41 C 438.17 703.41 434.62 703.41 431.07 703.39 C 431.04 706.29 431.04 709.20 431.05 712.10 C 435.96 712.10 440.88 712.10 445.80 712.11 C 445.79 713.65 445.79 715.20 445.80 716.76 C 439.28 716.76 432.76 716.76 426.25 716.76 C 426.25 705.89 426.25 695.02 426.25 684.15 Z" />
<path fill="#282828" opacity="1.00" d=" M 453.09 684.28 C 454.63 684.21 456.18 684.15 457.73 684.10 C 462.59 692.06 467.43 700.02 472.33 707.95 C 472.35 700.03 472.33 692.11 472.34 684.19 C 473.97 684.18 475.61 684.18 477.25 684.19 C 477.25 695.06 477.26 705.92 477.24 716.79 C 475.69 716.74 474.15 716.71 472.61 716.67 C 467.85 708.77 462.95 700.95 458.07 693.13 C 457.91 701.00 458.04 708.88 457.99 716.76 C 456.35 716.74 454.72 716.74 453.09 716.75 C 453.09 705.93 453.08 695.10 453.09 684.28 Z" />
<path fill="#282828" opacity="1.00" d=" M 482.66 684.26 C 489.57 684.27 496.48 684.18 503.39 684.32 C 503.35 685.87 503.33 687.43 503.31 688.99 C 500.66 689.00 498.02 688.99 495.39 689.04 C 495.44 698.30 495.40 707.56 495.41 716.83 C 493.77 716.83 492.15 716.84 490.53 716.86 C 490.49 707.59 490.48 698.32 490.53 689.05 C 487.89 689.00 485.25 688.99 482.61 688.95 C 482.63 687.37 482.64 685.81 482.66 684.26 Z" />
<path fill="#282828" opacity="1.00" d=" M 508.34 684.28 C 513.84 684.29 520.19 682.54 524.98 686.15 C 531.01 690.93 530.09 701.47 523.58 705.48 C 525.55 709.23 527.56 712.96 529.58 716.69 C 527.65 716.67 525.72 716.64 523.79 716.61 C 522.07 713.21 520.24 709.86 518.44 706.51 C 516.70 706.49 514.97 706.49 513.25 706.49 C 513.24 709.87 513.24 713.24 513.28 716.62 C 511.62 716.65 509.98 716.67 508.34 716.71 C 508.33 705.90 508.34 695.09 508.34 684.28 M 513.25 688.84 C 513.25 693.23 513.25 697.62 513.24 702.02 C 515.43 701.97 517.65 702.15 519.81 701.72 C 524.82 700.29 525.60 692.50 521.46 689.70 C 518.98 688.25 515.97 688.91 513.25 688.84 Z" />
<path fill="#282828" opacity="1.00" d=" M 544.48 684.63 C 551.10 682.08 559.03 686.05 561.18 692.76 C 563.17 699.20 563.07 707.12 558.60 712.55 C 554.20 717.93 545.32 718.48 540.27 713.73 C 535.46 709.35 534.81 702.22 535.69 696.15 C 536.36 691.14 539.58 686.30 544.48 684.63 M 545.26 689.29 C 542.05 690.85 540.58 694.52 540.34 697.90 C 540.04 702.00 540.14 706.69 543.07 709.92 C 545.88 713.09 551.31 713.22 554.32 710.26 C 556.81 707.88 557.48 704.28 557.52 700.99 C 557.57 697.57 557.18 693.82 554.84 691.14 C 552.57 688.43 548.39 687.74 545.26 689.29 Z" />
<path fill="#282828" opacity="1.00" d=" M 584.34 684.27 C 589.89 684.27 596.11 682.57 601.11 685.83 C 605.84 688.83 607.70 694.69 607.74 700.04 C 607.93 705.40 606.34 711.47 601.54 714.49 C 596.42 717.80 590.07 716.50 584.34 716.74 C 584.34 705.92 584.34 695.10 584.34 684.27 M 589.25 688.86 C 589.26 696.52 589.24 704.19 589.26 711.85 C 593.38 711.94 598.62 712.16 601.01 708.04 C 603.74 702.92 603.46 695.86 599.73 691.30 C 597.16 688.19 592.82 688.73 589.25 688.86 Z" />
<path fill="#282828" opacity="1.00" d=" M 615.25 684.15 C 621.76 684.15 628.28 684.15 634.80 684.15 C 634.79 685.67 634.79 687.21 634.80 688.75 C 629.88 688.75 624.96 688.74 620.05 688.75 C 620.04 692.08 620.04 695.42 620.05 698.75 C 623.60 698.74 627.16 698.74 630.72 698.75 C 630.72 700.30 630.72 701.85 630.72 703.41 C 627.17 703.41 623.62 703.41 620.07 703.39 C 620.04 706.29 620.04 709.19 620.04 712.10 C 624.96 712.10 629.88 712.10 634.80 712.11 C 634.79 713.65 634.79 715.20 634.79 716.76 C 628.28 716.76 621.76 716.76 615.25 716.76 C 615.25 705.89 615.25 695.02 615.25 684.15 Z" />
<path fill="#282828" opacity="1.00" d=" M 351.25 726.91 C 357.76 726.89 364.28 726.90 370.79 726.90 C 370.79 728.42 370.79 729.96 370.79 731.50 C 365.89 731.49 360.99 731.52 356.09 731.47 C 356.03 734.82 356.03 738.17 356.08 741.53 C 359.63 741.49 363.17 741.49 366.72 741.50 C 366.72 743.05 366.72 744.60 366.72 746.16 C 363.16 746.16 359.60 746.16 356.05 746.16 C 356.04 749.05 356.04 751.95 356.05 754.86 C 360.96 754.85 365.88 754.85 370.79 754.85 C 370.79 756.40 370.79 757.95 370.79 759.51 C 364.29 759.52 357.78 759.49 351.28 759.53 C 351.21 748.66 351.27 737.78 351.25 726.91 Z" />
<path fill="#282828" opacity="1.00" d=" M 377.44 738.69 C 375.09 733.79 378.85 727.94 383.94 727.00 C 389.64 725.34 396.08 728.87 397.44 734.72 C 395.95 735.11 394.47 735.49 392.99 735.88 C 391.87 733.53 389.90 731.20 387.00 731.49 C 384.08 731.18 380.97 734.34 382.69 737.18 C 386.13 741.17 392.54 740.98 395.71 745.39 C 399.10 750.04 396.65 757.51 391.07 759.10 C 384.96 761.45 377.79 757.79 376.19 751.43 C 377.77 750.89 379.35 750.38 380.93 749.89 C 381.98 752.78 384.53 755.46 387.91 754.69 C 391.18 754.61 393.38 750.35 391.11 747.82 C 387.14 743.97 380.10 744.07 377.44 738.69 Z" />
<path fill="#282828" opacity="1.00" d=" M 400.63 731.74 C 400.65 730.14 400.66 728.56 400.69 726.98 C 407.56 727.01 414.42 727.01 421.29 726.98 C 421.31 728.56 421.33 730.15 421.36 731.75 C 418.72 731.74 416.08 731.74 413.45 731.73 C 413.37 741.01 413.43 750.29 413.42 759.58 C 411.77 759.57 410.13 759.57 408.50 759.59 C 408.50 750.31 408.50 741.03 408.50 731.75 C 405.87 731.74 403.25 731.75 400.63 731.74 Z" />
<path fill="#282828" opacity="1.00" d=" M 425.83 727.10 C 427.46 727.05 429.09 727.02 430.73 727.01 C 430.72 733.98 430.49 740.96 430.74 747.92 C 430.78 751.75 434.18 755.20 438.09 754.82 C 441.76 754.87 444.62 751.53 444.72 748.01 C 444.99 740.97 444.70 733.92 444.75 726.88 C 446.37 726.90 448.00 726.94 449.63 727.00 C 449.53 734.26 449.91 741.53 449.63 748.78 C 449.35 754.06 445.28 758.93 439.94 759.57 C 433.67 760.90 426.88 756.49 426.06 750.04 C 425.36 742.42 426.00 734.74 425.83 727.10 Z" />
<path fill="#282828" opacity="1.00" d=" M 458.33 727.04 C 463.95 727.00 470.28 725.28 475.29 728.70 C 479.96 731.77 481.73 737.66 481.74 743.01 C 481.87 748.10 480.43 753.79 476.06 756.88 C 470.93 760.62 464.26 759.24 458.36 759.50 C 458.31 748.68 458.36 737.86 458.33 727.04 M 463.23 731.64 C 463.26 739.28 463.26 746.92 463.23 754.57 C 466.50 754.49 470.20 755.04 473.01 752.95 C 476.09 750.68 476.87 746.54 476.75 742.94 C 476.70 739.17 475.51 734.99 472.24 732.77 C 469.60 730.93 466.23 731.63 463.23 731.64 Z" />
<path fill="#282828" opacity="1.00" d=" M 490.09 726.95 C 491.72 726.85 493.36 726.77 495.00 726.69 C 495.00 737.63 495.00 748.56 495.00 759.50 C 493.36 759.49 491.72 759.49 490.09 759.50 C 490.09 748.65 490.09 737.80 490.09 726.95 Z" />
<path fill="#282828" opacity="1.00" d=" M 511.19 727.16 C 513.24 727.03 515.28 726.90 517.34 726.79 C 520.76 737.68 524.10 748.61 527.48 759.52 C 525.83 759.52 524.19 759.53 522.56 759.54 C 521.93 757.44 521.32 755.35 520.70 753.26 C 516.45 753.25 512.19 753.25 507.94 753.24 C 507.31 755.31 506.72 757.39 506.11 759.48 C 504.45 759.51 502.79 759.53 501.14 759.56 C 504.47 748.76 507.85 737.97 511.19 727.16 M 509.27 748.75 C 512.62 748.74 515.97 748.74 519.32 748.77 C 517.72 743.16 516.00 737.59 514.36 731.99 C 512.61 737.56 510.97 743.16 509.27 748.75 Z" />
<path fill="#282828" opacity="1.00" d=" M 533.59 727.04 C 535.12 726.96 536.66 726.89 538.20 726.84 C 543.11 734.70 547.76 742.73 552.82 750.51 C 552.87 742.65 552.82 734.80 552.84 726.94 C 554.47 726.93 556.11 726.93 557.75 726.94 C 557.72 737.81 557.81 748.69 557.70 759.56 C 556.19 759.52 554.68 759.48 553.18 759.45 C 548.31 751.58 543.52 743.66 538.51 735.88 C 538.48 743.75 538.51 751.62 538.50 759.50 C 536.86 759.49 535.22 759.49 533.59 759.50 C 533.59 748.68 533.59 737.86 533.59 727.04 Z" />
<path fill="#282828" opacity="1.00" d=" M 563.15 727.00 C 570.04 727.00 576.94 726.99 583.84 727.00 C 583.83 728.58 583.83 730.16 583.83 731.75 C 581.19 731.74 578.55 731.74 575.91 731.75 C 575.90 741.03 575.92 750.30 575.90 759.58 C 574.27 759.58 572.65 759.59 571.04 759.61 C 570.96 750.32 571.02 741.04 571.00 731.75 C 568.38 731.74 565.76 731.74 563.15 731.75 C 563.15 730.16 563.14 728.57 563.15 727.00 Z" />
<path fill="#282828" opacity="1.00" d=" M 588.75 726.91 C 595.26 726.90 601.78 726.90 608.29 726.90 C 608.29 728.43 608.29 729.96 608.30 731.50 C 603.38 731.50 598.46 731.50 593.55 731.50 C 593.54 734.83 593.54 738.16 593.55 741.50 C 597.10 741.50 600.66 741.49 604.22 741.50 C 604.22 743.05 604.22 744.60 604.22 746.16 C 600.66 746.16 597.10 746.15 593.54 746.17 C 593.54 749.05 593.54 751.95 593.54 754.84 C 598.46 754.86 603.37 754.85 608.29 754.86 C 608.29 756.40 608.29 757.95 608.30 759.51 C 601.78 759.51 595.26 759.51 588.75 759.51 C 588.75 748.64 588.75 737.77 588.75 726.91 Z" />
<path fill="#282828" opacity="1.00" d=" M 615.08 738.98 C 612.59 734.30 615.91 728.35 620.86 727.16 C 626.67 725.14 633.46 728.63 634.96 734.65 C 633.47 735.07 632.01 735.50 630.53 735.93 C 629.34 733.40 627.07 730.98 623.99 731.51 C 620.99 731.41 618.26 735.12 620.54 737.65 C 624.24 741.14 630.35 741.19 633.36 745.62 C 636.63 750.41 633.90 757.85 628.20 759.22 C 622.13 761.34 615.08 757.60 613.76 751.24 C 615.32 750.80 616.88 750.37 618.46 749.96 C 619.48 752.71 621.88 755.33 625.11 754.73 C 628.64 754.82 631.10 750.12 628.38 747.56 C 624.38 744.07 617.85 743.96 615.08 738.98 Z" />
<path fill="#282828" opacity="1.00" d=" M 587.25 767.75 C 589.05 765.23 590.87 762.74 592.70 760.25 C 593.95 761.17 595.22 762.11 596.49 763.05 C 594.69 765.52 592.88 768.00 591.08 770.48 C 589.80 769.56 588.52 768.65 587.25 767.75 Z" />
<path fill="#282828" opacity="1.00" d=" M 514.38 769.61 C 520.25 768.18 526.95 770.91 529.68 776.39 C 532.62 782.50 532.60 790.25 529.24 796.19 C 525.10 803.42 514.02 804.69 508.15 798.89 C 503.44 794.33 502.86 787.10 503.95 780.97 C 504.84 775.59 508.92 770.70 514.38 769.61 M 515.49 777.68 C 511.15 780.16 511.87 786.29 512.61 790.49 C 513.24 794.63 519.23 796.01 521.62 792.61 C 523.65 789.33 523.37 785.13 522.68 781.50 C 522.14 778.26 518.47 776.31 515.49 777.68 Z" />
<path fill="#282828" opacity="1.00" d=" M 576.25 770.00 C 579.11 769.83 581.98 769.67 584.86 769.52 C 584.96 776.04 584.83 782.56 585.07 789.08 C 584.91 791.66 587.16 794.26 589.88 793.73 C 592.17 793.57 593.47 791.19 593.44 789.10 C 593.59 782.59 593.37 776.09 593.41 769.59 C 596.27 769.58 599.14 769.58 602.01 769.59 C 601.98 776.40 602.17 783.22 602.05 790.04 C 602.03 794.64 599.48 799.32 595.14 801.17 C 588.25 804.45 578.41 801.08 576.87 793.10 C 575.83 785.46 576.59 777.69 576.25 770.00 Z" />
<path fill="#282828" opacity="1.00" d=" M 342.84 770.03 C 348.53 770.16 354.69 768.08 360.01 770.83 C 367.38 774.71 368.05 786.44 361.48 791.37 C 358.67 793.63 354.90 793.50 351.50 793.56 C 351.50 796.46 351.50 799.37 351.50 802.28 C 348.61 802.28 345.72 802.28 342.84 802.28 C 342.84 791.53 342.84 780.78 342.84 770.03 M 351.51 785.85 C 353.99 785.92 357.54 785.24 357.33 782.00 C 357.78 778.58 354.23 777.59 351.55 777.87 C 351.50 780.53 351.50 783.19 351.51 785.85 Z" />
<path fill="#282828" opacity="1.00" d=" M 370.25 769.85 C 373.16 769.67 376.08 769.50 379.00 769.34 C 379.00 777.59 379.00 785.85 379.00 794.10 C 382.02 794.10 385.05 794.10 388.07 794.11 C 388.07 796.82 388.07 799.53 388.07 802.26 C 382.13 802.26 376.19 802.26 370.25 802.26 C 370.25 791.45 370.25 780.65 370.25 769.85 Z" />
<path fill="#282828" opacity="1.00" d=" M 401.11 770.01 C 404.62 769.78 408.14 769.55 411.66 769.43 C 414.80 780.41 418.19 791.32 421.42 802.28 C 418.51 802.28 415.61 802.28 412.71 802.28 C 412.27 800.71 411.83 799.15 411.40 797.59 C 408.02 797.59 404.64 797.59 401.26 797.61 C 400.83 799.15 400.41 800.72 399.99 802.28 C 397.08 802.28 394.17 802.28 391.27 802.28 C 394.54 791.52 397.83 780.77 401.11 770.01 M 406.29 779.46 C 405.21 782.85 404.35 786.31 403.43 789.75 C 405.37 789.74 407.31 789.74 409.26 789.75 C 408.38 786.29 407.47 782.83 406.29 779.46 Z" />
<path fill="#282828" opacity="1.00" d=" M 425.50 769.93 C 428.11 769.74 430.71 769.56 433.32 769.37 C 436.58 774.89 439.69 780.50 442.95 786.03 C 443.05 780.57 442.98 775.10 443.00 769.65 C 445.89 769.63 448.79 769.63 451.69 769.60 C 451.84 780.47 451.69 791.35 451.77 802.23 C 449.14 802.24 446.51 802.24 443.89 802.26 C 440.69 796.84 437.46 791.44 434.29 786.01 C 434.22 791.42 434.26 796.83 434.25 802.25 C 431.33 802.25 428.42 802.24 425.50 802.25 C 425.50 791.47 425.50 780.70 425.50 769.93 Z" />
<path fill="#282828" opacity="1.00" d=" M 475.64 774.74 C 479.92 768.87 489.16 767.57 494.82 772.18 C 496.88 773.71 498.11 776.02 499.40 778.20 C 496.85 779.27 494.27 780.28 491.69 781.28 C 490.38 779.93 489.20 778.00 487.08 777.99 C 483.74 777.58 481.16 780.68 481.09 783.81 C 480.68 787.33 480.95 792.40 485.01 793.65 C 488.00 794.82 490.56 792.51 491.76 790.00 C 494.39 790.96 496.99 792.00 499.59 793.07 C 498.30 796.04 496.64 799.08 493.68 800.68 C 486.81 804.82 476.78 801.65 473.86 794.10 C 471.54 787.91 471.63 780.23 475.64 774.74 Z" />
<path fill="#282828" opacity="1.00" d=" M 537.25 769.93 C 540.16 769.74 543.07 769.56 545.99 769.39 C 548.59 774.00 551.18 778.61 553.78 783.22 C 556.68 778.75 559.09 773.99 561.76 769.39 C 564.67 769.56 567.58 769.74 570.50 769.92 C 570.50 780.70 570.50 791.47 570.50 802.25 C 567.58 802.24 564.66 802.25 561.75 802.25 C 561.74 796.81 561.75 791.37 561.75 785.94 C 559.95 789.22 558.16 792.50 556.43 795.82 C 554.72 795.84 553.02 795.86 551.32 795.88 C 549.57 792.56 547.79 789.25 546.02 785.95 C 545.98 791.38 546.00 796.82 546.00 802.26 C 543.07 802.25 540.14 802.24 537.22 802.21 C 537.28 791.45 537.24 780.69 537.25 769.93 Z" />
<path fill="#282828" opacity="1.00" d=" M 608.00 769.92 C 610.62 769.74 613.24 769.56 615.87 769.39 C 619.08 774.97 622.26 780.57 625.50 786.13 C 625.50 780.63 625.50 775.13 625.50 769.64 C 628.41 769.63 631.33 769.63 634.25 769.64 C 634.25 780.51 634.25 791.38 634.25 802.26 C 631.59 802.25 628.94 802.24 626.30 802.20 C 623.98 798.08 621.50 794.06 619.15 789.97 C 618.27 788.62 617.65 786.94 616.09 786.27 C 617.45 791.43 616.45 796.94 616.75 802.25 C 613.83 802.24 610.91 802.25 608.00 802.25 C 608.00 791.47 608.00 780.70 608.00 769.92 Z" />
</g>
</svg>
