<?xml version="1.0" encoding="UTF-8" standalone="no"?>
<!-- Created with Inkscape (http://www.inkscape.org/) -->

<svg
   xmlns:dc="http://purl.org/dc/elements/1.1/"
   xmlns:cc="http://creativecommons.org/ns#"
   xmlns:rdf="http://www.w3.org/1999/02/22-rdf-syntax-ns#"
   xmlns:svg="http://www.w3.org/2000/svg"
   xmlns="http://www.w3.org/2000/svg"
   xmlns:sodipodi="http://sodipodi.sourceforge.net/DTD/sodipodi-0.dtd"
   xmlns:inkscape="http://www.inkscape.org/namespaces/inkscape"
   width="4355.2759"
   height="963.15973"
   viewBox="0 0 4355.276 963.1597"
   id="svg2"
   version="1.1"
   inkscape:version="0.91 r13725"
   sodipodi:docname="diario_horiz.svg"
   inkscape:export-filename="/home/adderou/Logos/Diario/Logo-Diario.png"
   inkscape:export-xdpi="90"
   inkscape:export-ydpi="90">
  <defs
     id="defs4" />
  <sodipodi:namedview
     id="base"
     pagecolor="#ffffff"
     bordercolor="#666666"
     borderopacity="1.0"
     inkscape:pageopacity="0.0"
     inkscape:pageshadow="2"
     inkscape:zoom="0.23325825"
     inkscape:cx="1192.6123"
     inkscape:cy="-504.66079"
     inkscape:document-units="px"
     inkscape:current-layer="g4345"
     showgrid="false"
     showguides="false"
     fit-margin-top="0"
     fit-margin-left="0"
     fit-margin-right="0"
     fit-margin-bottom="0"
     inkscape:window-width="1366"
     inkscape:window-height="719"
     inkscape:window-x="0"
     inkscape:window-y="0"
     inkscape:window-maximized="0" />
  <metadata
     id="metadata7">
    <rdf:RDF>
      <cc:Work
         rdf:about="">
        <dc:format>image/svg+xml</dc:format>
        <dc:type
           rdf:resource="http://purl.org/dc/dcmitype/StillImage" />
        <dc:title></dc:title>
      </cc:Work>
    </rdf:RDF>
  </metadata>
  <g
     inkscape:label="Layer 1"
     inkscape:groupmode="layer"
     id="layer1"
     transform="translate(149.89027,-42.893337)">
    <g
       id="g4345">
      <rect
         y="42.893337"
         x="-149.89027"
         height="963.15973"
         width="4355.2759"
         id="rect4262"
         style="opacity:1;fill:#313140;fill-opacity:1;stroke:none" />
      <g
         id="g4183"
         transform="translate(-27.86611,-15.004828)">
        <path
           style="fill:#6a6ab4;fill-opacity:1;fill-rule:evenodd;stroke:none"
           d="m 142.12121,311.45311 16.24243,-69.69697 423.69697,0 -17.75758,69.69697 z"
           id="path3347"
           inkscape:connector-curvature="0"
           sodipodi:nodetypes="ccccc" />
        <path
           style="fill:#e68320;fill-opacity:1;fill-rule:evenodd;stroke:none"
           d="m 85.8196,539.19406 289.98006,0 44.5464,-200.26074 -283.98007,0 z"
           id="path4149"
           inkscape:connector-curvature="0"
           sodipodi:nodetypes="ccccc" />
        <path
           style="fill:#00a7ca;fill-opacity:1;fill-rule:evenodd;stroke:none"
           d="m 439.01818,418.00246 4.5163,-23.89475 100.40606,0 -4.79199,25.03259 z"
           id="path4151"
           inkscape:connector-curvature="0"
           sodipodi:nodetypes="ccccc" />
        <path
           style="fill:#ffffff;fill-opacity:1;stroke:none"
           d="M 686.25951,162.58837 A 43.238113,43.238113 0 0 0 647.3624,202.61516 L 518.11487,813.3035 a 43.238113,43.238113 0 0 0 -19.99167,-2.83443 43.238113,43.238113 0 0 0 -38.84615,47.22367 43.238113,43.238113 0 0 0 47.22366,38.84615 43.238113,43.238113 0 0 0 38.32257,-35.36522 L 672.05132,244.69672 a 43.238113,43.238113 0 0 0 22.58571,3.96147 43.238113,43.238113 0 0 0 38.84615,-47.22367 43.238113,43.238113 0 0 0 -47.22367,-38.84615 z"
           id="path4243"
           inkscape:connector-curvature="0" />
        <path
           style="fill:#00a7ca;fill-opacity:1;fill-rule:evenodd;stroke:none"
           d="m 67.701778,599.49986 4.629613,-23.89475 432.267829,0 -4.88808,25.03259 z"
           id="path4151-5-8-7"
           inkscape:connector-curvature="0"
           sodipodi:nodetypes="ccccc" />
        <path
           style="fill:#00a7ca;fill-opacity:1;fill-rule:evenodd;stroke:none"
           d="m 426.25513,475.81972 4.5163,-23.89475 100.40606,0 -4.79199,25.03259 z"
           id="path4151-56"
           inkscape:connector-curvature="0"
           sodipodi:nodetypes="ccccc" />
        <path
           style="fill:#00a7ca;fill-opacity:1;fill-rule:evenodd;stroke:none"
           d="m 413.88238,534.36699 4.5163,-23.89475 100.40606,0 -4.79199,25.03259 z"
           id="path4151-56-3"
           inkscape:connector-curvature="0"
           sodipodi:nodetypes="ccccc" />
        <path
           style="fill:#00a7ca;fill-opacity:1;fill-rule:evenodd;stroke:none"
           d="m 57.185488,658.6678 4.629613,-23.89475 432.267829,0 -4.88808,25.03259 z"
           id="path4151-5-8-7-3"
           inkscape:connector-curvature="0"
           sodipodi:nodetypes="ccccc" />
        <path
           style="fill:#00a7ca;fill-opacity:1;fill-rule:evenodd;stroke:none"
           d="m 43.531346,722.38713 4.629613,-23.89475 432.267831,0 -4.88808,25.03259 z"
           id="path4151-5-8-7-3-6"
           inkscape:connector-curvature="0"
           sodipodi:nodetypes="ccccc" />
      </g>
      <g
         id="g3150"
         transform="matrix(1.5626767,0,0,1.5626767,-119.44622,-224.0448)">
        <g
           transform="translate(902.43326,-135.04346)"
           id="text4158"
           style="font-style:normal;font-weight:normal;font-size:320.93768311px;line-height:125%;font-family:sans-serif;letter-spacing:0px;word-spacing:0px;fill:#00a7ca;fill-opacity:1;stroke:none">
          <path
             inkscape:connector-curvature="0"
             id="path3134"
             style="font-variant:normal;font-weight:bold;font-stretch:normal;font-family:TimeBurner;-inkscape-font-specification:'TimeBurner Bold';fill:#00a7ca"
             d="m 646.24548,480.72605 27.92158,0 0,234.28451 -27.92158,0 0,-234.28451" />
          <path
             inkscape:connector-curvature="0"
             id="path3136"
             style="font-variant:normal;font-weight:bold;font-stretch:normal;font-family:TimeBurner;-inkscape-font-specification:'TimeBurner Bold';fill:#00a7ca"
             d="m 783.93276,551.0114 c 11.55366,1.7e-4 22.35856,2.24673 32.41471,6.73969 10.26988,4.27933 19.14915,10.16318 26.63783,17.65158 7.70235,7.48867 13.69318,16.36794 17.97251,26.63782 4.49296,10.27011 6.73952,21.18198 6.73969,32.73565 l 0,80.23442 -27.60064,0 0,-80.23442 c -1.4e-4,-7.70242 -1.49785,-14.977 -4.49313,-21.82376 -2.78159,-6.84657 -6.73982,-12.8374 -11.87469,-17.97251 -4.92117,-5.13488 -10.80502,-9.09311 -17.65158,-11.8747 -6.84677,-2.99528 -14.22833,-4.49299 -22.1447,-4.49313 -7.70258,1.4e-4 -14.97716,1.49785 -21.82376,4.49313 -6.84672,2.78159 -12.83756,6.73982 -17.97251,11.8747 -4.92108,5.13511 -8.87931,11.12594 -11.87469,17.97251 -2.99545,6.84676 -4.49316,14.12134 -4.49313,21.82376 l 0,80.23442 -27.2797,0 0,-80.23442 c 0,-11.55367 2.13958,-22.46554 6.41875,-32.73565 4.49312,-10.26988 10.48395,-19.14915 17.97251,-26.63782 7.70247,-7.4884 16.58174,-13.37225 26.63783,-17.65158 10.05598,-4.49296 20.86087,-6.73952 32.4147,-6.73969" />
          <path
             inkscape:connector-curvature="0"
             id="path3138"
             style="font-variant:normal;font-weight:bold;font-stretch:normal;font-family:TimeBurner;-inkscape-font-specification:'TimeBurner Bold';fill:#00a7ca"
             d="m 897.63496,516.0292 27.60064,0 0,39.15439 56.1641,0 0,27.27971 -56.1641,0 0,90.18348 c -3e-5,4.70713 1.60466,8.77234 4.81407,12.19564 3.4233,3.2094 7.59548,4.81409 12.51657,4.81406 4.92099,3e-5 8.9862,-2.24653 12.19563,-6.73969 3.42327,-4.49309 5.13494,-9.94903 5.135,-16.36782 l 27.27971,0 c -9e-5,7.06067 -1.17687,13.69337 -3.53032,19.89814 -2.35363,5.99085 -5.563,11.33981 -9.62813,16.04688 -3.85133,4.49314 -8.55841,8.13043 -14.12126,10.91188 -5.34902,2.5675 -11.12589,3.85125 -17.33063,3.85125 -6.20484,0 -12.08869,-1.17677 -17.65157,-3.53031 -5.34899,-2.35354 -10.05607,-5.56291 -14.12126,-9.62813 -4.06522,-4.0652 -7.2746,-8.77228 -9.62813,-14.12126 -2.35355,-5.34893 -3.53032,-11.1258 -3.53032,-17.33064 l 0,-156.61758" />
          <path
             inkscape:connector-curvature="0"
             id="path3140"
             style="font-variant:normal;font-weight:bold;font-stretch:normal;font-family:TimeBurner;-inkscape-font-specification:'TimeBurner Bold';fill:#00a7ca"
             d="m 1138.7294,621.61769 c -1.7119,-5.99073 -4.2793,-11.55365 -7.7026,-16.68876 -3.2095,-5.34884 -7.1677,-9.84197 -11.8746,-13.47938 -4.7072,-3.85112 -10.0562,-6.84654 -16.0469,-8.98625 -5.777,-2.13945 -11.9818,-3.20925 -18.6144,-3.20938 -6.6328,1.3e-4 -12.9446,1.06993 -18.9353,3.20938 -5.777,2.13971 -11.019,5.13513 -15.726,8.98625 -4.7071,3.63741 -8.7723,8.13054 -12.1956,13.47938 -3.4234,5.13511 -5.8839,10.69803 -7.3816,16.68876 l 108.477,0 m -54.2385,97.24412 c -11.5538,0 -22.4657,-2.13958 -32.7357,-6.41875 -10.056,-4.49312 -18.9353,-10.48395 -26.6378,-17.97251 -7.4885,-7.70248 -13.4794,-16.58175 -17.9725,-26.63783 -4.2792,-10.05599 -6.4188,-20.86088 -6.4187,-32.41471 -10e-5,-11.55366 2.1395,-22.46553 6.4187,-32.73564 4.4931,-10.26988 10.484,-19.14915 17.9725,-26.63783 7.7025,-7.4884 16.5818,-13.37225 26.6378,-17.65157 10.27,-4.49297 21.1819,-6.73953 32.7357,-6.73969 11.5536,1.6e-4 22.3585,2.24672 32.4147,6.73969 10.2699,4.27932 19.1491,10.16317 26.6378,17.65157 7.4884,7.48868 13.3723,16.36795 17.6516,26.63783 4.493,10.27011 6.7395,21.18198 6.7397,32.73564 -2e-4,1.49779 -2e-4,3.10248 0,4.81407 -2e-4,1.71174 -0.2141,4.60018 -0.6419,8.66532 l -137.0404,0 c 1.4977,6.20485 3.9582,11.87474 7.3816,17.00969 3.4233,5.13505 7.4885,9.62817 12.1956,13.47939 4.707,3.85128 9.949,6.8467 15.726,8.98625 5.9907,2.13961 12.3025,3.2094 18.9353,3.20938 5.1349,2e-5 10.2699,-1.28373 15.405,-3.85125 5.1349,-2.78143 10.0559,-6.41872 14.7631,-10.91189 l 19.2563,19.25627 c -7.0608,6.84668 -14.8702,12.40959 -23.4285,16.68876 -8.3444,4.0652 -17.0098,6.09781 -25.9959,6.09781" />
          <path
             inkscape:connector-curvature="0"
             id="path3142"
             style="font-variant:normal;font-weight:bold;font-stretch:normal;font-family:TimeBurner;-inkscape-font-specification:'TimeBurner Bold';fill:#00a7ca"
             d="m 1277.234,551.65328 c 11.5537,1.6e-4 22.3586,2.24672 32.4147,6.73969 10.2699,4.27932 19.1492,10.16317 26.6379,17.65157 7.7023,7.48868 13.6932,16.36795 17.9725,26.63783 4.4929,10.27011 6.7395,21.18198 6.7397,32.73564 -2e-4,15.40508 -3.7445,29.41934 -11.2328,42.04284 -7.2748,12.62357 -17.2238,22.57263 -29.8473,29.8472 6.2047,5.99084 11.3397,13.15844 15.4051,21.50283 4.065,8.55832 6.0976,17.54456 6.0978,26.95876 -2e-4,8.77225 -1.8188,17.00964 -5.456,24.71221 -3.6374,7.91639 -8.6654,14.76305 -15.084,20.54001 -6.4189,5.77678 -13.9075,10.37689 -22.4657,13.80032 -8.3445,3.42323 -17.3307,5.1349 -26.9587,5.135 l 0,-27.2797 c 5.7768,-8e-5 11.2327,-0.96289 16.3678,-2.88844 5.3488,-1.9257 9.9489,-4.60018 13.8003,-8.02344 3.8511,-3.4234 6.8466,-7.38163 8.9863,-11.8747 2.3534,-4.27922 3.5301,-8.9863 3.5303,-14.12126 -2e-4,-5.13503 -0.963,-9.94909 -2.8885,-14.44219 -1.9257,-4.27919 -4.6002,-8.13044 -8.0234,-11.55376 -3.4235,-3.42334 -7.3817,-6.09782 -11.8747,-8.02344 -4.2793,-1.92563 -8.9864,-2.88844 -14.1213,-2.88844 -11.5538,0 -22.3587,-2.13958 -32.4147,-6.41875 -10.0561,-4.49312 -18.9353,-10.48395 -26.6378,-17.97251 -7.4886,-7.70248 -13.4794,-16.58175 -17.9725,-26.63783 -4.2792,-10.05599 -6.4188,-20.86088 -6.4188,-32.41471 0,-11.55366 2.1396,-22.46553 6.4188,-32.73564 4.4931,-10.26988 10.4839,-19.14915 17.9725,-26.63783 7.7025,-7.4884 16.5817,-13.37225 26.6378,-17.65157 10.056,-4.49297 20.8609,-6.73953 32.4147,-6.73969 m 0,27.60064 c -7.7025,1.3e-4 -14.9771,1.49784 -21.8237,4.49313 -6.8468,2.78159 -12.8376,6.73981 -17.9725,11.87469 -4.9211,5.13512 -8.8793,11.12595 -11.8747,17.97251 -2.9955,6.84677 -4.4932,14.12135 -4.4932,21.82376 0,7.70258 1.4977,14.97716 4.4932,21.82377 2.9954,6.84672 6.9536,12.83755 11.8747,17.97251 5.1349,4.92108 11.1257,8.8793 17.9725,11.87469 6.8466,2.99544 14.1212,4.49315 21.8237,4.49313 7.9164,2e-5 15.298,-1.49769 22.1447,-4.49313 6.8466,-2.99539 12.7304,-6.95361 17.6516,-11.87469 5.1349,-5.13496 9.0931,-11.12579 11.8747,-17.97251 2.9953,-6.84661 4.493,-14.12119 4.4931,-21.82377 -1e-4,-7.70241 -1.4978,-14.97699 -4.4931,-21.82376 -2.7816,-6.84656 -6.7398,-12.83739 -11.8747,-17.97251 -4.9212,-5.13488 -10.805,-9.0931 -17.6516,-11.87469 -6.8467,-2.99529 -14.2283,-4.493 -22.1447,-4.49313" />
          <path
             inkscape:connector-curvature="0"
             id="path3144"
             style="font-variant:normal;font-weight:bold;font-stretch:normal;font-family:TimeBurner;-inkscape-font-specification:'TimeBurner Bold';fill:#00a7ca"
             d="m 1419.4696,715.01056 -27.6006,0 0,-80.23442 c 0,-11.55367 2.3535,-22.46554 7.0606,-32.73565 4.7071,-10.26988 11.1258,-19.14915 19.2563,-26.63782 8.1303,-7.4884 17.5445,-13.37225 28.2425,-17.65158 10.9118,-4.49296 22.5725,-6.73952 34.9822,-6.73969 l 0,27.60064 c -8.5584,1.4e-4 -16.5819,1.49785 -24.0703,4.49313 -7.4886,2.78159 -14.1214,6.73982 -19.8982,11.8747 -5.5629,5.13511 -9.9491,11.12594 -13.1584,17.97251 -3.2094,6.84676 -4.8141,14.12134 -4.8141,21.82376 l 0,80.23442" />
          <path
             inkscape:connector-curvature="0"
             id="path3146"
             style="font-variant:normal;font-weight:bold;font-stretch:normal;font-family:TimeBurner;-inkscape-font-specification:'TimeBurner Bold';fill:#00a7ca"
             d="m 1570.2401,550.69047 c 11.5537,1.6e-4 22.4656,2.24672 32.7357,6.73969 10.2698,4.27932 19.1491,10.27015 26.6378,17.97251 7.7024,7.48867 13.6932,16.36794 17.9725,26.63782 4.493,10.05615 6.7395,20.86105 6.7397,32.41471 l 0,80.23442 -27.9216,0 0,-17.97251 c -7.4887,6.63272 -16.047,11.8747 -25.675,15.72595 -9.4143,3.63729 -19.5773,5.45594 -30.4891,5.45594 -11.5538,0 -22.3587,-2.13959 -32.4147,-6.41876 -10.0561,-4.49311 -18.9353,-10.48395 -26.6378,-17.97251 -7.4886,-7.48851 -13.4794,-16.2608 -17.9725,-26.31689 -4.2792,-10.26994 -6.4188,-21.18181 -6.4188,-32.73564 0,-11.55366 2.1396,-22.35856 6.4188,-32.41471 4.4931,-10.26988 10.4839,-19.14915 17.9725,-26.63782 7.7025,-7.70236 16.5817,-13.69319 26.6378,-17.97251 10.056,-4.49297 20.8609,-6.73953 32.4147,-6.73969 m 0,27.60064 c -7.7026,1.3e-4 -14.9771,1.49784 -21.8237,4.49312 -6.8468,2.78159 -12.8376,6.73982 -17.9725,11.8747 -4.9211,5.13512 -8.8794,11.12595 -11.8747,17.97251 -2.9955,6.84676 -4.4932,14.12134 -4.4932,21.82376 0,7.70258 1.4977,14.97716 4.4932,21.82376 2.9953,6.84673 6.9536,12.83756 11.8747,17.97251 5.1349,4.92108 11.1257,8.87931 17.9725,11.8747 6.8466,2.99544 14.1211,4.49315 21.8237,4.49313 7.9164,2e-5 15.298,-1.49769 22.1447,-4.49313 6.8466,-2.99539 12.7304,-6.95362 17.6516,-11.8747 5.1349,-5.13495 9.0931,-11.12578 11.8747,-17.97251 2.9953,-6.8466 4.493,-14.12118 4.4931,-21.82376 -10e-5,-7.70242 -1.4978,-14.977 -4.4931,-21.82376 -2.7816,-6.84656 -6.7398,-12.83739 -11.8747,-17.97251 -4.9212,-5.13488 -10.805,-9.09311 -17.6516,-11.8747 -6.8467,-2.99528 -14.2283,-4.49299 -22.1447,-4.49312" />
          <path
             inkscape:connector-curvature="0"
             id="path3148"
             style="font-variant:normal;font-weight:bold;font-stretch:normal;font-family:TimeBurner;-inkscape-font-specification:'TimeBurner Bold';fill:#00a7ca"
             d="m 1684.5842,480.08418 27.2797,0 0,193.20448 c 0,4.92108 2.2466,9.09327 6.7397,12.51657 4.7071,3.42336 10.27,5.13503 16.6888,5.135 l 0,27.27971 c -7.0607,-10e-6 -13.6934,-1.17678 -19.8982,-3.53032 -5.9908,-2.35354 -11.3398,-5.56291 -16.0469,-9.62813 -4.4931,-4.0652 -8.1304,-8.77228 -10.9118,-14.12126 -2.5675,-5.56289 -3.8513,-11.44674 -3.8513,-17.65157 l 0,-193.20448" />
        </g>
        <g
           transform="matrix(0.85583382,0,0,0.85583382,-112.61377,270.57347)"
           id="g4166">
          <g
             id="text3352"
             style="font-style:normal;font-weight:normal;font-size:375px;line-height:125%;font-family:sans-serif;text-align:end;letter-spacing:0px;word-spacing:0px;text-anchor:end;fill:#e68320;fill-opacity:1;stroke:none">
            <path
               inkscape:connector-curvature="0"
               id="path3116"
               style="font-variant:normal;font-weight:bold;font-stretch:normal;font-size:350px;font-family:TimeBurner;-inkscape-font-specification:'TimeBurner Bold';fill:#e68320"
               d="m 1102.7882,327.92142 56.35,0 c 8.6332,3e-5 16.6832,-1.6333 24.15,-4.9 7.6998,-3.26663 14.3498,-7.69995 19.95,-13.3 5.8332,-5.83328 10.3832,-12.48327 13.65,-19.95 3.2665,-7.69992 4.8998,-15.86658 4.9,-24.5 l 0,-69.3 c -2e-4,-8.63316 -1.6335,-16.68315 -4.9,-24.15 -3.2668,-7.6998 -7.8168,-14.3498 -13.65,-19.95 -5.6002,-5.59978 -12.2502,-10.03311 -19.95,-13.3 -7.4668,-3.26644 -15.5168,-4.89977 -24.15,-4.9 l -56.35,0 0,194.25 m -30.45,29.4 0,-254.45 86.8,0 c 12.8332,2.6e-4 24.8498,2.45026 36.05,7.35 11.4332,4.90025 21.3498,11.55024 29.75,19.95 8.3998,8.40022 15.0498,18.31688 19.95,29.75 4.8998,11.20019 7.3498,23.21684 7.35,36.05 l 0,69.3 c -2e-4,12.83342 -2.4502,24.96674 -7.35,36.4 -4.9002,11.20005 -11.5502,21.00004 -19.95,29.4 -8.4002,8.40002 -18.3168,15.05002 -29.75,19.95 -11.2002,4.90001 -23.2168,7.35 -36.05,7.35 l -86.8,-1.05" />
            <path
               inkscape:connector-curvature="0"
               id="path3118"
               style="font-variant:normal;font-weight:bold;font-stretch:normal;font-size:350px;font-family:TimeBurner;-inkscape-font-specification:'TimeBurner Bold';fill:#e68320"
               d="m 1283.5522,183.02142 30.1,0 0,175 -30.1,0 0,-175 m 0,-81.2 30.1,0 0,40.6 -30.1,0 0,-40.6" />
            <path
               inkscape:connector-curvature="0"
               id="path3120"
               style="font-variant:normal;font-weight:bold;font-stretch:normal;font-size:350px;font-family:TimeBurner;-inkscape-font-specification:'TimeBurner Bold';fill:#e68320"
               d="m 1432.2913,178.82142 c 12.5999,1.8e-4 24.4999,2.45018 35.7,7.35 11.1998,4.66684 20.8832,11.20016 29.05,19.6 8.3998,8.16681 14.9331,17.85014 19.6,29.05 4.8998,10.96678 7.3498,22.7501 7.35,35.35 l 0,87.5 -30.45,0 0,-19.6 c -8.1668,7.23335 -17.5001,12.95001 -28,17.15 -10.2668,3.96667 -21.3501,5.95 -33.25,5.95 -12.6001,0 -24.3834,-2.33333 -35.35,-7 -10.9667,-4.89999 -20.65,-11.43331 -29.05,-19.6 -8.1667,-8.16663 -14.7,-17.73329 -19.6,-28.7 -4.6667,-11.19993 -7,-23.09992 -7,-35.7 0,-12.5999 2.3333,-24.38322 7,-35.35 4.9,-11.19986 11.4333,-20.88319 19.6,-29.05 8.4,-8.39984 18.0833,-14.93316 29.05,-19.6 10.9666,-4.89982 22.7499,-7.34982 35.35,-7.35 m 0,30.1 c -8.4001,1.5e-4 -16.3334,1.63348 -23.8,4.9 -7.4667,3.03348 -14.0001,7.35014 -19.6,12.95 -5.3667,5.60013 -9.6834,12.13346 -12.95,19.6 -3.2667,7.46677 -4.9,15.4001 -4.9,23.8 0,8.40008 1.6333,16.33341 4.9,23.8 3.2666,7.46673 7.5833,14.00005 12.95,19.6 5.5999,5.36671 12.1333,9.68337 19.6,12.95 7.4666,3.2667 15.3999,4.90003 23.8,4.9 8.6332,3e-5 16.6832,-1.6333 24.15,-4.9 7.4665,-3.26663 13.8832,-7.58329 19.25,-12.95 5.5998,-5.59995 9.9165,-12.13327 12.95,-19.6 3.2665,-7.46659 4.8998,-15.39992 4.9,-23.8 -2e-4,-8.3999 -1.6335,-16.33323 -4.9,-23.8 -3.0335,-7.46654 -7.3502,-13.99987 -12.95,-19.6 -5.3668,-5.59986 -11.7835,-9.91652 -19.25,-12.95 -7.4668,-3.26652 -15.5168,-4.89985 -24.15,-4.9" />
            <path
               inkscape:connector-curvature="0"
               id="path3122"
               style="font-variant:normal;font-weight:bold;font-stretch:normal;font-size:350px;font-family:TimeBurner;-inkscape-font-specification:'TimeBurner Bold';fill:#e68320"
               d="m 1587.7897,358.02142 -30.1,0 0,-87.5 c 0,-12.5999 2.5667,-24.49988 7.7,-35.7 5.1333,-11.19986 12.1333,-20.88319 21,-29.05 8.8667,-8.1665 19.1333,-14.58316 30.8,-19.25 11.8999,-4.89982 24.6166,-7.34982 38.15,-7.35 l 0,30.1 c -9.3334,1.5e-4 -18.0834,1.63348 -26.25,4.9 -8.1667,3.03348 -15.4,7.35014 -21.7,12.95 -6.0667,5.60013 -10.85,12.13346 -14.35,19.6 -3.5,7.46677 -5.25,15.4001 -5.25,23.8 l 0,87.5" />
            <path
               inkscape:connector-curvature="0"
               id="path3124"
               style="font-variant:normal;font-weight:bold;font-stretch:normal;font-size:350px;font-family:TimeBurner;-inkscape-font-specification:'TimeBurner Bold';fill:#e68320"
               d="m 1683.4546,183.02142 30.1,0 0,175 -30.1,0 0,-175 m 0,-81.2 30.1,0 0,40.6 -30.1,0 0,-40.6" />
            <path
               inkscape:connector-curvature="0"
               id="path3126"
               style="font-variant:normal;font-weight:bold;font-stretch:normal;font-size:350px;font-family:TimeBurner;-inkscape-font-specification:'TimeBurner Bold';fill:#e68320"
               d="m 1833.5936,179.17142 c 12.5999,1.8e-4 24.3832,2.45018 35.35,7.35 11.1999,4.66684 20.8832,11.0835 29.05,19.25 8.3999,8.16681 14.9332,17.85014 19.6,29.05 4.8998,11.20012 7.3498,23.1001 7.35,35.7 -2e-4,12.60008 -2.4502,24.50007 -7.35,35.7 -4.6668,10.96671 -11.2001,20.53337 -19.6,28.7 -8.1668,8.16668 -17.8501,14.70001 -29.05,19.6 -10.9668,4.66667 -22.7501,7 -35.35,7 -12.6001,0 -24.3834,-2.33333 -35.35,-7 -10.9667,-4.89999 -20.65,-11.43332 -29.05,-19.6 -8.1667,-8.16663 -14.7,-17.73329 -19.6,-28.7 -4.6666,-11.19993 -7,-23.09992 -7,-35.7 0,-12.5999 2.3334,-24.49988 7,-35.7 4.9,-11.19986 11.4333,-20.88319 19.6,-29.05 8.4,-8.1665 18.0833,-14.58316 29.05,-19.25 10.9666,-4.89982 22.7499,-7.34982 35.35,-7.35 m 0,30.1 c -8.4001,1.5e-4 -16.3334,1.63348 -23.8,4.9 -7.4667,3.03348 -14,7.35014 -19.6,12.95 -5.6,5.60013 -10.0333,12.13346 -13.3,19.6 -3.0333,7.46677 -4.55,15.4001 -4.55,23.8 0,8.40008 1.5167,16.33341 4.55,23.8 3.2667,7.46673 7.7,14.00005 13.3,19.6 5.6,5.36671 12.1333,9.68337 19.6,12.95 7.4666,3.2667 15.3999,4.90003 23.8,4.9 8.3999,3e-5 16.3333,-1.6333 23.8,-4.9 7.4666,-3.26663 13.9999,-7.58329 19.6,-12.95 5.5999,-5.59995 9.9166,-12.13327 12.95,-19.6 3.2665,-7.46659 4.8999,-15.39992 4.9,-23.8 -10e-5,-8.3999 -1.6335,-16.33323 -4.9,-23.8 -3.0334,-7.46654 -7.3501,-13.99987 -12.95,-19.6 -5.6001,-5.59986 -12.1334,-9.91652 -19.6,-12.95 -7.4667,-3.26652 -15.4001,-4.89985 -23.8,-4.9" />
          </g>
          <g
             id="text4162"
             style="font-style:normal;font-variant:normal;font-weight:bold;font-stretch:normal;font-size:375px;line-height:125%;font-family:TimeBurner;-inkscape-font-specification:'TimeBurner Bold';letter-spacing:0px;word-spacing:0px;fill:#6a6ab4;fill-opacity:1;stroke:none">
            <path
               inkscape:connector-curvature="0"
               id="path3129"
               d="m 798.81226,84.271423 169.875,0 0,32.999997 -137.25,0 0,87.375 120,0 0,33 -120,0 0,87.75 137.25,0 0,32.625 -169.875,0 0,-273.749997" />
            <path
               inkscape:connector-curvature="0"
               id="path3131"
               d="m 1002.408,83.521423 31.875,0 0,225.749997 c -10e-5,5.75005 2.6249,10.62504 7.875,14.625 5.4999,4.00003 11.9999,6.00003 19.5,6 l 0,31.875 c -8.2501,0 -16.0001,-1.375 -23.25,-4.125 -7.0001,-2.74999 -13.2501,-6.49999 -18.75,-11.25 -5.2501,-4.74998 -9.5,-10.24997 -12.75,-16.5 -3,-6.49996 -4.5,-13.37496 -4.5,-20.625 l 0,-225.749997" />
          </g>
        </g>
      </g>
    </g>
  </g>
</svg>
