<?xml version="1.0" encoding="utf-8"?>
<!-- Generator: Adobe Illustrator 16.0.0, SVG Export Plug-In . SVG Version: 6.00 Build 0)  -->
<!DOCTYPE svg PUBLIC "-//W3C//DTD SVG 1.1//EN" "http://www.w3.org/Graphics/SVG/1.1/DTD/svg11.dtd" [
	<!ENTITY ns_extend "http://ns.adobe.com/Extensibility/1.0/">
	<!ENTITY ns_ai "http://ns.adobe.com/AdobeIllustrator/10.0/">
	<!ENTITY ns_graphs "http://ns.adobe.com/Graphs/1.0/">
	<!ENTITY ns_vars "http://ns.adobe.com/Variables/1.0/">
	<!ENTITY ns_imrep "http://ns.adobe.com/ImageReplacement/1.0/">
	<!ENTITY ns_sfw "http://ns.adobe.com/SaveForWeb/1.0/">
	<!ENTITY ns_custom "http://ns.adobe.com/GenericCustomNamespace/1.0/">
	<!ENTITY ns_adobe_xpath "http://ns.adobe.com/XPath/1.0/">
]>
<svg version="1.1"
	 id="svg5874" xmlns:x="&ns_extend;" xmlns:i="&ns_ai;" xmlns:graph="&ns_graphs;" xmlns:dc="http://purl.org/dc/elements/1.1/" xmlns:cc="http://creativecommons.org/ns#" xmlns:rdf="http://www.w3.org/1999/02/22-rdf-syntax-ns#" xmlns:svg="http://www.w3.org/2000/svg" xmlns:sodipodi="http://sodipodi.sourceforge.net/DTD/sodipodi-0.dtd" xmlns:inkscape="http://www.inkscape.org/namespaces/inkscape" sodipodi:docname="csp.svg" inkscape:version="0.48.4 r9939"
	 xmlns="http://www.w3.org/2000/svg" xmlns:xlink="http://www.w3.org/1999/xlink" x="0px" y="0px" width="1167.528px"
	 height="195.309px" viewBox="0 0 1167.528 195.309" enable-background="new 0 0 1167.528 195.309" xml:space="preserve">
<metadata  id="metadata5879">
	<rdf:RDF>
		<cc:Work  rdf:about="">
			<dc:format>image/svg+xml</dc:format>
			<dc:type  rdf:resource="http://purl.org/dc/dcmitype/StillImage"></dc:type>
			<dc:title></dc:title>
		</cc:Work>
	</rdf:RDF>
	<sfw  xmlns="&ns_sfw;">
		<slices></slices>
		<sliceSourceBounds  height="155.309" width="1127.528" x="-168.264" y="228.846" bottomLeftOrigin="true"></sliceSourceBounds>
	</sfw>
</metadata>
<sodipodi:namedview  fit-margin-top="20" fit-margin-left="20" showgrid="false" inkscape:cy="35.31232" inkscape:cx="612.04309" inkscape:zoom="0.7" borderopacity="1.0" bordercolor="#666666" pagecolor="#ffffff" id="base" fit-margin-bottom="20" fit-margin-right="20" inkscape:window-maximized="1" inkscape:window-y="21" inkscape:current-layer="g6208" inkscape:document-units="px" inkscape:window-height="747" inkscape:pageopacity="0.0" inkscape:window-width="1366" inkscape:window-x="0" inkscape:pageshadow="2">
	</sodipodi:namedview>
<g id="layer1" transform="translate(-6.3141167,-1.7879162)" inkscape:label="Layer 1" inkscape:groupmode="layer">
</g>
<g id="layer2" transform="translate(-6.3141167,-1.7879162)" inkscape:label="2" inkscape:groupmode="layer">
	
		<g id="g6208" transform="matrix(1.7131046,0,0,1.7131046,-14.514887,-30.445682)" inkscape:export-ydpi="90" inkscape:export-xdpi="90" inkscape:export-filename="/home/gonzalo/Pictures/Inkscape/CSP/asd.png">
		<g id="g6176" transform="matrix(2.317644,0,0,2.317644,-419.45347,-886.51018)">
			<path id="path3119" inkscape:connector-curvature="0" fill="#B4B0B2" d="M205.719,428.072c-0.085,0.001-0.165,0.01-0.251,0.01
				c-2.052,0-3.726-0.755-4.805-1.999c-1.459-1.619-1.89-3.455-1.89-10.853c0-7.398,0.431-9.234,1.89-10.854
				c1.079-1.241,2.753-1.997,4.805-1.997c3.78,0,5.724,2.375,6.48,5.454h7.614c-1.35-8.046-6.966-12.15-14.148-12.15
				c-4.211,0-7.668,1.512-10.367,4.212c-3.888,3.888-3.78,8.694-3.78,15.335c0,6.641-0.107,11.447,3.78,15.335
				c2.7,2.701,6.156,4.212,10.367,4.212c0.103,0,0.203-0.009,0.305-0.011V428.072L205.719,428.072z"/>
			<path id="path3247" inkscape:connector-curvature="0" fill="#B4B0B2" d="M247.472,395.708h-4.741v6.695h4.364
				c3.401,0,5.561,2.16,5.561,5.293c0,3.131-2.16,5.236-5.561,5.236H232.57v21.221h7.505v-14.47h7.397
				c7.939,0,12.69-5.455,12.69-11.987C260.163,401.162,255.411,395.708,247.472,395.708"/>
			<path id="path3249" inkscape:connector-curvature="0" fill="#C70D42" d="M239.891,395.661c-3.047,0.106-7.09,0.694-10.819,3.085
				c-4.19,2.625-7.436,7.87-7.35,15.367c-0.08,6.885-2.31,9.728-4.873,11.537c-2.559,1.756-5.998,2.222-8.234,2.222v6.751
				c2.967-0.03,7.666-0.484,12.004-3.373c4.448-2.909,7.931-8.635,7.852-17.137c0.086-5.804,1.961-8.11,4.276-9.708
				c2.054-1.362,4.856-1.894,7.143-1.996V395.661L239.891,395.661z"/>
		</g>
		<g id="g6111" transform="matrix(2.317644,0,0,2.317644,-582.58991,-906.41014)">
			<path id="path3121" inkscape:connector-curvature="0" fill="#6A6567" d="M343.651,424.641c-1.065,0-1.939-0.383-2.622-1.065
				c-0.983-0.984-0.955-2.199-0.955-3.879c0-1.68-0.027-2.895,0.955-3.879c0.684-0.683,1.557-1.065,2.622-1.065
				c1.816,0,3.236,1.037,3.579,3.073h-1.926c-0.191-0.777-0.682-1.379-1.639-1.379c-0.519,0-0.943,0.191-1.215,0.505
				c-0.369,0.41-0.479,0.874-0.479,2.745c0,1.871,0.11,2.336,0.479,2.745c0.273,0.315,0.696,0.506,1.215,0.506
				c0.956,0,1.448-0.601,1.639-1.38h1.926C346.887,423.604,345.453,424.641,343.651,424.641"/>
			<path id="path3123" inkscape:connector-curvature="0" fill="#6A6567" d="M348.869,424.56v-9.724h6.405v1.694h-4.506v2.28h3.838
				v1.694h-3.838v2.362h4.506v1.694H348.869z"/>
			<path id="path3125" inkscape:connector-curvature="0" fill="#6A6567" d="M362.882,424.56l-3.851-5.968v5.968h-1.899v-9.724h1.694
				l3.851,5.955v-5.955h1.899v9.724H362.882z"/>
			<path id="path3127" inkscape:connector-curvature="0" fill="#6A6567" d="M370.559,416.529v8.03h-1.899v-8.03h-2.54v-1.692h6.979
				v1.692H370.559z"/>
			<path id="path3129" inkscape:connector-curvature="0" fill="#6A6567" d="M378.332,416.529h-1.789v2.567h1.789
				c0.834,0,1.38-0.533,1.38-1.284C379.712,417.062,379.165,416.529,378.332,416.529 M379.807,424.559l-1.897-3.879h-1.366v3.879
				h-1.899v-9.723h3.811c1.98,0,3.154,1.351,3.154,2.976c0,1.366-0.833,2.212-1.775,2.554l2.171,4.193H379.807L379.807,424.559z"/>
			<path id="path3131" inkscape:connector-curvature="0" fill="#6A6567" d="M388.057,416.966c-0.273-0.314-0.696-0.519-1.215-0.519
				c-0.519,0-0.956,0.205-1.23,0.519c-0.367,0.41-0.464,0.86-0.464,2.732c0,1.87,0.096,2.32,0.464,2.73
				c0.274,0.315,0.711,0.52,1.23,0.52c0.519,0,0.943-0.205,1.215-0.52c0.369-0.41,0.477-0.86,0.477-2.73
				C388.534,417.826,388.426,417.376,388.057,416.966 M389.463,423.576c-0.683,0.682-1.515,1.065-2.621,1.065
				c-1.106,0-1.954-0.382-2.636-1.065c-0.984-0.984-0.956-2.199-0.956-3.878c0-1.681-0.027-2.896,0.956-3.879
				c0.683-0.684,1.53-1.066,2.636-1.066c1.106,0,1.939,0.382,2.621,1.066c0.984,0.982,0.97,2.198,0.97,3.879
				C390.433,421.377,390.447,422.592,389.463,423.576"/>
			<path id="path3133" inkscape:connector-curvature="0" fill="#6A6567" d="M400.296,417.13c-0.328-0.396-0.765-0.601-1.42-0.601
				h-1.435v6.336h1.435c0.655,0,1.093-0.204,1.42-0.6c0.355-0.437,0.41-1.134,0.41-2.609
				C400.706,418.182,400.651,417.568,400.296,417.13 M401.621,423.632c-0.642,0.641-1.557,0.927-2.569,0.927h-3.509v-9.723h3.509
				c1.011,0,1.926,0.286,2.569,0.929c1.093,1.093,0.983,2.43,0.983,3.891C402.603,421.118,402.713,422.539,401.621,423.632"/>
			<path id="path3135" inkscape:connector-curvature="0" fill="#6A6567" d="M404.545,424.56v-9.724h6.405v1.694h-4.507v2.28h3.837
				v1.694h-3.837v2.362h4.507v1.694H404.545z"/>
			<path id="path3137" inkscape:connector-curvature="0" fill="#6A6567" d="M418.654,424.641c-1.475,0-2.595-0.314-3.551-1.284
				l1.23-1.229c0.614,0.614,1.448,0.82,2.347,0.82c1.12,0,1.721-0.424,1.721-1.203c0-0.341-0.095-0.629-0.3-0.82
				c-0.191-0.177-0.41-0.272-0.86-0.341l-1.175-0.164c-0.833-0.122-1.448-0.382-1.885-0.806c-0.464-0.464-0.697-1.092-0.697-1.911
				c0-1.735,1.284-2.95,3.387-2.95c1.338,0,2.308,0.329,3.141,1.134l-1.202,1.189c-0.615-0.587-1.351-0.67-1.994-0.67
				c-1.011,0-1.503,0.56-1.503,1.23c0,0.245,0.083,0.505,0.288,0.696c0.191,0.177,0.505,0.327,0.9,0.381l1.148,0.165
				c0.887,0.122,1.449,0.369,1.857,0.751c0.518,0.491,0.751,1.201,0.751,2.061C422.259,423.576,420.688,424.641,418.654,424.641"/>
			<path id="path3139" inkscape:connector-curvature="0" fill="#6A6567" d="M424.05,414.836h1.899v9.724h-1.899V414.836z"/>
			<path id="path3141" inkscape:connector-curvature="0" fill="#6A6567" d="M430.893,424.641c-1.475,0-2.595-0.314-3.551-1.284
				l1.23-1.229c0.614,0.614,1.448,0.82,2.347,0.82c1.12,0,1.721-0.424,1.721-1.203c0-0.341-0.095-0.629-0.3-0.82
				c-0.191-0.177-0.41-0.272-0.86-0.341l-1.175-0.164c-0.833-0.122-1.448-0.382-1.885-0.806c-0.464-0.464-0.696-1.092-0.696-1.911
				c0-1.735,1.283-2.95,3.387-2.95c1.338,0,2.307,0.329,3.141,1.134l-1.202,1.189c-0.615-0.587-1.351-0.67-1.994-0.67
				c-1.011,0-1.502,0.56-1.502,1.23c0,0.245,0.082,0.505,0.287,0.696c0.191,0.177,0.505,0.327,0.9,0.381l1.147,0.165
				c0.887,0.122,1.449,0.369,1.858,0.751c0.519,0.491,0.751,1.201,0.751,2.061C434.498,423.576,432.926,424.641,430.893,424.641"/>
			<path id="path3143" inkscape:connector-curvature="0" fill="#6A6567" d="M440.003,416.529v8.03h-1.899v-8.03h-2.54v-1.692h6.979
				v1.692H440.003z"/>
			<path id="path3145" inkscape:connector-curvature="0" fill="#6A6567" d="M444.088,424.56v-9.724h6.405v1.694h-4.507v2.28h3.837
				v1.694h-3.837v2.362h4.507v1.694H444.088z"/>
			<path id="path3147" inkscape:connector-curvature="0" fill="#6A6567" d="M459.262,424.56v-5.668l-1.858,3.687h-1.284
				l-1.871-3.687v5.668h-1.897v-9.724h1.87l2.54,5.257l2.528-5.257h1.871v9.724H459.262z"/>
			<path id="path3149" inkscape:connector-curvature="0" fill="#6A6567" d="M466.693,417.704l-1.228,3.537h2.416L466.693,417.704z
				 M468.959,424.559l-0.574-1.72h-3.455l-0.586,1.72h-1.98l3.536-9.723h1.489l3.55,9.723H468.959z"/>
			<path id="path3151" inkscape:connector-curvature="0" fill="#6A6567" d="M474.82,424.641c-1.475,0-2.595-0.314-3.551-1.284
				l1.23-1.229c0.613,0.614,1.447,0.82,2.347,0.82c1.12,0,1.721-0.424,1.721-1.203c0-0.341-0.095-0.629-0.3-0.82
				c-0.191-0.177-0.41-0.272-0.86-0.341l-1.175-0.164c-0.832-0.122-1.447-0.382-1.885-0.806c-0.464-0.464-0.696-1.092-0.696-1.911
				c0-1.735,1.283-2.95,3.387-2.95c1.338,0,2.308,0.329,3.141,1.134l-1.203,1.189c-0.615-0.587-1.351-0.67-1.994-0.67
				c-1.011,0-1.502,0.56-1.502,1.23c0,0.245,0.083,0.505,0.287,0.696c0.191,0.177,0.505,0.327,0.901,0.381l1.147,0.165
				c0.887,0.122,1.449,0.369,1.858,0.751c0.518,0.491,0.751,1.201,0.751,2.061C478.426,423.576,476.855,424.641,474.82,424.641"/>
			<path id="path3153" inkscape:connector-curvature="0" fill="#6A6567" d="M487.058,416.529h-1.775v2.664h1.775
				c0.86,0,1.406-0.533,1.406-1.325C488.465,417.077,487.918,416.529,487.058,416.529 M487.155,420.899h-1.871v3.66h-1.899v-9.723
				h3.77c2.008,0,3.209,1.379,3.209,3.031S489.162,420.899,487.155,420.899"/>
			<path id="path3155" inkscape:connector-curvature="0" fill="#6A6567" d="M495.827,413.894h-1.188l0.874-2.321h1.871
				L495.827,413.894z M495.39,424.641c-1.992,0-3.577-1.351-3.577-3.414v-6.391h1.899v6.324c0,1.119,0.655,1.789,1.678,1.789
				c1.025,0,1.694-0.67,1.694-1.789v-6.324h1.885v6.391C498.968,423.29,497.385,424.641,495.39,424.641"/>
			<path id="path3157" inkscape:connector-curvature="0" fill="#6A6567" d="M504.965,420.476h-1.98v2.39h1.98
				c0.86,0,1.27-0.546,1.27-1.201C506.236,421.009,505.826,420.476,504.965,420.476 M504.842,416.529h-1.857v2.24h1.857
				c0.806,0,1.257-0.45,1.257-1.12C506.099,416.98,505.648,416.529,504.842,416.529 M505.157,424.56h-4.07v-9.724h3.905
				c1.898,0,3.005,1.065,3.005,2.731c0,1.079-0.71,1.775-1.201,2.007c0.588,0.274,1.339,0.888,1.339,2.185
				C508.134,423.576,506.89,424.56,505.157,424.56"/>
			<path id="path3159" inkscape:connector-curvature="0" fill="#6A6567" d="M510.074,424.56v-9.724h1.899v8.03h4.41v1.694H510.074z"
				/>
			<path id="path3161" inkscape:connector-curvature="0" fill="#6A6567" d="M517.929,414.836h1.899v9.724h-1.899V414.836z"/>
			<path id="path3163" inkscape:connector-curvature="0" fill="#6A6567" d="M525.344,424.641c-1.065,0-1.939-0.383-2.622-1.065
				c-0.982-0.984-0.955-2.199-0.955-3.879c0-1.68-0.028-2.895,0.955-3.879c0.684-0.683,1.557-1.065,2.622-1.065
				c1.816,0,3.236,1.037,3.579,3.073h-1.926c-0.191-0.777-0.682-1.379-1.639-1.379c-0.518,0-0.943,0.191-1.215,0.505
				c-0.369,0.41-0.479,0.874-0.479,2.745c0,1.871,0.11,2.336,0.479,2.745c0.273,0.315,0.696,0.506,1.215,0.506
				c0.956,0,1.448-0.601,1.639-1.38h1.926C528.58,423.604,527.146,424.641,525.344,424.641"/>
			<path id="path3165" inkscape:connector-curvature="0" fill="#6A6567" d="M535.042,416.966c-0.272-0.314-0.696-0.519-1.215-0.519
				c-0.518,0-0.956,0.205-1.23,0.519c-0.367,0.41-0.464,0.86-0.464,2.732c0,1.87,0.096,2.32,0.464,2.73
				c0.273,0.315,0.711,0.52,1.23,0.52c0.519,0,0.943-0.205,1.215-0.52c0.369-0.41,0.478-0.86,0.478-2.73
				C535.519,417.826,535.411,417.376,535.042,416.966 M536.448,423.576c-0.683,0.682-1.515,1.065-2.621,1.065
				s-1.953-0.382-2.636-1.065c-0.984-0.984-0.956-2.199-0.956-3.878c0-1.681-0.028-2.896,0.956-3.879
				c0.683-0.684,1.53-1.066,2.636-1.066c1.106,0,1.939,0.382,2.621,1.066c0.984,0.982,0.97,2.198,0.97,3.879
				C537.418,421.377,537.432,422.592,536.448,423.576"/>
			<path id="path3167" inkscape:connector-curvature="0" fill="#6A6567" d="M542.036,424.641c-1.475,0-2.595-0.314-3.551-1.284
				l1.23-1.229c0.614,0.614,1.448,0.82,2.347,0.82c1.12,0,1.721-0.424,1.721-1.203c0-0.341-0.095-0.629-0.3-0.82
				c-0.191-0.177-0.41-0.272-0.86-0.341l-1.175-0.164c-0.833-0.122-1.448-0.382-1.885-0.806c-0.464-0.464-0.697-1.092-0.697-1.911
				c0-1.735,1.284-2.95,3.388-2.95c1.337,0,2.307,0.329,3.141,1.134l-1.202,1.189c-0.615-0.587-1.351-0.67-1.994-0.67
				c-1.011,0-1.503,0.56-1.503,1.23c0,0.245,0.083,0.505,0.288,0.696c0.191,0.177,0.505,0.327,0.901,0.381l1.146,0.165
				c0.887,0.122,1.449,0.369,1.858,0.751c0.518,0.491,0.751,1.201,0.751,2.061C545.641,423.576,544.071,424.641,542.036,424.641"/>
			<path id="path3169" inkscape:connector-curvature="0" fill="#6A6567" d="M340.263,428.933h0.684v6.41h-0.684V428.933z"/>
			<path id="path3171" inkscape:connector-curvature="0" fill="#6A6567" d="M346.843,435.343l-3.404-5.14v5.14h-0.684v-6.41h0.649
				l3.403,5.123v-5.123h0.685v6.41H346.843z"/>
			<path id="path3173" inkscape:connector-curvature="0" fill="#6A6567" d="M353.008,434.658c-0.45,0.486-1.052,0.737-1.71,0.737
				c-0.631,0-1.206-0.234-1.639-0.665c-0.604-0.604-0.604-1.234-0.604-2.593c0-1.359,0-1.989,0.604-2.593
				c0.433-0.433,1-0.666,1.639-0.666c1.224,0,2.052,0.792,2.241,1.918h-0.685c-0.179-0.81-0.755-1.305-1.556-1.305
				c-0.424,0-0.829,0.171-1.107,0.459c-0.405,0.414-0.45,0.846-0.45,2.188c0,1.342,0.045,1.784,0.45,2.197
				c0.279,0.287,0.684,0.45,1.107,0.45c0.467,0,0.918-0.189,1.215-0.549c0.261-0.315,0.36-0.668,0.36-1.162v-0.486h-1.575v-0.602
				h2.259v1.017C353.557,433.74,353.405,434.236,353.008,434.658"/>
			<path id="path3175" inkscape:connector-curvature="0" fill="#6A6567" d="M355.104,435.343v-6.41h3.98v0.612h-3.296v2.259h2.809
				v0.612h-2.809v2.314h3.296v0.612H355.104L355.104,435.343z"/>
			<path id="path3177" inkscape:connector-curvature="0" fill="#6A6567" d="M364.546,435.343l-3.404-5.14v5.14h-0.684v-6.41h0.649
				l3.402,5.123v-5.123h0.685v6.41H364.546z"/>
			<path id="path3179" inkscape:connector-curvature="0" fill="#6A6567" d="M367.001,428.933h0.684v6.41h-0.684V428.933z"/>
			<path id="path3181" inkscape:connector-curvature="0" fill="#6A6567" d="M369.495,435.343v-6.41h3.98v0.612h-3.296v2.259h2.809
				v0.612h-2.809v2.314h3.296v0.612H369.495L369.495,435.343z"/>
			<path id="path3183" inkscape:connector-curvature="0" fill="#6A6567" d="M377.245,429.545h-1.711v2.35h1.711
				c0.747,0,1.278-0.387,1.278-1.171C378.522,429.941,377.992,429.545,377.245,429.545 M378.532,435.342l-1.459-2.845h-1.54v2.845
				h-0.684v-6.41h2.458c1.116,0,1.9,0.675,1.9,1.783c0,0.936-0.567,1.549-1.395,1.72l1.521,2.907H378.532z"/>
			<path id="path3185" inkscape:connector-curvature="0" fill="#6A6567" d="M380.709,428.933h0.684v6.41h-0.684V428.933z
				 M381.086,428.311h-0.594l0.792-1.378h0.774L381.086,428.311z"/>
			<path id="path3187" inkscape:connector-curvature="0" fill="#6A6567" d="M385.038,429.914l-1.206,3.385h2.395L385.038,429.914z
				 M386.938,435.343l-0.514-1.45h-2.8l-0.512,1.45h-0.73l2.36-6.41h0.576l2.349,6.41H386.938L386.938,435.343z"/>
			<path id="path3189" inkscape:connector-curvature="0" fill="#6A6567" d="M390.851,428.933h0.684v6.41h-0.684V428.933z"/>
			<path id="path3191" inkscape:connector-curvature="0" fill="#6A6567" d="M397.431,435.343l-3.404-5.14v5.14h-0.684v-6.41h0.649
				l3.402,5.123v-5.123h0.685v6.41H397.431z"/>
			<path id="path3193" inkscape:connector-curvature="0" fill="#6A6567" d="M403.227,430.013c-0.332-0.341-0.765-0.469-1.26-0.469
				h-1.396v5.186h1.396c0.495,0,0.927-0.126,1.26-0.469c0.441-0.459,0.424-1.413,0.424-2.196
				C403.651,431.283,403.669,430.472,403.227,430.013 M403.705,434.748c-0.388,0.388-0.954,0.595-1.621,0.595h-2.196v-6.41h2.196
				c0.668,0,1.234,0.206,1.621,0.594c0.666,0.666,0.63,1.647,0.63,2.539C404.335,432.957,404.371,434.082,403.705,434.748"/>
			<path id="path3195" inkscape:connector-curvature="0" fill="#6A6567" d="M408.042,435.396c-1.296,0-2.232-0.891-2.232-2.169
				v-4.295h0.684v4.24c0,0.973,0.612,1.613,1.549,1.613c0.936,0,1.557-0.64,1.557-1.613v-4.24h0.684v4.295
				C410.284,434.505,409.339,435.396,408.042,435.396"/>
			<path id="path3197" inkscape:connector-curvature="0" fill="#6A6567" d="M413.648,435.396c-0.964,0-1.592-0.243-2.196-0.846
				l0.467-0.468c0.531,0.531,1.026,0.703,1.747,0.703c0.937,0,1.513-0.441,1.513-1.189c0-0.334-0.098-0.621-0.307-0.801
				c-0.206-0.18-0.367-0.235-0.836-0.306l-0.747-0.117c-0.504-0.08-0.9-0.243-1.179-0.487c-0.325-0.287-0.486-0.684-0.486-1.197
				c0-1.089,0.783-1.809,2.052-1.809c0.819,0,1.359,0.208,1.909,0.702l-0.441,0.441c-0.396-0.36-0.819-0.55-1.495-0.55
				c-0.855,0-1.35,0.478-1.35,1.189c0,0.315,0.09,0.567,0.288,0.738c0.199,0.17,0.531,0.297,0.865,0.35l0.701,0.109
				c0.604,0.09,0.902,0.216,1.171,0.45c0.352,0.297,0.54,0.739,0.54,1.269C415.863,434.704,414.981,435.396,413.648,435.396"/>
			<path id="path3199" inkscape:connector-curvature="0" fill="#6A6567" d="M419.129,429.545v5.797h-0.684v-5.797h-1.855v-0.612
				h4.392v0.612H419.129L419.129,429.545z"/>
			<path id="path3201" inkscape:connector-curvature="0" fill="#6A6567" d="M424.53,429.545h-1.711v2.35h1.711
				c0.748,0,1.278-0.387,1.278-1.171C425.807,429.941,425.277,429.545,424.53,429.545 M425.818,435.342l-1.459-2.845h-1.54v2.845
				h-0.684v-6.41h2.457c1.117,0,1.9,0.675,1.9,1.783c0,0.936-0.568,1.549-1.395,1.72l1.521,2.907H425.818z"/>
			<path id="path3203" inkscape:connector-curvature="0" fill="#6A6567" d="M427.994,428.933h0.684v6.41h-0.684V428.933z"/>
			<path id="path3205" inkscape:connector-curvature="0" fill="#6A6567" d="M432.323,429.914l-1.206,3.385h2.395L432.323,429.914z
				 M434.223,435.343l-0.514-1.45h-2.8l-0.513,1.45h-0.73l2.36-6.41h0.576l2.349,6.41H434.223L434.223,435.343z"/>
			<path id="path3207" inkscape:connector-curvature="0" fill="#6A6567" d="M435.94,435.343v-6.41h0.684v5.798h3.277v0.612H435.94
				L435.94,435.343z"/>
			<path id="path3209" inkscape:connector-curvature="0" fill="#6A6567" d="M443.519,428.266h0.459v7.742h-0.459V428.266z"/>
			<path id="path3211" inkscape:connector-curvature="0" fill="#6A6567" d="M450.395,435.396c-1.296,0-2.232-0.891-2.232-2.169
				v-4.295h0.684v4.24c0,0.973,0.612,1.613,1.549,1.613s1.557-0.64,1.557-1.613v-4.24h0.684v4.295
				C452.636,434.505,451.691,435.396,450.395,435.396"/>
			<path id="path3213" inkscape:connector-curvature="0" fill="#6A6567" d="M458.442,435.343l-3.404-5.14v5.14h-0.684v-6.41h0.648
				l3.403,5.123v-5.123h0.685v6.41H458.442z"/>
			<path id="path3215" inkscape:connector-curvature="0" fill="#6A6567" d="M460.897,428.933h0.684v6.41h-0.684V428.933z"/>
			<path id="path3217" inkscape:connector-curvature="0" fill="#6A6567" d="M465.199,435.343h-0.558l-2.106-6.41h0.72l1.666,5.186
				l1.665-5.186h0.72L465.199,435.343z"/>
			<path id="path3219" inkscape:connector-curvature="0" fill="#6A6567" d="M468.258,435.343v-6.41h3.98v0.612h-3.296v2.259h2.809
				v0.612h-2.809v2.314h3.296v0.612H468.258L468.258,435.343z"/>
			<path id="path3221" inkscape:connector-curvature="0" fill="#6A6567" d="M476.009,429.545h-1.711v2.35h1.711
				c0.748,0,1.278-0.387,1.278-1.171C477.286,429.941,476.756,429.545,476.009,429.545 M477.296,435.342l-1.459-2.845h-1.54v2.845
				h-0.684v-6.41h2.458c1.116,0,1.9,0.675,1.9,1.783c0,0.936-0.567,1.549-1.395,1.72l1.521,2.907H477.296z"/>
			<path id="path3223" inkscape:connector-curvature="0" fill="#6A6567" d="M481.12,435.396c-0.964,0-1.594-0.243-2.197-0.846
				l0.469-0.468c0.531,0.531,1.026,0.703,1.746,0.703c0.936,0,1.512-0.441,1.512-1.189c0-0.334-0.098-0.621-0.306-0.801
				c-0.208-0.18-0.369-0.235-0.836-0.306l-0.748-0.117c-0.504-0.08-0.901-0.243-1.18-0.487c-0.324-0.287-0.487-0.684-0.487-1.197
				c0-1.089,0.784-1.809,2.052-1.809c0.82,0,1.36,0.208,1.909,0.702l-0.441,0.441c-0.396-0.36-0.819-0.55-1.494-0.55
				c-0.856,0-1.351,0.478-1.351,1.189c0,0.315,0.09,0.567,0.289,0.738c0.199,0.17,0.531,0.297,0.864,0.35l0.702,0.109
				c0.604,0.09,0.9,0.216,1.17,0.45c0.351,0.297,0.54,0.739,0.54,1.269C483.334,434.704,482.451,435.396,481.12,435.396"/>
			<path id="path3225" inkscape:connector-curvature="0" fill="#6A6567" d="M484.719,428.933h0.684v6.41h-0.684V428.933z"/>
			<path id="path3227" inkscape:connector-curvature="0" fill="#6A6567" d="M490.552,430.013c-0.333-0.341-0.765-0.469-1.26-0.469
				h-1.397v5.186h1.397c0.495,0,0.927-0.126,1.26-0.469c0.441-0.459,0.424-1.413,0.424-2.196
				C490.975,431.283,490.993,430.472,490.552,430.013 M491.029,434.748c-0.388,0.388-0.954,0.595-1.621,0.595h-2.196v-6.41h2.196
				c0.668,0,1.234,0.206,1.621,0.594c0.666,0.666,0.63,1.647,0.63,2.539C491.659,432.957,491.695,434.082,491.029,434.748"/>
			<path id="path3229" inkscape:connector-curvature="0" fill="#6A6567" d="M494.971,429.914l-1.206,3.385h2.395L494.971,429.914z
				 M496.87,435.343l-0.514-1.45h-2.8l-0.513,1.45h-0.73l2.36-6.41h0.576l2.349,6.41H496.87L496.87,435.343z"/>
			<path id="path3231" inkscape:connector-curvature="0" fill="#6A6567" d="M501.927,430.013c-0.333-0.341-0.765-0.469-1.26-0.469
				h-1.396v5.186h1.396c0.495,0,0.928-0.126,1.26-0.469c0.441-0.459,0.424-1.413,0.424-2.196
				C502.351,431.283,502.369,430.472,501.927,430.013 M502.405,434.748c-0.388,0.388-0.954,0.595-1.621,0.595h-2.196v-6.41h2.196
				c0.668,0,1.234,0.206,1.621,0.594c0.666,0.666,0.63,1.647,0.63,2.539C503.035,432.957,503.071,434.082,502.405,434.748"/>
			<path id="path3233" inkscape:connector-curvature="0" fill="#6A6567" d="M510.137,430.013c-0.334-0.341-0.765-0.469-1.261-0.469
				h-1.395v5.186h1.395c0.496,0,0.927-0.126,1.261-0.469c0.441-0.459,0.423-1.413,0.423-2.196
				C510.559,431.283,510.578,430.472,510.137,430.013 M510.613,434.748c-0.386,0.388-0.954,0.595-1.62,0.595h-2.196v-6.41h2.196
				c0.666,0,1.234,0.206,1.62,0.594c0.668,0.666,0.631,1.647,0.631,2.539C511.244,432.957,511.28,434.082,510.613,434.748"/>
			<path id="path3235" inkscape:connector-curvature="0" fill="#6A6567" d="M512.808,435.343v-6.41h3.98v0.612h-3.296v2.259h2.809
				v0.612h-2.809v2.314h3.296v0.612H512.808L512.808,435.343z"/>
			<path id="path3237" inkscape:connector-curvature="0" fill="#6A6567" d="M522.357,435.396c-0.63,0-1.206-0.234-1.639-0.666
				c-0.603-0.602-0.603-1.234-0.603-2.592c0-1.359,0-1.99,0.603-2.593c0.432-0.432,1.009-0.666,1.639-0.666
				c1.153,0,2.008,0.702,2.224,1.907h-0.702c-0.171-0.782-0.72-1.296-1.522-1.296c-0.423,0-0.828,0.163-1.107,0.451
				c-0.405,0.414-0.45,0.855-0.45,2.196s0.045,1.783,0.45,2.196c0.279,0.289,0.685,0.451,1.107,0.451
				c0.801,0,1.369-0.514,1.539-1.296h0.685C524.374,434.694,523.501,435.396,522.357,435.396"/>
			<path id="path3239" inkscape:connector-curvature="0" fill="#6A6567" d="M529.775,435.343v-2.926h-3.044v2.926h-0.684v-6.41
				h0.684v2.871h3.044v-2.871h0.684v6.41H529.775z"/>
			<path id="path3241" inkscape:connector-curvature="0" fill="#6A6567" d="M532.266,428.933h0.684v6.41h-0.684V428.933z"/>
			<path id="path3243" inkscape:connector-curvature="0" fill="#6A6567" d="M534.759,435.343v-6.41h0.684v5.798h3.277v0.612H534.759
				L534.759,435.343z"/>
			<path id="path3245" inkscape:connector-curvature="0" fill="#6A6567" d="M539.87,435.343v-6.41h3.98v0.612h-3.296v2.259h2.808
				v0.612h-2.808v2.314h3.296v0.612H539.87L539.87,435.343z"/>
		</g>
	</g>
</g>
</svg>
