<?xml version="1.0" encoding="UTF-8" standalone="no"?>
<!-- Generator: Adobe Illustrator 16.0.0, SVG Export Plug-In . SVG Version: 6.00 Build 0)  -->

<svg
   xmlns:ns="&amp;ns_sfw;"
   xmlns:dc="http://purl.org/dc/elements/1.1/"
   xmlns:cc="http://creativecommons.org/ns#"
   xmlns:rdf="http://www.w3.org/1999/02/22-rdf-syntax-ns#"
   xmlns:svg="http://www.w3.org/2000/svg"
   xmlns="http://www.w3.org/2000/svg"
   xmlns:sodipodi="http://sodipodi.sourceforge.net/DTD/sodipodi-0.dtd"
   xmlns:inkscape="http://www.inkscape.org/namespaces/inkscape"
   version="1.1"
   id="Layer_1"
   x="0px"
   y="0px"
   width="710.16431"
   height="277.32932"
   viewBox="0 0 710.16431 277.32932"
   enable-background="new 0 0 792 300"
   xml:space="preserve"
   inkscape:version="0.91 r13725"
   sodipodi:docname="fcfm_alumni_minas.svg"><defs
     id="defs189" /><sodipodi:namedview
     pagecolor="#ffffff"
     bordercolor="#666666"
     borderopacity="1"
     objecttolerance="10"
     gridtolerance="10"
     guidetolerance="10"
     inkscape:pageopacity="0"
     inkscape:pageshadow="2"
     inkscape:window-width="1855"
     inkscape:window-height="1056"
     id="namedview187"
     showgrid="false"
     inkscape:zoom="1.0642314"
     inkscape:cx="586.47544"
     inkscape:cy="177.69097"
     inkscape:window-x="65"
     inkscape:window-y="24"
     inkscape:window-maximized="1"
     inkscape:current-layer="Layer_1"
     fit-margin-top="20"
     fit-margin-bottom="20"
     fit-margin-right="20"
     fit-margin-left="20" /><metadata
     id="metadata3"><ns:sfw><ns:slices /><ns:sliceSourceBounds
         width="734.39"
         height="237.328"
         x="29.862"
         y="184.141"
         bottomLeftOrigin="true" /></ns:sfw><rdf:RDF><cc:Work
         rdf:about=""><dc:format>image/svg+xml</dc:format><dc:type
           rdf:resource="http://purl.org/dc/dcmitype/StillImage" /><dc:title></dc:title></cc:Work></rdf:RDF></metadata><g
     id="g5"
     transform="translate(-10.362026,-15.03)"><path
       stroke-miterlimit="3.8635"
       d="m 126.387,111.791 0,123.721 c 0,2.363 -1.908,4.283 -4.263,4.283 l -38.779,0 c -2.593,-0.063 -4.467,4.27 -4.467,4.27 0,0 -1.882,-4.334 -4.591,-4.27 0.003,-0.004 -38.689,0 -38.689,0 -2.354,0 -4.263,-1.92 -4.263,-4.283 L 31.332,111.8 l 95.055,-0.009 0,0 z"
       id="path7"
       inkscape:connector-curvature="0"
       style="fill:none;stroke:#73797d;stroke-width:1.93990004;stroke-miterlimit:3.86350012" /><path
       stroke-miterlimit="3.8637"
       d="m 93.118,131.491 -3.777,-6.022 c -4.525,1.045 -3.413,-2.88 -0.961,-4.423 2.695,-1.691 5.742,-1.096 3.787,2.648 0,0 0.871,1.417 2.324,3.729 0,0.001 -0.992,1.886 -1.373,4.068 l 0,0 z m 16.712,20.195 10.293,16.346 -0.757,0.761 -3.608,-2.862 c 0,0 -0.22,-2.39 -0.793,-2.882 -1.938,-1.673 -0.789,-2.594 -1.539,-4.147 -0.749,-1.547 -5.147,-2.741 -6.17,-5.067 0.019,0.112 -1.694,-2.717 -1.694,-2.717 3.924,-0.694 4.268,0.568 4.268,0.568 l 0,0 z M 97.762,132.408 c -0.017,-0.035 3.659,6.018 3.644,5.939 -2.274,-0.275 -3.378,-0.929 -3.831,-2.152 -0.536,-1.379 -0.117,-3.213 0.187,-3.787 l 0,0 z m -55.015,57.552 8.036,20.292 m -7.38,-19.703 7.459,14.42 m -6.913,-14.199 6.784,10.179 m -6.381,-10.362 6.22,7.392 m -6.297,-8.079 9.006,8.512 m -9.08,-9.01 12.34,9.233 m -12.533,-9.656 18.118,10.638 m -8.322,-42.993 -0.275,6.271 3.654,0 -0.277,-6.271 -3.102,0 0,0 z m 3.034,-1.724 -1.486,-33.625 -1.52,33.625 3.006,0 0,0 z m -7.652,0.036 12.334,0 0,1.686 -12.334,0 0,-1.686 0,0 z m 10.056,7.968 c 0,2.521 -1.742,4.265 -3.891,4.265 -2.146,0 -3.889,-1.741 -3.889,-4.265 l 7.78,0 0,0 z m -9.55,-23.271 c 0,3.221 -2.661,5.832 -5.942,5.832 -3.281,0 -5.943,-2.611 -5.943,-5.832 l 11.885,0 0,0 z m 48.793,-8.449 c 0,0 1.312,1.783 2.717,0.953 2.574,-1.521 -0.604,-10.189 -5.903,-5.779 -1.165,0.973 -2.723,5.478 -2.421,8.365 0.303,2.892 1.586,6.545 4.842,7.301 1.966,0.457 5.882,-0.637 7.508,2.041 1.209,-0.453 2.531,-5.229 -0.847,-5.387 -3.332,-0.15 -6.152,-0.721 -6.661,-2.129 -1.209,-3.348 0.765,-5.365 0.765,-5.365 l 0,0 z m 3.001,13.554 c -1.309,0.636 -2.268,2.15 -1.811,3.835 0.457,1.687 2.503,2.692 5.394,2.54 0.161,-0.008 0.312,-0.021 0.46,-0.028 2.558,-0.19 3.7,-0.5 4.564,0.947 0.913,-1.071 0.648,-3.459 -0.652,-4.563 -1.975,-1.686 -7.112,0.453 -7.955,-2.731 l 0,0 z m 5.718,9.128 c -0.304,1.379 -1.235,3.224 -0.457,4.897 1.063,2.295 3.043,1.072 3.653,2.445 0.607,1.374 0.023,3.427 1.37,3.827 2.588,0.766 1.677,3.364 3.047,3.212 1.21,-0.135 1.253,-4.2 0,-5.354 -1.828,-1.686 -0.611,-2.908 -1.522,-4.285 -0.917,-1.376 -4.266,-1.988 -6.091,-4.742 l 0,0 z"
       id="path9"
       inkscape:connector-curvature="0"
       style="fill:none;stroke:#73797d;stroke-width:0.96539998;stroke-miterlimit:3.86369991" /><path
       stroke-miterlimit="3.8637"
       d="m 80.567,162.426 c 0,-0.095 0.076,-0.17 0.172,-0.17 0.096,0 0.171,0.075 0.171,0.17 0,0.096 -0.075,0.17 -0.171,0.17 -0.095,0.006 -0.172,-0.076 -0.172,-0.17 l 0,0 z m 19.266,-34.274 c 0.247,-0.088 0.539,0.094 0.652,0.406 0.113,0.315 0.005,0.646 -0.237,0.735 -0.246,0.092 -0.539,-0.092 -0.651,-0.408 -0.114,-0.312 -0.006,-0.642 0.236,-0.733 l 0,0 z"
       id="path11"
       inkscape:connector-curvature="0"
       style="fill:none;stroke:#73797d;stroke-width:0.6207;stroke-miterlimit:3.86369991" /><path
       stroke-miterlimit="3.8637"
       d="m 52.724,210.262 c 0,-4.869 3.923,-8.808 8.765,-8.808 4.842,0 8.765,3.938 8.765,8.808 0,4.861 -3.923,8.807 -8.765,8.807 -4.843,-10e-4 -8.765,-3.946 -8.765,-8.807 l 0,0 z m 17.833,21.644 -4.265,0 0,-8.235 -26.224,0 0,-4.213 30.487,0 0.002,12.448 0,0 z M 43.86,211.225 c 0,-0.988 0.8,-1.795 1.791,-1.795 0.987,0 1.786,0.807 1.786,1.795 0,0.994 -0.799,1.799 -1.786,1.799 -0.99,-0.001 -1.791,-0.803 -1.791,-1.799 l 0,0 z m 0.079,-0.515 -3.063,8.707 4.731,-6.394 m 1.752,-2.313 3.061,8.707 -4.731,-6.394 m 8.292,-6.902 c -0.442,2.4 4.035,2.371 3.654,3.674 -0.918,3.135 0.913,3.021 1.218,4.666 0,0 -0.305,3.898 0.76,4.209 0.61,-0.84 0.154,-2.486 0.913,-3.367 0.801,-0.916 1.904,-1.418 1.904,-3.057 0,-1.191 -1.65,-1.568 -2.134,-1.914 -0.531,-0.383 -1.522,-0.689 -2.206,-0.689 0,0 -1.751,-3.365 -1.218,-3.979 0.607,-0.533 1.523,0.763 1.901,0.763 0.8,0 0.95,-1.604 2.207,-1.604 0,-0.386 -0.077,-1.571 -0.305,-1.687 -1.257,0 -2.053,0.614 -3.122,-0.688 0.006,-0.007 -3.127,1.264 -3.572,3.673 l 0,0 z m 10.243,-4.327 c -0.98,-0.376 -2.477,-0.228 -2.477,-0.228 1.296,0.613 1.22,2.33 1.752,2.33 1.068,0 1.599,-0.877 2.664,-1.067 0.003,0 -0.96,-0.659 -1.939,-1.035 l 0,0 z m 5.944,6.727 c 0,-2.201 -2.939,-4.929 -2.939,-4.929 0,0 -1.446,2.679 -0.764,5.433 0.686,0.074 2.665,-0.152 2.665,-0.152 0.497,0.229 0.304,1.033 0.304,1.527 0,1.227 -0.381,4.361 -0.381,4.361 0,0 1.115,-4.032 1.115,-6.24 l 0,0 z"
       id="path13"
       inkscape:connector-curvature="0"
       style="fill:none;stroke:#73797d;stroke-width:0.96539998;stroke-miterlimit:3.86369991" /><polygon
       stroke-miterlimit="3.8637"
       points="44.318,190.9 43.951,188.803 45.42,187.396 43.356,187.107 42.479,185.217 41.584,187.148 39.521,187.396 41.032,188.823 40.625,190.885 42.45,189.878 "
       id="polygon15"
       style="fill:none;stroke:#73797d;stroke-width:0.6207;stroke-miterlimit:3.86369991" /><line
       stroke-miterlimit="3.8635"
       x1="78.859001"
       y1="191.35699"
       x2="78.859001"
       y2="243.71899"
       id="line17"
       style="fill:none;stroke:#73797d;stroke-width:1.93990004;stroke-miterlimit:3.86350012" /><path
       stroke-miterlimit="3.8637"
       d="m 86.419,216.828 -2.252,2.561 c -0.301,0.351 -0.142,2.717 0.01,3.396 1.778,0.713 26.972,8.637 26.972,8.637 l 10.248,-11.168 -1.603,-0.689 c -0.453,-0.73 0.998,-3.19 0.998,-3.19 l -4.96,-1.956 m -4.669,12.048 c -0.4,0.324 -0.305,4.512 0.019,4.977 0.02,0 10.217,-11.188 10.217,-11.188 l -1.059,-0.964 c -0.09,-1.006 0.182,-2.822 0.182,-2.822 l -9.359,9.997 0,0 z m -0.955,-6.884 c -0.42,0.19 -0.67,5.677 -0.1,5.713 0.002,-0.005 8.416,-9.56 8.416,-9.56 l -0.815,-0.459 -7.501,4.306 0,0 z"
       id="path19"
       inkscape:connector-curvature="0"
       style="fill:none;stroke:#73797d;stroke-width:0.96569997;stroke-linecap:round;stroke-linejoin:round;stroke-miterlimit:3.86369991" /><path
       stroke-miterlimit="3.8637"
       d="m 89.499,212.334 -2.629,2.686 c -0.377,0.203 -0.092,2.72 0,3.426 0.921,0.252 23.228,6.878 23.228,6.878 l 8.396,-9.661 -2.663,-0.954"
       id="path21"
       inkscape:connector-curvature="0"
       style="fill:none;stroke:#73797d;stroke-width:0.62040001;stroke-linecap:round;stroke-linejoin:round;stroke-miterlimit:3.86369991" /><path
       stroke-miterlimit="3.8637"
       d="m 113.857,198.35 0,15.994 c -2.184,-0.521 -10.389,-1.572 -11.225,-0.269 -0.683,-1.304 -7.278,-0.716 -11.238,0.166 l 0,-15.391 c -0.502,2.227 -2.016,3.035 -2.016,3.035 l 0,13.566 11.694,-0.842 c 1.296,0.842 2.779,0.305 3.272,0.072 l 11.226,0.364 0,-15.187 c 0.001,0.006 -1.109,-0.09 -1.713,-1.508 l 0,0 z m 0,15.996 c -2.388,0 -9.512,-1.914 -11.188,-0.23 1.522,-0.037 1.563,0.953 0,0.994 -1.674,-0.113 -1.407,-1.072 0,-0.955 -1.447,-1.877 -11.255,0.388 -11.255,0.388 l -0.021,-15.688 c 2.721,0 5.541,-1.312 7.455,-1.312 1.914,0 3.929,0.812 3.929,0.812 0,0 3.011,-1.22 5.137,-1.22 2.519,0 3.814,2.06 5.83,1.351 -0.036,0.972 0.113,15.86 0.113,15.86 l 0,0 z"
       id="path23"
       inkscape:connector-curvature="0"
       style="fill:none;stroke:#73797d;stroke-width:0.96539998;stroke-miterlimit:3.86369991" /><line
       stroke-miterlimit="3.8637"
       x1="102.744"
       y1="198.37601"
       x2="102.648"
       y2="214.061"
       id="line25"
       style="fill:none;stroke:#73797d;stroke-width:0.6207;stroke-miterlimit:3.86369991" /><path
       stroke-miterlimit="3.8637"
       d="m 91.062,219.736 -0.842,0.852 c -0.39,0.449 -0.394,3.98 0.009,4.162 -0.009,0.059 1.823,0.529 1.01,0.159 -0.174,-1.136 -0.105,-3.584 0.2,-3.935 l 0.919,-0.897 -1.296,-0.341 0,0 z m 2.931,0.841 -0.804,0.856 c -0.388,0.441 -0.549,4.073 -0.144,4.25 -0.013,0.067 1.978,0.435 1.164,0.063 -0.178,-1.137 -0.106,-3.584 0.2,-3.936 l 0.851,-0.85 -1.267,-0.383 0,0 z m 7.119,2.105 -0.956,1.006 c -0.389,0.449 -0.595,3.894 -0.189,4.072 -0.012,0.068 2.021,0.619 1.21,0.243 -0.177,-1.128 -0.106,-3.582 0.199,-3.935 l 1.032,-1.043 -1.296,-0.343 0,0 z m 2.703,0.841 -0.956,1.01 c -0.391,0.441 -0.554,3.918 -0.153,4.1 -0.011,0.063 1.983,0.588 1.171,0.217 -0.179,-1.135 -0.106,-3.584 0.2,-3.935 l 1.032,-1.044 -1.294,-0.348 0,0 z m -12.755,-8.164 -0.64,0.649 c -0.295,0.341 -0.354,3.3 -0.048,3.438 -0.008,0.048 0.834,0.336 0.95,0.293 0.125,-0.006 -0.07,-0.311 -0.129,-0.454 -0.134,-0.861 -0.078,-2.724 0.154,-2.99 l 0.695,-0.675 -0.982,-0.261 0,0 z"
       id="path27"
       inkscape:connector-curvature="0"
       style="fill:none;stroke:#73797d;stroke-width:0.67079997;stroke-miterlimit:3.86369991" /><path
       stroke-miterlimit="3.8637"
       d="m 102.782,198.23 c -3.042,-0.076 -3.874,-2.506 -3.874,-2.506 l 1.183,-0.054 c 0,0 -1.485,-0.903 -1.155,-1.791 -0.024,-0.041 1.034,0.112 1.034,0.112 0,0 -0.446,-1.217 -0.042,-2.021 l 0.947,0.396 c 0.272,-1.619 1.948,-1.996 1.948,-1.996 0,0 1.561,0.21 2.018,1.996 l 0.947,-0.396 c 0.404,0.803 -0.033,2.021 -0.033,2.021 0,0 1.058,-0.153 1.034,-0.112 0.331,0.888 -1.156,1.791 -1.156,1.791 l 1.186,0.054 c -0.002,0.001 -0.994,2.432 -4.037,2.506 l 0,0 z"
       id="path29"
       inkscape:connector-curvature="0"
       style="fill:none;stroke:#73797d;stroke-width:0.96539998;stroke-miterlimit:3.86369991" /><line
       stroke-miterlimit="3.8635"
       x1="31.247999"
       y1="176.564"
       x2="64.089996"
       y2="176.564"
       id="line31"
       style="fill:none;stroke:#73797d;stroke-width:1.93990004;stroke-miterlimit:3.86350012" /><line
       stroke-miterlimit="3.8637"
       x1="93.757004"
       y1="176.564"
       x2="126.336"
       y2="176.564"
       id="line33"
       style="fill:none;stroke:#73797d;stroke-width:1.86989999;stroke-miterlimit:3.86369991" /><polygon
       stroke-miterlimit="3.8637"
       points="78.904,164.432 89.378,182.852 68.338,182.852 "
       id="polygon35"
       style="fill:none;stroke:#ffffff;stroke-width:0.96539998;stroke-miterlimit:3.86369991" /><path
       stroke-miterlimit="3.8637"
       d="m 78.814,173.537 c 3.791,0 7.087,3.119 7.046,3.613 0.035,0.466 -3.257,3.59 -7.046,3.59 -3.789,0 -7.091,-3.124 -7.057,-3.59 -0.035,-0.494 3.138,-3.759 7.057,-3.613 l 0,0 z m -3.533,3.602 c 0,-1.959 1.58,-3.545 3.528,-3.545 1.949,0 3.53,1.59 3.53,3.545 0,1.957 -1.581,3.549 -3.53,3.549 -1.949,-0.004 -3.528,-1.592 -3.528,-3.549 l 0,0 z"
       id="path37"
       inkscape:connector-curvature="0"
       style="fill:none;stroke:#73797d;stroke-width:0.96539998;stroke-miterlimit:3.86369991" /><path
       stroke-miterlimit="3.8637"
       d="m 78.369,177.139 c 0,-0.244 0.198,-0.441 0.444,-0.441 0.241,0 0.44,0.197 0.44,0.441 0,0.246 -0.199,0.446 -0.44,0.446 -0.247,0 -0.444,-0.2 -0.444,-0.446 l 0,0 z"
       id="path39"
       inkscape:connector-curvature="0"
       style="fill:#73797d;stroke:#73797d;stroke-width:0.6207;stroke-miterlimit:3.86369991" /><path
       stroke-miterlimit="3.8637"
       d="m 78.916,164.042 c -6.922,0 -12.588,5.657 -12.588,12.61 0,6.955 5.61,12.594 12.532,12.594 6.922,0 12.533,-5.639 12.533,-12.594 0,-6.256 -4.54,-11.442 -10.49,-12.428 -2.214,0.162 -2.327,-0.646 -2.405,-1.063 -0.204,-1.134 1.271,-1.8 2.323,-1.8 1.828,0 1.674,1.07 2.77,1.3 5.825,1.979 10.015,7.519 10.015,14.034 0,8.182 -6.601,14.813 -14.742,14.813 -8.143,0 -14.742,-6.633 -14.742,-14.813 0,-8.184 6.12,-14.493 14.344,-13.881 -0.133,0.54 0.45,1.228 0.45,1.228 l 0,0 z"
       id="path41"
       inkscape:connector-curvature="0"
       style="fill:none;stroke:#73797d;stroke-width:0.96539998;stroke-miterlimit:3.86369991" /><polygon
       stroke-miterlimit="3.8635"
       points="87.713,87.458 86.083,77.486 93.198,70.504 83.421,68.903 78.839,59.692 74.329,68.811 64.136,70.287 71.483,77.577 69.967,87.458 78.839,82.951 "
       id="polygon43"
       style="fill:none;stroke:#73797d;stroke-width:1.7342;stroke-miterlimit:3.86350012" /><path
       stroke-miterlimit="3.8635"
       d="m 78.839,60.019 0,22.932 M 64.484,70.501 86.082,77.486 M 69.967,87.458 83.419,68.903 M 87.713,87.458 74.332,68.812 m 18.866,1.692 -21.714,7.075"
       id="path45"
       inkscape:connector-curvature="0"
       style="fill:none;stroke:#73797d;stroke-width:0.89520001;stroke-miterlimit:3.86350012" /><path
       stroke-miterlimit="3.8635"
       d="M 71.364,77.666 40.831,87.729 M 116.709,62.724 93.216,70.466 M 74.303,68.791 55.444,42.766 M 105.12,111.825 87.549,87.394 M 83.435,68.875 102.203,42.652 M 52.158,111.825 69.945,87.394 M 64.388,70.474 40.941,62.724 M 116.598,87.729 86.199,77.544 m -7.36,-42.514 0,25.578"
       id="path47"
       inkscape:connector-curvature="0"
       style="fill:none;stroke:#73797d;stroke-width:1.7342;stroke-miterlimit:3.86350012" /><path
       stroke-miterlimit="3.8635"
       d="m 70.953,81.165 -12.545,9.072 m 40.92,-29.87 -12.341,9.009 M 75.895,84.525 71.086,99.393 m 15.66,-48.42 -4.771,14.75 m -0.106,18.813 4.774,14.76 M 70.976,50.838 75.828,65.839 m 10.811,15.116 12.462,9.098 m -40.92,-29.877 12.437,9.079 m 17.916,6.035 15.712,0.003 m -50.699,-0.003 15.473,0"
       id="path49"
       inkscape:connector-curvature="0"
       style="fill:none;stroke:#73797d;stroke-width:0.89520001;stroke-miterlimit:3.86350012" /><path
       stroke-miterlimit="3.8637"
       d="m 104.612,143.311 c 0.69,1.021 2.094,3.402 2.054,3.402 0,0 -3.311,0.229 -4.489,-0.88 -0.259,-0.394 -2.25,-3.606 -2.25,-3.606 0,0 4,0.059 4.685,1.084 l 0,0 z m -60.876,-17.209 -5.857,13.479 11.725,0.032 -5.868,-13.511 0,0 z m 17.43,13.531 c 0,3.221 2.661,5.832 5.942,5.832 3.285,0 5.942,-2.611 5.942,-5.832 l -11.884,0 0,0 z m 5.954,-13.531 5.859,13.479 -11.725,0.032 5.866,-13.511 0,0 z m -13.481,35.912 3.504,-1.646 m -3.617,-0.608 3.503,-1.646"
       id="path51"
       inkscape:connector-curvature="0"
       style="fill:none;stroke:#73797d;stroke-width:0.96539998;stroke-miterlimit:3.86369991" /><path
       stroke-miterlimit="3.8637"
       d="m 55.279,125.867 -11.536,0 0,-1.375 11.423,0 0.113,1.375 0,0 z m 0.19,-1.375 11.608,0 0,1.375 -11.534,0 -0.074,-1.375 0,0 z m 38.944,77.317 c 1.598,-0.053 3.661,-1.635 5.95,-0.871 m -5.965,2.619 c 1.594,-0.047 3.672,-1.558 5.962,-0.787 m -5.978,2.541 c 1.597,-0.047 3.685,-1.483 5.975,-0.719 m -5.984,2.471 c 1.595,-0.047 3.693,-1.412 5.985,-0.645 m -6.001,2.398 c 1.596,-0.047 3.708,-1.336 5.995,-0.573 m -6.011,2.327 c 1.596,-0.053 3.722,-1.264 6.011,-0.496 m 10.754,-8.781 c -1.597,-0.052 -3.728,-1.119 -6.016,-0.354 m 6.019,2.2 c -1.597,-0.052 -3.729,-1.139 -6.017,-0.369 m 6.019,2.216 c -1.597,-0.053 -3.728,-1.16 -6.016,-0.396 m 6.016,2.242 c -1.597,-0.053 -3.728,-1.182 -6.013,-0.413 m 6.018,2.259 c -1.598,-0.054 -3.729,-1.197 -6.014,-0.435 m 6.016,2.278 c -1.598,-0.051 -3.728,-1.215 -6.016,-0.447"
       id="path53"
       inkscape:connector-curvature="0"
       style="fill:none;stroke:#73797d;stroke-width:0.6207;stroke-miterlimit:3.86369991" /><polygon
       stroke-miterlimit="3.8637"
       points="78.904,164.432 89.378,182.852 68.338,182.852 "
       id="polygon55"
       style="fill:none;stroke:#73797d;stroke-width:0.96539998;stroke-miterlimit:3.86369991" /><path
       stroke-miterlimit="3.8637"
       d="m 93.294,215.896 -0.639,0.646 c -0.296,0.343 -0.354,3.3 -0.048,3.439 0.145,0.084 0.835,0.406 0.95,0.359 0.124,0 -0.09,-0.375 -0.129,-0.518 -0.135,-0.861 -0.08,-2.723 0.152,-2.991 l 0.698,-0.679 -0.984,-0.256 0,0 z"
       id="path57"
       inkscape:connector-curvature="0"
       style="fill:none;stroke:#73797d;stroke-width:0.67079997;stroke-miterlimit:3.86369991" /><polygon
       points="77.792,82.951 79.708,82.951 79.708,161.133 78.817,162.338 78.458,162.816 77.861,162.408 "
       id="polygon59"
       style="fill:#73797d" /><path
       stroke-miterlimit="3.8637"
       d="m 102.388,218.514 -0.642,0.651 c -0.293,0.34 -0.353,3.3 -0.048,3.438 -0.009,0.052 0.834,0.334 0.95,0.293 0.124,-0.004 -0.071,-0.31 -0.129,-0.453 -0.136,-0.854 -0.08,-2.721 0.153,-2.985 l 0.696,-0.679 -0.98,-0.265 0,0 z m 2.235,0.539 -0.638,0.648 c -0.297,0.342 -0.354,3.307 -0.047,3.439 0.144,0.082 0.833,0.407 0.949,0.363 0.125,-0.004 -0.09,-0.38 -0.129,-0.52 -0.136,-0.859 -0.079,-2.727 0.152,-2.991 l 0.697,-0.683 -0.984,-0.256 0,0 z"
       id="path61"
       inkscape:connector-curvature="0"
       style="fill:none;stroke:#73797d;stroke-width:0.67079997;stroke-miterlimit:3.86369991" /></g><g
     id="g63"
     transform="translate(-10.362026,-15.03)"><path
       d="m 296.267,149.625 11.669,0 0,22.081 -11.669,0 0,62.769 c -2.609,22.172 -17.031,38.766 -40.39,37.848 l 0,-22.074 c 9.952,0.336 15.882,-3.461 16.917,-15.256 l 0.061,-63.285 -11.003,0 0,-22.078 11.003,0 0.006,-14.845 c 0.551,-23.392 14.897,-40.593 40.786,-37.614 l 0,21.883 c -11.077,-0.877 -17.273,3.624 -17.383,15.908 l 0,14.665 0.003,-0.002 0,0 z"
       id="path65"
       inkscape:connector-curvature="0"
       style="fill:#e30613" /><path
       stroke-miterlimit="3.8637"
       d="m 448.076,272.063 0,-175.308 m -288.395,175.308 0,-175.339"
       id="path67"
       inkscape:connector-curvature="0"
       style="fill:none;stroke:#73797d;stroke-width:1.91639996;stroke-miterlimit:3.86369991" /><path
       d="m 182.99,149.979 c 0,-12.529 6.209,-17.113 17.384,-16.231 l 0,-21.881 c -26.074,-3.001 -40.441,14.466 -40.796,38.112 l 0,20.646 0,69.872 23.412,0 0,-69.872 16.497,0 0,-20.646 -16.497,0 0,0 z"
       id="path69"
       inkscape:connector-curvature="0"
       style="fill:#73797d" /><path
       d="m 240.624,240.496 18.268,0 0,-22.585 -16.32,0 c -14.722,0 -24.12,-10.058 -24.12,-22.938 0,-12.88 9.4,-22.938 24.12,-22.938 l 16.32,0 0,-22.407 -18.268,0 c -27.846,0 -45.588,19.939 -45.588,45.348 0,25.409 17.741,45.52 45.588,45.52 l 0,0 z"
       id="path71"
       inkscape:connector-curvature="0"
       style="fill:#73797d" /><path
       d="m 447.791,187.965 c 0,-23.813 -15.069,-40.568 -40.605,-40.568 -11.88,0 -22.166,4.939 -29.082,12.875 -6.559,-7.936 -16.665,-12.875 -29.082,-12.875 -24.998,0 -41.137,17.463 -41.137,40.568 l 0,52.567 23.408,0 0,-53.095 c 0,-10.229 7.271,-17.287 17.729,-17.287 15.428,0 17.025,12.17 17.025,17.287 l 0,53.095 23.403,0 0,-53.095 c 0,-10.229 7.443,-17.287 17.732,-17.287 15.43,0 17.202,12.17 17.202,17.287 l 0,53.095 23.404,0 0,-52.567 0.003,0 0,0 z"
       id="path73"
       inkscape:connector-curvature="0"
       style="fill:#73797d" /></g><g
     transform="translate(-9.4223815,49.805523)"
     style="font-style:normal;font-weight:normal;font-size:17.5px;line-height:125%;font-family:sans-serif;letter-spacing:0px;word-spacing:0px;fill:#e30613;fill-opacity:1;stroke:none;stroke-width:1px;stroke-linecap:butt;stroke-linejoin:miter;stroke-opacity:1"
     id="flowRoot3547"><path
       d="m 475.14148,167.26942 -3.22998,0 0,-18.66211 3.22998,0 0,18.66211 z"
       style="font-style:normal;font-variant:normal;font-weight:500;font-stretch:normal;font-size:26.25px;font-family:Roboto;-inkscape-font-specification:'Roboto Medium';fill:#e30613;fill-opacity:1"
       id="path3593" /><path
       d="m 481.74243,153.40102 0.0897,1.60217 q 1.53809,-1.85852 4.03748,-1.85852 4.33227,0 4.40918,4.96033 l 0,9.16442 -3.11463,0 0,-8.98498 q 0,-1.32019 -0.57678,-1.94824 -0.56396,-0.64087 -1.85852,-0.64087 -1.88415,0 -2.80701,1.70471 l 0,9.86938 -3.11462,0 0,-13.8684 2.93518,0 z"
       style="font-style:normal;font-variant:normal;font-weight:500;font-stretch:normal;font-size:26.25px;font-family:Roboto;-inkscape-font-specification:'Roboto Medium';fill:#e30613;fill-opacity:1"
       id="path3595" /><path
       d="m 492.91919,160.23268 q 0,-3.22998 1.51245,-5.15259 1.52527,-1.93542 4.03748,-1.93542 2.37121,0 3.72985,1.65344 l 0.141,-1.39709 2.807,0 0,13.44543 q 0,2.7301 -1.70471,4.30664 -1.69189,1.57654 -4.5758,1.57654 -1.52527,0 -2.98646,-0.64087 -1.44836,-0.62805 -2.20458,-1.65344 l 1.47399,-1.87134 q 1.43555,1.70471 3.5376,1.70471 1.55091,0 2.44812,-0.84595 0.89722,-0.83313 0.89722,-2.46093 l 0,-0.93567 q -1.34583,1.49963 -3.58887,1.49963 -2.4353,0 -3.9862,-1.93542 -1.53809,-1.93543 -1.53809,-5.35767 z m 3.10181,0.26917 q 0,2.08923 0.84594,3.29406 0.85877,1.19202 2.37122,1.19202 1.88415,0 2.79419,-1.61499 l 0,-6.10107 q -0.8844,-1.57654 -2.76856,-1.57654 -1.53808,0 -2.39685,1.21765 -0.84594,1.21765 -0.84594,3.58887 z"
       style="font-style:normal;font-variant:normal;font-weight:500;font-stretch:normal;font-size:26.25px;font-family:Roboto;-inkscape-font-specification:'Roboto Medium';fill:#e30613;fill-opacity:1"
       id="path3597" /><path
       d="m 514.43958,167.52577 q -2.96082,0 -4.80652,-1.85852 -1.83289,-1.87134 -1.83289,-4.97314 l 0,-0.38452 q 0,-2.07642 0.79468,-3.70423 0.80749,-1.64062 2.25586,-2.55066 1.44836,-0.91003 3.22998,-0.91003 2.83264,0 4.37073,1.80725 1.5509,1.80725 1.5509,5.11414 l 0,1.2561 -9.06189,0 q 0.14099,1.71753 1.14075,2.71728 1.01257,0.99976 2.53784,0.99976 2.1405,0 3.48633,-1.73035 l 1.67907,1.60218 q -0.83313,1.24328 -2.23022,1.93542 -1.38428,0.67932 -3.11462,0.67932 z m -0.37171,-11.88171 q -1.28174,0 -2.07641,0.89721 -0.78187,0.89722 -0.99976,2.49939 l 5.93445,0 0,-0.23071 q -0.10254,-1.56372 -0.83313,-2.3584 -0.73059,-0.80749 -2.02515,-0.80749 z"
       style="font-style:normal;font-variant:normal;font-weight:500;font-stretch:normal;font-size:26.25px;font-family:Roboto;-inkscape-font-specification:'Roboto Medium';fill:#e30613;fill-opacity:1"
       id="path3599" /><path
       d="m 525.32153,153.40102 0.0897,1.60217 q 1.53809,-1.85852 4.03748,-1.85852 4.33228,0 4.40918,4.96033 l 0,9.16442 -3.11462,0 0,-8.98498 q 0,-1.32019 -0.57679,-1.94824 -0.56396,-0.64087 -1.85852,-0.64087 -1.88415,0 -2.807,1.70471 l 0,9.86938 -3.11463,0 0,-13.8684 2.93518,0 z"
       style="font-style:normal;font-variant:normal;font-weight:500;font-stretch:normal;font-size:26.25px;font-family:Roboto;-inkscape-font-specification:'Roboto Medium';fill:#e30613;fill-opacity:1"
       id="path3601" /><path
       d="m 540.35632,167.26942 -3.11462,0 0,-13.8684 3.11462,0 0,13.8684 z m -3.30688,-17.47009 q 0,-0.71777 0.44861,-1.19202 0.46142,-0.47424 1.30737,-0.47424 0.84595,0 1.30737,0.47424 0.46143,0.47425 0.46143,1.19202 0,0.70496 -0.46143,1.1792 -0.46142,0.46143 -1.30737,0.46143 -0.84595,0 -1.30737,-0.46143 -0.44861,-0.47424 -0.44861,-1.1792 z"
       style="font-style:normal;font-variant:normal;font-weight:500;font-stretch:normal;font-size:26.25px;font-family:Roboto;-inkscape-font-specification:'Roboto Medium';fill:#e30613;fill-opacity:1"
       id="path3603" /><path
       d="m 549.86682,167.52577 q -2.96081,0 -4.80652,-1.85852 -1.83288,-1.87134 -1.83288,-4.97314 l 0,-0.38452 q 0,-2.07642 0.79467,-3.70423 0.8075,-1.64062 2.25586,-2.55066 1.44837,-0.91003 3.22998,-0.91003 2.83265,0 4.37073,1.80725 1.55091,1.80725 1.55091,5.11414 l 0,1.2561 -9.06189,0 q 0.14099,1.71753 1.14074,2.71728 1.01258,0.99976 2.53784,0.99976 2.14051,0 3.48633,-1.73035 l 1.67908,1.60218 q -0.83313,1.24328 -2.23022,1.93542 -1.38428,0.67932 -3.11463,0.67932 z m -0.3717,-11.88171 q -1.28174,0 -2.07642,0.89721 -0.78186,0.89722 -0.99975,2.49939 l 5.93444,0 0,-0.23071 q -0.10254,-1.56372 -0.83313,-2.3584 -0.73059,-0.80749 -2.02514,-0.80749 z"
       style="font-style:normal;font-variant:normal;font-weight:500;font-stretch:normal;font-size:26.25px;font-family:Roboto;-inkscape-font-specification:'Roboto Medium';fill:#e30613;fill-opacity:1"
       id="path3605" /><path
       d="m 565.11951,156.24648 q -0.61524,-0.10254 -1.26892,-0.10254 -2.14051,0 -2.88392,1.64062 l 0,9.48486 -3.11462,0 0,-13.8684 2.97363,0 0.0769,1.5509 q 1.12793,-1.80725 3.12744,-1.80725 0.6665,0 1.10229,0.17944 l -0.0128,2.92237 z"
       style="font-style:normal;font-variant:normal;font-weight:500;font-stretch:normal;font-size:26.25px;font-family:Roboto;-inkscape-font-specification:'Roboto Medium';fill:#e30613;fill-opacity:1"
       id="path3607" /><path
       d="m 570.43872,167.26942 -3.11462,0 0,-13.8684 3.11462,0 0,13.8684 z m -0.5896,-19.59777 3.55042,0 -3.55042,3.88366 -2.49939,0 2.49939,-3.88366 z"
       style="font-style:normal;font-variant:normal;font-weight:500;font-stretch:normal;font-size:26.25px;font-family:Roboto;-inkscape-font-specification:'Roboto Medium';fill:#e30613;fill-opacity:1"
       id="path3609" /><path
       d="m 582.2948,167.26942 q -0.20508,-0.39733 -0.35889,-1.29455 -1.48681,1.5509 -3.64013,1.5509 -2.08924,0 -3.40943,-1.19201 -1.32019,-1.19202 -1.32019,-2.948 0,-2.21741 1.64063,-3.39661 1.65344,-1.19202 4.71679,-1.19202 l 1.90979,0 0,-0.91003 q 0,-1.07666 -0.60241,-1.71753 -0.60242,-0.65369 -1.83289,-0.65369 -1.06384,0 -1.74316,0.53833 -0.67932,0.52552 -0.67932,1.34583 l -3.11463,0 q 0,-1.14075 0.75623,-2.12769 0.75622,-0.99975 2.05078,-1.56372 1.30737,-0.56396 2.90954,-0.56396 2.43531,0 3.88367,1.23047 1.44837,1.21765 1.48682,3.43506 l 0,6.25488 q 0,1.87134 0.52551,2.98645 l 0,0.21789 -3.17871,0 z m -3.42224,-2.24304 q 0.92285,0 1.73035,-0.44861 0.82031,-0.4486 1.23046,-1.20483 l 0,-2.61475 -1.67907,0 q -1.73035,0 -2.60193,0.60242 -0.87158,0.60242 -0.87158,1.70471 0,0.89722 0.5896,1.43555 0.60241,0.52551 1.60217,0.52551 z"
       style="font-style:normal;font-variant:normal;font-weight:500;font-stretch:normal;font-size:26.25px;font-family:Roboto;-inkscape-font-specification:'Roboto Medium';fill:#e30613;fill-opacity:1"
       id="path3611" /><path
       d="m 594.18933,160.23268 q 0,-3.20434 1.48682,-5.13977 1.48681,-1.94824 3.9862,-1.94824 2.20459,0 3.56324,1.53808 l 0,-7.10083 3.11462,0 0,19.6875 -2.81982,0 -0.15381,-1.43554 q -1.3971,1.69189 -3.72986,1.69189 -2.4353,0 -3.94776,-1.96106 -1.49963,-1.96106 -1.49963,-5.33203 z m 3.11463,0.26917 q 0,2.11486 0.80749,3.30688 0.82031,1.1792 2.31995,1.1792 1.90979,0 2.79419,-1.70471 l 0,-5.92163 q -0.85877,-1.66626 -2.76856,-1.66626 -1.51245,0 -2.33276,1.20483 -0.82031,1.19202 -0.82031,3.60169 z"
       style="font-style:normal;font-variant:normal;font-weight:500;font-stretch:normal;font-size:26.25px;font-family:Roboto;-inkscape-font-specification:'Roboto Medium';fill:#e30613;fill-opacity:1"
       id="path3613" /><path
       d="m 615.6969,167.52577 q -2.96082,0 -4.80652,-1.85852 -1.83288,-1.87134 -1.83288,-4.97314 l 0,-0.38452 q 0,-2.07642 0.79467,-3.70423 0.8075,-1.64062 2.25586,-2.55066 1.44837,-0.91003 3.22998,-0.91003 2.83264,0 4.37073,1.80725 1.5509,1.80725 1.5509,5.11414 l 0,1.2561 -9.06189,0 q 0.141,1.71753 1.14075,2.71728 1.01257,0.99976 2.53784,0.99976 2.14051,0 3.48633,-1.73035 l 1.67908,1.60218 q -0.83313,1.24328 -2.23023,1.93542 -1.38427,0.67932 -3.11462,0.67932 z m -0.3717,-11.88171 q -1.28174,0 -2.07642,0.89721 -0.78186,0.89722 -0.99976,2.49939 l 5.93445,0 0,-0.23071 q -0.10254,-1.56372 -0.83313,-2.3584 -0.73059,-0.80749 -2.02514,-0.80749 z"
       style="font-style:normal;font-variant:normal;font-weight:500;font-stretch:normal;font-size:26.25px;font-family:Roboto;-inkscape-font-specification:'Roboto Medium';fill:#e30613;fill-opacity:1"
       id="path3615" /><path
       d="m 634.75635,148.60731 5.3833,14.3042 5.37048,-14.3042 4.19129,0 0,18.66211 -3.22998,0 0,-6.15234 0.32043,-8.22876 -5.51147,14.3811 -2.31995,0 -5.49866,-14.36828 0.32044,8.21594 0,6.15234 -3.22998,0 0,-18.66211 4.2041,0 z"
       style="font-style:normal;font-variant:normal;font-weight:500;font-stretch:normal;font-size:26.25px;font-family:Roboto;-inkscape-font-specification:'Roboto Medium';fill:#e30613;fill-opacity:1"
       id="path3617" /><path
       d="m 656.53308,167.26942 -3.11462,0 0,-13.8684 3.11462,0 0,13.8684 z m -3.30688,-17.47009 q 0,-0.71777 0.4486,-1.19202 0.46143,-0.47424 1.30738,-0.47424 0.84594,0 1.30737,0.47424 0.46143,0.47425 0.46143,1.19202 0,0.70496 -0.46143,1.1792 -0.46143,0.46143 -1.30737,0.46143 -0.84595,0 -1.30738,-0.46143 -0.4486,-0.47424 -0.4486,-1.1792 z"
       style="font-style:normal;font-variant:normal;font-weight:500;font-stretch:normal;font-size:26.25px;font-family:Roboto;-inkscape-font-specification:'Roboto Medium';fill:#e30613;fill-opacity:1"
       id="path3619" /><path
       d="m 662.82642,153.40102 0.0897,1.60217 q 1.53808,-1.85852 4.03747,-1.85852 4.33228,0 4.40918,4.96033 l 0,9.16442 -3.11462,0 0,-8.98498 q 0,-1.32019 -0.57678,-1.94824 -0.56397,-0.64087 -1.85852,-0.64087 -1.88416,0 -2.80701,1.70471 l 0,9.86938 -3.11462,0 0,-13.8684 2.93518,0 z"
       style="font-style:normal;font-variant:normal;font-weight:500;font-stretch:normal;font-size:26.25px;font-family:Roboto;-inkscape-font-specification:'Roboto Medium';fill:#e30613;fill-opacity:1"
       id="path3621" /><path
       d="m 682.83435,167.26942 q -0.20508,-0.39733 -0.35889,-1.29455 -1.48681,1.5509 -3.64013,1.5509 -2.08924,0 -3.40943,-1.19201 -1.32019,-1.19202 -1.32019,-2.948 0,-2.21741 1.64063,-3.39661 1.65344,-1.19202 4.71679,-1.19202 l 1.90979,0 0,-0.91003 q 0,-1.07666 -0.60241,-1.71753 -0.60242,-0.65369 -1.83289,-0.65369 -1.06384,0 -1.74316,0.53833 -0.67932,0.52552 -0.67932,1.34583 l -3.11463,0 q 0,-1.14075 0.75623,-2.12769 0.75622,-0.99975 2.05078,-1.56372 1.30737,-0.56396 2.90955,-0.56396 2.4353,0 3.88366,1.23047 1.44837,1.21765 1.48682,3.43506 l 0,6.25488 q 0,1.87134 0.52551,2.98645 l 0,0.21789 -3.17871,0 z m -3.42224,-2.24304 q 0.92285,0 1.73035,-0.44861 0.82031,-0.4486 1.23046,-1.20483 l 0,-2.61475 -1.67907,0 q -1.73035,0 -2.60193,0.60242 -0.87158,0.60242 -0.87158,1.70471 0,0.89722 0.5896,1.43555 0.60241,0.52551 1.60217,0.52551 z"
       style="font-style:normal;font-variant:normal;font-weight:500;font-stretch:normal;font-size:26.25px;font-family:Roboto;-inkscape-font-specification:'Roboto Medium';fill:#e30613;fill-opacity:1"
       id="path3623" /><path
       d="m 696.52332,163.50111 q 0,-0.83313 -0.69214,-1.26892 -0.67932,-0.43579 -2.26868,-0.76904 -1.58936,-0.33325 -2.6532,-0.84595 -2.33276,-1.12793 -2.33276,-3.26843 0,-1.79443 1.51245,-2.99927 1.51245,-1.20483 3.84521,-1.20483 2.48658,0 4.01184,1.23047 1.53809,1.23047 1.53809,3.19153 l -3.11462,0 q 0,-0.89722 -0.66651,-1.48682 -0.6665,-0.60242 -1.7688,-0.60242 -1.02539,0 -1.67907,0.47425 -0.64087,0.47424 -0.64087,1.26892 0,0.71777 0.60241,1.11511 0.60242,0.39734 2.43531,0.80749 1.83288,0.39734 2.87109,0.96131 1.05103,0.55114 1.5509,1.33301 0.5127,0.78186 0.5127,1.89697 0,1.87134 -1.5509,3.03772 -1.55091,1.15356 -4.06311,1.15356 -1.70472,0 -3.03772,-0.61523 -1.33301,-0.61524 -2.07642,-1.6919 -0.74341,-1.07666 -0.74341,-2.31994 l 3.0249,0 q 0.0641,1.10229 0.83313,1.70471 0.76905,0.5896 2.03797,0.5896 1.23047,0 1.87134,-0.46143 0.64087,-0.47424 0.64087,-1.23047 z"
       style="font-style:normal;font-variant:normal;font-weight:500;font-stretch:normal;font-size:26.25px;font-family:Roboto;-inkscape-font-specification:'Roboto Medium';fill:#e30613;fill-opacity:1"
       id="path3625" /></g><g
     transform="translate(-7.0245095,-24.839858)"
     style="font-style:normal;font-weight:normal;font-size:40px;line-height:125%;font-family:sans-serif;letter-spacing:0px;word-spacing:0px;fill:#e30613;fill-opacity:1;stroke:none;stroke-width:1px;stroke-linecap:butt;stroke-linejoin:miter;stroke-opacity:1"
     id="flowRoot3547-8"><path
       d="m 498.875,194.11586 -16.05225,0 -3.05175,9.15528 -9.73511,0 16.54053,-44.4336 8.48388,0 16.63208,44.4336 -9.7351,0 -3.08228,-9.15528 z m -13.58032,-7.41577 11.1084,0 -5.58472,-16.63208 -5.52368,16.63208 z"
       style="font-style:normal;font-variant:normal;font-weight:bold;font-stretch:normal;font-size:62.5px;font-family:Roboto;-inkscape-font-specification:'Roboto Bold';fill:#e30613;fill-opacity:1"
       id="path3580" /><path
       d="m 524.63184,203.27114 -8.8501,0 0,-46.875 8.8501,0 0,46.875 z"
       style="font-style:normal;font-variant:normal;font-weight:bold;font-stretch:normal;font-size:62.5px;font-family:Roboto;-inkscape-font-specification:'Roboto Bold';fill:#e30613;fill-opacity:1"
       id="path3582" /><path
       d="m 551.70093,199.9142 q -3.26538,3.96729 -9.03321,3.96729 -5.31005,0 -8.11767,-3.05176 -2.7771,-3.05176 -2.83814,-8.94165 l 0,-21.63696 8.81958,0 0,21.33178 q 0,5.15747 4.69971,5.15747 4.48609,0 6.16455,-3.11279 l 0,-23.37646 8.8501,0 0,33.02002 -8.30078,0 -0.24414,-3.35694 z"
       style="font-style:normal;font-variant:normal;font-weight:bold;font-stretch:normal;font-size:62.5px;font-family:Roboto;-inkscape-font-specification:'Roboto Bold';fill:#e30613;fill-opacity:1"
       id="path3584" /><path
       d="m 575.22998,170.25112 0.27466,3.69262 q 3.50952,-4.30297 9.49097,-4.30297 6.37817,0 8.75854,5.0354 3.479,-5.0354 9.91821,-5.0354 5.3711,0 7.99561,3.14331 2.62451,3.11279 2.62451,9.39941 l 0,21.08765 -8.8501,0 0,-21.05713 q 0,-2.80762 -1.09863,-4.08936 -1.09863,-1.31225 -3.87573,-1.31225 -3.96729,0 -5.49317,3.78418 l 0.0305,22.67456 -8.81958,0 0,-21.02661 q 0,-2.86866 -1.12915,-4.1504 -1.12915,-1.28173 -3.84521,-1.28173 -3.75367,0 -5.43213,3.11279 l 0,23.34595 -8.81958,0 0,-33.02002 8.27026,0 z"
       style="font-style:normal;font-variant:normal;font-weight:bold;font-stretch:normal;font-size:62.5px;font-family:Roboto;-inkscape-font-specification:'Roboto Bold';fill:#e30613;fill-opacity:1"
       id="path3586" /><path
       d="m 629.15454,170.25112 0.27466,3.81469 q 3.54004,-4.42504 9.49097,-4.42504 5.24902,0 7.8125,3.08227 2.56347,3.08228 2.62451,9.21631 l 0,21.33179 -8.81958,0 0,-21.11817 q 0,-2.80761 -1.22071,-4.05884 -1.2207,-1.28173 -4.05883,-1.28173 -3.72315,0 -5.58472,3.17382 l 0,23.28492 -8.81958,0 0,-33.02002 8.30078,0 z"
       style="font-style:normal;font-variant:normal;font-weight:bold;font-stretch:normal;font-size:62.5px;font-family:Roboto;-inkscape-font-specification:'Roboto Bold';fill:#e30613;fill-opacity:1"
       id="path3588" /><path
       d="m 665.37891,203.27114 -8.8501,0 0,-33.02002 8.8501,0 0,33.02002 z m -9.3689,-41.56494 q 0,-1.98365 1.31226,-3.26539 1.34277,-1.28173 3.63159,-1.28173 2.2583,0 3.60107,1.28173 1.34278,1.28174 1.34278,3.26539 0,2.01416 -1.3733,3.29589 -1.34277,1.28174 -3.57055,1.28174 -2.22779,0 -3.60108,-1.28174 -1.34277,-1.28173 -1.34277,-3.29589 z"
       style="font-style:normal;font-variant:normal;font-weight:bold;font-stretch:normal;font-size:62.5px;font-family:Roboto;-inkscape-font-specification:'Roboto Bold';fill:#e30613;fill-opacity:1"
       id="path3590" /></g></svg>