<?xml version="1.0" encoding="utf-8"?>
<!-- Generator: Adobe Illustrator 16.0.0, SVG Export Plug-In . SVG Version: 6.00 Build 0)  -->
<!DOCTYPE svg PUBLIC "-//W3C//DTD SVG 1.1//EN" "http://www.w3.org/Graphics/SVG/1.1/DTD/svg11.dtd" [
	<!ENTITY ns_extend "http://ns.adobe.com/Extensibility/1.0/">
	<!ENTITY ns_ai "http://ns.adobe.com/AdobeIllustrator/10.0/">
	<!ENTITY ns_graphs "http://ns.adobe.com/Graphs/1.0/">
	<!ENTITY ns_vars "http://ns.adobe.com/Variables/1.0/">
	<!ENTITY ns_imrep "http://ns.adobe.com/ImageReplacement/1.0/">
	<!ENTITY ns_sfw "http://ns.adobe.com/SaveForWeb/1.0/">
	<!ENTITY ns_custom "http://ns.adobe.com/GenericCustomNamespace/1.0/">
	<!ENTITY ns_adobe_xpath "http://ns.adobe.com/XPath/1.0/">
]>
<svg version="1.1" id="Layer_1" xmlns:x="&ns_extend;" xmlns:i="&ns_ai;" xmlns:graph="&ns_graphs;"
	 xmlns="http://www.w3.org/2000/svg" xmlns:xlink="http://www.w3.org/1999/xlink" x="0px" y="0px" width="783.07px"
	 height="198.895px" viewBox="0 0 783.07 198.895" enable-background="new 0 0 783.07 198.895" xml:space="preserve">
<metadata>
	<sfw  xmlns="&ns_sfw;">
		<slices></slices>
		<sliceSourceBounds  height="166.719" width="737.76" bottomLeftOrigin="true" y="-198.152" x="21.375"></sliceSourceBounds>
	</sfw>
</metadata>
<text transform="matrix(1.0054 0 0 1 111.2363 119.4058)" fill="#E21F26" font-family="'TrajanPro-Bold'" font-size="45.5065">INGENIERIA INDUSTRIAL</text>
<text transform="matrix(1.0054 0 0 1 111.2363 174.3979)" fill="#747A7E" font-family="'TrajanPro-Regular'" font-size="45.5065" letter-spacing="0.995">UNIVERSIDAD DE CHILE</text>
<g>
	<path fill="none" stroke="#747A7E" stroke-width="1.4871" stroke-miterlimit="3.8635" d="M94.984,78.171v94.838
		c0,1.813-1.462,3.284-3.268,3.284H61.991c-1.989-0.049-3.425,3.273-3.425,3.273s-1.442-3.322-3.52-3.273
		c0.003-0.003-29.657,0-29.657,0c-1.804,0-3.268-1.472-3.268-3.284l-0.002-94.833L94.984,78.171L94.984,78.171z"/>
	<path fill="none" stroke="#747A7E" stroke-width="0.74" stroke-miterlimit="3.8637" d="M69.481,93.271l-2.895-4.616
		c-3.469,0.801-2.617-2.207-0.737-3.39c2.066-1.297,4.401-0.841,2.903,2.029c0,0,0.667,1.087,1.781,2.859
		C70.534,90.154,69.773,91.599,69.481,93.271L69.481,93.271z M82.293,108.752l7.89,12.531l-0.581,0.582l-2.766-2.191
		c0,0-0.168-1.833-0.608-2.212c-1.485-1.281-0.605-1.987-1.18-3.178c-0.575-1.186-3.945-2.102-4.729-3.884
		c0.015,0.086-1.298-2.083-1.298-2.083C82.029,107.785,82.293,108.752,82.293,108.752L82.293,108.752z M73.042,93.975
		c-0.013-0.026,2.805,4.613,2.793,4.553c-1.744-0.211-2.59-0.713-2.937-1.65C72.487,95.821,72.808,94.416,73.042,93.975
		L73.042,93.975z M30.869,138.094l6.16,15.555 M31.372,138.543l5.718,11.055 M31.791,138.712l5.199,7.804 M32.099,138.573
		l4.77,5.668 M32.041,138.046l6.903,6.523 M31.984,137.666l9.458,7.077 M31.835,137.341l13.889,8.154 M39.346,112.539l-0.211,4.808
		h2.801l-0.212-4.808H39.346L39.346,112.539z M41.671,111.216l-1.14-25.775l-1.166,25.775H41.671L41.671,111.216z M35.804,111.243
		h9.455v1.294h-9.455V111.243L35.804,111.243z M43.514,117.352c0,1.933-1.336,3.271-2.982,3.271c-1.646,0-2.982-1.336-2.982-3.271
		H43.514L43.514,117.352z M36.192,99.513c0,2.47-2.039,4.47-4.554,4.47s-4.556-2-4.556-4.47H36.192L36.192,99.513z M73.595,93.036
		c0,0,1.006,1.367,2.083,0.729c1.973-1.165-0.463-7.809-4.526-4.429c-0.892,0.747-2.086,4.2-1.855,6.412
		c0.233,2.217,1.215,5.017,3.712,5.597c1.506,0.35,4.508-0.489,5.756,1.564c0.926-0.348,1.939-4.008-0.65-4.129
		c-2.555-0.115-4.716-0.553-5.106-1.632C72.083,94.583,73.595,93.036,73.595,93.036L73.595,93.036z M75.896,103.427
		c-1.004,0.487-1.739,1.648-1.388,2.939c0.35,1.293,1.918,2.064,4.134,1.948c0.124-0.007,0.24-0.017,0.354-0.022
		c1.961-0.145,2.835-0.383,3.498,0.726c0.7-0.821,0.497-2.651-0.5-3.498C80.48,104.228,76.542,105.867,75.896,103.427
		L75.896,103.427z M80.28,110.423c-0.233,1.059-0.948,2.472-0.351,3.754c0.815,1.76,2.333,0.82,2.801,1.874
		c0.464,1.054,0.017,2.627,1.049,2.932c1.984,0.589,1.286,2.579,2.336,2.465c0.928-0.106,0.961-3.219,0-4.105
		c-1.401-1.293-0.468-2.229-1.166-3.285C84.245,113.004,81.679,112.536,80.28,110.423L80.28,110.423z"/>
	<path fill="none" stroke="#747A7E" stroke-width="0.4758" stroke-miterlimit="3.8637" d="M59.86,116.985
		c0-0.073,0.058-0.13,0.131-0.13c0.074,0,0.132,0.057,0.132,0.13c0,0.074-0.058,0.131-0.132,0.131
		C59.92,117.12,59.86,117.058,59.86,116.985L59.86,116.985z M74.629,90.712c0.189-0.068,0.414,0.072,0.499,0.312
		c0.087,0.24,0.005,0.495-0.181,0.563c-0.188,0.07-0.414-0.071-0.499-0.314C74.36,91.035,74.443,90.782,74.629,90.712L74.629,90.712
		z"/>
	<path fill="none" stroke="#747A7E" stroke-width="0.74" stroke-miterlimit="3.8637" d="M38.518,153.656
		c0-3.733,3.005-6.755,6.717-6.755c3.712,0,6.72,3.018,6.72,6.755c0,3.727-3.007,6.75-6.72,6.75
		C41.523,160.406,38.518,157.382,38.518,153.656L38.518,153.656z M52.187,170.248h-3.269v-6.313H28.815v-3.229h23.37L52.187,170.248
		L52.187,170.248z M31.721,154.393c0-0.757,0.615-1.375,1.374-1.375c0.757,0,1.37,0.618,1.37,1.375c0,0.763-0.613,1.38-1.37,1.38
		C32.336,155.773,31.721,155.158,31.721,154.393L31.721,154.393z M31.783,154l-2.349,6.674l3.628-4.9 M34.404,154l2.346,6.674
		l-3.626-4.9 M39.48,150.481c-0.338,1.841,3.093,1.817,2.801,2.815c-0.704,2.406,0.7,2.316,0.934,3.578c0,0-0.234,2.988,0.582,3.227
		c0.467-0.644,0.119-1.906,0.7-2.581c0.614-0.702,1.459-1.088,1.459-2.343c0-0.913-1.266-1.202-1.636-1.469
		c-0.407-0.294-1.167-0.527-1.691-0.527c0,0-1.342-2.578-0.934-3.049c0.465-0.409,1.168,0.585,1.458,0.585
		c0.612,0,0.728-1.23,1.692-1.23c0-0.295-0.06-1.202-0.234-1.294c-0.963,0-1.574,0.473-2.393-0.527
		C42.223,147.661,39.821,148.633,39.48,150.481L39.48,150.481z M47.333,147.166c-0.752-0.289-1.899-0.177-1.899-0.177
		c0.993,0.471,0.935,1.786,1.343,1.786c0.818,0,1.225-0.67,2.042-0.816C48.822,147.958,48.083,147.453,47.333,147.166
		L47.333,147.166z M51.889,152.322c0-1.688-2.253-3.78-2.253-3.78s-1.108,2.054-0.586,4.166c0.526,0.057,2.043-0.116,2.043-0.116
		c0.382,0.174,0.234,0.791,0.234,1.17c0,0.939-0.293,3.343-0.293,3.343S51.889,154.013,51.889,152.322L51.889,152.322z"/>
	<polygon fill="none" stroke="#747A7E" stroke-width="0.4758" stroke-miterlimit="3.8637" points="30.663,134.458 29.977,135.938 
		28.397,136.126 29.554,137.219 29.242,138.802 30.642,138.03 32.074,138.813 31.792,137.206 32.918,136.126 31.335,135.906 	"/>
	
		<line fill="none" stroke="#747A7E" stroke-width="1.4871" stroke-miterlimit="3.8635" x1="58.551" y1="139.164" x2="58.551" y2="179.303"/>
	
		<path fill="none" stroke="#747A7E" stroke-width="0.7403" stroke-linecap="round" stroke-linejoin="round" stroke-miterlimit="3.8637" d="
		M64.347,158.689l-1.727,1.964c-0.23,0.27-0.108,2.083,0.008,2.604c1.363,0.548,20.675,6.623,20.675,6.623l7.856-8.563l-1.229-0.528
		c-0.347-0.558,0.765-2.442,0.765-2.442l-3.802-1.5 M83.314,166.079c-0.307,0.246-0.234,3.457,0.014,3.813
		c0.016,0,7.832-8.574,7.832-8.574l-0.812-0.74c-0.068-0.772,0.14-2.163,0.14-2.163L83.314,166.079L83.314,166.079z M82.583,160.8
		c-0.323,0.146-0.514,4.353-0.078,4.381c0.001-0.006,6.452-7.33,6.452-7.33l-0.625-0.351L82.583,160.8L82.583,160.8z"/>
	
		<path fill="none" stroke="#747A7E" stroke-width="0.4756" stroke-linecap="round" stroke-linejoin="round" stroke-miterlimit="3.8637" d="
		M66.708,155.244l-2.016,2.062c-0.289,0.154-0.071,2.085,0,2.624c0.706,0.196,17.806,5.274,17.806,5.274l6.437-7.405l-2.041-0.729"
		/>
	<path fill="none" stroke="#747A7E" stroke-width="0.74" stroke-miterlimit="3.8637" d="M85.379,144.523v12.262
		c-1.674-0.4-7.964-1.206-8.605-0.208c-0.523-1.001-5.579-0.55-8.614,0.127v-11.8c-0.385,1.708-1.546,2.326-1.546,2.326v10.399
		l8.965-0.646c0.994,0.646,2.13,0.232,2.508,0.055l8.606,0.278v-11.644C86.693,145.682,85.842,145.61,85.379,144.523L85.379,144.523
		z M85.379,156.785c-1.831,0-7.291-1.467-8.576-0.176c1.167-0.026,1.198,0.731,0,0.763c-1.283-0.086-1.079-0.821,0-0.731
		c-1.108-1.44-8.628,0.296-8.628,0.296l-0.017-12.025c2.086,0,4.249-1.007,5.715-1.007c1.468,0,3.013,0.624,3.013,0.624
		s2.308-0.936,3.938-0.936c1.932,0,2.924,1.579,4.469,1.036C85.265,145.375,85.379,156.785,85.379,156.785L85.379,156.785z"/>
	
		<line fill="none" stroke="#747A7E" stroke-width="0.4758" stroke-miterlimit="3.8637" x1="76.861" y1="144.543" x2="76.787" y2="156.568"/>
	<path fill="none" stroke="#747A7E" stroke-width="0.5142" stroke-miterlimit="3.8637" d="M67.906,160.918l-0.645,0.652
		c-0.3,0.344-0.303,3.052,0.006,3.19c-0.006,0.046,1.398,0.405,0.774,0.122c-0.133-0.871-0.08-2.748,0.154-3.017l0.704-0.688
		L67.906,160.918L67.906,160.918z M70.152,161.56l-0.616,0.659c-0.298,0.337-0.42,3.122-0.111,3.258
		c-0.01,0.051,1.517,0.332,0.893,0.048c-0.136-0.873-0.081-2.747,0.154-3.017l0.652-0.653L70.152,161.56L70.152,161.56z
		 M75.609,163.175l-0.732,0.771c-0.298,0.344-0.457,2.984-0.146,3.122c-0.009,0.048,1.549,0.475,0.928,0.186
		c-0.136-0.864-0.082-2.747,0.153-3.019l0.792-0.8L75.609,163.175L75.609,163.175z M77.681,163.822l-0.732,0.774
		c-0.3,0.338-0.425,3.002-0.117,3.143c-0.008,0.048,1.521,0.451,0.897,0.166c-0.137-0.871-0.08-2.747,0.153-3.017l0.792-0.8
		L77.681,163.822L77.681,163.822z M67.905,157.562l-0.491,0.497c-0.227,0.263-0.271,2.531-0.037,2.636
		c-0.007,0.039,0.639,0.257,0.728,0.224c0.096-0.004-0.054-0.236-0.099-0.346c-0.104-0.661-0.06-2.089,0.118-2.293l0.532-0.517
		L67.905,157.562L67.905,157.562z"/>
	<path fill="none" stroke="#747A7E" stroke-width="0.74" stroke-miterlimit="3.8637" d="M76.89,144.433
		c-2.332-0.059-2.969-1.922-2.969-1.922l0.906-0.042c0,0-1.139-0.691-0.885-1.373c-0.019-0.03,0.793,0.084,0.793,0.084
		s-0.343-0.934-0.033-1.549l0.726,0.303c0.208-1.239,1.493-1.528,1.493-1.528s1.197,0.162,1.547,1.528l0.726-0.303
		c0.31,0.616-0.025,1.549-0.025,1.549s0.81-0.114,0.792-0.084c0.254,0.682-0.887,1.373-0.887,1.373l0.909,0.042
		C79.982,142.511,79.223,144.375,76.89,144.433L76.89,144.433z"/>
	
		<line fill="none" stroke="#747A7E" stroke-width="1.4871" stroke-miterlimit="3.8635" x1="22.054" y1="127.824" x2="47.229" y2="127.824"/>
	
		<line fill="none" stroke="#747A7E" stroke-width="1.4334" stroke-miterlimit="3.8637" x1="69.972" y1="127.824" x2="94.945" y2="127.824"/>
	<polygon fill="none" stroke="#FFFFFF" stroke-width="0.74" stroke-miterlimit="3.8637" points="58.586,118.523 66.614,132.643 
		50.486,132.643 	"/>
	<path fill="none" stroke="#747A7E" stroke-width="0.74" stroke-miterlimit="3.8637" d="M58.517,125.502
		c2.906,0,5.432,2.392,5.4,2.771c0.027,0.356-2.496,2.752-5.4,2.752c-2.905,0-5.437-2.396-5.41-2.752
		C53.081,127.894,55.512,125.391,58.517,125.502L58.517,125.502z M55.809,128.264c0-1.502,1.212-2.718,2.704-2.718
		c1.494,0,2.706,1.22,2.706,2.718s-1.212,2.72-2.706,2.72C57.019,130.981,55.809,129.762,55.809,128.264L55.809,128.264z"/>
	<path fill="#747A7E" stroke="#747A7E" stroke-width="0.4758" stroke-miterlimit="3.8637" d="M58.176,128.264
		c0-0.187,0.151-0.338,0.339-0.338c0.186,0,0.338,0.151,0.338,0.338c0,0.188-0.152,0.341-0.338,0.341
		C58.327,128.606,58.176,128.453,58.176,128.264L58.176,128.264z"/>
	<path fill="none" stroke="#747A7E" stroke-width="0.74" stroke-miterlimit="3.8637" d="M58.595,118.225
		c-5.306,0-9.649,4.335-9.649,9.667c0,5.331,4.299,9.653,9.605,9.653c5.307,0,9.607-4.322,9.607-9.653
		c0-4.796-3.479-8.771-8.041-9.527c-1.697,0.121-1.783-0.496-1.843-0.815c-0.156-0.87,0.975-1.379,1.781-1.379
		c1.401,0,1.283,0.819,2.123,0.997c4.465,1.516,7.677,5.765,7.677,10.759c0,6.27-5.06,11.354-11.301,11.354s-11.3-5.084-11.3-11.354
		c0-6.277,4.692-11.112,10.996-10.644C58.147,117.697,58.595,118.225,58.595,118.225L58.595,118.225z"/>
	<polygon fill="none" stroke="#747A7E" stroke-width="1.3294" stroke-miterlimit="3.8635" points="58.536,38.233 55.079,45.224 
		47.266,46.355 52.896,51.943 51.734,59.518 58.536,56.063 65.338,59.518 64.089,51.873 69.543,46.521 62.048,45.294 	"/>
	<path fill="none" stroke="#747A7E" stroke-width="0.6862" stroke-miterlimit="3.8635" d="M58.536,38.484v17.579 M47.532,46.519
		l16.556,5.354 M51.734,59.518l10.313-14.224 M65.338,59.518L55.081,45.225 M69.543,46.521l-16.646,5.423"/>
	<path fill="none" stroke="#747A7E" stroke-width="1.3294" stroke-miterlimit="3.8635" d="M52.806,52.012l-23.405,7.714
		 M87.565,40.558l-18.009,5.935 M55.059,45.208l-14.457-19.95 M78.682,78.197l-13.47-18.728 M62.06,45.272L76.446,25.17
		 M38.083,78.197l13.634-18.728 M47.459,46.499l-17.975-5.94 M87.48,59.726l-23.302-7.808 M58.536,19.328v19.607"/>
	<path fill="none" stroke="#747A7E" stroke-width="0.6862" stroke-miterlimit="3.8635" d="M52.491,54.694l-9.617,6.955
		 M74.242,38.751l-9.461,6.906 M56.279,57.269l-3.687,11.397 M64.597,31.55L60.94,42.857 M60.859,57.277l3.659,11.315
		 M52.509,31.445l3.719,11.5 M64.515,54.533l9.553,6.975 M42.7,38.604l9.534,6.959 M65.967,50.19l12.044,0.003 M39.147,50.19h11.861
		"/>
	<path fill="none" stroke="#747A7E" stroke-width="0.74" stroke-miterlimit="3.8637" d="M78.292,102.332
		c0.529,0.783,1.606,2.608,1.575,2.608c0,0-2.538,0.176-3.441-0.674c-0.199-0.303-1.725-2.765-1.725-2.765
		S77.767,101.548,78.292,102.332L78.292,102.332z M31.627,89.14l-4.49,10.333l8.988,0.025L31.627,89.14L31.627,89.14z
		 M44.988,99.513c0,2.47,2.04,4.47,4.554,4.47c2.518,0,4.556-2,4.556-4.47H44.988L44.988,99.513z M49.552,89.14l4.491,10.333
		l-8.988,0.025L49.552,89.14L49.552,89.14z M39.218,116.669l2.687-1.262 M39.131,114.942l2.686-1.263"/>
	<path fill="none" stroke="#747A7E" stroke-width="0.4758" stroke-miterlimit="3.8637" d="M40.476,88.961h-8.843v-1.054h8.757
		L40.476,88.961L40.476,88.961z M40.621,87.907h8.898v1.054h-8.842L40.621,87.907L40.621,87.907z M70.474,147.175
		c1.226-0.04,2.806-1.253,4.561-0.668 M70.463,148.515c1.222-0.035,2.814-1.195,4.569-0.603 M70.45,149.861
		c1.225-0.037,2.825-1.138,4.581-0.552 M70.443,151.204c1.222-0.037,2.832-1.084,4.587-0.493 M70.432,152.547
		c1.224-0.035,2.842-1.024,4.595-0.441 M70.419,153.892c1.224-0.041,2.852-0.968,4.607-0.381 M83.271,146.781
		c-1.225-0.04-2.858-0.858-4.612-0.271 M83.273,148.195c-1.224-0.041-2.858-0.873-4.612-0.282 M83.275,149.612
		c-1.225-0.042-2.858-0.89-4.612-0.305 M83.275,151.026c-1.225-0.041-2.858-0.906-4.61-0.315 M83.278,152.441
		c-1.225-0.042-2.858-0.918-4.611-0.336 M83.28,153.853c-1.225-0.038-2.857-0.929-4.612-0.342"/>
	<polygon fill="none" stroke="#747A7E" stroke-width="0.74" stroke-miterlimit="3.8637" points="58.586,118.523 66.614,132.643 
		50.486,132.643 	"/>
	<path fill="none" stroke="#747A7E" stroke-width="0.5142" stroke-miterlimit="3.8637" d="M69.617,157.975l-0.49,0.495
		c-0.227,0.261-0.271,2.529-0.036,2.635c0.111,0.063,0.639,0.311,0.727,0.275c0.096,0-0.069-0.287-0.099-0.4
		c-0.103-0.655-0.062-2.087,0.117-2.29l0.534-0.523L69.617,157.975L69.617,157.975z"/>
	<polygon fill="#747A7E" points="57.733,56.063 59.202,56.063 59.202,115.995 58.519,116.917 58.244,117.285 57.786,116.971 	"/>
	<path fill="none" stroke="#747A7E" stroke-width="0.5142" stroke-miterlimit="3.8637" d="M76.588,159.981l-0.493,0.499
		c-0.225,0.259-0.271,2.529-0.037,2.635c-0.006,0.037,0.64,0.256,0.728,0.225c0.095-0.004-0.054-0.24-0.098-0.348
		c-0.105-0.656-0.062-2.086,0.116-2.288l0.534-0.521L76.588,159.981L76.588,159.981z M78.301,160.393l-0.49,0.495
		c-0.228,0.265-0.271,2.537-0.035,2.636c0.111,0.062,0.639,0.311,0.727,0.276c0.096-0.001-0.069-0.29-0.098-0.397
		c-0.104-0.656-0.061-2.091,0.117-2.294l0.534-0.523L78.301,160.393L78.301,160.393z"/>
</g>
</svg>
