<?xml version="1.0" encoding="utf-8"?>
<!-- Generator: Adobe Illustrator 16.0.0, SVG Export Plug-In . SVG Version: 6.00 Build 0)  -->
<!DOCTYPE svg PUBLIC "-//W3C//DTD SVG 1.1//EN" "http://www.w3.org/Graphics/SVG/1.1/DTD/svg11.dtd">
<svg version="1.1"
	 id="svg4018" xmlns:dc="http://purl.org/dc/elements/1.1/" xmlns:cc="http://creativecommons.org/ns#" xmlns:rdf="http://www.w3.org/1999/02/22-rdf-syntax-ns#" xmlns:svg="http://www.w3.org/2000/svg" xmlns:sodipodi="http://sodipodi.sourceforge.net/DTD/sodipodi-0.dtd" xmlns:inkscape="http://www.inkscape.org/namespaces/inkscape" inkscape:export-xdpi="90" inkscape:export-filename="/home/cgonzalez/Proyectos/proyectoSuchai.github.io/images/logow.png" sodipodi:docname="logo_w.svg" inkscape:version="0.48.4 r9939" inkscape:export-ydpi="90"
	 xmlns="http://www.w3.org/2000/svg" xmlns:xlink="http://www.w3.org/1999/xlink" x="0px" y="0px" width="792px" height="266.987px"
	 viewBox="-132.859 -55.67 792 266.987" enable-background="new -132.859 -55.67 792 266.987" xml:space="preserve">
<g enable-background="new    ">
	<path fill="#808080" d="M185.578,18.507c0,6.274,2.063,9.409,6.196,9.409h44.382c10.528,0,19.487,3.715,26.886,11.142
		c7.396,7.43,11.095,16.38,11.095,26.858v2.787c0,10.478-3.689,19.432-11.069,26.857c-7.38,7.43-16.324,11.143-26.827,11.143
		h-72.602V75.187h72.602c1.727,0,3.223-0.639,4.488-1.92c1.262-1.278,1.895-2.792,1.895-4.544c0-6.195-2.128-9.293-6.383-9.293
		h-44.279c-10.372,0-19.282-3.721-26.728-11.169c-7.448-7.445-11.169-16.421-11.169-26.927v-2.792
		c0-10.503,3.721-19.479,11.169-26.927c7.445-7.445,16.355-11.169,26.728-11.169h72.801v31.514h-72.985
		c-1.602,0-3.036,0.648-4.301,1.944S185.578,16.734,185.578,18.507z"/>
	<path fill="#808080" d="M354.117-18.358c13.295,0,24.599,4.921,33.908,14.76c8.906,9.708,13.363,21.276,13.363,34.705
		c0,13.298-4.444,24.801-13.332,34.506c-9.287,9.842-20.566,14.761-33.83,14.761h-38.604v26.527h-31.514V-18.358H354.117z
		 M354.033,48.859c4.488,0,8.25-1.839,11.285-5.522c3.035-3.681,4.557-7.757,4.557-12.229c0-4.603-1.521-8.745-4.557-12.429
		c-3.035-3.68-6.797-5.522-11.285-5.522h-38.411v35.703H354.033z"/>
	<path fill="#C93636" d="M471.394-19.355h52.258v31.514h-52.258c-10.771,0-18.948,5.32-24.533,15.957h53.056v31.514h-53.056
		c5.585,10.506,13.763,15.757,24.533,15.757h52.258v31.515h-52.258c-16.888,0-31.115-6.25-42.684-18.75
		c-11.568-12.497-17.353-27.256-17.353-44.279c0-17.019,5.784-31.813,17.353-44.379C440.279-13.072,454.506-19.355,471.394-19.355z"
		/>
	<path fill="#808080" d="M567.131,73.392c1.196,1.197,2.658,1.795,4.388,1.795h60.036v31.714h-60.036
		c-10.371,0-19.281-3.721-26.727-11.17c-7.449-7.445-11.17-16.355-11.17-26.727v-88.359h31.714v88.359
		C565.336,70.733,565.934,72.195,567.131,73.392z"/>
</g>
<g>
	<path id="path108_1_" inkscape:connector-curvature="0" fill="#999999" d="M33.824,77.982l0.117,0.015l0.182,0.039L33.824,77.982"
		/>
	<path id="path110_1_" inkscape:connector-curvature="0" fill="#999999" d="M72.143,108.388l-0.287-0.041l-0.246,0.014
		L72.143,108.388"/>
	<path fill="none" d="M5.561,74.57l2.192-2.038l-1.724-2.685l-2.88-1.585L2.681,68.38c-1.728,0.506-2,0.663-1.246,3.544
		C3.315,71.74,3.315,71.74,5.561,74.57 M-8.052,64.645l0.544,0.143c-0.09-0.74-0.376-2.96-2.478-2.987
		c-1.269-0.028-2.01-0.089-3.203-0.272C-12.812,62.086-11.813,63.552-8.052,64.645 M-2.548,68.133l0.947-0.844
		c-0.353-0.145-0.768-0.581-1.622-1.726c-1.638-2.154-1.661-2.191-4.285-0.776C-6.066,67.302-6.066,67.302-2.548,68.133
		 M-33.017,47.253l-0.04,0.013L-33.017,47.253 M45.219,33.072l2.036-2.285l-5.153-0.92l0.067,0.027
		C42.182,29.916,44.803,32.006,45.219,33.072 M-9.427-0.822l0.429-0.286l0.234-0.249l0.193-0.309l-0.401,0.376l0.076-0.103
		l0.286-0.3l-0.478,0.39l0.116-0.157l-0.363,0.326l-0.442,0.504L-9.427-0.822 M87.065,4.577l-0.013-0.298
		c-1.282-0.196-2.362-0.17-3.698,0.077c-1.169,0.245-1.973,0.558-2.79,1.089c0.65,0.441,1.517,1.066,2.178,1.518
		C87.039,6.248,87.065,5.354,87.065,4.577 M16.152,32.449c-3.192,1.272-5.426,4.683-9.398,4.218
		c0.548-1.495,1.583-2.804,1.637-4.478l2.256-1.558C9.869,30.698,8.714,30.461,8,30.84c-0.024,0.014-1.648,1.425-3.18,2.907
		c-0.504,0.493-1.102,1.077-2.71,1.841c0.443-2.322,1.116-4.305,5.322-6.891c-1.053-0.647-1.871-1.647-3.103-2.022
		c2.608-2.7,3.711-2.894,7.813-1.415c0.932,3.594,1.684,5.893,4.125,7.148L16.152,32.449 M62.708,116.328
		c0.027-0.506,0.04-1.168,0.067-1.674c-0.143,0-14.793-0.547-23.606-8.992c-1.282,0.102-3.206,0.234-6.358,2.686
		c-0.791-0.545-1.843-1.258-2.621-1.805l2.143-2.258c-3.491-6.904-4.295-7.02-6.957-7.371c-5.085-0.701-5.085-0.701-6.58-5.563
		l-1.179-1.225c-3.282-3.18-7.372-4.775-11.717-6.461l-2.87,0.299c-2.528-1.518-3.595-2.18-5.849-3.607
		c-3.376,3.27-4.453,2.545-11.461-2.166c-0.023-0.584-2.009-3.985-5.8-6.268l-0.647-1.624c0.169-1.57,0.362-3.113,0.598-4.659
		c1.412-1.647,1.647-2.111,2.193-4.099c-1.741-0.144-2.844,0.531-4.893,2.958c-0.872-0.364-1.712-0.752-2.505-1.154
		c-0.31-1.206-1.234-5.501-0.609-9.94c1.518-0.74,1.518-0.74,4.568-6.437c5.527,0.195,5.527,0.195,8.81,2.44
		c0.831-0.442,1.906-1.065,2.724-1.518l0.844,2.724c1.065,0.09,1.285,0.102,2.945-0.518c-0.7,3.737,0.3,7.46,0.116,11.171
		c1.299-1.09,3.036-2.543,4.336-3.635l-1.363-2.971c0.506-1.766,0.817-2.75,2.385-5.566c-0.206,0.763-0.402,1.505-0.581,2.259
		c1.854-1.274,4.059-1.87,5.943-3.116c1.554-0.013,2.8,0.232,4.059,0.467c4.024-4.878,4.024-4.878,5.232-6.073
		c6.72-2.973,6.72-2.973,24.134-7.723c-1.635-0.349-1.635-0.349-2.947-1.879c0.638-0.688,1.468-1.585,2.116-2.286
		c-0.156-0.037-0.156-0.037-7.796,1.389c3.826-3.14,7.407-3.358,14.117-3.126c1.582,0.067,1.582,0.067,7.9-5.282
		c-1.75,0.103-2.269,0.246-4.645,1.246c0.3-1.429,0.3-1.429,0.974-2.854c-0.416-0.781-0.961-1.791-1.375-2.558
		c0.427-1.349,0.427-1.349,1.205-2.778c-1.984-0.996-3.671-0.906-5.773-0.441c-2.854-4.813-2.854-4.813-4.362-5.086
		c-0.036,0.844-0.09,1.934-0.143,2.751c-0.96-0.076-1.92-0.166-2.854-0.259c-3.647,4.191-7.992,7.67-11.666,11.836
		c-1.92-2.259-3.037-9.072-3.18-11.395c1.143-0.584,2.661-1.362,3.791-1.934l2.906-1.504C35.73,4.927,35.73,4.927,39.12,6.497
		c0.777-0.714,1.804-1.647,2.594-2.362l-0.647-1.777c-1.843,0.881-2.481,1.037-3.545,1.309c-1.023-2.049-0.322-4.241-0.597-6.372
		l-0.283-0.116C33.02,3.926,33.02,3.926,29.06,3.721c-0.077-0.25-0.179-0.599-0.259-0.871c-1.724-0.13-1.907-0.22-3.658-0.897
		c-0.807,0.365-1.87,0.843-2.661,1.209c0.103-0.246,0.26-0.572,0.363-0.804c-0.492-0.142-1.179-0.285-1.701-0.379
		c-0.063-0.595-0.167-1.389-0.245-1.982c-7.837,3.996-7.903,3.916-9.043,2.594c3.645-0.753,4.01-0.817,8.163-2.843
		c-0.625-0.166-1.233-0.335-1.831-0.532l0.687-1.765c-0.776-0.259-1.531-0.518-2.245-0.803c-2.009,0.817-2.661,0.857-4.384,0.232
		c0.531-0.791,1.245-1.854,1.776-2.633c-1.089-0.3-1.7-0.466-4.956,0.299c0.219-0.469,0.558-1.077,0.857-1.492
		C9.779-7.169,9.584-7.455,9.427-7.661C9.584-7.88,9.794-8.166,9.946-8.375C9.337-8.415,8.534-8.388,7.95-8.286
		c0.441-0.464,1-1.089,1.425-1.554C8.065-9.116,8.065-9.116,4.458-7.375c0.117-0.26,0.273-0.611,0.39-0.871
		C3.408-8.063,3.408-8.063,0.109-6.219c-0.233-0.12-0.544-0.299-0.777-0.429c-0.804,0.246-0.804,0.246-6.215,4.306
		c0.103-0.296,0.246-0.582,0.401-0.867c-0.884,0.764-0.973,0.83-2.103,1.88c0.3-0.17,0.715-0.416,1.027-0.585
		C-7.312-1.808-6.959-1.651-6.7-1.562c1.076-0.688,2.385-0.505,3.554-0.91c-0.299,0.469-0.702,1.116-1.013,1.599
		c1-0.792,1-0.792,2.492-1.416c0.651-0.063,0.741,0.08,0.831,0.232C-1.11-1.173-1.11-1.173-3.704,1.747
		c0.674,0.232,1.571,0.571,2.245,0.764c-24.24,22.101-24.24,22.101-26.549,25.5c-0.83,4.697-0.83,4.697-2.271,7.086
		c-0.857,1.842-1.429,3.254-1.96,4.697c-0.287,0.777-0.559,1.571-0.832,2.374c-0.335,1.687-0.375,3.451-0.932,5.099h0.946
		c-0.014-0.039,0.156-5.875,3.219-9.174c0.584-2.219,0.584-2.219,1.504-3.697c-2.634,10.912-2.634,10.912-2.751,12.431
		c-0.7,2.872-1.299,5.193-1.803,7.554c0.272,2.634,0.634,6.176,1.09,8.796c14.261,8.979,20.865,26.111,20.931,26.264
		C-20.64,105-12.45,109.541-7.039,112.541c0.352,1.412,0.741,2.787,1.143,4.152c2.205,2.309,9.238,8.654,15.181,10.367
		c2.116,10.859,8.292,19.191,18.351,24.746c0.558,0.621,1.126,1.205,1.725,1.75c3.568,1.115,6.826,3.115,10.497,3.996
		c0.169-0.311,0.379-0.725,0.532-1.035c-0.153-0.197-0.323-0.404-0.492-0.6l-1.88-0.932c-1.532-2.275-1.532-2.275-1.183-3.971
		l-2.479-0.549c2.18-0.568,2.737-0.623,4.908-0.58c-0.3-0.482-0.729-1.08-1.104-1.506c1.996-0.883,4.229-1.17,5.993-2.557
		c0.468,0.129,1.067,0.311,1.519,0.428l1.571-1.168c0.064-4.189,0.064-4.189-0.661-6.553c11.237-6.84,11.237-6.84,9.444-10.926
		C62.448,120.582,62.448,120.582,62.708,116.328 M53.028,6.056L53.081,5.6c-1.402,0.496-1.272-1.688-1.209-2.854
		c-1.232-0.871-1.608-1.469-1.568-2.455c-0.365-0.036-0.96-0.246-1.986-0.698c-1.206-0.521-1.661-0.548-2.063-0.416
		c-0.219-0.48-0.519-1.115-0.764-1.61c-0.571,0.389-1,0.701-2,1.469c-0.232-0.12-0.157-0.559,0.271-1.781L43.66-2.705
		c-1.804,0.625-1.804,0.625-2.857,1.492c0.08,0.053,0.08,0.053,0.924,1.742c1.544-0.754,4.475,0.285,4.696,2.009
		c-1.688,2.039-2.558,3.245-3.723,5.219c-1.21-0.04-2.349,0.389-3.518,0.544c1.259,0.116,2.581,0.219,3.92,0.296l1.57,2.959
		c2.895-5.8,4.749-4.607,6.721-2.594C51.898,8.431,52.822,7.47,53.028,6.056 M33.097-2.432l0.518-0.442
		c-1.827-0.322-2.049-0.906-2.192-1.309c-0.348-0.026-0.777,0.09-1.92,0.558c-0.442-0.389-1.013-0.897-1.438-1.286
		c-0.013-1.169-0.013-1.169-0.768-1.857l0.013,0.067c-0.09,0.87-1.026,1.322-1.089,2.205c-0.04,0.572,0.246,1.13,0.089,1.714
		c-0.103,0.336-0.245,0.608-0.401,0.934c-0.09-0.013-1.247,0.197-2.01,0.532C25.051,0.827,28.671,1.163,33.097-2.432 M27.296-6.767
		l-0.13-0.117L27.296-6.767 M39.82-0.575l0.037,0.179c0.469-1.116,0.469-2.398,0.339-4.1l-0.067,0.13
		C39.91-3.897,39.495-3.054,39.82-0.575 M36.588-6.079l0.22-0.259c-0.571,0.392-1.219,0.624-1.828,0.936
		c0.009-0.558-0.223-1.093-0.133-1.661c0.08-0.522,0.209-0.794,0.584-1.259l-0.169-0.027c-0.555-0.08-1.126,0.013-1.671-0.09
		c-0.326-0.079-0.392-0.249-0.415-0.338c-1.585,0.611-2.196,0.884-2.715,1.206l0.103,0.389c2.764,0.053,2.764,0.053,2.894,0.08
		c-0.568,0.312-1.322,0.75-1.894,1.076c0.884,0.246,1.219,1.273,2.104,1.492c0.492,0.093,0.986,0.17,1.478,0.259
		C35.641-4.883,36.092-5.481,36.588-6.079 M40.598-6.598l0.09-0.076c0.026-0.442,0.052-1.04,0.067-1.505L40.65-8.129
		c-0.91,0.442-1.481,0.741-1.481,0.741l-0.063,0.13c-0.287,0.584-0.638,1.192-1.014,1.79C38.352-5.428,39.156-5.338,40.598-6.598
		 M41.468-11.036c0.349-0.272,0.349-0.272,0.595-1.71l-0.206,0.13c-3.272,1.946-3.272,1.946-3.959,2.205
		c1.61-0.259,1.61-0.259,2.388-0.584c-0.04,0.35-0.04,0.559,0.027,0.804C40.415-10.255,40.625-10.361,41.468-11.036 M57.427-11.425
		c0.208-0.647-0.558-1.232-0.725-1.205c-0.196,0.05-0.339,0.142-0.625,0.415c-0.621-0.313-1.856-0.026-3.063,0.259
		c-1.117,0.247-1.698,0.363-2.139,0.363c0.143,0.794,0.375,1.299,1.362,2.727c-3.349,2.635-4.425,3.398-6.685,3.336
		c0.389,0.062,0.754,0.232,1.752,0.791c2.945-0.946,3.271-1.053,4.036-1.947c0.441,0.041,0.754,0.193,1.326,0.661
		c0.452-0.607,1.063-1.428,1.518-2.036C55.845-8.155,56.635-8.973,57.427-11.425 M74.014-12.528l0.022-0.156
		c-1.647,1.416-1.791,1.545-2.608,1.013c-0.401-0.402-0.816-0.804-1.219-1.192c0.598-0.12,1.179-0.235,1.75-0.352l-1.97-1.013
		l-0.12,0.026l-0.544,0.156l-0.166,0.066c-0.456,0.152-0.688,0.635-1.156,0.791c-0.376,0.143-0.791-0.259-1.17,0.05
		c-0.429,0.353-0.402,0.963-0.322,1.74c-0.688-0.089-1.156-0.767-1.897-0.701c-0.933,0.077-1.711,0.014-1.711,0.014
		c-0.234-0.08-0.91-0.298-2.335-0.973c-0.066,0.647-0.169,1.518-0.249,2.166c-0.31-0.049-0.533-0.103-1.349-0.816
		c-1.103,1.857-2.063,3.089-3.956,5.076c0.79,0.049,2.438,0.622,2.451,0.622c1.142,0.932,2.089,2.701,3.05,3.813
		c0.103,0.741,0.04,1.353-0.233,2.518c0.442,0.522,1.01,1.232,1.452,1.778c-0.584,1.389-1.153,2.647-1.701,3.727l-0.272,0.545
		c-0.14,1.608,1,2.867,1.196,4.372c1.402,0.349,2.125,2,3.724,1.934c1.246-0.054,1.206-1.026,1.062-2.116
		c1.935-0.376,8.761-4.269,13.226-10.096c-0.714,0.04-2.805-1.036-2.831-1.581c0.364-0.416,0.7-0.508,3.165-0.416
		c-0.724-1.04-1.451-2.039-2.205-3.012c0.429-0.037,0.883,0.053,1.946,0.405c-0.193-0.535-0.416-1.236-0.584-1.754
		C75.126-8.867,74.014-12.501,74.014-12.528"/>
	<g id="g162_1_">
		<g id="g166_1_">
			<path id="path168_1_" inkscape:connector-curvature="0" fill="#999999" d="M5.561,74.57l2.192-2.038l-1.724-2.685l-2.88-1.586
				L2.681,68.38c-1.728,0.506-2,0.663-1.246,3.544C3.315,71.74,3.315,71.74,5.561,74.57 M-8.052,64.644l0.544,0.144
				c-0.09-0.74-0.376-2.961-2.478-2.987c-1.269-0.028-2.01-0.09-3.203-0.272C-12.812,62.086-11.813,63.552-8.052,64.644
				 M-2.548,68.133l0.947-0.841c-0.353-0.144-0.768-0.584-1.622-1.729c-1.638-2.151-1.661-2.193-4.285-0.776
				C-6.066,67.3-6.066,67.3-2.548,68.133 M-33.017,47.253l-0.04,0.013L-33.017,47.253 M45.219,33.072l2.036-2.285l-5.153-0.921
				l0.067,0.028C42.182,29.92,44.803,32.006,45.219,33.072 M-9.427-0.822l0.429-0.286l0.234-0.249l0.193-0.309L-8.972-1.29
				l0.076-0.103l0.286-0.299l-0.478,0.389l0.116-0.156l-0.363,0.326l-0.442,0.504L-9.427-0.822 M87.065,4.577l-0.013-0.299
				c-1.282-0.195-2.362-0.169-3.698,0.077c-1.169,0.246-1.973,0.558-2.79,1.09c0.65,0.441,1.517,1.066,2.178,1.518
				C87.039,6.248,87.065,5.354,87.065,4.577 M16.152,32.448c-3.192,1.273-5.426,4.684-9.398,4.218
				c0.548-1.492,1.583-2.803,1.637-4.478l2.256-1.558C9.869,30.697,8.714,30.465,8,30.84c-0.024,0.013-1.648,1.429-3.18,2.907
				c-0.504,0.492-1.102,1.076-2.71,1.843c0.443-2.325,1.116-4.308,5.322-6.893c-1.053-0.647-1.871-1.647-3.103-2.022
				c2.608-2.7,3.711-2.894,7.813-1.415c0.932,3.593,1.684,5.892,4.125,7.151L16.152,32.448 M62.708,116.328
				c0.027-0.506,0.04-1.168,0.067-1.676c-0.143,0-14.793-0.545-23.606-8.992c-1.282,0.107-3.206,0.236-6.358,2.688
				c-0.791-0.547-1.843-1.258-2.621-1.805l2.143-2.26c-3.491-6.902-4.295-7.02-6.957-7.369c-5.085-0.697-5.085-0.697-6.58-5.563
				l-1.179-1.225c-3.282-3.18-7.372-4.775-11.717-6.461l-2.87,0.299c-2.528-1.518-3.595-2.182-5.849-3.607
				c-3.376,3.268-4.453,2.545-11.461-2.166c-0.023-0.584-2.009-3.983-5.8-6.268l-0.647-1.624c0.169-1.57,0.362-3.113,0.598-4.659
				c1.412-1.647,1.647-2.113,2.193-4.099c-1.741-0.144-2.844,0.531-4.893,2.958c-0.872-0.364-1.712-0.753-2.505-1.154
				c-0.31-1.207-1.234-5.503-0.609-9.94c1.518-0.741,1.518-0.741,4.568-6.438c5.527,0.197,5.527,0.197,8.81,2.442
				c0.831-0.442,1.906-1.065,2.724-1.52l0.844,2.726c1.065,0.089,1.285,0.102,2.945-0.518c-0.7,3.737,0.3,7.46,0.116,11.171
				c1.299-1.091,3.036-2.543,4.336-3.635l-1.363-2.971c0.506-1.766,0.817-2.75,2.385-5.566c-0.206,0.763-0.402,1.503-0.581,2.258
				c1.854-1.273,4.059-1.87,5.943-3.115c1.554-0.013,2.8,0.232,4.059,0.467c4.024-4.878,4.024-4.878,5.232-6.073
				c6.72-2.973,6.72-2.973,24.134-7.723c-1.635-0.349-1.635-0.349-2.947-1.88c0.638-0.688,1.468-1.584,2.116-2.281
				c-0.156-0.041-0.156-0.041-7.796,1.384c3.826-3.139,7.407-3.357,14.117-3.125c1.582,0.066,1.582,0.066,7.9-5.282
				c-1.75,0.103-2.269,0.246-4.645,1.245c0.3-1.425,0.3-1.425,0.974-2.853c-0.416-0.781-0.961-1.791-1.375-2.558
				c0.427-1.349,0.427-1.349,1.205-2.778c-1.984-0.996-3.671-0.907-5.773-0.438c-2.854-4.816-2.854-4.816-4.362-5.089
				c-0.036,0.844-0.09,1.934-0.143,2.75c-0.96-0.075-1.92-0.166-2.854-0.258c-3.647,4.191-7.992,7.67-11.666,11.836
				c-1.92-2.26-3.037-9.073-3.18-11.395c1.143-0.584,2.661-1.363,3.791-1.934l2.906-1.505C35.73,4.926,35.73,4.926,39.12,6.497
				c0.777-0.714,1.804-1.648,2.594-2.362l-0.647-1.777c-1.843,0.88-2.481,1.037-3.545,1.309c-1.023-2.05-0.322-4.242-0.597-6.372
				l-0.283-0.116C33.02,3.926,33.02,3.926,29.06,3.72c-0.077-0.246-0.179-0.598-0.259-0.87c-1.724-0.13-1.907-0.22-3.658-0.894
				c-0.807,0.362-1.87,0.84-2.661,1.206c0.103-0.246,0.26-0.572,0.363-0.804c-0.492-0.143-1.179-0.286-1.701-0.379
				c-0.063-0.595-0.167-1.389-0.245-1.983c-7.837,3.997-7.903,3.917-9.043,2.595c3.645-0.754,4.01-0.817,8.163-2.844
				c-0.625-0.165-1.233-0.335-1.831-0.531l0.687-1.765c-0.776-0.259-1.531-0.518-2.245-0.803c-2.009,0.816-2.661,0.857-4.384,0.232
				c0.531-0.791,1.245-1.854,1.776-2.634c-1.089-0.299-1.7-0.465-4.956,0.3c0.219-0.469,0.558-1.077,0.857-1.492
				C9.779-7.169,9.584-7.451,9.427-7.661C9.584-7.88,9.794-8.166,9.946-8.375C9.337-8.415,8.534-8.388,7.95-8.283
				c0.441-0.467,1-1.093,1.425-1.558C8.065-9.113,8.065-9.113,4.458-7.375c0.117-0.26,0.273-0.611,0.39-0.871
				C3.408-8.063,3.408-8.063,0.109-6.219c-0.233-0.12-0.544-0.299-0.777-0.429c-0.804,0.246-0.804,0.246-6.215,4.309
				c0.103-0.299,0.246-0.584,0.401-0.87c-0.884,0.763-0.973,0.83-2.103,1.879c0.3-0.169,0.715-0.415,1.027-0.584
				C-7.312-1.808-6.959-1.652-6.7-1.562c1.076-0.688,2.385-0.505,3.554-0.907c-0.299,0.466-0.702,1.113-1.013,1.596
				c1-0.792,1-0.792,2.492-1.416c0.651-0.063,0.741,0.08,0.831,0.232C-1.11-1.173-1.11-1.173-3.704,1.747
				c0.674,0.232,1.571,0.571,2.245,0.767c-24.24,22.098-24.24,22.098-26.549,25.497c-0.83,4.697-0.83,4.697-2.271,7.085
				c-0.857,1.843-1.429,3.259-1.96,4.697c-0.287,0.781-0.559,1.572-0.832,2.375c-0.335,1.687-0.375,3.451-0.932,5.099h0.946
				c-0.014-0.039,0.156-5.875,3.219-9.174c0.584-2.219,0.584-2.219,1.504-3.697c-2.634,10.912-2.634,10.912-2.751,12.43
				c-0.7,2.871-1.299,5.194-1.803,7.555c0.272,2.634,0.634,6.174,1.09,8.796c14.261,8.979,20.865,26.111,20.931,26.264
				C-20.64,105-12.45,109.541-7.039,112.541c0.352,1.412,0.741,2.787,1.143,4.152c2.205,2.309,9.238,8.654,15.181,10.367
				c2.116,10.859,8.292,19.191,18.351,24.746c0.558,0.621,1.126,1.205,1.725,1.75c3.568,1.115,6.826,3.115,10.497,3.996
				c0.169-0.311,0.379-0.725,0.532-1.035c-0.153-0.197-0.323-0.404-0.492-0.6l-1.88-0.932c-1.532-2.275-1.532-2.275-1.183-3.973
				l-2.479-0.543c2.18-0.572,2.737-0.627,4.908-0.586c-0.3-0.48-0.729-1.076-1.104-1.504c1.996-0.885,4.229-1.17,5.993-2.557
				c0.468,0.127,1.067,0.311,1.519,0.428l1.571-1.168c0.064-4.191,0.064-4.191-0.661-6.553c11.237-6.84,11.237-6.84,9.444-10.926
				C62.448,120.582,62.448,120.582,62.708,116.328 M53.028,6.056L53.081,5.6c-1.402,0.496-1.272-1.688-1.209-2.854
				c-1.232-0.871-1.608-1.469-1.568-2.451c-0.365-0.04-0.96-0.25-1.986-0.702c-1.206-0.521-1.661-0.544-2.063-0.416
				c-0.219-0.48-0.519-1.115-0.764-1.61c-0.571,0.389-1,0.701-2,1.469c-0.232-0.12-0.157-0.559,0.271-1.781L43.66-2.705
				c-1.804,0.625-1.804,0.625-2.857,1.492c0.08,0.053,0.08,0.053,0.924,1.742c1.544-0.754,4.475,0.285,4.696,2.009
				c-1.688,2.039-2.558,3.245-3.723,5.219c-1.21-0.04-2.349,0.389-3.518,0.544c1.259,0.116,2.581,0.219,3.92,0.3l1.57,2.956
				c2.895-5.8,4.749-4.607,6.721-2.594C51.898,8.43,52.822,7.47,53.028,6.056 M33.097-2.432l0.518-0.442
				c-1.827-0.321-2.049-0.907-2.192-1.308c-0.348-0.027-0.777,0.089-1.92,0.558c-0.442-0.389-1.013-0.898-1.438-1.286
				c-0.013-1.166-0.013-1.166-0.768-1.854l0.013,0.063c-0.09,0.87-1.026,1.322-1.089,2.205c-0.04,0.572,0.246,1.13,0.089,1.714
				c-0.103,0.335-0.245,0.608-0.401,0.934c-0.09-0.013-1.247,0.197-2.01,0.532C25.051,0.826,28.671,1.163,33.097-2.432
				 M27.296-6.764l-0.13-0.12L27.296-6.764 M39.82-0.576l0.037,0.18c0.469-1.112,0.469-2.398,0.339-4.1l-0.067,0.13
				C39.91-3.897,39.495-3.054,39.82-0.576 M36.588-6.076l0.22-0.263c-0.571,0.392-1.219,0.625-1.828,0.937
				c0.009-0.558-0.223-1.089-0.133-1.662c0.08-0.521,0.209-0.793,0.584-1.258l-0.169-0.027c-0.555-0.077-1.126,0.013-1.671-0.09
				c-0.326-0.08-0.392-0.249-0.415-0.338c-1.585,0.611-2.196,0.884-2.715,1.206l0.103,0.392c2.764,0.049,2.764,0.049,2.894,0.076
				c-0.568,0.312-1.322,0.753-1.894,1.076c0.884,0.245,1.219,1.272,2.104,1.492c0.492,0.093,0.986,0.169,1.478,0.262
				C35.641-4.884,36.092-5.481,36.588-6.076 M40.598-6.598l0.09-0.076c0.026-0.442,0.052-1.04,0.067-1.506l-0.104,0.05
				c-0.91,0.442-1.481,0.741-1.481,0.741l-0.063,0.13c-0.287,0.584-0.638,1.192-1.014,1.79C38.352-5.428,39.156-5.339,40.598-6.598
				 M41.468-11.036c0.349-0.272,0.349-0.272,0.595-1.71l-0.206,0.13c-3.272,1.946-3.272,1.946-3.959,2.205
				c1.61-0.259,1.61-0.259,2.388-0.584c-0.04,0.353-0.04,0.559,0.027,0.804C40.415-10.256,40.625-10.361,41.468-11.036
				 M57.427-11.425c0.208-0.647-0.558-1.232-0.725-1.205c-0.196,0.052-0.339,0.142-0.625,0.415
				c-0.621-0.313-1.856-0.026-3.063,0.259c-1.117,0.247-1.698,0.362-2.139,0.362c0.143,0.795,0.375,1.299,1.362,2.728
				c-3.349,2.635-4.425,3.398-6.685,3.336c0.389,0.062,0.754,0.232,1.752,0.791c2.945-0.947,3.271-1.05,4.036-1.947
				c0.441,0.04,0.754,0.196,1.326,0.661c0.452-0.608,1.063-1.425,1.518-2.036C55.845-8.153,56.635-8.973,57.427-11.425
				 M74.014-12.528l0.022-0.156c-1.647,1.415-1.791,1.544-2.608,1.013c-0.401-0.402-0.816-0.804-1.219-1.192
				c0.598-0.12,1.179-0.235,1.75-0.352l-1.97-1.014l-0.12,0.027l-0.544,0.156l-0.166,0.066c-0.456,0.157-0.688,0.634-1.156,0.791
				c-0.376,0.143-0.791-0.26-1.17,0.053c-0.429,0.349-0.402,0.96-0.322,1.737c-0.688-0.089-1.156-0.764-1.897-0.701
				c-0.933,0.077-1.711,0.014-1.711,0.014c-0.234-0.077-0.91-0.299-2.335-0.973c-0.066,0.647-0.169,1.518-0.249,2.166
				c-0.31-0.05-0.533-0.103-1.349-0.816c-1.103,1.856-2.063,3.089-3.956,5.075c0.79,0.05,2.438,0.622,2.451,0.622
				c1.142,0.933,2.089,2.702,3.05,3.816c0.103,0.739,0.04,1.349-0.233,2.515c0.442,0.522,1.01,1.232,1.452,1.777
				c-0.584,1.39-1.153,2.647-1.701,3.728l-0.272,0.545c-0.14,1.608,1,2.867,1.196,4.372c1.402,0.352,2.125,2,3.724,1.933
				c1.246-0.053,1.206-1.022,1.062-2.116c1.935-0.375,8.761-4.269,13.226-10.095c-0.714,0.04-2.805-1.036-2.831-1.581
				c0.364-0.416,0.7-0.509,3.165-0.416c-0.724-1.04-1.451-2.039-2.205-3.012c0.429-0.037,0.883,0.052,1.946,0.404
				c-0.193-0.535-0.416-1.236-0.584-1.754C75.126-8.867,74.014-12.501,74.014-12.528"/>
			<path id="path170_1_" inkscape:connector-curvature="0" fill="#999999" d="M5.561,74.57l2.192-2.038l-1.724-2.685l-2.88-1.586
				L2.681,68.38c-1.728,0.506-2,0.663-1.246,3.544C3.315,71.74,3.315,71.74,5.561,74.57 M-8.052,64.644l0.544,0.144
				c-0.09-0.74-0.376-2.961-2.478-2.987c-1.269-0.028-2.01-0.09-3.203-0.272C-12.812,62.086-11.813,63.552-8.052,64.644
				 M-2.548,68.133l0.947-0.841c-0.353-0.144-0.768-0.584-1.622-1.729c-1.638-2.151-1.661-2.193-4.285-0.776
				C-6.066,67.3-6.066,67.3-2.548,68.133 M-33.017,47.253l-0.04,0.013L-33.017,47.253 M45.219,33.072l2.036-2.285l-5.153-0.921
				l0.067,0.028C42.182,29.92,44.803,32.006,45.219,33.072 M-9.427-0.822l0.429-0.286l0.234-0.249l0.193-0.309L-8.972-1.29
				l0.076-0.103l0.286-0.299l-0.478,0.389l0.116-0.156l-0.363,0.326l-0.442,0.504L-9.427-0.822 M87.065,4.577l-0.013-0.299
				c-1.282-0.195-2.362-0.169-3.698,0.077c-1.169,0.246-1.973,0.558-2.79,1.09c0.65,0.441,1.517,1.066,2.178,1.518
				C87.039,6.248,87.065,5.354,87.065,4.577 M16.152,32.448c-3.192,1.273-5.426,4.684-9.398,4.218
				c0.548-1.492,1.583-2.803,1.637-4.478l2.256-1.558C9.869,30.697,8.714,30.465,8,30.84c-0.024,0.013-1.648,1.429-3.18,2.907
				c-0.504,0.492-1.102,1.076-2.71,1.843c0.443-2.325,1.116-4.308,5.322-6.893c-1.053-0.647-1.871-1.647-3.103-2.022
				c2.608-2.7,3.711-2.894,7.813-1.415c0.932,3.593,1.684,5.892,4.125,7.151L16.152,32.448 M62.708,116.328
				c0.027-0.506,0.04-1.168,0.067-1.676c-0.143,0-14.793-0.545-23.606-8.992c-1.282,0.107-3.206,0.236-6.358,2.688
				c-0.791-0.547-1.843-1.258-2.621-1.805l2.143-2.26c-3.491-6.902-4.295-7.02-6.957-7.369c-5.085-0.697-5.085-0.697-6.58-5.563
				l-1.179-1.225c-3.282-3.18-7.372-4.775-11.717-6.461l-2.87,0.299c-2.528-1.518-3.595-2.182-5.849-3.607
				c-3.376,3.268-4.453,2.545-11.461-2.166c-0.023-0.584-2.009-3.983-5.8-6.268l-0.647-1.624c0.169-1.57,0.362-3.113,0.598-4.659
				c1.412-1.647,1.647-2.113,2.193-4.099c-1.741-0.144-2.844,0.531-4.893,2.958c-0.872-0.364-1.712-0.753-2.505-1.154
				c-0.31-1.207-1.234-5.503-0.609-9.94c1.518-0.741,1.518-0.741,4.568-6.438c5.527,0.197,5.527,0.197,8.81,2.442
				c0.831-0.442,1.906-1.065,2.724-1.52l0.844,2.726c1.065,0.089,1.285,0.102,2.945-0.518c-0.7,3.737,0.3,7.46,0.116,11.171
				c1.299-1.091,3.036-2.543,4.336-3.635l-1.363-2.971c0.506-1.766,0.817-2.75,2.385-5.566c-0.206,0.763-0.402,1.503-0.581,2.258
				c1.854-1.273,4.059-1.87,5.943-3.115c1.554-0.013,2.8,0.232,4.059,0.467c4.024-4.878,4.024-4.878,5.232-6.073
				c6.72-2.973,6.72-2.973,24.134-7.723c-1.635-0.349-1.635-0.349-2.947-1.88c0.638-0.688,1.468-1.584,2.116-2.281
				c-0.156-0.041-0.156-0.041-7.796,1.384c3.826-3.139,7.407-3.357,14.117-3.125c1.582,0.066,1.582,0.066,7.9-5.282
				c-1.75,0.103-2.269,0.246-4.645,1.245c0.3-1.425,0.3-1.425,0.974-2.853c-0.416-0.781-0.961-1.791-1.375-2.558
				c0.427-1.349,0.427-1.349,1.205-2.778c-1.984-0.996-3.671-0.907-5.773-0.438c-2.854-4.816-2.854-4.816-4.362-5.089
				c-0.036,0.844-0.09,1.934-0.143,2.75c-0.96-0.075-1.92-0.166-2.854-0.258c-3.647,4.191-7.992,7.67-11.666,11.836
				c-1.92-2.26-3.037-9.073-3.18-11.395c1.143-0.584,2.661-1.363,3.791-1.934l2.906-1.505C35.73,4.926,35.73,4.926,39.12,6.497
				c0.777-0.714,1.804-1.648,2.594-2.362l-0.647-1.777c-1.843,0.88-2.481,1.037-3.545,1.309c-1.023-2.05-0.322-4.242-0.597-6.372
				l-0.283-0.116C33.02,3.926,33.02,3.926,29.06,3.72c-0.077-0.246-0.179-0.598-0.259-0.87c-1.724-0.13-1.907-0.22-3.658-0.894
				c-0.807,0.362-1.87,0.84-2.661,1.206c0.103-0.246,0.26-0.572,0.363-0.804c-0.492-0.143-1.179-0.286-1.701-0.379
				c-0.063-0.595-0.167-1.389-0.245-1.983c-7.837,3.997-7.903,3.917-9.043,2.595c3.645-0.754,4.01-0.817,8.163-2.844
				c-0.625-0.165-1.233-0.335-1.831-0.531l0.687-1.765c-0.776-0.259-1.531-0.518-2.245-0.803c-2.009,0.816-2.661,0.857-4.384,0.232
				c0.531-0.791,1.245-1.854,1.776-2.634c-1.089-0.299-1.7-0.465-4.956,0.3c0.219-0.469,0.558-1.077,0.857-1.492
				C9.779-7.169,9.584-7.451,9.427-7.661C9.584-7.88,9.794-8.166,9.946-8.375C9.337-8.415,8.534-8.388,7.95-8.283
				c0.441-0.467,1-1.093,1.425-1.558C8.065-9.113,8.065-9.113,4.458-7.375c0.117-0.26,0.273-0.611,0.39-0.871
				C3.408-8.063,3.408-8.063,0.109-6.219c-0.233-0.12-0.544-0.299-0.777-0.429c-0.804,0.246-0.804,0.246-6.215,4.309
				c0.103-0.299,0.246-0.584,0.401-0.87c-0.884,0.763-0.973,0.83-2.103,1.879c0.3-0.169,0.715-0.415,1.027-0.584
				C-7.312-1.808-6.959-1.652-6.7-1.562c1.076-0.688,2.385-0.505,3.554-0.907c-0.299,0.466-0.702,1.113-1.013,1.596
				c1-0.792,1-0.792,2.492-1.416c0.651-0.063,0.741,0.08,0.831,0.232C-1.11-1.173-1.11-1.173-3.704,1.747
				c0.674,0.232,1.571,0.571,2.245,0.767c-24.24,22.098-24.24,22.098-26.549,25.497c-0.83,4.697-0.83,4.697-2.271,7.085
				c-0.857,1.843-1.429,3.259-1.96,4.697c-0.287,0.781-0.559,1.572-0.832,2.375c-0.335,1.687-0.375,3.451-0.932,5.099h0.946
				c-0.014-0.039,0.156-5.875,3.219-9.174c0.584-2.219,0.584-2.219,1.504-3.697c-2.634,10.912-2.634,10.912-2.751,12.43
				c-0.7,2.871-1.299,5.194-1.803,7.555c0.272,2.634,0.634,6.174,1.09,8.796c14.261,8.979,20.865,26.111,20.931,26.264
				C-20.64,105-12.45,109.541-7.039,112.541c0.352,1.412,0.741,2.787,1.143,4.152c2.205,2.309,9.238,8.654,15.181,10.367
				c2.116,10.859,8.292,19.191,18.351,24.746c0.558,0.621,1.126,1.205,1.725,1.75c3.568,1.115,6.826,3.115,10.497,3.996
				c0.169-0.311,0.379-0.725,0.532-1.035c-0.153-0.197-0.323-0.404-0.492-0.6l-1.88-0.932c-1.532-2.275-1.532-2.275-1.183-3.973
				l-2.479-0.543c2.18-0.572,2.737-0.627,4.908-0.586c-0.3-0.48-0.729-1.076-1.104-1.504c1.996-0.885,4.229-1.17,5.993-2.557
				c0.468,0.127,1.067,0.311,1.519,0.428l1.571-1.168c0.064-4.191,0.064-4.191-0.661-6.553c11.237-6.84,11.237-6.84,9.444-10.926
				C62.448,120.582,62.448,120.582,62.708,116.328 M53.028,6.056L53.081,5.6c-1.402,0.496-1.272-1.688-1.209-2.854
				c-1.232-0.871-1.608-1.469-1.568-2.451c-0.365-0.04-0.96-0.25-1.986-0.702c-1.206-0.521-1.661-0.544-2.063-0.416
				c-0.219-0.48-0.519-1.115-0.764-1.61c-0.571,0.389-1,0.701-2,1.469c-0.232-0.12-0.157-0.559,0.271-1.781L43.66-2.705
				c-1.804,0.625-1.804,0.625-2.857,1.492c0.08,0.053,0.08,0.053,0.924,1.742c1.544-0.754,4.475,0.285,4.696,2.009
				c-1.688,2.039-2.558,3.245-3.723,5.219c-1.21-0.04-2.349,0.389-3.518,0.544c1.259,0.116,2.581,0.219,3.92,0.3l1.57,2.956
				c2.895-5.8,4.749-4.607,6.721-2.594C51.898,8.43,52.822,7.47,53.028,6.056 M33.097-2.432l0.518-0.442
				c-1.827-0.321-2.049-0.907-2.192-1.308c-0.348-0.027-0.777,0.089-1.92,0.558c-0.442-0.389-1.013-0.898-1.438-1.286
				c-0.013-1.166-0.013-1.166-0.768-1.854l0.013,0.063c-0.09,0.87-1.026,1.322-1.089,2.205c-0.04,0.572,0.246,1.13,0.089,1.714
				c-0.103,0.335-0.245,0.608-0.401,0.934c-0.09-0.013-1.247,0.197-2.01,0.532C25.051,0.826,28.671,1.163,33.097-2.432
				 M27.296-6.764l-0.13-0.12L27.296-6.764 M39.82-0.576l0.037,0.18c0.469-1.112,0.469-2.398,0.339-4.1l-0.067,0.13
				C39.91-3.897,39.495-3.054,39.82-0.576 M36.588-6.076l0.22-0.263c-0.571,0.392-1.219,0.625-1.828,0.937
				c0.009-0.558-0.223-1.089-0.133-1.662c0.08-0.521,0.209-0.793,0.584-1.258l-0.169-0.027c-0.555-0.077-1.126,0.013-1.671-0.09
				c-0.326-0.08-0.392-0.249-0.415-0.338c-1.585,0.611-2.196,0.884-2.715,1.206l0.103,0.392c2.764,0.049,2.764,0.049,2.894,0.076
				c-0.568,0.312-1.322,0.753-1.894,1.076c0.884,0.245,1.219,1.272,2.104,1.492c0.492,0.093,0.986,0.169,1.478,0.262
				C35.641-4.884,36.092-5.481,36.588-6.076 M40.598-6.598l0.09-0.076c0.026-0.442,0.052-1.04,0.067-1.506l-0.104,0.05
				c-0.91,0.442-1.481,0.741-1.481,0.741l-0.063,0.13c-0.287,0.584-0.638,1.192-1.014,1.79C38.352-5.428,39.156-5.339,40.598-6.598
				 M41.468-11.036c0.349-0.272,0.349-0.272,0.595-1.71l-0.206,0.13c-3.272,1.946-3.272,1.946-3.959,2.205
				c1.61-0.259,1.61-0.259,2.388-0.584c-0.04,0.353-0.04,0.559,0.027,0.804C40.415-10.256,40.625-10.361,41.468-11.036
				 M57.427-11.425c0.208-0.647-0.558-1.232-0.725-1.205c-0.196,0.052-0.339,0.142-0.625,0.415
				c-0.621-0.313-1.856-0.026-3.063,0.259c-1.117,0.247-1.698,0.362-2.139,0.362c0.143,0.795,0.375,1.299,1.362,2.728
				c-3.349,2.635-4.425,3.398-6.685,3.336c0.389,0.062,0.754,0.232,1.752,0.791c2.945-0.947,3.271-1.05,4.036-1.947
				c0.441,0.04,0.754,0.196,1.326,0.661c0.452-0.608,1.063-1.425,1.518-2.036C55.845-8.153,56.635-8.973,57.427-11.425
				 M74.014-12.528l0.022-0.156c-1.647,1.415-1.791,1.544-2.608,1.013c-0.401-0.402-0.816-0.804-1.219-1.192
				c0.598-0.12,1.179-0.235,1.75-0.352l-1.97-1.014l-0.12,0.027l-0.544,0.156l-0.166,0.066c-0.456,0.157-0.688,0.634-1.156,0.791
				c-0.376,0.143-0.791-0.26-1.17,0.053c-0.429,0.349-0.402,0.96-0.322,1.737c-0.688-0.089-1.156-0.764-1.897-0.701
				c-0.933,0.077-1.711,0.014-1.711,0.014c-0.234-0.077-0.91-0.299-2.335-0.973c-0.066,0.647-0.169,1.518-0.249,2.166
				c-0.31-0.05-0.533-0.103-1.349-0.816c-1.103,1.856-2.063,3.089-3.956,5.075c0.79,0.05,2.438,0.622,2.451,0.622
				c1.142,0.933,2.089,2.702,3.05,3.816c0.103,0.739,0.04,1.349-0.233,2.515c0.442,0.522,1.01,1.232,1.452,1.777
				c-0.584,1.39-1.153,2.647-1.701,3.728l-0.272,0.545c-0.14,1.608,1,2.867,1.196,4.372c1.402,0.352,2.125,2,3.724,1.933
				c1.246-0.053,1.206-1.022,1.062-2.116c1.935-0.375,8.761-4.269,13.226-10.095c-0.714,0.04-2.805-1.036-2.831-1.581
				c0.364-0.416,0.7-0.509,3.165-0.416c-0.724-1.04-1.451-2.039-2.205-3.012c0.429-0.037,0.883,0.052,1.946,0.404
				c-0.193-0.535-0.416-1.236-0.584-1.754C75.126-8.867,74.014-12.501,74.014-12.528"/>
		</g>
	</g>
	<path fill="none" d="M96.825,21.174l-1.777-3.595l-0.093,0.023c-0.831,0.339-1.452,1.625-1.894,2.559l0.13,0.246l0.129,0.223
		l0.286,0.491l0.26,0.469l0.143,0.233l0.258,0.468l0.144,0.232l0.116,0.259l0.143,0.233l0.13,0.237l0.129,0.246l0.13,0.232
		l0.143,0.246C95.294,22.277,95.758,21.509,96.825,21.174 M102.352,4.551l-0.093-0.143l0.04,0.116
		c0.116,0.571,0.103,1.156,0.233,1.738l0.195,0.169c1.375,1.375,1.598,1.92,1.675,2.077C104.335,8.338,103.688,6.626,102.352,4.551
		 M133.598,23.585l-0.04-0.05l0.117,0.247c-1.22-1.947-2.501-3.841-3.868-5.697c-0.401-0.468-1.361-1.558-1.621-1.544l0.014,0.103
		c-1.518-1.908-1.518-1.908-3.84-5.488c1.272,1.451,1.701,2.037,1.959,2.438l-0.08-0.13c0.143,0.093,0.156,0.093,1.156,1.362
		l1.076,1.272C130.044,18.331,132.157,21.303,133.598,23.585 M104.299,21.809l-2.429,1.361c0.469-1.295,1.572-2.192,2.335-3.295
		L104.299,21.809 M97.549-10.438c-4.76-2.595-9.846-4.684-15.208-6.203h0.013c7.997,3.077,7.997,3.077,8.929,3.671l0.595-0.17
		c1.688,0.767,2.754,1.286,5.246,2.714c-2.208-0.767-4.388-1.647-6.644-2.322c2.582,1.076,2.582,1.076,3.541,1.737
		c-0.259,0.09-0.611,0.21-0.884,0.285c0.742,0.313,1.702,0.728,2.442,1.028c1.582,1.517,2.855,3.281,4.425,4.812
		c1.129,1.144,2.634,2.675,3.67,3.894c-1.478-0.507-3.451-1.219-4.943-1.714l-0.79-0.673c0.817,0.067,1.919,0.156,2.738,0.219
		l-1.845-1.568l-2.219-0.857c-1.388,0.831-1.568,0.777-5.876-0.688c-0.544,0.468-1.195,0.919-1.959,1.375
		c3.84,4.282,4.255,4.738,6.228,8.239c-0.544,2.428-0.544,2.428,4.216,6.125c0.236-0.156,0.535-0.362,0.78-0.531
		c-0.401-1.312-0.401-1.312-1.857-3.139l0.259,0.192l0.455,0.429l0.456,0.415l0.428,0.429l0.429,0.416l0.416,0.416l0.402,0.416
		l0.416,0.415h0.843c0.832-2.219,0.832-2.219-4.634-9.069l1.559,0.103l2.671,3.568c0.625,0.09,1.495,0.09,2.089-0.053
		c0.754-0.519,0.936-0.675,1.09-0.817c4.737,8.759,4.737,8.759,4.776,10.823c-1.116-0.322-1.116-0.322-2.531-1
		c-0.143,0.508-0.349,1.197-0.519,1.688c-1.075-0.362-1.322-0.452-3.97-3.255c-0.129,0.831-0.129,0.831,2.376,3.737
		c-0.197,0.466-0.651,1.037-1.054,1.349c0,0.884,0.027,2.049,0.027,2.933c-3.283-1.143-3.283-1.143-5.099-2.143
		c-0.456-0.348-0.559-0.492-0.674-0.647l-0.326-0.441l-0.326-0.466l-0.335-0.44l-0.339-0.416l-0.335-0.456l-0.339-0.441
		l-0.335-0.429c-0.482,0.286-1.08,0.754-1.469,1.143c0.17,0.674,0.455,1.831,4.647,4.425c0.037,1.026,0.09,2.375,0.117,3.401
		c0.402,0.376,0.934,0.881,1.322,1.282l-0.17,0.625c1.455,0.169,1.455,0.169,5.71,6.407c-0.648,0.353-1.299,0.714-8.188,1.104
		c1.219,2.468,2.714,4.79,3.933,7.254l-0.637,0.585l0.263,0.701l0.116,0.322l0.13,0.339l0.116,0.327l0.233,0.62l0.105,0.3
		c6.239-2.076,6.489-2.166,9.654-3.505c-0.625-1.402-1.272-2.778-1.96-4.152c2.166-1.894,0.987-5.033,2.854-7.045
		c0.702-0.26,1.353-0.519,2-0.804c4.773,4.697,4.969,4.88,7.578,3.997c0.803,1.183,0.803,1.183,1.83,2.451
		c-0.791-1.465-1.312-2.438-4.451-6.578c-0.116,0.206-0.259,0.519-0.362,0.741c-0.937-0.263-0.937-0.263-2.388-1.402
		c0.182-0.223,0.441-0.496,0.635-0.714c1.856,0.246,1.856,0.246,11.25,7.527c0.456-2.986-2.581-4.492-3.269-6.996
		c0.894-1.246,0.817-1.389,0.429-2.193c-1.375-1.83-2.326-3.893-3.518-5.839c0.531-0.04,1.232-0.04,1.764,0.027
		c0.013-0.26,0.04-0.598,0.067-0.844c-0.326-0.271-0.741-0.647-1.067-0.92l0.04-0.08l0.054-0.076l0.026-0.093l0.05-0.075l0.04-0.09
		l0.026-0.094l0.041-0.089l0.049-0.104c3.791,2.256,3.791,2.256,5.903,5.359c-1.166-0.491-1.322-0.661-2.036-1.505
		c-0.143,0.104-0.219,0.336-0.299,0.571c-0.438,2.661-0.466,2.765-0.286,6.578c0.441,0.638,0.87,1.286,1.286,1.934
		c0.934,1.027,0.934,1.027,3.179,2.75c-0.143-1.232-0.322-2.867-0.455-4.099c0.223-0.116,0.534-0.272,0.781-0.389
		c0.584,1.103,1.361,2.608,1.945,3.711c2.479,3.943,2.792,4.451,3.01,6.813l-0.39,0.313c-0.039,0.049-0.039,0.049-5.71,2.269
		c0.09,1.233,0,1.713-0.661,3.776c-2.857-0.338-8.098-5.683-8.162-5.737c-2.259,1.246-6.983,3.83-13.796,5.621l0.585,0.58
		c-0.027,0.25-0.037,0.6-0.063,0.857l-0.26,0.067l-0.285,0.065l-0.272,0.067l-0.286,0.074l-0.299,0.066l-0.313,0.077l-0.298,0.079
		l-0.322,0.065c-2.831,7.008-5.269,13.027-13.172,23.824l2.505,2.022c1.412,9.773,1.412,9.773-0.117,12.978
		c12.753,10.928,12.753,10.928,15.543,11.703c0.533-0.803,1.246-1.879,1.778-2.695c3.973-0.885,7.63-1.857,10.953-2.895
		c10.292-3.115,10.68-3.246,8.916,17.762c-0.61,2.076-1.312,4.115-2.063,6.102c-5.205,7.99-8.162,17.15-14.233,24.68
		c1.425-0.961,3.567-2.414,9.394-9.279c5.645-7.303,5.992-7.746,8.9-12.652c4.476-8.367,4.646-8.705,6.63-13.881
		c3.04-9.123,3.156-9.49,4.206-14.914c1.414-9.495,1.517-10.264,1.598-16.685c-0.17-4.049-0.521-9.459-0.986-13.497l-0.067-0.321
		c0-0.095-2.827-10.476-4.644-14.172c0.064-0.221,0.103-0.444,0.156-0.663c2.112,3.126,2.998,7.164,3.582,9.825
		c-0.91-3.596-2.219-8.359-3.376-11.901c-3.607-8.799-3.75-9.148-6.434-13.949c-4.97-8.032-5.166-8.331-8.71-12.756
		c-6.046-6.903-6.408-7.318-10.873-11.34C110.125-2.329,105.791-5.883,97.549-10.438"/>
	<g id="g190_1_">
		<g id="g192_1_">
			<path id="path194_1_" inkscape:connector-curvature="0" fill="#999999" d="M96.825,21.173l-1.777-3.594l-0.093,0.023
				c-0.831,0.339-1.452,1.625-1.894,2.558l0.13,0.246l0.129,0.223l0.286,0.492l0.26,0.469l0.143,0.232l0.258,0.469l0.144,0.232
				l0.116,0.259l0.143,0.233l0.13,0.236l0.129,0.246l0.13,0.233l0.143,0.246C95.294,22.276,95.758,21.509,96.825,21.173
				 M102.352,4.55l-0.093-0.142l0.04,0.116c0.116,0.571,0.103,1.156,0.233,1.738l0.195,0.169c1.375,1.375,1.598,1.92,1.675,2.076
				C104.335,8.338,103.688,6.626,102.352,4.55 M133.598,23.585l-0.04-0.05l0.117,0.246c-1.22-1.946-2.501-3.84-3.868-5.697
				c-0.401-0.468-1.361-1.558-1.621-1.544l0.014,0.103c-1.518-1.907-1.518-1.907-3.84-5.488c1.272,1.456,1.701,2.037,1.959,2.439
				l-0.08-0.13c0.143,0.093,0.156,0.093,1.156,1.366l1.076,1.269C130.044,18.331,132.157,21.303,133.598,23.585 M104.299,21.808
				l-2.429,1.362c0.469-1.295,1.572-2.192,2.335-3.295L104.299,21.808 M97.549-10.438c-4.76-2.595-9.846-4.684-15.208-6.203h0.013
				c7.997,3.077,7.997,3.077,8.929,3.671l0.595-0.166c1.688,0.763,2.754,1.282,5.246,2.709c-2.208-0.766-4.388-1.647-6.644-2.321
				c2.582,1.076,2.582,1.076,3.541,1.736c-0.259,0.094-0.611,0.21-0.884,0.286c0.742,0.313,1.702,0.727,2.442,1.027
				c1.582,1.518,2.855,3.281,4.425,4.813c1.129,1.143,2.634,2.675,3.67,3.894c-1.478-0.508-3.451-1.219-4.943-1.714l-0.79-0.673
				c0.817,0.066,1.919,0.156,2.738,0.219l-1.845-1.569l-2.219-0.857c-1.388,0.831-1.568,0.778-5.876-0.688
				c-0.544,0.469-1.195,0.92-1.959,1.376c3.84,4.281,4.255,4.737,6.228,8.242c-0.544,2.424-0.544,2.424,4.216,6.122
				c0.236-0.157,0.535-0.363,0.78-0.531c-0.401-1.309-0.401-1.309-1.857-3.14l0.259,0.193l0.455,0.429l0.456,0.415l0.428,0.429
				l0.429,0.416l0.416,0.415l0.402,0.416l0.416,0.416h0.843c0.832-2.22,0.832-2.22-4.634-9.069l1.559,0.103l2.671,3.568
				c0.625,0.093,1.495,0.093,2.089-0.05c0.754-0.521,0.936-0.677,1.09-0.82c4.737,8.759,4.737,8.759,4.776,10.823
				c-1.116-0.323-1.116-0.323-2.531-0.997c-0.143,0.505-0.349,1.192-0.519,1.684c-1.075-0.363-1.322-0.452-3.97-3.255
				c-0.129,0.83-0.129,0.83,2.376,3.737c-0.197,0.465-0.651,1.037-1.054,1.349c0,0.883,0.027,2.049,0.027,2.933
				c-3.283-1.143-3.283-1.143-5.099-2.143c-0.456-0.349-0.559-0.492-0.674-0.647l-0.326-0.442l-0.326-0.465l-0.335-0.441
				l-0.339-0.416l-0.335-0.455l-0.339-0.441l-0.335-0.429c-0.482,0.286-1.08,0.753-1.469,1.143c0.17,0.673,0.455,1.83,4.647,4.424
				c0.037,1.026,0.09,2.376,0.117,3.402c0.402,0.376,0.934,0.88,1.322,1.282l-0.17,0.625c1.455,0.17,1.455,0.17,5.71,6.408
				c-0.648,0.353-1.299,0.714-8.188,1.107c1.219,2.464,2.714,4.787,3.933,7.251l-0.637,0.584l0.263,0.702l0.116,0.322l0.13,0.339
				l0.116,0.327l0.233,0.62l0.105,0.299c6.239-2.076,6.489-2.165,9.654-3.505c-0.625-1.401-1.272-2.777-1.96-4.151
				c2.166-1.894,0.987-5.033,2.854-7.046c0.702-0.259,1.353-0.519,2-0.803c4.773,4.697,4.969,4.88,7.578,3.996
				c0.803,1.183,0.803,1.183,1.83,2.452c-0.791-1.466-1.312-2.439-4.451-6.578c-0.116,0.208-0.259,0.518-0.362,0.74
				c-0.937-0.259-0.937-0.259-2.388-1.401c0.182-0.223,0.441-0.496,0.635-0.714c1.856,0.245,1.856,0.245,11.25,7.527
				c0.456-2.986-2.581-4.492-3.269-6.997c0.894-1.245,0.817-1.388,0.429-2.192c-1.375-1.83-2.326-3.893-3.518-5.84
				c0.531-0.039,1.232-0.039,1.764,0.027c0.013-0.259,0.04-0.598,0.067-0.844c-0.326-0.272-0.741-0.647-1.067-0.919l0.04-0.08
				l0.054-0.076l0.026-0.093l0.05-0.076l0.04-0.09l0.026-0.093l0.041-0.089l0.049-0.104c3.791,2.255,3.791,2.255,5.903,5.359
				c-1.166-0.492-1.322-0.661-2.036-1.505c-0.143,0.103-0.219,0.338-0.299,0.571c-0.438,2.661-0.466,2.764-0.286,6.578
				c0.441,0.638,0.87,1.286,1.286,1.934c0.934,1.026,0.934,1.026,3.179,2.75c-0.143-1.232-0.322-2.867-0.455-4.099
				c0.223-0.117,0.534-0.272,0.781-0.389c0.584,1.103,1.361,2.608,1.945,3.711c2.479,3.947,2.792,4.45,3.01,6.813l-0.39,0.312
				c-0.039,0.05-0.039,0.05-5.71,2.269c0.09,1.234,0,1.714-0.661,3.777c-2.857-0.338-8.098-5.683-8.162-5.737
				c-2.259,1.246-6.983,3.83-13.796,5.62l0.585,0.585c-0.027,0.246-0.037,0.595-0.063,0.853l-0.26,0.067l-0.285,0.065l-0.272,0.067
				l-0.286,0.074l-0.299,0.066l-0.313,0.076l-0.298,0.08l-0.322,0.065c-2.831,7.008-5.269,13.027-13.172,23.824l2.505,2.026
				c1.412,9.77,1.412,9.77-0.117,12.975c12.753,10.928,12.753,10.928,15.543,11.703c0.533-0.803,1.246-1.879,1.778-2.695
				c3.973-0.887,7.63-1.857,10.953-2.895c10.292-3.115,10.68-3.246,8.916,17.762c-0.61,2.076-1.312,4.115-2.063,6.102
				c-5.205,7.988-8.162,17.15-14.233,24.68c1.425-0.961,3.567-2.414,9.394-9.279c5.645-7.305,5.992-7.746,8.9-12.652
				c4.476-8.369,4.646-8.707,6.63-13.881c3.04-9.123,3.156-9.49,4.206-14.914c1.414-9.495,1.517-10.262,1.598-16.685
				c-0.17-4.049-0.521-9.461-0.986-13.499l-0.067-0.321c0-0.093-2.827-10.474-4.644-14.17c0.064-0.221,0.103-0.444,0.156-0.663
				c2.112,3.126,2.998,7.164,3.582,9.825c-0.91-3.596-2.219-8.359-3.376-11.901c-3.607-8.796-3.75-9.148-6.434-13.949
				c-4.97-8.032-5.166-8.332-8.71-12.756c-6.046-6.903-6.408-7.318-10.873-11.341C110.125-2.329,105.791-5.883,97.549-10.438"/>
			<path id="path196_1_" inkscape:connector-curvature="0" fill="#999999" d="M96.825,21.173l-1.777-3.594l-0.093,0.023
				c-0.831,0.339-1.452,1.625-1.894,2.558l0.13,0.246l0.129,0.223l0.286,0.492l0.26,0.469l0.143,0.232l0.258,0.469l0.144,0.232
				l0.116,0.259l0.143,0.233l0.13,0.236l0.129,0.246l0.13,0.233l0.143,0.246C95.294,22.276,95.758,21.509,96.825,21.173
				 M102.352,4.55l-0.093-0.142l0.04,0.116c0.116,0.571,0.103,1.156,0.233,1.738l0.195,0.169c1.375,1.375,1.598,1.92,1.675,2.076
				C104.335,8.338,103.688,6.626,102.352,4.55 M133.598,23.585l-0.04-0.05l0.117,0.246c-1.22-1.946-2.501-3.84-3.868-5.697
				c-0.401-0.468-1.361-1.558-1.621-1.544l0.014,0.103c-1.518-1.907-1.518-1.907-3.84-5.488c1.272,1.456,1.701,2.037,1.959,2.439
				l-0.08-0.13c0.143,0.093,0.156,0.093,1.156,1.366l1.076,1.269C130.044,18.331,132.157,21.303,133.598,23.585 M104.299,21.808
				l-2.429,1.362c0.469-1.295,1.572-2.192,2.335-3.295L104.299,21.808 M97.549-10.438c-4.76-2.595-9.846-4.684-15.208-6.203h0.013
				c7.997,3.077,7.997,3.077,8.929,3.671l0.595-0.166c1.688,0.763,2.754,1.282,5.246,2.709c-2.208-0.766-4.388-1.647-6.644-2.321
				c2.582,1.076,2.582,1.076,3.541,1.736c-0.259,0.094-0.611,0.21-0.884,0.286c0.742,0.313,1.702,0.727,2.442,1.027
				c1.582,1.518,2.855,3.281,4.425,4.813c1.129,1.143,2.634,2.675,3.67,3.894c-1.478-0.508-3.451-1.219-4.943-1.714l-0.79-0.673
				c0.817,0.066,1.919,0.156,2.738,0.219l-1.845-1.569l-2.219-0.857c-1.388,0.831-1.568,0.778-5.876-0.688
				c-0.544,0.469-1.195,0.92-1.959,1.376c3.84,4.281,4.255,4.737,6.228,8.242c-0.544,2.424-0.544,2.424,4.216,6.122
				c0.236-0.157,0.535-0.363,0.78-0.531c-0.401-1.309-0.401-1.309-1.857-3.14l0.259,0.193l0.455,0.429l0.456,0.415l0.428,0.429
				l0.429,0.416l0.416,0.415l0.402,0.416l0.416,0.416h0.843c0.832-2.22,0.832-2.22-4.634-9.069l1.559,0.103l2.671,3.568
				c0.625,0.093,1.495,0.093,2.089-0.05c0.754-0.521,0.936-0.677,1.09-0.82c4.737,8.759,4.737,8.759,4.776,10.823
				c-1.116-0.323-1.116-0.323-2.531-0.997c-0.143,0.505-0.349,1.192-0.519,1.684c-1.075-0.363-1.322-0.452-3.97-3.255
				c-0.129,0.83-0.129,0.83,2.376,3.737c-0.197,0.465-0.651,1.037-1.054,1.349c0,0.883,0.027,2.049,0.027,2.933
				c-3.283-1.143-3.283-1.143-5.099-2.143c-0.456-0.349-0.559-0.492-0.674-0.647l-0.326-0.442l-0.326-0.465l-0.335-0.441
				l-0.339-0.416l-0.335-0.455l-0.339-0.441l-0.335-0.429c-0.482,0.286-1.08,0.753-1.469,1.143c0.17,0.673,0.455,1.83,4.647,4.424
				c0.037,1.026,0.09,2.376,0.117,3.402c0.402,0.376,0.934,0.88,1.322,1.282l-0.17,0.625c1.455,0.17,1.455,0.17,5.71,6.408
				c-0.648,0.353-1.299,0.714-8.188,1.107c1.219,2.464,2.714,4.787,3.933,7.251l-0.637,0.584l0.263,0.702l0.116,0.322l0.13,0.339
				l0.116,0.327l0.233,0.62l0.105,0.299c6.239-2.076,6.489-2.165,9.654-3.505c-0.625-1.401-1.272-2.777-1.96-4.151
				c2.166-1.894,0.987-5.033,2.854-7.046c0.702-0.259,1.353-0.519,2-0.803c4.773,4.697,4.969,4.88,7.578,3.996
				c0.803,1.183,0.803,1.183,1.83,2.452c-0.791-1.466-1.312-2.439-4.451-6.578c-0.116,0.208-0.259,0.518-0.362,0.74
				c-0.937-0.259-0.937-0.259-2.388-1.401c0.182-0.223,0.441-0.496,0.635-0.714c1.856,0.245,1.856,0.245,11.25,7.527
				c0.456-2.986-2.581-4.492-3.269-6.997c0.894-1.245,0.817-1.388,0.429-2.192c-1.375-1.83-2.326-3.893-3.518-5.84
				c0.531-0.039,1.232-0.039,1.764,0.027c0.013-0.259,0.04-0.598,0.067-0.844c-0.326-0.272-0.741-0.647-1.067-0.919l0.04-0.08
				l0.054-0.076l0.026-0.093l0.05-0.076l0.04-0.09l0.026-0.093l0.041-0.089l0.049-0.104c3.791,2.255,3.791,2.255,5.903,5.359
				c-1.166-0.492-1.322-0.661-2.036-1.505c-0.143,0.103-0.219,0.338-0.299,0.571c-0.438,2.661-0.466,2.764-0.286,6.578
				c0.441,0.638,0.87,1.286,1.286,1.934c0.934,1.026,0.934,1.026,3.179,2.75c-0.143-1.232-0.322-2.867-0.455-4.099
				c0.223-0.117,0.534-0.272,0.781-0.389c0.584,1.103,1.361,2.608,1.945,3.711c2.479,3.947,2.792,4.45,3.01,6.813l-0.39,0.312
				c-0.039,0.05-0.039,0.05-5.71,2.269c0.09,1.234,0,1.714-0.661,3.777c-2.857-0.338-8.098-5.683-8.162-5.737
				c-2.259,1.246-6.983,3.83-13.796,5.62l0.585,0.585c-0.027,0.246-0.037,0.595-0.063,0.853l-0.26,0.067l-0.285,0.065l-0.272,0.067
				l-0.286,0.074l-0.299,0.066l-0.313,0.076l-0.298,0.08l-0.322,0.065c-2.831,7.008-5.269,13.027-13.172,23.824l2.505,2.026
				c1.412,9.77,1.412,9.77-0.117,12.975c12.753,10.928,12.753,10.928,15.543,11.703c0.533-0.803,1.246-1.879,1.778-2.695
				c3.973-0.887,7.63-1.857,10.953-2.895c10.292-3.115,10.68-3.246,8.916,17.762c-0.61,2.076-1.312,4.115-2.063,6.102
				c-5.205,7.988-8.162,17.15-14.233,24.68c1.425-0.961,3.567-2.414,9.394-9.279c5.645-7.305,5.992-7.746,8.9-12.652
				c4.476-8.369,4.646-8.707,6.63-13.881c3.04-9.123,3.156-9.49,4.206-14.914c1.414-9.495,1.517-10.262,1.598-16.685
				c-0.17-4.049-0.521-9.461-0.986-13.499l-0.067-0.321c0-0.093-2.827-10.474-4.644-14.17c0.064-0.221,0.103-0.444,0.156-0.663
				c2.112,3.126,2.998,7.164,3.582,9.825c-0.91-3.596-2.219-8.359-3.376-11.901c-3.607-8.796-3.75-9.148-6.434-13.949
				c-4.97-8.032-5.166-8.332-8.71-12.756c-6.046-6.903-6.408-7.318-10.873-11.341C110.125-2.329,105.791-5.883,97.549-10.438"/>
		</g>
	</g>
	<path id="path200_1_" inkscape:connector-curvature="0" fill="#D5E5FF" fill-opacity="0.4372" d="M147.342,71.352
		c0,52.968-43.136,95.921-96.35,95.921c-53.217,0-96.35-42.953-96.35-95.921c0-52.969,43.132-95.908,96.35-95.908
		C104.206-24.557,147.342,18.382,147.342,71.352z"/>
	<g id="g202_1_" transform="matrix(1,0,0,-0.995523,0,285.15509)">
		<path id="path204_1_" inkscape:connector-curvature="0" fill="none" d="M147.342,214.766c0-53.207-43.136-96.354-96.35-96.354
			c-53.217,0-96.35,43.146-96.35,96.354c0,53.206,43.132,96.339,96.35,96.339C104.206,311.105,147.342,267.972,147.342,214.766z"/>
	</g>
	<g id="g206_1_" transform="matrix(1,0,0,-1,0,285.15509)">
		<path id="path208_1_" inkscape:connector-curvature="0" fill="#666666" d="M37.472,272.885l47.064-16.4l-7.709-30.819
			l-47.222,7.539L37.472,272.885L37.472,272.885z"/>
	</g>
	<path id="path210_1_" inkscape:connector-curvature="0" fill="#D35F5F" d="M40.856,16.655l13.198,4.957l-1.753,6.67l-13.365-4.464
		L40.856,16.655z"/>
	<path id="path212_1_" inkscape:connector-curvature="0" fill="#D35F5F" d="M55.028,22.236l10.886,3.943l-1.857,6.179l-10.783-3.594
		L55.028,22.236z"/>
	<path id="path214_1_" inkscape:connector-curvature="0" fill="#D35F5F" d="M66.9,26.792l13.614,5.036l-1.625,5.657l-13.597-4.581
		L66.9,26.792L66.9,26.792z"/>
	<path id="path216_1_" inkscape:connector-curvature="0" fill="#D35F5F" d="M36.485,34.02l13.534,3.541l-1.674,6.359l-13.301-2.648
		L36.485,34.02z"/>
	<path id="path218_1_" inkscape:connector-curvature="0" fill="#D35F5F" d="M50.653,38.221l11.095,2.635l-1.179,5.865l-11.175-2.685
		L50.653,38.221z"/>
	<path id="path220_1_" inkscape:connector-curvature="0" fill="#D35F5F" d="M62.838,41.415l14.042,3.674l-1.349,5.032l-13.823-3.111
		L62.838,41.415z"/>
	<path id="path222_1_" inkscape:connector-curvature="0" fill="#D35F5F" d="M34.445,42.57l13.626,2.687l-1.245,6.318l-13.404-1.647
		L34.445,42.57z"/>
	<path id="path224_1_" inkscape:connector-curvature="0" fill="#D35F5F" d="M48.993,45.619l11.042,1.908l-0.934,5.943l-11.199-1.854
		L48.993,45.619z"/>
	<path id="path226_1_" inkscape:connector-curvature="0" fill="#D35F5F" d="M61.15,47.995l14.131,2.608l-1.139,5.202l-13.796-2.139
		L61.15,47.995L61.15,47.995z"/>
	<path id="path228_1_" inkscape:connector-curvature="0" fill="#D35F5F" d="M38.196,25.635l13.394,4.231l-1.481,6.761l-13.533-3.711
		L38.196,25.635z"/>
	<path id="path230_1_" inkscape:connector-curvature="0" fill="#D35F5F" d="M52.574,30.425l11.059,3.335l-1.598,6.279l-10.927-2.998
		L52.574,30.425z"/>
	<path id="path232_1_" inkscape:connector-curvature="0" fill="#D35F5F" d="M64.628,34.318l13.989,4.255l-1.555,5.697L63.28,40.507
		L64.628,34.318L64.628,34.318z"/>
	<path id="path234_1_" inkscape:connector-curvature="0" fill="#808080" d="M2.471-4.82l31.818,16.078L33.11,45.164L4.484,36.381
		L2.471-4.82z"/>
	<path id="path236_1_" inkscape:connector-curvature="0" fill="#666666" d="M-17.965,14.945L1.462-4.481l2.684,40.863
		l-19.088,14.063L-17.965,14.945z"/>
	<path id="path238_1_" inkscape:connector-curvature="0" fill="#666666" d="M4.484,36.381l28.327,9.341L17.875,58.817l-32.492-8.372
		L4.484,36.381z"/>
	<g id="g240_1_" transform="matrix(1,0,0,-1,0,285.15509)">
		<path id="path242_1_" inkscape:connector-curvature="0" fill="#FFFFFF" d="M-91.334,319.781l86.773-28.808l-16.337-47.868
			l-87.889,12.367L-91.334,319.781z"/>
	</g>
	<path id="path244_1_" inkscape:connector-curvature="0" fill="#D35F5F" d="M-87.65-29.565l25.76,8.875l-3.685,11.341l-26.084-8.046
		L-87.65-29.565z"/>
	<path id="path246_1_" inkscape:connector-curvature="0" fill="#D35F5F" d="M-60.02-19.6l21.252,7.072L-42.62-2.043l-21.062-6.475
		L-60.02-19.6z"/>
	<path id="path248_1_" inkscape:connector-curvature="0" fill="#D35F5F" d="M-36.857-11.451l26.563,9.004l-3.389,9.618L-40.231-1.07
		L-36.857-11.451z"/>
	<path id="path250_1_" inkscape:connector-curvature="0" fill="#D35F5F" d="M-96.834-0.07l26.446,6.474l-3.505,10.797l-26.031-4.93
		L-96.834-0.07z"/>
	<path id="path252_1_" inkscape:connector-curvature="0" fill="#D35F5F" d="M-69.143,7.547L-47.46,12.4l-2.532,9.966l-21.825-4.93
		L-69.143,7.547z"/>
	<path id="path254_1_" inkscape:connector-curvature="0" fill="#D35F5F" d="M-45.331,13.374l27.432,6.721l-2.816,8.54l-27.031-5.763
		L-45.331,13.374z"/>
	<path id="path256_1_" inkscape:connector-curvature="0" fill="#D35F5F" d="M-101.13,14.464l26.678,4.996l-2.674,10.756
		l-26.29-3.242L-101.13,14.464z"/>
	<path id="path258_1_" inkscape:connector-curvature="0" fill="#D35F5F" d="M-72.661,20.107l21.62,3.608l-2.049,10.122
		l-21.945-3.514L-72.661,20.107z"/>
	<path id="path260_1_" inkscape:connector-curvature="0" fill="#D35F5F" d="M-48.863,24.559l27.643,4.879l-2.429,8.85l-27.004-4.099
		L-48.863,24.559z"/>
	<path id="path262_1_" inkscape:connector-curvature="0" fill="#D35F5F" d="M-93.177-14.305l26.147,7.618L-70.156,4.81l-26.446-6.76
		L-93.177-14.305z"/>
	<path id="path264_1_" inkscape:connector-curvature="0" fill="#D35F5F" d="M-65.094-5.688l21.567,6.033l-3.336,10.653l-21.36-5.452
		L-65.094-5.688L-65.094-5.688z"/>
	<path id="path266_1_" inkscape:connector-curvature="0" fill="#D35F5F" d="M-41.58,1.319l27.313,7.693l-3.242,9.683l-26.928-6.839
		L-41.58,1.319z"/>
</g>
<g>
	<path fill="#4D4D4D" stroke="#4D4D4D" stroke-width="1.425" stroke-miterlimit="10" d="M179.953,143.502v-3.313
		c2.922,1.039,6.079,1.559,9.468,1.559c4.793,0,7.189-1.752,7.189-5.26c0-2.986-1.766-4.48-5.299-4.48h-3.585
		c-5.832,0-8.748-2.533-8.748-7.598c0-5.326,3.734-7.988,11.202-7.988c3.247,0,6.267,0.389,9.06,1.168v3.313
		c-2.792-1.039-5.813-1.559-9.06-1.559c-5.065,0-7.598,1.689-7.598,5.066c0,2.986,1.715,4.48,5.144,4.48h3.585
		c5.935,0,8.903,2.533,8.903,7.598c0,5.455-3.598,8.182-10.793,8.182C186.031,144.67,182.875,144.282,179.953,143.502z"/>
	<path fill="#4D4D4D" stroke="#4D4D4D" stroke-width="1.425" stroke-miterlimit="10" d="M206.801,124.858
		c2.714-0.559,5.52-0.838,8.417-0.838c6.559,0,9.838,3.24,9.838,9.723c0,7.156-3.299,10.734-9.897,10.734
		c-1.637,0-3.221-0.324-4.754-0.975v8.377h-3.604V124.858z M210.405,140.307c1.416,0.701,2.994,1.053,4.734,1.053
		c4.247,0,6.371-2.553,6.371-7.656c0-4.455-2.11-6.684-6.332-6.684c-1.818,0-3.41,0.156-4.773,0.469V140.307z"/>
	<path fill="#4D4D4D" stroke="#4D4D4D" stroke-width="1.425" stroke-miterlimit="10" d="M230.668,138.301
		c0-4.195,2.767-6.293,8.299-6.293c1.779,0,3.559,0.129,5.338,0.389v-1.928c0-2.352-1.838-3.527-5.514-3.527
		c-2.104,0-4.26,0.326-6.468,0.975v-2.922c2.208-0.65,4.364-0.975,6.468-0.975c6.079,0,9.118,2.117,9.118,6.352v14.105h-2.026
		l-1.247-2.027c-2.039,1.352-4.26,2.027-6.663,2.027C233.103,144.477,230.668,142.418,230.668,138.301z M238.967,134.93
		c-3.13,0-4.695,1.104-4.695,3.313c0,2.207,1.234,3.313,3.702,3.313c2.494,0,4.604-0.664,6.332-1.988v-4.246
		C242.526,135.061,240.747,134.93,238.967,134.93z"/>
	<path fill="#4D4D4D" stroke="#4D4D4D" stroke-width="1.425" stroke-miterlimit="10" d="M270.862,143.893
		c-1.689,0.389-3.508,0.584-5.455,0.584c-7.273,0-10.911-3.539-10.911-10.619c0-6.559,3.637-9.838,10.911-9.838
		c1.947,0,3.766,0.195,5.455,0.584v2.924c-1.689-0.391-3.572-0.586-5.65-0.586c-4.74,0-7.111,2.307-7.111,6.916
		c0,5.131,2.371,7.697,7.111,7.697c2.078,0,3.961-0.195,5.65-0.586V143.893z"/>
	<path fill="#4D4D4D" stroke="#4D4D4D" stroke-width="1.425" stroke-miterlimit="10" d="M285.591,124.02
		c5.818,0,8.728,2.877,8.728,8.631c0,0.818-0.058,1.695-0.175,2.631h-14.358c0,4.182,2.441,6.273,7.325,6.273
		c2.325,0,4.39-0.26,6.195-0.779v2.922c-1.806,0.52-4.001,0.779-6.585,0.779c-7.026,0-10.54-3.488-10.54-10.463
		C276.181,127.352,279.318,124.02,285.591,124.02z M279.786,132.28h11.065c-0.077-3.584-1.831-5.377-5.26-5.377
		C281.955,126.903,280.019,128.696,279.786,132.28z"/>
</g>
<g>
	<g>
		<path fill="#C83737" stroke="#C83737" stroke-width="1.425" stroke-miterlimit="10" d="M179.232,156.418v2.818h-14.09v9.018
			h13.432v2.818h-13.432v9.393h14.372v2.818h-17.847v-26.865H179.232z"/>
		<path fill="#C83737" stroke="#C83737" stroke-width="1.425" stroke-miterlimit="10" d="M192.357,173.42l-7.383-9.861h4.039
			l5.354,7.156l5.354-7.156h4.039l-7.364,9.861l7.364,9.863h-4.039l-5.354-7.156l-5.354,7.156h-4.039L192.357,173.42z"/>
		<path fill="#C83737" stroke="#C83737" stroke-width="1.425" stroke-miterlimit="10" d="M209.972,164.366
			c2.618-0.537,5.323-0.807,8.116-0.807c6.325,0,9.487,3.125,9.487,9.373c0,6.902-3.181,10.352-9.543,10.352
			c-1.578,0-3.106-0.313-4.584-0.939v8.078h-3.476V164.366z M213.448,179.264c1.365,0.676,2.887,1.014,4.565,1.014
			c4.095,0,6.143-2.461,6.143-7.383c0-4.295-2.036-6.443-6.105-6.443c-1.754,0-3.288,0.15-4.603,0.451V179.264z"/>
		<path fill="#C83737" stroke="#C83737" stroke-width="1.425" stroke-miterlimit="10" d="M238.859,156.418v26.865h-3.476v-26.865
			H238.859z"/>
		<path fill="#C83737" stroke="#C83737" stroke-width="1.425" stroke-miterlimit="10" d="M246.668,173.42
			c0-6.574,3.131-9.861,9.393-9.861c6.263,0,9.394,3.287,9.394,9.861c0,6.564-3.131,9.846-9.394,9.846
			C249.824,183.266,246.693,179.985,246.668,173.42z M256.061,180.465c3.945,0,5.918-2.373,5.918-7.119
			c0-4.646-1.973-6.971-5.918-6.971c-3.945,0-5.917,2.324-5.917,6.971C250.144,178.092,252.116,180.465,256.061,180.465z"/>
		<path fill="#C83737" stroke="#C83737" stroke-width="1.425" stroke-miterlimit="10" d="M273.076,183.284v-19.725h2.348l0.62,2.516
			c1.729-1.678,3.808-2.516,6.237-2.516v2.893c-2.354,0-4.265,0.832-5.729,2.498v14.334H273.076z"/>
		<path fill="#C83737" stroke="#C83737" stroke-width="1.425" stroke-miterlimit="10" d="M287.742,177.329
			c0-4.045,2.667-6.068,8.003-6.068c1.716,0,3.432,0.125,5.147,0.377v-1.861c0-2.266-1.772-3.4-5.316-3.4
			c-2.029,0-4.108,0.314-6.237,0.939v-2.818c2.129-0.625,4.208-0.938,6.237-0.938c5.861,0,8.792,2.041,8.792,6.123v13.602h-1.954
			l-1.202-1.953c-1.967,1.303-4.108,1.953-6.425,1.953C290.089,183.284,287.742,181.299,287.742,177.329z M295.745,174.079
			c-3.019,0-4.527,1.064-4.527,3.193s1.189,3.193,3.569,3.193c2.404,0,4.439-0.639,6.105-1.916v-4.096
			C299.176,174.204,297.46,174.079,295.745,174.079z"/>
		<path fill="#C83737" stroke="#C83737" stroke-width="1.425" stroke-miterlimit="10" d="M312.928,160.364h2.179l0.752,3.195h5.335
			v2.816h-4.79v11.328c0,1.842,0.795,2.762,2.386,2.762h2.404v2.818h-3.307c-3.306,0-4.959-1.771-4.959-5.316V160.364z"/>
		<path fill="#C83737" stroke="#C83737" stroke-width="1.425" stroke-miterlimit="10" d="M332.383,156.418v3.289h-3.476v-3.289
			H332.383z M332.383,163.559v19.725h-3.476v-19.725H332.383z"/>
		<path fill="#C83737" stroke="#C83737" stroke-width="1.425" stroke-miterlimit="10" d="M340.38,173.42
			c0-6.574,3.131-9.861,9.393-9.861c6.263,0,9.394,3.287,9.394,9.861c0,6.564-3.131,9.846-9.394,9.846
			C343.537,183.266,340.405,179.985,340.38,173.42z M349.773,180.465c3.945,0,5.918-2.373,5.918-7.119
			c0-4.646-1.973-6.971-5.918-6.971c-3.944,0-5.917,2.324-5.917,6.971C343.856,178.092,345.829,180.465,349.773,180.465z"/>
		<path fill="#C83737" stroke="#C83737" stroke-width="1.425" stroke-miterlimit="10" d="M366.788,183.284v-19.725h2.348l0.62,2.516
			c2.017-1.678,4.233-2.516,6.65-2.516c4.922,0,7.384,2.447,7.384,7.344v12.381h-3.476v-12.436c0-2.932-1.46-4.396-4.378-4.396
			c-1.991,0-3.883,0.832-5.673,2.498v14.334H366.788z"/>
	</g>
</g>
<g>
	<g>
		<path fill="#4D4D4D" stroke="#4D4D4D" stroke-width="1.425" stroke-miterlimit="10" d="M418.871,156.864v24.047h14.053v2.818
			h-17.528v-26.865H418.871z"/>
		<path fill="#4D4D4D" stroke="#4D4D4D" stroke-width="1.425" stroke-miterlimit="10" d="M438.358,177.774
			c0-4.045,2.667-6.068,8.003-6.068c1.716,0,3.432,0.125,5.147,0.377v-1.861c0-2.266-1.772-3.4-5.316-3.4
			c-2.029,0-4.108,0.314-6.237,0.939v-2.818c2.129-0.625,4.208-0.938,6.237-0.938c5.861,0,8.792,2.041,8.792,6.123v13.602h-1.954
			l-1.202-1.953c-1.967,1.303-4.108,1.953-6.425,1.953C440.706,183.729,438.358,181.745,438.358,177.774z M446.361,174.524
			c-3.019,0-4.527,1.064-4.527,3.193s1.189,3.193,3.569,3.193c2.404,0,4.439-0.639,6.105-1.916v-4.096
			C449.792,174.649,448.077,174.524,446.361,174.524z"/>
		<path fill="#4D4D4D" stroke="#4D4D4D" stroke-width="1.425" stroke-miterlimit="10" d="M463.237,156.864h3.476v8.078
			c1.49-0.625,3.087-0.938,4.79-0.938c6.237,0,9.355,3.156,9.355,9.467c0,6.84-3.275,10.258-9.825,10.258
			c-2.83,0-5.429-0.27-7.796-0.807V156.864z M466.712,180.292c1.139,0.363,2.523,0.545,4.151,0.545c4.384,0,6.575-2.498,6.575-7.496
			c0-4.221-1.985-6.33-5.955-6.33c-1.804,0-3.395,0.338-4.771,1.014V180.292z"/>
		<path fill="#4D4D4D" stroke="#4D4D4D" stroke-width="1.425" stroke-miterlimit="10" d="M487.232,173.866
			c0-6.574,3.131-9.861,9.393-9.861c6.263,0,9.394,3.287,9.394,9.861c0,6.564-3.131,9.846-9.394,9.846
			C490.388,183.711,487.256,180.43,487.232,173.866z M496.625,180.911c3.945,0,5.918-2.373,5.918-7.119
			c0-4.646-1.973-6.971-5.918-6.971c-3.944,0-5.917,2.324-5.917,6.971C490.708,178.538,492.68,180.911,496.625,180.911z"/>
		<path fill="#4D4D4D" stroke="#4D4D4D" stroke-width="1.425" stroke-miterlimit="10" d="M513.332,183.729v-19.725h2.348l0.62,2.516
			c1.729-1.678,3.808-2.516,6.237-2.516v2.893c-2.354,0-4.265,0.832-5.729,2.498v14.334H513.332z"/>
		<path fill="#4D4D4D" stroke="#4D4D4D" stroke-width="1.425" stroke-miterlimit="10" d="M527.689,177.774
			c0-4.045,2.667-6.068,8.003-6.068c1.716,0,3.432,0.125,5.147,0.377v-1.861c0-2.266-1.772-3.4-5.316-3.4
			c-2.029,0-4.108,0.314-6.237,0.939v-2.818c2.129-0.625,4.208-0.938,6.237-0.938c5.861,0,8.792,2.041,8.792,6.123v13.602h-1.954
			l-1.202-1.953c-1.967,1.303-4.108,1.953-6.425,1.953C530.037,183.729,527.689,181.745,527.689,177.774z M535.692,174.524
			c-3.019,0-4.527,1.064-4.527,3.193s1.189,3.193,3.569,3.193c2.404,0,4.439-0.639,6.105-1.916v-4.096
			C539.124,174.649,537.408,174.524,535.692,174.524z"/>
		<path fill="#4D4D4D" stroke="#4D4D4D" stroke-width="1.425" stroke-miterlimit="10" d="M552.568,160.809h2.179l0.752,3.195h5.335
			v2.816h-4.79v11.328c0,1.842,0.795,2.762,2.386,2.762h2.404v2.818h-3.307c-3.306,0-4.959-1.771-4.959-5.316V160.809z"/>
		<path fill="#4D4D4D" stroke="#4D4D4D" stroke-width="1.425" stroke-miterlimit="10" d="M566.925,173.866
			c0-6.574,3.131-9.861,9.393-9.861c6.263,0,9.394,3.287,9.394,9.861c0,6.564-3.131,9.846-9.394,9.846
			C570.082,183.711,566.95,180.43,566.925,173.866z M576.318,180.911c3.945,0,5.918-2.373,5.918-7.119
			c0-4.646-1.973-6.971-5.918-6.971c-3.944,0-5.917,2.324-5.917,6.971C570.401,178.538,572.374,180.911,576.318,180.911z"/>
		<path fill="#4D4D4D" stroke="#4D4D4D" stroke-width="1.425" stroke-miterlimit="10" d="M593.025,183.729v-19.725h2.348l0.62,2.516
			c1.729-1.678,3.808-2.516,6.237-2.516v2.893c-2.354,0-4.265,0.832-5.729,2.498v14.334H593.025z"/>
		<path fill="#4D4D4D" stroke="#4D4D4D" stroke-width="1.425" stroke-miterlimit="10" d="M605.974,164.004h3.776l5.579,15.404
			l5.768-15.404h3.683l-8.191,20.307c-1.453,3.582-3.632,5.818-6.538,6.707l-1.333-2.461c2.204-0.965,3.807-2.535,4.809-4.715
			L605.974,164.004z"/>
	</g>
</g>
<g>
	<g>
		<path fill="#4D4D4D" stroke="#4D4D4D" stroke-width="1.425" stroke-miterlimit="10" d="M422.967,144.477v-27.859h11.3
			c5.689,0,8.534,2.486,8.534,7.461c0,5.416-3.891,8.721-11.67,9.916l-0.741-3.039c5.715-0.844,8.572-3.084,8.572-6.721
			c0-3.092-1.675-4.637-5.026-4.637h-7.364v24.879H422.967z"/>
		<path fill="#4D4D4D" stroke="#4D4D4D" stroke-width="1.425" stroke-miterlimit="10" d="M453.058,116.618v27.859h-3.604v-27.859
			H453.058z"/>
		<path fill="#4D4D4D" stroke="#4D4D4D" stroke-width="1.425" stroke-miterlimit="10" d="M460.199,138.301
			c0-4.195,2.767-6.293,8.3-6.293c1.779,0,3.559,0.129,5.338,0.389v-1.928c0-2.352-1.838-3.527-5.514-3.527
			c-2.104,0-4.26,0.326-6.468,0.975v-2.922c2.208-0.65,4.364-0.975,6.468-0.975c6.079,0,9.118,2.117,9.118,6.352v14.105h-2.026
			l-1.247-2.027c-2.039,1.352-4.26,2.027-6.663,2.027C462.634,144.477,460.199,142.418,460.199,138.301z M468.499,134.93
			c-3.131,0-4.695,1.104-4.695,3.313c0,2.207,1.233,3.313,3.701,3.313c2.494,0,4.604-0.664,6.332-1.988v-4.246
			C472.057,135.061,470.278,134.93,468.499,134.93z"/>
		<path fill="#4D4D4D" stroke="#4D4D4D" stroke-width="1.425" stroke-miterlimit="10" d="M485.36,144.477V124.02h2.436l0.644,2.611
			c2.091-1.74,4.39-2.611,6.896-2.611c5.104,0,7.656,2.539,7.656,7.617v12.84h-3.604v-12.898c0-3.039-1.513-4.559-4.539-4.559
			c-2.065,0-4.026,0.863-5.884,2.592v14.865H485.36z"/>
		<path fill="#4D4D4D" stroke="#4D4D4D" stroke-width="1.425" stroke-miterlimit="10" d="M519.347,124.02
			c5.818,0,8.728,2.877,8.728,8.631c0,0.818-0.058,1.695-0.175,2.631h-14.358c0,4.182,2.441,6.273,7.325,6.273
			c2.325,0,4.39-0.26,6.195-0.779v2.922c-1.806,0.52-4.001,0.779-6.585,0.779c-7.026,0-10.54-3.488-10.54-10.463
			C509.937,127.352,513.074,124.02,519.347,124.02z M513.542,132.28h11.065c-0.077-3.584-1.831-5.377-5.26-5.377
			C515.71,126.903,513.775,128.696,513.542,132.28z"/>
		<path fill="#4D4D4D" stroke="#4D4D4D" stroke-width="1.425" stroke-miterlimit="10" d="M535,120.708h2.261l0.779,3.313h5.532
			v2.922h-4.968v11.748c0,1.91,0.825,2.865,2.475,2.865h2.493v2.922h-3.429c-3.429,0-5.144-1.838-5.144-5.514V120.708z"/>
		<path fill="#4D4D4D" stroke="#4D4D4D" stroke-width="1.425" stroke-miterlimit="10" d="M549.252,138.301
			c0-4.195,2.767-6.293,8.3-6.293c1.779,0,3.559,0.129,5.338,0.389v-1.928c0-2.352-1.838-3.527-5.514-3.527
			c-2.104,0-4.26,0.326-6.468,0.975v-2.922c2.208-0.65,4.364-0.975,6.468-0.975c6.079,0,9.118,2.117,9.118,6.352v14.105h-2.026
			l-1.247-2.027c-2.039,1.352-4.26,2.027-6.663,2.027C551.688,144.477,549.252,142.418,549.252,138.301z M557.552,134.93
			c-3.131,0-4.695,1.104-4.695,3.313c0,2.207,1.233,3.313,3.701,3.313c2.494,0,4.604-0.664,6.332-1.988v-4.246
			C561.111,135.061,559.332,134.93,557.552,134.93z"/>
		<path fill="#4D4D4D" stroke="#4D4D4D" stroke-width="1.425" stroke-miterlimit="10" d="M574.414,144.477V124.02h2.436l0.644,2.611
			c1.792-1.74,3.948-2.611,6.468-2.611v3c-2.442,0-4.423,0.863-5.942,2.592v14.865H574.414z"/>
		<path fill="#4D4D4D" stroke="#4D4D4D" stroke-width="1.425" stroke-miterlimit="10" d="M587.205,124.02h3.916l5.786,15.977
			l5.98-15.977h3.819l-8.495,21.061c-1.507,3.715-3.767,6.033-6.779,6.955l-1.384-2.553c2.286-1,3.948-2.629,4.988-4.889
			L587.205,124.02z"/>
	</g>
</g>
<g>
	<g>
		<path fill="#4D4D4D" stroke="#4D4D4D" stroke-width="1.425" stroke-miterlimit="10" d="M323.195,138.301
			c0-4.195,2.767-6.293,8.3-6.293c1.779,0,3.559,0.129,5.338,0.389v-1.928c0-2.352-1.838-3.527-5.514-3.527
			c-2.104,0-4.26,0.326-6.468,0.975v-2.922c2.208-0.65,4.364-0.975,6.468-0.975c6.079,0,9.118,2.117,9.118,6.352v14.105h-2.026
			l-1.247-2.027c-2.039,1.352-4.26,2.027-6.663,2.027C325.63,144.477,323.195,142.418,323.195,138.301z M331.495,134.93
			c-3.131,0-4.695,1.104-4.695,3.313c0,2.207,1.233,3.313,3.701,3.313c2.494,0,4.604-0.664,6.332-1.988v-4.246
			C335.053,135.061,333.274,134.93,331.495,134.93z"/>
		<path fill="#4D4D4D" stroke="#4D4D4D" stroke-width="1.425" stroke-miterlimit="10" d="M347.997,144.477V124.02h2.436l0.644,2.611
			c2.091-1.74,4.39-2.611,6.896-2.611c5.104,0,7.656,2.539,7.656,7.617v12.84h-3.604v-12.898c0-3.039-1.513-4.559-4.539-4.559
			c-2.065,0-4.026,0.863-5.884,2.592v14.865H347.997z"/>
		<path fill="#4D4D4D" stroke="#4D4D4D" stroke-width="1.425" stroke-miterlimit="10" d="M390.529,143.249
			c-2.481,0.818-5.54,1.229-9.176,1.229c-6.092,0-9.138-3.547-9.138-10.639c0-6.545,3.234-9.818,9.702-9.818
			c1.767,0,3.436,0.324,5.007,0.975v-8.377h3.604V143.249z M386.924,128.19c-1.454-0.701-3.117-1.053-4.987-1.053
			c-4.117,0-6.176,2.189-6.176,6.566c0,5.182,2.059,7.773,6.176,7.773c1.87,0,3.533-0.254,4.987-0.76V128.19z"/>
	</g>
</g>
</svg>
