<?xml version="1.0" encoding="utf-8"?>
<!-- Generator: Adobe Illustrator 16.0.0, SVG Export Plug-In . SVG Version: 6.00 Build 0)  -->
<!DOCTYPE svg PUBLIC "-//W3C//DTD SVG 1.1//EN" "http://www.w3.org/Graphics/SVG/1.1/DTD/svg11.dtd" [
	<!ENTITY ns_extend "http://ns.adobe.com/Extensibility/1.0/">
	<!ENTITY ns_ai "http://ns.adobe.com/AdobeIllustrator/10.0/">
	<!ENTITY ns_graphs "http://ns.adobe.com/Graphs/1.0/">
	<!ENTITY ns_vars "http://ns.adobe.com/Variables/1.0/">
	<!ENTITY ns_imrep "http://ns.adobe.com/ImageReplacement/1.0/">
	<!ENTITY ns_sfw "http://ns.adobe.com/SaveForWeb/1.0/">
	<!ENTITY ns_custom "http://ns.adobe.com/GenericCustomNamespace/1.0/">
	<!ENTITY ns_adobe_xpath "http://ns.adobe.com/XPath/1.0/">
]>
<svg version="1.1" id="Layer_1" xmlns:x="&ns_extend;" xmlns:i="&ns_ai;" xmlns:graph="&ns_graphs;"
	 xmlns="http://www.w3.org/2000/svg" xmlns:xlink="http://www.w3.org/1999/xlink" x="0px" y="0px" width="792px" height="267.5px"
	 viewBox="-206.25 -233.75 792 267.5" enable-background="new -206.25 -233.75 792 267.5" xml:space="preserve">
<metadata>
	<sfw  xmlns="&ns_sfw;">
		<slices></slices>
		<sliceSourceBounds  width="714.723" height="189.794" x="34.339" y="395.764" bottomLeftOrigin="true"></sliceSourceBounds>
	</sfw>
</metadata>
<g>
	<path fill="none" stroke="#73797D" stroke-width="1.5431" stroke-miterlimit="3.8635" d="M-127.011-171.576v56.785
		c0,1.086-0.875,1.969-1.955,1.969h-17.801c-1.188-0.027-2.051,1.963-2.051,1.963s-0.865-1.99-2.107-1.963c0.002,0-17.76,0-17.76,0
		c-1.082,0-1.955-0.881-1.955-1.969v-56.781L-127.011-171.576L-127.011-171.576z"/>
	<path fill="none" stroke="#73797D" stroke-width="0.768" stroke-miterlimit="3.8637" d="M-142.28-162.533l-1.732-2.764
		c-2.076,0.479-1.568-1.324-0.439-2.029c1.236-0.779,2.633-0.504,1.736,1.213c0,0,0.402,0.654,1.066,1.713
		C-141.649-164.4-142.104-163.535-142.28-162.533L-142.28-162.533z M-134.61-153.263l4.727,7.5l-0.35,0.352l-1.656-1.316
		c0,0-0.102-1.094-0.363-1.32c-0.891-0.766-0.361-1.189-0.707-1.902c-0.344-0.709-2.361-1.26-2.832-2.324
		c0.008,0.051-0.777-1.25-0.777-1.25C-134.767-153.843-134.61-153.263-134.61-153.263L-134.61-153.263z M-140.149-162.111
		c-0.006-0.018,1.68,2.762,1.674,2.725c-1.043-0.125-1.551-0.426-1.758-0.988C-140.479-161.007-140.286-161.849-140.149-162.111
		L-140.149-162.111z M-165.399-135.697l3.688,9.314 M-165.097-135.427l3.422,6.619 M-164.847-135.324l3.113,4.672 M-164.663-135.41
		l2.854,3.393 M-164.698-135.722l4.135,3.904 M-164.731-135.955l5.664,4.242 M-164.821-136.148l8.316,4.883 M-160.325-150.996
		l-0.125,2.879h1.678l-0.127-2.879H-160.325L-160.325-150.996z M-158.931-151.787l-0.682-15.434l-0.697,15.434H-158.931
		L-158.931-151.787z M-162.446-151.771h5.662v0.773h-5.662V-151.771L-162.446-151.771z M-157.829-148.115
		c0,1.156-0.801,1.957-1.787,1.957c-0.984,0-1.785-0.801-1.785-1.957H-157.829L-157.829-148.115z M-162.21-158.798
		c0,1.479-1.223,2.678-2.727,2.678c-1.508,0-2.73-1.199-2.73-2.678H-162.21L-162.21-158.798z M-139.815-162.673
		c0,0,0.604,0.818,1.246,0.438c1.184-0.699-0.275-4.676-2.709-2.652c-0.533,0.445-1.248,2.514-1.109,3.84
		c0.139,1.324,0.727,3.006,2.221,3.352c0.9,0.209,2.699-0.293,3.445,0.936c0.555-0.207,1.164-2.4-0.387-2.471
		c-1.531-0.07-2.822-0.332-3.059-0.977C-140.724-161.748-139.815-162.673-139.815-162.673L-139.815-162.673z M-138.438-156.453
		c-0.604,0.293-1.041,0.988-0.832,1.76c0.211,0.773,1.148,1.234,2.477,1.166c0.072-0.002,0.143-0.008,0.213-0.012
		c1.172-0.086,1.697-0.229,2.096,0.438c0.42-0.492,0.297-1.59-0.299-2.098C-135.692-155.972-138.052-154.994-138.438-156.453
		L-138.438-156.453z M-135.815-152.265c-0.139,0.635-0.566,1.482-0.211,2.25c0.49,1.051,1.4,0.49,1.68,1.123s0.01,1.574,0.629,1.756
		c1.188,0.352,0.771,1.545,1.398,1.475c0.555-0.063,0.574-1.926,0-2.457c-0.838-0.773-0.281-1.336-0.699-1.967
		C-133.44-150.716-134.978-150.998-135.815-152.265L-135.815-152.265z"/>
	<path fill="none" stroke="#73797D" stroke-width="0.4937" stroke-miterlimit="3.8637" d="M-148.038-148.335
		c0-0.045,0.035-0.078,0.078-0.078c0.045,0,0.078,0.037,0.078,0.078c0,0.043-0.033,0.078-0.078,0.078
		C-148.005-148.255-148.038-148.292-148.038-148.335L-148.038-148.335z M-139.196-164.064c0.111-0.043,0.246,0.041,0.299,0.184
		c0.053,0.146,0.002,0.297-0.109,0.34c-0.113,0.041-0.248-0.045-0.301-0.189C-139.358-163.875-139.31-164.023-139.196-164.064
		L-139.196-164.064z"/>
	<path fill="none" stroke="#73797D" stroke-width="0.768" stroke-miterlimit="3.8637" d="M-160.819-126.38
		c0-2.234,1.799-4.043,4.023-4.043c2.223,0,4.021,1.809,4.021,4.043c0,2.232-1.801,4.043-4.021,4.043
		C-159.019-122.337-160.819-124.148-160.819-126.38L-160.819-126.38z M-152.636-116.443h-1.957v-3.779h-12.035v-1.934h13.992
		V-116.443L-152.636-116.443z M-164.888-125.937c0-0.453,0.367-0.822,0.822-0.822c0.453,0,0.82,0.367,0.82,0.822
		c0,0.459-0.367,0.828-0.82,0.828C-164.522-125.113-164.888-125.478-164.888-125.937L-164.888-125.937z M-164.853-126.173
		l-1.404,3.998l2.172-2.938 M-163.284-126.173l1.406,3.998l-2.172-2.938 M-160.243-128.281c-0.203,1.104,1.854,1.09,1.678,1.686
		c-0.42,1.441,0.42,1.387,0.561,2.145c0,0-0.141,1.789,0.348,1.934c0.279-0.387,0.07-1.141,0.418-1.547
		c0.367-0.422,0.877-0.65,0.877-1.402c0-0.545-0.76-0.721-0.98-0.879c-0.244-0.176-0.699-0.318-1.012-0.318
		c0,0-0.805-1.543-0.561-1.824c0.277-0.244,0.699,0.35,0.873,0.35c0.369,0,0.438-0.736,1.012-0.736c0-0.178-0.035-0.723-0.139-0.773
		c-0.576,0-0.941,0.281-1.434-0.316C-158.601-129.966-160.038-129.384-160.243-128.281L-160.243-128.281z M-155.542-130.265
		c-0.449-0.172-1.137-0.104-1.137-0.104c0.594,0.283,0.559,1.07,0.805,1.07c0.488,0,0.732-0.4,1.223-0.49
		C-154.649-129.791-155.093-130.093-155.542-130.265L-155.542-130.265z M-152.812-127.177c0-1.012-1.35-2.262-1.35-2.262
		s-0.662,1.229-0.35,2.492c0.314,0.035,1.225-0.068,1.225-0.068c0.229,0.104,0.137,0.475,0.137,0.699
		c0,0.563-0.174,2.002-0.174,2.002S-152.812-126.164-152.812-127.177L-152.812-127.177z"/>
	<polygon fill="none" stroke="#73797D" stroke-width="0.4937" stroke-miterlimit="3.8637" points="-165.522,-137.873 
		-165.931,-136.986 -166.88,-136.873 -166.187,-136.218 -166.374,-135.273 -165.536,-135.736 -164.681,-135.265 -164.845,-136.228 
		-164.171,-136.873 -165.118,-137.007 	"/>
	
		<line fill="none" stroke="#73797D" stroke-width="1.5431" stroke-miterlimit="3.8635" x1="-148.825" y1="-135.058" x2="-148.825" y2="-111.021"/>
	
		<path fill="none" stroke="#73797D" stroke-width="0.7682" stroke-linecap="round" stroke-linejoin="round" stroke-miterlimit="3.8637" d="
		M-145.356-123.365l-1.031,1.176c-0.139,0.16-0.068,1.246,0.004,1.559c0.816,0.328,12.379,3.965,12.379,3.965l4.703-5.127
		l-0.734-0.316c-0.207-0.336,0.459-1.463,0.459-1.463l-2.277-0.898 M-133.997-118.943c-0.184,0.15-0.141,2.072,0.01,2.287
		c0.008,0,4.688-5.137,4.688-5.137l-0.484-0.439c-0.039-0.463,0.084-1.299,0.084-1.299L-133.997-118.943L-133.997-118.943z
		 M-134.433-122.103c-0.193,0.088-0.309,2.607-0.047,2.623c0-0.002,3.861-4.387,3.861-4.387l-0.375-0.209L-134.433-122.103
		L-134.433-122.103z"/>
	
		<path fill="none" stroke="#73797D" stroke-width="0.4935" stroke-linecap="round" stroke-linejoin="round" stroke-miterlimit="3.8637" d="
		M-143.94-125.429l-1.207,1.232c-0.172,0.09-0.043,1.248,0,1.572c0.424,0.117,10.662,3.156,10.662,3.156l3.854-4.436l-1.223-0.438"
		/>
	<path fill="none" stroke="#73797D" stroke-width="0.768" stroke-miterlimit="3.8637" d="M-132.759-131.847v7.342
		c-1.004-0.238-4.77-0.721-5.154-0.123c-0.313-0.598-3.342-0.328-5.16,0.076v-7.064c-0.229,1.021-0.924,1.395-0.924,1.395v6.227
		l5.365-0.387c0.594,0.387,1.277,0.139,1.502,0.033l5.154,0.168v-6.971C-131.974-131.152-132.483-131.195-132.759-131.847
		L-132.759-131.847z M-132.759-124.505c-1.098,0-4.369-0.879-5.137-0.105c0.699-0.018,0.717,0.438,0,0.457
		c-0.77-0.053-0.646-0.494,0-0.439c-0.664-0.861-5.164,0.178-5.164,0.178l-0.012-7.201c1.25,0,2.543-0.602,3.422-0.602
		c0.881,0,1.801,0.371,1.801,0.371s1.385-0.557,2.361-0.557c1.154,0,1.75,0.943,2.674,0.617
		C-132.829-131.337-132.759-124.505-132.759-124.505L-132.759-124.505z"/>
	
		<line fill="none" stroke="#73797D" stroke-width="0.4937" stroke-miterlimit="3.8637" x1="-137.86" y1="-131.833" x2="-137.905" y2="-124.634"/>
	<path fill="none" stroke="#73797D" stroke-width="0.5336" stroke-miterlimit="3.8637" d="M-143.222-122.029l-0.389,0.391
		c-0.176,0.205-0.18,1.828,0.004,1.912c-0.004,0.025,0.836,0.242,0.463,0.072c-0.08-0.521-0.049-1.645,0.092-1.805l0.422-0.414
		L-143.222-122.029L-143.222-122.029z M-141.878-121.642l-0.367,0.393c-0.18,0.203-0.254,1.869-0.066,1.951
		c-0.004,0.031,0.906,0.199,0.533,0.029c-0.082-0.521-0.049-1.645,0.09-1.805l0.391-0.391L-141.878-121.642L-141.878-121.642z
		 M-138.61-120.675l-0.439,0.459c-0.176,0.205-0.27,1.787-0.088,1.871c-0.004,0.031,0.928,0.283,0.555,0.109
		c-0.08-0.52-0.047-1.645,0.092-1.805l0.473-0.479L-138.61-120.675L-138.61-120.675z M-137.368-120.292l-0.439,0.465
		c-0.178,0.203-0.254,1.797-0.07,1.881c-0.004,0.029,0.91,0.27,0.537,0.1c-0.082-0.521-0.047-1.645,0.092-1.807l0.475-0.479
		L-137.368-120.292L-137.368-120.292z M-143.224-124.039l-0.295,0.299c-0.135,0.156-0.162,1.516-0.02,1.578
		c-0.004,0.023,0.381,0.154,0.436,0.133c0.057-0.002-0.033-0.141-0.059-0.207c-0.063-0.398-0.037-1.252,0.07-1.373l0.318-0.311
		L-143.224-124.039L-143.224-124.039z"/>
	<path fill="none" stroke="#73797D" stroke-width="0.768" stroke-miterlimit="3.8637" d="M-137.843-131.902
		c-1.396-0.037-1.777-1.15-1.777-1.15l0.541-0.025c0,0-0.682-0.412-0.531-0.822c-0.01-0.02,0.477,0.053,0.477,0.053
		s-0.205-0.559-0.018-0.928l0.434,0.18c0.127-0.742,0.895-0.916,0.895-0.916s0.717,0.096,0.924,0.916l0.438-0.18
		c0.186,0.367-0.016,0.928-0.016,0.928s0.486-0.072,0.475-0.053c0.154,0.408-0.529,0.822-0.529,0.822l0.543,0.025
		C-135.993-133.05-136.446-131.937-137.843-131.902L-137.843-131.902z"/>
	
		<line fill="none" stroke="#73797D" stroke-width="1.5431" stroke-miterlimit="3.8635" x1="-170.677" y1="-141.843" x2="-155.601" y2="-141.843"/>
	
		<line fill="none" stroke="#73797D" stroke-width="1.4874" stroke-miterlimit="3.8637" x1="-141.987" y1="-141.843" x2="-127.032" y2="-141.843"/>
	<polygon fill="none" stroke="#FFFFFF" stroke-width="0.768" stroke-miterlimit="3.8637" points="-148.804,-147.414 
		-143.995,-138.958 -153.653,-138.958 	"/>
	<path fill="none" stroke="#73797D" stroke-width="0.768" stroke-miterlimit="3.8637" d="M-148.845-143.234
		c1.742,0,3.254,1.432,3.234,1.658c0.018,0.215-1.494,1.648-3.234,1.648s-3.254-1.434-3.238-1.648
		C-152.101-141.802-150.646-143.302-148.845-143.234L-148.845-143.234z M-150.468-141.58c0-0.898,0.729-1.627,1.619-1.627
		c0.895,0,1.619,0.73,1.619,1.627s-0.725,1.627-1.619,1.627C-149.739-139.955-150.468-140.683-150.468-141.58L-150.468-141.58z"/>
	<path fill="#73797D" stroke="#73797D" stroke-width="0.4937" stroke-miterlimit="3.8637" d="M-149.05-141.58
		c0-0.113,0.092-0.205,0.203-0.205c0.113,0,0.203,0.092,0.203,0.205c0,0.111-0.09,0.203-0.203,0.203
		C-148.958-141.376-149.05-141.468-149.05-141.58L-149.05-141.58z"/>
	<path fill="none" stroke="#73797D" stroke-width="0.768" stroke-miterlimit="3.8637" d="M-148.8-147.593
		c-3.176,0-5.777,2.598-5.777,5.789c0,3.193,2.574,5.781,5.752,5.781s5.752-2.588,5.752-5.781c0-2.871-2.082-5.25-4.813-5.705
		c-1.018,0.076-1.068-0.295-1.105-0.486c-0.092-0.521,0.584-0.826,1.066-0.826c0.84,0,0.768,0.492,1.271,0.598
		c2.674,0.91,4.594,3.453,4.594,6.443c0,3.754-3.027,6.799-6.766,6.799c-3.736,0-6.766-3.045-6.766-6.799
		c0-3.758,2.809-6.652,6.584-6.371C-149.067-147.91-148.8-147.593-148.8-147.593L-148.8-147.593z"/>
	<polygon fill="none" stroke="#73797D" stroke-width="1.3795" stroke-miterlimit="3.8635" points="-148.831,-195.488 
		-150.903,-191.304 -155.583,-190.625 -152.21,-187.281 -152.905,-182.744 -148.831,-184.812 -144.759,-182.744 -145.509,-187.322 
		-142.243,-190.525 -146.729,-191.259 	"/>
	<path fill="none" stroke="#73797D" stroke-width="0.7121" stroke-miterlimit="3.8635" d="M-148.831-195.337v10.523
		 M-155.423-190.527l9.914,3.205 M-152.905-182.744l6.174-8.516 M-144.759-182.744l-6.143-8.561 M-142.243-190.525l-9.967,3.246"/>
	<path fill="none" stroke="#73797D" stroke-width="1.3795" stroke-miterlimit="3.8635" d="M-152.265-187.238l-14.014,4.619
		 M-131.452-194.095l-10.781,3.553 M-150.917-191.312l-8.656-11.945 M-136.771-171.558l-8.064-11.213 M-146.724-191.275
		l8.615-12.035 M-161.079-171.558l8.164-11.213 M-155.468-190.539l-10.762-3.557 M-131.501-182.619l-13.955-4.674 M-148.831-206.808
		v11.74"/>
	<path fill="none" stroke="#73797D" stroke-width="0.7121" stroke-miterlimit="3.8635" d="M-152.454-185.634l-5.758,4.164
		 M-139.429-195.177l-5.664,4.133 M-150.185-184.089l-2.209,6.824 M-145.204-199.49l-2.189,6.771 M-147.442-184.083l2.189,6.771
		 M-152.442-199.552l2.227,6.885 M-145.253-185.728l5.721,4.176 M-158.315-195.263l5.709,4.166 M-144.386-188.328h7.213
		 M-160.442-188.328h7.104"/>
	<path fill="none" stroke="#73797D" stroke-width="0.768" stroke-miterlimit="3.8637" d="M-137.003-157.109
		c0.314,0.469,0.961,1.563,0.943,1.563c0,0-1.52,0.104-2.063-0.402c-0.119-0.182-1.031-1.658-1.031-1.658
		S-137.317-157.578-137.003-157.109L-137.003-157.109z M-164.944-165.007l-2.689,6.188l5.381,0.014L-164.944-165.007
		L-164.944-165.007z M-156.946-158.798c0,1.479,1.223,2.678,2.729,2.678c1.508,0,2.729-1.199,2.729-2.678H-156.946L-156.946-158.798
		z M-154.214-165.007l2.689,6.188l-5.381,0.014L-154.214-165.007L-154.214-165.007z M-160.399-148.525l1.607-0.754
		 M-160.452-149.558l1.609-0.756"/>
	<path fill="none" stroke="#73797D" stroke-width="0.4937" stroke-miterlimit="3.8637" d="M-159.646-165.115h-5.295v-0.631h5.242
		L-159.646-165.115L-159.646-165.115z M-159.562-165.746h5.33v0.631h-5.295L-159.562-165.746L-159.562-165.746z M-141.685-130.259
		c0.732-0.023,1.68-0.748,2.732-0.4 M-141.69-129.457c0.73-0.02,1.684-0.713,2.734-0.361 M-141.698-128.652
		c0.732-0.021,1.691-0.682,2.742-0.33 M-141.704-127.845c0.732-0.023,1.695-0.652,2.746-0.297 M-141.71-127.042
		c0.732-0.02,1.701-0.613,2.75-0.262 M-141.716-126.236c0.73-0.025,1.707-0.582,2.756-0.227 M-134.022-130.496
		c-0.732-0.023-1.711-0.514-2.762-0.164 M-134.022-129.648c-0.732-0.023-1.711-0.521-2.762-0.17 M-134.021-128.8
		c-0.732-0.025-1.711-0.533-2.762-0.182 M-134.021-127.953c-0.732-0.023-1.711-0.545-2.758-0.189 M-134.021-127.105
		c-0.732-0.025-1.709-0.551-2.758-0.199 M-134.019-126.257c-0.734-0.025-1.711-0.563-2.76-0.205"/>
	<polygon fill="none" stroke="#73797D" stroke-width="0.768" stroke-miterlimit="3.8637" points="-148.804,-147.414 
		-143.995,-138.958 -153.653,-138.958 	"/>
	<path fill="none" stroke="#73797D" stroke-width="0.5336" stroke-miterlimit="3.8637" d="M-142.2-123.791l-0.293,0.295
		c-0.135,0.158-0.162,1.518-0.021,1.58c0.068,0.037,0.385,0.188,0.438,0.166c0.057,0-0.043-0.174-0.059-0.236
		c-0.063-0.395-0.037-1.25,0.07-1.375l0.32-0.311L-142.2-123.791L-142.2-123.791z"/>
	<polygon fill="#73797D" points="-149.313,-184.812 -148.437,-184.812 -148.437,-148.927 -148.845,-148.375 -149.009,-148.154 
		-149.282,-148.341 	"/>
	<path fill="none" stroke="#73797D" stroke-width="0.5336" stroke-miterlimit="3.8637" d="M-138.026-122.589l-0.295,0.299
		c-0.133,0.154-0.16,1.514-0.023,1.578c-0.002,0.023,0.385,0.152,0.438,0.135c0.057-0.002-0.033-0.141-0.059-0.209
		c-0.061-0.395-0.037-1.248,0.072-1.367l0.318-0.313L-138.026-122.589L-138.026-122.589z M-136.999-122.343l-0.295,0.297
		c-0.135,0.158-0.16,1.518-0.021,1.58c0.068,0.037,0.383,0.188,0.438,0.168c0.057-0.002-0.041-0.174-0.061-0.24
		c-0.061-0.395-0.035-1.248,0.07-1.371l0.32-0.313L-136.999-122.343L-136.999-122.343z"/>
</g>
<g>
	<path fill="#E30613" d="M-49.036-154.212h5.354v10.139h-5.354v28.811c-1.197,10.176-7.818,17.789-18.539,17.369v-10.129
		c4.568,0.152,7.289-1.59,7.766-7.002l0.027-29.047h-5.051v-10.135h5.051l0.002-6.814c0.254-10.736,6.838-18.631,18.721-17.264
		v10.043c-5.082-0.402-7.93,1.664-7.977,7.303V-154.212L-49.036-154.212z"/>
	<path fill="none" stroke="#73797D" stroke-width="1.5244" stroke-miterlimit="3.8637" d="M20.642-98.013v-80.463 M-111.728-98.013
		v-80.479"/>
	<path fill="#73797D" d="M-101.03-154.048c0-5.748,2.85-7.852,7.979-7.447v-10.045c-11.969-1.377-18.563,6.643-18.725,17.492v9.479
		v32.068h10.746v-32.07h7.572v-9.479h-7.572V-154.048z"/>
	<path fill="#73797D" d="M-74.577-112.501h8.387v-10.365h-7.492c-6.76,0-11.072-4.615-11.072-10.529
		c0-5.912,4.316-10.529,11.072-10.529h7.492v-10.283h-8.387c-12.781,0-20.922,9.15-20.922,20.813S-87.358-112.501-74.577-112.501
		L-74.577-112.501z"/>
	<path fill="#73797D" d="M20.511-136.613c0-10.928-6.916-18.619-18.637-18.619c-5.451,0-10.172,2.266-13.348,5.908
		c-3.012-3.643-7.65-5.908-13.348-5.908c-11.475,0-18.881,8.012-18.881,18.619v24.129h10.742v-24.369
		c0-4.695,3.34-7.936,8.139-7.936c7.08,0,7.814,5.586,7.814,7.936v24.369h10.74v-24.369c0-4.695,3.416-7.936,8.137-7.936
		c7.084,0,7.896,5.586,7.896,7.936v24.369h10.742L20.511-136.613L20.511-136.613z"/>
</g>
<g>
	<path fill="#73797D" d="M32.892-122.509v4.766c0,0.381,0.053,0.744,0.156,1.094c0.113,0.342,0.283,0.637,0.514,0.898
		c0.238,0.254,0.537,0.459,0.9,0.613c0.369,0.145,0.814,0.217,1.332,0.217c0.523,0,0.967-0.072,1.33-0.217
		c0.369-0.154,0.67-0.359,0.9-0.613c0.236-0.262,0.408-0.557,0.512-0.898c0.115-0.35,0.17-0.713,0.17-1.094v-4.766h-0.713v4.607
		c0,0.43-0.045,0.797-0.145,1.102c-0.1,0.301-0.24,0.547-0.428,0.742c-0.189,0.186-0.422,0.328-0.691,0.418
		c-0.273,0.084-0.582,0.123-0.932,0.123c-0.344,0-0.652-0.041-0.924-0.123c-0.275-0.09-0.502-0.23-0.689-0.418
		c-0.189-0.193-0.332-0.439-0.432-0.742c-0.098-0.305-0.145-0.672-0.145-1.102v-4.607H32.892L32.892-122.509z"/>
	<polygon fill="#73797D" points="40.89,-122.509 40.89,-115.07 41.603,-115.07 41.603,-121.363 41.624,-121.363 45.983,-115.07 
		46.78,-115.07 46.78,-122.509 46.065,-122.509 46.065,-116.214 46.044,-116.214 41.687,-122.509 	"/>
	<polygon fill="#73797D" points="49.091,-122.509 49.091,-115.07 49.804,-115.07 49.804,-122.509 	"/>
	<polygon fill="#73797D" points="51.31,-122.509 54.075,-115.07 54.899,-115.07 57.679,-122.509 56.925,-122.509 54.515,-115.851 
		54.493,-115.851 52.063,-122.509 	"/>
	<polygon fill="#73797D" points="59.101,-122.509 59.101,-115.07 64.319,-115.07 64.319,-115.673 59.813,-115.673 59.813,-118.611 
		63.983,-118.611 63.983,-119.214 59.813,-119.214 59.813,-121.902 64.265,-121.902 64.265,-122.509 	"/>
	<path fill="#73797D" d="M66.786-118.976v-2.928h2.662c0.545,0,0.951,0.131,1.215,0.396c0.266,0.262,0.396,0.625,0.396,1.084
		c0,0.227-0.045,0.434-0.135,0.613c-0.086,0.172-0.201,0.322-0.348,0.447c-0.148,0.125-0.318,0.219-0.512,0.289
		c-0.199,0.064-0.402,0.094-0.621,0.094h-2.658V-118.976z M66.075-122.509v7.439h0.711v-3.303h2.703
		c0.336-0.01,0.598,0.043,0.785,0.168c0.197,0.125,0.342,0.291,0.439,0.5c0.102,0.203,0.17,0.438,0.199,0.699
		c0.033,0.258,0.057,0.52,0.074,0.781c0.006,0.078,0.014,0.168,0.021,0.271c0.006,0.102,0.014,0.213,0.018,0.32
		c0.014,0.105,0.033,0.211,0.055,0.313c0.027,0.098,0.061,0.182,0.104,0.25h0.787c-0.08-0.09-0.141-0.211-0.189-0.373
		c-0.043-0.17-0.072-0.342-0.092-0.52c-0.023-0.191-0.035-0.373-0.043-0.557c-0.006-0.18-0.014-0.332-0.02-0.461
		c-0.016-0.219-0.045-0.426-0.096-0.611c-0.043-0.195-0.115-0.365-0.219-0.514c-0.096-0.146-0.227-0.266-0.387-0.354
		c-0.16-0.096-0.363-0.166-0.609-0.197v-0.021c0.48-0.1,0.846-0.318,1.09-0.67c0.244-0.346,0.367-0.756,0.367-1.227
		c0-0.334-0.063-0.621-0.189-0.867c-0.117-0.252-0.279-0.451-0.49-0.605c-0.203-0.158-0.443-0.277-0.723-0.354
		c-0.273-0.076-0.564-0.115-0.873-0.115L66.075-122.509L66.075-122.509z"/>
	<path fill="#73797D" d="M74.159-117.517h-0.711c-0.021,0.459,0.039,0.852,0.178,1.182c0.145,0.322,0.35,0.59,0.615,0.801
		c0.266,0.207,0.588,0.367,0.967,0.467c0.375,0.1,0.785,0.146,1.225,0.146s0.816-0.041,1.133-0.125
		c0.314-0.078,0.576-0.174,0.785-0.305c0.217-0.131,0.385-0.277,0.502-0.436c0.129-0.16,0.221-0.316,0.283-0.471
		c0.072-0.16,0.115-0.309,0.129-0.449c0.02-0.135,0.029-0.246,0.029-0.332c0-0.307-0.053-0.564-0.158-0.783
		c-0.098-0.217-0.236-0.396-0.422-0.539c-0.174-0.154-0.377-0.279-0.617-0.379c-0.227-0.104-0.479-0.189-0.742-0.262l-1.822-0.445
		c-0.152-0.037-0.299-0.08-0.438-0.135c-0.133-0.057-0.252-0.127-0.357-0.219c-0.105-0.09-0.184-0.199-0.25-0.324
		c-0.057-0.133-0.084-0.287-0.084-0.459c0-0.277,0.053-0.514,0.158-0.699c0.104-0.188,0.24-0.336,0.408-0.447
		c0.176-0.117,0.375-0.203,0.598-0.252c0.23-0.057,0.469-0.084,0.711-0.084c0.268,0,0.518,0.037,0.754,0.115
		c0.244,0.07,0.459,0.176,0.641,0.324c0.186,0.137,0.336,0.318,0.449,0.531c0.119,0.211,0.182,0.455,0.197,0.742h0.715
		c0-0.383-0.078-0.719-0.229-1.002c-0.148-0.289-0.348-0.533-0.598-0.729c-0.254-0.193-0.545-0.34-0.879-0.436
		c-0.338-0.1-0.689-0.146-1.059-0.146c-0.525,0-0.953,0.076-1.291,0.229c-0.33,0.145-0.6,0.324-0.793,0.539
		c-0.189,0.219-0.316,0.447-0.389,0.689c-0.07,0.242-0.104,0.453-0.104,0.635c0,0.293,0.045,0.537,0.133,0.74
		c0.1,0.203,0.225,0.375,0.381,0.512c0.154,0.137,0.332,0.248,0.531,0.334c0.211,0.082,0.422,0.156,0.639,0.207l1.664,0.406
		c0.174,0.043,0.352,0.1,0.535,0.168c0.18,0.063,0.346,0.146,0.49,0.252c0.152,0.102,0.275,0.232,0.367,0.385
		c0.098,0.154,0.148,0.33,0.148,0.539c0,0.273-0.07,0.504-0.201,0.699c-0.129,0.188-0.299,0.344-0.502,0.471
		c-0.195,0.119-0.408,0.205-0.639,0.26c-0.23,0.057-0.443,0.082-0.641,0.082c-0.34,0-0.662-0.027-0.961-0.092
		c-0.303-0.07-0.564-0.178-0.787-0.332c-0.219-0.152-0.389-0.355-0.514-0.613C74.212-116.814,74.151-117.136,74.159-117.517
		L74.159-117.517z"/>
	<polygon fill="#73797D" points="81.235,-122.509 81.235,-115.07 81.948,-115.07 81.948,-122.509 	"/>
	<path fill="#73797D" d="M84.274-122.509v7.439h2.584c1.141-0.025,1.998-0.342,2.568-0.947c0.58-0.613,0.869-1.535,0.869-2.773
		c0-1.234-0.287-2.154-0.869-2.762c-0.57-0.609-1.428-0.928-2.568-0.957H84.274L84.274-122.509z M84.983-115.673v-6.23h1.518
		c0.537,0,1,0.059,1.387,0.174c0.391,0.113,0.711,0.291,0.963,0.541c0.25,0.252,0.436,0.574,0.553,0.969
		c0.123,0.395,0.18,0.873,0.18,1.428c0,0.561-0.057,1.035-0.18,1.43c-0.117,0.395-0.305,0.721-0.553,0.967
		c-0.252,0.252-0.572,0.436-0.963,0.551c-0.387,0.113-0.85,0.17-1.387,0.17h-1.518V-115.673z"/>
	<path fill="#73797D" d="M93.269-117.984l1.496-3.814l1.445,3.814H93.269L93.269-117.984z M94.397-122.509l-3.006,7.439h0.758
		l0.898-2.313h3.404l0.912,2.313h0.768l-2.932-7.439H94.397L94.397-122.509z"/>
	<path fill="#73797D" d="M99.571-122.509v7.439h2.588c1.139-0.025,1.994-0.342,2.568-0.947c0.58-0.613,0.869-1.535,0.869-2.773
		c0-1.234-0.289-2.154-0.869-2.762c-0.574-0.609-1.43-0.928-2.568-0.957H99.571L99.571-122.509z M100.284-115.673v-6.23h1.52
		c0.535,0,0.998,0.059,1.383,0.174c0.391,0.113,0.711,0.291,0.961,0.541c0.254,0.252,0.438,0.574,0.557,0.969
		c0.121,0.395,0.176,0.873,0.176,1.428c0,0.561-0.059,1.035-0.176,1.43s-0.305,0.721-0.557,0.967
		c-0.252,0.252-0.57,0.436-0.961,0.551c-0.383,0.113-0.844,0.17-1.383,0.17h-1.52V-115.673z"/>
	<path fill="#73797D" d="M113.812-122.509v7.439h2.588c1.139-0.025,1.994-0.342,2.568-0.947c0.58-0.613,0.869-1.535,0.869-2.773
		c0-1.234-0.289-2.154-0.869-2.762c-0.572-0.609-1.43-0.928-2.568-0.957H113.812L113.812-122.509z M114.524-115.673v-6.23h1.52
		c0.535,0,0.998,0.059,1.383,0.174c0.389,0.113,0.711,0.291,0.963,0.541s0.438,0.574,0.557,0.969s0.176,0.873,0.176,1.428
		c0,0.561-0.059,1.035-0.176,1.43s-0.305,0.721-0.557,0.967c-0.252,0.252-0.574,0.436-0.963,0.551
		c-0.383,0.113-0.846,0.17-1.383,0.17h-1.52V-115.673z"/>
	<polygon fill="#73797D" points="121.749,-122.509 121.749,-115.07 126.968,-115.07 126.968,-115.673 122.464,-115.673 
		122.464,-118.611 126.632,-118.611 126.632,-119.214 122.464,-119.214 122.464,-121.902 126.913,-121.902 126.913,-122.509 	"/>
	<path fill="#73797D" d="M140.495-120.259h0.713c-0.051-0.389-0.168-0.732-0.357-1.029c-0.182-0.299-0.41-0.551-0.691-0.75
		c-0.271-0.213-0.58-0.369-0.922-0.471c-0.338-0.102-0.682-0.154-1.037-0.154c-0.584,0-1.102,0.107-1.549,0.322
		c-0.438,0.207-0.807,0.494-1.1,0.854c-0.293,0.355-0.516,0.766-0.66,1.229c-0.145,0.467-0.221,0.957-0.221,1.469
		c0,0.518,0.076,1.006,0.221,1.469c0.146,0.467,0.367,0.881,0.66,1.234c0.293,0.355,0.66,0.639,1.1,0.854
		c0.447,0.209,0.965,0.311,1.549,0.311c0.439,0,0.838-0.07,1.193-0.207c0.361-0.141,0.678-0.34,0.941-0.594
		c0.264-0.258,0.482-0.572,0.65-0.936c0.166-0.373,0.275-0.785,0.326-1.242h-0.713c-0.035,0.332-0.115,0.646-0.24,0.936
		c-0.127,0.287-0.293,0.533-0.492,0.75c-0.203,0.217-0.443,0.387-0.727,0.512c-0.277,0.125-0.594,0.186-0.941,0.186
		c-0.494,0-0.922-0.092-1.277-0.277c-0.354-0.189-0.65-0.438-0.881-0.74c-0.221-0.313-0.391-0.664-0.502-1.053
		c-0.104-0.395-0.156-0.793-0.156-1.199s0.053-0.807,0.156-1.197c0.111-0.385,0.279-0.734,0.502-1.039
		c0.232-0.313,0.527-0.563,0.881-0.75c0.355-0.188,0.783-0.281,1.277-0.281c0.271,0,0.533,0.045,0.775,0.123
		c0.252,0.078,0.479,0.191,0.684,0.348c0.209,0.15,0.383,0.346,0.525,0.57C140.327-120.796,140.431-120.541,140.495-120.259
		L140.495-120.259z"/>
	<polygon fill="#73797D" points="143.163,-122.509 143.163,-115.07 143.876,-115.07 143.876,-118.673 148.317,-118.673 
		148.317,-115.07 149.03,-115.07 149.03,-122.509 148.317,-122.509 148.317,-119.277 143.876,-119.277 143.876,-122.509 	"/>
	<polygon fill="#73797D" points="151.351,-122.509 151.351,-115.07 152.063,-115.07 152.063,-122.509 	"/>
	<polygon fill="#73797D" points="154.388,-122.509 154.388,-115.07 159.288,-115.07 159.288,-115.673 155.101,-115.673 
		155.101,-122.509 	"/>
	<polygon fill="#73797D" points="160.776,-122.509 160.776,-115.07 165.993,-115.07 165.993,-115.673 161.491,-115.673 
		161.491,-118.611 165.657,-118.611 165.657,-119.214 161.491,-119.214 161.491,-121.902 165.938,-121.902 165.938,-122.509 	"/>
	<polygon fill="#73797D" points="32.964,-133.451 32.964,-126.009 33.675,-126.009 33.675,-129.552 37.259,-129.552 
		37.259,-130.158 33.675,-130.158 33.675,-132.847 37.71,-132.847 37.71,-133.451 	"/>
	<path fill="#73797D" d="M39.433-134.044l1.383-1.471h-0.816l-1.098,1.471H39.433L39.433-134.044z M39.159-133.451v7.441h0.711
		v-7.441H39.159L39.159-133.451z"/>
	<path fill="#73797D" d="M42.284-128.457h-0.711c-0.023,0.457,0.039,0.85,0.178,1.178c0.146,0.326,0.352,0.594,0.617,0.803
		c0.264,0.207,0.588,0.363,0.963,0.469c0.379,0.096,0.785,0.145,1.227,0.145s0.818-0.043,1.135-0.125
		c0.313-0.076,0.572-0.176,0.783-0.305c0.217-0.133,0.385-0.277,0.504-0.434c0.125-0.162,0.221-0.318,0.283-0.471
		c0.068-0.16,0.111-0.311,0.127-0.447c0.02-0.139,0.029-0.25,0.029-0.332c0-0.307-0.051-0.566-0.154-0.783
		c-0.098-0.215-0.24-0.395-0.422-0.541c-0.174-0.152-0.379-0.279-0.617-0.377c-0.23-0.104-0.48-0.188-0.744-0.26l-1.824-0.447
		c-0.152-0.033-0.299-0.08-0.439-0.135c-0.133-0.055-0.25-0.125-0.357-0.219c-0.104-0.09-0.186-0.199-0.252-0.324
		c-0.057-0.129-0.08-0.281-0.08-0.457c0-0.279,0.049-0.51,0.154-0.697c0.105-0.186,0.242-0.338,0.408-0.447
		c0.176-0.119,0.375-0.203,0.598-0.25c0.229-0.055,0.469-0.082,0.711-0.082c0.266,0,0.52,0.035,0.758,0.115
		c0.242,0.068,0.457,0.176,0.637,0.322c0.189,0.137,0.34,0.316,0.451,0.531c0.119,0.207,0.184,0.453,0.199,0.736h0.711
		c0-0.377-0.076-0.711-0.229-0.996c-0.146-0.295-0.346-0.533-0.6-0.73c-0.25-0.197-0.543-0.342-0.877-0.438
		c-0.338-0.096-0.688-0.148-1.059-0.148c-0.525,0-0.953,0.078-1.289,0.23c-0.334,0.146-0.598,0.328-0.795,0.541
		c-0.189,0.215-0.318,0.445-0.387,0.689c-0.07,0.24-0.105,0.455-0.105,0.635c0,0.291,0.043,0.537,0.137,0.738
		c0.098,0.201,0.225,0.375,0.377,0.508c0.154,0.139,0.33,0.252,0.533,0.334c0.209,0.084,0.426,0.156,0.639,0.211l1.666,0.408
		c0.174,0.039,0.354,0.094,0.535,0.166c0.182,0.064,0.348,0.148,0.492,0.25c0.152,0.104,0.275,0.232,0.367,0.387
		c0.094,0.152,0.145,0.334,0.145,0.539c0,0.273-0.066,0.506-0.199,0.699c-0.131,0.186-0.301,0.346-0.504,0.467
		c-0.193,0.119-0.406,0.205-0.639,0.264c-0.229,0.055-0.443,0.082-0.639,0.082c-0.34,0-0.662-0.031-0.963-0.094
		c-0.301-0.068-0.561-0.178-0.785-0.332c-0.217-0.15-0.387-0.355-0.516-0.613C42.337-127.755,42.278-128.076,42.284-128.457
		L42.284-128.457z"/>
	<polygon fill="#73797D" points="49.118,-133.451 49.118,-126.009 49.833,-126.009 49.833,-133.451 	"/>
	<path fill="#73797D" d="M57.376-131.203h0.713c-0.047-0.387-0.17-0.732-0.355-1.029c-0.18-0.301-0.412-0.549-0.691-0.748
		c-0.273-0.209-0.58-0.367-0.92-0.471c-0.336-0.105-0.682-0.158-1.039-0.158c-0.586,0-1.104,0.107-1.547,0.326
		c-0.439,0.205-0.807,0.492-1.1,0.85c-0.295,0.355-0.514,0.77-0.66,1.23c-0.145,0.469-0.219,0.959-0.219,1.471
		s0.074,1.004,0.219,1.471c0.148,0.463,0.367,0.875,0.66,1.229c0.293,0.357,0.66,0.641,1.1,0.854
		c0.443,0.211,0.961,0.314,1.547,0.314c0.441,0,0.84-0.068,1.195-0.207c0.363-0.139,0.678-0.338,0.941-0.594
		c0.264-0.258,0.482-0.568,0.65-0.934c0.168-0.373,0.275-0.783,0.326-1.244h-0.715c-0.035,0.334-0.115,0.646-0.24,0.938
		c-0.125,0.285-0.291,0.535-0.492,0.752s-0.441,0.383-0.723,0.512c-0.279,0.123-0.592,0.184-0.943,0.184
		c-0.494,0-0.92-0.092-1.277-0.279c-0.354-0.186-0.648-0.436-0.879-0.74c-0.225-0.311-0.391-0.662-0.502-1.053
		c-0.107-0.395-0.158-0.793-0.158-1.197c0-0.408,0.051-0.809,0.158-1.195c0.111-0.391,0.277-0.738,0.502-1.047
		c0.229-0.311,0.525-0.563,0.879-0.746c0.357-0.189,0.783-0.281,1.277-0.281c0.273,0,0.531,0.041,0.777,0.127
		c0.252,0.078,0.477,0.189,0.68,0.342c0.213,0.156,0.385,0.348,0.525,0.576C57.208-131.738,57.315-131.482,57.376-131.203
		L57.376-131.203z"/>
	<path fill="#73797D" d="M60.86-128.927l1.496-3.816l1.447,3.816H60.86L60.86-128.927z M61.991-133.451l-3.006,7.441h0.756
		l0.9-2.313h3.406l0.912,2.313h0.768l-2.936-7.441H61.991L61.991-133.451z"/>
	<path fill="#73797D" d="M67.253-128.457H66.54c-0.02,0.457,0.039,0.85,0.176,1.178c0.148,0.326,0.354,0.594,0.621,0.803
		c0.266,0.207,0.586,0.363,0.963,0.469c0.375,0.096,0.785,0.145,1.223,0.145c0.441,0,0.816-0.043,1.131-0.125
		c0.316-0.076,0.58-0.176,0.789-0.305c0.217-0.133,0.381-0.277,0.504-0.434c0.127-0.162,0.219-0.318,0.279-0.471
		c0.074-0.16,0.113-0.311,0.127-0.447c0.021-0.139,0.033-0.25,0.033-0.332c0-0.307-0.053-0.566-0.158-0.783
		c-0.098-0.215-0.236-0.395-0.418-0.541c-0.176-0.152-0.381-0.279-0.617-0.377c-0.232-0.104-0.48-0.188-0.744-0.26l-1.824-0.447
		c-0.156-0.033-0.301-0.08-0.439-0.135c-0.131-0.055-0.252-0.125-0.354-0.219c-0.105-0.088-0.189-0.199-0.254-0.324
		c-0.053-0.129-0.084-0.281-0.084-0.457c0-0.279,0.053-0.51,0.158-0.697c0.105-0.186,0.24-0.338,0.408-0.447
		c0.174-0.119,0.373-0.203,0.596-0.25c0.23-0.055,0.469-0.082,0.715-0.082c0.264,0,0.514,0.035,0.75,0.115
		c0.246,0.068,0.459,0.176,0.637,0.322c0.189,0.137,0.342,0.316,0.449,0.531c0.123,0.207,0.186,0.453,0.203,0.736h0.711
		c0-0.377-0.078-0.711-0.23-0.996c-0.145-0.295-0.346-0.533-0.594-0.73c-0.254-0.197-0.545-0.342-0.883-0.438
		c-0.332-0.096-0.688-0.148-1.057-0.148c-0.523,0-0.955,0.078-1.287,0.23c-0.336,0.146-0.602,0.328-0.795,0.541
		c-0.188,0.215-0.318,0.445-0.389,0.689c-0.07,0.24-0.105,0.455-0.105,0.635c0,0.291,0.047,0.537,0.137,0.738
		c0.096,0.201,0.221,0.375,0.377,0.508c0.154,0.139,0.33,0.252,0.535,0.334c0.207,0.084,0.418,0.156,0.637,0.211l1.666,0.408
		c0.172,0.039,0.354,0.094,0.533,0.166c0.18,0.064,0.342,0.148,0.492,0.25c0.15,0.104,0.275,0.232,0.363,0.387
		c0.1,0.152,0.148,0.334,0.148,0.539c0,0.273-0.066,0.506-0.199,0.699c-0.133,0.186-0.303,0.346-0.504,0.467
		c-0.195,0.119-0.408,0.205-0.637,0.264c-0.23,0.055-0.445,0.082-0.641,0.082c-0.342,0-0.664-0.031-0.963-0.094
		c-0.301-0.068-0.564-0.178-0.787-0.332c-0.219-0.15-0.387-0.355-0.514-0.613C67.306-127.755,67.249-128.076,67.253-128.457
		L67.253-128.457z"/>
	<polygon fill="#73797D" points="81.2,-129.074 81.2,-126.009 81.913,-126.009 81.913,-129.074 84.864,-133.451 84.019,-133.451 
		81.567,-129.679 79.106,-133.451 78.267,-133.451 	"/>
	<polygon fill="#73797D" points="91.093,-133.451 91.093,-126.009 91.806,-126.009 91.806,-132.437 91.825,-132.437 
		94.392,-126.009 95.063,-126.009 97.62,-132.437 97.638,-132.437 97.638,-126.009 98.353,-126.009 98.353,-133.451 
		97.304,-133.451 94.728,-126.925 92.142,-133.451 	"/>
	<path fill="#73797D" d="M101.413-128.927l1.5-3.816l1.445,3.816H101.413L101.413-128.927z M102.548-133.451l-3.01,7.441h0.754
		l0.904-2.313h3.4l0.912,2.313h0.766l-2.934-7.441H102.548L102.548-133.451z"/>
	<polygon fill="#73797D" points="105.964,-133.451 105.964,-132.847 108.563,-132.847 108.563,-126.009 109.276,-126.009 
		109.276,-132.847 111.884,-132.847 111.884,-133.451 	"/>
	<polygon fill="#73797D" points="113.103,-133.451 113.103,-126.009 118.321,-126.009 118.321,-126.615 113.815,-126.615 
		113.815,-129.552 117.983,-129.552 117.983,-130.158 113.815,-130.158 113.815,-132.847 118.271,-132.847 118.271,-133.451 	"/>
	<polygon fill="#73797D" points="119.812,-133.451 119.812,-126.009 120.522,-126.009 120.522,-132.437 120.544,-132.437 
		123.11,-126.009 123.78,-126.009 126.339,-132.437 126.36,-132.437 126.36,-126.009 127.073,-126.009 127.073,-133.451 
		126.022,-133.451 123.446,-126.925 120.86,-133.451 	"/>
	<path fill="#73797D" d="M131.538-134.044l1.383-1.471h-0.818l-1.1,1.471H131.538L131.538-134.044z M130.136-128.927l1.496-3.816
		l1.445,3.816H130.136L130.136-128.927z M131.267-133.451l-3.01,7.441h0.756l0.902-2.313h3.404l0.912,2.313h0.768l-2.936-7.441
		H131.267L131.267-133.451z"/>
	<polygon fill="#73797D" points="135.396,-133.451 135.396,-132.847 137.995,-132.847 137.995,-126.009 138.708,-126.009 
		138.708,-132.847 141.315,-132.847 141.315,-133.451 	"/>
	<polygon fill="#73797D" points="142.589,-133.451 142.589,-126.009 143.302,-126.009 143.302,-133.451 	"/>
	<path fill="#73797D" d="M150.845-131.203h0.713c-0.049-0.387-0.168-0.732-0.355-1.029c-0.184-0.301-0.412-0.549-0.691-0.748
		c-0.27-0.209-0.578-0.367-0.922-0.471c-0.336-0.105-0.68-0.158-1.035-0.158c-0.586,0-1.102,0.107-1.549,0.326
		c-0.438,0.205-0.807,0.492-1.098,0.85c-0.295,0.355-0.516,0.77-0.66,1.23c-0.145,0.469-0.221,0.959-0.221,1.471
		s0.076,1.004,0.221,1.471c0.145,0.463,0.367,0.875,0.66,1.229c0.293,0.357,0.66,0.641,1.098,0.854
		c0.447,0.211,0.963,0.314,1.549,0.314c0.439,0,0.836-0.068,1.193-0.207c0.363-0.139,0.678-0.338,0.943-0.594
		c0.264-0.258,0.48-0.568,0.648-0.934c0.168-0.373,0.275-0.783,0.326-1.244h-0.713c-0.035,0.334-0.115,0.646-0.242,0.938
		c-0.125,0.285-0.289,0.535-0.49,0.752c-0.205,0.217-0.445,0.383-0.725,0.512c-0.279,0.123-0.592,0.184-0.941,0.184
		c-0.496,0-0.924-0.092-1.277-0.279c-0.357-0.186-0.65-0.436-0.881-0.74c-0.223-0.311-0.391-0.662-0.504-1.053
		c-0.105-0.395-0.158-0.793-0.158-1.197c0-0.408,0.053-0.809,0.158-1.195c0.113-0.391,0.281-0.738,0.504-1.047
		c0.232-0.311,0.523-0.563,0.881-0.746c0.354-0.189,0.781-0.281,1.277-0.281c0.273,0,0.531,0.041,0.775,0.127
		c0.254,0.078,0.479,0.189,0.682,0.342c0.211,0.156,0.385,0.348,0.523,0.576C150.681-131.738,150.784-131.482,150.845-131.203
		L150.845-131.203z"/>
	<path fill="#73797D" d="M154.329-128.927l1.498-3.816l1.443,3.816H154.329L154.329-128.927z M155.46-133.451l-3.006,7.441h0.756
		l0.9-2.313h3.404l0.912,2.313h0.768l-2.936-7.441H155.46L155.46-133.451z"/>
	<path fill="#73797D" d="M160.722-128.457h-0.711c-0.021,0.457,0.037,0.85,0.176,1.178c0.148,0.326,0.352,0.594,0.619,0.803
		c0.266,0.207,0.586,0.363,0.963,0.469c0.377,0.096,0.785,0.145,1.225,0.145c0.443,0,0.818-0.043,1.133-0.125
		c0.314-0.076,0.574-0.176,0.787-0.305c0.215-0.133,0.381-0.277,0.5-0.434c0.127-0.162,0.221-0.318,0.285-0.471
		c0.066-0.16,0.111-0.311,0.127-0.447c0.018-0.139,0.029-0.25,0.029-0.332c0-0.307-0.051-0.566-0.156-0.783
		c-0.1-0.215-0.238-0.395-0.42-0.541c-0.174-0.152-0.379-0.279-0.617-0.377c-0.23-0.104-0.479-0.188-0.744-0.26l-1.824-0.447
		c-0.152-0.033-0.299-0.08-0.441-0.135c-0.133-0.055-0.25-0.125-0.355-0.219c-0.104-0.09-0.186-0.199-0.252-0.324
		c-0.057-0.129-0.082-0.281-0.082-0.457c0-0.279,0.049-0.51,0.156-0.697c0.105-0.186,0.238-0.338,0.408-0.447
		c0.174-0.119,0.373-0.203,0.598-0.25c0.229-0.055,0.467-0.082,0.711-0.082c0.264,0,0.518,0.035,0.754,0.115
		c0.242,0.068,0.457,0.176,0.637,0.322c0.188,0.137,0.34,0.316,0.453,0.531c0.119,0.207,0.184,0.453,0.199,0.736h0.713
		c0-0.377-0.076-0.711-0.23-0.996c-0.145-0.295-0.346-0.533-0.594-0.73c-0.252-0.197-0.545-0.342-0.883-0.438
		c-0.334-0.096-0.686-0.148-1.057-0.148c-0.525,0-0.955,0.078-1.289,0.23c-0.334,0.146-0.6,0.328-0.795,0.541
		c-0.184,0.215-0.316,0.445-0.387,0.689c-0.07,0.24-0.105,0.455-0.105,0.635c0,0.291,0.043,0.537,0.137,0.738
		c0.1,0.201,0.223,0.375,0.377,0.508c0.154,0.139,0.332,0.252,0.533,0.334c0.211,0.084,0.426,0.156,0.643,0.211l1.664,0.408
		c0.172,0.039,0.354,0.094,0.533,0.166c0.182,0.064,0.348,0.148,0.492,0.25c0.152,0.104,0.279,0.232,0.367,0.387
		c0.1,0.152,0.145,0.334,0.145,0.539c0,0.273-0.064,0.506-0.197,0.699c-0.131,0.186-0.299,0.346-0.504,0.467
		c-0.195,0.119-0.408,0.205-0.639,0.264c-0.232,0.055-0.445,0.082-0.639,0.082c-0.344,0-0.662-0.031-0.961-0.094
		c-0.303-0.068-0.564-0.178-0.785-0.332c-0.219-0.15-0.389-0.355-0.518-0.613C160.776-127.755,160.716-128.076,160.722-128.457
		L160.722-128.457z"/>
	<polygon fill="#73797D" points="32.964,-144.392 32.964,-136.949 33.675,-136.949 33.675,-140.496 37.259,-140.496 
		37.259,-141.097 33.675,-141.097 33.675,-143.789 37.71,-143.789 37.71,-144.392 	"/>
	<path fill="#73797D" d="M39.802-139.869l1.5-3.813l1.445,3.813H39.802L39.802-139.869z M40.933-144.392l-3.006,7.443h0.752
		l0.9-2.314h3.406l0.912,2.314h0.766l-2.936-7.443H40.933L40.933-144.392z"/>
	<path fill="#73797D" d="M51.54-142.14h0.713c-0.049-0.391-0.168-0.736-0.355-1.033c-0.18-0.299-0.412-0.549-0.691-0.75
		c-0.271-0.209-0.578-0.365-0.922-0.471c-0.336-0.104-0.68-0.154-1.037-0.154c-0.586,0-1.102,0.105-1.547,0.326
		c-0.441,0.205-0.809,0.488-1.102,0.854c-0.293,0.352-0.514,0.764-0.66,1.229s-0.223,0.955-0.223,1.471
		c0,0.512,0.076,1.004,0.223,1.465c0.146,0.471,0.367,0.875,0.66,1.232c0.293,0.354,0.66,0.637,1.102,0.855
		c0.445,0.203,0.961,0.311,1.547,0.311c0.439,0,0.836-0.072,1.195-0.209c0.363-0.139,0.678-0.336,0.941-0.594
		s0.482-0.568,0.65-0.939c0.17-0.365,0.275-0.781,0.324-1.238h-0.711c-0.033,0.332-0.115,0.646-0.24,0.938
		c-0.127,0.283-0.291,0.535-0.492,0.75s-0.443,0.383-0.725,0.512c-0.277,0.125-0.592,0.188-0.941,0.188
		c-0.492,0-0.922-0.094-1.279-0.283c-0.354-0.186-0.646-0.432-0.877-0.738c-0.223-0.313-0.391-0.664-0.504-1.053
		c-0.105-0.395-0.158-0.795-0.158-1.195c0-0.412,0.051-0.813,0.158-1.199c0.113-0.391,0.281-0.736,0.504-1.045
		c0.229-0.313,0.525-0.563,0.877-0.75c0.357-0.186,0.787-0.281,1.279-0.281c0.273,0,0.531,0.045,0.777,0.129
		c0.254,0.078,0.48,0.191,0.682,0.342c0.209,0.154,0.381,0.344,0.523,0.574C51.374-142.679,51.478-142.429,51.54-142.14
		L51.54-142.14z"/>
	<path fill="#73797D" d="M54.106-144.392v4.764c0,0.383,0.051,0.748,0.156,1.094c0.111,0.342,0.283,0.641,0.512,0.896
		c0.238,0.258,0.537,0.465,0.902,0.615c0.371,0.145,0.816,0.221,1.332,0.221c0.523,0,0.967-0.076,1.33-0.221
		c0.371-0.15,0.672-0.357,0.9-0.615c0.236-0.258,0.408-0.557,0.512-0.896c0.113-0.346,0.17-0.711,0.17-1.094v-4.764h-0.713v4.605
		c0,0.432-0.049,0.799-0.148,1.105c-0.096,0.297-0.236,0.543-0.428,0.74c-0.189,0.186-0.422,0.324-0.689,0.416
		c-0.273,0.084-0.588,0.127-0.936,0.127c-0.342,0-0.65-0.043-0.92-0.127c-0.273-0.092-0.502-0.23-0.691-0.416
		c-0.189-0.197-0.332-0.441-0.432-0.74c-0.096-0.307-0.143-0.674-0.143-1.105v-4.605H54.106L54.106-144.392z"/>
	<polygon fill="#73797D" points="62.085,-144.392 62.085,-136.949 66.989,-136.949 66.989,-137.556 62.796,-137.556 
		62.796,-144.392 	"/>
	<polygon fill="#73797D" points="66.681,-144.392 66.681,-143.789 69.276,-143.789 69.276,-136.949 69.989,-136.949 
		69.989,-143.789 72.599,-143.789 72.599,-144.392 	"/>
	<path fill="#73797D" d="M74.376-139.869l1.498-3.813l1.445,3.813H74.376L74.376-139.869z M75.507-144.392l-3.004,7.443h0.752
		l0.902-2.314h3.404l0.914,2.314h0.764l-2.932-7.443H75.507L75.507-144.392z"/>
	<path fill="#73797D" d="M80.649-144.392v7.443h2.586c1.139-0.027,1.996-0.342,2.568-0.949c0.58-0.611,0.871-1.537,0.871-2.771
		c0-1.236-0.289-2.154-0.871-2.762c-0.57-0.613-1.43-0.932-2.568-0.961H80.649L80.649-144.392z M81.358-137.556v-6.232h1.521
		c0.535,0,0.998,0.061,1.381,0.174c0.391,0.113,0.713,0.297,0.961,0.545c0.254,0.25,0.438,0.572,0.557,0.967
		c0.121,0.396,0.178,0.875,0.178,1.432c0,0.553-0.059,1.027-0.178,1.424c-0.117,0.395-0.303,0.721-0.557,0.973
		c-0.248,0.25-0.57,0.434-0.961,0.553c-0.383,0.111-0.844,0.166-1.381,0.166H81.358L81.358-137.556z"/>
	<path fill="#73797D" d="M94.698-144.392v7.443h2.584c1.141-0.027,1.998-0.342,2.568-0.949c0.582-0.611,0.871-1.537,0.871-2.771
		c0-1.236-0.289-2.154-0.871-2.762c-0.57-0.613-1.428-0.932-2.568-0.961H94.698L94.698-144.392z M95.409-137.556v-6.232h1.52
		c0.537,0,0.998,0.061,1.385,0.174c0.391,0.113,0.713,0.297,0.963,0.545c0.25,0.25,0.434,0.572,0.553,0.967
		c0.123,0.396,0.178,0.875,0.178,1.432c0,0.553-0.057,1.027-0.178,1.424c-0.119,0.395-0.303,0.721-0.553,0.973
		c-0.25,0.25-0.574,0.434-0.963,0.553c-0.387,0.111-0.846,0.166-1.385,0.166H95.409L95.409-137.556z"/>
	<polygon fill="#73797D" points="102.604,-144.392 102.604,-136.949 107.821,-136.949 107.821,-137.556 103.315,-137.556 
		103.315,-140.496 107.485,-140.496 107.485,-141.097 103.315,-141.097 103.315,-143.789 107.769,-143.789 107.769,-144.392 	"/>
	<path fill="#73797D" d="M121.157-142.14h0.713c-0.051-0.391-0.168-0.736-0.357-1.033c-0.178-0.299-0.412-0.549-0.691-0.75
		c-0.273-0.209-0.58-0.365-0.92-0.471c-0.336-0.104-0.682-0.154-1.039-0.154c-0.586,0-1.104,0.105-1.549,0.326
		c-0.439,0.205-0.807,0.488-1.1,0.854c-0.291,0.352-0.514,0.764-0.656,1.229c-0.148,0.465-0.223,0.955-0.223,1.471
		c0,0.512,0.078,1.004,0.223,1.465c0.143,0.471,0.367,0.875,0.656,1.232c0.293,0.354,0.66,0.637,1.1,0.855
		c0.445,0.203,0.963,0.311,1.549,0.311c0.439,0,0.838-0.072,1.195-0.209c0.363-0.139,0.678-0.336,0.941-0.594
		c0.266-0.258,0.484-0.568,0.652-0.939c0.168-0.365,0.275-0.781,0.324-1.238h-0.715c-0.037,0.332-0.115,0.646-0.24,0.938
		c-0.125,0.283-0.287,0.535-0.492,0.75c-0.199,0.215-0.439,0.383-0.721,0.512c-0.279,0.125-0.596,0.188-0.943,0.188
		c-0.494,0-0.922-0.094-1.279-0.283c-0.354-0.186-0.646-0.432-0.875-0.738c-0.225-0.313-0.395-0.664-0.504-1.053
		c-0.105-0.395-0.156-0.795-0.156-1.195c0-0.412,0.051-0.813,0.156-1.199c0.111-0.391,0.279-0.736,0.504-1.045
		c0.229-0.313,0.523-0.563,0.875-0.75c0.357-0.186,0.785-0.281,1.279-0.281c0.273,0,0.531,0.045,0.777,0.129
		c0.25,0.078,0.479,0.191,0.682,0.342c0.209,0.154,0.385,0.344,0.525,0.574C120.989-142.679,121.095-142.429,121.157-142.14
		L121.157-142.14z"/>
	<polygon fill="#73797D" points="123.845,-144.392 123.845,-136.949 124.558,-136.949 124.558,-144.392 	"/>
	<polygon fill="#73797D" points="126.851,-144.392 126.851,-136.949 132.065,-136.949 132.065,-137.556 127.562,-137.556 
		127.562,-140.496 131.731,-140.496 131.731,-141.097 127.562,-141.097 127.562,-143.789 132.015,-143.789 132.015,-144.392 	"/>
	<polygon fill="#73797D" points="133.782,-144.392 133.782,-136.949 134.495,-136.949 134.495,-143.248 134.513,-143.248 
		138.874,-136.949 139.669,-136.949 139.669,-144.392 138.956,-144.392 138.956,-138.097 138.937,-138.097 134.577,-144.392 	"/>
	<path fill="#73797D" d="M147.364-142.14h0.713c-0.049-0.391-0.166-0.736-0.355-1.033c-0.18-0.299-0.41-0.549-0.691-0.75
		c-0.271-0.209-0.578-0.365-0.922-0.471c-0.332-0.104-0.678-0.154-1.037-0.154c-0.584,0-1.102,0.105-1.549,0.326
		c-0.439,0.205-0.809,0.488-1.098,0.854c-0.295,0.352-0.518,0.764-0.662,1.229c-0.146,0.465-0.221,0.955-0.221,1.471
		c0,0.512,0.076,1.004,0.221,1.465c0.145,0.471,0.367,0.875,0.662,1.232c0.291,0.354,0.658,0.637,1.098,0.855
		c0.445,0.203,0.965,0.311,1.549,0.311c0.441,0,0.838-0.072,1.195-0.209c0.363-0.139,0.68-0.336,0.941-0.594
		c0.264-0.258,0.482-0.568,0.65-0.939c0.166-0.365,0.273-0.781,0.324-1.238h-0.713c-0.035,0.332-0.113,0.646-0.24,0.938
		c-0.125,0.283-0.291,0.535-0.488,0.75c-0.205,0.215-0.445,0.383-0.725,0.512c-0.279,0.125-0.594,0.188-0.941,0.188
		c-0.494,0-0.924-0.094-1.279-0.283c-0.355-0.186-0.646-0.432-0.879-0.738c-0.223-0.313-0.391-0.664-0.5-1.053
		c-0.105-0.395-0.16-0.795-0.16-1.195c0-0.412,0.055-0.813,0.16-1.199c0.109-0.391,0.277-0.736,0.5-1.045
		c0.232-0.313,0.525-0.563,0.879-0.75c0.355-0.186,0.785-0.281,1.279-0.281c0.273,0,0.531,0.045,0.773,0.129
		c0.252,0.078,0.479,0.191,0.684,0.342c0.211,0.154,0.387,0.344,0.525,0.574C147.196-142.679,147.302-142.429,147.364-142.14
		L147.364-142.14z"/>
	<polygon fill="#73797D" points="150.056,-144.392 150.056,-136.949 150.769,-136.949 150.769,-144.392 	"/>
	<path fill="#73797D" d="M154.116-139.869l1.498-3.813l1.445,3.813H154.116L154.116-139.869z M155.247-144.392l-3.008,7.443h0.754
		l0.9-2.314h3.402l0.918,2.314h0.762l-2.932-7.443H155.247L155.247-144.392z"/>
	<path fill="#73797D" d="M160.722-139.4h-0.711c-0.021,0.459,0.037,0.848,0.176,1.178c0.148,0.328,0.352,0.596,0.619,0.803
		c0.266,0.211,0.586,0.363,0.963,0.473c0.377,0.096,0.785,0.145,1.225,0.145c0.443,0,0.818-0.045,1.133-0.127
		c0.314-0.074,0.574-0.176,0.787-0.299c0.215-0.133,0.381-0.277,0.5-0.438c0.127-0.162,0.221-0.318,0.285-0.471
		c0.066-0.158,0.111-0.309,0.127-0.449c0.018-0.139,0.029-0.25,0.029-0.334c0-0.303-0.051-0.564-0.156-0.779
		c-0.1-0.217-0.238-0.395-0.42-0.539c-0.174-0.154-0.379-0.279-0.617-0.379c-0.23-0.104-0.479-0.189-0.744-0.262l-1.824-0.443
		c-0.152-0.037-0.299-0.08-0.441-0.137c-0.133-0.053-0.25-0.127-0.355-0.219c-0.104-0.09-0.186-0.197-0.252-0.324
		c-0.057-0.131-0.082-0.281-0.082-0.455c0-0.279,0.049-0.514,0.156-0.703c0.105-0.184,0.238-0.334,0.408-0.443
		c0.174-0.121,0.373-0.203,0.598-0.25c0.229-0.055,0.467-0.086,0.711-0.086c0.264,0,0.518,0.041,0.754,0.119
		c0.242,0.068,0.457,0.176,0.637,0.32c0.188,0.139,0.34,0.314,0.453,0.533c0.119,0.207,0.184,0.455,0.199,0.74h0.713
		c0-0.383-0.076-0.719-0.23-1.004c-0.145-0.289-0.346-0.531-0.594-0.727c-0.252-0.195-0.545-0.34-0.883-0.441
		c-0.334-0.098-0.686-0.143-1.057-0.143c-0.525,0-0.955,0.078-1.289,0.229c-0.334,0.146-0.6,0.328-0.795,0.543
		c-0.184,0.215-0.316,0.443-0.387,0.689c-0.07,0.242-0.105,0.453-0.105,0.635c0,0.291,0.043,0.537,0.137,0.738
		c0.1,0.203,0.223,0.373,0.377,0.514c0.154,0.139,0.332,0.248,0.533,0.33c0.211,0.088,0.426,0.154,0.643,0.211l1.664,0.408
		c0.172,0.045,0.354,0.096,0.533,0.166c0.182,0.066,0.348,0.146,0.492,0.252c0.152,0.104,0.279,0.23,0.367,0.387
		c0.1,0.152,0.145,0.332,0.145,0.541c0,0.268-0.064,0.504-0.197,0.699c-0.131,0.188-0.299,0.342-0.504,0.469
		c-0.195,0.117-0.408,0.203-0.639,0.26c-0.232,0.053-0.445,0.084-0.639,0.084c-0.344,0-0.662-0.031-0.961-0.092
		c-0.303-0.072-0.564-0.182-0.785-0.334c-0.219-0.15-0.389-0.361-0.518-0.615C160.776-138.701,160.716-139.021,160.722-139.4
		L160.722-139.4z"/>
</g>
<path fill="#E30613" d="M311.687-83.208c-0.715,4.984-0.01,10.262-2.961,14.631c-2.008-0.168-2.611-1.006-2.932-1.957
	c-2.611-7.797-7.779-11.873-16.238-11.346c-8.23,0.533-13.063,5.592-16.303,12.461c-4.693,9.994-4.732,20.73-3.57,31.313
	c1.031,9.531,10.129,14.539,20.775,13.203c3.393-0.439,6.889-2.539,10.178,0.254c0.154,3.691-2.775,3.945-4.895,4.404
	c-8.494,1.752-17.033,2.832-25.299-1.113c-4.521-2.15-8.23-5.479-9.83-10.084c-5.168-14.865-3.523-29.502,4.568-42.742
	c7.535-12.334,20.02-14.49,33.307-12.662C302.563-86.281,306.845-85.859,311.687-83.208z"/>
<path fill="#E30613" d="M362.028-58.607c-4.117-0.074-4.83,3.199-7.285,3.707c0.609-6.52,7.826-11.984,15.033-11.234
	c4.045,5.189,0.184,10.668,0.08,17.025c4.391-5.113,6.813-10.613,11.396-14.412c4.686-3.889,8.451-4.273,13.748-0.492
	c1.623,12.205-4.41,23.674-5.588,35.477c4.281,2.121,5.223-3.471,8.545-2.467c-1.457,6.576-8.582,11.98-15.615,11.762
	c-3.225-3.014-2.477-6.936-1.719-10.611c1.541-7.58,3.408-15.105,5.199-22.67c0.51-2.174,0.648-4.297-0.318-6.268
	c-3.031-0.783-4.348,1.117-5.645,2.871c-7.316,9.717-11.801,20.75-14.879,32.41c-1.26,4.729-4.09,5.584-9.473,2.209
	C356.954-33.527,361.362-45.601,362.028-58.607z"/>
<path fill="#E30613" d="M525.224-19.441c-3.203-2.396-2.699-5.828-2.1-8.881c3.363-17.242,6.955-34.43,10.279-50.689
	c0.098-5.061-4.836-4.717-6.303-8.004c4.373-2.959,9.521-0.184,13.467-2.305c2.734,1.391,3.09,2.961,2.502,5.627
	c-2.443,11.293-4.543,22.654-6.766,34.016c-1.414,7.361-2.787,14.725-4.193,22.082c4.129,1.008,5.152-4.252,9.5-3.373
	c-2.65,5.096-6.869,8.074-10.186,11.58C529.153-18.933,527.181-18.802,525.224-19.441z"/>
<path fill="#E30613" d="M469.767-57c-2.867,0.93-4.549-0.164-6.824-0.164c-10.09,9.975-11.523,23.822-15.418,36.918
	c-2.381,1.99-4.902,1.57-7.975-0.658c1.08-12.35,4.787-24.57,6.326-37.213c-3.959-1.99-4.824,3.146-7.732,3.049
	c-1.15-1.02-1.076-2.121-0.234-3.193c2.646-3.377,6.064-5.936,9.781-7.816c4.768-2.416,7.572,0.254,8.23,7.816
	c4.602-4.439,7.816-12.074,16.02-6.668C473.292-61.455,472.708-58.66,469.767-57z"/>
<path fill="#E30613" d="M425.388-80.58c2.979,4.91-1.434,9.113,0.223,13.26c3.146,2.043,8.236-1.623,10.59,3.471
	c-2.83,3.707-6.537,0.805-9.918,1.846c-3.635,2.865-9.893,28.857-8.086,35.035c3.492-0.254,5.143-4.221,8.615-4.654
	c0.02,3.908,0.02,3.908-10.594,12.291c-2.146,0.51-4.303,0.383-6.76-0.057c-3.643-7.271,0.074-14.102,0.949-21.025
	c0.877-6.865,3.406-13.498,3.529-19.834c-1.453-3.123-4.791-1.043-6.133-3.893c1.967-4.057,7.4-2.338,10.211-5.648
	C420.739-72.984,421.315-77.533,425.388-80.58z"/>
<path fill="#73797D" d="M-18.897-79.357c-1.213-3.766-4.174-3.289-6.438-5.977c5.297-0.434,9.801-0.82,14.168-1.201
	c1.826,2.555,1.396,5.02,0.922,7.305c-3.307,16.422-6.73,32.805-10.129,49.213c-0.42,1.994-0.957,3.945,1.051,5.387
	c2.621,0.492,3.43-2.611,6.018-2.336c-3.68,3.834-5.789,9.695-12.705,9.389c-5.58-3.742-2.869-8.934-2.082-13.244
	c2.65-14.502,5.92-28.879,8.926-43.33C-18.714-76.326-18.714-78.537-18.897-79.357z"/>
<path fill="#73797D" d="M180.569-52.085c-1.195,1.531-2.785,2.23-4.693,2.305c-5.994-1.484-2.039-10.213-8.504-11.328
	c-2.451-0.313-4.521,0.82-6.387,2.449c-6.328,5.531-9.744,22.006-6.41,29.771c2.555,5.994,7.611,7.184,13.256,7.416
	c1.713,0.059,3.502-1.148,5.441,0.514c-2.338,4.092-6.586,3.068-9.99,3.453c-11.584,1.316-18.971-5.316-18.836-16.988
	c0.127-10.832,2.895-20.57,12.539-27.129c5.512-3.74,11.518-3.412,17.32-1.682C179.892-61.623,181.319-58.259,180.569-52.085z"/>
<path fill="#73797D" d="M80.319-58.427c-1.725-2.904-6.594,0-5.615-5.328c9.27,0.398,12.391-7.219,16.486-15.107
	c2.473,5.736-0.951,9.443-0.377,13.773c3.178,2.318,7.791-0.598,11.107,2.139c-1.68,1.994-1.68,1.994-12.469,3.416
	c-2.311,10.996-4.658,22.23-7.014,33.449c2.584,1.258,2.584,1.258,8.238-0.73c-5.279,8.822-9.262,10.719-16.275,7.084
	C74.017-33.035,80.446-45.765,80.319-58.427z"/>
<path fill="#73797D" d="M1.03-18.363c-3.512-4.732-0.754-9.594,0.094-14.322C2.55-40.687,4.778-48.542,5.729-56.82
	c-3.746-1.348-5.582,1.814-8.295,2.563c2.199-3.436,4.566-6.484,8.064-8.604c2.246-1.371,4.359-2.01,6.641-0.348
	c2.072,1.498,2.4,3.693,1.938,5.957c-1.426,7.229-3.033,14.428-4.469,21.662c-0.693,3.486-2.172,6.939-0.885,10.742
	c3.607,1.111,4.293-3.344,7.041-3.543C14.368-22.128,7.362-17.271,1.03-18.363z"/>
<path fill="#73797D" d="M-100.667-56.615c2.254-6.156,5.973-8.223,13.059-6.447c1.232,12.934-5.297,25.188-5.582,38.047
	c4.166,1.242,4.779-3.289,8.951-3.434c-4.047,5.098-7.389,9.426-13.316,11.033c-3.545-1.428-4.951-3.617-4.047-7.525
	c1.844-7.961,3.379-16,4.996-24.02c0.502-2.521,1.105-5.078,0.566-7.475c-1.725-1.734-3.26,0.184-4.768-0.326L-100.667-56.615z"/>
<path fill="#73797D" d="M-82.757-78.115c-1.336,3.031-3.125,5.57-6.787,4.258c-2.758-0.969-4.723-3.088-4.191-6.432
	c0.43-2.775,2.357-4.223,4.941-4.348C-84.319-84.875-83.233-81.732-82.757-78.115z"/>
<path fill="#73797D" d="M17.938-78.443c-0.201,2.83-1.736,5.035-5.15,4.803c-3.57-0.236-5.242-2.576-4.973-6.141
	c0.26-3.344,2.195-5.129,5.502-4.893C16.763-84.417,17.985-82.08,17.938-78.443z"/>
<path fill="#333233" d="M-100.806-56.761c-0.293,0.713-0.631,1.355-1.664,1.355c-0.037-1.414,1.033-1.1,1.801-1.205L-100.806-56.761
	z"/>
<path fill="#73797D" d="M-151.396-79.177c-0.875-2.115-3.898-0.857-4.336-4.199c7.359-0.217,14.619-0.508,21.9-0.619
	c2.996-0.059,6.029,0.234,9.035,0.439c6.896,0.471,11.607,4.256,13.061,10.43c1.398,5.971-1.408,13.17-6.486,16.344
	c-1.506,0.932-3.168,1.629-4.521,2.285c-0.648,1.297,0.102,1.973,0.676,2.285c8.688,4.877,8.01,13.082,6.422,20.713
	c-1.625,7.816-8.568,10.889-15.635,12.313c-11.703,2.32-23.631,1.26-35.467,1.189c-0.557,0-1.232-0.023-1.396-0.678
	c-0.447-0.75-0.184-1.426,0.355-1.586c5.744-1.85,7.637-6.361,8.648-11.77c2.514-13.314,5.15-26.596,7.91-39.857
	C-150.728-74.316-150.353-76.601-151.396-79.177z M-129.849-26.328c5.205-4.205,6.758-9.844,4.566-16.623
	c-1.555-4.809-5.471-7.273-12.33-7.49c-2.766-0.111-5.592-0.619-9.078,0.643c-1.764,7.922-3.506,16.201-4.604,24.895
	C-145.011-21.488-134.817-22.345-129.849-26.328z M-125.866-78.115c-5.379-3.527-13.838-2.408-15.281,2.359
	c-1.9,6.189-2.959,12.656-4.375,18.994c13.664,3.072,19.865-0.387,23.775-8.129c0-2.867,0-5.883,0-9.447
	C-123.218-75.703-124.378-77.146-125.866-78.115z"/>
<path fill="#73797D" d="M-43.874-63.39c3.588,3.068,5.17,7.32,4.957,12.51c-0.465,11.688-3.854,22.066-13.123,29.795
	c-8.129,6.791-19.428,4.385-23.008-4.75c-1.9-4.859,0.137-9.557,0.969-14.176c1.928-10.758,4.529-21.395,6.641-32.131
	c0.566-2.904,0.477-5.975-0.01-8.273c-1.043-2.744-3.635-2.449-5.461-4.352c4.992-2.17,9.727-0.709,15.051-1.861
	c-0.047,10.836-3.865,20.479-4.568,31.02C-57.923-61.75-52.948-66.441-43.874-63.39z M-67.888-29.083
	c-0.666,4.434,1.746,7.215,6.977,8.42c12.367-8.42,12.648-21.631,13.152-34.49c-2.803-3.107-2.803-3.107-6.52-3.617
	C-63.165-51.027-66.163-40.306-67.888-29.083z"/>
<path fill="#E30613" d="M502.538-64.525c2.613-1.756,5.037-3.232,8.617-0.182c0.471,12.203-5.348,24.129-6.063,36.621
	c4.477,2.832,4.914-5.496,9.123-2.939c-2.689,7.822-10.344,12.785-16.85,11.018c-2.082-1.719-0.191-4.803-2.48-6.906
	c-5.207,4.568-10.041,10.301-19.227,6.979c-3.645-3.82-5.582-8.955-4.002-15.531c2.523-10.48,5.965-20.389,14.523-27.689
	C491.194-67.447,496.237-68.048,502.538-64.525z M483.671-25.91c9.168-0.254,18.475-18.596,17.066-33.703
	c-1.076-1.422-2.16-2.902-4.264-2.846C485.521-56.888,477.923-35.224,483.671-25.91z"/>
<path fill="#73797D" d="M210.491-19.208c-1.621-2.279-0.059-5.131-1.443-7.908c-2.779,1.531-3.979,4.496-6.244,6.322
	c-3.443,2.758-7.113,4.783-11.563,2.83c-4.416-1.92-5.852-5.791-5.715-10.32c0.383-12.953,4.682-24.24,14.604-32.932
	c4.684-4.113,10.381-4.203,15.955-0.568c2.293-1.902,4.758-3.635,8.375-1.096c-1.262,12.439-5.031,24.656-6.627,37.209
	c3.277,3.072,4.629-1.883,7.193-1.701C223.192-20.611,216.052-16.666,210.491-19.208z M197.978-23.24
	c9.717-2.633,20.365-26.068,16.109-35.479c-1.041-1.26-2.209-2.316-4.445-2.555C197.337-55.281,189.483-29.453,197.978-23.24z"/>
<path fill="#73797D" d="M48.024-64.378c8.641-0.016,14.459,4.146,15.451,11.984c1.498,11.637-0.801,22.596-10.299,30.467
	c-10.789,8.912-24.332,5.242-26.973-7.307c-1.982-9.426,0.469-18.703,6.359-26.758C36.597-61.49,41.603-64.964,48.024-64.378z
	 M50.499-29.052C53.714-36.726,55.187-44.65,54.96-53c-0.121-5.115-2.441-7.744-7.791-8.422
	c-9.883,5.682-11.309,15.73-12.195,25.664c-0.482,5.43-2.119,12.023,5.518,15.037C45.694-21.746,48.669-24.724,50.499-29.052z"/>
<path fill="#E30613" d="M347.183-63.007c3.146,8.039,2.918,9.006-3.465,14.646c-6.539,0.441-13.178,2.066-19.93,1.189
	c-2.76,6.816-3.354,13.059,0.594,18.85c4.164,6.141,11.463,2.889,16.787,4.443c0.547,1.496,0.203,2.246-0.428,2.756
	c-7.482,6.068-25.125,1.59-27.65-7.488c-1.65-5.955-1.6-12.514,0.096-18.484c1.387-4.898,3.021-9.848,7.166-13.686
	C328.247-68.085,337.987-69.166,347.183-63.007z M324.894-52.197c7.699,2.836,13.955,0.238,15.297-6.664
	c-1.141-1.059-2.436-2.266-3.871-3.598C329.597-62.003,326.614-59.207,324.894-52.197z"/>
<path fill="#73797D" d="M132.198-21.287c-10.941,7.488-27.52,4.146-28.496-9.939c-0.65-9.334,0.748-18.047,6.4-25.646
	c4.98-6.686,14.879-9.553,22.9-6.939c2.174,0.713,3.85,2.117,5.197,3.945c3.104,7.691,1.359,13.043-10.959,14.154
	c-4.184,0.369-8.424,0.057-12.926,0.057c-2.484,6.373-3.488,12.387,0.119,18.561C118.331-20.447,125.19-22.345,132.198-21.287z
	 M125.636-49.71c2.98,0,4.754-1.715,5.768-4.385c0.83-2.207,0.109-4.02-1.572-5.354c-2.311-1.842-4.83-2.611-7.729-0.916
	c-3.811,2.268-6.064,5.5-7.27,10.234C118.882-48.98,122.271-49.71,125.636-49.71z"/>
</svg>
