<?xml version="1.0" encoding="utf-8"?>
<!-- Generator: Adobe Illustrator 16.0.0, SVG Export Plug-In . SVG Version: 6.00 Build 0)  -->
<!DOCTYPE svg PUBLIC "-//W3C//DTD SVG 1.1//EN" "http://www.w3.org/Graphics/SVG/1.1/DTD/svg11.dtd" [
	<!ENTITY ns_extend "http://ns.adobe.com/Extensibility/1.0/">
	<!ENTITY ns_ai "http://ns.adobe.com/AdobeIllustrator/10.0/">
	<!ENTITY ns_graphs "http://ns.adobe.com/Graphs/1.0/">
	<!ENTITY ns_vars "http://ns.adobe.com/Variables/1.0/">
	<!ENTITY ns_imrep "http://ns.adobe.com/ImageReplacement/1.0/">
	<!ENTITY ns_sfw "http://ns.adobe.com/SaveForWeb/1.0/">
	<!ENTITY ns_custom "http://ns.adobe.com/GenericCustomNamespace/1.0/">
	<!ENTITY ns_adobe_xpath "http://ns.adobe.com/XPath/1.0/">
]>
<svg version="1.1" id="Layer_1" xmlns:x="&ns_extend;" xmlns:i="&ns_ai;" xmlns:graph="&ns_graphs;"
	 xmlns="http://www.w3.org/2000/svg" xmlns:xlink="http://www.w3.org/1999/xlink" x="0px" y="0px" width="792px" height="267.5px"
	 viewBox="0 0 792 267.5" enable-background="new 0 0 792 267.5" xml:space="preserve">
<metadata>
	<sfw  xmlns="&ns_sfw;">
		<slices></slices>
		<sliceSourceBounds  width="714.723" height="189.794" y="211.603" x="37.771" bottomLeftOrigin="true"></sliceSourceBounds>
	</sfw>
</metadata>
<g>
	<path fill="none" stroke="#73797D" stroke-width="1.5431" stroke-miterlimit="3.8635" d="M82.671,74.085v56.785
		c0,1.086-0.875,1.969-1.955,1.969H62.916c-1.188-0.027-2.051,1.964-2.051,1.964s-0.865-1.991-2.107-1.964c0.002,0-17.76,0-17.76,0
		c-1.082,0-1.955-0.881-1.955-1.969V74.089L82.671,74.085L82.671,74.085z"/>
	<path fill="none" stroke="#73797D" stroke-width="0.768" stroke-miterlimit="3.8637" d="M67.403,83.128l-1.732-2.764
		c-2.076,0.479-1.568-1.324-0.439-2.029c1.236-0.779,2.633-0.504,1.736,1.213c0,0,0.402,0.654,1.066,1.713
		C68.034,81.261,67.579,82.126,67.403,83.128L67.403,83.128z M75.073,92.398l4.727,7.5l-0.35,0.352l-1.656-1.316
		c0,0-0.102-1.094-0.363-1.32c-0.891-0.766-0.361-1.189-0.707-1.902c-0.344-0.709-2.361-1.26-2.832-2.324
		c0.008,0.051-0.777-1.25-0.777-1.25C74.916,91.818,75.073,92.398,75.073,92.398L75.073,92.398z M69.534,83.55
		c-0.006-0.018,1.68,2.762,1.674,2.725c-1.043-0.125-1.551-0.426-1.758-0.988C69.204,84.654,69.396,83.812,69.534,83.55
		L69.534,83.55z M44.284,109.964l3.688,9.314 M44.585,110.234l3.422,6.619 M44.835,110.337l3.113,4.672 M45.02,110.251l2.854,3.393
		 M44.984,109.939l4.135,3.904 M44.952,109.706l5.664,4.242 M44.862,109.513l8.316,4.883 M49.357,94.665l-0.125,2.879h1.678
		l-0.127-2.879H49.357L49.357,94.665z M50.751,93.874L50.07,78.44l-0.697,15.434H50.751L50.751,93.874z M47.237,93.89h5.662v0.773
		h-5.662V93.89L47.237,93.89z M51.854,97.546c0,1.156-0.801,1.957-1.787,1.957c-0.984,0-1.785-0.801-1.785-1.957H51.854
		L51.854,97.546z M47.473,86.863c0,1.479-1.223,2.678-2.727,2.678c-1.508,0-2.73-1.199-2.73-2.678H47.473L47.473,86.863z
		 M69.868,82.988c0,0,0.604,0.818,1.246,0.438c1.184-0.699-0.275-4.676-2.709-2.652c-0.533,0.445-1.248,2.514-1.109,3.84
		c0.139,1.324,0.727,3.006,2.221,3.352c0.9,0.209,2.699-0.293,3.445,0.936c0.555-0.207,1.164-2.4-0.387-2.471
		c-1.531-0.07-2.822-0.332-3.059-0.977C68.958,83.913,69.868,82.988,69.868,82.988L69.868,82.988z M71.245,89.208
		c-0.604,0.293-1.041,0.988-0.832,1.76c0.211,0.773,1.148,1.234,2.477,1.166c0.072-0.002,0.143-0.008,0.213-0.012
		c1.172-0.086,1.697-0.229,2.096,0.438c0.42-0.492,0.297-1.59-0.299-2.098C73.991,89.689,71.631,90.667,71.245,89.208L71.245,89.208
		z M73.868,93.396c-0.139,0.635-0.566,1.482-0.211,2.25c0.49,1.051,1.4,0.49,1.68,1.123c0.28,0.633,0.01,1.574,0.629,1.756
		c1.188,0.352,0.771,1.545,1.398,1.475c0.555-0.063,0.574-1.926,0-2.457c-0.838-0.773-0.281-1.336-0.699-1.967
		C76.243,94.945,74.705,94.663,73.868,93.396L73.868,93.396z"/>
	<path fill="none" stroke="#73797D" stroke-width="0.4937" stroke-miterlimit="3.8637" d="M61.645,97.326
		c0-0.045,0.035-0.078,0.078-0.078c0.045,0,0.078,0.037,0.078,0.078c0,0.043-0.033,0.078-0.078,0.078
		C61.678,97.406,61.645,97.369,61.645,97.326L61.645,97.326z M70.487,81.597c0.111-0.043,0.246,0.041,0.299,0.184
		c0.053,0.146,0.002,0.297-0.109,0.34c-0.113,0.041-0.248-0.045-0.301-0.189C70.325,81.786,70.373,81.638,70.487,81.597
		L70.487,81.597z"/>
	<path fill="none" stroke="#73797D" stroke-width="0.768" stroke-miterlimit="3.8637" d="M48.864,119.281
		c0-2.234,1.799-4.043,4.023-4.043c2.223,0,4.021,1.809,4.021,4.043c0,2.232-1.801,4.043-4.021,4.043
		C50.664,123.324,48.864,121.513,48.864,119.281L48.864,119.281z M57.046,129.218H55.09v-3.779H43.055v-1.934h13.992V129.218
		L57.046,129.218z M44.794,119.724c0-0.453,0.367-0.822,0.822-0.822c0.453,0,0.82,0.367,0.82,0.822c0,0.459-0.367,0.828-0.82,0.828
		C45.161,120.548,44.794,120.183,44.794,119.724L44.794,119.724z M44.83,119.488l-1.404,3.998l2.172-2.938 M46.398,119.488
		l1.406,3.998l-2.172-2.938 M49.439,117.38c-0.203,1.104,1.854,1.09,1.678,1.686c-0.42,1.441,0.42,1.387,0.561,2.145
		c0,0-0.141,1.789,0.348,1.934c0.279-0.387,0.07-1.141,0.418-1.547c0.367-0.422,0.877-0.65,0.877-1.402
		c0-0.545-0.76-0.721-0.98-0.879c-0.244-0.176-0.699-0.318-1.012-0.318c0,0-0.805-1.543-0.561-1.824
		c0.277-0.244,0.699,0.35,0.873,0.35c0.369,0,0.438-0.736,1.012-0.736c0-0.178-0.035-0.723-0.139-0.773
		c-0.576,0-0.941,0.281-1.434-0.316C51.082,115.695,49.645,116.277,49.439,117.38L49.439,117.38z M54.141,115.396
		c-0.449-0.172-1.137-0.104-1.137-0.104c0.594,0.283,0.559,1.07,0.805,1.07c0.488,0,0.732-0.4,1.223-0.49
		C55.034,115.87,54.59,115.568,54.141,115.396L54.141,115.396z M56.871,118.484c0-1.012-1.35-2.262-1.35-2.262
		s-0.662,1.229-0.35,2.492c0.314,0.035,1.225-0.068,1.225-0.068c0.229,0.104,0.137,0.475,0.137,0.699
		c0,0.563-0.174,2.002-0.174,2.002S56.871,119.497,56.871,118.484L56.871,118.484z"/>
	<polygon fill="none" stroke="#73797D" stroke-width="0.4937" stroke-miterlimit="3.8637" points="44.161,107.788 43.751,108.675 
		42.803,108.788 43.496,109.443 43.309,110.388 44.146,109.925 45.001,110.396 44.837,109.433 45.512,108.788 44.564,108.654 	"/>
	
		<line fill="none" stroke="#73797D" stroke-width="1.5431" stroke-miterlimit="3.8635" x1="60.857" y1="110.603" x2="60.857" y2="134.641"/>
	
		<path fill="none" stroke="#73797D" stroke-width="0.7682" stroke-linecap="round" stroke-linejoin="round" stroke-miterlimit="3.8637" d="
		M64.327,122.296l-1.031,1.176c-0.139,0.16-0.068,1.246,0.004,1.559c0.816,0.328,12.379,3.965,12.379,3.965l4.703-5.127
		l-0.734-0.316c-0.207-0.336,0.459-1.463,0.459-1.463l-2.277-0.898 M75.686,126.718c-0.184,0.15-0.141,2.072,0.01,2.287
		c0.008,0,4.688-5.137,4.688-5.137l-0.484-0.439c-0.039-0.463,0.084-1.299,0.084-1.299L75.686,126.718L75.686,126.718z
		 M75.25,123.558c-0.193,0.088-0.309,2.607-0.047,2.623c0-0.002,3.861-4.387,3.861-4.387l-0.375-0.209L75.25,123.558L75.25,123.558z
		"/>
	
		<path fill="none" stroke="#73797D" stroke-width="0.4935" stroke-linecap="round" stroke-linejoin="round" stroke-miterlimit="3.8637" d="
		M65.743,120.232l-1.207,1.232c-0.172,0.09-0.043,1.248,0,1.572c0.424,0.117,10.662,3.156,10.662,3.156l3.854-4.437l-1.223-0.438"/>
	<path fill="none" stroke="#73797D" stroke-width="0.768" stroke-miterlimit="3.8637" d="M76.924,113.814v7.342
		c-1.004-0.238-4.77-0.721-5.154-0.123c-0.313-0.598-3.342-0.328-5.16,0.076v-7.064c-0.229,1.021-0.924,1.395-0.924,1.395v6.227
		l5.365-0.387c0.594,0.387,1.277,0.139,1.502,0.033l5.154,0.168v-6.971C77.708,114.509,77.2,114.466,76.924,113.814L76.924,113.814z
		 M76.924,121.156c-1.098,0-4.369-0.879-5.137-0.105c0.699-0.018,0.717,0.438,0,0.457c-0.77-0.053-0.646-0.494,0-0.439
		c-0.664-0.861-5.164,0.178-5.164,0.178l-0.012-7.201c1.25,0,2.543-0.602,3.422-0.602c0.881,0,1.801,0.371,1.801,0.371
		s1.385-0.557,2.361-0.557c1.154,0,1.75,0.943,2.674,0.617C76.854,114.324,76.924,121.156,76.924,121.156L76.924,121.156z"/>
	
		<line fill="none" stroke="#73797D" stroke-width="0.4937" stroke-miterlimit="3.8637" x1="71.823" y1="113.828" x2="71.778" y2="121.027"/>
	<path fill="none" stroke="#73797D" stroke-width="0.5336" stroke-miterlimit="3.8637" d="M66.46,123.632l-0.389,0.391
		c-0.176,0.205-0.18,1.828,0.004,1.912c-0.004,0.025,0.836,0.242,0.463,0.072c-0.08-0.521-0.049-1.645,0.092-1.805l0.422-0.414
		L66.46,123.632L66.46,123.632z M67.805,124.019l-0.367,0.393c-0.18,0.203-0.254,1.869-0.066,1.951
		c-0.004,0.031,0.906,0.199,0.533,0.029c-0.082-0.521-0.049-1.645,0.09-1.805l0.391-0.391L67.805,124.019L67.805,124.019z
		 M71.073,124.986l-0.439,0.459c-0.176,0.205-0.27,1.787-0.088,1.871c-0.004,0.031,0.928,0.283,0.555,0.109
		c-0.08-0.52-0.047-1.645,0.092-1.805l0.473-0.479L71.073,124.986L71.073,124.986z M72.314,125.369l-0.439,0.465
		c-0.178,0.203-0.254,1.797-0.07,1.881c-0.004,0.029,0.91,0.27,0.537,0.1c-0.082-0.521-0.047-1.645,0.092-1.807l0.475-0.479
		L72.314,125.369L72.314,125.369z M66.458,121.622l-0.295,0.299c-0.135,0.156-0.162,1.516-0.02,1.578
		c-0.004,0.023,0.381,0.154,0.436,0.133c0.057-0.002-0.033-0.141-0.059-0.207c-0.063-0.398-0.037-1.252,0.07-1.373l0.318-0.311
		L66.458,121.622L66.458,121.622z"/>
	<path fill="none" stroke="#73797D" stroke-width="0.768" stroke-miterlimit="3.8637" d="M71.84,113.759
		c-1.396-0.037-1.777-1.15-1.777-1.15l0.541-0.025c0,0-0.682-0.412-0.531-0.822c-0.01-0.02,0.477,0.053,0.477,0.053
		s-0.205-0.559-0.018-0.928l0.434,0.18c0.127-0.742,0.895-0.916,0.895-0.916s0.717,0.096,0.924,0.916l0.438-0.18
		c0.186,0.367-0.016,0.928-0.016,0.928s0.486-0.072,0.475-0.053c0.154,0.408-0.529,0.822-0.529,0.822l0.543,0.025
		C73.689,112.611,73.237,113.724,71.84,113.759L71.84,113.759z"/>
	
		<line fill="none" stroke="#73797D" stroke-width="1.5431" stroke-miterlimit="3.8635" x1="39.006" y1="103.818" x2="54.082" y2="103.818"/>
	
		<line fill="none" stroke="#73797D" stroke-width="1.4874" stroke-miterlimit="3.8637" x1="67.696" y1="103.818" x2="82.65" y2="103.818"/>
	<polygon fill="none" stroke="#FFFFFF" stroke-width="0.768" stroke-miterlimit="3.8637" points="60.878,98.247 65.688,106.703 
		56.03,106.703 	"/>
	<path fill="none" stroke="#73797D" stroke-width="0.768" stroke-miterlimit="3.8637" d="M60.837,102.427
		c1.742,0,3.254,1.432,3.234,1.658c0.018,0.215-1.494,1.648-3.234,1.648c-1.74,0-3.254-1.434-3.238-1.648
		C57.582,103.859,59.037,102.359,60.837,102.427L60.837,102.427z M59.215,104.081c0-0.898,0.729-1.627,1.619-1.627
		c0.895,0,1.619,0.73,1.619,1.627s-0.725,1.627-1.619,1.627C59.944,105.706,59.215,104.978,59.215,104.081L59.215,104.081z"/>
	<path fill="#73797D" stroke="#73797D" stroke-width="0.4937" stroke-miterlimit="3.8637" d="M60.633,104.081
		c0-0.113,0.092-0.205,0.203-0.205c0.113,0,0.203,0.092,0.203,0.205c0,0.111-0.09,0.203-0.203,0.203
		C60.725,104.285,60.633,104.193,60.633,104.081L60.633,104.081z"/>
	<path fill="none" stroke="#73797D" stroke-width="0.768" stroke-miterlimit="3.8637" d="M60.883,98.068
		c-3.176,0-5.777,2.598-5.777,5.789c0,3.193,2.574,5.781,5.752,5.781c3.178,0,5.752-2.588,5.752-5.781
		c0-2.871-2.082-5.25-4.813-5.705c-1.018,0.076-1.068-0.295-1.105-0.486c-0.092-0.521,0.584-0.826,1.066-0.826
		c0.84,0,0.768,0.492,1.271,0.598c2.674,0.91,4.594,3.453,4.594,6.443c0,3.754-3.027,6.799-6.766,6.799
		c-3.736,0-6.766-3.045-6.766-6.799c0-3.758,2.809-6.652,6.584-6.371C60.616,97.751,60.883,98.068,60.883,98.068L60.883,98.068z"/>
	<polygon fill="none" stroke="#73797D" stroke-width="1.3795" stroke-miterlimit="3.8635" points="60.852,50.173 58.78,54.357 
		54.1,55.036 57.473,58.38 56.778,62.917 60.852,60.849 64.924,62.917 64.174,58.339 67.439,55.136 62.954,54.402 	"/>
	<path fill="none" stroke="#73797D" stroke-width="0.7121" stroke-miterlimit="3.8635" d="M60.852,50.324v10.523 M54.26,55.134
		l9.914,3.205 M56.778,62.917l6.174-8.516 M64.924,62.917l-6.143-8.561 M67.439,55.136l-9.967,3.246"/>
	<path fill="none" stroke="#73797D" stroke-width="1.3795" stroke-miterlimit="3.8635" d="M57.417,58.423l-14.014,4.619
		 M78.23,51.566L67.45,55.119 M58.766,54.349l-8.656-11.945 M72.912,74.103L64.848,62.89 M62.958,54.386l8.615-12.035
		 M48.604,74.103l8.164-11.213 M54.215,55.122l-10.762-3.557 M78.182,63.042l-13.955-4.674 M60.852,38.853v11.74"/>
	<path fill="none" stroke="#73797D" stroke-width="0.7121" stroke-miterlimit="3.8635" d="M57.229,60.027l-5.758,4.164
		 M70.253,50.484l-5.664,4.133 M59.498,61.572l-2.209,6.824 M64.479,46.171l-2.189,6.771 M62.241,61.578l2.189,6.771 M57.241,46.109
		l2.227,6.885 M64.43,59.933l5.721,4.176 M51.368,50.398l5.709,4.166 M65.296,57.333h7.213 M49.241,57.333h7.104"/>
	<path fill="none" stroke="#73797D" stroke-width="0.768" stroke-miterlimit="3.8637" d="M72.68,88.552
		c0.314,0.469,0.961,1.563,0.943,1.563c0,0-1.52,0.104-2.063-0.402c-0.119-0.182-1.031-1.658-1.031-1.658
		S72.366,88.083,72.68,88.552L72.68,88.552z M44.739,80.654l-2.689,6.188l5.381,0.014L44.739,80.654L44.739,80.654z M52.737,86.863
		c0,1.479,1.223,2.678,2.729,2.678c1.508,0,2.729-1.199,2.729-2.678H52.737L52.737,86.863z M55.469,80.654l2.689,6.188l-5.381,0.014
		L55.469,80.654L55.469,80.654z M49.284,97.136l1.607-0.754 M49.23,96.103l1.609-0.756"/>
	<path fill="none" stroke="#73797D" stroke-width="0.4937" stroke-miterlimit="3.8637" d="M50.037,80.546h-5.295v-0.631h5.242
		L50.037,80.546L50.037,80.546z M50.121,79.915h5.33v0.631h-5.295L50.121,79.915L50.121,79.915z M67.998,115.402
		c0.732-0.023,1.68-0.748,2.732-0.4 M67.993,116.204c0.73-0.02,1.684-0.713,2.734-0.361 M67.984,117.009
		c0.732-0.021,1.691-0.682,2.742-0.33 M67.979,117.816c0.732-0.023,1.695-0.652,2.746-0.297 M67.973,118.619
		c0.732-0.02,1.701-0.613,2.75-0.262 M67.967,119.425c0.73-0.025,1.707-0.582,2.756-0.227 M75.661,115.165
		c-0.732-0.023-1.711-0.514-2.762-0.164 M75.661,116.013c-0.732-0.023-1.711-0.521-2.762-0.17 M75.662,116.861
		c-0.732-0.025-1.711-0.533-2.762-0.182 M75.662,117.708c-0.732-0.023-1.711-0.545-2.758-0.189 M75.662,118.556
		c-0.732-0.025-1.709-0.551-2.758-0.199 M75.664,119.404c-0.734-0.025-1.711-0.563-2.76-0.205"/>
	<polygon fill="none" stroke="#73797D" stroke-width="0.768" stroke-miterlimit="3.8637" points="60.878,98.247 65.688,106.703 
		56.03,106.703 	"/>
	<path fill="none" stroke="#73797D" stroke-width="0.5336" stroke-miterlimit="3.8637" d="M67.482,121.87l-0.293,0.295
		c-0.135,0.158-0.162,1.518-0.021,1.58c0.068,0.037,0.385,0.188,0.438,0.166c0.057,0-0.043-0.174-0.059-0.236
		c-0.063-0.395-0.037-1.25,0.07-1.375l0.32-0.311L67.482,121.87L67.482,121.87z"/>
	<polygon fill="#73797D" points="60.37,60.849 61.246,60.849 61.246,96.734 60.837,97.286 60.674,97.507 60.4,97.32 	"/>
	<path fill="none" stroke="#73797D" stroke-width="0.5336" stroke-miterlimit="3.8637" d="M71.657,123.072l-0.295,0.299
		c-0.133,0.154-0.16,1.514-0.023,1.578c-0.002,0.023,0.385,0.152,0.438,0.135c0.057-0.002-0.033-0.141-0.059-0.209
		c-0.061-0.395-0.037-1.248,0.072-1.367l0.318-0.313L71.657,123.072L71.657,123.072z M72.684,123.318l-0.295,0.297
		c-0.135,0.158-0.16,1.518-0.021,1.58c0.068,0.037,0.383,0.188,0.438,0.168c0.057-0.002-0.041-0.174-0.061-0.24
		c-0.061-0.395-0.035-1.248,0.07-1.371l0.32-0.313L72.684,123.318L72.684,123.318z"/>
</g>
<g>
	<path fill="#E30613" d="M160.646,91.449H166v10.139h-5.354v28.812c-1.197,10.176-7.818,17.788-18.539,17.368v-10.129
		c4.568,0.152,7.289-1.59,7.766-7.001l0.027-29.047h-5.051V91.455h5.051l0.002-6.814c0.254-10.736,6.838-18.631,18.721-17.264V77.42
		c-5.082-0.402-7.93,1.664-7.977,7.303V91.449L160.646,91.449z"/>
	<path fill="none" stroke="#73797D" stroke-width="1.5244" stroke-miterlimit="3.8637" d="M230.325,147.648V67.185 M97.955,147.648
		V67.169"/>
	<path fill="#73797D" d="M108.653,91.613c0-5.748,2.85-7.852,7.979-7.447V74.121c-11.969-1.377-18.563,6.643-18.725,17.492v9.479
		v32.068h10.746v-32.07h7.572v-9.479h-7.572V91.613z"/>
	<path fill="#73797D" d="M135.105,133.16h8.387v-10.365H136c-6.76,0-11.072-4.615-11.072-10.529c0-5.912,4.316-10.529,11.072-10.529
		h7.492V91.454h-8.387c-12.781,0-20.922,9.15-20.922,20.813S122.325,133.16,135.105,133.16L135.105,133.16z"/>
	<path fill="#73797D" d="M230.194,109.048c0-10.928-6.916-18.619-18.637-18.619c-5.451,0-10.172,2.266-13.348,5.908
		c-3.012-3.643-7.65-5.908-13.348-5.908c-11.475,0-18.881,8.012-18.881,18.619v24.129h10.742v-24.369
		c0-4.695,3.34-7.936,8.139-7.936c7.08,0,7.814,5.586,7.814,7.936v24.369h10.74v-24.369c0-4.695,3.416-7.936,8.137-7.936
		c7.084,0,7.896,5.586,7.896,7.936v24.369h10.742L230.194,109.048L230.194,109.048z"/>
</g>
<g>
	<path fill="#73797D" d="M242.575,123.152v4.766c0,0.381,0.053,0.744,0.156,1.094c0.113,0.342,0.283,0.637,0.514,0.898
		c0.238,0.254,0.537,0.459,0.9,0.613c0.369,0.145,0.814,0.217,1.332,0.217c0.523,0,0.967-0.072,1.33-0.217
		c0.369-0.154,0.67-0.359,0.9-0.613c0.236-0.262,0.408-0.557,0.512-0.898c0.115-0.35,0.17-0.713,0.17-1.094v-4.766h-0.713v4.607
		c0,0.43-0.045,0.797-0.145,1.102c-0.1,0.301-0.24,0.547-0.428,0.742c-0.189,0.186-0.422,0.328-0.691,0.418
		c-0.273,0.084-0.582,0.123-0.932,0.123c-0.344,0-0.652-0.041-0.924-0.123c-0.275-0.09-0.502-0.23-0.689-0.418
		c-0.189-0.193-0.332-0.439-0.432-0.742c-0.098-0.305-0.145-0.672-0.145-1.102v-4.607H242.575L242.575,123.152z"/>
	<polygon fill="#73797D" points="250.573,123.152 250.573,130.591 251.286,130.591 251.286,124.298 251.307,124.298 
		255.666,130.591 256.462,130.591 256.462,123.152 255.748,123.152 255.748,129.447 255.727,129.447 251.37,123.152 	"/>
	<polygon fill="#73797D" points="258.773,123.152 258.773,130.591 259.487,130.591 259.487,123.152 	"/>
	<polygon fill="#73797D" points="260.993,123.152 263.758,130.591 264.582,130.591 267.362,123.152 266.607,123.152 264.198,129.81 
		264.176,129.81 261.746,123.152 	"/>
	<polygon fill="#73797D" points="268.784,123.152 268.784,130.591 274.001,130.591 274.001,129.988 269.496,129.988 269.496,127.05 
		273.666,127.05 273.666,126.447 269.496,126.447 269.496,123.759 273.948,123.759 273.948,123.152 	"/>
	<path fill="#73797D" d="M276.469,126.685v-2.928h2.662c0.545,0,0.951,0.131,1.215,0.396c0.266,0.262,0.396,0.625,0.396,1.084
		c0,0.227-0.045,0.434-0.135,0.613c-0.086,0.172-0.201,0.322-0.348,0.447c-0.148,0.125-0.318,0.219-0.512,0.289
		c-0.199,0.064-0.402,0.094-0.621,0.094h-2.658L276.469,126.685L276.469,126.685z M275.758,123.152v7.439h0.711v-3.303h2.703
		c0.336-0.01,0.598,0.043,0.785,0.168c0.197,0.125,0.342,0.291,0.439,0.5c0.102,0.203,0.17,0.438,0.199,0.699
		c0.033,0.258,0.057,0.52,0.074,0.781c0.006,0.078,0.014,0.168,0.021,0.271c0.006,0.102,0.014,0.213,0.018,0.32
		c0.014,0.105,0.033,0.211,0.055,0.313c0.027,0.098,0.061,0.182,0.104,0.25h0.787c-0.08-0.09-0.141-0.211-0.189-0.373
		c-0.043-0.17-0.072-0.342-0.092-0.52c-0.023-0.191-0.035-0.373-0.043-0.557c-0.006-0.18-0.014-0.332-0.02-0.461
		c-0.016-0.219-0.045-0.426-0.096-0.611c-0.043-0.195-0.115-0.365-0.219-0.514c-0.096-0.146-0.227-0.266-0.387-0.354
		c-0.16-0.096-0.363-0.166-0.609-0.197v-0.021c0.48-0.1,0.846-0.318,1.09-0.67c0.244-0.346,0.367-0.756,0.367-1.227
		c0-0.334-0.063-0.621-0.189-0.867c-0.117-0.252-0.279-0.451-0.49-0.605c-0.203-0.158-0.443-0.277-0.723-0.354
		c-0.273-0.076-0.564-0.115-0.873-0.115L275.758,123.152L275.758,123.152z"/>
	<path fill="#73797D" d="M283.842,128.144h-0.711c-0.021,0.459,0.039,0.852,0.178,1.182c0.145,0.322,0.35,0.59,0.615,0.801
		c0.266,0.207,0.588,0.367,0.967,0.467c0.375,0.1,0.785,0.146,1.225,0.146s0.816-0.041,1.133-0.125
		c0.314-0.078,0.576-0.174,0.785-0.305c0.217-0.131,0.385-0.277,0.502-0.436c0.129-0.16,0.221-0.316,0.283-0.471
		c0.072-0.16,0.115-0.309,0.129-0.449c0.02-0.135,0.029-0.246,0.029-0.332c0-0.307-0.053-0.564-0.158-0.783
		c-0.098-0.217-0.236-0.396-0.422-0.539c-0.174-0.154-0.377-0.279-0.617-0.379c-0.227-0.104-0.479-0.188-0.742-0.262l-1.822-0.445
		c-0.152-0.037-0.299-0.08-0.438-0.135c-0.133-0.057-0.252-0.127-0.357-0.219c-0.105-0.09-0.184-0.199-0.25-0.324
		c-0.057-0.133-0.084-0.287-0.084-0.459c0-0.277,0.053-0.514,0.158-0.699c0.104-0.188,0.24-0.336,0.408-0.447
		c0.176-0.117,0.375-0.203,0.598-0.252c0.23-0.057,0.469-0.084,0.711-0.084c0.268,0,0.518,0.037,0.754,0.115
		c0.244,0.07,0.459,0.176,0.641,0.324c0.186,0.137,0.336,0.318,0.449,0.531c0.119,0.211,0.182,0.455,0.197,0.742h0.715
		c0-0.383-0.078-0.719-0.229-1.002c-0.148-0.289-0.348-0.533-0.598-0.729c-0.254-0.193-0.545-0.34-0.879-0.436
		c-0.338-0.1-0.689-0.146-1.059-0.146c-0.525,0-0.953,0.076-1.291,0.229c-0.33,0.145-0.6,0.324-0.793,0.539
		c-0.189,0.219-0.316,0.447-0.389,0.689c-0.07,0.242-0.104,0.453-0.104,0.635c0,0.293,0.045,0.537,0.133,0.74
		c0.1,0.203,0.225,0.375,0.381,0.512c0.154,0.137,0.332,0.248,0.531,0.334c0.211,0.082,0.422,0.156,0.639,0.207l1.664,0.406
		c0.174,0.043,0.352,0.1,0.535,0.168c0.18,0.063,0.346,0.146,0.49,0.252c0.152,0.102,0.275,0.232,0.367,0.385
		c0.098,0.154,0.148,0.33,0.148,0.539c0,0.273-0.07,0.504-0.201,0.699c-0.129,0.188-0.299,0.344-0.502,0.471
		c-0.195,0.119-0.408,0.205-0.639,0.26c-0.23,0.057-0.443,0.082-0.641,0.082c-0.34,0-0.662-0.027-0.961-0.092
		c-0.303-0.07-0.564-0.178-0.787-0.332c-0.219-0.152-0.389-0.355-0.514-0.613C283.895,128.847,283.833,128.525,283.842,128.144
		L283.842,128.144z"/>
	<polygon fill="#73797D" points="290.917,123.152 290.917,130.591 291.631,130.591 291.631,123.152 	"/>
	<path fill="#73797D" d="M293.957,123.152v7.439h2.584c1.141-0.025,1.998-0.342,2.568-0.947c0.58-0.613,0.869-1.535,0.869-2.773
		c0-1.234-0.287-2.154-0.869-2.762c-0.57-0.609-1.428-0.928-2.568-0.957H293.957L293.957,123.152z M294.666,129.988v-6.23h1.518
		c0.537,0,1,0.059,1.387,0.174c0.391,0.113,0.711,0.291,0.963,0.541c0.25,0.252,0.436,0.574,0.553,0.969
		c0.123,0.395,0.18,0.873,0.18,1.428c0,0.561-0.057,1.035-0.18,1.43c-0.117,0.395-0.305,0.721-0.553,0.967
		c-0.252,0.252-0.572,0.436-0.963,0.551c-0.387,0.113-0.85,0.17-1.387,0.17H294.666L294.666,129.988z"/>
	<path fill="#73797D" d="M302.952,127.677l1.496-3.814l1.445,3.814H302.952L302.952,127.677z M304.08,123.152l-3.006,7.439h0.758
		l0.898-2.313h3.404l0.912,2.313h0.768l-2.932-7.439H304.08L304.08,123.152z"/>
	<path fill="#73797D" d="M309.253,123.152v7.439h2.588c1.139-0.025,1.994-0.342,2.568-0.947c0.58-0.613,0.869-1.535,0.869-2.773
		c0-1.234-0.289-2.154-0.869-2.762c-0.574-0.609-1.43-0.928-2.568-0.957H309.253L309.253,123.152z M309.967,129.988v-6.23h1.52
		c0.535,0,0.998,0.059,1.383,0.174c0.391,0.113,0.711,0.291,0.961,0.541c0.254,0.252,0.438,0.574,0.557,0.969
		c0.121,0.395,0.176,0.873,0.176,1.428c0,0.561-0.059,1.035-0.176,1.43c-0.117,0.395-0.305,0.721-0.557,0.967
		c-0.252,0.252-0.57,0.436-0.961,0.551c-0.383,0.113-0.844,0.17-1.383,0.17H309.967L309.967,129.988z"/>
	<path fill="#73797D" d="M323.495,123.152v7.439h2.588c1.139-0.025,1.994-0.342,2.568-0.947c0.58-0.613,0.869-1.535,0.869-2.773
		c0-1.234-0.289-2.154-0.869-2.762c-0.572-0.609-1.43-0.928-2.568-0.957H323.495L323.495,123.152z M324.207,129.988v-6.23h1.52
		c0.535,0,0.998,0.059,1.383,0.174c0.389,0.113,0.711,0.291,0.963,0.541s0.438,0.574,0.557,0.969
		c0.119,0.395,0.176,0.873,0.176,1.428c0,0.561-0.059,1.035-0.176,1.43c-0.117,0.395-0.305,0.721-0.557,0.967
		c-0.252,0.252-0.574,0.436-0.963,0.551c-0.383,0.113-0.846,0.17-1.383,0.17H324.207L324.207,129.988z"/>
	<polygon fill="#73797D" points="331.432,123.152 331.432,130.591 336.65,130.591 336.65,129.988 332.146,129.988 332.146,127.05 
		336.314,127.05 336.314,126.447 332.146,126.447 332.146,123.759 336.596,123.759 336.596,123.152 	"/>
	<path fill="#73797D" d="M350.178,125.402h0.713c-0.051-0.389-0.168-0.732-0.357-1.029c-0.182-0.299-0.41-0.551-0.691-0.75
		c-0.271-0.213-0.58-0.369-0.922-0.471c-0.338-0.102-0.682-0.154-1.037-0.154c-0.584,0-1.102,0.107-1.549,0.322
		c-0.438,0.207-0.807,0.494-1.1,0.854c-0.293,0.355-0.516,0.766-0.66,1.229c-0.145,0.467-0.221,0.957-0.221,1.469
		c0,0.518,0.076,1.006,0.221,1.469c0.146,0.467,0.367,0.881,0.66,1.234c0.293,0.355,0.66,0.639,1.1,0.854
		c0.447,0.209,0.965,0.311,1.549,0.311c0.439,0,0.838-0.07,1.193-0.207c0.361-0.141,0.678-0.34,0.941-0.594
		c0.264-0.258,0.482-0.572,0.65-0.936c0.166-0.373,0.275-0.785,0.326-1.242h-0.713c-0.035,0.332-0.115,0.646-0.24,0.936
		c-0.127,0.287-0.293,0.533-0.492,0.75c-0.203,0.217-0.443,0.387-0.727,0.512c-0.277,0.125-0.594,0.186-0.941,0.186
		c-0.494,0-0.922-0.092-1.277-0.277c-0.354-0.189-0.65-0.438-0.881-0.74c-0.221-0.313-0.391-0.664-0.502-1.053
		c-0.104-0.395-0.156-0.793-0.156-1.199c0-0.406,0.053-0.807,0.156-1.197c0.111-0.385,0.279-0.734,0.502-1.039
		c0.232-0.313,0.527-0.563,0.881-0.75c0.355-0.188,0.783-0.281,1.277-0.281c0.271,0,0.533,0.045,0.775,0.123
		c0.252,0.078,0.479,0.191,0.684,0.348c0.209,0.15,0.383,0.346,0.525,0.57C350.01,124.865,350.114,125.12,350.178,125.402
		L350.178,125.402z"/>
	<polygon fill="#73797D" points="352.846,123.152 352.846,130.591 353.559,130.591 353.559,126.988 358,126.988 358,130.591 
		358.712,130.591 358.712,123.152 358,123.152 358,126.384 353.559,126.384 353.559,123.152 	"/>
	<polygon fill="#73797D" points="361.034,123.152 361.034,130.591 361.746,130.591 361.746,123.152 	"/>
	<polygon fill="#73797D" points="364.071,123.152 364.071,130.591 368.971,130.591 368.971,129.988 364.784,129.988 
		364.784,123.152 	"/>
	<polygon fill="#73797D" points="370.458,123.152 370.458,130.591 375.676,130.591 375.676,129.988 371.174,129.988 371.174,127.05 
		375.34,127.05 375.34,126.447 371.174,126.447 371.174,123.759 375.621,123.759 375.621,123.152 	"/>
	<polygon fill="#73797D" points="242.646,112.21 242.646,119.652 243.357,119.652 243.357,116.109 246.941,116.109 246.941,115.503 
		243.357,115.503 243.357,112.814 247.393,112.814 247.393,112.21 	"/>
	<path fill="#73797D" d="M249.116,111.617l1.383-1.471h-0.816l-1.098,1.471H249.116L249.116,111.617z M248.842,112.21v7.441h0.711
		v-7.441H248.842L248.842,112.21z"/>
	<path fill="#73797D" d="M251.967,117.204h-0.711c-0.023,0.457,0.039,0.85,0.178,1.178c0.146,0.326,0.352,0.594,0.617,0.803
		c0.264,0.207,0.588,0.363,0.963,0.469c0.379,0.096,0.785,0.145,1.227,0.145s0.818-0.043,1.135-0.125
		c0.313-0.076,0.572-0.176,0.783-0.305c0.217-0.133,0.385-0.277,0.504-0.434c0.125-0.162,0.221-0.318,0.283-0.471
		c0.068-0.16,0.111-0.311,0.127-0.447c0.02-0.139,0.029-0.25,0.029-0.332c0-0.307-0.051-0.566-0.154-0.783
		c-0.098-0.215-0.24-0.395-0.422-0.541c-0.174-0.152-0.379-0.279-0.617-0.377c-0.23-0.104-0.48-0.188-0.744-0.26l-1.824-0.447
		c-0.152-0.033-0.299-0.08-0.439-0.135c-0.133-0.055-0.25-0.125-0.357-0.219c-0.104-0.09-0.186-0.199-0.252-0.324
		c-0.057-0.129-0.08-0.281-0.08-0.457c0-0.279,0.049-0.51,0.154-0.697c0.105-0.186,0.242-0.338,0.408-0.447
		c0.176-0.119,0.375-0.203,0.598-0.25c0.229-0.055,0.469-0.082,0.711-0.082c0.266,0,0.52,0.035,0.758,0.115
		c0.242,0.068,0.457,0.176,0.637,0.322c0.189,0.137,0.34,0.316,0.451,0.531c0.119,0.207,0.184,0.453,0.199,0.736h0.711
		c0-0.377-0.076-0.711-0.229-0.996c-0.146-0.295-0.346-0.533-0.6-0.73c-0.25-0.197-0.543-0.342-0.877-0.438
		c-0.338-0.096-0.688-0.148-1.059-0.148c-0.525,0-0.953,0.078-1.289,0.23c-0.334,0.146-0.598,0.328-0.795,0.541
		c-0.189,0.215-0.318,0.445-0.387,0.689c-0.07,0.24-0.105,0.455-0.105,0.635c0,0.291,0.043,0.537,0.137,0.738
		c0.098,0.201,0.225,0.375,0.377,0.508c0.154,0.139,0.33,0.252,0.533,0.334c0.209,0.084,0.426,0.156,0.639,0.211l1.666,0.408
		c0.174,0.039,0.354,0.094,0.535,0.166c0.182,0.064,0.348,0.148,0.492,0.25c0.152,0.104,0.275,0.232,0.367,0.387
		c0.094,0.152,0.145,0.334,0.145,0.539c0,0.273-0.066,0.506-0.199,0.699c-0.131,0.186-0.301,0.346-0.504,0.467
		c-0.193,0.119-0.406,0.205-0.639,0.264c-0.229,0.055-0.443,0.082-0.639,0.082c-0.34,0-0.662-0.031-0.963-0.094
		c-0.301-0.068-0.561-0.178-0.785-0.332c-0.217-0.15-0.387-0.355-0.516-0.613C252.02,117.906,251.96,117.585,251.967,117.204
		L251.967,117.204z"/>
	<polygon fill="#73797D" points="258.801,112.21 258.801,119.652 259.516,119.652 259.516,112.21 	"/>
	<path fill="#73797D" d="M267.059,114.458h0.713c-0.047-0.387-0.17-0.732-0.355-1.029c-0.18-0.301-0.412-0.549-0.691-0.748
		c-0.273-0.209-0.58-0.367-0.92-0.471c-0.336-0.105-0.682-0.158-1.039-0.158c-0.586,0-1.104,0.107-1.547,0.326
		c-0.439,0.205-0.807,0.492-1.1,0.85c-0.295,0.355-0.514,0.77-0.66,1.23c-0.145,0.469-0.219,0.959-0.219,1.471
		c0,0.512,0.074,1.004,0.219,1.471c0.148,0.463,0.367,0.875,0.66,1.229c0.293,0.357,0.66,0.641,1.1,0.854
		c0.443,0.211,0.961,0.314,1.547,0.314c0.441,0,0.84-0.068,1.195-0.207c0.363-0.139,0.678-0.338,0.941-0.594
		c0.264-0.258,0.482-0.568,0.65-0.934c0.168-0.373,0.275-0.783,0.326-1.244h-0.715c-0.035,0.334-0.115,0.646-0.24,0.938
		c-0.125,0.285-0.291,0.535-0.492,0.752c-0.201,0.217-0.441,0.383-0.723,0.512c-0.279,0.123-0.592,0.184-0.943,0.184
		c-0.494,0-0.92-0.092-1.277-0.279c-0.354-0.186-0.648-0.436-0.879-0.74c-0.225-0.311-0.391-0.662-0.502-1.053
		c-0.107-0.395-0.158-0.793-0.158-1.197c0-0.408,0.051-0.809,0.158-1.195c0.111-0.391,0.277-0.738,0.502-1.047
		c0.229-0.312,0.525-0.563,0.879-0.746c0.357-0.189,0.783-0.281,1.277-0.281c0.273,0,0.531,0.041,0.777,0.127
		c0.252,0.078,0.477,0.189,0.68,0.342c0.213,0.156,0.385,0.348,0.525,0.576C266.891,113.923,266.998,114.179,267.059,114.458
		L267.059,114.458z"/>
	<path fill="#73797D" d="M270.542,116.734l1.496-3.816l1.447,3.816H270.542L270.542,116.734z M271.674,112.21l-3.006,7.441h0.756
		l0.9-2.313h3.406l0.912,2.313h0.768l-2.936-7.441H271.674L271.674,112.21z"/>
	<path fill="#73797D" d="M276.936,117.204h-0.713c-0.02,0.457,0.039,0.85,0.176,1.178c0.148,0.326,0.354,0.594,0.621,0.803
		c0.266,0.207,0.586,0.363,0.963,0.469c0.375,0.096,0.785,0.145,1.223,0.145c0.441,0,0.816-0.043,1.131-0.125
		c0.316-0.076,0.58-0.176,0.789-0.305c0.217-0.133,0.381-0.277,0.504-0.434c0.127-0.162,0.219-0.318,0.279-0.471
		c0.074-0.16,0.113-0.311,0.127-0.447c0.021-0.139,0.033-0.25,0.033-0.332c0-0.307-0.053-0.566-0.158-0.783
		c-0.098-0.215-0.236-0.395-0.418-0.541c-0.176-0.152-0.381-0.279-0.617-0.377c-0.232-0.104-0.48-0.188-0.744-0.26l-1.824-0.447
		c-0.156-0.033-0.301-0.08-0.439-0.135c-0.131-0.055-0.252-0.125-0.354-0.219c-0.105-0.088-0.189-0.199-0.254-0.324
		c-0.053-0.129-0.084-0.281-0.084-0.457c0-0.279,0.053-0.51,0.158-0.697c0.105-0.186,0.24-0.338,0.408-0.447
		c0.174-0.119,0.373-0.203,0.596-0.25c0.23-0.055,0.469-0.082,0.715-0.082c0.264,0,0.514,0.035,0.75,0.115
		c0.246,0.068,0.459,0.176,0.637,0.322c0.189,0.137,0.342,0.316,0.449,0.531c0.123,0.207,0.186,0.453,0.203,0.736h0.711
		c0-0.377-0.078-0.711-0.23-0.996c-0.145-0.295-0.346-0.533-0.594-0.73c-0.254-0.197-0.545-0.342-0.883-0.438
		c-0.332-0.096-0.688-0.148-1.057-0.148c-0.523,0-0.955,0.078-1.287,0.23c-0.336,0.146-0.602,0.328-0.795,0.541
		c-0.188,0.215-0.318,0.445-0.389,0.689c-0.07,0.24-0.105,0.455-0.105,0.635c0,0.291,0.047,0.537,0.137,0.738
		c0.096,0.201,0.221,0.375,0.377,0.508c0.154,0.139,0.33,0.252,0.535,0.334c0.207,0.084,0.418,0.156,0.637,0.211l1.666,0.408
		c0.172,0.039,0.354,0.094,0.533,0.166c0.18,0.064,0.342,0.148,0.492,0.25c0.15,0.104,0.275,0.232,0.363,0.387
		c0.1,0.152,0.148,0.334,0.148,0.539c0,0.273-0.066,0.506-0.199,0.699c-0.133,0.186-0.303,0.346-0.504,0.467
		c-0.195,0.119-0.408,0.205-0.637,0.264c-0.23,0.055-0.445,0.082-0.641,0.082c-0.342,0-0.664-0.031-0.963-0.094
		c-0.301-0.068-0.564-0.178-0.787-0.332c-0.219-0.15-0.387-0.355-0.514-0.613C276.989,117.906,276.932,117.585,276.936,117.204
		L276.936,117.204z"/>
	<polygon fill="#73797D" points="290.883,116.587 290.883,119.652 291.596,119.652 291.596,116.587 294.546,112.21 293.702,112.21 
		291.25,115.982 288.789,112.21 287.95,112.21 	"/>
	<polygon fill="#73797D" points="300.775,112.21 300.775,119.652 301.489,119.652 301.489,113.224 301.508,113.224 304.075,119.652 
		304.746,119.652 307.303,113.224 307.321,113.224 307.321,119.652 308.036,119.652 308.036,112.21 306.987,112.21 304.411,118.736 
		301.825,112.21 	"/>
	<path fill="#73797D" d="M311.096,116.734l1.5-3.816l1.445,3.816H311.096L311.096,116.734z M312.23,112.21l-3.01,7.441h0.754
		l0.904-2.313h3.4l0.912,2.313h0.766l-2.934-7.441H312.23L312.23,112.21z"/>
	<polygon fill="#73797D" points="315.646,112.21 315.646,112.814 318.246,112.814 318.246,119.652 318.958,119.652 318.958,112.814 
		321.566,112.814 321.566,112.21 	"/>
	<polygon fill="#73797D" points="322.786,112.21 322.786,119.652 328.003,119.652 328.003,119.046 323.498,119.046 323.498,116.109 
		327.666,116.109 327.666,115.503 323.498,115.503 323.498,112.814 327.954,112.814 327.954,112.21 	"/>
	<polygon fill="#73797D" points="329.495,112.21 329.495,119.652 330.205,119.652 330.205,113.224 330.227,113.224 332.792,119.652 
		333.462,119.652 336.021,113.224 336.042,113.224 336.042,119.652 336.756,119.652 336.756,112.21 335.705,112.21 333.128,118.736 
		330.542,112.21 	"/>
	<path fill="#73797D" d="M341.221,111.617l1.383-1.471h-0.818l-1.1,1.471H341.221L341.221,111.617z M339.819,116.734l1.496-3.816
		l1.445,3.816H339.819L339.819,116.734z M340.95,112.21l-3.01,7.441h0.756l0.902-2.313h3.404l0.912,2.313h0.768l-2.936-7.441H340.95
		L340.95,112.21z"/>
	<polygon fill="#73797D" points="345.079,112.21 345.079,112.814 347.678,112.814 347.678,119.652 348.391,119.652 348.391,112.814 
		350.998,112.814 350.998,112.21 	"/>
	<polygon fill="#73797D" points="352.271,112.21 352.271,119.652 352.984,119.652 352.984,112.21 	"/>
	<path fill="#73797D" d="M360.528,114.458h0.713c-0.049-0.387-0.168-0.732-0.355-1.029c-0.184-0.301-0.412-0.549-0.691-0.748
		c-0.27-0.209-0.578-0.367-0.922-0.471c-0.336-0.105-0.68-0.158-1.035-0.158c-0.586,0-1.102,0.107-1.549,0.326
		c-0.438,0.205-0.807,0.492-1.098,0.85c-0.295,0.355-0.516,0.77-0.66,1.23c-0.145,0.469-0.221,0.959-0.221,1.471
		c0,0.512,0.076,1.004,0.221,1.471c0.145,0.463,0.367,0.875,0.66,1.229c0.293,0.357,0.66,0.641,1.098,0.854
		c0.447,0.211,0.963,0.314,1.549,0.314c0.439,0,0.836-0.068,1.193-0.207c0.363-0.139,0.678-0.338,0.943-0.594
		c0.264-0.258,0.48-0.568,0.648-0.934c0.168-0.373,0.275-0.783,0.326-1.244h-0.713c-0.035,0.334-0.115,0.646-0.242,0.938
		c-0.125,0.285-0.289,0.535-0.49,0.752c-0.205,0.217-0.445,0.383-0.725,0.512c-0.279,0.123-0.592,0.184-0.941,0.184
		c-0.496,0-0.924-0.092-1.277-0.279c-0.357-0.186-0.65-0.436-0.881-0.74c-0.223-0.311-0.391-0.662-0.504-1.053
		c-0.105-0.395-0.158-0.793-0.158-1.197c0-0.408,0.053-0.809,0.158-1.195c0.113-0.391,0.281-0.738,0.504-1.047
		c0.232-0.312,0.523-0.563,0.881-0.746c0.354-0.189,0.781-0.281,1.277-0.281c0.273,0,0.531,0.041,0.775,0.127
		c0.254,0.078,0.479,0.189,0.682,0.342c0.211,0.156,0.385,0.348,0.523,0.576C360.364,113.923,360.467,114.179,360.528,114.458
		L360.528,114.458z"/>
	<path fill="#73797D" d="M364.012,116.734l1.498-3.816l1.443,3.816H364.012L364.012,116.734z M365.143,112.21l-3.006,7.441h0.756
		l0.9-2.313h3.404l0.912,2.313h0.768l-2.936-7.441H365.143L365.143,112.21z"/>
	<path fill="#73797D" d="M370.405,117.204h-0.711c-0.021,0.457,0.037,0.85,0.176,1.178c0.148,0.326,0.352,0.594,0.619,0.803
		c0.266,0.207,0.586,0.363,0.963,0.469c0.377,0.096,0.785,0.145,1.225,0.145c0.443,0,0.818-0.043,1.133-0.125
		c0.314-0.076,0.574-0.176,0.787-0.305c0.215-0.133,0.381-0.277,0.5-0.434c0.127-0.162,0.221-0.318,0.285-0.471
		c0.066-0.16,0.111-0.311,0.127-0.447c0.018-0.139,0.029-0.25,0.029-0.332c0-0.307-0.051-0.566-0.156-0.783
		c-0.1-0.215-0.238-0.395-0.42-0.541c-0.174-0.152-0.379-0.279-0.617-0.377c-0.23-0.104-0.479-0.188-0.744-0.26l-1.824-0.447
		c-0.152-0.033-0.299-0.08-0.441-0.135c-0.133-0.055-0.25-0.125-0.355-0.219c-0.104-0.09-0.186-0.199-0.252-0.324
		c-0.057-0.129-0.082-0.281-0.082-0.457c0-0.279,0.049-0.51,0.156-0.697c0.105-0.186,0.238-0.338,0.408-0.447
		c0.174-0.119,0.373-0.203,0.598-0.25c0.229-0.055,0.467-0.082,0.711-0.082c0.264,0,0.518,0.035,0.754,0.115
		c0.242,0.068,0.457,0.176,0.637,0.322c0.188,0.137,0.34,0.316,0.453,0.531c0.119,0.207,0.184,0.453,0.199,0.736h0.713
		c0-0.377-0.076-0.711-0.23-0.996c-0.145-0.295-0.346-0.533-0.594-0.73c-0.252-0.197-0.545-0.342-0.883-0.438
		c-0.334-0.096-0.686-0.148-1.057-0.148c-0.525,0-0.955,0.078-1.289,0.23c-0.334,0.146-0.6,0.328-0.795,0.541
		c-0.184,0.215-0.316,0.445-0.387,0.689c-0.07,0.24-0.105,0.455-0.105,0.635c0,0.291,0.043,0.537,0.137,0.738
		c0.1,0.201,0.223,0.375,0.377,0.508c0.154,0.139,0.332,0.252,0.533,0.334c0.211,0.084,0.426,0.156,0.643,0.211l1.664,0.408
		c0.172,0.039,0.354,0.094,0.533,0.166c0.182,0.064,0.348,0.148,0.492,0.25c0.152,0.104,0.279,0.232,0.367,0.387
		c0.1,0.152,0.145,0.334,0.145,0.539c0,0.273-0.064,0.506-0.197,0.699c-0.131,0.186-0.299,0.346-0.504,0.467
		c-0.195,0.119-0.408,0.205-0.639,0.264c-0.232,0.055-0.445,0.082-0.639,0.082c-0.344,0-0.662-0.031-0.961-0.094
		c-0.303-0.068-0.564-0.178-0.785-0.332c-0.219-0.15-0.389-0.355-0.518-0.613C370.458,117.906,370.398,117.585,370.405,117.204
		L370.405,117.204z"/>
	<polygon fill="#73797D" points="242.646,101.269 242.646,108.712 243.357,108.712 243.357,105.165 246.941,105.165 
		246.941,104.564 243.357,104.564 243.357,101.872 247.393,101.872 247.393,101.269 	"/>
	<path fill="#73797D" d="M249.484,105.792l1.5-3.813l1.445,3.813H249.484L249.484,105.792z M250.616,101.269l-3.006,7.443h0.752
		l0.9-2.314h3.406l0.912,2.314h0.766l-2.936-7.443H250.616L250.616,101.269z"/>
	<path fill="#73797D" d="M261.223,103.521h0.713c-0.049-0.391-0.168-0.736-0.355-1.033c-0.18-0.299-0.412-0.549-0.691-0.75
		c-0.271-0.209-0.578-0.365-0.922-0.471c-0.336-0.104-0.68-0.154-1.037-0.154c-0.586,0-1.102,0.105-1.547,0.326
		c-0.441,0.205-0.809,0.488-1.102,0.854c-0.293,0.352-0.514,0.764-0.66,1.229c-0.146,0.465-0.223,0.955-0.223,1.471
		c0,0.512,0.076,1.004,0.223,1.465c0.146,0.471,0.367,0.875,0.66,1.232c0.293,0.354,0.66,0.637,1.102,0.855
		c0.445,0.203,0.961,0.311,1.547,0.311c0.439,0,0.836-0.072,1.195-0.209c0.363-0.139,0.678-0.336,0.941-0.594
		c0.263-0.258,0.482-0.568,0.65-0.939c0.17-0.365,0.275-0.781,0.324-1.238h-0.711c-0.033,0.332-0.115,0.646-0.24,0.938
		c-0.127,0.283-0.291,0.535-0.492,0.75c-0.201,0.215-0.443,0.383-0.725,0.512c-0.277,0.125-0.592,0.188-0.941,0.188
		c-0.492,0-0.922-0.094-1.279-0.283c-0.354-0.186-0.646-0.432-0.877-0.738c-0.223-0.313-0.391-0.664-0.504-1.053
		c-0.105-0.395-0.158-0.795-0.158-1.195c0-0.412,0.051-0.813,0.158-1.199c0.113-0.391,0.281-0.736,0.504-1.045
		c0.229-0.313,0.525-0.563,0.877-0.75c0.357-0.186,0.787-0.281,1.279-0.281c0.273,0,0.531,0.045,0.777,0.129
		c0.254,0.078,0.48,0.191,0.682,0.342c0.209,0.154,0.381,0.344,0.523,0.574C261.057,102.982,261.161,103.232,261.223,103.521
		L261.223,103.521z"/>
	<path fill="#73797D" d="M263.789,101.269v4.764c0,0.383,0.051,0.748,0.156,1.094c0.111,0.342,0.283,0.641,0.512,0.896
		c0.238,0.258,0.537,0.465,0.902,0.615c0.371,0.145,0.816,0.221,1.332,0.221c0.523,0,0.967-0.076,1.33-0.221
		c0.371-0.15,0.672-0.357,0.9-0.615c0.236-0.258,0.408-0.557,0.512-0.896c0.113-0.346,0.17-0.711,0.17-1.094v-4.764h-0.713v4.605
		c0,0.432-0.049,0.799-0.148,1.105c-0.096,0.297-0.236,0.543-0.428,0.74c-0.189,0.186-0.422,0.324-0.689,0.416
		c-0.273,0.084-0.588,0.127-0.936,0.127c-0.342,0-0.65-0.043-0.92-0.127c-0.273-0.092-0.502-0.23-0.691-0.416
		c-0.189-0.197-0.332-0.441-0.432-0.74c-0.096-0.307-0.143-0.674-0.143-1.105v-4.605H263.789L263.789,101.269z"/>
	<polygon fill="#73797D" points="271.768,101.269 271.768,108.712 276.671,108.712 276.671,108.105 272.479,108.105 
		272.479,101.269 	"/>
	<polygon fill="#73797D" points="276.364,101.269 276.364,101.872 278.958,101.872 278.958,108.712 279.671,108.712 
		279.671,101.872 282.282,101.872 282.282,101.269 	"/>
	<path fill="#73797D" d="M284.059,105.792l1.498-3.813l1.445,3.813H284.059L284.059,105.792z M285.189,101.269l-3.004,7.443h0.752
		l0.902-2.314h3.404l0.914,2.314h0.764l-2.932-7.443H285.189L285.189,101.269z"/>
	<path fill="#73797D" d="M290.332,101.269v7.443h2.586c1.139-0.027,1.996-0.342,2.568-0.949c0.58-0.611,0.871-1.537,0.871-2.771
		c0-1.236-0.289-2.154-0.871-2.762c-0.57-0.613-1.43-0.932-2.568-0.961H290.332L290.332,101.269z M291.041,108.105v-6.232h1.521
		c0.535,0,0.998,0.061,1.381,0.174c0.391,0.113,0.713,0.297,0.961,0.545c0.254,0.25,0.438,0.572,0.557,0.967
		c0.121,0.396,0.178,0.875,0.178,1.432c0,0.553-0.059,1.027-0.178,1.424c-0.117,0.395-0.303,0.721-0.557,0.973
		c-0.248,0.25-0.57,0.434-0.961,0.553c-0.383,0.111-0.844,0.166-1.381,0.166h-1.521V108.105z"/>
	<path fill="#73797D" d="M304.381,101.269v7.443h2.584c1.141-0.027,1.998-0.342,2.568-0.949c0.582-0.611,0.871-1.537,0.871-2.771
		c0-1.236-0.289-2.154-0.871-2.762c-0.57-0.613-1.428-0.932-2.568-0.961H304.381L304.381,101.269z M305.092,108.105v-6.232h1.52
		c0.537,0,0.998,0.061,1.385,0.174c0.391,0.113,0.713,0.297,0.963,0.545c0.25,0.25,0.434,0.572,0.553,0.967
		c0.123,0.396,0.178,0.875,0.178,1.432c0,0.553-0.057,1.027-0.178,1.424c-0.119,0.395-0.303,0.721-0.553,0.973
		c-0.25,0.25-0.574,0.434-0.963,0.553c-0.387,0.111-0.846,0.166-1.385,0.166h-1.52V108.105z"/>
	<polygon fill="#73797D" points="312.287,101.269 312.287,108.712 317.503,108.712 317.503,108.105 312.998,108.105 
		312.998,105.165 317.167,105.165 317.167,104.564 312.998,104.564 312.998,101.872 317.452,101.872 317.452,101.269 	"/>
	<path fill="#73797D" d="M330.84,103.521h0.713c-0.051-0.391-0.168-0.736-0.357-1.033c-0.178-0.299-0.412-0.549-0.691-0.75
		c-0.273-0.209-0.58-0.365-0.92-0.471c-0.336-0.104-0.682-0.154-1.039-0.154c-0.586,0-1.104,0.105-1.549,0.326
		c-0.439,0.205-0.807,0.488-1.1,0.854c-0.291,0.352-0.514,0.764-0.656,1.229c-0.148,0.465-0.223,0.955-0.223,1.471
		c0,0.512,0.078,1.004,0.223,1.465c0.143,0.471,0.367,0.875,0.656,1.232c0.293,0.354,0.66,0.637,1.1,0.855
		c0.445,0.203,0.963,0.311,1.549,0.311c0.439,0,0.838-0.072,1.195-0.209c0.363-0.139,0.678-0.336,0.941-0.594
		c0.266-0.258,0.484-0.568,0.652-0.939c0.168-0.365,0.275-0.781,0.324-1.238h-0.715c-0.037,0.332-0.115,0.646-0.24,0.938
		c-0.125,0.283-0.287,0.535-0.492,0.75c-0.199,0.215-0.439,0.383-0.721,0.512c-0.279,0.125-0.596,0.188-0.943,0.188
		c-0.494,0-0.922-0.094-1.279-0.283c-0.354-0.186-0.646-0.432-0.875-0.738c-0.225-0.313-0.395-0.664-0.504-1.053
		c-0.105-0.395-0.156-0.795-0.156-1.195c0-0.412,0.051-0.813,0.156-1.199c0.111-0.391,0.279-0.736,0.504-1.045
		c0.229-0.313,0.523-0.563,0.875-0.75c0.357-0.186,0.785-0.281,1.279-0.281c0.273,0,0.531,0.045,0.777,0.129
		c0.25,0.078,0.479,0.191,0.682,0.342c0.209,0.154,0.385,0.344,0.525,0.574C330.671,102.982,330.778,103.232,330.84,103.521
		L330.84,103.521z"/>
	<polygon fill="#73797D" points="333.528,101.269 333.528,108.712 334.241,108.712 334.241,101.269 	"/>
	<polygon fill="#73797D" points="336.534,101.269 336.534,108.712 341.748,108.712 341.748,108.105 337.245,108.105 
		337.245,105.165 341.414,105.165 341.414,104.564 337.245,104.564 337.245,101.872 341.698,101.872 341.698,101.269 	"/>
	<polygon fill="#73797D" points="343.465,101.269 343.465,108.712 344.178,108.712 344.178,102.413 344.196,102.413 
		348.557,108.712 349.352,108.712 349.352,101.269 348.639,101.269 348.639,107.564 348.62,107.564 344.26,101.269 	"/>
	<path fill="#73797D" d="M357.046,103.521h0.713c-0.049-0.391-0.166-0.736-0.355-1.033c-0.18-0.299-0.41-0.549-0.691-0.75
		c-0.271-0.209-0.578-0.365-0.922-0.471c-0.332-0.104-0.678-0.154-1.037-0.154c-0.584,0-1.102,0.105-1.549,0.326
		c-0.439,0.205-0.809,0.488-1.098,0.854c-0.295,0.352-0.518,0.764-0.662,1.229c-0.146,0.465-0.221,0.955-0.221,1.471
		c0,0.512,0.076,1.004,0.221,1.465c0.145,0.471,0.367,0.875,0.662,1.232c0.291,0.354,0.658,0.637,1.098,0.855
		c0.445,0.203,0.965,0.311,1.549,0.311c0.441,0,0.838-0.072,1.195-0.209c0.363-0.139,0.68-0.336,0.941-0.594
		c0.264-0.258,0.482-0.568,0.65-0.939c0.166-0.365,0.273-0.781,0.324-1.238h-0.713c-0.035,0.332-0.113,0.646-0.24,0.938
		c-0.125,0.283-0.291,0.535-0.488,0.75c-0.205,0.215-0.445,0.383-0.725,0.512c-0.279,0.125-0.594,0.188-0.941,0.188
		c-0.494,0-0.924-0.094-1.279-0.283c-0.355-0.186-0.646-0.432-0.879-0.738c-0.223-0.313-0.391-0.664-0.5-1.053
		c-0.105-0.395-0.16-0.795-0.16-1.195c0-0.412,0.055-0.813,0.16-1.199c0.109-0.391,0.277-0.736,0.5-1.045
		c0.232-0.313,0.525-0.563,0.879-0.75c0.355-0.186,0.785-0.281,1.279-0.281c0.273,0,0.531,0.045,0.773,0.129
		c0.252,0.078,0.479,0.191,0.684,0.342c0.211,0.154,0.387,0.344,0.525,0.574C356.878,102.982,356.984,103.232,357.046,103.521
		L357.046,103.521z"/>
	<polygon fill="#73797D" points="359.739,101.269 359.739,108.712 360.452,108.712 360.452,101.269 	"/>
	<path fill="#73797D" d="M363.799,105.792l1.498-3.813l1.445,3.813H363.799L363.799,105.792z M364.93,101.269l-3.008,7.443h0.754
		l0.9-2.314h3.402l0.918,2.314h0.762l-2.932-7.443H364.93L364.93,101.269z"/>
	<path fill="#73797D" d="M370.405,106.261h-0.711c-0.021,0.459,0.037,0.848,0.176,1.178c0.148,0.328,0.352,0.596,0.619,0.803
		c0.266,0.211,0.586,0.363,0.963,0.473c0.377,0.096,0.785,0.145,1.225,0.145c0.443,0,0.818-0.045,1.133-0.127
		c0.314-0.074,0.574-0.176,0.787-0.299c0.215-0.133,0.381-0.277,0.5-0.438c0.127-0.162,0.221-0.318,0.285-0.471
		c0.066-0.158,0.111-0.309,0.127-0.449c0.018-0.139,0.029-0.25,0.029-0.334c0-0.303-0.051-0.564-0.156-0.779
		c-0.1-0.217-0.238-0.395-0.42-0.539c-0.174-0.154-0.379-0.279-0.617-0.379c-0.23-0.104-0.479-0.189-0.744-0.262l-1.824-0.443
		c-0.152-0.037-0.299-0.08-0.441-0.137c-0.133-0.053-0.25-0.127-0.355-0.219c-0.104-0.09-0.186-0.197-0.252-0.324
		c-0.057-0.131-0.082-0.281-0.082-0.455c0-0.279,0.049-0.514,0.156-0.703c0.105-0.184,0.238-0.334,0.408-0.443
		c0.174-0.121,0.373-0.203,0.598-0.25c0.229-0.055,0.467-0.086,0.711-0.086c0.264,0,0.518,0.041,0.754,0.119
		c0.242,0.068,0.457,0.176,0.637,0.32c0.188,0.139,0.34,0.314,0.453,0.533c0.119,0.207,0.184,0.455,0.199,0.74h0.713
		c0-0.383-0.076-0.719-0.23-1.004c-0.145-0.289-0.346-0.531-0.594-0.727c-0.252-0.195-0.545-0.34-0.883-0.441
		c-0.334-0.098-0.686-0.143-1.057-0.143c-0.525,0-0.955,0.078-1.289,0.229c-0.334,0.146-0.6,0.328-0.795,0.543
		c-0.184,0.215-0.316,0.443-0.387,0.689c-0.07,0.242-0.105,0.453-0.105,0.635c0,0.291,0.043,0.537,0.137,0.738
		c0.1,0.203,0.223,0.373,0.377,0.514c0.154,0.139,0.332,0.248,0.533,0.33c0.211,0.088,0.426,0.154,0.643,0.211l1.664,0.408
		c0.172,0.045,0.354,0.096,0.533,0.166c0.182,0.066,0.348,0.146,0.492,0.252c0.152,0.104,0.279,0.23,0.367,0.387
		c0.1,0.152,0.145,0.332,0.145,0.541c0,0.268-0.064,0.504-0.197,0.699c-0.131,0.188-0.299,0.342-0.504,0.469
		c-0.195,0.117-0.408,0.203-0.639,0.26c-0.232,0.053-0.445,0.084-0.639,0.084c-0.344,0-0.662-0.031-0.961-0.092
		c-0.303-0.072-0.564-0.182-0.785-0.334c-0.219-0.15-0.389-0.361-0.518-0.615C370.458,106.96,370.398,106.64,370.405,106.261
		L370.405,106.261z"/>
</g>
<path fill="#E30613" d="M521.369,162.453c-0.715,4.984-0.01,10.262-2.961,14.631c-2.008-0.168-2.61-1.006-2.932-1.957
	c-2.611-7.797-7.779-11.873-16.238-11.346c-8.229,0.533-13.063,5.592-16.303,12.461c-4.693,9.994-4.732,20.73-3.57,31.313
	c1.031,9.531,10.129,14.539,20.775,13.203c3.393-0.438,6.889-2.539,10.178,0.254c0.154,3.691-2.775,3.945-4.895,4.404
	c-8.494,1.752-17.033,2.832-25.299-1.113c-4.521-2.149-8.23-5.479-9.83-10.084c-5.168-14.865-3.523-29.502,4.568-42.742
	c7.534-12.334,20.02-14.489,33.307-12.662C512.246,159.38,516.527,159.803,521.369,162.453z"/>
<path fill="#E30613" d="M571.711,187.055c-4.117-0.074-4.83,3.198-7.285,3.707c0.609-6.521,7.826-11.984,15.033-11.234
	c4.045,5.189,0.184,10.668,0.08,17.025c4.391-5.113,6.813-10.613,11.396-14.412c4.687-3.89,8.451-4.273,13.748-0.492
	c1.623,12.205-4.41,23.674-5.588,35.477c4.28,2.121,5.223-3.471,8.545-2.467c-1.457,6.576-8.582,11.98-15.615,11.762
	c-3.225-3.014-2.477-6.936-1.719-10.611c1.541-7.58,3.407-15.104,5.198-22.67c0.511-2.174,0.648-4.297-0.317-6.268
	c-3.03-0.783-4.348,1.117-5.646,2.871c-7.315,9.717-11.801,20.75-14.879,32.41c-1.26,4.729-4.09,5.584-9.473,2.209
	C566.637,212.135,571.045,200.061,571.711,187.055z"/>
<path fill="#E30613" d="M734.906,226.221c-3.202-2.396-2.698-5.828-2.1-8.882c3.363-17.241,6.955-34.43,10.279-50.688
	c0.098-5.062-4.836-4.717-6.304-8.004c4.373-2.959,9.521-0.185,13.468-2.305c2.733,1.391,3.09,2.961,2.502,5.627
	c-2.443,11.293-4.543,22.653-6.767,34.016c-1.414,7.361-2.787,14.725-4.192,22.082c4.129,1.008,5.151-4.252,9.5-3.373
	c-2.65,5.096-6.869,8.074-10.187,11.58C738.836,226.729,736.863,226.859,734.906,226.221z"/>
<path fill="#E30613" d="M679.449,188.661c-2.866,0.931-4.549-0.164-6.823-0.164c-10.091,9.976-11.523,23.822-15.418,36.918
	c-2.382,1.99-4.902,1.57-7.976-0.657c1.08-12.351,4.787-24.57,6.326-37.214c-3.959-1.989-4.824,3.146-7.732,3.05
	c-1.149-1.021-1.075-2.121-0.233-3.193c2.646-3.377,6.063-5.937,9.781-7.816c4.768-2.416,7.571,0.254,8.229,7.816
	c4.603-4.439,7.816-12.074,16.021-6.668C682.975,184.206,682.391,187.001,679.449,188.661z"/>
<path fill="#E30613" d="M635.07,165.081c2.979,4.91-1.434,9.113,0.224,13.261c3.146,2.043,8.235-1.623,10.59,3.471
	c-2.83,3.707-6.537,0.805-9.918,1.846c-3.635,2.865-9.894,28.857-8.086,35.035c3.492-0.254,5.143-4.221,8.614-4.654
	c0.021,3.908,0.021,3.908-10.594,12.291c-2.146,0.51-4.303,0.383-6.76-0.057c-3.643-7.271,0.074-14.103,0.949-21.025
	c0.877-6.865,3.405-13.498,3.528-19.834c-1.452-3.123-4.791-1.043-6.133-3.893c1.967-4.058,7.4-2.338,10.211-5.648
	C630.422,172.678,630.998,168.128,635.07,165.081z"/>
<path fill="#73797D" d="M190.786,166.305c-1.213-3.767-4.174-3.289-6.438-5.978c5.297-0.435,9.801-0.819,14.168-1.201
	c1.826,2.556,1.396,5.021,0.922,7.306c-3.307,16.422-6.73,32.805-10.129,49.213c-0.42,1.994-0.957,3.944,1.051,5.387
	c2.621,0.492,3.43-2.611,6.018-2.336c-3.68,3.834-5.789,9.695-12.705,9.389c-5.58-3.742-2.869-8.934-2.082-13.244
	c2.65-14.502,5.92-28.879,8.926-43.33C190.969,169.335,190.969,167.124,190.786,166.305z"/>
<path fill="#73797D" d="M390.251,193.576c-1.195,1.531-2.785,2.23-4.693,2.305c-5.994-1.484-2.039-10.213-8.504-11.328
	c-2.451-0.313-4.521,0.82-6.387,2.449c-6.328,5.531-9.744,22.006-6.41,29.771c2.555,5.994,7.611,7.184,13.256,7.416
	c1.713,0.059,3.502-1.148,5.441,0.514c-2.338,4.092-6.586,3.068-9.99,3.453c-11.584,1.316-18.971-5.316-18.836-16.988
	c0.127-10.832,2.895-20.57,12.539-27.129c5.512-3.74,11.518-3.412,17.32-1.682C389.575,184.038,391.001,187.402,390.251,193.576z"/>
<path fill="#73797D" d="M290.001,187.234c-1.725-2.904-6.594,0-5.615-5.328c9.27,0.398,12.391-7.219,16.486-15.107
	c2.473,5.736-0.951,9.443-0.377,13.773c3.178,2.318,7.791-0.598,11.107,2.139c-1.68,1.994-1.68,1.994-12.469,3.416
	c-2.311,10.996-4.658,22.23-7.014,33.449c2.584,1.258,2.584,1.258,8.238-0.73c-5.279,8.822-9.262,10.719-16.275,7.084
	C283.7,212.626,290.128,199.896,290.001,187.234z"/>
<path fill="#73797D" d="M210.712,227.299c-3.512-4.732-0.754-9.595,0.094-14.322c1.426-8.002,3.654-15.857,4.605-24.135
	c-3.746-1.349-5.582,1.813-8.295,2.563c2.199-3.436,4.566-6.484,8.064-8.604c2.246-1.371,4.359-2.011,6.641-0.349
	c2.072,1.498,2.4,3.692,1.938,5.957c-1.426,7.229-3.033,14.428-4.469,21.662c-0.693,3.485-2.172,6.938-0.885,10.741
	c3.607,1.111,4.293-3.344,7.041-3.543C224.051,223.533,217.044,228.391,210.712,227.299z"/>
<path fill="#73797D" d="M109.016,189.046c2.254-6.155,5.973-8.223,13.059-6.446c1.232,12.934-5.297,25.188-5.582,38.047
	c4.166,1.242,4.779-3.289,8.951-3.435c-4.047,5.099-7.389,9.427-13.316,11.033c-3.545-1.428-4.951-3.617-4.047-7.524
	c1.844-7.961,3.379-16,4.996-24.021c0.502-2.521,1.105-5.078,0.566-7.476c-1.725-1.733-3.26,0.185-4.768-0.326L109.016,189.046z"/>
<path fill="#73797D" d="M126.926,167.546c-1.336,3.031-3.125,5.57-6.787,4.259c-2.758-0.97-4.723-3.088-4.191-6.433
	c0.43-2.774,2.357-4.223,4.941-4.348C125.364,160.786,126.45,163.93,126.926,167.546z"/>
<path fill="#73797D" d="M227.621,167.219c-0.201,2.83-1.736,5.034-5.15,4.803c-3.57-0.236-5.242-2.576-4.973-6.142
	c0.26-3.344,2.195-5.129,5.502-4.893C226.446,161.244,227.667,163.581,227.621,167.219z"/>
<path fill="#333233" d="M108.876,188.9c-0.293,0.713-0.631,1.354-1.664,1.354c-0.037-1.413,1.033-1.1,1.801-1.204L108.876,188.9z"/>
<path fill="#73797D" d="M58.287,166.484c-0.875-2.115-3.898-0.857-4.336-4.199c7.359-0.217,14.619-0.508,21.9-0.619
	c2.996-0.059,6.029,0.234,9.035,0.439c6.896,0.471,11.607,4.256,13.061,10.43c1.398,5.971-1.408,13.17-6.486,16.344
	c-1.506,0.932-3.168,1.629-4.521,2.285c-0.648,1.297,0.102,1.973,0.676,2.285c8.688,4.877,8.01,13.082,6.422,20.713
	c-1.625,7.816-8.568,10.889-15.635,12.313c-11.703,2.32-23.631,1.261-35.467,1.189c-0.557,0-1.232-0.023-1.396-0.678
	c-0.447-0.75-0.184-1.426,0.355-1.586c5.744-1.85,7.637-6.361,8.648-11.771c2.514-13.313,5.15-26.596,7.91-39.856
	C58.955,171.346,59.33,169.061,58.287,166.484z M79.833,219.333c5.205-4.205,6.758-9.844,4.566-16.623
	c-1.555-4.809-5.471-7.272-12.33-7.489c-2.766-0.111-5.592-0.619-9.078,0.643c-1.764,7.922-3.506,16.201-4.604,24.895
	C64.671,224.174,74.866,223.316,79.833,219.333z M83.816,167.546c-5.379-3.526-13.838-2.407-15.281,2.359
	c-1.9,6.188-2.959,12.655-4.375,18.993c13.664,3.072,19.865-0.387,23.775-8.129c0-2.866,0-5.883,0-9.446
	C86.465,169.958,85.305,168.516,83.816,167.546z"/>
<path fill="#73797D" d="M165.809,182.271c3.588,3.067,5.17,7.32,4.957,12.51c-0.465,11.688-3.854,22.066-13.123,29.795
	c-8.129,6.791-19.428,4.385-23.008-4.75c-1.9-4.859,0.137-9.557,0.969-14.176c1.928-10.758,4.529-21.396,6.641-32.131
	c0.566-2.904,0.477-5.976-0.01-8.273c-1.043-2.744-3.635-2.449-5.461-4.352c4.992-2.17,9.727-0.709,15.051-1.861
	c-0.047,10.836-3.865,20.479-4.568,31.02C151.76,183.911,156.734,179.221,165.809,182.271z M141.794,216.578
	c-0.666,4.434,1.746,7.215,6.977,8.42c12.367-8.42,12.648-21.631,13.152-34.49c-2.803-3.106-2.803-3.106-6.52-3.617
	C146.518,194.635,143.52,205.355,141.794,216.578z"/>
<path fill="#E30613" d="M712.221,181.137c2.613-1.757,5.037-3.232,8.617-0.183c0.471,12.203-5.349,24.129-6.063,36.621
	c4.478,2.832,4.914-5.496,9.123-2.938c-2.688,7.821-10.344,12.784-16.85,11.018c-2.082-1.719-0.191-4.803-2.48-6.906
	c-5.207,4.568-10.041,10.301-19.227,6.979c-3.646-3.819-5.582-8.955-4.002-15.53c2.522-10.479,5.965-20.39,14.522-27.688
	C700.877,178.214,705.92,177.613,712.221,181.137z M693.354,219.751c9.168-0.254,18.476-18.596,17.066-33.702
	c-1.076-1.423-2.16-2.902-4.265-2.847C695.204,188.773,687.605,210.438,693.354,219.751z"/>
<path fill="#73797D" d="M420.174,226.453c-1.621-2.279-0.059-5.131-1.443-7.908c-2.779,1.531-3.979,4.496-6.244,6.322
	c-3.443,2.758-7.113,4.783-11.563,2.83c-4.416-1.92-5.852-5.791-5.715-10.32c0.383-12.953,4.682-24.24,14.604-32.932
	c4.684-4.113,10.381-4.203,15.955-0.568c2.293-1.902,4.758-3.635,8.375-1.096c-1.262,12.439-5.031,24.656-6.627,37.209
	c3.277,3.072,4.629-1.883,7.193-1.701C432.875,225.051,425.734,228.995,420.174,226.453z M407.66,222.421
	c9.717-2.633,20.365-26.067,16.109-35.479c-1.041-1.261-2.209-2.316-4.445-2.556C407.02,190.38,399.166,216.208,407.66,222.421z"/>
<path fill="#73797D" d="M257.707,181.283c8.641-0.016,14.459,4.146,15.451,11.984c1.498,11.637-0.801,22.596-10.299,30.467
	c-10.789,8.912-24.332,5.242-26.973-7.307c-1.982-9.427,0.469-18.703,6.359-26.759C246.28,184.171,251.286,180.697,257.707,181.283z
	 M260.182,216.609c3.215-7.674,4.688-15.598,4.461-23.948c-0.121-5.115-2.441-7.744-7.791-8.422
	c-9.883,5.682-11.309,15.729-12.195,25.664c-0.482,5.43-2.119,12.022,5.518,15.036C255.376,223.915,258.352,220.938,260.182,216.609
	z"/>
<path fill="#E30613" d="M556.865,182.654c3.146,8.039,2.918,9.006-3.465,14.646c-6.539,0.44-13.178,2.065-19.93,1.188
	c-2.76,6.815-3.354,13.06,0.594,18.85c4.164,6.142,11.463,2.89,16.787,4.443c0.547,1.496,0.203,2.246-0.428,2.756
	c-7.482,6.067-25.125,1.59-27.65-7.487c-1.65-5.955-1.6-12.515,0.096-18.484c1.388-4.898,3.021-9.848,7.166-13.687
	C537.93,177.576,547.67,176.495,556.865,182.654z M534.576,193.464c7.699,2.837,13.955,0.238,15.297-6.663
	c-1.141-1.06-2.436-2.267-3.871-3.599C539.279,183.658,536.297,186.454,534.576,193.464z"/>
<path fill="#73797D" d="M341.881,224.374c-10.941,7.488-27.52,4.146-28.496-9.938c-0.65-9.334,0.748-18.047,6.4-25.646
	c4.98-6.686,14.879-9.553,22.9-6.939c2.174,0.713,3.85,2.117,5.197,3.945c3.104,7.691,1.359,13.043-10.959,14.154
	c-4.184,0.369-8.424,0.057-12.926,0.057c-2.484,6.373-3.488,12.387,0.119,18.562C328.014,225.214,334.873,223.316,341.881,224.374z
	 M335.319,195.951c2.98,0,4.754-1.715,5.768-4.385c0.83-2.207,0.109-4.021-1.572-5.354c-2.311-1.842-4.83-2.61-7.729-0.916
	c-3.811,2.269-6.064,5.5-7.27,10.234C328.564,196.682,331.954,195.951,335.319,195.951z"/>
</svg>
