<?xml version="1.0" encoding="utf-8"?>
<!-- Generator: Adobe Illustrator 16.0.0, SVG Export Plug-In . SVG Version: 6.00 Build 0)  -->
<!DOCTYPE svg PUBLIC "-//W3C//DTD SVG 1.1//EN" "http://www.w3.org/Graphics/SVG/1.1/DTD/svg11.dtd" [
	<!ENTITY st0 "fill-rule:evenodd;clip-rule:evenodd;fill:#73797D;">
	<!ENTITY st1 "fill:none;stroke:#73797D;stroke-width:0.2541;stroke-miterlimit:3.8637;">
	<!ENTITY st2 "fill:#E30613;">
	<!ENTITY st3 "fill:none;stroke:#73797D;stroke-width:0.7083;stroke-miterlimit:3.8637;">
	<!ENTITY st4 "fill:none;stroke:#73797D;stroke-width:0.6569;stroke-miterlimit:3.8635;">
	<!ENTITY st5 "fill-rule:evenodd;clip-rule:evenodd;fill:#E30613;">
	<!ENTITY st6 "fill:#73797D;stroke:#73797D;stroke-width:0.2351;stroke-miterlimit:3.8637;">
	<!ENTITY st7 "fill:none;stroke:#73797D;stroke-width:0.3657;stroke-miterlimit:3.8637;">
	<!ENTITY st8 "fill:none;stroke:#73797D;stroke-width:0.3391;stroke-miterlimit:3.8635;">
	
		<!ENTITY st9 "fill:none;stroke:#73797D;stroke-width:0.3658;stroke-linecap:round;stroke-linejoin:round;stroke-miterlimit:3.8637;">
	<!ENTITY st10 "fill:none;stroke:#73797D;stroke-width:0.7259;stroke-miterlimit:3.8637;">
	
		<!ENTITY st11 "fill:none;stroke:#73797D;stroke-width:0.235;stroke-linecap:round;stroke-linejoin:round;stroke-miterlimit:3.8637;">
	<!ENTITY st12 "fill-rule:evenodd;clip-rule:evenodd;fill:#333233;">
	<!ENTITY st13 "fill:#73797D;">
	<!ENTITY st14 "fill:none;stroke:#73797D;stroke-width:0.2351;stroke-miterlimit:3.8637;">
	<!ENTITY st15 "fill:none;stroke:#73797D;stroke-width:0.7348;stroke-miterlimit:3.8635;">
	<!ENTITY st16 "fill:none;stroke:#FFFFFF;stroke-width:0.3657;stroke-miterlimit:3.8637;">
]>
<svg version="1.1" id="Layer_1" xmlns="http://www.w3.org/2000/svg" xmlns:xlink="http://www.w3.org/1999/xlink" x="0px" y="0px"
	 width="379.5px" height="144.5px" viewBox="0 0 379.5 144.5" style="enable-background:new 0 0 379.5 144.5;" xml:space="preserve"
	>
<g>
	<path style="&st15;" d="M42.676,42.215v27.041c0,0.517-0.417,0.937-0.932,0.937h-8.476c-0.566-0.013-0.977,0.935-0.977,0.935
		s-0.411-0.948-1.003-0.935c0.001,0-8.457,0-8.457,0c-0.515,0-0.931-0.419-0.931-0.937l0-27.039L42.676,42.215L42.676,42.215z"/>
	<path style="&st7;" d="M35.405,46.521l-0.826-1.316c-0.988,0.228-0.746-0.63-0.209-0.966c0.589-0.371,1.254-0.24,0.827,0.578
		c0,0,0.191,0.311,0.508,0.815C35.705,45.632,35.488,46.044,35.405,46.521L35.405,46.521z M39.057,50.935l2.25,3.572l-0.166,0.167
		l-0.789-0.626c0,0-0.048-0.521-0.173-0.629c-0.424-0.365-0.172-0.567-0.336-0.906c-0.164-0.338-1.125-0.6-1.349-1.107
		c0.004,0.024-0.37-0.595-0.37-0.595C38.982,50.659,39.057,50.935,39.057,50.935L39.057,50.935z M36.419,46.722
		c-0.003-0.008,0.8,1.315,0.797,1.298c-0.497-0.06-0.738-0.203-0.837-0.471C36.262,47.248,36.354,46.847,36.419,46.722
		L36.419,46.722z M24.395,59.301l1.756,4.435 M24.539,59.429l1.63,3.152 M24.658,59.478l1.483,2.225 M24.746,59.437l1.359,1.616
		 M24.729,59.288l1.969,1.86 M24.713,59.178l2.697,2.019 M24.671,59.086l3.96,2.325 M26.812,52.015l-0.06,1.371h0.799l-0.061-1.371
		H26.812L26.812,52.015z M27.476,51.638l-0.325-7.349l-0.332,7.349H27.476L27.476,51.638z M25.802,51.646h2.696v0.368h-2.696V51.646
		L25.802,51.646z M28,53.387c0,0.551-0.381,0.932-0.851,0.932c-0.469,0-0.85-0.381-0.85-0.932H28L28,53.387z M25.914,48.3
		c0,0.704-0.582,1.275-1.299,1.275c-0.717,0-1.299-0.571-1.299-1.275H25.914L25.914,48.3z M36.578,46.454
		c0,0,0.287,0.39,0.594,0.209c0.563-0.333-0.132-2.227-1.29-1.263c-0.254,0.212-0.595,1.197-0.529,1.828s0.346,1.431,1.058,1.596
		c0.429,0.1,1.285-0.139,1.641,0.446c0.264-0.099,0.554-1.143-0.185-1.177c-0.729-0.033-1.344-0.158-1.456-0.465
		C36.146,46.895,36.578,46.454,36.578,46.454L36.578,46.454z M37.234,49.417c-0.287,0.139-0.496,0.47-0.396,0.838
		s0.547,0.588,1.179,0.555c0.035-0.001,0.068-0.004,0.101-0.006c0.559-0.041,0.809-0.108,0.998,0.208
		c0.2-0.234,0.142-0.756-0.142-0.998C38.541,49.645,37.418,50.112,37.234,49.417L37.234,49.417z M38.483,51.411
		c-0.066,0.302-0.27,0.705-0.1,1.071c0.233,0.501,0.666,0.234,0.799,0.535c0.133,0.301,0.005,0.749,0.3,0.836
		c0.565,0.167,0.367,0.736,0.666,0.702c0.264-0.029,0.273-0.917,0-1.17c-0.399-0.368-0.134-0.636-0.333-0.937
		C39.614,52.148,38.882,52.014,38.483,51.411L38.483,51.411z"/>
	<path style="&st14;" d="M32.662,53.282c0-0.021,0.017-0.037,0.038-0.037s0.037,0.017,0.037,0.037c0,0.021-0.016,0.037-0.037,0.037
		C32.678,53.32,32.662,53.303,32.662,53.282L32.662,53.282z M36.873,45.792c0.053-0.02,0.117,0.02,0.142,0.088
		c0.025,0.069,0.001,0.141-0.052,0.161c-0.054,0.02-0.118-0.021-0.143-0.09C36.796,45.883,36.819,45.812,36.873,45.792
		L36.873,45.792z"/>
	<path style="&st7;" d="M26.576,63.737c0-1.064,0.857-1.925,1.916-1.925s1.915,0.861,1.915,1.925c0,1.063-0.857,1.925-1.915,1.925
		S26.576,64.8,26.576,63.737L26.576,63.737z M30.473,68.469h-0.932v-1.8H23.81v-0.921h6.663V68.469L30.473,68.469z M24.639,63.948
		c0-0.216,0.175-0.392,0.392-0.392c0.215,0,0.39,0.175,0.39,0.392c0,0.218-0.175,0.394-0.39,0.394
		C24.813,64.341,24.639,64.166,24.639,63.948L24.639,63.948z M24.656,63.835l-0.669,1.904l1.034-1.398 M25.403,63.835l0.669,1.904
		l-1.034-1.398 M26.851,62.832c-0.097,0.525,0.882,0.519,0.799,0.803c-0.201,0.686,0.199,0.66,0.266,1.02
		c0,0-0.067,0.853,0.166,0.921c0.133-0.184,0.033-0.543,0.199-0.736c0.175-0.201,0.417-0.31,0.417-0.668
		c0-0.26-0.361-0.343-0.466-0.418c-0.117-0.084-0.333-0.152-0.482-0.152c0,0-0.383-0.735-0.267-0.869
		c0.132-0.116,0.333,0.167,0.416,0.167c0.175,0,0.208-0.351,0.482-0.351c0-0.084-0.017-0.344-0.066-0.368
		c-0.275,0-0.449,0.134-0.683-0.151C27.633,62.029,26.948,62.306,26.851,62.832L26.851,62.832z M29.089,61.887
		c-0.214-0.082-0.541-0.049-0.541-0.049c0.283,0.134,0.266,0.509,0.383,0.509c0.233,0,0.349-0.191,0.582-0.233
		C29.514,62.113,29.303,61.969,29.089,61.887L29.089,61.887z M30.389,63.357c0-0.481-0.642-1.077-0.642-1.077
		s-0.316,0.585-0.167,1.187c0.15,0.017,0.583-0.033,0.583-0.033c0.109,0.05,0.066,0.226,0.066,0.333
		c0,0.268-0.083,0.954-0.083,0.954S30.389,63.84,30.389,63.357L30.389,63.357z"/>
	<polygon style="&st14;" points="24.337,58.264 24.142,58.687 23.69,58.74 24.02,59.052 23.931,59.502 24.33,59.282 24.738,59.506 
		24.659,59.048 24.98,58.74 24.529,58.677 	"/>
	<line style="&st15;" x1="32.288" y1="59.605" x2="32.288" y2="71.051"/>
	<path style="&st9;" d="M33.94,65.173l-0.492,0.56c-0.065,0.076-0.032,0.593,0.002,0.742c0.389,0.156,5.895,1.888,5.895,1.888
		l2.24-2.441l-0.35-0.151c-0.099-0.16,0.218-0.697,0.218-0.697l-1.084-0.428 M39.349,67.279c-0.088,0.071-0.067,0.986,0.004,1.088
		c0.004,0,2.233-2.445,2.233-2.445l-0.231-0.21c-0.019-0.22,0.04-0.618,0.04-0.618L39.349,67.279L39.349,67.279z M39.141,65.774
		c-0.092,0.042-0.147,1.241-0.022,1.249c0-0.001,1.839-2.089,1.839-2.089l-0.179-0.1L39.141,65.774L39.141,65.774z"/>
	<path style="&st11;" d="M34.614,64.19l-0.575,0.587c-0.082,0.043-0.02,0.594,0,0.748c0.202,0.056,5.077,1.503,5.077,1.503
		l1.835-2.112l-0.582-0.208"/>
	<path style="&st7;" d="M39.938,61.134v3.496c-0.478-0.114-2.271-0.344-2.454-0.059c-0.149-0.285-1.591-0.156-2.457,0.036v-3.364
		c-0.109,0.487-0.44,0.664-0.44,0.664v2.965l2.555-0.184c0.283,0.184,0.608,0.066,0.715,0.016l2.454,0.08v-3.319
		C40.312,61.465,40.07,61.444,39.938,61.134L39.938,61.134z M39.938,64.63c-0.522,0-2.08-0.419-2.446-0.051
		c0.333-0.008,0.342,0.209,0,0.218c-0.366-0.025-0.308-0.235,0-0.209c-0.316-0.41-2.459,0.085-2.459,0.085l-0.005-3.43
		c0.595,0,1.211-0.286,1.629-0.286c0.419,0,0.858,0.177,0.858,0.177s0.659-0.266,1.124-0.266c0.55,0,0.833,0.45,1.273,0.294
		C39.905,61.376,39.938,64.63,39.938,64.63L39.938,64.63z"/>
	<line style="&st14;" x1="37.509" y1="61.14" x2="37.488" y2="64.568"/>
	<path style="&st1;" d="M34.956,65.809l-0.185,0.186c-0.084,0.098-0.086,0.87,0.002,0.91c-0.002,0.013,0.398,0.116,0.22,0.035
		c-0.038-0.248-0.023-0.783,0.044-0.86l0.201-0.196L34.956,65.809L34.956,65.809z M35.596,65.993l-0.175,0.187
		c-0.085,0.097-0.121,0.89-0.032,0.929c-0.002,0.015,0.432,0.095,0.254,0.014c-0.039-0.248-0.023-0.783,0.043-0.859l0.186-0.186
		L35.596,65.993L35.596,65.993z M37.152,66.453l-0.209,0.219c-0.084,0.098-0.129,0.851-0.042,0.891
		c-0.002,0.015,0.442,0.135,0.264,0.052c-0.038-0.247-0.022-0.783,0.044-0.859l0.225-0.228L37.152,66.453L37.152,66.453z
		 M37.743,66.636l-0.209,0.221c-0.085,0.097-0.121,0.856-0.033,0.896c-0.002,0.014,0.433,0.128,0.256,0.047
		c-0.039-0.248-0.023-0.783,0.043-0.86l0.226-0.228L37.743,66.636L37.743,66.636z M34.955,64.852l-0.14,0.142
		c-0.064,0.075-0.077,0.722-0.01,0.752c-0.002,0.011,0.182,0.073,0.208,0.063c0.027-0.001-0.016-0.067-0.028-0.099
		c-0.03-0.189-0.018-0.596,0.033-0.654l0.152-0.148L34.955,64.852L34.955,64.852z"/>
	<path style="&st7;" d="M37.517,61.108c-0.665-0.018-0.846-0.548-0.846-0.548l0.258-0.012c0,0-0.325-0.197-0.253-0.392
		c-0.005-0.009,0.227,0.025,0.227,0.025s-0.098-0.266-0.009-0.442l0.207,0.086c0.06-0.354,0.426-0.436,0.426-0.436
		s0.341,0.045,0.44,0.436l0.208-0.086c0.088,0.175-0.007,0.442-0.007,0.442s0.231-0.034,0.226-0.025
		c0.073,0.194-0.253,0.392-0.253,0.392l0.259,0.012C38.398,60.561,38.182,61.091,37.517,61.108L37.517,61.108z"/>
	<line style="&st15;" x1="21.882" y1="56.373" x2="29.061" y2="56.373"/>
	<line style="&st3;" x1="35.544" y1="56.373" x2="42.665" y2="56.373"/>
	<polygon style="&st16;" points="32.298,53.721 34.588,57.747 29.989,57.747 	"/>
	<path style="&st7;" d="M32.279,55.711c0.829,0,1.549,0.682,1.54,0.79c0.008,0.102-0.712,0.785-1.54,0.785
		c-0.829,0-1.55-0.683-1.542-0.785C30.728,56.393,31.421,55.679,32.279,55.711L32.279,55.711z M31.506,56.499
		c0-0.428,0.346-0.775,0.771-0.775s0.771,0.348,0.771,0.775s-0.346,0.775-0.771,0.775C31.852,57.273,31.506,56.926,31.506,56.499
		L31.506,56.499z"/>
	<path style="&st6;" d="M32.181,56.499c0-0.054,0.043-0.097,0.097-0.097c0.053,0,0.096,0.043,0.096,0.097
		c0,0.053-0.043,0.097-0.096,0.097C32.224,56.596,32.181,56.552,32.181,56.499L32.181,56.499z"/>
	<path style="&st7;" d="M32.3,53.636c-1.513,0-2.751,1.236-2.751,2.756c0,1.521,1.226,2.753,2.739,2.753
		c1.513,0,2.739-1.232,2.739-2.753c0-1.367-0.992-2.5-2.292-2.716c-0.484,0.036-0.509-0.141-0.526-0.232
		c-0.044-0.248,0.278-0.393,0.508-0.393c0.399,0,0.365,0.234,0.605,0.284c1.273,0.433,2.188,1.644,2.188,3.068
		c0,1.788-1.442,3.238-3.222,3.238c-1.779,0-3.222-1.45-3.222-3.238c0-1.789,1.338-3.167,3.135-3.034
		C32.173,53.485,32.3,53.636,32.3,53.636L32.3,53.636z"/>
	<polygon style="&st4;" points="32.285,30.828 31.298,32.821 29.07,33.144 30.676,34.737 30.345,36.897 32.285,35.912 
		34.224,36.897 33.867,34.717 35.422,33.192 33.286,32.842 	"/>
	<path style="&st8;" d="M32.285,30.9v5.011 M29.146,33.191l4.721,1.526 M30.345,36.897l2.94-4.055 M34.224,36.897l-2.925-4.076
		 M35.422,33.192l-4.746,1.546"/>
	<path style="&st4;" d="M30.65,34.757l-6.673,2.2 M40.561,31.491l-5.134,1.692 M31.292,32.817l-4.122-5.688 M38.028,42.223
		l-3.84-5.339 M33.288,32.835l4.103-5.731 M26.452,42.223l3.888-5.339 M29.125,33.185l-5.125-1.694 M40.537,36.957l-6.645-2.226
		 M32.285,25.438v5.591"/>
	<path style="&st8;" d="M30.56,35.521l-2.742,1.983 M36.762,30.976l-2.697,1.969 M31.64,36.256l-1.051,3.25 M34.012,28.923
		l-1.043,3.224 M32.946,36.259l1.043,3.225 M30.565,28.893l1.061,3.279 M33.989,35.476l2.724,1.989 M27.769,30.935l2.718,1.984
		 M34.402,34.238l3.435,0 M26.756,34.238h3.382"/>
	<path style="&st7;" d="M37.917,49.104c0.15,0.223,0.458,0.744,0.449,0.744c0,0-0.723,0.05-0.981-0.192
		c-0.057-0.086-0.492-0.789-0.492-0.789S37.768,48.881,37.917,49.104L37.917,49.104z M24.612,45.343l-1.281,2.946l2.563,0.007
		L24.612,45.343L24.612,45.343z M28.421,48.3c0,0.704,0.582,1.275,1.299,1.275c0.718,0,1.299-0.571,1.299-1.275H28.421L28.421,48.3z
		 M29.722,45.343l1.28,2.946l-2.562,0.007L29.722,45.343L29.722,45.343z M26.776,53.192l0.766-0.359 M26.751,52.7l0.766-0.36"/>
	<path style="&st14;" d="M27.135,45.292h-2.521v-0.301h2.496L27.135,45.292L27.135,45.292z M27.175,44.991h2.538v0.301h-2.521
		L27.175,44.991L27.175,44.991z M35.688,61.89c0.349-0.011,0.8-0.357,1.301-0.191 M35.685,62.272c0.348-0.01,0.802-0.34,1.303-0.172
		 M35.681,62.655c0.35-0.01,0.806-0.325,1.307-0.157 M35.679,63.039c0.349-0.011,0.807-0.31,1.308-0.141 M35.676,63.422
		c0.349-0.01,0.81-0.292,1.31-0.125 M35.673,63.805c0.348-0.011,0.813-0.276,1.313-0.108 M39.337,61.777
		c-0.349-0.011-0.815-0.245-1.315-0.078 M39.337,62.181c-0.349-0.011-0.815-0.249-1.315-0.081 M39.338,62.584
		c-0.349-0.012-0.815-0.254-1.315-0.086 M39.338,62.988c-0.349-0.011-0.815-0.259-1.314-0.09 M39.338,63.392
		c-0.349-0.012-0.814-0.262-1.314-0.095 M39.339,63.795c-0.35-0.012-0.815-0.267-1.315-0.098"/>
	<polygon style="&st7;" points="32.298,53.721 34.588,57.747 29.989,57.747 	"/>
	<path style="&st1;" d="M35.443,64.97l-0.14,0.141c-0.064,0.075-0.077,0.722-0.01,0.752c0.032,0.018,0.183,0.089,0.208,0.079
		c0.027,0-0.02-0.083-0.028-0.113c-0.029-0.188-0.018-0.595,0.034-0.654l0.152-0.148L35.443,64.97L35.443,64.97z"/>
	<polygon style="&st13;" points="32.055,35.912 32.473,35.912 32.473,53 32.279,53.263 32.2,53.368 32.07,53.279 	"/>
	<path style="&st1;" d="M37.43,65.542l-0.14,0.142c-0.064,0.074-0.077,0.721-0.011,0.752c-0.001,0.011,0.183,0.073,0.208,0.064
		c0.027-0.001-0.016-0.067-0.028-0.099c-0.029-0.188-0.018-0.595,0.034-0.652l0.152-0.148L37.43,65.542L37.43,65.542z
		 M37.919,65.659l-0.14,0.142c-0.064,0.075-0.077,0.722-0.01,0.752c0.032,0.018,0.182,0.089,0.208,0.08
		c0.027-0.001-0.02-0.083-0.029-0.114c-0.029-0.188-0.017-0.595,0.034-0.654l0.152-0.148L37.919,65.659L37.919,65.659z"/>
</g>
<g>
	<path style="&st2;" d="M79.806,50.484h2.55v4.827h-2.55V69.03c-0.57,4.846-3.723,8.472-8.828,8.272v-4.824
		c2.176,0.073,3.471-0.757,3.698-3.334l0.013-13.832h-2.405v-4.826h2.405l0.001-3.245c0.121-5.112,3.256-8.872,8.915-8.221v4.783
		c-2.42-0.192-3.776,0.792-3.799,3.477L79.806,50.484L79.806,50.484z"/>
	<path style="&st10;" d="M112.986,77.245V38.929 M49.953,77.245V38.922"/>
	<path style="&st13;" d="M55.047,50.562c0-2.738,1.357-3.74,3.799-3.547v-4.783c-5.699-0.656-8.839,3.163-8.916,8.33v4.513v15.271
		h5.117V55.074h3.606v-4.513H55.047L55.047,50.562z"/>
	<path style="&st13;" d="M67.644,70.346h3.993V65.41H68.07c-3.219,0-5.272-2.198-5.272-5.014c0-2.815,2.055-5.014,5.272-5.014h3.567
		v-4.897h-3.993c-6.086,0-9.963,4.358-9.963,9.911C57.681,65.949,61.558,70.346,67.644,70.346L67.644,70.346z"/>
	<path style="&st13;" d="M112.924,58.864c0-5.204-3.293-8.866-8.875-8.866c-2.596,0-4.844,1.079-6.356,2.813
		c-1.434-1.734-3.643-2.813-6.356-2.813c-5.464,0-8.991,3.815-8.991,8.866v11.49h5.116V58.75c0-2.236,1.59-3.779,3.875-3.779
		c3.372,0,3.721,2.66,3.721,3.779v11.604h5.115V58.75c0-2.236,1.627-3.779,3.875-3.779c3.373,0,3.76,2.66,3.76,3.779v11.604h5.115
		L112.924,58.864L112.924,58.864z"/>
</g>
<g>
	<path style="&st13;" d="M118.82,65.58v2.269c0,0.182,0.024,0.355,0.074,0.521c0.054,0.163,0.135,0.304,0.244,0.428
		c0.114,0.121,0.256,0.219,0.429,0.292c0.176,0.069,0.388,0.104,0.634,0.104c0.25,0,0.461-0.035,0.634-0.104
		c0.176-0.073,0.319-0.171,0.429-0.292c0.112-0.124,0.194-0.265,0.244-0.428c0.054-0.166,0.08-0.339,0.08-0.521V65.58h-0.339v2.194
		c0,0.205-0.022,0.38-0.069,0.525c-0.047,0.143-0.114,0.26-0.204,0.353c-0.09,0.088-0.2,0.156-0.329,0.199
		c-0.13,0.04-0.277,0.059-0.444,0.059c-0.163,0-0.31-0.02-0.44-0.059c-0.13-0.043-0.238-0.11-0.328-0.199
		c-0.09-0.092-0.158-0.209-0.205-0.353c-0.047-0.145-0.069-0.32-0.069-0.525V65.58H118.82L118.82,65.58z"/>
	<polygon style="&st13;" points="122.628,65.58 122.628,69.123 122.968,69.123 122.968,66.126 122.978,66.126 125.054,69.123 
		125.433,69.123 125.433,65.58 125.093,65.58 125.093,68.578 125.083,68.578 123.008,65.58 	"/>
	<polygon style="&st13;" points="126.533,65.58 126.533,69.123 126.873,69.123 126.873,65.58 	"/>
	<polygon style="&st13;" points="127.59,65.58 128.907,69.123 129.3,69.123 130.623,65.58 130.264,65.58 129.116,68.751 
		129.106,68.751 127.949,65.58 	"/>
	<polygon style="&st13;" points="131.3,65.58 131.3,69.123 133.785,69.123 133.785,68.835 131.639,68.835 131.639,67.437 
		133.625,67.437 133.625,67.149 131.639,67.149 131.639,65.869 133.759,65.869 133.759,65.58 	"/>
	<path style="&st13;" d="M134.96,67.262v-1.394h1.267c0.26,0,0.453,0.063,0.579,0.189c0.126,0.125,0.189,0.298,0.189,0.516
		c0,0.108-0.022,0.207-0.065,0.292c-0.04,0.082-0.095,0.154-0.165,0.213c-0.07,0.06-0.151,0.105-0.244,0.138
		c-0.094,0.031-0.191,0.045-0.295,0.045H134.96L134.96,67.262z M134.621,65.58v3.543h0.339V67.55h1.287
		c0.16-0.005,0.284,0.021,0.374,0.08c0.094,0.06,0.162,0.139,0.209,0.238c0.049,0.097,0.081,0.208,0.095,0.333
		c0.016,0.123,0.027,0.247,0.035,0.372c0.003,0.037,0.007,0.08,0.01,0.129c0.003,0.049,0.007,0.102,0.009,0.153
		c0.007,0.05,0.016,0.1,0.026,0.149c0.013,0.046,0.029,0.086,0.049,0.119h0.375c-0.038-0.043-0.067-0.101-0.09-0.178
		c-0.02-0.081-0.035-0.163-0.044-0.248c-0.011-0.09-0.016-0.177-0.02-0.264c-0.003-0.086-0.007-0.158-0.01-0.22
		c-0.007-0.104-0.021-0.202-0.045-0.291c-0.021-0.093-0.055-0.174-0.105-0.244c-0.045-0.07-0.107-0.127-0.184-0.169
		c-0.076-0.045-0.172-0.079-0.29-0.094v-0.01c0.229-0.047,0.403-0.152,0.519-0.319c0.117-0.165,0.175-0.36,0.175-0.584
		c0-0.159-0.03-0.296-0.09-0.413c-0.056-0.12-0.133-0.215-0.234-0.288c-0.096-0.076-0.21-0.132-0.344-0.169
		c-0.13-0.036-0.268-0.055-0.415-0.055L134.621,65.58L134.621,65.58z"/>
	<path style="&st13;" d="M138.471,67.957h-0.339c-0.01,0.219,0.019,0.406,0.085,0.563c0.069,0.154,0.167,0.281,0.293,0.382
		c0.126,0.098,0.28,0.174,0.46,0.222c0.179,0.047,0.374,0.07,0.583,0.07c0.209,0,0.389-0.02,0.54-0.06
		c0.149-0.037,0.274-0.083,0.374-0.145c0.103-0.062,0.183-0.132,0.239-0.208c0.061-0.076,0.105-0.15,0.135-0.224
		c0.034-0.076,0.054-0.147,0.061-0.213c0.009-0.065,0.014-0.118,0.014-0.159c0-0.146-0.025-0.269-0.075-0.373
		c-0.047-0.103-0.113-0.189-0.201-0.257c-0.083-0.073-0.18-0.132-0.294-0.18c-0.108-0.049-0.228-0.09-0.354-0.124l-0.867-0.213
		c-0.073-0.017-0.143-0.038-0.209-0.064c-0.063-0.027-0.12-0.06-0.17-0.104c-0.05-0.043-0.088-0.095-0.119-0.154
		c-0.027-0.063-0.04-0.137-0.04-0.219c0-0.132,0.025-0.244,0.075-0.333s0.115-0.16,0.195-0.213c0.084-0.056,0.178-0.096,0.284-0.12
		c0.11-0.027,0.224-0.04,0.339-0.04c0.127,0,0.246,0.018,0.359,0.055c0.116,0.034,0.218,0.084,0.305,0.155
		c0.088,0.065,0.16,0.151,0.214,0.253c0.057,0.1,0.087,0.216,0.094,0.353h0.34c0-0.182-0.037-0.342-0.109-0.477
		c-0.07-0.138-0.165-0.254-0.284-0.347c-0.121-0.092-0.26-0.162-0.419-0.208c-0.16-0.047-0.328-0.069-0.504-0.069
		c-0.25,0-0.454,0.036-0.614,0.108c-0.158,0.069-0.286,0.155-0.378,0.257c-0.09,0.104-0.151,0.213-0.185,0.328
		c-0.034,0.116-0.05,0.216-0.05,0.303c0,0.139,0.022,0.256,0.064,0.352c0.047,0.097,0.107,0.179,0.181,0.244
		s0.158,0.118,0.253,0.159c0.1,0.039,0.201,0.074,0.304,0.099l0.793,0.193c0.083,0.021,0.167,0.047,0.254,0.08
		c0.086,0.03,0.165,0.07,0.234,0.12c0.073,0.049,0.131,0.111,0.175,0.183c0.046,0.074,0.07,0.158,0.07,0.257
		c0,0.13-0.033,0.24-0.095,0.333c-0.062,0.089-0.143,0.164-0.24,0.224c-0.092,0.057-0.194,0.098-0.304,0.124
		c-0.109,0.027-0.211,0.039-0.304,0.039c-0.163,0-0.316-0.013-0.458-0.044c-0.144-0.033-0.269-0.085-0.375-0.158
		c-0.104-0.072-0.185-0.169-0.245-0.292C138.496,68.292,138.467,68.139,138.471,67.957L138.471,67.957z"/>
	<polygon style="&st13;" points="141.841,65.58 141.841,69.123 142.18,69.123 142.18,65.58 	"/>
	<path style="&st13;" d="M143.287,65.58v3.543h1.231c0.543-0.012,0.951-0.163,1.223-0.451c0.276-0.292,0.414-0.731,0.414-1.321
		c0-0.588-0.137-1.026-0.414-1.315c-0.272-0.29-0.68-0.442-1.223-0.456H143.287L143.287,65.58z M143.625,68.835v-2.967h0.723
		c0.256,0,0.476,0.028,0.66,0.083c0.186,0.054,0.339,0.139,0.459,0.258c0.119,0.12,0.207,0.273,0.263,0.461
		c0.058,0.188,0.086,0.416,0.086,0.68c0,0.267-0.028,0.493-0.086,0.681c-0.056,0.188-0.145,0.343-0.263,0.46
		c-0.12,0.12-0.273,0.207-0.459,0.263c-0.184,0.053-0.404,0.08-0.66,0.08H143.625L143.625,68.835z"/>
	<path style="&st13;" d="M147.571,67.735l0.712-1.816l0.688,1.816H147.571L147.571,67.735z M148.108,65.58l-1.431,3.543h0.36
		l0.429-1.101h1.621l0.434,1.101h0.365l-1.396-3.543H148.108L148.108,65.58z"/>
	<path style="&st13;" d="M150.572,65.58v3.543h1.232c0.542-0.012,0.95-0.163,1.223-0.451c0.276-0.292,0.414-0.731,0.414-1.321
		c0-0.588-0.138-1.026-0.414-1.315c-0.273-0.29-0.681-0.442-1.223-0.456H150.572L150.572,65.58z M150.911,68.835v-2.967h0.724
		c0.255,0,0.475,0.028,0.658,0.083c0.186,0.054,0.339,0.139,0.458,0.258c0.121,0.12,0.208,0.273,0.265,0.461
		c0.057,0.188,0.084,0.416,0.084,0.68c0,0.267-0.028,0.493-0.084,0.681c-0.056,0.188-0.145,0.343-0.265,0.46
		c-0.12,0.12-0.272,0.207-0.458,0.263c-0.182,0.053-0.402,0.08-0.658,0.08H150.911L150.911,68.835z"/>
	<path style="&st13;" d="M157.353,65.58v3.543h1.232c0.542-0.012,0.95-0.163,1.223-0.451c0.276-0.292,0.414-0.731,0.414-1.321
		c0-0.588-0.138-1.026-0.414-1.315c-0.272-0.29-0.681-0.442-1.223-0.456H157.353L157.353,65.58z M157.692,68.835v-2.967h0.724
		c0.255,0,0.475,0.028,0.658,0.083c0.186,0.054,0.339,0.139,0.459,0.258s0.208,0.273,0.265,0.461
		c0.057,0.188,0.084,0.416,0.084,0.68c0,0.267-0.028,0.493-0.084,0.681c-0.056,0.188-0.145,0.343-0.265,0.46
		c-0.12,0.12-0.273,0.207-0.459,0.263c-0.182,0.053-0.402,0.08-0.658,0.08H157.692L157.692,68.835z"/>
	<polygon style="&st13;" points="161.133,65.58 161.133,69.123 163.618,69.123 163.618,68.835 161.473,68.835 161.473,67.437 
		163.458,67.437 163.458,67.149 161.473,67.149 161.473,65.869 163.592,65.869 163.592,65.58 	"/>
	<path style="&st13;" d="M170.059,66.652h0.34c-0.024-0.185-0.08-0.349-0.17-0.491c-0.087-0.142-0.196-0.262-0.33-0.357
		c-0.129-0.101-0.276-0.175-0.439-0.224c-0.16-0.048-0.324-0.073-0.493-0.073c-0.279,0-0.525,0.051-0.738,0.153
		c-0.208,0.099-0.384,0.235-0.524,0.407c-0.139,0.169-0.245,0.364-0.314,0.585c-0.069,0.222-0.105,0.455-0.105,0.699
		c0,0.246,0.036,0.479,0.105,0.7c0.07,0.222,0.175,0.419,0.314,0.587c0.14,0.169,0.315,0.304,0.524,0.407
		c0.213,0.099,0.459,0.148,0.738,0.148c0.209,0,0.398-0.034,0.568-0.099c0.172-0.067,0.323-0.162,0.448-0.283
		c0.126-0.123,0.23-0.272,0.31-0.446c0.079-0.177,0.131-0.373,0.155-0.591h-0.339c-0.017,0.158-0.055,0.308-0.115,0.446
		c-0.06,0.136-0.139,0.253-0.234,0.357c-0.097,0.103-0.211,0.184-0.346,0.244c-0.132,0.059-0.283,0.088-0.448,0.088
		c-0.236,0-0.439-0.044-0.609-0.132c-0.168-0.09-0.309-0.208-0.419-0.353c-0.105-0.148-0.186-0.316-0.239-0.501
		c-0.049-0.188-0.075-0.378-0.075-0.571c0-0.194,0.026-0.384,0.075-0.57c0.053-0.184,0.133-0.35,0.239-0.495
		c0.111-0.149,0.251-0.268,0.419-0.357c0.17-0.089,0.373-0.134,0.609-0.134c0.129,0,0.253,0.021,0.369,0.059
		c0.12,0.037,0.228,0.091,0.325,0.165c0.1,0.072,0.183,0.165,0.25,0.272C169.979,66.396,170.029,66.518,170.059,66.652
		L170.059,66.652z"/>
	<polygon style="&st13;" points="171.33,65.58 171.33,69.123 171.669,69.123 171.669,67.407 173.784,67.407 173.784,69.123 
		174.124,69.123 174.124,65.58 173.784,65.58 173.784,67.119 171.669,67.119 171.669,65.58 	"/>
	<polygon style="&st13;" points="175.229,65.58 175.229,69.123 175.568,69.123 175.568,65.58 	"/>
	<polygon style="&st13;" points="176.675,65.58 176.675,69.123 179.009,69.123 179.009,68.835 177.014,68.835 177.014,65.58 	"/>
	<polygon style="&st13;" points="179.717,65.58 179.717,69.123 182.201,69.123 182.201,68.835 180.057,68.835 180.057,67.437 
		182.041,67.437 182.041,67.149 180.057,67.149 180.057,65.869 182.175,65.869 182.175,65.58 	"/>
	<polygon style="&st13;" points="118.854,60.37 118.854,63.913 119.193,63.913 119.193,62.226 120.899,62.226 120.899,61.938 
		119.193,61.938 119.193,60.657 121.114,60.657 121.114,60.37 	"/>
	<path style="&st13;" d="M121.934,60.087l0.659-0.7h-0.389l-0.523,0.7H121.934L121.934,60.087z M121.804,60.37v3.543h0.339V60.37
		H121.804L121.804,60.37z"/>
	<path style="&st13;" d="M123.292,62.748h-0.338c-0.011,0.218,0.018,0.405,0.084,0.561c0.07,0.155,0.168,0.283,0.294,0.382
		s0.28,0.173,0.459,0.223c0.18,0.046,0.374,0.069,0.584,0.069c0.21,0,0.389-0.02,0.54-0.059c0.149-0.037,0.273-0.084,0.373-0.145
		c0.103-0.063,0.183-0.132,0.24-0.207c0.06-0.077,0.105-0.151,0.135-0.224c0.033-0.076,0.053-0.148,0.06-0.213
		c0.01-0.066,0.015-0.119,0.015-0.158c0-0.146-0.025-0.27-0.074-0.373c-0.047-0.102-0.114-0.188-0.201-0.258
		c-0.083-0.072-0.181-0.133-0.294-0.179c-0.11-0.05-0.229-0.09-0.354-0.124l-0.869-0.213c-0.073-0.016-0.142-0.038-0.209-0.064
		c-0.063-0.026-0.119-0.06-0.17-0.104c-0.05-0.043-0.089-0.095-0.12-0.154c-0.027-0.062-0.039-0.135-0.039-0.218
		c0-0.133,0.024-0.243,0.074-0.332c0.05-0.089,0.115-0.161,0.195-0.213c0.083-0.057,0.178-0.097,0.284-0.119
		c0.109-0.026,0.223-0.039,0.339-0.039c0.126,0,0.247,0.016,0.36,0.054c0.116,0.033,0.218,0.084,0.304,0.154
		c0.09,0.065,0.161,0.151,0.214,0.253c0.057,0.099,0.088,0.216,0.095,0.351h0.339c0-0.18-0.037-0.339-0.109-0.475
		c-0.07-0.14-0.165-0.254-0.285-0.348c-0.12-0.093-0.259-0.162-0.418-0.208c-0.161-0.046-0.328-0.07-0.504-0.07
		c-0.25,0-0.454,0.037-0.614,0.109c-0.159,0.07-0.285,0.156-0.379,0.258c-0.09,0.102-0.151,0.212-0.184,0.328
		c-0.033,0.115-0.05,0.217-0.05,0.302c0,0.139,0.021,0.256,0.065,0.352c0.046,0.096,0.107,0.178,0.18,0.242
		c0.073,0.066,0.157,0.12,0.254,0.159c0.099,0.04,0.202,0.074,0.304,0.1l0.793,0.195c0.083,0.018,0.168,0.044,0.255,0.079
		c0.086,0.03,0.165,0.07,0.234,0.119c0.073,0.049,0.131,0.111,0.175,0.184c0.045,0.073,0.069,0.159,0.069,0.257
		c0,0.13-0.032,0.24-0.095,0.333c-0.063,0.088-0.143,0.164-0.24,0.222c-0.092,0.057-0.194,0.098-0.304,0.125
		c-0.109,0.026-0.211,0.039-0.304,0.039c-0.162,0-0.316-0.014-0.459-0.044c-0.143-0.033-0.267-0.085-0.374-0.158
		c-0.103-0.072-0.184-0.17-0.245-0.292C123.317,63.082,123.289,62.929,123.292,62.748L123.292,62.748z"/>
	<polygon style="&st13;" points="126.547,60.37 126.547,63.913 126.887,63.913 126.887,60.37 	"/>
	<path style="&st13;" d="M130.479,61.441h0.339c-0.022-0.185-0.08-0.349-0.169-0.491c-0.086-0.143-0.196-0.261-0.329-0.356
		c-0.13-0.1-0.276-0.175-0.438-0.224c-0.16-0.05-0.325-0.075-0.495-0.075c-0.279,0-0.525,0.051-0.737,0.155
		c-0.209,0.098-0.384,0.234-0.523,0.405c-0.141,0.169-0.245,0.366-0.315,0.586c-0.069,0.223-0.104,0.456-0.104,0.7
		c0,0.244,0.035,0.478,0.104,0.7c0.071,0.221,0.175,0.417,0.315,0.585c0.139,0.17,0.314,0.305,0.523,0.407
		c0.212,0.1,0.458,0.149,0.737,0.149c0.21,0,0.4-0.032,0.569-0.098c0.173-0.066,0.323-0.161,0.449-0.283
		c0.125-0.123,0.229-0.271,0.309-0.445c0.08-0.177,0.131-0.373,0.155-0.592h-0.34c-0.017,0.159-0.055,0.308-0.114,0.447
		c-0.06,0.135-0.139,0.254-0.235,0.357c-0.096,0.104-0.21,0.183-0.344,0.244c-0.133,0.059-0.282,0.087-0.449,0.087
		c-0.235,0-0.438-0.043-0.608-0.132c-0.169-0.089-0.309-0.208-0.419-0.353c-0.107-0.148-0.186-0.315-0.239-0.501
		c-0.051-0.188-0.075-0.378-0.075-0.57c0-0.195,0.024-0.385,0.075-0.57c0.053-0.186,0.132-0.351,0.239-0.498
		c0.109-0.148,0.25-0.268,0.419-0.355c0.17-0.09,0.373-0.134,0.608-0.134c0.13,0,0.253,0.019,0.37,0.06
		c0.12,0.037,0.227,0.091,0.324,0.163c0.101,0.075,0.183,0.165,0.25,0.274C130.399,61.186,130.45,61.307,130.479,61.441
		L130.479,61.441z"/>
	<path style="&st13;" d="M132.138,62.524l0.712-1.817l0.69,1.817H132.138L132.138,62.524z M132.677,60.37l-1.432,3.543h0.36
		l0.429-1.101h1.622l0.434,1.101h0.366l-1.398-3.543H132.677L132.677,60.37z"/>
	<path style="&st13;" d="M135.182,62.748h-0.339c-0.01,0.218,0.018,0.405,0.084,0.561c0.07,0.155,0.167,0.283,0.295,0.382
		c0.126,0.099,0.279,0.173,0.458,0.223c0.179,0.046,0.374,0.069,0.583,0.069c0.21,0,0.389-0.02,0.539-0.059
		c0.15-0.037,0.275-0.084,0.375-0.145c0.104-0.063,0.182-0.132,0.24-0.207c0.06-0.077,0.104-0.151,0.133-0.224
		c0.035-0.076,0.054-0.148,0.061-0.213c0.01-0.066,0.015-0.119,0.015-0.158c0-0.146-0.025-0.27-0.075-0.373
		c-0.046-0.102-0.113-0.188-0.199-0.258c-0.084-0.072-0.181-0.133-0.294-0.179c-0.11-0.05-0.229-0.09-0.354-0.124l-0.869-0.213
		c-0.074-0.016-0.143-0.038-0.209-0.064c-0.063-0.026-0.12-0.06-0.169-0.104c-0.05-0.042-0.09-0.095-0.12-0.154
		c-0.026-0.062-0.04-0.135-0.04-0.218c0-0.133,0.025-0.243,0.075-0.332c0.05-0.089,0.114-0.161,0.194-0.213
		c0.083-0.057,0.178-0.097,0.284-0.119c0.11-0.026,0.223-0.039,0.34-0.039c0.126,0,0.245,0.016,0.358,0.054
		c0.117,0.033,0.218,0.084,0.303,0.154c0.09,0.065,0.162,0.151,0.214,0.253c0.058,0.099,0.088,0.216,0.096,0.351h0.339
		c0-0.18-0.037-0.339-0.11-0.475c-0.069-0.14-0.165-0.254-0.283-0.348c-0.12-0.093-0.259-0.162-0.42-0.208
		c-0.158-0.046-0.327-0.07-0.503-0.07c-0.25,0-0.455,0.037-0.613,0.109c-0.16,0.07-0.287,0.156-0.379,0.258
		c-0.089,0.102-0.151,0.212-0.185,0.328c-0.033,0.115-0.05,0.217-0.05,0.302c0,0.139,0.022,0.256,0.065,0.352
		c0.046,0.096,0.105,0.178,0.179,0.242c0.074,0.066,0.158,0.12,0.255,0.159c0.099,0.04,0.2,0.074,0.304,0.1l0.793,0.195
		c0.082,0.018,0.168,0.044,0.254,0.079c0.085,0.03,0.163,0.07,0.234,0.119c0.072,0.049,0.132,0.111,0.173,0.184
		c0.048,0.073,0.071,0.159,0.071,0.257c0,0.13-0.032,0.24-0.095,0.333c-0.063,0.088-0.144,0.164-0.24,0.222
		c-0.093,0.057-0.194,0.098-0.303,0.125c-0.11,0.026-0.212,0.039-0.305,0.039c-0.163,0-0.316-0.014-0.458-0.044
		c-0.144-0.033-0.269-0.085-0.375-0.158c-0.104-0.072-0.185-0.17-0.245-0.292C135.207,63.082,135.18,62.929,135.182,62.748
		L135.182,62.748z"/>
	<polygon style="&st13;" points="141.823,62.454 141.823,63.913 142.163,63.913 142.163,62.454 143.569,60.37 143.166,60.37 
		141.998,62.166 140.826,60.37 140.427,60.37 	"/>
	<polygon style="&st13;" points="146.534,60.37 146.534,63.913 146.874,63.913 146.874,60.853 146.883,60.853 148.105,63.913 
		148.425,63.913 149.643,60.853 149.651,60.853 149.651,63.913 149.991,63.913 149.991,60.37 149.492,60.37 148.265,63.477 
		147.034,60.37 	"/>
	<path style="&st13;" d="M151.449,62.524l0.714-1.817l0.688,1.817H151.449L151.449,62.524z M151.989,60.37l-1.433,3.543h0.359
		l0.43-1.101h1.62l0.434,1.101h0.365l-1.397-3.543H151.989L151.989,60.37z"/>
	<polygon style="&st13;" points="153.616,60.37 153.616,60.657 154.854,60.657 154.854,63.913 155.193,63.913 155.193,60.657 
		156.435,60.657 156.435,60.37 	"/>
	<polygon style="&st13;" points="157.015,60.37 157.015,63.913 159.5,63.913 159.5,63.625 157.355,63.625 157.355,62.226 
		159.34,62.226 159.34,61.938 157.355,61.938 157.355,60.657 159.476,60.657 159.476,60.37 	"/>
	<polygon style="&st13;" points="160.21,60.37 160.21,63.913 160.549,63.913 160.549,60.853 160.559,60.853 161.781,63.913 
		162.1,63.913 163.318,60.853 163.328,60.853 163.328,63.913 163.668,63.913 163.668,60.37 163.168,60.37 161.941,63.477 
		160.709,60.37 	"/>
	<path style="&st13;" d="M165.794,60.087l0.658-0.7h-0.389l-0.524,0.7H165.794L165.794,60.087z M165.126,62.524l0.713-1.817
		l0.688,1.817H165.126L165.126,62.524z M165.665,60.37l-1.433,3.543h0.36l0.429-1.101h1.621l0.434,1.101h0.366l-1.398-3.543H165.665
		L165.665,60.37z"/>
	<polygon style="&st13;" points="167.631,60.37 167.631,60.657 168.869,60.657 168.869,63.913 169.208,63.913 169.208,60.657 
		170.45,60.657 170.45,60.37 	"/>
	<polygon style="&st13;" points="171.056,60.37 171.056,63.913 171.396,63.913 171.396,60.37 	"/>
	<path style="&st13;" d="M174.988,61.441h0.339c-0.023-0.185-0.08-0.349-0.169-0.491c-0.087-0.143-0.196-0.261-0.329-0.356
		c-0.129-0.1-0.276-0.175-0.439-0.224c-0.16-0.05-0.324-0.075-0.493-0.075c-0.279,0-0.525,0.051-0.738,0.155
		c-0.208,0.098-0.384,0.234-0.523,0.405c-0.14,0.169-0.245,0.366-0.314,0.586c-0.069,0.223-0.105,0.456-0.105,0.7
		c0,0.244,0.036,0.478,0.105,0.7c0.069,0.221,0.175,0.417,0.314,0.585c0.14,0.17,0.315,0.305,0.523,0.407
		c0.213,0.1,0.459,0.149,0.738,0.149c0.209,0,0.398-0.032,0.568-0.098c0.173-0.066,0.323-0.161,0.449-0.283
		c0.126-0.123,0.229-0.271,0.309-0.445c0.08-0.177,0.131-0.373,0.155-0.592h-0.339c-0.017,0.159-0.055,0.308-0.115,0.447
		c-0.06,0.135-0.138,0.254-0.234,0.357c-0.097,0.104-0.212,0.183-0.345,0.244c-0.133,0.059-0.282,0.087-0.448,0.087
		c-0.237,0-0.44-0.043-0.609-0.132c-0.17-0.089-0.309-0.208-0.419-0.353c-0.106-0.148-0.186-0.315-0.24-0.501
		c-0.05-0.188-0.075-0.378-0.075-0.57c0-0.195,0.025-0.385,0.075-0.57c0.054-0.186,0.134-0.351,0.24-0.498
		c0.111-0.148,0.249-0.268,0.419-0.355c0.169-0.09,0.372-0.134,0.609-0.134c0.13,0,0.253,0.019,0.369,0.06
		c0.121,0.037,0.228,0.091,0.325,0.163c0.1,0.075,0.183,0.165,0.249,0.274C174.909,61.186,174.959,61.307,174.988,61.441
		L174.988,61.441z"/>
	<path style="&st13;" d="M176.647,62.524l0.713-1.817l0.688,1.817H176.647L176.647,62.524z M177.185,60.37l-1.431,3.543h0.36
		l0.429-1.101h1.621l0.434,1.101h0.366l-1.398-3.543H177.185L177.185,60.37z"/>
	<path style="&st13;" d="M179.691,62.748h-0.339c-0.01,0.218,0.018,0.405,0.084,0.561c0.071,0.155,0.168,0.283,0.295,0.382
		c0.127,0.099,0.279,0.173,0.459,0.223c0.179,0.046,0.373,0.069,0.583,0.069c0.211,0,0.389-0.02,0.539-0.059
		c0.15-0.037,0.274-0.084,0.375-0.145c0.102-0.063,0.181-0.132,0.238-0.207c0.061-0.077,0.105-0.151,0.136-0.224
		c0.032-0.076,0.053-0.148,0.06-0.213c0.009-0.066,0.014-0.119,0.014-0.158c0-0.146-0.024-0.27-0.074-0.373
		c-0.048-0.102-0.113-0.188-0.2-0.258c-0.083-0.072-0.181-0.133-0.294-0.179c-0.11-0.05-0.228-0.09-0.354-0.124l-0.869-0.213
		c-0.073-0.016-0.143-0.038-0.21-0.064c-0.063-0.026-0.119-0.06-0.169-0.104c-0.05-0.043-0.089-0.095-0.12-0.154
		c-0.027-0.062-0.04-0.135-0.04-0.218c0-0.133,0.024-0.243,0.075-0.332c0.05-0.089,0.113-0.161,0.194-0.213
		c0.083-0.057,0.178-0.097,0.285-0.119c0.109-0.026,0.222-0.039,0.339-0.039c0.125,0,0.246,0.016,0.358,0.054
		c0.116,0.033,0.218,0.084,0.304,0.154c0.089,0.065,0.161,0.151,0.215,0.253c0.057,0.099,0.088,0.216,0.095,0.351h0.34
		c0-0.18-0.037-0.339-0.11-0.475c-0.069-0.14-0.165-0.254-0.283-0.348c-0.12-0.093-0.259-0.162-0.42-0.208
		c-0.159-0.046-0.327-0.07-0.503-0.07c-0.25,0-0.455,0.037-0.614,0.109c-0.159,0.07-0.286,0.156-0.379,0.258
		c-0.087,0.102-0.15,0.212-0.184,0.328c-0.033,0.115-0.05,0.217-0.05,0.302c0,0.139,0.021,0.256,0.065,0.352
		c0.047,0.096,0.106,0.178,0.18,0.242c0.073,0.066,0.157,0.12,0.254,0.159c0.1,0.04,0.202,0.074,0.305,0.1l0.793,0.195
		c0.082,0.018,0.168,0.044,0.254,0.079c0.086,0.03,0.165,0.07,0.234,0.119c0.073,0.049,0.133,0.111,0.175,0.184
		c0.047,0.073,0.069,0.159,0.069,0.257c0,0.13-0.031,0.24-0.094,0.333c-0.063,0.088-0.143,0.164-0.24,0.222
		c-0.093,0.057-0.195,0.098-0.304,0.125c-0.111,0.026-0.212,0.039-0.304,0.039c-0.164,0-0.316-0.014-0.458-0.044
		c-0.144-0.033-0.269-0.085-0.374-0.158c-0.104-0.072-0.185-0.17-0.246-0.292C179.717,63.082,179.688,62.929,179.691,62.748
		L179.691,62.748z"/>
	<polygon style="&st13;" points="118.854,55.16 118.854,58.704 119.193,58.704 119.193,57.015 120.899,57.015 120.899,56.729 
		119.193,56.729 119.193,55.447 121.114,55.447 121.114,55.16 	"/>
	<path style="&st13;" d="M122.11,57.314l0.714-1.816l0.688,1.816H122.11L122.11,57.314z M122.649,55.16l-1.432,3.544h0.358
		l0.429-1.102h1.622l0.434,1.102h0.365l-1.398-3.544H122.649L122.649,55.16z"/>
	<path style="&st13;" d="M127.7,56.232h0.339c-0.023-0.186-0.08-0.35-0.169-0.492c-0.086-0.142-0.196-0.261-0.329-0.357
		c-0.13-0.1-0.276-0.174-0.439-0.224c-0.16-0.049-0.324-0.074-0.494-0.074c-0.279,0-0.525,0.051-0.737,0.155
		c-0.21,0.098-0.385,0.233-0.524,0.407c-0.14,0.168-0.245,0.364-0.315,0.585c-0.069,0.221-0.105,0.455-0.105,0.7
		c0,0.244,0.036,0.478,0.105,0.698c0.07,0.224,0.175,0.417,0.315,0.587c0.139,0.168,0.314,0.303,0.524,0.407
		c0.212,0.097,0.458,0.148,0.737,0.148c0.209,0,0.398-0.034,0.569-0.099c0.173-0.066,0.323-0.161,0.448-0.283
		c0.126-0.123,0.23-0.271,0.31-0.447c0.081-0.174,0.131-0.372,0.155-0.59h-0.339c-0.016,0.158-0.055,0.308-0.115,0.446
		c-0.06,0.135-0.138,0.255-0.234,0.357c-0.096,0.103-0.211,0.183-0.345,0.244c-0.132,0.06-0.282,0.089-0.448,0.089
		c-0.235,0-0.439-0.044-0.609-0.134c-0.169-0.089-0.308-0.206-0.418-0.352c-0.106-0.149-0.186-0.316-0.24-0.501
		c-0.05-0.188-0.075-0.379-0.075-0.57c0-0.196,0.024-0.386,0.075-0.57c0.054-0.186,0.134-0.351,0.24-0.498
		c0.109-0.149,0.25-0.268,0.418-0.357c0.17-0.089,0.374-0.134,0.609-0.134c0.13,0,0.253,0.021,0.37,0.061
		c0.121,0.037,0.229,0.091,0.324,0.163c0.1,0.073,0.182,0.164,0.25,0.273C127.621,55.975,127.67,56.095,127.7,56.232L127.7,56.232z"
		/>
	<path style="&st13;" d="M128.922,55.16v2.268c0,0.183,0.024,0.356,0.074,0.521c0.053,0.163,0.135,0.305,0.244,0.427
		c0.113,0.123,0.256,0.221,0.43,0.293c0.176,0.069,0.388,0.105,0.634,0.105c0.249,0,0.46-0.036,0.633-0.105
		c0.177-0.072,0.32-0.17,0.429-0.293c0.113-0.123,0.194-0.265,0.244-0.427c0.054-0.165,0.081-0.338,0.081-0.521V55.16h-0.34v2.193
		c0,0.205-0.023,0.38-0.07,0.526c-0.046,0.142-0.113,0.259-0.204,0.353c-0.09,0.088-0.201,0.154-0.329,0.198
		c-0.13,0.04-0.279,0.06-0.445,0.06c-0.163,0-0.31-0.02-0.438-0.06c-0.13-0.044-0.239-0.11-0.329-0.198
		c-0.09-0.094-0.158-0.21-0.206-0.353c-0.046-0.146-0.068-0.321-0.068-0.526V55.16H128.922L128.922,55.16z"/>
	<polygon style="&st13;" points="132.721,55.16 132.721,58.704 135.056,58.704 135.056,58.415 133.06,58.415 133.06,55.16 	"/>
	<polygon style="&st13;" points="134.909,55.16 134.909,55.447 136.146,55.447 136.146,58.704 136.485,58.704 136.485,55.447 
		137.728,55.447 137.728,55.16 	"/>
	<path style="&st13;" d="M138.574,57.314l0.713-1.816l0.689,1.816H138.574L138.574,57.314z M139.113,55.16l-1.431,3.544h0.358
		l0.43-1.102h1.621l0.435,1.102h0.364l-1.396-3.544H139.113L139.113,55.16z"/>
	<path style="&st13;" d="M141.561,55.16v3.544h1.232c0.542-0.013,0.95-0.163,1.223-0.452c0.276-0.291,0.414-0.732,0.414-1.32
		c0-0.588-0.137-1.026-0.414-1.315c-0.272-0.292-0.681-0.443-1.223-0.457L141.561,55.16L141.561,55.16z M141.899,58.415v-2.968
		h0.724c0.255,0,0.476,0.029,0.658,0.083c0.186,0.054,0.339,0.141,0.458,0.259c0.121,0.119,0.208,0.273,0.265,0.461
		c0.057,0.189,0.084,0.416,0.084,0.681c0,0.264-0.028,0.49-0.084,0.679c-0.056,0.188-0.144,0.343-0.265,0.462
		c-0.119,0.12-0.272,0.207-0.458,0.264c-0.182,0.053-0.402,0.079-0.658,0.079H141.899L141.899,58.415z"/>
	<path style="&st13;" d="M148.251,55.16v3.544h1.231c0.543-0.013,0.951-0.163,1.223-0.452c0.277-0.291,0.414-0.732,0.414-1.32
		c0-0.588-0.137-1.026-0.414-1.315c-0.272-0.292-0.68-0.443-1.223-0.457L148.251,55.16L148.251,55.16z M148.59,58.415v-2.968h0.723
		c0.256,0,0.476,0.029,0.66,0.083c0.186,0.054,0.339,0.141,0.458,0.259c0.12,0.119,0.207,0.273,0.264,0.461
		c0.058,0.189,0.084,0.416,0.084,0.681c0,0.264-0.027,0.49-0.084,0.679c-0.057,0.188-0.144,0.343-0.264,0.462
		c-0.119,0.12-0.273,0.207-0.458,0.264c-0.184,0.053-0.403,0.079-0.66,0.079H148.59L148.59,58.415z"/>
	<polygon style="&st13;" points="152.016,55.16 152.016,58.704 154.5,58.704 154.5,58.415 152.355,58.415 152.355,57.015 
		154.341,57.015 154.341,56.729 152.355,56.729 152.355,55.447 154.475,55.447 154.475,55.16 	"/>
	<path style="&st13;" d="M160.851,56.232h0.339c-0.024-0.186-0.08-0.35-0.17-0.492c-0.085-0.142-0.196-0.261-0.329-0.357
		c-0.13-0.1-0.276-0.174-0.438-0.224c-0.16-0.049-0.325-0.074-0.495-0.074c-0.279,0-0.525,0.051-0.738,0.155
		c-0.209,0.098-0.384,0.233-0.523,0.407c-0.139,0.168-0.245,0.364-0.313,0.585c-0.07,0.221-0.106,0.455-0.106,0.7
		c0,0.244,0.037,0.478,0.106,0.698c0.068,0.224,0.175,0.417,0.313,0.587c0.139,0.168,0.314,0.303,0.523,0.407
		c0.213,0.097,0.459,0.148,0.738,0.148c0.209,0,0.399-0.034,0.569-0.099c0.173-0.066,0.323-0.161,0.449-0.283
		c0.126-0.123,0.23-0.271,0.31-0.447c0.08-0.174,0.131-0.372,0.154-0.59H160.9c-0.017,0.158-0.055,0.308-0.114,0.446
		c-0.06,0.135-0.137,0.255-0.234,0.357c-0.096,0.103-0.21,0.183-0.344,0.244c-0.133,0.06-0.283,0.089-0.449,0.089
		c-0.235,0-0.439-0.044-0.609-0.134c-0.169-0.089-0.308-0.206-0.417-0.352c-0.107-0.149-0.188-0.316-0.24-0.501
		c-0.05-0.188-0.074-0.379-0.074-0.57c0-0.196,0.024-0.386,0.074-0.57c0.053-0.186,0.133-0.351,0.24-0.498
		c0.109-0.149,0.249-0.268,0.417-0.357c0.17-0.089,0.374-0.134,0.609-0.134c0.13,0,0.253,0.021,0.37,0.061
		c0.119,0.037,0.228,0.091,0.325,0.163c0.099,0.073,0.183,0.164,0.25,0.273C160.771,55.975,160.821,56.095,160.851,56.232
		L160.851,56.232z"/>
	<polygon style="&st13;" points="162.131,55.16 162.131,58.704 162.47,58.704 162.47,55.16 	"/>
	<polygon style="&st13;" points="163.562,55.16 163.562,58.704 166.045,58.704 166.045,58.415 163.901,58.415 163.901,57.015 
		165.886,57.015 165.886,56.729 163.901,56.729 163.901,55.447 166.021,55.447 166.021,55.16 	"/>
	<polygon style="&st13;" points="166.863,55.16 166.863,58.704 167.202,58.704 167.202,55.705 167.211,55.705 169.287,58.704 
		169.666,58.704 169.666,55.16 169.326,55.16 169.326,58.157 169.317,58.157 167.241,55.16 	"/>
	<path style="&st13;" d="M173.33,56.232h0.34c-0.023-0.186-0.079-0.35-0.169-0.492c-0.086-0.142-0.196-0.261-0.33-0.357
		c-0.129-0.1-0.275-0.174-0.439-0.224c-0.158-0.049-0.323-0.074-0.493-0.074c-0.279,0-0.525,0.051-0.738,0.155
		c-0.209,0.098-0.385,0.233-0.523,0.407c-0.14,0.168-0.246,0.364-0.315,0.585c-0.07,0.221-0.105,0.455-0.105,0.7
		c0,0.244,0.036,0.478,0.105,0.698c0.069,0.224,0.175,0.417,0.315,0.587c0.139,0.168,0.314,0.303,0.523,0.407
		c0.212,0.097,0.459,0.148,0.738,0.148c0.209,0,0.398-0.034,0.569-0.099c0.173-0.066,0.323-0.161,0.448-0.283
		c0.126-0.123,0.23-0.271,0.31-0.447c0.079-0.174,0.13-0.372,0.154-0.59h-0.339c-0.017,0.158-0.055,0.308-0.115,0.446
		c-0.059,0.135-0.138,0.255-0.233,0.357c-0.097,0.103-0.211,0.183-0.344,0.244c-0.134,0.06-0.283,0.089-0.449,0.089
		c-0.235,0-0.439-0.044-0.609-0.134c-0.169-0.089-0.308-0.206-0.418-0.352c-0.106-0.149-0.186-0.316-0.239-0.501
		c-0.05-0.188-0.076-0.379-0.076-0.57c0-0.196,0.026-0.386,0.076-0.57c0.053-0.186,0.133-0.351,0.239-0.498
		c0.11-0.149,0.25-0.268,0.418-0.357c0.17-0.089,0.374-0.134,0.609-0.134c0.13,0,0.253,0.021,0.369,0.061
		c0.12,0.037,0.228,0.091,0.325,0.163c0.1,0.073,0.184,0.164,0.25,0.273C173.25,55.975,173.301,56.095,173.33,56.232L173.33,56.232z
		"/>
	<polygon style="&st13;" points="174.612,55.16 174.612,58.704 174.951,58.704 174.951,55.16 	"/>
	<path style="&st13;" d="M176.546,57.314l0.713-1.816l0.688,1.816H176.546L176.546,57.314z M177.084,55.16l-1.432,3.544h0.359
		l0.429-1.102h1.62l0.437,1.102h0.363l-1.396-3.544H177.084L177.084,55.16z"/>
	<path style="&st13;" d="M179.691,57.537h-0.339c-0.01,0.219,0.018,0.404,0.084,0.561c0.071,0.156,0.168,0.284,0.295,0.382
		c0.127,0.1,0.279,0.173,0.459,0.225c0.179,0.046,0.373,0.069,0.583,0.069c0.211,0,0.389-0.021,0.539-0.06
		c0.15-0.036,0.274-0.084,0.375-0.143c0.102-0.063,0.181-0.132,0.238-0.208c0.061-0.077,0.105-0.152,0.136-0.224
		c0.032-0.076,0.053-0.147,0.06-0.214c0.009-0.066,0.014-0.119,0.014-0.159c0-0.144-0.024-0.269-0.074-0.371
		c-0.048-0.104-0.113-0.188-0.2-0.257c-0.083-0.073-0.181-0.133-0.294-0.18c-0.11-0.05-0.228-0.091-0.354-0.125l-0.869-0.211
		c-0.073-0.018-0.143-0.038-0.21-0.065c-0.063-0.026-0.119-0.061-0.169-0.105c-0.05-0.042-0.089-0.093-0.12-0.154
		c-0.027-0.062-0.04-0.134-0.04-0.217c0-0.133,0.024-0.244,0.075-0.334c0.05-0.088,0.113-0.159,0.194-0.212
		c0.083-0.057,0.178-0.096,0.285-0.119c0.109-0.026,0.222-0.04,0.339-0.04c0.125,0,0.246,0.019,0.358,0.056
		c0.116,0.033,0.218,0.084,0.304,0.153c0.089,0.066,0.161,0.15,0.215,0.254c0.057,0.098,0.088,0.216,0.095,0.352h0.34
		c0-0.182-0.037-0.342-0.11-0.478c-0.069-0.138-0.165-0.253-0.283-0.346c-0.12-0.093-0.259-0.162-0.42-0.21
		c-0.159-0.046-0.327-0.068-0.503-0.068c-0.25,0-0.455,0.037-0.614,0.109c-0.159,0.07-0.286,0.156-0.379,0.258
		c-0.087,0.103-0.15,0.212-0.184,0.329c-0.033,0.115-0.05,0.216-0.05,0.302c0,0.139,0.021,0.256,0.065,0.352
		c0.047,0.096,0.106,0.177,0.18,0.244c0.073,0.066,0.157,0.119,0.254,0.158c0.1,0.041,0.202,0.073,0.305,0.1l0.793,0.194
		c0.082,0.021,0.168,0.046,0.254,0.079c0.086,0.032,0.165,0.07,0.234,0.12c0.073,0.05,0.133,0.11,0.175,0.184
		c0.047,0.073,0.069,0.159,0.069,0.258c0,0.128-0.031,0.24-0.094,0.333c-0.063,0.089-0.143,0.163-0.24,0.223
		c-0.093,0.056-0.195,0.097-0.304,0.124c-0.111,0.025-0.212,0.04-0.304,0.04c-0.164,0-0.316-0.015-0.458-0.044
		c-0.144-0.034-0.269-0.087-0.374-0.159c-0.104-0.072-0.185-0.172-0.246-0.293C179.717,57.87,179.688,57.718,179.691,57.537
		L179.691,57.537z"/>
</g>
<path style="&st5;" d="M251.579,84.295c-0.34,2.373-0.005,4.887-1.41,6.967c-0.956-0.08-1.243-0.479-1.396-0.932
	c-1.244-3.713-3.705-5.654-7.732-5.402c-3.92,0.254-6.22,2.662-7.764,5.934c-2.235,4.758-2.253,9.871-1.7,14.91
	c0.491,4.539,4.823,6.924,9.894,6.287c1.615-0.209,3.28-1.209,4.845,0.121c0.074,1.758-1.321,1.879-2.33,2.098
	c-4.044,0.834-8.111,1.348-12.047-0.531c-2.153-1.025-3.92-2.609-4.681-4.801c-2.461-7.08-1.678-14.049,2.176-20.354
	c3.588-5.873,9.533-6.9,15.86-6.029C247.234,82.832,249.274,83.033,251.579,84.295z"/>
<path style="&st5;" d="M275.552,96.01c-1.961-0.035-2.301,1.523-3.47,1.766c0.29-3.105,3.727-5.707,7.159-5.35
	c1.926,2.471,0.087,5.08,0.038,8.107c2.091-2.436,3.245-5.055,5.427-6.863c2.232-1.852,4.024-2.035,6.547-0.234
	c0.773,5.811-2.101,11.273-2.661,16.893c2.039,1.01,2.487-1.652,4.069-1.174c-0.694,3.131-4.087,5.705-7.437,5.6
	c-1.535-1.434-1.178-3.303-0.818-5.053c0.735-3.609,1.623-7.193,2.476-10.795c0.243-1.035,0.31-2.045-0.151-2.984
	c-1.444-0.373-2.071,0.531-2.688,1.367c-3.484,4.627-5.619,9.881-7.085,15.432c-0.601,2.252-1.948,2.66-4.511,1.053
	C273.135,107.953,275.234,102.203,275.552,96.01z"/>
<path style="&st5;" d="M353.264,114.66c-1.526-1.141-1.286-2.775-1-4.229c1.601-8.211,3.311-16.395,4.894-24.137
	c0.047-2.41-2.302-2.246-3.001-3.811c2.082-1.41,4.535-0.088,6.414-1.098c1.301,0.662,1.47,1.41,1.191,2.68
	c-1.165,5.377-2.165,10.787-3.222,16.197c-0.674,3.506-1.327,7.012-1.997,10.516c1.966,0.479,2.453-2.025,4.523-1.607
	c-1.262,2.426-3.27,3.844-4.849,5.514C355.135,114.902,354.195,114.965,353.264,114.66z"/>
<path style="&st5;" d="M326.855,96.775c-1.365,0.443-2.166-0.078-3.249-0.078c-4.805,4.75-5.488,11.344-7.342,17.58
	c-1.134,0.947-2.335,0.748-3.797-0.313c0.513-5.881,2.279-11.701,3.011-17.721c-1.884-0.947-2.297,1.498-3.681,1.453
	c-0.548-0.486-0.513-1.01-0.111-1.521c1.26-1.609,2.887-2.828,4.657-3.723c2.27-1.15,3.605,0.121,3.918,3.723
	c2.192-2.115,3.724-5.75,7.63-3.176C328.534,94.654,328.256,95.984,326.855,96.775z"/>
<path style="&st5;" d="M305.722,85.547c1.419,2.338-0.682,4.34,0.106,6.314c1.499,0.973,3.923-0.773,5.043,1.652
	c-1.348,1.766-3.112,0.383-4.723,0.879c-1.73,1.365-4.71,13.742-3.85,16.684c1.663-0.121,2.449-2.01,4.102-2.217
	c0.01,1.861,0.01,1.861-5.045,5.854c-1.021,0.242-2.048,0.182-3.218-0.027c-1.735-3.463,0.035-6.715,0.452-10.012
	c0.418-3.27,1.622-6.428,1.68-9.445c-0.692-1.488-2.28-0.496-2.92-1.854c0.937-1.932,3.524-1.113,4.863-2.689
	C303.509,89.164,303.783,86.998,305.722,85.547z"/>
<path style="&st0;" d="M94.158,86.129c-0.578-1.793-1.987-1.566-3.065-2.846c2.522-0.207,4.667-0.391,6.746-0.572
	c0.87,1.217,0.665,2.391,0.439,3.479c-1.574,7.82-3.205,15.621-4.823,23.434c-0.2,0.949-0.456,1.879,0.5,2.566
	c1.248,0.234,1.634-1.244,2.866-1.113c-1.752,1.826-2.757,4.617-6.05,4.471c-2.657-1.783-1.366-4.254-0.991-6.307
	c1.261-6.906,2.818-13.752,4.25-20.633C94.245,87.572,94.245,86.52,94.158,86.129z"/>
<path style="&st0;" d="M189.142,99.115c-0.569,0.73-1.326,1.063-2.235,1.098c-2.854-0.707-0.971-4.863-4.049-5.395
	c-1.167-0.148-2.153,0.391-3.041,1.166c-3.014,2.635-4.64,10.48-3.053,14.178c1.217,2.854,3.624,3.42,6.312,3.531
	c0.816,0.027,1.668-0.547,2.592,0.244c-1.114,1.949-3.137,1.461-4.758,1.645c-5.516,0.627-9.033-2.531-8.969-8.09
	c0.06-5.158,1.378-9.795,5.971-12.918c2.624-1.781,5.484-1.625,8.247-0.801C188.82,94.574,189.499,96.176,189.142,99.115z"/>
<path style="&st0;" d="M141.404,96.096c-0.821-1.383-3.14,0-2.674-2.537c4.414,0.189,5.901-3.438,7.851-7.195
	c1.178,2.732-0.453,4.498-0.179,6.559c1.513,1.105,3.71-0.285,5.289,1.018c-0.8,0.949-0.8,0.949-5.938,1.627
	c-1.1,5.236-2.218,10.586-3.34,15.928c1.231,0.6,1.231,0.6,3.923-0.348c-2.514,4.201-4.41,5.105-7.75,3.373
	C138.403,108.188,141.465,102.125,141.404,96.096z"/>
<path style="&st0;" d="M103.648,115.174c-1.673-2.254-0.36-4.568,0.044-6.82c0.679-3.811,1.74-7.551,2.193-11.492
	c-1.784-0.643-2.658,0.863-3.95,1.219c1.048-1.635,2.175-3.088,3.841-4.096c1.069-0.654,2.075-0.957,3.162-0.166
	c0.987,0.713,1.143,1.758,0.922,2.836c-0.679,3.443-1.444,6.871-2.128,10.316c-0.33,1.66-1.034,3.305-0.421,5.115
	c1.718,0.529,2.044-1.592,3.353-1.688C109.999,113.381,106.663,115.693,103.648,115.174z"/>
<path style="&st0;" d="M55.22,96.959c1.074-2.932,2.844-3.916,6.219-3.07c0.587,6.158-2.523,11.994-2.658,18.117
	c1.983,0.592,2.275-1.566,4.262-1.635c-1.927,2.428-3.518,4.488-6.341,5.254c-1.688-0.68-2.358-1.723-1.927-3.584
	c0.878-3.791,1.609-7.619,2.379-11.438c0.239-1.201,0.526-2.418,0.27-3.559c-0.822-0.826-1.553,0.088-2.271-0.156L55.22,96.959z"/>
<path style="&st0;" d="M63.749,86.721c-0.636,1.443-1.488,2.652-3.232,2.027c-1.313-0.461-2.249-1.471-1.996-3.063
	c0.205-1.322,1.123-2.01,2.353-2.07C63.005,83.502,63.522,84.998,63.749,86.721z"/>
<path style="&st0;" d="M111.699,86.564c-0.096,1.348-0.827,2.398-2.453,2.287c-1.7-0.113-2.496-1.227-2.367-2.924
	c0.123-1.592,1.045-2.443,2.619-2.33C111.139,83.719,111.721,84.832,111.699,86.564z"/>
<path style="&st12;" d="M55.154,96.889c-0.139,0.34-0.3,0.645-0.792,0.645c-0.018-0.672,0.492-0.523,0.857-0.574L55.154,96.889z"/>
<path style="&st0;" d="M31.064,86.215c-0.417-1.008-1.857-0.408-2.065-2c3.505-0.104,6.962-0.242,10.429-0.295
	c1.427-0.027,2.871,0.111,4.302,0.209c3.284,0.225,5.528,2.027,6.219,4.967c0.666,2.844-0.67,6.271-3.088,7.783
	c-0.717,0.443-1.509,0.775-2.153,1.088c-0.309,0.617,0.048,0.939,0.322,1.088c4.136,2.322,3.814,6.229,3.058,9.863
	c-0.774,3.723-4.08,5.186-7.446,5.863c-5.572,1.105-11.252,0.6-16.888,0.566c-0.265,0-0.587-0.01-0.665-0.322
	c-0.213-0.357-0.088-0.68,0.169-0.756c2.735-0.881,3.636-3.029,4.118-5.604c1.197-6.34,2.453-12.664,3.767-18.979
	C31.382,88.529,31.56,87.441,31.064,86.215z M41.324,111.381c2.479-2.002,3.218-4.688,2.175-7.916
	c-0.74-2.289-2.605-3.463-5.872-3.566c-1.317-0.053-2.662-0.295-4.323,0.305c-0.839,3.773-1.669,7.715-2.192,11.855
	C34.104,113.686,38.958,113.277,41.324,111.381z M43.22,86.721c-2.561-1.68-6.589-1.148-7.276,1.123
	c-0.905,2.947-1.409,6.027-2.083,9.045c6.506,1.463,9.459-0.184,11.321-3.871c0-1.365,0-2.801,0-4.498
	C44.482,87.869,43.929,87.182,43.22,86.721z"/>
<path style="&st0;" d="M82.264,93.732c1.709,1.461,2.462,3.486,2.361,5.957c-0.221,5.566-1.835,10.508-6.249,14.188
	c-3.871,3.234-9.251,2.088-10.956-2.262c-0.905-2.313,0.065-4.551,0.461-6.75c0.918-5.123,2.157-10.188,3.162-15.301
	c0.27-1.383,0.227-2.844-0.004-3.939c-0.497-1.307-1.731-1.166-2.601-2.072c2.378-1.033,4.632-0.338,7.167-0.887
	c-0.022,5.16-1.84,9.752-2.175,14.771C75.574,94.514,77.944,92.279,82.264,93.732z M70.829,110.068
	c-0.317,2.111,0.832,3.436,3.323,4.01c5.889-4.01,6.023-10.301,6.263-16.424c-1.335-1.479-1.335-1.479-3.105-1.723
	C73.078,99.619,71.651,104.725,70.829,110.068z"/>
<path style="&st5;" d="M342.461,93.191c1.244-0.836,2.399-1.539,4.104-0.086c0.223,5.811-2.548,11.49-2.887,17.439
	c2.131,1.348,2.339-2.617,4.344-1.4c-1.281,3.725-4.927,6.088-8.024,5.246c-0.991-0.818-0.091-2.287-1.182-3.289
	c-2.479,2.176-4.781,4.906-9.155,3.324c-1.735-1.82-2.658-4.264-1.905-7.395c1.201-4.992,2.84-9.709,6.916-13.186
	C337.059,91.801,339.46,91.514,342.461,93.191z M333.476,111.58c4.366-0.121,8.798-8.855,8.128-16.049
	c-0.513-0.678-1.03-1.383-2.031-1.355C334.357,96.828,330.739,107.145,333.476,111.58z"/>
<path style="&st0;" d="M203.39,114.771c-0.771-1.086-0.027-2.443-0.687-3.766c-1.323,0.73-1.894,2.141-2.972,3.01
	c-1.64,1.314-3.388,2.279-5.506,1.348c-2.104-0.914-2.788-2.758-2.722-4.914c0.182-6.168,2.23-11.543,6.954-15.682
	c2.23-1.959,4.944-2.002,7.598-0.27c1.091-0.906,2.266-1.732,3.988-0.523c-0.601,5.924-2.396,11.742-3.157,17.719
	c1.561,1.463,2.205-0.896,3.427-0.809C209.439,114.104,206.039,115.982,203.39,114.771z M197.432,112.852
	c4.627-1.254,9.698-12.414,7.671-16.895c-0.496-0.6-1.052-1.104-2.117-1.217C197.127,97.594,193.387,109.893,197.432,112.852z"/>
<path style="&st0;" d="M126.026,93.262c4.114-0.008,6.885,1.975,7.358,5.707c0.713,5.541-0.382,10.76-4.905,14.508
	c-5.137,4.244-11.587,2.496-12.844-3.48c-0.944-4.488,0.223-8.906,3.028-12.742C120.584,94.637,122.968,92.982,126.026,93.262z
	 M127.204,110.084c1.531-3.654,2.232-7.428,2.124-11.404c-0.057-2.436-1.162-3.688-3.71-4.01c-4.706,2.705-5.385,7.49-5.807,12.221
	c-0.23,2.586-1.009,5.725,2.627,7.16C124.916,113.563,126.333,112.145,127.204,110.084z"/>
<path style="&st5;" d="M268.483,93.914c1.497,3.828,1.388,4.289-1.651,6.975c-3.114,0.211-6.276,0.984-9.49,0.566
	c-1.314,3.246-1.597,6.219,0.282,8.977c1.984,2.924,5.459,1.375,7.994,2.115c0.261,0.713,0.097,1.07-0.203,1.313
	c-3.563,2.889-11.965,0.756-13.167-3.566c-0.786-2.836-0.761-5.959,0.045-8.803c0.661-2.332,1.439-4.688,3.413-6.516
	C259.465,91.496,264.104,90.982,268.483,93.914z M257.868,99.063c3.666,1.35,6.646,0.113,7.284-3.174
	c-0.543-0.504-1.16-1.078-1.844-1.713C260.107,94.393,258.687,95.725,257.868,99.063z"/>
<path style="&st0;" d="M166.109,113.781c-5.211,3.566-13.105,1.975-13.57-4.732c-0.31-4.445,0.356-8.594,3.048-12.213
	c2.371-3.184,7.085-4.549,10.904-3.305c1.036,0.34,1.834,1.008,2.476,1.879c1.478,3.662,0.647,6.211-5.219,6.74
	c-1.992,0.176-4.011,0.027-6.155,0.027c-1.183,3.035-1.661,5.898,0.057,8.838C159.505,114.182,162.771,113.277,166.109,113.781z
	 M162.984,100.246c1.419,0,2.263-0.816,2.746-2.088c0.395-1.051,0.052-1.914-0.749-2.549c-1.1-0.877-2.3-1.244-3.68-0.436
	c-1.814,1.08-2.888,2.619-3.462,4.873C159.767,100.594,161.381,100.246,162.984,100.246z"/>
</svg>
