<?xml version="1.0" encoding="utf-8"?>
<!-- Generator: Adobe Illustrator 16.0.0, SVG Export Plug-In . SVG Version: 6.00 Build 0)  -->
<!DOCTYPE svg PUBLIC "-//W3C//DTD SVG 1.1//EN" "http://www.w3.org/Graphics/SVG/1.1/DTD/svg11.dtd" [
	<!ENTITY ns_extend "http://ns.adobe.com/Extensibility/1.0/">
	<!ENTITY ns_ai "http://ns.adobe.com/AdobeIllustrator/10.0/">
	<!ENTITY ns_graphs "http://ns.adobe.com/Graphs/1.0/">
	<!ENTITY ns_vars "http://ns.adobe.com/Variables/1.0/">
	<!ENTITY ns_imrep "http://ns.adobe.com/ImageReplacement/1.0/">
	<!ENTITY ns_sfw "http://ns.adobe.com/SaveForWeb/1.0/">
	<!ENTITY ns_custom "http://ns.adobe.com/GenericCustomNamespace/1.0/">
	<!ENTITY ns_adobe_xpath "http://ns.adobe.com/XPath/1.0/">
]>
<svg version="1.1" id="Layer_1" xmlns:x="&ns_extend;" xmlns:i="&ns_ai;" xmlns:graph="&ns_graphs;"
	 xmlns="http://www.w3.org/2000/svg" xmlns:xlink="http://www.w3.org/1999/xlink" x="0px" y="0px" width="792px" height="612px"
	 viewBox="0 0 792 612" enable-background="new 0 0 792 612" xml:space="preserve">
<metadata>
	<sfw  xmlns="&ns_sfw;">
		<slices></slices>
		<sliceSourceBounds  height="572.746" width="609.823" x="102.146" y="-590.397" bottomLeftOrigin="true"></sliceSourceBounds>
	</sfw>
</metadata>
<path fill="none" stroke="#954929" stroke-width="29.1865" stroke-linecap="round" stroke-miterlimit="10" d="M578.197,181.223
	c0,0-72.825-96.729-217.262-93.734c-103.32,2.142-248.26,87.35-244.108,217.963c5.114,160.898,208.795,266.417,384.289,179.235"/>
<path fill="#B1E2F5" d="M153.497,492.919c-7.293-1.588-25.913-6.43-29.561-1.87c-4.338,5.423,21.142,46.586,29.561,62.863
	c8.42,16.276,14.78,18.521,18.147,17.024s-2.267-12.305-7.857-24.883c-2.246-5.052-9.542-18.146,17.399-1.122
	c23.111,14.604,126.943,63.609,269.788,38.354c142.846-25.258,212.205-123.834,238.73-177.552
	c44.899-90.927,25.066-222.99-88.688-316.162C487.265-3.601,312.58,14.392,261.631,31.199c-24.316,8.021-9.163,14.943,1.875,11.389
	c7.071-2.278,21.876-5.563,28.532-7.858c16.277-5.613,212.724-30.309,318.246,90.646c100.569,115.28,79.038,193.562,73.054,224.621
	c-5.985,31.059-59.864,220.641-325.541,220.012c-82.316-0.194-152.878-34.429-173.805-49.492c-4.604-3.315-3.778-7.217-3.186-8.131
	c2.251-3.471,34.636,9.965,33.776,1.114C213.647,503.863,200.681,503.188,153.497,492.919z"/>
<path fill="#230C0C" d="M272.394,228.651h21.89v120.675h-21.89v-9.541c0,0-10.477,13.845-27.596,14.125
	s-36.483-17.024-37.606-47.334c-1.122-30.31,19.598-48.599,36.577-48.738c21.514-0.179,28.52,13.295,28.52,13.295L272.394,228.651z
	 M250.879,277.764c-11.832,0-19.739,12.563-19.739,28.063c0,15.496,7.907,28.063,19.739,28.063
	c11.831,0,19.924-12.567,19.924-28.063C270.804,290.327,262.71,277.764,250.879,277.764z"/>
<path fill="#230C0C" d="M384.182,273.46v-13.845h20.581v100.279c0,0-2.245,27.878-40.412,26.94
	c-38.167-0.935-40.788-22.077-40.788-26.193h23.906c0,0,3.269,9.729,15.991,9.729s20.958-12.54,21.145-17.591
	c0.185-5.052-0.235-12.344-0.235-12.344s-8.044,13.675-22.264,13.479c-14.22-0.194-37.98-7.305-39.664-35.183
	c-2.17-35.915,9.729-60.992,36.857-60.992C379.506,257.74,384.182,273.46,384.182,273.46z M363.976,277.759
	c-11.161,0-17.961,12.564-17.961,28.064c0,15.498,6.8,28.063,17.961,28.063c11.16,0,19.27-12.752,19.27-28.25
	C383.246,290.138,375.136,277.759,363.976,277.759z"/>
<path fill="#230C0C" d="M442.742,277.763v71.844h24.181v-71.844h14.267v-15.855h-14.267c0.197-9.944-2.291-17.331,14.267-15.857
	v-17.399h-20.768c0,0-17.68,0.841-17.68,19.364c0,12.068,0,13.821,0,13.821l-10.944,0.211v15.716H442.742z"/>
</svg>
