<?xml version="1.0" encoding="utf-8"?>
<!-- Generator: Adobe Illustrator 22.1.0, SVG Export Plug-In . SVG Version: 6.00 Build 0)  -->
<svg version="1.1" id="Capa_1" xmlns="http://www.w3.org/2000/svg" xmlns:xlink="http://www.w3.org/1999/xlink" x="0px" y="0px"
	 viewBox="0 0 800 236" enable-background="new 0 0 800 236" xml:space="preserve">
<g>
	<g>
		<path fill="#5B6670" d="M403.1,51.5h5.3l8.8,23.6h-5.4l-1.8-5.2h-8.8l-1.8,5.2h-5.2L403.1,51.5z M402.6,66h6.1l-3-8.6h-0.1
			L402.6,66z M406.5,49.4h-3.3l3.2-4.7h5.2L406.5,49.4z"/>
		<path fill="#5B6670" d="M418.7,58h4.5v3.2h0.1c0.9-2.1,3.2-3.6,5.4-3.6c0.3,0,0.7,0.1,1,0.2v4.4c-0.4-0.1-1.1-0.2-1.7-0.2
			c-3.4,0-4.6,2.5-4.6,5.5v7.7h-4.7V58z"/>
		<path fill="#5B6670" d="M435.2,67.7c0.1,3,1.6,4.3,4.2,4.3c1.9,0,3.4-1.2,3.7-2.2h4.1c-1.3,4-4.1,5.7-8,5.7c-5.4,0-8.7-3.7-8.7-9
			c0-5.1,3.5-9,8.7-9c5.8,0,8.6,4.9,8.3,10.1H435.2z M442.9,64.7c-0.4-2.4-1.5-3.6-3.7-3.6c-3,0-3.8,2.3-3.9,3.6H442.9z"/>
		<path fill="#5B6670" d="M449.6,63.3c0.3-4.4,4.2-5.7,8-5.7c3.4,0,7.5,0.8,7.5,4.9v8.9c0,1.6,0.2,3.1,0.6,3.8H461
			c-0.2-0.5-0.3-1.1-0.3-1.7c-1.5,1.6-3.7,2.1-5.7,2.1c-3.2,0-5.8-1.6-5.8-5.1c0-3.9,2.9-4.8,5.8-5.2c2.9-0.4,5.5-0.3,5.5-2.2
			c0-2-1.4-2.3-3-2.3c-1.8,0-2.9,0.7-3.1,2.6H449.6z M460.5,66.8c-0.8,0.7-2.4,0.7-3.9,1c-1.5,0.3-2.8,0.8-2.8,2.5
			c0,1.7,1.4,2.2,2.9,2.2c3.7,0,3.8-2.9,3.8-3.9V66.8z"/>
		<path fill="#5B6670" d="M477.3,58h4.5v2.2h0.1c1.1-1.8,3-2.6,5.1-2.6c5.3,0,7.8,4.3,7.8,9.2c0,4.6-2.5,8.8-7.5,8.8
			c-2,0-4-0.9-5.1-2.6H482v8.1h-4.7V58z M490,66.6c0-2.7-1.1-5.5-4.1-5.5c-3.1,0-4.1,2.7-4.1,5.5c0,2.8,1.1,5.4,4.1,5.4
			C489,72,490,69.4,490,66.6z"/>
		<path fill="#5B6670" d="M496.9,63.3c0.3-4.4,4.2-5.7,8-5.7c3.4,0,7.5,0.8,7.5,4.9v8.9c0,1.6,0.2,3.1,0.6,3.8h-4.8
			c-0.2-0.5-0.3-1.1-0.3-1.7c-1.5,1.6-3.7,2.1-5.7,2.1c-3.2,0-5.8-1.6-5.8-5.1c0-3.9,2.9-4.8,5.8-5.2c2.9-0.4,5.5-0.3,5.5-2.2
			c0-2-1.4-2.3-3-2.3c-1.8,0-2.9,0.7-3.1,2.6H496.9z M507.7,66.8c-0.8,0.7-2.4,0.7-3.9,1c-1.5,0.3-2.8,0.8-2.8,2.5
			c0,1.7,1.4,2.2,2.9,2.2c3.7,0,3.8-2.9,3.8-3.9V66.8z"/>
		<path fill="#5B6670" d="M515.8,58h4.5v3.2h0.1c0.9-2.1,3.2-3.6,5.4-3.6c0.3,0,0.7,0.1,1,0.2v4.4c-0.4-0.1-1.1-0.2-1.7-0.2
			c-3.4,0-4.6,2.5-4.6,5.5v7.7h-4.7V58z"/>
		<path fill="#5B6670" d="M528.3,63.3c0.3-4.4,4.2-5.7,8-5.7c3.4,0,7.5,0.8,7.5,4.9v8.9c0,1.6,0.2,3.1,0.6,3.8h-4.8
			c-0.2-0.5-0.3-1.1-0.3-1.7c-1.5,1.6-3.7,2.1-5.7,2.1c-3.2,0-5.8-1.6-5.8-5.1c0-3.9,2.9-4.8,5.8-5.2c2.9-0.4,5.5-0.3,5.5-2.2
			c0-2-1.4-2.3-3-2.3c-1.8,0-2.9,0.7-3.1,2.6H528.3z M539.1,66.8c-0.8,0.7-2.4,0.7-3.9,1c-1.5,0.3-2.8,0.8-2.8,2.5
			c0,1.7,1.4,2.2,2.9,2.2c3.7,0,3.8-2.9,3.8-3.9V66.8z"/>
		<path fill="#5B6670" d="M559.8,67.7c0.1,3,1.6,4.3,4.2,4.3c1.9,0,3.4-1.2,3.7-2.2h4.1c-1.3,4-4.1,5.7-8,5.7c-5.4,0-8.7-3.7-8.7-9
			c0-5.1,3.5-9,8.7-9c5.8,0,8.6,4.9,8.3,10.1H559.8z M567.4,64.7c-0.4-2.4-1.5-3.6-3.7-3.6c-3,0-3.8,2.3-3.9,3.6H567.4z"/>
		<path fill="#5B6670" d="M574.6,51.5h4.7v23.6h-4.7V51.5z"/>
		<path fill="#5B6670" d="M598.4,51.5h5.3l8.8,23.6h-5.4l-1.8-5.2h-8.8l-1.8,5.2h-5.2L598.4,51.5z M597.9,66h6.1l-3-8.6H601
			L597.9,66z"/>
		<path fill="#5B6670" d="M614,58h4.5v2.2h0.1c1.1-1.8,3-2.6,5.1-2.6c5.3,0,7.8,4.3,7.8,9.2c0,4.6-2.5,8.8-7.5,8.8
			c-2,0-4-0.9-5.1-2.6h-0.1v8.1H614V58z M626.7,66.6c0-2.7-1.1-5.5-4.1-5.5c-3.1,0-4.1,2.7-4.1,5.5c0,2.8,1.1,5.4,4.1,5.4
			C625.7,72,626.7,69.4,626.7,66.6z"/>
		<path fill="#5B6670" d="M634,58h4.5v3.2h0.1c0.9-2.1,3.2-3.6,5.4-3.6c0.3,0,0.7,0.1,1,0.2v4.4c-0.4-0.1-1.1-0.2-1.7-0.2
			c-3.4,0-4.6,2.5-4.6,5.5v7.7H634V58z"/>
		<path fill="#5B6670" d="M650.5,67.7c0.1,3,1.6,4.3,4.2,4.3c1.9,0,3.4-1.2,3.7-2.2h4.1c-1.3,4-4.1,5.7-8,5.7c-5.4,0-8.7-3.7-8.7-9
			c0-5.1,3.5-9,8.7-9c5.8,0,8.6,4.9,8.3,10.1H650.5z M658.1,64.7c-0.4-2.4-1.5-3.6-3.7-3.6c-3,0-3.8,2.3-3.9,3.6H658.1z"/>
		<path fill="#5B6670" d="M665.3,58h4.5v2.4h0.1c1.2-1.9,3.2-2.8,5.2-2.8c5,0,6.2,2.8,6.2,7v10.5h-4.7v-9.6c0-2.8-0.8-4.2-3-4.2
			c-2.5,0-3.6,1.4-3.6,4.9v8.9h-4.7V58z"/>
		<path fill="#5B6670" d="M696.8,72.9L696.8,72.9c-1.2,1.8-3.1,2.6-5.2,2.6c-5.1,0-7.7-4.4-7.7-9.1c0-4.6,2.5-8.8,7.6-8.8
			c2,0,4,0.9,5,2.5h0.1v-8.6h4.7v23.6h-4.5V72.9z M692.7,61.1c-3.1,0-4.1,2.6-4.1,5.4c0,2.7,1.2,5.5,4.1,5.5c3.1,0,4-2.7,4-5.5
			C696.7,63.8,695.7,61.1,692.7,61.1z"/>
		<path fill="#5B6670" d="M709.3,55.4h-4.7v-3.9h4.7V55.4z M704.6,58h4.7v17.1h-4.7V58z"/>
		<path fill="#5B6670" d="M711.6,71.6l8.9-10h-8.2V58h14.4v3.5l-8.9,10h9.5v3.5h-15.7V71.6z"/>
		<path fill="#5B6670" d="M729.4,63.3c0.3-4.4,4.2-5.7,8-5.7c3.4,0,7.5,0.8,7.5,4.9v8.9c0,1.6,0.2,3.1,0.6,3.8h-4.8
			c-0.2-0.5-0.3-1.1-0.3-1.7c-1.5,1.6-3.7,2.1-5.7,2.1c-3.2,0-5.8-1.6-5.8-5.1c0-3.9,2.9-4.8,5.8-5.2c2.9-0.4,5.5-0.3,5.5-2.2
			c0-2-1.4-2.3-3-2.3c-1.8,0-2.9,0.7-3.1,2.6H729.4z M740.2,66.8c-0.8,0.7-2.4,0.7-3.9,1c-1.5,0.3-2.8,0.8-2.8,2.5
			c0,1.7,1.4,2.2,2.9,2.2c3.7,0,3.8-2.9,3.8-3.9V66.8z"/>
		<path fill="#5B6670" d="M745.7,77.1c0.3,0.1,0.6,0.1,1,0.1c1,0,1.8-0.2,1.8-1.5V58h4.7V76c0,3.5-1.3,5.1-6,5.1
			c-0.5,0-1-0.1-1.5-0.1V77.1z M753.2,55.4h-4.7v-3.9h4.7V55.4z"/>
		<path fill="#5B6670" d="M760.6,67.7c0.1,3,1.6,4.3,4.2,4.3c1.9,0,3.4-1.2,3.7-2.2h4.1c-1.3,4-4.1,5.7-8,5.7c-5.4,0-8.7-3.7-8.7-9
			c0-5.1,3.5-9,8.7-9c5.8,0,8.6,4.9,8.3,10.1H760.6z M768.2,64.7c-0.4-2.4-1.5-3.6-3.7-3.6c-3,0-3.8,2.3-3.9,3.6H768.2z"/>
		<path fill="#5B6670" d="M408.4,109.9L408.4,109.9c-1.2,1.8-3.1,2.6-5.2,2.6c-5.1,0-7.7-4.4-7.7-9.1c0-4.6,2.5-8.8,7.6-8.8
			c2,0,4,0.9,5,2.5h0.1v-8.6h4.7v23.6h-4.5V109.9z M404.3,98.1c-3.1,0-4.1,2.6-4.1,5.4c0,2.7,1.2,5.5,4.1,5.5c3.1,0,4-2.7,4-5.5
			C408.3,100.8,407.3,98.1,404.3,98.1z"/>
		<path fill="#5B6670" d="M420.6,104.7c0.1,3,1.6,4.3,4.2,4.3c1.9,0,3.4-1.2,3.7-2.2h4.1c-1.3,4-4.1,5.7-8,5.7c-5.4,0-8.7-3.7-8.7-9
			c0-5.1,3.5-9,8.7-9c5.8,0,8.6,4.9,8.3,10.1H420.6z M428.2,101.7c-0.4-2.4-1.5-3.6-3.7-3.6c-3,0-3.8,2.3-3.9,3.6H428.2z"/>
		<path fill="#5B6670" d="M445.7,88.5h5.2v23.6h-5.2V88.5z"/>
		<path fill="#5B6670" d="M455.1,95h4.5v2.4h0.1c1.2-1.9,3.2-2.8,5.2-2.8c5,0,6.2,2.8,6.2,7v10.5h-4.7v-9.6c0-2.8-0.8-4.2-3-4.2
			c-2.5,0-3.6,1.4-3.6,4.9v8.9h-4.7V95z"/>
		<path fill="#5B6670" d="M491.2,111c0,2.8-1,7.6-8.8,7.6c-3.4,0-7.3-1.6-7.5-5.5h4.7c0.4,1.7,1.8,2.3,3.5,2.3
			c2.6,0,3.8-1.8,3.8-4.2V109h-0.1c-1,1.8-3.1,2.6-5.1,2.6c-5.1,0-7.3-3.9-7.3-8.6c0-4.4,2.5-8.4,7.3-8.4c2.2,0,4,0.8,5.1,2.7h0.1
			V95h4.5V111z M486.8,103.4c0-2.8-1-5.2-4-5.2c-2.6,0-3.8,2.3-3.8,4.9c0,2.4,0.9,5.1,3.8,5.1C485.4,108.1,486.8,105.8,486.8,103.4z
			"/>
		<path fill="#5B6670" d="M499.1,104.7c0.1,3,1.6,4.3,4.2,4.3c1.9,0,3.4-1.2,3.7-2.2h4.1c-1.3,4-4.1,5.7-8,5.7c-5.4,0-8.7-3.7-8.7-9
			c0-5.1,3.5-9,8.7-9c5.8,0,8.6,4.9,8.3,10.1H499.1z M506.7,101.7c-0.4-2.4-1.5-3.6-3.7-3.6c-3,0-3.8,2.3-3.9,3.6H506.7z"/>
		<path fill="#5B6670" d="M514.4,95h4.5v2.4h0.1c1.2-1.9,3.2-2.8,5.2-2.8c5,0,6.2,2.8,6.2,7v10.5h-4.7v-9.6c0-2.8-0.8-4.2-3-4.2
			c-2.5,0-3.6,1.4-3.6,4.9v8.9h-4.7V95z"/>
		<path fill="#5B6670" d="M539,92.4h-4.7v-3.9h4.7V92.4z M534.3,95h4.7v17.1h-4.7V95z"/>
		<path fill="#5B6670" d="M546.8,104.7c0.1,3,1.6,4.3,4.2,4.3c1.9,0,3.4-1.2,3.7-2.2h4.1c-1.3,4-4.1,5.7-8,5.7c-5.4,0-8.7-3.7-8.7-9
			c0-5.1,3.5-9,8.7-9c5.8,0,8.6,4.9,8.3,10.1H546.8z M554.4,101.7c-0.4-2.4-1.5-3.6-3.7-3.6c-3,0-3.8,2.3-3.9,3.6H554.4z"/>
		<path fill="#5B6670" d="M562.1,95h4.5v3.2h0.1c0.9-2.1,3.2-3.6,5.4-3.6c0.3,0,0.7,0.1,1,0.2v4.4c-0.4-0.1-1.1-0.2-1.7-0.2
			c-3.4,0-4.6,2.5-4.6,5.5v7.7h-4.7V95z"/>
		<path fill="#5B6670" d="M578.4,92.9h-3.3l3.2-4.7h5.2L578.4,92.9z M575.3,95h4.7v17.1h-4.7V95z"/>
		<path fill="#5B6670" d="M583.6,100.3c0.3-4.4,4.2-5.7,8-5.7c3.4,0,7.5,0.8,7.5,4.9v8.9c0,1.6,0.2,3.1,0.6,3.8h-4.8
			c-0.2-0.5-0.3-1.1-0.3-1.7c-1.5,1.6-3.7,2.1-5.7,2.1c-3.2,0-5.8-1.6-5.8-5.1c0-3.9,2.9-4.8,5.8-5.2c2.9-0.4,5.5-0.3,5.5-2.2
			c0-2-1.4-2.3-3-2.3c-1.8,0-2.9,0.7-3.1,2.6H583.6z M594.4,103.8c-0.8,0.7-2.4,0.7-3.9,1c-1.5,0.3-2.8,0.8-2.8,2.5
			c0,1.7,1.4,2.2,2.9,2.2c3.7,0,3.8-2.9,3.8-3.9V103.8z"/>
		<path fill="#5B6670" d="M620.7,114.3c-1,2.7-2.6,3.9-5.9,3.9c-1,0-1.9-0.1-2.9-0.2v-3.9c0.9,0.1,1.8,0.2,2.7,0.2
			c1.6-0.2,2.1-1.8,1.6-3.2l-6-16h5l3.9,11.7h0.1L623,95h4.9L620.7,114.3z"/>
		<path fill="#5B6670" d="M655.2,96.5c-0.3-2.3-2.6-4.1-5.1-4.1c-4.7,0-6.4,4-6.4,8.1c0,3.9,1.7,7.9,6.4,7.9c3.2,0,5-2.2,5.3-5.3h5
			c-0.5,5.9-4.6,9.6-10.4,9.6c-7.3,0-11.6-5.4-11.6-12.2c0-7,4.3-12.4,11.6-12.4c5.2,0,9.5,3,10.2,8.5H655.2z"/>
		<path fill="#5B6670" d="M668.3,92.4h-4.7v-3.9h4.7V92.4z M663.7,95h4.7v17.1h-4.7V95z"/>
		<path fill="#5B6670" d="M676.1,104.7c0.1,3,1.6,4.3,4.2,4.3c1.9,0,3.4-1.2,3.7-2.2h4.1c-1.3,4-4.1,5.7-8,5.7c-5.4,0-8.7-3.7-8.7-9
			c0-5.1,3.5-9,8.7-9c5.8,0,8.6,4.9,8.3,10.1H676.1z M683.8,101.7c-0.4-2.4-1.5-3.6-3.7-3.6c-3,0-3.8,2.3-3.9,3.6H683.8z"/>
		<path fill="#5B6670" d="M691.5,95h4.5v2.4h0.1c1.2-1.9,3.2-2.8,5.2-2.8c5,0,6.2,2.8,6.2,7v10.5h-4.7v-9.6c0-2.8-0.8-4.2-3-4.2
			c-2.5,0-3.6,1.4-3.6,4.9v8.9h-4.7V95z"/>
		<path fill="#5B6670" d="M722.7,101.1c-0.3-1.9-1.5-2.9-3.5-2.9c-3,0-4,3-4,5.5c0,2.4,1,5.4,3.9,5.4c2.2,0,3.4-1.4,3.7-3.5h4.5
			c-0.6,4.5-3.7,7-8.2,7c-5.1,0-8.6-3.6-8.6-8.7c0-5.3,3.2-9.2,8.7-9.2c4,0,7.7,2.1,8,6.5H722.7z"/>
		<path fill="#5B6670" d="M735.1,92.4h-4.7v-3.9h4.7V92.4z M730.4,95h4.7v17.1h-4.7V95z"/>
		<path fill="#5B6670" d="M738.8,100.3c0.3-4.4,4.2-5.7,8-5.7c3.4,0,7.5,0.8,7.5,4.9v8.9c0,1.6,0.2,3.1,0.6,3.8h-4.8
			c-0.2-0.5-0.3-1.1-0.3-1.7c-1.5,1.6-3.7,2.1-5.7,2.1c-3.2,0-5.8-1.6-5.8-5.1c0-3.9,2.9-4.8,5.8-5.2c2.9-0.4,5.5-0.3,5.5-2.2
			c0-2-1.4-2.3-3-2.3c-1.8,0-2.9,0.7-3.1,2.6H738.8z M749.6,103.8c-0.8,0.7-2.4,0.7-3.9,1c-1.5,0.3-2.8,0.8-2.8,2.5
			c0,1.7,1.4,2.2,2.9,2.2c3.7,0,3.8-2.9,3.8-3.9V103.8z"/>
		<path fill="#5B6670" d="M761.8,106.6c0,2,1.8,2.9,3.6,2.9c1.4,0,3.1-0.5,3.1-2.2c0-1.4-1.9-1.9-5.3-2.6c-2.7-0.6-5.4-1.6-5.4-4.6
			c0-4.4,3.8-5.5,7.4-5.5c3.7,0,7.2,1.3,7.5,5.4h-4.5c-0.1-1.8-1.5-2.3-3.2-2.3c-1.1,0-2.6,0.2-2.6,1.6c0,1.7,2.6,1.9,5.3,2.5
			c2.7,0.6,5.4,1.6,5.4,4.8c0,4.5-3.9,5.9-7.8,5.9c-4,0-7.8-1.5-8-6H761.8z"/>
	</g>
	<g>
		<path fill="#5B6670" d="M397,124h16.3v2.6h-13.1v7.5h12.2v2.6h-12.2v8.2h13.2v2.6H397V124z"/>
		<path fill="#5B6670" d="M417.7,142.2c0.1,2.5,2.3,3.3,4.6,3.3c1.8,0,4.1-0.4,4.1-2.5c0-2.2-2.8-2.5-5.6-3.2
			c-2.8-0.6-5.6-1.6-5.6-4.8c0-3.4,3.4-4.9,6.4-4.9c3.8,0,6.8,1.2,7,5.3h-2.8c-0.2-2.2-2.1-2.9-4-2.9c-1.7,0-3.6,0.5-3.6,2.2
			c0,2,3,2.3,5.6,3c2.8,0.6,5.6,1.6,5.6,4.9c0,4.1-3.8,5.4-7.3,5.4c-3.8,0-7.1-1.6-7.2-5.8H417.7z"/>
		<path fill="#5B6670" d="M443.5,136c-0.4-2.1-1.9-3.4-4.2-3.4c-4.1,0-5.3,3.2-5.3,6.7c0,3.1,1.4,6.2,5,6.2c2.7,0,4.3-1.6,4.7-4.2
			h2.9c-0.6,4.2-3.2,6.6-7.5,6.6c-5.2,0-8-3.6-8-8.7c0-5.1,2.6-9.1,8.1-9.1c3.9,0,7,1.8,7.4,5.9H443.5z"/>
		<path fill="#5B6670" d="M463.1,147.6h-2.6v-2.7h-0.1c-1.2,2.1-3.1,3.1-5.5,3.1c-4.5,0-5.9-2.6-5.9-6.2v-11.2h2.8v11.6
			c0,2.1,1.3,3.4,3.5,3.4c3.4,0,5-2.3,5-5.3v-9.6h2.8V147.6z"/>
		<path fill="#5B6670" d="M481.2,142.2c-0.8,3.8-3.5,5.8-7.3,5.8c-5.4,0-8-3.8-8.2-9c0-5.1,3.4-8.9,8-8.9c6,0,7.9,5.6,7.7,9.8h-12.8
			c-0.1,3,1.6,5.6,5.3,5.6c2.3,0,3.9-1.1,4.4-3.3H481.2z M478.5,137.4c-0.1-2.7-2.1-4.8-4.9-4.8c-2.9,0-4.7,2.2-4.9,4.8H478.5z"/>
		<path fill="#5B6670" d="M484,124h2.8v23.6H484V124z"/>
		<path fill="#5B6670" d="M505.5,147.5c-0.5,0.3-1.1,0.5-2,0.5c-1.5,0-2.4-0.8-2.4-2.6c-1.6,1.8-3.6,2.6-6,2.6
			c-3.1,0-5.6-1.4-5.6-4.8c0-3.9,2.9-4.7,5.8-5.2c3.1-0.6,5.7-0.4,5.7-2.5c0-2.4-2-2.8-3.8-2.8c-2.4,0-4.1,0.7-4.3,3.2h-2.8
			c0.2-4.2,3.4-5.7,7.2-5.7c3.1,0,6.4,0.7,6.4,4.7v8.8c0,1.3,0,1.9,0.9,1.9c0.2,0,0.5,0,0.9-0.2V147.5z M501,138.8
			c-1.1,0.8-3.2,0.8-5.1,1.2c-1.8,0.3-3.4,1-3.4,3.1c0,1.8,1.6,2.5,3.3,2.5c3.7,0,5.2-2.3,5.2-3.9V138.8z"/>
		<path fill="#5B6670" d="M531.8,147.6H529v-2.3H529c-0.9,1.9-3.1,2.7-5.4,2.7c-5.2,0-7.9-4.2-7.9-9c0-4.8,2.6-8.9,7.8-8.9
			c1.8,0,4.3,0.7,5.5,2.7h0.1V124h2.8V147.6z M523.9,145.5c3.8,0,5.2-3.2,5.2-6.4c0-3.4-1.5-6.5-5.4-6.5c-3.8,0-5.1,3.3-5.1,6.6
			C518.6,142.4,520.3,145.5,523.9,145.5z"/>
		<path fill="#5B6670" d="M550,142.2c-0.8,3.8-3.5,5.8-7.3,5.8c-5.4,0-8-3.8-8.2-9c0-5.1,3.4-8.9,8-8.9c6,0,7.9,5.6,7.7,9.8h-12.8
			c-0.1,3,1.6,5.6,5.3,5.6c2.3,0,3.9-1.1,4.4-3.3H550z M547.3,137.4c-0.1-2.7-2.1-4.8-4.9-4.8c-2.9,0-4.7,2.2-4.9,4.8H547.3z"/>
		<path fill="#5B6670" d="M562.2,124h3.1v23.6h-3.1V124z"/>
		<path fill="#5B6670" d="M569.3,130.5h2.6v2.7h0.1c1.2-2.1,3.1-3.1,5.5-3.1c4.5,0,5.9,2.6,5.9,6.2v11.2h-2.8v-11.6
			c0-2.1-1.3-3.4-3.5-3.4c-3.4,0-5,2.3-5,5.3v9.6h-2.8V130.5z"/>
		<path fill="#5B6670" d="M601.7,146.2c0,5.5-2.5,8.4-7.9,8.4c-3.2,0-6.9-1.3-7.1-5h2.8c0.1,2,2.6,2.8,4.4,2.8
			c3.7,0,5.1-2.6,5.1-6.5v-1.1H599c-0.9,2.1-3.2,3.1-5.3,3.1c-5.1,0-7.6-4-7.6-8.6c0-4,2-9,7.9-9c2.1,0,4.1,1,5.1,2.8h0v-2.4h2.6
			V146.2z M598.9,138.7c0-3-1.3-6.1-4.9-6.1c-3.6,0-5,2.9-5,6.2c0,3.1,1.1,6.5,4.8,6.5C597.5,145.3,598.9,141.9,598.9,138.7z"/>
		<path fill="#5B6670" d="M619.8,142.2c-0.8,3.8-3.5,5.8-7.3,5.8c-5.4,0-8-3.8-8.2-9c0-5.1,3.4-8.9,8-8.9c6,0,7.9,5.6,7.7,9.8h-12.8
			c-0.1,3,1.6,5.6,5.3,5.6c2.3,0,3.9-1.1,4.4-3.3H619.8z M617.1,137.4c-0.1-2.7-2.1-4.8-4.9-4.8c-2.9,0-4.7,2.2-4.9,4.8H617.1z"/>
		<path fill="#5B6670" d="M622.5,130.5h2.6v2.7h0.1c1.2-2.1,3.1-3.1,5.5-3.1c4.5,0,5.9,2.6,5.9,6.2v11.2h-2.8v-11.6
			c0-2.1-1.3-3.4-3.5-3.4c-3.4,0-5,2.3-5,5.3v9.6h-2.8V130.5z"/>
		<path fill="#5B6670" d="M643,127.5h-2.8V124h2.8V127.5z M640.2,130.5h2.8v17.1h-2.8V130.5z"/>
		<path fill="#5B6670" d="M661.2,142.2c-0.8,3.8-3.5,5.8-7.3,5.8c-5.4,0-8-3.8-8.2-9c0-5.1,3.4-8.9,8-8.9c6,0,7.9,5.6,7.7,9.8h-12.8
			c-0.1,3,1.6,5.6,5.3,5.6c2.3,0,3.9-1.1,4.4-3.3H661.2z M658.5,137.4c-0.1-2.7-2.1-4.8-4.9-4.8c-2.9,0-4.7,2.2-4.9,4.8H658.5z"/>
		<path fill="#5B6670" d="M663.8,130.5h2.6v3.6h0.1c1.4-2.7,3.2-4.1,6.3-4v3c-4.5,0-6.2,2.6-6.2,6.9v7.6h-2.8V130.5z"/>
		<path fill="#5B6670" d="M676.8,123.5h3.6l-4.3,4.7h-2.1L676.8,123.5z M674.6,147.6v-17.1h2.8v17.1H674.6z"/>
		<path fill="#5B6670" d="M696,147.5c-0.5,0.3-1.1,0.5-2,0.5c-1.5,0-2.4-0.8-2.4-2.6c-1.6,1.8-3.6,2.6-6,2.6c-3.1,0-5.6-1.4-5.6-4.8
			c0-3.9,2.9-4.7,5.8-5.2c3.1-0.6,5.7-0.4,5.7-2.5c0-2.4-2-2.8-3.8-2.8c-2.4,0-4.1,0.7-4.3,3.2h-2.8c0.2-4.2,3.4-5.7,7.2-5.7
			c3.1,0,6.4,0.7,6.4,4.7v8.8c0,1.3,0,1.9,0.9,1.9c0.2,0,0.5,0,0.9-0.2V147.5z M691.4,138.8c-1.1,0.8-3.2,0.8-5.1,1.2
			c-1.8,0.3-3.4,1-3.4,3.1c0,1.8,1.6,2.5,3.3,2.5c3.7,0,5.2-2.3,5.2-3.9V138.8z"/>
		<path fill="#5B6670" d="M403.2,182.9c-1.3,3.3-2.4,4.6-5,4.6c-0.7,0-1.3-0.1-1.9-0.3v-2.6c0.5,0.2,1.1,0.4,1.7,0.4
			c1.2,0,1.8-0.6,2.3-1.6l1.2-2.9l-6.8-17h3.2l5,14h0.1l4.8-14h3L403.2,182.9z"/>
		<path fill="#5B6670" d="M438.6,164.1c-0.7-3.3-3.3-5-6.6-5c-5.6,0-8,4.6-8,9.5c0,5.4,2.4,9.9,8,9.9c4.1,0,6.5-2.9,6.8-6.8h3.1
			c-0.6,5.9-4.3,9.4-10.2,9.4c-7.3,0-10.9-5.4-10.9-12.3c0-6.8,3.9-12.4,11.2-12.4c4.9,0,9,2.6,9.7,7.7H438.6z"/>
		<path fill="#5B6670" d="M447.6,160.5h-2.8V157h2.8V160.5z M444.8,163.5h2.8v17.1h-2.8V163.5z"/>
		<path fill="#5B6670" d="M465.8,175.2c-0.8,3.8-3.5,5.8-7.3,5.8c-5.4,0-8-3.8-8.2-9c0-5.1,3.4-8.9,8-8.9c6,0,7.9,5.6,7.7,9.8h-12.8
			c-0.1,3,1.6,5.6,5.3,5.6c2.3,0,3.9-1.1,4.4-3.3H465.8z M463.1,170.4c-0.1-2.7-2.1-4.8-4.9-4.8c-2.9,0-4.7,2.2-4.9,4.8H463.1z"/>
		<path fill="#5B6670" d="M468.5,163.5h2.6v2.7h0.1c1.2-2.1,3.1-3.1,5.5-3.1c4.5,0,5.9,2.6,5.9,6.2v11.2h-2.8v-11.6
			c0-2.1-1.3-3.4-3.5-3.4c-3.4,0-5,2.3-5,5.3v9.6h-2.8V163.5z"/>
		<path fill="#5B6670" d="M497.9,169c-0.4-2.1-1.9-3.4-4.2-3.4c-4.1,0-5.3,3.2-5.3,6.7c0,3.1,1.4,6.2,5,6.2c2.7,0,4.3-1.6,4.7-4.2
			h2.9c-0.6,4.2-3.2,6.6-7.5,6.6c-5.2,0-8-3.6-8-8.7c0-5.1,2.6-9.1,8.1-9.1c3.9,0,7,1.8,7.4,5.9H497.9z"/>
		<path fill="#5B6670" d="M506.3,160.5h-2.8V157h2.8V160.5z M503.5,163.5h2.8v17.1h-2.8V163.5z"/>
		<path fill="#5B6670" d="M525.1,180.5c-0.5,0.3-1.1,0.5-2,0.5c-1.5,0-2.4-0.8-2.4-2.6c-1.6,1.8-3.6,2.6-6,2.6
			c-3.1,0-5.6-1.4-5.6-4.8c0-3.9,2.9-4.7,5.8-5.2c3.1-0.6,5.7-0.4,5.7-2.5c0-2.4-2-2.8-3.8-2.8c-2.4,0-4.1,0.7-4.3,3.2h-2.8
			c0.2-4.2,3.4-5.7,7.2-5.7c3.1,0,6.4,0.7,6.4,4.7v8.8c0,1.3,0,1.9,0.9,1.9c0.2,0,0.5,0,0.9-0.2V180.5z M520.5,171.8
			c-1.1,0.8-3.2,0.8-5.1,1.2c-1.8,0.3-3.4,1-3.4,3.1c0,1.8,1.6,2.5,3.3,2.5c3.7,0,5.2-2.3,5.2-3.9V171.8z"/>
		<path fill="#5B6670" d="M529,175.2c0.1,2.5,2.3,3.3,4.6,3.3c1.8,0,4.1-0.4,4.1-2.5c0-2.2-2.8-2.5-5.6-3.2
			c-2.8-0.6-5.6-1.6-5.6-4.8c0-3.4,3.4-4.9,6.4-4.9c3.8,0,6.8,1.2,7,5.3h-2.8c-0.2-2.2-2.1-2.9-4-2.9c-1.7,0-3.6,0.5-3.6,2.2
			c0,2,3,2.3,5.6,3c2.8,0.6,5.6,1.6,5.6,4.9c0,4.1-3.8,5.4-7.3,5.4c-3.8,0-7.1-1.6-7.2-5.8H529z"/>
	</g>
	<g>
		<path fill="#7BADD3" d="M73.7,58.8h17.6L138,178.5h-17.6l-13.1-36H56.7l-13.4,36H26.9L73.7,58.8z M61.9,129.5h40.2L82.4,74.1H82
			L61.9,129.5z"/>
		<path fill="#B4BD00" d="M128.5,80c-0.6-12.1,6.5-21,19.1-21c10.4,0,18.6,6,18.6,17.1c0,10.5-7,15.8-14.4,20.4
			c-7.5,4.5-15.3,8.3-16.7,15.7h30.5v6.3h-38.8c1.2-14.1,8.3-19.1,16.7-24.3c10.1-6.2,15.2-9.9,15.2-18.1c0-6.5-5.2-10.7-11.5-10.7
			c-8.3,0-11.8,7.6-11.6,14.7H128.5z"/>
		<path fill="none" stroke="#B4BD00" stroke-width="3.2729" stroke-miterlimit="10" d="M128.5,80c-0.6-12.1,6.5-21,19.1-21
			c10.4,0,18.6,6,18.6,17.1c0,10.5-7,15.8-14.4,20.4c-7.5,4.5-15.3,8.3-16.7,15.7h30.5v6.3h-38.8c1.2-14.1,8.3-19.1,16.7-24.3
			c10.1-6.2,15.2-9.9,15.2-18.1c0-6.5-5.2-10.7-11.5-10.7c-8.3,0-11.8,7.6-11.6,14.7H128.5z"/>
		<rect x="184" y="58.8" fill="#5B6670" width="15.9" height="119.7"/>
		<path fill="#5B6670" d="M302.5,95c-3.2-16.4-16.4-24.6-32.4-24.6c-27.6,0-39.2,22.7-39.2,46.8c0,26.4,11.7,48.5,39.4,48.5
			c20.3,0,31.9-14.3,33.4-33.4H319c-2.9,28.9-20.9,46.4-50.1,46.4c-36,0-53.5-26.6-53.5-60.3c0-33.5,19.1-60.9,54.8-60.9
			c24.2,0,44.1,13,47.6,37.6H302.5z"/>
		
			<line fill="none" stroke="#5E6A71" stroke-width="2.1989" stroke-miterlimit="3.864" x1="353.1" y1="198.9" x2="353.1" y2="37.1"/>
	</g>
</g>
</svg>
