<?xml version="1.0" encoding="utf-8"?>
<!-- Generator: Adobe Illustrator 22.1.0, SVG Export Plug-In . SVG Version: 6.00 Build 0)  -->
<svg version="1.1" xmlns="http://www.w3.org/2000/svg" xmlns:xlink="http://www.w3.org/1999/xlink" x="0px" y="0px"
	 viewBox="0 0 413.6 226" enable-background="new 0 0 413.6 226" xml:space="preserve">
<g id="fondo">
</g>
<g id="Capa_1">
	<g>
		<rect x="213.4" y="78.4" fill="#E30613" width="1.9" height="74.5"/>
		<g>
			<path fill="#E00109" d="M113.4,94c-0.4-8.9,4.8-15.6,14.1-15.6c7.7,0,13.8,4.5,13.8,12.6c0,7.8-5.2,11.7-10.7,15.1
				c-5.5,3.3-11.3,6.1-12.3,11.6h22.6v4.7h-28.7c0.9-10.4,6.1-14.1,12.3-18c7.4-4.6,11.2-7.3,11.2-13.4c0-4.8-3.8-7.9-8.5-7.9
				c-6.1,0-8.7,5.6-8.6,10.9H113.4z"/>
			<path fill="#E00109" d="M159.3,78.4c13.8,0,14.6,12.6,14.6,22.4c0,9.7-0.9,22.3-14.6,22.3s-14.6-12.6-14.6-22.3
				C144.7,91.1,145.5,78.4,159.3,78.4z M159.3,118.5c9,0,9.1-11.2,9.1-17.7c0-6.5-0.1-17.7-9.1-17.7c-9,0-9.1,11.2-9.1,17.7
				C150.2,107.3,150.3,118.5,159.3,118.5z"/>
			<path fill="#5B6670" d="M189.3,108.2c13.8,0,14.6,12.6,14.6,22.4c0,9.7-0.9,22.3-14.6,22.3s-14.6-12.6-14.6-22.3
				C174.7,120.9,175.6,108.2,189.3,108.2z M189.3,148.3c9,0,9.1-11.2,9.1-17.7c0-6.5-0.1-17.7-9.1-17.7c-9,0-9.1,11.2-9.1,17.7
				C180.3,137.1,180.3,148.3,189.3,148.3z"/>
			<path fill="#5B6670" d="M153.9,127c0.8,0.1,1.5,0.1,2.3,0.1c4.5,0,8.4-2.4,8.4-7.2c0-4.6-3.3-7.1-7.8-7.1c-5.8,0-8.2,4.4-8.3,9.5
				h-5.3c0.3-8.4,4.8-14.2,13.6-14.2c7.6,0,13.4,3.7,13.4,11.8c0,3.8-2.7,7.2-6.1,8.7v0.1c5.3,1.2,7.9,5.4,7.9,10.7
				c0,8.8-6.9,13.4-15.1,13.4c-8.9,0-14.8-5.3-14.6-14.3h5.3c0.2,5.7,3.3,9.7,9.4,9.7c5.1,0,9.5-3.2,9.5-8.5c0-5.5-4.2-8.4-9.4-8.4
				c-1.1,0-2.2,0.1-3.2,0.2V127z"/>
			<path fill="#E00109" d="M159.3,118.5c-9,0-9.1-11.2-9.1-17.7c0-6.5,0.1-17.7,9.1-17.7h0v-4.7h0c-13.8,0-14.6,12.6-14.6,22.4
				c0,9.7,0.9,22.3,14.6,22.3h0L159.3,118.5L159.3,118.5z"/>
		</g>
		<g>
			<path fill="#5B6670" d="M227,85.5h3v22.7h-3V85.5z"/>
			<path fill="#5B6670" d="M234.1,91.8h2.5v2.6h0.1c1.1-2,3-3,5.3-3c4.3,0,5.7,2.5,5.7,6v10.8H245V97.1c0-2-1.3-3.3-3.3-3.3
				c-3.3,0-4.9,2.2-4.9,5.2v9.3h-2.7V91.8z"/>
			<path fill="#5B6670" d="M265.5,106.8c0,5.3-2.4,8.1-7.6,8.1c-3.1,0-6.6-1.2-6.8-4.8h2.7c0.1,2,2.5,2.7,4.3,2.7
				c3.5,0,4.9-2.5,4.9-6.2v-1.1h-0.1c-0.9,2-3.1,3-5.1,3c-4.9,0-7.3-3.8-7.3-8.3c0-3.9,1.9-8.7,7.6-8.7c2.1,0,3.9,0.9,4.9,2.7h0
				v-2.4h2.5V106.8z M262.8,99.7c0-2.9-1.3-5.9-4.7-5.9c-3.5,0-4.9,2.8-4.9,6c0,3,1.1,6.3,4.6,6.3C261.5,106,262.8,102.8,262.8,99.7
				z"/>
			<path fill="#5B6670" d="M283.1,103c-0.7,3.6-3.3,5.6-7,5.6c-5.2,0-7.7-3.6-7.9-8.7c0-4.9,3.2-8.6,7.7-8.6c5.8,0,7.6,5.4,7.4,9.4
				h-12.3c-0.1,2.9,1.5,5.4,5.1,5.4c2.2,0,3.8-1.1,4.3-3.2H283.1z M280.5,98.4c-0.1-2.6-2.1-4.6-4.7-4.6c-2.8,0-4.5,2.1-4.7,4.6
				H280.5z"/>
			<path fill="#5B6670" d="M285.9,91.8h2.5v2.6h0.1c1.1-2,3-3,5.3-3c4.3,0,5.7,2.5,5.7,6v10.8h-2.7V97.1c0-2-1.3-3.3-3.3-3.3
				c-3.3,0-4.9,2.2-4.9,5.2v9.3h-2.7V91.8z"/>
			<path fill="#5B6670" d="M305.9,88.8h-2.7v-3.3h2.7V88.8z M303.2,91.8h2.7v16.4h-2.7V91.8z"/>
			<path fill="#5B6670" d="M323.6,103c-0.7,3.6-3.3,5.6-7,5.6c-5.2,0-7.7-3.6-7.9-8.7c0-4.9,3.2-8.6,7.7-8.6c5.8,0,7.6,5.4,7.4,9.4
				h-12.3c-0.1,2.9,1.5,5.4,5.1,5.4c2.2,0,3.8-1.1,4.3-3.2H323.6z M321,98.4c-0.1-2.6-2.1-4.6-4.7-4.6c-2.8,0-4.5,2.1-4.7,4.6H321z"
				/>
			<path fill="#5B6670" d="M326.3,91.8h2.5v3.5h0.1c1.3-2.6,3.1-3.9,6-3.8v2.9c-4.4,0-5.9,2.5-5.9,6.6v7.3h-2.7V91.8z"/>
			<path fill="#5B6670" d="M339,85h3.5l-4.2,4.5h-2L339,85z M336.9,108.2V91.8h2.7v16.4H336.9z"/>
			<path fill="#5B6670" d="M357.7,108.2c-0.5,0.3-1.1,0.4-1.9,0.4c-1.4,0-2.3-0.8-2.3-2.5c-1.5,1.7-3.5,2.5-5.8,2.5
				c-3,0-5.4-1.3-5.4-4.6c0-3.7,2.8-4.5,5.6-5.1c3-0.6,5.5-0.4,5.5-2.4c0-2.4-1.9-2.7-3.7-2.7c-2.3,0-4,0.7-4.1,3.1h-2.7
				c0.2-4.1,3.3-5.5,7-5.5c3,0,6.2,0.7,6.2,4.5v8.5c0,1.3,0,1.8,0.9,1.8c0.2,0,0.5,0,0.8-0.2V108.2z M353.3,99.7
				c-1,0.8-3.1,0.8-4.9,1.1c-1.8,0.3-3.3,1-3.3,3c0,1.8,1.5,2.4,3.2,2.4c3.6,0,5-2.2,5-3.7V99.7z"/>
			<path fill="#5B6670" d="M232.9,146.8c-1.2,3.2-2.4,4.4-4.8,4.4c-0.6,0-1.3-0.1-1.9-0.3v-2.5c0.5,0.2,1,0.4,1.6,0.4
				c1.1,0,1.7-0.5,2.2-1.5l1.1-2.8l-6.5-16.4h3.1l4.8,13.5h0.1l4.6-13.5h2.9L232.9,146.8z"/>
			<path fill="#5B6670" d="M267,128.7c-0.6-3.2-3.2-4.8-6.4-4.8c-5.4,0-7.7,4.5-7.7,9.2c0,5.2,2.3,9.5,7.7,9.5c4,0,6.3-2.8,6.6-6.6
				h3c-0.6,5.7-4.1,9.1-9.8,9.1c-7.1,0-10.5-5.2-10.5-11.8c0-6.6,3.8-12,10.8-12c4.7,0,8.7,2.5,9.4,7.4H267z"/>
			<path fill="#5B6670" d="M275.9,125.2h-2.7v-3.3h2.7V125.2z M273.2,128.1h2.7v16.4h-2.7V128.1z"/>
			<path fill="#5B6670" d="M293.6,139.4c-0.7,3.6-3.3,5.6-7,5.6c-5.2,0-7.7-3.6-7.9-8.7c0-4.9,3.2-8.6,7.7-8.6
				c5.8,0,7.6,5.4,7.4,9.4h-12.3c-0.1,2.9,1.5,5.4,5.1,5.4c2.2,0,3.8-1.1,4.3-3.2H293.6z M291,134.8c-0.1-2.6-2.1-4.6-4.7-4.6
				c-2.8,0-4.5,2.1-4.7,4.6H291z"/>
			<path fill="#5B6670" d="M296.4,128.1h2.5v2.6h0.1c1.1-2,3-3,5.3-3c4.3,0,5.7,2.5,5.7,6v10.8h-2.7v-11.1c0-2-1.3-3.3-3.3-3.3
				c-3.3,0-4.9,2.2-4.9,5.2v9.3h-2.7V128.1z"/>
			<path fill="#5B6670" d="M324.8,133.4c-0.4-2.1-1.8-3.3-4.1-3.3c-3.9,0-5.1,3.1-5.1,6.4c0,3,1.4,6,4.8,6c2.6,0,4.2-1.5,4.5-4h2.8
				c-0.6,4-3.1,6.4-7.3,6.4c-5,0-7.7-3.5-7.7-8.4c0-4.9,2.5-8.8,7.8-8.8c3.7,0,6.7,1.7,7.1,5.7H324.8z"/>
			<path fill="#5B6670" d="M333.1,125.2h-2.7v-3.3h2.7V125.2z M330.4,128.1h2.7v16.4h-2.7V128.1z"/>
			<path fill="#5B6670" d="M351.3,144.5c-0.5,0.3-1.1,0.4-1.9,0.4c-1.4,0-2.3-0.8-2.3-2.5c-1.5,1.7-3.5,2.5-5.8,2.5
				c-3,0-5.4-1.3-5.4-4.6c0-3.7,2.8-4.5,5.6-5.1c3-0.6,5.5-0.4,5.5-2.4c0-2.4-1.9-2.7-3.7-2.7c-2.3,0-4,0.7-4.1,3.1h-2.7
				c0.2-4.1,3.3-5.5,7-5.5c3,0,6.2,0.7,6.2,4.5v8.5c0,1.3,0,1.8,0.9,1.8c0.2,0,0.5,0,0.8-0.2V144.5z M346.9,136.1
				c-1,0.8-3.1,0.8-4.9,1.1c-1.8,0.3-3.3,1-3.3,3c0,1.8,1.5,2.4,3.2,2.4c3.6,0,5-2.2,5-3.7V136.1z"/>
			<path fill="#5B6670" d="M355.2,139.4c0.1,2.4,2.2,3.2,4.4,3.2c1.7,0,4-0.4,4-2.4c0-2.1-2.7-2.4-5.4-3.1c-2.7-0.6-5.4-1.5-5.4-4.6
				c0-3.3,3.3-4.7,6.1-4.7c3.6,0,6.5,1.1,6.7,5.2H363c-0.2-2.1-2-2.8-3.8-2.8c-1.6,0-3.5,0.4-3.5,2.1c0,1.9,2.9,2.3,5.4,2.9
				c2.7,0.6,5.4,1.5,5.4,4.7c0,3.9-3.7,5.2-7,5.2c-3.7,0-6.8-1.5-7-5.6H355.2z"/>
		</g>
		<g>
			<path fill="none" stroke="#626A70" stroke-width="1.2348" stroke-miterlimit="3.863" d="M102.2,79v70.9c0,1.4-1.1,2.5-2.4,2.5
				H77.5c-1.5,0-2.6,2.4-2.6,2.4s-1.1-2.5-2.6-2.4c0,0-22.2,0-22.2,0c-1.3,0-2.4-1.1-2.4-2.5l0-70.9L102.2,79z"/>
			<path fill="none" stroke="#626A70" stroke-width="0.6149" stroke-miterlimit="3.864" d="M83.1,90.3L81,86.8
				c-2.6,0.6-2-1.6-0.6-2.5c1.5-1,3.3-0.6,2.2,1.5c0,0,0.5,0.8,1.3,2.1C83.9,87.9,83.4,89,83.1,90.3z"/>
			<path fill="none" stroke="#626A70" stroke-width="0.6149" stroke-miterlimit="3.864" d="M92.7,101.8l5.9,9.4l-0.4,0.4l-2.1-1.6
				c0,0-0.1-1.4-0.5-1.6c-1.1-1-0.5-1.5-0.9-2.4c-0.4-0.9-2.9-1.6-3.5-2.9c0,0.1-1-1.6-1-1.6C92.5,101.1,92.7,101.8,92.7,101.8z"/>
			<path fill="none" stroke="#626A70" stroke-width="0.6149" stroke-miterlimit="3.864" d="M85.8,90.8c0,0,2.1,3.4,2.1,3.4
				C86.6,94,86,93.7,85.7,93C85.4,92.2,85.6,91.1,85.8,90.8z"/>
			
				<line fill="none" stroke="#626A70" stroke-width="0.6149" stroke-miterlimit="3.864" x1="54.3" y1="123.8" x2="58.9" y2="135.4"/>
			
				<line fill="none" stroke="#626A70" stroke-width="0.6149" stroke-miterlimit="3.864" x1="54.7" y1="124.1" x2="58.9" y2="132.4"/>
			<line fill="none" stroke="#626A70" stroke-width="0.6149" stroke-miterlimit="3.864" x1="55" y1="124.2" x2="58.9" y2="130"/>
			
				<line fill="none" stroke="#626A70" stroke-width="0.6149" stroke-miterlimit="3.864" x1="55.2" y1="124.1" x2="58.8" y2="128.3"/>
			
				<line fill="none" stroke="#626A70" stroke-width="0.6149" stroke-miterlimit="3.864" x1="55.2" y1="123.7" x2="60.3" y2="128.6"/>
			
				<line fill="none" stroke="#626A70" stroke-width="0.6149" stroke-miterlimit="3.864" x1="55.1" y1="123.4" x2="62.2" y2="128.7"/>
			<line fill="none" stroke="#626A70" stroke-width="0.6149" stroke-miterlimit="3.864" x1="55" y1="123.2" x2="65.4" y2="129.3"/>
			<polygon fill="none" stroke="#626A70" stroke-width="0.6149" stroke-miterlimit="3.864" points="60.6,104.7 60.5,108.3 
				62.6,108.3 62.4,104.7 			"/>
			<polygon fill="none" stroke="#626A70" stroke-width="0.6149" stroke-miterlimit="3.864" points="62.4,103.7 61.5,84.4 
				60.6,103.7 			"/>
			<rect x="58" y="103.7" fill="none" stroke="#626A70" stroke-width="0.6149" stroke-miterlimit="3.864" width="7.1" height="1"/>
			<path fill="none" stroke="#626A70" stroke-width="0.6149" stroke-miterlimit="3.864" d="M63.7,108.3c0,1.4-1,2.4-2.2,2.4
				c-1.2,0-2.2-1-2.2-2.4H63.7z"/>
			<path fill="none" stroke="#626A70" stroke-width="0.6149" stroke-miterlimit="3.864" d="M58.3,94.9c0,1.8-1.5,3.3-3.4,3.3
				c-1.9,0-3.4-1.5-3.4-3.3H58.3z"/>
			<path fill="none" stroke="#626A70" stroke-width="0.6149" stroke-miterlimit="3.864" d="M86.2,90.1c0,0,0.8,1,1.6,0.5
				c1.5-0.9-0.3-5.8-3.4-3.3c-0.7,0.6-1.6,3.1-1.4,4.8c0.2,1.7,0.9,3.7,2.8,4.2c1.1,0.3,3.4-0.4,4.3,1.2c0.7-0.3,1.5-3-0.5-3.1
				c-1.9-0.1-3.5-0.4-3.8-1.2C85.1,91.2,86.2,90.1,86.2,90.1z"/>
			<path fill="none" stroke="#626A70" stroke-width="0.6149" stroke-miterlimit="3.864" d="M87.9,97.9c-0.7,0.4-1.3,1.2-1,2.2
				c0.3,1,1.4,1.5,3.1,1.5c0.1,0,0.2,0,0.3,0c1.5-0.1,2.1-0.3,2.6,0.5c0.5-0.6,0.4-2-0.4-2.6C91.4,98.5,88.4,99.7,87.9,97.9z"/>
			<path fill="none" stroke="#626A70" stroke-width="0.6149" stroke-miterlimit="3.864" d="M91.2,103.1c-0.2,0.8-0.7,1.8-0.3,2.8
				c0.6,1.3,1.7,0.6,2.1,1.4c0.3,0.8,0,2,0.8,2.2c1.5,0.4,1,1.9,1.7,1.8c0.7-0.1,0.7-2.4,0-3.1c-1-1-0.3-1.7-0.9-2.5
				C94.2,105,92.3,104.7,91.2,103.1z"/>
			<path fill="none" stroke="#626A70" stroke-width="0.3948" stroke-miterlimit="3.864" d="M76,108C76,107.9,76,107.9,76,108
				c0.2-0.1,0.2-0.1,0.2,0C76.1,108,76.1,108.1,76,108C76,108.1,76,108,76,108z"/>
			<path fill="none" stroke="#626A70" stroke-width="0.3948" stroke-miterlimit="3.864" d="M87,88.4c0.1-0.1,0.3,0.1,0.4,0.2
				c0.1,0.2,0,0.4-0.1,0.4c-0.1,0.1-0.3-0.1-0.4-0.2C86.8,88.6,86.8,88.4,87,88.4z"/>
			<ellipse fill="none" stroke="#626A70" stroke-width="0.6149" stroke-miterlimit="3.864" cx="65" cy="135.4" rx="5" ry="5"/>
			<polygon fill="none" stroke="#626A70" stroke-width="0.6149" stroke-miterlimit="3.864" points="70.2,147.8 67.8,147.8 
				67.8,143.1 52.8,143.1 52.8,140.7 70.2,140.7 			"/>
			<path fill="none" stroke="#626A70" stroke-width="0.6149" stroke-miterlimit="3.864" d="M54.9,135.9c0-0.6,0.5-1,1-1
				c0.6,0,1,0.5,1,1c0,0.6-0.5,1-1,1C55.4,137,54.9,136.5,54.9,135.9z"/>
			<polyline fill="none" stroke="#626A70" stroke-width="0.6149" stroke-miterlimit="3.864" points="55,135.6 53.2,140.6 55.9,137 
							"/>
			<polyline fill="none" stroke="#626A70" stroke-width="0.6149" stroke-miterlimit="3.864" points="56.9,135.6 58.7,140.6 56,137 
							"/>
			<path fill="none" stroke="#626A70" stroke-width="0.6149" stroke-miterlimit="3.864" d="M60.7,133c-0.3,1.4,2.3,1.4,2.1,2.1
				c-0.5,1.8,0.5,1.7,0.7,2.7c0,0-0.2,2.2,0.4,2.4c0.3-0.5,0.1-1.4,0.5-1.9c0.5-0.5,1.1-0.8,1.1-1.8c0-0.7-0.9-0.9-1.2-1.1
				c-0.3-0.2-0.9-0.4-1.3-0.4c0,0-1-1.9-0.7-2.3c0.3-0.3,0.9,0.4,1.1,0.4c0.5,0,0.5-0.9,1.3-0.9c0-0.2,0-0.9-0.2-1
				c-0.7,0-1.2,0.4-1.8-0.4C62.8,130.9,61,131.6,60.7,133z"/>
			<path fill="none" stroke="#626A70" stroke-width="0.6149" stroke-miterlimit="3.864" d="M66.6,130.5c-0.6-0.2-1.4-0.1-1.4-0.1
				c0.7,0.3,0.7,1.3,1,1.3c0.6,0,0.9-0.5,1.5-0.6C67.7,131.1,67.2,130.7,66.6,130.5z"/>
			<path fill="none" stroke="#626A70" stroke-width="0.6149" stroke-miterlimit="3.864" d="M70,134.4c0-1.3-1.7-2.8-1.7-2.8
				s-0.8,1.5-0.4,3.1c0.4,0,1.5-0.1,1.5-0.1c0.3,0.1,0.2,0.6,0.2,0.9c0,0.7-0.2,2.5-0.2,2.5S70,135.6,70,134.4z"/>
			<polygon fill="none" stroke="#626A70" stroke-width="0.3948" stroke-miterlimit="3.864" points="54.1,121 53.6,122.1 52.4,122.3 
				53.3,123.1 53.1,124.3 54.1,123.7 55.2,124.3 55,123.1 55.8,122.3 54.6,122.1 			"/>
			<line fill="none" stroke="#626A70" stroke-width="1.2348" stroke-miterlimit="3.863" x1="75" y1="124.6" x2="75" y2="154.5"/>
			
				<path fill="none" stroke="#626A70" stroke-width="0.6149" stroke-linecap="round" stroke-linejoin="round" stroke-miterlimit="3.864" d="
				M79.3,139.1l-1.3,1.5c-0.2,0.2-0.1,1.6,0,1.9c1,0.4,15.4,4.9,15.4,4.9l5.9-6.4l-0.9-0.4c-0.3-0.4,0.6-1.8,0.6-1.8l-2.8-1.1"/>
			
				<path fill="none" stroke="#626A70" stroke-width="0.6149" stroke-linecap="round" stroke-linejoin="round" stroke-miterlimit="3.864" d="
				M93.5,144.7c-0.2,0.2-0.2,2.6,0,2.9c0,0,5.9-6.4,5.9-6.4l-0.6-0.6c-0.1-0.6,0.1-1.6,0.1-1.6L93.5,144.7z"/>
			
				<path fill="none" stroke="#626A70" stroke-width="0.6149" stroke-linecap="round" stroke-linejoin="round" stroke-miterlimit="3.864" d="
				M92.9,140.7c-0.2,0.1-0.4,3.3-0.1,3.3c0,0,4.8-5.5,4.8-5.5l-0.5-0.3L92.9,140.7z"/>
			
				<path fill="none" stroke="#626A70" stroke-width="0.3948" stroke-linecap="round" stroke-linejoin="round" stroke-miterlimit="3.864" d="
				M81.1,136.6l-1.5,1.5c-0.2,0.1-0.1,1.6,0,2c0.5,0.1,13.3,3.9,13.3,3.9l4.8-5.5l-1.5-0.5"/>
			<path fill="none" stroke="#626A70" stroke-width="0.6149" stroke-miterlimit="3.864" d="M95,128.6v9.2c-1.2-0.3-5.9-0.9-6.4-0.2
				c-0.4-0.7-4.2-0.4-6.4,0.1v-8.8c-0.3,1.3-1.2,1.7-1.2,1.7v7.8l6.7-0.5c0.7,0.5,1.6,0.2,1.9,0l6.4,0.2v-8.7
				C96,129.4,95.4,129.4,95,128.6z"/>
			<path fill="none" stroke="#626A70" stroke-width="0.6149" stroke-miterlimit="3.864" d="M95,137.7c-1.4,0-5.4-1.1-6.4-0.1
				c0.9,0,0.9,0.5,0,0.6c-1-0.1-0.8-0.6,0-0.5c-0.8-1.1-6.4,0.2-6.4,0.2l0-9c1.6,0,3.2-0.8,4.3-0.8c1.1,0,2.3,0.5,2.3,0.5
				s1.7-0.7,2.9-0.7c1.4,0,2.2,1.2,3.3,0.8C94.9,129.2,95,137.7,95,137.7z"/>
			
				<line fill="none" stroke="#626A70" stroke-width="0.3948" stroke-miterlimit="3.864" x1="88.7" y1="128.6" x2="88.6" y2="137.6"/>
			<path fill="none" stroke="#626A70" stroke-width="0.4267" stroke-miterlimit="3.864" d="M82,140.8l-0.5,0.5
				c-0.2,0.3-0.2,2.3,0,2.4c0,0,1,0.3,0.6,0.1c-0.1-0.6-0.1-2.1,0.1-2.3l0.5-0.5L82,140.8z"/>
			<path fill="none" stroke="#626A70" stroke-width="0.4267" stroke-miterlimit="3.864" d="M83.6,141.3l-0.5,0.5
				c-0.2,0.3-0.3,2.3-0.1,2.4c0,0,1.1,0.2,0.7,0c-0.1-0.7-0.1-2.1,0.1-2.3l0.5-0.5L83.6,141.3z"/>
			<path fill="none" stroke="#626A70" stroke-width="0.4267" stroke-miterlimit="3.864" d="M87.7,142.5l-0.5,0.6
				c-0.2,0.3-0.3,2.2-0.1,2.3c0,0,1.2,0.4,0.7,0.1c-0.1-0.6-0.1-2.1,0.1-2.3l0.6-0.6L87.7,142.5z"/>
			<path fill="none" stroke="#626A70" stroke-width="0.4267" stroke-miterlimit="3.864" d="M89.3,143l-0.5,0.6
				c-0.2,0.3-0.3,2.2-0.1,2.3c0,0,1.1,0.3,0.7,0.1c-0.1-0.6-0.1-2.1,0.1-2.3l0.6-0.6L89.3,143z"/>
			<path fill="none" stroke="#626A70" stroke-width="0.4267" stroke-miterlimit="3.864" d="M82,138.3l-0.4,0.4c-0.2,0.2-0.2,1.9,0,2
				c0,0,0.5,0.2,0.5,0.2c0.1,0,0-0.2-0.1-0.3c-0.1-0.5,0-1.6,0.1-1.7l0.4-0.4L82,138.3z"/>
			<path fill="none" stroke="#626A70" stroke-width="0.6149" stroke-miterlimit="3.864" d="M88.7,128.5c-1.7,0-2.2-1.4-2.2-1.4
				l0.7,0c0,0-0.9-0.5-0.7-1c0,0,0.6,0.1,0.6,0.1s-0.3-0.7,0-1.2l0.5,0.2c0.2-0.9,1.1-1.1,1.1-1.1s0.9,0.1,1.2,1.1l0.5-0.2
				c0.2,0.5,0,1.2,0,1.2S91,126,91,126c0.2,0.5-0.7,1-0.7,1l0.7,0C91,127.1,90.4,128.4,88.7,128.5z"/>
			
				<line fill="none" stroke="#626A70" stroke-width="1.2348" stroke-miterlimit="3.863" x1="47.7" y1="116.1" x2="66.5" y2="116.1"/>
			
				<line fill="none" stroke="#626A70" stroke-width="1.1895" stroke-miterlimit="3.864" x1="83.5" y1="116.1" x2="102.2" y2="116.1"/>
			<polygon fill="none" stroke="#FFFFFF" stroke-width="0.6149" stroke-miterlimit="3.864" points="75,109.1 81,119.7 68.9,119.7 
							"/>
			<path fill="none" stroke="#626A70" stroke-width="0.6149" stroke-miterlimit="3.864" d="M74.9,114.4c2.2,0,4.1,1.8,4,2.1
				c0,0.3-1.9,2.1-4,2.1c-2.2,0-4.1-1.8-4-2.1C70.9,116.1,72.7,114.3,74.9,114.4z"/>
			<path fill="none" stroke="#626A70" stroke-width="0.6149" stroke-miterlimit="3.864" d="M72.9,116.4c0-1.1,0.9-2,2-2
				c1.1,0,2,0.9,2,2c0,1.1-0.9,2-2,2C73.8,118.4,72.9,117.5,72.9,116.4z"/>
			<path fill="#626A70" d="M74.7,116.4c0-0.1,0.1-0.3,0.3-0.3c0.1,0,0.3,0.1,0.3,0.3c0,0.1-0.1,0.3-0.3,0.3
				C74.8,116.7,74.7,116.6,74.7,116.4"/>
			<path fill="none" stroke="#626A70" stroke-width="0.3948" stroke-miterlimit="3.864" d="M74.7,116.4c0-0.1,0.1-0.3,0.3-0.3
				c0.1,0,0.3,0.1,0.3,0.3c0,0.1-0.1,0.3-0.3,0.3C74.8,116.7,74.7,116.6,74.7,116.4z"/>
			<path fill="none" stroke="#626A70" stroke-width="0.6149" stroke-miterlimit="3.864" d="M75,108.9c-4,0-7.2,3.2-7.2,7.2
				c0,4,3.2,7.2,7.2,7.2c4,0,7.2-3.2,7.2-7.2c0-3.6-2.6-6.6-6-7.1c-1.3,0.1-1.3-0.4-1.4-0.6c-0.1-0.6,0.7-1,1.3-1c1,0,1,0.6,1.6,0.7
				c3.3,1.1,5.7,4.3,5.7,8c0,4.7-3.8,8.5-8.4,8.5c-4.7,0-8.4-3.8-8.4-8.5c0-4.7,3.5-8.3,8.2-8C74.7,108.5,75,108.9,75,108.9z"/>
			<polygon fill="none" stroke="#626A70" stroke-width="1.1038" stroke-miterlimit="3.863" points="75,49.1 72.4,54.4 66.5,55.2 
				70.7,59.4 69.9,65 75,62.5 80,65 79.1,59.3 83.2,55.3 77.6,54.4 			"/>
			<line fill="none" stroke="#626A70" stroke-width="0.5695" stroke-miterlimit="3.863" x1="75" y1="49.3" x2="75" y2="62.5"/>
			<line fill="none" stroke="#626A70" stroke-width="0.5695" stroke-miterlimit="3.863" x1="66.7" y1="55.3" x2="79.1" y2="59.3"/>
			<line fill="none" stroke="#626A70" stroke-width="0.5695" stroke-miterlimit="3.863" x1="69.9" y1="65" x2="77.6" y2="54.4"/>
			<line fill="none" stroke="#626A70" stroke-width="0.5695" stroke-miterlimit="3.863" x1="80" y1="65" x2="72.4" y2="54.4"/>
			<line fill="none" stroke="#626A70" stroke-width="0.5695" stroke-miterlimit="3.863" x1="83.2" y1="55.3" x2="70.7" y2="59.4"/>
			<line fill="none" stroke="#626A70" stroke-width="1.1038" stroke-miterlimit="3.863" x1="70.7" y1="59.4" x2="53.2" y2="65.2"/>
			<line fill="none" stroke="#626A70" stroke-width="1.1038" stroke-miterlimit="3.863" x1="96.7" y1="50.9" x2="83.2" y2="55.3"/>
			<line fill="none" stroke="#626A70" stroke-width="1.1038" stroke-miterlimit="3.863" x1="72.4" y1="54.4" x2="61.6" y2="39.5"/>
			<line fill="none" stroke="#626A70" stroke-width="1.1038" stroke-miterlimit="3.863" x1="90" y1="79" x2="79.9" y2="65"/>
			<line fill="none" stroke="#626A70" stroke-width="1.1038" stroke-miterlimit="3.863" x1="77.6" y1="54.4" x2="88.3" y2="39.4"/>
			<line fill="none" stroke="#626A70" stroke-width="1.1038" stroke-miterlimit="3.863" x1="59.7" y1="79" x2="69.9" y2="65"/>
			<line fill="none" stroke="#626A70" stroke-width="1.1038" stroke-miterlimit="3.863" x1="66.7" y1="55.3" x2="53.3" y2="50.9"/>
			<line fill="none" stroke="#626A70" stroke-width="1.1038" stroke-miterlimit="3.863" x1="96.6" y1="65.2" x2="79.2" y2="59.4"/>
			<line fill="none" stroke="#626A70" stroke-width="1.1038" stroke-miterlimit="3.863" x1="75" y1="35" x2="75" y2="49.7"/>
			<line fill="none" stroke="#626A70" stroke-width="0.5695" stroke-miterlimit="3.863" x1="70.4" y1="61.4" x2="63.3" y2="66.6"/>
			<line fill="none" stroke="#626A70" stroke-width="0.5695" stroke-miterlimit="3.863" x1="86.7" y1="49.5" x2="79.6" y2="54.7"/>
			<line fill="none" stroke="#626A70" stroke-width="0.5695" stroke-miterlimit="3.863" x1="73.3" y1="63.4" x2="70.5" y2="71.9"/>
			<line fill="none" stroke="#626A70" stroke-width="0.5695" stroke-miterlimit="3.863" x1="79.5" y1="44.2" x2="76.8" y2="52.6"/>
			<line fill="none" stroke="#626A70" stroke-width="0.5695" stroke-miterlimit="3.863" x1="76.7" y1="63.4" x2="79.4" y2="71.8"/>
			<line fill="none" stroke="#626A70" stroke-width="0.5695" stroke-miterlimit="3.863" x1="70.5" y1="44.1" x2="73.2" y2="52.7"/>
			<line fill="none" stroke="#626A70" stroke-width="0.5695" stroke-miterlimit="3.863" x1="79.4" y1="61.3" x2="86.6" y2="66.5"/>
			<line fill="none" stroke="#626A70" stroke-width="0.5695" stroke-miterlimit="3.863" x1="63.1" y1="49.4" x2="70.3" y2="54.6"/>
			<line fill="none" stroke="#626A70" stroke-width="0.5695" stroke-miterlimit="3.863" x1="80.5" y1="58.1" x2="89.5" y2="58.1"/>
			<line fill="none" stroke="#626A70" stroke-width="0.5695" stroke-miterlimit="3.863" x1="60.5" y1="58.1" x2="69.3" y2="58.1"/>
			<path fill="none" stroke="#626A70" stroke-width="0.6149" stroke-miterlimit="3.864" d="M89.7,97c0.4,0.6,1.2,2,1.2,2
				c0,0-1.9,0.1-2.6-0.5c-0.1-0.2-1.3-2.1-1.3-2.1S89.3,96.5,89.7,97z"/>
			<polygon fill="none" stroke="#626A70" stroke-width="0.6149" stroke-miterlimit="3.864" points="54.9,87.2 51.5,94.9 58.2,94.9 
							"/>
			<path fill="none" stroke="#626A70" stroke-width="0.6149" stroke-miterlimit="3.864" d="M64.8,94.9c0,1.8,1.5,3.3,3.4,3.3
				c1.9,0,3.4-1.5,3.4-3.3H64.8z"/>
			<polygon fill="none" stroke="#626A70" stroke-width="0.6149" stroke-miterlimit="3.864" points="68.3,87.2 71.6,94.9 64.9,94.9 
							"/>
			
				<line fill="none" stroke="#626A70" stroke-width="0.6149" stroke-miterlimit="3.864" x1="60.5" y1="107.7" x2="62.5" y2="106.8"/>
			
				<line fill="none" stroke="#626A70" stroke-width="0.6149" stroke-miterlimit="3.864" x1="60.5" y1="106.5" x2="62.5" y2="105.5"/>
			<polygon fill="none" stroke="#626A70" stroke-width="0.3948" stroke-miterlimit="3.864" points="61.5,87 54.9,87 54.9,86.3 
				61.4,86.3 			"/>
			<polygon fill="none" stroke="#626A70" stroke-width="0.3948" stroke-miterlimit="3.864" points="61.6,86.3 68.2,86.3 68.2,87 
				61.6,87 			"/>
			<path fill="none" stroke="#626A70" stroke-width="0.3948" stroke-miterlimit="3.864" d="M83.9,130.5c0.9,0,2.1-0.9,3.4-0.5"/>
			<path fill="none" stroke="#626A70" stroke-width="0.3948" stroke-miterlimit="3.864" d="M83.9,131.5c0.9,0,2.1-0.9,3.4-0.5"/>
			<path fill="none" stroke="#626A70" stroke-width="0.3948" stroke-miterlimit="3.864" d="M83.9,132.5c0.9,0,2.1-0.9,3.4-0.4"/>
			<path fill="none" stroke="#626A70" stroke-width="0.3948" stroke-miterlimit="3.864" d="M83.9,133.5c0.9,0,2.1-0.8,3.4-0.4"/>
			<path fill="none" stroke="#626A70" stroke-width="0.3948" stroke-miterlimit="3.864" d="M83.8,134.6c0.9,0,2.1-0.8,3.4-0.3"/>
			<path fill="none" stroke="#626A70" stroke-width="0.3948" stroke-miterlimit="3.864" d="M83.8,135.6c0.9,0,2.1-0.7,3.4-0.3"/>
			<path fill="none" stroke="#626A70" stroke-width="0.3948" stroke-miterlimit="3.864" d="M93.4,130.2c-0.9,0-2.1-0.6-3.4-0.2"/>
			<path fill="none" stroke="#626A70" stroke-width="0.3948" stroke-miterlimit="3.864" d="M93.4,131.3c-0.9,0-2.1-0.7-3.4-0.2"/>
			<path fill="none" stroke="#626A70" stroke-width="0.3948" stroke-miterlimit="3.864" d="M93.4,132.4c-0.9,0-2.1-0.7-3.4-0.2"/>
			<path fill="none" stroke="#626A70" stroke-width="0.3948" stroke-miterlimit="3.864" d="M93.4,133.4c-0.9,0-2.1-0.7-3.4-0.2"/>
			<path fill="none" stroke="#626A70" stroke-width="0.3948" stroke-miterlimit="3.864" d="M93.4,134.5c-0.9,0-2.1-0.7-3.4-0.2"/>
			<path fill="none" stroke="#626A70" stroke-width="0.3948" stroke-miterlimit="3.864" d="M93.4,135.5c-0.9,0-2.1-0.7-3.4-0.3"/>
			<polygon fill="none" stroke="#626A70" stroke-width="0.6149" stroke-miterlimit="3.864" points="75,109.1 81,119.7 68.9,119.7 
							"/>
			<path fill="none" stroke="#626A70" stroke-width="0.4267" stroke-miterlimit="3.864" d="M83.2,138.6l-0.4,0.4
				c-0.2,0.2-0.2,1.9,0,2c0.1,0,0.5,0.2,0.5,0.2c0.1,0-0.1-0.2-0.1-0.3c-0.1-0.5,0-1.6,0.1-1.7l0.4-0.4L83.2,138.6z"/>
			<polyline fill-rule="evenodd" clip-rule="evenodd" fill="#626A70" points="74.4,62.5 75.5,62.5 75.5,107.2 75,107.9 74.7,108.2 
				74.4,108 74.4,62.5 			"/>
			<path fill="none" stroke="#626A70" stroke-width="0.4267" stroke-miterlimit="3.864" d="M88.4,140.1l-0.4,0.4
				c-0.2,0.2-0.2,1.9,0,2c0,0,0.5,0.2,0.5,0.2c0.1,0,0-0.2-0.1-0.3c-0.1-0.5,0-1.6,0.1-1.7l0.4-0.4L88.4,140.1z"/>
			<path fill="none" stroke="#626A70" stroke-width="0.4267" stroke-miterlimit="3.864" d="M89.7,140.4l-0.4,0.4
				c-0.2,0.2-0.2,1.9,0,2c0.1,0,0.5,0.2,0.5,0.2c0.1,0-0.1-0.2-0.1-0.3c-0.1-0.5,0-1.6,0.1-1.7l0.4-0.4L89.7,140.4z"/>
		</g>
		<g>
			<g>
				<path fill="#004E97" d="M47.1,171.7h8.3v0.4h-2.9v12.8c0,1.1,0.1,2,0.3,2.7c0.2,0.7,0.4,1.3,0.8,1.8c0.4,0.5,0.8,0.8,1.3,1
					c0.5,0.2,1.1,0.3,1.8,0.3c1,0,1.8-0.1,2.5-0.4c0.7-0.3,1.4-0.8,1.9-1.6c0.2-0.2,0.3-0.5,0.5-0.7c0.1-0.2,0.2-0.5,0.3-0.8
					c0.1-0.3,0.2-0.7,0.2-1.1c0.1-0.4,0.1-1,0.1-1.6V172h-2.9v-0.4h6.1v0.4h-2.9v12.9c0,0.7-0.1,1.4-0.2,2c-0.2,0.6-0.5,1.2-1,1.9
					c-0.5,0.6-1.1,1.1-1.9,1.5c-0.8,0.4-1.9,0.6-3.3,0.6c-2.1,0-3.6-0.5-4.7-1.6c-1.1-1-1.6-2.6-1.6-4.8V172h-2.9V171.7z"/>
			</g>
			<g>
				<path fill="#004E97" d="M66.3,190.2h2.9V172h-2.9v-0.4h5.5l8.7,14.5h0.1V172h-2.9v-0.4h6.1v0.4h-2.9v18.9h-0.5l-10.8-17.8h-0.1
					v17.1h2.9v0.4h-6.1V190.2z"/>
			</g>
			<g>
				<path fill="#004E97" d="M84.8,190.2h2.9V172h-2.9v-0.4h8.3v0.4h-2.9v18.1h2.9v0.4h-8.3V190.2z"/>
			</g>
			<g>
				<path fill="#004E97" d="M93.2,171.7h8v0.4h-2.9l5.7,15.4l5.6-15.4h-2.8v-0.4h5.6v0.4h-2.3l-6.9,18.9h-0.6l-7-18.9h-2.3V171.7z"
					/>
			</g>
			<g>
				<path fill="#004E97" d="M112.5,190.2h2.9V172h-2.9v-0.4h14.7v4.6H127c-0.2-0.7-0.5-1.3-0.7-1.8c-0.3-0.5-0.6-1-0.9-1.3
					c-0.4-0.4-0.8-0.6-1.3-0.8c-0.5-0.2-1.1-0.3-1.8-0.3h-4.3v8.2h1.7c0.6,0,1-0.1,1.4-0.2c0.4-0.1,0.7-0.3,1-0.6
					c0.3-0.3,0.5-0.7,0.7-1.2c0.2-0.5,0.4-1.2,0.6-1.9h0.3v8.2h-0.3c-0.1-0.5-0.2-1-0.4-1.5c-0.1-0.5-0.3-0.9-0.5-1.3
					c-0.2-0.4-0.5-0.7-0.9-0.9c-0.4-0.2-0.9-0.3-1.5-0.3h-2.1v9.6h4.9c0.9,0,1.7-0.2,2.4-0.6c0.6-0.4,1.1-0.9,1.5-1.5
					c0.4-0.6,0.7-1.2,0.9-1.8c0.2-0.6,0.3-1.1,0.4-1.5h0.3v5.8h-15.7V190.2z"/>
			</g>
			<g>
				<path fill="#004E97" d="M130.2,190.2h2.9V172h-2.9v-0.4h4.9c0.2,0,0.4,0,0.6,0c0.2,0,0.4,0,0.6,0c0.2,0,0.4,0,0.6,0
					c0.2,0,0.4,0,0.6,0c1,0,1.9,0.1,2.7,0.2c0.8,0.1,1.5,0.4,2.2,1c0.6,0.5,1,1,1.3,1.6c0.2,0.6,0.4,1.2,0.4,1.7c0,0.3,0,0.6-0.1,1
					c-0.1,0.4-0.3,0.8-0.6,1.3c-0.3,0.4-0.8,0.8-1.4,1.2c-0.6,0.4-1.4,0.6-2.4,0.7v0.1c0.3,0,0.6,0.1,1.1,0.2c0.5,0.1,1,0.3,1.4,0.5
					c0.5,0.2,0.9,0.5,1.4,0.9c0.4,0.4,0.7,0.9,0.9,1.5c0.1,0.4,0.2,0.8,0.2,1.2c0,0.5,0.1,0.9,0.1,1.4c0,0.5,0,0.9,0.1,1.4
					c0,0.4,0.1,0.8,0.1,1.1c0.1,0.5,0.3,0.9,0.5,1.2c0.2,0.4,0.6,0.6,1.1,0.6c0.2,0,0.5,0,0.7-0.1c0.2-0.1,0.5-0.2,0.6-0.4l0.2,0.3
					c-0.1,0.1-0.2,0.1-0.3,0.2c-0.1,0.1-0.3,0.2-0.4,0.2c-0.2,0.1-0.4,0.1-0.6,0.2c-0.2,0-0.6,0.1-0.9,0.1c-0.7,0-1.3-0.1-1.7-0.3
					c-0.5-0.2-0.8-0.4-1.1-0.8c-0.3-0.3-0.5-0.8-0.6-1.3c-0.1-0.5-0.2-1.1-0.3-1.8l-0.2-2.4c-0.1-0.9-0.2-1.6-0.5-2.1
					c-0.3-0.5-0.6-0.9-1-1.1c-0.4-0.2-0.8-0.4-1.1-0.4c-0.4,0-0.7-0.1-1-0.1h-2.6v9.6h2.9v0.4h-8.3V190.2z M135.7,180.2h2.4
					c0.5,0,0.9-0.1,1.3-0.2c0.4-0.1,0.7-0.3,1-0.7c0.3-0.3,0.5-0.7,0.7-1.3c0.2-0.5,0.2-1.2,0.2-2c0-0.9-0.1-1.7-0.3-2.2
					c-0.2-0.6-0.5-1-0.9-1.3c-0.4-0.3-0.8-0.5-1.2-0.6c-0.5-0.1-0.9-0.1-1.4-0.1c-0.3,0-0.6,0-0.9,0c-0.3,0-0.6,0-0.8,0.1V180.2z"/>
			</g>
			<g>
				<path fill="#004E97" d="M149.6,184.8h0.3c0.2,1,0.4,1.8,0.7,2.4c0.3,0.7,0.6,1.2,1,1.6c0.4,0.4,0.7,0.8,1.1,1
					c0.4,0.2,0.8,0.4,1.2,0.5c0.4,0.1,0.8,0.2,1.2,0.2c0.4,0,0.7,0,1,0c0.9,0,1.7-0.1,2.2-0.4c0.6-0.3,1-0.6,1.4-1.1
					c0.3-0.4,0.6-0.9,0.7-1.4c0.1-0.5,0.2-1,0.2-1.4c0-0.6-0.1-1.1-0.3-1.6c-0.2-0.4-0.5-0.8-0.9-1.1c-0.3-0.3-0.7-0.6-1.1-0.8
					c-0.4-0.2-0.8-0.3-1.1-0.5l-3-0.9c-1.4-0.4-2.4-1-3.2-1.8c-0.7-0.7-1.1-1.7-1.1-2.9c0-0.8,0.1-1.5,0.4-2.2
					c0.3-0.7,0.7-1.3,1.2-1.8c0.5-0.5,1.1-0.9,1.8-1.2c0.7-0.3,1.5-0.4,2.3-0.4c0.6,0,1.1,0.1,1.5,0.2c0.4,0.1,0.8,0.2,1,0.4
					c0.3,0.1,0.6,0.3,0.8,0.4c0.2,0.1,0.5,0.2,0.7,0.2c0.2,0,0.4,0,0.5-0.1c0.1-0.1,0.2-0.2,0.3-0.5h0.4v4.8h-0.3
					c-0.1-0.6-0.3-1.3-0.5-1.8c-0.3-0.6-0.6-1.1-1-1.6c-0.4-0.5-0.9-0.8-1.4-1.1c-0.6-0.3-1.2-0.4-1.9-0.4c-0.4,0-0.9,0.1-1.4,0.2
					c-0.5,0.1-1,0.3-1.4,0.6c-0.4,0.3-0.8,0.7-1.1,1.1c-0.3,0.5-0.4,1-0.4,1.8c0,0.6,0.1,1,0.3,1.4c0.2,0.4,0.5,0.7,0.9,1
					c0.4,0.3,0.7,0.5,1.2,0.7c0.4,0.2,0.9,0.3,1.3,0.5l3.1,1c0.3,0.1,0.7,0.2,1.2,0.4c0.5,0.2,1,0.4,1.5,0.8
					c0.5,0.4,0.9,0.8,1.2,1.4c0.3,0.6,0.5,1.3,0.5,2.2c0,0.8-0.2,1.6-0.4,2.4c-0.3,0.8-0.7,1.4-1.3,2c-0.6,0.6-1.3,1-2.1,1.4
					c-0.8,0.3-1.7,0.5-2.7,0.5c-0.4,0-0.7,0-1,0c-0.3,0-0.5,0-0.8-0.1c-0.2,0-0.5-0.1-0.7-0.1c-0.2,0-0.5-0.1-0.8-0.2
					c-0.3-0.1-0.7-0.2-1.1-0.4c-0.4-0.1-0.7-0.2-1-0.2c-0.3,0-0.4,0.1-0.5,0.2c-0.1,0.1-0.2,0.2-0.2,0.4h-0.4V184.8z"/>
			</g>
			<g>
				<path fill="#004E97" d="M165.3,190.2h2.9V172h-2.9v-0.4h8.3v0.4h-2.9v18.1h2.9v0.4h-8.3V190.2z"/>
			</g>
			<g>
				<path fill="#004E97" d="M174.8,190.2h2.9V172h-2.9v-0.4h4.8c0.2,0,0.5,0,0.7,0c0.2,0,0.5,0,0.7,0c0.2,0,0.5,0,0.7,0
					c0.2,0,0.5,0,0.7,0c0.5,0,1,0,1.4,0c0.4,0,0.8,0,1.1,0.1c0.4,0,0.7,0.1,1,0.2c0.3,0.1,0.7,0.2,1,0.3c1,0.4,2,0.8,2.7,1.4
					c0.8,0.6,1.4,1.3,1.9,2.1c0.5,0.8,0.9,1.6,1.1,2.5c0.2,0.9,0.3,1.9,0.3,2.9c0,1.2-0.1,2.2-0.4,3.1c-0.3,0.9-0.7,1.8-1.1,2.5
					c-0.5,0.7-1,1.3-1.7,1.9c-0.6,0.5-1.3,0.9-2.1,1.3c-0.4,0.2-0.8,0.3-1.2,0.5c-0.4,0.1-0.7,0.2-1.1,0.2c-0.4,0.1-0.8,0.1-1.3,0.1
					c-0.5,0-1,0-1.6,0c-0.3,0-0.5,0-0.8,0c-0.3,0-0.6,0-0.9,0c-0.3,0-0.6,0-0.9,0c-0.3,0-0.6,0-0.8,0h-4.4V190.2z M180.3,190.2
					c0.3,0,0.6,0.1,1,0.1c0.4,0,0.8,0,1.3,0c0.6,0,1.2,0,1.7-0.1c0.6-0.1,1.1-0.2,1.6-0.4c0.5-0.2,1-0.5,1.5-0.9
					c0.5-0.4,0.9-0.9,1.2-1.5c0.6-1,0.9-1.9,1.1-2.9c0.2-1,0.3-2.1,0.3-3.3c0-1.4-0.1-2.7-0.4-3.8c-0.3-1.1-0.7-2.1-1.3-2.9
					c-0.6-0.8-1.4-1.4-2.4-1.9c-1-0.4-2.2-0.7-3.6-0.7c-0.4,0-0.8,0-1.2,0c-0.4,0-0.7,0-1,0.1V190.2z"/>
			</g>
			<g>
				<path fill="#004E97" d="M193.2,190.2h2.3l6.9-19h0.6l7,19h2.3v0.4h-7.9v-0.4h2.9l-2.7-7.4h-6l-2.7,7.4h2.9v0.4h-5.5V190.2z
					 M201.6,174.7l-2.8,7.7h5.7L201.6,174.7z"/>
			</g>
			<g>
				<path fill="#004E97" d="M212.7,190.2h2.9V172h-2.9v-0.4h4.8c0.2,0,0.5,0,0.7,0c0.2,0,0.5,0,0.7,0c0.2,0,0.5,0,0.7,0
					c0.2,0,0.5,0,0.7,0c0.5,0,1,0,1.4,0c0.4,0,0.8,0,1.1,0.1c0.4,0,0.7,0.1,1,0.2c0.3,0.1,0.7,0.2,1,0.3c1,0.4,2,0.8,2.7,1.4
					c0.8,0.6,1.4,1.3,1.9,2.1c0.5,0.8,0.9,1.6,1.1,2.5c0.2,0.9,0.3,1.9,0.3,2.9c0,1.2-0.1,2.2-0.4,3.1c-0.3,0.9-0.7,1.8-1.1,2.5
					c-0.5,0.7-1,1.3-1.7,1.9c-0.6,0.5-1.3,0.9-2.1,1.3c-0.4,0.2-0.8,0.3-1.2,0.5c-0.4,0.1-0.7,0.2-1.1,0.2c-0.4,0.1-0.8,0.1-1.3,0.1
					c-0.5,0-1,0-1.6,0c-0.3,0-0.5,0-0.8,0c-0.3,0-0.6,0-0.9,0c-0.3,0-0.6,0-0.9,0c-0.3,0-0.6,0-0.8,0h-4.4V190.2z M218.1,190.2
					c0.3,0,0.6,0.1,1,0.1c0.4,0,0.8,0,1.3,0c0.6,0,1.2,0,1.7-0.1c0.6-0.1,1.1-0.2,1.6-0.4c0.5-0.2,1-0.5,1.5-0.9
					c0.5-0.4,0.9-0.9,1.2-1.5c0.6-1,0.9-1.9,1.1-2.9c0.2-1,0.3-2.1,0.3-3.3c0-1.4-0.1-2.7-0.4-3.8c-0.3-1.1-0.7-2.1-1.3-2.9
					c-0.6-0.8-1.4-1.4-2.4-1.9c-1-0.4-2.2-0.7-3.6-0.7c-0.4,0-0.8,0-1.2,0c-0.4,0-0.7,0-1,0.1V190.2z"/>
			</g>
			<g>
				<path fill="#004E97" d="M240,190.2h2.9V172H240v-0.4h4.8c0.2,0,0.5,0,0.7,0c0.2,0,0.5,0,0.7,0c0.2,0,0.5,0,0.7,0
					c0.2,0,0.5,0,0.7,0c0.5,0,1,0,1.4,0c0.4,0,0.8,0,1.1,0.1c0.4,0,0.7,0.1,1,0.2c0.3,0.1,0.7,0.2,1,0.3c1,0.4,2,0.8,2.7,1.4
					s1.4,1.3,1.9,2.1c0.5,0.8,0.8,1.6,1.1,2.5c0.2,0.9,0.3,1.9,0.3,2.9c0,1.2-0.1,2.2-0.4,3.1c-0.3,0.9-0.7,1.8-1.1,2.5
					c-0.5,0.7-1,1.3-1.7,1.9c-0.6,0.5-1.3,0.9-2.1,1.3c-0.4,0.2-0.8,0.3-1.2,0.5c-0.4,0.1-0.7,0.2-1.1,0.2c-0.4,0.1-0.8,0.1-1.3,0.1
					c-0.5,0-1,0-1.6,0c-0.3,0-0.5,0-0.8,0c-0.3,0-0.6,0-0.9,0c-0.3,0-0.6,0-0.9,0c-0.3,0-0.6,0-0.8,0H240V190.2z M245.5,190.2
					c0.3,0,0.6,0.1,1,0.1c0.4,0,0.8,0,1.3,0c0.6,0,1.2,0,1.7-0.1c0.6-0.1,1.1-0.2,1.6-0.4c0.5-0.2,1-0.5,1.5-0.9
					c0.5-0.4,0.9-0.9,1.2-1.5c0.6-1,0.9-1.9,1.1-2.9c0.2-1,0.3-2.1,0.3-3.3c0-1.4-0.1-2.7-0.4-3.8c-0.3-1.1-0.7-2.1-1.3-2.9
					c-0.6-0.8-1.4-1.4-2.4-1.9c-1-0.4-2.2-0.7-3.6-0.7c-0.4,0-0.8,0-1.2,0c-0.4,0-0.7,0-1,0.1V190.2z"/>
			</g>
			<g>
				<path fill="#004E97" d="M260.6,190.2h2.9V172h-2.9v-0.4h14.7v4.6h-0.3c-0.2-0.7-0.5-1.3-0.7-1.8c-0.3-0.5-0.6-1-0.9-1.3
					c-0.4-0.4-0.8-0.6-1.3-0.8c-0.5-0.2-1.1-0.3-1.8-0.3h-4.3v8.2h1.7c0.6,0,1-0.1,1.4-0.2c0.4-0.1,0.7-0.3,1-0.6
					c0.3-0.3,0.5-0.7,0.7-1.2c0.2-0.5,0.4-1.2,0.6-1.9h0.3v8.2h-0.3c-0.1-0.5-0.2-1-0.4-1.5c-0.1-0.5-0.3-0.9-0.5-1.3
					c-0.2-0.4-0.5-0.7-0.9-0.9c-0.4-0.2-0.9-0.3-1.5-0.3h-2.1v9.6h4.9c0.9,0,1.7-0.2,2.4-0.6c0.6-0.4,1.1-0.9,1.5-1.5
					c0.4-0.6,0.7-1.2,0.9-1.8c0.2-0.6,0.3-1.1,0.4-1.5h0.3v5.8h-15.7V190.2z"/>
			</g>
			<g>
				<path fill="#004E97" d="M301.6,190.5h-0.4c-0.1-0.1-0.3-0.3-0.4-0.4c-0.2-0.1-0.4-0.2-0.7-0.2c-0.3,0-0.5,0-0.8,0.1
					c-0.3,0.1-0.6,0.2-1,0.3c-0.4,0.1-0.8,0.2-1.3,0.3c-0.5,0.1-1,0.1-1.6,0.1c-1.1,0-2.1-0.2-3.2-0.6c-1-0.4-2-1.1-2.9-2
					c-0.8-0.9-1.5-1.9-2.1-3.1c-0.6-1.2-0.8-2.6-0.8-4.1c0-1.3,0.2-2.6,0.7-3.8c0.5-1.2,1.1-2.3,1.9-3.2c0.8-0.9,1.8-1.7,2.9-2.2
					c1.1-0.5,2.3-0.8,3.7-0.8c0.5,0,1,0.1,1.4,0.2c0.4,0.1,0.8,0.2,1.1,0.4c0.3,0.1,0.6,0.3,0.9,0.4c0.3,0.1,0.5,0.2,0.8,0.2
					c0.3,0,0.6-0.1,0.7-0.2c0.1-0.1,0.3-0.2,0.4-0.4h0.4v5.3H301c-0.2-0.7-0.4-1.3-0.6-2c-0.2-0.7-0.6-1.2-1-1.7
					c-0.4-0.5-1-0.9-1.6-1.2c-0.7-0.3-1.5-0.5-2.5-0.5c-0.9,0-1.7,0.1-2.3,0.4c-0.7,0.3-1.2,0.7-1.6,1.2c-0.4,0.5-0.8,1.1-1.1,1.7
					c-0.3,0.6-0.5,1.3-0.6,2c-0.1,0.7-0.2,1.4-0.3,2.2c0,0.7-0.1,1.4-0.1,2.1c0,1.9,0.1,3.4,0.4,4.6c0.3,1.2,0.7,2.2,1.2,2.9
					c0.5,0.7,1.2,1.2,1.9,1.5c0.7,0.3,1.6,0.4,2.4,0.4c1.1,0,2.1-0.2,2.8-0.5c0.7-0.3,1.3-0.8,1.7-1.3c0.4-0.5,0.8-1.1,1-1.8
					c0.2-0.7,0.4-1.4,0.6-2h0.3V190.5z"/>
			</g>
			<g>
				<path fill="#004E97" d="M303.3,190.2h2.9V172h-2.9v-0.4h8.3v0.4h-2.9v8.7h8.6V172h-2.9v-0.4h8.3v0.4h-2.9v18.1h2.9v0.4h-8.3
					v-0.4h2.9v-9.1h-8.6v9.1h2.9v0.4h-8.3V190.2z"/>
			</g>
			<g>
				<path fill="#004E97" d="M324,190.2h2.9V172H324v-0.4h8.3v0.4h-2.9v18.1h2.9v0.4H324V190.2z"/>
			</g>
			<g>
				<path fill="#004E97" d="M333.5,190.2h2.9V172h-2.9v-0.4h8.3v0.4H339v18.1h4.6c1.5,0,2.7-0.5,3.6-1.5c0.9-1,1.5-2.3,1.9-4h0.3
					v5.8h-15.7V190.2z"/>
			</g>
			<g>
				<path fill="#004E97" d="M350.8,190.2h2.9V172h-2.9v-0.4h14.7v4.6h-0.3c-0.2-0.7-0.5-1.3-0.7-1.8c-0.3-0.5-0.6-1-0.9-1.3
					c-0.4-0.4-0.8-0.6-1.3-0.8c-0.5-0.2-1.1-0.3-1.8-0.3h-4.3v8.2h1.7c0.6,0,1-0.1,1.4-0.2c0.4-0.1,0.7-0.3,1-0.6
					c0.3-0.3,0.5-0.7,0.7-1.2c0.2-0.5,0.4-1.2,0.6-1.9h0.3v8.2h-0.3c-0.1-0.5-0.2-1-0.4-1.5c-0.1-0.5-0.3-0.9-0.5-1.3
					c-0.2-0.4-0.5-0.7-0.9-0.9c-0.4-0.2-0.9-0.3-1.5-0.3h-2.1v9.6h4.9c0.9,0,1.7-0.2,2.4-0.6c0.6-0.4,1.1-0.9,1.5-1.5
					c0.4-0.6,0.7-1.2,0.9-1.8c0.2-0.6,0.3-1.1,0.4-1.5h0.3v5.8h-15.7V190.2z"/>
			</g>
		</g>
	</g>
</g>
</svg>
