<?xml version="1.0" encoding="utf-8"?>
<!-- Generator: Adobe Illustrator 22.1.0, SVG Export Plug-In . SVG Version: 6.00 Build 0)  -->
<svg version="1.1" xmlns="http://www.w3.org/2000/svg" xmlns:xlink="http://www.w3.org/1999/xlink" x="0px" y="0px"
	 viewBox="0 0 467.6 147.7" enable-background="new 0 0 467.6 147.7" xml:space="preserve">
<g id="fondo" display="none">
	<rect x="0.6" display="inline" fill="#1D1D1B" width="467" height="147.7"/>
</g>
<g id="Capa_1">
	<g>
		<rect x="179.4" y="59" fill="#FFFFFF" width="1.7" height="67.1"/>
		<path fill="#FFFFFF" d="M86.1,73c-0.4-8,4.4-14,12.7-14c6.9,0,12.4,4,12.4,11.4c0,7-4.7,10.5-9.6,13.6c-5,3-10.2,5.5-11.1,10.4
			h20.3v4.2H85c0.8-9.4,5.5-12.7,11.1-16.2c6.7-4.1,10.1-6.6,10.1-12.1c0-4.3-3.5-7.1-7.6-7.1c-5.5,0-7.9,5.1-7.7,9.8H86.1z"/>
		<path fill="#FFFFFF" d="M127.4,59c12.4,0,13.2,11.4,13.2,20.1c0,8.7-0.8,20.1-13.2,20.1c-12.4,0-13.2-11.4-13.2-20.1
			C114.3,70.4,115,59,127.4,59 M127.4,95c8.1,0,8.1-10,8.1-16c0-5.9-0.1-15.9-8.1-15.9c-8.1,0-8.1,10-8.1,15.9
			C119.3,85,119.3,95,127.4,95"/>
		<path fill="#ECEDEF" d="M154.4,85.8c12.4,0,13.2,11.4,13.2,20.1c0,8.7-0.8,20.1-13.2,20.1c-12.4,0-13.2-11.4-13.2-20.1
			C141.3,97.2,142.1,85.8,154.4,85.8 M154.4,121.9c8.1,0,8.1-10,8.1-16c0-5.9-0.1-15.9-8.1-15.9c-8.1,0-8.1,10-8.1,15.9
			C146.3,111.8,146.3,121.9,154.4,121.9"/>
		<path fill="#ECEDEF" d="M122.5,102.7c0.7,0.1,1.4,0.1,2.1,0.1c4,0,7.5-2.2,7.5-6.5c0-4.1-3-6.4-7-6.4c-5.2,0-7.4,4-7.5,8.6h-4.7
			c0.3-7.5,4.3-12.8,12.2-12.8c6.9,0,12.1,3.3,12.1,10.6c0,3.5-2.5,6.5-5.5,7.9v0.1c4.8,1.1,7.1,4.9,7.1,9.6
			c0,7.9-6.2,12.1-13.6,12.1c-8,0-13.3-4.7-13.2-12.9h4.7c0.2,5.1,3,8.7,8.4,8.7c4.6,0,8.6-2.8,8.6-7.6c0-5-3.7-7.6-8.4-7.6
			c-0.9,0-2,0.1-2.8,0.2V102.7z"/>
		<path fill="#FFFFFF" d="M127.4,95c-8.1,0-8.1-10-8.1-16c0-5.9,0.1-15.9,8.1-15.9V59c-12.4,0-13.2,11.4-13.2,20.1
			c0,8.7,0.8,20.1,13.2,20.1V95z"/>
		<path fill="none" stroke="#FFFFFF" stroke-width="1.1119" stroke-miterlimit="3.863" d="M76,59.5v63.8c0,1.2-1,2.2-2.2,2.2h-20
			c-1.3,0-2.3,2.2-2.3,2.2s-1-2.2-2.4-2.2c0,0-19.9,0-19.9,0c-1.2,0-2.2-1-2.2-2.2l0-63.8L76,59.5z"/>
		<path fill="none" stroke="#FFFFFF" stroke-width="0.5531" stroke-miterlimit="3.864" d="M58.9,69.7l-1.9-3.1
			c-2.3,0.5-1.8-1.5-0.5-2.3c1.4-0.9,3-0.6,2,1.4c0,0,0.4,0.7,1.2,1.9C59.6,67.6,59.1,68.6,58.9,69.7z"/>
		<path fill="none" stroke="#FFFFFF" stroke-width="0.5531" stroke-miterlimit="3.864" d="M67.5,80.1l5.3,8.4l-0.4,0.4l-1.9-1.5
			c0,0-0.1-1.2-0.4-1.5c-1-0.9-0.4-1.3-0.8-2.1c-0.4-0.8-2.7-1.4-3.2-2.6c0,0.1-0.9-1.4-0.9-1.4C67.3,79.4,67.5,80.1,67.5,80.1z"/>
		<path fill="none" stroke="#FFFFFF" stroke-width="0.5531" stroke-miterlimit="3.864" d="M61.3,70.2c0,0,1.9,3.1,1.9,3.1
			c-1.2-0.1-1.7-0.5-2-1.1C60.9,71.4,61.1,70.4,61.3,70.2z"/>
		<line fill="none" stroke="#FFFFFF" stroke-width="0.5531" stroke-miterlimit="3.864" x1="32.9" y1="99.8" x2="37.1" y2="110.3"/>
		<line fill="none" stroke="#FFFFFF" stroke-width="0.5531" stroke-miterlimit="3.864" x1="33.3" y1="100.1" x2="37.1" y2="107.5"/>
		<line fill="none" stroke="#FFFFFF" stroke-width="0.5531" stroke-miterlimit="3.864" x1="33.6" y1="100.2" x2="37.1" y2="105.5"/>
		<line fill="none" stroke="#FFFFFF" stroke-width="0.5531" stroke-miterlimit="3.864" x1="33.8" y1="100.1" x2="37" y2="103.9"/>
		<line fill="none" stroke="#FFFFFF" stroke-width="0.5531" stroke-miterlimit="3.864" x1="33.7" y1="99.8" x2="38.4" y2="104.2"/>
		<line fill="none" stroke="#FFFFFF" stroke-width="0.5531" stroke-miterlimit="3.864" x1="33.7" y1="99.5" x2="40" y2="104.3"/>
		<line fill="none" stroke="#FFFFFF" stroke-width="0.5531" stroke-miterlimit="3.864" x1="33.6" y1="99.3" x2="42.9" y2="104.8"/>
		<polygon fill="none" stroke="#FFFFFF" stroke-width="0.5531" stroke-miterlimit="3.864" points="38.6,82.6 38.5,85.9 40.4,85.9 
			40.2,82.6 		"/>
		<polygon fill="none" stroke="#FFFFFF" stroke-width="0.5531" stroke-miterlimit="3.864" points="40.2,81.7 39.4,64.4 38.6,81.7 		
			"/>
		
			<rect x="36.3" y="81.8" fill="none" stroke="#FFFFFF" stroke-width="0.5531" stroke-miterlimit="3.864" width="6.4" height="0.9"/>
		<path fill="none" stroke="#FFFFFF" stroke-width="0.5531" stroke-miterlimit="3.864" d="M41.4,85.9c0,1.3-0.9,2.2-2,2.2
			c-1.1,0-2-0.9-2-2.2H41.4z"/>
		<path fill="none" stroke="#FFFFFF" stroke-width="0.5531" stroke-miterlimit="3.864" d="M36.5,73.9c0,1.7-1.4,3-3.1,3
			c-1.7,0-3.1-1.3-3.1-3H36.5z"/>
		<path fill="none" stroke="#FFFFFF" stroke-width="0.5531" stroke-miterlimit="3.864" d="M61.7,69.5c0,0,0.7,0.9,1.4,0.5
			c1.3-0.8-0.3-5.2-3-3c-0.6,0.5-1.4,2.8-1.2,4.3c0.2,1.5,0.8,3.4,2.5,3.8c1,0.2,3-0.3,3.9,1.1c0.6-0.2,1.3-2.7-0.4-2.8
			c-1.7-0.1-3.2-0.4-3.4-1.1C60.6,70.6,61.7,69.5,61.7,69.5z"/>
		<path fill="none" stroke="#FFFFFF" stroke-width="0.5531" stroke-miterlimit="3.864" d="M63.2,76.5c-0.7,0.3-1.2,1.1-0.9,2
			c0.2,0.9,1.3,1.4,2.8,1.3c0.1,0,0.2,0,0.2,0c1.3-0.1,1.9-0.3,2.4,0.5c0.5-0.6,0.3-1.8-0.3-2.4C66.3,77,63.6,78.1,63.2,76.5z"/>
		<path fill="none" stroke="#FFFFFF" stroke-width="0.5531" stroke-miterlimit="3.864" d="M66.2,81.2c-0.2,0.7-0.6,1.7-0.2,2.5
			c0.5,1.2,1.6,0.6,1.9,1.3c0.3,0.7,0,1.8,0.7,2c1.3,0.4,0.9,1.7,1.6,1.7c0.6-0.1,0.6-2.2,0-2.8c-0.9-0.9-0.3-1.5-0.8-2.2
			C68.8,82.9,67.1,82.6,66.2,81.2z"/>
		<path fill="none" stroke="#FFFFFF" stroke-width="0.3549" stroke-miterlimit="3.864" d="M52.4,85.6C52.4,85.6,52.5,85.5,52.4,85.6
			c0.1-0.1,0.2,0,0.2,0C52.6,85.7,52.6,85.7,52.4,85.6C52.5,85.7,52.4,85.7,52.4,85.6z"/>
		<path fill="none" stroke="#FFFFFF" stroke-width="0.3549" stroke-miterlimit="3.864" d="M62.4,68c0.1,0,0.3,0,0.3,0.2
			c0.1,0.2,0,0.3-0.1,0.4c-0.1,0-0.3,0-0.3-0.2C62.2,68.2,62.2,68,62.4,68z"/>
		<path fill="none" stroke="#FFFFFF" stroke-width="0.5531" stroke-miterlimit="3.864" d="M38.1,110.3c0-2.5,2-4.5,4.5-4.5
			c2.5,0,4.5,2,4.5,4.5c0,2.5-2,4.5-4.5,4.5C40.1,114.8,38.1,112.8,38.1,110.3z"/>
		<polygon fill="none" stroke="#FFFFFF" stroke-width="0.5531" stroke-miterlimit="3.864" points="47.3,121.4 45.1,121.4 
			45.1,117.2 31.6,117.2 31.6,115 47.3,115 		"/>
		<path fill="none" stroke="#FFFFFF" stroke-width="0.5531" stroke-miterlimit="3.864" d="M33.5,110.8c0-0.5,0.4-0.9,0.9-0.9
			s0.9,0.4,0.9,0.9c0,0.5-0.4,0.9-0.9,0.9S33.5,111.3,33.5,110.8z"/>
		<polyline fill="none" stroke="#FFFFFF" stroke-width="0.5531" stroke-miterlimit="3.864" points="33.6,110.5 32,115 34.4,111.7 		
			"/>
		<polyline fill="none" stroke="#FFFFFF" stroke-width="0.5531" stroke-miterlimit="3.864" points="35.3,110.5 36.9,115 34.5,111.7 
					"/>
		<path fill="none" stroke="#FFFFFF" stroke-width="0.5531" stroke-miterlimit="3.864" d="M38.7,108.1c-0.2,1.2,2.1,1.2,1.9,1.9
			c-0.5,1.6,0.5,1.6,0.6,2.4c0,0-0.2,2,0.4,2.2c0.3-0.4,0.1-1.3,0.5-1.7c0.4-0.5,1-0.7,1-1.6c0-0.6-0.9-0.8-1.1-1
			c-0.3-0.2-0.8-0.4-1.1-0.4c0,0-0.9-1.7-0.6-2c0.3-0.3,0.8,0.4,1,0.4c0.4,0,0.5-0.8,1.1-0.8c0-0.2,0-0.8-0.2-0.9
			c-0.6,0-1.1,0.3-1.6-0.4C40.6,106.2,39,106.9,38.7,108.1z"/>
		<path fill="none" stroke="#FFFFFF" stroke-width="0.5531" stroke-miterlimit="3.864" d="M44,105.9c-0.5-0.2-1.3-0.1-1.3-0.1
			c0.7,0.3,0.6,1.2,0.9,1.2c0.5,0,0.8-0.5,1.4-0.6C45,106.4,44.5,106.1,44,105.9z"/>
		<path fill="none" stroke="#FFFFFF" stroke-width="0.5531" stroke-miterlimit="3.864" d="M47.1,109.4c0-1.1-1.5-2.5-1.5-2.5
			s-0.7,1.4-0.4,2.8c0.4,0,1.4-0.1,1.4-0.1c0.3,0.1,0.2,0.5,0.2,0.8c0,0.6-0.2,2.2-0.2,2.2S47.1,110.5,47.1,109.4z"/>
		<polygon fill="none" stroke="#FFFFFF" stroke-width="0.3549" stroke-miterlimit="3.864" points="32.8,97.4 32.3,98.4 31.3,98.5 
			32.1,99.2 31.8,100.3 32.8,99.8 33.7,100.3 33.6,99.2 34.3,98.5 33.2,98.3 		"/>
		<line fill="none" stroke="#FFFFFF" stroke-width="1.1119" stroke-miterlimit="3.863" x1="51.5" y1="100.5" x2="51.5" y2="127.5"/>
		
			<path fill="none" stroke="#FFFFFF" stroke-width="0.5531" stroke-linecap="round" stroke-linejoin="round" stroke-miterlimit="3.864" d="
			M55.4,113.7l-1.2,1.3c-0.2,0.2-0.1,1.4,0,1.7c0.9,0.4,13.9,4.4,13.9,4.4l5.3-5.8l-0.8-0.4c-0.2-0.4,0.5-1.6,0.5-1.6l-2.6-1"/>
		
			<path fill="none" stroke="#FFFFFF" stroke-width="0.5531" stroke-linecap="round" stroke-linejoin="round" stroke-miterlimit="3.864" d="
			M68.2,118.6c-0.2,0.2-0.2,2.3,0,2.6c0,0,5.3-5.8,5.3-5.8l-0.5-0.5c0-0.5,0.1-1.5,0.1-1.5L68.2,118.6z"/>
		
			<path fill="none" stroke="#FFFFFF" stroke-width="0.5531" stroke-linecap="round" stroke-linejoin="round" stroke-miterlimit="3.864" d="
			M67.7,115.1c-0.2,0.1-0.3,2.9-0.1,2.9c0,0,4.3-4.9,4.3-4.9l-0.4-0.2L67.7,115.1z"/>
		
			<path fill="none" stroke="#FFFFFF" stroke-width="0.3549" stroke-linecap="round" stroke-linejoin="round" stroke-miterlimit="3.864" d="
			M57,111.3l-1.4,1.4c-0.2,0.1,0,1.4,0,1.8c0.5,0.1,12,3.5,12,3.5l4.3-5l-1.4-0.5"/>
		<path fill="none" stroke="#FFFFFF" stroke-width="0.5531" stroke-miterlimit="3.864" d="M69.6,104.1v8.2c-1.1-0.3-5.4-0.8-5.8-0.1
			c-0.4-0.7-3.8-0.4-5.8,0.1v-7.9c-0.3,1.1-1,1.6-1,1.6v7l6-0.4c0.7,0.4,1.4,0.2,1.7,0l5.8,0.2v-7.8
			C70.5,104.9,69.9,104.9,69.6,104.1z"/>
		<path fill="none" stroke="#FFFFFF" stroke-width="0.5531" stroke-miterlimit="3.864" d="M69.6,112.4c-1.2,0-4.9-1-5.8-0.1
			c0.8,0,0.8,0.5,0,0.5c-0.9-0.1-0.7-0.6,0-0.5c-0.7-1-5.8,0.2-5.8,0.2l0-8.1c1.4,0,2.9-0.7,3.8-0.7c1,0,2,0.4,2,0.4
			s1.6-0.6,2.6-0.6c1.3,0,2,1.1,3,0.7C69.5,104.7,69.6,112.4,69.6,112.4z"/>
		<line fill="none" stroke="#FFFFFF" stroke-width="0.3549" stroke-miterlimit="3.864" x1="63.9" y1="104.1" x2="63.8" y2="112.2"/>
		<path fill="none" stroke="#FFFFFF" stroke-width="0.3832" stroke-miterlimit="3.864" d="M57.8,115.2l-0.4,0.4
			c-0.2,0.2-0.2,2,0,2.1c0,0,0.9,0.3,0.5,0.1c-0.1-0.6-0.1-1.8,0.1-2l0.5-0.5L57.8,115.2z"/>
		<path fill="none" stroke="#FFFFFF" stroke-width="0.3832" stroke-miterlimit="3.864" d="M59.3,115.6l-0.4,0.4
			c-0.2,0.2-0.3,2.1-0.1,2.2c0,0,1,0.2,0.6,0c-0.1-0.6-0.1-1.8,0.1-2l0.4-0.4L59.3,115.6z"/>
		<path fill="none" stroke="#FFFFFF" stroke-width="0.3832" stroke-miterlimit="3.864" d="M63,116.7l-0.5,0.5
			c-0.2,0.2-0.3,2-0.1,2.1c0,0,1,0.3,0.6,0.1c-0.1-0.6-0.1-1.8,0.1-2l0.5-0.5L63,116.7z"/>
		<path fill="none" stroke="#FFFFFF" stroke-width="0.3832" stroke-miterlimit="3.864" d="M64.4,117.1l-0.5,0.5
			c-0.2,0.2-0.3,2-0.1,2.1c0,0,1,0.3,0.6,0.1c-0.1-0.6-0.1-1.8,0.1-2l0.5-0.5L64.4,117.1z"/>
		<path fill="none" stroke="#FFFFFF" stroke-width="0.3832" stroke-miterlimit="3.864" d="M57.8,112.9l-0.3,0.3
			c-0.2,0.2-0.2,1.7,0,1.8c0,0,0.4,0.2,0.5,0.2c0.1,0,0-0.2-0.1-0.2c-0.1-0.4,0-1.4,0.1-1.5l0.4-0.4L57.8,112.9z"/>
		<path fill="none" stroke="#FFFFFF" stroke-width="0.5531" stroke-miterlimit="3.864" d="M63.9,104.1c-1.6,0-2-1.3-2-1.3l0.6,0
			c0,0-0.8-0.5-0.6-0.9c0,0,0.5,0.1,0.5,0.1s-0.2-0.6,0-1l0.5,0.2c0.1-0.8,1-1,1-1s0.8,0.1,1,1l0.5-0.2c0.2,0.4,0,1,0,1
			s0.5-0.1,0.5-0.1c0.2,0.5-0.6,0.9-0.6,0.9l0.6,0C66,102.8,65.4,104,63.9,104.1z"/>
		<line fill="none" stroke="#FFFFFF" stroke-width="1.1119" stroke-miterlimit="3.863" x1="27" y1="92.9" x2="43.9" y2="92.9"/>
		<line fill="none" stroke="#FFFFFF" stroke-width="1.0703" stroke-miterlimit="3.864" x1="59.2" y1="92.9" x2="76" y2="92.9"/>
		<polygon fill="none" stroke="#FFFFFF" stroke-width="0.5531" stroke-miterlimit="3.864" points="51.6,86.7 57,96.1 46.1,96.1 		
			"/>
		<path fill="none" stroke="#FFFFFF" stroke-width="0.5531" stroke-miterlimit="3.864" d="M51.5,91.3c2,0,3.7,1.6,3.6,1.9
			c0,0.2-1.7,1.9-3.6,1.9c-2,0-3.7-1.6-3.6-1.9C47.9,93,49.5,91.3,51.5,91.3z"/>
		<path fill="none" stroke="#FFFFFF" stroke-width="0.5531" stroke-miterlimit="3.864" d="M49.7,93.2c0-1,0.8-1.8,1.8-1.8
			c1,0,1.8,0.8,1.8,1.8c0,1-0.8,1.8-1.8,1.8C50.5,95,49.7,94.2,49.7,93.2z"/>
		<path fill="#626A70" d="M51.3,93.2c0-0.1,0.1-0.2,0.2-0.2c0.1,0,0.2,0.1,0.2,0.2c0,0.1-0.1,0.2-0.2,0.2
			C51.4,93.4,51.3,93.3,51.3,93.2"/>
		<path fill="none" stroke="#FFFFFF" stroke-width="0.3549" stroke-miterlimit="3.864" d="M51.3,93.2c0-0.1,0.1-0.2,0.2-0.2
			c0.1,0,0.2,0.1,0.2,0.2c0,0.1-0.1,0.2-0.2,0.2C51.4,93.4,51.3,93.3,51.3,93.2z"/>
		<path fill="none" stroke="#FFFFFF" stroke-width="0.5531" stroke-miterlimit="3.864" d="M51.6,86.5c-3.6,0-6.5,2.9-6.5,6.5
			c0,3.6,2.9,6.5,6.5,6.5c3.6,0,6.5-2.9,6.5-6.5c0-3.2-2.3-5.9-5.4-6.4c-1.1,0.1-1.2-0.3-1.2-0.5c-0.1-0.6,0.7-0.9,1.2-0.9
			c0.9,0,0.9,0.6,1.4,0.7c3,1,5.2,3.9,5.2,7.2c0,4.2-3.4,7.6-7.6,7.6s-7.6-3.4-7.6-7.6s3.2-7.5,7.4-7.2
			C51.3,86.1,51.6,86.5,51.6,86.5z"/>
		<polygon fill="none" stroke="#FFFFFF" stroke-width="0.9929" stroke-miterlimit="3.863" points="51.5,32.7 49.2,37.4 44,38.1 
			47.7,41.9 47,47 51.5,44.7 56.1,47 55.3,41.8 58.9,38.2 53.9,37.4 		"/>
		<line fill="none" stroke="#FFFFFF" stroke-width="0.5116" stroke-miterlimit="3.863" x1="51.5" y1="32.8" x2="51.5" y2="44.7"/>
		<line fill="none" stroke="#FFFFFF" stroke-width="0.5116" stroke-miterlimit="3.863" x1="44.1" y1="38.2" x2="55.3" y2="41.8"/>
		<line fill="none" stroke="#FFFFFF" stroke-width="0.5116" stroke-miterlimit="3.863" x1="47" y1="47" x2="53.9" y2="37.4"/>
		<line fill="none" stroke="#FFFFFF" stroke-width="0.5116" stroke-miterlimit="3.863" x1="56.1" y1="47" x2="49.2" y2="37.4"/>
		<line fill="none" stroke="#FFFFFF" stroke-width="0.5116" stroke-miterlimit="3.863" x1="58.9" y1="38.2" x2="47.7" y2="41.9"/>
		<line fill="none" stroke="#FFFFFF" stroke-width="0.9929" stroke-miterlimit="3.863" x1="47.7" y1="41.9" x2="31.9" y2="47.1"/>
		<line fill="none" stroke="#FFFFFF" stroke-width="0.9929" stroke-miterlimit="3.863" x1="71.1" y1="34.2" x2="58.9" y2="38.2"/>
		<line fill="none" stroke="#FFFFFF" stroke-width="0.9929" stroke-miterlimit="3.863" x1="49.2" y1="37.4" x2="39.5" y2="24"/>
		<line fill="none" stroke="#FFFFFF" stroke-width="0.9929" stroke-miterlimit="3.863" x1="65.1" y1="59.5" x2="56" y2="47"/>
		<line fill="none" stroke="#FFFFFF" stroke-width="0.9929" stroke-miterlimit="3.863" x1="53.9" y1="37.4" x2="63.6" y2="23.9"/>
		<line fill="none" stroke="#FFFFFF" stroke-width="0.9929" stroke-miterlimit="3.863" x1="37.8" y1="59.5" x2="47" y2="47"/>
		<line fill="none" stroke="#FFFFFF" stroke-width="0.9929" stroke-miterlimit="3.863" x1="44.1" y1="38.2" x2="32" y2="34.2"/>
		<line fill="none" stroke="#FFFFFF" stroke-width="0.9929" stroke-miterlimit="3.863" x1="71" y1="47.1" x2="55.3" y2="41.9"/>
		<line fill="none" stroke="#FFFFFF" stroke-width="0.9929" stroke-miterlimit="3.863" x1="51.5" y1="20" x2="51.5" y2="33.1"/>
		<line fill="none" stroke="#FFFFFF" stroke-width="0.5116" stroke-miterlimit="3.863" x1="47.5" y1="43.7" x2="41" y2="48.4"/>
		<line fill="none" stroke="#FFFFFF" stroke-width="0.5116" stroke-miterlimit="3.863" x1="62.1" y1="33" x2="55.7" y2="37.7"/>
		<line fill="none" stroke="#FFFFFF" stroke-width="0.5116" stroke-miterlimit="3.863" x1="50" y1="45.5" x2="47.5" y2="53.1"/>
		<line fill="none" stroke="#FFFFFF" stroke-width="0.5116" stroke-miterlimit="3.863" x1="55.6" y1="28.2" x2="53.2" y2="35.8"/>
		<line fill="none" stroke="#FFFFFF" stroke-width="0.5116" stroke-miterlimit="3.863" x1="53.1" y1="45.5" x2="55.6" y2="53.1"/>
		<line fill="none" stroke="#FFFFFF" stroke-width="0.5116" stroke-miterlimit="3.863" x1="47.5" y1="28.1" x2="50" y2="35.8"/>
		<line fill="none" stroke="#FFFFFF" stroke-width="0.5116" stroke-miterlimit="3.863" x1="55.6" y1="43.6" x2="62" y2="48.3"/>
		<line fill="none" stroke="#FFFFFF" stroke-width="0.5116" stroke-miterlimit="3.863" x1="40.9" y1="32.9" x2="47.3" y2="37.6"/>
		<line fill="none" stroke="#FFFFFF" stroke-width="0.5116" stroke-miterlimit="3.863" x1="56.5" y1="40.7" x2="64.6" y2="40.7"/>
		<line fill="none" stroke="#FFFFFF" stroke-width="0.5116" stroke-miterlimit="3.863" x1="38.5" y1="40.7" x2="46.5" y2="40.7"/>
		<path fill="none" stroke="#FFFFFF" stroke-width="0.5531" stroke-miterlimit="3.864" d="M64.8,75.8c0.4,0.5,1.1,1.8,1.1,1.8
			c0,0-1.7,0.1-2.3-0.5c-0.1-0.2-1.2-1.9-1.2-1.9S64.5,75.2,64.8,75.8z"/>
		<polygon fill="none" stroke="#FFFFFF" stroke-width="0.5531" stroke-miterlimit="3.864" points="33.4,66.9 30.4,73.9 36.5,73.9 		
			"/>
		<path fill="none" stroke="#FFFFFF" stroke-width="0.5531" stroke-miterlimit="3.864" d="M42.4,73.9c0,1.7,1.4,3,3.1,3
			s3.1-1.3,3.1-3H42.4z"/>
		<polygon fill="none" stroke="#FFFFFF" stroke-width="0.5531" stroke-miterlimit="3.864" points="45.5,66.9 48.5,73.9 42.5,73.9 		
			"/>
		<line fill="none" stroke="#FFFFFF" stroke-width="0.5531" stroke-miterlimit="3.864" x1="38.6" y1="85.4" x2="40.4" y2="84.6"/>
		<line fill="none" stroke="#FFFFFF" stroke-width="0.5531" stroke-miterlimit="3.864" x1="38.5" y1="84.2" x2="40.3" y2="83.4"/>
		<polygon fill="none" stroke="#FFFFFF" stroke-width="0.3549" stroke-miterlimit="3.864" points="39.4,66.8 33.5,66.8 33.5,66.1 
			39.3,66.1 		"/>
		<polygon fill="none" stroke="#FFFFFF" stroke-width="0.3549" stroke-miterlimit="3.864" points="39.5,66.1 45.5,66.1 45.5,66.8 
			39.5,66.8 		"/>
		<path fill="none" stroke="#FFFFFF" stroke-width="0.3549" stroke-miterlimit="3.864" d="M59.6,105.9c0.8,0,1.9-0.8,3.1-0.4"/>
		<path fill="none" stroke="#FFFFFF" stroke-width="0.3549" stroke-miterlimit="3.864" d="M59.6,106.8c0.8,0,1.9-0.8,3.1-0.4"/>
		<path fill="none" stroke="#FFFFFF" stroke-width="0.3549" stroke-miterlimit="3.864" d="M59.6,107.7c0.8,0,1.9-0.8,3.1-0.4"/>
		<path fill="none" stroke="#FFFFFF" stroke-width="0.3549" stroke-miterlimit="3.864" d="M59.5,108.6c0.8,0,1.9-0.7,3.1-0.3"/>
		<path fill="none" stroke="#FFFFFF" stroke-width="0.3549" stroke-miterlimit="3.864" d="M59.5,109.5c0.8,0,1.9-0.7,3.1-0.3"/>
		<path fill="none" stroke="#FFFFFF" stroke-width="0.3549" stroke-miterlimit="3.864" d="M59.5,110.4c0.8,0,1.9-0.7,3.1-0.3"/>
		<path fill="none" stroke="#FFFFFF" stroke-width="0.3549" stroke-miterlimit="3.864" d="M68.2,105.7c-0.8,0-1.9-0.6-3.1-0.2"/>
		<path fill="none" stroke="#FFFFFF" stroke-width="0.3549" stroke-miterlimit="3.864" d="M68.2,106.6c-0.8,0-1.9-0.6-3.1-0.2"/>
		<path fill="none" stroke="#FFFFFF" stroke-width="0.3549" stroke-miterlimit="3.864" d="M68.2,107.6c-0.8,0-1.9-0.6-3.1-0.2"/>
		<path fill="none" stroke="#FFFFFF" stroke-width="0.3549" stroke-miterlimit="3.864" d="M68.2,108.5c-0.8,0-1.9-0.6-3.1-0.2"/>
		<path fill="none" stroke="#FFFFFF" stroke-width="0.3549" stroke-miterlimit="3.864" d="M68.2,109.5c-0.8,0-1.9-0.6-3.1-0.2"/>
		<path fill="none" stroke="#FFFFFF" stroke-width="0.3549" stroke-miterlimit="3.864" d="M68.2,110.4c-0.8,0-1.9-0.6-3.1-0.2"/>
		<polygon fill="none" stroke="#FFFFFF" stroke-width="0.5531" stroke-miterlimit="3.864" points="51.6,86.7 57,96.1 46.1,96.1 		
			"/>
		<path fill="none" stroke="#FFFFFF" stroke-width="0.3832" stroke-miterlimit="3.864" d="M59,113.2l-0.3,0.3
			c-0.2,0.2-0.2,1.7,0,1.8c0.1,0,0.4,0.2,0.5,0.2c0.1,0,0-0.2-0.1-0.3c-0.1-0.4,0-1.4,0.1-1.5l0.4-0.3L59,113.2z"/>
		<polygon fill-rule="evenodd" clip-rule="evenodd" fill="#FFFFFF" points="51,44.7 52,44.7 52,85 51.5,85.6 51.3,85.8 51,85.6 		
			"/>
		<path fill="none" stroke="#FFFFFF" stroke-width="0.3832" stroke-miterlimit="3.864" d="M63.7,114.5l-0.3,0.3
			c-0.2,0.2-0.2,1.7,0,1.8c0,0,0.4,0.2,0.5,0.2c0.1,0,0-0.2-0.1-0.2c-0.1-0.4,0-1.4,0.1-1.5l0.4-0.4L63.7,114.5z"/>
		<path fill="none" stroke="#FFFFFF" stroke-width="0.3832" stroke-miterlimit="3.864" d="M64.8,114.8l-0.3,0.3
			c-0.2,0.2-0.2,1.7,0,1.8c0.1,0,0.4,0.2,0.5,0.2c0.1,0,0-0.2-0.1-0.3c-0.1-0.4,0-1.4,0.1-1.5l0.4-0.4L64.8,114.8z"/>
		<path fill="#FFFFFF" d="M192.6,102.2h6.4v0.3h-2.2v10c0,0.8,0.1,1.5,0.2,2.1c0.1,0.6,0.3,1,0.6,1.4c0.3,0.3,0.6,0.6,1,0.8
			c0.4,0.2,0.9,0.2,1.4,0.2c0.7,0,1.4-0.1,2-0.3c0.6-0.2,1.1-0.6,1.5-1.2c0.1-0.2,0.3-0.4,0.4-0.5c0.1-0.2,0.2-0.4,0.3-0.6
			c0.1-0.2,0.1-0.5,0.2-0.9c0-0.3,0.1-0.8,0.1-1.2v-9.6h-2.2v-0.3h4.7v0.3h-2.2v10c0,0.6-0.1,1.1-0.2,1.6c-0.1,0.5-0.4,1-0.7,1.5
			c-0.4,0.5-0.9,0.9-1.5,1.2c-0.6,0.3-1.5,0.5-2.5,0.5c-1.6,0-2.8-0.4-3.7-1.2c-0.8-0.8-1.3-2.1-1.3-3.7v-9.7h-2.2V102.2z"/>
		<polygon fill="#FFFFFF" points="207.4,116.6 209.7,116.6 209.7,102.5 207.4,102.5 207.4,102.2 211.7,102.2 218.5,113.4 
			218.5,113.4 218.5,102.5 216.3,102.5 216.3,102.2 221,102.2 221,102.5 218.8,102.5 218.8,117.2 218.4,117.2 210,103.3 210,103.3 
			210,116.6 212.2,116.6 212.2,116.9 207.4,116.9 		"/>
		<polygon fill="#FFFFFF" points="221.8,116.6 224,116.6 224,102.5 221.8,102.5 221.8,102.2 228.3,102.2 228.3,102.5 226,102.5 
			226,116.6 228.3,116.6 228.3,116.9 221.8,116.9 		"/>
		<polygon fill="#FFFFFF" points="228.4,102.2 234.5,102.2 234.5,102.5 232.3,102.5 236.8,114.5 241.1,102.5 239,102.5 239,102.2 
			243.3,102.2 243.3,102.5 241.5,102.5 236.1,117.2 235.6,117.2 230.2,102.5 228.4,102.5 		"/>
		<path fill="#FFFFFF" d="M243.3,116.6h2.2v-14.1h-2.2v-0.3h11.4v3.6h-0.2c-0.2-0.5-0.4-1-0.6-1.4c-0.2-0.4-0.4-0.7-0.7-1
			c-0.3-0.3-0.6-0.5-1-0.6c-0.4-0.1-0.9-0.2-1.4-0.2h-3.3v6.4h1.3c0.4,0,0.8,0,1.1-0.1c0.3-0.1,0.6-0.2,0.8-0.5
			c0.2-0.2,0.4-0.5,0.6-0.9c0.2-0.4,0.3-0.9,0.4-1.5h0.2v6.4h-0.2c-0.1-0.4-0.2-0.8-0.3-1.2c-0.1-0.4-0.2-0.7-0.4-1
			c-0.2-0.3-0.4-0.5-0.7-0.7c-0.3-0.2-0.7-0.3-1.2-0.3h-1.6v7.4h3.8c0.7,0,1.3-0.2,1.8-0.5c0.5-0.3,0.9-0.7,1.2-1.2
			c0.3-0.4,0.5-0.9,0.7-1.4c0.1-0.5,0.2-0.9,0.3-1.2h0.2v4.5h-12.2V116.6z"/>
		<path fill="#FFFFFF" d="M257.1,116.6h2.2v-14.1h-2.2v-0.3h3.8c0.2,0,0.3,0,0.5,0c0.2,0,0.3,0,0.5,0c0.2,0,0.3,0,0.5,0
			c0.2,0,0.3,0,0.5,0c0.8,0,1.5,0,2.1,0.1c0.6,0.1,1.2,0.3,1.7,0.8c0.5,0.4,0.8,0.8,1,1.3c0.2,0.5,0.3,0.9,0.3,1.3
			c0,0.2,0,0.5-0.1,0.8c-0.1,0.3-0.2,0.7-0.5,1c-0.2,0.3-0.6,0.6-1.1,0.9c-0.5,0.3-1.1,0.5-1.9,0.6v0c0.2,0,0.5,0.1,0.9,0.2
			c0.4,0.1,0.7,0.2,1.1,0.4c0.4,0.2,0.7,0.4,1.1,0.7c0.3,0.3,0.5,0.7,0.7,1.1c0.1,0.3,0.1,0.6,0.2,0.9c0,0.3,0.1,0.7,0.1,1.1
			c0,0.4,0,0.7,0.1,1.1c0,0.3,0.1,0.6,0.1,0.9c0.1,0.4,0.2,0.7,0.4,1c0.2,0.3,0.5,0.4,0.8,0.4c0.2,0,0.4,0,0.5-0.1
			c0.2-0.1,0.4-0.2,0.5-0.3l0.2,0.2c-0.1,0.1-0.1,0.1-0.2,0.2c-0.1,0.1-0.2,0.1-0.3,0.2c-0.1,0.1-0.3,0.1-0.5,0.1
			c-0.2,0-0.4,0.1-0.7,0.1c-0.5,0-1-0.1-1.3-0.2c-0.4-0.1-0.6-0.3-0.9-0.6c-0.2-0.3-0.4-0.6-0.5-1c-0.1-0.4-0.2-0.8-0.2-1.4
			l-0.1-1.9c-0.1-0.7-0.2-1.2-0.4-1.6c-0.2-0.4-0.5-0.7-0.7-0.8c-0.3-0.2-0.6-0.3-0.9-0.3c-0.3,0-0.6-0.1-0.8-0.1h-2v7.4h2.2v0.3
			h-6.4V116.6z M261.3,108.9h1.8c0.4,0,0.7,0,1-0.1c0.3-0.1,0.6-0.3,0.8-0.5c0.2-0.2,0.4-0.6,0.5-1c0.1-0.4,0.2-0.9,0.2-1.6
			c0-0.7-0.1-1.3-0.3-1.7c-0.2-0.4-0.4-0.8-0.7-1c-0.3-0.2-0.6-0.4-1-0.4c-0.3-0.1-0.7-0.1-1-0.1c-0.2,0-0.5,0-0.7,0
			c-0.2,0-0.5,0-0.6,0.1V108.9z"/>
		<path fill="#FFFFFF" d="M272.2,112.5h0.2c0.1,0.7,0.3,1.4,0.6,1.9c0.2,0.5,0.5,0.9,0.8,1.3c0.3,0.3,0.6,0.6,0.9,0.8
			c0.3,0.2,0.6,0.3,0.9,0.4c0.3,0.1,0.6,0.1,0.9,0.1c0.3,0,0.6,0,0.8,0c0.7,0,1.3-0.1,1.7-0.3c0.5-0.2,0.8-0.5,1.1-0.8
			c0.3-0.3,0.5-0.7,0.6-1.1c0.1-0.4,0.2-0.7,0.2-1.1c0-0.5-0.1-0.9-0.3-1.2c-0.2-0.3-0.4-0.6-0.7-0.9c-0.3-0.2-0.6-0.4-0.9-0.6
			c-0.3-0.2-0.6-0.3-0.9-0.3l-2.3-0.7c-1.1-0.3-1.9-0.8-2.4-1.4c-0.6-0.6-0.8-1.3-0.8-2.3c0-0.6,0.1-1.2,0.3-1.7
			c0.2-0.5,0.5-1,0.9-1.4c0.4-0.4,0.9-0.7,1.4-0.9c0.5-0.2,1.1-0.3,1.8-0.3c0.5,0,0.9,0,1.2,0.1c0.3,0.1,0.6,0.2,0.8,0.3
			c0.2,0.1,0.4,0.2,0.6,0.3c0.2,0.1,0.4,0.1,0.5,0.1c0.2,0,0.3,0,0.3-0.1c0.1,0,0.1-0.2,0.2-0.4h0.3v3.7h-0.2
			c-0.1-0.5-0.2-1-0.4-1.4c-0.2-0.5-0.4-0.9-0.7-1.2c-0.3-0.3-0.7-0.6-1.1-0.8c-0.4-0.2-0.9-0.3-1.5-0.3c-0.3,0-0.7,0-1.1,0.1
			c-0.4,0.1-0.7,0.2-1.1,0.5c-0.3,0.2-0.6,0.5-0.8,0.9c-0.2,0.4-0.3,0.8-0.3,1.4c0,0.4,0.1,0.8,0.3,1.1c0.2,0.3,0.4,0.6,0.7,0.8
			c0.3,0.2,0.6,0.4,0.9,0.5c0.3,0.1,0.7,0.3,1,0.4l2.4,0.8c0.3,0.1,0.6,0.2,1,0.3c0.4,0.1,0.8,0.3,1.1,0.6c0.4,0.3,0.7,0.6,0.9,1.1
			c0.3,0.5,0.4,1,0.4,1.7c0,0.6-0.1,1.3-0.3,1.8c-0.2,0.6-0.6,1.1-1,1.5c-0.4,0.4-1,0.8-1.6,1.1c-0.6,0.3-1.3,0.4-2.1,0.4
			c-0.3,0-0.5,0-0.7,0c-0.2,0-0.4,0-0.6-0.1c-0.2,0-0.4-0.1-0.6-0.1c-0.2,0-0.4-0.1-0.6-0.2c-0.3-0.1-0.6-0.2-0.9-0.3
			c-0.3-0.1-0.6-0.2-0.8-0.2c-0.2,0-0.3,0-0.4,0.1c-0.1,0.1-0.1,0.2-0.2,0.3h-0.3V112.5z"/>
		<polygon fill="#FFFFFF" points="284.3,116.6 286.6,116.6 286.6,102.5 284.3,102.5 284.3,102.2 290.8,102.2 290.8,102.5 
			288.6,102.5 288.6,116.6 290.8,116.6 290.8,116.9 284.3,116.9 		"/>
		<path fill="#FFFFFF" d="M291.7,116.6h2.2v-14.1h-2.2v-0.3h3.7c0.2,0,0.4,0,0.6,0c0.2,0,0.4,0,0.6,0c0.2,0,0.4,0,0.6,0
			c0.2,0,0.4,0,0.6,0c0.4,0,0.8,0,1.1,0c0.3,0,0.6,0,0.9,0.1c0.3,0,0.5,0.1,0.8,0.1c0.2,0.1,0.5,0.1,0.8,0.2
			c0.8,0.3,1.5,0.6,2.1,1.1c0.6,0.5,1.1,1,1.5,1.6c0.4,0.6,0.7,1.3,0.8,2c0.2,0.7,0.3,1.5,0.3,2.2c0,0.9-0.1,1.7-0.3,2.4
			c-0.2,0.7-0.5,1.4-0.9,1.9c-0.4,0.6-0.8,1-1.3,1.4c-0.5,0.4-1,0.7-1.6,1c-0.3,0.2-0.6,0.3-0.9,0.4c-0.3,0.1-0.6,0.1-0.9,0.2
			c-0.3,0-0.6,0.1-1,0.1c-0.4,0-0.8,0-1.2,0c-0.2,0-0.4,0-0.6,0c-0.2,0-0.5,0-0.7,0c-0.2,0-0.5,0-0.7,0c-0.2,0-0.4,0-0.6,0h-3.4
			V116.6z M296,116.6c0.2,0,0.5,0,0.8,0.1c0.3,0,0.6,0,1,0c0.5,0,0.9,0,1.3-0.1c0.4,0,0.9-0.2,1.3-0.3c0.4-0.2,0.8-0.4,1.1-0.7
			c0.4-0.3,0.7-0.7,0.9-1.2c0.4-0.7,0.7-1.5,0.9-2.3c0.2-0.8,0.3-1.6,0.3-2.5c0-1.1-0.1-2.1-0.3-3c-0.2-0.9-0.5-1.6-1-2.3
			c-0.5-0.6-1.1-1.1-1.8-1.5c-0.8-0.3-1.7-0.5-2.8-0.5c-0.3,0-0.6,0-0.9,0c-0.3,0-0.5,0-0.8,0V116.6z"/>
		<path fill="#FFFFFF" d="M306,116.6h1.8l5.4-14.8h0.5l5.4,14.8h1.8v0.3h-6.2v-0.3h2.2l-2.1-5.7h-4.6l-2.1,5.7h2.2v0.3H306V116.6z
			 M312.5,104.6l-2.2,6h4.4L312.5,104.6z"/>
		<path fill="#FFFFFF" d="M321.1,116.6h2.2v-14.1h-2.2v-0.3h3.7c0.2,0,0.4,0,0.6,0c0.2,0,0.4,0,0.6,0c0.2,0,0.4,0,0.6,0
			c0.2,0,0.4,0,0.6,0c0.4,0,0.8,0,1.1,0c0.3,0,0.6,0,0.9,0.1c0.3,0,0.5,0.1,0.8,0.1c0.2,0.1,0.5,0.1,0.8,0.2
			c0.8,0.3,1.5,0.6,2.1,1.1c0.6,0.5,1.1,1,1.5,1.6c0.4,0.6,0.7,1.3,0.8,2c0.2,0.7,0.3,1.5,0.3,2.2c0,0.9-0.1,1.7-0.3,2.4
			c-0.2,0.7-0.5,1.4-0.9,1.9c-0.4,0.6-0.8,1-1.3,1.4c-0.5,0.4-1,0.7-1.6,1c-0.3,0.2-0.6,0.3-0.9,0.4c-0.3,0.1-0.6,0.1-0.9,0.2
			c-0.3,0-0.6,0.1-1,0.1c-0.4,0-0.8,0-1.2,0c-0.2,0-0.4,0-0.6,0c-0.2,0-0.5,0-0.7,0c-0.2,0-0.5,0-0.7,0c-0.2,0-0.4,0-0.6,0h-3.4
			V116.6z M325.4,116.6c0.2,0,0.5,0,0.8,0.1c0.3,0,0.6,0,1,0c0.5,0,0.9,0,1.4-0.1c0.4,0,0.9-0.2,1.3-0.3c0.4-0.2,0.8-0.4,1.1-0.7
			c0.4-0.3,0.7-0.7,0.9-1.2c0.4-0.7,0.7-1.5,0.9-2.3c0.2-0.8,0.2-1.6,0.2-2.5c0-1.1-0.1-2.1-0.3-3c-0.2-0.9-0.5-1.6-1-2.3
			c-0.5-0.6-1.1-1.1-1.8-1.5c-0.8-0.3-1.7-0.5-2.8-0.5c-0.3,0-0.6,0-0.9,0c-0.3,0-0.5,0-0.8,0V116.6z"/>
		<path fill="#FFFFFF" d="M342.4,116.6h2.2v-14.1h-2.2v-0.3h3.7c0.2,0,0.4,0,0.6,0c0.2,0,0.4,0,0.6,0c0.2,0,0.4,0,0.6,0
			c0.2,0,0.4,0,0.6,0c0.4,0,0.8,0,1.1,0c0.3,0,0.6,0,0.9,0.1c0.3,0,0.5,0.1,0.8,0.1c0.2,0.1,0.5,0.1,0.8,0.2
			c0.8,0.3,1.5,0.6,2.1,1.1c0.6,0.5,1.1,1,1.5,1.6c0.4,0.6,0.7,1.3,0.8,2c0.2,0.7,0.3,1.5,0.3,2.2c0,0.9-0.1,1.7-0.3,2.4
			c-0.2,0.7-0.5,1.4-0.9,1.9c-0.4,0.6-0.8,1-1.3,1.4c-0.5,0.4-1,0.7-1.6,1c-0.3,0.2-0.6,0.3-0.9,0.4c-0.3,0.1-0.6,0.1-0.9,0.2
			c-0.3,0-0.6,0.1-1,0.1c-0.4,0-0.8,0-1.2,0c-0.2,0-0.4,0-0.6,0c-0.2,0-0.5,0-0.7,0c-0.2,0-0.5,0-0.7,0c-0.2,0-0.4,0-0.6,0h-3.4
			V116.6z M346.6,116.6c0.2,0,0.5,0,0.8,0.1c0.3,0,0.6,0,1,0c0.5,0,0.9,0,1.4-0.1c0.4,0,0.9-0.2,1.3-0.3c0.4-0.2,0.8-0.4,1.1-0.7
			c0.4-0.3,0.7-0.7,0.9-1.2c0.4-0.7,0.7-1.5,0.9-2.3c0.2-0.8,0.2-1.6,0.2-2.5c0-1.1-0.1-2.1-0.3-3c-0.2-0.9-0.5-1.6-1-2.3
			c-0.5-0.6-1.1-1.1-1.8-1.5c-0.8-0.3-1.7-0.5-2.8-0.5c-0.3,0-0.6,0-0.9,0c-0.3,0-0.5,0-0.8,0V116.6z"/>
		<path fill="#FFFFFF" d="M358.4,116.6h2.2v-14.1h-2.2v-0.3h11.4v3.6h-0.2c-0.2-0.5-0.4-1-0.6-1.4c-0.2-0.4-0.4-0.7-0.7-1
			c-0.3-0.3-0.6-0.5-1-0.6c-0.4-0.1-0.9-0.2-1.4-0.2h-3.3v6.4h1.3c0.4,0,0.8,0,1.1-0.1c0.3-0.1,0.6-0.2,0.8-0.5
			c0.2-0.2,0.4-0.5,0.6-0.9c0.2-0.4,0.3-0.9,0.5-1.5h0.2v6.4h-0.2c-0.1-0.4-0.2-0.8-0.3-1.2c-0.1-0.4-0.2-0.7-0.4-1
			c-0.2-0.3-0.4-0.5-0.7-0.7c-0.3-0.2-0.7-0.3-1.2-0.3h-1.6v7.4h3.8c0.7,0,1.3-0.2,1.8-0.5c0.5-0.3,0.9-0.7,1.2-1.2
			c0.3-0.4,0.5-0.9,0.7-1.4c0.1-0.5,0.2-0.9,0.3-1.2h0.2v4.5h-12.2V116.6z"/>
		<path fill="#FFFFFF" d="M390.2,116.9h-0.3c-0.1-0.1-0.2-0.2-0.3-0.3c-0.1-0.1-0.3-0.1-0.6-0.1c-0.2,0-0.4,0-0.7,0.1
			c-0.2,0.1-0.5,0.2-0.8,0.3c-0.3,0.1-0.6,0.2-1,0.3c-0.4,0.1-0.8,0.1-1.2,0.1c-0.8,0-1.7-0.2-2.4-0.5c-0.8-0.3-1.5-0.8-2.3-1.5
			c-0.7-0.7-1.2-1.5-1.6-2.4c-0.4-0.9-0.7-2-0.7-3.2c0-1,0.2-2,0.5-2.9c0.4-0.9,0.9-1.8,1.5-2.5c0.6-0.7,1.4-1.3,2.3-1.7
			c0.9-0.4,1.8-0.6,2.8-0.6c0.4,0,0.8,0,1.1,0.1c0.3,0.1,0.6,0.2,0.9,0.3c0.3,0.1,0.5,0.2,0.7,0.3c0.2,0.1,0.4,0.1,0.6,0.1
			c0.3,0,0.5,0,0.6-0.1c0.1-0.1,0.2-0.2,0.3-0.3h0.3v4.1h-0.2c-0.1-0.5-0.3-1-0.5-1.5c-0.2-0.5-0.4-1-0.8-1.3
			c-0.3-0.4-0.8-0.7-1.3-0.9c-0.5-0.2-1.1-0.4-1.9-0.4c-0.7,0-1.3,0.1-1.8,0.3c-0.5,0.2-0.9,0.5-1.3,0.9c-0.3,0.4-0.6,0.8-0.8,1.3
			c-0.2,0.5-0.4,1-0.5,1.6c-0.1,0.6-0.2,1.1-0.2,1.7c0,0.6,0,1.1,0,1.6c0,1.4,0.1,2.6,0.3,3.6c0.2,0.9,0.5,1.7,0.9,2.2
			c0.4,0.5,0.9,0.9,1.5,1.2c0.6,0.2,1.2,0.3,1.9,0.3c0.9,0,1.6-0.1,2.2-0.4c0.5-0.3,1-0.6,1.3-1c0.3-0.4,0.6-0.9,0.8-1.4
			c0.2-0.5,0.3-1.1,0.5-1.6h0.2V116.9z"/>
		<polygon fill="#FFFFFF" points="391.6,116.6 393.8,116.6 393.8,102.5 391.6,102.5 391.6,102.2 398,102.2 398,102.5 395.8,102.5 
			395.8,109.2 402.4,109.2 402.4,102.5 400.2,102.5 400.2,102.2 406.6,102.2 406.6,102.5 404.4,102.5 404.4,116.6 406.6,116.6 
			406.6,116.9 400.2,116.9 400.2,116.6 402.4,116.6 402.4,109.5 395.8,109.5 395.8,116.6 398,116.6 398,116.9 391.6,116.9 		"/>
		<polygon fill="#FFFFFF" points="407.6,116.6 409.8,116.6 409.8,102.5 407.6,102.5 407.6,102.2 414,102.2 414,102.5 411.8,102.5 
			411.8,116.6 414,116.6 414,116.9 407.6,116.9 		"/>
		<path fill="#FFFFFF" d="M415,116.6h2.2v-14.1H415v-0.3h6.4v0.3h-2.2v14.1h3.6c1.2,0,2.1-0.4,2.8-1.1c0.7-0.8,1.2-1.8,1.5-3.1h0.2
			v4.5H415V116.6z"/>
		<path fill="#FFFFFF" d="M428.4,116.6h2.2v-14.1h-2.2v-0.3h11.4v3.6h-0.2c-0.2-0.5-0.4-1-0.6-1.4c-0.2-0.4-0.4-0.7-0.7-1
			c-0.3-0.3-0.6-0.5-1-0.6c-0.4-0.1-0.9-0.2-1.4-0.2h-3.3v6.4h1.3c0.4,0,0.8,0,1.1-0.1c0.3-0.1,0.6-0.2,0.8-0.5
			c0.2-0.2,0.4-0.5,0.6-0.9c0.2-0.4,0.3-0.9,0.5-1.5h0.2v6.4h-0.2c-0.1-0.4-0.2-0.8-0.3-1.2c-0.1-0.4-0.2-0.7-0.4-1
			c-0.2-0.3-0.4-0.5-0.7-0.7c-0.3-0.2-0.7-0.3-1.2-0.3h-1.6v7.4h3.8c0.7,0,1.3-0.2,1.8-0.5c0.5-0.3,0.9-0.7,1.2-1.2
			c0.3-0.4,0.5-0.9,0.7-1.4c0.1-0.5,0.2-0.9,0.3-1.2h0.2v4.5h-12.2V116.6z"/>
		<rect x="192.6" y="68.3" fill="#FFFFFF" width="2.7" height="19.9"/>
		<path fill="#FFFFFF" d="M198.8,73.8h2.2v2.3h0.1c1-1.8,2.6-2.6,4.7-2.6c3.8,0,5,2.2,5,5.3v9.5h-2.4v-9.8c0-1.8-1.1-2.9-2.9-2.9
			c-2.9,0-4.3,1.9-4.3,4.5v8.1h-2.4V73.8z"/>
		<path fill="#FFFFFF" d="M226.3,87c0,4.7-2.1,7.1-6.7,7.1c-2.7,0-5.8-1.1-6-4.2h2.4c0.1,1.7,2.2,2.3,3.7,2.3c3.1,0,4.3-2.2,4.3-5.5
			v-0.9H224c-0.8,1.8-2.7,2.6-4.5,2.6c-4.3,0-6.4-3.4-6.4-7.3c0-3.4,1.7-7.6,6.7-7.6c1.8,0,3.4,0.8,4.3,2.4h0v-2.1h2.2V87z
			 M224,80.7c0-2.5-1.1-5.2-4.1-5.2c-3,0-4.3,2.5-4.3,5.2c0,2.6,0.9,5.5,4.1,5.5C222.8,86.3,224,83.4,224,80.7"/>
		<path fill="#FFFFFF" d="M241.8,83.6c-0.6,3.2-2.9,4.9-6.2,4.9c-4.6,0-6.8-3.2-6.9-7.6c0-4.3,2.8-7.5,6.8-7.5
			c5.1,0,6.7,4.8,6.5,8.3h-10.8c-0.1,2.5,1.3,4.7,4.5,4.7c2,0,3.3-0.9,3.7-2.8H241.8z M239.5,79.6c-0.1-2.3-1.8-4.1-4.2-4.1
			c-2.5,0-4,1.9-4.1,4.1H239.5z"/>
		<path fill="#FFFFFF" d="M244.2,73.8h2.2v2.3h0.1c1-1.8,2.6-2.6,4.7-2.6c3.8,0,5,2.2,5,5.3v9.5h-2.4v-9.8c0-1.8-1.1-2.9-2.9-2.9
			c-2.9,0-4.3,1.9-4.3,4.5v8.1h-2.4V73.8z"/>
		<path fill="#FFFFFF" d="M261.7,71.2h-2.4v-2.9h2.4V71.2z M259.4,73.8h2.4v14.4h-2.4V73.8z"/>
		<path fill="#FFFFFF" d="M277.3,83.6c-0.6,3.2-2.9,4.9-6.2,4.9c-4.6,0-6.8-3.2-6.9-7.6c0-4.3,2.8-7.5,6.8-7.5
			c5.1,0,6.7,4.8,6.5,8.3h-10.8c-0.1,2.5,1.3,4.7,4.5,4.7c2,0,3.3-0.9,3.7-2.8H277.3z M275,79.6c-0.1-2.3-1.8-4.1-4.2-4.1
			c-2.5,0-4,1.9-4.1,4.1H275z"/>
		<path fill="#FFFFFF" d="M279.7,73.8h2.2v3h0.1c1.1-2.3,2.7-3.5,5.3-3.4V76c-3.8,0-5.2,2.2-5.2,5.8v6.4h-2.4V73.8z"/>
		<path fill="#FFFFFF" d="M290.8,67.8h3l-3.7,4h-1.8L290.8,67.8z M288.9,73.8h2.4v14.4h-2.4V73.8z"/>
		<path fill="#FFFFFF" d="M307.2,88.2c-0.4,0.3-0.9,0.4-1.7,0.4c-1.2,0-2-0.7-2-2.2c-1.3,1.5-3.1,2.2-5.1,2.2c-2.6,0-4.8-1.2-4.8-4
			c0-3.3,2.4-4,4.9-4.4c2.6-0.5,4.9-0.3,4.9-2.1c0-2.1-1.7-2.4-3.2-2.4c-2,0-3.5,0.6-3.6,2.7h-2.4c0.1-3.6,2.9-4.8,6.1-4.8
			c2.6,0,5.4,0.6,5.4,4v7.4c0,1.1,0,1.6,0.8,1.6c0.2,0,0.4,0,0.7-0.1V88.2z M303.4,80.8c-0.9,0.7-2.7,0.7-4.3,1
			c-1.6,0.3-2.9,0.8-2.9,2.6c0,1.6,1.3,2.1,2.8,2.1c3.1,0,4.4-2,4.4-3.3V80.8z"/>
		<path fill="#FFFFFF" d="M322.8,90.1c-1.1,2.8-2.1,3.9-4.2,3.9c-0.6,0-1.1-0.1-1.6-0.3v-2.2c0.4,0.1,0.9,0.3,1.4,0.3
			c1,0,1.5-0.5,2-1.3l1-2.5l-5.7-14.3h2.7l4.2,11.8h0.1l4-11.8h2.5L322.8,90.1z"/>
		<path fill="#FFFFFF" d="M353.3,74.3c-0.6-2.8-2.8-4.2-5.6-4.2c-4.7,0-6.8,3.9-6.8,8.1c0,4.5,2,8.3,6.8,8.3c3.5,0,5.5-2.5,5.7-5.7
			h2.7c-0.5,5-3.6,8-8.6,8c-6.2,0-9.2-4.6-9.2-10.4c0-5.8,3.3-10.5,9.4-10.5c4.2,0,7.6,2.2,8.2,6.5H353.3z"/>
		<path fill="#FFFFFF" d="M361.1,71.2h-2.4v-2.9h2.4V71.2z M358.7,73.8h2.4v14.4h-2.4V73.8z"/>
		<path fill="#FFFFFF" d="M376.6,83.6c-0.6,3.2-2.9,4.9-6.2,4.9c-4.6,0-6.8-3.2-6.9-7.6c0-4.3,2.8-7.5,6.8-7.5
			c5.1,0,6.7,4.8,6.5,8.3H366c-0.1,2.5,1.3,4.7,4.5,4.7c2,0,3.3-0.9,3.7-2.8H376.6z M374.3,79.6c-0.1-2.3-1.8-4.1-4.2-4.1
			c-2.5,0-4,1.9-4.1,4.1H374.3z"/>
		<path fill="#FFFFFF" d="M379,73.8h2.2v2.3h0.1c1-1.8,2.6-2.6,4.7-2.6c3.8,0,5,2.2,5,5.3v9.5h-2.4v-9.8c0-1.8-1.1-2.9-2.9-2.9
			c-2.9,0-4.3,1.9-4.3,4.5v8.1H379V73.8z"/>
		<path fill="#FFFFFF" d="M404,78.4c-0.4-1.8-1.6-2.9-3.6-2.9c-3.4,0-4.5,2.7-4.5,5.6c0,2.7,1.2,5.3,4.2,5.3c2.3,0,3.7-1.3,4-3.5
			h2.4c-0.5,3.5-2.7,5.6-6.4,5.6c-4.4,0-6.8-3.1-6.8-7.4c0-4.3,2.2-7.7,6.8-7.7c3.3,0,5.9,1.5,6.2,5H404z"/>
		<path fill="#FFFFFF" d="M411.3,71.2h-2.4v-2.9h2.4V71.2z M408.9,73.8h2.4v14.4h-2.4V73.8z"/>
		<path fill="#FFFFFF" d="M427.3,88.2c-0.4,0.3-0.9,0.4-1.7,0.4c-1.2,0-2-0.7-2-2.2c-1.3,1.5-3.1,2.2-5.1,2.2c-2.6,0-4.8-1.2-4.8-4
			c0-3.3,2.4-4,4.9-4.4c2.6-0.5,4.9-0.3,4.9-2.1c0-2.1-1.7-2.4-3.2-2.4c-2,0-3.5,0.6-3.6,2.7h-2.4c0.1-3.6,2.9-4.8,6.1-4.8
			c2.6,0,5.4,0.6,5.4,4v7.4c0,1.1,0,1.6,0.8,1.6c0.2,0,0.4,0,0.7-0.1V88.2z M423.4,80.8c-0.9,0.7-2.7,0.7-4.3,1
			c-1.6,0.3-2.9,0.8-2.9,2.6c0,1.6,1.3,2.1,2.8,2.1c3.1,0,4.4-2,4.4-3.3V80.8z"/>
		<path fill="#FFFFFF" d="M430.7,83.7c0.1,2.1,1.9,2.8,3.9,2.8c1.5,0,3.5-0.3,3.5-2.2c0-1.8-2.3-2.1-4.7-2.7
			c-2.3-0.5-4.7-1.3-4.7-4.1c0-2.9,2.9-4.1,5.4-4.1c3.2,0,5.7,1,5.9,4.5h-2.4c-0.2-1.8-1.8-2.4-3.4-2.4c-1.4,0-3.1,0.4-3.1,1.8
			c0,1.7,2.5,2,4.7,2.5c2.4,0.5,4.7,1.3,4.7,4.1c0,3.4-3.2,4.5-6.1,4.5c-3.2,0-6-1.3-6.1-4.9H430.7z"/>
	</g>
</g>
</svg>
