<?xml version="1.0" encoding="utf-8"?>
<!-- Generator: Adobe Illustrator 22.1.0, SVG Export Plug-In . SVG Version: 6.00 Build 0)  -->
<svg version="1.1" xmlns="http://www.w3.org/2000/svg" xmlns:xlink="http://www.w3.org/1999/xlink" x="0px" y="0px"
	 viewBox="0 0 467.6 147.7" enable-background="new 0 0 467.6 147.7" xml:space="preserve">
<g id="fondo">
</g>
<g id="Capa_1">
	<g>
		<rect x="179.2" y="58.9" fill="#E30613" width="1.8" height="67.2"/>
		<g>
			<path fill="#E00109" d="M85.8,73c-0.4-8.1,4.4-14,12.8-14c6.9,0,12.4,4,12.4,11.4c0,7-4.7,10.5-9.6,13.6c-5,3-10.2,5.5-11.1,10.5
				h20.4v4.2H84.7c0.8-9.4,5.5-12.8,11.1-16.2c6.7-4.1,10.1-6.6,10.1-12.1c0-4.3-3.5-7.2-7.7-7.2c-5.5,0-7.9,5.1-7.7,9.8H85.8z"/>
			<path fill="#E00109" d="M127.2,59c12.4,0,13.2,11.4,13.2,20.2c0,8.7-0.8,20.1-13.2,20.1S114,87.9,114,79.2
				C114,70.4,114.7,59,127.2,59z M127.2,95.1c8.1,0,8.2-10.1,8.2-16c0-5.9-0.1-15.9-8.2-15.9c-8.1,0-8.2,10.1-8.2,15.9
				C119,85,119.1,95.1,127.2,95.1z"/>
			<path fill="#5B6670" d="M154.2,85.9c12.4,0,13.2,11.4,13.2,20.2c0,8.7-0.8,20.1-13.2,20.1S141,114.8,141,106.1
				C141,97.3,141.8,85.9,154.2,85.9z M154.2,122c8.1,0,8.2-10.1,8.2-16c0-5.9-0.1-15.9-8.2-15.9c-8.1,0-8.2,10.1-8.2,15.9
				C146.1,111.9,146.1,122,154.2,122z"/>
			<path fill="#5B6670" d="M122.3,102.8c0.7,0.1,1.4,0.1,2.1,0.1c4,0,7.6-2.2,7.6-6.5c0-4.1-3-6.4-7-6.4c-5.2,0-7.4,4-7.5,8.6h-4.8
				c0.3-7.6,4.3-12.8,12.2-12.8c6.9,0,12.1,3.3,12.1,10.6c0,3.5-2.5,6.5-5.5,7.9v0.1c4.8,1.1,7.2,4.9,7.2,9.6
				c0,7.9-6.2,12.1-13.6,12.1c-8.1,0-13.4-4.8-13.2-12.9h4.8c0.2,5.1,3,8.7,8.4,8.7c4.6,0,8.6-2.9,8.6-7.7c0-5-3.7-7.6-8.4-7.6
				c-1,0-2,0.1-2.9,0.2V102.8z"/>
			<path fill="#E00109" d="M127.2,95.1c-8.1,0-8.2-10.1-8.2-16c0-5.9,0.1-15.9,8.2-15.9h0V59h0C114.7,59,114,70.4,114,79.2
				c0,8.7,0.8,20.1,13.2,20.1h0L127.2,95.1L127.2,95.1z"/>
		</g>
		<g>
			<path fill="none" stroke="#626A70" stroke-width="1.1139" stroke-miterlimit="3.863" d="M75.7,59.5v63.9c0,1.2-1,2.2-2.2,2.2h-20
				c-1.3,0-2.3,2.2-2.3,2.2s-1-2.2-2.4-2.2c0,0-20,0-20,0c-1.2,0-2.2-1-2.2-2.2l0-63.9L75.7,59.5z"/>
			<path fill="none" stroke="#626A70" stroke-width="0.5547" stroke-miterlimit="3.864" d="M58.5,69.7l-2-3.1
				c-2.3,0.5-1.8-1.5-0.5-2.3c1.4-0.9,3-0.6,2,1.4c0,0,0.4,0.7,1.2,1.9C59.2,67.6,58.7,68.5,58.5,69.7z"/>
			<path fill="none" stroke="#626A70" stroke-width="0.5547" stroke-miterlimit="3.864" d="M67.1,80.1l5.3,8.4L72,88.9l-1.9-1.5
				c0,0-0.1-1.2-0.4-1.5c-1-0.9-0.4-1.3-0.8-2.1c-0.4-0.8-2.7-1.4-3.2-2.6c0,0.1-0.9-1.4-0.9-1.4C66.9,79.4,67.1,80.1,67.1,80.1z"/>
			<path fill="none" stroke="#626A70" stroke-width="0.5547" stroke-miterlimit="3.864" d="M60.9,70.1c0,0,1.9,3.1,1.9,3.1
				c-1.2-0.1-1.7-0.5-2-1.1C60.5,71.4,60.7,70.4,60.9,70.1z"/>
			<line fill="none" stroke="#626A70" stroke-width="0.5547" stroke-miterlimit="3.864" x1="32.5" y1="99.9" x2="36.6" y2="110.4"/>
			
				<line fill="none" stroke="#626A70" stroke-width="0.5547" stroke-miterlimit="3.864" x1="32.8" y1="100.2" x2="36.6" y2="107.6"/>
			
				<line fill="none" stroke="#626A70" stroke-width="0.5547" stroke-miterlimit="3.864" x1="33.1" y1="100.3" x2="36.6" y2="105.6"/>
			<line fill="none" stroke="#626A70" stroke-width="0.5547" stroke-miterlimit="3.864" x1="33.3" y1="100.2" x2="36.5" y2="104"/>
			<line fill="none" stroke="#626A70" stroke-width="0.5547" stroke-miterlimit="3.864" x1="33.2" y1="99.8" x2="37.9" y2="104.2"/>
			<line fill="none" stroke="#626A70" stroke-width="0.5547" stroke-miterlimit="3.864" x1="33.2" y1="99.6" x2="39.6" y2="104.4"/>
			<line fill="none" stroke="#626A70" stroke-width="0.5547" stroke-miterlimit="3.864" x1="33.1" y1="99.4" x2="42.5" y2="104.9"/>
			<polygon fill="none" stroke="#626A70" stroke-width="0.5547" stroke-miterlimit="3.864" points="38.2,82.7 38,85.9 39.9,85.9 
				39.8,82.7 			"/>
			<polygon fill="none" stroke="#626A70" stroke-width="0.5547" stroke-miterlimit="3.864" points="39.7,81.8 39,64.4 38.2,81.8 			
				"/>
			
				<rect x="35.8" y="81.8" fill="none" stroke="#626A70" stroke-width="0.5547" stroke-miterlimit="3.864" width="6.4" height="0.9"/>
			<path fill="none" stroke="#626A70" stroke-width="0.5547" stroke-miterlimit="3.864" d="M41,85.9c0,1.3-0.9,2.2-2,2.2
				c-1.1,0-2-0.9-2-2.2H41z"/>
			<path fill="none" stroke="#626A70" stroke-width="0.5547" stroke-miterlimit="3.864" d="M36,73.9c0,1.7-1.4,3-3.1,3
				c-1.7,0-3.1-1.3-3.1-3H36z"/>
			<path fill="none" stroke="#626A70" stroke-width="0.5547" stroke-miterlimit="3.864" d="M61.2,69.5c0,0,0.7,0.9,1.4,0.5
				c1.3-0.8-0.3-5.3-3-3c-0.6,0.5-1.4,2.8-1.3,4.3c0.2,1.5,0.8,3.4,2.5,3.8c1,0.2,3-0.3,3.9,1.1c0.6-0.2,1.3-2.7-0.4-2.8
				c-1.7-0.1-3.2-0.4-3.4-1.1C60.2,70.6,61.2,69.5,61.2,69.5z"/>
			<path fill="none" stroke="#626A70" stroke-width="0.5547" stroke-miterlimit="3.864" d="M62.8,76.5c-0.7,0.3-1.2,1.1-0.9,2
				c0.2,0.9,1.3,1.4,2.8,1.3c0.1,0,0.2,0,0.2,0c1.3-0.1,1.9-0.3,2.4,0.5c0.5-0.6,0.3-1.8-0.3-2.4C65.9,77.1,63.2,78.2,62.8,76.5z"/>
			<path fill="none" stroke="#626A70" stroke-width="0.5547" stroke-miterlimit="3.864" d="M65.8,81.2c-0.2,0.7-0.6,1.7-0.2,2.5
				c0.6,1.2,1.6,0.6,1.9,1.3c0.3,0.7,0,1.8,0.7,2c1.3,0.4,0.9,1.7,1.6,1.7c0.6-0.1,0.6-2.2,0-2.8c-0.9-0.9-0.3-1.5-0.8-2.2
				C68.4,83,66.7,82.7,65.8,81.2z"/>
			<path fill="none" stroke="#626A70" stroke-width="0.3561" stroke-miterlimit="3.864" d="M52,85.7C52,85.6,52,85.6,52,85.7
				c0.1-0.1,0.2,0,0.2,0C52.2,85.7,52.1,85.7,52,85.7C52,85.7,52,85.7,52,85.7z"/>
			<path fill="none" stroke="#626A70" stroke-width="0.3561" stroke-miterlimit="3.864" d="M61.9,67.9c0.1,0,0.3,0,0.3,0.2
				c0.1,0.2,0,0.3-0.1,0.4c-0.1,0-0.3,0-0.3-0.2C61.8,68.2,61.8,68,61.9,67.9z"/>
			
				<ellipse fill="none" stroke="#626A70" stroke-width="0.5547" stroke-miterlimit="3.864" cx="42.1" cy="110.4" rx="4.5" ry="4.6"/>
			<polygon fill="none" stroke="#626A70" stroke-width="0.5547" stroke-miterlimit="3.864" points="46.8,121.5 44.6,121.5 
				44.6,117.3 31.1,117.3 31.1,115.1 46.8,115.1 			"/>
			<path fill="none" stroke="#626A70" stroke-width="0.5547" stroke-miterlimit="3.864" d="M33,110.9c0-0.5,0.4-0.9,0.9-0.9
				c0.5,0,0.9,0.4,0.9,0.9c0,0.5-0.4,0.9-0.9,0.9C33.4,111.8,33,111.4,33,110.9z"/>
			<polyline fill="none" stroke="#626A70" stroke-width="0.5547" stroke-miterlimit="3.864" points="33.1,110.6 31.5,115.1 
				33.9,111.8 			"/>
			<polyline fill="none" stroke="#626A70" stroke-width="0.5547" stroke-miterlimit="3.864" points="34.8,110.6 36.4,115.1 
				34,111.8 			"/>
			<path fill="none" stroke="#626A70" stroke-width="0.5547" stroke-miterlimit="3.864" d="M38.3,108.2c-0.2,1.2,2.1,1.2,1.9,1.9
				c-0.5,1.6,0.5,1.6,0.6,2.4c0,0-0.2,2,0.4,2.2c0.3-0.4,0.1-1.3,0.5-1.7c0.4-0.5,1-0.7,1-1.6c0-0.6-0.9-0.8-1.1-1
				c-0.3-0.2-0.8-0.4-1.1-0.4c0,0-0.9-1.7-0.6-2.1c0.3-0.3,0.8,0.4,1,0.4c0.4,0,0.5-0.8,1.1-0.8c0-0.2,0-0.8-0.2-0.9
				c-0.7,0-1.1,0.3-1.6-0.4C40.1,106.3,38.5,107,38.3,108.2z"/>
			<path fill="none" stroke="#626A70" stroke-width="0.5547" stroke-miterlimit="3.864" d="M43.5,106c-0.5-0.2-1.3-0.1-1.3-0.1
				c0.7,0.3,0.6,1.2,0.9,1.2c0.6,0,0.8-0.5,1.4-0.6C44.6,106.5,44.1,106.2,43.5,106z"/>
			<path fill="none" stroke="#626A70" stroke-width="0.5547" stroke-miterlimit="3.864" d="M46.6,109.5c0-1.1-1.5-2.5-1.5-2.5
				s-0.7,1.4-0.4,2.8c0.4,0,1.4-0.1,1.4-0.1c0.3,0.1,0.2,0.5,0.2,0.8c0,0.6-0.2,2.3-0.2,2.3S46.6,110.6,46.6,109.5z"/>
			<polygon fill="none" stroke="#626A70" stroke-width="0.3561" stroke-miterlimit="3.864" points="32.3,97.4 31.9,98.4 30.8,98.6 
				31.6,99.3 31.4,100.4 32.3,99.8 33.3,100.4 33.1,99.3 33.8,98.6 32.8,98.4 			"/>
			
				<line fill="none" stroke="#626A70" stroke-width="1.1139" stroke-miterlimit="3.863" x1="51.1" y1="100.6" x2="51.1" y2="127.6"/>
			
				<path fill="none" stroke="#626A70" stroke-width="0.5547" stroke-linecap="round" stroke-linejoin="round" stroke-miterlimit="3.864" d="
				M55,113.8l-1.2,1.3c-0.2,0.2-0.1,1.4,0,1.8c0.9,0.4,13.9,4.5,13.9,4.5l5.3-5.8l-0.8-0.4c-0.2-0.4,0.5-1.6,0.5-1.6l-2.6-1"/>
			
				<path fill="none" stroke="#626A70" stroke-width="0.5547" stroke-linecap="round" stroke-linejoin="round" stroke-miterlimit="3.864" d="
				M67.8,118.7c-0.2,0.2-0.2,2.3,0,2.6c0,0,5.3-5.8,5.3-5.8l-0.5-0.5c0-0.5,0.1-1.5,0.1-1.5L67.8,118.7z"/>
			
				<path fill="none" stroke="#626A70" stroke-width="0.5547" stroke-linecap="round" stroke-linejoin="round" stroke-miterlimit="3.864" d="
				M67.3,115.2c-0.2,0.1-0.3,2.9-0.1,3c0,0,4.3-4.9,4.3-4.9l-0.4-0.2L67.3,115.2z"/>
			
				<path fill="none" stroke="#626A70" stroke-width="0.3561" stroke-linecap="round" stroke-linejoin="round" stroke-miterlimit="3.864" d="
				M56.6,111.4l-1.4,1.4c-0.2,0.1,0,1.4,0,1.8c0.5,0.1,12,3.6,12,3.6l4.3-5l-1.4-0.5"/>
			<path fill="none" stroke="#626A70" stroke-width="0.5547" stroke-miterlimit="3.864" d="M69.2,104.2v8.3
				c-1.1-0.3-5.4-0.8-5.8-0.1c-0.4-0.7-3.8-0.4-5.8,0.1v-8c-0.3,1.1-1,1.6-1,1.6v7l6-0.4c0.7,0.4,1.4,0.2,1.7,0l5.8,0.2V105
				C70.1,105,69.5,104.9,69.2,104.2z"/>
			<path fill="none" stroke="#626A70" stroke-width="0.5547" stroke-miterlimit="3.864" d="M69.2,112.5c-1.2,0-4.9-1-5.8-0.1
				c0.8,0,0.8,0.5,0,0.5c-0.9-0.1-0.7-0.6,0-0.5c-0.7-1-5.8,0.2-5.8,0.2l0-8.1c1.4,0,2.9-0.7,3.9-0.7c1,0,2,0.4,2,0.4
				s1.6-0.6,2.7-0.6c1.3,0,2,1.1,3,0.7C69.1,104.8,69.2,112.5,69.2,112.5z"/>
			
				<line fill="none" stroke="#626A70" stroke-width="0.3561" stroke-miterlimit="3.864" x1="63.4" y1="104.2" x2="63.4" y2="112.3"/>
			<path fill="none" stroke="#626A70" stroke-width="0.3849" stroke-miterlimit="3.864" d="M57.4,115.3l-0.4,0.4
				c-0.2,0.2-0.2,2.1,0,2.1c0,0,0.9,0.3,0.5,0.1c-0.1-0.6-0.1-1.9,0.1-2l0.5-0.5L57.4,115.3z"/>
			<path fill="none" stroke="#626A70" stroke-width="0.3849" stroke-miterlimit="3.864" d="M58.9,115.7l-0.4,0.4
				c-0.2,0.2-0.3,2.1-0.1,2.2c0,0,1,0.2,0.6,0c-0.1-0.6-0.1-1.9,0.1-2l0.4-0.4L58.9,115.7z"/>
			<path fill="none" stroke="#626A70" stroke-width="0.3849" stroke-miterlimit="3.864" d="M62.6,116.8l-0.5,0.5
				c-0.2,0.2-0.3,2-0.1,2.1c0,0,1,0.3,0.6,0.1c-0.1-0.6-0.1-1.9,0.1-2l0.5-0.5L62.6,116.8z"/>
			<path fill="none" stroke="#626A70" stroke-width="0.3849" stroke-miterlimit="3.864" d="M64,117.2l-0.5,0.5
				c-0.2,0.2-0.3,2-0.1,2.1c0,0,1,0.3,0.6,0.1c-0.1-0.6-0.1-1.9,0.1-2l0.5-0.5L64,117.2z"/>
			<path fill="none" stroke="#626A70" stroke-width="0.3849" stroke-miterlimit="3.864" d="M57.4,113l-0.3,0.3
				c-0.2,0.2-0.2,1.7,0,1.8c0,0,0.4,0.2,0.5,0.2c0.1,0,0-0.2-0.1-0.2c-0.1-0.4,0-1.4,0.1-1.5l0.4-0.4L57.4,113z"/>
			<path fill="none" stroke="#626A70" stroke-width="0.5547" stroke-miterlimit="3.864" d="M63.5,104.1c-1.6,0-2-1.3-2-1.3l0.6,0
				c0,0-0.8-0.5-0.6-0.9c0,0,0.5,0.1,0.5,0.1s-0.2-0.6,0-1l0.5,0.2c0.1-0.8,1-1,1-1s0.8,0.1,1,1l0.5-0.2c0.2,0.4,0,1,0,1
				s0.5-0.1,0.5-0.1c0.2,0.5-0.6,0.9-0.6,0.9l0.6,0C65.6,102.9,65,104.1,63.5,104.1z"/>
			<line fill="none" stroke="#626A70" stroke-width="1.1139" stroke-miterlimit="3.863" x1="26.5" y1="93" x2="43.5" y2="93"/>
			<line fill="none" stroke="#626A70" stroke-width="1.0729" stroke-miterlimit="3.864" x1="58.8" y1="93" x2="75.6" y2="93"/>
			<polygon fill="none" stroke="#FFFFFF" stroke-width="0.5547" stroke-miterlimit="3.864" points="51.1,86.7 56.5,96.2 45.7,96.2 
							"/>
			<path fill="none" stroke="#626A70" stroke-width="0.5547" stroke-miterlimit="3.864" d="M51.1,91.4c2,0,3.7,1.6,3.6,1.9
				c0,0.2-1.7,1.9-3.6,1.9c-2,0-3.7-1.6-3.6-1.9C47.4,93,49.1,91.3,51.1,91.4z"/>
			<path fill="none" stroke="#626A70" stroke-width="0.5547" stroke-miterlimit="3.864" d="M49.3,93.2c0-1,0.8-1.8,1.8-1.8
				c1,0,1.8,0.8,1.8,1.8c0,1-0.8,1.8-1.8,1.8C50.1,95.1,49.3,94.3,49.3,93.2z"/>
			<path fill="#626A70" d="M50.9,93.2c0-0.1,0.1-0.2,0.2-0.2c0.1,0,0.2,0.1,0.2,0.2c0,0.1-0.1,0.2-0.2,0.2
				C51,93.5,50.9,93.4,50.9,93.2"/>
			<path fill="none" stroke="#626A70" stroke-width="0.3561" stroke-miterlimit="3.864" d="M50.9,93.2c0-0.1,0.1-0.2,0.2-0.2
				c0.1,0,0.2,0.1,0.2,0.2c0,0.1-0.1,0.2-0.2,0.2C51,93.5,50.9,93.4,50.9,93.2z"/>
			<path fill="none" stroke="#626A70" stroke-width="0.5547" stroke-miterlimit="3.864" d="M51.1,86.5c-3.6,0-6.5,2.9-6.5,6.5
				c0,3.6,2.9,6.5,6.5,6.5c3.6,0,6.5-2.9,6.5-6.5c0-3.2-2.3-5.9-5.4-6.4C51,86.7,51,86.2,50.9,86c-0.1-0.6,0.7-0.9,1.2-0.9
				c0.9,0,0.9,0.6,1.4,0.7c3,1,5.2,3.9,5.2,7.3c0,4.2-3.4,7.7-7.6,7.7c-4.2,0-7.6-3.4-7.6-7.7c0-4.2,3.2-7.5,7.4-7.2
				C50.8,86.1,51.1,86.5,51.1,86.5z"/>
			<polygon fill="none" stroke="#626A70" stroke-width="0.9957" stroke-miterlimit="3.863" points="51.1,32.6 48.8,37.3 43.5,38 
				47.3,41.8 46.5,46.9 51.1,44.6 55.7,46.9 54.8,41.8 58.5,38.2 53.5,37.3 			"/>
			<line fill="none" stroke="#626A70" stroke-width="0.5137" stroke-miterlimit="3.863" x1="51.1" y1="32.7" x2="51.1" y2="44.6"/>
			<line fill="none" stroke="#626A70" stroke-width="0.5137" stroke-miterlimit="3.863" x1="43.7" y1="38.2" x2="54.8" y2="41.8"/>
			<line fill="none" stroke="#626A70" stroke-width="0.5137" stroke-miterlimit="3.863" x1="46.5" y1="46.9" x2="53.5" y2="37.3"/>
			<line fill="none" stroke="#626A70" stroke-width="0.5137" stroke-miterlimit="3.863" x1="55.7" y1="46.9" x2="48.8" y2="37.3"/>
			<line fill="none" stroke="#626A70" stroke-width="0.5137" stroke-miterlimit="3.863" x1="58.5" y1="38.2" x2="47.3" y2="41.8"/>
			<line fill="none" stroke="#626A70" stroke-width="0.9957" stroke-miterlimit="3.863" x1="47.2" y1="41.9" x2="31.5" y2="47.1"/>
			<line fill="none" stroke="#626A70" stroke-width="0.9957" stroke-miterlimit="3.863" x1="70.7" y1="34.1" x2="58.5" y2="38.1"/>
			<line fill="none" stroke="#626A70" stroke-width="0.9957" stroke-miterlimit="3.863" x1="48.8" y1="37.3" x2="39" y2="23.8"/>
			<line fill="none" stroke="#626A70" stroke-width="0.9957" stroke-miterlimit="3.863" x1="64.7" y1="59.5" x2="55.6" y2="46.9"/>
			<line fill="none" stroke="#626A70" stroke-width="0.9957" stroke-miterlimit="3.863" x1="53.5" y1="37.3" x2="63.2" y2="23.8"/>
			<line fill="none" stroke="#626A70" stroke-width="0.9957" stroke-miterlimit="3.863" x1="37.3" y1="59.5" x2="46.5" y2="46.9"/>
			<line fill="none" stroke="#626A70" stroke-width="0.9957" stroke-miterlimit="3.863" x1="43.6" y1="38.1" x2="31.5" y2="34.1"/>
			<line fill="none" stroke="#626A70" stroke-width="0.9957" stroke-miterlimit="3.863" x1="70.6" y1="47.1" x2="54.9" y2="41.8"/>
			<line fill="none" stroke="#626A70" stroke-width="0.9957" stroke-miterlimit="3.863" x1="51.1" y1="19.8" x2="51.1" y2="33"/>
			<line fill="none" stroke="#626A70" stroke-width="0.5137" stroke-miterlimit="3.863" x1="47" y1="43.7" x2="40.5" y2="48.4"/>
			<line fill="none" stroke="#626A70" stroke-width="0.5137" stroke-miterlimit="3.863" x1="61.7" y1="32.9" x2="55.3" y2="37.6"/>
			<line fill="none" stroke="#626A70" stroke-width="0.5137" stroke-miterlimit="3.863" x1="49.6" y1="45.4" x2="47.1" y2="53.1"/>
			<line fill="none" stroke="#626A70" stroke-width="0.5137" stroke-miterlimit="3.863" x1="55.2" y1="28.1" x2="52.7" y2="35.7"/>
			<line fill="none" stroke="#626A70" stroke-width="0.5137" stroke-miterlimit="3.863" x1="52.7" y1="45.4" x2="55.1" y2="53"/>
			<line fill="none" stroke="#626A70" stroke-width="0.5137" stroke-miterlimit="3.863" x1="47" y1="28" x2="49.5" y2="35.8"/>
			<line fill="none" stroke="#626A70" stroke-width="0.5137" stroke-miterlimit="3.863" x1="55.1" y1="43.6" x2="61.6" y2="48.3"/>
			<line fill="none" stroke="#626A70" stroke-width="0.5137" stroke-miterlimit="3.863" x1="40.4" y1="32.8" x2="46.8" y2="37.5"/>
			<line fill="none" stroke="#626A70" stroke-width="0.5137" stroke-miterlimit="3.863" x1="56.1" y1="40.6" x2="64.2" y2="40.6"/>
			<line fill="none" stroke="#626A70" stroke-width="0.5137" stroke-miterlimit="3.863" x1="38" y1="40.6" x2="46" y2="40.6"/>
			<path fill="none" stroke="#626A70" stroke-width="0.5547" stroke-miterlimit="3.864" d="M64.4,75.8c0.4,0.5,1.1,1.8,1.1,1.8
				c0,0-1.7,0.1-2.3-0.5C63,76.9,62,75.2,62,75.2S64.1,75.2,64.4,75.8z"/>
			<polygon fill="none" stroke="#626A70" stroke-width="0.5547" stroke-miterlimit="3.864" points="33,66.9 29.9,73.9 36,73.9 			
				"/>
			<path fill="none" stroke="#626A70" stroke-width="0.5547" stroke-miterlimit="3.864" d="M42,73.9c0,1.7,1.4,3,3.1,3
				c1.7,0,3.1-1.3,3.1-3H42z"/>
			<polygon fill="none" stroke="#626A70" stroke-width="0.5547" stroke-miterlimit="3.864" points="45,66.9 48.1,73.9 42,73.9 			
				"/>
			<line fill="none" stroke="#626A70" stroke-width="0.5547" stroke-miterlimit="3.864" x1="38.1" y1="85.4" x2="39.9" y2="84.6"/>
			<line fill="none" stroke="#626A70" stroke-width="0.5547" stroke-miterlimit="3.864" x1="38" y1="84.3" x2="39.8" y2="83.4"/>
			<polygon fill="none" stroke="#626A70" stroke-width="0.3561" stroke-miterlimit="3.864" points="38.9,66.8 33,66.8 33,66.1 
				38.9,66.1 			"/>
			<polygon fill="none" stroke="#626A70" stroke-width="0.3561" stroke-miterlimit="3.864" points="39,66.1 45,66.1 45,66.8 
				39.1,66.8 			"/>
			<path fill="none" stroke="#626A70" stroke-width="0.3561" stroke-miterlimit="3.864" d="M59.1,106c0.8,0,1.9-0.8,3.1-0.4"/>
			<path fill="none" stroke="#626A70" stroke-width="0.3561" stroke-miterlimit="3.864" d="M59.1,106.9c0.8,0,1.9-0.8,3.1-0.4"/>
			<path fill="none" stroke="#626A70" stroke-width="0.3561" stroke-miterlimit="3.864" d="M59.1,107.8c0.8,0,1.9-0.8,3.1-0.4"/>
			<path fill="none" stroke="#626A70" stroke-width="0.3561" stroke-miterlimit="3.864" d="M59.1,108.7c0.8,0,1.9-0.7,3.1-0.3"/>
			<path fill="none" stroke="#626A70" stroke-width="0.3561" stroke-miterlimit="3.864" d="M59.1,109.6c0.8,0,1.9-0.7,3.1-0.3"/>
			<path fill="none" stroke="#626A70" stroke-width="0.3561" stroke-miterlimit="3.864" d="M59.1,110.5c0.8,0,1.9-0.7,3.1-0.3"/>
			<path fill="none" stroke="#626A70" stroke-width="0.3561" stroke-miterlimit="3.864" d="M67.8,105.7c-0.8,0-1.9-0.6-3.1-0.2"/>
			<path fill="none" stroke="#626A70" stroke-width="0.3561" stroke-miterlimit="3.864" d="M67.8,106.7c-0.8,0-1.9-0.6-3.1-0.2"/>
			<path fill="none" stroke="#626A70" stroke-width="0.3561" stroke-miterlimit="3.864" d="M67.8,107.6c-0.8,0-1.9-0.6-3.1-0.2"/>
			<path fill="none" stroke="#626A70" stroke-width="0.3561" stroke-miterlimit="3.864" d="M67.8,108.6c-0.8,0-1.9-0.6-3.1-0.2"/>
			<path fill="none" stroke="#626A70" stroke-width="0.3561" stroke-miterlimit="3.864" d="M67.8,109.5c-0.8,0-1.9-0.6-3.1-0.2"/>
			<path fill="none" stroke="#626A70" stroke-width="0.3561" stroke-miterlimit="3.864" d="M67.8,110.5c-0.8,0-1.9-0.6-3.1-0.2"/>
			<polygon fill="none" stroke="#626A70" stroke-width="0.5547" stroke-miterlimit="3.864" points="51.1,86.7 56.5,96.2 45.7,96.2 
							"/>
			<path fill="none" stroke="#626A70" stroke-width="0.3849" stroke-miterlimit="3.864" d="M58.6,113.3l-0.3,0.3
				c-0.2,0.2-0.2,1.7,0,1.8c0.1,0,0.4,0.2,0.5,0.2c0.1,0,0-0.2-0.1-0.3c-0.1-0.4,0-1.4,0.1-1.5l0.4-0.4L58.6,113.3z"/>
			<polyline fill-rule="evenodd" clip-rule="evenodd" fill="#626A70" points="50.6,44.6 51.5,44.6 51.5,85 51.1,85.6 50.9,85.9 
				50.6,85.6 50.6,44.6 			"/>
			<path fill="none" stroke="#626A70" stroke-width="0.3849" stroke-miterlimit="3.864" d="M63.3,114.6l-0.3,0.3
				c-0.2,0.2-0.2,1.7,0,1.8c0,0,0.4,0.2,0.5,0.2c0.1,0,0-0.2-0.1-0.2c-0.1-0.4,0-1.4,0.1-1.5l0.4-0.4L63.3,114.6z"/>
			<path fill="none" stroke="#626A70" stroke-width="0.3849" stroke-miterlimit="3.864" d="M64.4,114.9l-0.3,0.3
				c-0.2,0.2-0.2,1.7,0,1.8c0.1,0,0.4,0.2,0.5,0.2c0.1,0,0-0.2-0.1-0.3c-0.1-0.4,0-1.4,0.1-1.5l0.4-0.4L64.4,114.9z"/>
		</g>
		<g>
			<g>
				<g>
					<path fill="#004E97" d="M192.5,102.3h6.5v0.3h-2.2v10c0,0.8,0.1,1.5,0.2,2.1c0.1,0.6,0.3,1,0.6,1.4c0.3,0.4,0.6,0.6,1,0.8
						c0.4,0.2,0.9,0.2,1.4,0.2c0.7,0,1.4-0.1,2-0.3c0.6-0.2,1.1-0.6,1.5-1.2c0.1-0.2,0.2-0.4,0.4-0.5c0.1-0.2,0.2-0.4,0.3-0.6
						c0.1-0.2,0.1-0.5,0.2-0.9c0-0.3,0.1-0.8,0.1-1.2v-9.6h-2.2v-0.3h4.7v0.3h-2.2v10c0,0.6-0.1,1.1-0.2,1.6c-0.1,0.5-0.4,1-0.7,1.5
						c-0.4,0.5-0.9,0.9-1.5,1.2c-0.6,0.3-1.5,0.5-2.5,0.5c-1.6,0-2.8-0.4-3.7-1.2c-0.8-0.8-1.3-2.1-1.3-3.7v-9.8h-2.2V102.3z"/>
				</g>
				<g>
					<path fill="#004E97" d="M207.4,116.7h2.2v-14.1h-2.2v-0.3h4.3l6.8,11.3h0v-11h-2.2v-0.3h4.7v0.3h-2.2v14.7h-0.4l-8.4-13.9h0
						v13.3h2.2v0.3h-4.7V116.7z"/>
				</g>
				<g>
					<path fill="#004E97" d="M221.8,116.7h2.2v-14.1h-2.2v-0.3h6.5v0.3H226v14.1h2.2v0.3h-6.5V116.7z"/>
				</g>
				<g>
					<path fill="#004E97" d="M228.4,102.3h6.2v0.3h-2.2l4.4,12l4.4-12H239v-0.3h4.3v0.3h-1.8l-5.4,14.7h-0.5l-5.4-14.7h-1.8V102.3z"
						/>
				</g>
				<g>
					<path fill="#004E97" d="M243.4,116.7h2.2v-14.1h-2.2v-0.3h11.5v3.6h-0.2c-0.2-0.5-0.4-1-0.6-1.4c-0.2-0.4-0.4-0.8-0.7-1
						c-0.3-0.3-0.6-0.5-1-0.6c-0.4-0.1-0.9-0.2-1.4-0.2h-3.3v6.4h1.3c0.4,0,0.8,0,1.1-0.1c0.3-0.1,0.6-0.2,0.8-0.5
						c0.2-0.2,0.4-0.5,0.6-0.9c0.2-0.4,0.3-0.9,0.4-1.5h0.2v6.4h-0.2c-0.1-0.4-0.2-0.8-0.3-1.2c-0.1-0.4-0.2-0.7-0.4-1
						c-0.2-0.3-0.4-0.5-0.7-0.7c-0.3-0.2-0.7-0.3-1.2-0.3h-1.6v7.5h3.8c0.7,0,1.3-0.2,1.8-0.5c0.5-0.3,0.9-0.7,1.2-1.2
						c0.3-0.4,0.5-0.9,0.7-1.4c0.1-0.5,0.2-0.9,0.3-1.2h0.2v4.5h-12.2V116.7z"/>
				</g>
				<g>
					<path fill="#004E97" d="M257.2,116.7h2.2v-14.1h-2.2v-0.3h3.8c0.2,0,0.3,0,0.5,0c0.2,0,0.3,0,0.5,0c0.2,0,0.3,0,0.5,0
						c0.2,0,0.3,0,0.5,0c0.8,0,1.5,0,2.1,0.1c0.6,0.1,1.2,0.3,1.7,0.8c0.5,0.4,0.8,0.8,1,1.3c0.2,0.5,0.3,0.9,0.3,1.3
						c0,0.2,0,0.5-0.1,0.8c-0.1,0.3-0.2,0.7-0.5,1c-0.2,0.3-0.6,0.6-1.1,0.9c-0.5,0.3-1.1,0.5-1.9,0.6v0c0.2,0,0.5,0.1,0.9,0.2
						c0.4,0.1,0.7,0.2,1.1,0.4c0.4,0.2,0.7,0.4,1.1,0.7c0.3,0.3,0.5,0.7,0.7,1.1c0.1,0.3,0.1,0.6,0.2,0.9c0,0.4,0.1,0.7,0.1,1.1
						c0,0.4,0,0.7,0.1,1.1c0,0.3,0.1,0.6,0.1,0.9c0.1,0.4,0.2,0.7,0.4,1c0.2,0.3,0.5,0.4,0.8,0.4c0.2,0,0.4,0,0.5-0.1
						c0.2-0.1,0.4-0.2,0.5-0.3l0.2,0.2c-0.1,0.1-0.1,0.1-0.2,0.2c-0.1,0.1-0.2,0.1-0.3,0.2c-0.1,0.1-0.3,0.1-0.5,0.1
						c-0.2,0-0.4,0.1-0.7,0.1c-0.5,0-1-0.1-1.3-0.2c-0.4-0.1-0.6-0.3-0.9-0.6c-0.2-0.3-0.4-0.6-0.5-1c-0.1-0.4-0.2-0.8-0.2-1.4
						l-0.1-1.9c-0.1-0.7-0.2-1.2-0.4-1.6c-0.2-0.4-0.5-0.7-0.8-0.8c-0.3-0.2-0.6-0.3-0.9-0.3c-0.3,0-0.6-0.1-0.8-0.1h-2v7.5h2.2v0.3
						h-6.5V116.7z M261.4,109h1.8c0.4,0,0.7,0,1-0.1c0.3-0.1,0.6-0.3,0.8-0.5c0.2-0.2,0.4-0.6,0.5-1c0.1-0.4,0.2-0.9,0.2-1.6
						c0-0.7-0.1-1.3-0.3-1.7c-0.2-0.4-0.4-0.8-0.7-1c-0.3-0.2-0.6-0.4-1-0.4c-0.4-0.1-0.7-0.1-1.1-0.1c-0.2,0-0.5,0-0.7,0
						c-0.2,0-0.5,0-0.6,0.1V109z"/>
				</g>
				<g>
					<path fill="#004E97" d="M272.2,112.6h0.2c0.1,0.7,0.3,1.4,0.6,1.9c0.2,0.5,0.5,0.9,0.8,1.3c0.3,0.3,0.6,0.6,0.9,0.8
						c0.3,0.2,0.6,0.3,0.9,0.4c0.3,0.1,0.6,0.1,0.9,0.1c0.3,0,0.6,0,0.8,0c0.7,0,1.3-0.1,1.7-0.3c0.5-0.2,0.8-0.5,1.1-0.8
						c0.3-0.3,0.5-0.7,0.6-1.1c0.1-0.4,0.2-0.8,0.2-1.1c0-0.5-0.1-0.9-0.3-1.2c-0.2-0.3-0.4-0.6-0.7-0.9c-0.3-0.2-0.6-0.4-0.9-0.6
						c-0.3-0.2-0.6-0.3-0.9-0.4l-2.3-0.7c-1.1-0.3-1.9-0.8-2.5-1.4c-0.6-0.6-0.8-1.3-0.8-2.3c0-0.6,0.1-1.2,0.3-1.7
						c0.2-0.5,0.5-1,0.9-1.4c0.4-0.4,0.9-0.7,1.4-0.9c0.5-0.2,1.1-0.3,1.8-0.3c0.5,0,0.9,0,1.2,0.1c0.3,0.1,0.6,0.2,0.8,0.3
						c0.2,0.1,0.4,0.2,0.6,0.3c0.2,0.1,0.4,0.1,0.6,0.1c0.2,0,0.3,0,0.4-0.1c0.1,0,0.1-0.2,0.2-0.4h0.3v3.7h-0.2
						c-0.1-0.5-0.2-1-0.4-1.4c-0.2-0.5-0.4-0.9-0.8-1.2c-0.3-0.4-0.7-0.6-1.1-0.8c-0.4-0.2-0.9-0.3-1.5-0.3c-0.3,0-0.7,0-1.1,0.1
						c-0.4,0.1-0.7,0.2-1.1,0.5c-0.3,0.2-0.6,0.5-0.8,0.9c-0.2,0.4-0.3,0.8-0.3,1.4c0,0.4,0.1,0.8,0.3,1.1c0.2,0.3,0.4,0.6,0.7,0.8
						c0.3,0.2,0.6,0.4,0.9,0.5c0.3,0.1,0.7,0.3,1,0.4l2.4,0.8c0.3,0.1,0.6,0.2,1,0.3c0.4,0.1,0.8,0.3,1.1,0.6
						c0.4,0.3,0.7,0.6,0.9,1.1c0.3,0.5,0.4,1,0.4,1.7c0,0.6-0.1,1.3-0.3,1.8c-0.2,0.6-0.6,1.1-1,1.5c-0.4,0.4-1,0.8-1.6,1.1
						c-0.6,0.3-1.3,0.4-2.1,0.4c-0.3,0-0.5,0-0.7,0c-0.2,0-0.4,0-0.6-0.1c-0.2,0-0.4-0.1-0.6-0.1c-0.2,0-0.4-0.1-0.6-0.2
						c-0.3-0.1-0.6-0.2-0.9-0.3c-0.3-0.1-0.6-0.2-0.8-0.2c-0.2,0-0.3,0-0.4,0.1c-0.1,0.1-0.1,0.2-0.2,0.3h-0.3V112.6z"/>
				</g>
				<g>
					<path fill="#004E97" d="M284.5,116.7h2.2v-14.1h-2.2v-0.3h6.5v0.3h-2.2v14.1h2.2v0.3h-6.5V116.7z"/>
				</g>
				<g>
					<path fill="#004E97" d="M291.9,116.7h2.2v-14.1h-2.2v-0.3h3.7c0.2,0,0.4,0,0.6,0c0.2,0,0.4,0,0.6,0c0.2,0,0.4,0,0.6,0
						c0.2,0,0.4,0,0.6,0c0.4,0,0.8,0,1.1,0c0.3,0,0.6,0,0.9,0.1c0.3,0,0.5,0.1,0.8,0.1c0.2,0.1,0.5,0.1,0.8,0.2
						c0.8,0.3,1.5,0.6,2.1,1.1c0.6,0.5,1.1,1,1.5,1.6c0.4,0.6,0.7,1.3,0.8,2c0.2,0.7,0.3,1.5,0.3,2.3c0,0.9-0.1,1.7-0.3,2.4
						c-0.2,0.7-0.5,1.4-0.9,1.9c-0.4,0.6-0.8,1-1.3,1.4c-0.5,0.4-1,0.7-1.6,1c-0.3,0.2-0.6,0.3-0.9,0.4c-0.3,0.1-0.6,0.1-0.9,0.2
						c-0.3,0-0.6,0.1-1,0.1c-0.4,0-0.8,0-1.2,0c-0.2,0-0.4,0-0.6,0c-0.2,0-0.5,0-0.7,0c-0.2,0-0.5,0-0.7,0c-0.2,0-0.4,0-0.6,0h-3.4
						V116.7z M296.1,116.7c0.2,0,0.5,0,0.8,0.1c0.3,0,0.6,0,1,0c0.5,0,0.9,0,1.4-0.1c0.4,0,0.9-0.2,1.3-0.3c0.4-0.2,0.8-0.4,1.1-0.7
						c0.4-0.3,0.7-0.7,1-1.2c0.4-0.7,0.7-1.5,0.9-2.3c0.2-0.8,0.3-1.6,0.3-2.6c0-1.1-0.1-2.1-0.3-3c-0.2-0.9-0.5-1.6-1-2.3
						c-0.5-0.6-1.1-1.1-1.8-1.5c-0.8-0.3-1.7-0.5-2.8-0.5c-0.3,0-0.6,0-0.9,0c-0.3,0-0.5,0-0.8,0V116.7z"/>
				</g>
				<g>
					<path fill="#004E97" d="M306.2,116.7h1.8l5.4-14.8h0.5l5.5,14.8h1.8v0.3h-6.2v-0.3h2.2L315,111h-4.7l-2.1,5.7h2.2v0.3h-4.3
						V116.7z M312.7,104.7l-2.2,6h4.4L312.7,104.7z"/>
				</g>
				<g>
					<path fill="#004E97" d="M321.4,116.7h2.2v-14.1h-2.2v-0.3h3.7c0.2,0,0.4,0,0.6,0c0.2,0,0.4,0,0.6,0c0.2,0,0.4,0,0.6,0
						c0.2,0,0.4,0,0.6,0c0.4,0,0.8,0,1.1,0c0.3,0,0.6,0,0.9,0.1c0.3,0,0.5,0.1,0.8,0.1c0.2,0.1,0.5,0.1,0.8,0.2
						c0.8,0.3,1.5,0.6,2.1,1.1c0.6,0.5,1.1,1,1.5,1.6c0.4,0.6,0.7,1.3,0.8,2c0.2,0.7,0.3,1.5,0.3,2.3c0,0.9-0.1,1.7-0.3,2.4
						c-0.2,0.7-0.5,1.4-0.9,1.9c-0.4,0.6-0.8,1-1.3,1.4c-0.5,0.4-1,0.7-1.6,1c-0.3,0.2-0.6,0.3-0.9,0.4c-0.3,0.1-0.6,0.1-0.9,0.2
						c-0.3,0-0.6,0.1-1,0.1c-0.4,0-0.8,0-1.2,0c-0.2,0-0.4,0-0.6,0c-0.2,0-0.5,0-0.7,0c-0.2,0-0.5,0-0.7,0c-0.2,0-0.4,0-0.6,0h-3.4
						V116.7z M325.6,116.7c0.2,0,0.5,0,0.8,0.1c0.3,0,0.6,0,1,0c0.5,0,0.9,0,1.4-0.1c0.4,0,0.9-0.2,1.3-0.3c0.4-0.2,0.8-0.4,1.1-0.7
						c0.4-0.3,0.7-0.7,0.9-1.2c0.4-0.7,0.7-1.5,0.9-2.3c0.2-0.8,0.2-1.6,0.2-2.6c0-1.1-0.1-2.1-0.3-3c-0.2-0.9-0.5-1.6-1-2.3
						c-0.5-0.6-1.1-1.1-1.8-1.5c-0.8-0.3-1.7-0.5-2.8-0.5c-0.3,0-0.6,0-0.9,0c-0.3,0-0.5,0-0.8,0V116.7z"/>
				</g>
				<g>
					<path fill="#004E97" d="M342.7,116.7h2.2v-14.1h-2.2v-0.3h3.7c0.2,0,0.4,0,0.6,0c0.2,0,0.4,0,0.6,0c0.2,0,0.4,0,0.6,0
						c0.2,0,0.4,0,0.6,0c0.4,0,0.8,0,1.1,0c0.3,0,0.6,0,0.9,0.1c0.3,0,0.5,0.1,0.8,0.1c0.2,0.1,0.5,0.1,0.8,0.2
						c0.8,0.3,1.5,0.6,2.1,1.1s1.1,1,1.5,1.6c0.4,0.6,0.7,1.3,0.8,2c0.2,0.7,0.3,1.5,0.3,2.3c0,0.9-0.1,1.7-0.3,2.4
						c-0.2,0.7-0.5,1.4-0.9,1.9c-0.4,0.6-0.8,1-1.3,1.4c-0.5,0.4-1,0.7-1.6,1c-0.3,0.2-0.6,0.3-0.9,0.4c-0.3,0.1-0.6,0.1-0.9,0.2
						c-0.3,0-0.6,0.1-1,0.1c-0.4,0-0.8,0-1.2,0c-0.2,0-0.4,0-0.6,0c-0.2,0-0.5,0-0.7,0c-0.2,0-0.5,0-0.7,0c-0.2,0-0.4,0-0.6,0h-3.4
						V116.7z M346.9,116.7c0.2,0,0.5,0,0.8,0.1c0.3,0,0.6,0,1,0c0.5,0,0.9,0,1.4-0.1c0.4,0,0.9-0.2,1.3-0.3c0.4-0.2,0.8-0.4,1.1-0.7
						c0.4-0.3,0.7-0.7,1-1.2c0.4-0.7,0.7-1.5,0.9-2.3c0.2-0.8,0.2-1.6,0.2-2.6c0-1.1-0.1-2.1-0.3-3c-0.2-0.9-0.5-1.6-1-2.3
						c-0.5-0.6-1.1-1.1-1.8-1.5c-0.8-0.3-1.7-0.5-2.8-0.5c-0.3,0-0.6,0-0.9,0c-0.3,0-0.5,0-0.8,0V116.7z"/>
				</g>
				<g>
					<path fill="#004E97" d="M358.7,116.7h2.2v-14.1h-2.2v-0.3h11.5v3.6h-0.2c-0.2-0.5-0.4-1-0.6-1.4c-0.2-0.4-0.4-0.8-0.7-1
						c-0.3-0.3-0.6-0.5-1-0.6c-0.4-0.1-0.9-0.2-1.4-0.2h-3.3v6.4h1.3c0.4,0,0.8,0,1.1-0.1c0.3-0.1,0.6-0.2,0.8-0.5
						c0.2-0.2,0.4-0.5,0.6-0.9c0.2-0.4,0.3-0.9,0.5-1.5h0.2v6.4h-0.2c-0.1-0.4-0.2-0.8-0.3-1.2c-0.1-0.4-0.2-0.7-0.4-1
						c-0.2-0.3-0.4-0.5-0.7-0.7c-0.3-0.2-0.7-0.3-1.2-0.3h-1.6v7.5h3.8c0.7,0,1.3-0.2,1.8-0.5c0.5-0.3,0.9-0.7,1.2-1.2
						c0.3-0.4,0.5-0.9,0.7-1.4c0.1-0.5,0.2-0.9,0.3-1.2h0.2v4.5h-12.2V116.7z"/>
				</g>
				<g>
					<path fill="#004E97" d="M390.6,117h-0.3c-0.1-0.1-0.2-0.2-0.3-0.3c-0.1-0.1-0.3-0.1-0.6-0.1c-0.2,0-0.4,0-0.7,0.1
						c-0.2,0.1-0.5,0.2-0.8,0.3c-0.3,0.1-0.6,0.2-1,0.3c-0.4,0.1-0.8,0.1-1.2,0.1c-0.8,0-1.7-0.2-2.5-0.5c-0.8-0.3-1.5-0.8-2.3-1.6
						c-0.7-0.7-1.2-1.5-1.6-2.4c-0.4-0.9-0.7-2-0.7-3.2c0-1,0.2-2,0.5-3c0.4-0.9,0.9-1.8,1.5-2.5c0.6-0.7,1.4-1.3,2.3-1.7
						c0.9-0.4,1.8-0.6,2.8-0.6c0.4,0,0.8,0,1.1,0.1c0.3,0.1,0.6,0.2,0.9,0.3c0.3,0.1,0.5,0.2,0.7,0.3c0.2,0.1,0.4,0.1,0.6,0.1
						c0.3,0,0.5,0,0.6-0.1c0.1-0.1,0.2-0.2,0.3-0.3h0.3v4.1h-0.2c-0.1-0.5-0.3-1-0.5-1.5c-0.2-0.5-0.4-1-0.8-1.4
						c-0.3-0.4-0.8-0.7-1.3-0.9c-0.5-0.2-1.2-0.4-1.9-0.4c-0.7,0-1.3,0.1-1.8,0.3c-0.5,0.2-0.9,0.5-1.3,0.9
						c-0.3,0.4-0.6,0.8-0.8,1.3c-0.2,0.5-0.4,1-0.5,1.6c-0.1,0.6-0.2,1.1-0.2,1.7c0,0.6,0,1.1,0,1.6c0,1.4,0.1,2.6,0.3,3.6
						c0.2,0.9,0.5,1.7,1,2.3c0.4,0.6,0.9,0.9,1.5,1.2c0.6,0.2,1.2,0.3,1.9,0.3c0.9,0,1.6-0.1,2.2-0.4c0.5-0.3,1-0.6,1.3-1
						c0.3-0.4,0.6-0.9,0.8-1.4c0.2-0.5,0.3-1.1,0.5-1.6h0.2V117z"/>
				</g>
				<g>
					<path fill="#004E97" d="M391.9,116.7h2.2v-14.1h-2.2v-0.3h6.5v0.3h-2.2v6.8h6.7v-6.8h-2.2v-0.3h6.5v0.3h-2.2v14.1h2.2v0.3h-6.5
						v-0.3h2.2v-7.1h-6.7v7.1h2.2v0.3h-6.5V116.7z"/>
				</g>
				<g>
					<path fill="#004E97" d="M408,116.7h2.2v-14.1H408v-0.3h6.5v0.3h-2.2v14.1h2.2v0.3H408V116.7z"/>
				</g>
				<g>
					<path fill="#004E97" d="M415.4,116.7h2.2v-14.1h-2.2v-0.3h6.5v0.3h-2.2v14.1h3.6c1.2,0,2.1-0.4,2.8-1.1
						c0.7-0.8,1.2-1.8,1.5-3.1h0.2v4.5h-12.2V116.7z"/>
				</g>
				<g>
					<path fill="#004E97" d="M428.9,116.7h2.2v-14.1h-2.2v-0.3h11.5v3.6h-0.2c-0.2-0.5-0.4-1-0.6-1.4c-0.2-0.4-0.4-0.8-0.7-1
						c-0.3-0.3-0.6-0.5-1-0.6c-0.4-0.1-0.9-0.2-1.4-0.2h-3.3v6.4h1.3c0.4,0,0.8,0,1.1-0.1c0.3-0.1,0.6-0.2,0.8-0.5
						c0.2-0.2,0.4-0.5,0.6-0.9c0.2-0.4,0.3-0.9,0.5-1.5h0.2v6.4h-0.2c-0.1-0.4-0.2-0.8-0.3-1.2c-0.1-0.4-0.2-0.7-0.4-1
						c-0.2-0.3-0.4-0.5-0.7-0.7c-0.3-0.2-0.7-0.3-1.2-0.3h-1.6v7.5h3.8c0.7,0,1.3-0.2,1.8-0.5c0.5-0.3,0.9-0.7,1.2-1.2
						c0.3-0.4,0.5-0.9,0.7-1.4c0.1-0.5,0.2-0.9,0.3-1.2h0.2v4.5h-12.2V116.7z"/>
				</g>
			</g>
			<g>
				<path fill="#5B6670" d="M192.5,68.3h2.7v20h-2.7V68.3z"/>
				<path fill="#5B6670" d="M198.7,73.8h2.2v2.3h0.1c1-1.8,2.6-2.6,4.7-2.6c3.8,0,5,2.2,5,5.3v9.5h-2.4v-9.8c0-1.8-1.1-2.9-2.9-2.9
					c-2.9,0-4.3,1.9-4.3,4.5v8.2h-2.4V73.8z"/>
				<path fill="#5B6670" d="M226.3,87c0,4.7-2.2,7.1-6.7,7.1c-2.7,0-5.8-1.1-6-4.3h2.4c0.1,1.7,2.2,2.3,3.7,2.3
					c3.1,0,4.3-2.2,4.3-5.5v-1H224c-0.8,1.8-2.7,2.6-4.5,2.6c-4.3,0-6.5-3.4-6.5-7.3c0-3.4,1.7-7.6,6.7-7.6c1.8,0,3.4,0.8,4.3,2.4h0
					v-2.1h2.2V87z M223.9,80.7c0-2.5-1.1-5.2-4.1-5.2c-3,0-4.3,2.5-4.3,5.3c0,2.6,1,5.5,4.1,5.5C222.8,86.3,223.9,83.4,223.9,80.7z"
					/>
				<path fill="#5B6670" d="M241.8,83.7c-0.6,3.2-2.9,4.9-6.2,4.9c-4.6,0-6.8-3.2-6.9-7.6c0-4.3,2.9-7.5,6.8-7.5
					c5.1,0,6.7,4.8,6.5,8.3h-10.8c-0.1,2.5,1.3,4.8,4.5,4.8c2,0,3.3-1,3.7-2.8H241.8z M239.5,79.6c-0.1-2.3-1.8-4.1-4.2-4.1
					c-2.5,0-4,1.9-4.1,4.1H239.5z"/>
				<path fill="#5B6670" d="M244.3,73.8h2.2v2.3h0.1c1-1.8,2.6-2.6,4.7-2.6c3.8,0,5,2.2,5,5.3v9.5h-2.4v-9.8c0-1.8-1.1-2.9-2.9-2.9
					c-2.9,0-4.3,1.9-4.3,4.5v8.2h-2.4V73.8z"/>
				<path fill="#5B6670" d="M261.8,71.2h-2.4v-2.9h2.4V71.2z M259.4,73.8h2.4v14.5h-2.4V73.8z"/>
				<path fill="#5B6670" d="M277.4,83.7c-0.6,3.2-2.9,4.9-6.2,4.9c-4.6,0-6.8-3.2-6.9-7.6c0-4.3,2.9-7.5,6.8-7.5
					c5.1,0,6.7,4.8,6.5,8.3h-10.8c-0.1,2.5,1.3,4.8,4.5,4.8c2,0,3.3-1,3.7-2.8H277.4z M275.1,79.6c-0.1-2.3-1.8-4.1-4.2-4.1
					c-2.5,0-4,1.9-4.1,4.1H275.1z"/>
				<path fill="#5B6670" d="M279.8,73.8h2.2v3h0.1c1.1-2.3,2.7-3.5,5.3-3.4V76c-3.8,0-5.2,2.2-5.2,5.8v6.4h-2.4V73.8z"/>
				<path fill="#5B6670" d="M290.9,67.8h3l-3.7,4h-1.8L290.9,67.8z M289.1,88.2V73.8h2.4v14.5H289.1z"/>
				<path fill="#5B6670" d="M307.4,88.2c-0.4,0.3-1,0.4-1.7,0.4c-1.2,0-2-0.7-2-2.2c-1.3,1.5-3.1,2.2-5.1,2.2
					c-2.6,0-4.8-1.2-4.8-4.1c0-3.3,2.4-4,4.9-4.4c2.6-0.5,4.9-0.3,4.9-2.1c0-2.1-1.7-2.4-3.2-2.4c-2,0-3.5,0.6-3.6,2.7h-2.4
					c0.1-3.6,2.9-4.8,6.1-4.8c2.6,0,5.4,0.6,5.4,4v7.4c0,1.1,0,1.6,0.8,1.6c0.2,0,0.4,0,0.7-0.1V88.2z M303.5,80.8
					c-0.9,0.7-2.7,0.7-4.3,1c-1.6,0.3-2.9,0.8-2.9,2.6c0,1.6,1.3,2.1,2.8,2.1c3.1,0,4.4-2,4.4-3.3V80.8z"/>
				<path fill="#5B6670" d="M323,90.2C322,93,321,94,318.9,94c-0.6,0-1.1-0.1-1.7-0.3v-2.2c0.4,0.1,0.9,0.3,1.4,0.3
					c1,0,1.5-0.5,2-1.3l1-2.5l-5.7-14.4h2.7l4.2,11.8h0.1l4.1-11.8h2.5L323,90.2z"/>
				<path fill="#5B6670" d="M353.6,74.3c-0.6-2.8-2.8-4.3-5.6-4.3c-4.8,0-6.8,3.9-6.8,8.1c0,4.6,2,8.4,6.8,8.4
					c3.5,0,5.5-2.5,5.8-5.8h2.7c-0.5,5-3.6,8-8.6,8c-6.2,0-9.2-4.6-9.2-10.4c0-5.8,3.3-10.5,9.5-10.5c4.2,0,7.6,2.2,8.2,6.5H353.6z"
					/>
				<path fill="#5B6670" d="M361.4,71.2H359v-2.9h2.4V71.2z M359,73.8h2.4v14.5H359V73.8z"/>
				<path fill="#5B6670" d="M376.9,83.7c-0.6,3.2-2.9,4.9-6.2,4.9c-4.6,0-6.8-3.2-6.9-7.6c0-4.3,2.9-7.5,6.8-7.5
					c5.1,0,6.7,4.8,6.5,8.3h-10.8c-0.1,2.5,1.3,4.8,4.5,4.8c2,0,3.3-1,3.7-2.8H376.9z M374.7,79.6c-0.1-2.3-1.8-4.1-4.2-4.1
					c-2.5,0-4,1.9-4.1,4.1H374.7z"/>
				<path fill="#5B6670" d="M379.4,73.8h2.2v2.3h0.1c1-1.8,2.6-2.6,4.7-2.6c3.8,0,5,2.2,5,5.3v9.5H389v-9.8c0-1.8-1.1-2.9-2.9-2.9
					c-2.9,0-4.3,1.9-4.3,4.5v8.2h-2.4V73.8z"/>
				<path fill="#5B6670" d="M404.4,78.4c-0.4-1.8-1.6-2.9-3.6-2.9c-3.4,0-4.5,2.7-4.5,5.6c0,2.7,1.2,5.3,4.2,5.3
					c2.3,0,3.7-1.3,4-3.5h2.4c-0.5,3.5-2.7,5.6-6.4,5.6c-4.4,0-6.8-3.1-6.8-7.4c0-4.3,2.2-7.7,6.8-7.7c3.3,0,5.9,1.5,6.2,5H404.4z"
					/>
				<path fill="#5B6670" d="M411.7,71.2h-2.4v-2.9h2.4V71.2z M409.3,73.8h2.4v14.5h-2.4V73.8z"/>
				<path fill="#5B6670" d="M427.8,88.2c-0.4,0.3-1,0.4-1.7,0.4c-1.2,0-2-0.7-2-2.2c-1.3,1.5-3.1,2.2-5.1,2.2
					c-2.6,0-4.8-1.2-4.8-4.1c0-3.3,2.4-4,4.9-4.4c2.6-0.5,4.9-0.3,4.9-2.1c0-2.1-1.7-2.4-3.2-2.4c-2,0-3.5,0.6-3.6,2.7h-2.4
					c0.1-3.6,2.9-4.8,6.1-4.8c2.6,0,5.4,0.6,5.4,4v7.4c0,1.1,0,1.6,0.8,1.6c0.2,0,0.4,0,0.7-0.1V88.2z M423.9,80.8
					c-0.9,0.7-2.7,0.7-4.3,1c-1.6,0.3-2.9,0.8-2.9,2.6c0,1.6,1.3,2.1,2.8,2.1c3.1,0,4.4-2,4.4-3.3V80.8z"/>
				<path fill="#5B6670" d="M431.2,83.7c0.1,2.1,1.9,2.8,3.9,2.8c1.5,0,3.5-0.3,3.5-2.2c0-1.8-2.3-2.2-4.7-2.7
					c-2.3-0.5-4.7-1.3-4.7-4.1c0-2.9,2.9-4.1,5.4-4.1c3.2,0,5.7,1,5.9,4.5h-2.4c-0.2-1.8-1.8-2.4-3.4-2.4c-1.4,0-3.1,0.4-3.1,1.8
					c0,1.7,2.5,2,4.7,2.5c2.4,0.5,4.7,1.3,4.7,4.1c0,3.4-3.2,4.6-6.2,4.6c-3.2,0-6-1.3-6.1-4.9H431.2z"/>
			</g>
		</g>
	</g>
</g>
</svg>
