<?xml version="1.0" encoding="utf-8"?>
<!-- Generator: Adobe Illustrator 22.1.0, SVG Export Plug-In . SVG Version: 6.00 Build 0)  -->
<svg version="1.1" xmlns="http://www.w3.org/2000/svg" xmlns:xlink="http://www.w3.org/1999/xlink" x="0px" y="0px"
	 viewBox="0 0 413.6 226" enable-background="new 0 0 413.6 226" xml:space="preserve">
<g id="fondo" display="none">
	<rect display="inline" fill="#1D1D1B" width="413.6" height="226"/>
</g>
<g id="Capa_1">
	<g>
		<rect x="213.7" y="76.7" fill="#FFFFFF" width="2" height="78.1"/>
		<path fill="#FFFFFF" d="M109,93.1c-0.5-9.3,5.1-16.3,14.8-16.3c8.1,0,14.4,4.7,14.4,13.2c0,8.1-5.5,12.2-11.2,15.8
			c-5.8,3.5-11.8,6.4-12.9,12.1h23.6v4.9h-30.1c0.9-10.9,6.4-14.8,12.9-18.8c7.8-4.8,11.8-7.7,11.8-14c0-5-4-8.3-8.9-8.3
			c-6.4,0-9.2,5.9-9,11.4H109z"/>
		<path fill="#FFFFFF" d="M157,76.8c14.4,0,15.3,13.2,15.3,23.4c0,10.1-0.9,23.4-15.3,23.4c-14.4,0-15.3-13.2-15.3-23.4
			C141.7,90,142.6,76.8,157,76.8 M157,118.7c9.4,0,9.5-11.7,9.5-18.6c0-6.8-0.1-18.5-9.5-18.5c-9.4,0-9.5,11.7-9.5,18.5
			C147.6,107,147.6,118.7,157,118.7"/>
		<path fill="#DBDEE0" d="M188.5,108c14.4,0,15.3,13.2,15.3,23.4c0,10.1-0.9,23.4-15.3,23.4c-14.4,0-15.3-13.2-15.3-23.4
			C173.2,121.2,174.1,108,188.5,108 M188.5,149.9c9.4,0,9.5-11.7,9.5-18.6c0-6.8-0.1-18.5-9.5-18.5c-9.4,0-9.5,11.7-9.5,18.5
			C179,138.3,179.1,149.9,188.5,149.9"/>
		<path fill="#DBDEE0" d="M151.4,127.7c0.8,0.1,1.6,0.1,2.4,0.1c4.7,0,8.8-2.5,8.8-7.5c0-4.8-3.5-7.4-8.2-7.4c-6,0-8.6,4.6-8.7,10
			h-5.5c0.3-8.8,5-14.9,14.2-14.9c8,0,14,3.8,14,12.3c0,4-2.9,7.5-6.4,9.2v0.1c5.6,1.2,8.3,5.6,8.3,11.2c0,9.2-7.2,14-15.8,14
			c-9.3,0-15.5-5.5-15.3-15h5.5c0.2,6,3.5,10.1,9.8,10.1c5.4,0,10-3.3,10-8.9c0-5.8-4.4-8.8-9.8-8.8c-1.1,0-2.3,0.1-3.3,0.2V127.7z"
			/>
		<path fill="#FFFFFF" d="M157,118.7c-9.4,0-9.5-11.7-9.5-18.6c0-6.8,0.1-18.5,9.5-18.5v-4.9c-14.4,0-15.3,13.2-15.3,23.4
			c0,10.1,0.9,23.4,15.3,23.4V118.7z"/>
		<rect x="228" y="84.2" fill="#FFFFFF" width="3.2" height="23.8"/>
		<path fill="#FFFFFF" d="M235.4,90.8h2.7v2.7h0.1c1.2-2.1,3.1-3.1,5.6-3.1c4.5,0,5.9,2.6,5.9,6.3V108h-2.8V96.3
			c0-2.1-1.3-3.5-3.5-3.5c-3.4,0-5.1,2.3-5.1,5.4v9.7h-2.8V90.8z"/>
		<path fill="#FFFFFF" d="M268.3,106.5c0,5.6-2.6,8.5-8,8.5c-3.2,0-7-1.3-7.1-5.1h2.8c0.1,2.1,2.6,2.8,4.5,2.8
			c3.7,0,5.2-2.7,5.2-6.5v-1.1h-0.1c-0.9,2.1-3.2,3.1-5.4,3.1c-5.1,0-7.7-4-7.7-8.7c0-4.1,2-9.1,8-9.1c2.2,0,4.1,1,5.1,2.9h0v-2.5
			h2.7V106.5z M265.5,99c0-3-1.3-6.2-4.9-6.2c-3.6,0-5.1,3-5.1,6.3c0,3.1,1.1,6.6,4.9,6.6C264.1,105.7,265.5,102.3,265.5,99"/>
		<path fill="#FFFFFF" d="M286.7,102.5c-0.8,3.8-3.5,5.9-7.4,5.9c-5.5,0-8.1-3.8-8.3-9.1c0-5.2,3.4-9,8.1-9c6.1,0,8,5.7,7.8,9.9
			h-12.9c-0.1,3,1.6,5.7,5.4,5.7c2.3,0,4-1.1,4.5-3.4H286.7z M284,97.7c-0.1-2.7-2.2-4.9-5-4.9c-3,0-4.7,2.2-4.9,4.9H284z"/>
		<path fill="#FFFFFF" d="M289.7,90.8h2.7v2.7h0.1c1.2-2.1,3.1-3.1,5.6-3.1c4.5,0,5.9,2.6,5.9,6.3V108h-2.8V96.3
			c0-2.1-1.3-3.5-3.5-3.5c-3.4,0-5.1,2.3-5.1,5.4v9.7h-2.8V90.8z"/>
		<path fill="#FFFFFF" d="M310.6,87.7h-2.8v-3.5h2.8V87.7z M307.7,90.8h2.8V108h-2.8V90.8z"/>
		<path fill="#FFFFFF" d="M329.1,102.5c-0.8,3.8-3.5,5.9-7.4,5.9c-5.5,0-8.1-3.8-8.3-9.1c0-5.2,3.4-9,8.1-9c6.1,0,8,5.7,7.8,9.9
			h-12.9c-0.1,3,1.6,5.7,5.4,5.7c2.3,0,4-1.1,4.5-3.4H329.1z M326.4,97.7c-0.1-2.7-2.2-4.9-5-4.9c-3,0-4.7,2.2-4.9,4.9H326.4z"/>
		<path fill="#FFFFFF" d="M332,90.8h2.7v3.6h0.1c1.4-2.8,3.3-4.1,6.3-4v3c-4.6,0-6.2,2.6-6.2,7v7.7H332V90.8z"/>
		<path fill="#FFFFFF" d="M345.2,83.6h3.6l-4.4,4.8h-2.1L345.2,83.6z M343,90.8h2.8V108H343V90.8z"/>
		<path fill="#FFFFFF" d="M364.8,107.9c-0.5,0.3-1.1,0.5-2,0.5c-1.5,0-2.4-0.8-2.4-2.7c-1.6,1.8-3.7,2.7-6.1,2.7
			c-3.1,0-5.7-1.4-5.7-4.8c0-3.9,2.9-4.7,5.8-5.3c3.1-0.6,5.8-0.4,5.8-2.5c0-2.5-2-2.9-3.8-2.9c-2.4,0-4.2,0.7-4.3,3.3h-2.8
			c0.2-4.3,3.5-5.8,7.3-5.8c3.1,0,6.5,0.7,6.5,4.7v8.9c0,1.3,0,1.9,0.9,1.9c0.2,0,0.5,0,0.9-0.2V107.9z M360.2,99.1
			c-1.1,0.8-3.2,0.8-5.1,1.2c-1.9,0.3-3.5,1-3.5,3.1c0,1.9,1.6,2.5,3.3,2.5c3.7,0,5.3-2.3,5.3-3.9V99.1z"/>
		<path fill="#FFFFFF" d="M234.2,148.4c-1.3,3.4-2.5,4.6-5,4.6c-0.7,0-1.3-0.1-2-0.3v-2.6c0.5,0.2,1.1,0.4,1.7,0.4
			c1.2,0,1.8-0.6,2.3-1.6l1.2-2.9l-6.8-17.1h3.2l5,14.1h0.1l4.8-14.1h3L234.2,148.4z"/>
		<path fill="#FFFFFF" d="M269.8,129.4c-0.7-3.4-3.4-5.1-6.7-5.1c-5.7,0-8.1,4.7-8.1,9.6c0,5.4,2.4,10,8.1,10c4.2,0,6.6-2.9,6.9-6.9
			h3.2c-0.6,5.9-4.3,9.5-10.3,9.5c-7.4,0-11-5.5-11-12.4c0-6.9,3.9-12.5,11.3-12.5c5,0,9.1,2.7,9.8,7.7H269.8z"/>
		<path fill="#FFFFFF" d="M279.1,125.7h-2.8v-3.5h2.8V125.7z M276.3,128.8h2.8v17.2h-2.8V128.8z"/>
		<path fill="#FFFFFF" d="M297.7,140.6c-0.8,3.8-3.5,5.9-7.4,5.9c-5.5,0-8.1-3.8-8.3-9.1c0-5.2,3.4-9,8.1-9c6.1,0,8,5.7,7.8,9.9H285
			c-0.1,3,1.6,5.7,5.4,5.7c2.3,0,4-1.1,4.5-3.4H297.7z M294.9,135.8c-0.1-2.7-2.2-4.9-5-4.9c-3,0-4.7,2.2-4.9,4.9H294.9z"/>
		<path fill="#FFFFFF" d="M300.6,128.8h2.7v2.7h0.1c1.2-2.1,3.1-3.1,5.6-3.1c4.5,0,5.9,2.6,5.9,6.3v11.3H312v-11.7
			c0-2.1-1.3-3.5-3.5-3.5c-3.4,0-5.1,2.3-5.1,5.4v9.7h-2.8V128.8z"/>
		<path fill="#FFFFFF" d="M330.3,134.4c-0.4-2.2-1.9-3.4-4.3-3.4c-4.1,0-5.4,3.2-5.4,6.7c0,3.2,1.4,6.3,5,6.3c2.7,0,4.4-1.6,4.7-4.2
			h2.9c-0.6,4.2-3.3,6.7-7.6,6.7c-5.3,0-8.1-3.7-8.1-8.8c0-5.2,2.7-9.2,8.1-9.2c3.9,0,7,1.8,7.4,5.9H330.3z"/>
		<path fill="#FFFFFF" d="M339,125.7h-2.8v-3.5h2.8V125.7z M336.2,128.8h2.8v17.2h-2.8V128.8z"/>
		<path fill="#FFFFFF" d="M358.2,146c-0.5,0.3-1.1,0.5-2,0.5c-1.5,0-2.4-0.8-2.4-2.7c-1.6,1.8-3.7,2.7-6.1,2.7
			c-3.1,0-5.7-1.4-5.7-4.8c0-3.9,2.9-4.7,5.8-5.3c3.1-0.6,5.8-0.4,5.8-2.5c0-2.5-2-2.9-3.8-2.9c-2.4,0-4.2,0.7-4.3,3.3h-2.8
			c0.2-4.3,3.5-5.8,7.3-5.8c3.1,0,6.5,0.7,6.5,4.7v8.9c0,1.3,0,1.9,0.9,1.9c0.2,0,0.5,0,0.9-0.2V146z M353.6,137.2
			c-1.1,0.8-3.2,0.8-5.1,1.2c-1.9,0.3-3.5,1-3.5,3.1c0,1.9,1.6,2.5,3.3,2.5c3.7,0,5.3-2.3,5.3-3.9V137.2z"/>
		<path fill="#FFFFFF" d="M362.2,140.6c0.1,2.5,2.3,3.3,4.6,3.3c1.8,0,4.2-0.4,4.2-2.6c0-2.2-2.8-2.6-5.6-3.2
			c-2.8-0.6-5.6-1.6-5.6-4.9c0-3.5,3.4-4.9,6.4-4.9c3.8,0,6.8,1.2,7.1,5.4h-2.8c-0.2-2.2-2.1-2.9-4-2.9c-1.7,0-3.7,0.5-3.7,2.2
			c0,2,3,2.4,5.6,3c2.8,0.6,5.6,1.6,5.6,4.9c0,4.1-3.8,5.4-7.3,5.4c-3.9,0-7.1-1.6-7.3-5.8H362.2z"/>
		<path fill="none" stroke="#FFFFFF" stroke-width="1.2925" stroke-miterlimit="3.863" d="M97.3,77.4v74.2c0,1.4-1.1,2.6-2.6,2.6
			H71.4c-1.6,0-2.7,2.6-2.7,2.6s-1.1-2.6-2.8-2.6c0,0-23.2,0-23.2,0c-1.4,0-2.6-1.2-2.6-2.6l0-74.2L97.3,77.4z"/>
		<path fill="none" stroke="#FFFFFF" stroke-width="0.6451" stroke-miterlimit="3.864" d="M77.3,89.2L75,85.6
			c-2.7,0.6-2-1.7-0.6-2.7c1.6-1,3.4-0.7,2.3,1.6c0,0,0.5,0.8,1.4,2.2C78.1,86.8,77.5,87.9,77.3,89.2z"/>
		<path fill="none" stroke="#FFFFFF" stroke-width="0.6451" stroke-miterlimit="3.864" d="M87.3,101.3l6.2,9.8l-0.5,0.5l-2.2-1.7
			c0,0-0.1-1.4-0.5-1.7c-1.2-1-0.5-1.6-0.9-2.5c-0.4-0.9-3.1-1.6-3.7-3c0,0.1-1-1.6-1-1.6C87.1,100.6,87.3,101.3,87.3,101.3z"/>
		<path fill="none" stroke="#FFFFFF" stroke-width="0.6451" stroke-miterlimit="3.864" d="M80.1,89.7c0,0,2.2,3.6,2.2,3.6
			c-1.4-0.2-2-0.6-2.3-1.3C79.7,91.2,79.9,90.1,80.1,89.7z"/>
		<line fill="none" stroke="#FFFFFF" stroke-width="0.6451" stroke-miterlimit="3.864" x1="47.1" y1="124.3" x2="51.9" y2="136.4"/>
		<line fill="none" stroke="#FFFFFF" stroke-width="0.6451" stroke-miterlimit="3.864" x1="47.5" y1="124.6" x2="52" y2="133.3"/>
		<line fill="none" stroke="#FFFFFF" stroke-width="0.6451" stroke-miterlimit="3.864" x1="47.8" y1="124.7" x2="51.9" y2="130.9"/>
		<line fill="none" stroke="#FFFFFF" stroke-width="0.6451" stroke-miterlimit="3.864" x1="48.1" y1="124.6" x2="51.8" y2="129.1"/>
		<line fill="none" stroke="#FFFFFF" stroke-width="0.6451" stroke-miterlimit="3.864" x1="48" y1="124.2" x2="53.4" y2="129.3"/>
		<line fill="none" stroke="#FFFFFF" stroke-width="0.6451" stroke-miterlimit="3.864" x1="48" y1="123.9" x2="55.4" y2="129.5"/>
		<line fill="none" stroke="#FFFFFF" stroke-width="0.6451" stroke-miterlimit="3.864" x1="47.9" y1="123.7" x2="58.7" y2="130.1"/>
		<polygon fill="none" stroke="#FFFFFF" stroke-width="0.6451" stroke-miterlimit="3.864" points="53.7,104.3 53.6,108 55.8,108 
			55.6,104.3 		"/>
		<polygon fill="none" stroke="#FFFFFF" stroke-width="0.6451" stroke-miterlimit="3.864" points="55.5,103.2 54.7,83.1 53.7,103.2 
					"/>
		<rect x="51" y="103.3" fill="none" stroke="#FFFFFF" stroke-width="0.6451" stroke-miterlimit="3.864" width="7.4" height="1"/>
		<path fill="none" stroke="#FFFFFF" stroke-width="0.6451" stroke-miterlimit="3.864" d="M57,108c0,1.5-1,2.6-2.3,2.6
			c-1.3,0-2.3-1-2.3-2.6H57z"/>
		<path fill="none" stroke="#FFFFFF" stroke-width="0.6451" stroke-miterlimit="3.864" d="M51.3,94.1c0,1.9-1.6,3.5-3.6,3.5
			c-2,0-3.6-1.6-3.6-3.5H51.3z"/>
		<path fill="none" stroke="#FFFFFF" stroke-width="0.6451" stroke-miterlimit="3.864" d="M80.5,89c0,0,0.8,1.1,1.6,0.6
			c1.5-0.9-0.4-6.1-3.5-3.5c-0.7,0.6-1.6,3.3-1.5,5c0.2,1.7,0.9,3.9,2.9,4.4c1.2,0.3,3.5-0.4,4.5,1.2c0.7-0.3,1.5-3.1-0.5-3.2
			c-2-0.1-3.7-0.4-4-1.3C79.3,90.2,80.5,89,80.5,89z"/>
		<path fill="none" stroke="#FFFFFF" stroke-width="0.6451" stroke-miterlimit="3.864" d="M82.3,97.1c-0.8,0.4-1.4,1.3-1.1,2.3
			c0.3,1,1.5,1.6,3.2,1.5c0.1,0,0.2,0,0.3,0c1.5-0.1,2.2-0.3,2.7,0.6c0.5-0.6,0.4-2.1-0.4-2.7C85.9,97.8,82.8,99.1,82.3,97.1z"/>
		<path fill="none" stroke="#FFFFFF" stroke-width="0.6451" stroke-miterlimit="3.864" d="M85.8,102.6c-0.2,0.8-0.7,1.9-0.3,2.9
			c0.6,1.4,1.8,0.6,2.2,1.5c0.4,0.8,0,2.1,0.8,2.3c1.6,0.5,1,2,1.8,1.9c0.7-0.1,0.8-2.5,0-3.2c-1.1-1-0.4-1.7-0.9-2.6
			C88.9,104.6,86.9,104.3,85.8,102.6z"/>
		<path fill="none" stroke="#FFFFFF" stroke-width="0.4135" stroke-miterlimit="3.864" d="M69.8,107.8c0-0.1,0-0.1,0.1-0.1
			c0.1,0,0.1,0,0.1,0.1c0,0.1,0,0.1-0.1,0.1C69.8,107.9,69.8,107.8,69.8,107.8z"/>
		<path fill="none" stroke="#FFFFFF" stroke-width="0.4135" stroke-miterlimit="3.864" d="M81.3,87.2c0.1-0.1,0.3,0.1,0.4,0.2
			c0.1,0.2,0,0.4-0.1,0.4c-0.1,0.1-0.3-0.1-0.4-0.2C81.1,87.4,81.2,87.2,81.3,87.2z"/>
		<path fill="none" stroke="#FFFFFF" stroke-width="0.6451" stroke-miterlimit="3.864" d="M53.1,136.4c0-2.9,2.4-5.3,5.3-5.3
			c2.9,0,5.3,2.4,5.3,5.3c0,2.9-2.4,5.3-5.3,5.3C55.4,141.7,53.1,139.4,53.1,136.4z"/>
		<polygon fill="none" stroke="#FFFFFF" stroke-width="0.6451" stroke-miterlimit="3.864" points="63.8,149.4 61.2,149.4 
			61.2,144.5 45.5,144.5 45.5,142 63.8,142 		"/>
		<path fill="none" stroke="#FFFFFF" stroke-width="0.6451" stroke-miterlimit="3.864" d="M47.8,137c0-0.6,0.5-1.1,1.1-1.1
			s1.1,0.5,1.1,1.1c0,0.6-0.5,1.1-1.1,1.1S47.8,137.6,47.8,137z"/>
		<polyline fill="none" stroke="#FFFFFF" stroke-width="0.6451" stroke-miterlimit="3.864" points="47.8,136.7 46,141.9 48.8,138.1 
					"/>
		<polyline fill="none" stroke="#FFFFFF" stroke-width="0.6451" stroke-miterlimit="3.864" points="49.9,136.7 51.7,141.9 
			48.9,138.1 		"/>
		<path fill="none" stroke="#FFFFFF" stroke-width="0.6451" stroke-miterlimit="3.864" d="M53.8,134c-0.3,1.4,2.4,1.4,2.2,2.2
			c-0.6,1.9,0.5,1.8,0.7,2.8c0,0-0.2,2.3,0.5,2.5c0.4-0.5,0.1-1.5,0.5-2c0.5-0.5,1.1-0.8,1.1-1.8c0-0.7-1-0.9-1.3-1.1
			c-0.3-0.2-0.9-0.4-1.3-0.4c0,0-1-2-0.7-2.4c0.4-0.3,0.9,0.5,1.1,0.5c0.5,0,0.6-1,1.3-1c0-0.2,0-0.9-0.2-1c-0.8,0-1.2,0.4-1.9-0.4
			C56,131.8,54.1,132.5,53.8,134z"/>
		<path fill="none" stroke="#FFFFFF" stroke-width="0.6451" stroke-miterlimit="3.864" d="M60,131.4c-0.6-0.2-1.5-0.1-1.5-0.1
			c0.8,0.4,0.7,1.4,1,1.4c0.6,0,1-0.5,1.6-0.6C61.1,132,60.6,131.6,60,131.4z"/>
		<path fill="none" stroke="#FFFFFF" stroke-width="0.6451" stroke-miterlimit="3.864" d="M63.5,135.4c0-1.3-1.8-3-1.8-3
			s-0.9,1.6-0.5,3.3c0.4,0,1.6-0.1,1.6-0.1c0.3,0.1,0.2,0.6,0.2,0.9c0,0.7-0.2,2.6-0.2,2.6S63.5,136.7,63.5,135.4z"/>
		<polygon fill="none" stroke="#FFFFFF" stroke-width="0.4135" stroke-miterlimit="3.864" points="46.9,121.4 46.4,122.6 
			45.2,122.7 46.1,123.6 45.8,124.8 46.9,124.2 48,124.8 47.8,123.6 48.7,122.7 47.5,122.6 		"/>
		<line fill="none" stroke="#FFFFFF" stroke-width="1.2925" stroke-miterlimit="3.863" x1="68.8" y1="125.1" x2="68.8" y2="156.5"/>
		
			<path fill="none" stroke="#FFFFFF" stroke-width="0.6451" stroke-linecap="round" stroke-linejoin="round" stroke-miterlimit="3.864" d="
			M73.3,140.4l-1.4,1.5c-0.2,0.2-0.1,1.6,0,2c1.1,0.4,16.2,5.2,16.2,5.2l6.1-6.7l-1-0.4c-0.3-0.4,0.6-1.9,0.6-1.9l-3-1.2"/>
		
			<path fill="none" stroke="#FFFFFF" stroke-width="0.6451" stroke-linecap="round" stroke-linejoin="round" stroke-miterlimit="3.864" d="
			M88.1,146.2c-0.2,0.2-0.2,2.7,0,3c0,0,6.1-6.7,6.1-6.7l-0.6-0.6c-0.1-0.6,0.1-1.7,0.1-1.7L88.1,146.2z"/>
		
			<path fill="none" stroke="#FFFFFF" stroke-width="0.6451" stroke-linecap="round" stroke-linejoin="round" stroke-miterlimit="3.864" d="
			M87.6,142c-0.3,0.1-0.4,3.4-0.1,3.4c0,0,5-5.7,5-5.7l-0.5-0.3L87.6,142z"/>
		
			<path fill="none" stroke="#FFFFFF" stroke-width="0.4135" stroke-linecap="round" stroke-linejoin="round" stroke-miterlimit="3.864" d="
			M75.1,137.7l-1.6,1.6c-0.2,0.1-0.1,1.6,0,2.1c0.6,0.2,13.9,4.1,13.9,4.1l5-5.8l-1.6-0.6"/>
		<path fill="none" stroke="#FFFFFF" stroke-width="0.6451" stroke-miterlimit="3.864" d="M89.7,129.3v9.6c-1.3-0.3-6.2-0.9-6.7-0.2
			c-0.4-0.8-4.4-0.4-6.7,0.1v-9.2c-0.3,1.3-1.2,1.8-1.2,1.8v8.1l7-0.5c0.8,0.5,1.7,0.2,2,0l6.7,0.2v-9.1
			C90.8,130.2,90.1,130.1,89.7,129.3z"/>
		<path fill="none" stroke="#FFFFFF" stroke-width="0.6451" stroke-miterlimit="3.864" d="M89.7,138.9c-1.4,0-5.7-1.1-6.7-0.1
			c0.9,0,0.9,0.6,0,0.6c-1-0.1-0.8-0.6,0-0.6c-0.9-1.1-6.8,0.2-6.8,0.2l0-9.4c1.6,0,3.3-0.8,4.5-0.8c1.2,0,2.4,0.5,2.4,0.5
			s1.8-0.7,3.1-0.7c1.5,0,2.3,1.2,3.5,0.8C89.7,130,89.7,138.9,89.7,138.9z"/>
		<line fill="none" stroke="#FFFFFF" stroke-width="0.4135" stroke-miterlimit="3.864" x1="83.1" y1="129.3" x2="83" y2="138.7"/>
		<path fill="none" stroke="#FFFFFF" stroke-width="0.4466" stroke-miterlimit="3.864" d="M76.1,142.1l-0.5,0.5
			c-0.2,0.3-0.2,2.4,0,2.5c0,0,1.1,0.3,0.6,0.1c-0.1-0.7-0.1-2.1,0.1-2.4l0.5-0.5L76.1,142.1z"/>
		<path fill="none" stroke="#FFFFFF" stroke-width="0.4466" stroke-miterlimit="3.864" d="M77.8,142.6l-0.5,0.5
			c-0.2,0.3-0.3,2.4-0.1,2.6c0,0,1.2,0.3,0.7,0c-0.1-0.7-0.1-2.1,0.1-2.4l0.5-0.5L77.8,142.6z"/>
		<path fill="none" stroke="#FFFFFF" stroke-width="0.4466" stroke-miterlimit="3.864" d="M82.1,143.9l-0.6,0.6
			c-0.2,0.3-0.4,2.3-0.1,2.4c0,0,1.2,0.4,0.7,0.1c-0.1-0.7-0.1-2.2,0.1-2.4l0.6-0.6L82.1,143.9z"/>
		<path fill="none" stroke="#FFFFFF" stroke-width="0.4466" stroke-miterlimit="3.864" d="M83.7,144.4l-0.6,0.6
			c-0.2,0.3-0.3,2.4-0.1,2.5c0,0,1.2,0.4,0.7,0.1c-0.1-0.7-0.1-2.2,0.1-2.4l0.6-0.6L83.7,144.4z"/>
		<path fill="none" stroke="#FFFFFF" stroke-width="0.4466" stroke-miterlimit="3.864" d="M76.1,139.5l-0.4,0.4
			c-0.2,0.2-0.2,2,0,2.1c0,0,0.5,0.2,0.6,0.2c0.1,0,0-0.2-0.1-0.3c-0.1-0.5,0-1.6,0.1-1.8l0.4-0.4L76.1,139.5z"/>
		<path fill="none" stroke="#FFFFFF" stroke-width="0.6451" stroke-miterlimit="3.864" d="M83.1,129.2c-1.8,0-2.3-1.5-2.3-1.5l0.7,0
			c0,0-0.9-0.5-0.7-1.1c0,0,0.6,0.1,0.6,0.1s-0.3-0.7,0-1.2l0.6,0.2c0.2-1,1.2-1.2,1.2-1.2s0.9,0.1,1.2,1.2l0.6-0.2
			c0.2,0.5,0,1.2,0,1.2s0.6-0.1,0.6-0.1c0.2,0.5-0.7,1.1-0.7,1.1l0.7,0C85.5,127.7,84.9,129.2,83.1,129.2z"/>
		<line fill="none" stroke="#FFFFFF" stroke-width="1.2925" stroke-miterlimit="3.863" x1="40.2" y1="116.2" x2="59.9" y2="116.2"/>
		<line fill="none" stroke="#FFFFFF" stroke-width="1.2453" stroke-miterlimit="3.864" x1="77.7" y1="116.2" x2="97.2" y2="116.2"/>
		<polygon fill="none" stroke="#FFFFFF" stroke-width="0.6451" stroke-miterlimit="3.864" points="68.8,109 75.1,120 62.4,120 		"/>
		<path fill="none" stroke="#FFFFFF" stroke-width="0.6451" stroke-miterlimit="3.864" d="M68.7,114.4c2.3,0,4.2,1.9,4.2,2.2
			c0,0.3-2,2.2-4.2,2.2c-2.3,0-4.3-1.9-4.2-2.2C64.5,116.3,66.4,114.3,68.7,114.4z"/>
		<path fill="none" stroke="#FFFFFF" stroke-width="0.6451" stroke-miterlimit="3.864" d="M66.6,116.6c0-1.2,0.9-2.1,2.1-2.1
			c1.2,0,2.1,1,2.1,2.1c0,1.2-0.9,2.1-2.1,2.1C67.6,118.7,66.6,117.7,66.6,116.6z"/>
		<path fill="#626A70" d="M68.5,116.6c0-0.1,0.1-0.3,0.3-0.3c0.1,0,0.3,0.1,0.3,0.3c0,0.1-0.1,0.3-0.3,0.3
			C68.6,116.8,68.5,116.7,68.5,116.6"/>
		<path fill="none" stroke="#FFFFFF" stroke-width="0.4135" stroke-miterlimit="3.864" d="M68.5,116.6c0-0.1,0.1-0.3,0.3-0.3
			c0.1,0,0.3,0.1,0.3,0.3c0,0.1-0.1,0.3-0.3,0.3C68.6,116.8,68.5,116.7,68.5,116.6z"/>
		<path fill="none" stroke="#FFFFFF" stroke-width="0.6451" stroke-miterlimit="3.864" d="M68.8,108.7c-4.2,0-7.5,3.4-7.5,7.6
			c0,4.2,3.4,7.5,7.5,7.5c4.2,0,7.5-3.4,7.5-7.5c0-3.8-2.7-6.9-6.3-7.5c-1.3,0.1-1.4-0.4-1.4-0.6c-0.1-0.7,0.8-1.1,1.4-1.1
			c1.1,0,1,0.6,1.7,0.8c3.5,1.2,6,4.5,6,8.4c0,4.9-4,8.9-8.8,8.9c-4.9,0-8.8-4-8.8-8.9c0-4.9,3.7-8.7,8.6-8.3
			C68.4,108.3,68.8,108.7,68.8,108.7z"/>
		<polygon fill="none" stroke="#FFFFFF" stroke-width="1.1555" stroke-miterlimit="3.863" points="68.7,46.1 66,51.6 59.9,52.5 
			64.3,56.9 63.4,62.8 68.7,60.1 74.1,62.8 73.1,56.8 77.4,52.6 71.5,51.7 		"/>
		<line fill="none" stroke="#FFFFFF" stroke-width="0.5955" stroke-miterlimit="3.863" x1="68.7" y1="46.3" x2="68.7" y2="60.1"/>
		<line fill="none" stroke="#FFFFFF" stroke-width="0.5955" stroke-miterlimit="3.863" x1="60.1" y1="52.6" x2="73.1" y2="56.8"/>
		<line fill="none" stroke="#FFFFFF" stroke-width="0.5955" stroke-miterlimit="3.863" x1="63.4" y1="62.8" x2="71.5" y2="51.7"/>
		<line fill="none" stroke="#FFFFFF" stroke-width="0.5955" stroke-miterlimit="3.863" x1="74.1" y1="62.8" x2="66" y2="51.6"/>
		<line fill="none" stroke="#FFFFFF" stroke-width="0.5955" stroke-miterlimit="3.863" x1="77.4" y1="52.6" x2="64.3" y2="56.9"/>
		<line fill="none" stroke="#FFFFFF" stroke-width="1.1555" stroke-miterlimit="3.863" x1="64.3" y1="56.9" x2="45.9" y2="63"/>
		<line fill="none" stroke="#FFFFFF" stroke-width="1.1555" stroke-miterlimit="3.863" x1="91.5" y1="48" x2="77.4" y2="52.6"/>
		<line fill="none" stroke="#FFFFFF" stroke-width="1.1555" stroke-miterlimit="3.863" x1="66" y1="51.6" x2="54.7" y2="36"/>
		<line fill="none" stroke="#FFFFFF" stroke-width="1.1555" stroke-miterlimit="3.863" x1="84.5" y1="77.4" x2="74" y2="62.7"/>
		<line fill="none" stroke="#FFFFFF" stroke-width="1.1555" stroke-miterlimit="3.863" x1="71.5" y1="51.6" x2="82.8" y2="35.9"/>
		<line fill="none" stroke="#FFFFFF" stroke-width="1.1555" stroke-miterlimit="3.863" x1="52.7" y1="77.4" x2="63.4" y2="62.7"/>
		<line fill="none" stroke="#FFFFFF" stroke-width="1.1555" stroke-miterlimit="3.863" x1="60.1" y1="52.6" x2="46" y2="48"/>
		<line fill="none" stroke="#FFFFFF" stroke-width="1.1555" stroke-miterlimit="3.863" x1="91.4" y1="62.9" x2="73.2" y2="56.8"/>
		<line fill="none" stroke="#FFFFFF" stroke-width="1.1555" stroke-miterlimit="3.863" x1="68.7" y1="31.3" x2="68.7" y2="46.7"/>
		<line fill="none" stroke="#FFFFFF" stroke-width="0.5955" stroke-miterlimit="3.863" x1="64" y1="59" x2="56.5" y2="64.5"/>
		<line fill="none" stroke="#FFFFFF" stroke-width="0.5955" stroke-miterlimit="3.863" x1="81" y1="46.5" x2="73.6" y2="51.9"/>
		<line fill="none" stroke="#FFFFFF" stroke-width="0.5955" stroke-miterlimit="3.863" x1="67" y1="61" x2="64.1" y2="69.9"/>
		<line fill="none" stroke="#FFFFFF" stroke-width="0.5955" stroke-miterlimit="3.863" x1="73.5" y1="40.9" x2="70.6" y2="49.8"/>
		<line fill="none" stroke="#FFFFFF" stroke-width="0.5955" stroke-miterlimit="3.863" x1="70.6" y1="61" x2="73.4" y2="69.9"/>
		<line fill="none" stroke="#FFFFFF" stroke-width="0.5955" stroke-miterlimit="3.863" x1="64" y1="40.8" x2="66.9" y2="49.8"/>
		<line fill="none" stroke="#FFFFFF" stroke-width="0.5955" stroke-miterlimit="3.863" x1="73.4" y1="58.9" x2="80.9" y2="64.3"/>
		<line fill="none" stroke="#FFFFFF" stroke-width="0.5955" stroke-miterlimit="3.863" x1="56.4" y1="46.4" x2="63.8" y2="51.9"/>
		<line fill="none" stroke="#FFFFFF" stroke-width="0.5955" stroke-miterlimit="3.863" x1="74.6" y1="55.5" x2="84" y2="55.5"/>
		<line fill="none" stroke="#FFFFFF" stroke-width="0.5955" stroke-miterlimit="3.863" x1="53.6" y1="55.5" x2="62.9" y2="55.5"/>
		<path fill="none" stroke="#FFFFFF" stroke-width="0.6451" stroke-miterlimit="3.864" d="M84.2,96.3c0.4,0.6,1.3,2,1.2,2
			c0,0-2,0.1-2.7-0.5c-0.2-0.2-1.3-2.2-1.3-2.2S83.8,95.7,84.2,96.3z"/>
		<polygon fill="none" stroke="#FFFFFF" stroke-width="0.6451" stroke-miterlimit="3.864" points="47.7,86 44.2,94.1 51.2,94.1 		
			"/>
		<path fill="none" stroke="#FFFFFF" stroke-width="0.6451" stroke-miterlimit="3.864" d="M58.1,94.1c0,1.9,1.6,3.5,3.6,3.5
			c2,0,3.6-1.6,3.6-3.5H58.1z"/>
		<polygon fill="none" stroke="#FFFFFF" stroke-width="0.6451" stroke-miterlimit="3.864" points="61.7,86 65.2,94.1 58.2,94.1 		
			"/>
		<line fill="none" stroke="#FFFFFF" stroke-width="0.6451" stroke-miterlimit="3.864" x1="53.6" y1="107.5" x2="55.7" y2="106.5"/>
		<line fill="none" stroke="#FFFFFF" stroke-width="0.6451" stroke-miterlimit="3.864" x1="53.6" y1="106.1" x2="55.7" y2="105.2"/>
		<polygon fill="none" stroke="#FFFFFF" stroke-width="0.4135" stroke-miterlimit="3.864" points="54.6,85.8 47.7,85.8 47.7,85 
			54.5,85 		"/>
		<polygon fill="none" stroke="#FFFFFF" stroke-width="0.4135" stroke-miterlimit="3.864" points="54.7,85 61.7,85 61.7,85.8 
			54.8,85.8 		"/>
		<path fill="none" stroke="#FFFFFF" stroke-width="0.4135" stroke-miterlimit="3.864" d="M78.1,131.4c1,0,2.2-1,3.6-0.5"/>
		<path fill="none" stroke="#FFFFFF" stroke-width="0.4135" stroke-miterlimit="3.864" d="M78.1,132.4c1,0,2.2-0.9,3.6-0.5"/>
		<path fill="none" stroke="#FFFFFF" stroke-width="0.4135" stroke-miterlimit="3.864" d="M78.1,133.5c1,0,2.2-0.9,3.6-0.4"/>
		<path fill="none" stroke="#FFFFFF" stroke-width="0.4135" stroke-miterlimit="3.864" d="M78.1,134.5c1,0,2.2-0.8,3.6-0.4"/>
		<path fill="none" stroke="#FFFFFF" stroke-width="0.4135" stroke-miterlimit="3.864" d="M78,135.6c1,0,2.2-0.8,3.6-0.3"/>
		<path fill="none" stroke="#FFFFFF" stroke-width="0.4135" stroke-miterlimit="3.864" d="M78,136.6c1,0,2.2-0.8,3.6-0.3"/>
		<path fill="none" stroke="#FFFFFF" stroke-width="0.4135" stroke-miterlimit="3.864" d="M88.1,131.1c-1,0-2.2-0.7-3.6-0.2"/>
		<path fill="none" stroke="#FFFFFF" stroke-width="0.4135" stroke-miterlimit="3.864" d="M88.1,132.2c-1,0-2.2-0.7-3.6-0.2"/>
		<path fill="none" stroke="#FFFFFF" stroke-width="0.4135" stroke-miterlimit="3.864" d="M88.1,133.3c-1,0-2.2-0.7-3.6-0.2"/>
		<path fill="none" stroke="#FFFFFF" stroke-width="0.4135" stroke-miterlimit="3.864" d="M88.1,134.4c-1,0-2.2-0.7-3.6-0.2"/>
		<path fill="none" stroke="#FFFFFF" stroke-width="0.4135" stroke-miterlimit="3.864" d="M88.1,135.5c-1,0-2.2-0.7-3.6-0.3"/>
		<path fill="none" stroke="#FFFFFF" stroke-width="0.4135" stroke-miterlimit="3.864" d="M88.1,136.6c-1,0-2.2-0.7-3.6-0.3"/>
		<polygon fill="none" stroke="#FFFFFF" stroke-width="0.6451" stroke-miterlimit="3.864" points="68.8,109 75.1,120 62.4,120 		"/>
		<path fill="none" stroke="#FFFFFF" stroke-width="0.4466" stroke-miterlimit="3.864" d="M77.4,139.8l-0.4,0.4
			c-0.2,0.2-0.2,2,0,2.1c0.1,0,0.5,0.2,0.6,0.2c0.1,0-0.1-0.2-0.1-0.3c-0.1-0.5,0-1.6,0.1-1.8L78,140L77.4,139.8z"/>
		<polygon fill-rule="evenodd" clip-rule="evenodd" fill="#FFFFFF" points="68.1,60.1 69.3,60.1 69.3,107 68.7,107.7 68.5,108 
			68.2,107.7 		"/>
		<path fill="none" stroke="#FFFFFF" stroke-width="0.4466" stroke-miterlimit="3.864" d="M82.9,141.4l-0.4,0.4
			c-0.2,0.2-0.2,2,0,2.1c0,0,0.5,0.2,0.6,0.2c0.1,0,0-0.2-0.1-0.3c-0.1-0.5,0-1.6,0.1-1.8l0.4-0.4L82.9,141.4z"/>
		<path fill="none" stroke="#FFFFFF" stroke-width="0.4466" stroke-miterlimit="3.864" d="M84.2,141.7l-0.4,0.4
			c-0.2,0.2-0.2,2,0,2.1c0.1,0,0.5,0.2,0.6,0.2c0.1,0-0.1-0.2-0.1-0.3c-0.1-0.5,0-1.6,0.1-1.8l0.4-0.4L84.2,141.7z"/>
		<path fill="#FFFFFF" d="M39.6,174.4h8.7v0.4h-3v13.4c0,1.1,0.1,2.1,0.3,2.8c0.2,0.8,0.5,1.4,0.8,1.9s0.8,0.8,1.4,1
			c0.6,0.2,1.2,0.3,1.9,0.3c1,0,1.9-0.2,2.7-0.5s1.4-0.8,2-1.6c0.2-0.2,0.3-0.5,0.5-0.7c0.1-0.2,0.3-0.5,0.3-0.8
			c0.1-0.3,0.2-0.7,0.2-1.2c0.1-0.5,0.1-1,0.1-1.7v-12.9h-3v-0.4h6.4v0.4h-3v13.5c0,0.8-0.1,1.5-0.2,2.1c-0.2,0.6-0.5,1.3-1,2
			c-0.5,0.7-1.2,1.2-2,1.6c-0.9,0.4-2,0.6-3.4,0.6c-2.2,0-3.8-0.5-4.9-1.6c-1.1-1.1-1.7-2.8-1.7-5v-13.1h-3V174.4z"/>
		<polygon fill="#FFFFFF" points="59.7,193.8 62.7,193.8 62.7,174.8 59.7,174.8 59.7,174.4 65.4,174.4 74.5,189.6 74.6,189.6 
			74.6,174.8 71.6,174.8 71.6,174.4 78,174.4 78,174.8 75,174.8 75,194.6 74.5,194.6 63.1,176 63.1,176 63.1,193.8 66,193.8 
			66,194.2 59.7,194.2 		"/>
		<polygon fill="#FFFFFF" points="79,193.8 82,193.8 82,174.8 79,174.8 79,174.4 87.7,174.4 87.7,174.8 84.7,174.8 84.7,193.8 
			87.7,193.8 87.7,194.2 79,194.2 		"/>
		<polygon fill="#FFFFFF" points="87.9,174.4 96.2,174.4 96.2,174.8 93.2,174.8 99.2,190.9 105.1,174.8 102.2,174.8 102.2,174.4 
			108,174.4 108,174.8 105.6,174.8 98.3,194.6 97.6,194.6 90.3,174.8 87.9,174.8 		"/>
		<path fill="#FFFFFF" d="M108.1,193.8h3v-19h-3v-0.4h15.4v4.8h-0.3c-0.2-0.7-0.5-1.4-0.8-1.9c-0.3-0.5-0.6-1-1-1.4
			c-0.4-0.4-0.8-0.7-1.3-0.8c-0.5-0.2-1.2-0.3-1.9-0.3h-4.5v8.6h1.7c0.6,0,1.1-0.1,1.5-0.2c0.4-0.1,0.8-0.3,1.1-0.6
			c0.3-0.3,0.5-0.7,0.8-1.2c0.2-0.5,0.4-1.2,0.6-2h0.3v8.6h-0.3c-0.1-0.5-0.3-1.1-0.4-1.6c-0.1-0.5-0.3-0.9-0.6-1.3
			c-0.2-0.4-0.6-0.7-1-0.9c-0.4-0.2-0.9-0.3-1.6-0.3h-2.2v10h5.1c1,0,1.8-0.2,2.5-0.7c0.7-0.4,1.2-1,1.6-1.6
			c0.4-0.6,0.7-1.2,0.9-1.9c0.2-0.6,0.3-1.2,0.4-1.6h0.3v6.1h-16.4V193.8z"/>
		<path fill="#FFFFFF" d="M126.6,193.8h3v-19h-3v-0.4h5.1c0.2,0,0.4,0,0.6,0c0.2,0,0.4,0,0.6,0c0.2,0,0.4,0,0.6,0c0.2,0,0.4,0,0.6,0
			c1.1,0,2,0.1,2.8,0.2c0.8,0.1,1.6,0.5,2.3,1c0.6,0.5,1.1,1.1,1.3,1.7c0.3,0.6,0.4,1.2,0.4,1.8c0,0.3,0,0.6-0.1,1.1
			c-0.1,0.4-0.3,0.9-0.6,1.3c-0.3,0.5-0.8,0.9-1.4,1.2c-0.6,0.4-1.5,0.6-2.5,0.8v0.1c0.3,0,0.7,0.1,1.2,0.2c0.5,0.1,1,0.3,1.5,0.5
			c0.5,0.2,1,0.6,1.4,1c0.4,0.4,0.7,0.9,0.9,1.5c0.1,0.4,0.2,0.8,0.2,1.3c0,0.5,0.1,1,0.1,1.5c0,0.5,0.1,1,0.1,1.4
			c0,0.5,0.1,0.9,0.1,1.2c0.1,0.5,0.3,0.9,0.5,1.3c0.2,0.4,0.6,0.6,1.1,0.6c0.2,0,0.5,0,0.7-0.1c0.3-0.1,0.5-0.2,0.7-0.4l0.2,0.3
			c-0.1,0.1-0.2,0.2-0.3,0.2c-0.1,0.1-0.3,0.2-0.4,0.2c-0.2,0.1-0.4,0.1-0.7,0.2c-0.3,0-0.6,0.1-1,0.1c-0.7,0-1.3-0.1-1.8-0.3
			c-0.5-0.2-0.9-0.5-1.1-0.8c-0.3-0.4-0.5-0.8-0.6-1.3c-0.1-0.5-0.2-1.1-0.3-1.8l-0.2-2.5c-0.1-0.9-0.3-1.6-0.5-2.2
			c-0.3-0.5-0.6-0.9-1-1.1c-0.4-0.2-0.8-0.4-1.2-0.4c-0.4,0-0.8-0.1-1.1-0.1h-2.7v10h3v0.4h-8.7V193.8z M132.3,183.4h2.5
			c0.5,0,1-0.1,1.4-0.2c0.4-0.1,0.8-0.4,1.1-0.7c0.3-0.3,0.5-0.8,0.7-1.3c0.2-0.6,0.2-1.3,0.2-2.1c0-1-0.1-1.7-0.4-2.3
			c-0.2-0.6-0.6-1-0.9-1.3c-0.4-0.3-0.8-0.5-1.3-0.6c-0.5-0.1-0.9-0.1-1.4-0.1c-0.3,0-0.6,0-1,0c-0.3,0-0.6,0-0.9,0.1V183.4z"/>
		<path fill="#FFFFFF" d="M146.9,188.2h0.3c0.2,1,0.5,1.8,0.8,2.5c0.3,0.7,0.7,1.3,1,1.7c0.4,0.4,0.8,0.8,1.2,1
			c0.4,0.2,0.8,0.4,1.2,0.5c0.4,0.1,0.8,0.2,1.2,0.2c0.4,0,0.7,0,1.1,0c1,0,1.7-0.1,2.3-0.4c0.6-0.3,1.1-0.7,1.5-1.1
			c0.4-0.4,0.6-0.9,0.8-1.5c0.1-0.5,0.2-1,0.2-1.5c0-0.6-0.1-1.2-0.3-1.7c-0.2-0.5-0.5-0.9-0.9-1.2c-0.4-0.3-0.8-0.6-1.2-0.8
			c-0.4-0.2-0.8-0.4-1.2-0.5l-3.1-1c-1.5-0.5-2.6-1.1-3.3-1.8c-0.7-0.8-1.1-1.8-1.1-3.1c0-0.8,0.1-1.6,0.4-2.3
			c0.3-0.7,0.7-1.3,1.2-1.8c0.5-0.5,1.2-0.9,1.9-1.2c0.7-0.3,1.5-0.4,2.4-0.4c0.6,0,1.2,0.1,1.6,0.2c0.4,0.1,0.8,0.2,1.1,0.4
			c0.3,0.1,0.6,0.3,0.8,0.4c0.2,0.1,0.5,0.2,0.7,0.2c0.2,0,0.4,0,0.5-0.1c0.1-0.1,0.2-0.2,0.3-0.5h0.4v5h-0.3
			c-0.1-0.7-0.3-1.3-0.6-1.9c-0.3-0.6-0.6-1.2-1-1.6c-0.4-0.5-0.9-0.9-1.5-1.1c-0.6-0.3-1.3-0.4-2-0.4c-0.4,0-0.9,0.1-1.4,0.2
			c-0.5,0.1-1,0.3-1.5,0.6c-0.4,0.3-0.8,0.7-1.1,1.2c-0.3,0.5-0.4,1.1-0.4,1.8c0,0.6,0.1,1.1,0.4,1.5c0.2,0.4,0.5,0.8,0.9,1.1
			c0.4,0.3,0.8,0.5,1.2,0.7c0.5,0.2,0.9,0.4,1.4,0.5l3.3,1.1c0.3,0.1,0.8,0.3,1.3,0.4c0.5,0.2,1,0.5,1.5,0.8
			c0.5,0.4,0.9,0.9,1.3,1.5c0.4,0.6,0.5,1.4,0.5,2.3c0,0.9-0.2,1.7-0.5,2.5c-0.3,0.8-0.8,1.5-1.4,2.1c-0.6,0.6-1.3,1.1-2.2,1.4
			c-0.8,0.4-1.8,0.5-2.9,0.5c-0.4,0-0.7,0-1,0c-0.3,0-0.6,0-0.8-0.1c-0.3,0-0.5-0.1-0.8-0.1c-0.3,0-0.5-0.1-0.8-0.2
			c-0.4-0.1-0.7-0.2-1.2-0.4c-0.4-0.1-0.8-0.2-1.1-0.2c-0.3,0-0.5,0.1-0.6,0.2c-0.1,0.1-0.2,0.3-0.3,0.4h-0.4V188.2z"/>
		<polygon fill="#FFFFFF" points="163.3,193.8 166.3,193.8 166.3,174.8 163.3,174.8 163.3,174.4 172,174.4 172,174.8 169,174.8 
			169,193.8 172,193.8 172,194.2 163.3,194.2 		"/>
		<path fill="#FFFFFF" d="M173.3,193.8h3v-19h-3v-0.4h5c0.2,0,0.5,0,0.8,0c0.3,0,0.5,0,0.8,0c0.3,0,0.5,0,0.8,0c0.3,0,0.5,0,0.8,0
			c0.5,0,1,0,1.4,0c0.4,0,0.8,0.1,1.2,0.1c0.4,0,0.7,0.1,1.1,0.2c0.3,0.1,0.7,0.2,1.1,0.3c1.1,0.4,2,0.9,2.8,1.5
			c0.8,0.6,1.5,1.3,2,2.2c0.5,0.8,0.9,1.7,1.1,2.7c0.2,1,0.4,2,0.4,3c0,1.2-0.1,2.3-0.4,3.3c-0.3,1-0.7,1.8-1.2,2.6
			c-0.5,0.7-1.1,1.4-1.8,1.9c-0.7,0.5-1.4,1-2.2,1.3c-0.4,0.2-0.8,0.4-1.2,0.5c-0.4,0.1-0.8,0.2-1.2,0.3c-0.4,0.1-0.9,0.1-1.3,0.1
			c-0.5,0-1,0-1.7,0c-0.3,0-0.6,0-0.9,0c-0.3,0-0.6,0-0.9,0c-0.3,0-0.6,0-0.9,0c-0.3,0-0.6,0-0.9,0h-4.6V193.8z M179,193.8
			c0.3,0,0.7,0.1,1.1,0.1c0.4,0,0.9,0,1.3,0c0.6,0,1.2,0,1.8-0.1c0.6-0.1,1.2-0.2,1.7-0.4c0.5-0.2,1.1-0.5,1.5-0.9
			c0.5-0.4,0.9-0.9,1.3-1.6c0.6-1,1-2,1.2-3.1c0.2-1,0.3-2.2,0.3-3.4c0-1.5-0.1-2.8-0.4-4c-0.3-1.2-0.7-2.2-1.3-3.1
			c-0.6-0.8-1.4-1.5-2.5-2c-1-0.5-2.3-0.7-3.8-0.7c-0.4,0-0.9,0-1.2,0c-0.4,0-0.7,0-1.1,0.1V193.8z"/>
		<path fill="#FFFFFF" d="M192.6,193.8h2.4l7.3-19.9h0.6l7.3,19.9h2.4v0.4h-8.3v-0.4h3l-2.8-7.7h-6.3l-2.8,7.7h3v0.4h-5.8V193.8z
			 M201.3,177.6l-3,8.1h5.9L201.3,177.6z"/>
		<path fill="#FFFFFF" d="M213,193.8h3v-19h-3v-0.4h5c0.3,0,0.5,0,0.8,0c0.3,0,0.5,0,0.8,0c0.3,0,0.5,0,0.8,0c0.2,0,0.5,0,0.8,0
			c0.5,0,1,0,1.4,0c0.4,0,0.8,0.1,1.2,0.1c0.4,0,0.7,0.1,1.1,0.2c0.3,0.1,0.7,0.2,1.1,0.3c1.1,0.4,2,0.9,2.8,1.5
			c0.8,0.6,1.5,1.3,2,2.2c0.5,0.8,0.9,1.7,1.1,2.7c0.2,1,0.4,2,0.4,3c0,1.2-0.1,2.3-0.4,3.3c-0.3,1-0.7,1.8-1.2,2.6
			c-0.5,0.7-1.1,1.4-1.8,1.9c-0.7,0.5-1.4,1-2.2,1.3c-0.4,0.2-0.8,0.4-1.2,0.5c-0.4,0.1-0.8,0.2-1.2,0.3c-0.4,0.1-0.8,0.1-1.3,0.1
			c-0.5,0-1,0-1.7,0c-0.3,0-0.6,0-0.9,0c-0.3,0-0.6,0-0.9,0c-0.3,0-0.6,0-0.9,0c-0.3,0-0.6,0-0.9,0H213V193.8z M218.6,193.8
			c0.3,0,0.7,0.1,1.1,0.1c0.4,0,0.9,0,1.3,0c0.6,0,1.2,0,1.8-0.1c0.6-0.1,1.2-0.2,1.7-0.4c0.5-0.2,1.1-0.5,1.5-0.9
			c0.5-0.4,0.9-0.9,1.3-1.6c0.6-1,1-2,1.2-3.1c0.2-1,0.3-2.2,0.3-3.4c0-1.5-0.1-2.8-0.4-4c-0.3-1.2-0.7-2.2-1.3-3.1
			c-0.6-0.8-1.4-1.5-2.5-2c-1-0.5-2.3-0.7-3.8-0.7c-0.5,0-0.9,0-1.2,0c-0.4,0-0.7,0-1.1,0.1V193.8z"/>
		<path fill="#FFFFFF" d="M241.6,193.8h3v-19h-3v-0.4h5c0.3,0,0.5,0,0.8,0c0.3,0,0.5,0,0.8,0c0.2,0,0.5,0,0.8,0c0.3,0,0.5,0,0.8,0
			c0.5,0,1,0,1.4,0c0.4,0,0.8,0.1,1.2,0.1c0.4,0,0.7,0.1,1.1,0.2c0.3,0.1,0.7,0.2,1.1,0.3c1.1,0.4,2,0.9,2.8,1.5
			c0.8,0.6,1.5,1.3,2,2.2c0.5,0.8,0.9,1.7,1.1,2.7c0.2,1,0.4,2,0.4,3c0,1.2-0.1,2.3-0.4,3.3c-0.3,1-0.7,1.8-1.2,2.6
			c-0.5,0.7-1.1,1.4-1.8,1.9c-0.7,0.5-1.4,1-2.2,1.3c-0.4,0.2-0.8,0.4-1.2,0.5c-0.4,0.1-0.8,0.2-1.2,0.3c-0.4,0.1-0.8,0.1-1.3,0.1
			c-0.5,0-1,0-1.7,0c-0.3,0-0.6,0-0.9,0c-0.3,0-0.6,0-0.9,0c-0.3,0-0.6,0-0.9,0c-0.3,0-0.6,0-0.9,0h-4.6V193.8z M247.3,193.8
			c0.3,0,0.7,0.1,1.1,0.1c0.4,0,0.8,0,1.3,0c0.6,0,1.2,0,1.8-0.1c0.6-0.1,1.2-0.2,1.7-0.4c0.5-0.2,1.1-0.5,1.5-0.9
			c0.5-0.4,0.9-0.9,1.3-1.6c0.6-1,1-2,1.2-3.1c0.2-1,0.3-2.2,0.3-3.4c0-1.5-0.1-2.8-0.4-4c-0.3-1.2-0.7-2.2-1.3-3.1
			c-0.6-0.8-1.4-1.5-2.5-2c-1-0.5-2.3-0.7-3.8-0.7c-0.5,0-0.9,0-1.2,0c-0.4,0-0.7,0-1.1,0.1V193.8z"/>
		<path fill="#FFFFFF" d="M263.2,193.8h3v-19h-3v-0.4h15.4v4.8h-0.3c-0.2-0.7-0.5-1.4-0.7-1.9c-0.3-0.5-0.6-1-1-1.4
			c-0.4-0.4-0.8-0.7-1.3-0.8c-0.5-0.2-1.2-0.3-1.9-0.3h-4.5v8.6h1.7c0.6,0,1.1-0.1,1.5-0.2c0.4-0.1,0.8-0.3,1.1-0.6
			c0.3-0.3,0.6-0.7,0.8-1.2c0.2-0.5,0.4-1.2,0.6-2h0.3v8.6h-0.3c-0.1-0.5-0.3-1.1-0.4-1.6c-0.1-0.5-0.3-0.9-0.6-1.3
			c-0.2-0.4-0.6-0.7-1-0.9c-0.4-0.2-0.9-0.3-1.6-0.3h-2.2v10h5.1c1,0,1.8-0.2,2.5-0.7c0.7-0.4,1.2-1,1.6-1.6
			c0.4-0.6,0.7-1.2,0.9-1.9c0.2-0.6,0.3-1.2,0.4-1.6h0.3v6.1h-16.4V193.8z"/>
		<path fill="#FFFFFF" d="M306.1,194.2h-0.4c-0.1-0.1-0.3-0.3-0.4-0.4c-0.2-0.1-0.4-0.2-0.8-0.2c-0.3,0-0.6,0.1-0.9,0.2
			c-0.3,0.1-0.7,0.2-1.1,0.3c-0.4,0.1-0.9,0.2-1.4,0.3c-0.5,0.1-1.1,0.2-1.7,0.2c-1.1,0-2.2-0.2-3.3-0.6c-1.1-0.4-2.1-1.1-3-2.1
			c-0.9-0.9-1.6-2-2.2-3.2c-0.6-1.2-0.9-2.7-0.9-4.3c0-1.4,0.2-2.7,0.7-4c0.5-1.3,1.2-2.4,2-3.3c0.9-1,1.9-1.7,3-2.3
			c1.2-0.6,2.4-0.8,3.8-0.8c0.6,0,1,0.1,1.5,0.2c0.4,0.1,0.8,0.2,1.2,0.4c0.3,0.1,0.7,0.3,0.9,0.4c0.3,0.1,0.6,0.2,0.8,0.2
			c0.4,0,0.6-0.1,0.8-0.2c0.1-0.1,0.3-0.3,0.4-0.4h0.4v5.6h-0.3c-0.2-0.7-0.4-1.4-0.6-2.1c-0.3-0.7-0.6-1.3-1.1-1.8
			c-0.5-0.5-1-1-1.7-1.3c-0.7-0.3-1.6-0.5-2.6-0.5c-0.9,0-1.8,0.2-2.5,0.5c-0.7,0.3-1.3,0.7-1.7,1.2c-0.5,0.5-0.8,1.1-1.1,1.8
			c-0.3,0.7-0.5,1.4-0.6,2.1c-0.1,0.8-0.2,1.5-0.3,2.3c0,0.8-0.1,1.5-0.1,2.2c0,1.9,0.2,3.6,0.5,4.8c0.3,1.3,0.7,2.3,1.3,3
			c0.5,0.7,1.2,1.3,2,1.6c0.8,0.3,1.6,0.4,2.6,0.4c1.2,0,2.2-0.2,2.9-0.5c0.7-0.3,1.3-0.8,1.8-1.4c0.4-0.6,0.8-1.2,1-1.9
			c0.2-0.7,0.4-1.4,0.6-2.1h0.3V194.2z"/>
		<polygon fill="#FFFFFF" points="307.9,193.8 310.9,193.8 310.9,174.8 307.9,174.8 307.9,174.4 316.6,174.4 316.6,174.8 
			313.6,174.8 313.6,183.9 322.5,183.9 322.5,174.8 319.6,174.8 319.6,174.4 328.2,174.4 328.2,174.8 325.2,174.8 325.2,193.8 
			328.2,193.8 328.2,194.2 319.6,194.2 319.6,193.8 322.5,193.8 322.5,184.3 313.6,184.3 313.6,193.8 316.6,193.8 316.6,194.2 
			307.9,194.2 		"/>
		<polygon fill="#FFFFFF" points="329.5,193.8 332.5,193.8 332.5,174.8 329.5,174.8 329.5,174.4 338.2,174.4 338.2,174.8 
			335.2,174.8 335.2,193.8 338.2,193.8 338.2,194.2 329.5,194.2 		"/>
		<path fill="#FFFFFF" d="M339.5,193.8h3v-19h-3v-0.4h8.7v0.4h-3v19h4.8c1.6,0,2.8-0.5,3.7-1.5c0.9-1,1.6-2.4,2-4.2h0.3v6.1h-16.5
			V193.8z"/>
		<path fill="#FFFFFF" d="M357.6,193.8h3v-19h-3v-0.4H373v4.8h-0.3c-0.2-0.7-0.5-1.4-0.8-1.9c-0.3-0.5-0.6-1-1-1.4
			c-0.4-0.4-0.8-0.7-1.3-0.8c-0.5-0.2-1.2-0.3-1.9-0.3h-4.5v8.6h1.8c0.6,0,1.1-0.1,1.5-0.2c0.4-0.1,0.8-0.3,1.1-0.6
			c0.3-0.3,0.6-0.7,0.8-1.2c0.2-0.5,0.4-1.2,0.6-2h0.3v8.6h-0.3c-0.1-0.5-0.3-1.1-0.4-1.6c-0.1-0.5-0.3-0.9-0.6-1.3
			c-0.2-0.4-0.6-0.7-1-0.9c-0.4-0.2-0.9-0.3-1.6-0.3h-2.2v10h5.1c1,0,1.8-0.2,2.5-0.7c0.7-0.4,1.2-1,1.6-1.6
			c0.4-0.6,0.7-1.2,0.9-1.9c0.2-0.6,0.3-1.2,0.4-1.6h0.3v6.1h-16.4V193.8z"/>
	</g>
</g>
</svg>
