<?xml version="1.0" encoding="UTF-8" standalone="no"?>
<!-- Created with Inkscape (http://www.inkscape.org/) -->

<svg
   xmlns:dc="http://purl.org/dc/elements/1.1/"
   xmlns:cc="http://creativecommons.org/ns#"
   xmlns:rdf="http://www.w3.org/1999/02/22-rdf-syntax-ns#"
   xmlns:svg="http://www.w3.org/2000/svg"
   xmlns="http://www.w3.org/2000/svg"
   xmlns:sodipodi="http://sodipodi.sourceforge.net/DTD/sodipodi-0.dtd"
   xmlns:inkscape="http://www.inkscape.org/namespaces/inkscape"
   id="svg2"
   version="1.1"
   inkscape:version="0.91 r13725"
   xml:space="preserve"
   width="117.6311"
   height="270.25064"
   viewBox="0 0 117.6311 270.25064"
   sodipodi:docname="beauchef_proyecta_vertical.svg"><metadata
     id="metadata8"><rdf:RDF><cc:Work
         rdf:about=""><dc:format>image/svg+xml</dc:format><dc:type
           rdf:resource="http://purl.org/dc/dcmitype/StillImage" /><dc:title></dc:title></cc:Work></rdf:RDF></metadata><defs
     id="defs6"><clipPath
       clipPathUnits="userSpaceOnUse"
       id="clipPath18"><path
         d="M 0,0 566,0 566,566 0,566 0,0 Z"
         id="path20"
         inkscape:connector-curvature="0" /></clipPath><clipPath
       clipPathUnits="userSpaceOnUse"
       id="clipPath24"><path
         d="m 41,44 479,0 0,480 -479,0 0,-480 z"
         id="path26"
         inkscape:connector-curvature="0" /></clipPath><clipPath
       clipPathUnits="userSpaceOnUse"
       id="clipPath28"><path
         d="m 41,44 479,0 0,480 -479,0 0,-480 z"
         id="path30"
         inkscape:connector-curvature="0" /></clipPath><clipPath
       clipPathUnits="userSpaceOnUse"
       id="clipPath32"><path
         d="m 0,566.93 566.93,0 L 566.93,0 0,0 0,566.93 Z"
         id="path34"
         inkscape:connector-curvature="0" /></clipPath><clipPath
       clipPathUnits="userSpaceOnUse"
       id="clipPath36"><path
         d="m 41,44 479,0 0,480 -479,0 0,-480 z"
         id="path38"
         inkscape:connector-curvature="0" /></clipPath><clipPath
       clipPathUnits="userSpaceOnUse"
       id="clipPath40"><path
         d="m 41,44 479,0 0,480 -479,0 0,-480 z"
         id="path42"
         inkscape:connector-curvature="0" /></clipPath></defs><sodipodi:namedview
     pagecolor="#ffffff"
     bordercolor="#666666"
     borderopacity="1"
     objecttolerance="10"
     gridtolerance="10"
     guidetolerance="10"
     inkscape:pageopacity="0"
     inkscape:pageshadow="2"
     inkscape:window-width="1855"
     inkscape:window-height="1056"
     id="namedview4"
     showgrid="false"
     inkscape:zoom="2.469962"
     inkscape:cx="-7.4280966"
     inkscape:cy="162.31338"
     inkscape:window-x="65"
     inkscape:window-y="24"
     inkscape:window-maximized="1"
     inkscape:current-layer="g10" /><g
     id="g10"
     inkscape:groupmode="layer"
     inkscape:label="logo_bp_2"
     transform="matrix(1.25,0,0,-1.25,-75.615525,486.757)"><g
       id="g12" /><g
       id="g22" /><g
       id="g48" /><path
       inkscape:connector-curvature="0"
       id="path168"
       style="fill:#556068;fill-opacity:1;fill-rule:nonzero;stroke:none"
       d="m 66.6267,235.2069 1.526,0 c 1.249,0 1.907,0.601 1.977,1.803 l 0.208,3.885 c 0.069,1.202 -0.382,1.803 -1.353,1.803 l -1.942,0 -0.416,-7.491 z m -0.59,-11.376 2.463,0 c 0.855,0 1.306,0.358 1.352,1.075 l 0.278,5.515 c 0.069,1.179 -0.544,1.768 -1.838,1.768 l -1.804,0 -0.451,-8.358 z m 4.856,9.78 c 1.757,-0.508 2.601,-1.456 2.532,-2.844 l -0.347,-6.242 c -0.116,-2.475 -1.411,-3.711 -3.885,-3.711 l -6.555,0 1.284,24.901 5.584,0 c 2.889,0 4.253,-1.503 4.092,-4.508 l -0.243,-4.786 c -0.069,-1.434 -0.89,-2.313 -2.462,-2.636 l 0,-0.174 z" /><path
       inkscape:connector-curvature="0"
       id="path170"
       style="fill:#556068;fill-opacity:1;fill-rule:nonzero;stroke:none"
       d="m 75.0853,220.8135 1.283,24.902 8.116,0 -0.139,-3.018 -4.855,0 -0.416,-7.56 4.3,0 -0.139,-3.018 -4.3,0 -0.451,-8.289 4.856,0 -0.139,-3.017 -8.116,0 z" /><path
       inkscape:connector-curvature="0"
       id="path172"
       style="fill:#556068;fill-opacity:1;fill-rule:nonzero;stroke:none"
       d="m 92.2562,232.9524 0.451,8.289 c 0.046,0.971 -0.405,1.457 -1.353,1.457 l -0.902,0 c -0.948,0 -1.445,-0.486 -1.491,-1.457 l -0.451,-8.289 3.746,0 z m -4.37,-12.139 -3.26,0 1.075,20.636 c 0.139,2.844 1.514,4.266 4.127,4.266 l 2.428,0 c 2.613,0 3.85,-1.422 3.711,-4.266 l -1.075,-20.636 -3.26,0 0.451,9.121 -3.746,0 -0.451,-9.121 z" /><path
       inkscape:connector-curvature="0"
       id="path174"
       style="fill:#556068;fill-opacity:1;fill-rule:nonzero;stroke:none"
       d="m 109.1983,245.7151 -1.04,-20.185 c -0.162,-3.144 -1.561,-4.717 -4.197,-4.717 l -2.74,0 c -2.613,0 -3.838,1.584 -3.676,4.752 l 1.04,20.15 3.26,0 -1.04,-20.254 c -0.069,-1.087 0.37,-1.63 1.318,-1.63 l 1.352,0 c 0.879,0 1.353,0.543 1.422,1.63 l 1.041,20.254 3.26,0 z" /><path
       inkscape:connector-curvature="0"
       id="path176"
       style="fill:#556068;fill-opacity:1;fill-rule:nonzero;stroke:none"
       d="m 120.4661,226.6401 -0.104,-1.595 c -0.139,-2.822 -1.515,-4.232 -4.127,-4.232 l -2.081,0 c -2.613,0 -3.85,1.41 -3.711,4.232 l 0.867,16.439 c 0.139,2.82 1.514,4.231 4.127,4.231 l 2.081,0 c 2.613,0 3.85,-1.411 3.711,-4.231 l -0.139,-2.809 -3.26,0 0.139,2.566 c 0.046,0.971 -0.416,1.457 -1.387,1.457 l -0.659,0 c -0.856,0 -1.307,-0.486 -1.353,-1.457 l -0.867,-15.954 c -0.047,-0.971 0.358,-1.457 1.214,-1.457 l 0.832,0 c 0.855,0 1.306,0.486 1.353,1.457 l 0.104,1.353 3.26,0 z" /><path
       inkscape:connector-curvature="0"
       id="path178"
       style="fill:#556068;fill-opacity:1;fill-rule:nonzero;stroke:none"
       d="m 129.0984,220.8135 0.59,11.306 -4.023,0 -0.59,-11.306 -3.26,0 1.283,24.902 3.26,0 -0.555,-10.578 4.023,0 0.555,10.578 3.26,0 -1.283,-24.902 -3.26,0 z" /><path
       inkscape:connector-curvature="0"
       id="path180"
       style="fill:#556068;fill-opacity:1;fill-rule:nonzero;stroke:none"
       d="m 134.8728,220.8135 1.283,24.902 8.116,0 -0.139,-3.018 -4.855,0 -0.416,-7.56 4.3,0 -0.139,-3.018 -4.3,0 -0.451,-8.289 4.856,0 -0.139,-3.017 -8.116,0 z" /><path
       inkscape:connector-curvature="0"
       id="path182"
       style="fill:#556068;fill-opacity:1;fill-rule:nonzero;stroke:none"
       d="m 152.8001,235.1375 -0.139,-3.018 -4.3,0 -0.59,-11.306 -3.26,0 1.283,24.902 8.116,0 -0.139,-3.017 -4.856,0 -0.416,-7.561 4.301,0 z" /><path
       inkscape:connector-curvature="0"
       id="path184"
       style="fill:#ed1c24;fill-opacity:1;fill-rule:nonzero;stroke:none"
       d="m 66.4639,199.2846 2.081,0 c 0.855,0 1.306,0.486 1.352,1.457 l 0.382,6.936 c 0.046,0.971 -0.416,1.457 -1.387,1.457 l -1.908,0 -0.52,-9.85 z m -2.601,12.867 5.93,0 c 2.636,0 3.885,-1.422 3.746,-4.266 l -0.381,-7.387 c -0.162,-2.821 -1.55,-4.231 -4.162,-4.231 l -2.705,0 -0.451,-9.018 -3.261,0 1.284,24.902 z" /><path
       inkscape:connector-curvature="0"
       id="path186"
       style="fill:#ed1c24;fill-opacity:1;fill-rule:nonzero;stroke:none"
       d="m 78.0164,200.1521 2.15,0 c 0.971,0 1.491,0.601 1.561,1.803 l 0.277,5.376 c 0.07,1.202 -0.381,1.803 -1.352,1.803 l -2.151,0 -0.485,-8.982 z m -2.636,12 6.382,0 c 2.497,0 3.676,-1.422 3.537,-4.266 l -0.312,-6.139 c -0.116,-2.174 -0.844,-3.55 -2.185,-4.127 l 1.769,-10.37 -3.087,0 -1.63,10.058 -1.977,0 -0.52,-10.058 -3.26,0 1.283,24.902 z" /><path
       inkscape:connector-curvature="0"
       id="path188"
       style="fill:#ed1c24;fill-opacity:1;fill-rule:nonzero;stroke:none"
       d="m 91.1295,190.2672 1.665,0 c 0.878,0 1.34,0.486 1.387,1.457 l 0.867,15.953 c 0.046,0.972 -0.416,1.457 -1.387,1.457 l -1.561,0 c -0.948,0 -1.445,-0.485 -1.491,-1.457 l -0.867,-15.953 c -0.047,-0.971 0.416,-1.457 1.387,-1.457 m -0.902,-3.017 c -2.635,0 -3.884,1.41 -3.745,4.231 l 0.867,16.405 c 0.138,2.844 1.514,4.265 4.127,4.265 l 3.121,0 c 2.613,0 3.85,-1.421 3.711,-4.265 l -0.867,-16.405 c -0.139,-2.821 -1.526,-4.231 -4.162,-4.231 l -3.052,0 z" /><path
       inkscape:connector-curvature="0"
       id="path190"
       style="fill:#ed1c24;fill-opacity:1;fill-rule:nonzero;stroke:none"
       d="m 105.3424,187.2501 -3.26,0 0.485,9.156 -3.225,15.746 3.225,0 1.908,-10.821 0.104,0 2.775,10.821 3.225,0 -4.751,-15.746 -0.486,-9.156 z" /><path
       inkscape:connector-curvature="0"
       id="path192"
       style="fill:#ed1c24;fill-opacity:1;fill-rule:nonzero;stroke:none"
       d="m 110.5787,187.2501 1.283,24.902 8.116,0 -0.139,-3.018 -4.855,0 -0.416,-7.56 4.3,0 -0.139,-3.018 -4.3,0 -0.451,-8.289 4.856,0 -0.139,-3.017 -8.116,0 z" /><path
       inkscape:connector-curvature="0"
       id="path194"
       style="fill:#ed1c24;fill-opacity:1;fill-rule:nonzero;stroke:none"
       d="m 130.3335,193.0767 -0.104,-1.595 c -0.139,-2.822 -1.515,-4.232 -4.127,-4.232 l -2.081,0 c -2.613,0 -3.85,1.41 -3.711,4.232 l 0.867,16.439 c 0.139,2.82 1.514,4.231 4.127,4.231 l 2.081,0 c 2.613,0 3.85,-1.411 3.711,-4.231 l -0.139,-2.809 -3.26,0 0.139,2.566 c 0.046,0.971 -0.416,1.457 -1.387,1.457 l -0.659,0 c -0.856,0 -1.307,-0.486 -1.353,-1.457 l -0.867,-15.954 c -0.047,-0.971 0.358,-1.457 1.214,-1.457 l 0.832,0 c 0.855,0 1.306,0.486 1.353,1.457 l 0.104,1.353 3.26,0 z" /><path
       inkscape:connector-curvature="0"
       id="path196"
       style="fill:#ed1c24;fill-opacity:1;fill-rule:nonzero;stroke:none"
       d="m 138.5496,209.1346 -1.144,-21.884 -3.261,0 1.145,21.884 -3.122,0 0.139,3.017 9.503,0 -0.139,-3.017 -3.121,0 z" /><path
       inkscape:connector-curvature="0"
       id="path198"
       style="fill:#ed1c24;fill-opacity:1;fill-rule:nonzero;stroke:none"
       d="m 149.3563,199.389 0.451,8.289 c 0.046,0.971 -0.405,1.457 -1.353,1.457 l -0.902,0 c -0.948,0 -1.445,-0.486 -1.491,-1.457 l -0.451,-8.289 3.746,0 z m -4.37,-12.139 -3.26,0 1.075,20.636 c 0.139,2.844 1.514,4.266 4.127,4.266 l 2.428,0 c 2.613,0 3.85,-1.422 3.711,-4.266 l -1.075,-20.636 -3.26,0 0.451,9.121 -3.746,0 -0.451,-9.121 z" /><path
       inkscape:connector-curvature="0"
       id="path200"
       style="fill:#556068;fill-opacity:1;fill-rule:nonzero;stroke:none"
       d="m 62.9778,177.742 -1.025,0 0,-1.594 1.025,0 c 0.501,0 0.85,0.27 0.85,0.8 0,0.529 -0.349,0.794 -0.85,0.794 m 0.039,-1.977 -1.064,0 0,-1.65 -0.428,0 0,4.01 1.492,0 c 0.733,0 1.24,-0.456 1.24,-1.177 0,-0.721 -0.507,-1.183 -1.24,-1.183" /><path
       inkscape:connector-curvature="0"
       id="path202"
       style="fill:#556068;fill-opacity:1;fill-rule:nonzero;stroke:none"
       d="m 66.6331,177.742 -1.07,0 0,-1.47 1.07,0 c 0.467,0 0.8,0.242 0.8,0.732 0,0.49 -0.333,0.738 -0.8,0.738 m 0.805,-3.627 -0.912,1.78 -0.963,0 0,-1.78 -0.428,0 0,4.01 1.537,0 c 0.699,0 1.189,-0.422 1.189,-1.115 0,-0.586 -0.355,-0.969 -0.873,-1.076 l 0.952,-1.819 -0.502,0 z" /><path
       inkscape:connector-curvature="0"
       id="path204"
       style="fill:#556068;fill-opacity:1;fill-rule:nonzero;stroke:none"
       d="m 70.8256,177.4886 c -0.175,0.18 -0.428,0.287 -0.693,0.287 -0.264,0 -0.518,-0.107 -0.693,-0.287 -0.253,-0.259 -0.281,-0.529 -0.281,-1.369 0,-0.839 0.028,-1.109 0.281,-1.368 0.175,-0.181 0.429,-0.288 0.693,-0.288 0.265,0 0.518,0.107 0.693,0.288 0.253,0.259 0.282,0.529 0.282,1.368 0,0.84 -0.029,1.11 -0.282,1.369 m 0.332,-2.991 c -0.27,-0.27 -0.625,-0.417 -1.025,-0.417 -0.4,0 -0.755,0.147 -1.025,0.417 -0.377,0.378 -0.377,0.772 -0.377,1.622 0,0.851 0,1.245 0.377,1.622 0.27,0.271 0.625,0.417 1.025,0.417 0.4,0 0.755,-0.146 1.025,-0.417 0.378,-0.377 0.378,-0.771 0.378,-1.622 0,-0.85 0,-1.244 -0.378,-1.622" /><path
       inkscape:connector-curvature="0"
       id="path206"
       style="fill:#556068;fill-opacity:1;fill-rule:nonzero;stroke:none"
       d="m 73.6338,175.7707 0,-1.656 -0.428,0 0,1.656 -1.194,2.354 0.462,0 0.946,-1.92 0.935,1.92 0.462,0 -1.183,-2.354 z" /><path
       inkscape:connector-curvature="0"
       id="path208"
       style="fill:#556068;fill-opacity:1;fill-rule:nonzero;stroke:none"
       d="m 75.6061,174.1149 0,4.01 2.489,0 0,-0.383 -2.061,0 0,-1.414 1.757,0 0,-0.382 -1.757,0 0,-1.448 2.061,0 0,-0.383 -2.489,0 z" /><path
       inkscape:connector-curvature="0"
       id="path210"
       style="fill:#556068;fill-opacity:1;fill-rule:nonzero;stroke:none"
       d="m 80.1805,174.0811 c -0.394,0 -0.755,0.146 -1.025,0.417 -0.377,0.377 -0.377,0.771 -0.377,1.622 0,0.85 0,1.245 0.377,1.622 0.27,0.27 0.631,0.417 1.025,0.417 0.721,0 1.256,-0.44 1.391,-1.194 l -0.439,0 c -0.107,0.49 -0.451,0.811 -0.952,0.811 -0.265,0 -0.518,-0.102 -0.693,-0.282 -0.253,-0.259 -0.281,-0.535 -0.281,-1.374 0,-0.839 0.028,-1.115 0.281,-1.374 0.175,-0.181 0.428,-0.282 0.693,-0.282 0.501,0 0.856,0.321 0.963,0.811 l 0.428,0 c -0.129,-0.755 -0.676,-1.194 -1.391,-1.194" /><path
       inkscape:connector-curvature="0"
       id="path212"
       style="fill:#556068;fill-opacity:1;fill-rule:nonzero;stroke:none"
       d="m 83.7541,177.742 0,-3.627 -0.428,0 0,3.627 -1.16,0 0,0.383 2.748,0 0,-0.383 -1.16,0 z" /><path
       inkscape:connector-curvature="0"
       id="path214"
       style="fill:#556068;fill-opacity:1;fill-rule:nonzero;stroke:none"
       d="m 87.6284,177.4886 c -0.175,0.18 -0.428,0.287 -0.693,0.287 -0.264,0 -0.518,-0.107 -0.693,-0.287 -0.253,-0.259 -0.281,-0.529 -0.281,-1.369 0,-0.839 0.028,-1.109 0.281,-1.368 0.175,-0.181 0.429,-0.288 0.693,-0.288 0.265,0 0.518,0.107 0.693,0.288 0.253,0.259 0.282,0.529 0.282,1.368 0,0.84 -0.029,1.11 -0.282,1.369 m 0.332,-2.991 c -0.27,-0.27 -0.625,-0.417 -1.025,-0.417 -0.4,0 -0.755,0.147 -1.025,0.417 -0.377,0.378 -0.377,0.772 -0.377,1.622 0,0.851 0,1.245 0.377,1.622 0.27,0.271 0.625,0.417 1.025,0.417 0.4,0 0.755,-0.146 1.025,-0.417 0.378,-0.377 0.378,-0.771 0.378,-1.622 0,-0.85 0,-1.244 -0.378,-1.622" /><path
       inkscape:connector-curvature="0"
       id="path216"
       style="fill:#556068;fill-opacity:1;fill-rule:nonzero;stroke:none"
       d="m 90.4546,174.0811 c -0.603,0 -0.997,0.152 -1.374,0.529 l 0.293,0.293 c 0.332,-0.332 0.642,-0.439 1.092,-0.439 0.586,0 0.946,0.276 0.946,0.743 0,0.209 -0.061,0.389 -0.191,0.502 -0.13,0.112 -0.231,0.146 -0.524,0.191 l -0.467,0.073 c -0.316,0.051 -0.564,0.153 -0.738,0.305 -0.203,0.18 -0.304,0.428 -0.304,0.749 0,0.681 0.49,1.132 1.284,1.132 0.512,0 0.85,-0.13 1.194,-0.44 l -0.276,-0.276 c -0.248,0.226 -0.513,0.344 -0.935,0.344 -0.535,0 -0.845,-0.298 -0.845,-0.743 0,-0.198 0.056,-0.355 0.18,-0.462 0.124,-0.107 0.333,-0.186 0.541,-0.22 l 0.439,-0.068 c 0.378,-0.056 0.564,-0.135 0.733,-0.281 0.219,-0.186 0.338,-0.462 0.338,-0.794 0,-0.704 -0.552,-1.138 -1.386,-1.138" /><path
       inkscape:connector-curvature="0"
       id="path218"
       style="fill:#556068;fill-opacity:1;fill-rule:nonzero;stroke:none"
       d="m 97.506,174.1149 0,3.047 -1.098,-2.416 -0.366,0 -1.116,2.416 0,-3.047 -0.428,0 0,4.01 0.428,0 1.307,-2.844 1.273,2.844 0.428,0 0,-4.01 -0.428,0 z" /><path
       inkscape:connector-curvature="0"
       id="path220"
       style="fill:#556068;fill-opacity:1;fill-rule:nonzero;stroke:none"
       d="m 100.4234,174.0811 c -0.811,0 -1.397,0.558 -1.397,1.357 l 0,2.687 0.428,0 0,-2.653 c 0,-0.608 0.383,-1.008 0.969,-1.008 0.586,0 0.974,0.4 0.974,1.008 l 0,2.653 0.428,0 0,-2.687 c 0,-0.799 -0.591,-1.357 -1.402,-1.357" /><path
       inkscape:connector-curvature="0"
       id="path222"
       style="fill:#556068;fill-opacity:1;fill-rule:nonzero;stroke:none"
       d="m 102.9122,174.1149 0,4.01 0.428,0 0,-3.627 2.05,0 0,-0.383 -2.478,0 z" /><path
       inkscape:connector-curvature="0"
       id="path224"
       style="fill:#556068;fill-opacity:1;fill-rule:nonzero;stroke:none"
       d="m 106.9978,177.742 0,-3.627 -0.428,0 0,3.627 -1.16,0 0,0.383 2.748,0 0,-0.383 -1.16,0 z" /><path
       inkscape:connector-curvature="0"
       id="path226"
       style="fill:#556068;fill-opacity:1;fill-rule:nonzero;stroke:none"
       d="m 109.003,178.125 0.428,0 0,-4.01 -0.428,0 0,4.01 z" /><path
       inkscape:connector-curvature="0"
       id="path228"
       style="fill:#556068;fill-opacity:1;fill-rule:nonzero;stroke:none"
       d="m 112.6322,177.4492 c -0.208,0.214 -0.479,0.293 -0.789,0.293 l -0.873,0 0,-3.244 0.873,0 c 0.31,0 0.581,0.079 0.789,0.293 0.276,0.287 0.265,0.884 0.265,1.374 0,0.49 0.011,0.997 -0.265,1.284 m 0.299,-2.963 c -0.243,-0.242 -0.598,-0.371 -1.014,-0.371 l -1.375,0 0,4.01 1.375,0 c 0.416,0 0.771,-0.13 1.014,-0.372 0.416,-0.417 0.394,-1.031 0.394,-1.588 0,-0.558 0.022,-1.262 -0.394,-1.679" /><path
       inkscape:connector-curvature="0"
       id="path230"
       style="fill:#556068;fill-opacity:1;fill-rule:nonzero;stroke:none"
       d="m 114.319,178.125 0.428,0 0,-4.01 -0.428,0 0,4.01 z" /><path
       inkscape:connector-curvature="0"
       id="path232"
       style="fill:#556068;fill-opacity:1;fill-rule:nonzero;stroke:none"
       d="m 116.9903,174.0811 c -0.603,0 -0.997,0.152 -1.374,0.529 l 0.293,0.293 c 0.332,-0.332 0.642,-0.439 1.092,-0.439 0.586,0 0.946,0.276 0.946,0.743 0,0.209 -0.061,0.389 -0.191,0.502 -0.13,0.112 -0.231,0.146 -0.524,0.191 l -0.467,0.073 c -0.316,0.051 -0.564,0.153 -0.738,0.305 -0.203,0.18 -0.304,0.428 -0.304,0.749 0,0.681 0.49,1.132 1.284,1.132 0.512,0 0.85,-0.13 1.194,-0.44 l -0.276,-0.276 c -0.248,0.226 -0.513,0.344 -0.935,0.344 -0.535,0 -0.845,-0.298 -0.845,-0.743 0,-0.198 0.056,-0.355 0.18,-0.462 0.124,-0.107 0.333,-0.186 0.541,-0.22 l 0.439,-0.068 c 0.378,-0.056 0.564,-0.135 0.733,-0.281 0.219,-0.186 0.338,-0.462 0.338,-0.794 0,-0.704 -0.552,-1.138 -1.386,-1.138" /><path
       inkscape:connector-curvature="0"
       id="path234"
       style="fill:#556068;fill-opacity:1;fill-rule:nonzero;stroke:none"
       d="m 120.6118,174.0811 c -0.394,0 -0.755,0.146 -1.025,0.417 -0.377,0.377 -0.377,0.771 -0.377,1.622 0,0.85 0,1.245 0.377,1.622 0.27,0.27 0.631,0.417 1.025,0.417 0.721,0 1.256,-0.44 1.391,-1.194 l -0.439,0 c -0.107,0.49 -0.451,0.811 -0.952,0.811 -0.265,0 -0.518,-0.102 -0.693,-0.282 -0.253,-0.259 -0.281,-0.535 -0.281,-1.374 0,-0.839 0.028,-1.115 0.281,-1.374 0.175,-0.181 0.428,-0.282 0.693,-0.282 0.501,0 0.856,0.321 0.963,0.811 l 0.428,0 c -0.129,-0.755 -0.676,-1.194 -1.391,-1.194" /><path
       inkscape:connector-curvature="0"
       id="path236"
       style="fill:#556068;fill-opacity:1;fill-rule:nonzero;stroke:none"
       d="m 122.939,178.125 0.428,0 0,-4.01 -0.428,0 0,4.01 z" /><path
       inkscape:connector-curvature="0"
       id="path238"
       style="fill:#556068;fill-opacity:1;fill-rule:nonzero;stroke:none"
       d="m 125.9324,177.742 -1.025,0 0,-1.594 1.025,0 c 0.501,0 0.85,0.27 0.85,0.8 0,0.529 -0.349,0.794 -0.85,0.794 m 0.039,-1.977 -1.064,0 0,-1.65 -0.428,0 0,4.01 1.492,0 c 0.733,0 1.24,-0.456 1.24,-1.177 0,-0.721 -0.507,-1.183 -1.24,-1.183" /><path
       inkscape:connector-curvature="0"
       id="path240"
       style="fill:#556068;fill-opacity:1;fill-rule:nonzero;stroke:none"
       d="m 128.0894,174.1149 0,4.01 0.428,0 0,-3.627 2.05,0 0,-0.383 -2.478,0 z" /><path
       inkscape:connector-curvature="0"
       id="path242"
       style="fill:#556068;fill-opacity:1;fill-rule:nonzero;stroke:none"
       d="m 131.412,178.125 0.428,0 0,-4.01 -0.428,0 0,4.01 z" /><path
       inkscape:connector-curvature="0"
       id="path244"
       style="fill:#556068;fill-opacity:1;fill-rule:nonzero;stroke:none"
       d="m 135.5093,174.1149 -2.129,3.216 0,-3.216 -0.428,0 0,4.01 0.405,0 2.129,-3.205 0,3.205 0.429,0 0,-4.01 -0.406,0 z" /><path
       inkscape:connector-curvature="0"
       id="path246"
       style="fill:#556068;fill-opacity:1;fill-rule:nonzero;stroke:none"
       d="m 138.3788,177.5111 -0.755,-2.118 1.498,0 -0.743,2.118 z m 1.188,-3.396 -0.321,0.907 -1.751,0 -0.321,-0.907 -0.457,0 1.476,4.01 0.361,0 1.47,-4.01 -0.457,0 z" /><path
       inkscape:connector-curvature="0"
       id="path248"
       style="fill:#556068;fill-opacity:1;fill-rule:nonzero;stroke:none"
       d="m 142.3241,177.742 -1.07,0 0,-1.47 1.07,0 c 0.467,0 0.8,0.242 0.8,0.732 0,0.49 -0.333,0.738 -0.8,0.738 m 0.805,-3.627 -0.912,1.78 -0.963,0 0,-1.78 -0.428,0 0,4.01 1.537,0 c 0.699,0 1.189,-0.422 1.189,-1.115 0,-0.586 -0.355,-0.969 -0.873,-1.076 l 0.952,-1.819 -0.502,0 z" /><path
       inkscape:connector-curvature="0"
       id="path250"
       style="fill:#556068;fill-opacity:1;fill-rule:nonzero;stroke:none"
       d="m 144.542,178.125 0.428,0 0,-4.01 -0.428,0 0,4.01 z" /><path
       inkscape:connector-curvature="0"
       id="path252"
       style="fill:#556068;fill-opacity:1;fill-rule:nonzero;stroke:none"
       d="m 148.0694,177.4886 c -0.175,0.18 -0.428,0.287 -0.693,0.287 -0.264,0 -0.518,-0.107 -0.693,-0.287 -0.253,-0.259 -0.281,-0.529 -0.281,-1.369 0,-0.839 0.028,-1.109 0.281,-1.368 0.175,-0.181 0.429,-0.288 0.693,-0.288 0.265,0 0.518,0.107 0.693,0.288 0.253,0.259 0.282,0.529 0.282,1.368 0,0.84 -0.029,1.11 -0.282,1.369 m 0.332,-2.991 c -0.27,-0.27 -0.625,-0.417 -1.025,-0.417 -0.4,0 -0.755,0.147 -1.025,0.417 -0.377,0.378 -0.377,0.772 -0.377,1.622 0,0.851 0,1.245 0.377,1.622 0.27,0.271 0.625,0.417 1.025,0.417 0.4,0 0.755,-0.146 1.025,-0.417 0.378,-0.377 0.378,-0.771 0.378,-1.622 0,-0.85 0,-1.244 -0.378,-1.622" /><path
       inkscape:connector-curvature="0"
       id="path254"
       style="fill:#556068;fill-opacity:1;fill-rule:nonzero;stroke:none"
       d="m 150.8956,174.0811 c -0.603,0 -0.997,0.152 -1.374,0.529 l 0.293,0.293 c 0.332,-0.332 0.642,-0.439 1.092,-0.439 0.586,0 0.946,0.276 0.946,0.743 0,0.209 -0.062,0.389 -0.191,0.502 -0.13,0.112 -0.231,0.146 -0.524,0.191 l -0.467,0.073 c -0.316,0.051 -0.564,0.153 -0.738,0.305 -0.203,0.18 -0.304,0.428 -0.304,0.749 0,0.681 0.49,1.132 1.284,1.132 0.512,0 0.85,-0.13 1.194,-0.44 l -0.276,-0.276 c -0.248,0.226 -0.513,0.344 -0.935,0.344 -0.535,0 -0.845,-0.298 -0.845,-0.743 0,-0.198 0.056,-0.355 0.18,-0.462 0.124,-0.107 0.333,-0.186 0.541,-0.22 l 0.439,-0.068 c 0.378,-0.056 0.564,-0.135 0.733,-0.281 0.219,-0.186 0.338,-0.462 0.338,-0.794 0,-0.704 -0.552,-1.138 -1.386,-1.138" /><path
       inkscape:connector-curvature="0"
       id="path256"
       style="fill:#556068;fill-opacity:1;fill-rule:nonzero;stroke:none"
       d="m 145.0574,359.2014 0,0 c 2.179,0 3.962,1.783 3.962,3.962 0,2.18 -1.783,3.963 -3.962,3.963 l 0,0 c -2.179,0 -3.962,-1.783 -3.962,-3.963 0,-2.179 1.783,-3.962 3.962,-3.962" /><path
       inkscape:connector-curvature="0"
       id="path258"
       style="fill:#556068;fill-opacity:1;fill-rule:nonzero;stroke:none"
       d="m 124.5508,284.989 0,0 c 2.179,0 3.962,1.783 3.962,3.962 0,2.18 -1.783,3.963 -3.962,3.963 l 0,0 c -2.179,0 -3.962,-1.783 -3.962,-3.963 0,-2.179 1.783,-3.962 3.962,-3.962" /><path
       inkscape:connector-curvature="0"
       id="path260"
       style="fill:#556068;fill-opacity:1;fill-rule:nonzero;stroke:none"
       d="m 72.057,302.6098 0,0 c 2.179,0 3.962,1.783 3.962,3.962 0,2.18 -1.783,3.963 -3.962,3.963 l 0,0 c -2.179,0 -3.962,-1.783 -3.962,-3.963 0,-2.179 1.783,-3.962 3.962,-3.962" /><path
       inkscape:connector-curvature="0"
       id="path262"
       style="fill:#556068;fill-opacity:1;fill-rule:nonzero;stroke:none"
       d="m 72.057,341.3941 0,0 c 2.179,0 3.962,1.783 3.962,3.962 0,2.18 -1.783,3.963 -3.962,3.963 l 0,0 c -2.179,0 -3.962,-1.783 -3.962,-3.963 0,-2.179 1.783,-3.962 3.962,-3.962" /><path
       inkscape:connector-curvature="0"
       id="path264"
       style="fill:#ed1c24;fill-opacity:1;fill-rule:nonzero;stroke:none"
       d="m 124.6264,291.9008 c -1.645,0 -2.983,-1.338 -2.983,-2.983 0,-1.644 1.338,-2.982 2.983,-2.982 1.645,0 2.983,1.338 2.983,2.982 0,1.645 -1.338,2.983 -2.983,2.983 m 5.182,0.394 c 12.066,5.676 14.49,15.793 14.49,23.332 0,19.382 -18.47,21.161 -18.963,21.201 -0.999,0.03 -2.335,0.85 -2.335,1.856 l 0,0.424 c 0,0.842 1.094,1.578 1.907,1.794 7.403,1.974 13.742,6.722 16.514,12.7 0.432,0.931 1.668,1.336 2.598,0.904 0.931,-0.432 1.402,-1.535 0.97,-2.466 -2.528,-5.452 -7.317,-10.008 -13.346,-12.813 6.544,-2.241 16.34,-8.179 16.34,-23.6 0,-8.733 -2.971,-20.496 -17.166,-26.942 -0.013,-0.006 -0.021,-0.011 -0.034,-0.017 -0.132,-3.284 -2.843,-5.916 -6.159,-5.916 -3.4,0 -6.165,2.766 -6.165,6.166 0,3.4 2.779,6.166 6.179,6.166 2.154,0 3.993,-1.11 5.17,-2.788 l 0,-10e-4 z" /><path
       inkscape:connector-curvature="0"
       id="path266"
       style="fill:#ed1c24;fill-opacity:1;fill-rule:nonzero;stroke:none"
       d="m 102.1862,361.5076 0,-14.183 c 2.378,0.003 4.148,0.006 4.792,0.006 5.413,0 8.044,2.446 8.044,7.479 0,3.516 -1.094,6.771 -9.035,6.771 -1.721,0 -2.926,-0.037 -3.801,-0.073 m 0,-53.206 c 0.734,-0.026 1.694,-0.047 2.861,-0.047 5.231,0 11.466,1.677 11.466,9.662 0,4.239 -1.414,9.105 -12.437,9.105 -0.253,0 -0.918,0 -1.89,0 l 0,-18.72 z m -30.086,40.185 c -1.644,0 -2.982,-1.338 -2.982,-2.982 0,-1.645 1.338,-2.983 2.982,-2.983 1.645,0 2.983,1.338 2.983,2.983 0,1.644 -1.338,2.982 -2.983,2.982 m 5.858,-1.162 20.514,0 0,15.972 c 0,1.025 0.831,1.857 1.857,1.857 0.261,0 0.58,0.015 1.006,0.035 0.935,0.042 2.347,0.106 4.652,0.106 8.46,0 12.749,-3.528 12.749,-10.485 0,-7.114 -4.286,-11.193 -11.758,-11.193 -0.644,0 -2.413,-0.003 -4.792,-0.006 l 0,-12.875 c 0.972,0 1.637,0 1.89,0 10.717,0 16.151,-4.313 16.151,-12.819 0,-8.5 -5.533,-13.375 -15.18,-13.375 -3.094,0 -4.801,0.139 -4.872,0.145 -0.963,0.08 -1.703,0.885 -1.703,1.85 l 0,20.484 c -7.365,-0.003 -19.776,-0.008 -24.451,-0.01 l 0,-9.937 c 0,-1.026 -0.831,-1.857 -1.857,-1.857 -1.026,0 -1.857,0.831 -1.857,1.857 l 0,11.793 c 0,1.026 0.831,1.857 1.856,1.857 0,0 17.099,0.007 26.309,0.011 l 0.001,12.876 -20.541,0 c -0.88,-2.59 -3.188,-4.272 -5.832,-4.272 -3.4,0 -6.166,2.766 -6.166,6.166 0,3.4 2.766,6.166 6.166,6.166 2.655,0 5.154,-1.894 5.858,-4.346" /><path
       inkscape:connector-curvature="0"
       id="path268"
       style="fill:#ed1c24;fill-opacity:1;fill-rule:nonzero;stroke:none"
       d="m 72.1763,309.5107 c -1.647,0 -2.983,-1.335 -2.983,-2.983 0,-1.647 1.336,-2.982 2.983,-2.982 1.647,0 2.983,1.335 2.983,2.982 0,1.648 -1.336,2.983 -2.983,2.983 m 1.845,-9.005 0,-35.919 24.451,0 0,21.482 c 0,0.493 0.196,0.966 0.545,1.314 0.348,0.348 0.82,0.543 1.312,0.543 l 0.003,0 c 1.871,-0.003 3.76,-0.005 5.639,-0.005 2.869,0 5.626,0.131 8.193,0.389 1.019,0.099 1.931,-0.642 2.033,-1.662 0.103,-1.02 -0.641,-1.931 -1.662,-2.033 -2.69,-0.271 -5.571,-0.408 -8.564,-0.408 -1.26,0 -2.525,10e-4 -3.785,0.002 l 0,-21.479 c 0,-1.025 -0.831,-1.857 -1.857,-1.857 l -28.165,0 c -1.026,0 -1.857,0.832 -1.857,1.857 l 0,37.778 0,0 c -2.496,0.789 -4.304,3.123 -4.304,5.879 0,3.405 2.76,6.164 6.164,6.164 3.405,0 6.165,-2.759 6.165,-6.164 0,-2.759 -1.812,-5.094 -4.311,-5.881" /><path
       inkscape:connector-curvature="0"
       id="path270"
       style="fill:#ed1c24;fill-opacity:1;fill-rule:nonzero;stroke:none"
       d="m 145.0738,360.0671 c -1.645,0 -2.983,1.338 -2.983,2.983 0,1.644 1.338,2.982 2.983,2.982 1.645,0 2.983,-1.338 2.983,-2.982 0,-1.645 -1.338,-2.983 -2.983,-2.983 m 0.917,8.857 c -4.442,17.022 -24.098,18.946 -40.725,18.946 l -33.124,0 c -1.019,0 -1.841,-0.606 -1.841,-1.625 l 0.009,-30.703 c 0,-1.026 0.717,-1.8 1.845,-1.8 1.128,0 1.845,1.089 1.845,2.115 l 0.009,29.013 31.257,0 c 22.412,0 33.858,-5.054 37.006,-16.099 -0.011,-0.006 -0.022,-0.126 -0.026,-0.128 -1.981,-1.027 -3.338,-3.154 -3.338,-5.535 0,-3.4 2.766,-6.194 6.166,-6.194 3.4,0 6.166,2.638 6.166,6.038 0,3.089 -2.282,5.528 -5.249,5.972" /></g></svg>