<?xml version="1.0" encoding="UTF-8" standalone="no"?>
<!-- Created with Inkscape (http://www.inkscape.org/) -->

<svg
   xmlns:dc="http://purl.org/dc/elements/1.1/"
   xmlns:cc="http://creativecommons.org/ns#"
   xmlns:rdf="http://www.w3.org/1999/02/22-rdf-syntax-ns#"
   xmlns:svg="http://www.w3.org/2000/svg"
   xmlns="http://www.w3.org/2000/svg"
   xmlns:sodipodi="http://sodipodi.sourceforge.net/DTD/sodipodi-0.dtd"
   xmlns:inkscape="http://www.inkscape.org/namespaces/inkscape"
   id="svg2"
   version="1.1"
   inkscape:version="0.91 r13725"
   xml:space="preserve"
   width="353.62399"
   height="200.5995"
   viewBox="0 0 353.62399 200.5995"
   sodipodi:docname="beauchef_proyecta_horizontal.svg"><metadata
     id="metadata8"><rdf:RDF><cc:Work
         rdf:about=""><dc:format>image/svg+xml</dc:format><dc:type
           rdf:resource="http://purl.org/dc/dcmitype/StillImage" /><dc:title></dc:title></cc:Work></rdf:RDF></metadata><defs
     id="defs6"><clipPath
       clipPathUnits="userSpaceOnUse"
       id="clipPath18"><path
         d="M 0,0 566,0 566,566 0,566 0,0 Z"
         id="path20"
         inkscape:connector-curvature="0" /></clipPath><clipPath
       clipPathUnits="userSpaceOnUse"
       id="clipPath24"><path
         d="m 41,44 479,0 0,480 -479,0 0,-480 z"
         id="path26"
         inkscape:connector-curvature="0" /></clipPath><clipPath
       clipPathUnits="userSpaceOnUse"
       id="clipPath28"><path
         d="m 41,44 479,0 0,480 -479,0 0,-480 z"
         id="path30"
         inkscape:connector-curvature="0" /></clipPath><clipPath
       clipPathUnits="userSpaceOnUse"
       id="clipPath32"><path
         d="m 0,566.93 566.93,0 L 566.93,0 0,0 0,566.93 Z"
         id="path34"
         inkscape:connector-curvature="0" /></clipPath><clipPath
       clipPathUnits="userSpaceOnUse"
       id="clipPath36"><path
         d="m 41,44 479,0 0,480 -479,0 0,-480 z"
         id="path38"
         inkscape:connector-curvature="0" /></clipPath><clipPath
       clipPathUnits="userSpaceOnUse"
       id="clipPath40"><path
         d="m 41,44 479,0 0,480 -479,0 0,-480 z"
         id="path42"
         inkscape:connector-curvature="0" /></clipPath></defs><sodipodi:namedview
     pagecolor="#ffffff"
     bordercolor="#666666"
     borderopacity="1"
     objecttolerance="10"
     gridtolerance="10"
     guidetolerance="10"
     inkscape:pageopacity="0"
     inkscape:pageshadow="2"
     inkscape:window-width="1855"
     inkscape:window-height="1056"
     id="namedview4"
     showgrid="false"
     inkscape:zoom="2.6394729"
     inkscape:cx="208.03657"
     inkscape:cy="80.051995"
     inkscape:window-x="65"
     inkscape:window-y="24"
     inkscape:window-maximized="1"
     inkscape:current-layer="g60" /><g
     id="g10"
     inkscape:groupmode="layer"
     inkscape:label="logo_bp_1"
     transform="matrix(1.25,0,0,-1.25,-298.607,455.69338)"><g
       id="g12" /><g
       clip-path="url(#clipPath18)"
       id="g16"><g
         id="g22" /><g
         id="g48" /><g
         id="g58"><g
           id="g60"
           clip-path="url(#clipPath32)"><path
             d="m 351.7653,331.3284 2.934,0 c 2.402,0 3.669,1.156 3.802,3.468 l 0.4,7.47 c 0.134,2.311 -0.734,3.468 -2.601,3.468 l -3.736,0 -0.799,-14.406 z m -1.135,-21.877 4.736,0 c 1.644,0 2.512,0.689 2.601,2.068 l 0.534,10.604 c 0.133,2.268 -1.045,3.402 -3.535,3.402 l -3.468,0 -0.868,-16.074 z m 9.339,18.808 c 3.378,-0.978 5.001,-2.8 4.868,-5.469 l -0.667,-12.005 c -0.223,-4.758 -2.713,-7.136 -7.47,-7.136 l -12.606,0 2.469,47.887 10.737,0 c 5.557,0 8.181,-2.89 7.871,-8.67 l -0.468,-9.204 c -0.133,-2.757 -1.712,-4.447 -4.734,-5.068 l 0,-0.335 z"
             style="fill:#556068;fill-opacity:1;fill-rule:nonzero;stroke:none"
             id="path64"
             inkscape:connector-curvature="0" /><path
             d="m 368.0316,303.6493 2.468,47.887 15.606,0 -0.267,-5.802 -9.337,0 -0.8,-14.539 8.271,0 -0.267,-5.803 -8.271,0 -0.867,-15.941 9.337,0 -0.266,-5.802 -15.607,0 z"
             style="fill:#556068;fill-opacity:1;fill-rule:nonzero;stroke:none"
             id="path66"
             inkscape:connector-curvature="0" /><path
             d="m 401.0516,326.993 0.868,15.94 c 0.088,1.867 -0.779,2.801 -2.601,2.801 l -1.735,0 c -1.823,0 -2.779,-0.934 -2.868,-2.801 l -0.866,-15.94 7.202,0 z m -8.403,-23.344 -6.27,0 2.068,39.684 c 0.267,5.469 2.912,8.203 7.936,8.203 l 4.669,0 c 5.025,0 7.404,-2.734 7.137,-8.203 l -2.068,-39.684 -6.269,0 0.867,17.541 -7.203,0 -0.867,-17.541 z"
             style="fill:#556068;fill-opacity:1;fill-rule:nonzero;stroke:none"
             id="path68"
             inkscape:connector-curvature="0" /><path
             d="m 433.6325,351.5363 -2.001,-38.817 c -0.311,-6.047 -3.002,-9.07 -8.07,-9.07 l -5.269,0 c -5.025,0 -7.382,3.045 -7.07,9.137 l 2.001,38.75 6.269,0 -2,-38.95 c -0.134,-2.091 0.71,-3.135 2.534,-3.135 l 2.601,0 c 1.689,0 2.601,1.044 2.734,3.135 l 2.001,38.95 6.27,0 z"
             style="fill:#556068;fill-opacity:1;fill-rule:nonzero;stroke:none"
             id="path70"
             inkscape:connector-curvature="0" /><path
             d="m 455.3006,314.8542 -0.2,-3.068 c -0.266,-5.425 -2.913,-8.137 -7.936,-8.137 l -4.002,0 c -5.025,0 -7.404,2.712 -7.137,8.137 l 1.668,31.614 c 0.267,5.424 2.911,8.136 7.937,8.136 l 4.001,0 c 5.024,0 7.403,-2.712 7.137,-8.136 l -0.267,-5.403 -6.27,0 0.267,4.935 c 0.089,1.868 -0.8,2.802 -2.667,2.802 l -1.267,0 c -1.646,0 -2.513,-0.934 -2.601,-2.802 l -1.668,-30.679 c -0.09,-1.868 0.689,-2.802 2.334,-2.802 l 1.601,0 c 1.644,0 2.512,0.934 2.601,2.802 l 0.201,2.601 6.268,0 z"
             style="fill:#556068;fill-opacity:1;fill-rule:nonzero;stroke:none"
             id="path72"
             inkscape:connector-curvature="0" /><path
             d="m 471.901,303.6493 1.135,21.743 -7.738,0 -1.133,-21.743 -6.27,0 2.468,47.887 6.27,0 -1.068,-20.341 7.737,0 1.067,20.341 6.269,0 -2.467,-47.887 -6.27,0 z"
             style="fill:#556068;fill-opacity:1;fill-rule:nonzero;stroke:none"
             id="path74"
             inkscape:connector-curvature="0" /><path
             d="m 483.006,303.6493 2.468,47.887 15.606,0 -0.267,-5.802 -9.337,0 -0.8,-14.539 8.271,0 -0.267,-5.803 -8.271,0 -0.867,-15.941 9.337,0 -0.266,-5.802 -15.607,0 z"
             style="fill:#556068;fill-opacity:1;fill-rule:nonzero;stroke:none"
             id="path76"
             inkscape:connector-curvature="0" /><path
             d="m 517.481,331.195 -0.267,-5.803 -8.271,0 -1.133,-21.743 -6.27,0 2.468,47.887 15.607,0 -0.267,-5.802 -9.337,0 -0.801,-14.539 8.271,0 z"
             style="fill:#556068;fill-opacity:1;fill-rule:nonzero;stroke:none"
             id="path78"
             inkscape:connector-curvature="0" /><path
             d="m 351.4523,269.6266 4.001,0 c 1.645,0 2.512,0.934 2.602,2.802 l 0.733,13.338 c 0.089,1.868 -0.801,2.802 -2.667,2.802 l -3.669,0 -1,-18.942 z m -5.003,24.744 11.405,0 c 5.07,0 7.47,-2.735 7.203,-8.204 l -0.733,-14.206 c -0.312,-5.425 -2.979,-8.136 -8.004,-8.136 l -5.202,0 -0.867,-17.341 -6.269,0 2.467,47.887 z"
             style="fill:#ed1c24;fill-opacity:1;fill-rule:nonzero;stroke:none"
             id="path80"
             inkscape:connector-curvature="0" /><path
             d="m 373.6677,271.2949 4.135,0 c 1.868,0 2.868,1.156 3.001,3.468 l 0.534,10.338 c 0.133,2.311 -0.733,3.468 -2.601,3.468 l -4.135,0 -0.934,-17.274 z m -5.069,23.076 12.272,0 c 4.802,0 7.07,-2.735 6.804,-8.204 l -0.601,-11.804 c -0.223,-4.181 -1.623,-6.827 -4.202,-7.937 l 3.401,-19.942 -5.935,0 -3.135,19.342 -3.802,0 -1,-19.342 -6.269,0 2.467,47.887 z"
             style="fill:#ed1c24;fill-opacity:1;fill-rule:nonzero;stroke:none"
             id="path82"
             inkscape:connector-curvature="0" /><path
             d="m 398.8855,252.2857 3.201,0 c 1.689,0 2.578,0.934 2.668,2.802 l 1.667,30.679 c 0.089,1.868 -0.8,2.802 -2.668,2.802 l -3.001,0 c -1.824,0 -2.779,-0.934 -2.867,-2.802 l -1.668,-30.679 c -0.09,-1.868 0.8,-2.802 2.668,-2.802 m -1.734,-5.802 c -5.069,0 -7.471,2.711 -7.204,8.137 l 1.668,31.546 c 0.267,5.469 2.911,8.204 7.937,8.204 l 6.003,0 c 5.023,0 7.403,-2.735 7.136,-8.204 l -1.667,-31.546 c -0.267,-5.426 -2.935,-8.137 -8.004,-8.137 l -5.869,0 z"
             style="fill:#ed1c24;fill-opacity:1;fill-rule:nonzero;stroke:none"
             id="path84"
             inkscape:connector-curvature="0" /><path
             d="m 426.2169,246.4837 -6.27,0 0.934,17.608 -6.202,30.279 6.202,0 3.669,-20.809 0.2,0 5.336,20.809 6.202,0 -9.137,-30.279 -0.934,-17.608 z"
             style="fill:#ed1c24;fill-opacity:1;fill-rule:nonzero;stroke:none"
             id="path86"
             inkscape:connector-curvature="0" /><path
             d="m 436.2872,246.4837 2.468,47.887 15.606,0 -0.267,-5.802 -9.337,0 -0.8,-14.539 8.271,0 -0.267,-5.803 -8.271,0 -0.867,-15.941 9.337,0 -0.266,-5.802 -15.607,0 z"
             style="fill:#ed1c24;fill-opacity:1;fill-rule:nonzero;stroke:none"
             id="path88"
             inkscape:connector-curvature="0" /><path
             d="m 474.2762,257.6885 -0.2,-3.068 c -0.266,-5.425 -2.913,-8.137 -7.936,-8.137 l -4.002,0 c -5.025,0 -7.404,2.712 -7.137,8.137 l 1.668,31.614 c 0.267,5.424 2.911,8.136 7.937,8.136 l 4.001,0 c 5.024,0 7.403,-2.712 7.137,-8.136 l -0.267,-5.403 -6.27,0 0.267,4.935 c 0.089,1.868 -0.8,2.802 -2.667,2.802 l -1.267,0 c -1.646,0 -2.513,-0.934 -2.601,-2.802 l -1.668,-30.679 c -0.09,-1.868 0.689,-2.802 2.334,-2.802 l 1.601,0 c 1.644,0 2.512,0.934 2.601,2.802 l 0.201,2.601 6.268,0 z"
             style="fill:#ed1c24;fill-opacity:1;fill-rule:nonzero;stroke:none"
             id="path90"
             inkscape:connector-curvature="0" /><path
             d="m 490.076,288.5686 -2.201,-42.085 -6.269,0 2.2,42.085 -6.002,0 0.267,5.802 18.275,0 -0.267,-5.802 -6.003,0 z"
             style="fill:#ed1c24;fill-opacity:1;fill-rule:nonzero;stroke:none"
             id="path92"
             inkscape:connector-curvature="0" /><path
             d="m 510.8585,269.8273 0.867,15.94 c 0.089,1.867 -0.779,2.801 -2.601,2.801 l -1.735,0 c -1.824,0 -2.778,-0.934 -2.867,-2.801 l -0.867,-15.94 7.203,0 z m -8.404,-23.344 -6.269,0 2.068,39.684 c 0.267,5.469 2.911,8.203 7.936,8.203 l 4.669,0 c 5.024,0 7.403,-2.734 7.136,-8.203 l -2.067,-39.684 -6.27,0 0.867,17.541 -7.202,0 -0.868,-17.541 z"
             style="fill:#ed1c24;fill-opacity:1;fill-rule:nonzero;stroke:none"
             id="path94"
             inkscape:connector-curvature="0" /><path
             d="m 251.3304,218.2346 -3.078,0 0,-4.786 3.078,0 c 1.505,0 2.554,0.812 2.554,2.402 0,1.589 -1.049,2.384 -2.554,2.384 m 0.118,-5.936 -3.196,0 0,-4.955 -1.285,0 0,12.041 4.481,0 c 2.199,0 3.721,-1.37 3.721,-3.534 0,-2.165 -1.522,-3.552 -3.721,-3.552"
             style="fill:#556068;fill-opacity:1;fill-rule:nonzero;stroke:none"
             id="path96"
             inkscape:connector-curvature="0" /><path
             d="m 262.3055,218.2346 -3.213,0 0,-4.414 3.213,0 c 1.404,0 2.401,0.727 2.401,2.199 0,1.471 -0.997,2.215 -2.401,2.215 m 2.418,-10.891 -2.739,5.344 -2.892,0 0,-5.344 -1.285,0 0,12.041 4.616,0 c 2.097,0 3.569,-1.268 3.569,-3.349 0,-1.758 -1.066,-2.908 -2.622,-3.23 l 2.858,-5.462 -1.505,0 z"
             style="fill:#556068;fill-opacity:1;fill-rule:nonzero;stroke:none"
             id="path98"
             inkscape:connector-curvature="0" /><path
             d="m 274.8941,217.4736 c -0.524,0.541 -1.285,0.862 -2.08,0.862 -0.795,0 -1.556,-0.321 -2.08,-0.862 -0.761,-0.778 -0.846,-1.59 -0.846,-4.109 0,-2.52 0.085,-3.332 0.846,-4.11 0.524,-0.541 1.285,-0.862 2.08,-0.862 0.795,0 1.556,0.321 2.08,0.862 0.761,0.778 0.846,1.59 0.846,4.11 0,2.519 -0.085,3.331 -0.846,4.109 m 0.998,-8.98 c -0.812,-0.812 -1.877,-1.251 -3.078,-1.251 -1.201,0 -2.266,0.439 -3.078,1.251 -1.133,1.133 -1.133,2.317 -1.133,4.871 0,2.553 0,3.737 1.133,4.87 0.812,0.812 1.877,1.251 3.078,1.251 1.201,0 2.266,-0.439 3.078,-1.251 1.133,-1.133 1.133,-2.317 1.133,-4.87 0,-2.554 0,-3.738 -1.133,-4.871"
             style="fill:#556068;fill-opacity:1;fill-rule:nonzero;stroke:none"
             id="path100"
             inkscape:connector-curvature="0" /><path
             d="m 283.3258,212.3156 0,-4.972 -1.285,0 0,4.972 -3.585,7.069 1.386,0 2.841,-5.767 2.808,5.767 1.386,0 -3.551,-7.069 z"
             style="fill:#556068;fill-opacity:1;fill-rule:nonzero;stroke:none"
             id="path102"
             inkscape:connector-curvature="0" /><path
             d="m 289.2478,207.3436 0,12.041 7.475,0 0,-1.15 -6.19,0 0,-4.245 5.277,0 0,-1.15 -5.277,0 0,-4.346 6.19,0 0,-1.15 -7.475,0 z"
             style="fill:#556068;fill-opacity:1;fill-rule:nonzero;stroke:none"
             id="path104"
             inkscape:connector-curvature="0" /><path
             d="m 302.9829,207.2422 c -1.184,0 -2.266,0.44 -3.078,1.251 -1.133,1.133 -1.133,2.317 -1.133,4.871 0,2.553 0,3.737 1.133,4.87 0.812,0.812 1.894,1.252 3.078,1.252 2.165,0 3.771,-1.319 4.177,-3.585 l -1.319,0 c -0.321,1.471 -1.353,2.435 -2.858,2.435 -0.795,0 -1.556,-0.305 -2.08,-0.846 -0.761,-0.778 -0.846,-1.606 -0.846,-4.126 0,-2.52 0.085,-3.349 0.846,-4.127 0.524,-0.541 1.285,-0.845 2.08,-0.845 1.505,0 2.571,0.964 2.892,2.435 l 1.285,0 c -0.389,-2.266 -2.029,-3.585 -4.177,-3.585"
             style="fill:#556068;fill-opacity:1;fill-rule:nonzero;stroke:none"
             id="path106"
             inkscape:connector-curvature="0" /><path
             d="m 313.7128,218.2346 0,-10.891 -1.285,0 0,10.891 -3.484,0 0,1.15 8.253,0 0,-1.15 -3.484,0 z"
             style="fill:#556068;fill-opacity:1;fill-rule:nonzero;stroke:none"
             id="path108"
             inkscape:connector-curvature="0" /><path
             d="m 325.3458,217.4736 c -0.524,0.541 -1.285,0.862 -2.08,0.862 -0.795,0 -1.556,-0.321 -2.08,-0.862 -0.761,-0.778 -0.846,-1.59 -0.846,-4.109 0,-2.52 0.085,-3.332 0.846,-4.11 0.524,-0.541 1.285,-0.862 2.08,-0.862 0.795,0 1.556,0.321 2.08,0.862 0.761,0.778 0.846,1.59 0.846,4.11 0,2.519 -0.085,3.331 -0.846,4.109 m 0.998,-8.98 c -0.812,-0.812 -1.877,-1.251 -3.078,-1.251 -1.201,0 -2.266,0.439 -3.078,1.251 -1.133,1.133 -1.133,2.317 -1.133,4.871 0,2.553 0,3.737 1.133,4.87 0.812,0.812 1.877,1.251 3.078,1.251 1.201,0 2.266,-0.439 3.078,-1.251 1.133,-1.133 1.133,-2.317 1.133,-4.87 0,-2.554 0,-3.738 -1.133,-4.871"
             style="fill:#556068;fill-opacity:1;fill-rule:nonzero;stroke:none"
             id="path110"
             inkscape:connector-curvature="0" /><path
             d="m 333.8317,207.2422 c -1.81,0 -2.993,0.457 -4.126,1.59 l 0.879,0.879 c 0.998,-0.998 1.928,-1.319 3.281,-1.319 1.759,0 2.841,0.829 2.841,2.232 0,0.626 -0.186,1.167 -0.575,1.505 -0.389,0.339 -0.693,0.44 -1.573,0.575 l -1.403,0.22 c -0.948,0.152 -1.692,0.457 -2.216,0.913 -0.609,0.542 -0.913,1.286 -0.913,2.25 0,2.046 1.471,3.399 3.856,3.399 1.539,0 2.553,-0.389 3.585,-1.319 l -0.829,-0.829 c -0.744,0.677 -1.539,1.032 -2.807,1.032 -1.607,0 -2.537,-0.897 -2.537,-2.233 0,-0.591 0.169,-1.065 0.541,-1.386 0.372,-0.322 0.998,-0.558 1.624,-0.66 l 1.319,-0.203 c 1.133,-0.169 1.691,-0.406 2.198,-0.845 0.66,-0.559 1.015,-1.387 1.015,-2.385 0,-2.114 -1.657,-3.416 -4.16,-3.416"
             style="fill:#556068;fill-opacity:1;fill-rule:nonzero;stroke:none"
             id="path112"
             inkscape:connector-curvature="0" /><path
             d="m 355.0042,207.3436 0,9.149 -3.298,-7.255 -1.099,0 -3.348,7.255 0,-9.149 -1.286,0 0,12.041 1.286,0 3.923,-8.54 3.822,8.54 1.285,0 0,-12.041 -1.285,0 z"
             style="fill:#556068;fill-opacity:1;fill-rule:nonzero;stroke:none"
             id="path114"
             inkscape:connector-curvature="0" /><path
             d="m 363.7639,207.2422 c -2.435,0 -4.194,1.674 -4.194,4.076 l 0,8.066 1.285,0 0,-7.965 c 0,-1.826 1.15,-3.027 2.909,-3.027 1.759,0 2.926,1.201 2.926,3.027 l 0,7.965 1.285,0 0,-8.066 c 0,-2.402 -1.776,-4.076 -4.211,-4.076"
             style="fill:#556068;fill-opacity:1;fill-rule:nonzero;stroke:none"
             id="path116"
             inkscape:connector-curvature="0" /><path
             d="m 371.2368,207.3436 0,12.041 1.285,0 0,-10.891 6.156,0 0,-1.15 -7.441,0 z"
             style="fill:#556068;fill-opacity:1;fill-rule:nonzero;stroke:none"
             id="path118"
             inkscape:connector-curvature="0" /><path
             d="m 383.5041,218.2346 0,-10.891 -1.285,0 0,10.891 -3.484,0 0,1.15 8.253,0 0,-1.15 -3.484,0 z"
             style="fill:#556068;fill-opacity:1;fill-rule:nonzero;stroke:none"
             id="path120"
             inkscape:connector-curvature="0" /><path
             d="m 389.524,219.385 1.285,0 0,-12.041 -1.285,0 0,12.041 z"
             style="fill:#556068;fill-opacity:1;fill-rule:nonzero;stroke:none"
             id="path122"
             inkscape:connector-curvature="0" /><path
             d="m 400.4218,217.3552 c -0.626,0.643 -1.437,0.879 -2.368,0.879 l -2.621,0 0,-9.741 2.621,0 c 0.931,0 1.742,0.237 2.368,0.88 0.829,0.862 0.795,2.655 0.795,4.126 0,1.471 0.034,2.993 -0.795,3.856 m 0.896,-8.895 c -0.727,-0.728 -1.792,-1.117 -3.044,-1.117 l -4.126,0 0,12.041 4.126,0 c 1.252,0 2.317,-0.389 3.044,-1.116 1.252,-1.251 1.184,-3.095 1.184,-4.769 0,-1.674 0.068,-3.788 -1.184,-5.039"
             style="fill:#556068;fill-opacity:1;fill-rule:nonzero;stroke:none"
             id="path124"
             inkscape:connector-curvature="0" /><path
             d="m 405.486,219.385 1.285,0 0,-12.041 -1.285,0 0,12.041 z"
             style="fill:#556068;fill-opacity:1;fill-rule:nonzero;stroke:none"
             id="path126"
             inkscape:connector-curvature="0" /><path
             d="m 413.5073,207.2422 c -1.81,0 -2.993,0.457 -4.126,1.59 l 0.879,0.879 c 0.998,-0.998 1.928,-1.319 3.281,-1.319 1.759,0 2.841,0.829 2.841,2.232 0,0.626 -0.186,1.167 -0.575,1.505 -0.389,0.339 -0.693,0.44 -1.573,0.575 l -1.403,0.22 c -0.947,0.152 -1.692,0.457 -2.216,0.913 -0.609,0.542 -0.913,1.286 -0.913,2.25 0,2.046 1.471,3.399 3.856,3.399 1.539,0 2.553,-0.389 3.585,-1.319 l -0.829,-0.829 c -0.744,0.677 -1.539,1.032 -2.807,1.032 -1.607,0 -2.537,-0.897 -2.537,-2.233 0,-0.591 0.169,-1.065 0.541,-1.386 0.373,-0.322 0.998,-0.558 1.624,-0.66 l 1.319,-0.203 c 1.133,-0.169 1.691,-0.406 2.198,-0.845 0.66,-0.559 1.015,-1.387 1.015,-2.385 0,-2.114 -1.657,-3.416 -4.16,-3.416"
             style="fill:#556068;fill-opacity:1;fill-rule:nonzero;stroke:none"
             id="path128"
             inkscape:connector-curvature="0" /><path
             d="m 424.3811,207.2422 c -1.184,0 -2.266,0.44 -3.078,1.251 -1.133,1.133 -1.133,2.317 -1.133,4.871 0,2.553 0,3.737 1.133,4.87 0.812,0.812 1.894,1.252 3.078,1.252 2.165,0 3.771,-1.319 4.177,-3.585 l -1.319,0 c -0.321,1.471 -1.353,2.435 -2.858,2.435 -0.795,0 -1.556,-0.305 -2.08,-0.846 -0.761,-0.778 -0.846,-1.606 -0.846,-4.126 0,-2.52 0.085,-3.349 0.846,-4.127 0.524,-0.541 1.285,-0.845 2.08,-0.845 1.505,0 2.571,0.964 2.892,2.435 l 1.285,0 c -0.389,-2.266 -2.029,-3.585 -4.177,-3.585"
             style="fill:#556068;fill-opacity:1;fill-rule:nonzero;stroke:none"
             id="path130"
             inkscape:connector-curvature="0" /><path
             d="m 431.37,219.385 1.285,0 0,-12.041 -1.285,0 0,12.041 z"
             style="fill:#556068;fill-opacity:1;fill-rule:nonzero;stroke:none"
             id="path132"
             inkscape:connector-curvature="0" /><path
             d="m 440.3568,218.2346 -3.078,0 0,-4.786 3.078,0 c 1.505,0 2.554,0.812 2.554,2.402 0,1.589 -1.049,2.384 -2.554,2.384 m 0.118,-5.936 -3.196,0 0,-4.955 -1.285,0 0,12.041 4.481,0 c 2.199,0 3.721,-1.37 3.721,-3.534 0,-2.165 -1.522,-3.552 -3.721,-3.552"
             style="fill:#556068;fill-opacity:1;fill-rule:nonzero;stroke:none"
             id="path134"
             inkscape:connector-curvature="0" /><path
             d="m 446.8335,207.3436 0,12.041 1.285,0 0,-10.891 6.156,0 0,-1.15 -7.441,0 z"
             style="fill:#556068;fill-opacity:1;fill-rule:nonzero;stroke:none"
             id="path136"
             inkscape:connector-curvature="0" /><path
             d="m 456.811,219.385 1.285,0 0,-12.041 -1.285,0 0,12.041 z"
             style="fill:#556068;fill-opacity:1;fill-rule:nonzero;stroke:none"
             id="path138"
             inkscape:connector-curvature="0" /><path
             d="m 469.1122,207.3436 -6.393,9.656 0,-9.656 -1.285,0 0,12.041 1.218,0 6.392,-9.623 0,9.623 1.286,0 0,-12.041 -1.218,0 z"
             style="fill:#556068;fill-opacity:1;fill-rule:nonzero;stroke:none"
             id="path140"
             inkscape:connector-curvature="0" /><path
             d="m 477.7281,217.5412 -2.266,-6.359 4.498,0 -2.232,6.359 z m 3.568,-10.198 -0.964,2.723 -5.259,0 -0.964,-2.723 -1.37,0 4.431,12.041 1.082,0 4.414,-12.041 -1.37,0 z"
             style="fill:#556068;fill-opacity:1;fill-rule:nonzero;stroke:none"
             id="path142"
             inkscape:connector-curvature="0" /><path
             d="m 489.5742,218.2346 -3.213,0 0,-4.414 3.213,0 c 1.404,0 2.401,0.727 2.401,2.199 0,1.471 -0.997,2.215 -2.401,2.215 m 2.418,-10.891 -2.739,5.344 -2.892,0 0,-5.344 -1.285,0 0,12.041 4.616,0 c 2.097,0 3.569,-1.268 3.569,-3.349 0,-1.758 -1.066,-2.908 -2.622,-3.23 l 2.858,-5.462 -1.505,0 z"
             style="fill:#556068;fill-opacity:1;fill-rule:nonzero;stroke:none"
             id="path144"
             inkscape:connector-curvature="0" /><path
             d="m 496.234,219.385 1.285,0 0,-12.041 -1.285,0 0,12.041 z"
             style="fill:#556068;fill-opacity:1;fill-rule:nonzero;stroke:none"
             id="path146"
             inkscape:connector-curvature="0" /><path
             d="m 506.8251,217.4736 c -0.524,0.541 -1.285,0.862 -2.08,0.862 -0.795,0 -1.556,-0.321 -2.08,-0.862 -0.761,-0.778 -0.846,-1.59 -0.846,-4.109 0,-2.52 0.085,-3.332 0.846,-4.11 0.524,-0.541 1.285,-0.862 2.08,-0.862 0.795,0 1.556,0.321 2.08,0.862 0.761,0.778 0.846,1.59 0.846,4.11 0,2.519 -0.085,3.331 -0.846,4.109 m 0.998,-8.98 c -0.812,-0.812 -1.877,-1.251 -3.078,-1.251 -1.201,0 -2.266,0.439 -3.078,1.251 -1.133,1.133 -1.133,2.317 -1.133,4.871 0,2.553 0,3.737 1.133,4.87 0.812,0.812 1.877,1.251 3.078,1.251 1.201,0 2.266,-0.439 3.078,-1.251 1.133,-1.133 1.133,-2.317 1.133,-4.87 0,-2.554 0,-3.738 -1.133,-4.871"
             style="fill:#556068;fill-opacity:1;fill-rule:nonzero;stroke:none"
             id="path148"
             inkscape:connector-curvature="0" /><path
             d="m 515.3109,207.2422 c -1.81,0 -2.993,0.457 -4.126,1.59 l 0.879,0.879 c 0.998,-0.998 1.928,-1.319 3.281,-1.319 1.759,0 2.841,0.829 2.841,2.232 0,0.626 -0.186,1.167 -0.575,1.505 -0.389,0.339 -0.694,0.44 -1.573,0.575 l -1.404,0.22 c -0.947,0.152 -1.691,0.457 -2.215,0.913 -0.609,0.542 -0.913,1.286 -0.913,2.25 0,2.046 1.471,3.399 3.856,3.399 1.539,0 2.553,-0.389 3.585,-1.319 l -0.829,-0.829 c -0.744,0.677 -1.539,1.032 -2.807,1.032 -1.607,0 -2.537,-0.897 -2.537,-2.233 0,-0.591 0.169,-1.065 0.541,-1.386 0.372,-0.322 0.998,-0.558 1.624,-0.66 l 1.319,-0.203 c 1.133,-0.169 1.691,-0.406 2.199,-0.845 0.659,-0.559 1.014,-1.387 1.014,-2.385 0,-2.114 -1.657,-3.416 -4.16,-3.416"
             style="fill:#556068;fill-opacity:1;fill-rule:nonzero;stroke:none"
             id="path150"
             inkscape:connector-curvature="0" /><path
             d="m 319.0812,333.5057 0,0 c 2.179,0 3.962,1.783 3.962,3.962 0,2.18 -1.783,3.963 -3.962,3.963 -2.179,0 -3.962,-1.783 -3.962,-3.963 0,-2.179 1.783,-3.962 3.962,-3.962"
             style="fill:#556068;fill-opacity:1;fill-rule:nonzero;stroke:none"
             id="path152"
             inkscape:connector-curvature="0" /><path
             d="m 298.5746,259.2933 0,0 c 2.179,0 3.962,1.783 3.962,3.962 0,2.18 -1.783,3.963 -3.962,3.963 -2.179,0 -3.962,-1.783 -3.962,-3.963 0,-2.179 1.783,-3.962 3.962,-3.962"
             style="fill:#556068;fill-opacity:1;fill-rule:nonzero;stroke:none"
             id="path154"
             inkscape:connector-curvature="0" /><path
             d="m 246.0808,276.9141 0,0 c 2.179,0 3.962,1.783 3.962,3.962 l 0,0 c 0,2.18 -1.783,3.963 -3.962,3.963 l 0,0 c -2.179,0 -3.962,-1.783 -3.962,-3.963 l 0,0 c 0,-2.179 1.783,-3.962 3.962,-3.962"
             style="fill:#556068;fill-opacity:1;fill-rule:nonzero;stroke:none"
             id="path156"
             inkscape:connector-curvature="0" /><path
             d="m 246.0808,315.6984 0,0 c 2.179,0 3.962,1.783 3.962,3.962 l 0,0 c 0,2.18 -1.783,3.963 -3.962,3.963 l 0,0 c -2.179,0 -3.962,-1.783 -3.962,-3.963 l 0,0 c 0,-2.179 1.783,-3.962 3.962,-3.962"
             style="fill:#556068;fill-opacity:1;fill-rule:nonzero;stroke:none"
             id="path158"
             inkscape:connector-curvature="0" /><path
             d="m 298.6503,266.2051 c -1.645,0 -2.983,-1.338 -2.983,-2.983 0,-1.644 1.338,-2.982 2.983,-2.982 1.645,0 2.983,1.338 2.983,2.982 0,1.645 -1.338,2.983 -2.983,2.983 m 5.182,0.394 c 12.066,5.676 14.49,15.793 14.49,23.332 0,19.382 -18.482,21.161 -18.975,21.201 -0.999,0.03 -2.347,0.85 -2.347,1.856 l 0,0.424 c 0,0.842 1.106,1.578 1.919,1.794 7.403,1.974 13.748,6.722 16.52,12.7 0.432,0.931 1.671,1.336 2.602,0.904 0.93,-0.432 1.402,-1.535 0.971,-2.466 -2.528,-5.452 -7.317,-10.008 -13.346,-12.813 6.544,-2.241 16.341,-8.179 16.341,-23.6 0,-8.733 -2.972,-20.496 -17.167,-26.942 -0.012,-0.006 -0.02,-0.011 -0.033,-0.017 -0.132,-3.284 -2.843,-5.916 -6.159,-5.916 -3.4,0 -6.165,2.766 -6.165,6.166 0,3.4 2.779,6.166 6.179,6.166 2.154,0 3.993,-1.11 5.17,-2.788 l 0,-10e-4 z"
             style="fill:#ed1c24;fill-opacity:1;fill-rule:nonzero;stroke:none"
             id="path160"
             inkscape:connector-curvature="0" /><path
             d="m 276.21,335.8119 0,-14.183 c 2.378,0.003 4.148,0.006 4.792,0.006 5.413,0 8.044,2.446 8.044,7.479 0,3.516 -1.094,6.771 -9.035,6.771 -1.721,0 -2.926,-0.037 -3.801,-0.073 m 0,-53.206 c 0.734,-0.026 1.694,-0.046 2.861,-0.046 5.231,0 11.466,1.676 11.466,9.661 0,4.239 -1.414,9.105 -12.437,9.105 -0.253,0 -0.918,0 -1.89,0 l 0,-18.72 z m -30.086,40.185 c -1.644,0 -2.982,-1.338 -2.982,-2.982 0,-1.645 1.338,-2.983 2.982,-2.983 1.645,0 2.983,1.338 2.983,2.983 0,1.644 -1.338,2.982 -2.983,2.982 m 5.858,-1.162 20.514,0 0,15.972 c 0,1.026 0.831,1.857 1.857,1.857 0.261,0 0.58,0.015 1.006,0.035 0.935,0.042 2.347,0.106 4.652,0.106 8.46,0 12.749,-3.528 12.749,-10.485 0,-7.114 -4.286,-11.193 -11.758,-11.193 -0.644,0 -2.413,-0.003 -4.792,-0.006 l 0,-12.875 c 0.972,0 1.637,0 1.89,0 10.717,0 16.151,-4.313 16.151,-12.819 0,-8.5 -5.533,-13.375 -15.18,-13.375 -3.094,0 -4.801,0.139 -4.872,0.145 -0.963,0.08 -1.703,0.885 -1.703,1.85 l 0,20.484 c -7.365,-0.003 -19.776,-0.008 -24.451,-0.01 l 0,-9.937 c 0,-1.026 -0.831,-1.857 -1.857,-1.857 -1.026,0 -1.857,0.831 -1.857,1.857 l 0,11.793 c 0,1.026 0.831,1.857 1.856,1.857 0,0 17.099,0.007 26.309,0.011 l 0.001,12.876 -20.541,0 c -0.88,-2.59 -3.188,-4.272 -5.832,-4.272 -3.4,0 -6.166,2.766 -6.166,6.166 0,3.4 2.766,6.166 6.166,6.166 2.655,0 5.154,-1.894 5.858,-4.346"
             style="fill:#ed1c24;fill-opacity:1;fill-rule:nonzero;stroke:none"
             id="path162"
             inkscape:connector-curvature="0" /><path
             d="m 246.2001,283.815 c -1.647,0 -2.983,-1.335 -2.983,-2.983 0,-1.647 1.336,-2.982 2.983,-2.982 1.647,0 2.983,1.335 2.983,2.982 0,1.648 -1.336,2.983 -2.983,2.983 m 1.845,-9.005 0,-35.919 24.451,0 0,21.482 c 0,0.493 0.196,0.966 0.545,1.314 0.348,0.348 0.82,0.543 1.312,0.543 l 0.003,0 c 1.871,-0.003 3.76,-0.005 5.639,-0.005 2.869,0 5.626,0.131 8.193,0.389 1.019,0.099 1.931,-0.642 2.033,-1.662 0.103,-1.02 -0.641,-1.931 -1.662,-2.033 -2.69,-0.271 -5.571,-0.408 -8.564,-0.408 -1.26,0 -2.525,10e-4 -3.785,0.002 l 0,-21.479 c 0,-1.025 -0.831,-1.857 -1.857,-1.857 l -28.165,0 c -1.026,0 -1.857,0.832 -1.857,1.857 l 0,37.778 0,0 c -2.496,0.789 -4.304,3.123 -4.304,5.879 0,3.405 2.76,6.164 6.164,6.164 3.405,0 6.165,-2.759 6.165,-6.164 0,-2.759 -1.812,-5.094 -4.311,-5.881"
             style="fill:#ed1c24;fill-opacity:1;fill-rule:nonzero;stroke:none"
             id="path164"
             inkscape:connector-curvature="0" /><path
             d="m 319.0977,334.3714 c -1.645,0 -2.983,1.338 -2.983,2.983 0,1.644 1.338,2.982 2.983,2.982 1.645,0 2.983,-1.338 2.983,-2.982 0,-1.645 -1.338,-2.983 -2.983,-2.983 m 0.917,9.205 c -4.442,17.022 -24.098,19.294 -40.725,19.294 l -33.124,0 c -1.019,0 -1.841,-0.955 -1.841,-1.973 l 0.009,-30.877 c 0,-1.026 0.717,-1.887 1.845,-1.887 1.128,0 1.845,0.393 1.845,1.419 l 0.009,28.318 31.257,0 c 22.412,0 33.858,-4.402 37.006,-15.448 -0.011,-0.005 -0.022,0.201 -0.026,0.199 -1.981,-1.027 -3.338,-2.991 -3.338,-5.373 0,-3.4 2.766,-6.112 6.166,-6.112 3.4,0 6.166,2.853 6.166,6.253 0,3.089 -2.282,5.743 -5.249,6.187"
             style="fill:#ed1c24;fill-opacity:1;fill-rule:nonzero;stroke:none"
             id="path166"
             inkscape:connector-curvature="0" /></g></g></g></g></svg>