<?xml version="1.0" encoding="utf-8"?>
<!-- Generator: Adobe Illustrator 22.1.0, SVG Export Plug-In . SVG Version: 6.00 Build 0)  -->
<svg version="1.1" id="Capa_1" xmlns="http://www.w3.org/2000/svg" xmlns:xlink="http://www.w3.org/1999/xlink" x="0px" y="0px"
	 viewBox="0 0 749.1 313.1" enable-background="new 0 0 749.1 313.1" xml:space="preserve">
<g>
	<g>
		<path fill="#1D1D1B" d="M318.3,118.4h10.1v5.4h-15.5v-27h5.4V118.4z"/>
		<path fill="#1D1D1B" d="M351.2,118.8H340l-2.5,5h-6.1l13.8-27h1.6l12.8,27h-6L351.2,118.8z M348.7,113.4l-2.8-6l-3,6H348.7z"/>
		<path fill="#1D1D1B" d="M369.2,96.8c4.4,0,7.9,3.5,7.9,7.9c0,1.7-0.5,3.2-1.4,4.4c2,1.5,3.2,3.9,3.2,6.5c0,4.6-3.7,8.2-8.2,8.2
			h-8.9v-27H369.2z M369,107.5c1.5,0,3.1-1.2,3.1-3.1c0-1.9-1.6-3-3.1-3h-2.4v6.2H369z M370.7,119.2c1.8,0,3.3-1.4,3.3-3.2
			c0-1.8-1.5-3.3-3.3-3.3h-3.9v6.5H370.7z"/>
		<path fill="#1D1D1B" d="M411.2,110.3c0,7.7-6.3,14-14,14c-7.7,0-14-6.3-14-14c0-7.7,6.3-14,14-14
			C404.9,96.3,411.2,102.6,411.2,110.3z M388.7,110.3c0,4.7,3.8,8.4,8.4,8.4c4.7,0,8.4-3.8,8.4-8.4c0-4.7-3.8-8.4-8.4-8.4
			C392.5,101.8,388.7,105.6,388.7,110.3z"/>
		<path fill="#1D1D1B" d="M428.6,123.8l-5.1-10.8h-2.7v10.8h-5.4v-27h10.2c4.5,0,8.1,3.7,8.1,8.1c0,3.3-1.9,6.1-4.7,7.4l5.4,11.6
			H428.6z M420.8,102.1v5.4h4.8c1.5,0,2.7-1.2,2.7-2.7s-1.2-2.7-2.7-2.7H420.8z"/>
		<path fill="#1D1D1B" d="M456.2,118.8H445l-2.5,5h-6.1l13.8-27h1.6l12.8,27h-6L456.2,118.8z M453.7,113.4l-2.8-6l-3,6H453.7z"/>
		<path fill="#1D1D1B" d="M483.2,96.8v5.4h-7.5v21.6h-5.4v-21.6h-7.5v-5.4H483.2z"/>
		<path fill="#1D1D1B" d="M512.6,110.3c0,7.7-6.3,14-14,14c-7.7,0-14-6.3-14-14c0-7.7,6.3-14,14-14
			C506.3,96.3,512.6,102.6,512.6,110.3z M490.1,110.3c0,4.7,3.8,8.4,8.4,8.4c4.7,0,8.4-3.8,8.4-8.4c0-4.7-3.8-8.4-8.4-8.4
			C493.9,101.8,490.1,105.6,490.1,110.3z"/>
		<path fill="#1D1D1B" d="M530,123.8l-5.1-10.8h-2.7v10.8h-5.4v-27H527c4.5,0,8.1,3.7,8.1,8.1c0,3.3-1.9,6.1-4.7,7.4l5.4,11.6H530z
			 M522.2,102.1v5.4h4.8c1.5,0,2.7-1.2,2.7-2.7s-1.2-2.7-2.7-2.7H522.2z"/>
		<path fill="#1D1D1B" d="M547.7,102.2v16.2h2.9v5.4h-11.1v-5.4h2.9v-16.2h-2.9v-5.4h11.1v5.4H547.7z"/>
		<path fill="#1D1D1B" d="M581.2,110.3c0,7.7-6.3,14-14,14c-7.7,0-14-6.3-14-14c0-7.7,6.3-14,14-14
			C574.9,96.3,581.2,102.6,581.2,110.3z M558.8,110.3c0,4.7,3.8,8.4,8.4,8.4s8.4-3.8,8.4-8.4c0-4.7-3.8-8.4-8.4-8.4
			S558.8,105.6,558.8,110.3z"/>
	</g>
	<g>
		<path fill="#1D1D1B" d="M320.5,143c1.8,0,3.6,0.3,5.2,1c1.6,0.7,3,1.7,4.3,2.9c1.3,1.3,2.2,2.7,2.9,4.3c0.7,1.7,1.1,3.4,1.1,5.2
			c0,1.9-0.3,3.6-1.1,5.3c-0.7,1.6-1.6,3-2.9,4.3c-1.2,1.2-2.7,2.2-4.3,2.9c-1.7,0.7-3.4,1.1-5.2,1.1h-5.4v0h-2.2v-27H320.5z
			 M320.5,164.7c4.5,0,8.1-3.7,8.1-8.1c0-4.5-3.6-8.1-8.1-8.1h-2.2v16.2H320.5z"/>
		<path fill="#1D1D1B" d="M356.2,148.4h-12.6v5H354v5.4h-10.4v5.9h12.5v5.4h-17.9v-27h18V148.4z"/>
		<path fill="#1D1D1B" d="M381.1,148.4v16.2h2.9v5.4h-11.1v-5.4h2.9v-16.2h-2.9V143H384v5.4H381.1z"/>
		<path fill="#1D1D1B" d="M409.6,170.1l-15.2-15.8v15.8H389v-27h1.7l14.9,15.1V143h5.4v27H409.6z"/>
		<path fill="#1D1D1B" d="M436.6,170.1l-15.2-15.8v15.8H416v-27h1.7l14.9,15.1V143h5.4v27H436.6z"/>
		<path fill="#1D1D1B" d="M470.7,156.5c0,7.7-6.3,14-14,14c-7.7,0-14-6.3-14-14c0-7.7,6.3-14,14-14
			C464.4,142.5,470.7,148.8,470.7,156.5z M448.2,156.5c0,4.7,3.8,8.4,8.4,8.4c4.7,0,8.4-3.8,8.4-8.4c0-4.7-3.8-8.4-8.4-8.4
			C452,148.1,448.2,151.9,448.2,156.5z"/>
		<path fill="#1D1D1B" d="M482.7,170.1l-12.2-27h6l7.1,15.3l7-15.3h6l-12.2,27H482.7z"/>
		<path fill="#1D1D1B" d="M512.2,165.1h-11.2l-2.5,5h-6.1l13.8-27h1.6l12.8,27h-6L512.2,165.1z M509.7,159.7l-2.8-6l-3,6H509.7z"/>
		<path fill="#1D1D1B" d="M540.1,149.6c-5.2-3.4-13.2-0.2-13.2,7c0,7.6,8.4,10.6,13.5,6.8l3.5,4c-2.4,2-5.6,3.2-8.9,3.2
			c-7.7,0-14-6.3-14-14c0-7.7,6.3-14,14-14c3.2,0,6.2,1.1,8.6,3L540.1,149.6z"/>
		<path fill="#1D1D1B" d="M557.2,148.4v16.2h2.9v5.4h-11.1v-5.4h2.9v-16.2h-2.9V143h11.1v5.4H557.2z"/>
		<path fill="#1D1D1B" d="M590.8,156.5c0,7.7-6.3,14-14,14c-7.7,0-14-6.3-14-14c0-7.7,6.3-14,14-14
			C584.5,142.5,590.8,148.8,590.8,156.5z M568.3,156.5c0,4.7,3.8,8.4,8.4,8.4c4.7,0,8.4-3.8,8.4-8.4c0-4.7-3.8-8.4-8.4-8.4
			C572.1,148.1,568.3,151.9,568.3,156.5z M575.3,140.8l8.4-3.9l-4.4-3.2l-6.2,5.4L575.3,140.8z"/>
		<path fill="#1D1D1B" d="M616,170.1l-15.2-15.8v15.8h-5.4v-27h1.7l14.9,15.1V143h5.4v27H616z"/>
	</g>
	<g>
		<path fill="#1D1D1B" d="M335.9,189.3l-8.8,17.1v9.9h-5.4v-9.9l-8.8-17.1h6l5.6,10.2l5.5-10.2H335.9z"/>
		<path fill="#1D1D1B" d="M369.7,194.7h-12.6v5h10.4v5.4h-10.4v5.9h12.5v5.4h-17.9v-27h18V194.7z"/>
		<path fill="#1D1D1B" d="M395.6,216.4v-16.5l-7.8,7.1l-7.8-7.1v16.5h-5.4v-27h1.9l11.3,10.3l11.3-10.3h1.9v27H395.6z"/>
		<path fill="#1D1D1B" d="M414.7,189.3c4.5,0,8.1,3.7,8.1,8.1c0,4.5-3.6,8.1-8.1,8.1h-3.4v10.8H406v-27H414.7z M414.7,200.2
			c1.5,0,2.7-1.2,2.7-2.7c0-1.5-1.2-2.7-2.7-2.7h-3.4v5.4H414.7z"/>
		<path fill="#1D1D1B" d="M441,216.4l-5.1-10.8h-2.7v10.8h-5.4v-27H438c4.5,0,8.1,3.7,8.1,8.1c0,3.3-1.9,6.1-4.7,7.4l5.4,11.6H441z
			 M433.3,194.7v5.4h4.8c1.5,0,2.7-1.2,2.7-2.7s-1.2-2.7-2.7-2.7H433.3z"/>
		<path fill="#1D1D1B" d="M468.8,194.7h-12.6v5h10.4v5.4h-10.4v5.9h12.5v5.4h-17.9v-27h18V194.7z"/>
		<path fill="#1D1D1B" d="M494.4,216.4l-15.2-15.8v15.8h-5.4v-27h1.7l14.9,15.1v-15.1h5.4v27H494.4z"/>
		<path fill="#1D1D1B" d="M508.5,189.3c1.8,0,3.6,0.3,5.2,1c1.6,0.7,3,1.7,4.3,2.9c1.3,1.3,2.2,2.7,2.9,4.3c0.7,1.7,1.1,3.4,1.1,5.2
			c0,1.9-0.3,3.6-1.1,5.3c-0.7,1.6-1.6,3-2.9,4.3c-1.2,1.2-2.7,2.2-4.3,2.9c-1.7,0.7-3.4,1.1-5.2,1.1h-5.4v0h-2.2v-27H508.5z
			 M508.5,211c4.5,0,8.1-3.7,8.1-8.1c0-4.5-3.6-8.1-8.1-8.1h-2.2V211H508.5z"/>
		<path fill="#1D1D1B" d="M533,194.7V211h2.9v5.4h-11.1V211h2.9v-16.2h-2.9v-5.4h11.1v5.4H533z"/>
		<path fill="#1D1D1B" d="M561.8,216.4v-16.5l-7.8,7.1l-7.8-7.1v16.5h-5.4v-27h1.9l11.3,10.3l11.3-10.3h1.9v27H561.8z"/>
		<path fill="#1D1D1B" d="M580.5,194.7V211h2.9v5.4h-11.1V211h2.9v-16.2h-2.9v-5.4h11.1v5.4H580.5z"/>
		<path fill="#1D1D1B" d="M606.3,194.7h-12.6v5h10.4v5.4h-10.4v5.9h12.5v5.4h-17.9v-27h18V194.7z"/>
		<path fill="#1D1D1B" d="M632,216.4l-15.2-15.8v15.8h-5.4v-27h1.7l14.9,15.1v-15.1h5.4v27H632z"/>
		<path fill="#1D1D1B" d="M658.2,189.3v5.4h-7.5v21.6h-5.4v-21.6h-7.5v-5.4H658.2z"/>
		<path fill="#1D1D1B" d="M687.6,202.8c0,7.7-6.3,14-14,14c-7.7,0-14-6.3-14-14c0-7.7,6.3-14,14-14
			C681.3,188.8,687.6,195.1,687.6,202.8z M665.1,202.8c0,4.7,3.8,8.4,8.4,8.4c4.7,0,8.4-3.8,8.4-8.4c0-4.7-3.8-8.4-8.4-8.4
			C668.9,194.4,665.1,198.2,665.1,202.8z"/>
	</g>
	<path fill="none" d="M115.9,118.5h-2.8v4.5h2.8c1.2,0,2.2-1,2.2-2.2S117.1,118.5,115.9,118.5z"/>
	<path fill="none" d="M115.6,73.2L69,154h93.3L115.6,73.2z M115.9,127.6h-2.8v9h-4.5V114h7.3c3.7,0,6.7,3.1,6.7,6.8
		C122.6,124.5,119.6,127.6,115.9,127.6z"/>
	<path fill="none" d="M213.4,70.6h-93.3l46.6,80.8L213.4,70.6z M154.9,98.1c0-6.4,5.2-11.7,11.7-11.7c6.4,0,11.7,5.2,11.7,11.7
		c0,6.4-5.2,11.7-11.7,11.7C160.1,109.7,154.9,104.5,154.9,98.1z"/>
	<path fill="none" d="M120.1,242.5h93.3l-46.6-80.8L120.1,242.5z M171.2,204.1h4.5v22.5h-1.2l-12.7-13.1v13.1h-4.5v-22.5h1.4
		l12.4,12.6V204.1z"/>
	<path fill="none" d="M166.6,91c-3.9,0-7,3.1-7,7c0,3.9,3.1,7,7,7s7-3.1,7-7C173.6,94.2,170.5,91,166.6,91z"/>
	<path fill="none" d="M69,159.1l46.6,80.8l46.6-80.8H69z M121.2,185.2v4.5h-8.7v4.9H123v4.5h-14.9v-22.5h15v4.5h-10.5v4.1H121.2z"/>
	<path fill="#1D1D1B" d="M243.1,151.6c0-1.6-1.3-2.5-2.6-2.5h-2v5.1h2C241.8,154.2,243.1,153.2,243.1,151.6z"/>
	<polygon fill="#1D1D1B" points="214.8,159.1 219.7,159.1 217.4,154.1 	"/>
	<path fill="#1D1D1B" d="M241.9,158.6h-3.3v5.4h3.3c1.5,0,2.8-1.2,2.8-2.7C244.7,159.8,243.4,158.6,241.9,158.6z"/>
	<path fill="#1D1D1B" d="M219.3,65.4H114.1l-0.7,1.3l-51.1,88.5l-0.7,1.3l0.7,1.3l51.1,88.5l0.7,1.3h105.2l51.9-89.8l0.7-1.3
		L219.3,65.4z M213.4,70.6l-46.6,80.8l-46.6-80.8H213.4z M199.6,163.3v4.5h-12.9v-22.5h4.5v18H199.6z M115.6,73.2l46.6,80.8H69
		L115.6,73.2z M69,159.1h93.3l-46.6,80.8L69,159.1z M120.1,242.5l46.6-80.8l46.6,80.8H120.1z M223.8,167.8l-2-4.2h-9.3l-2.1,4.2h-5
		l11.5-22.5h1.3l10.6,22.5H223.8z M242,167.8h-7.4v-22.5h6.1c3.6,0,6.6,3,6.6,6.6c0,1.4-0.4,2.6-1.2,3.7c1.6,1.3,2.7,3.2,2.7,5.4
		C248.8,164.8,245.7,167.8,242,167.8z"/>
	<path fill="#1D1D1B" d="M178.2,98.1c0-6.4-5.2-11.7-11.7-11.7c-6.4,0-11.7,5.2-11.7,11.7c0,6.4,5.2,11.7,11.7,11.7
		C173,109.7,178.2,104.5,178.2,98.1z M166.6,105.1c-3.9,0-7-3.1-7-7c0-3.9,3.1-7,7-7s7,3.1,7,7C173.6,101.9,170.5,105.1,166.6,105.1
		z"/>
	<path fill="#1D1D1B" d="M115.9,114h-7.3v22.5h4.5v-9h2.8c3.7,0,6.7-3,6.7-6.7C122.6,117.1,119.6,114,115.9,114z M115.9,123.1h-2.8
		v-4.5h2.8c1.2,0,2.2,1,2.2,2.3S117.1,123.1,115.9,123.1z"/>
	<polygon fill="#1D1D1B" points="123.1,181.1 123.1,176.6 108.1,176.6 108.1,199.1 123,199.1 123,194.6 112.6,194.6 112.6,189.7 
		121.2,189.7 121.2,185.2 112.6,185.2 112.6,181.1 	"/>
	<polygon fill="#1D1D1B" points="157.3,204.1 157.3,226.6 161.8,226.6 161.8,213.5 174.5,226.6 175.7,226.6 175.7,204.1 
		171.2,204.1 171.2,216.7 158.7,204.1 	"/>
</g>
</svg>
