<?xml version="1.0" encoding="utf-8"?>
<!-- Generator: Adobe Illustrator 16.0.0, SVG Export Plug-In . SVG Version: 6.00 Build 0)  -->
<!DOCTYPE svg PUBLIC "-//W3C//DTD SVG 1.1//EN" "http://www.w3.org/Graphics/SVG/1.1/DTD/svg11.dtd" [
	<!ENTITY ns_extend "http://ns.adobe.com/Extensibility/1.0/">
	<!ENTITY ns_ai "http://ns.adobe.com/AdobeIllustrator/10.0/">
	<!ENTITY ns_graphs "http://ns.adobe.com/Graphs/1.0/">
	<!ENTITY ns_vars "http://ns.adobe.com/Variables/1.0/">
	<!ENTITY ns_imrep "http://ns.adobe.com/ImageReplacement/1.0/">
	<!ENTITY ns_sfw "http://ns.adobe.com/SaveForWeb/1.0/">
	<!ENTITY ns_custom "http://ns.adobe.com/GenericCustomNamespace/1.0/">
	<!ENTITY ns_adobe_xpath "http://ns.adobe.com/XPath/1.0/">
]>
<svg version="1.1" id="Layer_1" xmlns:x="&ns_extend;" xmlns:i="&ns_ai;" xmlns:graph="&ns_graphs;"
	 xmlns="http://www.w3.org/2000/svg" xmlns:xlink="http://www.w3.org/1999/xlink" x="0px" y="0px" width="792px" height="388px"
	 viewBox="0 0 792 388" enable-background="new 0 0 792 388" xml:space="preserve">
<metadata>
	<sfw  xmlns="&ns_sfw;">
		<slices></slices>
		<sliceSourceBounds  height="303.505" width="699.485" y="-455.984" x="42.389" bottomLeftOrigin="true"></sliceSourceBounds>
	</sfw>
</metadata>
<g>
	<path fill-rule="evenodd" clip-rule="evenodd" fill="#EC2227" d="M182.807,190.543c-5.77-6.684-12.336-9.373-19.536-10.453
		c-21.219-3.185-37.385,7.431-44.469,28.984c-5.042,15.341-5.262,31.197-4.651,47.083c0.452,11.74,2.103,23.303,6.198,34.441
		c7.466,20.31,31.345,28.652,48.802,16.771c8.564-5.829,12.288-14.564,13.519-24.544c0.25-2.021,0.368-4.059,0.577-6.425
		c13.78,0,27.316,0,41.409,0c0.941,9.882-0.972,19.221-4.577,28.164c-7.874,19.53-22.015,32.977-41.918,39.418
		c-26.595,8.606-53.416,7.922-79.629-1.826c-24.832-9.232-41.35-27.171-49.213-52.23c-9.518-30.329-9.833-60.951,2.821-90.558
		c12.731-29.787,36.326-46.494,67.909-51.903c23.521-4.028,46.728-2.941,68.907,6.936c28.096,12.513,42.992,40.413,36.696,68.441
		c-3.849,17.134-17.163,28.309-34.764,29.346c-12.465,0.735-23.73-1.546-31.955-11.997c-10.949-13.912-6.873-37.825,7.862-45.76
		C171.329,191.988,176.286,190.823,182.807,190.543z"/>
	<path fill-rule="evenodd" clip-rule="evenodd" fill="#241E20" d="M505.295,145.603c1.882,2.217,4.412,1.49,6.603,2.386
		c0,4.292,0,8.571,0,13.197c-16.001,0-31.961,0-48.292,0c-0.816-4.346-0.265-8.715-0.187-13.125c3.558-1.311,7.578,0.7,10.804-2.462
		c1.433-2.12,1.367-4.901,1.371-7.653c0.014-9.837,0.002-19.674,0-29.511c-0.002-12.353-0.002-12.353-11.791-13.435
		c-1.142-2.047-0.421-4.323-0.54-6.498c-0.12-2.202-0.026-4.416-0.026-7.179c6.768,0,13.097,0,19.427,0c6.37,0,12.739,0,19.214,0
		c1.551,3.113,0.342,6.311,1.253,10.059c6.702-7.94,14.899-12.311,25.082-12.413c10.175-0.102,19.274,1.962,24.415,11.917
		c1.859,0.119,2.394-1.376,3.302-2.252c8.292-8.003,18.338-10.733,29.498-9.376c12.218,1.486,19.045,9.947,19.582,24.519
		c0.419,11.376,0.184,22.776,0.251,34.165c0.015,2.404-0.202,4.838,0.782,7.25c2.919,3.843,7.354,1.583,11.315,2.637
		c0.951,4.272,0.357,8.69,0.346,13.392c-16.177,0-32.156,0-48.512,0c0-4.399,0-8.769,0.006-13.145
		c6.72-1.485,7.768-2.667,7.779-9.732c0.018-10.697,0.114-21.403-0.269-32.089c-0.284-7.909-3.235-11.263-9.029-11.641
		c-6.373-0.415-10.921,2.906-12.091,10.143c-2.046,12.655-0.791,25.457-0.672,38.197c0.013,1.288,0.61,2.708,1.948,3.644
		c1.403,1.407,3.628,0.308,5.483,1.557c0,4.132,0,8.391,0,13c-14.689,0-29.226,0-43.978,0c0-4.453,0-8.712,0-13.011
		c2.065-1.115,4.637-0.535,6.249-2.394c1.416-1.667,1.716-3.704,1.725-5.792c0.045-10.699,0.237-21.403,0.029-32.098
		c-0.178-9.21-3.576-13.301-10.289-13.272c-6.054,0.025-10.117,4.039-11.23,11.301c-1.444,9.435-0.439,18.939-0.619,28.411
		C504.16,138.2,503.419,142.244,505.295,145.603z"/>
	<path fill-rule="evenodd" clip-rule="evenodd" fill="#241E20" d="M675.016,95.5c0-4.713,0-8.48,0-12.72
		c7.351-1.466,13.317-5.164,16.944-11.964c3.377-6.331,4.574-13.297,5.546-20.484c5.454,0,10.733,0,16.693,0
		c0,5.299,0,10.404,0,15.509c0,4.962,0,9.924,0,15.344c6.895,0,13.365,0,20.014,0c1.25,4.794,0.283,9.194,0.668,14.008
		c-6.908,0-13.396,0-19.35,0c-1.826,1.507-1.298,2.988-1.302,4.288c-0.042,13.102-0.055,26.204-0.001,39.305
		c0.007,1.873,0.207,3.795,0.671,5.604c0.706,2.746,2.425,4.443,5.522,4.475c3.23,0.034,5.122-1.521,6.088-4.498
		c1.247-3.843,1.016-7.827,1.163-11.77c0.103-2.713,0.02-5.435,0.02-8.399c4.825-0.724,9.182-0.573,13.859-0.141
		c0.434,7.821,0.733,15.366-1.185,22.75c-3.079,11.85-10.389,17.336-23.76,18.176c-4.327,0.271-8.63-0.084-12.841-1.032
		c-9.674-2.177-15.398-8.987-16.681-19.843c-1.603-13.573-0.521-27.208-0.794-40.813c-0.049-2.391-0.007-4.784-0.007-7.792
		C682.565,95.5,679.054,95.5,675.016,95.5z"/>
	<path fill-rule="evenodd" clip-rule="evenodd" fill="#232020" d="M403.976,81.581c13.847,0,27.378,0,41.563,0
		c0,11.084-0.159,21.91,0.045,32.729c0.2,10.602-0.987,21.279,0.817,31.27c3.457,2.902,6.972,1.464,10.422,2.285
		c0.851,4.28,0.386,8.668,0.225,13.349c-17.708,0-35.219,0-53.035,0c0-4.4,0-8.638,0-13.21c3.464-1.283,7.572,0.656,12.421-2.87
		c0.486-15.402,0.79-31.979-0.296-47.892c-4.664-2.493-8.454-1.141-12.162-2.2C403.976,90.744,403.976,86.496,403.976,81.581z"/>
	<path fill-rule="evenodd" clip-rule="evenodd" fill="#261F21" d="M443.511,60.444c0.061,7.887-5.966,14.11-13.835,14.285
		c-7.966,0.176-14.301-5.754-14.524-13.597c-0.225-7.821,6.381-14.644,14.184-14.652C437.136,46.471,443.45,52.692,443.511,60.444z"
		/>
	<path fill-rule="evenodd" clip-rule="evenodd" fill="#EC2227" d="M431.855,256.347c-43.585,0-86.512,0-129.38,0
		c-3.285,24.136,5.427,50.238,28.003,54.17c18.989,3.309,36.136-0.829,45.629-16.355c2.91-4.76,3.696-10.261,5.211-15.646
		c15.649,0,31.089,0,47.12,0c-1.591,8.922-4.661,16.887-8.658,24.454c-14.449,27.358-37.896,41.465-67.983,45.348
		c-20.431,2.636-40.714,1.956-60.182-5.509c-30.114-11.544-49.744-32.986-57.396-64.362c-6.282-25.759-4.99-51.502,5.35-76.121
		c13.046-31.063,37.272-48.41,70.099-53.734c21.378-3.467,42.795-2.658,63.284,4.875c34.054,12.519,51.961,38.188,57.454,73.293
		C431.897,236.29,432.339,245.903,431.855,256.347z M348.811,185.74c-10.102-6.195-21.394-6.492-31.347,0.216
		c-12.918,8.706-15.146,22.422-15.139,37.226c20.757,0.995,41.009,0.453,61.746,0.573
		C363.607,208.628,362.703,194.258,348.811,185.74z"/>
	<path fill-rule="evenodd" clip-rule="evenodd" fill="#E72428" d="M637.746,147.277c4.768,3.105,7.341,6.518,4.874,11.585
		c-1.786,3.667-6.851,5.414-12.307,4.245c-4.249-0.911-7.192-3.271-7.676-7.886c-0.628-6,1.912-10.701,7.095-13.248
		c13.608-6.689,27.719-6.579,41.541-0.927c6.214,2.542,8.002,8.571,7.946,15.067c-0.075,8.622-0.068,17.245-0.049,25.867
		c0.006,2.765,0.029,5.599,3.321,6.71c2.443-1.792,2.443-1.792,3.848-10.442c2.109-0.873,4.267-0.788,6.414-0.208
		c2.311,9.412-0.237,18.485-6.072,21.825c-8.412,4.814-18.594,2.722-27.089-5.779c-6.19,5.547-13.373,8.546-21.936,8.251
		c-12.474-0.429-20.123-9.644-17.621-21.83c0.928-4.52,3.844-7.451,8.01-9.43c7.092-3.37,14.971-3.881,22.274-6.426
		c2.424-0.845,4.967-1.566,6.644-3.733c3.64-4.706,1.643-11.803-4.22-14.1C648.158,145.021,643.39,144.76,637.746,147.277z
		 M644.253,178.394c-1.839,1.801-3.001,3.688-2.073,6.369c0.867,2.502,2.665,3.863,5.14,4.499
		c5.161,1.326,10.149-1.899,10.782-7.369c0.387-3.352,0.071-6.785,0.071-10.579C652.922,172.35,647.407,175.304,644.253,178.394z"/>
</g>
</svg>
