<?xml version="1.0" encoding="utf-8"?>
<!-- Generator: Adobe Illustrator 16.0.0, SVG Export Plug-In . SVG Version: 6.00 Build 0)  -->
<!DOCTYPE svg PUBLIC "-//W3C//DTD SVG 1.1//EN" "http://www.w3.org/Graphics/SVG/1.1/DTD/svg11.dtd" [
	<!ENTITY st0 "fill-rule:evenodd;clip-rule:evenodd;fill:#0A875A;">
	<!ENTITY st1 "fill-rule:evenodd;clip-rule:evenodd;fill:#E22714;">
	<!ENTITY st2 "fill-rule:evenodd;clip-rule:evenodd;fill:#89888C;">
	<!ENTITY st3 "fill-rule:evenodd;clip-rule:evenodd;fill:#1E3F88;">
	<!ENTITY st4 "fill-rule:evenodd;clip-rule:evenodd;fill:#8A888D;">
	<!ENTITY st5 "fill-rule:evenodd;clip-rule:evenodd;fill:#8B8A8F;">
	<!ENTITY st6 "fill-rule:evenodd;clip-rule:evenodd;fill:#8D8C90;">
	<!ENTITY st7 "fill-rule:evenodd;clip-rule:evenodd;fill:#20120F;">
	<!ENTITY st8 "fill-rule:evenodd;clip-rule:evenodd;fill:#201410;">
	<!ENTITY st9 "fill-rule:evenodd;clip-rule:evenodd;fill:#201511;">
	<!ENTITY st10 "fill-rule:evenodd;clip-rule:evenodd;fill:#8F8E92;">
	<!ENTITY st11 "fill-rule:evenodd;clip-rule:evenodd;fill:#211613;">
	<!ENTITY st12 "fill-rule:evenodd;clip-rule:evenodd;fill:#221613;">
	<!ENTITY st13 "fill-rule:evenodd;clip-rule:evenodd;fill:#221713;">
	<!ENTITY st14 "fill-rule:evenodd;clip-rule:evenodd;fill:#251B18;">
	<!ENTITY st15 "fill-rule:evenodd;clip-rule:evenodd;fill:#908F93;">
	<!ENTITY st16 "fill-rule:evenodd;clip-rule:evenodd;fill:#C4C5CB;">
	<!ENTITY st17 "fill-rule:evenodd;clip-rule:evenodd;fill:#C5C6CB;">
	<!ENTITY st18 "fill-rule:evenodd;clip-rule:evenodd;fill:#C5C6CC;">
	<!ENTITY st19 "fill-rule:evenodd;clip-rule:evenodd;fill:#C6C6CB;">
	<!ENTITY st20 "fill-rule:evenodd;clip-rule:evenodd;fill:#C6C6CC;">
	<!ENTITY st21 "fill-rule:evenodd;clip-rule:evenodd;fill:#C6C7CC;">
	<!ENTITY st22 "fill-rule:evenodd;clip-rule:evenodd;fill:#C6C7CD;">
	<!ENTITY st23 "fill-rule:evenodd;clip-rule:evenodd;fill:#C7C7CD;">
	<!ENTITY st24 "fill-rule:evenodd;clip-rule:evenodd;fill:#FCEB5C;">
	<!ENTITY st25 "fill-rule:evenodd;clip-rule:evenodd;fill:#FCFCFC;">
	<!ENTITY st26 "fill-rule:evenodd;clip-rule:evenodd;fill:#C9C9CE;">
	<!ENTITY st27 "fill-rule:evenodd;clip-rule:evenodd;fill:#CACBCF;">
	<!ENTITY st28 "fill-rule:evenodd;clip-rule:evenodd;fill:#010203;">
]>
<svg version="1.1" id="Layer_1" xmlns="http://www.w3.org/2000/svg" xmlns:xlink="http://www.w3.org/1999/xlink" x="0px" y="0px"
	 width="159.5px" height="136px" viewBox="0 0 159.5 136" style="enable-background:new 0 0 159.5 136;" xml:space="preserve">
<g>
	<path style="&st28;" d="M56.542,37.796c0.955,0.752,1.879,1.439,2.755,2.189c0.389,0.334,0.607,0.311,0.978-0.037
		c4.118-3.847,10.68-3.945,15.167-0.562c0.955,0.719,1.768,1.573,2.479,2.618c0.964-1.295,1.997-2.445,3.333-3.298
		c6.173-3.938,16.656-1.367,17.996,8.184c0.084,0.617,0.127,1.229,0.127,1.851c0,6.172-0.014,12.349,0.018,18.521
		c0.004,0.705-0.2,0.857-0.848,0.814c-0.86-0.055-1.729-0.053-2.586,0c-0.601,0.037-0.766-0.132-0.764-0.748
		c0.029-4.91,0.02-9.815,0.016-14.724c0-1.589,0.073-3.186-0.049-4.766c-0.428-5.505-6.261-7.989-10.513-6.118
		c-3.135,1.379-4.711,3.784-4.706,7.226c0.006,6.121-0.008,12.24,0.016,18.362c0.004,0.581-0.102,0.811-0.736,0.77
		c-0.916-0.061-1.836-0.051-2.748-0.002c-0.574,0.029-0.717-0.153-0.713-0.717c0.02-6.146,0.014-12.292,0.012-18.44
		c-0.002-4.939-3.631-8.284-8.525-7.74c-3.49,0.389-6.791,3.107-6.781,7.722c0.012,6.093-0.008,12.187,0.018,18.278
		c0.002,0.674-0.092,0.984-0.86,0.899c-0.746-0.076-1.512-0.066-2.26,0c-0.748,0.067-0.988-0.113-0.98-0.933
		c0.043-5.633,0.021-11.269,0.021-16.905c0-3.881-0.004-7.764,0.002-11.647C56.408,38.359,56.338,38.112,56.542,37.796z"/>
	<path style="&st3;" d="M134.937,7.847c3.863,0.131,6.909,3.069,6.811,7.062c-0.102,4.043-3.14,6.785-6.993,6.783
		c-4-0.002-6.923-3.209-6.821-7.256C128.028,10.759,131.206,7.766,134.937,7.847z"/>
	<path style="&st7;" d="M35.069,92.439c0.01-4.124,3.271-7.354,7.4-7.335c4.083,0.02,7.36,3.335,7.345,7.434
		c-0.016,4.11-3.329,7.339-7.518,7.327C38.258,99.854,35.057,96.562,35.069,92.439z"/>
	<path style="&st24;" d="M112.466,17.719c-0.014,3.288-2.577,5.854-5.836,5.849c-3.339-0.01-5.921-2.6-5.937-5.955
		c-0.012-3.162,2.779-5.88,6.003-5.842C109.917,11.808,112.478,14.447,112.466,17.719z"/>
	<path style="&st0;" d="M98.892,24.966c-0.018,3.044-2.432,5.428-5.456,5.393c-3.026-0.038-5.434-2.477-5.41-5.481
		c0.025-2.999,2.468-5.397,5.497-5.389C96.546,19.494,98.905,21.902,98.892,24.966z"/>
	<path style="&st1;" d="M120.161,25.634c-2.647-0.036-4.828-2.247-4.798-4.875c0.029-2.657,2.209-4.813,4.864-4.804
		c2.695,0.014,4.904,2.252,4.839,4.912C125.005,23.528,122.804,25.669,120.161,25.634z"/>
	<path style="&st4;" d="M49.729,100.388c0-1.239,0.004-2.479-0.002-3.718c-0.004-0.45,0.163-0.569,0.499-0.25
		c0.338,0.324,0.585,0.279,0.972,0.023c1.408-0.937,3.001-0.77,4.281,0.421c0.298,0.282,0.438,0.309,0.748-0.008
		c1.088-1.096,2.396-1.276,3.789-0.688c1.341,0.565,1.911,1.667,1.913,3.085c0.006,1.565,0.006,3.129,0,4.69
		c0,0.363,0.108,0.781-0.514,0.775c-0.621-0.004-0.693-0.369-0.67-0.849c0.081-1.561,0.094-3.122-0.012-4.684
		c-0.09-1.312-0.982-2.182-2.16-2.146c-1.231,0.037-2.121,0.966-2.137,2.278c-0.02,1.561-0.004,3.124-0.006,4.688
		c0,0.348,0.07,0.693-0.511,0.678c-0.522-0.016-0.705-0.163-0.693-0.699c0.027-1.509,0.02-3.017,0.004-4.527
		c-0.014-1.475-0.872-2.433-2.127-2.417c-1.302,0.018-2.198,1.025-2.202,2.484c-0.008,1.533-0.023,3.069-0.012,4.604
		c0.002,0.338,0.03,0.587-0.436,0.548c-0.391-0.031-0.748,0.018-0.734-0.569C49.747,102.866,49.727,101.627,49.729,100.388z"/>
	<path style="&st8;" d="M109.206,75.13c0.622,0.622,1.078,0.493,1.703,0.094c1.233-0.787,2.895-0.544,4.016,0.53
		c0.346,0.334,0.471,0.311,0.79-0.02c0.952-0.985,2.449-1.245,3.733-0.67c1.278,0.576,1.932,1.591,1.938,2.997
		c0.01,1.646-0.016,3.29,0.018,4.934c0.01,0.511-0.151,0.63-0.637,0.635c-0.493,0.006-0.565-0.187-0.56-0.611
		c0.021-1.48,0.01-2.964,0.008-4.446c-0.004-1.616-0.792-2.568-2.139-2.576c-1.332-0.014-2.188,0.974-2.189,2.539
		c-0.004,1.4,0.002,2.805-0.004,4.205c-0.004,0.42,0.183,0.901-0.61,0.897c-0.849-0.006-0.542-0.564-0.55-0.936
		c-0.03-1.428-0.008-2.855-0.014-4.285c-0.008-1.451-0.864-2.413-2.145-2.421c-1.278-0.01-2.174,0.958-2.184,2.382
		c-0.01,1.536-0.022,3.073,0.01,4.607c0.012,0.501-0.134,0.642-0.63,0.645c-0.483,0.002-0.564-0.177-0.562-0.605
		C109.216,80.393,109.206,77.762,109.206,75.13z"/>
	<path style="&st17;" d="M80.763,121.503c0,1.214-0.002,2.428,0,3.64c0,0.402-0.114,0.626-0.483,0.257
		c-0.365-0.367-0.669-0.214-0.996,0.029c-1.202,0.899-2.431,0.941-3.708,0.146c-1.155-0.723-1.666-1.756-1.636-3.114
		c0.034-1.562,0.01-3.129,0.008-4.692c0-0.365-0.029-0.703,0.519-0.693c0.511,0.01,0.634,0.262,0.628,0.715
		c-0.012,1.536-0.01,3.074-0.002,4.611c0.006,1.381,0.988,2.426,2.265,2.422c1.28,0,2.241-1.033,2.25-2.439
		c0.01-1.51,0.002-3.021,0.002-4.53c0-0.354-0.047-0.746,0.481-0.756c0.511-0.011,0.691,0.259,0.68,0.766
		C80.745,119.076,80.763,120.289,80.763,121.503z"/>
	<path style="&st20;" d="M110.367,121.479c0-1.239-0.002-2.477,0.002-3.718c0-0.151-0.063-0.348,0.118-0.432
		c0.185-0.087,0.296,0.088,0.393,0.2c0.283,0.32,0.497,0.313,0.874,0.055c1.147-0.779,2.417-0.952,3.645-0.245
		c1.122,0.645,1.852,1.571,1.783,3.009c-0.075,1.585-0.027,3.176-0.012,4.765c0.004,0.441-0.061,0.705-0.607,0.695
		c-0.521-0.009-0.544-0.287-0.542-0.676c0.008-1.509,0.004-3.017,0.004-4.525c0-1.514-0.955-2.533-2.353-2.431
		c-1.222,0.09-2.139,0.999-2.163,2.351c-0.023,1.506-0.006,3.015-0.006,4.522c0,0.379,0.061,0.746-0.54,0.761
		c-0.634,0.018-0.603-0.35-0.599-0.778C110.375,123.848,110.367,122.664,110.367,121.479z"/>
	<path style="&st17;" d="M62.599,117.061c0.64-0.033,1.153,0.24,1.579,0.682c0.204,0.212,0.616,0.468,0.237,0.775
		c-0.257,0.213-0.652,0.553-1.042,0.079c-0.354-0.43-0.845-0.513-1.316-0.305c-0.456,0.202-0.628,0.629-0.572,1.144
		c0.065,0.583,0.461,0.814,0.958,0.94c0.628,0.159,1.239,0.359,1.756,0.764c0.899,0.709,1.208,1.682,0.948,2.74
		c-0.247,1.011-0.913,1.63-1.999,1.985c-1.235,0.402-1.946-0.198-2.708-0.886c-0.155-0.14-0.503-0.336-0.257-0.56
		c0.248-0.225,0.573-0.538,1-0.297c0.09,0.053,0.159,0.144,0.236,0.218c0.53,0.511,1.141,0.607,1.771,0.254
		c0.635-0.357,0.851-0.963,0.725-1.66c-0.114-0.638-0.554-1.005-1.168-1.184c-0.383-0.112-0.786-0.192-1.147-0.357
		c-1.094-0.501-1.638-1.624-1.355-2.723C60.472,117.793,61.562,117.047,62.599,117.061z"/>
	<path style="&st4;" d="M79.655,101.89c0.809-1.871,1.518-3.523,2.233-5.175c0.106-0.237,0.139-0.562,0.448-0.622
		c0.312-0.062,0.699-0.157,0.935,0.061c0.224,0.204-0.037,0.497-0.139,0.734c-1.125,2.646-2.259,5.287-3.417,7.993
		c-0.391-0.448-0.522-0.967-0.727-1.438c-0.947-2.199-1.879-4.403-2.796-6.616c-0.09-0.221-0.483-0.586-0.067-0.717
		c0.363-0.114,0.929-0.289,1.188,0.313c0.444,1.039,0.888,2.076,1.332,3.115C78.948,100.248,79.254,100.957,79.655,101.89z"/>
	<path style="&st26;" d="M71.521,117.812c0.071,0.428-0.161,0.616-0.601,0.548c-0.752-0.122-0.89,0.235-0.875,0.911
		c0.041,1.909,0.004,3.821,0.02,5.73c0.004,0.509-0.092,0.803-0.701,0.813c-0.65,0.006-0.582-0.388-0.582-0.8
		c0.002-1.962-0.021-3.928,0.016-5.89c0.01-0.609-0.173-0.837-0.778-0.77c-0.456,0.051-0.874,0.016-0.854-0.639
		c0.012-0.436,0.171-0.703,0.617-0.629c0.937,0.155,1.059-0.333,1.018-1.1c-0.028-0.522-0.23-1.131,0.477-1.477
		c0.613-0.301,0.756-0.261,0.78,0.404c0.01,0.271,0.012,0.54,0,0.808c-0.032,0.762-0.175,1.567,1.066,1.389
		C71.511,117.057,71.522,117.462,71.521,117.812z"/>
	<path style="&st22;" d="M130.113,118.632c0-2.125-0.008-4.25,0.008-6.375c0.002-0.321-0.187-0.805,0.507-0.736
		c0.481,0.05,0.782,0.073,0.78,0.703c-0.027,4.305-0.02,8.61-0.008,12.917c0,0.465-0.116,0.665-0.628,0.674
		c-0.564,0.006-0.67-0.225-0.666-0.724C130.125,122.938,130.113,120.786,130.113,118.632z"/>
	<path style="&st21;" d="M121.197,122.114c0-0.998-0.033-1.997,0.012-2.993c0.03-0.613-0.177-0.827-0.781-0.768
		c-0.413,0.039-0.874,0.125-0.86-0.592c0.01-0.524,0.171-0.766,0.699-0.678c0.831,0.14,0.976-0.271,0.952-1.005
		c-0.02-0.579-0.333-1.328,0.554-1.651c0.377-0.136,0.569-0.103,0.565,0.339c-0.004,0.485,0.04,0.975-0.008,1.456
		c-0.065,0.659,0.151,0.954,0.844,0.865c0.352-0.043,0.719-0.033,0.758,0.481c0.041,0.521-0.102,0.878-0.701,0.786
		c-0.799-0.124-0.921,0.271-0.905,0.96c0.037,1.89,0.016,3.776,0.008,5.66c0,0.383,0.135,0.822-0.542,0.835
		c-0.723,0.016-0.591-0.452-0.595-0.866C121.191,124.001,121.197,123.057,121.197,122.114z"/>
	<path style="&st6;" d="M91.285,97.577c0,2.125-0.016,4.252,0.006,6.377c0.006,0.484-0.094,0.75-0.64,0.76
		c-0.625,0.01-0.517-0.414-0.517-0.773c-0.002-4.254-0.002-8.506-0.006-12.758c0-0.428-0.018-0.792,0.601-0.8
		c0.678-0.006,0.554,0.429,0.556,0.815C91.287,93.325,91.285,95.45,91.285,97.577z"/>
	<path style="&st14;" d="M61.346,75.008c0.55,0.851,1.082,0.593,1.679,0.163c0.514-0.373,1.155-0.408,1.779-0.354
		c0.312,0.029,0.856-0.136,0.827,0.324c-0.021,0.387-0.163,0.95-0.89,0.878c-0.982-0.099-1.693,0.391-2.131,1.272
		c-0.212,0.422-0.206,0.884-0.208,1.339c-0.008,1.452-0.024,2.905,0.006,4.354c0.01,0.497-0.138,0.645-0.634,0.646
		c-0.511,0.004-0.558-0.227-0.558-0.637c0.014-2.601,0.008-5.2,0.008-7.803C61.265,75.132,61.304,75.068,61.346,75.008z"/>
	<path style="&st13;" d="M90.912,75.021c0.571,0.849,1.109,0.548,1.701,0.14c0.58-0.398,1.274-0.393,1.948-0.338
		c0.263,0.018,0.732-0.066,0.65,0.342c-0.066,0.318-0.124,0.812-0.689,0.858c-2.007,0.181-2.563,0.803-2.563,2.803
		c0,1.428-0.018,2.855,0.01,4.283c0.01,0.475-0.222,0.51-0.591,0.514c-0.379,0.002-0.591-0.049-0.589-0.518
		c0.02-2.636,0.01-5.27,0.01-7.905C90.835,75.142,90.877,75.08,90.912,75.021z"/>
	<path style="&st21;" d="M127.498,121.423c0,1.214-0.006,2.425,0.004,3.639c0.002,0.427-0.061,0.729-0.601,0.742
		c-0.56,0.015-0.677-0.261-0.675-0.75c0.012-2.425,0.012-4.849,0.002-7.274c-0.002-0.457,0.129-0.705,0.64-0.705
		c0.513,0.002,0.64,0.258,0.634,0.709C127.49,118.997,127.498,120.209,127.498,121.423z"/>
	<path style="&st19;" d="M96.122,121.476c0,1.239-0.012,2.477,0.008,3.716c0.008,0.445-0.138,0.625-0.601,0.614
		c-0.428-0.008-0.552-0.181-0.552-0.583c0.01-2.504,0.01-5.008,0-7.512c0-0.445,0.183-0.621,0.625-0.635
		c0.54-0.02,0.526,0.314,0.522,0.686C96.12,119.001,96.122,120.238,96.122,121.476z"/>
	<path style="&st5;" d="M95.51,100.396c0,1.21,0.004,2.417-0.002,3.627c0,0.33,0.104,0.734-0.491,0.678
		c-0.424-0.041-0.684-0.108-0.678-0.645c0.028-2.471,0.02-4.94,0.004-7.413c-0.004-0.462,0.167-0.588,0.613-0.6
		c0.505-0.008,0.564,0.238,0.558,0.646C95.5,97.925,95.51,99.16,95.51,100.396z"/>
	<path style="&st5;" d="M87.059,100.401c0,1.21-0.008,2.423,0.008,3.635c0.008,0.431-0.11,0.639-0.585,0.639
		c-0.491,0-0.575-0.226-0.571-0.646c0.012-2.451,0.014-4.901,0-7.354c-0.004-0.433,0.104-0.627,0.583-0.631
		c0.493-0.002,0.58,0.221,0.574,0.641C87.051,97.923,87.059,99.162,87.059,100.401z"/>
	<path style="&st27;" d="M127.494,114.445c0.051,0.5-0.177,0.682-0.658,0.682c-0.526,0-0.597-0.293-0.617-0.726
		c-0.03-0.565,0.292-0.577,0.713-0.587C127.417,113.803,127.553,114.026,127.494,114.445z"/>
	<path style="&st23;" d="M96.11,114.459c0.073,0.473-0.083,0.67-0.56,0.672c-0.487,0.002-0.573-0.225-0.579-0.643
		c-0.006-0.464,0.106-0.688,0.628-0.676C96.118,113.824,96.166,114.1,96.11,114.459z"/>
	<path style="&st10;" d="M95.502,93.451c0.082,0.469-0.136,0.599-0.578,0.603c-0.544,0.008-0.575-0.288-0.591-0.711
		c-0.018-0.476,0.185-0.569,0.613-0.585C95.506,92.736,95.561,93.028,95.502,93.451z"/>
	<path style="&st15;" d="M85.914,93.345c-0.079-0.428,0.108-0.577,0.562-0.589c0.532-0.014,0.591,0.237,0.603,0.676
		c0.014,0.516-0.23,0.616-0.678,0.62C85.853,94.062,85.896,93.718,85.914,93.345z"/>
	<path style="&st28;" d="M25.226,63.771c0,6.693,0,13.189,0,19.687c0,1.374-0.012,2.751,0.01,4.126
		c0.008,0.457-0.142,0.616-0.603,0.603c-0.97-0.029-1.942-0.039-2.91,0.002c-0.554,0.025-0.674-0.181-0.67-0.697
		c0.02-3.802,0.01-7.604,0.01-11.402c0-12.486,0-24.969,0-37.451c0-0.26,0-0.522,0-0.901c0.803,0.457,1.289,1.1,1.877,1.618
		c0.73,0.638,1.445,1.296,2.117,1.993c0.401,0.414,0.619,0.438,1.066,0c7.765-7.622,22.18-5.396,26.216,6.628
		c2.898,8.638-2.046,18.003-10.762,20.394c-5.853,1.604-11.194,0.377-15.658-3.939C25.732,64.25,25.542,64.071,25.226,63.771z
		 M48.993,53.015c0.041-6.589-5.151-11.788-11.677-11.923c-6.491-0.136-12.135,5.259-12.1,11.775
		c0.037,6.824,5.106,11.954,11.931,11.966C43.755,64.843,48.947,59.662,48.993,53.015z"/>
	<path style="&st28;" d="M111.594,62.488c1.976,1.562,4.209,2.296,6.671,2.341c4.619,0.078,8.135-1.892,10.558-5.802
		c0.291-0.467,0.475-0.589,0.964-0.263c0.76,0.503,1.557,0.958,2.372,1.367c0.57,0.284,0.55,0.563,0.246,1.052
		c-2.902,4.657-7.066,7.269-12.54,7.748c-8.784,0.771-15.615-5.903-16.919-12.861c-2.156-11.53,8.009-20.908,18.577-18.844
		c4.191,0.818,7.559,2.965,10.183,6.325c0.438,0.563,0.405,0.864-0.147,1.346c-6.463,5.656-12.899,11.342-19.343,17.02
		C112.018,62.092,111.826,62.276,111.594,62.488z M108.479,59.093c0.305,0.528,0.499,0.267,0.776,0.021
		c5.562-4.93,11.122-9.857,16.695-14.776c0.35-0.309,0.391-0.466-0.012-0.766c-3.111-2.326-6.563-2.958-10.316-2.105
		c-3.971,0.901-8.61,4.786-8.814,11.139C106.806,54.911,107.318,57.079,108.479,59.093z"/>
	<path style="&st25;" d="M40.827,91.068c0-1.274,0-2.45,0-3.625c0-0.318-0.079-0.666,0.452-0.645
		c0.507,0.02,0.365,0.375,0.365,0.637c0.01,2.799,0.006,5.595,0.006,8.407c-0.813-0.292-0.813-0.292-1.785,0.134
		c-1.229,0.54-2.716,0.144-3.544-0.944c-0.827-1.085-0.768-2.693,0.133-3.726c0.89-1.02,2.416-1.313,3.602-0.686
		C40.285,90.742,40.507,90.88,40.827,91.068z"/>
	<path style="&st25;" d="M46.127,90.32c0.831-0.039,1.51,0.297,2.105,0.853c0.334,0.307,0.413,0.53-0.02,0.88
		c-0.98,0.795-1.903,1.661-2.848,2.5c-0.155,0.138-0.422,0.229-0.357,0.479c0.063,0.235,0.35,0.241,0.54,0.294
		c0.86,0.234,1.608-0.008,2.172-0.688c0.245-0.296,0.44-0.438,0.771-0.163c0.395,0.328,0.012,0.524-0.147,0.714
		c-0.892,1.046-2.406,1.329-3.588,0.694c-1.229-0.661-1.852-2.036-1.514-3.342C43.6,91.173,44.709,90.316,46.127,90.32z"/>
	<path style="&st8;" d="M87.964,75.095c0.202,0.428,0.112,0.779,0.112,1.115c0.01,2.857,0.018,5.715,0,8.572
		c-0.012,1.987-0.984,3.417-2.773,4.177c-1.801,0.765-3.539,0.499-5.024-0.844c-0.19-0.173-0.742-0.371-0.263-0.796
		c0.308-0.274,0.534-0.693,1.072-0.113c0.952,1.028,2.241,1.145,3.515,0.727c1.347-0.438,2.135-1.436,2.25-2.865
		c0.067-0.794,0.014-1.599,0.014-2.498c-0.837,0.606-1.646,1.146-2.665,1.286c-2.011,0.278-3.95-0.758-4.808-2.642
		c-0.849-1.866-0.364-4.044,1.196-5.35c1.567-1.313,3.887-1.515,5.463-0.295c0.703,0.542,1.079,0.429,1.55-0.147
		C87.689,75.32,87.799,75.243,87.964,75.095z M80.203,79.291c-0.036,1.866,1.494,3.431,3.344,3.427
		c1.771-0.006,3.292-1.498,3.343-3.279c0.051-1.838-1.475-3.419-3.325-3.45C81.741,75.956,80.24,77.434,80.203,79.291z"/>
	<path style="&st12;" d="M50.914,82.504c0,2.168-0.008,4.186,0.006,6.202c0.004,0.412-0.047,0.646-0.556,0.645
		c-0.499-0.002-0.636-0.157-0.636-0.654c0.02-4.423,0.01-8.842,0.012-13.261c0-0.076,0.022-0.15,0.034-0.22
		c0.066-0.016,0.133-0.053,0.159-0.033c0.352,0.283,0.685,0.777,1.052,0.804c0.359,0.023,0.743-0.448,1.133-0.67
		c1.881-1.064,4.397-0.534,5.743,1.2c1.408,1.811,1.286,4.33-0.285,5.985c-1.508,1.583-4.063,1.864-5.836,0.635
		C51.5,82.972,51.277,82.783,50.914,82.504z M54.258,75.992c-1.824,0.016-3.364,1.564-3.342,3.355
		c0.02,1.841,1.508,3.339,3.344,3.368c1.836,0.028,3.343-1.514,3.341-3.419C57.595,77.441,56.116,75.979,54.258,75.992z"/>
	<path style="&st2;" d="M129.793,97.249c0-2.17,0.02-4.179-0.012-6.187c-0.008-0.552,0.185-0.688,0.697-0.674
		c0.507,0.013,0.56,0.273,0.558,0.674c-0.01,1.672-0.004,3.343-0.004,5.016c0,2.803,0,5.604,0,8.455
		c-0.42-0.016-0.634-0.314-0.849-0.552c-0.326-0.363-0.544-0.318-0.919-0.021c-2.451,1.958-6.045,0.921-7.098-2.023
		c-0.675-1.887-0.027-4.008,1.593-5.187c1.636-1.191,3.82-1.189,5.422,0.004C129.348,96.878,129.503,97.012,129.793,97.249z
		 M126.46,97.039c-1.822-0.008-3.344,1.518-3.348,3.349c-0.006,1.854,1.473,3.374,3.297,3.394c1.87,0.021,3.384-1.491,3.384-3.378
		C129.793,98.593,128.26,97.045,126.46,97.039z"/>
	<path style="&st16;" d="M92.244,118.63c0,2.127,0.002,4.254-0.002,6.383c-0.004,0.179,0.086,0.42-0.1,0.521
		c-0.251,0.138-0.389-0.134-0.509-0.279c-0.438-0.534-0.736-0.528-1.343-0.068c-1.644,1.247-3.142,1.395-5.077,0.088
		c-2.932-1.987-2.573-6.009,0.142-7.71c1.455-0.915,3.525-0.845,5.023,0.196c0.187,0.13,0.338,0.468,0.583,0.338
		c0.271-0.14,0.124-0.487,0.126-0.738c0.014-1.699,0.01-3.394,0.004-5.089c-0.004-0.41-0.008-0.732,0.569-0.734
		c0.556-0.004,0.589,0.287,0.587,0.711C92.236,114.374,92.244,116.503,92.244,118.63z M84.345,121.435
		c0.014,2.115,1.714,3.356,3.351,3.421c1.807,0.068,3.378-1.773,3.411-3.299c0.038-1.575-1.632-3.616-3.372-3.368
		C86.114,117.946,84.335,119.646,84.345,121.435z"/>
	<path style="&st4;" d="M106.178,97.053c0-1.983,0-3.975,0-5.971c0-0.323-0.043-0.651,0.449-0.685
		c0.509-0.038,0.723,0.102,0.715,0.657c-0.026,2.265-0.01,4.529-0.01,6.795c0,2.208,0,4.417,0,6.617
		c-0.088,0.02-0.168,0.057-0.181,0.039c-0.656-0.847-1.221-0.8-2.137-0.167c-1.807,1.247-4.383,0.647-5.782-1.132
		c-1.406-1.785-1.263-4.375,0.334-5.981c1.612-1.622,4.207-1.828,5.978-0.479C105.72,96.882,105.818,97.175,106.178,97.053z
		 M102.821,97.037c-1.815,0-3.335,1.521-3.343,3.354c-0.01,1.891,1.499,3.401,3.38,3.388c1.823-0.012,3.309-1.532,3.307-3.382
		C106.164,98.589,104.62,97.039,102.821,97.037z"/>
	<path style="&st18;" d="M107.621,117.171c0,2.816,0,5.424-0.006,8.032c0,0.126,0.037,0.285-0.122,0.352
		c-0.155,0.064-0.273-0.049-0.338-0.151c-0.542-0.826-1.013-0.534-1.673-0.055c-1.02,0.742-2.239,1.098-3.478,0.65
		c-1.894-0.684-3.215-1.952-3.437-4.054c-0.206-1.964,0.644-3.521,2.319-4.448c1.703-0.942,3.478-0.817,5.051,0.436
		c0.402,0.322,0.64,0.268,0.94-0.068C107.055,117.67,107.266,117.503,107.621,117.171z M103.057,124.83
		c1.864,0.002,3.372-1.479,3.408-3.354c0.031-1.702-1.768-3.356-3.36-3.347c-1.549,0.012-3.539,1.603-3.274,3.333
		C99.83,123.391,101.203,124.828,103.057,124.83z"/>
	<path style="&st4;" d="M119.149,104.83c-0.795-1.318-1.469-1.008-2.417-0.421c-1.913,1.185-4.483,0.491-5.799-1.356
		c-1.265-1.785-1.051-4.396,0.483-5.854c1.729-1.646,4.287-1.818,6.018-0.352c0.387,0.326,0.591,0.326,0.919-0.012
		c0.216-0.218,0.397-0.511,0.797-0.613C119.149,98.997,119.149,101.75,119.149,104.83z M114.622,97.039
		c-1.836,0.014-3.334,1.527-3.333,3.368c0,1.889,1.522,3.399,3.399,3.374c1.831-0.021,3.284-1.524,3.278-3.396
		C117.965,98.574,116.415,97.025,114.622,97.039z"/>
	<path style="&st9;" d="M132.863,74.994c0,2.936,0,5.705,0,8.504c-0.079-0.02-0.163-0.014-0.21-0.053
		c-0.33-0.275-0.621-0.707-0.99-0.796c-0.401-0.095-0.672,0.44-1.039,0.652c-1.573,0.905-3.694,0.764-5.081-0.369
		c-1.585-1.297-2.152-3.28-1.473-5.151c0.645-1.789,2.302-2.94,4.195-2.976c1.009-0.018,1.96,0.175,2.71,0.837
		c0.544,0.479,0.894,0.4,1.3-0.093C132.409,75.389,132.58,75.258,132.863,74.994z M128.395,75.99
		c-1.874-0.032-3.392,1.475-3.386,3.361c0.004,1.849,1.465,3.325,3.321,3.356c1.811,0.032,3.335-1.484,3.349-3.326
		C131.688,77.543,130.214,76.021,128.395,75.99z"/>
	<path style="&st8;" d="M106.444,83.729c-0.785-1.28-1.465-1.001-2.427-0.373c-1.536,1.006-3.672,0.639-5.094-0.599
		c-1.383-1.204-1.911-3.298-1.265-5.014c0.658-1.756,2.351-2.907,4.234-2.938c1.041-0.018,2.001,0.218,2.773,0.897
		c0.468,0.408,0.735,0.367,1.11-0.051c0.167-0.185,0.32-0.435,0.669-0.499C106.444,77.944,106.444,80.711,106.444,83.729z
		 M101.932,75.996c-1.831-0.006-3.345,1.504-3.351,3.334c-0.002,1.851,1.575,3.414,3.407,3.38c1.825-0.037,3.304-1.557,3.302-3.394
		C105.288,77.508,103.766,76,101.932,75.996z"/>
	<path style="&st17;" d="M49.505,121.501c-0.002-1.933,1.027-3.555,2.675-4.222c1.742-0.705,3.824-0.264,5.149,1.053
		c0.516,0.512,0.418,0.838-0.112,1.284c-1.584,1.327-3.121,2.72-4.689,4.069c-0.476,0.408-0.432,0.64,0.145,0.877
		c1.395,0.574,2.746,0.38,3.934-1.07c0.229-0.276,0.367-0.548,0.829-0.241c0.442,0.293,0.522,0.478,0.198,0.927
		c-1.064,1.493-3.003,2.335-4.562,1.892C51.292,125.561,49.403,124.184,49.505,121.501z M50.827,122.664
		c0.165,0.457,0.371,0.693,0.854,0.247c1.322-1.216,2.659-2.413,4.018-3.586c0.393-0.34,0.238-0.526-0.072-0.736
		c-0.485-0.322-1.023-0.46-1.565-0.393C51.894,117.903,49.986,120.329,50.827,122.664z"/>
	<path style="&st9;" d="M72.424,74.815c2.508,0,4.505,1.989,4.507,4.487c0.004,2.601-1.996,4.598-4.592,4.584
		c-2.529-0.012-4.515-2.03-4.509-4.59C67.834,76.775,69.847,74.813,72.424,74.815z M69.026,79.378
		c0.025,1.824,1.556,3.342,3.364,3.334c1.793-0.004,3.344-1.564,3.347-3.366c0.004-1.844-1.554-3.367-3.421-3.354
		C70.485,76.008,69.005,77.531,69.026,79.378z"/>
	<path style="&st4;" d="M64.708,100.352c0.01-2.5,2.015-4.487,4.53-4.485c2.543,0,4.566,2.027,4.549,4.561
		c-0.018,2.555-2.027,4.534-4.582,4.519C66.646,104.932,64.698,102.942,64.708,100.352z M72.606,100.407
		c0.006-1.777-1.561-3.345-3.368-3.366c-1.822-0.021-3.331,1.488-3.336,3.341c-0.006,1.865,1.459,3.386,3.276,3.397
		C71.023,103.793,72.603,102.243,72.606,100.407z"/>
	<path style="&st7;" d="M38.708,91.104c1.192,0.021,2.131,0.984,2.119,2.179c-0.012,1.189-0.976,2.135-2.166,2.121
		c-1.243-0.016-2.137-0.973-2.104-2.253C36.587,91.994,37.545,91.084,38.708,91.104z"/>
	<path style="&st11;" d="M43.991,93.23c-0.004-1.559,1.606-2.588,2.997-1.939c0.393,0.187,0.511,0.325,0.118,0.657
		c-0.758,0.641-1.483,1.318-2.231,1.962c-0.173,0.149-0.322,0.468-0.582,0.344c-0.246-0.115-0.253-0.445-0.298-0.703
		C43.975,93.447,43.991,93.337,43.991,93.23z"/>
</g>
</svg>
