<?xml version="1.0" encoding="utf-8"?>
<!-- Generator: Adobe Illustrator 16.0.0, SVG Export Plug-In . SVG Version: 6.00 Build 0)  -->
<!DOCTYPE svg PUBLIC "-//W3C//DTD SVG 1.1//EN" "http://www.w3.org/Graphics/SVG/1.1/DTD/svg11.dtd" [
	<!ENTITY ns_extend "http://ns.adobe.com/Extensibility/1.0/">
	<!ENTITY ns_ai "http://ns.adobe.com/AdobeIllustrator/10.0/">
	<!ENTITY ns_graphs "http://ns.adobe.com/Graphs/1.0/">
	<!ENTITY ns_vars "http://ns.adobe.com/Variables/1.0/">
	<!ENTITY ns_imrep "http://ns.adobe.com/ImageReplacement/1.0/">
	<!ENTITY ns_sfw "http://ns.adobe.com/SaveForWeb/1.0/">
	<!ENTITY ns_custom "http://ns.adobe.com/GenericCustomNamespace/1.0/">
	<!ENTITY ns_adobe_xpath "http://ns.adobe.com/XPath/1.0/">
]>
<svg version="1.1" id="Layer_1" xmlns:x="&ns_extend;" xmlns:i="&ns_ai;" xmlns:graph="&ns_graphs;"
	 xmlns="http://www.w3.org/2000/svg" xmlns:xlink="http://www.w3.org/1999/xlink" x="0px" y="0px" width="792px" height="505.5px"
	 viewBox="0 0 792 505.5" enable-background="new 0 0 792 505.5" xml:space="preserve">
<metadata>
	<sfw  xmlns="&ns_sfw;">
		<slices></slices>
		<sliceSourceBounds  width="707.991" height="428.616" y="93.193" x="44.661" bottomLeftOrigin="true"></sliceSourceBounds>
	</sfw>
</metadata>
<g>
	<path fill="#8C8E90" d="M199.96,72.131c13.353-28.328,30.766-31.386,38.149-34.16c7.385-2.776,17.713,5.832,33.518,14.997
		c8.917,5.17,46.87,26.384,57.771,32.217c10.898,5.832,57.497,29.439,59.948,44.158c2.452,14.719-24.252,26.939-37.771,31.383
		c-13.521,4.443-28.173,6.665-36.349,18.053c-8.175,11.387,1.636,17.496,10.9,22.773c9.265,5.275,26.977,11.941,25.342,26.662
		c-1.636,14.719-30.793,21.663-55.862,22.219c-25.07,0.554-41.42,4.998-59.404,25.271c-17.985,20.274-24.525,49.158-13.08,96.096
		c11.445,46.935,64.854,60.544,76.299,66.377s10.082,6.945,10.082,6.945c-33.245,31.382-90.742,21.659-134.341,8.328
		c-43.6-13.332-84.747-49.436-84.747-49.436s-31.338-4.166-39.24-18.053c-15.658-27.516,2.997-39.714,13.624-41.66
		c10.627-1.942,26.433,8.055,19.893,24.996c-6.54,16.94-22.618,8.332-22.618,8.332c-3.815-1.39-5.888,4.202,10.083,12.775
		c17.849,9.582,33.016,4.474,41.42-8.888c7.425-11.805,16.146-58.115,16.146-58.115c-47.02-4.652-78.819-69.084-49.662-117.131
		s94.284-65.544,94.284-65.544S186.608,100.458,199.96,72.131z M182.52,136.285c0,0,22.891-0.277,43.873-24.718
		c20.982-24.44,26.705-41.659,16.896-49.991s-27.25,8.055-29.702,11.665C211.133,76.851,184.973,112.955,182.52,136.285z
		 M116.303,190.72c-28.885,22.775-43.741,61.938-32.7,88.874c12.391,30.228,48.232,36.938,48.232,36.938L152,230.714
		c-12.263-1.389-20.709,4.443-28.885,16.665c-8.175,12.219-4.36,39.436-4.36,39.436c-17.713-14.44-18.257-36.104-4.359-56.101
		c13.897-19.996,43.599-19.441,43.599-19.441c1.089-8.608,11.173-46.381,11.173-46.381
		C162.901,165.169,145.189,167.946,116.303,190.72z M176.525,162.114l-11.717,49.99c0,0,33.245,11.11,33.518,41.659
		c0.271,30.551-15.183,54.868-33.518,64.433c-11.989,6.258-26.977,5.554-26.977,5.554s-8.175,37.771-11.99,49.438
		c-3.815,11.665-12.94,27.771-25.07,29.162c0,0,13.352,14.163,47.142,30.828c33.791,16.663,65.472,33.719,112.813,24.44
		c31.764-6.228,35.153-13.332,35.153-13.332s-47.959-15.831-73.575-49.992c-25.614-34.16-34.697-65.693-18.529-109.979
		c11.457-31.383,64.31-40.271,82.295-40.549c17.983-0.277,57.358-8.629,56.679-20.83c-0.679-12.201-20.71-15.274-30.52-19.44
		c-9.811-4.166-26.159-17.774-2.726-33.051c23.437-15.274,50.141-15.83,62.402-30.549c12.263-14.72,1.363-23.608-15.259-31.94
		c-16.623-8.332-76.028-41.104-81.479-43.88c-5.45-2.777-11.99-8.055-13.081-6.943c-1.089,1.111,1.41,22.774-14.146,47.214
		C232.388,128.787,212.794,149.62,176.525,162.114z M139.397,316.53c1.907,0.277,15.261,1.11,27.727-13.816
		c12.467-14.93,15.873-35.063,14.783-45.27c-1.09-10.207-5.361-22.052-22.937-25.871c0,0-4.882,22.966-6.22,28.369
		C151.41,265.354,139.397,316.53,139.397,316.53z"/>
	<rect x="277.895" y="298.665" fill="#ED1C24" width="9.992" height="51.103"/>
	<polygon fill="#ED1C24" points="299.877,298.665 311.686,298.665 331.85,335.139 331.85,298.665 341.796,298.665 341.841,349.766 
		329.124,349.766 308.006,313.476 307.87,349.766 299.877,349.766 	"/>
	<path fill="#ED1C24" d="M388.711,194.423c1.462-1.471,3.948-2.495,4.12,0.652c0.422,7.68,16.771,19.345,29.851,8.79
		c13.08-10.553,7.812-27.958-10.173-28.513c-17.985-0.555-38.695,9.628-49.05,36.104c-10.354,26.476-6.176,69.985-6.357,86.465
		c-0.183,16.479,2.18,59.25,2.542,65.545c0.363,6.296-1.724,33.062-12.354,44.623c-7.449,8.1-5.702,1.338-5.813-0.188
		c-0.59-8.007-20.573-17.219-32.7-1.109c-13.006,17.275,16.168,29.996,34.335,20.183c18.166-9.813,31.396-23.887,34.047-53.509
		c2.648-29.626-0.594-69.437,0-84.801C378.464,254.917,372.725,210.53,388.711,194.423z"/>
	<polygon fill="#ED1C24" points="389.505,298.665 422.319,298.665 422.319,307.643 399.158,307.643 399.158,319.862 
		419.322,319.862 419.322,327.917 399.703,327.917 399.703,341.248 422.319,341.248 422.319,349.766 389.505,349.766 	"/>
	<polygon fill="#ED1C24" points="432.801,298.665 444.609,298.665 464.774,335.139 464.774,298.665 474.72,298.665 474.765,349.766 
		462.049,349.766 440.93,313.476 440.794,349.766 432.801,349.766 	"/>
	<rect x="485.356" y="298.665" fill="#ED1C24" width="9.991" height="51.103"/>
	<rect x="593.811" y="298.665" fill="#ED1C24" width="9.992" height="51.103"/>
	<polygon fill="#ED1C24" points="506.134,298.665 538.949,298.665 538.949,307.643 515.787,307.643 515.787,319.862 
		535.952,319.862 535.952,327.917 516.331,327.917 516.331,341.248 538.949,341.248 538.949,349.766 506.134,349.766 	"/>
	<path fill="#ED1C24" d="M548.397,298.665l-0.729,51.103h9.81v-41.66c0,0,16.168-1.851,16.713,4.999
		c0.547,6.852-4.153,8.328-10.125,10.09c-2.743,0.811-2.41,1.021-1,5.277c0.788,2.388,7.674,21.294,7.674,21.294h12.171
		c0,0-5.995-14.489-8.81-21.57c-0.56-1.404-0.133-2.269,0.521-2.479c3.454-1.11,9.196-2.797,9.196-13.537
		c0-7.035-4.179-13.515-10.354-13.515C567.288,298.665,548.397,298.665,548.397,298.665z"/>
	<polygon fill="#ED1C24" points="596.718,294.682 603.803,294.682 610.253,285.795 599.17,285.795 	"/>
	<path fill="#ED1C24" d="M633.641,298.665h11.175l16.349,51.103h-9.946l-6.268-17.405h-17.029l-6.949,17.405h-10.718
		L633.641,298.665z M636.777,308.477l-5.724,14.579h11.853l-3.406-14.579H636.777L636.777,308.477z"/>
	<path d="M428.178,238.905c0,0-15.367-3.575-22.267,3.89c-7.573,8.191-4.03,23.468,3.055,24.856c7.084,1.391,14.853,1.391,17.575,0
		l-0.271,6.665c0,0-27.521,6.25-32.563-9.304c-4.719-14.557,0.271-25.551,7.084-30.412c8.084-5.767,25.205-4.443,27.388-2.638
		L428.178,238.905L428.178,238.905z"/>
	<path stroke="#000000" stroke-width="0.6269" stroke-miterlimit="10" d="M460.059,236.962
		c11.445-0.012,14.172,11.804,14.172,17.081c0,5.276-4.021,15.274-15.873,15.274c-10.628,0-15.869-10.692-15.873-15.274
		C442.475,243.488,448.88,236.973,460.059,236.962z M459.65,230.421c-10.488-0.242-26.433,5.291-26.295,23.482
		c0.137,18.19,15.328,21.793,25.752,21.652c10.424-0.138,24.117-5.002,24.522-21.869
		C484.041,236.823,471.097,230.682,459.65,230.421z"/>
	<path stroke="#000000" stroke-width="0.6269" stroke-miterlimit="10" d="M491.896,231.963l-1.316,42.771h8.313v-37.771h11.173
		c0,0,5.992,0.556,5.992,6.526c0,5.972-6.266,8.889-12.125,8.889c0,0-1.09,0.693,0.272,3.333c1.362,2.639,8.855,19.023,8.855,19.023
		h9.946l-10.491-19.303c0,0,11.854-2.777,12.127-12.219c0.272-9.443-5.449-11.249-7.086-11.249
		C515.921,231.964,491.896,231.963,491.896,231.963z"/>
	<path stroke="#000000" stroke-width="0.6269" stroke-miterlimit="10" d="M556.031,236.962
		c11.442-0.012,14.168,11.804,14.168,17.081c0,5.276-4.021,15.274-15.871,15.274c-10.628,0-15.872-10.692-15.874-15.274
		C538.445,243.488,544.848,236.973,556.031,236.962z M555.62,230.421c-10.488-0.242-26.433,5.291-26.297,23.482
		c0.137,18.19,15.33,21.793,25.752,21.652c10.423-0.138,24.116-5.002,24.524-21.869C580.009,236.823,567.065,230.682,555.62,230.421
		z"/>
	<path d="M608.536,380.992c0,0-15.365-3.573-22.265,3.888c-7.573,8.192-4.032,23.471,3.053,24.855
		c7.085,1.392,14.852,1.392,17.576,0l-0.272,6.668c0,0-27.521,6.249-32.563-9.305c-4.72-14.557,0.271-25.553,7.086-30.411
		c8.083-5.768,25.204-4.442,27.385-2.639V380.992z"/>
	<path stroke="#000000" stroke-width="0.6269" stroke-miterlimit="10" d="M386.758,372.771h8.174l-1.315,31.986
		c0,0,3.791,7.45,12.296,7.174c8.505-0.278,9.14-4.631,9.14-6.991c0-2.357,1.954-32.169,1.954-32.169h8.856l-1.727,32.541
		c0,0,2.541,14.118-18.225,14.118c-18.473,0-20.289-12.452-20.289-12.452L386.758,372.771z"/>
	<rect x="433.492" y="409.57" stroke="#000000" stroke-width="0.6269" stroke-miterlimit="10" width="7.902" height="7.775"/>
	<path stroke="#000000" stroke-width="0.6269" stroke-miterlimit="10" d="M496.847,372.771c2.589,0.416,12.809,2.499,13.08,22.289
		c0.272,19.787-14.579,22.286-14.579,22.286h-27.385l1.407-44.575C469.371,372.771,494.259,372.354,496.847,372.771z
		 M476.818,378.883v30.688h13.535c0,0,10.31-1.251,10.581-14.303c0.274-13.055-5.585-16.386-8.855-16.386
		C488.808,378.883,476.818,378.883,476.818,378.883z"/>
	<polygon stroke="#000000" stroke-width="0.6269" stroke-miterlimit="10" points="518.421,372.771 516.966,417.642 548.577,417.347 
		548.577,410.68 526.823,410.89 527.481,397.557 546.398,397.534 546.442,391.38 527.276,391.309 527.708,378.883 548.577,378.883 
		548.577,372.771 	"/>
	<polygon stroke="#000000" stroke-width="0.6269" stroke-miterlimit="10" points="668.93,372.507 678.059,372.507 675.333,416.79 
		666.341,416.79 	"/>
	<polygon stroke="#000000" stroke-width="0.6269" stroke-miterlimit="10" points="617.837,372.507 615.248,416.79 624.787,416.79 
		626.285,397.766 647.313,397.903 646.039,416.79 656.396,416.79 659.531,372.507 649.718,372.507 648.356,390.545 626.983,390.446 
		628.327,372.507 	"/>
	<polygon stroke="#000000" stroke-width="0.6269" stroke-miterlimit="10" points="688.095,372.507 685.915,416.79 716.255,416.79 
		716.889,410.217 694.456,410.125 696.906,372.507 	"/>
	<polygon stroke="#000000" stroke-width="0.6269" stroke-miterlimit="10" points="722.683,372.212 721.229,417.085 752.839,416.789 
		752.839,410.123 731.085,410.331 731.743,397.001 750.66,396.976 750.706,390.818 731.538,390.752 731.97,378.322 752.839,378.322 
		752.839,372.212 	"/>
</g>
</svg>
