<?xml version="1.0" encoding="utf-8"?>
<!-- Generator: Adobe Illustrator 16.0.0, SVG Export Plug-In . SVG Version: 6.00 Build 0)  -->
<!DOCTYPE svg PUBLIC "-//W3C//DTD SVG 1.1//EN" "http://www.w3.org/Graphics/SVG/1.1/DTD/svg11.dtd">
<svg version="1.1" id="Layer_1" xmlns="http://www.w3.org/2000/svg" xmlns:xlink="http://www.w3.org/1999/xlink" x="0px" y="0px"
	 width="1190.55px" height="841.89px" viewBox="0 0 1190.55 841.89" enable-background="new 0 0 1190.55 841.89"
	 xml:space="preserve">
<g>
	<path fill="#8C8E90" d="M281.848,132.215c21.3-45.19,49.079-50.068,60.858-54.494c11.78-4.428,28.256,9.304,53.468,23.924
		c14.224,8.248,74.769,42.089,92.157,51.394c17.388,9.304,91.722,46.962,95.634,70.443c3.912,23.48-38.688,42.976-60.255,50.063
		c-21.567,7.089-44.942,10.633-57.983,28.798c-13.041,18.165,2.608,27.911,17.388,36.33c14.78,8.417,43.035,19.051,40.427,42.533
		c-2.609,23.481-49.122,34.556-89.114,35.442c-39.993,0.886-66.075,7.975-94.765,40.317c-28.69,32.344-39.123,78.419-20.866,153.294
		c18.258,74.874,103.459,96.583,121.716,105.887c18.258,9.304,16.084,11.078,16.084,11.078
		c-53.034,50.063-144.755,34.555-214.307,13.289c-69.552-21.267-135.192-78.861-135.192-78.861s-49.991-6.646-62.597-28.799
		c-24.978-43.892,4.781-63.354,21.734-66.456c16.953-3.101,42.167,12.849,31.734,39.874c-10.433,27.026-36.081,13.292-36.081,13.292
		c-6.086-2.215-9.394,6.703,16.084,20.38c28.473,15.285,52.669,7.134,66.075-14.178c11.845-18.829,25.756-92.707,25.756-92.707
		C94.796,525.636,44.067,422.852,90.58,346.204c46.513-76.646,150.406-104.558,150.406-104.558S260.548,177.405,281.848,132.215z
		 M254.027,234.557c0,0,36.516-0.443,69.988-39.431c33.472-38.987,42.6-66.456,26.951-79.748
		c-15.65-13.291-43.47,12.849-47.382,18.608C299.671,139.746,257.94,197.341,254.027,234.557z M148.395,321.394
		c-46.079,36.331-69.778,98.806-52.164,141.775c19.766,48.219,76.942,58.924,76.942,58.924l32.167-136.902
		c-19.562-2.213-33.037,7.09-46.078,26.584c-13.042,19.495-6.956,62.911-6.956,62.911c-28.256-23.037-29.125-57.595-6.955-89.495
		c22.17-31.897,69.552-31.012,69.552-31.012c1.738-13.734,17.823-73.989,17.823-73.989
		C222.729,280.634,194.474,285.065,148.395,321.394z M244.464,275.76l-18.692,79.748c0,0,53.034,17.722,53.469,66.456
		c0.434,48.736-24.221,87.528-53.469,102.787c-19.126,9.979-43.035,8.86-43.035,8.86s-13.041,60.254-19.126,78.863
		c-6.086,18.607-20.644,44.299-39.993,46.519c0,0,21.3,22.595,75.203,49.178c53.904,26.583,104.444,53.792,179.966,38.988
		c50.67-9.933,56.077-21.267,56.077-21.267s-76.507-25.253-117.369-79.749c-40.862-54.493-55.35-104.797-29.56-175.443
		c18.276-50.063,102.589-64.242,131.28-64.685c28.689-0.443,91.502-13.766,90.417-33.228c-1.084-19.463-33.037-24.368-48.687-31.013
		c-15.649-6.646-41.73-28.355-4.347-52.723c37.385-24.367,79.985-25.253,99.546-48.734c19.562-23.482,2.174-37.66-24.342-50.951
		c-26.517-13.291-121.282-65.57-129.976-70c-8.694-4.43-19.127-12.849-20.866-11.077c-1.738,1.772,2.249,36.33-22.567,75.317
		C333.577,222.595,302.321,255.829,244.464,275.76z M187.083,298.356 M185.236,522.093c3.042,0.443,24.344,1.771,44.231-22.041
		c19.887-23.814,25.321-55.935,23.583-72.216c-1.739-16.283-8.552-35.178-36.589-41.27c0,0-7.788,36.634-9.924,45.256
		C204.399,440.452,185.236,522.093,185.236,522.093z"/>
	<rect x="406.172" y="493.591" fill="#ED1C24" width="15.94" height="81.521"/>
	<polygon fill="#ED1C24" points="441.239,493.591 460.076,493.591 492.244,551.776 492.244,493.591 508.11,493.591 508.183,575.111 
		487.896,575.111 454.207,517.219 453.99,575.111 441.239,575.111 	"/>
	<path fill="#ED1C24" d="M582.951,327.302c2.332-2.348,6.298-3.981,6.573,1.041c0.671,12.249,26.753,30.858,47.618,14.022
		c20.866-16.835,12.462-44.6-16.228-45.485c-28.69-0.886-61.728,15.359-78.246,57.596c-16.519,42.236-9.852,111.645-10.143,137.933
		s3.478,94.516,4.056,104.559c0.58,10.044-2.748,52.743-19.706,71.183c-11.883,12.921-9.095,2.138-9.275-0.296
		c-0.941-12.774-32.82-27.469-52.164-1.772c-20.748,27.562,25.792,47.85,54.772,32.196c28.98-15.653,50.087-38.104,54.313-85.359
		c4.227-47.258-0.947-110.766,0-135.278C566.604,423.805,557.448,352.997,582.951,327.302z"/>
	<polygon fill="#ED1C24" points="584.217,493.591 636.564,493.591 636.564,507.915 599.614,507.915 599.614,527.408 
		631.782,527.408 631.782,540.257 600.484,540.257 600.484,561.522 636.564,561.522 636.564,575.111 584.217,575.111 	"/>
	<polygon fill="#ED1C24" points="653.284,493.591 672.121,493.591 704.289,551.776 704.289,493.591 720.155,493.591 
		720.229,575.111 699.943,575.111 666.253,517.219 666.035,575.111 653.284,575.111 	"/>
	<rect x="737.123" y="493.591" fill="#ED1C24" width="15.941" height="81.521"/>
	<rect x="910.135" y="493.591" fill="#ED1C24" width="15.939" height="81.521"/>
	<polygon fill="#ED1C24" points="770.269,493.591 822.616,493.591 822.616,507.915 785.665,507.915 785.665,527.408 
		817.835,527.408 817.835,540.257 786.536,540.257 786.536,561.522 822.616,561.522 822.616,575.111 770.269,575.111 	"/>
	<path fill="#ED1C24" d="M837.687,493.591l-1.16,81.521h15.649v-66.457c0,0,25.791-2.953,26.66,7.976
		c0.87,10.927-6.625,13.284-16.153,16.096c-4.375,1.292-3.843,1.625-1.596,8.417c1.258,3.808,12.245,33.969,12.245,33.969h19.414
		c0,0-9.562-23.114-14.054-34.411c-0.892-2.241-0.21-3.619,0.835-3.956c5.507-1.771,14.67-4.462,14.67-21.594
		c0-11.223-6.665-21.56-16.518-21.56C867.824,493.591,837.687,493.591,837.687,493.591z"/>
	<polygon fill="#ED1C24" points="914.771,487.239 926.074,487.239 936.362,473.063 918.685,473.063 	"/>
	<path fill="#ED1C24" d="M973.674,493.591h17.823l26.082,81.521h-15.866l-9.999-27.765h-27.168l-11.085,27.765h-17.099
		L973.674,493.591z M978.673,509.244l-9.128,23.26h18.908l-5.433-23.26H978.673z"/>
	<path d="M645.91,398.262c0,0-24.515-5.704-35.52,6.203c-12.081,13.069-6.43,37.437,4.873,39.653
		c11.302,2.217,23.691,2.217,28.038,0l-0.435,10.633c0,0-43.904,9.969-51.947-14.842c-7.527-23.222,0.435-40.761,11.302-48.513
		c12.896-9.201,40.209-7.089,43.688-4.209V398.262z"/>
	<path stroke="#000000" stroke-miterlimit="10" d="M696.77,395.161c18.257-0.017,22.604,18.83,22.604,27.248
		c0,8.418-6.411,24.367-25.321,24.367c-16.954,0-25.316-17.057-25.321-24.367C668.718,405.572,678.936,395.178,696.77,395.161z
		 M696.117,384.726c-16.732-0.386-42.166,8.441-41.947,37.461c0.217,29.019,24.452,34.765,41.079,34.542
		c16.627-0.222,38.471-7.982,39.122-34.886C735.024,394.94,714.376,385.144,696.117,384.726z"/>
	<path stroke="#000000" stroke-miterlimit="10" d="M747.557,387.186l-2.1,68.229h13.258v-60.254h17.822
		c0,0,9.563,0.886,9.563,10.412s-9.997,14.177-19.345,14.177c0,0-1.738,1.108,0.435,5.317c2.175,4.209,14.13,30.349,14.13,30.349
		h15.865l-16.736-30.793c0,0,18.91-4.43,19.345-19.492c0.435-15.064-8.694-17.944-11.303-17.944S747.557,387.186,747.557,387.186z"
		/>
	<path stroke="#000000" stroke-miterlimit="10" d="M849.864,395.161c18.256-0.017,22.603,18.83,22.603,27.248
		c0,8.418-6.412,24.367-25.32,24.367c-16.953,0-25.317-17.057-25.322-24.367C821.812,405.572,832.027,395.178,849.864,395.161z
		 M849.211,384.726c-16.732-0.386-42.166,8.441-41.949,37.461c0.217,29.019,24.452,34.765,41.08,34.542
		c16.627-0.222,38.47-7.982,39.122-34.886C888.117,394.94,867.469,385.144,849.211,384.726z"/>
	<path d="M933.624,624.926c0,0-24.514-5.704-35.519,6.201c-12.081,13.07-6.432,37.438,4.872,39.652
		c11.301,2.217,23.691,2.217,28.038,0l-0.434,10.635c0,0-43.905,9.969-51.947-14.843c-7.527-23.221,0.436-40.76,11.303-48.513
		c12.895-9.2,40.209-7.088,43.687-4.209V624.926z"/>
	<path stroke="#000000" stroke-miterlimit="10" d="M579.835,611.81h13.041l-2.101,51.025c0,0,6.046,11.886,19.615,11.443
		c13.566-0.443,14.58-7.385,14.58-11.151c0-3.765,3.117-51.317,3.117-51.317h14.127l-2.752,51.91c0,0,4.056,22.521-29.072,22.521
		c-29.469,0-32.367-19.863-32.367-19.863L579.835,611.81z"/>
	<rect x="654.387" y="670.513" stroke="#000000" stroke-miterlimit="10" width="12.606" height="12.404"/>
	<path stroke="#000000" stroke-miterlimit="10" d="M755.454,611.81c4.129,0.665,20.432,3.987,20.865,35.554
		c0.436,31.568-23.255,35.554-23.255,35.554h-43.688l2.246-71.107C711.623,611.81,751.326,611.146,755.454,611.81z M723.504,621.558
		v48.955h21.589c0,0,16.447-1.994,16.882-22.816c0.436-20.824-8.91-26.139-14.128-26.139
		C742.631,621.558,723.504,621.558,723.504,621.558z"/>
	<polygon stroke="#000000" stroke-miterlimit="10" points="789.869,611.81 787.549,683.391 837.977,682.917 837.977,672.283 
		803.271,672.617 804.322,651.349 834.499,651.314 834.569,641.493 803.994,641.383 804.686,621.558 837.977,621.558 
		837.977,611.81 	"/>
	<polygon stroke="#000000" stroke-miterlimit="10" points="1029.967,611.387 1044.53,611.387 1040.184,682.031 1025.838,682.031 	
		"/>
	<polygon stroke="#000000" stroke-miterlimit="10" points="948.462,611.387 944.332,682.031 959.546,682.031 961.938,651.683 
		995.482,651.904 993.453,682.031 1009.972,682.031 1014.972,611.387 999.322,611.387 997.148,640.163 963.053,640.008 
		965.197,611.387 	"/>
	<polygon stroke="#000000" stroke-miterlimit="10" points="1060.541,611.387 1057.063,682.031 1105.462,682.031 1106.475,671.545 
		1070.686,671.398 1074.597,611.387 	"/>
	<polygon stroke="#000000" stroke-miterlimit="10" points="1115.716,610.917 1113.396,682.5 1163.823,682.027 1163.823,671.394 
		1129.118,671.726 1130.168,650.46 1160.346,650.423 1160.418,640.602 1129.842,640.491 1130.532,620.666 1163.823,620.666 
		1163.823,610.917 	"/>
</g>
</svg>
