<?xml version="1.0" encoding="utf-8"?>
<!-- Generator: Adobe Illustrator 16.0.0, SVG Export Plug-In . SVG Version: 6.00 Build 0)  -->
<!DOCTYPE svg PUBLIC "-//W3C//DTD SVG 1.1//EN" "http://www.w3.org/Graphics/SVG/1.1/DTD/svg11.dtd" [
	<!ENTITY ns_extend "http://ns.adobe.com/Extensibility/1.0/">
	<!ENTITY ns_ai "http://ns.adobe.com/AdobeIllustrator/10.0/">
	<!ENTITY ns_graphs "http://ns.adobe.com/Graphs/1.0/">
	<!ENTITY ns_vars "http://ns.adobe.com/Variables/1.0/">
	<!ENTITY ns_imrep "http://ns.adobe.com/ImageReplacement/1.0/">
	<!ENTITY ns_sfw "http://ns.adobe.com/SaveForWeb/1.0/">
	<!ENTITY ns_custom "http://ns.adobe.com/GenericCustomNamespace/1.0/">
	<!ENTITY ns_adobe_xpath "http://ns.adobe.com/XPath/1.0/">
]>
<svg version="1.1" id="Layer_1" xmlns:x="&ns_extend;" xmlns:i="&ns_ai;" xmlns:graph="&ns_graphs;"
	 xmlns="http://www.w3.org/2000/svg" xmlns:xlink="http://www.w3.org/1999/xlink" x="0px" y="0px" width="792px" height="505.5px"
	 viewBox="199.275 114.945 792 505.5" enable-background="new 199.275 114.945 792 505.5" xml:space="preserve">
<metadata>
	<sfw  xmlns="&ns_sfw;">
		<slices></slices>
		<sliceSourceBounds  width="707.991" height="428.617" x="47.473" y="151.486" bottomLeftOrigin="true"></sliceSourceBounds>
	</sfw>
</metadata>
<g>
	<path fill="#8C8E90" d="M402.046,182.032c13.352-28.328,30.766-31.386,38.149-34.16c7.385-2.776,17.713,5.832,33.518,14.997
		c8.917,5.17,46.87,26.384,57.77,32.217c10.899,5.832,57.497,29.439,59.949,44.158c2.452,14.719-24.252,26.94-37.771,31.383
		c-13.52,4.443-28.173,6.665-36.348,18.052c-8.175,11.387,1.635,17.497,10.9,22.774c9.265,5.276,26.977,11.942,25.342,26.662
		c-1.636,14.719-30.793,21.663-55.863,22.219c-25.07,0.554-41.419,4.998-59.404,25.272s-24.525,49.158-13.08,96.095
		c11.445,46.935,64.854,60.544,76.299,66.377s10.082,6.945,10.082,6.945c-33.245,31.382-90.742,21.66-134.341,8.329
		c-43.6-13.332-84.747-49.436-84.747-49.436s-31.338-4.166-39.24-18.053c-15.658-27.515,2.997-39.714,13.624-41.66
		c10.627-1.942,26.433,8.055,19.893,24.996c-6.54,16.941-22.618,8.332-22.618,8.332c-3.815-1.389-5.888,4.202,10.083,12.776
		c17.849,9.582,33.016,4.473,41.42-8.888c7.425-11.805,16.146-58.115,16.146-58.115c-47.02-4.653-78.819-69.084-49.662-117.131
		c29.157-48.047,94.284-65.544,94.284-65.544S388.694,210.359,402.046,182.032z M384.606,246.186c0,0,22.891-0.277,43.873-24.718
		c20.982-24.44,26.705-41.659,16.895-49.991c-9.81-8.332-27.25,8.055-29.702,11.665
		C413.219,186.752,387.059,222.856,384.606,246.186z M318.389,300.621c-28.885,22.775-43.741,61.939-32.7,88.874
		c12.391,30.228,48.232,36.938,48.232,36.938l20.165-85.818c-12.263-1.388-20.709,4.444-28.885,16.665
		c-8.175,12.219-4.36,39.436-4.36,39.436c-17.713-14.441-18.257-36.105-4.359-56.101c13.897-19.996,43.599-19.441,43.599-19.441
		c1.089-8.609,11.173-46.381,11.173-46.381C364.987,275.07,347.275,277.848,318.389,300.621z M378.611,272.015l-11.717,49.991
		c0,0,33.245,11.11,33.518,41.659c0.271,30.551-15.183,54.868-33.518,64.433c-11.989,6.257-26.977,5.553-26.977,5.553
		s-8.175,37.771-11.99,49.438c-3.815,11.665-12.94,27.771-25.07,29.162c0,0,13.352,14.163,47.142,30.828
		c33.791,16.663,65.472,33.719,112.814,24.44c31.763-6.227,35.153-13.332,35.153-13.332s-47.959-15.831-73.575-49.992
		c-25.615-34.16-34.697-65.693-18.53-109.979c11.457-31.383,64.31-40.272,82.295-40.549c17.984-0.277,57.359-8.629,56.679-20.83
		c-0.679-12.201-20.71-15.275-30.52-19.441c-9.81-4.166-26.159-17.774-2.725-33.05c23.436-15.275,50.14-15.83,62.402-30.549
		c12.263-14.72,1.363-23.608-15.259-31.94c-16.623-8.332-76.028-41.104-81.478-43.88c-5.45-2.777-11.99-8.055-13.081-6.943
		c-1.089,1.111,1.41,22.774-14.146,47.214C434.474,238.688,414.88,259.521,378.611,272.015z M341.483,426.432
		c1.907,0.277,15.261,1.11,27.727-13.817c12.467-14.929,15.873-35.063,14.783-45.269c-1.09-10.207-5.361-22.052-22.937-25.871
		c0,0-4.882,22.965-6.22,28.369C353.496,375.255,341.483,426.432,341.483,426.432z"/>
	<rect x="479.98" y="408.566" fill="#ED1C24" width="9.993" height="51.103"/>
	<polygon fill="#ED1C24" points="501.963,408.566 513.771,408.566 533.936,445.04 533.936,408.566 543.882,408.566 543.927,459.667 
		531.21,459.667 510.092,423.377 509.956,459.667 501.963,459.667 	"/>
	<path fill="#ED1C24" d="M590.797,304.324c1.462-1.471,3.948-2.495,4.12,0.653c0.422,7.679,16.77,19.344,29.851,8.79
		c13.08-10.553,7.811-27.958-10.173-28.513c-17.986-0.555-38.696,9.628-49.05,36.104c-10.355,26.476-6.176,69.986-6.358,86.465
		c-0.182,16.479,2.18,59.25,2.542,65.545c0.364,6.296-1.723,33.062-12.353,44.623c-7.449,8.1-5.702,1.338-5.814-0.187
		c-0.589-8.007-20.573-17.219-32.7-1.11c-13.006,17.276,16.168,29.996,34.335,20.183c18.166-9.813,31.397-23.887,34.047-53.509
		c2.649-29.626-0.594-69.436,0-84.801C580.55,364.818,574.811,320.432,590.797,304.324z"/>
	<polygon fill="#ED1C24" points="591.591,408.566 624.405,408.566 624.405,417.544 601.244,417.544 601.244,429.764 
		621.408,429.764 621.408,437.818 601.789,437.818 601.789,451.149 624.405,451.149 624.405,459.667 591.591,459.667 	"/>
	<polygon fill="#ED1C24" points="634.887,408.566 646.695,408.566 666.86,445.04 666.86,408.566 676.806,408.566 676.851,459.667 
		664.135,459.667 643.016,423.377 642.88,459.667 634.887,459.667 	"/>
	<rect x="687.442" y="408.566" fill="#ED1C24" width="9.992" height="51.103"/>
	<rect x="795.897" y="408.566" fill="#ED1C24" width="9.992" height="51.103"/>
	<polygon fill="#ED1C24" points="708.22,408.566 741.035,408.566 741.035,417.544 717.873,417.544 717.873,429.764 738.038,429.764 
		738.038,437.818 718.417,437.818 718.417,451.149 741.035,451.149 741.035,459.667 708.22,459.667 	"/>
	<path fill="#ED1C24" d="M750.483,408.566l-0.728,51.103h9.809v-41.66c0,0,16.168-1.851,16.713,4.999
		c0.547,6.851-4.153,8.328-10.125,10.09c-2.743,0.81-2.41,1.02-1,5.277c0.788,2.388,7.674,21.294,7.674,21.294h12.171
		c0,0-5.995-14.489-8.809-21.57c-0.56-1.405-0.133-2.269,0.521-2.48c3.454-1.11,9.196-2.797,9.196-13.537
		c0-7.035-4.178-13.515-10.354-13.515C769.374,408.566,750.483,408.566,750.483,408.566z"/>
	<polygon fill="#ED1C24" points="798.804,404.583 805.889,404.583 812.339,395.696 801.256,395.696 	"/>
	<path fill="#ED1C24" d="M835.727,408.566h11.174l16.349,51.103h-9.946l-6.268-17.405h-17.029l-6.949,17.405h-10.718
		L835.727,408.566z M838.863,418.378l-5.723,14.579h11.852l-3.406-14.579H838.863L838.863,418.378z"/>
	<path d="M630.264,348.807c0,0-15.368-3.576-22.267,3.889c-7.573,8.192-4.03,23.468,3.055,24.857c7.084,1.39,14.852,1.39,17.575,0
		l-0.271,6.665c0,0-27.521,6.25-32.563-9.304c-4.719-14.557,0.271-25.551,7.084-30.412c8.084-5.767,25.205-4.443,27.388-2.638
		V348.807L630.264,348.807z"/>
	<path stroke="#000000" stroke-width="0.6269" stroke-miterlimit="10" d="M662.145,346.863
		c11.445-0.011,14.171,11.804,14.171,17.081c0,5.277-4.02,15.275-15.873,15.275c-10.628,0-15.869-10.693-15.873-15.275
		C644.561,353.39,650.966,346.874,662.145,346.863z M661.736,340.322c-10.488-0.242-26.432,5.291-26.295,23.483
		c0.137,18.19,15.329,21.793,25.752,21.652c10.424-0.138,24.117-5.002,24.523-21.869
		C686.127,346.725,673.183,340.583,661.736,340.322z"/>
	<path stroke="#000000" stroke-width="0.6269" stroke-miterlimit="10" d="M693.982,341.864l-1.316,42.771h8.312v-37.771h11.173
		c0,0,5.993,0.556,5.993,6.527s-6.266,8.888-12.125,8.888c0,0-1.09,0.694,0.272,3.333s8.856,19.024,8.856,19.024h9.946
		l-10.491-19.303c0,0,11.854-2.777,12.127-12.219c0.272-9.443-5.45-11.249-7.086-11.249S693.982,341.864,693.982,341.864z"/>
	<path stroke="#000000" stroke-width="0.6269" stroke-miterlimit="10" d="M758.117,346.863
		c11.443-0.011,14.168,11.804,14.168,17.081c0,5.277-4.02,15.275-15.871,15.275c-10.628,0-15.872-10.693-15.874-15.275
		C740.531,353.39,746.934,346.874,758.117,346.863z M757.706,340.322c-10.488-0.242-26.433,5.291-26.297,23.483
		c0.137,18.19,15.33,21.793,25.752,21.652c10.423-0.138,24.116-5.002,24.525-21.869
		C782.095,346.725,769.151,340.583,757.706,340.322z"/>
	<path d="M810.622,490.894c0,0-15.365-3.574-22.265,3.887c-7.573,8.193-4.032,23.471,3.053,24.856
		c7.085,1.391,14.852,1.391,17.576,0l-0.272,6.668c0,0-27.522,6.249-32.563-9.305c-4.719-14.557,0.272-25.553,7.086-30.411
		c8.083-5.768,25.204-4.443,27.385-2.639V490.894z"/>
	<path stroke="#000000" stroke-width="0.6269" stroke-miterlimit="10" d="M588.844,482.672h8.174l-1.316,31.986
		c0,0,3.791,7.45,12.296,7.174c8.505-0.278,9.14-4.631,9.14-6.991c0-2.358,1.954-32.169,1.954-32.169h8.856l-1.726,32.541
		c0,0,2.541,14.118-18.225,14.118c-18.473,0-20.289-12.452-20.289-12.452L588.844,482.672z"/>
	<rect x="635.578" y="519.472" stroke="#000000" stroke-width="0.6269" stroke-miterlimit="10" width="7.902" height="7.775"/>
	<path stroke="#000000" stroke-width="0.6269" stroke-miterlimit="10" d="M698.933,482.672c2.589,0.416,12.808,2.499,13.08,22.289
		c0.272,19.787-14.579,22.286-14.579,22.286h-27.385l1.407-44.575C671.457,482.672,696.345,482.256,698.933,482.672z
		 M678.904,488.784v30.688h13.535c0,0,10.31-1.251,10.582-14.303c0.274-13.055-5.585-16.386-8.856-16.386
		C690.894,488.784,678.904,488.784,678.904,488.784z"/>
	<polygon stroke="#000000" stroke-width="0.6269" stroke-miterlimit="10" points="720.507,482.672 719.052,527.543 750.663,527.248 
		750.663,520.581 728.909,520.791 729.567,507.458 748.484,507.436 748.528,501.281 729.362,501.21 729.794,488.784 
		750.663,488.784 750.663,482.672 	"/>
	<polygon stroke="#000000" stroke-width="0.6269" stroke-miterlimit="10" points="871.016,482.408 880.145,482.408 877.419,526.691 
		868.427,526.691 	"/>
	<polygon stroke="#000000" stroke-width="0.6269" stroke-miterlimit="10" points="819.923,482.408 817.334,526.691 826.873,526.691 
		828.371,507.667 849.398,507.805 848.125,526.691 858.481,526.691 861.617,482.408 851.804,482.408 850.442,500.446 
		829.069,500.348 830.413,482.408 	"/>
	<polygon stroke="#000000" stroke-width="0.6269" stroke-miterlimit="10" points="890.181,482.408 888.001,526.691 918.341,526.691 
		918.975,520.118 896.542,520.026 898.992,482.408 	"/>
	<polygon stroke="#000000" stroke-width="0.6269" stroke-miterlimit="10" points="924.769,482.113 923.315,526.986 954.925,526.69 
		954.925,520.024 933.171,520.232 933.829,506.902 952.746,506.877 952.792,500.72 933.624,500.653 934.056,488.224 
		954.925,488.224 954.925,482.113 	"/>
</g>
</svg>
