<?xml version="1.0" encoding="utf-8"?>
<!-- Generator: Adobe Illustrator 16.0.0, SVG Export Plug-In . SVG Version: 6.00 Build 0)  -->
<!DOCTYPE svg PUBLIC "-//W3C//DTD SVG 1.1//EN" "http://www.w3.org/Graphics/SVG/1.1/DTD/svg11.dtd" [
	<!ENTITY st0 "fill:#E30613;">
	<!ENTITY st1 "fill:#73797D;">
]>
<svg version="1.1" id="Layer_1" xmlns="http://www.w3.org/2000/svg" xmlns:xlink="http://www.w3.org/1999/xlink" x="0px" y="0px"
	 width="379.5px" height="144.5px" viewBox="0 0 379.5 144.5" style="enable-background:new 0 0 379.5 144.5;" xml:space="preserve"
	>
<g id="Layer_1_1_">
	<g>
		<path style="&st1;" d="M249.279,45.256h7.521V32.131h-7.521V20.486h-15.135l0.039,11.645h-5.043v13.125h5.044l0.006,32.096
			c0.354,13.903,9.604,24.128,26.299,22.357l-0.001-13.007c-7.143,0.521-11.139-2.155-11.207-9.456L249.279,45.256z"/>
		<path style="&st1;" d="M119.407,100.311h14.886V46.202h-14.88h-11.786c-17.955,0-29.392,11.854-29.392,26.956
			c0,15.104,11.437,27.152,29.392,27.152h7.188V86.794h-5.93c-9.493-0.001-15.554-5.979-15.554-13.635s6.061-13.637,15.554-13.637
			l10.521,0.001L119.407,100.311L119.407,100.311z"/>
		<path style="&st1;" d="M289.58,100.22h12.161V86.794h-10.903c-9.493-0.001-15.555-5.979-15.555-13.635s6.062-13.637,15.555-13.637
			l10.904,0.001V46.202H289.58c-17.955,0-29.393,11.854-29.393,26.957S271.625,100.219,289.58,100.22z"/>
		<path style="&st0;" d="M229.334,68.994c0-14.154-9.719-24.115-26.182-24.116c-7.66,0-14.292,2.936-18.75,7.654
			c-4.23-4.719-10.746-7.654-18.749-7.654c-16.12,0-26.524,10.38-26.525,24.115l0,31.247h15.092l0-31.561
			c0-6.081,4.688-10.276,11.432-10.276c9.946,0,10.976,7.235,10.976,10.276v31.561h15.092l0.001-31.56
			c0-6.082,4.8-10.276,11.432-10.276c9.947,0,11.09,7.234,11.09,10.276l-0.001,31.56h15.092L229.334,68.994L229.334,68.994z"/>
		<g>
			<path style="&st1;" d="M297.709,119.098h0.488c0.494,0,0.835-0.062,1.021-0.186s0.279-0.329,0.279-0.616
				c0-0.17-0.046-0.318-0.139-0.444c-0.092-0.126-0.215-0.216-0.37-0.271s-0.439-0.082-0.853-0.082h-0.428V119.098z
				 M296.179,116.062h1.633c0.895,0,1.531,0.076,1.911,0.229c0.379,0.153,0.684,0.407,0.914,0.762
				c0.231,0.355,0.348,0.776,0.348,1.262c0,0.51-0.127,0.937-0.382,1.279c-0.254,0.343-0.637,0.603-1.147,0.778l1.906,3.448h-1.682
				l-1.816-3.285h-0.154v3.285h-1.53V116.062L296.179,116.062z M290.25,116.062h4.41v1.447h-2.881v1.395h2.881v1.427h-2.881v2.042
				h2.881v1.448h-4.41V116.062z M284.731,116.062h4.468v1.459h-1.475v6.3h-1.564v-6.3h-1.429V116.062L284.731,116.062z
				 M277.211,116.062h1.459l3.481,5.105v-5.105h1.53v7.759h-1.471l-3.47-5.09v5.09h-1.53V116.062z M271.371,116.062h4.411v1.447
				h-2.88v1.395h2.88v1.427h-2.88v2.042h2.88v1.448h-4.411V116.062z M270.015,117.423l-1.077,0.983
				c-0.734-0.742-1.559-1.112-2.475-1.112c-0.773,0-1.426,0.253-1.955,0.759c-0.529,0.507-0.795,1.131-0.795,1.872
				c0,0.517,0.117,0.976,0.352,1.377s0.566,0.715,0.996,0.944c0.428,0.229,0.905,0.343,1.43,0.343c0.447,0,0.855-0.081,1.227-0.24
				c0.369-0.16,0.776-0.451,1.221-0.873l1.044,1.047c-0.597,0.561-1.162,0.95-1.692,1.167c-0.531,0.217-1.139,0.325-1.819,0.325
				c-1.257,0-2.286-0.383-3.087-1.147c-0.8-0.765-1.2-1.744-1.2-2.939c0-0.773,0.183-1.461,0.547-2.063
				c0.364-0.601,0.887-1.085,1.566-1.45c0.681-0.365,1.411-0.549,2.196-0.549c0.666,0,1.308,0.136,1.926,0.405
				C269.035,116.542,269.567,116.926,270.015,117.423z M251.877,116.062h1.645l1.5,2.785l1.5-2.785h1.645l-2.368,4.398v3.36h-1.552
				v-3.36L251.877,116.062z M250.95,117.329l-1.081,1.029c-0.686-0.695-1.483-1.044-2.395-1.044c-0.795,0-1.46,0.253-1.996,0.759
				c-0.535,0.506-0.805,1.12-0.805,1.844c0,0.748,0.279,1.383,0.835,1.902s1.243,0.779,2.06,0.779c0.529,0,0.979-0.106,1.342-0.321
				c0.365-0.215,0.658-0.551,0.883-1.008h-2.34v-1.383h4.063l0.011,0.326c0,0.679-0.183,1.322-0.55,1.931
				c-0.366,0.607-0.841,1.071-1.424,1.392c-0.582,0.319-1.266,0.479-2.05,0.479c-0.84,0-1.587-0.175-2.246-0.525
				c-0.657-0.35-1.179-0.848-1.562-1.494c-0.383-0.647-0.574-1.345-0.574-2.094c0-1.026,0.354-1.92,1.061-2.679
				c0.84-0.904,1.933-1.355,3.277-1.355c0.704,0,1.361,0.125,1.975,0.374C249.949,116.453,250.455,116.815,250.95,117.329z
				 M238.293,117.315c-0.744,0-1.371,0.249-1.877,0.749c-0.508,0.499-0.762,1.134-0.762,1.903c0,0.857,0.318,1.536,0.957,2.035
				c0.497,0.391,1.067,0.586,1.709,0.586c0.727,0,1.346-0.254,1.855-0.76c0.512-0.506,0.768-1.13,0.768-1.872
				c0-0.738-0.258-1.363-0.772-1.875S239.03,117.315,238.293,117.315z M238.315,115.867c1.142,0,2.124,0.397,2.947,1.191
				c0.822,0.795,1.232,1.764,1.232,2.906c0,1.133-0.405,2.09-1.216,2.874c-0.813,0.784-1.796,1.176-2.953,1.176
				c-1.213,0-2.219-0.402-3.021-1.208c-0.803-0.805-1.203-1.761-1.203-2.868c0-0.742,0.186-1.424,0.56-2.047
				c0.374-0.622,0.888-1.115,1.541-1.479C236.856,116.049,237.561,115.867,238.315,115.867z M229.535,116.062h1.531v6.354h2.262
				v1.405h-3.793V116.062z M224.359,117.315c-0.744,0-1.371,0.249-1.879,0.749c-0.507,0.499-0.76,1.134-0.76,1.903
				c0,0.857,0.319,1.536,0.957,2.035c0.498,0.391,1.066,0.586,1.709,0.586c0.727,0,1.346-0.254,1.855-0.76
				c0.512-0.507,0.767-1.13,0.767-1.872c0-0.738-0.257-1.363-0.771-1.875S225.097,117.315,224.359,117.315z M224.381,115.867
				c1.143,0,2.125,0.397,2.947,1.191c0.822,0.795,1.233,1.764,1.233,2.906c0,1.133-0.405,2.09-1.218,2.874
				c-0.811,0.784-1.794,1.176-2.951,1.176c-1.213,0-2.22-0.402-3.022-1.208c-0.802-0.805-1.203-1.761-1.203-2.868
				c0-0.742,0.188-1.424,0.561-2.047c0.374-0.622,0.888-1.115,1.54-1.479C222.922,116.049,223.627,115.867,224.381,115.867z
				 M212.729,116.062h1.46l3.48,5.105v-5.105h1.53v7.759h-1.471l-3.47-5.09v5.09h-1.53V116.062z M205.518,116.062h1.564v2.928h2.7
				v-2.928h1.554v7.759h-1.554v-3.404h-2.7v3.404h-1.564V116.062z M204.648,117.423l-1.078,0.983
				c-0.733-0.742-1.558-1.112-2.475-1.112c-0.773,0-1.425,0.253-1.955,0.759c-0.529,0.507-0.794,1.131-0.794,1.872
				c0,0.517,0.117,0.976,0.352,1.377s0.566,0.715,0.995,0.944c0.429,0.229,0.905,0.343,1.43,0.343c0.447,0,0.855-0.081,1.227-0.24
				c0.369-0.16,0.777-0.451,1.221-0.873l1.044,1.047c-0.597,0.561-1.161,0.95-1.692,1.167s-1.138,0.325-1.819,0.325
				c-1.256,0-2.284-0.383-3.085-1.147s-1.201-1.744-1.201-2.939c0-0.773,0.182-1.461,0.546-2.063
				c0.364-0.601,0.887-1.085,1.567-1.45c0.68-0.365,1.41-0.549,2.195-0.549c0.666,0,1.309,0.136,1.926,0.405
				C203.668,116.542,204.201,116.926,204.648,117.423z M191.393,116.062h4.412v1.447h-2.882v1.395h2.882v1.427h-2.882v2.042h2.882
				v1.448h-4.412V116.062z M185.875,116.062h4.467v1.459h-1.474v6.3h-1.564v-6.3h-1.429V116.062L185.875,116.062z M131.544,117.488
				v4.895h0.713c0.703,0,1.212-0.077,1.528-0.232c0.316-0.154,0.575-0.415,0.776-0.781c0.202-0.366,0.302-0.816,0.302-1.352
				c0-0.824-0.24-1.463-0.719-1.917c-0.432-0.409-1.125-0.612-2.079-0.612H131.544z M130.013,116.062h1.822
				c1.174,0,2.046,0.14,2.617,0.419c0.571,0.28,1.041,0.734,1.41,1.364c0.369,0.629,0.554,1.364,0.554,2.204
				c0,0.598-0.103,1.147-0.31,1.649c-0.207,0.5-0.492,0.917-0.856,1.247s-0.758,0.559-1.182,0.686s-1.159,0.189-2.206,0.189h-1.849
				L130.013,116.062L130.013,116.062z M124.174,116.062h4.411v1.447h-2.881v1.395h2.881v1.427h-2.881v2.042h2.881v1.448h-4.411
				V116.062z M123.281,117.423l-1.078,0.983c-0.733-0.742-1.558-1.112-2.475-1.112c-0.773,0-1.425,0.253-1.955,0.759
				c-0.53,0.507-0.794,1.131-0.794,1.872c0,0.517,0.117,0.976,0.352,1.377s0.566,0.715,0.995,0.944
				c0.429,0.229,0.905,0.343,1.43,0.343c0.447,0,0.855-0.081,1.226-0.24c0.37-0.16,0.777-0.451,1.221-0.873l1.045,1.047
				c-0.598,0.561-1.162,0.95-1.693,1.167s-1.138,0.325-1.819,0.325c-1.257,0-2.285-0.383-3.086-1.147s-1.201-1.744-1.201-2.939
				c0-0.773,0.183-1.461,0.547-2.063c0.364-0.601,0.887-1.085,1.566-1.45s1.411-0.549,2.195-0.549c0.667,0,1.309,0.136,1.926,0.405
				C122.302,116.542,122.834,116.926,123.281,117.423z M108.011,116.062h1.459l3.48,5.105v-5.105h1.53v7.759h-1.469l-3.47-5.09v5.09
				h-1.53V116.062z M103.391,118.124l-1.096,2.671h2.186L103.391,118.124z M102.615,116.062h1.548l3.11,7.759h-1.599l-0.631-1.6
				h-3.312l-0.646,1.6h-1.599L102.615,116.062z M92.594,116.062h1.581l2.031,5.512l2.071-5.512h1.575l-2.916,7.759h-1.484
				L92.594,116.062z M87.811,117.488v4.895h0.713c0.702,0,1.211-0.077,1.528-0.232c0.316-0.155,0.575-0.415,0.776-0.781
				s0.302-0.816,0.302-1.352c0-0.824-0.24-1.463-0.719-1.917c-0.432-0.409-1.125-0.612-2.079-0.612H87.811z M86.281,116.062h1.822
				c1.174,0,2.046,0.14,2.617,0.419c0.57,0.28,1.041,0.734,1.41,1.364c0.369,0.629,0.554,1.364,0.554,2.204
				c0,0.598-0.104,1.147-0.31,1.649c-0.207,0.5-0.492,0.917-0.856,1.247c-0.364,0.33-0.758,0.559-1.182,0.686
				c-0.424,0.127-1.16,0.189-2.206,0.189h-1.849L86.281,116.062L86.281,116.062z M81.661,118.124l-1.096,2.671h2.186L81.661,118.124
				z M80.885,116.062h1.548l3.109,7.759h-1.599l-0.63-1.6h-3.312l-0.646,1.6h-1.599L80.885,116.062z"/>
			<path style="&st0;" d="M181.546,117.329l-1.082,1.029c-0.685-0.695-1.482-1.044-2.394-1.044c-0.794,0-1.459,0.253-1.996,0.759
				c-0.536,0.506-0.804,1.12-0.804,1.844c0,0.748,0.278,1.383,0.835,1.902c0.556,0.52,1.243,0.779,2.059,0.779
				c0.531,0,0.978-0.106,1.342-0.321c0.365-0.215,0.659-0.551,0.881-1.008h-2.338v-1.383h4.063l0.011,0.326
				c0,0.679-0.183,1.322-0.55,1.931c-0.366,0.607-0.841,1.071-1.424,1.392c-0.583,0.319-1.266,0.479-2.05,0.479
				c-0.839,0-1.588-0.175-2.246-0.525c-0.658-0.35-1.179-0.848-1.562-1.494c-0.383-0.647-0.574-1.345-0.574-2.094
				c0-1.026,0.354-1.92,1.061-2.679c0.839-0.904,1.932-1.355,3.277-1.355c0.703,0,1.361,0.125,1.973,0.374
				C180.546,116.453,181.051,116.815,181.546,117.329z M165.77,116.062h1.459l3.48,5.105v-5.105h1.531v7.759h-1.47l-3.47-5.09v5.09
				h-1.53L165.77,116.062L165.77,116.062z M162.499,116.062h1.531v7.759h-1.531V116.062z M154.304,116.062h1.459l3.48,5.105v-5.105
				h1.53v7.759h-1.47l-3.47-5.09v5.09h-1.53L154.304,116.062L154.304,116.062z M151.034,116.062h1.53v7.759h-1.53V116.062z
				 M141.789,116.062h1.491l1.88,5.411l1.89-5.411h1.487l1.355,7.759h-1.483l-0.863-4.9l-1.711,4.9h-1.357l-1.703-4.9l-0.88,4.9
				h-1.5L141.789,116.062z"/>
		</g>
	</g>
</g>
</svg>
