<?xml version="1.0" encoding="utf-8"?>
<!-- Generator: Adobe Illustrator 16.0.0, SVG Export Plug-In . SVG Version: 6.00 Build 0)  -->
<!DOCTYPE svg PUBLIC "-//W3C//DTD SVG 1.1//EN" "http://www.w3.org/Graphics/SVG/1.1/DTD/svg11.dtd" [
	<!ENTITY ns_extend "http://ns.adobe.com/Extensibility/1.0/">
	<!ENTITY ns_ai "http://ns.adobe.com/AdobeIllustrator/10.0/">
	<!ENTITY ns_graphs "http://ns.adobe.com/Graphs/1.0/">
	<!ENTITY ns_vars "http://ns.adobe.com/Variables/1.0/">
	<!ENTITY ns_imrep "http://ns.adobe.com/ImageReplacement/1.0/">
	<!ENTITY ns_sfw "http://ns.adobe.com/SaveForWeb/1.0/">
	<!ENTITY ns_custom "http://ns.adobe.com/GenericCustomNamespace/1.0/">
	<!ENTITY ns_adobe_xpath "http://ns.adobe.com/XPath/1.0/">
]>
<svg version="1.1" id="Layer_1" xmlns:x="&ns_extend;" xmlns:i="&ns_ai;" xmlns:graph="&ns_graphs;"
	 xmlns="http://www.w3.org/2000/svg" xmlns:xlink="http://www.w3.org/1999/xlink" x="0px" y="0px" width="792px" height="416.5px"
	 viewBox="-206.25 -233.75 792 416.5" enable-background="new -206.25 -233.75 792 416.5" xml:space="preserve">
<metadata>
	<sfw  xmlns="&ns_sfw;">
		<slices></slices>
		<sliceSourceBounds  width="723.791" height="334.547" x="27.275" y="238.582" bottomLeftOrigin="true"></sliceSourceBounds>
	</sfw>
</metadata>
<g id="Layer_1_1_">
	<g>
		<path fill="#73797D" d="M375.787-114.337h24.303v-42.412h-24.303v-37.63h-48.906l0.126,37.63h-16.296v42.412h16.296l0.02,103.715
			c1.145,44.927,31.036,77.97,84.985,72.245l-0.003-42.03c-23.081,1.683-35.994-6.964-36.215-30.556L375.787-114.337z"/>
		<path fill="#73797D" d="M-43.882,63.567H4.22v-174.847h-48.083h-38.086c-58.02,0-94.978,38.306-94.978,87.106
			c0,48.806,36.958,87.74,94.978,87.74h23.228V19.89h-19.163c-30.675-0.003-50.26-19.322-50.26-44.06
			c0-24.74,19.585-44.067,50.26-44.067l34,0.003L-43.882,63.567L-43.882,63.567z"/>
		<path fill="#73797D" d="M506.017,63.276h39.297V19.89H510.08c-30.673-0.003-50.264-19.322-50.264-44.06
			c0-24.74,19.591-44.067,50.264-44.067l35.236,0.003v-43.045h-39.3c-58.021,0-94.98,38.306-94.98,87.109
			C411.036,24.633,447.996,63.271,506.017,63.276z"/>
		<path fill="#E30613" d="M311.336-37.628c0-45.739-31.405-77.927-84.604-77.93c-24.753,0-46.185,9.488-60.59,24.734
			c-13.669-15.25-34.724-24.734-60.586-24.734c-52.089,0-85.709,33.542-85.713,77.926V63.34h48.77V-38.646
			c0-19.65,15.148-33.207,36.94-33.207c32.14,0,35.468,23.38,35.468,33.207V63.34h48.771V-38.644
			c0-19.653,15.513-33.207,36.94-33.207c32.145,0,35.839,23.377,35.839,33.207L262.568,63.34h48.768V-37.628L311.336-37.628z"/>
		<g>
			<path fill="#73797D" d="M532.283,124.276h1.578c1.596,0,2.698-0.199,3.298-0.601c0.602-0.399,0.903-1.063,0.903-1.99
				c0-0.549-0.149-1.026-0.452-1.437c-0.297-0.404-0.695-0.697-1.192-0.873c-0.502-0.181-1.421-0.266-2.76-0.266h-1.381v5.166
				H532.283z M527.342,114.468h5.276c2.891,0,4.945,0.246,6.173,0.739c1.224,0.491,2.212,1.314,2.953,2.461
				c0.748,1.148,1.123,2.509,1.123,4.078c0,1.649-0.41,3.029-1.231,4.133c-0.82,1.111-2.06,1.951-3.706,2.515l6.156,11.143h-5.434
				l-5.87-10.616h-0.496v10.616h-4.944V114.468L527.342,114.468z M508.18,114.468h14.252v4.674h-9.31v4.509h9.31v4.612h-9.31v6.598
				h9.31v4.676H508.18V114.468z M490.345,114.468h14.44v4.715h-4.766v20.354h-5.055v-20.354h-4.62V114.468L490.345,114.468z
				 M466.046,114.468h4.715l11.246,16.495v-16.495h4.948v25.068H482.2l-11.212-16.446v16.446h-4.945v-25.068H466.046z
				 M447.176,114.468h14.253v4.674h-9.306v4.509h9.306v4.612h-9.306v6.598h9.306v4.676h-14.253V114.468z M442.796,118.863
				l-3.484,3.179c-2.37-2.399-5.036-3.595-7.997-3.595c-2.499,0-4.606,0.817-6.317,2.453c-1.71,1.641-2.568,3.653-2.568,6.049
				c0,1.669,0.379,3.151,1.136,4.449c0.76,1.297,1.83,2.313,3.219,3.052c1.386,0.739,2.925,1.107,4.623,1.107
				c1.441,0,2.761-0.263,3.964-0.772c1.192-0.519,2.509-1.458,3.947-2.822l3.37,3.383c-1.926,1.812-3.755,3.067-5.466,3.769
				c-1.716,0.704-3.679,1.054-5.876,1.054c-4.063,0-7.39-1.239-9.979-3.708c-2.584-2.471-3.875-5.636-3.875-9.495
				c0-2.499,0.59-4.725,1.768-6.668c1.174-1.94,2.866-3.507,5.059-4.688c2.199-1.179,4.561-1.771,7.097-1.771
				c2.153,0,4.229,0.438,6.223,1.306C439.627,116.018,441.344,117.258,442.796,118.863z M384.182,114.468h5.314l4.848,9l4.846-9
				h5.318l-7.653,14.211v10.857h-5.014v-10.857L384.182,114.468z M381.187,118.562l-3.493,3.323
				c-2.215-2.245-4.79-3.371-7.737-3.371c-2.569,0-4.721,0.814-6.45,2.451c-1.729,1.635-2.604,3.62-2.604,5.959
				c0,2.417,0.902,4.469,2.698,6.144c1.798,1.679,4.017,2.519,6.658,2.519c1.71,0,3.162-0.341,4.336-1.034
				c1.181-0.695,2.127-1.781,2.853-3.257h-7.561v-4.473h13.128l0.037,1.055c0,2.193-0.594,4.272-1.78,6.238
				c-1.181,1.964-2.714,3.462-4.601,4.5c-1.88,1.029-4.089,1.547-6.624,1.547c-2.714,0-5.128-0.565-7.258-1.698
				c-2.123-1.129-3.809-2.739-5.045-4.824c-1.238-2.093-1.856-4.346-1.856-6.771c0-3.313,1.143-6.204,3.428-8.651
				c2.714-2.922,6.248-4.38,10.59-4.38c2.274,0,4.399,0.402,6.381,1.208C377.951,115.73,379.587,116.898,381.187,118.562z
				 M340.286,118.514c-2.404,0-4.431,0.808-6.065,2.424c-1.641,1.609-2.461,3.664-2.461,6.147c0,2.771,1.029,4.964,3.093,6.575
				c1.603,1.264,3.445,1.895,5.521,1.895c2.348,0,4.349-0.82,5.993-2.455c1.657-1.635,2.483-3.651,2.483-6.051
				c0-2.384-0.833-4.404-2.496-6.058C344.694,119.334,342.665,118.514,340.286,118.514z M340.355,113.838
				c3.692,0,6.866,1.28,9.524,3.85c2.657,2.567,3.982,5.699,3.982,9.389c0,3.662-1.31,6.755-3.933,9.286
				c-2.625,2.533-5.8,3.8-9.539,3.8c-3.923,0-7.174-1.3-9.761-3.9c-2.598-2.604-3.888-5.693-3.888-9.271
				c0-2.398,0.6-4.602,1.809-6.614c1.208-2.007,2.868-3.604,4.979-4.778C335.641,114.424,337.92,113.838,340.355,113.838z
				 M311.986,114.468h4.947v20.531h7.31v4.537h-12.257V114.468z M295.261,118.514c-2.404,0-4.43,0.808-6.071,2.424
				c-1.641,1.609-2.455,3.664-2.455,6.147c0,2.771,1.028,4.964,3.089,6.575c1.609,1.264,3.446,1.895,5.526,1.895
				c2.348,0,4.349-0.82,5.992-2.455c1.653-1.641,2.478-3.651,2.478-6.051c0-2.384-0.83-4.404-2.493-6.058
				C299.666,119.334,297.646,118.514,295.261,118.514z M295.33,113.838c3.692,0,6.867,1.28,9.524,3.85
				c2.657,2.567,3.982,5.699,3.982,9.389c0,3.662-1.307,6.755-3.936,9.286c-2.618,2.533-5.797,3.8-9.533,3.8
				c-3.919,0-7.176-1.3-9.767-3.9c-2.591-2.604-3.888-5.693-3.888-9.271c0-2.398,0.608-4.602,1.814-6.614
				c1.206-2.007,2.869-3.604,4.973-4.778C290.616,114.424,292.895,113.838,295.33,113.838z M257.677,114.468h4.722l11.243,16.495
				v-16.495h4.944v25.068h-4.752l-11.215-16.446v16.446h-4.942V114.468L257.677,114.468z M234.376,114.468h5.055v9.462h8.726v-9.462
				h5.021v25.068h-5.021V128.54h-8.726v10.996h-5.055V114.468z M231.567,118.863l-3.484,3.179c-2.37-2.399-5.036-3.595-7.996-3.595
				c-2.5,0-4.607,0.817-6.318,2.453c-1.71,1.641-2.568,3.653-2.568,6.049c0,1.669,0.379,3.151,1.136,4.449
				c0.764,1.297,1.831,2.313,3.219,3.052c1.386,0.739,2.922,1.107,4.62,1.107c1.445,0,2.765-0.263,3.964-0.772
				c1.192-0.519,2.512-1.458,3.944-2.822l3.377,3.383c-1.932,1.812-3.753,3.067-5.469,3.769c-1.714,0.704-3.677,1.054-5.879,1.054
				c-4.059,0-7.379-1.239-9.966-3.708c-2.591-2.471-3.882-5.636-3.882-9.495c0-2.499,0.587-4.725,1.761-6.668
				c1.181-1.94,2.869-3.507,5.068-4.688c2.196-1.179,4.554-1.771,7.091-1.771c2.152,0,4.232,0.438,6.223,1.306
				C228.398,116.018,230.121,117.258,231.567,118.863z M188.732,114.468h14.257v4.674h-9.313v4.509h9.313v4.612h-9.313v6.598h9.313
				v4.676h-14.257V114.468z M170.902,114.468h14.435v4.715h-4.762v20.354h-5.053v-20.354h-4.619V114.468L170.902,114.468z
				 M-4.663,119.075v15.815h2.303c2.272,0,3.918-0.244,4.938-0.749c1.021-0.496,1.857-1.339,2.507-2.522
				c0.654-1.184,0.975-2.636,0.975-4.371c0-2.663-0.774-4.727-2.322-6.19c-1.396-1.326-3.636-1.979-6.719-1.979h-1.683V119.075z
				 M-9.61,114.468h5.887c3.793,0,6.611,0.451,8.457,1.352c1.845,0.904,3.365,2.373,4.555,4.411c1.193,2.031,1.791,4.404,1.791,7.12
				c0,1.93-0.333,3.704-1.002,5.328c-0.668,1.616-1.589,2.964-2.766,4.03c-1.176,1.067-2.449,1.805-3.82,2.215
				c-1.37,0.41-3.744,0.612-7.128,0.612H-9.61V114.468L-9.61,114.468z M-28.479,114.468h14.254v4.674h-9.31v4.509h9.31v4.612h-9.31
				v6.598h9.31v4.676h-14.254V114.468z M-31.365,118.863l-3.482,3.179c-2.369-2.399-5.035-3.595-7.999-3.595
				c-2.498,0-4.604,0.817-6.317,2.453c-1.712,1.641-2.566,3.653-2.566,6.049c0,1.669,0.379,3.151,1.138,4.449
				c0.759,1.297,1.829,2.313,3.215,3.052c1.386,0.739,2.924,1.107,4.621,1.107c1.445,0,2.762-0.263,3.962-0.772
				c1.196-0.519,2.51-1.458,3.946-2.822l3.376,3.383c-1.932,1.812-3.755,3.067-5.47,3.769c-1.716,0.704-3.678,1.054-5.879,1.054
				c-4.061,0-7.383-1.239-9.972-3.708c-2.587-2.471-3.879-5.636-3.879-9.495c0-2.499,0.59-4.725,1.767-6.668
				c1.175-1.94,2.865-3.507,5.06-4.688c2.194-1.179,4.56-1.771,7.092-1.771c2.155,0,4.23,0.438,6.224,1.306
				C-34.529,116.018-32.809,117.258-31.365,118.863z M-80.707,114.468h4.714l11.245,16.495v-16.495h4.944v25.068h-4.747
				l-11.214-16.446v16.446h-4.943V114.468z M-95.637,121.13l-3.542,8.63h7.064L-95.637,121.13z M-98.144,114.468h5.001l10.05,25.068
				h-5.167l-2.039-5.168h-10.702l-2.088,5.168h-5.167L-98.144,114.468z M-130.525,114.468h5.107l6.564,17.812l6.691-17.812h5.09
				l-9.423,25.068h-4.795L-130.525,114.468z M-145.982,119.075v15.815h2.304c2.269,0,3.913-0.244,4.937-0.749
				c1.022-0.499,1.858-1.339,2.508-2.522c0.649-1.184,0.975-2.636,0.975-4.371c0-2.663-0.775-4.727-2.322-6.19
				c-1.396-1.326-3.635-1.979-6.719-1.979h-1.684V119.075z M-150.927,114.468h5.889c3.793,0,6.611,0.451,8.457,1.352
				c1.841,0.904,3.364,2.373,4.555,4.411c1.193,2.031,1.791,4.404,1.791,7.12c0,1.93-0.336,3.704-1.002,5.328
				c-0.669,1.616-1.59,2.964-2.766,4.03c-1.177,1.067-2.449,1.805-3.82,2.215c-1.369,0.41-3.749,0.612-7.128,0.612h-5.976V114.468
				L-150.927,114.468z M-165.855,121.13l-3.542,8.63h7.064L-165.855,121.13z M-168.364,114.468h5.003l10.046,25.068h-5.168
				l-2.035-5.168h-10.702l-2.087,5.168h-5.168L-168.364,114.468z"/>
			<path fill="#E30613" d="M156.914,118.562l-3.497,3.323c-2.214-2.245-4.789-3.371-7.736-3.371c-2.565,0-4.715,0.814-6.449,2.451
				c-1.732,1.635-2.599,3.62-2.599,5.959c0,2.417,0.898,4.469,2.698,6.144c1.797,1.682,4.018,2.519,6.654,2.519
				c1.715,0,3.16-0.341,4.335-1.034c1.181-0.695,2.13-1.781,2.848-3.257h-7.556v-4.473h13.129l0.037,1.055
				c0,2.193-0.592,4.272-1.777,6.238c-1.184,1.964-2.719,3.462-4.603,4.5c-1.885,1.029-4.091,1.547-6.625,1.547
				c-2.712,0-5.131-0.565-7.257-1.698c-2.127-1.129-3.811-2.739-5.048-4.824c-1.236-2.093-1.855-4.346-1.855-6.771
				c0-3.313,1.144-6.204,3.429-8.651c2.712-2.922,6.243-4.38,10.59-4.38c2.271,0,4.397,0.402,6.374,1.208
				C153.682,115.73,155.313,116.898,156.914,118.562z M105.935,114.468h4.715l11.246,16.495v-16.495h4.948v25.068h-4.751
				l-11.213-16.446v16.446h-4.944V114.468L105.935,114.468z M95.365,114.468h4.946v25.068h-4.946V114.468z M68.884,114.468h4.715
				l11.245,16.495v-16.495h4.943v25.068h-4.75L73.824,123.09v16.446h-4.943L68.884,114.468L68.884,114.468z M58.318,114.468h4.943
				v25.068h-4.943V114.468z M28.443,114.468h4.817l6.076,17.482l6.106-17.482h4.807l4.378,25.068h-4.792l-2.79-15.831l-5.528,15.831
				h-4.385l-5.502-15.831l-2.844,15.831h-4.847L28.443,114.468z"/>
		</g>
	</g>
</g>
</svg>
