<?xml version="1.0" encoding="utf-8"?>
<!-- Generator: Adobe Illustrator 16.0.0, SVG Export Plug-In . SVG Version: 6.00 Build 0)  -->
<!DOCTYPE svg PUBLIC "-//W3C//DTD SVG 1.1//EN" "http://www.w3.org/Graphics/SVG/1.1/DTD/svg11.dtd" [
	<!ENTITY ns_extend "http://ns.adobe.com/Extensibility/1.0/">
	<!ENTITY ns_ai "http://ns.adobe.com/AdobeIllustrator/10.0/">
	<!ENTITY ns_graphs "http://ns.adobe.com/Graphs/1.0/">
	<!ENTITY ns_vars "http://ns.adobe.com/Variables/1.0/">
	<!ENTITY ns_imrep "http://ns.adobe.com/ImageReplacement/1.0/">
	<!ENTITY ns_sfw "http://ns.adobe.com/SaveForWeb/1.0/">
	<!ENTITY ns_custom "http://ns.adobe.com/GenericCustomNamespace/1.0/">
	<!ENTITY ns_adobe_xpath "http://ns.adobe.com/XPath/1.0/">
]>
<svg version="1.1" id="Layer_1" xmlns:x="&ns_extend;" xmlns:i="&ns_ai;" xmlns:graph="&ns_graphs;"
	 xmlns="http://www.w3.org/2000/svg" xmlns:xlink="http://www.w3.org/1999/xlink" x="0px" y="0px" width="792px" height="416.5px"
	 viewBox="0 0 792 416.5" enable-background="new 0 0 792 416.5" xml:space="preserve">
<metadata>
	<sfw  xmlns="&ns_sfw;">
		<slices></slices>
		<sliceSourceBounds  width="723.792" height="334.548" y="139.227" x="33.604" bottomLeftOrigin="true"></sliceSourceBounds>
	</sfw>
</metadata>
<g id="Layer_1_1_">
	<g>
		<path fill="#73797D" d="M588.366,121.018h24.303V78.605h-24.303v-37.63H539.46l0.126,37.63H523.29v42.412h16.296l0.021,103.715
			c1.145,44.928,31.035,77.971,84.984,72.245l-0.003-42.03c-23.081,1.684-35.993-6.964-36.215-30.556L588.366,121.018z"/>
		<path fill="#73797D" d="M168.697,298.922h48.102V124.074h-48.083H130.63c-58.02,0-94.978,38.306-94.978,87.106
			c0,48.806,36.958,87.739,94.978,87.739h23.228v-43.676h-19.163c-30.675-0.002-50.26-19.322-50.26-44.06
			c0-24.74,19.585-44.067,50.26-44.067l34,0.003L168.697,298.922L168.697,298.922z"/>
		<path fill="#73797D" d="M718.596,298.631h39.298v-43.387h-35.234c-30.673-0.002-50.264-19.322-50.264-44.06
			c0-24.74,19.591-44.067,50.264-44.067l35.236,0.003v-43.045h-39.301c-58.021,0-94.979,38.306-94.979,87.109
			C623.615,259.987,660.575,298.625,718.596,298.631z"/>
		<path fill="#E30613" d="M523.915,197.727c0-45.739-31.405-77.927-84.604-77.93c-24.752,0-46.185,9.488-60.589,24.734
			c-13.669-15.25-34.724-24.734-60.586-24.734c-52.089,0-85.709,33.542-85.713,77.926v100.972h48.77V196.708
			c0-19.65,15.148-33.207,36.94-33.207c32.14,0,35.468,23.38,35.468,33.207v101.986h48.771V196.71
			c0-19.653,15.514-33.207,36.939-33.207c32.146,0,35.84,23.377,35.84,33.207l-0.004,101.984h48.769V197.727L523.915,197.727z"/>
		<g>
			<path fill="#73797D" d="M744.862,359.631h1.578c1.596,0,2.697-0.199,3.298-0.602c0.602-0.398,0.903-1.063,0.903-1.99
				c0-0.549-0.149-1.025-0.452-1.437c-0.298-0.404-0.695-0.697-1.192-0.873c-0.502-0.181-1.421-0.267-2.76-0.267h-1.381v5.166h0.006
				V359.631z M739.921,349.822h5.276c2.891,0,4.944,0.246,6.173,0.739c1.224,0.491,2.212,1.313,2.953,2.461
				c0.748,1.147,1.123,2.509,1.123,4.078c0,1.649-0.41,3.028-1.231,4.133c-0.819,1.111-2.06,1.951-3.706,2.515l6.156,11.144h-5.434
				l-5.87-10.616h-0.496v10.616h-4.944V349.822L739.921,349.822z M720.759,349.822h14.252v4.674h-9.31v4.51h9.31v4.611h-9.31v6.598
				h9.31v4.677h-14.252V349.822z M702.924,349.822h14.44v4.715h-4.767v20.354h-5.055v-20.354h-4.62L702.924,349.822L702.924,349.822
				z M678.625,349.822h4.715l11.246,16.495v-16.495h4.948v25.068h-4.755l-11.212-16.446v16.446h-4.945v-25.068H678.625
				L678.625,349.822z M659.755,349.822h14.253v4.674h-9.306v4.51h9.306v4.611h-9.306v6.598h9.306v4.677h-14.253V349.822z
				 M655.375,354.217l-3.484,3.18c-2.369-2.398-5.035-3.596-7.996-3.596c-2.499,0-4.606,0.818-6.317,2.453
				c-1.71,1.642-2.568,3.654-2.568,6.05c0,1.669,0.379,3.151,1.137,4.448c0.76,1.297,1.829,2.313,3.219,3.053
				c1.386,0.738,2.925,1.107,4.623,1.107c1.44,0,2.761-0.264,3.964-0.772c1.191-0.519,2.509-1.458,3.947-2.822l3.369,3.384
				c-1.926,1.812-3.755,3.066-5.466,3.769c-1.716,0.704-3.679,1.054-5.876,1.054c-4.063,0-7.39-1.238-9.979-3.708
				c-2.584-2.471-3.875-5.636-3.875-9.495c0-2.499,0.59-4.725,1.768-6.668c1.174-1.939,2.866-3.507,5.06-4.688
				c2.198-1.18,4.561-1.771,7.097-1.771c2.153,0,4.229,0.438,6.223,1.307C652.206,351.373,653.923,352.612,655.375,354.217z
				 M596.761,349.822h5.314l4.848,9l4.847-9h5.317l-7.652,14.211v10.857h-5.015v-10.857L596.761,349.822z M593.767,353.916
				l-3.494,3.323c-2.215-2.245-4.789-3.37-7.736-3.37c-2.568,0-4.721,0.813-6.45,2.45c-1.729,1.636-2.604,3.62-2.604,5.959
				c0,2.417,0.902,4.47,2.699,6.144c1.797,1.68,4.017,2.52,6.657,2.52c1.71,0,3.162-0.341,4.336-1.034
				c1.181-0.694,2.128-1.78,2.853-3.257h-7.561v-4.473h13.129l0.036,1.055c0,2.193-0.594,4.271-1.78,6.238
				c-1.181,1.964-2.713,3.462-4.601,4.5c-1.88,1.029-4.089,1.547-6.624,1.547c-2.714,0-5.128-0.564-7.258-1.698
				c-2.123-1.129-3.809-2.739-5.045-4.823c-1.238-2.094-1.856-4.347-1.856-6.771c0-3.313,1.144-6.204,3.429-8.651
				c2.713-2.922,6.248-4.38,10.59-4.38c2.273,0,4.398,0.402,6.381,1.208C590.53,351.084,592.166,352.252,593.767,353.916z
				 M552.865,353.869c-2.404,0-4.431,0.807-6.065,2.424c-1.641,1.608-2.461,3.664-2.461,6.146c0,2.771,1.029,4.964,3.094,6.575
				c1.603,1.264,3.444,1.896,5.521,1.896c2.349,0,4.349-0.82,5.993-2.455c1.656-1.636,2.482-3.651,2.482-6.052
				c0-2.384-0.832-4.403-2.496-6.058C557.272,354.688,555.244,353.869,552.865,353.869z M552.935,349.192
				c3.691,0,6.865,1.28,9.523,3.851c2.657,2.566,3.982,5.699,3.982,9.389c0,3.662-1.311,6.755-3.934,9.285
				c-2.625,2.533-5.8,3.801-9.539,3.801c-3.923,0-7.174-1.301-9.761-3.9c-2.599-2.604-3.888-5.693-3.888-9.271
				c0-2.398,0.6-4.603,1.809-6.614c1.208-2.007,2.868-3.604,4.979-4.777C548.22,349.778,550.499,349.192,552.935,349.192z
				 M524.565,349.822h4.947v20.531h7.31v4.537h-12.257V349.822z M507.84,353.869c-2.404,0-4.43,0.807-6.07,2.424
				c-1.642,1.608-2.455,3.664-2.455,6.146c0,2.771,1.027,4.964,3.089,6.575c1.608,1.264,3.446,1.896,5.526,1.896
				c2.348,0,4.349-0.82,5.991-2.455c1.653-1.642,2.479-3.651,2.479-6.052c0-2.384-0.83-4.403-2.493-6.058
				C512.245,354.688,510.225,353.869,507.84,353.869z M507.909,349.192c3.692,0,6.867,1.28,9.523,3.851
				c2.657,2.566,3.982,5.699,3.982,9.389c0,3.662-1.307,6.755-3.936,9.285c-2.619,2.533-5.798,3.801-9.533,3.801
				c-3.919,0-7.177-1.301-9.767-3.9c-2.592-2.604-3.889-5.693-3.889-9.271c0-2.398,0.607-4.603,1.814-6.614
				c1.205-2.007,2.869-3.604,4.973-4.777C503.195,349.778,505.475,349.192,507.909,349.192z M470.256,349.822h4.723l11.242,16.495
				v-16.495h4.944v25.068h-4.752l-11.215-16.446v16.446h-4.942V349.822L470.256,349.822z M446.955,349.822h5.055v9.463h8.727v-9.463
				h5.021v25.068h-5.021v-10.996h-8.727v10.996h-5.055V349.822z M444.146,354.217l-3.484,3.18c-2.37-2.398-5.036-3.596-7.996-3.596
				c-2.5,0-4.607,0.818-6.318,2.453c-1.709,1.642-2.567,3.654-2.567,6.05c0,1.669,0.379,3.151,1.136,4.448
				c0.764,1.297,1.831,2.313,3.219,3.053c1.387,0.738,2.922,1.107,4.62,1.107c1.445,0,2.765-0.264,3.964-0.772
				c1.192-0.519,2.512-1.458,3.944-2.822l3.377,3.384c-1.933,1.812-3.753,3.066-5.469,3.769c-1.714,0.704-3.677,1.054-5.88,1.054
				c-4.059,0-7.379-1.238-9.965-3.708c-2.592-2.471-3.883-5.636-3.883-9.495c0-2.499,0.588-4.725,1.762-6.668
				c1.181-1.939,2.869-3.507,5.068-4.688c2.195-1.18,4.553-1.771,7.09-1.771c2.152,0,4.232,0.438,6.224,1.307
				C440.977,351.373,442.7,352.612,444.146,354.217z M401.311,349.822h14.258v4.674h-9.313v4.51h9.313v4.611h-9.313v6.598h9.313
				v4.677h-14.258V349.822z M383.481,349.822h14.435v4.715h-4.762v20.354h-5.053v-20.354h-4.619L383.481,349.822L383.481,349.822z
				 M207.916,354.43v15.814h2.303c2.272,0,3.918-0.244,4.938-0.748c1.021-0.496,1.857-1.34,2.507-2.522
				c0.654-1.185,0.975-2.636,0.975-4.371c0-2.663-0.774-4.728-2.322-6.19c-1.396-1.326-3.636-1.979-6.719-1.979h-1.683
				L207.916,354.43L207.916,354.43z M202.969,349.822h5.887c3.793,0,6.611,0.451,8.457,1.352c1.845,0.904,3.365,2.373,4.555,4.412
				c1.193,2.031,1.791,4.403,1.791,7.119c0,1.931-0.333,3.705-1.002,5.328c-0.668,1.616-1.589,2.965-2.766,4.03
				c-1.176,1.067-2.449,1.806-3.82,2.215c-1.37,0.41-3.744,0.612-7.128,0.612h-5.974V349.822L202.969,349.822z M184.1,349.822
				h14.254v4.674h-9.31v4.51h9.31v4.611h-9.31v6.598h9.31v4.677H184.1V349.822z M181.214,354.217l-3.482,3.18
				c-2.369-2.398-5.035-3.596-7.999-3.596c-2.498,0-4.604,0.818-6.317,2.453c-1.712,1.642-2.566,3.654-2.566,6.05
				c0,1.669,0.379,3.151,1.138,4.448c0.759,1.297,1.829,2.313,3.215,3.053c1.386,0.738,2.924,1.107,4.621,1.107
				c1.445,0,2.762-0.264,3.962-0.772c1.196-0.519,2.51-1.458,3.946-2.822l3.376,3.384c-1.932,1.812-3.755,3.066-5.47,3.769
				c-1.716,0.704-3.678,1.054-5.879,1.054c-4.061,0-7.383-1.238-9.972-3.708c-2.587-2.471-3.879-5.636-3.879-9.495
				c0-2.499,0.59-4.725,1.767-6.668c1.175-1.939,2.865-3.507,5.06-4.688c2.194-1.18,4.56-1.771,7.092-1.771
				c2.155,0,4.23,0.438,6.224,1.307C178.05,351.373,179.77,352.612,181.214,354.217z M131.872,349.822h4.714l11.245,16.495v-16.495
				h4.944v25.068h-4.747l-11.214-16.446v16.446h-4.943L131.872,349.822L131.872,349.822z M116.942,356.484l-3.542,8.63h7.064
				L116.942,356.484z M114.435,349.822h5.001l10.05,25.068h-5.167l-2.039-5.168h-10.702l-2.088,5.168h-5.167L114.435,349.822z
				 M82.054,349.822h5.107l6.564,17.813l6.691-17.813h5.09l-9.423,25.068h-4.795L82.054,349.822z M66.597,354.43v15.814h2.304
				c2.269,0,3.913-0.244,4.937-0.748c1.022-0.5,1.858-1.34,2.508-2.522c0.649-1.185,0.975-2.636,0.975-4.371
				c0-2.663-0.775-4.728-2.322-6.19c-1.396-1.326-3.635-1.979-6.719-1.979h-1.684L66.597,354.43L66.597,354.43z M61.652,349.822
				h5.889c3.793,0,6.611,0.451,8.457,1.352c1.841,0.904,3.364,2.373,4.555,4.412c1.193,2.031,1.791,4.403,1.791,7.119
				c0,1.931-0.336,3.705-1.002,5.328c-0.669,1.616-1.59,2.965-2.766,4.03c-1.177,1.067-2.449,1.806-3.82,2.215
				c-1.369,0.41-3.749,0.612-7.128,0.612h-5.976L61.652,349.822L61.652,349.822z M46.724,356.484l-3.542,8.63h7.064L46.724,356.484z
				 M44.215,349.822h5.003l10.046,25.068h-5.168l-2.035-5.168H41.359l-2.087,5.168h-5.168L44.215,349.822z"/>
			<path fill="#E30613" d="M369.493,353.916l-3.497,3.323c-2.214-2.245-4.789-3.37-7.736-3.37c-2.565,0-4.715,0.813-6.449,2.45
				c-1.732,1.636-2.599,3.62-2.599,5.959c0,2.417,0.898,4.47,2.698,6.144c1.797,1.683,4.018,2.52,6.654,2.52
				c1.715,0,3.16-0.341,4.335-1.034c1.181-0.694,2.13-1.78,2.848-3.257h-7.556v-4.473h13.129l0.037,1.055
				c0,2.193-0.592,4.271-1.777,6.238c-1.184,1.964-2.719,3.462-4.603,4.5c-1.885,1.029-4.091,1.547-6.625,1.547
				c-2.712,0-5.131-0.564-7.257-1.698c-2.127-1.129-3.811-2.739-5.048-4.823c-1.236-2.094-1.855-4.347-1.855-6.771
				c0-3.313,1.144-6.204,3.429-8.651c2.712-2.922,6.243-4.38,10.59-4.38c2.271,0,4.397,0.402,6.374,1.208
				C366.261,351.084,367.892,352.252,369.493,353.916z M318.514,349.822h4.715l11.246,16.495v-16.495h4.948v25.068h-4.751
				l-11.213-16.446v16.446h-4.944L318.514,349.822L318.514,349.822z M307.944,349.822h4.946v25.068h-4.946V349.822z
				 M281.463,349.822h4.715l11.245,16.495v-16.495h4.943v25.068h-4.75l-11.213-16.446v16.446h-4.943L281.463,349.822
				L281.463,349.822z M270.897,349.822h4.943v25.068h-4.943V349.822z M241.022,349.822h4.817l6.076,17.482l6.106-17.482h4.807
				l4.378,25.068h-4.792l-2.79-15.831l-5.528,15.831h-4.385l-5.502-15.831l-2.844,15.831h-4.847L241.022,349.822z"/>
		</g>
	</g>
</g>
</svg>
