<?xml version="1.0" encoding="utf-8"?>
<!-- Generator: Adobe Illustrator 16.0.0, SVG Export Plug-In . SVG Version: 6.00 Build 0)  -->
<!DOCTYPE svg PUBLIC "-//W3C//DTD SVG 1.1//EN" "http://www.w3.org/Graphics/SVG/1.1/DTD/svg11.dtd" [
	<!ENTITY ns_extend "http://ns.adobe.com/Extensibility/1.0/">
	<!ENTITY ns_ai "http://ns.adobe.com/AdobeIllustrator/10.0/">
	<!ENTITY ns_graphs "http://ns.adobe.com/Graphs/1.0/">
	<!ENTITY ns_vars "http://ns.adobe.com/Variables/1.0/">
	<!ENTITY ns_imrep "http://ns.adobe.com/ImageReplacement/1.0/">
	<!ENTITY ns_sfw "http://ns.adobe.com/SaveForWeb/1.0/">
	<!ENTITY ns_custom "http://ns.adobe.com/GenericCustomNamespace/1.0/">
	<!ENTITY ns_adobe_xpath "http://ns.adobe.com/XPath/1.0/">
]>
<svg version="1.1" id="Layer_1" xmlns:x="&ns_extend;" xmlns:i="&ns_ai;" xmlns:graph="&ns_graphs;"
	 xmlns="http://www.w3.org/2000/svg" xmlns:xlink="http://www.w3.org/1999/xlink" x="0px" y="0px" width="792px" height="300px"
	 viewBox="0 0 792 300" enable-background="new 0 0 792 300" xml:space="preserve">
<metadata>
	<sfw  xmlns="&ns_sfw;">
		<slices></slices>
		<sliceSourceBounds  width="734.39" height="237.328" x="29.862" y="184.141" bottomLeftOrigin="true"></sliceSourceBounds>
	</sfw>
</metadata>
<g>
	<path fill="none" stroke="#73797D" stroke-width="1.9399" stroke-miterlimit="3.8635" d="M126.387,111.791v123.721
		c0,2.363-1.908,4.283-4.263,4.283H83.345c-2.593-0.063-4.467,4.27-4.467,4.27s-1.882-4.334-4.591-4.27
		c0.003-0.004-38.689,0-38.689,0c-2.354,0-4.263-1.92-4.263-4.283L31.332,111.8L126.387,111.791L126.387,111.791z"/>
	<path fill="none" stroke="#73797D" stroke-width="0.9654" stroke-miterlimit="3.8637" d="M93.118,131.491l-3.777-6.022
		c-4.525,1.045-3.413-2.88-0.961-4.423c2.695-1.691,5.742-1.096,3.787,2.648c0,0,0.871,1.417,2.324,3.729
		C94.491,127.424,93.499,129.309,93.118,131.491L93.118,131.491z M109.83,151.686l10.293,16.346l-0.757,0.761l-3.608-2.862
		c0,0-0.22-2.39-0.793-2.882c-1.938-1.673-0.789-2.594-1.539-4.147c-0.749-1.547-5.147-2.741-6.17-5.067
		c0.019,0.112-1.694-2.717-1.694-2.717C109.486,150.424,109.83,151.686,109.83,151.686L109.83,151.686z M97.762,132.408
		c-0.017-0.035,3.659,6.018,3.644,5.939c-2.274-0.275-3.378-0.929-3.831-2.152C97.039,134.816,97.458,132.982,97.762,132.408
		L97.762,132.408z M42.747,189.96l8.036,20.292 M43.403,190.549l7.459,14.42 M43.949,190.77l6.784,10.179 M44.352,190.587
		l6.22,7.392 M44.275,189.9l9.006,8.512 M44.201,189.402l12.34,9.233 M44.008,188.979l18.118,10.638 M53.804,156.624l-0.275,6.271
		h3.654l-0.277-6.271H53.804L53.804,156.624z M56.838,154.9l-1.486-33.625l-1.52,33.625H56.838L56.838,154.9z M49.186,154.936H61.52
		v1.686H49.186V154.936L49.186,154.936z M59.242,162.904c0,2.521-1.742,4.265-3.891,4.265c-2.146,0-3.889-1.741-3.889-4.265H59.242
		L59.242,162.904z M49.692,139.633c0,3.221-2.661,5.832-5.942,5.832s-5.943-2.611-5.943-5.832H49.692L49.692,139.633z
		 M98.485,131.184c0,0,1.312,1.783,2.717,0.953c2.574-1.521-0.604-10.189-5.903-5.779c-1.165,0.973-2.723,5.478-2.421,8.365
		c0.303,2.892,1.586,6.545,4.842,7.301c1.966,0.457,5.882-0.637,7.508,2.041c1.209-0.453,2.531-5.229-0.847-5.387
		c-3.332-0.15-6.152-0.721-6.661-2.129C96.511,133.201,98.485,131.184,98.485,131.184L98.485,131.184z M101.486,144.738
		c-1.309,0.636-2.268,2.15-1.811,3.835c0.457,1.687,2.503,2.692,5.394,2.54c0.161-0.008,0.312-0.021,0.46-0.028
		c2.558-0.19,3.7-0.5,4.564,0.947c0.913-1.071,0.648-3.459-0.652-4.563C107.466,145.783,102.329,147.922,101.486,144.738
		L101.486,144.738z M107.204,153.866c-0.304,1.379-1.235,3.224-0.457,4.897c1.063,2.295,3.043,1.072,3.653,2.445
		c0.607,1.374,0.023,3.427,1.37,3.827c2.588,0.766,1.677,3.364,3.047,3.212c1.21-0.135,1.253-4.2,0-5.354
		c-1.828-1.686-0.611-2.908-1.522-4.285C112.378,157.232,109.029,156.62,107.204,153.866L107.204,153.866z"/>
	<path fill="none" stroke="#73797D" stroke-width="0.6207" stroke-miterlimit="3.8637" d="M80.567,162.426
		c0-0.095,0.076-0.17,0.172-0.17c0.096,0,0.171,0.075,0.171,0.17c0,0.096-0.075,0.17-0.171,0.17
		C80.644,162.602,80.567,162.52,80.567,162.426L80.567,162.426z M99.833,128.152c0.247-0.088,0.539,0.094,0.652,0.406
		c0.113,0.315,0.005,0.646-0.237,0.735c-0.246,0.092-0.539-0.092-0.651-0.408C99.483,128.573,99.591,128.243,99.833,128.152
		L99.833,128.152z"/>
	<path fill="none" stroke="#73797D" stroke-width="0.9654" stroke-miterlimit="3.8637" d="M52.724,210.262
		c0-4.869,3.923-8.808,8.765-8.808c4.842,0,8.765,3.938,8.765,8.808c0,4.861-3.923,8.807-8.765,8.807
		C56.646,219.068,52.724,215.123,52.724,210.262L52.724,210.262z M70.557,231.906h-4.265v-8.235H40.068v-4.213h30.487
		L70.557,231.906L70.557,231.906z M43.86,211.225c0-0.988,0.8-1.795,1.791-1.795c0.987,0,1.786,0.807,1.786,1.795
		c0,0.994-0.799,1.799-1.786,1.799C44.661,213.023,43.86,212.221,43.86,211.225L43.86,211.225z M43.939,210.71l-3.063,8.707
		l4.731-6.394 M47.359,210.71l3.061,8.707l-4.731-6.394 M53.981,206.121c-0.442,2.4,4.035,2.371,3.654,3.674
		c-0.918,3.135,0.913,3.021,1.218,4.666c0,0-0.305,3.898,0.76,4.209c0.61-0.84,0.154-2.486,0.913-3.367
		c0.801-0.916,1.904-1.418,1.904-3.057c0-1.191-1.65-1.568-2.134-1.914c-0.531-0.383-1.522-0.689-2.206-0.689
		c0,0-1.751-3.365-1.218-3.979c0.607-0.533,1.523,0.763,1.901,0.763c0.8,0,0.95-1.604,2.207-1.604c0-0.386-0.077-1.571-0.305-1.687
		c-1.257,0-2.053,0.614-3.122-0.688C57.559,202.441,54.426,203.712,53.981,206.121L53.981,206.121z M64.224,201.794
		c-0.98-0.376-2.477-0.228-2.477-0.228c1.296,0.613,1.22,2.33,1.752,2.33c1.068,0,1.599-0.877,2.664-1.067
		C66.166,202.829,65.203,202.17,64.224,201.794L64.224,201.794z M70.168,208.521c0-2.201-2.939-4.929-2.939-4.929
		s-1.446,2.679-0.764,5.433c0.686,0.074,2.665-0.152,2.665-0.152c0.497,0.229,0.304,1.033,0.304,1.527
		c0,1.227-0.381,4.361-0.381,4.361S70.168,210.729,70.168,208.521L70.168,208.521z"/>
	<polygon fill="none" stroke="#73797D" stroke-width="0.6207" stroke-miterlimit="3.8637" points="42.479,185.217 41.584,187.148 
		39.521,187.396 41.032,188.823 40.625,190.885 42.45,189.878 44.318,190.9 43.951,188.803 45.42,187.396 43.356,187.107 	"/>
	
		<line fill="none" stroke="#73797D" stroke-width="1.9399" stroke-miterlimit="3.8635" x1="78.859" y1="191.357" x2="78.859" y2="243.719"/>
	
		<path fill="none" stroke="#73797D" stroke-width="0.9657" stroke-linecap="round" stroke-linejoin="round" stroke-miterlimit="3.8637" d="
		M86.419,216.828l-2.252,2.561c-0.301,0.351-0.142,2.717,0.01,3.396c1.778,0.713,26.972,8.637,26.972,8.637l10.248-11.168
		l-1.603-0.689c-0.453-0.73,0.998-3.19,0.998-3.19l-4.96-1.956 M111.163,226.467c-0.4,0.324-0.305,4.512,0.019,4.977
		c0.02,0,10.217-11.188,10.217-11.188l-1.059-0.964c-0.09-1.006,0.182-2.822,0.182-2.822L111.163,226.467L111.163,226.467z
		 M110.208,219.583c-0.42,0.19-0.67,5.677-0.1,5.713c0.002-0.005,8.416-9.56,8.416-9.56l-0.815-0.459L110.208,219.583
		L110.208,219.583z"/>
	
		<path fill="none" stroke="#73797D" stroke-width="0.6204" stroke-linecap="round" stroke-linejoin="round" stroke-miterlimit="3.8637" d="
		M89.499,212.334l-2.629,2.686c-0.377,0.203-0.092,2.72,0,3.426c0.921,0.252,23.228,6.878,23.228,6.878l8.396-9.661l-2.663-0.954"/>
	<path fill="none" stroke="#73797D" stroke-width="0.9654" stroke-miterlimit="3.8637" d="M113.857,198.35v15.994
		c-2.184-0.521-10.389-1.572-11.225-0.269c-0.683-1.304-7.278-0.716-11.238,0.166V198.85c-0.502,2.227-2.016,3.035-2.016,3.035
		v13.566l11.694-0.842c1.296,0.842,2.779,0.305,3.272,0.072l11.226,0.364v-15.187C115.571,199.864,114.461,199.768,113.857,198.35
		L113.857,198.35z M113.857,214.346c-2.388,0-9.512-1.914-11.188-0.23c1.522-0.037,1.563,0.953,0,0.994
		c-1.674-0.113-1.407-1.072,0-0.955c-1.447-1.877-11.255,0.388-11.255,0.388l-0.021-15.688c2.721,0,5.541-1.312,7.455-1.312
		s3.929,0.812,3.929,0.812s3.011-1.22,5.137-1.22c2.519,0,3.814,2.06,5.83,1.351C113.708,199.458,113.857,214.346,113.857,214.346
		L113.857,214.346z"/>
	
		<line fill="none" stroke="#73797D" stroke-width="0.6207" stroke-miterlimit="3.8637" x1="102.744" y1="198.376" x2="102.648" y2="214.061"/>
	<path fill="none" stroke="#73797D" stroke-width="0.6708" stroke-miterlimit="3.8637" d="M91.062,219.736l-0.842,0.852
		c-0.39,0.449-0.394,3.98,0.009,4.162c-0.009,0.059,1.823,0.529,1.01,0.159c-0.174-1.136-0.105-3.584,0.2-3.935l0.919-0.897
		L91.062,219.736L91.062,219.736z M93.993,220.577l-0.804,0.856c-0.388,0.441-0.549,4.073-0.144,4.25
		c-0.013,0.067,1.978,0.435,1.164,0.063c-0.178-1.137-0.106-3.584,0.2-3.936l0.851-0.85L93.993,220.577L93.993,220.577z
		 M101.112,222.682l-0.956,1.006c-0.389,0.449-0.595,3.894-0.189,4.072c-0.012,0.068,2.021,0.619,1.21,0.243
		c-0.177-1.128-0.106-3.582,0.199-3.935l1.032-1.043L101.112,222.682L101.112,222.682z M103.815,223.523l-0.956,1.01
		c-0.391,0.441-0.554,3.918-0.153,4.1c-0.011,0.063,1.983,0.588,1.171,0.217c-0.179-1.135-0.106-3.584,0.2-3.935l1.032-1.044
		L103.815,223.523L103.815,223.523z M91.06,215.359l-0.64,0.649c-0.295,0.341-0.354,3.3-0.048,3.438
		c-0.008,0.048,0.834,0.336,0.95,0.293c0.125-0.006-0.07-0.311-0.129-0.454c-0.134-0.861-0.078-2.724,0.154-2.99l0.695-0.675
		L91.06,215.359L91.06,215.359z"/>
	<path fill="none" stroke="#73797D" stroke-width="0.9654" stroke-miterlimit="3.8637" d="M102.782,198.23
		c-3.042-0.076-3.874-2.506-3.874-2.506l1.183-0.054c0,0-1.485-0.903-1.155-1.791c-0.024-0.041,1.034,0.112,1.034,0.112
		s-0.446-1.217-0.042-2.021l0.947,0.396c0.272-1.619,1.948-1.996,1.948-1.996s1.561,0.21,2.018,1.996l0.947-0.396
		c0.404,0.803-0.033,2.021-0.033,2.021s1.058-0.153,1.034-0.112c0.331,0.888-1.156,1.791-1.156,1.791l1.186,0.054
		C106.817,195.725,105.825,198.156,102.782,198.23L102.782,198.23z"/>
	
		<line fill="none" stroke="#73797D" stroke-width="1.9399" stroke-miterlimit="3.8635" x1="31.248" y1="176.564" x2="64.09" y2="176.564"/>
	
		<line fill="none" stroke="#73797D" stroke-width="1.8699" stroke-miterlimit="3.8637" x1="93.757" y1="176.564" x2="126.336" y2="176.564"/>
	<polygon fill="none" stroke="#FFFFFF" stroke-width="0.9654" stroke-miterlimit="3.8637" points="78.904,164.432 89.378,182.852 
		68.338,182.852 	"/>
	<path fill="none" stroke="#73797D" stroke-width="0.9654" stroke-miterlimit="3.8637" d="M78.814,173.537
		c3.791,0,7.087,3.119,7.046,3.613c0.035,0.466-3.257,3.59-7.046,3.59s-7.091-3.124-7.057-3.59
		C71.722,176.656,74.895,173.391,78.814,173.537L78.814,173.537z M75.281,177.139c0-1.959,1.58-3.545,3.528-3.545
		c1.949,0,3.53,1.59,3.53,3.545c0,1.957-1.581,3.549-3.53,3.549C76.86,180.684,75.281,179.096,75.281,177.139L75.281,177.139z"/>
	<path fill="#73797D" stroke="#73797D" stroke-width="0.6207" stroke-miterlimit="3.8637" d="M78.369,177.139
		c0-0.244,0.198-0.441,0.444-0.441c0.241,0,0.44,0.197,0.44,0.441c0,0.246-0.199,0.446-0.44,0.446
		C78.566,177.585,78.369,177.385,78.369,177.139L78.369,177.139z"/>
	<path fill="none" stroke="#73797D" stroke-width="0.9654" stroke-miterlimit="3.8637" d="M78.916,164.042
		c-6.922,0-12.588,5.657-12.588,12.61c0,6.955,5.61,12.594,12.532,12.594c6.922,0,12.533-5.639,12.533-12.594
		c0-6.256-4.54-11.442-10.49-12.428c-2.214,0.162-2.327-0.646-2.405-1.063c-0.204-1.134,1.271-1.8,2.323-1.8
		c1.828,0,1.674,1.07,2.77,1.3c5.825,1.979,10.015,7.519,10.015,14.034c0,8.182-6.601,14.813-14.742,14.813
		c-8.143,0-14.742-6.633-14.742-14.813c0-8.184,6.12-14.493,14.344-13.881C78.333,163.354,78.916,164.042,78.916,164.042
		L78.916,164.042z"/>
	<polygon fill="none" stroke="#73797D" stroke-width="1.7342" stroke-miterlimit="3.8635" points="78.839,59.692 74.329,68.811 
		64.136,70.287 71.483,77.577 69.967,87.458 78.839,82.951 87.713,87.458 86.083,77.486 93.198,70.504 83.421,68.903 	"/>
	<path fill="none" stroke="#73797D" stroke-width="0.8952" stroke-miterlimit="3.8635" d="M78.839,60.019v22.932 M64.484,70.501
		l21.598,6.985 M69.967,87.458l13.452-18.555 M87.713,87.458L74.332,68.812 M93.198,70.504l-21.714,7.075"/>
	<path fill="none" stroke="#73797D" stroke-width="1.7342" stroke-miterlimit="3.8635" d="M71.364,77.666L40.831,87.729
		 M116.709,62.724l-23.493,7.742 M74.303,68.791L55.444,42.766 M105.12,111.825L87.549,87.394 M83.435,68.875l18.768-26.223
		 M52.158,111.825l17.787-24.431 M64.388,70.474l-23.447-7.75 M116.598,87.729L86.199,77.544 M78.839,35.03v25.578"/>
	<path fill="none" stroke="#73797D" stroke-width="0.8952" stroke-miterlimit="3.8635" d="M70.953,81.165l-12.545,9.072
		 M99.328,60.367l-12.341,9.009 M75.895,84.525l-4.809,14.868 M86.746,50.973l-4.771,14.75 M81.869,84.536l4.774,14.76
		 M70.976,50.838l4.852,15.001 M86.639,80.955l12.462,9.098 M58.181,60.176l12.437,9.079 M88.534,75.29l15.712,0.003 M53.547,75.29
		H69.02"/>
	<path fill="none" stroke="#73797D" stroke-width="0.9654" stroke-miterlimit="3.8637" d="M104.612,143.311
		c0.69,1.021,2.094,3.402,2.054,3.402c0,0-3.311,0.229-4.489-0.88c-0.259-0.394-2.25-3.606-2.25-3.606
		S103.927,142.286,104.612,143.311L104.612,143.311z M43.736,126.102l-5.857,13.479l11.725,0.032L43.736,126.102L43.736,126.102z
		 M61.166,139.633c0,3.221,2.661,5.832,5.942,5.832c3.285,0,5.942-2.611,5.942-5.832H61.166L61.166,139.633z M67.12,126.102
		l5.859,13.479l-11.725,0.032L67.12,126.102L67.12,126.102z M53.639,162.014l3.504-1.646 M53.526,159.76l3.503-1.646"/>
	<path fill="none" stroke="#73797D" stroke-width="0.6207" stroke-miterlimit="3.8637" d="M55.279,125.867H43.743v-1.375h11.423
		L55.279,125.867L55.279,125.867z M55.469,124.492h11.608v1.375H55.543L55.469,124.492L55.469,124.492z M94.413,201.809
		c1.598-0.053,3.661-1.635,5.95-0.871 M94.398,203.557c1.594-0.047,3.672-1.558,5.962-0.787 M94.382,205.311
		c1.597-0.047,3.685-1.483,5.975-0.719 M94.373,207.063c1.595-0.047,3.693-1.412,5.985-0.645 M94.357,208.816
		c1.596-0.047,3.708-1.336,5.995-0.573 M94.341,210.57c1.596-0.053,3.722-1.264,6.011-0.496 M111.106,201.293
		c-1.597-0.052-3.728-1.119-6.016-0.354 M111.109,203.139c-1.597-0.052-3.729-1.139-6.017-0.369 M111.111,204.986
		c-1.597-0.053-3.728-1.16-6.016-0.396 M111.111,206.832c-1.597-0.053-3.728-1.182-6.013-0.413 M111.116,208.678
		c-1.598-0.054-3.729-1.197-6.014-0.435 M111.118,210.521c-1.598-0.051-3.728-1.215-6.016-0.447"/>
	<polygon fill="none" stroke="#73797D" stroke-width="0.9654" stroke-miterlimit="3.8637" points="78.904,164.432 89.378,182.852 
		68.338,182.852 	"/>
	<path fill="none" stroke="#73797D" stroke-width="0.6708" stroke-miterlimit="3.8637" d="M93.294,215.896l-0.639,0.646
		c-0.296,0.343-0.354,3.3-0.048,3.439c0.145,0.084,0.835,0.406,0.95,0.359c0.124,0-0.09-0.375-0.129-0.518
		c-0.135-0.861-0.08-2.723,0.152-2.991l0.698-0.679L93.294,215.896L93.294,215.896z"/>
	<polygon fill="#73797D" points="77.792,82.951 79.708,82.951 79.708,161.133 78.817,162.338 78.458,162.816 77.861,162.408 	"/>
	<path fill="none" stroke="#73797D" stroke-width="0.6708" stroke-miterlimit="3.8637" d="M102.388,218.514l-0.642,0.651
		c-0.293,0.34-0.353,3.3-0.048,3.438c-0.009,0.052,0.834,0.334,0.95,0.293c0.124-0.004-0.071-0.31-0.129-0.453
		c-0.136-0.854-0.08-2.721,0.153-2.985l0.696-0.679L102.388,218.514L102.388,218.514z M104.623,219.053l-0.638,0.648
		c-0.297,0.342-0.354,3.307-0.047,3.439c0.144,0.082,0.833,0.407,0.949,0.363c0.125-0.004-0.09-0.38-0.129-0.52
		c-0.136-0.859-0.079-2.727,0.152-2.991l0.697-0.683L104.623,219.053L104.623,219.053z"/>
</g>
<g>
	<path fill="#E30613" d="M296.267,149.625h11.669v22.081h-11.669v62.769c-2.609,22.172-17.031,38.766-40.39,37.848v-22.074
		c9.952,0.336,15.882-3.461,16.917-15.256l0.061-63.285h-11.003v-22.078h11.003l0.006-14.845
		c0.551-23.392,14.897-40.593,40.786-37.614v21.883c-11.077-0.877-17.273,3.624-17.383,15.908v14.665L296.267,149.625
		L296.267,149.625z"/>
	<path fill="none" stroke="#73797D" stroke-width="1.9164" stroke-miterlimit="3.8637" d="M448.076,272.063V96.755 M159.681,272.063
		V96.724"/>
	<path fill="#73797D" d="M182.99,149.979c0-12.529,6.209-17.113,17.384-16.231v-21.881c-26.074-3.001-40.441,14.466-40.796,38.112
		v20.646v69.872h23.412v-69.872h16.497v-20.646H182.99L182.99,149.979z"/>
	<path fill="#73797D" d="M240.624,240.496h18.268v-22.585h-16.32c-14.722,0-24.12-10.058-24.12-22.938
		c0-12.88,9.4-22.938,24.12-22.938h16.32v-22.407h-18.268c-27.846,0-45.588,19.939-45.588,45.348S212.777,240.496,240.624,240.496
		L240.624,240.496z"/>
	<path fill="#73797D" d="M447.791,187.965c0-23.813-15.069-40.568-40.605-40.568c-11.88,0-22.166,4.939-29.082,12.875
		c-6.559-7.936-16.665-12.875-29.082-12.875c-24.998,0-41.137,17.463-41.137,40.568v52.567h23.408v-53.095
		c0-10.229,7.271-17.287,17.729-17.287c15.428,0,17.025,12.17,17.025,17.287v53.095h23.403v-53.095
		c0-10.229,7.443-17.287,17.732-17.287c15.43,0,17.202,12.17,17.202,17.287v53.095h23.404v-52.567H447.791L447.791,187.965z"/>
</g>
<g>
	<path fill="#73797D" d="M474.765,218.691v10.379c0,0.828,0.114,1.623,0.343,2.383c0.246,0.74,0.618,1.393,1.116,1.953
		c0.521,0.559,1.173,1.005,1.964,1.34c0.808,0.316,1.773,0.477,2.898,0.477c1.145,0,2.109-0.16,2.9-0.477
		c0.805-0.335,1.459-0.781,1.961-1.34c0.516-0.563,0.891-1.213,1.121-1.953c0.244-0.76,0.36-1.555,0.36-2.383v-10.379h-1.551v10.039
		c0,0.938-0.104,1.742-0.313,2.401c-0.218,0.654-0.523,1.188-0.937,1.612c-0.414,0.406-0.912,0.711-1.506,0.908
		c-0.595,0.182-1.271,0.271-2.031,0.271c-0.748,0-1.418-0.092-2.014-0.271c-0.595-0.197-1.093-0.5-1.504-0.908
		c-0.41-0.424-0.723-0.958-0.938-1.612c-0.214-0.659-0.315-1.466-0.315-2.401v-10.039H474.765L474.765,218.691z"/>
	<polygon fill="#73797D" points="492.193,218.691 492.193,234.9 493.744,234.9 493.744,221.191 493.791,221.191 503.289,234.9 
		505.021,234.9 505.021,218.691 503.472,218.691 503.472,232.407 503.422,232.407 493.929,218.691 	"/>
	<polygon fill="#73797D" points="510.06,218.691 510.06,234.9 511.611,234.9 511.611,218.691 	"/>
	<polygon fill="#73797D" points="514.891,218.691 520.918,234.9 522.717,234.9 528.77,218.691 527.127,218.691 521.877,233.199 
		521.83,233.199 516.535,218.691 	"/>
	<polygon fill="#73797D" points="531.865,218.691 531.865,234.9 543.234,234.9 543.234,233.586 533.416,233.586 533.416,227.188 
		542.502,227.188 542.502,225.869 533.416,225.869 533.416,220.012 543.115,220.012 543.115,218.691 	"/>
	<path fill="#73797D" d="M548.613,226.389v-6.377h5.795c1.188,0,2.072,0.284,2.649,0.864c0.578,0.574,0.865,1.362,0.865,2.363
		c0,0.493-0.098,0.942-0.299,1.334c-0.18,0.376-0.432,0.707-0.752,0.976c-0.32,0.273-0.691,0.483-1.115,0.635
		c-0.428,0.141-0.875,0.205-1.35,0.205H548.613L548.613,226.389z M547.061,218.691V234.9h1.556v-7.196h5.887
		c0.732-0.026,1.301,0.092,1.713,0.364c0.428,0.274,0.74,0.637,0.955,1.09c0.229,0.441,0.375,0.947,0.435,1.521
		c0.077,0.561,0.129,1.127,0.164,1.702c0.014,0.168,0.028,0.362,0.045,0.591c0.016,0.227,0.03,0.465,0.041,0.7
		c0.03,0.231,0.071,0.459,0.118,0.687c0.063,0.213,0.136,0.394,0.228,0.541h1.713c-0.17-0.194-0.305-0.463-0.414-0.813
		c-0.086-0.366-0.158-0.741-0.201-1.135c-0.051-0.412-0.072-0.812-0.092-1.205c-0.016-0.394-0.031-0.722-0.045-1.003
		c-0.031-0.479-0.1-0.93-0.207-1.337c-0.094-0.423-0.254-0.792-0.479-1.112c-0.212-0.32-0.494-0.58-0.847-0.773
		c-0.346-0.205-0.787-0.357-1.324-0.428v-0.05c1.056-0.212,1.849-0.694,2.378-1.454c0.53-0.752,0.799-1.65,0.799-2.677
		c0-0.728-0.14-1.354-0.41-1.888c-0.26-0.545-0.611-0.982-1.072-1.313c-0.438-0.351-0.961-0.608-1.572-0.772
		c-0.594-0.166-1.229-0.254-1.897-0.254h-7.461v0.006H547.061L547.061,218.691z"/>
	<path fill="#73797D" d="M564.674,229.564h-1.551c-0.047,1,0.082,1.854,0.387,2.576c0.318,0.709,0.771,1.286,1.349,1.748
		c0.573,0.447,1.274,0.793,2.104,1.016c0.818,0.216,1.711,0.318,2.67,0.318c0.953,0,1.779-0.094,2.467-0.275
		c0.683-0.164,1.255-0.381,1.709-0.658c0.472-0.281,0.836-0.604,1.095-0.952c0.276-0.349,0.479-0.688,0.612-1.022
		c0.154-0.346,0.248-0.67,0.279-0.975c0.041-0.297,0.064-0.539,0.064-0.725c0-0.666-0.113-1.232-0.349-1.704
		c-0.211-0.472-0.516-0.868-0.914-1.181c-0.383-0.334-0.824-0.604-1.348-0.821c-0.496-0.226-1.041-0.413-1.617-0.567l-3.971-0.974
		c-0.336-0.077-0.656-0.175-0.957-0.294c-0.289-0.125-0.547-0.275-0.781-0.475c-0.227-0.195-0.404-0.434-0.543-0.707
		c-0.123-0.289-0.182-0.623-0.182-1c0-0.604,0.112-1.115,0.342-1.521c0.229-0.407,0.522-0.73,0.893-0.977
		c0.385-0.258,0.816-0.438,1.301-0.545c0.503-0.125,1.021-0.182,1.552-0.182c0.58,0,1.127,0.082,1.645,0.249
		c0.531,0.155,0.996,0.386,1.394,0.707c0.403,0.3,0.733,0.694,0.979,1.157c0.258,0.457,0.398,0.99,0.431,1.613h1.555
		c0-0.828-0.168-1.563-0.498-2.181c-0.318-0.635-0.752-1.168-1.299-1.593c-0.554-0.419-1.191-0.739-1.92-0.95
		c-0.73-0.212-1.5-0.313-2.308-0.313c-1.146,0-2.076,0.164-2.807,0.498c-0.729,0.313-1.313,0.709-1.732,1.176
		c-0.412,0.475-0.69,0.977-0.846,1.496c-0.15,0.531-0.227,0.99-0.227,1.389c0,0.635,0.098,1.172,0.293,1.609
		c0.217,0.44,0.487,0.813,0.823,1.112c0.334,0.3,0.724,0.541,1.16,0.726c0.457,0.18,0.922,0.337,1.394,0.457l3.631,0.881
		c0.381,0.092,0.768,0.21,1.164,0.365c0.393,0.135,0.752,0.319,1.065,0.547c0.336,0.227,0.604,0.506,0.806,0.837
		c0.211,0.339,0.317,0.724,0.317,1.177c0,0.596-0.146,1.098-0.436,1.525c-0.285,0.408-0.654,0.748-1.099,1.024
		c-0.422,0.259-0.887,0.447-1.389,0.565c-0.5,0.123-0.965,0.179-1.393,0.179c-0.742,0-1.443-0.063-2.101-0.203
		c-0.653-0.151-1.229-0.396-1.713-0.729c-0.475-0.327-0.846-0.771-1.119-1.334C564.787,231.098,564.658,230.4,564.674,229.564
		L564.674,229.564z"/>
	<polygon fill="#73797D" points="580.096,218.691 580.096,234.9 581.648,234.9 581.648,218.691 	"/>
	<path fill="#73797D" d="M586.707,218.691V234.9h5.635c2.486-0.055,4.351-0.748,5.599-2.063c1.262-1.334,1.893-3.346,1.893-6.042
		c0-2.69-0.631-4.698-1.893-6.019c-1.248-1.324-3.109-2.024-5.599-2.088h-5.635V218.691z M588.26,233.586v-13.574h3.312
		c1.172,0,2.176,0.129,3.018,0.383c0.851,0.246,1.551,0.635,2.099,1.184c0.547,0.546,0.948,1.246,1.206,2.107
		c0.267,0.86,0.394,1.904,0.394,3.111c0,1.217-0.129,2.252-0.394,3.113c-0.258,0.861-0.659,1.568-1.206,2.109
		c-0.548,0.545-1.248,0.941-2.099,1.201c-0.842,0.241-1.846,0.363-3.018,0.363L588.26,233.586L588.26,233.586z"/>
	<path fill="#73797D" d="M606.311,228.551l3.261-8.311l3.147,8.311H606.311L606.311,228.551z M608.77,218.691l-6.549,16.209h1.646
		l1.963-5.035h7.418l1.986,5.035h1.664l-6.39-16.209H608.77L608.77,218.691z"/>
	<path fill="#73797D" d="M620.041,218.691V234.9h5.637c2.48-0.055,4.351-0.748,5.597-2.063c1.264-1.334,1.893-3.346,1.893-6.042
		c0-2.69-0.629-4.698-1.893-6.019c-1.246-1.324-3.113-2.024-5.597-2.088h-5.637V218.691z M621.594,233.586v-13.574h3.313
		c1.17,0,2.176,0.129,3.012,0.383c0.853,0.246,1.551,0.635,2.098,1.184c0.554,0.546,0.953,1.246,1.212,2.107
		c0.262,0.86,0.387,1.904,0.387,3.111c0,1.217-0.129,2.252-0.387,3.113c-0.255,0.861-0.658,1.568-1.212,2.109
		c-0.547,0.545-1.245,0.941-2.098,1.201c-0.834,0.241-1.842,0.363-3.012,0.363L621.594,233.586L621.594,233.586z"/>
	<path fill="#73797D" d="M651.068,218.691V234.9h5.635c2.479-0.055,4.346-0.748,5.594-2.063c1.264-1.334,1.896-3.346,1.896-6.042
		c0-2.69-0.632-4.698-1.896-6.019c-1.248-1.324-3.113-2.024-5.594-2.088h-5.635V218.691z M652.619,233.586v-13.574h3.311
		c1.17,0,2.179,0.129,3.013,0.383c0.852,0.246,1.553,0.635,2.1,1.184c0.547,0.546,0.955,1.246,1.213,2.107
		c0.26,0.86,0.387,1.904,0.387,3.111c0,1.217-0.129,2.252-0.387,3.113c-0.256,0.861-0.666,1.568-1.213,2.109
		c-0.547,0.545-1.248,0.941-2.1,1.201c-0.832,0.241-1.843,0.363-3.013,0.363L652.619,233.586L652.619,233.586z"/>
	<polygon fill="#73797D" points="668.361,218.691 668.361,234.9 679.73,234.9 679.73,233.586 669.914,233.586 669.914,227.188 
		678.998,227.188 678.998,225.869 669.914,225.869 669.914,220.012 679.611,220.012 679.611,218.691 	"/>
	<path fill="#73797D" d="M709.199,223.6h1.557c-0.104-0.847-0.365-1.597-0.775-2.25c-0.397-0.646-0.897-1.195-1.51-1.635
		c-0.592-0.457-1.262-0.799-2.01-1.023c-0.73-0.223-1.479-0.336-2.256-0.336c-1.279,0-2.404,0.231-3.377,0.701
		c-0.957,0.453-1.76,1.078-2.396,1.861c-0.639,0.773-1.121,1.665-1.438,2.682c-0.318,1.012-0.48,2.078-0.48,3.196
		c0,1.117,0.162,2.19,0.48,3.201c0.315,1.017,0.801,1.917,1.438,2.685c0.64,0.772,1.439,1.392,2.396,1.862
		c0.973,0.453,2.098,0.679,3.377,0.679c0.955,0,1.822-0.156,2.602-0.453c0.789-0.303,1.479-0.735,2.054-1.293
		c0.575-0.563,1.053-1.244,1.418-2.039c0.358-0.809,0.6-1.705,0.707-2.701h-1.554c-0.076,0.722-0.254,1.406-0.524,2.041
		c-0.273,0.623-0.631,1.162-1.07,1.635c-0.443,0.472-0.963,0.838-1.58,1.115c-0.604,0.267-1.295,0.402-2.049,0.402
		c-1.078,0-2.01-0.205-2.787-0.604c-0.773-0.412-1.414-0.949-1.918-1.613c-0.484-0.683-0.853-1.448-1.094-2.295
		c-0.229-0.86-0.349-1.731-0.349-2.612c0-0.89,0.119-1.76,0.349-2.609c0.241-0.844,0.606-1.603,1.094-2.266
		c0.504-0.683,1.145-1.229,1.918-1.637c0.777-0.409,1.707-0.609,2.787-0.609c0.592,0,1.158,0.094,1.686,0.268
		c0.552,0.172,1.045,0.419,1.488,0.754c0.459,0.329,0.838,0.752,1.146,1.248C708.838,222.424,709.064,222.98,709.199,223.6
		L709.199,223.6z"/>
	<polygon fill="#73797D" points="715.014,218.691 715.014,234.9 716.566,234.9 716.566,227.049 726.246,227.049 726.246,234.9 
		727.797,234.9 727.797,218.691 726.246,218.691 726.246,225.729 716.566,225.729 716.566,218.691 	"/>
	<polygon fill="#73797D" points="732.855,218.691 732.855,234.9 734.408,234.9 734.408,218.691 	"/>
	<polygon fill="#73797D" points="739.471,218.691 739.471,234.9 750.148,234.9 750.148,233.586 741.023,233.586 741.023,218.691 	
		"/>
	<polygon fill="#73797D" points="753.389,218.691 753.389,234.9 764.752,234.9 764.752,233.586 754.939,233.586 754.939,227.188 
		764.02,227.188 764.02,225.869 754.939,225.869 754.939,220.012 764.639,220.012 764.639,218.691 	"/>
	<polygon fill="#73797D" points="474.924,194.854 474.924,211.064 476.478,211.064 476.478,203.346 484.277,203.346 
		484.277,202.025 476.478,202.025 476.478,196.169 485.265,196.169 485.265,194.854 	"/>
	<path fill="#73797D" d="M489.013,193.559l3.017-3.201h-1.78l-2.396,3.201H489.013L489.013,193.559z M488.418,194.854v16.211h1.554
		v-16.211H488.418L488.418,194.854z"/>
	<path fill="#73797D" d="M495.229,205.734h-1.551c-0.047,0.994,0.082,1.85,0.388,2.561c0.319,0.713,0.77,1.297,1.346,1.749
		c0.58,0.453,1.279,0.796,2.103,1.021c0.821,0.215,1.709,0.315,2.672,0.315c0.962,0,1.778-0.088,2.466-0.269
		c0.688-0.17,1.257-0.387,1.711-0.659c0.472-0.29,0.839-0.606,1.097-0.95c0.272-0.35,0.479-0.691,0.619-1.025
		c0.146-0.344,0.239-0.676,0.271-0.975c0.048-0.305,0.067-0.548,0.067-0.729c0-0.664-0.113-1.23-0.34-1.703
		c-0.217-0.467-0.521-0.861-0.92-1.18c-0.379-0.332-0.824-0.605-1.347-0.818c-0.498-0.227-1.045-0.415-1.618-0.567l-3.972-0.974
		c-0.336-0.075-0.651-0.174-0.957-0.297c-0.289-0.119-0.547-0.276-0.778-0.478c-0.228-0.196-0.408-0.435-0.548-0.707
		c-0.122-0.282-0.18-0.618-0.18-0.993c0-0.611,0.113-1.115,0.34-1.521c0.232-0.408,0.525-0.738,0.894-0.975
		c0.381-0.265,0.813-0.443,1.299-0.547c0.5-0.119,1.021-0.18,1.553-0.18c0.576,0,1.13,0.075,1.646,0.247
		c0.53,0.151,0.998,0.385,1.394,0.705c0.412,0.301,0.733,0.688,0.979,1.155c0.261,0.455,0.398,0.99,0.433,1.605h1.553
		c0-0.824-0.168-1.551-0.5-2.174c-0.319-0.639-0.754-1.163-1.303-1.59c-0.549-0.43-1.185-0.743-1.916-0.951
		c-0.733-0.212-1.5-0.32-2.306-0.32c-1.146,0-2.077,0.168-2.813,0.498c-0.727,0.319-1.303,0.713-1.73,1.184
		c-0.411,0.468-0.692,0.969-0.842,1.498c-0.151,0.525-0.229,0.99-0.229,1.383c0,0.638,0.098,1.173,0.299,1.609
		c0.211,0.438,0.488,0.813,0.822,1.108c0.334,0.306,0.721,0.548,1.164,0.724c0.452,0.183,0.92,0.342,1.389,0.459l3.629,0.893
		c0.381,0.086,0.769,0.206,1.164,0.359c0.396,0.139,0.752,0.32,1.072,0.541c0.336,0.229,0.602,0.514,0.799,0.842
		c0.213,0.334,0.32,0.729,0.32,1.18c0,0.595-0.146,1.1-0.436,1.523c-0.286,0.402-0.653,0.748-1.099,1.019
		c-0.424,0.26-0.887,0.448-1.393,0.569c-0.5,0.123-0.966,0.178-1.394,0.178c-0.742,0-1.442-0.063-2.098-0.202
		c-0.654-0.146-1.225-0.39-1.709-0.724c-0.475-0.332-0.845-0.777-1.123-1.336C495.345,207.26,495.215,206.563,495.229,205.734
		L495.229,205.734z"/>
	<polygon fill="#73797D" points="510.121,194.854 510.121,211.064 511.672,211.064 511.672,194.854 	"/>
	<path fill="#73797D" d="M528.111,199.758h1.553c-0.104-0.848-0.365-1.6-0.773-2.252c-0.396-0.648-0.896-1.189-1.506-1.629
		c-0.596-0.459-1.264-0.8-2.01-1.025c-0.729-0.228-1.482-0.342-2.26-0.342c-1.275,0-2.402,0.232-3.375,0.707
		c-0.959,0.452-1.76,1.072-2.398,1.856c-0.639,0.772-1.119,1.674-1.438,2.685c-0.32,1.018-0.482,2.084-0.482,3.2
		c0,1.119,0.162,2.188,0.482,3.203c0.317,1.01,0.799,1.907,1.438,2.675c0.642,0.78,1.439,1.398,2.398,1.863
		c0.973,0.453,2.1,0.681,3.375,0.681c0.959,0,1.824-0.146,2.604-0.448c0.789-0.306,1.478-0.735,2.056-1.295
		c0.575-0.562,1.045-1.242,1.409-2.039c0.369-0.807,0.605-1.705,0.716-2.707h-1.56c-0.074,0.729-0.248,1.406-0.521,2.047
		c-0.271,0.617-0.636,1.162-1.072,1.635c-0.439,0.47-0.965,0.833-1.578,1.113c-0.607,0.27-1.289,0.399-2.051,0.399
		c-1.078,0-2.006-0.2-2.785-0.606c-0.775-0.404-1.412-0.943-1.918-1.611c-0.49-0.682-0.854-1.442-1.096-2.292
		c-0.23-0.862-0.345-1.732-0.345-2.607c0-0.893,0.111-1.765,0.345-2.61c0.241-0.852,0.604-1.604,1.096-2.272
		c0.5-0.681,1.143-1.228,1.918-1.628c0.779-0.411,1.707-0.611,2.785-0.611c0.596,0,1.155,0.086,1.688,0.271
		c0.552,0.167,1.041,0.414,1.484,0.744c0.459,0.341,0.836,0.753,1.143,1.256C527.744,198.586,527.977,199.139,528.111,199.758
		L528.111,199.758z"/>
	<path fill="#73797D" d="M535.699,204.707l3.26-8.313l3.156,8.313H535.699L535.699,204.707z M538.166,194.854l-6.551,16.211h1.645
		l1.961-5.037h7.42l1.984,5.037h1.672l-6.395-16.211H538.166L538.166,194.854z"/>
	<path fill="#73797D" d="M549.627,205.734h-1.551c-0.047,0.994,0.082,1.85,0.387,2.561c0.32,0.713,0.771,1.297,1.354,1.749
		c0.575,0.453,1.272,0.796,2.098,1.021c0.82,0.215,1.709,0.315,2.672,0.315c0.959,0,1.777-0.088,2.463-0.269
		c0.688-0.17,1.261-0.387,1.713-0.659c0.476-0.29,0.832-0.606,1.099-0.95c0.272-0.35,0.475-0.691,0.61-1.025
		c0.158-0.344,0.244-0.676,0.275-0.975c0.047-0.305,0.063-0.548,0.063-0.729c0-0.664-0.111-1.23-0.341-1.703
		c-0.211-0.467-0.518-0.861-0.911-1.18c-0.386-0.332-0.826-0.605-1.351-0.818c-0.502-0.227-1.043-0.415-1.615-0.567l-3.975-0.974
		c-0.34-0.075-0.656-0.174-0.961-0.297c-0.285-0.119-0.547-0.276-0.773-0.478c-0.229-0.192-0.411-0.435-0.549-0.707
		c-0.121-0.282-0.18-0.618-0.18-0.993c0-0.611,0.113-1.115,0.346-1.521c0.228-0.408,0.521-0.738,0.888-0.975
		c0.381-0.265,0.813-0.443,1.299-0.547c0.506-0.119,1.021-0.18,1.559-0.18c0.578,0,1.125,0.075,1.641,0.247
		c0.537,0.151,1,0.385,1.39,0.705c0.412,0.301,0.737,0.688,0.979,1.155c0.267,0.455,0.404,0.99,0.438,1.605h1.553
		c0-0.824-0.168-1.551-0.502-2.174c-0.32-0.639-0.754-1.163-1.301-1.59c-0.545-0.43-1.187-0.743-1.92-0.951
		c-0.726-0.212-1.498-0.32-2.304-0.32c-1.143,0-2.077,0.168-2.807,0.498c-0.729,0.319-1.309,0.713-1.736,1.184
		c-0.405,0.468-0.69,0.969-0.846,1.498c-0.148,0.525-0.229,0.99-0.229,1.383c0,0.638,0.104,1.173,0.301,1.609
		c0.211,0.438,0.483,0.813,0.817,1.108c0.337,0.306,0.726,0.548,1.166,0.724c0.453,0.183,0.919,0.342,1.394,0.459l3.631,0.893
		c0.377,0.086,0.77,0.206,1.162,0.359c0.393,0.139,0.748,0.32,1.07,0.541c0.332,0.229,0.604,0.514,0.797,0.842
		c0.217,0.334,0.317,0.729,0.317,1.18c0,0.595-0.145,1.1-0.434,1.523c-0.285,0.402-0.654,0.748-1.094,1.019
		c-0.427,0.26-0.892,0.448-1.39,0.569c-0.506,0.123-0.971,0.178-1.393,0.178c-0.748,0-1.449-0.063-2.103-0.202
		c-0.653-0.146-1.227-0.39-1.711-0.724c-0.475-0.332-0.846-0.777-1.12-1.336C549.742,207.258,549.619,206.563,549.627,205.734
		L549.627,205.734z"/>
	<polygon fill="#73797D" points="580.014,204.387 580.014,211.064 581.566,211.064 581.566,204.387 588.002,194.854 
		586.154,194.854 580.814,203.072 575.451,194.854 573.625,194.854 	"/>
	<polygon fill="#73797D" points="601.568,194.854 601.568,211.064 603.119,211.064 603.119,197.061 603.166,197.061 
		608.756,211.064 610.219,211.064 615.787,197.061 615.828,197.061 615.828,211.064 617.381,211.064 617.381,194.854 
		615.104,194.854 609.486,209.068 603.852,194.854 	"/>
	<path fill="#73797D" d="M624.053,204.707l3.271-8.313l3.145,8.313H624.053L624.053,204.707z M626.523,194.854l-6.554,16.211h1.646
		l1.965-5.037h7.414l1.984,5.037h1.67l-6.394-16.211H626.523L626.523,194.854z"/>
	<polygon fill="#73797D" points="633.969,194.854 633.969,196.169 639.631,196.169 639.631,211.064 641.182,211.064 
		641.182,196.169 646.865,196.169 646.865,194.854 	"/>
	<polygon fill="#73797D" points="649.521,194.854 649.521,211.064 660.891,211.064 660.891,209.749 651.076,209.749 
		651.076,203.346 660.158,203.346 660.158,202.025 651.076,202.025 651.076,196.169 660.775,196.169 660.775,194.854 	"/>
	<polygon fill="#73797D" points="664.139,194.854 664.139,211.064 665.689,211.064 665.689,197.061 665.736,197.061 
		671.326,211.064 672.785,211.064 678.359,197.061 678.404,197.061 678.404,211.064 679.957,211.064 679.957,194.854 
		677.674,194.854 672.059,209.068 666.422,194.854 	"/>
	<path fill="#73797D" d="M689.688,193.559l3.013-3.201h-1.779l-2.396,3.201H689.688L689.688,193.559z M686.629,204.707l3.266-8.313
		l3.148,8.313H686.629L686.629,204.707z M689.096,194.854l-6.553,16.211h1.646l1.963-5.037h7.418l1.981,5.037h1.672l-6.395-16.211
		H689.096L689.096,194.854z"/>
	<polygon fill="#73797D" points="698.092,194.854 698.092,196.169 703.754,196.169 703.754,211.064 705.307,211.064 
		705.307,196.169 710.988,196.169 710.988,194.854 	"/>
	<polygon fill="#73797D" points="713.762,194.854 713.762,211.064 715.314,211.064 715.314,194.854 	"/>
	<path fill="#73797D" d="M731.752,199.758h1.553c-0.104-0.848-0.358-1.6-0.771-2.252c-0.396-0.648-0.896-1.189-1.506-1.629
		c-0.597-0.459-1.267-0.8-2.015-1.025c-0.729-0.228-1.479-0.342-2.256-0.342c-1.274,0-2.399,0.232-3.377,0.707
		c-0.957,0.452-1.758,1.072-2.395,1.856c-0.642,0.772-1.121,1.674-1.439,2.685c-0.318,1.018-0.479,2.084-0.479,3.2
		c0,1.119,0.159,2.188,0.479,3.203c0.318,1.01,0.799,1.907,1.439,2.675c0.637,0.78,1.438,1.398,2.395,1.863
		c0.976,0.453,2.104,0.681,3.377,0.681c0.957,0,1.822-0.146,2.604-0.448c0.789-0.306,1.477-0.735,2.053-1.295
		c0.578-0.562,1.047-1.242,1.412-2.039c0.363-0.807,0.604-1.705,0.713-2.707h-1.553c-0.078,0.729-0.252,1.406-0.527,2.047
		c-0.271,0.617-0.631,1.162-1.067,1.635c-0.443,0.47-0.972,0.833-1.582,1.113c-0.605,0.27-1.291,0.399-2.05,0.399
		c-1.082,0-2.014-0.2-2.786-0.606c-0.777-0.404-1.412-0.943-1.919-1.611c-0.483-0.682-0.852-1.442-1.098-2.292
		c-0.229-0.862-0.34-1.732-0.34-2.607c0-0.893,0.111-1.765,0.34-2.61c0.246-0.852,0.613-1.604,1.098-2.272
		c0.507-0.681,1.142-1.228,1.919-1.628c0.772-0.411,1.704-0.611,2.786-0.611c0.595,0,1.158,0.086,1.688,0.271
		c0.551,0.167,1.043,0.414,1.486,0.744c0.459,0.341,0.836,0.753,1.139,1.256C731.391,198.586,731.617,199.139,731.752,199.758
		L731.752,199.758z"/>
	<path fill="#73797D" d="M739.342,204.707l3.267-8.313l3.147,8.313H739.342L739.342,204.707z M741.801,194.854l-6.549,16.211h1.646
		l1.963-5.037h7.416l1.985,5.037h1.67l-6.395-16.211H741.801L741.801,194.854z"/>
	<path fill="#73797D" d="M753.27,205.734h-1.553c-0.047,0.994,0.082,1.85,0.385,2.561c0.324,0.713,0.775,1.297,1.355,1.749
		c0.578,0.453,1.275,0.796,2.098,1.021c0.82,0.215,1.709,0.315,2.672,0.315c0.959,0,1.777-0.088,2.466-0.269
		c0.686-0.17,1.254-0.387,1.711-0.659c0.469-0.29,0.832-0.606,1.094-0.95c0.273-0.35,0.479-0.691,0.615-1.025
		c0.151-0.344,0.246-0.676,0.274-0.975c0.047-0.305,0.068-0.548,0.068-0.729c0-0.664-0.113-1.23-0.344-1.703
		c-0.215-0.467-0.515-0.861-0.912-1.18c-0.381-0.332-0.828-0.605-1.346-0.818c-0.505-0.227-1.048-0.415-1.619-0.567l-3.978-0.974
		c-0.336-0.075-0.653-0.174-0.957-0.297c-0.289-0.119-0.547-0.276-0.774-0.478c-0.229-0.196-0.408-0.435-0.543-0.707
		c-0.127-0.282-0.188-0.618-0.188-0.993c0-0.611,0.113-1.115,0.349-1.521c0.227-0.408,0.52-0.738,0.887-0.975
		c0.381-0.265,0.813-0.443,1.305-0.547c0.498-0.119,1.016-0.18,1.551-0.18c0.578,0,1.125,0.075,1.642,0.247
		c0.53,0.151,0.994,0.385,1.393,0.705c0.41,0.301,0.734,0.688,0.982,1.155c0.26,0.455,0.401,0.99,0.432,1.605h1.553
		c0-0.824-0.168-1.551-0.502-2.174c-0.317-0.639-0.754-1.163-1.299-1.59c-0.547-0.43-1.186-0.743-1.92-0.951
		c-0.727-0.212-1.5-0.32-2.305-0.32c-1.144,0-2.078,0.168-2.812,0.498c-0.725,0.319-1.303,0.713-1.729,1.184
		c-0.408,0.468-0.691,0.969-0.849,1.498c-0.147,0.525-0.227,0.99-0.227,1.383c0,0.638,0.098,1.173,0.301,1.609
		c0.211,0.438,0.484,0.813,0.818,1.108c0.338,0.306,0.723,0.548,1.166,0.724c0.453,0.183,0.918,0.342,1.393,0.459l3.629,0.893
		c0.377,0.086,0.771,0.206,1.16,0.359c0.396,0.139,0.758,0.32,1.07,0.541c0.336,0.229,0.604,0.514,0.801,0.842
		c0.219,0.334,0.318,0.729,0.318,1.18c0,0.595-0.146,1.1-0.43,1.523c-0.289,0.402-0.656,0.748-1.097,1.019
		c-0.428,0.26-0.893,0.448-1.393,0.569c-0.504,0.123-0.97,0.178-1.394,0.178c-0.748,0-1.448-0.063-2.098-0.202
		c-0.654-0.146-1.229-0.39-1.713-0.724c-0.476-0.332-0.842-0.777-1.123-1.336C753.389,207.26,753.254,206.563,753.27,205.734
		L753.27,205.734z"/>
	<polygon fill="#73797D" points="474.924,171.016 474.924,187.227 476.478,187.227 476.478,179.503 484.277,179.503 
		484.277,178.193 476.478,178.193 476.478,172.331 485.265,172.331 485.265,171.016 	"/>
	<path fill="#73797D" d="M489.82,180.869l3.264-8.307l3.148,8.307H489.82L489.82,180.869z M492.285,171.016l-6.549,16.211h1.641
		l1.965-5.041h7.421l1.983,5.041h1.668l-6.394-16.211H492.285L492.285,171.016z"/>
	<path fill="#73797D" d="M515.396,175.92h1.551c-0.103-0.852-0.363-1.6-0.773-2.249c-0.393-0.649-0.895-1.194-1.502-1.634
		c-0.596-0.454-1.268-0.797-2.01-1.023c-0.731-0.227-1.484-0.34-2.26-0.34c-1.277,0-2.404,0.231-3.375,0.709
		c-0.959,0.448-1.759,1.063-2.396,1.861c-0.641,0.768-1.121,1.665-1.438,2.676c-0.319,1.012-0.481,2.083-0.481,3.202
		c0,1.118,0.162,2.187,0.481,3.196c0.316,1.021,0.8,1.908,1.438,2.687c0.641,0.771,1.438,1.388,2.396,1.861
		c0.971,0.448,2.098,0.681,3.375,0.681c0.957,0,1.821-0.154,2.602-0.453c0.791-0.306,1.477-0.738,2.051-1.295
		c0.578-0.563,1.052-1.242,1.416-2.044c0.369-0.799,0.604-1.704,0.709-2.698h-1.553c-0.074,0.725-0.252,1.404-0.525,2.039
		c-0.271,0.615-0.631,1.166-1.067,1.635c-0.439,0.47-0.968,0.838-1.58,1.113c-0.605,0.274-1.289,0.406-2.05,0.406
		c-1.077,0-2.008-0.199-2.786-0.613c-0.773-0.402-1.412-0.938-1.919-1.604c-0.483-0.683-0.853-1.444-1.097-2.296
		c-0.229-0.859-0.345-1.73-0.345-2.607c0-0.896,0.115-1.764,0.345-2.607c0.243-0.853,0.61-1.604,1.097-2.273
		c0.503-0.682,1.146-1.229,1.919-1.632c0.778-0.407,1.706-0.613,2.786-0.613c0.597,0,1.158,0.093,1.688,0.274
		c0.553,0.168,1.049,0.418,1.486,0.748c0.459,0.334,0.834,0.744,1.143,1.248C515.033,174.744,515.262,175.296,515.396,175.92
		L515.396,175.92z"/>
	<path fill="#73797D" d="M520.984,171.016v10.375c0,0.834,0.11,1.629,0.342,2.381c0.242,0.744,0.615,1.394,1.119,1.955
		c0.516,0.563,1.17,1.012,1.963,1.342c0.805,0.313,1.774,0.479,2.897,0.479c1.144,0,2.107-0.165,2.9-0.479
		c0.807-0.33,1.463-0.778,1.961-1.342c0.516-0.563,0.891-1.211,1.117-1.955c0.246-0.752,0.369-1.547,0.369-2.381v-10.375h-1.558
		v10.033c0,0.939-0.104,1.738-0.315,2.408c-0.209,0.648-0.521,1.188-0.935,1.613c-0.409,0.402-0.918,0.707-1.506,0.908
		c-0.596,0.181-1.271,0.271-2.037,0.271c-0.739,0-1.412-0.088-2.006-0.271c-0.596-0.201-1.094-0.506-1.506-0.908
		c-0.412-0.428-0.723-0.965-0.938-1.613c-0.211-0.67-0.314-1.469-0.314-2.408v-10.033H520.984L520.984,171.016z"/>
	<polygon fill="#73797D" points="538.367,171.016 538.367,187.227 549.051,187.227 549.051,185.907 539.92,185.907 539.92,171.016 	
		"/>
	<polygon fill="#73797D" points="548.381,171.016 548.381,172.331 554.037,172.331 554.037,187.227 555.592,187.227 
		555.592,172.331 561.275,172.331 561.275,171.016 	"/>
	<path fill="#73797D" d="M565.148,180.869l3.264-8.307l3.15,8.307H565.148L565.148,180.869z M567.613,171.016l-6.549,16.211h1.641
		l1.965-5.041h7.416l1.99,5.041h1.666l-6.389-16.211H567.613L567.613,171.016z"/>
	<path fill="#73797D" d="M578.813,171.016v16.211h5.638c2.479-0.06,4.346-0.744,5.594-2.063c1.264-1.33,1.894-3.351,1.894-6.038
		c0-2.693-0.63-4.695-1.894-6.018c-1.248-1.338-3.115-2.026-5.594-2.09h-5.638V171.016z M580.365,185.907v-13.579h3.311
		c1.17,0,2.174,0.132,3.01,0.384c0.854,0.245,1.556,0.642,2.103,1.183c0.551,0.545,0.953,1.25,1.211,2.107
		c0.262,0.866,0.387,1.905,0.387,3.116c0,1.208-0.129,2.247-0.387,3.11c-0.258,0.858-0.66,1.567-1.211,2.108
		c-0.547,0.547-1.248,0.947-2.103,1.208c-0.83,0.241-1.838,0.359-3.01,0.359L580.365,185.907L580.365,185.907z"/>
	<path fill="#73797D" d="M609.42,171.016v16.211h5.635c2.486-0.06,4.351-0.744,5.599-2.063c1.266-1.33,1.893-3.351,1.893-6.038
		c0-2.693-0.629-4.695-1.893-6.018c-1.248-1.338-3.109-2.026-5.599-2.09h-5.635V171.016z M610.973,185.907v-13.579h3.312
		c1.172,0,2.178,0.132,3.02,0.384c0.849,0.245,1.554,0.642,2.101,1.183c0.545,0.545,0.944,1.25,1.207,2.107
		c0.262,0.866,0.383,1.905,0.383,3.116c0,1.208-0.123,2.247-0.383,3.11c-0.263,0.858-0.662,1.567-1.207,2.108
		c-0.547,0.547-1.252,0.947-2.101,1.208c-0.84,0.241-1.846,0.359-3.02,0.359L610.973,185.907L610.973,185.907z"/>
	<polygon fill="#73797D" points="626.646,171.016 626.646,187.227 638.012,187.227 638.012,185.907 628.199,185.907 
		628.199,179.503 637.283,179.503 637.283,178.193 628.199,178.193 628.199,172.331 637.898,172.331 637.898,171.016 	"/>
	<path fill="#73797D" d="M667.072,175.92h1.553c-0.109-0.852-0.367-1.6-0.779-2.249c-0.391-0.649-0.895-1.194-1.506-1.634
		c-0.594-0.454-1.264-0.797-2.006-1.023c-0.732-0.227-1.484-0.34-2.262-0.34c-1.277,0-2.402,0.231-3.377,0.709
		c-0.955,0.448-1.758,1.063-2.396,1.861c-0.635,0.768-1.121,1.665-1.434,2.676c-0.318,1.012-0.486,2.083-0.486,3.202
		c0,1.118,0.168,2.187,0.486,3.196c0.313,1.021,0.799,1.908,1.434,2.687c0.638,0.771,1.439,1.388,2.396,1.861
		c0.975,0.448,2.1,0.681,3.377,0.681c0.957,0,1.824-0.154,2.602-0.453c0.795-0.306,1.48-0.738,2.053-1.295
		c0.578-0.563,1.054-1.242,1.418-2.044c0.365-0.799,0.601-1.704,0.707-2.698h-1.553c-0.078,0.725-0.252,1.404-0.522,2.039
		c-0.273,0.615-0.627,1.166-1.07,1.635c-0.439,0.47-0.965,0.838-1.576,1.113c-0.606,0.274-1.293,0.406-2.055,0.406
		c-1.076,0-2.008-0.199-2.785-0.613c-0.773-0.402-1.414-0.938-1.914-1.604c-0.49-0.683-0.854-1.444-1.098-2.296
		c-0.23-0.859-0.343-1.73-0.343-2.607c0-0.896,0.111-1.764,0.343-2.607c0.239-0.853,0.604-1.604,1.098-2.273
		c0.5-0.682,1.141-1.229,1.914-1.632c0.777-0.407,1.707-0.613,2.785-0.613c0.594,0,1.158,0.093,1.69,0.274
		c0.545,0.168,1.043,0.418,1.486,0.748c0.453,0.334,0.834,0.744,1.139,1.248C666.705,174.744,666.932,175.296,667.072,175.92
		L667.072,175.92z"/>
	<polygon fill="#73797D" points="672.93,171.016 672.93,187.227 674.48,187.227 674.48,171.016 	"/>
	<polygon fill="#73797D" points="679.473,171.016 679.473,187.227 690.838,187.227 690.838,185.907 681.025,185.907 
		681.025,179.503 690.105,179.503 690.105,178.193 681.025,178.193 681.025,172.331 690.723,172.331 690.723,171.016 	"/>
	<polygon fill="#73797D" points="694.576,171.016 694.576,187.227 696.127,187.227 696.127,173.512 696.168,173.512 
		705.666,187.227 707.4,187.227 707.4,171.016 705.848,171.016 705.848,184.725 705.805,184.725 696.309,171.016 	"/>
	<path fill="#73797D" d="M724.166,175.92h1.553c-0.104-0.852-0.358-1.6-0.771-2.249c-0.396-0.649-0.896-1.194-1.506-1.634
		c-0.595-0.454-1.267-0.797-2.013-1.023c-0.725-0.227-1.479-0.34-2.256-0.34c-1.276,0-2.401,0.231-3.379,0.709
		c-0.955,0.448-1.756,1.063-2.395,1.861c-0.64,0.768-1.121,1.665-1.438,2.676c-0.32,1.012-0.481,2.083-0.481,3.202
		c0,1.118,0.161,2.187,0.481,3.196c0.316,1.021,0.799,1.908,1.438,2.687c0.639,0.771,1.438,1.388,2.395,1.861
		c0.977,0.448,2.102,0.681,3.379,0.681c0.957,0,1.822-0.154,2.604-0.453c0.791-0.306,1.477-0.738,2.051-1.295
		c0.578-0.563,1.053-1.242,1.418-2.044c0.361-0.799,0.598-1.704,0.707-2.698H724.4c-0.076,0.725-0.252,1.404-0.525,2.039
		c-0.273,0.615-0.631,1.166-1.068,1.635c-0.444,0.47-0.965,0.838-1.575,1.113c-0.611,0.274-1.298,0.406-2.056,0.406
		c-1.078,0-2.008-0.199-2.787-0.613c-0.772-0.402-1.412-0.938-1.918-1.604c-0.485-0.683-0.852-1.444-1.094-2.296
		c-0.227-0.859-0.346-1.73-0.346-2.607c0-0.896,0.119-1.764,0.346-2.607c0.242-0.853,0.607-1.604,1.094-2.273
		c0.506-0.682,1.146-1.229,1.918-1.632c0.779-0.407,1.707-0.613,2.787-0.613c0.597,0,1.156,0.093,1.687,0.274
		c0.553,0.168,1.045,0.418,1.487,0.748c0.459,0.334,0.841,0.744,1.146,1.248C723.801,174.744,724.033,175.296,724.166,175.92
		L724.166,175.92z"/>
	<polygon fill="#73797D" points="730.029,171.016 730.029,187.227 731.582,187.227 731.582,171.016 	"/>
	<path fill="#73797D" d="M738.879,180.869l3.264-8.307l3.15,8.307H738.879L738.879,180.869z M741.342,171.016l-6.549,16.211h1.646
		l1.961-5.041h7.418l1.987,5.041h1.668l-6.395-16.211H741.342L741.342,171.016z"/>
	<path fill="#73797D" d="M753.27,181.889h-1.553c-0.047,1.002,0.082,1.854,0.385,2.563c0.324,0.715,0.775,1.3,1.355,1.748
		c0.578,0.458,1.275,0.794,2.098,1.024c0.82,0.213,1.709,0.319,2.672,0.319c0.959,0,1.777-0.099,2.466-0.274
		c0.686-0.162,1.254-0.383,1.711-0.654c0.469-0.286,0.832-0.605,1.094-0.951c0.273-0.35,0.479-0.693,0.615-1.023
		c0.151-0.351,0.246-0.676,0.274-0.979c0.047-0.303,0.068-0.547,0.068-0.725c0-0.66-0.113-1.231-0.344-1.698
		c-0.215-0.476-0.515-0.864-0.912-1.181c-0.381-0.334-0.828-0.606-1.346-0.819c-0.505-0.229-1.048-0.419-1.619-0.573l-3.978-0.969
		c-0.336-0.083-0.653-0.174-0.957-0.301c-0.289-0.117-0.547-0.275-0.774-0.479c-0.229-0.195-0.408-0.429-0.543-0.704
		c-0.127-0.287-0.188-0.614-0.188-0.996c0-0.604,0.113-1.112,0.349-1.524c0.227-0.403,0.52-0.729,0.887-0.971
		c0.381-0.263,0.813-0.438,1.305-0.548c0.498-0.12,1.016-0.182,1.551-0.182c0.578,0,1.125,0.087,1.642,0.255
		c0.53,0.148,0.994,0.386,1.393,0.701c0.41,0.304,0.734,0.688,0.982,1.16c0.26,0.447,0.401,0.988,0.432,1.609h1.553
		c0-0.832-0.168-1.562-0.502-2.186c-0.317-0.633-0.754-1.158-1.299-1.584c-0.547-0.428-1.186-0.742-1.92-0.958
		c-0.727-0.212-1.5-0.313-2.305-0.313c-1.144,0-2.078,0.166-2.812,0.496c-0.725,0.32-1.303,0.715-1.729,1.182
		c-0.408,0.471-0.691,0.968-0.849,1.504c-0.147,0.525-0.227,0.988-0.227,1.379c0,0.635,0.098,1.171,0.301,1.607
		c0.211,0.438,0.484,0.812,0.818,1.114c0.338,0.304,0.723,0.548,1.166,0.728c0.453,0.187,0.918,0.33,1.393,0.453l3.629,0.889
		c0.377,0.093,0.771,0.211,1.16,0.359c0.396,0.144,0.758,0.319,1.07,0.547c0.336,0.229,0.604,0.506,0.801,0.842
		c0.219,0.328,0.318,0.728,0.318,1.181c0,0.588-0.146,1.099-0.43,1.521c-0.289,0.406-0.656,0.748-1.097,1.021
		c-0.428,0.259-0.893,0.443-1.393,0.566c-0.504,0.119-0.97,0.182-1.394,0.182c-0.748,0-1.448-0.064-2.098-0.201
		c-0.654-0.152-1.229-0.396-1.713-0.727c-0.476-0.33-0.842-0.783-1.123-1.342C753.389,183.417,753.254,182.721,753.27,181.889
		L753.27,181.889z"/>
</g>
</svg>
