<?xml version="1.0" encoding="utf-8"?>
<!-- Generator: Adobe Illustrator 16.0.0, SVG Export Plug-In . SVG Version: 6.00 Build 0)  -->
<!DOCTYPE svg PUBLIC "-//W3C//DTD SVG 1.1//EN" "http://www.w3.org/Graphics/SVG/1.1/DTD/svg11.dtd" [
	<!ENTITY st0 "fill-rule:evenodd;clip-rule:evenodd;fill:#73797D;">
	<!ENTITY st1 "fill:none;stroke:#73797D;stroke-width:0.2541;stroke-miterlimit:3.8637;">
	<!ENTITY st2 "fill:#E30613;">
	<!ENTITY st3 "fill:none;stroke:#73797D;stroke-width:0.7083;stroke-miterlimit:3.8637;">
	<!ENTITY st4 "fill:none;stroke:#73797D;stroke-width:0.6569;stroke-miterlimit:3.8635;">
	<!ENTITY st5 "fill:#73797D;stroke:#73797D;stroke-width:0.2351;stroke-miterlimit:3.8637;">
	<!ENTITY st6 "fill:none;stroke:#73797D;stroke-width:0.3657;stroke-miterlimit:3.8637;">
	<!ENTITY st7 "fill:none;stroke:#73797D;stroke-width:0.3391;stroke-miterlimit:3.8635;">
	
		<!ENTITY st8 "fill:none;stroke:#73797D;stroke-width:0.3658;stroke-linecap:round;stroke-linejoin:round;stroke-miterlimit:3.8637;">
	<!ENTITY st9 "fill:none;stroke:#73797D;stroke-width:0.7259;stroke-miterlimit:3.8637;">
	
		<!ENTITY st10 "fill:none;stroke:#73797D;stroke-width:0.235;stroke-linecap:round;stroke-linejoin:round;stroke-miterlimit:3.8637;">
	<!ENTITY st11 "fill:#73797D;">
	<!ENTITY st12 "fill:none;stroke:#73797D;stroke-width:0.2351;stroke-miterlimit:3.8637;">
	<!ENTITY st13 "fill:none;stroke:#73797D;stroke-width:0.7348;stroke-miterlimit:3.8635;">
	<!ENTITY st14 "fill:none;stroke:#FFFFFF;stroke-width:0.3657;stroke-miterlimit:3.8637;">
]>
<svg version="1.1" id="Layer_1" xmlns="http://www.w3.org/2000/svg" xmlns:xlink="http://www.w3.org/1999/xlink" x="0px" y="0px"
	 width="379.5px" height="144.5px" viewBox="0 0 379.5 144.5" style="enable-background:new 0 0 379.5 144.5;" xml:space="preserve"
	>
<g>
	<path style="&st13;" d="M65.373,57.076v46.863c0,0.896-0.723,1.623-1.615,1.623H49.069c-0.982-0.023-1.692,1.617-1.692,1.617
		s-0.713-1.641-1.739-1.617c0.001-0.002-14.655,0-14.655,0c-0.892,0-1.615-0.727-1.615-1.623l-0.001-46.86L65.373,57.076
		L65.373,57.076z"/>
	<path style="&st6;" d="M52.771,64.538l-1.431-2.281c-1.714,0.396-1.293-1.091-0.364-1.675c1.021-0.641,2.175-0.415,1.434,1.003
		c0,0,0.33,0.537,0.881,1.412C53.291,62.997,52.915,63.712,52.771,64.538L52.771,64.538z M59.101,72.188L63,78.379l-0.287,0.288
		l-1.367-1.085c0,0-0.083-0.904-0.3-1.091c-0.734-0.633-0.299-0.982-0.583-1.571c-0.284-0.586-1.95-1.039-2.337-1.92
		c0.007,0.043-0.642-1.029-0.642-1.029C58.971,71.71,59.101,72.188,59.101,72.188L59.101,72.188z M54.53,64.886
		c-0.006-0.014,1.386,2.279,1.38,2.25c-0.861-0.105-1.279-0.352-1.451-0.816C54.256,65.798,54.415,65.103,54.53,64.886L54.53,64.886
		z M33.691,86.686l3.044,7.686 M33.94,86.908l2.825,5.463 M34.146,86.992l2.57,3.855 M34.299,86.923l2.356,2.8 M34.27,86.663
		l3.411,3.224 M34.241,86.474l4.675,3.498 M34.169,86.315l6.863,4.028 M37.879,74.059l-0.104,2.375h1.384l-0.105-2.376
		L37.879,74.059L37.879,74.059z M39.029,73.405l-0.563-12.736L37.89,73.405H39.029L39.029,73.405z M36.13,73.419h4.672v0.638H36.13
		V73.419L36.13,73.419z M39.939,76.437c0,0.956-0.66,1.616-1.474,1.616c-0.813,0-1.473-0.66-1.473-1.616H39.939L39.939,76.437z
		 M36.322,67.622c0,1.22-1.008,2.209-2.251,2.209s-2.251-0.989-2.251-2.209H36.322L36.322,67.622z M54.804,64.422
		c0,0,0.497,0.675,1.029,0.361c0.975-0.576-0.229-3.86-2.236-2.189c-0.441,0.368-1.031,2.074-0.917,3.168
		c0.115,1.095,0.601,2.479,1.834,2.766c0.745,0.173,2.228-0.241,2.844,0.773c0.458-0.172,0.959-1.981-0.321-2.04
		c-1.262-0.058-2.33-0.273-2.523-0.807C54.056,65.186,54.804,64.422,54.804,64.422L54.804,64.422z M55.941,69.556
		c-0.496,0.241-0.859,0.815-0.686,1.453s0.948,1.02,2.043,0.962c0.061-0.003,0.118-0.007,0.174-0.011
		c0.969-0.072,1.402-0.189,1.729,0.359c0.346-0.406,0.246-1.31-0.247-1.729C58.206,69.952,56.26,70.762,55.941,69.556L55.941,69.556
		z M58.106,73.014c-0.115,0.522-0.468,1.22-0.173,1.855c0.403,0.869,1.153,0.406,1.384,0.927c0.23,0.521,0.009,1.298,0.519,1.449
		c0.98,0.29,0.635,1.275,1.154,1.217c0.458-0.051,0.475-1.591,0-2.029c-0.692-0.637-0.231-1.101-0.577-1.623
		C60.067,74.289,58.798,74.057,58.106,73.014L58.106,73.014z"/>
	<path style="&st12;" d="M48.017,76.256c0-0.036,0.029-0.065,0.065-0.065c0.036,0,0.065,0.029,0.065,0.065s-0.029,0.065-0.065,0.065
		C48.046,76.322,48.017,76.292,48.017,76.256L48.017,76.256z M55.315,63.274c0.093-0.034,0.204,0.035,0.247,0.154
		c0.043,0.12,0.002,0.244-0.09,0.279c-0.093,0.034-0.204-0.035-0.247-0.155C55.182,63.433,55.223,63.308,55.315,63.274
		L55.315,63.274z"/>
	<path style="&st6;" d="M37.47,94.375c0-1.844,1.486-3.336,3.32-3.336c1.834,0,3.32,1.492,3.32,3.336
		c0,1.842-1.486,3.336-3.32,3.336C38.956,97.711,37.47,96.217,37.47,94.375L37.47,94.375z M44.225,102.574h-1.615v-3.119h-9.933
		v-1.596h11.548V102.574L44.225,102.574z M34.113,94.74c0-0.375,0.303-0.68,0.678-0.68c0.374,0,0.677,0.305,0.677,0.68
		c0,0.377-0.303,0.682-0.677,0.682C34.416,95.422,34.113,95.117,34.113,94.74L34.113,94.74z M34.143,94.545l-1.16,3.299l1.792-2.422
		 M35.438,94.545l1.159,3.299l-1.792-2.422 M37.947,92.807c-0.168,0.91,1.528,0.898,1.384,1.391
		c-0.348,1.188,0.346,1.145,0.461,1.768c0,0-0.115,1.477,0.288,1.594c0.231-0.318,0.058-0.941,0.346-1.275
		c0.303-0.348,0.721-0.537,0.721-1.158c0-0.451-0.625-0.594-0.808-0.725c-0.202-0.145-0.577-0.262-0.836-0.262
		c0,0-0.663-1.275-0.461-1.506c0.23-0.203,0.577,0.289,0.72,0.289c0.303,0,0.36-0.609,0.836-0.609c0-0.145-0.029-0.594-0.115-0.637
		c-0.476,0-0.778,0.232-1.183-0.262C39.302,91.414,38.115,91.895,37.947,92.807L37.947,92.807z M41.826,91.168
		c-0.371-0.143-0.938-0.086-0.938-0.086c0.491,0.232,0.462,0.883,0.664,0.883c0.404,0,0.605-0.332,1.009-0.404
		C42.562,91.561,42.197,91.311,41.826,91.168L41.826,91.168z M44.078,93.717c0-0.834-1.113-1.867-1.113-1.867
		s-0.548,1.014-0.289,2.057c0.259,0.029,1.009-0.057,1.009-0.057c0.188,0.086,0.115,0.391,0.115,0.578
		c0,0.465-0.144,1.652-0.144,1.652S44.078,94.553,44.078,93.717L44.078,93.717z"/>
	<polygon style="&st12;" points="33.59,84.888 33.251,85.621 32.469,85.715 33.041,86.255 32.887,87.035 33.578,86.654 
		34.286,87.042 34.147,86.247 34.704,85.715 33.922,85.605 33.59,84.888 	"/>
	<line style="&st13;" x1="47.37" y1="87.215" x2="47.37" y2="107.049"/>
	<path style="&st8;" d="M50.234,96.863l-0.853,0.969c-0.114,0.133-0.054,1.029,0.004,1.287c0.673,0.27,10.216,3.271,10.216,3.271
		l3.882-4.23l-0.607-0.262c-0.172-0.277,0.378-1.209,0.378-1.209l-1.879-0.74 M59.606,100.514c-0.152,0.123-0.116,1.709,0.007,1.885
		c0.007,0,3.87-4.238,3.87-4.238l-0.401-0.365c-0.034-0.381,0.069-1.07,0.069-1.07L59.606,100.514L59.606,100.514z M59.245,97.906
		c-0.159,0.072-0.254,2.15-0.038,2.164c0.001-0.002,3.188-3.621,3.188-3.621l-0.309-0.174L59.245,97.906L59.245,97.906z"/>
	<path style="&st10;" d="M51.4,95.16l-0.996,1.018c-0.143,0.076-0.035,1.029,0,1.297c0.349,0.096,8.798,2.605,8.798,2.605
		l3.181-3.66l-1.009-0.361"/>
	<path style="&st6;" d="M60.627,89.863v6.059c-0.827-0.197-3.935-0.596-4.252-0.102c-0.259-0.494-2.757-0.27-4.257,0.063v-5.83
		c-0.19,0.844-0.763,1.15-0.763,1.15v5.139l4.429-0.318c0.491,0.318,1.053,0.115,1.24,0.027l4.252,0.139v-5.752
		C61.276,90.438,60.856,90.4,60.627,89.863L60.627,89.863z M60.627,95.922c-0.905,0-3.603-0.725-4.238-0.088
		c0.577-0.014,0.592,0.361,0,0.377c-0.634-0.043-0.533-0.406,0-0.361c-0.548-0.711-4.263,0.146-4.263,0.146l-0.008-5.943
		c1.031,0,2.099-0.497,2.824-0.497c0.725,0,1.488,0.307,1.488,0.307s1.141-0.46,1.946-0.46c0.954,0,1.445,0.778,2.208,0.51
		C60.57,90.283,60.627,95.922,60.627,95.922L60.627,95.922z"/>
	<line style="&st12;" x1="56.417" y1="89.873" x2="56.381" y2="95.814"/>
	<path style="&st1;" d="M51.992,97.965l-0.319,0.322c-0.147,0.17-0.149,1.508,0.004,1.576c-0.004,0.023,0.69,0.201,0.382,0.061
		c-0.066-0.43-0.04-1.357,0.076-1.49l0.348-0.34L51.992,97.965L51.992,97.965z M53.102,98.283l-0.304,0.324
		c-0.147,0.168-0.208,1.543-0.055,1.611c-0.004,0.025,0.749,0.164,0.441,0.023c-0.067-0.43-0.04-1.357,0.076-1.49l0.322-0.322
		L53.102,98.283L53.102,98.283z M55.799,99.08l-0.362,0.381c-0.147,0.17-0.225,1.475-0.072,1.543
		c-0.004,0.025,0.766,0.234,0.458,0.092c-0.066-0.428-0.04-1.357,0.076-1.49l0.391-0.395L55.799,99.08L55.799,99.08z M56.823,99.398
		l-0.362,0.383c-0.148,0.168-0.21,1.484-0.058,1.553c-0.004,0.023,0.751,0.223,0.443,0.082c-0.067-0.43-0.04-1.357,0.076-1.49
		l0.391-0.396L56.823,99.398L56.823,99.398z M51.991,96.307l-0.242,0.246c-0.112,0.129-0.134,1.25-0.018,1.303
		c-0.003,0.018,0.316,0.127,0.36,0.111c0.047-0.002-0.027-0.117-0.049-0.172c-0.051-0.326-0.03-1.031,0.058-1.133l0.264-0.256
		L51.991,96.307L51.991,96.307z"/>
	<path style="&st6;" d="M56.431,89.819c-1.152-0.03-1.467-0.95-1.467-0.95l0.448-0.019c0,0-0.563-0.343-0.438-0.679
		c-0.009-0.016,0.392,0.043,0.392,0.043s-0.169-0.461-0.016-0.766l0.359,0.15c0.103-0.613,0.738-0.756,0.738-0.756
		s0.591,0.079,0.764,0.756l0.359-0.15c0.153,0.304-0.013,0.766-0.013,0.766s0.401-0.059,0.392-0.043
		c0.125,0.336-0.438,0.679-0.438,0.679l0.449,0.019C57.96,88.869,57.584,89.79,56.431,89.819L56.431,89.819z"/>
	<line style="&st13;" x1="29.335" y1="81.611" x2="41.776" y2="81.611"/>
	<line style="&st3;" x1="53.013" y1="81.611" x2="65.354" y2="81.611"/>
	<polygon style="&st14;" points="47.387,77.016 51.355,83.993 43.385,83.993 47.387,77.016 	"/>
	<path style="&st6;" d="M47.353,80.465c1.436,0,2.684,1.181,2.669,1.369c0.013,0.176-1.234,1.359-2.669,1.359
		s-2.686-1.183-2.673-1.359C44.666,81.646,45.868,80.409,47.353,80.465L47.353,80.465z M46.014,81.829
		c0-0.742,0.599-1.343,1.337-1.343c0.738,0,1.337,0.602,1.337,1.343c0,0.742-0.599,1.344-1.337,1.344
		C46.613,83.172,46.014,82.571,46.014,81.829L46.014,81.829z"/>
	<path style="&st5;" d="M47.184,81.829c0-0.093,0.075-0.168,0.168-0.168c0.092,0,0.167,0.075,0.167,0.168s-0.075,0.169-0.167,0.169
		C47.259,81.998,47.184,81.922,47.184,81.829L47.184,81.829z"/>
	<path style="&st6;" d="M47.391,76.868c-2.622,0-4.768,2.143-4.768,4.777s2.125,4.77,4.747,4.77s4.747-2.135,4.747-4.77
		c0-2.37-1.719-4.335-3.973-4.707c-0.839,0.061-0.882-0.244-0.911-0.403c-0.077-0.429,0.481-0.681,0.88-0.681
		c0.692,0,0.634,0.406,1.049,0.492c2.206,0.75,3.793,2.847,3.793,5.316c0,3.099-2.5,5.611-5.584,5.611s-5.584-2.512-5.584-5.611
		s2.318-5.49,5.433-5.258C47.171,76.608,47.391,76.868,47.391,76.868L47.391,76.868z"/>
	<polygon style="&st4;" points="47.363,37.342 45.654,40.796 41.793,41.355 44.576,44.116 44.002,47.859 47.363,46.152 
		50.724,47.859 50.106,44.082 52.801,41.437 49.098,40.831 47.363,37.342 	"/>
	<path style="&st7;" d="M47.363,37.466v8.686 M41.925,41.436l8.181,2.646 M44.002,47.859l5.095-7.028 M50.724,47.859l-5.069-7.063
		 M52.801,41.437l-8.225,2.68"/>
	<path style="&st4;" d="M44.531,44.15l-11.566,3.812 M61.707,38.49l-8.899,2.933 M45.644,40.788l-7.143-9.858 M57.317,57.089
		l-6.656-9.254 M49.103,40.82l7.109-9.933 M37.256,57.089l6.737-9.254 M41.888,41.426l-8.881-2.936 M61.665,47.962L50.15,44.104
		 M47.363,28v9.689"/>
	<path style="&st7;" d="M44.375,45.475l-4.752,3.437 M55.123,37.597l-4.675,3.413 M46.247,46.748l-1.821,5.632 M50.357,34.039
		l-1.807,5.587 M48.51,46.752l1.808,5.591 M44.384,33.988l1.837,5.682 M50.317,45.396l4.72,3.446 M39.537,37.525l4.711,3.439
		 M51.034,43.25l5.952,0.001 M37.782,43.25h5.861"/>
	<path style="&st6;" d="M57.125,69.015c0.261,0.387,0.793,1.289,0.778,1.289c0,0-1.254,0.087-1.701-0.333
		c-0.098-0.149-0.852-1.366-0.852-1.366S56.865,68.627,57.125,69.015L57.125,69.015z M34.066,62.497l-2.219,5.106l4.441,0.012
		L34.066,62.497L34.066,62.497z M40.668,67.622c0,1.22,1.008,2.209,2.251,2.209c1.244,0,2.251-0.989,2.251-2.209H40.668
		L40.668,67.622z M42.923,62.497l2.219,5.106l-4.441,0.012L42.923,62.497L42.923,62.497z M37.817,76.1l1.327-0.623 M37.774,75.246
		l1.327-0.624"/>
	<path style="&st12;" d="M38.438,62.408h-4.37v-0.521h4.327L38.438,62.408L38.438,62.408z M38.51,61.887h4.397v0.521h-4.369
		L38.51,61.887L38.51,61.887z M53.261,91.174c0.605-0.02,1.387-0.62,2.254-0.33 M53.256,91.836c0.604-0.018,1.391-0.59,2.258-0.299
		 M53.25,92.5c0.605-0.018,1.396-0.563,2.263-0.271 M53.246,93.164c0.604-0.018,1.399-0.535,2.267-0.244 M53.24,93.828
		c0.605-0.018,1.405-0.506,2.271-0.217 M53.235,94.492c0.604-0.02,1.409-0.479,2.276-0.188 M59.585,90.979
		c-0.605-0.02-1.412-0.425-2.279-0.135 M59.586,91.678c-0.605-0.02-1.412-0.432-2.279-0.141 M59.587,92.377
		c-0.605-0.02-1.412-0.439-2.279-0.148 M59.587,93.076c-0.605-0.02-1.412-0.447-2.278-0.156 M59.588,93.775
		c-0.605-0.02-1.412-0.453-2.278-0.164 M59.589,94.475c-0.605-0.02-1.412-0.461-2.279-0.17"/>
	<polygon style="&st6;" points="47.387,77.016 51.355,83.993 43.385,83.993 47.387,77.016 	"/>
	<path style="&st1;" d="M52.838,96.51l-0.242,0.246c-0.112,0.129-0.134,1.25-0.018,1.303c0.055,0.031,0.316,0.154,0.36,0.137
		c0.047,0-0.034-0.143-0.049-0.197c-0.051-0.326-0.03-1.031,0.058-1.133l0.264-0.256L52.838,96.51L52.838,96.51z"/>
	<polygon style="&st11;" points="46.966,46.152 47.691,46.152 47.691,75.765 47.354,76.223 47.218,76.404 46.992,76.249 
		46.966,46.152 	"/>
	<path style="&st1;" d="M56.282,97.502l-0.243,0.246c-0.111,0.129-0.133,1.25-0.018,1.303c-0.003,0.02,0.316,0.127,0.36,0.111
		c0.047-0.002-0.027-0.117-0.049-0.172c-0.051-0.324-0.03-1.031,0.058-1.131l0.264-0.258L56.282,97.502L56.282,97.502z
		 M57.129,97.705l-0.242,0.246c-0.112,0.129-0.134,1.252-0.018,1.303c0.055,0.031,0.316,0.154,0.36,0.139
		c0.047-0.002-0.034-0.145-0.049-0.197c-0.051-0.326-0.03-1.033,0.058-1.133l0.264-0.258L57.129,97.705L57.129,97.705z"/>
</g>
<g>
	<path style="&st2;" d="M129.721,71.407h4.42v8.364h-4.42v23.776c-0.988,8.398-6.451,14.684-15.299,14.336v-8.361
		c3.77,0.127,6.016-1.311,6.408-5.779l0.023-23.971h-4.168v-8.364h4.168l0.002-5.623c0.209-8.86,5.643-15.376,15.449-14.248v8.289
		c-4.195-0.332-6.543,1.373-6.584,6.026V71.407L129.721,71.407z"/>
	<path style="&st9;" d="M187.225,117.785V51.381 M77.984,117.785V51.369"/>
	<path style="&st11;" d="M86.813,71.541c0-4.746,2.352-6.483,6.585-6.149v-8.288c-9.877-1.136-15.319,5.48-15.453,14.437v7.82
		v26.467h8.868V79.361h6.249v-7.82H86.813L86.813,71.541z"/>
	<path style="&st11;" d="M108.644,105.828h6.92v-8.555h-6.182c-5.577,0-9.137-3.809-9.137-8.689c0-4.879,3.561-8.689,9.137-8.689
		h6.182v-8.488h-6.92c-10.548,0-17.268,7.553-17.268,17.177C91.376,98.209,98.096,105.828,108.644,105.828L108.644,105.828z"/>
	<path style="&st11;" d="M187.117,85.93c0-9.02-5.709-15.367-15.381-15.367c-4.5,0-8.396,1.871-11.016,4.877
		c-2.484-3.006-6.313-4.877-11.016-4.877c-9.469,0-15.582,6.614-15.582,15.367v19.912h8.867V85.73c0-3.875,2.754-6.548,6.715-6.548
		c5.844,0,6.449,4.61,6.449,6.548v20.112h8.865V85.73c0-3.875,2.82-6.548,6.717-6.548c5.844,0,6.516,4.61,6.516,6.548v20.112h8.865
		V85.93L187.117,85.93z"/>
</g>
<g>
	<path style="&st11;" d="M197.334,97.568v3.932c0,0.314,0.043,0.615,0.129,0.902c0.093,0.281,0.234,0.527,0.424,0.74
		c0.196,0.211,0.443,0.381,0.743,0.508c0.306,0.119,0.673,0.18,1.099,0.18c0.432,0,0.798-0.061,1.098-0.18
		c0.305-0.127,0.553-0.297,0.744-0.508c0.195-0.213,0.336-0.459,0.423-0.74c0.093-0.287,0.138-0.588,0.138-0.902v-3.932h-0.588
		v3.803c0,0.355-0.039,0.66-0.119,0.91c-0.082,0.248-0.199,0.451-0.355,0.611c-0.156,0.154-0.346,0.27-0.57,0.344
		c-0.225,0.068-0.481,0.104-0.77,0.104c-0.283,0-0.537-0.035-0.762-0.104c-0.225-0.074-0.414-0.189-0.57-0.344
		c-0.155-0.16-0.273-0.363-0.354-0.611c-0.081-0.25-0.12-0.555-0.12-0.91v-3.803H197.334L197.334,97.568z"/>
	<polygon style="&st11;" points="203.936,97.568 203.936,103.709 204.523,103.709 204.523,98.516 204.541,98.516 208.139,103.709 
		208.795,103.709 208.795,97.568 208.207,97.568 208.207,102.764 208.189,102.764 204.593,97.568 203.936,97.568 	"/>
	<polygon style="&st11;" points="210.703,97.568 210.703,103.709 211.291,103.709 211.291,97.568 210.703,97.568 	"/>
	<polygon style="&st11;" points="212.533,97.568 214.816,103.709 215.498,103.709 217.79,97.568 217.168,97.568 215.179,103.064 
		215.162,103.064 213.156,97.568 212.533,97.568 	"/>
	<polygon style="&st11;" points="218.963,97.568 218.963,103.709 223.269,103.709 223.269,103.211 219.551,103.211 219.551,100.787 
		222.992,100.787 222.992,100.287 219.551,100.287 219.551,98.068 223.225,98.068 223.225,97.568 218.963,97.568 	"/>
	<path style="&st0;" d="M225.307,100.484v-2.416h2.195c0.45,0,0.785,0.109,1.004,0.328c0.219,0.217,0.328,0.516,0.328,0.895
		c0,0.188-0.037,0.357-0.113,0.506c-0.068,0.143-0.164,0.268-0.285,0.369c-0.121,0.104-0.262,0.184-0.423,0.24
		c-0.161,0.053-0.331,0.078-0.511,0.078H225.307L225.307,100.484z M224.719,97.568v6.141h0.588v-2.727h2.23
		c0.277-0.01,0.492,0.035,0.648,0.139c0.162,0.104,0.281,0.24,0.363,0.412c0.086,0.168,0.141,0.359,0.164,0.576
		c0.029,0.213,0.049,0.428,0.061,0.646c0.006,0.063,0.012,0.137,0.018,0.223s0.012,0.176,0.016,0.266
		c0.012,0.088,0.027,0.174,0.045,0.26c0.023,0.08,0.051,0.148,0.086,0.205h0.648c-0.064-0.074-0.115-0.176-0.156-0.309
		c-0.033-0.139-0.061-0.281-0.076-0.43c-0.02-0.156-0.029-0.307-0.035-0.457c-0.006-0.148-0.012-0.273-0.018-0.379
		c-0.012-0.182-0.037-0.352-0.078-0.506c-0.035-0.16-0.096-0.301-0.182-0.422c-0.08-0.121-0.188-0.219-0.32-0.293
		c-0.131-0.078-0.299-0.135-0.502-0.162v-0.018c0.398-0.08,0.699-0.264,0.9-0.551c0.201-0.285,0.303-0.625,0.303-1.014
		c0-0.275-0.053-0.514-0.156-0.715c-0.098-0.207-0.232-0.373-0.406-0.498c-0.166-0.133-0.365-0.23-0.596-0.293
		c-0.225-0.063-0.465-0.096-0.719-0.096H224.719L224.719,97.568z"/>
	<path style="&st11;" d="M231.391,101.688h-0.588c-0.018,0.379,0.031,0.703,0.146,0.975c0.121,0.268,0.291,0.488,0.51,0.662
		c0.219,0.17,0.484,0.301,0.797,0.385c0.311,0.082,0.648,0.121,1.012,0.121c0.361,0,0.674-0.035,0.934-0.104
		c0.258-0.063,0.475-0.145,0.648-0.25c0.178-0.107,0.316-0.229,0.414-0.361c0.104-0.131,0.182-0.26,0.232-0.387
		c0.059-0.131,0.094-0.254,0.105-0.369c0.016-0.113,0.025-0.205,0.025-0.275c0-0.252-0.043-0.467-0.131-0.645
		c-0.08-0.178-0.195-0.328-0.346-0.447c-0.145-0.127-0.313-0.229-0.51-0.311c-0.189-0.086-0.395-0.156-0.613-0.215l-1.504-0.369
		c-0.127-0.029-0.248-0.066-0.363-0.111c-0.109-0.047-0.207-0.105-0.295-0.18c-0.086-0.074-0.154-0.164-0.207-0.268
		c-0.045-0.109-0.068-0.236-0.068-0.379c0-0.229,0.043-0.422,0.129-0.576s0.199-0.277,0.338-0.369
		c0.145-0.098,0.309-0.166,0.492-0.207c0.191-0.047,0.387-0.068,0.588-0.068c0.219,0,0.426,0.031,0.623,0.094
		c0.201,0.059,0.377,0.146,0.527,0.268c0.154,0.113,0.279,0.262,0.371,0.438c0.098,0.174,0.152,0.375,0.164,0.611h0.588
		c0-0.314-0.063-0.592-0.189-0.826c-0.121-0.24-0.285-0.441-0.492-0.602c-0.209-0.16-0.451-0.281-0.727-0.361
		c-0.277-0.08-0.568-0.119-0.873-0.119c-0.434,0-0.787,0.063-1.064,0.189c-0.275,0.119-0.496,0.268-0.656,0.445
		c-0.156,0.18-0.262,0.369-0.32,0.568c-0.057,0.201-0.086,0.375-0.086,0.525c0,0.24,0.037,0.443,0.111,0.609
		c0.082,0.168,0.186,0.309,0.313,0.422s0.273,0.205,0.439,0.275c0.174,0.068,0.35,0.127,0.527,0.172l1.375,0.334
		c0.145,0.035,0.291,0.08,0.441,0.139c0.15,0.051,0.285,0.121,0.406,0.207c0.127,0.086,0.227,0.191,0.303,0.316
		c0.08,0.129,0.121,0.275,0.121,0.447c0,0.225-0.055,0.416-0.164,0.578c-0.109,0.154-0.248,0.283-0.416,0.387
		c-0.16,0.098-0.336,0.17-0.527,0.215c-0.189,0.047-0.365,0.068-0.527,0.068c-0.281,0-0.547-0.025-0.795-0.078
		c-0.248-0.057-0.465-0.148-0.648-0.275c-0.18-0.125-0.32-0.293-0.424-0.506S231.385,102.004,231.391,101.688L231.391,101.688z"/>
	<polygon style="&st11;" points="237.232,97.568 237.232,103.709 237.82,103.709 237.82,97.568 237.232,97.568 	"/>
	<path style="&st0;" d="M239.736,97.568v6.141h2.135c0.941-0.021,1.646-0.283,2.119-0.781c0.479-0.506,0.717-1.268,0.717-2.289
		c0-1.02-0.238-1.779-0.717-2.279c-0.473-0.502-1.178-0.768-2.119-0.791H239.736L239.736,97.568z M240.324,103.211v-5.143h1.254
		c0.443,0,0.824,0.049,1.143,0.146c0.322,0.092,0.588,0.24,0.795,0.447s0.359,0.473,0.457,0.799c0.1,0.326,0.148,0.721,0.148,1.178
		c0,0.461-0.049,0.854-0.148,1.18c-0.098,0.326-0.25,0.594-0.457,0.799c-0.207,0.207-0.473,0.357-0.795,0.455
		c-0.318,0.092-0.699,0.139-1.143,0.139H240.324L240.324,103.211z"/>
	<path style="&st0;" d="M247.162,101.303l1.234-3.148l1.193,3.148H247.162L247.162,101.303z M248.094,97.568l-2.48,6.141h0.623
		l0.744-1.908h2.809l0.752,1.908h0.631l-2.42-6.141H248.094L248.094,97.568z"/>
	<path style="&st0;" d="M252.363,97.568v6.141h2.135c0.939-0.021,1.646-0.283,2.119-0.781c0.479-0.506,0.717-1.268,0.717-2.289
		c0-1.02-0.238-1.779-0.717-2.279c-0.473-0.502-1.18-0.768-2.119-0.791H252.363L252.363,97.568z M252.951,103.211v-5.143h1.254
		c0.443,0,0.824,0.049,1.141,0.146c0.322,0.092,0.588,0.24,0.795,0.447c0.209,0.207,0.361,0.473,0.459,0.799
		s0.146,0.721,0.146,1.178c0,0.461-0.049,0.854-0.146,1.18s-0.25,0.594-0.459,0.799c-0.207,0.207-0.473,0.357-0.795,0.455
		c-0.316,0.092-0.697,0.139-1.141,0.139H252.951L252.951,103.211z"/>
	<path style="&st0;" d="M264.115,97.568v6.141h2.135c0.939-0.021,1.646-0.283,2.119-0.781c0.479-0.506,0.717-1.268,0.717-2.289
		c0-1.02-0.238-1.779-0.717-2.279c-0.473-0.502-1.18-0.768-2.119-0.791H264.115L264.115,97.568z M264.703,103.211v-5.143h1.254
		c0.443,0,0.824,0.049,1.141,0.146c0.322,0.092,0.588,0.24,0.795,0.447s0.361,0.473,0.459,0.799s0.146,0.721,0.146,1.178
		c0,0.461-0.049,0.854-0.146,1.18s-0.252,0.594-0.459,0.799c-0.207,0.207-0.473,0.357-0.795,0.455
		c-0.316,0.092-0.697,0.139-1.141,0.139H264.703L264.703,103.211z"/>
	<polygon style="&st11;" points="270.666,97.568 270.666,103.709 274.973,103.709 274.973,103.211 271.254,103.211 271.254,100.787 
		274.695,100.787 274.695,100.287 271.254,100.287 271.254,98.068 274.928,98.068 274.928,97.568 270.666,97.568 	"/>
	<path style="&st11;" d="M286.135,99.428h0.59c-0.041-0.32-0.139-0.605-0.295-0.852c-0.15-0.246-0.34-0.453-0.57-0.619
		c-0.225-0.174-0.479-0.303-0.762-0.389c-0.277-0.084-0.561-0.127-0.855-0.127c-0.484,0-0.91,0.088-1.279,0.266
		c-0.363,0.172-0.666,0.408-0.908,0.705c-0.242,0.293-0.424,0.631-0.545,1.016c-0.121,0.383-0.182,0.787-0.182,1.211
		s0.061,0.83,0.182,1.213c0.121,0.385,0.303,0.725,0.545,1.016c0.242,0.293,0.545,0.527,0.908,0.705
		c0.369,0.172,0.795,0.258,1.279,0.258c0.363,0,0.691-0.059,0.986-0.172c0.299-0.115,0.559-0.279,0.777-0.49
		c0.219-0.213,0.398-0.471,0.537-0.773c0.137-0.305,0.227-0.645,0.268-1.023h-0.588c-0.029,0.273-0.096,0.533-0.199,0.773
		c-0.104,0.236-0.24,0.441-0.406,0.619c-0.168,0.178-0.365,0.318-0.598,0.422c-0.229,0.102-0.49,0.154-0.777,0.154
		c-0.408,0-0.76-0.078-1.055-0.23c-0.293-0.156-0.535-0.359-0.727-0.611c-0.184-0.258-0.322-0.549-0.414-0.869
		c-0.086-0.326-0.131-0.656-0.131-0.99c0-0.336,0.045-0.666,0.131-0.988c0.092-0.32,0.23-0.607,0.414-0.859
		c0.191-0.258,0.434-0.465,0.727-0.619c0.295-0.156,0.646-0.232,1.055-0.232c0.225,0,0.438,0.035,0.639,0.102
		c0.209,0.064,0.396,0.158,0.563,0.285c0.174,0.125,0.318,0.285,0.434,0.473C285.998,98.982,286.084,99.193,286.135,99.428
		L286.135,99.428z"/>
	<polygon style="&st11;" points="288.338,97.568 288.338,103.709 288.926,103.709 288.926,100.734 292.592,100.734 292.592,103.709 
		293.18,103.709 293.18,97.568 292.592,97.568 292.592,100.234 288.926,100.234 288.926,97.568 288.338,97.568 	"/>
	<polygon style="&st11;" points="295.096,97.568 295.096,103.709 295.684,103.709 295.684,97.568 295.096,97.568 	"/>
	<polygon style="&st11;" points="297.602,97.568 297.602,103.709 301.646,103.709 301.646,103.211 298.189,103.211 298.189,97.568 
		297.602,97.568 	"/>
	<polygon style="&st11;" points="302.873,97.568 302.873,103.709 307.178,103.709 307.178,103.211 303.461,103.211 303.461,100.787 
		306.9,100.787 306.9,100.287 303.461,100.287 303.461,98.068 307.135,98.068 307.135,97.568 302.873,97.568 	"/>
	<polygon style="&st11;" points="197.394,88.539 197.394,94.68 197.982,94.68 197.982,91.756 200.938,91.756 200.938,91.256 
		197.982,91.256 197.982,89.037 201.311,89.037 201.311,88.539 197.394,88.539 	"/>
	<path style="&st0;" d="M202.731,88.049l1.142-1.213h-0.675l-0.907,1.213H202.731L202.731,88.049z M202.506,88.539v6.141h0.588
		v-6.141H202.506L202.506,88.539z"/>
	<path style="&st11;" d="M205.086,92.66h-0.588c-0.017,0.377,0.031,0.701,0.147,0.971c0.12,0.27,0.29,0.49,0.51,0.662
		c0.219,0.172,0.483,0.301,0.795,0.387c0.312,0.08,0.648,0.119,1.012,0.119s0.675-0.033,0.934-0.102
		c0.26-0.064,0.476-0.146,0.648-0.25c0.179-0.109,0.317-0.229,0.415-0.359c0.104-0.133,0.182-0.262,0.234-0.389
		c0.057-0.131,0.092-0.256,0.104-0.369c0.017-0.115,0.025-0.207,0.025-0.275c0-0.252-0.043-0.467-0.129-0.646
		c-0.082-0.176-0.197-0.326-0.347-0.447c-0.144-0.125-0.313-0.229-0.51-0.309c-0.19-0.086-0.396-0.158-0.614-0.215l-1.504-0.369
		c-0.127-0.029-0.248-0.066-0.363-0.113c-0.109-0.045-0.207-0.105-0.294-0.18s-0.155-0.164-0.208-0.268
		c-0.046-0.107-0.068-0.234-0.068-0.377c0-0.23,0.043-0.422,0.129-0.576c0.088-0.154,0.199-0.279,0.338-0.369
		c0.144-0.1,0.309-0.168,0.492-0.207c0.19-0.045,0.387-0.068,0.588-0.068c0.219,0,0.428,0.029,0.623,0.094
		c0.201,0.057,0.378,0.146,0.527,0.266c0.156,0.115,0.279,0.262,0.371,0.439c0.099,0.172,0.153,0.375,0.164,0.609h0.588
		c0-0.313-0.063-0.588-0.189-0.824c-0.121-0.242-0.285-0.441-0.493-0.602c-0.208-0.162-0.448-0.281-0.726-0.361
		s-0.568-0.121-0.873-0.121c-0.433,0-0.787,0.063-1.064,0.189c-0.276,0.121-0.495,0.27-0.656,0.447
		c-0.156,0.178-0.263,0.367-0.32,0.568c-0.058,0.199-0.086,0.375-0.086,0.523c0,0.242,0.037,0.445,0.112,0.611
		c0.081,0.166,0.185,0.307,0.312,0.42c0.126,0.115,0.273,0.207,0.44,0.275c0.173,0.068,0.349,0.127,0.527,0.172l1.374,0.338
		c0.145,0.033,0.291,0.078,0.441,0.137c0.15,0.051,0.285,0.121,0.406,0.205c0.127,0.086,0.228,0.193,0.303,0.318
		c0.08,0.127,0.121,0.277,0.121,0.447c0,0.225-0.055,0.416-0.164,0.578c-0.109,0.152-0.248,0.283-0.415,0.385
		c-0.161,0.098-0.337,0.17-0.528,0.215c-0.189,0.047-0.365,0.068-0.527,0.068c-0.281,0-0.547-0.025-0.795-0.076
		c-0.248-0.057-0.463-0.148-0.648-0.275c-0.178-0.125-0.319-0.295-0.424-0.506C205.129,93.238,205.08,92.975,205.086,92.66
		L205.086,92.66z"/>
	<polygon style="&st11;" points="210.727,88.539 210.727,94.68 211.314,94.68 211.314,88.539 210.727,88.539 	"/>
	<path style="&st11;" d="M217.541,90.396h0.588c-0.039-0.32-0.138-0.605-0.293-0.852c-0.15-0.246-0.34-0.451-0.57-0.617
		c-0.226-0.174-0.479-0.303-0.761-0.389c-0.277-0.086-0.562-0.129-0.856-0.129c-0.484,0-0.911,0.088-1.279,0.268
		c-0.363,0.17-0.666,0.406-0.908,0.703c-0.242,0.293-0.424,0.633-0.545,1.016c-0.121,0.385-0.182,0.789-0.182,1.213
		s0.061,0.828,0.182,1.213c0.121,0.383,0.303,0.723,0.545,1.014c0.242,0.295,0.545,0.529,0.908,0.705
		c0.368,0.172,0.795,0.258,1.279,0.258c0.363,0,0.691-0.055,0.986-0.17c0.299-0.115,0.559-0.279,0.777-0.49
		c0.219-0.213,0.397-0.471,0.536-0.773c0.139-0.305,0.228-0.646,0.269-1.025h-0.589c-0.028,0.275-0.095,0.533-0.198,0.775
		c-0.104,0.234-0.24,0.441-0.406,0.619c-0.167,0.178-0.366,0.316-0.598,0.422c-0.23,0.102-0.489,0.152-0.777,0.152
		c-0.408,0-0.761-0.076-1.055-0.23s-0.536-0.359-0.727-0.611c-0.185-0.258-0.322-0.547-0.415-0.869
		c-0.087-0.326-0.13-0.656-0.13-0.988c0-0.338,0.043-0.668,0.13-0.988c0.093-0.322,0.23-0.607,0.415-0.861
		c0.19-0.258,0.433-0.465,0.727-0.617c0.294-0.156,0.646-0.232,1.055-0.232c0.225,0,0.438,0.033,0.64,0.102
		c0.208,0.064,0.395,0.158,0.562,0.283c0.174,0.129,0.317,0.285,0.433,0.475C217.403,89.953,217.49,90.162,217.541,90.396
		L217.541,90.396z"/>
	<path style="&st0;" d="M220.415,92.271l1.236-3.148l1.194,3.148H220.415L220.415,92.271z M221.349,88.539l-2.481,6.141h0.623
		l0.743-1.908h2.811l0.751,1.908h0.633l-2.422-6.141H221.349L221.349,88.539z"/>
	<path style="&st11;" d="M225.692,92.66h-0.589c-0.017,0.377,0.032,0.701,0.147,0.971c0.121,0.27,0.291,0.49,0.511,0.662
		c0.219,0.172,0.484,0.301,0.795,0.387c0.311,0.08,0.648,0.119,1.012,0.119s0.674-0.033,0.934-0.102
		c0.26-0.064,0.477-0.146,0.648-0.25c0.18-0.109,0.316-0.229,0.416-0.359c0.104-0.133,0.18-0.262,0.232-0.389
		c0.059-0.131,0.092-0.256,0.104-0.369c0.018-0.115,0.025-0.207,0.025-0.275c0-0.252-0.043-0.467-0.129-0.646
		c-0.08-0.176-0.197-0.326-0.346-0.447c-0.145-0.125-0.314-0.229-0.51-0.309c-0.191-0.086-0.396-0.158-0.613-0.215l-1.506-0.369
		c-0.127-0.029-0.248-0.066-0.363-0.113c-0.109-0.045-0.207-0.105-0.293-0.18c-0.087-0.074-0.156-0.164-0.208-0.268
		c-0.046-0.107-0.068-0.234-0.068-0.377c0-0.23,0.042-0.422,0.13-0.576c0.086-0.154,0.198-0.279,0.336-0.369
		c0.145-0.1,0.309-0.168,0.493-0.207c0.19-0.045,0.386-0.068,0.589-0.068c0.219,0,0.426,0.029,0.621,0.094
		c0.203,0.057,0.379,0.146,0.527,0.266c0.156,0.115,0.279,0.262,0.371,0.439c0.1,0.172,0.154,0.375,0.166,0.609h0.588
		c0-0.313-0.064-0.588-0.191-0.824c-0.121-0.242-0.285-0.441-0.492-0.602c-0.207-0.162-0.449-0.281-0.727-0.361
		c-0.275-0.08-0.567-0.121-0.873-0.121c-0.432,0-0.787,0.063-1.063,0.189c-0.276,0.121-0.495,0.27-0.657,0.447
		c-0.155,0.178-0.262,0.367-0.32,0.568c-0.057,0.199-0.086,0.375-0.086,0.523c0,0.242,0.038,0.445,0.113,0.611
		c0.08,0.166,0.184,0.307,0.311,0.42c0.127,0.115,0.273,0.207,0.441,0.275c0.172,0.068,0.348,0.127,0.527,0.172l1.375,0.338
		c0.143,0.033,0.291,0.078,0.441,0.137c0.148,0.051,0.283,0.121,0.406,0.205c0.125,0.086,0.227,0.193,0.301,0.318
		c0.082,0.127,0.121,0.277,0.121,0.447c0,0.225-0.055,0.416-0.164,0.578c-0.109,0.152-0.248,0.283-0.414,0.385
		c-0.162,0.098-0.338,0.17-0.527,0.215c-0.191,0.047-0.367,0.068-0.527,0.068c-0.283,0-0.549-0.025-0.795-0.076
		c-0.249-0.057-0.465-0.148-0.649-0.275c-0.179-0.125-0.319-0.295-0.424-0.506C225.735,93.238,225.687,92.975,225.692,92.66
		L225.692,92.66z"/>
	<polygon style="&st11;" points="237.201,92.15 237.201,94.68 237.789,94.68 237.789,92.15 240.227,88.539 239.527,88.539 
		237.504,91.652 235.473,88.539 234.781,88.539 237.201,92.15 	"/>
	<polygon style="&st11;" points="245.365,88.539 245.365,94.68 245.953,94.68 245.953,89.375 245.971,89.375 248.088,94.68 
		248.643,94.68 250.752,89.375 250.768,89.375 250.768,94.68 251.355,94.68 251.355,88.539 250.492,88.539 248.365,93.924 
		246.23,88.539 245.365,88.539 	"/>
	<path style="&st0;" d="M253.883,92.271l1.238-3.148l1.191,3.148H253.883L253.883,92.271z M254.818,88.539l-2.482,6.141h0.623
		l0.744-1.908h2.809l0.752,1.908h0.633l-2.422-6.141H254.818L254.818,88.539z"/>
	<polygon style="&st11;" points="257.639,88.539 257.639,89.037 259.783,89.037 259.783,94.68 260.371,94.68 260.371,89.037 
		262.523,89.037 262.523,88.539 257.639,88.539 	"/>
	<polygon style="&st11;" points="263.529,88.539 263.529,94.68 267.836,94.68 267.836,94.182 264.119,94.182 264.119,91.756 
		267.559,91.756 267.559,91.256 264.119,91.256 264.119,89.037 267.793,89.037 267.793,88.539 263.529,88.539 	"/>
	<polygon style="&st11;" points="269.066,88.539 269.066,94.68 269.654,94.68 269.654,89.375 269.672,89.375 271.789,94.68 
		272.342,94.68 274.453,89.375 274.471,89.375 274.471,94.68 275.059,94.68 275.059,88.539 274.193,88.539 272.066,93.924 
		269.932,88.539 269.066,88.539 	"/>
	<path style="&st0;" d="M278.744,88.049l1.141-1.213h-0.674l-0.908,1.213H278.744L278.744,88.049z M277.586,92.271l1.236-3.148
		l1.193,3.148H277.586L277.586,92.271z M278.52,88.539l-2.482,6.141h0.623l0.744-1.908h2.809l0.752,1.908h0.633l-2.422-6.141H278.52
		L278.52,88.539z"/>
	<polygon style="&st11;" points="281.928,88.539 281.928,89.037 284.072,89.037 284.072,94.68 284.66,94.68 284.66,89.037 
		286.813,89.037 286.813,88.539 281.928,88.539 	"/>
	<polygon style="&st11;" points="287.863,88.539 287.863,94.68 288.451,94.68 288.451,88.539 287.863,88.539 	"/>
	<path style="&st11;" d="M294.678,90.396h0.588c-0.039-0.32-0.137-0.605-0.293-0.852c-0.15-0.246-0.34-0.451-0.57-0.617
		c-0.225-0.174-0.479-0.303-0.762-0.389c-0.277-0.086-0.561-0.129-0.855-0.129c-0.484,0-0.91,0.088-1.279,0.268
		c-0.363,0.17-0.666,0.406-0.908,0.703c-0.242,0.293-0.424,0.633-0.545,1.016c-0.121,0.385-0.182,0.789-0.182,1.213
		s0.061,0.828,0.182,1.213c0.121,0.383,0.303,0.723,0.545,1.014c0.242,0.295,0.545,0.529,0.908,0.705
		c0.369,0.172,0.795,0.258,1.279,0.258c0.363,0,0.691-0.055,0.986-0.17c0.299-0.115,0.559-0.279,0.777-0.49
		c0.219-0.213,0.396-0.471,0.535-0.773c0.139-0.305,0.229-0.646,0.27-1.025h-0.588c-0.029,0.275-0.096,0.533-0.199,0.775
		c-0.104,0.234-0.24,0.441-0.406,0.619c-0.168,0.178-0.367,0.316-0.598,0.422c-0.23,0.102-0.49,0.152-0.777,0.152
		c-0.41,0-0.762-0.076-1.055-0.23c-0.295-0.154-0.535-0.359-0.727-0.611c-0.184-0.258-0.322-0.547-0.416-0.869
		c-0.086-0.326-0.129-0.656-0.129-0.988c0-0.338,0.043-0.668,0.129-0.988c0.094-0.322,0.232-0.607,0.416-0.861
		c0.191-0.258,0.432-0.465,0.727-0.617c0.293-0.156,0.645-0.232,1.055-0.232c0.225,0,0.438,0.033,0.639,0.102
		c0.209,0.064,0.396,0.158,0.563,0.283c0.174,0.129,0.316,0.285,0.432,0.475C294.541,89.953,294.627,90.162,294.678,90.396
		L294.678,90.396z"/>
	<path style="&st0;" d="M297.553,92.271l1.236-3.148l1.193,3.148H297.553L297.553,92.271z M298.484,88.539l-2.48,6.141h0.623
		l0.744-1.908h2.809l0.752,1.908h0.633l-2.422-6.141H298.484L298.484,88.539z"/>
	<path style="&st11;" d="M302.828,92.66h-0.588c-0.018,0.377,0.031,0.701,0.146,0.971c0.123,0.27,0.293,0.49,0.512,0.662
		s0.484,0.301,0.795,0.387c0.311,0.08,0.648,0.119,1.012,0.119s0.674-0.033,0.934-0.102c0.26-0.064,0.475-0.146,0.648-0.25
		c0.178-0.109,0.316-0.229,0.414-0.359c0.104-0.133,0.182-0.262,0.234-0.389c0.057-0.131,0.092-0.256,0.104-0.369
		c0.018-0.115,0.025-0.207,0.025-0.275c0-0.252-0.043-0.467-0.129-0.646c-0.082-0.176-0.195-0.326-0.346-0.447
		c-0.145-0.125-0.314-0.229-0.51-0.309c-0.191-0.086-0.395-0.158-0.613-0.215l-1.506-0.369c-0.127-0.029-0.248-0.066-0.363-0.113
		c-0.109-0.045-0.207-0.105-0.293-0.18s-0.156-0.164-0.207-0.268c-0.047-0.107-0.07-0.234-0.07-0.377
		c0-0.23,0.043-0.422,0.131-0.576c0.086-0.154,0.197-0.279,0.336-0.369c0.145-0.1,0.309-0.168,0.494-0.207
		c0.189-0.045,0.385-0.068,0.588-0.068c0.219,0,0.426,0.029,0.621,0.094c0.201,0.057,0.377,0.146,0.527,0.266
		c0.156,0.115,0.279,0.262,0.373,0.439c0.098,0.172,0.152,0.375,0.164,0.609h0.588c0-0.313-0.064-0.588-0.191-0.824
		c-0.121-0.242-0.285-0.441-0.492-0.602c-0.207-0.162-0.449-0.281-0.727-0.361c-0.275-0.08-0.568-0.121-0.873-0.121
		c-0.432,0-0.787,0.063-1.064,0.189c-0.275,0.121-0.494,0.27-0.656,0.447c-0.154,0.178-0.262,0.367-0.32,0.568
		c-0.057,0.199-0.086,0.375-0.086,0.523c0,0.242,0.037,0.445,0.113,0.611c0.08,0.166,0.184,0.307,0.311,0.42
		c0.127,0.115,0.273,0.207,0.441,0.275c0.172,0.068,0.348,0.127,0.527,0.172l1.375,0.338c0.143,0.033,0.291,0.078,0.439,0.137
		c0.15,0.051,0.287,0.121,0.406,0.205c0.127,0.086,0.229,0.193,0.303,0.318c0.082,0.127,0.121,0.277,0.121,0.447
		c0,0.225-0.055,0.416-0.164,0.578c-0.109,0.152-0.248,0.283-0.414,0.385c-0.162,0.098-0.338,0.17-0.527,0.215
		c-0.191,0.047-0.367,0.068-0.527,0.068c-0.283,0-0.549-0.025-0.795-0.076c-0.248-0.057-0.465-0.148-0.648-0.275
		c-0.18-0.125-0.32-0.295-0.426-0.506C302.873,93.238,302.822,92.975,302.828,92.66L302.828,92.66z"/>
	<polygon style="&st11;" points="197.394,79.51 197.394,85.65 197.982,85.65 197.982,82.725 200.938,82.725 200.938,82.229 
		197.982,82.229 197.982,80.008 201.311,80.008 201.311,79.51 197.394,79.51 	"/>
	<path style="&st0;" d="M203.037,83.242l1.236-3.146l1.193,3.146H203.037L203.037,83.242z M203.971,79.51l-2.481,6.141h0.622
		l0.744-1.91h2.81l0.752,1.91h0.632l-2.422-6.141H203.971L203.971,79.51z"/>
	<path style="&st11;" d="M212.725,81.367h0.588c-0.039-0.322-0.138-0.605-0.293-0.852c-0.15-0.246-0.34-0.453-0.57-0.619
		c-0.225-0.172-0.479-0.301-0.761-0.387c-0.277-0.086-0.562-0.129-0.856-0.129c-0.484,0-0.91,0.088-1.279,0.268
		c-0.363,0.17-0.666,0.404-0.908,0.705c-0.242,0.291-0.424,0.631-0.545,1.014s-0.182,0.789-0.182,1.213s0.061,0.828,0.182,1.211
		c0.121,0.387,0.303,0.723,0.545,1.018c0.242,0.291,0.545,0.525,0.908,0.705c0.369,0.17,0.795,0.258,1.279,0.258
		c0.363,0,0.691-0.059,0.986-0.172c0.299-0.115,0.559-0.279,0.777-0.49c0.219-0.213,0.397-0.471,0.536-0.775
		c0.139-0.303,0.228-0.645,0.269-1.023h-0.589c-0.028,0.275-0.095,0.533-0.198,0.773c-0.104,0.234-0.24,0.443-0.406,0.619
		c-0.167,0.178-0.366,0.318-0.598,0.422c-0.23,0.104-0.489,0.154-0.777,0.154c-0.408,0-0.76-0.076-1.055-0.232
		c-0.294-0.154-0.536-0.357-0.727-0.609c-0.184-0.258-0.322-0.547-0.415-0.869c-0.087-0.326-0.13-0.656-0.13-0.988
		c0-0.34,0.043-0.668,0.13-0.988c0.093-0.322,0.231-0.607,0.415-0.861c0.19-0.258,0.433-0.465,0.727-0.619
		c0.295-0.154,0.646-0.232,1.055-0.232c0.225,0,0.438,0.035,0.64,0.104c0.208,0.064,0.396,0.158,0.562,0.283
		c0.174,0.127,0.317,0.283,0.433,0.473C212.587,80.922,212.674,81.131,212.725,81.367L212.725,81.367z"/>
	<path style="&st11;" d="M214.842,79.51v3.93c0,0.316,0.042,0.617,0.129,0.902c0.092,0.281,0.233,0.527,0.424,0.74
		c0.195,0.213,0.443,0.383,0.743,0.508c0.306,0.119,0.672,0.182,1.098,0.182c0.433,0,0.798-0.063,1.099-0.182
		c0.305-0.125,0.553-0.295,0.743-0.508c0.196-0.213,0.337-0.459,0.423-0.74c0.093-0.285,0.139-0.586,0.139-0.902v-3.93h-0.588v3.801
		c0,0.355-0.04,0.658-0.12,0.912c-0.081,0.246-0.198,0.449-0.354,0.611c-0.156,0.152-0.347,0.268-0.57,0.344
		c-0.226,0.068-0.482,0.102-0.771,0.102c-0.282,0-0.536-0.033-0.761-0.102c-0.225-0.076-0.414-0.191-0.57-0.344
		c-0.156-0.162-0.273-0.365-0.355-0.611c-0.08-0.254-0.12-0.557-0.12-0.912V79.51H214.842L214.842,79.51z"/>
	<polygon style="&st11;" points="221.426,79.51 221.426,85.65 225.472,85.65 225.472,85.15 222.014,85.15 222.014,79.51 
		221.426,79.51 	"/>
	<polygon style="&st11;" points="225.219,79.51 225.219,80.008 227.362,80.008 227.362,85.65 227.95,85.65 227.95,80.008 
		230.104,80.008 230.104,79.51 225.219,79.51 	"/>
	<path style="&st0;" d="M231.57,83.242l1.236-3.146L234,83.242H231.57L231.57,83.242z M232.504,79.51l-2.48,6.141h0.621l0.744-1.91
		h2.809l0.754,1.91h0.631l-2.42-6.141H232.504L232.504,79.51z"/>
	<path style="&st0;" d="M236.746,79.51v6.141h2.135c0.939-0.023,1.646-0.283,2.119-0.783c0.479-0.504,0.717-1.268,0.717-2.287
		c0-1.021-0.238-1.779-0.717-2.279c-0.473-0.506-1.18-0.768-2.119-0.791H236.746L236.746,79.51z M237.334,85.15v-5.143h1.254
		c0.443,0,0.824,0.049,1.141,0.146c0.322,0.092,0.588,0.242,0.795,0.447c0.209,0.207,0.361,0.473,0.459,0.799
		c0.098,0.328,0.146,0.721,0.146,1.18c0,0.457-0.049,0.85-0.146,1.178c-0.098,0.326-0.25,0.594-0.459,0.799
		c-0.207,0.207-0.473,0.359-0.795,0.457c-0.316,0.092-0.697,0.137-1.141,0.137H237.334L237.334,85.15z"/>
	<path style="&st0;" d="M248.34,79.51v6.141h2.135c0.941-0.023,1.646-0.283,2.119-0.783c0.479-0.504,0.717-1.268,0.717-2.287
		c0-1.021-0.238-1.779-0.717-2.279c-0.473-0.506-1.178-0.768-2.119-0.791H248.34L248.34,79.51z M248.928,85.15v-5.143h1.254
		c0.443,0,0.824,0.049,1.143,0.146c0.322,0.092,0.588,0.242,0.795,0.447c0.207,0.207,0.359,0.473,0.457,0.799
		c0.1,0.328,0.146,0.721,0.146,1.18c0,0.457-0.047,0.85-0.146,1.178c-0.098,0.326-0.25,0.594-0.457,0.799
		c-0.207,0.207-0.473,0.359-0.795,0.457c-0.318,0.092-0.699,0.137-1.143,0.137H248.928L248.928,85.15z"/>
	<polygon style="&st11;" points="254.865,79.51 254.865,85.65 259.17,85.65 259.17,85.15 255.453,85.15 255.453,82.725 
		258.895,82.725 258.895,82.229 255.453,82.229 255.453,80.008 259.127,80.008 259.127,79.51 254.865,79.51 	"/>
	<path style="&st11;" d="M270.178,81.367h0.588c-0.041-0.322-0.139-0.605-0.295-0.852c-0.148-0.246-0.34-0.453-0.57-0.619
		c-0.225-0.172-0.479-0.301-0.76-0.387c-0.277-0.086-0.563-0.129-0.857-0.129c-0.484,0-0.91,0.088-1.279,0.268
		c-0.363,0.17-0.666,0.404-0.908,0.705c-0.24,0.291-0.424,0.631-0.543,1.014c-0.121,0.383-0.184,0.789-0.184,1.213
		s0.063,0.828,0.184,1.211c0.119,0.387,0.303,0.723,0.543,1.018c0.242,0.291,0.545,0.525,0.908,0.705
		c0.369,0.17,0.795,0.258,1.279,0.258c0.363,0,0.691-0.059,0.986-0.172c0.301-0.115,0.559-0.279,0.777-0.49
		c0.219-0.213,0.398-0.471,0.537-0.775c0.139-0.303,0.227-0.645,0.268-1.023h-0.588c-0.029,0.275-0.096,0.533-0.199,0.773
		c-0.104,0.234-0.238,0.443-0.406,0.619c-0.166,0.178-0.365,0.318-0.596,0.422s-0.49,0.154-0.779,0.154
		c-0.408,0-0.76-0.076-1.055-0.232c-0.293-0.154-0.535-0.357-0.725-0.609c-0.186-0.258-0.324-0.547-0.416-0.869
		c-0.086-0.326-0.129-0.656-0.129-0.988c0-0.34,0.043-0.668,0.129-0.988c0.092-0.322,0.23-0.607,0.416-0.861
		c0.189-0.258,0.432-0.465,0.725-0.619c0.295-0.154,0.646-0.232,1.055-0.232c0.225,0,0.438,0.035,0.641,0.104
		c0.207,0.064,0.395,0.158,0.563,0.283c0.172,0.127,0.316,0.283,0.432,0.473C270.039,80.922,270.125,81.131,270.178,81.367
		L270.178,81.367z"/>
	<polygon style="&st11;" points="272.396,79.51 272.396,85.65 272.984,85.65 272.984,79.51 272.396,79.51 	"/>
	<polygon style="&st11;" points="274.875,79.51 274.875,85.65 279.18,85.65 279.18,85.15 275.463,85.15 275.463,82.725 
		278.902,82.725 278.902,82.229 275.463,82.229 275.463,80.008 279.137,80.008 279.137,79.51 274.875,79.51 	"/>
	<polygon style="&st11;" points="280.596,79.51 280.596,85.65 281.184,85.65 281.184,80.455 281.199,80.455 284.797,85.65 
		285.453,85.65 285.453,79.51 284.865,79.51 284.865,84.703 284.85,84.703 281.252,79.51 280.596,79.51 	"/>
	<path style="&st11;" d="M291.805,81.367h0.588c-0.039-0.322-0.137-0.605-0.293-0.852c-0.15-0.246-0.34-0.453-0.57-0.619
		c-0.225-0.172-0.479-0.301-0.762-0.387c-0.275-0.086-0.561-0.129-0.855-0.129c-0.484,0-0.91,0.088-1.279,0.268
		c-0.363,0.17-0.666,0.404-0.908,0.705c-0.242,0.291-0.424,0.631-0.545,1.014s-0.182,0.789-0.182,1.213s0.061,0.828,0.182,1.211
		c0.121,0.387,0.303,0.723,0.545,1.018c0.242,0.291,0.545,0.525,0.908,0.705c0.369,0.17,0.795,0.258,1.279,0.258
		c0.363,0,0.691-0.059,0.986-0.172c0.299-0.115,0.559-0.279,0.777-0.49c0.219-0.213,0.398-0.471,0.537-0.775
		c0.137-0.303,0.227-0.645,0.268-1.023h-0.588c-0.029,0.275-0.096,0.533-0.199,0.773c-0.104,0.234-0.24,0.443-0.406,0.619
		c-0.168,0.178-0.365,0.318-0.596,0.422c-0.232,0.104-0.492,0.154-0.779,0.154c-0.408,0-0.76-0.076-1.055-0.232
		c-0.293-0.154-0.535-0.357-0.727-0.609c-0.184-0.258-0.322-0.547-0.414-0.869c-0.086-0.326-0.131-0.656-0.131-0.988
		c0-0.34,0.045-0.668,0.131-0.988c0.092-0.322,0.23-0.607,0.414-0.861c0.191-0.258,0.434-0.465,0.727-0.619
		c0.295-0.154,0.646-0.232,1.055-0.232c0.225,0,0.438,0.035,0.639,0.104c0.209,0.064,0.396,0.158,0.563,0.283
		c0.174,0.127,0.318,0.283,0.434,0.473C291.666,80.922,291.754,81.131,291.805,81.367L291.805,81.367z"/>
	<polygon style="&st11;" points="294.025,79.51 294.025,85.65 294.613,85.65 294.613,79.51 294.025,79.51 	"/>
	<path style="&st0;" d="M297.377,83.242l1.236-3.146l1.193,3.146H297.377L297.377,83.242z M298.311,79.51l-2.482,6.141h0.623
		l0.744-1.91h2.809l0.754,1.91h0.631l-2.422-6.141H298.311L298.311,79.51z"/>
	<path style="&st11;" d="M302.828,83.629h-0.588c-0.018,0.379,0.031,0.701,0.146,0.971c0.123,0.27,0.293,0.492,0.512,0.662
		c0.219,0.174,0.484,0.301,0.795,0.389c0.311,0.08,0.648,0.121,1.012,0.121s0.674-0.037,0.934-0.105
		c0.26-0.061,0.475-0.146,0.648-0.248c0.178-0.109,0.316-0.23,0.414-0.361c0.104-0.131,0.182-0.262,0.234-0.387
		c0.057-0.133,0.092-0.256,0.104-0.371c0.018-0.115,0.025-0.207,0.025-0.275c0-0.25-0.043-0.467-0.129-0.643
		c-0.082-0.18-0.195-0.328-0.346-0.447c-0.145-0.127-0.314-0.23-0.51-0.311c-0.191-0.086-0.395-0.158-0.613-0.217l-1.506-0.367
		c-0.127-0.031-0.248-0.066-0.363-0.113c-0.109-0.045-0.207-0.105-0.293-0.182c-0.086-0.074-0.156-0.162-0.207-0.266
		c-0.047-0.109-0.07-0.234-0.07-0.377c0-0.23,0.043-0.422,0.131-0.578c0.086-0.154,0.197-0.277,0.336-0.369
		c0.145-0.098,0.309-0.166,0.494-0.207c0.189-0.045,0.385-0.068,0.588-0.068c0.219,0,0.426,0.033,0.621,0.096
		c0.201,0.057,0.377,0.146,0.527,0.266c0.156,0.115,0.279,0.26,0.373,0.439c0.098,0.17,0.152,0.375,0.164,0.611h0.588
		c0-0.316-0.064-0.592-0.191-0.828c-0.121-0.24-0.285-0.439-0.492-0.6c-0.207-0.162-0.449-0.281-0.727-0.363
		c-0.275-0.08-0.568-0.119-0.873-0.119c-0.432,0-0.787,0.063-1.064,0.188c-0.275,0.121-0.494,0.271-0.656,0.447
		c-0.154,0.178-0.262,0.367-0.32,0.57c-0.057,0.199-0.086,0.375-0.086,0.523c0,0.24,0.037,0.443,0.113,0.609
		c0.08,0.166,0.184,0.307,0.311,0.422s0.273,0.207,0.441,0.275c0.172,0.07,0.348,0.125,0.527,0.172l1.375,0.336
		c0.143,0.035,0.291,0.08,0.439,0.137c0.15,0.053,0.287,0.121,0.406,0.207c0.127,0.086,0.229,0.191,0.303,0.318
		c0.082,0.125,0.121,0.275,0.121,0.447c0,0.223-0.055,0.416-0.164,0.576c-0.109,0.154-0.248,0.283-0.414,0.387
		c-0.162,0.098-0.338,0.168-0.527,0.215c-0.191,0.045-0.367,0.068-0.527,0.068c-0.283,0-0.549-0.025-0.795-0.076
		c-0.248-0.059-0.465-0.15-0.648-0.275c-0.18-0.125-0.32-0.297-0.426-0.508C302.873,84.207,302.822,83.943,302.828,83.629
		L302.828,83.629z"/>
</g>
</svg>
