<?xml version="1.0" encoding="utf-8"?>
<!-- Generator: Adobe Illustrator 16.0.0, SVG Export Plug-In . SVG Version: 6.00 Build 0)  -->
<!DOCTYPE svg PUBLIC "-//W3C//DTD SVG 1.1//EN" "http://www.w3.org/Graphics/SVG/1.1/DTD/svg11.dtd" [
	<!ENTITY ns_extend "http://ns.adobe.com/Extensibility/1.0/">
	<!ENTITY ns_ai "http://ns.adobe.com/AdobeIllustrator/10.0/">
	<!ENTITY ns_graphs "http://ns.adobe.com/Graphs/1.0/">
	<!ENTITY ns_vars "http://ns.adobe.com/Variables/1.0/">
	<!ENTITY ns_imrep "http://ns.adobe.com/ImageReplacement/1.0/">
	<!ENTITY ns_sfw "http://ns.adobe.com/SaveForWeb/1.0/">
	<!ENTITY ns_custom "http://ns.adobe.com/GenericCustomNamespace/1.0/">
	<!ENTITY ns_adobe_xpath "http://ns.adobe.com/XPath/1.0/">
]>
<svg version="1.1" id="Layer_1" xmlns:x="&ns_extend;" xmlns:i="&ns_ai;" xmlns:graph="&ns_graphs;"
	 xmlns="http://www.w3.org/2000/svg" xmlns:xlink="http://www.w3.org/1999/xlink" x="0px" y="0px" width="193px" height="158px"
	 viewBox="0 0 193 158" enable-background="new 0 0 193 158" xml:space="preserve">
<metadata>
	<sfw  xmlns="&ns_sfw;">
		<slices></slices>
		<sliceSourceBounds  height="126.314" width="158.588" bottomLeftOrigin="true" y="-141.143" x="16.152"></sliceSourceBounds>
	</sfw>
</metadata>
<path fill="none" stroke="#626B71" stroke-width="0.735" stroke-miterlimit="3.863" d="M52.526,43.905V90.77
	c0,0.896-0.723,1.621-1.615,1.621H36.222c-0.982-0.023-1.692,1.617-1.692,1.617s-0.713-1.641-1.739-1.617
	c0.001-0.002-14.655,0-14.655,0c-0.892,0-1.615-0.726-1.615-1.621L16.52,43.908L52.526,43.905z"/>
<path fill="none" stroke="#626B71" stroke-width="0.366" stroke-miterlimit="3.864" d="M39.923,51.366l-1.431-2.281
	c-1.714,0.397-1.294-1.091-0.364-1.674c1.021-0.641,2.175-0.415,1.434,1.002c0,0,0.329,0.536,0.882,1.412
	C40.444,49.825,40.068,50.541,39.923,51.366z"/>
<path fill="none" stroke="#626B71" stroke-width="0.366" stroke-miterlimit="3.864" d="M46.254,59.017l3.899,6.191l-0.286,0.288
	L48.5,64.411c0,0-0.083-0.904-0.3-1.091c-0.733-0.633-0.298-0.982-0.583-1.571c-0.283-0.586-1.95-1.038-2.337-1.92
	c0.008,0.043-0.641-1.029-0.641-1.029C46.124,58.539,46.254,59.017,46.254,59.017z"/>
<path fill="none" stroke="#626B71" stroke-width="0.366" stroke-miterlimit="3.864" d="M41.683,51.715
	c-0.007-0.015,1.385,2.278,1.38,2.25c-0.861-0.106-1.279-0.353-1.451-0.816C41.409,52.627,41.567,51.932,41.683,51.715z"/>
<line fill="none" stroke="#626B71" stroke-width="0.366" stroke-miterlimit="3.864" x1="20.844" y1="73.515" x2="23.889" y2="81.199"/>
<line fill="none" stroke="#626B71" stroke-width="0.366" stroke-miterlimit="3.864" x1="21.092" y1="73.737" x2="23.918" y2="79.199"/>
<line fill="none" stroke="#626B71" stroke-width="0.366" stroke-miterlimit="3.864" x1="21.298" y1="73.821" x2="23.868" y2="77.678"/>
<line fill="none" stroke="#626B71" stroke-width="0.366" stroke-miterlimit="3.864" x1="21.452" y1="73.752" x2="23.808" y2="76.553"/>
<line fill="none" stroke="#626B71" stroke-width="0.366" stroke-miterlimit="3.864" x1="21.423" y1="73.491" x2="24.834" y2="76.716"/>
<line fill="none" stroke="#626B71" stroke-width="0.366" stroke-miterlimit="3.864" x1="21.394" y1="73.303" x2="26.068" y2="76.801"/>
<line fill="none" stroke="#626B71" stroke-width="0.366" stroke-miterlimit="3.864" x1="21.322" y1="73.144" x2="28.186" y2="77.172"/>
<polygon fill="none" stroke="#626B71" stroke-width="0.366" stroke-miterlimit="3.864" points="25.032,60.888 24.927,63.262 
	26.311,63.262 26.206,60.886 "/>
<polygon fill="none" stroke="#626B71" stroke-width="0.366" stroke-miterlimit="3.864" points="26.181,60.234 25.619,47.498 
	25.042,60.234 "/>
<rect x="23.283" y="60.248" fill="none" stroke="#626B71" stroke-width="0.366" stroke-miterlimit="3.864" width="4.672" height="0.638"/>
<path fill="none" stroke="#626B71" stroke-width="0.366" stroke-miterlimit="3.864" d="M27.092,63.266
	c0,0.956-0.659,1.616-1.473,1.616s-1.474-0.66-1.474-1.616H27.092z"/>
<path fill="none" stroke="#626B71" stroke-width="0.366" stroke-miterlimit="3.864" d="M23.474,54.45c0,1.221-1.008,2.21-2.251,2.21
	c-1.243,0-2.251-0.989-2.251-2.21H23.474z"/>
<path fill="none" stroke="#626B71" stroke-width="0.366" stroke-miterlimit="3.864" d="M41.957,51.251c0,0,0.497,0.675,1.029,0.36
	c0.975-0.576-0.229-3.859-2.236-2.188c-0.441,0.367-1.032,2.073-0.917,3.168c0.115,1.095,0.601,2.479,1.834,2.766
	c0.746,0.172,2.228-0.241,2.845,0.772c0.458-0.172,0.959-1.981-0.321-2.04c-1.262-0.058-2.33-0.273-2.524-0.807
	C41.209,52.015,41.957,51.251,41.957,51.251z"/>
<path fill="none" stroke="#626B71" stroke-width="0.366" stroke-miterlimit="3.864" d="M43.094,56.385
	c-0.496,0.241-0.859,0.815-0.686,1.453c0.173,0.638,0.947,1.02,2.043,0.962c0.06-0.004,0.118-0.007,0.174-0.012
	c0.97-0.071,1.403-0.188,1.73,0.36c0.346-0.406,0.245-1.31-0.247-1.729C45.358,56.781,43.413,57.592,43.094,56.385z"/>
<path fill="none" stroke="#626B71" stroke-width="0.366" stroke-miterlimit="3.864" d="M45.259,59.843
	c-0.115,0.521-0.468,1.22-0.173,1.854c0.403,0.87,1.153,0.407,1.384,0.928c0.231,0.522,0.009,1.298,0.519,1.448
	c0.98,0.29,0.635,1.276,1.154,1.218c0.459-0.052,0.475-1.591,0-2.029c-0.692-0.637-0.231-1.101-0.577-1.622
	C47.22,61.117,45.951,60.886,45.259,59.843z"/>
<circle fill="none" stroke="#626B71" stroke-width="0.235" stroke-miterlimit="3.864" cx="35.235" cy="63.085" r="0.065"/>
<ellipse transform="matrix(-0.3394 -0.9407 0.9407 -0.3394 9.6507 107.417)" fill="none" stroke="#626B71" stroke-width="0.235" stroke-miterlimit="3.864" cx="42.546" cy="50.32" rx="0.23" ry="0.18"/>
<ellipse fill="none" stroke="#626B71" stroke-width="0.366" stroke-miterlimit="3.864" cx="27.943" cy="81.203" rx="3.32" ry="3.336"/>
<polygon fill="none" stroke="#626B71" stroke-width="0.366" stroke-miterlimit="3.864" points="31.377,89.402 29.762,89.402 
	29.762,86.284 19.829,86.284 19.829,84.689 31.377,84.689 "/>
<circle fill="none" stroke="#626B71" stroke-width="0.366" stroke-miterlimit="3.864" cx="21.943" cy="81.568" r="0.678"/>
<polyline fill="none" stroke="#626B71" stroke-width="0.366" stroke-miterlimit="3.864" points="21.296,81.373 20.136,84.672 
	21.928,82.251 "/>
<polyline fill="none" stroke="#626B71" stroke-width="0.366" stroke-miterlimit="3.864" points="22.591,81.373 23.75,84.672 
	21.958,82.251 "/>
<path fill="none" stroke="#626B71" stroke-width="0.366" stroke-miterlimit="3.864" d="M25.1,79.635
	c-0.168,0.911,1.528,0.898,1.384,1.391c-0.348,1.188,0.346,1.145,0.462,1.768c0,0-0.116,1.479,0.288,1.594
	c0.231-0.318,0.057-0.941,0.346-1.275c0.303-0.346,0.721-0.535,0.721-1.158c0-0.449-0.624-0.594-0.807-0.725
	c-0.203-0.145-0.577-0.261-0.837-0.261c0,0-0.663-1.276-0.461-1.507c0.23-0.203,0.577,0.289,0.721,0.289
	c0.303,0,0.36-0.607,0.836-0.607c0-0.146-0.029-0.595-0.115-0.638c-0.476,0-0.779,0.231-1.183-0.261
	C26.455,78.244,25.268,78.725,25.1,79.635z"/>
<path fill="none" stroke="#626B71" stroke-width="0.366" stroke-miterlimit="3.864" d="M28.979,77.997
	c-0.37-0.142-0.937-0.087-0.937-0.087c0.49,0.232,0.461,0.884,0.663,0.884c0.404,0,0.605-0.333,1.009-0.405
	C29.714,78.389,29.35,78.141,28.979,77.997z"/>
<path fill="none" stroke="#626B71" stroke-width="0.366" stroke-miterlimit="3.864" d="M31.231,80.546
	c0-0.835-1.113-1.866-1.113-1.866s-0.548,1.012-0.288,2.055c0.259,0.031,1.009-0.057,1.009-0.057
	c0.188,0.088,0.115,0.391,0.115,0.58c0,0.463-0.144,1.651-0.144,1.651S31.231,81.381,31.231,80.546z"/>
<polygon fill="none" stroke="#626B71" stroke-width="0.235" stroke-miterlimit="3.864" points="20.743,71.717 20.404,72.449 
	19.622,72.544 20.194,73.084 20.04,73.863 20.731,73.483 21.439,73.871 21.3,73.076 21.857,72.544 21.074,72.434 "/>
<line fill="none" stroke="#626B71" stroke-width="0.735" stroke-miterlimit="3.863" x1="34.523" y1="74.044" x2="34.523" y2="93.878"/>
<path fill="none" stroke="#626B71" stroke-width="0.366" stroke-linecap="round" stroke-linejoin="round" stroke-miterlimit="3.864" d="
	M37.386,83.691l-0.852,0.97c-0.115,0.132-0.054,1.03,0.004,1.286c0.673,0.271,10.216,3.271,10.216,3.271l3.882-4.23l-0.607-0.262
	c-0.172-0.275,0.377-1.207,0.377-1.207l-1.879-0.74"/>
<path fill="none" stroke="#626B71" stroke-width="0.366" stroke-linecap="round" stroke-linejoin="round" stroke-miterlimit="3.864" d="
	M46.758,87.343c-0.151,0.123-0.115,1.71,0.008,1.886c0.007-0.002,3.87-4.24,3.87-4.24l-0.401-0.364
	c-0.034-0.38,0.068-1.07,0.068-1.07L46.758,87.343z"/>
<path fill="none" stroke="#626B71" stroke-width="0.366" stroke-linecap="round" stroke-linejoin="round" stroke-miterlimit="3.864" d="
	M46.398,84.734c-0.159,0.074-0.254,2.15-0.038,2.166c0.001-0.004,3.188-3.623,3.188-3.623l-0.309-0.172L46.398,84.734z"/>
<path fill="none" stroke="#626B71" stroke-width="0.235" stroke-linecap="round" stroke-linejoin="round" stroke-miterlimit="3.864" d="
	M38.553,81.988l-0.996,1.019c-0.143,0.076-0.035,1.029,0,1.297c0.348,0.097,8.798,2.604,8.798,2.604l3.181-3.659l-1.009-0.361"/>
<path fill="none" stroke="#626B71" stroke-width="0.366" stroke-miterlimit="3.864" d="M47.78,76.692v6.058
	c-0.827-0.197-3.934-0.594-4.252-0.102c-0.259-0.492-2.756-0.27-4.257,0.063v-5.83c-0.191,0.844-0.763,1.149-0.763,1.149v5.139
	l4.429-0.318c0.49,0.318,1.053,0.115,1.24,0.029l4.252,0.139v-5.751C48.429,77.268,48.009,77.229,47.78,76.692z"/>
<path fill="none" stroke="#626B71" stroke-width="0.366" stroke-miterlimit="3.864" d="M47.78,82.75
	c-0.905,0-3.603-0.725-4.237-0.087c0.577-0.015,0.591,0.362,0,0.377c-0.635-0.044-0.534-0.406,0-0.362
	c-0.548-0.71-4.264,0.146-4.264,0.146l-0.008-5.942c1.03,0,2.099-0.497,2.824-0.497s1.488,0.307,1.488,0.307s1.141-0.46,1.946-0.46
	c0.954,0,1.446,0.778,2.209,0.509C47.723,77.111,47.78,82.75,47.78,82.75z"/>
<line fill="none" stroke="#626B71" stroke-width="0.235" stroke-miterlimit="3.864" x1="43.569" y1="76.702" x2="43.534" y2="82.645"/>
<path fill="none" stroke="#626B71" stroke-width="0.254" stroke-miterlimit="3.864" d="M39.145,84.793l-0.319,0.324
	c-0.147,0.169-0.15,1.506,0.004,1.574c-0.005,0.024,0.689,0.203,0.381,0.061c-0.066-0.43-0.039-1.357,0.077-1.49l0.347-0.339
	L39.145,84.793z"/>
<path fill="none" stroke="#626B71" stroke-width="0.254" stroke-miterlimit="3.864" d="M40.255,85.111l-0.305,0.324
	c-0.147,0.17-0.208,1.545-0.055,1.612c-0.004,0.024,0.749,0.165,0.441,0.022c-0.067-0.428-0.039-1.357,0.076-1.49l0.323-0.322
	L40.255,85.111z"/>
<path fill="none" stroke="#626B71" stroke-width="0.254" stroke-miterlimit="3.864" d="M42.952,85.908l-0.363,0.382
	c-0.147,0.17-0.224,1.476-0.072,1.543c-0.004,0.024,0.766,0.233,0.458,0.093c-0.067-0.43-0.039-1.357,0.076-1.49l0.391-0.396
	L42.952,85.908z"/>
<path fill="none" stroke="#626B71" stroke-width="0.254" stroke-miterlimit="3.864" d="M43.976,86.229l-0.363,0.381
	c-0.147,0.168-0.21,1.484-0.057,1.553c-0.004,0.025,0.751,0.224,0.443,0.082c-0.067-0.428-0.04-1.357,0.076-1.49l0.391-0.396
	L43.976,86.229z"/>
<path fill="none" stroke="#626B71" stroke-width="0.254" stroke-miterlimit="3.864" d="M39.144,83.135l-0.243,0.247
	c-0.111,0.129-0.133,1.25-0.018,1.302c-0.003,0.02,0.317,0.129,0.361,0.111c0.047-0.001-0.027-0.117-0.05-0.171
	c-0.05-0.326-0.03-1.031,0.058-1.132l0.264-0.258L39.144,83.135z"/>
<path fill="none" stroke="#626B71" stroke-width="0.366" stroke-miterlimit="3.864" d="M43.584,76.649
	c-1.152-0.031-1.467-0.952-1.467-0.952l0.448-0.017c0,0-0.563-0.344-0.437-0.68c-0.01-0.016,0.391,0.044,0.391,0.044
	s-0.168-0.462-0.015-0.767l0.359,0.151c0.103-0.613,0.738-0.756,0.738-0.756s0.591,0.078,0.764,0.756l0.359-0.151
	c0.152,0.305-0.013,0.767-0.013,0.767s0.401-0.06,0.391-0.044c0.126,0.336-0.437,0.68-0.437,0.68l0.448,0.017
	C45.113,75.697,44.737,76.618,43.584,76.649z"/>
<line fill="none" stroke="#626B71" stroke-width="0.735" stroke-miterlimit="3.863" x1="16.488" y1="68.441" x2="28.928" y2="68.441"/>
<line fill="none" stroke="#626B71" stroke-width="0.708" stroke-miterlimit="3.864" x1="40.166" y1="68.441" x2="52.506" y2="68.441"/>
<polygon fill="none" stroke="#FFFFFF" stroke-width="0.366" stroke-miterlimit="3.864" points="34.54,63.844 38.508,70.822 
	30.538,70.822 "/>
<path fill="none" stroke="#626B71" stroke-width="0.366" stroke-miterlimit="3.864" d="M34.506,67.294
	c1.435,0,2.683,1.181,2.669,1.369c0.013,0.176-1.234,1.36-2.669,1.36c-1.436,0-2.686-1.184-2.673-1.36
	C31.819,68.475,33.02,67.238,34.506,67.294z"/>
<circle fill="none" stroke="#626B71" stroke-width="0.366" stroke-miterlimit="3.864" cx="34.504" cy="68.657" r="1.337"/>
<path fill="#626B71" d="M34.336,68.657c0-0.092,0.075-0.168,0.168-0.168c0.093,0,0.168,0.076,0.168,0.168
	c0,0.094-0.075,0.169-0.168,0.169C34.411,68.826,34.336,68.751,34.336,68.657"/>
<circle fill="none" stroke="#626B71" stroke-width="0.235" stroke-miterlimit="3.864" cx="34.504" cy="68.657" r="0.168"/>
<path fill="none" stroke="#626B71" stroke-width="0.366" stroke-miterlimit="3.864" d="M34.544,63.697
	c-2.621,0-4.768,2.143-4.768,4.777c0,2.634,2.125,4.769,4.747,4.769c2.621,0,4.746-2.135,4.746-4.769
	c0-2.37-1.719-4.336-3.973-4.707c-0.838,0.06-0.882-0.244-0.911-0.404c-0.077-0.427,0.481-0.68,0.88-0.68
	c0.692,0,0.634,0.405,1.049,0.492c2.205,0.75,3.793,2.847,3.793,5.316c0,3.099-2.5,5.612-5.584,5.612s-5.585-2.513-5.585-5.612
	c0-3.099,2.319-5.49,5.433-5.258C34.324,63.438,34.544,63.697,34.544,63.697z"/>
<polygon fill="none" stroke="#626B71" stroke-width="0.657" stroke-miterlimit="3.863" points="34.516,24.171 32.807,27.625 
	28.946,28.185 31.729,30.945 31.155,34.689 34.516,32.982 37.877,34.689 37.259,30.91 39.954,28.266 36.25,27.66 "/>
<line fill="none" stroke="#626B71" stroke-width="0.339" stroke-miterlimit="3.863" x1="34.516" y1="24.295" x2="34.516" y2="32.982"/>
<line fill="none" stroke="#626B71" stroke-width="0.339" stroke-miterlimit="3.863" x1="29.078" y1="28.265" x2="37.259" y2="30.91"/>
<line fill="none" stroke="#626B71" stroke-width="0.339" stroke-miterlimit="3.863" x1="31.155" y1="34.689" x2="36.25" y2="27.66"/>
<line fill="none" stroke="#626B71" stroke-width="0.339" stroke-miterlimit="3.863" x1="37.877" y1="34.689" x2="32.807" y2="27.625"/>
<line fill="none" stroke="#626B71" stroke-width="0.339" stroke-miterlimit="3.863" x1="39.954" y1="28.266" x2="31.729" y2="30.945"/>
<line fill="none" stroke="#626B71" stroke-width="0.657" stroke-miterlimit="3.863" x1="31.684" y1="30.98" x2="20.117" y2="34.791"/>
<line fill="none" stroke="#626B71" stroke-width="0.657" stroke-miterlimit="3.863" x1="48.86" y1="25.319" x2="39.96" y2="28.252"/>
<line fill="none" stroke="#626B71" stroke-width="0.657" stroke-miterlimit="3.863" x1="32.797" y1="27.617" x2="25.654" y2="17.759"/>
<line fill="none" stroke="#626B71" stroke-width="0.657" stroke-miterlimit="3.863" x1="44.469" y1="43.918" x2="37.813" y2="34.663"/>
<line fill="none" stroke="#626B71" stroke-width="0.657" stroke-miterlimit="3.863" x1="36.256" y1="27.65" x2="43.365" y2="17.717"/>
<line fill="none" stroke="#626B71" stroke-width="0.657" stroke-miterlimit="3.863" x1="24.409" y1="43.918" x2="31.147" y2="34.664"/>
<line fill="none" stroke="#626B71" stroke-width="0.657" stroke-miterlimit="3.863" x1="29.04" y1="28.255" x2="20.159" y2="25.319"/>
<line fill="none" stroke="#626B71" stroke-width="0.657" stroke-miterlimit="3.863" x1="48.817" y1="34.791" x2="37.303" y2="30.934"/>
<line fill="none" stroke="#626B71" stroke-width="0.657" stroke-miterlimit="3.863" x1="34.516" y1="14.829" x2="34.516" y2="24.519"/>
<line fill="none" stroke="#626B71" stroke-width="0.339" stroke-miterlimit="3.863" x1="31.527" y1="32.304" x2="26.776" y2="35.74"/>
<line fill="none" stroke="#626B71" stroke-width="0.339" stroke-miterlimit="3.863" x1="42.276" y1="24.426" x2="37.601" y2="27.838"/>
<line fill="none" stroke="#626B71" stroke-width="0.339" stroke-miterlimit="3.863" x1="33.4" y1="33.577" x2="31.579" y2="39.21"/>
<line fill="none" stroke="#626B71" stroke-width="0.339" stroke-miterlimit="3.863" x1="37.509" y1="20.868" x2="35.703" y2="26.455"/>
<line fill="none" stroke="#626B71" stroke-width="0.339" stroke-miterlimit="3.863" x1="35.663" y1="33.581" x2="37.471" y2="39.172"/>
<line fill="none" stroke="#626B71" stroke-width="0.339" stroke-miterlimit="3.863" x1="31.537" y1="20.817" x2="33.373" y2="26.499"/>
<line fill="none" stroke="#626B71" stroke-width="0.339" stroke-miterlimit="3.863" x1="37.469" y1="32.225" x2="42.19" y2="35.671"/>
<line fill="none" stroke="#626B71" stroke-width="0.339" stroke-miterlimit="3.863" x1="26.69" y1="24.355" x2="31.401" y2="27.794"/>
<line fill="none" stroke="#626B71" stroke-width="0.339" stroke-miterlimit="3.863" x1="38.187" y1="30.079" x2="44.139" y2="30.08"/>
<line fill="none" stroke="#626B71" stroke-width="0.339" stroke-miterlimit="3.863" x1="24.935" y1="30.079" x2="30.796" y2="30.079"/>
<path fill="none" stroke="#626B71" stroke-width="0.366" stroke-miterlimit="3.864" d="M44.278,55.844
	c0.261,0.388,0.793,1.289,0.779,1.289c0,0-1.255,0.088-1.702-0.333c-0.098-0.149-0.851-1.366-0.851-1.366
	S44.018,55.457,44.278,55.844z"/>
<polygon fill="none" stroke="#626B71" stroke-width="0.366" stroke-miterlimit="3.864" points="21.219,49.326 19,54.433 
	23.442,54.444 "/>
<path fill="none" stroke="#626B71" stroke-width="0.366" stroke-miterlimit="3.864" d="M27.821,54.45c0,1.221,1.009,2.21,2.251,2.21
	c1.244,0,2.252-0.989,2.252-2.21H27.821z"/>
<polygon fill="none" stroke="#626B71" stroke-width="0.366" stroke-miterlimit="3.864" points="30.076,49.326 32.295,54.433 
	27.854,54.444 "/>
<line fill="none" stroke="#626B71" stroke-width="0.366" stroke-miterlimit="3.864" x1="24.97" y1="62.929" x2="26.297" y2="62.306"/>
<line fill="none" stroke="#626B71" stroke-width="0.366" stroke-miterlimit="3.864" x1="24.927" y1="62.074" x2="26.254" y2="61.451"/>
<polygon fill="none" stroke="#626B71" stroke-width="0.235" stroke-miterlimit="3.864" points="25.59,49.237 21.221,49.237 
	21.221,48.715 25.547,48.715 "/>
<polygon fill="none" stroke="#626B71" stroke-width="0.235" stroke-miterlimit="3.864" points="25.663,48.715 30.06,48.715 
	30.06,49.237 25.691,49.237 "/>
<path fill="none" stroke="#626B71" stroke-width="0.235" stroke-miterlimit="3.864" d="M40.414,78.002
	c0.605-0.019,1.386-0.619,2.253-0.329"/>
<path fill="none" stroke="#626B71" stroke-width="0.235" stroke-miterlimit="3.864" d="M40.409,78.666
	c0.604-0.02,1.39-0.592,2.257-0.301"/>
<path fill="none" stroke="#626B71" stroke-width="0.235" stroke-miterlimit="3.864" d="M40.403,79.329
	c0.605-0.019,1.396-0.562,2.263-0.272"/>
<path fill="none" stroke="#626B71" stroke-width="0.235" stroke-miterlimit="3.864" d="M40.398,79.993
	c0.605-0.019,1.4-0.534,2.267-0.244"/>
<path fill="none" stroke="#626B71" stroke-width="0.235" stroke-miterlimit="3.864" d="M40.393,80.656
	c0.605-0.018,1.404-0.506,2.271-0.215"/>
<path fill="none" stroke="#626B71" stroke-width="0.235" stroke-miterlimit="3.864" d="M40.387,81.32
	c0.605-0.018,1.409-0.478,2.276-0.188"/>
<path fill="none" stroke="#626B71" stroke-width="0.235" stroke-miterlimit="3.864" d="M46.738,77.807
	c-0.605-0.019-1.412-0.424-2.279-0.134"/>
<path fill="none" stroke="#626B71" stroke-width="0.235" stroke-miterlimit="3.864" d="M46.739,78.506
	c-0.606-0.02-1.412-0.432-2.279-0.141"/>
<path fill="none" stroke="#626B71" stroke-width="0.235" stroke-miterlimit="3.864" d="M46.739,79.205
	c-0.605-0.018-1.411-0.438-2.278-0.148"/>
<path fill="none" stroke="#626B71" stroke-width="0.235" stroke-miterlimit="3.864" d="M46.74,79.904
	c-0.605-0.019-1.412-0.445-2.278-0.155"/>
<path fill="none" stroke="#626B71" stroke-width="0.235" stroke-miterlimit="3.864" d="M46.74,80.604
	c-0.604-0.019-1.411-0.453-2.278-0.162"/>
<path fill="none" stroke="#626B71" stroke-width="0.235" stroke-miterlimit="3.864" d="M46.741,81.303
	c-0.605-0.02-1.411-0.46-2.278-0.17"/>
<polygon fill="none" stroke="#626B71" stroke-width="0.366" stroke-miterlimit="3.864" points="34.54,63.844 38.508,70.822 
	30.538,70.822 "/>
<path fill="none" stroke="#626B71" stroke-width="0.254" stroke-miterlimit="3.864" d="M39.991,83.339l-0.242,0.246
	c-0.112,0.129-0.134,1.25-0.018,1.303c0.055,0.03,0.317,0.154,0.36,0.138c0.047,0-0.033-0.144-0.049-0.198
	c-0.051-0.325-0.03-1.031,0.058-1.132l0.264-0.258L39.991,83.339z"/>
<polyline fill-rule="evenodd" clip-rule="evenodd" fill="#626B71" points="34.119,32.982 34.844,32.982 34.844,62.594 
	34.507,63.052 34.371,63.233 34.144,63.078 34.119,32.982 "/>
<path fill="none" stroke="#626B71" stroke-width="0.254" stroke-miterlimit="3.864" d="M43.434,84.331l-0.242,0.246
	c-0.111,0.129-0.134,1.251-0.017,1.303c-0.004,0.019,0.316,0.128,0.359,0.11c0.047,0-0.026-0.116-0.049-0.17
	c-0.051-0.326-0.03-1.032,0.058-1.133l0.264-0.256L43.434,84.331z"/>
<path fill="none" stroke="#626B71" stroke-width="0.254" stroke-miterlimit="3.864" d="M44.282,84.534l-0.242,0.245
	c-0.112,0.13-0.134,1.252-0.018,1.304c0.055,0.03,0.317,0.153,0.36,0.138c0.047-0.001-0.033-0.144-0.049-0.197
	c-0.051-0.326-0.03-1.031,0.058-1.133l0.264-0.257L44.282,84.534z"/>
<path fill="#EC2227" d="M116.873,58.236h4.419V66.6h-4.419v23.775c-0.989,8.398-6.451,14.686-15.299,14.336v-8.359
	c3.771,0.127,6.015-1.313,6.407-5.781l0.023-23.97h-4.166v-8.364h4.166l0.004-5.623c0.208-8.86,5.642-15.375,15.449-14.247v8.288
	c-4.196-0.331-6.544,1.373-6.584,6.027L116.873,58.236"/>
<line fill="none" stroke="#626B71" stroke-width="0.726" stroke-miterlimit="3.864" x1="174.377" y1="104.613" x2="174.377" y2="38.211"/>
<line fill="none" stroke="#626B71" stroke-width="0.726" stroke-miterlimit="3.864" x1="65.137" y1="104.613" x2="65.137" y2="38.197"/>
<path fill-rule="evenodd" clip-rule="evenodd" fill="#626B71" d="M73.966,58.37c0-4.746,2.352-6.483,6.585-6.149v-8.288
	c-9.877-1.136-15.319,5.48-15.453,14.437v34.287h8.868V66.191h6.249V58.37H73.966"/>
<path fill-rule="evenodd" clip-rule="evenodd" fill="#626B71" d="M95.797,92.656h6.92v-8.555h-6.181
	c-5.577,0-9.138-3.809-9.138-8.688s3.561-8.689,9.138-8.689h6.181v-8.489h-6.92c-10.549,0-17.268,7.553-17.268,17.178
	C78.529,85.038,85.248,92.656,95.797,92.656"/>
<path fill-rule="evenodd" clip-rule="evenodd" fill="#626B71" d="M174.27,72.759c0-9.02-5.71-15.367-15.381-15.367
	c-4.5,0-8.396,1.871-11.016,4.877c-2.485-3.006-6.313-4.877-11.016-4.877c-9.47,0-15.582,6.614-15.582,15.367V92.67h8.866V72.559
	c0-3.875,2.754-6.548,6.716-6.548c5.845,0,6.449,4.61,6.449,6.548V92.67h8.866V72.559c0-3.875,2.82-6.548,6.716-6.548
	c5.844,0,6.515,4.61,6.515,6.548V92.67h8.866V72.759"/>
<path fill-rule="evenodd" clip-rule="evenodd" fill="#626B71" d="M64.816,134.882v3.931c0,0.315,0.043,0.616,0.13,0.902
	c0.092,0.281,0.233,0.528,0.423,0.74c0.196,0.212,0.444,0.381,0.744,0.507c0.305,0.12,0.671,0.181,1.098,0.181
	c0.432,0,0.798-0.061,1.098-0.181c0.305-0.126,0.553-0.295,0.743-0.507c0.196-0.212,0.338-0.459,0.424-0.74
	c0.092-0.286,0.138-0.587,0.138-0.902v-3.931h-0.588v3.802c0,0.355-0.04,0.659-0.121,0.911c-0.08,0.247-0.199,0.45-0.354,0.61
	c-0.156,0.154-0.346,0.27-0.571,0.345c-0.224,0.068-0.481,0.103-0.769,0.103c-0.283,0-0.536-0.034-0.761-0.103
	c-0.225-0.075-0.415-0.19-0.571-0.345c-0.155-0.16-0.273-0.363-0.354-0.61c-0.081-0.252-0.121-0.556-0.121-0.911v-3.802H64.816"/>
<polyline fill-rule="evenodd" clip-rule="evenodd" fill="#626B71" points="71.419,134.882 71.419,141.023 72.007,141.023 
	72.007,135.828 72.024,135.828 75.621,141.023 76.278,141.023 76.278,134.882 75.69,134.882 75.69,140.076 75.672,140.076 
	72.076,134.882 71.419,134.882 "/>
<rect x="78.186" y="134.882" fill="#626B71" width="0.588" height="6.142"/>
<polyline fill-rule="evenodd" clip-rule="evenodd" fill="#626B71" points="80.016,134.882 82.299,141.023 82.981,141.023 
	85.273,134.882 84.65,134.882 82.662,140.377 82.644,140.377 80.639,134.882 80.016,134.882 "/>
<polyline fill-rule="evenodd" clip-rule="evenodd" fill="#626B71" points="86.446,134.882 86.446,141.023 90.751,141.023 
	90.751,140.523 87.034,140.523 87.034,138.1 90.475,138.1 90.475,137.6 87.034,137.6 87.034,135.381 90.708,135.381 90.708,134.882 
	86.446,134.882 "/>
<path fill-rule="evenodd" clip-rule="evenodd" fill="#626B71" d="M92.201,134.882v6.142h0.588v-2.728h2.23
	c0.276-0.011,0.492,0.035,0.648,0.138c0.162,0.104,0.283,0.241,0.363,0.413c0.087,0.166,0.142,0.358,0.165,0.576
	c0.027,0.212,0.049,0.427,0.06,0.646c0.006,0.063,0.012,0.137,0.017,0.223c0.006,0.086,0.013,0.176,0.019,0.268
	c0.011,0.086,0.025,0.172,0.043,0.258c0.022,0.08,0.052,0.148,0.086,0.207h0.648c-0.063-0.076-0.115-0.179-0.155-0.311
	c-0.034-0.139-0.062-0.281-0.078-0.43c-0.018-0.155-0.029-0.307-0.034-0.456c-0.006-0.149-0.012-0.275-0.018-0.38
	c-0.012-0.182-0.037-0.352-0.077-0.506c-0.035-0.162-0.097-0.301-0.183-0.422c-0.081-0.119-0.187-0.218-0.319-0.291
	c-0.133-0.08-0.301-0.136-0.501-0.164v-0.018c0.396-0.08,0.696-0.264,0.898-0.551c0.202-0.286,0.302-0.625,0.302-1.014
	c0-0.276-0.052-0.514-0.154-0.715c-0.099-0.205-0.234-0.371-0.407-0.498c-0.167-0.133-0.365-0.229-0.596-0.293
	c-0.226-0.063-0.464-0.095-0.719-0.095H92.201 M92.789,137.798v-2.417h2.195c0.45,0,0.784,0.109,1.003,0.327
	c0.22,0.218,0.329,0.517,0.329,0.896c0,0.188-0.038,0.357-0.112,0.506c-0.069,0.144-0.164,0.267-0.285,0.371
	c-0.121,0.102-0.262,0.183-0.424,0.239c-0.161,0.052-0.331,0.078-0.511,0.078H92.789z"/>
<path fill-rule="evenodd" clip-rule="evenodd" fill="#626B71" d="M98.873,139.002h-0.588c-0.018,0.378,0.031,0.702,0.146,0.973
	c0.121,0.269,0.291,0.489,0.51,0.661c0.22,0.173,0.484,0.302,0.796,0.388c0.312,0.08,0.648,0.119,1.012,0.119
	c0.362,0,0.675-0.035,0.934-0.103c0.259-0.063,0.476-0.146,0.648-0.25c0.179-0.108,0.316-0.229,0.415-0.361
	c0.104-0.132,0.182-0.261,0.233-0.387c0.058-0.132,0.092-0.255,0.104-0.37c0.018-0.113,0.026-0.206,0.026-0.273
	c0-0.254-0.044-0.469-0.13-0.646c-0.081-0.178-0.195-0.326-0.346-0.447c-0.144-0.126-0.314-0.23-0.51-0.31
	c-0.19-0.087-0.396-0.157-0.614-0.216l-1.504-0.369c-0.127-0.028-0.248-0.065-0.363-0.111c-0.109-0.046-0.208-0.107-0.294-0.181
	c-0.087-0.074-0.156-0.163-0.208-0.267c-0.046-0.109-0.069-0.236-0.069-0.379c0-0.229,0.044-0.421,0.131-0.576
	c0.086-0.154,0.198-0.277,0.337-0.369c0.144-0.098,0.308-0.168,0.493-0.207c0.189-0.045,0.386-0.068,0.588-0.068
	c0.219,0,0.426,0.031,0.622,0.095c0.201,0.058,0.378,0.146,0.526,0.267c0.156,0.115,0.28,0.261,0.372,0.438
	c0.099,0.173,0.153,0.375,0.164,0.61h0.588c0-0.315-0.063-0.59-0.189-0.825c-0.121-0.241-0.285-0.44-0.493-0.603
	c-0.207-0.16-0.449-0.28-0.727-0.361c-0.276-0.08-0.567-0.12-0.873-0.12c-0.432,0-0.786,0.063-1.063,0.188
	c-0.277,0.121-0.496,0.271-0.658,0.448c-0.155,0.177-0.262,0.367-0.318,0.567c-0.059,0.201-0.088,0.376-0.088,0.525
	c0,0.24,0.037,0.443,0.112,0.61c0.081,0.166,0.186,0.308,0.313,0.421c0.127,0.114,0.273,0.206,0.44,0.275
	c0.172,0.068,0.348,0.126,0.527,0.172l1.375,0.335c0.144,0.035,0.291,0.081,0.44,0.138c0.15,0.051,0.285,0.121,0.406,0.207
	c0.127,0.086,0.229,0.191,0.303,0.318c0.08,0.126,0.12,0.273,0.12,0.445c0,0.225-0.054,0.416-0.164,0.578
	c-0.108,0.154-0.247,0.283-0.415,0.387c-0.16,0.098-0.337,0.169-0.526,0.215c-0.19,0.046-0.366,0.068-0.528,0.068
	c-0.282,0-0.547-0.025-0.795-0.078c-0.248-0.057-0.464-0.148-0.648-0.274c-0.179-0.126-0.319-0.295-0.424-0.507
	C98.916,139.58,98.867,139.316,98.873,139.002"/>
<rect x="104.715" y="134.882" fill="#626B71" width="0.588" height="6.142"/>
<path fill-rule="evenodd" clip-rule="evenodd" fill="#626B71" d="M107.808,140.523v-5.143h1.253c0.444,0,0.824,0.049,1.142,0.146
	c0.322,0.092,0.588,0.24,0.796,0.447c0.207,0.206,0.359,0.473,0.458,0.801c0.098,0.326,0.146,0.718,0.146,1.177
	s-0.049,0.852-0.146,1.179c-0.099,0.326-0.251,0.594-0.458,0.8c-0.208,0.206-0.474,0.358-0.796,0.455
	c-0.317,0.093-0.697,0.138-1.142,0.138H107.808 M107.22,134.882v6.142h2.135c0.94-0.023,1.646-0.285,2.118-0.783
	c0.479-0.506,0.718-1.268,0.718-2.288s-0.238-1.78-0.718-2.279c-0.472-0.504-1.178-0.769-2.118-0.791H107.22z"/>
<path fill-rule="evenodd" clip-rule="evenodd" fill="#626B71" d="M115.577,134.882l-2.481,6.142h0.623l0.743-1.91h2.81l0.752,1.91
	h0.632l-2.421-6.142H115.577 M114.644,138.613l1.236-3.146l1.193,3.146H114.644z"/>
<path fill-rule="evenodd" clip-rule="evenodd" fill="#626B71" d="M120.434,140.523v-5.143h1.253c0.444,0,0.824,0.049,1.143,0.146
	c0.321,0.092,0.587,0.24,0.795,0.447c0.207,0.206,0.359,0.473,0.458,0.801c0.098,0.326,0.146,0.718,0.146,1.177
	s-0.049,0.852-0.146,1.179c-0.099,0.326-0.251,0.594-0.458,0.8c-0.208,0.206-0.474,0.358-0.795,0.455
	c-0.318,0.093-0.698,0.138-1.143,0.138H120.434 M119.846,134.882v6.142h2.135c0.94-0.023,1.646-0.285,2.119-0.783
	c0.479-0.506,0.717-1.268,0.717-2.288s-0.238-1.78-0.717-2.279c-0.473-0.504-1.179-0.769-2.119-0.791H119.846z"/>
<path fill-rule="evenodd" clip-rule="evenodd" fill="#626B71" d="M132.186,140.523v-5.143h1.253c0.444,0,0.825,0.049,1.143,0.146
	c0.322,0.092,0.587,0.24,0.795,0.447c0.207,0.206,0.359,0.473,0.458,0.801c0.098,0.326,0.146,0.718,0.146,1.177
	s-0.049,0.852-0.146,1.179c-0.099,0.326-0.251,0.594-0.458,0.8c-0.208,0.206-0.473,0.358-0.795,0.455
	c-0.317,0.093-0.698,0.138-1.143,0.138H132.186 M131.598,134.882v6.142h2.135c0.94-0.023,1.646-0.285,2.119-0.783
	c0.479-0.506,0.717-1.268,0.717-2.288s-0.238-1.78-0.717-2.279c-0.473-0.504-1.179-0.769-2.119-0.791H131.598z"/>
<polyline fill-rule="evenodd" clip-rule="evenodd" fill="#626B71" points="138.148,134.882 138.148,141.023 142.454,141.023 
	142.454,140.523 138.736,140.523 138.736,138.1 142.178,138.1 142.178,137.6 138.736,137.6 138.736,135.381 142.411,135.381 
	142.411,134.882 138.148,134.882 "/>
<path fill-rule="evenodd" clip-rule="evenodd" fill="#626B71" d="M153.618,136.738h0.588c-0.04-0.319-0.139-0.604-0.294-0.85
	c-0.15-0.246-0.341-0.453-0.57-0.619c-0.225-0.173-0.479-0.302-0.761-0.388c-0.277-0.086-0.563-0.129-0.856-0.129
	c-0.483,0-0.911,0.089-1.279,0.267c-0.363,0.172-0.665,0.407-0.907,0.705c-0.242,0.293-0.424,0.631-0.545,1.014
	c-0.121,0.386-0.183,0.789-0.183,1.214s0.062,0.827,0.183,1.213c0.121,0.384,0.303,0.723,0.545,1.015s0.544,0.527,0.907,0.705
	c0.368,0.172,0.796,0.258,1.279,0.258c0.363,0,0.692-0.058,0.986-0.172c0.299-0.113,0.559-0.279,0.778-0.49
	c0.219-0.211,0.396-0.47,0.535-0.773c0.139-0.305,0.228-0.645,0.269-1.023h-0.588c-0.029,0.275-0.096,0.533-0.199,0.773
	c-0.104,0.234-0.239,0.441-0.406,0.619s-0.366,0.318-0.597,0.422s-0.49,0.154-0.778,0.154c-0.409,0-0.761-0.078-1.055-0.231
	c-0.294-0.155-0.536-0.358-0.727-0.61c-0.184-0.259-0.322-0.548-0.415-0.869c-0.086-0.328-0.13-0.656-0.13-0.989
	c0-0.339,0.044-0.669,0.13-0.989c0.093-0.32,0.231-0.607,0.415-0.859c0.19-0.258,0.433-0.465,0.727-0.619
	c0.294-0.155,0.646-0.232,1.055-0.232c0.226,0,0.438,0.034,0.641,0.104c0.206,0.063,0.395,0.157,0.562,0.283
	c0.173,0.126,0.317,0.284,0.432,0.473C153.479,136.295,153.566,136.505,153.618,136.738"/>
<polyline fill-rule="evenodd" clip-rule="evenodd" fill="#626B71" points="155.821,134.882 155.821,141.023 156.409,141.023 
	156.409,138.047 160.074,138.047 160.074,141.023 160.662,141.023 160.662,134.882 160.074,134.882 160.074,137.548 
	156.409,137.548 156.409,134.882 155.821,134.882 "/>
<rect x="162.579" y="134.882" fill="#626B71" width="0.588" height="6.142"/>
<polyline fill-rule="evenodd" clip-rule="evenodd" fill="#626B71" points="165.084,134.882 165.084,141.023 169.13,141.023 
	169.13,140.523 165.672,140.523 165.672,134.882 165.084,134.882 "/>
<polyline fill-rule="evenodd" clip-rule="evenodd" fill="#626B71" points="170.354,134.882 170.354,141.023 174.66,141.023 
	174.66,140.523 170.942,140.523 170.942,138.1 174.384,138.1 174.384,137.6 170.942,137.6 170.942,135.381 174.617,135.381 
	174.617,134.882 170.354,134.882 "/>
<polyline fill-rule="evenodd" clip-rule="evenodd" fill="#626B71" points="64.877,125.854 64.877,131.992 65.465,131.992 
	65.465,129.068 68.421,129.068 68.421,128.568 65.465,128.568 65.465,126.352 68.793,126.352 68.793,125.854 64.877,125.854 "/>
<path fill-rule="evenodd" clip-rule="evenodd" fill="#626B71" d="M70.577,125.854h-0.588v6.139h0.588V125.854z M70.214,125.361
	l1.141-1.211h-0.674l-0.908,1.211H70.214z"/>
<path fill-rule="evenodd" clip-rule="evenodd" fill="#626B71" d="M72.569,129.972h-0.588c-0.017,0.378,0.031,0.702,0.147,0.972
	c0.121,0.27,0.291,0.49,0.51,0.662c0.219,0.172,0.484,0.301,0.795,0.387c0.311,0.08,0.649,0.119,1.012,0.119
	s0.674-0.033,0.933-0.102c0.26-0.064,0.476-0.146,0.649-0.25c0.179-0.109,0.317-0.229,0.415-0.359
	c0.104-0.133,0.181-0.262,0.233-0.389c0.058-0.132,0.093-0.255,0.104-0.369c0.017-0.115,0.026-0.207,0.026-0.275
	c0-0.252-0.043-0.467-0.13-0.646c-0.08-0.178-0.196-0.325-0.346-0.446c-0.144-0.127-0.314-0.229-0.509-0.311
	c-0.191-0.086-0.395-0.156-0.614-0.215l-1.505-0.369c-0.127-0.029-0.248-0.066-0.363-0.111c-0.109-0.047-0.207-0.107-0.294-0.182
	c-0.086-0.074-0.155-0.163-0.207-0.268c-0.047-0.107-0.069-0.234-0.069-0.377c0-0.229,0.043-0.422,0.129-0.576
	c0.087-0.155,0.199-0.278,0.337-0.37c0.144-0.097,0.309-0.166,0.493-0.206c0.19-0.046,0.386-0.069,0.588-0.069
	c0.219,0,0.427,0.031,0.622,0.095c0.202,0.058,0.378,0.146,0.528,0.267c0.156,0.114,0.28,0.261,0.372,0.438
	c0.098,0.172,0.152,0.377,0.164,0.61h0.588c0-0.315-0.064-0.59-0.19-0.825c-0.121-0.24-0.286-0.441-0.493-0.602
	c-0.208-0.161-0.45-0.281-0.726-0.361c-0.277-0.08-0.568-0.121-0.874-0.121c-0.432,0-0.786,0.063-1.063,0.189
	c-0.277,0.119-0.496,0.27-0.657,0.447c-0.156,0.178-0.262,0.367-0.32,0.567c-0.058,0.201-0.086,0.376-0.086,0.524
	c0,0.24,0.037,0.445,0.112,0.611c0.081,0.166,0.185,0.307,0.311,0.42c0.127,0.117,0.274,0.209,0.441,0.276
	c0.173,0.068,0.349,0.126,0.527,0.172l1.375,0.337c0.144,0.033,0.291,0.079,0.441,0.137c0.15,0.051,0.286,0.121,0.406,0.205
	c0.127,0.086,0.228,0.193,0.303,0.319c0.081,0.126,0.121,0.275,0.121,0.447c0,0.224-0.055,0.415-0.164,0.576
	c-0.11,0.155-0.248,0.282-0.415,0.387c-0.161,0.099-0.337,0.169-0.527,0.215c-0.191,0.046-0.367,0.069-0.528,0.069
	c-0.283,0-0.547-0.026-0.795-0.078c-0.248-0.057-0.464-0.148-0.649-0.275c-0.178-0.125-0.32-0.295-0.423-0.507
	C72.612,130.551,72.563,130.287,72.569,129.972"/>
<rect x="78.209" y="125.854" fill="#626B71" width="0.588" height="6.139"/>
<path fill-rule="evenodd" clip-rule="evenodd" fill="#626B71" d="M85.024,127.71h0.588c-0.04-0.321-0.138-0.604-0.294-0.853
	c-0.15-0.246-0.34-0.453-0.57-0.619c-0.225-0.172-0.479-0.299-0.761-0.385c-0.277-0.088-0.562-0.131-0.856-0.131
	c-0.484,0-0.911,0.09-1.279,0.266c-0.364,0.174-0.666,0.408-0.908,0.705c-0.242,0.293-0.424,0.631-0.545,1.017
	c-0.121,0.384-0.182,0.788-0.182,1.212c0,0.425,0.061,0.829,0.182,1.213c0.121,0.385,0.303,0.723,0.545,1.016
	c0.242,0.291,0.544,0.526,0.908,0.705c0.368,0.17,0.795,0.256,1.279,0.256c0.363,0,0.692-0.056,0.986-0.17
	c0.299-0.115,0.559-0.278,0.778-0.49c0.219-0.213,0.397-0.471,0.536-0.774c0.138-0.304,0.227-0.646,0.268-1.024h-0.588
	c-0.029,0.276-0.095,0.535-0.199,0.775c-0.104,0.234-0.239,0.441-0.406,0.619s-0.366,0.316-0.597,0.421
	c-0.23,0.103-0.49,0.155-0.778,0.155c-0.409,0-0.761-0.078-1.055-0.232c-0.294-0.156-0.536-0.359-0.726-0.611
	c-0.184-0.258-0.323-0.547-0.415-0.868c-0.086-0.327-0.13-0.656-0.13-0.989c0-0.338,0.044-0.668,0.13-0.988
	c0.092-0.322,0.231-0.609,0.415-0.861c0.19-0.256,0.432-0.465,0.726-0.618c0.294-0.155,0.646-0.232,1.055-0.232
	c0.225,0,0.438,0.034,0.64,0.103c0.207,0.063,0.395,0.158,0.562,0.283c0.173,0.127,0.317,0.285,0.432,0.475
	C84.886,127.266,84.973,127.475,85.024,127.71"/>
<path fill-rule="evenodd" clip-rule="evenodd" fill="#626B71" d="M88.832,125.854l-2.481,6.139h0.622l0.743-1.909h2.81l0.752,1.909
	h0.631l-2.42-6.139H88.832 M87.898,129.584l1.236-3.146l1.193,3.146H87.898z"/>
<path fill-rule="evenodd" clip-rule="evenodd" fill="#626B71" d="M93.175,129.972h-0.588c-0.018,0.378,0.032,0.702,0.146,0.972
	c0.121,0.27,0.291,0.49,0.511,0.662c0.219,0.172,0.483,0.301,0.796,0.387c0.311,0.08,0.647,0.119,1.011,0.119
	s0.674-0.033,0.934-0.102c0.26-0.064,0.476-0.146,0.648-0.25c0.179-0.109,0.317-0.229,0.415-0.359
	c0.104-0.133,0.182-0.262,0.233-0.389c0.058-0.132,0.093-0.255,0.104-0.369c0.018-0.115,0.026-0.207,0.026-0.275
	c0-0.252-0.043-0.467-0.13-0.646c-0.08-0.178-0.196-0.325-0.347-0.446c-0.144-0.127-0.313-0.229-0.51-0.311
	c-0.19-0.086-0.394-0.156-0.613-0.215l-1.505-0.369c-0.126-0.029-0.247-0.066-0.363-0.111c-0.108-0.047-0.207-0.107-0.294-0.182
	c-0.086-0.074-0.154-0.163-0.207-0.268c-0.046-0.107-0.068-0.234-0.068-0.377c0-0.229,0.043-0.422,0.129-0.576
	c0.087-0.155,0.199-0.278,0.338-0.37c0.144-0.097,0.308-0.166,0.492-0.206c0.19-0.046,0.386-0.069,0.588-0.069
	c0.219,0,0.427,0.031,0.623,0.095c0.201,0.058,0.377,0.146,0.527,0.267c0.155,0.114,0.279,0.261,0.371,0.438
	c0.099,0.172,0.153,0.377,0.164,0.61h0.588c0-0.315-0.063-0.59-0.189-0.825c-0.121-0.24-0.286-0.441-0.493-0.602
	c-0.208-0.161-0.45-0.281-0.726-0.361c-0.277-0.08-0.568-0.121-0.873-0.121c-0.434,0-0.787,0.063-1.064,0.189
	c-0.277,0.119-0.496,0.27-0.657,0.447c-0.154,0.178-0.262,0.367-0.319,0.567c-0.058,0.201-0.086,0.376-0.086,0.524
	c0,0.24,0.037,0.445,0.111,0.611c0.081,0.166,0.185,0.307,0.312,0.42c0.127,0.117,0.273,0.209,0.44,0.276
	c0.174,0.068,0.35,0.126,0.528,0.172l1.374,0.337c0.145,0.033,0.291,0.079,0.441,0.137c0.149,0.051,0.285,0.121,0.406,0.205
	c0.126,0.086,0.228,0.193,0.303,0.319c0.081,0.126,0.121,0.275,0.121,0.447c0,0.224-0.055,0.415-0.164,0.576
	c-0.109,0.155-0.248,0.282-0.415,0.387c-0.161,0.099-0.337,0.169-0.527,0.215c-0.191,0.046-0.366,0.069-0.528,0.069
	c-0.281,0-0.547-0.026-0.795-0.078c-0.248-0.057-0.464-0.148-0.647-0.275c-0.18-0.125-0.321-0.295-0.425-0.507
	S93.169,130.287,93.175,129.972"/>
<polyline fill-rule="evenodd" clip-rule="evenodd" fill="#626B71" points="104.684,129.464 104.684,131.992 105.271,131.992 
	105.271,129.464 107.71,125.854 107.01,125.854 104.986,128.965 102.955,125.854 102.264,125.854 104.684,129.464 "/>
<polyline fill-rule="evenodd" clip-rule="evenodd" fill="#626B71" points="112.848,125.854 112.848,131.992 113.435,131.992 
	113.435,126.688 113.453,126.688 115.571,131.992 116.124,131.992 118.233,126.688 118.251,126.688 118.251,131.992 
	118.839,131.992 118.839,125.854 117.975,125.854 115.848,131.234 113.712,125.854 112.848,125.854 "/>
<path fill-rule="evenodd" clip-rule="evenodd" fill="#626B71" d="M122.3,125.854l-2.481,6.139h0.623l0.743-1.909h2.811l0.752,1.909
	h0.631l-2.421-6.139H122.3 M121.367,129.584l1.235-3.146l1.193,3.146H121.367z"/>
<polyline fill-rule="evenodd" clip-rule="evenodd" fill="#626B71" points="125.122,125.854 125.122,126.352 127.266,126.352 
	127.266,131.992 127.854,131.992 127.854,126.352 130.007,126.352 130.007,125.854 125.122,125.854 "/>
<polyline fill-rule="evenodd" clip-rule="evenodd" fill="#626B71" points="131.013,125.854 131.013,131.992 135.317,131.992 
	135.317,131.493 131.601,131.493 131.601,129.068 135.042,129.068 135.042,128.568 131.601,128.568 131.601,126.352 
	135.274,126.352 135.274,125.854 131.013,125.854 "/>
<polyline fill-rule="evenodd" clip-rule="evenodd" fill="#626B71" points="136.549,125.854 136.549,131.992 137.137,131.992 
	137.137,126.688 137.153,126.688 139.271,131.992 139.826,131.992 141.935,126.688 141.953,126.688 141.953,131.992 142.54,131.992 
	142.54,125.854 141.676,125.854 139.549,131.234 137.414,125.854 136.549,125.854 "/>
<path fill-rule="evenodd" clip-rule="evenodd" fill="#626B71" d="M146.002,125.854l-2.481,6.139h0.622l0.743-1.909h2.811
	l0.752,1.909h0.632l-2.421-6.139H146.002 M145.067,129.584l1.236-3.146l1.194,3.146H145.067z M146.227,125.361l1.142-1.211h-0.676
	l-0.906,1.211H146.227z"/>
<polyline fill-rule="evenodd" clip-rule="evenodd" fill="#626B71" points="149.411,125.854 149.411,126.352 151.555,126.352 
	151.555,131.992 152.143,131.992 152.143,126.352 154.296,126.352 154.296,125.854 149.411,125.854 "/>
<rect x="155.345" y="125.854" fill="#626B71" width="0.588" height="6.139"/>
<path fill-rule="evenodd" clip-rule="evenodd" fill="#626B71" d="M162.161,127.71h0.588c-0.04-0.321-0.139-0.604-0.294-0.853
	c-0.15-0.246-0.34-0.453-0.571-0.619c-0.224-0.172-0.478-0.299-0.76-0.385c-0.277-0.088-0.563-0.131-0.856-0.131
	c-0.484,0-0.911,0.09-1.28,0.266c-0.362,0.174-0.666,0.408-0.906,0.705c-0.243,0.293-0.424,0.631-0.545,1.017
	c-0.121,0.384-0.183,0.788-0.183,1.212c0,0.425,0.062,0.829,0.183,1.213c0.121,0.385,0.302,0.723,0.545,1.016
	c0.24,0.291,0.544,0.526,0.906,0.705c0.369,0.17,0.796,0.256,1.28,0.256c0.363,0,0.691-0.056,0.985-0.17
	c0.3-0.115,0.559-0.278,0.778-0.49c0.219-0.213,0.397-0.471,0.535-0.774c0.14-0.304,0.229-0.646,0.269-1.024h-0.587
	c-0.029,0.276-0.097,0.535-0.199,0.775c-0.104,0.234-0.239,0.441-0.407,0.619c-0.167,0.178-0.366,0.316-0.596,0.421
	c-0.231,0.103-0.49,0.155-0.778,0.155c-0.41,0-0.761-0.078-1.055-0.232c-0.294-0.156-0.536-0.359-0.727-0.611
	c-0.185-0.258-0.322-0.547-0.415-0.868c-0.087-0.327-0.13-0.656-0.13-0.989c0-0.338,0.043-0.668,0.13-0.988
	c0.093-0.322,0.23-0.609,0.415-0.861c0.19-0.256,0.433-0.465,0.727-0.618c0.294-0.155,0.645-0.232,1.055-0.232
	c0.225,0,0.438,0.034,0.64,0.103c0.208,0.063,0.395,0.158,0.562,0.283c0.173,0.127,0.317,0.285,0.433,0.475
	C162.022,127.266,162.108,127.475,162.161,127.71"/>
<path fill-rule="evenodd" clip-rule="evenodd" fill="#626B71" d="M165.968,125.854l-2.481,6.139h0.623l0.743-1.909h2.811
	l0.752,1.909h0.631l-2.421-6.139H165.968 M165.035,129.584l1.235-3.146l1.193,3.146H165.035z"/>
<path fill-rule="evenodd" clip-rule="evenodd" fill="#626B71" d="M170.311,129.972h-0.587c-0.018,0.378,0.031,0.702,0.147,0.972
	c0.12,0.27,0.291,0.49,0.51,0.662s0.484,0.301,0.795,0.387c0.311,0.08,0.648,0.119,1.012,0.119s0.674-0.033,0.934-0.102
	c0.26-0.064,0.476-0.146,0.648-0.25c0.179-0.109,0.317-0.229,0.415-0.359c0.104-0.133,0.182-0.262,0.233-0.389
	c0.058-0.132,0.092-0.255,0.104-0.369c0.018-0.115,0.026-0.207,0.026-0.275c0-0.252-0.043-0.467-0.13-0.646
	c-0.081-0.178-0.196-0.325-0.347-0.446c-0.144-0.127-0.313-0.229-0.51-0.311c-0.189-0.086-0.395-0.156-0.613-0.215l-1.505-0.369
	c-0.127-0.029-0.248-0.066-0.362-0.111c-0.11-0.047-0.208-0.107-0.294-0.182c-0.087-0.074-0.156-0.163-0.207-0.268
	c-0.047-0.107-0.07-0.234-0.07-0.377c0-0.229,0.043-0.422,0.13-0.576c0.087-0.155,0.199-0.278,0.337-0.37
	c0.145-0.097,0.31-0.166,0.493-0.206c0.19-0.046,0.386-0.069,0.588-0.069c0.219,0,0.426,0.031,0.622,0.095
	c0.202,0.058,0.378,0.146,0.528,0.267c0.154,0.114,0.278,0.261,0.372,0.438c0.097,0.172,0.151,0.377,0.164,0.61h0.587
	c0-0.315-0.063-0.59-0.189-0.825c-0.122-0.24-0.286-0.441-0.493-0.602c-0.208-0.161-0.449-0.281-0.727-0.361
	c-0.276-0.08-0.567-0.121-0.873-0.121c-0.432,0-0.787,0.063-1.063,0.189c-0.276,0.119-0.495,0.27-0.656,0.447
	c-0.156,0.178-0.264,0.367-0.32,0.567c-0.058,0.201-0.087,0.376-0.087,0.524c0,0.24,0.038,0.445,0.113,0.611
	c0.08,0.166,0.184,0.307,0.311,0.42c0.127,0.117,0.274,0.209,0.441,0.276c0.173,0.068,0.349,0.126,0.526,0.172l1.375,0.337
	c0.145,0.033,0.291,0.079,0.441,0.137c0.15,0.051,0.285,0.121,0.406,0.205c0.127,0.086,0.228,0.193,0.303,0.319
	c0.081,0.126,0.121,0.275,0.121,0.447c0,0.224-0.055,0.415-0.164,0.576c-0.11,0.155-0.248,0.282-0.415,0.387
	c-0.162,0.099-0.338,0.169-0.528,0.215c-0.189,0.046-0.366,0.069-0.526,0.069c-0.283,0-0.548-0.026-0.796-0.078
	c-0.247-0.057-0.464-0.148-0.648-0.275c-0.179-0.125-0.32-0.295-0.424-0.507S170.306,130.287,170.311,129.972"/>
<polyline fill-rule="evenodd" clip-rule="evenodd" fill="#626B71" points="64.877,116.822 64.877,122.962 65.465,122.962 
	65.465,120.038 68.421,120.038 68.421,119.54 65.465,119.54 65.465,117.32 68.793,117.32 68.793,116.822 64.877,116.822 "/>
<path fill-rule="evenodd" clip-rule="evenodd" fill="#626B71" d="M71.453,116.822l-2.481,6.14h0.622l0.744-1.908h2.81l0.752,1.908
	h0.631l-2.421-6.14H71.453 M70.519,120.555l1.237-3.148l1.193,3.148H70.519z"/>
<path fill-rule="evenodd" clip-rule="evenodd" fill="#626B71" d="M80.208,118.68h0.588c-0.04-0.322-0.138-0.605-0.294-0.852
	c-0.15-0.246-0.34-0.453-0.57-0.619c-0.225-0.172-0.479-0.301-0.761-0.387c-0.277-0.086-0.562-0.129-0.856-0.129
	c-0.484,0-0.911,0.088-1.28,0.267c-0.363,0.172-0.665,0.405-0.908,0.705c-0.242,0.292-0.423,0.631-0.544,1.015
	c-0.121,0.385-0.182,0.788-0.182,1.213c0,0.424,0.061,0.828,0.182,1.213c0.121,0.383,0.302,0.722,0.544,1.015
	c0.243,0.292,0.545,0.528,0.908,0.704c0.369,0.173,0.796,0.259,1.28,0.259c0.363,0,0.691-0.058,0.985-0.172
	c0.3-0.115,0.56-0.278,0.778-0.49c0.22-0.213,0.398-0.472,0.536-0.774c0.139-0.304,0.228-0.645,0.269-1.023h-0.588
	c-0.029,0.275-0.096,0.533-0.199,0.775c-0.104,0.233-0.239,0.44-0.407,0.619c-0.167,0.176-0.366,0.317-0.596,0.42
	c-0.231,0.104-0.49,0.155-0.778,0.155c-0.41,0-0.761-0.077-1.055-0.233c-0.294-0.153-0.536-0.357-0.726-0.609
	c-0.185-0.258-0.323-0.548-0.415-0.869c-0.087-0.326-0.13-0.656-0.13-0.988c0-0.339,0.043-0.668,0.13-0.99
	c0.092-0.32,0.23-0.606,0.415-0.859c0.19-0.258,0.432-0.464,0.726-0.619c0.294-0.154,0.645-0.232,1.055-0.232
	c0.225,0,0.438,0.035,0.64,0.104c0.207,0.063,0.394,0.158,0.562,0.284c0.172,0.126,0.316,0.282,0.432,0.473
	C80.07,118.234,80.156,118.443,80.208,118.68"/>
<path fill-rule="evenodd" clip-rule="evenodd" fill="#626B71" d="M82.323,116.822v3.93c0,0.314,0.044,0.616,0.13,0.902
	c0.092,0.283,0.234,0.529,0.424,0.74c0.196,0.213,0.444,0.381,0.743,0.508c0.306,0.121,0.672,0.181,1.098,0.181
	c0.433,0,0.799-0.06,1.098-0.181c0.306-0.127,0.554-0.295,0.744-0.508c0.196-0.211,0.337-0.457,0.423-0.74
	c0.093-0.286,0.139-0.588,0.139-0.902v-3.93h-0.588v3.801c0,0.355-0.04,0.658-0.121,0.912c-0.081,0.246-0.199,0.449-0.355,0.611
	c-0.155,0.153-0.346,0.269-0.57,0.342c-0.225,0.07-0.481,0.104-0.77,0.104c-0.282,0-0.536-0.034-0.761-0.104
	c-0.224-0.073-0.415-0.188-0.57-0.342c-0.156-0.162-0.274-0.365-0.355-0.611c-0.08-0.254-0.121-0.557-0.121-0.912v-3.801H82.323"/>
<polyline fill-rule="evenodd" clip-rule="evenodd" fill="#626B71" points="88.909,116.822 88.909,122.962 92.955,122.962 
	92.955,122.464 89.497,122.464 89.497,116.822 88.909,116.822 "/>
<polyline fill-rule="evenodd" clip-rule="evenodd" fill="#626B71" points="92.701,116.822 92.701,117.32 94.845,117.32 
	94.845,122.962 95.433,122.962 95.433,117.32 97.586,117.32 97.586,116.822 92.701,116.822 "/>
<path fill-rule="evenodd" clip-rule="evenodd" fill="#626B71" d="M99.986,116.822l-2.48,6.14h0.622l0.743-1.908h2.81l0.752,1.908
	h0.631l-2.42-6.14H99.986 M99.053,120.555l1.236-3.148l1.192,3.148H99.053z"/>
<path fill-rule="evenodd" clip-rule="evenodd" fill="#626B71" d="M104.816,122.464v-5.144h1.253c0.444,0,0.824,0.049,1.142,0.146
	c0.323,0.092,0.588,0.241,0.796,0.447c0.207,0.207,0.36,0.473,0.458,0.8s0.146,0.72,0.146,1.179s-0.049,0.851-0.146,1.178
	c-0.098,0.328-0.251,0.594-0.458,0.8c-0.208,0.206-0.473,0.358-0.796,0.456c-0.317,0.092-0.697,0.138-1.142,0.138H104.816
	 M104.229,116.822v6.14h2.136c0.939-0.022,1.646-0.283,2.117-0.782c0.479-0.504,0.719-1.267,0.719-2.287s-0.239-1.781-0.719-2.279
	c-0.472-0.506-1.178-0.769-2.117-0.791H104.229z"/>
<path fill-rule="evenodd" clip-rule="evenodd" fill="#626B71" d="M116.411,122.464v-5.144h1.254c0.443,0,0.824,0.049,1.141,0.146
	c0.323,0.092,0.588,0.241,0.795,0.447c0.208,0.207,0.361,0.473,0.459,0.8s0.146,0.72,0.146,1.179s-0.049,0.851-0.146,1.178
	c-0.098,0.328-0.251,0.594-0.459,0.8c-0.207,0.206-0.472,0.358-0.795,0.456c-0.316,0.092-0.697,0.138-1.141,0.138H116.411
	 M115.823,116.822v6.14h2.136c0.938-0.022,1.645-0.283,2.118-0.782c0.478-0.504,0.717-1.267,0.717-2.287s-0.239-1.781-0.717-2.279
	c-0.474-0.506-1.18-0.769-2.118-0.791H115.823z"/>
<polyline fill-rule="evenodd" clip-rule="evenodd" fill="#626B71" points="122.348,116.822 122.348,122.962 126.652,122.962 
	126.652,122.464 122.936,122.464 122.936,120.038 126.377,120.038 126.377,119.54 122.936,119.54 122.936,117.32 126.609,117.32 
	126.609,116.822 122.348,116.822 "/>
<path fill-rule="evenodd" clip-rule="evenodd" fill="#626B71" d="M137.66,118.68h0.588c-0.041-0.322-0.139-0.605-0.294-0.852
	c-0.15-0.246-0.34-0.453-0.571-0.619c-0.225-0.172-0.478-0.301-0.76-0.387c-0.277-0.086-0.563-0.129-0.856-0.129
	c-0.484,0-0.911,0.088-1.28,0.267c-0.362,0.172-0.666,0.405-0.907,0.705c-0.242,0.292-0.424,0.631-0.544,1.015
	c-0.121,0.385-0.183,0.788-0.183,1.213c0,0.424,0.062,0.828,0.183,1.213c0.12,0.383,0.302,0.722,0.544,1.015
	c0.241,0.292,0.545,0.528,0.907,0.704c0.369,0.173,0.796,0.259,1.28,0.259c0.363,0,0.691-0.058,0.985-0.172
	c0.3-0.115,0.559-0.278,0.778-0.49c0.219-0.213,0.397-0.472,0.535-0.774c0.14-0.304,0.229-0.645,0.269-1.023h-0.588
	c-0.029,0.275-0.096,0.533-0.198,0.775c-0.104,0.233-0.24,0.44-0.407,0.619c-0.167,0.176-0.366,0.317-0.596,0.42
	c-0.231,0.104-0.49,0.155-0.778,0.155c-0.41,0-0.761-0.077-1.055-0.233c-0.294-0.153-0.536-0.357-0.727-0.609
	c-0.185-0.258-0.322-0.548-0.415-0.869c-0.087-0.326-0.13-0.656-0.13-0.988c0-0.339,0.043-0.668,0.13-0.99
	c0.093-0.32,0.23-0.606,0.415-0.859c0.19-0.258,0.433-0.464,0.727-0.619c0.294-0.154,0.645-0.232,1.055-0.232
	c0.225,0,0.438,0.035,0.639,0.104c0.209,0.063,0.396,0.158,0.563,0.284c0.173,0.126,0.317,0.282,0.433,0.473
	C137.521,118.234,137.607,118.443,137.66,118.68"/>
<rect x="139.879" y="116.822" fill="#626B71" width="0.588" height="6.14"/>
<polyline fill-rule="evenodd" clip-rule="evenodd" fill="#626B71" points="142.356,116.822 142.356,122.962 146.663,122.962 
	146.663,122.464 142.944,122.464 142.944,120.038 146.386,120.038 146.386,119.54 142.944,119.54 142.944,117.32 146.62,117.32 
	146.62,116.822 142.356,116.822 "/>
<polyline fill-rule="evenodd" clip-rule="evenodd" fill="#626B71" points="148.078,116.822 148.078,122.962 148.666,122.962 
	148.666,117.768 148.683,117.768 152.278,122.962 152.937,122.962 152.937,116.822 152.349,116.822 152.349,122.018 
	152.331,122.018 148.734,116.822 148.078,116.822 "/>
<path fill-rule="evenodd" clip-rule="evenodd" fill="#626B71" d="M159.288,118.68h0.588c-0.04-0.322-0.139-0.605-0.294-0.852
	c-0.15-0.246-0.34-0.453-0.57-0.619c-0.225-0.172-0.479-0.301-0.761-0.387c-0.277-0.086-0.563-0.129-0.856-0.129
	c-0.483,0-0.911,0.088-1.279,0.267c-0.363,0.172-0.665,0.405-0.907,0.705c-0.242,0.292-0.424,0.631-0.545,1.015
	c-0.121,0.385-0.183,0.788-0.183,1.213c0,0.424,0.062,0.828,0.183,1.213c0.121,0.383,0.303,0.722,0.545,1.015
	c0.242,0.292,0.544,0.528,0.907,0.704c0.368,0.173,0.796,0.259,1.279,0.259c0.363,0,0.692-0.058,0.986-0.172
	c0.299-0.115,0.559-0.278,0.778-0.49c0.219-0.213,0.396-0.472,0.535-0.774c0.139-0.304,0.228-0.645,0.269-1.023h-0.588
	c-0.029,0.275-0.097,0.533-0.199,0.775c-0.104,0.233-0.239,0.44-0.406,0.619c-0.168,0.176-0.366,0.317-0.597,0.42
	c-0.23,0.104-0.49,0.155-0.778,0.155c-0.409,0-0.761-0.077-1.055-0.233c-0.294-0.153-0.536-0.357-0.726-0.609
	c-0.186-0.258-0.323-0.548-0.415-0.869c-0.087-0.326-0.131-0.656-0.131-0.988c0-0.339,0.044-0.668,0.131-0.99
	c0.092-0.32,0.229-0.606,0.415-0.859c0.189-0.258,0.432-0.464,0.726-0.619c0.294-0.154,0.646-0.232,1.055-0.232
	c0.226,0,0.438,0.035,0.641,0.104c0.207,0.063,0.394,0.158,0.562,0.284c0.173,0.126,0.317,0.282,0.432,0.473
	C159.149,118.234,159.236,118.443,159.288,118.68"/>
<rect x="161.508" y="116.822" fill="#626B71" width="0.587" height="6.14"/>
<path fill-rule="evenodd" clip-rule="evenodd" fill="#626B71" d="M165.793,116.822l-2.482,6.14h0.623l0.743-1.908h2.81l0.753,1.908
	h0.632l-2.421-6.14H165.793 M164.858,120.555l1.236-3.148l1.193,3.148H164.858z"/>
<path fill-rule="evenodd" clip-rule="evenodd" fill="#626B71" d="M170.311,120.941h-0.587c-0.018,0.379,0.031,0.703,0.147,0.972
	c0.12,0.271,0.291,0.489,0.51,0.661c0.219,0.173,0.484,0.302,0.795,0.388c0.311,0.081,0.648,0.121,1.012,0.121
	s0.674-0.035,0.934-0.103c0.26-0.063,0.476-0.147,0.648-0.25c0.179-0.109,0.317-0.229,0.415-0.361
	c0.104-0.133,0.182-0.262,0.233-0.387c0.058-0.131,0.092-0.256,0.104-0.371c0.018-0.113,0.026-0.205,0.026-0.274
	c0-0.252-0.043-0.467-0.13-0.646c-0.081-0.176-0.196-0.326-0.347-0.446c-0.144-0.126-0.313-0.229-0.51-0.31
	c-0.189-0.086-0.395-0.158-0.613-0.216l-1.505-0.368c-0.127-0.029-0.248-0.068-0.362-0.113c-0.11-0.047-0.208-0.105-0.294-0.18
	c-0.087-0.076-0.156-0.164-0.207-0.268c-0.047-0.107-0.07-0.234-0.07-0.378c0-0.229,0.043-0.423,0.13-0.576
	c0.087-0.155,0.199-0.278,0.337-0.37c0.145-0.098,0.31-0.166,0.493-0.206c0.19-0.046,0.386-0.069,0.588-0.069
	c0.219,0,0.426,0.033,0.622,0.095c0.202,0.058,0.378,0.147,0.528,0.267c0.154,0.115,0.278,0.262,0.372,0.438
	c0.097,0.174,0.151,0.377,0.164,0.613h0.587c0-0.316-0.063-0.592-0.189-0.828c-0.122-0.239-0.286-0.44-0.493-0.601
	c-0.208-0.161-0.449-0.28-0.727-0.36c-0.276-0.082-0.567-0.121-0.873-0.121c-0.432,0-0.787,0.063-1.063,0.188
	c-0.276,0.121-0.495,0.269-0.656,0.447c-0.156,0.178-0.264,0.366-0.32,0.569c-0.058,0.199-0.087,0.375-0.087,0.523
	c0,0.24,0.038,0.443,0.113,0.609c0.08,0.166,0.184,0.308,0.311,0.423c0.127,0.114,0.274,0.206,0.441,0.274
	c0.173,0.069,0.349,0.127,0.526,0.172l1.375,0.336c0.145,0.035,0.291,0.08,0.441,0.138c0.15,0.052,0.285,0.12,0.406,0.206
	c0.127,0.086,0.228,0.193,0.303,0.318c0.081,0.127,0.121,0.275,0.121,0.447c0,0.223-0.055,0.416-0.164,0.576
	c-0.11,0.154-0.248,0.284-0.415,0.387c-0.162,0.098-0.338,0.17-0.528,0.215c-0.189,0.045-0.366,0.069-0.526,0.069
	c-0.283,0-0.548-0.026-0.796-0.077c-0.247-0.058-0.464-0.15-0.648-0.275c-0.179-0.127-0.32-0.297-0.424-0.508
	S170.306,121.257,170.311,120.941"/>
</svg>
