<?xml version="1.0" encoding="utf-8"?>
<!-- Generator: Adobe Illustrator 16.0.0, SVG Export Plug-In . SVG Version: 6.00 Build 0)  -->
<!DOCTYPE svg PUBLIC "-//W3C//DTD SVG 1.1//EN" "http://www.w3.org/Graphics/SVG/1.1/DTD/svg11.dtd" [
	<!ENTITY ns_extend "http://ns.adobe.com/Extensibility/1.0/">
	<!ENTITY ns_ai "http://ns.adobe.com/AdobeIllustrator/10.0/">
	<!ENTITY ns_graphs "http://ns.adobe.com/Graphs/1.0/">
	<!ENTITY ns_vars "http://ns.adobe.com/Variables/1.0/">
	<!ENTITY ns_imrep "http://ns.adobe.com/ImageReplacement/1.0/">
	<!ENTITY ns_sfw "http://ns.adobe.com/SaveForWeb/1.0/">
	<!ENTITY ns_custom "http://ns.adobe.com/GenericCustomNamespace/1.0/">
	<!ENTITY ns_adobe_xpath "http://ns.adobe.com/XPath/1.0/">
]>
<svg version="1.1" id="Layer_1" xmlns:x="&ns_extend;" xmlns:i="&ns_ai;" xmlns:graph="&ns_graphs;"
	 xmlns="http://www.w3.org/2000/svg" xmlns:xlink="http://www.w3.org/1999/xlink" x="0px" y="0px" width="631px" height="246px"
	 viewBox="0 0 631 246" enable-background="new 0 0 631 246" xml:space="preserve">
<metadata>
	<sfw  xmlns="&ns_sfw;">
		<slices></slices>
		<sliceSourceBounds  width="571.971" height="192.97" y="-217.414" x="27.529" bottomLeftOrigin="true"></sliceSourceBounds>
	</sfw>
</metadata>
<g>
	<g>
		<path fill="#747475" d="M81.828,24.547h26.357l54.498,139.23h-26.555l-13.277-36.855H66.371l-13.277,36.855H27.529L81.828,24.547z
			 M73.108,108.397h43.202L95.105,48.532h-0.594L73.108,108.397z"/>
		<path fill="#747475" d="M173.977,24.547h58.659c10.832,0,20.213,1.822,28.14,5.46c7.928,3.641,14.398,8.614,19.421,14.917
			c5.02,6.307,8.751,13.684,11.197,22.132c2.443,8.452,3.666,17.486,3.666,27.105c0,9.622-1.223,18.656-3.666,27.105
			c-2.446,8.452-6.178,15.828-11.197,22.132c-5.022,6.308-11.493,11.28-19.421,14.918c-7.927,3.641-17.309,5.46-28.14,5.46h-58.659
			V24.547z M198.748,143.887h24.375c9.642,0,17.538-1.268,23.682-3.803s10.965-6.045,14.467-10.53
			c3.499-4.484,5.877-9.75,7.134-15.795c1.254-6.045,1.883-12.578,1.883-19.598c0-7.02-0.629-13.552-1.883-19.597
			c-1.257-6.045-3.635-11.31-7.134-15.795c-3.502-4.485-8.323-7.995-14.467-10.53c-6.144-2.535-14.04-3.802-23.682-3.802h-24.375
			V143.887z"/>
		<path fill="#747475" d="M314.875,24.547h58.659c10.831,0,20.213,1.822,28.139,5.46c7.928,3.641,14.398,8.614,19.422,14.917
			c5.02,6.307,8.75,13.684,11.197,22.132c2.443,8.452,3.666,17.486,3.666,27.105c0,9.622-1.223,18.656-3.666,27.105
			c-2.447,8.452-6.178,15.828-11.197,22.132c-5.023,6.308-11.494,11.28-19.422,14.918c-7.926,3.641-17.308,5.46-28.139,5.46h-58.659
			V24.547z M339.647,143.887h24.375c9.643,0,17.538-1.268,23.682-3.803s10.964-6.045,14.466-10.53
			c3.5-4.484,5.877-9.75,7.135-15.795c1.254-6.045,1.883-12.578,1.883-19.598c0-7.02-0.629-13.552-1.883-19.597
			c-1.258-6.045-3.635-11.31-7.135-15.795c-3.502-4.485-8.323-7.995-14.466-10.53c-6.144-2.535-14.039-3.802-23.682-3.802h-24.375
			V143.887z"/>
	</g>
</g>
<g>
	<g>
		<path fill="#747475" d="M47.996,188.903h5.187l10.725,27.846h-5.226l-2.613-7.371H44.954l-2.613,7.371H37.31L47.996,188.903z
			 M46.28,205.673h8.502l-4.173-11.973h-0.117L46.28,205.673z M51.155,181.143h5.265l-5.538,5.577h-3.237L51.155,181.143z"/>
		<path fill="#747475" d="M65.39,188.903h13.299c3.067,0,5.369,0.663,6.903,1.989c1.534,1.326,2.301,3.172,2.301,5.538
			c0,1.326-0.195,2.424-0.585,3.295c-0.39,0.872-0.845,1.573-1.365,2.106c-0.521,0.533-1.034,0.917-1.541,1.15
			s-0.877,0.39-1.111,0.468v0.078c0.416,0.053,0.864,0.183,1.345,0.39c0.481,0.208,0.929,0.54,1.346,0.995
			c0.416,0.455,0.76,1.047,1.033,1.774c0.273,0.728,0.41,1.638,0.41,2.73c0,1.638,0.123,3.127,0.371,4.465
			c0.247,1.34,0.63,2.295,1.15,2.867H83.72c-0.364-0.598-0.579-1.261-0.644-1.989s-0.097-1.43-0.097-2.106
			c0-1.273-0.078-2.372-0.234-3.295c-0.156-0.922-0.442-1.689-0.858-2.301c-0.416-0.611-0.981-1.059-1.696-1.346
			c-0.715-0.286-1.632-0.429-2.75-0.429h-7.176v11.466H65.39V188.903z M70.265,201.579h7.995c1.56,0,2.743-0.371,3.549-1.112
			c0.806-0.741,1.209-1.852,1.209-3.334c0-0.883-0.13-1.605-0.39-2.165c-0.26-0.559-0.618-0.994-1.073-1.306
			c-0.455-0.312-0.975-0.52-1.56-0.624c-0.585-0.104-1.189-0.156-1.813-0.156h-7.917V201.579z"/>
		<path fill="#747475" d="M91.675,188.903h20.046v4.212H96.55v7.293h14.04v3.978H96.55v8.151h15.444v4.212H91.675V188.903z"/>
		<path fill="#747475" d="M122.524,188.903h5.187l10.725,27.846h-5.226l-2.613-7.371h-11.115l-2.613,7.371h-5.031L122.524,188.903z
			 M120.808,205.673h8.502l-4.173-11.973h-0.117L120.808,205.673z"/>
	</g>
</g>
<polygon fill="#ED1C24" points="525.25,94.443 455,164.443 455,24.443 "/>
<polygon fill="#ED1C24" points="599.5,94.443 529.25,164.443 529.25,24.443 "/>
<g>
	<g>
		<path fill="#747475" d="M150.547,188.905h11.544c2.132,0,3.978,0.364,5.538,1.092c1.56,0.729,2.833,1.723,3.822,2.983
			c0.988,1.262,1.722,2.736,2.203,4.427s0.722,3.497,0.722,5.421s-0.241,3.731-0.722,5.421c-0.481,1.69-1.215,3.166-2.203,4.427
			c-0.989,1.261-2.262,2.256-3.822,2.983s-3.406,1.092-5.538,1.092h-11.544V188.905z M155.422,212.773h4.797
			c1.897,0,3.451-0.254,4.66-0.761s2.158-1.209,2.847-2.106c0.688-0.896,1.157-1.95,1.404-3.159s0.371-2.515,0.371-3.919
			s-0.124-2.711-0.371-3.92s-0.715-2.262-1.404-3.159c-0.689-0.896-1.638-1.599-2.847-2.105s-2.763-0.761-4.66-0.761h-4.797V212.773
			z"/>
		<path fill="#747475" d="M177.846,188.905h20.046v4.212h-15.171v7.293h14.04v3.978h-14.04v8.151h15.444v4.212h-20.319V188.905z"/>
		<path fill="#747475" d="M204.756,207.468c0,1.066,0.182,1.977,0.546,2.73c0.364,0.754,0.871,1.371,1.521,1.853
			c0.649,0.481,1.397,0.832,2.243,1.053c0.844,0.221,1.761,0.331,2.75,0.331c1.065,0,1.976-0.123,2.73-0.37
			c0.753-0.247,1.365-0.565,1.833-0.955c0.468-0.391,0.805-0.839,1.014-1.346c0.208-0.507,0.312-1.021,0.312-1.541
			c0-1.065-0.241-1.853-0.721-2.359c-0.481-0.507-1.008-0.864-1.58-1.072c-0.988-0.364-2.139-0.708-3.452-1.033
			c-1.313-0.325-2.932-0.747-4.855-1.268c-1.196-0.313-2.19-0.722-2.983-1.229c-0.793-0.507-1.423-1.072-1.892-1.696
			c-0.468-0.624-0.799-1.287-0.995-1.989c-0.195-0.702-0.292-1.417-0.292-2.146c0-1.403,0.292-2.619,0.877-3.646
			c0.585-1.026,1.358-1.878,2.321-2.554c0.961-0.676,2.054-1.177,3.276-1.502c1.222-0.325,2.457-0.487,3.705-0.487
			c1.456,0,2.828,0.188,4.114,0.565c1.287,0.377,2.418,0.942,3.393,1.696c0.975,0.755,1.749,1.684,2.321,2.788
			c0.571,1.105,0.858,2.386,0.858,3.842h-4.875c-0.13-1.794-0.741-3.062-1.833-3.803c-1.092-0.74-2.483-1.111-4.173-1.111
			c-0.572,0-1.157,0.059-1.755,0.176s-1.144,0.312-1.638,0.585c-0.494,0.273-0.904,0.644-1.229,1.111
			c-0.326,0.468-0.488,1.053-0.488,1.755c0,0.988,0.306,1.762,0.917,2.32c0.611,0.56,1.41,0.982,2.398,1.268
			c0.104,0.026,0.513,0.137,1.229,0.332c0.715,0.195,1.515,0.409,2.399,0.644c0.883,0.233,1.748,0.462,2.593,0.683
			c0.845,0.221,1.449,0.384,1.813,0.487c0.91,0.286,1.703,0.677,2.379,1.17c0.676,0.494,1.241,1.06,1.697,1.696
			c0.455,0.638,0.792,1.32,1.014,2.048c0.221,0.729,0.332,1.456,0.332,2.184c0,1.561-0.318,2.893-0.956,3.998
			s-1.476,2.008-2.515,2.71c-1.041,0.702-2.223,1.216-3.549,1.541c-1.326,0.324-2.678,0.487-4.056,0.487
			c-1.586,0-3.081-0.195-4.485-0.585c-1.404-0.39-2.626-0.988-3.666-1.794c-1.04-0.806-1.872-1.839-2.496-3.101
			c-0.624-1.261-0.95-2.75-0.975-4.466H204.756z"/>
		<path fill="#747475" d="M233.421,188.905h5.187l10.725,27.846h-5.226l-2.613-7.371h-11.115l-2.613,7.371h-5.031L233.421,188.905z
			 M231.705,205.674h8.502l-4.173-11.973h-0.117L231.705,205.674z"/>
		<path fill="#747475" d="M251.126,188.905h13.299c3.067,0,5.369,0.663,6.903,1.988c1.534,1.326,2.301,3.173,2.301,5.538
			c0,1.326-0.195,2.425-0.585,3.296c-0.39,0.871-0.845,1.573-1.365,2.105c-0.521,0.533-1.034,0.917-1.541,1.151
			c-0.507,0.233-0.877,0.39-1.111,0.468v0.078c0.416,0.052,0.864,0.182,1.345,0.39c0.481,0.208,0.929,0.54,1.346,0.994
			c0.416,0.456,0.76,1.047,1.033,1.775c0.273,0.728,0.41,1.638,0.41,2.729c0,1.638,0.123,3.127,0.371,4.466
			c0.247,1.339,0.63,2.295,1.15,2.866h-5.226c-0.364-0.598-0.579-1.261-0.644-1.989c-0.065-0.728-0.097-1.43-0.097-2.105
			c0-1.273-0.078-2.373-0.234-3.296c-0.156-0.923-0.442-1.689-0.858-2.301c-0.416-0.61-0.981-1.06-1.696-1.346
			c-0.715-0.286-1.632-0.429-2.75-0.429h-7.176v11.466h-4.875V188.905z M256.001,201.58h7.995c1.56,0,2.743-0.37,3.549-1.111
			c0.806-0.741,1.209-1.853,1.209-3.335c0-0.884-0.13-1.604-0.39-2.164c-0.26-0.559-0.618-0.995-1.073-1.307
			c-0.455-0.313-0.975-0.52-1.56-0.624c-0.585-0.104-1.189-0.156-1.813-0.156h-7.917V201.58z"/>
		<path fill="#747475" d="M277.724,188.905h13.299c3.067,0,5.369,0.663,6.903,1.988c1.534,1.326,2.301,3.173,2.301,5.538
			c0,1.326-0.195,2.425-0.585,3.296c-0.39,0.871-0.845,1.573-1.365,2.105c-0.521,0.533-1.034,0.917-1.541,1.151
			c-0.507,0.233-0.877,0.39-1.111,0.468v0.078c0.416,0.052,0.864,0.182,1.345,0.39c0.481,0.208,0.929,0.54,1.346,0.994
			c0.416,0.456,0.76,1.047,1.033,1.775c0.273,0.728,0.41,1.638,0.41,2.729c0,1.638,0.123,3.127,0.371,4.466
			c0.247,1.339,0.63,2.295,1.15,2.866h-5.226c-0.364-0.598-0.579-1.261-0.644-1.989c-0.065-0.728-0.097-1.43-0.097-2.105
			c0-1.273-0.078-2.373-0.234-3.296c-0.156-0.923-0.442-1.689-0.858-2.301c-0.416-0.61-0.981-1.06-1.696-1.346
			c-0.715-0.286-1.632-0.429-2.75-0.429h-7.176v11.466h-4.875V188.905z M282.599,201.58h7.995c1.56,0,2.743-0.37,3.549-1.111
			c0.806-0.741,1.209-1.853,1.209-3.335c0-0.884-0.13-1.604-0.39-2.164c-0.26-0.559-0.618-0.995-1.073-1.307
			c-0.455-0.313-0.975-0.52-1.56-0.624c-0.585-0.104-1.189-0.156-1.813-0.156h-7.917V201.58z"/>
		<path fill="#747475" d="M316.178,188.242c2.08,0,3.945,0.39,5.597,1.17c1.651,0.78,3.048,1.833,4.192,3.159
			c1.144,1.326,2.021,2.873,2.633,4.641c0.61,1.769,0.917,3.641,0.917,5.616c0,2.002-0.306,3.887-0.917,5.655
			c-0.611,1.768-1.489,3.314-2.633,4.641c-1.145,1.326-2.542,2.373-4.192,3.14c-1.651,0.767-3.517,1.15-5.597,1.15
			s-3.945-0.384-5.596-1.15c-1.651-0.767-3.049-1.813-4.193-3.14s-2.021-2.873-2.632-4.641c-0.611-1.769-0.917-3.653-0.917-5.655
			c0-1.976,0.305-3.848,0.917-5.616c0.611-1.768,1.488-3.314,2.632-4.641s2.542-2.379,4.193-3.159
			C312.232,188.631,314.098,188.242,316.178,188.242z M316.178,192.219c-1.482,0-2.763,0.3-3.841,0.897
			c-1.079,0.599-1.957,1.397-2.632,2.398c-0.677,1.001-1.177,2.139-1.501,3.412c-0.326,1.274-0.488,2.574-0.488,3.9
			s0.162,2.626,0.488,3.899c0.325,1.274,0.825,2.412,1.501,3.413c0.676,1.001,1.553,1.801,2.632,2.398
			c1.079,0.599,2.359,0.896,3.841,0.896s2.763-0.298,3.842-0.896c1.079-0.598,1.956-1.397,2.632-2.398
			c0.676-1.001,1.176-2.139,1.501-3.413c0.325-1.273,0.488-2.573,0.488-3.899s-0.163-2.626-0.488-3.9
			c-0.325-1.273-0.826-2.411-1.501-3.412c-0.676-1.001-1.554-1.8-2.632-2.398C318.94,192.519,317.66,192.219,316.178,192.219z"/>
		<path fill="#747475" d="M333.104,188.905h4.875v23.634h14.157v4.212h-19.032V188.905z"/>
		<path fill="#747475" d="M354.631,188.905h4.875v23.634h14.158v4.212h-19.033V188.905z"/>
		<path fill="#747475" d="M388.016,188.242c2.079,0,3.944,0.39,5.596,1.17s3.049,1.833,4.193,3.159
			c1.144,1.326,2.021,2.873,2.632,4.641c0.611,1.769,0.917,3.641,0.917,5.616c0,2.002-0.306,3.887-0.917,5.655
			c-0.611,1.768-1.488,3.314-2.632,4.641c-1.145,1.326-2.542,2.373-4.193,3.14s-3.517,1.15-5.596,1.15
			c-2.081,0-3.946-0.384-5.597-1.15c-1.651-0.767-3.049-1.813-4.192-3.14c-1.145-1.326-2.022-2.873-2.633-4.641
			c-0.611-1.769-0.916-3.653-0.916-5.655c0-1.976,0.305-3.848,0.916-5.616c0.61-1.768,1.488-3.314,2.633-4.641
			c1.144-1.326,2.541-2.379,4.192-3.159C384.069,188.631,385.935,188.242,388.016,188.242z M388.016,192.219
			c-1.482,0-2.764,0.3-3.842,0.897c-1.079,0.599-1.957,1.397-2.633,2.398s-1.177,2.139-1.501,3.412
			c-0.325,1.274-0.487,2.574-0.487,3.9s0.162,2.626,0.487,3.899c0.324,1.274,0.825,2.412,1.501,3.413s1.554,1.801,2.633,2.398
			c1.078,0.599,2.359,0.896,3.842,0.896c1.481,0,2.762-0.298,3.841-0.896c1.079-0.598,1.956-1.397,2.633-2.398
			c0.676-1.001,1.176-2.139,1.502-3.413c0.324-1.273,0.487-2.573,0.487-3.899s-0.163-2.626-0.487-3.9
			c-0.326-1.273-0.826-2.411-1.502-3.412c-0.677-1.001-1.554-1.8-2.633-2.398C390.777,192.519,389.497,192.219,388.016,192.219z"/>
	</g>
</g>
<g>
	<g>
		<path fill="#747475" d="M415.88,188.905h11.544c2.132,0,3.979,0.364,5.538,1.092c1.56,0.729,2.833,1.723,3.822,2.983
			c0.987,1.262,1.722,2.736,2.203,4.427s0.722,3.497,0.722,5.421s-0.24,3.731-0.722,5.421c-0.481,1.69-1.216,3.166-2.203,4.427
			c-0.989,1.261-2.263,2.256-3.822,2.983s-3.406,1.092-5.538,1.092H415.88V188.905z M420.755,212.773h4.798
			c1.896,0,3.451-0.254,4.66-0.761s2.157-1.209,2.847-2.106c0.688-0.896,1.157-1.95,1.403-3.159
			c0.248-1.209,0.371-2.515,0.371-3.919s-0.123-2.711-0.371-3.92c-0.246-1.209-0.715-2.262-1.403-3.159
			c-0.689-0.896-1.638-1.599-2.847-2.105s-2.764-0.761-4.66-0.761h-4.798V212.773z"/>
		<path fill="#747475" d="M455.191,188.242c2.08,0,3.945,0.39,5.597,1.17s3.048,1.833,4.192,3.159s2.021,2.873,2.633,4.641
			c0.61,1.769,0.916,3.641,0.916,5.616c0,2.002-0.306,3.887-0.916,5.655c-0.611,1.768-1.488,3.314-2.633,4.641
			s-2.541,2.373-4.192,3.14s-3.517,1.15-5.597,1.15s-3.945-0.384-5.596-1.15c-1.652-0.767-3.049-1.813-4.193-3.14
			s-2.021-2.873-2.633-4.641c-0.611-1.769-0.916-3.653-0.916-5.655c0-1.976,0.305-3.848,0.916-5.616
			c0.611-1.768,1.488-3.314,2.633-4.641s2.541-2.379,4.193-3.159C451.246,188.631,453.111,188.242,455.191,188.242z
			 M455.191,192.219c-1.482,0-2.763,0.3-3.842,0.897c-1.078,0.599-1.956,1.397-2.632,2.398c-0.677,1.001-1.177,2.139-1.501,3.412
			c-0.326,1.274-0.488,2.574-0.488,3.9s0.162,2.626,0.488,3.899c0.324,1.274,0.824,2.412,1.501,3.413
			c0.676,1.001,1.554,1.801,2.632,2.398c1.079,0.599,2.359,0.896,3.842,0.896s2.763-0.298,3.842-0.896
			c1.078-0.598,1.956-1.397,2.633-2.398c0.676-1.001,1.176-2.139,1.501-3.413c0.325-1.273,0.487-2.573,0.487-3.899
			s-0.162-2.626-0.487-3.9c-0.325-1.273-0.825-2.411-1.501-3.412c-0.677-1.001-1.555-1.8-2.633-2.398
			C457.954,192.519,456.674,192.219,455.191,192.219z"/>
		<path fill="#747475" d="M491.071,197.757c-0.208-0.806-0.495-1.547-0.858-2.223c-0.364-0.676-0.832-1.261-1.404-1.755
			s-1.241-0.878-2.008-1.15c-0.768-0.273-1.658-0.41-2.672-0.41c-1.482,0-2.763,0.3-3.842,0.897
			c-1.078,0.599-1.956,1.397-2.632,2.398c-0.677,1.001-1.177,2.139-1.501,3.412c-0.326,1.274-0.488,2.574-0.488,3.9
			s0.162,2.626,0.488,3.899c0.324,1.274,0.824,2.412,1.501,3.413c0.676,1.001,1.554,1.801,2.632,2.398
			c1.079,0.599,2.359,0.896,3.842,0.896c1.092,0,2.054-0.188,2.887-0.565c0.831-0.376,1.546-0.896,2.145-1.56
			c0.598-0.663,1.066-1.437,1.404-2.32s0.559-1.833,0.662-2.848h4.758c-0.104,1.665-0.461,3.186-1.072,4.563
			s-1.437,2.567-2.477,3.568c-1.039,1.001-2.262,1.774-3.666,2.32c-1.403,0.546-2.951,0.819-4.641,0.819
			c-2.08,0-3.945-0.384-5.596-1.15c-1.652-0.767-3.049-1.813-4.193-3.14s-2.021-2.873-2.633-4.641
			c-0.611-1.769-0.916-3.653-0.916-5.655c0-1.976,0.305-3.848,0.916-5.616c0.611-1.768,1.488-3.314,2.633-4.641
			s2.541-2.379,4.193-3.159c1.65-0.78,3.516-1.17,5.596-1.17c1.561,0,3.029,0.214,4.407,0.644c1.378,0.429,2.593,1.053,3.646,1.872
			c1.053,0.818,1.904,1.813,2.555,2.983c0.649,1.17,1.053,2.509,1.209,4.017H491.071z"/>
		<path fill="#747475" d="M499.729,188.905h20.046v4.212h-15.171v7.293h14.04v3.978h-14.04v8.151h15.444v4.212h-20.319V188.905z"/>
		<path fill="#747475" d="M523.4,188.905h5.148l12.714,20.514h0.078v-20.514h4.641v27.846h-5.147l-12.675-20.475h-0.117v20.475
			H523.4V188.905z"/>
		<path fill="#747475" d="M548.399,188.905h22.542v4.212h-8.853v23.634h-4.875v-23.634h-8.814V188.905z"/>
		<path fill="#747475" d="M573.476,188.905h20.046v4.212h-15.171v7.293h14.04v3.978h-14.04v8.151h15.444v4.212h-20.319V188.905z"/>
	</g>
</g>
</svg>
