<?xml version="1.0" encoding="utf-8"?>
<!-- Generator: Adobe Illustrator 16.0.0, SVG Export Plug-In . SVG Version: 6.00 Build 0)  -->
<!DOCTYPE svg PUBLIC "-//W3C//DTD SVG 1.1//EN" "http://www.w3.org/Graphics/SVG/1.1/DTD/svg11.dtd" [
	<!ENTITY ns_extend "http://ns.adobe.com/Extensibility/1.0/">
	<!ENTITY ns_ai "http://ns.adobe.com/AdobeIllustrator/10.0/">
	<!ENTITY ns_graphs "http://ns.adobe.com/Graphs/1.0/">
	<!ENTITY ns_vars "http://ns.adobe.com/Variables/1.0/">
	<!ENTITY ns_imrep "http://ns.adobe.com/ImageReplacement/1.0/">
	<!ENTITY ns_sfw "http://ns.adobe.com/SaveForWeb/1.0/">
	<!ENTITY ns_custom "http://ns.adobe.com/GenericCustomNamespace/1.0/">
	<!ENTITY ns_adobe_xpath "http://ns.adobe.com/XPath/1.0/">
]>
<svg version="1.1" id="Layer_1" xmlns:x="&ns_extend;" xmlns:i="&ns_ai;" xmlns:graph="&ns_graphs;"
	 xmlns="http://www.w3.org/2000/svg" xmlns:xlink="http://www.w3.org/1999/xlink" x="0px" y="0px" width="612px" height="657px"
	 viewBox="0 0 612 657" enable-background="new 0 0 612 657" xml:space="preserve">
<metadata>
	<sfw  xmlns="&ns_sfw;">
		<slices></slices>
		<sliceSourceBounds  width="549.391" height="577.978" y="9.484" x="127.375" bottomLeftOrigin="true"></sliceSourceBounds>
	</sfw>
</metadata>
<g>
	<rect x="113.584" y="47.85" fill="#3CBEB2" width="450.075" height="482.211"/>
	<path opacity="0.8" fill="#DF1F26" enable-background="new    " d="M320.448,250.798c0,0-161.038-33.583-195.62,0
		c-49.377,47.957,0,271.268,0,271.268s161.037,33.588,195.62,0C369.821,474.112,320.448,250.798,320.448,250.798z"/>
	<path opacity="0.9" fill="#F15F2B" enable-background="new    " d="M486.62,324.128c0,0-140.219-29.239-170.328,0
		c-36.014,34.971,0,197.85,0,197.85s140.218,29.242,170.328,0C522.625,487.004,486.62,324.128,486.62,324.128z"/>
	<path opacity="0.8" fill="#F9A23D" enable-background="new    " d="M572.028,328.588c-13.063-13.027-73.902,0-73.902,0
		s-34.288,159.194,0,193.377c13.066,13.026,73.902,0,73.902,0S606.313,362.769,572.028,328.588z"/>
	<g>
		<path fill="#050305" d="M65.915,520.637c11.466,0,22.843-2.685,22.843-16.257c0-4.439-2.038-8.657-3.633-12.682l4.714-1.903
			c2.071,5.084,4.071,9.562,4.071,15.272c0,17.102-13.199,22.4-28.135,22.4c-15.747,0-27.9-6.018-27.9-23.082
			c0-5.463,1.23-8.541,2.721-13.646l4.917,1.539c-1.528,4.064-2.477,7.688-2.477,12.107
			C43.035,518.093,54.545,520.637,65.915,520.637z"/>
		<path fill="#050305" d="M52.131,464.513c0-12.219,9.339-18.023,20.635-18.023c11.339,0,20.431,5.84,20.431,18.023
			c0,12.176-9.135,17.98-20.431,17.98C61.499,482.493,52.131,476.687,52.131,464.513z M88.55,464.513
			c0-9.23-7.937-11.818-15.783-11.818c-7.805,0-15.919,2.612-15.919,11.818c0,9.202,8.114,11.807,15.919,11.807
			C80.573,476.317,88.55,473.668,88.55,464.513z"/>
		<path fill="#050305" d="M92.522,432.101v6.457H52.846V433.8l6.346-0.816c-4.039-3.186-6.996-10.174-6.996-15.238
			c0-9.34,7.229-12.592,15.645-12.592h24.682v6.451H67.841c-5.326,0-10.856,1.125-10.856,7.604c0,3.77,3.086,10.109,5.674,12.893
			H92.522z"/>
		<path fill="#050305" d="M84.201,395.591c2.412-2.816,4.349-7.398,4.349-11.102c0-3.799-1.322-8.793-6.688-8.793
			c-10.45,0-4.312,22.404-19.587,22.404c-7.161,0-10.148-7.289-10.148-13.479c0-3.521,1.872-10.2,4.18-12.956l4.854,2.106
			c-2.407,2.979-4.008,6.614-4.008,10.475c0,3.709,0.914,8.426,5.503,8.426c7.736,0,4.108-22.813,19.376-22.813
			c8.313,0,11.166,7.678,11.166,14.869c0,3.705-1.768,10.157-4.074,13.037L84.201,395.591z"/>
		<path fill="#050305" d="M92.986,347.36c0,6.41-4.403,10.151-10.652,10.151H56.371v6.214h-3.528v-7.164H40.594l-1.564-5.496h13.813
			v-11.305h3.528v11.305h26.033c3.119,0,5.87-1.465,5.87-4.787c0-1.972-0.647-3.98-1.493-5.736l4.379-1.227
			C92.352,341.827,92.986,344.571,92.986,347.36z"/>
		<path fill="#050305" d="M52.544,311.588H57.7c-0.135,0.684-0.135,1.429-0.135,2.104c0,3.422,2.171,9.097,4.614,11.64h30.347v6.45
			H52.851v-4.853l6.516-1.022c-3.359-2.573-7.228-6.346-7.228-10.923C52.131,313.83,52.23,312.682,52.544,311.588z"/>
		<path fill="#050305" d="M83.217,277.332h-30.37v-6.444h39.676v4.787l-5.98,0.913c3.971,3.533,6.659,7.638,6.659,13.101
			c0,10.007-6.209,13.977-15.682,13.977H52.847v-6.439H77.52c5.634,0,11.03-1.302,11.03-7.87
			C88.55,284.771,86.446,280.63,83.217,277.332z"/>
		<path fill="#050305" d="M52.847,235.364v-6.625l40.931,14.832c7.534,2.709,14.323,5.326,14.323,14.732l-4.242,1.728
			c-1.329-7.805-5.023-9.436-12.124-11.54l-38.888,15.3v-6.168l31.219-12.048L52.847,235.364z"/>
		<path fill="#050305" d="M68.317,197.255c-7.195,0-11.333,0.937-11.333,9.222c0,4.004,1.635,8.921,3.802,12.322l-4.138,2.269
			c-2.547-4.514-4.518-8.922-4.518-14.256c0-12.591,4.994-16.017,17.109-16.017h23.282v4.751l-6.047,0.944
			c4.551,3.334,6.726,8.088,6.726,13.751c0,8.109-3.968,13.307-12.326,13.307c-8.819,0-12.625-7.061-12.625-15.072
			c0-2.916,0.717-8.483,1.698-11.222L68.317,197.255L68.317,197.255z M83.318,197.255H73.213c-0.48,2.939-0.717,5.892-0.717,8.877
			c0,5.841,1.151,10.936,7.937,10.936c5.906,0,8.118-2.714,8.118-8.413C88.55,204.272,86.24,200.366,83.318,197.255z"/>
		<path fill="#050305" d="M52.131,138.474c0-8.453,6.718-12.083,14.388-12.083h26.003v6.438H66.457
			c-4.888,0-9.473,0.782-9.473,6.585c0,4.858,3.057,9.063,6.419,12.289h29.118v6.453H66.456c-4.888,0-9.473,0.675-9.473,6.518
			c0,4.482,3.363,8.546,6.346,11.537h29.192v6.44H52.845v-4.779l6.991-0.919c-4.551-2.85-7.703-7.903-7.703-13.336
			c0-5.087,2.646-9.299,7.571-10.886C55.153,149.595,52.131,143.995,52.131,138.474z"/>
		<path fill="#050305" d="M52.131,100.58c0-12.219,9.339-18.014,20.635-18.014c11.339,0,20.431,5.836,20.431,18.014
			c0,12.182-9.135,17.988-20.431,17.988C61.499,118.568,52.131,112.762,52.131,100.58z M88.55,100.58
			c0-9.229-7.937-11.809-15.783-11.809c-7.805,0-15.919,2.614-15.919,11.809c0,9.199,8.114,11.813,15.919,11.813
			C80.573,112.393,88.55,109.742,88.55,100.58z"/>
		<path fill="#050305" d="M84.201,73.271c2.412-2.823,4.349-7.404,4.349-11.095c0-3.806-1.322-8.801-6.688-8.801
			c-10.45,0-4.312,22.403-19.587,22.403c-7.161,0-10.148-7.293-10.148-13.474c0-3.533,1.872-10.209,4.18-12.964l4.854,2.101
			c-2.407,2.99-4.008,6.625-4.008,10.487c0,3.706,0.914,8.417,5.503,8.417c7.736,0,4.108-22.806,19.376-22.806
			c8.313,0,11.166,7.674,11.166,14.869c0,3.699-1.768,10.148-4.074,13.031L84.201,73.271z"/>
	</g>
	<g>
		<path fill="#FFFFFF" d="M165.885,389.204c0,58.068,16.622,102.609,70.411,102.609c25.182,0,47.281-8.557,62.184-19.007
			l14.393,36.999c-16.452,13.534-50.024,20.557-80.347,20.557c-83.259,0-119.232-58.076-119.232-142.191
			c0-82.735,37.011-143.888,119.749-143.888c29.809,0,60.123,5.651,77.941,17.984l-13.695,37.521
			c-15.25-9.938-35.807-16.963-60.989-16.963C179.938,282.825,165.885,331.647,165.885,389.204z"/>
		<path fill="#FFFFFF" d="M455.856,479.219l11.127,33.205c-17.195,10.283-39.966,18.22-66.27,18.22
			c-62.553,0-98.635-37.438-98.635-99.83c0-63.396,30.181-109.087,93.24-109.087c53.785,0,81.268,35.415,81.268,89.372
			c0,8.599-0.161,16.859-0.502,24.954H352.493c0.336,37.253,16.527,60.697,52.102,60.697
			C427.524,496.745,441.85,489.84,455.856,479.219z M396.5,355.28c-30.187,1.006-42.826,25.123-44.177,54.972h83.291v-2.369
			C435.616,377.022,424.663,355.79,396.5,355.28z"/>
		<path fill="#FFFFFF" d="M493.434,264.641c0-15.958,11.644-28.187,27.664-28.187c16.019,0,27.826,12.055,27.826,28.187
			c0,16.132-11.981,28.192-27.826,28.192C504.739,292.829,493.434,281.113,493.434,264.641z M496.473,331.37h48.733v201.223h-48.733
			V331.37z"/>
		<path fill="#FFFFFF" d="M451.508,171.585c12.272,0,22.226,9.837,22.226,21.964c0,12.132-9.951,21.967-22.226,21.967
			c-12.271,0-22.224-9.835-22.224-21.967C429.286,181.422,439.237,171.585,451.508,171.585z"/>
		<ellipse fill="#FFFFFF" cx="358.952" cy="169.757" rx="15.619" ry="15.766"/>
		<ellipse fill="#FFFFFF" cx="263.791" cy="159.275" rx="9.48" ry="9.542"/>
		<path fill="#FFFFFF" d="M168.609,165.401c1.731,0,3.138,1.48,3.138,3.312c0,1.83-1.406,3.31-3.138,3.31
			c-1.738,0-3.141-1.48-3.141-3.31C165.468,166.882,166.871,165.401,168.609,165.401z"/>
	</g>
	<g>
		<path fill="#050305" d="M173.341,566.989c4.748,0,6.782,3.771,6.782,8.084v14.602h-3.614v-14.639c0-2.746-0.439-5.318-3.702-5.318
			c-2.728,0-5.091,1.713-6.899,3.604v16.346h-3.621v-14.635c0-2.746-0.385-5.316-3.658-5.316c-2.51,0-4.804,1.881-6.479,3.561
			v16.387h-3.618V567.39h2.684l0.521,3.916c1.594-2.557,4.43-4.322,7.49-4.322c2.86,0,5.208,1.488,6.121,4.246
			C167.092,568.698,170.241,566.989,173.341,566.989z"/>
		<path fill="#050305" d="M208.31,584.999c1.57,1.359,4.143,2.443,6.217,2.443c2.145,0,4.943-0.738,4.943-3.754
			c0-5.865-12.577-2.42-12.577-10.996c0-4.012,4.094-5.699,7.557-5.699c1.993,0,5.743,1.049,7.29,2.354l-1.192,2.721
			c-1.668-1.35-3.718-2.248-5.873-2.248c-2.078,0-4.729,0.523-4.729,3.084c0,4.35,12.806,2.313,12.806,10.883
			c0,4.67-4.305,6.271-8.346,6.271c-2.08,0-5.697-0.988-7.329-2.285L208.31,584.999z"/>
		<path fill="#050305" d="M152.135,611.979v11.99l-3.626,0.414v-31.555h2.691l0.631,3.771c1.658-2.227,4.245-4.18,7.13-4.18
			c6.555,0,8.958,5.873,8.958,11.553c0,5.58-2.521,11.51-8.94,11.51C156.328,615.487,153.793,613.999,152.135,611.979z
			 M158.975,595.155c-2.09,0-5.372,1.422-6.843,3v11.506c1.239,1.6,4.554,3.215,6.484,3.215c4.607,0,5.829-4.076,5.829-8.115
			C164.445,601.095,163.851,595.155,158.975,595.155z"/>
		<path fill="#050305" d="M182.433,612.876c2.157,0,4.217-0.916,5.833-2.416l1.187,2.766c-1.895,1.311-4.918,2.264-7.248,2.264
			c-6.896,0-9.98-5.068-9.98-11.396c0-6.074,3.101-11.664,9.815-11.664c5.829,0,8.441,4.439,8.441,9.797
			c0,0.732-0.091,1.451-0.212,2.156h-14.483C175.831,608.897,177.365,612.876,182.433,612.876z M182.057,594.96
			c-4.336,0-5.869,3.336-6.198,7.148h11.416v-0.66C187.274,597.993,185.962,594.96,182.057,594.96z"/>
		<path fill="#050305" d="M206.295,592.651v2.895c-0.379-0.068-0.794-0.068-1.185-0.068c-1.919,0-5.098,1.225-6.534,2.588v17.035
			h-3.614v-22.273h2.716l0.577,3.658c1.45-1.895,3.566-4.063,6.135-4.063C205.037,592.427,205.685,592.489,206.295,592.651z"/>
		<path fill="#050305" d="M211.57,610.435c1.575,1.357,4.148,2.441,6.226,2.441c2.138,0,4.939-0.74,4.939-3.754
			c0-5.863-12.581-2.424-12.581-10.996c0-4.016,4.103-5.699,7.561-5.699c1.993,0,5.741,1.051,7.291,2.35l-1.193,2.725
			c-1.675-1.348-3.72-2.248-5.88-2.248c-2.078,0-4.729,0.52-4.729,3.084c0,4.35,12.806,2.313,12.806,10.887
			c0,4.668-4.296,6.27-8.343,6.27c-2.074,0-5.699-0.99-7.328-2.285L211.57,610.435z"/>
		<path fill="#050305" d="M239.904,592.427c6.863,0,10.124,5.25,10.124,11.588c0,6.377-3.278,11.477-10.124,11.477
			c-6.843,0-10.102-5.123-10.102-11.477C229.802,597.69,233.061,592.427,239.904,592.427z M239.904,612.876
			c5.184,0,6.634-4.459,6.634-8.861c0-4.381-1.47-8.938-6.634-8.938s-6.636,4.551-6.636,8.938
			C233.269,608.396,234.756,612.876,239.904,612.876z"/>
		<path fill="#050305" d="M258.144,615.103h-3.618v-22.273h2.67l0.45,3.564c1.79-2.266,5.715-3.934,8.564-3.934
			c5.238,0,7.068,4.064,7.068,8.795v13.848h-3.625v-13.846c0-3.006-0.631-6.102-4.27-6.102c-2.116,0-5.678,1.738-7.24,3.178
			L258.144,615.103L258.144,615.103z"/>
		<path fill="#050305" d="M292.445,601.519c0-4.045-0.54-6.363-5.184-6.363c-2.248,0-5.017,0.912-6.917,2.133l-1.278-2.328
			c2.533-1.426,5.013-2.537,8.007-2.537c7.073,0,8.997,2.807,8.997,9.6v13.08h-2.665l-0.54-3.389
			c-1.863,2.553-4.53,3.773-7.722,3.773c-4.547,0-7.467-2.227-7.467-6.914c0-4.963,3.971-7.084,8.464-7.084
			c1.642,0,4.762,0.395,6.309,0.943v-0.914H292.445L292.445,601.519z M292.445,609.938v-5.674c-1.65-0.273-3.315-0.408-4.992-0.408
			c-3.273,0-6.138,0.65-6.138,4.465c0,3.313,1.524,4.553,4.729,4.553C288.503,612.876,290.691,611.581,292.445,609.938z"/>
		<path fill="#050305" d="M301.44,610.435c1.58,1.357,4.152,2.441,6.228,2.441c2.141,0,4.933-0.74,4.933-3.754
			c0-5.863-12.58-2.424-12.58-10.996c0-4.016,4.1-5.699,7.577-5.699c1.979,0,5.731,1.051,7.28,2.35l-1.186,2.725
			c-1.675-1.348-3.722-2.248-5.894-2.248c-2.067,0-4.722,0.52-4.722,3.084c0,4.35,12.809,2.313,12.809,10.887
			c0,4.668-4.311,6.27-8.352,6.27c-2.073,0-5.698-0.99-7.315-2.285L301.44,610.435z"/>
		<g>
			<path fill="#010101" d="M199.385,576.134c0-4.094-0.54-6.445-5.25-6.445c-2.276,0-5.071,0.92-6.998,2.156l-1.295-2.355
				c2.561-1.445,5.071-2.563,8.098-2.563c7.161,0,9.107,2.84,9.107,9.721v13.232h-2.702l-0.543-3.426
				c-1.886,2.58-4.584,3.814-7.812,3.814c-4.611,0-7.559-2.26-7.559-7c0-5.027,4.015-7.188,8.567-7.188
				c1.658,0,4.823,0.414,6.386,0.973L199.385,576.134L199.385,576.134z M199.385,584.657v-5.744
				c-1.681-0.271-3.356-0.414-5.057-0.414c-3.319,0-6.21,0.66-6.21,4.521c0,3.363,1.543,4.605,4.785,4.605
				C195.39,587.628,197.61,586.317,199.385,584.657z M193.187,564.456l3.067-11.782l4.481,1.754l-6.444,10.53L193.187,564.456z"/>
		</g>
	</g>
	<path fill="#010101" d="M126.859,555.623c0.055-5.779,1.45-10.007,4.194-12.679c2.605-2.615,5.518-3.916,8.736-3.916
		c2.769,0,4.95,0.604,6.546,1.812c1.517,1.272,2.276,2.981,2.276,5.128c0,1.145-0.32,2.137-0.963,2.975
		c-0.665,0.869-1.705,1.303-3.119,1.303c-1.201,0-2.08-0.434-2.644-1.309c-0.531-0.843-0.934-1.807-1.195-2.895
		c-0.248-1.066-0.55-2.051-0.923-2.946c-0.425-0.846-1.137-1.269-2.124-1.269c-2.13,0-3.222,1.607-3.278,4.814v62.23
		c-0.058,5.795-1.424,10-4.111,12.621c-2.61,2.678-5.551,4.023-8.826,4.023c-2.714-0.064-4.829-0.734-6.346-2.006
		c-1.65-1.211-2.477-2.855-2.477-4.936c0-1.268,0.383-2.297,1.158-3.068c0.647-0.838,1.617-1.26,2.923-1.26
		c1.278,0,2.187,0.428,2.721,1.266c0.561,0.902,0.976,1.898,1.244,2.994c0.262,1.059,0.587,2.01,0.96,2.855
		c0.402,0.838,1.067,1.291,2,1.357c2.104,0,3.188-1.605,3.241-4.82v-62.276H126.859z"/>
	<g>
		<path fill="#050305" d="M401.534,560.269l3.621-0.676v30.768h-3.621V560.269z"/>
		<path fill="#050305" d="M419.766,567.687c6.861,0,10.125,5.229,10.125,11.58c0,6.363-3.274,11.473-10.125,11.473
			c-6.85,0-10.106-5.123-10.106-11.473C409.659,572.938,412.92,567.687,419.766,567.687z M419.766,588.126
			c5.179,0,6.625-4.455,6.625-8.854c0-4.387-1.467-8.938-6.625-8.938c-5.165,0-6.635,4.549-6.635,8.938
			C413.131,583.647,414.616,588.126,419.766,588.126z"/>
		<path fill="#050305" d="M435.143,585.69c1.576,1.35,4.157,2.434,6.226,2.434c2.137,0,4.936-0.744,4.936-3.752
			c0-5.873-12.574-2.422-12.574-11.004c0-4.021,4.098-5.682,7.562-5.682c1.989,0,5.735,1.045,7.29,2.34l-1.195,2.721
			c-1.671-1.354-3.718-2.244-5.88-2.244c-2.08,0-4.729,0.521-4.729,3.084c0,4.34,12.81,2.311,12.81,10.883
			c0,4.666-4.3,6.27-8.343,6.27c-2.078,0-5.702-0.99-7.322-2.291L435.143,585.69z"/>
		<path fill="#050305" d="M409.588,613.319c2.147,0,4.211-0.912,5.828-2.416l1.182,2.768c-1.883,1.311-4.909,2.26-7.231,2.26
			c-6.902,0-9.996-5.072-9.996-11.396c0-6.072,3.106-11.658,9.813-11.658c5.84,0,8.453,4.436,8.453,9.791
			c0,0.721-0.098,1.451-0.215,2.148h-14.484C402.973,609.333,404.511,613.319,409.588,613.319z M409.207,595.405
			c-4.349,0-5.869,3.34-6.197,7.15h11.414v-0.668C414.427,598.437,413.112,595.405,409.207,595.405z"/>
		<path fill="#050305" d="M422.874,610.888c1.576,1.35,4.145,2.434,6.223,2.434c2.135,0,4.939-0.746,4.939-3.75
			c0-5.877-12.584-2.426-12.584-11.01c0-4.023,4.098-5.682,7.563-5.682c1.993,0,5.745,1.047,7.288,2.342l-1.187,2.725
			c-1.676-1.357-3.713-2.248-5.881-2.248c-2.082,0-4.731,0.521-4.731,3.086c0,4.342,12.81,2.313,12.81,10.879
			c0,4.674-4.3,6.271-8.347,6.271c-2.065,0-5.694-0.992-7.321-2.291L422.874,610.888z"/>
		<path fill="#050305" d="M444.993,612.431v11.99l-3.621,0.412v-31.559h2.684l0.627,3.777c1.658-2.232,4.246-4.172,7.129-4.172
			c6.563,0,8.953,5.865,8.953,11.543c0,5.578-2.514,11.508-8.933,11.508C449.177,615.931,446.646,614.442,444.993,612.431z
			 M451.829,595.604c-2.098,0-5.371,1.41-6.84,2.982v11.527c1.24,1.584,4.547,3.205,6.481,3.205c4.608,0,5.827-4.074,5.827-8.125
			C457.298,601.544,456.704,595.604,451.829,595.604z"/>
		<path fill="#050305" d="M479.791,601.958c0-4.033-0.544-6.354-5.191-6.354c-2.248,0-5.004,0.912-6.913,2.123l-1.281-2.326
			c2.537-1.428,5.021-2.525,8.015-2.525c7.069,0,8.997,2.791,8.997,9.6v13.076h-2.672l-0.537-3.387
			c-1.863,2.547-4.537,3.764-7.715,3.764c-4.551,0-7.467-2.234-7.467-6.924c0-4.953,3.957-7.084,8.453-7.084
			c1.643,0,4.77,0.398,6.315,0.945v-0.908H479.791L479.791,601.958z M479.791,610.394v-5.689c-1.664-0.266-3.315-0.395-5.003-0.395
			c-3.278,0-6.139,0.635-6.139,4.451c0,3.307,1.531,4.553,4.731,4.553C475.834,613.319,478.034,612.028,479.791,610.394z"/>
		<path fill="#050305" d="M491.413,604.501c0,4.197,1.27,8.826,6.152,8.826c2.311,0,4.56-0.734,6.271-2.438l1.081,2.551
			c-2.174,1.521-4.735,2.496-7.451,2.496c-6.671,0-9.678-5.332-9.678-11.434c0-6.164,3.011-11.617,9.746-11.617
			c2.681,0,5.209,0.982,7.383,2.523l-1.081,2.539c-1.679-1.451-3.771-2.211-5.979-2.211
			C492.704,595.735,491.413,600.112,491.413,604.501z"/>
		<path fill="#050305" d="M513.512,587.694c0,1.178-0.815,2.186-2.056,2.186c-1.225,0-2.131-0.992-2.131-2.186
			c0-1.188,0.931-2.197,2.131-2.197C512.696,585.497,513.512,586.507,513.512,587.694z M509.651,615.556v-22.279h3.471v22.279
			H509.651z"/>
		<path fill="#050305" d="M528.104,592.88c6.86,0,10.122,5.23,10.122,11.58c0,6.365-3.278,11.475-10.122,11.475
			c-6.845,0-10.104-5.123-10.104-11.475C518,598.14,521.264,592.88,528.104,592.88z M528.104,613.319
			c5.18,0,6.629-4.455,6.629-8.859c0-4.385-1.461-8.936-6.629-8.936s-6.642,4.547-6.642,8.936
			C521.463,608.841,522.957,613.319,528.104,613.319z"/>
		<path fill="#050305" d="M543.485,610.888c1.584,1.35,4.153,2.434,6.225,2.434c2.139,0,4.939-0.746,4.939-3.75
			c0-5.877-12.58-2.426-12.58-11.01c0-4.023,4.094-5.682,7.573-5.682c1.982,0,5.729,1.047,7.279,2.342l-1.183,2.725
			c-1.682-1.357-3.725-2.248-5.887-2.248c-2.078,0-4.732,0.521-4.732,3.086c0,4.342,12.812,2.313,12.812,10.879
			c0,4.674-4.315,6.271-8.354,6.271c-2.074,0-5.695-0.992-7.313-2.291L543.485,610.888z"/>
	</g>
	<path fill="#010101" d="M394.725,556.524v2.273c-1.873,0-3.211,0.258-4.022,0.785c-0.822,0.529-1.232,1.43-1.232,2.713v47.432
		c0,1.633,0.385,2.686,1.139,3.152c0.756,0.463,2.129,0.701,4.111,0.701v2.275h-19.25v-2.275c1.98,0,3.35-0.238,4.107-0.701
		c0.756-0.469,1.141-1.521,1.141-3.152v-48.83h-26.252v48.83c0,1.633,0.379,2.686,1.135,3.152c0.762,0.463,2.131,0.701,4.117,0.701
		v2.275h-19.246v-2.275c1.98,0,3.359-0.238,4.115-0.701c0.748-0.469,1.137-1.521,1.137-3.152v-47.432
		c0-1.279-0.389-2.184-1.137-2.713c-0.756-0.527-2.135-0.785-4.115-0.785v-2.273H394.725z"/>
</g>
</svg>
