<?xml version="1.0" encoding="utf-8"?>
<!-- Generator: Adobe Illustrator 16.0.0, SVG Export Plug-In . SVG Version: 6.00 Build 0)  -->
<!DOCTYPE svg PUBLIC "-//W3C//DTD SVG 1.1//EN" "http://www.w3.org/Graphics/SVG/1.1/DTD/svg11.dtd" [
	<!ENTITY ns_extend "http://ns.adobe.com/Extensibility/1.0/">
	<!ENTITY ns_ai "http://ns.adobe.com/AdobeIllustrator/10.0/">
	<!ENTITY ns_graphs "http://ns.adobe.com/Graphs/1.0/">
	<!ENTITY ns_vars "http://ns.adobe.com/Variables/1.0/">
	<!ENTITY ns_imrep "http://ns.adobe.com/ImageReplacement/1.0/">
	<!ENTITY ns_sfw "http://ns.adobe.com/SaveForWeb/1.0/">
	<!ENTITY ns_custom "http://ns.adobe.com/GenericCustomNamespace/1.0/">
	<!ENTITY ns_adobe_xpath "http://ns.adobe.com/XPath/1.0/">
]>
<svg version="1.1" id="Layer_1" xmlns:x="&ns_extend;" xmlns:i="&ns_ai;" xmlns:graph="&ns_graphs;"
	 xmlns="http://www.w3.org/2000/svg" xmlns:xlink="http://www.w3.org/1999/xlink" x="0px" y="0px" width="612px" height="657px"
	 viewBox="-226.778 -245.68 612 657" enable-background="new -226.778 -245.68 612 657" xml:space="preserve">
<metadata>
	<sfw  xmlns="&ns_sfw;">
		<slices></slices>
		<sliceSourceBounds  width="549.392" height="577.979" x="119.893" y="14.455" bottomLeftOrigin="true"></sliceSourceBounds>
	</sfw>
</metadata>
<rect x="-120.675" y="-202.803" fill="#3CBEB2" width="450.076" height="482.212"/>
<path opacity="0.8" fill="#DF1F26" enable-background="new    " d="M86.189,0.145c0,0-161.037-33.583-195.619,0
	c-49.377,47.957,0,271.268,0,271.268s161.037,33.588,195.619,0C135.562,223.46,86.189,0.145,86.189,0.145z"/>
<path opacity="0.9" fill="#F15F2B" enable-background="new    " d="M252.362,73.475c0,0-140.22-29.239-170.329,0
	c-36.014,34.971,0,197.849,0,197.849s140.218,29.243,170.329,0C288.366,236.351,252.362,73.475,252.362,73.475z"/>
<path opacity="0.8" fill="#F9A23D" enable-background="new    " d="M337.769,77.935c-13.063-13.027-73.902,0-73.902,0
	s-34.288,159.195,0,193.377c13.067,13.027,73.902,0,73.902,0S372.054,112.115,337.769,77.935z"/>
<g>
	<path fill="#050305" d="M-168.344,269.984c11.466,0,22.843-2.684,22.843-16.257c0-4.44-2.038-8.657-3.633-12.681l4.714-1.904
		c2.071,5.084,4.071,9.561,4.071,15.272c0,17.102-13.199,22.401-28.135,22.401c-15.747,0-27.9-6.018-27.9-23.082
		c0-5.463,1.23-8.541,2.721-13.647l4.917,1.54c-1.528,4.064-2.477,7.688-2.477,12.107
		C-191.224,267.44-179.714,269.984-168.344,269.984z"/>
	<path fill="#050305" d="M-182.128,213.86c0-12.219,9.339-18.024,20.635-18.024c11.339,0,20.431,5.84,20.431,18.024
		c0,12.175-9.135,17.98-20.431,17.98C-172.76,231.84-182.128,226.034-182.128,213.86z M-145.709,213.86
		c0-9.231-7.937-11.819-15.783-11.819c-7.805,0-15.919,2.613-15.919,11.819c0,9.202,8.114,11.806,15.919,11.806
		C-153.686,225.665-145.709,223.015-145.709,213.86z"/>
	<path fill="#050305" d="M-141.737,181.448v6.457h-39.676v-4.758l6.346-0.816c-4.039-3.186-6.996-10.174-6.996-15.238
		c0-9.34,7.229-12.592,15.645-12.592h24.682v6.45h-24.682c-5.326,0-10.856,1.125-10.856,7.604c0,3.769,3.086,10.11,5.674,12.893
		H-141.737z"/>
	<path fill="#050305" d="M-150.058,144.938c2.412-2.816,4.349-7.399,4.349-11.101c0-3.799-1.322-8.793-6.688-8.793
		c-10.45,0-4.312,22.403-19.587,22.403c-7.161,0-10.148-7.288-10.148-13.478c0-3.521,1.872-10.2,4.18-12.956l4.854,2.107
		c-2.407,2.979-4.008,6.614-4.008,10.474c0,3.709,0.914,8.426,5.503,8.426c7.736,0,4.108-22.813,19.376-22.813
		c8.313,0,11.166,7.678,11.166,14.869c0,3.706-1.768,10.158-4.074,13.038L-150.058,144.938z"/>
	<path fill="#050305" d="M-141.273,96.708c0,6.409-4.403,10.151-10.652,10.151h-25.963v6.214h-3.528v-7.164h-12.249l-1.564-5.497
		h13.813V89.108h3.528v11.305h26.033c3.119,0,5.87-1.466,5.87-4.788c0-1.971-0.647-3.98-1.493-5.736l4.379-1.227
		C-141.907,91.175-141.273,93.919-141.273,96.708z"/>
	<path fill="#050305" d="M-181.715,60.935h5.156c-0.135,0.684-0.135,1.429-0.135,2.104c0,3.422,2.171,9.097,4.614,11.64h30.347
		v6.451h-39.675v-4.853l6.516-1.023c-3.359-2.573-7.228-6.346-7.228-10.923C-182.128,63.177-182.029,62.029-181.715,60.935z"/>
	<path fill="#050305" d="M-151.042,26.679h-30.37v-6.444h39.676v4.787l-5.98,0.913c3.971,3.533,6.659,7.638,6.659,13.101
		c0,10.007-6.209,13.977-15.682,13.977h-24.673v-6.439h24.673c5.634,0,11.03-1.302,11.03-7.87
		C-145.709,34.118-147.813,29.977-151.042,26.679z"/>
	<path fill="#050305" d="M-181.412-15.289v-6.625l40.931,14.832c7.534,2.709,14.323,5.326,14.323,14.732l-4.242,1.728
		c-1.329-7.805-5.023-9.436-12.124-11.54l-38.888,15.3V6.97l31.219-12.048L-181.412-15.289z"/>
	<path fill="#050305" d="M-165.942-53.398c-7.195,0-11.333,0.937-11.333,9.222c0,4.004,1.635,8.921,3.802,12.322l-4.138,2.269
		c-2.547-4.514-4.518-8.922-4.518-14.256c0-12.591,4.994-16.017,17.109-16.017h23.282v4.751l-6.047,0.944
		c4.551,3.334,6.726,8.088,6.726,13.751c0,8.109-3.968,13.307-12.326,13.307c-8.819,0-12.625-7.061-12.625-15.072
		c0-2.916,0.717-8.483,1.698-11.222H-165.942L-165.942-53.398z M-150.941-53.398h-10.105c-0.48,2.939-0.717,5.892-0.717,8.877
		c0,5.841,1.151,10.936,7.937,10.936c5.906,0,8.118-2.714,8.118-8.413C-145.709-46.381-148.019-50.287-150.941-53.398z"/>
	<path fill="#050305" d="M-182.128-112.179c0-8.453,6.718-12.083,14.388-12.083h26.003v6.438h-26.065
		c-4.888,0-9.473,0.782-9.473,6.585c0,4.858,3.057,9.063,6.419,12.289h29.118v6.453h-26.065c-4.888,0-9.473,0.675-9.473,6.518
		c0,4.482,3.363,8.546,6.346,11.537h29.192v6.44h-39.676v-4.779l6.991-0.919c-4.551-2.85-7.703-7.903-7.703-13.336
		c0-5.087,2.646-9.299,7.571-10.886C-179.106-101.058-182.128-106.658-182.128-112.179z"/>
	<path fill="#050305" d="M-182.128-150.073c0-12.219,9.339-18.014,20.635-18.014c11.339,0,20.431,5.836,20.431,18.014
		c0,12.182-9.135,17.988-20.431,17.988C-172.76-132.085-182.128-137.891-182.128-150.073z M-145.709-150.073
		c0-9.229-7.937-11.809-15.783-11.809c-7.805,0-15.919,2.614-15.919,11.809c0,9.199,8.114,11.813,15.919,11.813
		C-153.686-138.26-145.709-140.911-145.709-150.073z"/>
	<path fill="#050305" d="M-150.058-177.382c2.412-2.823,4.349-7.404,4.349-11.095c0-3.806-1.322-8.801-6.688-8.801
		c-10.45,0-4.312,22.403-19.587,22.403c-7.161,0-10.148-7.293-10.148-13.474c0-3.533,1.872-10.209,4.18-12.964l4.854,2.101
		c-2.407,2.99-4.008,6.625-4.008,10.487c0,3.706,0.914,8.417,5.503,8.417c7.736,0,4.108-22.806,19.376-22.806
		c8.313,0,11.166,7.674,11.166,14.869c0,3.699-1.768,10.148-4.074,13.031L-150.058-177.382z"/>
</g>
<g>
	<path fill="#FFFFFF" d="M-68.374,138.552c0,58.068,16.622,102.609,70.411,102.609c25.182,0,47.281-8.557,62.184-19.007
		l14.393,36.999C62.161,272.687,28.589,279.71-1.734,279.71c-83.259,0-119.232-58.076-119.232-142.192
		C-120.966,54.783-83.955-6.37-1.217-6.37c29.809,0,60.123,5.651,77.941,17.984L63.029,49.135
		C47.78,39.197,27.222,32.172,2.04,32.172C-54.321,32.172-68.374,80.995-68.374,138.552z"/>
	<path fill="#FFFFFF" d="M221.597,228.566l11.127,33.205c-17.195,10.283-39.965,18.22-66.269,18.22
		c-62.552,0-98.634-37.438-98.634-99.83c0-63.396,30.18-109.088,93.24-109.088c53.784,0,81.267,35.415,81.267,89.372
		c0,8.598-0.161,16.859-0.502,24.954H118.234c0.336,37.253,16.527,60.697,52.102,60.697
		C193.265,246.093,207.591,239.187,221.597,228.566z M162.241,104.627c-30.187,1.007-42.826,25.123-44.177,54.972h83.292v-2.369
		C201.357,126.37,190.404,105.137,162.241,104.627z"/>
	<path fill="#FFFFFF" d="M259.175,13.988c0-15.958,11.644-28.187,27.664-28.187c16.018,0,27.826,12.055,27.826,28.187
		s-11.982,28.192-27.826,28.192C270.48,42.176,259.175,30.46,259.175,13.988z M262.214,80.718h48.733V281.94h-48.733V80.718z"/>
	<path fill="#FFFFFF" d="M217.249-79.068c12.273,0,22.226,9.837,22.226,21.964c0,12.132-9.952,21.967-22.226,21.967
		c-12.271,0-22.223-9.835-22.223-21.967C195.027-69.231,204.978-79.068,217.249-79.068z"/>
	<ellipse fill="#FFFFFF" cx="124.693" cy="-80.896" rx="15.619" ry="15.766"/>
	<ellipse fill="#FFFFFF" cx="29.532" cy="-91.378" rx="9.48" ry="9.542"/>
	<path fill="#FFFFFF" d="M-65.65-85.252c1.731,0,3.138,1.48,3.138,3.312c0,1.83-1.406,3.31-3.138,3.31
		c-1.738,0-3.141-1.48-3.141-3.31C-68.791-83.771-67.388-85.252-65.65-85.252z"/>
</g>
<g>
	<path fill="#050305" d="M-60.918,316.337c4.748,0,6.782,3.771,6.782,8.084v14.6h-3.614v-14.637c0-2.746-0.439-5.319-3.702-5.319
		c-2.728,0-5.091,1.712-6.899,3.604v16.345h-3.621V324.38c0-2.746-0.385-5.318-3.658-5.318c-2.51,0-4.804,1.882-6.479,3.561v16.387
		h-3.618v-22.273h2.684l0.521,3.916c1.594-2.557,4.43-4.322,7.49-4.322c2.86,0,5.208,1.487,6.121,4.245
		C-67.167,318.045-64.018,316.337-60.918,316.337z"/>
	<path fill="#050305" d="M-25.949,334.347c1.57,1.359,4.143,2.443,6.217,2.443c2.145,0,4.943-0.738,4.943-3.754
		c0-5.865-12.577-2.421-12.577-10.996c0-4.013,4.094-5.7,7.557-5.7c1.993,0,5.743,1.05,7.29,2.353l-1.192,2.721
		c-1.668-1.349-3.718-2.248-5.873-2.248c-2.078,0-4.729,0.523-4.729,3.084c0,4.35,12.806,2.313,12.806,10.883
		c0,4.671-4.305,6.272-8.346,6.272c-2.08,0-5.697-0.989-7.329-2.285L-25.949,334.347z"/>
	<path fill="#050305" d="M-82.124,361.327v11.99l-3.626,0.413v-31.554h2.691l0.631,3.771c1.658-2.225,4.245-4.178,7.13-4.178
		c6.555,0,8.958,5.873,8.958,11.551c0,5.58-2.521,11.51-8.94,11.51C-77.931,364.835-80.466,363.347-82.124,361.327z
		 M-75.284,344.502c-2.09,0-5.372,1.422-6.843,3.001v11.506c1.239,1.598,4.554,3.215,6.484,3.215c4.607,0,5.829-4.078,5.829-8.117
		C-69.814,350.442-70.408,344.502-75.284,344.502z"/>
	<path fill="#050305" d="M-51.826,362.224c2.157,0,4.217-0.916,5.833-2.416l1.187,2.765c-1.895,1.31-4.918,2.263-7.248,2.263
		c-6.896,0-9.98-5.068-9.98-11.396c0-6.075,3.101-11.665,9.815-11.665c5.829,0,8.441,4.44,8.441,9.798
		c0,0.733-0.091,1.451-0.212,2.155h-14.483C-58.428,358.244-56.894,362.224-51.826,362.224z M-52.202,344.307
		c-4.336,0-5.869,3.337-6.198,7.149h11.416v-0.66C-46.985,347.341-48.297,344.307-52.202,344.307z"/>
	<path fill="#050305" d="M-27.964,341.999v2.895c-0.379-0.07-0.794-0.07-1.185-0.07c-1.919,0-5.098,1.226-6.534,2.588v17.035h-3.614
		v-22.273h2.716l0.577,3.658c1.45-1.894,3.566-4.061,6.135-4.061C-29.222,341.774-28.574,341.837-27.964,341.999z"/>
	<path fill="#050305" d="M-22.689,359.781c1.575,1.359,4.148,2.443,6.226,2.443c2.138,0,4.939-0.741,4.939-3.754
		c0-5.864-12.581-2.424-12.581-10.996c0-4.016,4.103-5.7,7.561-5.7c1.993,0,5.741,1.05,7.291,2.349l-1.193,2.725
		c-1.675-1.348-3.72-2.248-5.88-2.248c-2.078,0-4.729,0.52-4.729,3.085c0,4.349,12.806,2.312,12.806,10.886
		c0,4.667-4.296,6.269-8.343,6.269c-2.074,0-5.699-0.989-7.328-2.285L-22.689,359.781z"/>
	<path fill="#050305" d="M5.645,341.774c6.863,0,10.124,5.249,10.124,11.588c0,6.376-3.278,11.477-10.124,11.477
		c-6.843,0-10.102-5.124-10.102-11.477C-4.457,347.038-1.198,341.774,5.645,341.774z M5.645,362.224
		c5.184,0,6.634-4.459,6.634-8.862c0-4.382-1.47-8.937-6.634-8.937c-5.164,0-6.636,4.551-6.636,8.937
		C-0.99,357.743,0.497,362.224,5.645,362.224z"/>
	<path fill="#050305" d="M23.885,364.449h-3.618v-22.272h2.67l0.45,3.563c1.79-2.264,5.715-3.932,8.564-3.932
		c5.238,0,7.068,4.063,7.068,8.795v13.847h-3.625v-13.847c0-3.004-0.631-6.101-4.27-6.101c-2.116,0-5.678,1.738-7.24,3.178V364.449z
		"/>
	<path fill="#050305" d="M58.186,350.865c0-4.045-0.54-6.363-5.184-6.363c-2.248,0-5.017,0.912-6.917,2.134l-1.278-2.329
		c2.533-1.426,5.013-2.536,8.007-2.536c7.073,0,8.997,2.805,8.997,9.598v13.081h-2.665l-0.54-3.388
		c-1.863,2.551-4.53,3.773-7.722,3.773c-4.547,0-7.467-2.227-7.467-6.914c0-4.963,3.971-7.084,8.464-7.084
		c1.642,0,4.762,0.394,6.309,0.943v-0.915H58.186z M58.186,359.286v-5.674c-1.65-0.273-3.315-0.409-4.992-0.409
		c-3.273,0-6.138,0.651-6.138,4.466c0,3.311,1.524,4.552,4.729,4.552C54.244,362.224,56.432,360.929,58.186,359.286z"/>
	<path fill="#050305" d="M67.181,359.781c1.58,1.359,4.153,2.443,6.228,2.443c2.141,0,4.933-0.741,4.933-3.754
		c0-5.864-12.581-2.424-12.581-10.996c0-4.016,4.101-5.7,7.578-5.7c1.979,0,5.732,1.05,7.28,2.349l-1.185,2.725
		c-1.675-1.348-3.722-2.248-5.894-2.248c-2.067,0-4.722,0.52-4.722,3.085c0,4.349,12.809,2.312,12.809,10.886
		c0,4.667-4.311,6.269-8.351,6.269c-2.074,0-5.699-0.989-7.316-2.285L67.181,359.781z"/>
	<g>
		<path fill="#010101" d="M-34.874,325.481c0-4.094-0.54-6.446-5.25-6.446c-2.276,0-5.071,0.92-6.998,2.157l-1.295-2.355
			c2.561-1.446,5.071-2.563,8.098-2.563c7.161,0,9.107,2.84,9.107,9.721v13.233h-2.702l-0.543-3.426
			c-1.886,2.58-4.584,3.814-7.812,3.814c-4.611,0-7.559-2.261-7.559-7c0-5.027,4.015-7.188,8.567-7.188
			c1.658,0,4.823,0.415,6.386,0.972V325.481z M-34.874,334.004v-5.744c-1.681-0.272-3.356-0.413-5.057-0.413
			c-3.319,0-6.21,0.66-6.21,4.521c0,3.362,1.543,4.606,4.785,4.606C-38.869,336.975-36.649,335.665-34.874,334.004z
			 M-41.072,313.804l3.067-11.783l4.481,1.754l-6.444,10.531L-41.072,313.804z"/>
	</g>
</g>
<path fill="#010101" d="M-107.4,304.97c0.055-5.779,1.45-10.007,4.194-12.679c2.605-2.614,5.518-3.916,8.736-3.916
	c2.769,0,4.95,0.604,6.546,1.812c1.517,1.273,2.276,2.982,2.276,5.128c0,1.145-0.32,2.136-0.963,2.975
	c-0.665,0.868-1.705,1.302-3.119,1.302c-1.201,0-2.08-0.434-2.644-1.309c-0.531-0.842-0.934-1.806-1.195-2.894
	c-0.248-1.067-0.55-2.05-0.923-2.946c-0.425-0.846-1.137-1.268-2.124-1.268c-2.13,0-3.222,1.607-3.278,4.814v62.23
	c-0.058,5.795-1.424,10-4.111,12.621c-2.61,2.679-5.551,4.023-8.826,4.023c-2.714-0.063-4.829-0.734-6.346-2.006
	c-1.65-1.211-2.477-2.855-2.477-4.934c0-1.268,0.383-2.298,1.158-3.069c0.647-0.837,1.617-1.259,2.923-1.259
	c1.278,0,2.187,0.426,2.721,1.264c0.561,0.904,0.976,1.9,1.244,2.994c0.262,1.059,0.587,2.011,0.96,2.856
	c0.402,0.839,1.067,1.292,2,1.358c2.104,0,3.188-1.606,3.241-4.821V304.97H-107.4z"/>
<g>
	<path fill="#050305" d="M167.275,309.615l3.621-0.675v30.767h-3.621V309.615z"/>
	<path fill="#050305" d="M185.507,317.034c6.861,0,10.125,5.228,10.125,11.58c0,6.363-3.275,11.472-10.125,11.472
		s-10.107-5.122-10.107-11.472C175.4,322.286,178.661,317.034,185.507,317.034z M185.507,337.474c5.178,0,6.625-4.455,6.625-8.855
		c0-4.386-1.467-8.937-6.625-8.937c-5.165,0-6.635,4.548-6.635,8.937C178.872,332.995,180.357,337.474,185.507,337.474z"/>
	<path fill="#050305" d="M200.884,335.038c1.576,1.35,4.157,2.433,6.225,2.433c2.137,0,4.936-0.743,4.936-3.751
		c0-5.873-12.574-2.423-12.574-11.004c0-4.023,4.098-5.682,7.561-5.682c1.99,0,5.736,1.044,7.29,2.34l-1.195,2.721
		c-1.671-1.355-3.718-2.244-5.88-2.244c-2.08,0-4.73,0.52-4.73,3.083c0,4.34,12.81,2.31,12.81,10.882c0,4.666-4.3,6.271-8.343,6.271
		c-2.078,0-5.702-0.991-7.322-2.292L200.884,335.038z"/>
	<path fill="#050305" d="M175.329,362.667c2.147,0,4.211-0.912,5.828-2.417l1.182,2.769c-1.883,1.31-4.91,2.259-7.232,2.259
		c-6.902,0-9.996-5.073-9.996-11.396c0-6.072,3.107-11.658,9.813-11.658c5.84,0,8.453,4.434,8.453,9.791
		c0,0.719-0.097,1.45-0.215,2.148h-14.484C168.714,358.681,170.252,362.667,175.329,362.667z M174.948,344.753
		c-4.348,0-5.869,3.34-6.197,7.15h11.414v-0.669C180.168,347.784,178.853,344.753,174.948,344.753z"/>
	<path fill="#050305" d="M188.615,360.235c1.576,1.349,4.145,2.433,6.223,2.433c2.134,0,4.939-0.745,4.939-3.75
		c0-5.877-12.584-2.426-12.584-11.009c0-4.023,4.098-5.681,7.563-5.681c1.993,0,5.745,1.045,7.288,2.341l-1.186,2.725
		c-1.676-1.358-3.713-2.248-5.881-2.248c-2.082,0-4.732,0.521-4.732,3.085c0,4.342,12.81,2.312,12.81,10.879
		c0,4.674-4.3,6.271-8.347,6.271c-2.066,0-5.695-0.992-7.322-2.291L188.615,360.235z"/>
	<path fill="#050305" d="M210.734,361.778v11.99l-3.621,0.413v-31.559h2.684l0.627,3.776c1.658-2.232,4.246-4.171,7.129-4.171
		c6.563,0,8.953,5.865,8.953,11.543c0,5.578-2.514,11.507-8.933,11.507C214.918,365.278,212.387,363.79,210.734,361.778z
		 M217.57,344.952c-2.098,0-5.371,1.409-6.84,2.982v11.527c1.24,1.584,4.547,3.205,6.482,3.205c4.609,0,5.827-4.074,5.827-8.125
		C223.039,350.892,222.445,344.952,217.57,344.952z"/>
	<path fill="#050305" d="M245.532,351.305c0-4.034-0.543-6.353-5.191-6.353c-2.248,0-5.004,0.912-6.913,2.123l-1.281-2.326
		c2.536-1.429,5.021-2.525,8.014-2.525c7.069,0,8.997,2.791,8.997,9.598v13.076h-2.672l-0.537-3.385
		c-1.863,2.547-4.537,3.762-7.715,3.762c-4.551,0-7.467-2.234-7.467-6.923c0-4.954,3.957-7.084,8.453-7.084
		c1.643,0,4.77,0.399,6.316,0.946v-0.909H245.532z M245.532,359.74v-5.688c-1.664-0.266-3.315-0.396-5.003-0.396
		c-3.278,0-6.138,0.635-6.138,4.452c0,3.307,1.531,4.552,4.731,4.552C241.575,362.667,243.775,361.375,245.532,359.74z"/>
	<path fill="#050305" d="M257.154,353.849c0,4.197,1.27,8.825,6.152,8.825c2.311,0,4.56-0.734,6.271-2.437l1.081,2.551
		c-2.173,1.522-4.735,2.496-7.451,2.496c-6.671,0-9.677-5.333-9.677-11.433c0-6.165,3.01-11.619,9.745-11.619
		c2.681,0,5.21,0.984,7.383,2.524l-1.081,2.54c-1.679-1.452-3.771-2.212-5.98-2.212
		C258.445,345.082,257.154,349.459,257.154,353.849z"/>
	<path fill="#050305" d="M279.253,337.042c0,1.178-0.816,2.185-2.056,2.185c-1.224,0-2.13-0.993-2.13-2.185
		c0-1.188,0.93-2.197,2.13-2.197C278.437,334.845,279.253,335.854,279.253,337.042z M275.392,364.902v-22.279h3.471v22.279H275.392z
		"/>
	<path fill="#050305" d="M293.846,342.228c6.86,0,10.122,5.23,10.122,11.58c0,6.365-3.279,11.473-10.122,11.473
		c-6.845,0-10.104-5.123-10.104-11.473C283.741,347.486,287.005,342.228,293.846,342.228z M293.846,362.667
		c5.179,0,6.628-4.456,6.628-8.859c0-4.386-1.46-8.937-6.628-8.937s-6.642,4.548-6.642,8.937
		C287.204,358.187,288.698,362.667,293.846,362.667z"/>
	<path fill="#050305" d="M309.227,360.235c1.583,1.349,4.153,2.433,6.224,2.433c2.139,0,4.939-0.745,4.939-3.75
		c0-5.877-12.58-2.426-12.58-11.009c0-4.023,4.094-5.681,7.574-5.681c1.982,0,5.729,1.045,7.279,2.341l-1.182,2.725
		c-1.682-1.358-3.725-2.248-5.887-2.248c-2.079,0-4.732,0.521-4.732,3.085c0,4.342,12.811,2.312,12.811,10.879
		c0,4.674-4.316,6.271-8.355,6.271c-2.074,0-5.695-0.992-7.313-2.291L309.227,360.235z"/>
</g>
<path fill="#010101" d="M160.466,305.872v2.273c-1.873,0-3.211,0.258-4.023,0.785c-0.822,0.529-1.232,1.43-1.232,2.714v47.431
	c0,1.632,0.384,2.685,1.138,3.152c0.756,0.463,2.129,0.701,4.112,0.701v2.275h-19.25v-2.275c1.98,0,3.35-0.238,4.107-0.701
	c0.756-0.468,1.141-1.521,1.141-3.152v-48.83h-26.252v48.83c0,1.632,0.379,2.685,1.135,3.152c0.762,0.463,2.131,0.701,4.117,0.701
	v2.275h-19.246v-2.275c1.98,0,3.359-0.238,4.115-0.701c0.748-0.468,1.137-1.521,1.137-3.152v-47.431
	c0-1.281-0.389-2.185-1.137-2.714c-0.756-0.527-2.135-0.785-4.115-0.785v-2.273H160.466z"/>
</svg>
