<?xml version="1.0" encoding="utf-8"?>
<!-- Generator: Adobe Illustrator 16.0.0, SVG Export Plug-In . SVG Version: 6.00 Build 0)  -->
<!DOCTYPE svg PUBLIC "-//W3C//DTD SVG 1.1//EN" "http://www.w3.org/Graphics/SVG/1.1/DTD/svg11.dtd" [
	<!ENTITY ns_extend "http://ns.adobe.com/Extensibility/1.0/">
	<!ENTITY ns_ai "http://ns.adobe.com/AdobeIllustrator/10.0/">
	<!ENTITY ns_graphs "http://ns.adobe.com/Graphs/1.0/">
	<!ENTITY ns_vars "http://ns.adobe.com/Variables/1.0/">
	<!ENTITY ns_imrep "http://ns.adobe.com/ImageReplacement/1.0/">
	<!ENTITY ns_sfw "http://ns.adobe.com/SaveForWeb/1.0/">
	<!ENTITY ns_custom "http://ns.adobe.com/GenericCustomNamespace/1.0/">
	<!ENTITY ns_adobe_xpath "http://ns.adobe.com/XPath/1.0/">
]>
<svg version="1.1" id="Capa_1" xmlns:x="&ns_extend;" xmlns:i="&ns_ai;" xmlns:graph="&ns_graphs;"
	 xmlns="http://www.w3.org/2000/svg" xmlns:xlink="http://www.w3.org/1999/xlink" x="0px" y="0px" width="792px" height="612px"
	 viewBox="0 0 792 612" enable-background="new 0 0 792 612" xml:space="preserve">
<metadata>
	<sfw  xmlns="&ns_sfw;">
		<slices></slices>
		<sliceSourceBounds  width="520.904" height="501.78" y="51.339" x="135.049" bottomLeftOrigin="true"></sliceSourceBounds>
	</sfw>
</metadata>
<g>
	<path fill="#009444" d="M502.068,385.962c-10.796,10.257-28.609,16.194-30.229,11.634c-1.619-4.563-0.386-8.322,8.639-15.412
		C503.147,364.37,512.864,375.706,502.068,385.962z M481.015,181.377c-12.955-14.035-134.367-3.509-239.671,100.403
		c-91.347,90.139-129.553,179.215-90.687,239.673c38.866,60.458,141.428,48.582,262.345-42.105c0,0,66.936,25.911,120.916-11.875
		c23.878-16.714,10.935-26.771,0-22.672c-17.273,6.479-84.21,30.229-85.289,14.035c-1.08-16.194,23.752-18.354,57.219-36.707
		c33.469-18.354,65.856-54.477,23.753-88.527c-27.942-22.598-68.017,19.434-98.246,57.22
		c-30.229,37.785-78.811,96.085-160.86,103.643c-82.05,7.557-93.386-28.07-53.98-91.767
		c37.129-60.017,102.944-115.192,126.061-132.252c32.64-24.087,110.374-45.884,80.145,9.176
		c-30.229,55.06-66.937,46.423-113.358,75.572c-26.847,16.857-50.592,42.928-46.423,65.856
		c2.159,11.875,69.095,17.273,128.474-39.946C450.787,323.885,531.373,235.93,481.015,181.377z"/>
	<path fill="#009444" d="M654.833,548.206c0,7.153-5.801,12.955-12.955,12.955h-42.105c-7.154,0-12.955-5.802-12.955-12.955V396.219
		c0-7.155,5.801-12.956,12.955-12.956h42.104c7.154,0,12.955,5.801,12.955,12.956L654.833,548.206L654.833,548.206z"/>
	<circle fill="#009444" cx="620.285" cy="303.372" r="36.167"/>
	<circle fill="#009444" cx="577.64" cy="188.394" r="25.371"/>
	<circle fill="#009444" cx="465.361" cy="103.645" r="17.813"/>
	<circle fill="#009444" cx="323.123" cy="72.606" r="13.225"/>
</g>
</svg>
