<?xml version="1.0" encoding="utf-8"?>
<!-- Generator: Adobe Illustrator 16.0.0, SVG Export Plug-In . SVG Version: 6.00 Build 0)  -->
<!DOCTYPE svg PUBLIC "-//W3C//DTD SVG 1.1//EN" "http://www.w3.org/Graphics/SVG/1.1/DTD/svg11.dtd" [
	<!ENTITY ns_extend "http://ns.adobe.com/Extensibility/1.0/">
	<!ENTITY ns_ai "http://ns.adobe.com/AdobeIllustrator/10.0/">
	<!ENTITY ns_graphs "http://ns.adobe.com/Graphs/1.0/">
	<!ENTITY ns_vars "http://ns.adobe.com/Variables/1.0/">
	<!ENTITY ns_imrep "http://ns.adobe.com/ImageReplacement/1.0/">
	<!ENTITY ns_sfw "http://ns.adobe.com/SaveForWeb/1.0/">
	<!ENTITY ns_custom "http://ns.adobe.com/GenericCustomNamespace/1.0/">
	<!ENTITY ns_adobe_xpath "http://ns.adobe.com/XPath/1.0/">
]>
<svg version="1.1" id="Capa_1" xmlns:x="&ns_extend;" xmlns:i="&ns_ai;" xmlns:graph="&ns_graphs;"
	 xmlns="http://www.w3.org/2000/svg" xmlns:xlink="http://www.w3.org/1999/xlink" x="0px" y="0px" width="792px" height="612px"
	 viewBox="-118 -46 792 612" enable-background="new -118 -46 792 612" xml:space="preserve">
<metadata>
	<sfw  xmlns="&ns_sfw;">
		<slices></slices>
		<sliceSourceBounds  width="601.663" height="502.088" x="76.52" y="62.72" bottomLeftOrigin="true"></sliceSourceBounds>
	</sfw>
</metadata>
<image display="none" overflow="visible" enable-background="new    " width="128" height="101" xlink:href="5B6EDAB9.jpg"  transform="matrix(4.7005 0 0 4.7553 -40.9805 1.6919)">
</image>
<g>
	<path fill="#009444" d="M375.116,328.581c-10.796,10.257-28.609,16.194-30.229,11.634c-1.619-4.563-0.386-8.322,8.638-15.412
		C376.195,306.989,385.912,318.325,375.116,328.581z M354.063,123.996c-12.955-14.035-134.367-3.509-239.672,100.403
		C23.044,314.538-15.162,403.614,23.704,464.072c38.866,60.458,141.428,48.582,262.345-42.105c0,0,66.936,25.911,120.916-11.875
		c23.878-16.714,10.934-26.772,0-22.672c-17.274,6.478-84.21,30.229-85.289,14.035c-1.08-16.194,23.751-18.354,57.219-36.707
		s65.856-54.477,23.752-88.527c-27.942-22.598-68.016,19.433-98.245,57.219c-30.229,37.786-78.811,96.085-160.861,103.643
		c-82.05,7.557-93.386-28.07-53.98-91.767c37.129-60.016,102.944-115.192,126.061-132.252c32.64-24.087,110.374-45.884,80.144,9.176
		c-30.229,55.06-66.936,46.423-113.358,75.573c-26.847,16.857-50.592,42.927-46.423,65.856
		c2.159,11.875,69.095,17.273,128.474-39.946C323.835,266.504,404.421,178.549,354.063,123.996z"/>
	<path fill="#009444" d="M527.881,490.825c0,7.154-5.801,12.955-12.955,12.955H472.82c-7.154,0-12.955-5.801-12.955-12.955V338.838
		c0-7.155,5.801-12.956,12.955-12.956h42.105c7.154,0,12.955,5.801,12.955,12.956V490.825z"/>
	<circle fill="#009444" cx="493.333" cy="245.991" r="36.167"/>
	<circle fill="#009444" cx="450.688" cy="131.013" r="25.371"/>
	<circle fill="#009444" cx="338.409" cy="46.264" r="17.813"/>
	<circle fill="#009444" cx="196.171" cy="15.225" r="13.225"/>
</g>
</svg>
