<?xml version="1.0" encoding="utf-8"?>
<!-- Generator: Adobe Illustrator 16.0.0, SVG Export Plug-In . SVG Version: 6.00 Build 0)  -->
<!DOCTYPE svg PUBLIC "-//W3C//DTD SVG 1.1//EN" "http://www.w3.org/Graphics/SVG/1.1/DTD/svg11.dtd">
<svg version="1.1" id="Layer_1" xmlns="http://www.w3.org/2000/svg" xmlns:xlink="http://www.w3.org/1999/xlink" x="0px" y="0px"
	 width="158.444px" height="165.639px" viewBox="0 0 158.444 165.639" enable-background="new 0 0 158.444 165.639"
	 xml:space="preserve">
<rect x="28.176" y="13.142" fill="#3CBEB2" width="113.397" height="121.495"/>
<path opacity="0.8" fill="#DF1F26" d="M80.296,64.276c0,0-40.574-8.462-49.287,0c-12.44,12.082,0,68.346,0,68.346
	s40.574,8.462,49.287,0C92.736,120.54,80.296,64.276,80.296,64.276z"/>
<path opacity="0.9" fill="#F15F2B" d="M122.163,82.751c0,0-35.328-7.367-42.915,0c-9.073,8.812,0,49.849,0,49.849
	s35.328,7.368,42.915,0C131.236,123.788,122.163,82.751,122.163,82.751z"/>
<path opacity="0.8" fill="#F9A23D" d="M143.682,83.875c-3.291-3.282-18.619,0-18.619,0s-8.64,40.11,0,48.722
	c3.292,3.282,18.619,0,18.619,0S152.321,92.487,143.682,83.875z"/>
<g>
	<path fill="#050305" d="M16.165,132.262c2.889,0,5.755-0.676,5.755-4.096c0-1.119-0.513-2.18-0.915-3.195l1.188-0.48
		c0.522,1.281,1.026,2.41,1.026,3.848c0,4.309-3.326,5.645-7.089,5.645c-3.968,0-7.029-1.516-7.029-5.816
		c0-1.377,0.309-2.152,0.685-3.438l1.239,0.387c-0.385,1.025-0.624,1.938-0.624,3.051C10.401,131.621,13.301,132.262,16.165,132.262
		z"/>
	<path fill="#050305" d="M12.693,118.121c0-3.078,2.352-4.541,5.199-4.541c2.856,0,5.147,1.471,5.147,4.541
		c0,3.068-2.301,4.531-5.147,4.531C15.053,122.652,12.693,121.189,12.693,118.121z M21.868,118.121c0-2.326-2-2.977-3.976-2.977
		c-1.967,0-4.011,0.658-4.011,2.977s2.044,2.975,4.011,2.975S21.868,120.428,21.868,118.121z"/>
	<path fill="#050305" d="M22.869,109.955v1.627h-9.996v-1.199l1.599-0.205c-1.018-0.803-1.763-2.564-1.763-3.84
		c0-2.352,1.822-3.172,3.942-3.172h6.218v1.625h-6.218c-1.342,0-2.736,0.283-2.736,1.916c0,0.949,0.778,2.547,1.43,3.248H22.869z"/>
	<path fill="#050305" d="M20.773,100.756c0.607-0.709,1.095-1.863,1.095-2.797c0-0.957-0.333-2.215-1.685-2.215
		c-2.633,0-1.086,5.645-4.935,5.645c-1.804,0-2.556-1.836-2.556-3.396c0-0.887,0.471-2.57,1.052-3.264l1.223,0.531
		c-0.606,0.75-1.01,1.666-1.01,2.639c0,0.934,0.231,2.123,1.387,2.123c1.949,0,1.035-5.748,4.882-5.748
		c2.095,0,2.813,1.934,2.813,3.746c0,0.934-0.445,2.559-1.026,3.285L20.773,100.756z"/>
	<path fill="#050305" d="M22.987,88.605c0,1.615-1.11,2.557-2.685,2.557h-6.541v1.566h-0.889v-1.805H9.786l-0.394-1.385h3.48v-2.848
		h0.889v2.848h6.559c0.786,0,1.479-0.369,1.479-1.207c0-0.496-0.163-1.002-0.376-1.445l1.103-0.309
		C22.826,87.211,22.987,87.902,22.987,88.605z"/>
	<path fill="#050305" d="M12.797,79.592h1.299c-0.034,0.172-0.034,0.359-0.034,0.53c0,0.863,0.547,2.291,1.162,2.933h7.646v1.625
		h-9.996v-1.223l1.642-0.258c-0.847-0.648-1.821-1.598-1.821-2.752C12.693,80.156,12.718,79.867,12.797,79.592z"/>
	<path fill="#050305" d="M20.525,70.961h-7.652v-1.624h9.996v1.206l-1.506,0.23c1.001,0.89,1.677,1.924,1.677,3.3
		c0,2.522-1.564,3.522-3.951,3.522h-6.216v-1.622h6.216c1.42,0,2.779-0.328,2.779-1.983C21.868,72.835,21.338,71.791,20.525,70.961z
		"/>
	<path fill="#050305" d="M12.873,60.387v-1.669l10.313,3.736c1.897,0.683,3.608,1.343,3.608,3.712l-1.068,0.436
		c-0.335-1.966-1.267-2.377-3.055-2.907l-9.798,3.854v-1.554l7.866-3.036L12.873,60.387z"/>
	<path fill="#050305" d="M16.771,50.785c-1.813,0-2.856,0.237-2.856,2.324c0,1.008,0.412,2.248,0.958,3.104l-1.042,0.572
		c-0.642-1.137-1.138-2.248-1.138-3.592c0-3.172,1.257-4.036,4.31-4.036h5.866v1.198l-1.523,0.238
		c1.146,0.84,1.694,2.037,1.694,3.464c0,2.044-1,3.353-3.105,3.353c-2.222,0-3.181-1.779-3.181-3.797
		c0-0.735,0.181-2.138,0.428-2.828H16.771z M20.551,50.785h-2.547c-0.121,0.741-0.181,1.485-0.181,2.237
		c0,1.471,0.291,2.755,2,2.755c1.489,0,2.045-0.684,2.045-2.12C21.868,52.553,21.286,51.57,20.551,50.785z"/>
	<path fill="#050305" d="M12.693,35.975c0-2.13,1.692-3.044,3.625-3.044h6.551v1.622h-6.567c-1.231,0-2.387,0.197-2.387,1.659
		c0,1.224,0.771,2.283,1.617,3.096h7.337v1.626h-6.567c-1.231,0-2.387,0.17-2.387,1.642c0,1.129,0.848,2.154,1.599,2.907h7.355
		v1.623h-9.996v-1.204l1.761-0.232c-1.146-0.719-1.94-1.991-1.94-3.36c0-1.282,0.667-2.343,1.907-2.743
		C13.454,38.778,12.693,37.366,12.693,35.975z"/>
	<path fill="#050305" d="M12.693,26.428c0-3.079,2.352-4.539,5.199-4.539c2.856,0,5.147,1.471,5.147,4.539
		c0,3.069-2.301,4.532-5.147,4.532C15.053,30.96,12.693,29.497,12.693,26.428z M21.868,26.428c0-2.325-2-2.976-3.976-2.976
		c-1.967,0-4.011,0.659-4.011,2.976s2.044,2.976,4.011,2.976S21.868,28.737,21.868,26.428z"/>
	<path fill="#050305" d="M20.773,19.547c0.607-0.711,1.095-1.865,1.095-2.796c0-0.959-0.333-2.217-1.685-2.217
		c-2.633,0-1.086,5.645-4.935,5.645c-1.804,0-2.556-1.838-2.556-3.395c0-0.89,0.471-2.573,1.052-3.266l1.223,0.529
		c-0.606,0.753-1.01,1.669-1.01,2.642c0,0.934,0.231,2.121,1.387,2.121c1.949,0,1.035-5.746,4.882-5.746
		c2.095,0,2.813,1.933,2.813,3.746c0,0.932-0.445,2.556-1.026,3.283L20.773,19.547z"/>
</g>
<g>
	<path fill="#FFFFFF" d="M41.353,99.148c0,14.631,4.188,25.852,17.74,25.852c6.345,0,11.913-2.156,15.668-4.789l3.626,9.322
		c-4.145,3.41-12.604,5.18-20.243,5.18c-20.978,0-30.041-14.633-30.041-35.826c0-20.846,9.324-36.253,30.171-36.253
		c7.51,0,15.148,1.424,19.637,4.531l-3.451,9.453c-3.842-2.504-9.021-4.273-15.366-4.273C44.894,72.345,41.353,84.646,41.353,99.148
		z"/>
	<path fill="#FFFFFF" d="M114.412,121.826l2.803,8.367c-4.332,2.59-10.068,4.59-16.696,4.59c-15.76,0-24.851-9.432-24.851-25.152
		c0-15.973,7.604-27.485,23.492-27.485c13.551,0,20.475,8.923,20.475,22.517c0,2.166-0.04,4.248-0.126,6.287h-31.14
		c0.085,9.387,4.164,15.293,13.127,15.293C107.274,126.242,110.884,124.502,114.412,121.826z M99.458,90.6
		c-7.606,0.254-10.791,6.33-11.132,13.85h20.987v-0.596C109.313,96.078,106.553,90.729,99.458,90.6z"/>
	<path fill="#FFFFFF" d="M123.88,67.763c0-4.021,2.934-7.102,6.97-7.102s7.011,3.038,7.011,7.102c0,4.064-3.019,7.103-7.011,7.103
		C126.728,74.865,123.88,71.913,123.88,67.763z M124.646,84.576h12.278v50.699h-12.278V84.576z"/>
	<ellipse fill="#FFFFFF" cx="113.317" cy="49.852" rx="5.599" ry="5.534"/>
	<ellipse fill="#FFFFFF" cx="89.997" cy="43.857" rx="3.935" ry="3.972"/>
	<ellipse fill="#FFFFFF" cx="66.021" cy="41.216" rx="2.388" ry="2.404"/>
	<ellipse fill="#FFFFFF" cx="42.039" cy="43.594" rx="0.791" ry="0.834"/>
</g>
<g>
	<path fill="#050305" d="M43.232,143.941c1.196,0,1.709,0.951,1.709,2.037v3.678H44.03v-3.688c0-0.691-0.111-1.34-0.933-1.34
		c-0.688,0-1.282,0.432-1.738,0.908v4.119h-0.912v-3.688c0-0.691-0.097-1.34-0.922-1.34c-0.633,0-1.21,0.475-1.632,0.898v4.129
		h-0.912v-5.613h0.676l0.131,0.988c0.402-0.645,1.117-1.09,1.887-1.09c0.721,0,1.313,0.375,1.542,1.07
		C41.657,144.371,42.45,143.941,43.232,143.941z"/>
	<path fill="#050305" d="M52.042,148.479c0.396,0.342,1.044,0.615,1.567,0.615c0.54,0,1.245-0.186,1.245-0.945
		c0-1.479-3.169-0.611-3.169-2.771c0-1.012,1.032-1.436,1.904-1.436c0.502,0,1.447,0.264,1.837,0.592l-0.301,0.686
		c-0.42-0.34-0.936-0.566-1.479-0.566c-0.524,0-1.192,0.131-1.192,0.777c0,1.096,3.227,0.582,3.227,2.742
		c0,1.176-1.085,1.58-2.103,1.58c-0.524,0-1.435-0.25-1.846-0.576L52.042,148.479z"/>
	<path fill="#050305" d="M37.889,155.277v3.02l-0.913,0.105v-7.951h0.678l0.159,0.951c0.417-0.561,1.069-1.053,1.796-1.053
		c1.651,0,2.256,1.479,2.256,2.91c0,1.406-0.634,2.9-2.251,2.9C38.946,156.16,38.306,155.785,37.889,155.277z M39.613,151.037
		c-0.527,0-1.354,0.359-1.725,0.756v2.9c0.312,0.402,1.147,0.809,1.634,0.809c1.161,0,1.468-1.027,1.468-2.045
		C40.99,152.533,40.841,151.037,39.613,151.037z"/>
	<path fill="#050305" d="M45.523,155.502c0.543,0,1.062-0.23,1.469-0.609l0.298,0.697c-0.476,0.33-1.238,0.57-1.825,0.57
		c-1.737,0-2.515-1.277-2.515-2.871c0-1.531,0.782-2.939,2.473-2.939c1.469,0,2.127,1.119,2.127,2.469
		c0,0.184-0.023,0.365-0.054,0.543h-3.648C43.859,154.5,44.245,155.502,45.523,155.502z M45.428,150.988
		c-1.093,0-1.479,0.84-1.562,1.801h2.876v-0.166C46.742,151.752,46.411,150.988,45.428,150.988z"/>
	<path fill="#050305" d="M51.534,150.406v0.73c-0.095-0.018-0.2-0.018-0.298-0.018c-0.484,0-1.285,0.309-1.646,0.652v4.293h-0.911
		v-5.613h0.685l0.145,0.922c0.365-0.477,0.898-1.023,1.546-1.023C51.217,150.35,51.381,150.365,51.534,150.406z"/>
	<path fill="#050305" d="M52.864,154.887c0.397,0.342,1.045,0.615,1.569,0.615c0.538,0,1.244-0.186,1.244-0.945
		c0-1.479-3.17-0.611-3.17-2.771c0-1.012,1.033-1.436,1.905-1.436c0.502,0,1.447,0.264,1.837,0.592l-0.301,0.686
		c-0.421-0.34-0.937-0.566-1.481-0.566c-0.523,0-1.191,0.131-1.191,0.777c0,1.096,3.226,0.582,3.226,2.742
		c0,1.176-1.083,1.58-2.102,1.58c-0.523,0-1.436-0.25-1.846-0.576L52.864,154.887z"/>
	<path fill="#050305" d="M60.003,150.35c1.729,0,2.55,1.322,2.55,2.92c0,1.605-0.826,2.891-2.55,2.891s-2.546-1.291-2.546-2.891
		C57.457,151.676,58.279,150.35,60.003,150.35z M60.003,155.502c1.306,0,1.671-1.123,1.671-2.232c0-1.105-0.37-2.252-1.671-2.252
		c-1.302,0-1.673,1.146-1.673,2.252C58.33,154.373,58.705,155.502,60.003,155.502z"/>
	<path fill="#050305" d="M64.598,156.064h-0.911v-5.613h0.673l0.113,0.898c0.451-0.57,1.439-0.99,2.157-0.99
		c1.32,0,1.781,1.023,1.781,2.215v3.49h-0.913v-3.49c0-0.756-0.159-1.537-1.076-1.537c-0.533,0-1.431,0.438-1.824,0.801V156.064z"/>
	<path fill="#050305" d="M73.24,152.641c0-1.02-0.135-1.604-1.305-1.604c-0.567,0-1.265,0.23-1.743,0.537l-0.323-0.586
		c0.639-0.359,1.264-0.639,2.018-0.639c1.782,0,2.267,0.707,2.267,2.418v3.297h-0.672l-0.136-0.855
		c-0.47,0.643-1.141,0.951-1.945,0.951c-1.146,0-1.882-0.561-1.882-1.742c0-1.25,1.001-1.785,2.133-1.785
		c0.414,0,1.2,0.1,1.589,0.238V152.641z M73.24,154.762v-1.43c-0.416-0.068-0.834-0.102-1.257-0.102
		c-0.826,0-1.547,0.164-1.547,1.125c0,0.834,0.385,1.146,1.191,1.146C72.247,155.502,72.798,155.176,73.24,154.762z"/>
	<path fill="#050305" d="M75.507,154.887c0.398,0.342,1.046,0.615,1.568,0.615c0.54,0,1.244-0.186,1.244-0.945
		c0-1.479-3.17-0.611-3.17-2.771c0-1.012,1.033-1.436,1.909-1.436c0.499,0,1.444,0.264,1.834,0.592l-0.298,0.686
		c-0.423-0.34-0.938-0.566-1.485-0.566c-0.522,0-1.19,0.131-1.19,0.777c0,1.096,3.227,0.582,3.227,2.742
		c0,1.176-1.086,1.58-2.104,1.58c-0.522,0-1.435-0.25-1.843-0.576L75.507,154.887z"/>
	<g>
		<path fill="#010101" d="M49.793,146.244c0-1.031-0.136-1.624-1.322-1.624c-0.574,0-1.278,0.233-1.764,0.544l-0.326-0.593
			c0.646-0.365,1.278-0.646,2.041-0.646c1.804,0,2.294,0.715,2.294,2.449v3.334h-0.681l-0.136-0.863
			c-0.476,0.65-1.156,0.961-1.968,0.961c-1.162,0-1.905-0.569-1.905-1.764c0-1.266,1.011-1.81,2.159-1.81
			c0.417,0,1.215,0.104,1.608,0.244V146.244z M49.793,148.392v-1.447c-0.423-0.069-0.845-0.104-1.273-0.104
			c-0.837,0-1.565,0.166-1.565,1.139c0,0.847,0.389,1.161,1.205,1.161C48.787,149.141,49.346,148.811,49.793,148.392z
			 M48.232,143.303l0.773-2.969l1.129,0.442l-1.624,2.653L48.232,143.303z"/>
	</g>
</g>
<path fill="#010101" d="M31.521,141.077c0.013-1.457,0.365-2.521,1.056-3.195c0.657-0.658,1.391-0.986,2.202-0.986
	c0.697,0,1.247,0.152,1.649,0.457c0.382,0.32,0.573,0.751,0.573,1.291c0,0.289-0.081,0.539-0.242,0.75
	c-0.168,0.219-0.43,0.328-0.786,0.328c-0.303,0-0.524-0.109-0.666-0.33c-0.134-0.212-0.235-0.455-0.302-0.73
	c-0.061-0.268-0.138-0.515-0.232-0.742c-0.107-0.213-0.286-0.318-0.534-0.318c-0.538,0-0.813,0.404-0.827,1.213v15.678
	c-0.014,1.46-0.359,2.52-1.036,3.18c-0.657,0.676-1.398,1.014-2.223,1.014c-0.684-0.016-1.217-0.185-1.599-0.505
	c-0.416-0.305-0.624-0.72-0.624-1.243c0-0.32,0.097-0.579,0.292-0.774c0.162-0.211,0.407-0.316,0.736-0.316
	c0.323,0,0.551,0.106,0.686,0.317c0.141,0.229,0.245,0.48,0.313,0.755c0.067,0.267,0.148,0.507,0.242,0.72
	c0.101,0.211,0.269,0.325,0.504,0.342c0.531,0,0.804-0.405,0.817-1.215V141.077z"/>
<g>
	<path fill="#050305" d="M100.726,142.247l0.912-0.17v7.752h-0.912V142.247z"/>
	<path fill="#050305" d="M105.319,144.116c1.729,0,2.551,1.318,2.551,2.918c0,1.604-0.825,2.891-2.551,2.891
		c-1.725,0-2.546-1.291-2.546-2.891C102.773,145.44,103.595,144.116,105.319,144.116z M105.319,149.267
		c1.305,0,1.67-1.123,1.67-2.232c0-1.105-0.37-2.252-1.67-2.252c-1.301,0-1.671,1.146-1.671,2.252
		C103.648,148.138,104.022,149.267,105.319,149.267z"/>
	<path fill="#050305" d="M109.194,148.653c0.397,0.34,1.046,0.613,1.568,0.613c0.538,0,1.243-0.188,1.243-0.945
		c0-1.48-3.168-0.611-3.168-2.773c0-1.014,1.032-1.432,1.905-1.432c0.501,0,1.446,0.264,1.837,0.59l-0.301,0.686
		c-0.421-0.342-0.937-0.566-1.482-0.566c-0.523,0-1.191,0.131-1.191,0.777c0,1.094,3.227,0.582,3.227,2.742
		c0,1.176-1.084,1.58-2.102,1.58c-0.524,0-1.437-0.25-1.845-0.578L109.194,148.653z"/>
	<path fill="#050305" d="M102.755,155.614c0.541,0,1.061-0.23,1.469-0.609l0.297,0.697c-0.474,0.33-1.237,0.57-1.822,0.57
		c-1.739,0-2.518-1.279-2.518-2.871c0-1.531,0.782-2.938,2.472-2.938c1.471,0,2.129,1.117,2.129,2.467
		c0,0.182-0.024,0.365-0.053,0.541h-3.65C101.088,154.61,101.476,155.614,102.755,155.614z M102.659,151.101
		c-1.095,0-1.479,0.842-1.561,1.801h2.875v-0.168C103.974,151.864,103.643,151.101,102.659,151.101z"/>
	<path fill="#050305" d="M106.102,155.001c0.397,0.34,1.045,0.613,1.568,0.613c0.538,0,1.244-0.188,1.244-0.945
		c0-1.48-3.17-0.611-3.17-2.773c0-1.014,1.033-1.432,1.906-1.432c0.502,0,1.447,0.264,1.836,0.59l-0.299,0.686
		c-0.422-0.342-0.936-0.566-1.482-0.566c-0.524,0-1.192,0.131-1.192,0.777c0,1.094,3.227,0.582,3.227,2.742
		c0,1.176-1.083,1.58-2.102,1.58c-0.522,0-1.436-0.25-1.846-0.578L106.102,155.001z"/>
	<path fill="#050305" d="M111.675,155.39v3.02l-0.912,0.105v-7.951h0.676l0.158,0.951c0.418-0.563,1.069-1.051,1.796-1.051
		c1.653,0,2.257,1.479,2.257,2.908c0,1.406-0.634,2.9-2.251,2.9C112.73,156.272,112.092,155.897,111.675,155.39z M113.398,151.151
		c-0.529,0-1.354,0.355-1.724,0.752v2.904c0.313,0.398,1.146,0.807,1.633,0.807c1.162,0,1.469-1.027,1.469-2.047
		C114.776,152.647,114.626,151.151,113.398,151.151z"/>
	<path fill="#050305" d="M120.443,152.751c0-1.016-0.137-1.6-1.308-1.6c-0.566,0-1.261,0.229-1.742,0.535l-0.322-0.586
		c0.638-0.361,1.264-0.637,2.018-0.637c1.781,0,2.267,0.703,2.267,2.418v3.295h-0.673l-0.135-0.854
		c-0.47,0.643-1.143,0.949-1.944,0.949c-1.147,0-1.881-0.563-1.881-1.744c0-1.248,0.997-1.785,2.13-1.785
		c0.413,0,1.201,0.1,1.591,0.238V152.751z M120.443,154.876v-1.432c-0.419-0.068-0.835-0.1-1.26-0.1
		c-0.826,0-1.547,0.16-1.547,1.121c0,0.834,0.386,1.148,1.192,1.148C119.446,155.614,120,155.288,120.443,154.876z"/>
	<path fill="#050305" d="M123.37,153.392c0,1.057,0.321,2.223,1.551,2.223c0.582,0,1.149-0.184,1.58-0.613l0.273,0.643
		c-0.548,0.383-1.194,0.629-1.878,0.629c-1.681,0-2.438-1.344-2.438-2.881c0-1.553,0.758-2.928,2.455-2.928
		c0.676,0,1.313,0.248,1.861,0.637l-0.273,0.639c-0.423-0.365-0.95-0.557-1.507-0.557
		C123.697,151.183,123.37,152.286,123.37,153.392z"/>
	<path fill="#050305" d="M128.939,149.157c0,0.297-0.205,0.551-0.518,0.551c-0.308,0-0.537-0.25-0.537-0.551
		c0-0.299,0.234-0.553,0.537-0.553C128.734,148.604,128.939,148.858,128.939,149.157z M127.966,156.177v-5.613h0.874v5.613H127.966z
		"/>
	<path fill="#050305" d="M132.615,150.464c1.729,0,2.55,1.318,2.55,2.918c0,1.604-0.825,2.891-2.55,2.891
		c-1.724,0-2.545-1.291-2.545-2.891C130.07,151.788,130.892,150.464,132.615,150.464z M132.615,155.614
		c1.305,0,1.67-1.123,1.67-2.232c0-1.105-0.368-2.252-1.67-2.252c-1.301,0-1.672,1.146-1.672,2.252
		C130.943,154.485,131.319,155.614,132.615,155.614z"/>
	<path fill="#050305" d="M136.49,155.001c0.4,0.34,1.047,0.613,1.569,0.613c0.539,0,1.244-0.188,1.244-0.945
		c0-1.48-3.169-0.611-3.169-2.773c0-1.014,1.031-1.432,1.908-1.432c0.499,0,1.444,0.264,1.834,0.59l-0.298,0.686
		c-0.423-0.342-0.938-0.566-1.483-0.566c-0.523,0-1.192,0.131-1.192,0.777c0,1.094,3.227,0.582,3.227,2.742
		c0,1.176-1.087,1.58-2.104,1.58c-0.523,0-1.436-0.25-1.843-0.578L136.49,155.001z"/>
</g>
<path fill="#010101" d="M99.01,141.304v0.573c-0.472,0-0.809,0.066-1.014,0.198c-0.207,0.133-0.31,0.36-0.31,0.684v11.95
	c0,0.411,0.096,0.676,0.287,0.794c0.19,0.116,0.536,0.177,1.036,0.177v0.573h-4.851v-0.573c0.499,0,0.845-0.061,1.036-0.177
	c0.19-0.118,0.287-0.383,0.287-0.794v-12.303h-6.615v12.303c0,0.411,0.096,0.676,0.287,0.794c0.191,0.116,0.537,0.177,1.037,0.177
	v0.573H85.34v-0.573c0.5,0,0.847-0.061,1.037-0.177c0.19-0.118,0.287-0.383,0.287-0.794v-11.95c0-0.323-0.097-0.551-0.287-0.684
	c-0.19-0.132-0.537-0.198-1.037-0.198v-0.573H99.01z"/>
</svg>
