<?xml version="1.0" encoding="utf-8"?>
<!-- Generator: Adobe Illustrator 16.0.0, SVG Export Plug-In . SVG Version: 6.00 Build 0)  -->
<!DOCTYPE svg PUBLIC "-//W3C//DTD SVG 1.1//EN" "http://www.w3.org/Graphics/SVG/1.1/DTD/svg11.dtd" [
	<!ENTITY ns_extend "http://ns.adobe.com/Extensibility/1.0/">
	<!ENTITY ns_ai "http://ns.adobe.com/AdobeIllustrator/10.0/">
	<!ENTITY ns_graphs "http://ns.adobe.com/Graphs/1.0/">
	<!ENTITY ns_vars "http://ns.adobe.com/Variables/1.0/">
	<!ENTITY ns_imrep "http://ns.adobe.com/ImageReplacement/1.0/">
	<!ENTITY ns_sfw "http://ns.adobe.com/SaveForWeb/1.0/">
	<!ENTITY ns_custom "http://ns.adobe.com/GenericCustomNamespace/1.0/">
	<!ENTITY ns_adobe_xpath "http://ns.adobe.com/XPath/1.0/">
]>
<svg version="1.1" id="Layer_1" xmlns:x="&ns_extend;" xmlns:i="&ns_ai;" xmlns:graph="&ns_graphs;"
	 xmlns="http://www.w3.org/2000/svg" xmlns:xlink="http://www.w3.org/1999/xlink" x="0px" y="0px" width="612px" height="545px"
	 viewBox="0 0 612 545" enable-background="new 0 0 612 545" xml:space="preserve">
<metadata>
	<sfw  xmlns="&ns_sfw;">
		<slices></slices>
		<sliceSourceBounds  height="499.253" width="535.453" y="-447" x="130.618" bottomLeftOrigin="true"></sliceSourceBounds>
	</sfw>
</metadata>
<image display="none" overflow="visible" width="319" height="283" xlink:href="42BDD7F7.jpg"  transform="matrix(1 0 0 1 147 254)">
</image>
<circle fill="#FFFFFF" cx="141.404" cy="282.837" r="28.759"/>
<polygon fill="#040504" points="447.908,151.488 447.908,39.561 495.58,39.561 512.853,102.088 528.744,39.561 576.07,39.561 
	576.07,151.488 543.421,151.187 543.425,69.961 522.6,151.488 498.343,151.143 474.853,69.961 474.853,151.488 "/>
<path fill="#040504" d="M325.967,151.488l37.655-111.927h38l36.619,111.927h-37.747l-6.604-22.424l-30.057-0.108l-8.55,22.532
	H325.967z M388.512,105.629l-10.3-32.388l-9.585,32.388H388.512z"/>
<path fill="#040504" d="M290.381,84.124h32.645c0,0,1.814-46.376-47.153-46.376c-46.896,0-53.892,41.714-54.151,46.376
	c-0.259,4.665,0,21.506,0,21.506s2.477,48.449,50.594,48.449c48.12,0,50.709-43.786,50.709-43.786h-32.385
	c0,0,0.518,17.359-14.51,17.1c-15.027-0.259-16.669-14.541-17.359-17.877c-1.554-7.514-1.296-25.909,0-30.832
	c1.295-4.923,4.404-15.027,16.063-15.545C291.92,62.378,290.381,84.124,290.381,84.124z"/>
<path fill="#040504" d="M212.653,283.365c0,39.35-31.899,71.25-71.25,71.25c-39.35,0-71.25-31.9-71.25-71.25
	c0-39.351,31.9-71.25,71.25-71.25C180.754,212.116,212.653,244.014,212.653,283.365z M141.403,254.082
	c-15.884,0-28.759,12.876-28.759,28.758c0,15.883,12.875,28.76,28.759,28.76s28.76-12.876,28.76-28.76
	C170.163,266.958,157.287,254.082,141.403,254.082z"/>
<path fill="#040504" d="M441.803,283.365c0,39.35-31.901,71.25-71.25,71.25s-71.249-31.9-71.249-71.25
	c0-39.351,31.9-71.251,71.249-71.251S441.803,244.014,441.803,283.365z M370.553,254.081c-15.883,0-28.759,12.876-28.759,28.757
	c0,15.886,12.876,28.76,28.759,28.76c15.884,0,28.759-12.874,28.759-28.76C399.312,266.957,386.437,254.081,370.553,254.081z"/>
<path fill="#F68B1F" d="M67.218,177.916l23.146-58.037h49.055l23.75,58.037h35.754l28.241,102.857l-4.145,0.131
	c0,0-12.949-78.635-81.614-78.635c-73.84,0-80.059,82.391-80.059,82.391H40.618V177.916H67.218z M145.29,177.916l-15.89-43.353
	h-29.364l-15.891,43.353H145.29z"/>
<path fill="#F68B1F" d="M48.908,48.888v21.073h110.201l50.435,93.444l19.692,69.273v65.29l38.691-0.009v-42.136l31.376-10.709
	c0,0,19.749-39.399,60.513-42.845c40.766-3.444,50.438,11.755,50.438,11.755l165.816-46.981v-3.637H231.999L173.617,48.888H48.908z"
	/>
<g>
	<path d="M125.749,441.813l3.473,0.778c-1.662,6.71-5.418,10.063-11.266,10.063c-3.845,0-6.862-1.552-9.05-4.656
		c-2.19-3.104-3.285-6.921-3.285-11.454c0-4.677,1.143-8.436,3.429-11.271c2.285-2.838,5.351-4.257,9.196-4.257
		c5.7,0,9.358,3.26,10.977,9.774l-3.585,0.713c-1.306-4.84-3.778-7.258-7.414-7.258c-2.688,0-4.769,1.124-6.247,3.373
		c-1.477,2.25-2.215,5.406-2.215,9.475c0,3.726,0.757,6.713,2.272,8.959c1.513,2.252,3.518,3.375,6.011,3.375
		C121.919,449.428,124.487,446.889,125.749,441.813z"/>
	<path d="M150.169,445.332l3.25,0.667c-0.593,1.92-1.751,3.512-3.473,4.768c-1.723,1.26-3.749,1.889-6.079,1.889
		c-3.072,0-5.559-1.08-7.459-3.242c-1.9-2.161-2.849-4.995-2.849-8.502c0-3.578,0.987-6.474,2.961-8.68
		c1.973-2.208,4.453-3.311,7.436-3.311c2.939,0,5.302,1.017,7.092,3.05c1.788,2.035,2.705,5.077,2.75,9.129h-16.343
		c0,3.399,0.712,5.691,2.137,6.881c1.425,1.188,2.931,1.781,4.52,1.781C146.977,449.762,148.996,448.283,150.169,445.332z
		 M149.969,438.495c-0.03-1.26-0.238-2.382-0.623-3.361c-0.387-0.979-1.04-1.816-1.959-2.505c-0.921-0.692-2.026-1.036-3.318-1.036
		c-1.737,0-3.209,0.624-4.419,1.87c-1.21,1.248-1.889,2.926-2.038,5.032H149.969z"/>
	<path d="M178.464,452.032h-3.273v-14.449c0-2.079-0.453-3.541-1.358-4.388c-0.906-0.845-2.004-1.269-3.295-1.269
		c-1.781,0-3.278,0.712-4.487,2.138c-1.211,1.425-1.815,3.304-1.815,5.632v12.336h-3.495v-22.488h3.251v4.143
		c1.826-3.177,4.193-4.766,7.103-4.766c1.677,0,3.106,0.434,4.286,1.304c1.181,0.865,1.989,1.844,2.427,2.927
		c0.438,1.083,0.657,3.043,0.657,5.878V452.032z"/>
	<path d="M197.34,449.649v2.763c-1.233,0.163-2.301,0.243-3.206,0.243c-4.35,0-6.524-2.272-6.524-6.819v-13.553h-3.985v-2.739h3.985
		l0.156-5.654l3.251-0.312v5.966h5.032v2.739h-5.032v14.134c0,2.317,1.202,3.479,3.607,3.479
		C195.425,449.896,196.33,449.813,197.34,449.649z"/>
	<path d="M206.353,452.032h-3.496v-22.488h3.072v5.256c1.084-2.479,2.171-4.085,3.262-4.822c1.091-0.732,2.207-1.1,3.352-1.1
		c0.356,0,0.815,0.028,1.381,0.087v3.34h-0.713c-1.931,0-3.533,0.721-4.81,2.16c-1.277,1.438-1.959,3.332-2.048,5.678V452.032z"/>
	<path d="M226.809,452.655c-3.088,0-5.496-1.143-7.225-3.432c-1.73-2.287-2.594-5.125-2.594-8.515c0-3.577,0.972-6.439,2.917-8.578
		c1.943-2.14,4.364-3.21,7.257-3.21c3.104,0,5.548,1.126,7.336,3.377c1.79,2.251,2.683,5.062,2.683,8.437
		c0,3.506-0.965,6.369-2.893,8.59C232.361,451.544,229.866,452.655,226.809,452.655z M227.077,449.762
		c1.781,0,3.273-0.735,4.475-2.204c1.202-1.471,1.803-3.755,1.803-6.858c0-3.116-0.631-5.377-1.892-6.778
		c-1.262-1.405-2.738-2.104-4.43-2.104c-1.738,0-3.207,0.708-4.409,2.125c-1.202,1.418-1.803,3.662-1.803,6.736
		c0,3.251,0.601,5.578,1.803,6.979C223.826,449.061,225.311,449.762,227.077,449.762z"/>
	<path d="M274.782,421.64v30.393h-3.161v-3.852c-1.577,2.983-3.948,4.475-7.113,4.475c-2.63,0-4.793-1.101-6.488-3.308
		c-1.694-2.206-2.542-4.997-2.542-8.368c0-3.448,0.837-6.32,2.516-8.615c1.677-2.295,3.904-3.443,6.679-3.443
		c2.702,0,4.907,1.233,6.613,3.696V421.64H274.782z M271.287,438.229c0-1.974-0.601-3.555-1.803-4.743
		c-1.204-1.188-2.605-1.781-4.209-1.781c-1.736,0-3.166,0.771-4.286,2.315c-1.122,1.545-1.681,3.71-1.681,6.501
		c0,3.015,0.515,5.309,1.547,6.882c1.031,1.571,2.445,2.359,4.243,2.359c1.632,0,3.072-0.682,4.318-2.048
		c1.248-1.367,1.871-2.97,1.871-4.811V438.229z"/>
	<path d="M298.312,445.332l3.251,0.667c-0.594,1.92-1.752,3.512-3.474,4.768c-1.722,1.26-3.748,1.889-6.078,1.889
		c-3.073,0-5.559-1.08-7.458-3.242c-1.901-2.161-2.85-4.995-2.85-8.502c0-3.578,0.986-6.474,2.961-8.68
		c1.973-2.208,4.453-3.311,7.436-3.311c2.939,0,5.303,1.017,7.092,3.05c1.789,2.035,2.705,5.077,2.75,9.129h-16.343
		c0,3.399,0.712,5.691,2.137,6.881c1.425,1.188,2.932,1.781,4.521,1.781C295.12,449.762,297.139,448.283,298.312,445.332z
		 M298.112,438.495c-0.03-1.26-0.238-2.382-0.624-3.361c-0.386-0.979-1.038-1.816-1.958-2.505c-0.922-0.692-2.027-1.036-3.319-1.036
		c-1.735,0-3.21,0.624-4.419,1.87c-1.21,1.248-1.888,2.926-2.036,5.032H298.112z"/>
	<path d="M342.749,452.032h-3.886l-3.057-8.884h-11.279l-2.72,8.884h-3.183l9.877-30.393h4.305L342.749,452.032z M334.995,440.299
		l-4.709-14.605l-4.701,14.605H334.995z"/>
	<path d="M351.578,452.032h-3.494V421.64h3.494V452.032z"/>
	<path d="M377.957,452.032h-3.161v-4.297c-1.6,3.28-3.985,4.92-7.157,4.92c-2.298,0-4.102-0.756-5.413-2.272
		s-1.967-3.669-1.967-6.463v-14.376h3.493v14.362c0,2.227,0.466,3.759,1.394,4.595c0.926,0.841,1.946,1.261,3.06,1.261
		c1.13,0,2.149-0.32,3.063-0.958c0.912-0.636,1.673-1.548,2.28-2.727c0.61-1.182,0.916-2.469,0.916-3.863v-12.67h3.493V452.032z"/>
	<path d="M416.763,452.032h-3.406v-13.981c0-1.44-0.101-2.521-0.302-3.238c-0.199-0.721-0.687-1.382-1.458-1.985
		c-0.771-0.599-1.642-0.9-2.605-0.9c-1.337,0-2.623,0.613-3.862,1.836c-1.24,1.226-1.858,3.092-1.858,5.601v12.669h-3.386v-14.807
		c0-1.974-0.472-3.369-1.414-4.185c-0.944-0.816-1.935-1.225-2.972-1.225c-1.485,0-2.777,0.637-3.876,1.914
		c-1.098,1.277-1.646,2.895-1.646,4.855v13.446h-3.341v-22.488h3.006v4.32c1.679-3.295,3.986-4.943,6.925-4.943
		c1.617,0,2.992,0.526,4.118,1.581c1.128,1.054,1.856,2.324,2.183,3.808c1.544-3.594,3.91-5.389,7.103-5.389
		c1.528,0,2.869,0.438,4.019,1.313c1.15,0.877,1.899,1.881,2.251,3.018c0.349,1.135,0.522,2.735,0.522,4.799V452.032z"/>
	<path d="M443.165,452.032h-3.271v-14.449c0-2.079-0.455-3.541-1.359-4.388c-0.904-0.845-2.005-1.269-3.295-1.269
		c-1.781,0-3.278,0.712-4.488,2.138c-1.207,1.425-1.814,3.304-1.814,5.632v12.336h-3.494v-22.488h3.251v4.143
		c1.825-3.177,4.192-4.766,7.103-4.766c1.677,0,3.104,0.434,4.286,1.304c1.178,0.865,1.988,1.844,2.426,2.927
		c0.438,1.083,0.657,3.043,0.657,5.878V452.032z"/>
	<path d="M459.902,452.655c-3.086,0-5.495-1.143-7.224-3.432c-1.731-2.287-2.595-5.125-2.595-8.515c0-3.577,0.971-6.439,2.916-8.578
		c1.945-2.14,4.365-3.21,7.26-3.21c3.103,0,5.548,1.126,7.336,3.377s2.684,5.062,2.684,8.437c0,3.506-0.967,6.369-2.895,8.59
		C465.455,451.544,462.962,452.655,459.902,452.655z M460.17,449.762c1.78,0,3.274-0.735,4.476-2.204
		c1.202-1.471,1.804-3.755,1.804-6.858c0-3.116-0.632-5.377-1.894-6.778c-1.261-1.405-2.738-2.104-4.432-2.104
		c-1.735,0-3.205,0.708-4.407,2.125c-1.203,1.418-1.804,3.662-1.804,6.736c0,3.251,0.601,5.578,1.804,6.979
		C456.919,449.061,458.403,449.762,460.17,449.762z"/>
	<path d="M474.193,446.199l3.34-0.691c0.742,2.837,3.086,4.254,7.037,4.254c1.453,0,2.684-0.326,3.694-0.977
		c1.01-0.654,1.515-1.573,1.515-2.76c0-1.763-1.285-2.883-3.854-3.358l-4.741-0.899c-1.855-0.356-3.331-1.055-4.432-2.093
		c-1.099-1.037-1.646-2.411-1.646-4.118c0-1.884,0.749-3.462,2.248-4.733c1.501-1.267,3.519-1.902,6.058-1.902
		c4.883,0,7.896,1.907,9.04,5.723l-3.207,0.69c-0.921-2.347-2.813-3.518-5.678-3.518c-1.426,0-2.595,0.293-3.507,0.878
		c-0.914,0.585-1.369,1.404-1.369,2.458c0,1.658,1.165,2.705,3.498,3.135l4.384,0.787c4.587,0.833,6.879,3.057,6.879,6.668
		c0,2.065-0.853,3.735-2.56,5.006c-1.707,1.271-3.979,1.907-6.814,1.907C478.75,452.655,475.453,450.506,474.193,446.199z"/>
	<path d="M52.17,501.778h-3.807v-30.393h3.807V501.778z"/>
	<path d="M78.862,501.778h-3.273v-14.451c0-2.078-0.453-3.54-1.357-4.387c-0.906-0.844-2.004-1.268-3.295-1.268
		c-1.783,0-3.278,0.712-4.487,2.136c-1.21,1.427-1.815,3.305-1.815,5.633v12.337h-3.496V479.29h3.251v4.142
		c1.825-3.176,4.193-4.765,7.103-4.765c1.677,0,3.106,0.433,4.286,1.304c1.18,0.865,1.989,1.844,2.428,2.927
		c0.437,1.082,0.657,3.042,0.657,5.878V501.778z"/>
	<path d="M105.91,475.771v2.784c-1.604,0-2.676,0.187-3.217,0.556c-0.542,0.37-0.902,1.039-1.081,2.004
		c1.439,1.661,2.16,3.474,2.16,5.434c0,2.049-0.783,3.808-2.349,5.276c-1.567,1.47-3.671,2.205-6.313,2.205
		c-0.594,0-1.106-0.044-1.536-0.134c-0.817-0.164-1.329-0.244-1.536-0.244c-0.401,0-0.883,0.194-1.447,0.588
		c-0.565,0.394-0.846,0.902-0.846,1.526c0,0.891,0.408,1.47,1.225,1.736c0.815,0.268,2.739,0.438,5.766,0.513
		c2.568,0.074,4.465,0.249,5.689,0.523c1.225,0.273,2.26,0.884,3.106,1.826c0.846,0.941,1.27,2.096,1.27,3.461
		c0,4.289-3.771,6.436-11.311,6.436c-3.578,0-6.187-0.539-7.827-1.615c-1.641-1.078-2.46-2.517-2.46-4.314
		c0-2.183,1.142-3.685,3.428-4.502c-1.47-0.964-2.204-2.173-2.204-3.629c0-1.733,1.038-3.062,3.118-3.98
		c-1.946-1.573-2.917-3.556-2.917-5.944c0-2.224,0.831-4.049,2.494-5.474c1.662-1.424,3.688-2.136,6.079-2.136
		c1.691,0,3.229,0.32,4.609,0.956c0.223-1.469,0.738-2.485,1.548-3.049c0.809-0.565,2.036-0.847,3.685-0.847
		C105.204,475.728,105.493,475.741,105.91,475.771z M91.036,500.865c-1.634,0.713-2.45,1.746-2.45,3.096
		c0,1.143,0.671,2.029,2.015,2.659c1.343,0.633,3.053,0.948,5.133,0.948c1.929,0,3.696-0.272,5.298-0.815
		c1.604-0.54,2.405-1.456,2.405-2.747c0-0.7-0.237-1.27-0.712-1.717c-0.475-0.444-1.124-0.726-1.948-0.845
		c-0.824-0.119-2.261-0.208-4.308-0.268C94.02,501.119,92.208,501.013,91.036,500.865z M95.222,491.357
		c1.484,0,2.694-0.456,3.629-1.368c0.935-0.915,1.403-2.097,1.403-3.553c0-1.481-0.487-2.696-1.458-3.641
		c-0.974-0.942-2.148-1.414-3.53-1.414c-1.322,0-2.493,0.441-3.517,1.324c-1.024,0.885-1.537,2.142-1.537,3.775
		c0,1.456,0.46,2.633,1.38,3.528C92.513,490.909,93.722,491.357,95.222,491.357z"/>
	<path d="M126.478,495.076l3.251,0.668c-0.594,1.921-1.752,3.513-3.474,4.769c-1.722,1.26-3.748,1.888-6.078,1.888
		c-3.073,0-5.559-1.079-7.458-3.241c-1.901-2.162-2.851-4.997-2.851-8.503c0-3.579,0.987-6.474,2.961-8.681
		c1.974-2.207,4.453-3.309,7.437-3.309c2.939,0,5.303,1.015,7.092,3.05c1.788,2.034,2.705,5.076,2.75,9.129h-16.343
		c0,3.397,0.712,5.691,2.137,6.879c1.425,1.189,2.931,1.783,4.52,1.783C123.286,499.508,125.305,498.029,126.478,495.076z
		 M126.277,488.24c-0.031-1.26-0.238-2.383-0.624-3.362c-0.386-0.978-1.039-1.814-1.958-2.504c-0.921-0.691-2.027-1.035-3.317-1.035
		c-1.737,0-3.211,0.622-4.42,1.87c-1.21,1.247-1.889,2.925-2.038,5.031H126.277z"/>
	<path d="M154.772,501.778h-3.273v-14.451c0-2.078-0.453-3.54-1.358-4.387c-0.905-0.844-2.003-1.268-3.295-1.268
		c-1.781,0-3.277,0.712-4.487,2.136c-1.21,1.427-1.814,3.305-1.814,5.633v12.337h-3.496V479.29h3.251v4.142
		c1.826-3.176,4.193-4.765,7.103-4.765c1.677,0,3.106,0.433,4.287,1.304c1.179,0.865,1.989,1.844,2.426,2.927
		c0.437,1.082,0.657,3.042,0.657,5.878V501.778z"/>
	<path d="M167.058,471.386v3.896h-3.763v-3.896H167.058z M166.946,479.29v22.488h-3.496V479.29H166.946z"/>
	<path d="M190.454,495.076l3.25,0.668c-0.594,1.921-1.751,3.513-3.473,4.769c-1.722,1.26-3.749,1.888-6.079,1.888
		c-3.072,0-5.56-1.079-7.458-3.241c-1.901-2.162-2.85-4.997-2.85-8.503c0-3.579,0.987-6.474,2.961-8.681
		c1.974-2.207,4.454-3.309,7.437-3.309c2.939,0,5.302,1.015,7.092,3.05c1.789,2.034,2.705,5.076,2.75,9.129H177.74
		c0,3.397,0.712,5.691,2.137,6.879c1.425,1.189,2.931,1.783,4.52,1.783C187.262,499.508,189.281,498.029,190.454,495.076z
		 M190.253,488.24c-0.03-1.26-0.238-2.383-0.623-3.362c-0.387-0.978-1.04-1.814-1.96-2.504c-0.921-0.691-2.026-1.035-3.317-1.035
		c-1.737,0-3.21,0.622-4.419,1.87c-1.21,1.247-1.89,2.925-2.038,5.031H190.253z"/>
	<path d="M204.521,501.778h-3.497V479.29h3.073v5.256c1.082-2.481,2.171-4.087,3.262-4.822c1.091-0.732,2.207-1.102,3.352-1.102
		c0.356,0,0.815,0.03,1.379,0.089v3.34h-0.712c-1.931,0-3.533,0.72-4.809,2.16c-1.277,1.438-1.96,3.331-2.048,5.678V501.778z"/>
	<path d="M227.272,471.587l-9.219,4.207l-0.957-1.804l8.828-5.075L227.272,471.587z M221.216,479.29v22.488h-3.497V479.29H221.216z"
		/>
	<path d="M247.484,501.778h-3.452c-0.133-0.712-0.267-2.063-0.4-4.054c-1.545,3.118-4.172,4.676-7.882,4.676
		c-2.524,0-4.46-0.669-5.811-2.007c-1.351-1.338-2.026-2.943-2.026-4.815c0-2.275,0.964-4.145,2.895-5.609
		c1.929-1.462,5.21-2.195,9.841-2.195c0.623,0,1.617,0.029,2.983,0.089c0-1.781-0.138-3.069-0.411-3.865
		c-0.275-0.793-0.857-1.425-1.748-1.9c-0.891-0.477-2.065-0.715-3.519-0.715c-3.549,0-5.611,1.351-6.19,4.054l-3.229-0.558
		c0.786-4.142,4.097-6.211,9.93-6.211c3.103,0,5.303,0.687,6.603,2.06c1.298,1.372,1.947,3.753,1.947,7.136v9.551
		C247.016,499.003,247.172,500.456,247.484,501.778z M243.632,490.534c-1.425-0.09-2.509-0.133-3.25-0.133
		c-2.761,0-4.906,0.452-6.435,1.361c-1.529,0.907-2.294,2.229-2.294,3.972c0,1.102,0.413,2.037,1.237,2.813
		c0.823,0.772,2.014,1.159,3.574,1.159c2.106,0,3.84-0.765,5.198-2.3c1.358-1.531,2.037-3.331,2.037-5.399
		C243.699,491.591,243.676,491.1,243.632,490.534z"/>
	<path d="M287.307,491.558l3.474,0.78c-1.663,6.71-5.419,10.063-11.267,10.063c-3.845,0-6.862-1.551-9.05-4.657
		c-2.19-3.102-3.285-6.921-3.285-11.452c0-4.678,1.142-8.438,3.429-11.271c2.286-2.839,5.351-4.258,9.195-4.258
		c5.701,0,9.359,3.261,10.978,9.774l-3.585,0.714c-1.307-4.84-3.779-7.26-7.415-7.26c-2.687,0-4.769,1.126-6.246,3.373
		c-1.477,2.251-2.215,5.407-2.215,9.475c0,3.728,0.756,6.715,2.271,8.961c1.515,2.25,3.518,3.374,6.012,3.374
		C283.478,499.173,286.045,496.636,287.307,491.558z"/>
	<path d="M300.484,471.386v3.896h-3.763v-3.896H300.484z M300.372,479.29v22.488h-3.496V479.29H300.372z"/>
	<path d="M325.503,479.29l-7.772,22.488h-3.604l-8.06-22.488h3.881l6.263,18.28l6.184-18.28H325.503z"/>
	<path d="M334.852,471.386v3.896h-3.764v-3.896H334.852z M334.74,479.29v22.488h-3.496V479.29H334.74z"/>
	<path d="M346.892,501.778h-3.494v-30.393h3.494V501.778z"/>
	<path d="M386.225,471.386v30.393h-3.163v-3.853c-1.573,2.984-3.946,4.475-7.112,4.475c-2.63,0-4.793-1.102-6.488-3.308
		c-1.693-2.207-2.539-4.996-2.539-8.367c0-3.448,0.837-6.321,2.514-8.615c1.679-2.297,3.904-3.443,6.68-3.443
		c2.702,0,4.906,1.233,6.616,3.695v-10.977H386.225z M382.731,487.973c0-1.974-0.604-3.553-1.807-4.742
		c-1.202-1.187-2.603-1.782-4.207-1.782c-1.735,0-3.165,0.772-4.287,2.316c-1.12,1.545-1.68,3.711-1.68,6.502
		c0,3.015,0.516,5.308,1.548,6.881c1.032,1.572,2.445,2.36,4.242,2.36c1.631,0,3.07-0.683,4.32-2.049
		c1.246-1.367,1.87-2.971,1.87-4.81V487.973z"/>
	<path d="M409.754,495.076l3.252,0.668c-0.594,1.921-1.752,3.513-3.474,4.769c-1.724,1.26-3.75,1.888-6.078,1.888
		c-3.073,0-5.558-1.079-7.46-3.241c-1.899-2.162-2.85-4.997-2.85-8.503c0-3.579,0.985-6.474,2.961-8.681
		c1.974-2.207,4.454-3.309,7.438-3.309c2.938,0,5.302,1.015,7.091,3.05c1.787,2.034,2.704,5.076,2.75,9.129h-16.344
		c0,3.397,0.713,5.691,2.138,6.879c1.426,1.189,2.931,1.783,4.521,1.783C406.562,499.508,408.582,498.029,409.754,495.076z
		 M409.555,488.24c-0.03-1.26-0.239-2.383-0.624-3.362c-0.387-0.978-1.039-1.814-1.959-2.504c-0.92-0.691-2.026-1.035-3.317-1.035
		c-1.737,0-3.21,0.622-4.419,1.87c-1.211,1.247-1.891,2.925-2.039,5.031H409.555z"/>
	<path d="M463.07,501.778h-3.695v-26.541l-9.865,26.541h-2.583l-9.973-26.541v26.541h-3.229v-30.393h5.636l9.184,24.308
		l8.963-24.308h5.563V501.778z"/>
	<path d="M475.646,471.386v3.896h-3.763v-3.896H475.646z M475.535,479.29v22.488h-3.496V479.29H475.535z"/>
	<path d="M501.914,501.778h-3.272v-14.451c0-2.078-0.454-3.54-1.359-4.387c-0.905-0.844-2.004-1.268-3.295-1.268
		c-1.78,0-3.276,0.712-4.487,2.136c-1.208,1.427-1.814,3.305-1.814,5.633v12.337h-3.494V479.29h3.25v4.142
		c1.826-3.176,4.193-4.765,7.104-4.765c1.677,0,3.104,0.433,4.286,1.304c1.178,0.865,1.988,1.844,2.426,2.927
		c0.438,1.082,0.657,3.042,0.657,5.878V501.778z"/>
	<path d="M528.182,501.778h-3.449c-0.134-0.712-0.268-2.063-0.4-4.054c-1.545,3.118-4.172,4.676-7.882,4.676
		c-2.524,0-4.462-0.669-5.813-2.007c-1.35-1.338-2.026-2.943-2.026-4.815c0-2.275,0.966-4.145,2.896-5.609
		c1.929-1.462,5.211-2.195,9.841-2.195c0.624,0,1.617,0.029,2.984,0.089c0-1.781-0.138-3.069-0.414-3.865
		c-0.273-0.793-0.855-1.425-1.746-1.9c-0.891-0.477-2.063-0.715-3.519-0.715c-3.548,0-5.61,1.351-6.189,4.054l-3.229-0.558
		c0.789-4.142,4.098-6.211,9.931-6.211c3.104,0,5.304,0.687,6.604,2.06c1.299,1.372,1.948,3.753,1.948,7.136v9.551
		C527.717,499.003,527.873,500.456,528.182,501.778z M524.332,490.534c-1.425-0.09-2.508-0.133-3.252-0.133
		c-2.76,0-4.906,0.452-6.434,1.361c-1.528,0.907-2.294,2.229-2.294,3.972c0,1.102,0.413,2.037,1.233,2.813
		c0.828,0.772,2.018,1.159,3.576,1.159c2.106,0,3.842-0.765,5.197-2.3c1.36-1.531,2.039-3.331,2.039-5.399
		C524.398,491.591,524.377,491.1,524.332,490.534z"/>
	<path d="M533.365,495.943l3.34-0.689c0.744,2.836,3.086,4.254,7.035,4.254c1.456,0,2.688-0.326,3.697-0.979
		c1.01-0.654,1.513-1.573,1.513-2.76c0-1.763-1.284-2.882-3.854-3.357l-4.74-0.898c-1.856-0.356-3.331-1.055-4.431-2.093
		c-1.099-1.039-1.648-2.412-1.648-4.12c0-1.885,0.749-3.46,2.249-4.731c1.501-1.267,3.519-1.902,6.056-1.902
		c4.886,0,7.897,1.907,9.04,5.721l-3.206,0.691c-0.92-2.347-2.813-3.518-5.678-3.518c-1.425,0-2.594,0.292-3.506,0.878
		c-0.914,0.586-1.371,1.404-1.371,2.457c0,1.66,1.167,2.707,3.5,3.136l4.384,0.787c4.586,0.833,6.879,3.058,6.879,6.669
		c0,2.065-0.854,3.734-2.561,5.006c-1.704,1.271-3.977,1.906-6.813,1.906C537.921,502.4,534.626,500.251,533.365,495.943z"/>
</g>
<circle fill="#FFFFFF" cx="370.553" cy="282.837" r="28.759"/>
</svg>
