<?xml version="1.0" encoding="utf-8"?>
<!-- Generator: Adobe Illustrator 16.0.0, SVG Export Plug-In . SVG Version: 6.00 Build 0)  -->
<!DOCTYPE svg PUBLIC "-//W3C//DTD SVG 1.1//EN" "http://www.w3.org/Graphics/SVG/1.1/DTD/svg11.dtd" [
	<!ENTITY ns_extend "http://ns.adobe.com/Extensibility/1.0/">
	<!ENTITY ns_ai "http://ns.adobe.com/AdobeIllustrator/10.0/">
	<!ENTITY ns_graphs "http://ns.adobe.com/Graphs/1.0/">
	<!ENTITY ns_vars "http://ns.adobe.com/Variables/1.0/">
	<!ENTITY ns_imrep "http://ns.adobe.com/ImageReplacement/1.0/">
	<!ENTITY ns_sfw "http://ns.adobe.com/SaveForWeb/1.0/">
	<!ENTITY ns_custom "http://ns.adobe.com/GenericCustomNamespace/1.0/">
	<!ENTITY ns_adobe_xpath "http://ns.adobe.com/XPath/1.0/">
]>
<svg version="1.1" id="Layer_1" xmlns:x="&ns_extend;" xmlns:i="&ns_ai;" xmlns:graph="&ns_graphs;"
	 xmlns="http://www.w3.org/2000/svg" xmlns:xlink="http://www.w3.org/1999/xlink" x="0px" y="0px" width="792px" height="612px"
	 viewBox="0 0 792 612" enable-background="new 0 0 792 612" xml:space="preserve">
<metadata>
	<sfw  xmlns="&ns_sfw;">
		<slices></slices>
		<sliceSourceBounds  height="960" width="960" x="-84" y="-786" bottomLeftOrigin="true"></sliceSourceBounds>
	</sfw>
</metadata>
<image display="none" overflow="visible" width="960" height="960" xlink:href="21BA34C9.jpg"  transform="matrix(1 0 0 1 -84 -174)">
</image>
<path d="M187.333,417.268l0.284-25.012c0,0-18.097-9.832-48.45-10.545s-56.857,14.393-71.82,34.77S48.68,460.871,48.68,470.705
	c0,9.832-2.788,72.756,57.927,91.057c44.673,13.469,80.058-7.258,80.058-7.258l-0.047-25.285c0,0-20.802,13.092-49.445,12.666
	c-28.643-0.428-52.369-16.031-59.209-52.584c-6.84-36.551,14.604-83.646,59.708-83.646
	C167.027,405.654,187.333,417.268,187.333,417.268z"/>
<path d="M207.639,475.549v-20.945c0,0,18.026-8.338,39.401-8.053s46.027,9.113,45.742,39.041
	c-0.052,5.416-0.125,50.451,0.055,51.695c0.18,1.246,0.48,8.871,8.923,8.338c8.443-0.535,9.298-1.604,9.298-1.604v16.885
	c0,0-8.764,5.602-17.42,5.42s-21.482-2.426-25.437-14.396c0,0-16.352,15.229-36.231,14.4c-19.878-0.826-38.985-8.844-39.543-31.5
	c-0.588-23.887,10.693-39.867,42.536-41.574c24.902-1.336,30.78-0.215,30.78-0.215s0.107-27.572-21.909-26.076
	C221.817,468.461,207.639,475.549,207.639,475.549z M242.644,510.818c-20.72,1.994-22.814,13.277-23.178,19.096
	c-0.428,6.84,3.954,14.428,17.1,15.816c13.146,1.391,29.284-13.037,29.284-13.037v-22.076
	C265.85,510.617,247.649,510.334,242.644,510.818z"/>
<path d="M370.16,384.207c15.39,0.072,98.324,2.922,98.324,84.574c0,92.34-100.034,94.904-100.034,94.904h-52.155V384.207
	C316.295,384.207,354.77,384.137,370.16,384.207z M343.254,407.301v132.971h28.38c0,0,68.983-1.9,68.983-70.313
	c0-60.494-56.315-62.605-67.716-62.658C361.5,407.248,343.254,407.301,343.254,407.301z"/>
<path d="M616.806,417.199l0.284-25.01c0,0-18.097-9.834-48.45-10.547c-30.353-0.713-56.857,14.393-71.819,34.77
	c-14.962,20.379-18.668,44.393-18.668,54.225s-2.788,72.754,57.927,91.057c44.674,13.469,80.059-7.256,80.059-7.256l-0.048-25.287
	c0,0-20.802,13.092-49.444,12.666c-28.643-0.43-52.368-16.031-59.209-52.584c-6.84-36.551,14.605-83.646,59.707-83.646
	C596.499,405.586,616.806,417.199,616.806,417.199z"/>
<path d="M763.618,417.268l0.284-25.01c0,0-18.099-9.834-48.45-10.547c-30.353-0.713-56.857,14.393-71.82,34.77
	s-18.667,44.391-18.667,54.225c0,9.832-2.788,72.756,57.927,91.057c44.674,13.469,80.057-7.256,80.057-7.256l-0.046-25.287
	c0,0-20.802,13.092-49.444,12.666c-28.643-0.428-52.369-16.031-59.209-52.584c-6.84-36.551,14.604-83.645,59.707-83.645
	C743.312,405.656,763.618,417.268,763.618,417.268z"/>
<g>
	<g>
		<path fill="none" stroke="#000000" stroke-width="7.695" stroke-miterlimit="10" d="M37.28,110.323
			c0,0,38.364-21.365,68.686-16.936c20.295,2.964,39.131,13.989,61.178,41.344"/>
		<g>
			<polygon points="147.051,142.188 184.34,158.417 179.755,118.008 			"/>
		</g>
	</g>
</g>
<g>
	<g>
		<path fill="none" stroke="#000000" stroke-width="7.695" stroke-miterlimit="10" d="M242.787,242.611
			c23.38,29.835,79.073,74.051,190.928,70.275"/>
		<g>
			<polygon points="228.839,257.649 228.656,216.982 263.969,237.152 			"/>
		</g>
	</g>
</g>
<g>
	<g>
		<path fill="none" stroke="#000000" stroke-width="7.695" stroke-miterlimit="10" d="M227.66,153.573
			c0,0,68.906-85.406,175.936-57.647"/>
		<g>
			<polygon points="391.489,113.747 431.292,105.406 404.172,75.103 			"/>
		</g>
	</g>
</g>
<g>
	<g>
		<path fill="none" stroke="#000000" stroke-width="7.695" stroke-miterlimit="10" d="M509.312,105.193
			c29.491-7.917,95.367-29.49,181.163,47.729"/>
		<g>
			<polygon points="671.938,163.604 711.413,173.379 700.146,134.304 			"/>
		</g>
	</g>
</g>
<g>
	<g>
		<path fill="none" stroke="#000000" stroke-width="7.695" stroke-miterlimit="10" d="M497.128,136.614
			c0,0,46.771,45.862,7.616,124.435"/>
		<g>
			<polygon points="489.756,245.572 489.844,286.239 525.021,265.834 			"/>
		</g>
	</g>
</g>
<g>
	<path fill="#F6EB14" d="M206.428,227.458c-21.922,0-39.758-17.835-39.758-39.758s17.835-39.758,39.758-39.758
		s39.757,17.835,39.757,39.758S228.35,227.458,206.428,227.458z"/>
	<path d="M206.428,150.935c20.304,0,36.765,16.46,36.765,36.765c0,20.304-16.46,36.765-36.765,36.765
		c-20.305,0-36.765-16.461-36.765-36.765C169.663,167.396,186.123,150.935,206.428,150.935 M206.428,144.95
		c-23.572,0-42.75,19.178-42.75,42.75s19.178,42.75,42.75,42.75s42.75-19.178,42.75-42.75S230,144.95,206.428,144.95L206.428,144.95
		z"/>
</g>
<g>
	<path fill="#2752A4" d="M467.203,150.08c-21.923,0-39.758-17.835-39.758-39.757s17.835-39.757,39.758-39.757
		c21.922,0,39.757,17.835,39.757,39.757S489.125,150.08,467.203,150.08z"/>
	<path d="M467.203,73.558c20.304,0,36.765,16.46,36.765,36.765s-16.461,36.765-36.765,36.765c-20.306,0-36.766-16.46-36.766-36.765
		S446.897,73.558,467.203,73.558 M467.203,67.573c-23.573,0-42.751,19.177-42.751,42.75s19.178,42.75,42.751,42.75
		c23.572,0,42.75-19.177,42.75-42.75S490.775,67.573,467.203,67.573L467.203,67.573z"/>
</g>
<g>
	<path fill="#14B24B" d="M473.509,356.775c-21.923,0-39.758-17.834-39.758-39.756c0-21.923,17.835-39.758,39.758-39.758
		c21.922,0,39.756,17.835,39.756,39.758C513.265,338.941,495.431,356.775,473.509,356.775z"/>
	<path d="M473.509,280.254c20.305,0,36.764,16.46,36.764,36.766c0,20.303-16.459,36.764-36.764,36.764s-36.766-16.461-36.766-36.764
		C436.743,296.714,453.204,280.254,473.509,280.254 M473.509,274.269c-23.572,0-42.751,19.178-42.751,42.75
		c0,23.572,19.179,42.75,42.751,42.75c23.571,0,42.749-19.178,42.749-42.75C516.258,293.447,497.08,274.269,473.509,274.269
		L473.509,274.269z"/>
</g>
<g>
	<path fill="#EE2524" d="M725.413,245.52c-21.923,0-39.758-17.835-39.758-39.758s17.835-39.758,39.758-39.758
		s39.758,17.835,39.758,39.758S747.336,245.52,725.413,245.52z"/>
	<path d="M725.413,168.997c20.304,0,36.766,16.46,36.766,36.765c0,20.304-16.462,36.765-36.766,36.765
		c-20.305,0-36.766-16.461-36.766-36.765C688.647,185.458,705.108,168.997,725.413,168.997 M725.413,163.012
		c-23.572,0-42.751,19.178-42.751,42.75s19.179,42.75,42.751,42.75s42.751-19.178,42.751-42.75S748.985,163.012,725.413,163.012
		L725.413,163.012z"/>
</g>
<g>
	<path fill="#EE2524" d="M726.534,223.877c-9.988,0-18.113-8.126-18.113-18.115s8.125-18.116,18.113-18.116
		c9.989,0,18.115,8.127,18.115,18.116S736.523,223.877,726.534,223.877z"/>
	<path d="M726.534,190.639c8.352,0,15.123,6.771,15.123,15.123c0,8.352-6.771,15.123-15.123,15.123s-15.121-6.771-15.121-15.123
		C711.413,197.41,718.183,190.639,726.534,190.639 M726.534,184.654c-11.638,0-21.106,9.469-21.106,21.108
		c0,11.639,9.469,21.107,21.106,21.107c11.639,0,21.108-9.469,21.108-21.107C747.643,194.123,738.173,184.654,726.534,184.654
		L726.534,184.654z"/>
</g>
<path d="M295.989,74.27l7.41-0.374c0,0-1.211-10.385-13.181-9.904c-3.688,0.148-14.401,2.512-13.894,15.497
	c0.503,12.869,9.245,15.39,15.283,15.123c6.039-0.268,11.36-4.718,12.108-11.237l-7.352-0.626c0,0-0.642,5.504-5.451,5.504
	c-4.81,0-6.413-4.569-6.52-7.668c-0.106-3.1,0.001-10.152,6.199-10.447C295.08,69.924,295.989,74.27,295.989,74.27z"/>
<path stroke="#000000" stroke-width="0.855" stroke-miterlimit="10" d="M291.126,313.113l-0.267-15.83h8.193v40.681h-7.409v-4.203
	c0,0-3.209,4.871-10.191,4.871c-5.342,0-10.65-6.189-10.792-14.24c-0.142-8.051,2.351-15.984,11.97-16.137
	C289.327,308.148,291.126,313.113,291.126,313.113z M290.74,320.973c-0.042-1.068-0.349-7-5.886-7s-7.141,5.396-7.087,9.887
	c0.053,4.488,2.524,8.977,7.087,8.977c4.562,0,5.727-5.457,5.898-7.428C290.93,323.359,290.781,322.039,290.74,320.973z"/>
<path d="M534.392,179.506c4.561-3.135,13.732-1.781,16.868,0.499s3.276,7.891,3.42,17.581c0.144,9.69,1.157,10.42,1.157,10.42
	l-7.693-0.071c0,0-0.428-1.211-0.57-1.852c-0.143-0.642-0.251-1.141-0.251-1.141c-13.804,9.53-20.037-0.73-19.04-7.356
	c0.996-6.626,18.126-8.346,18.126-8.346c-0.07-3.919-1.454-5.013-4.874-5.227c-3.42-0.214-5.277,3.407-5.277,3.407l-7.146-0.936
	C529.11,186.484,529.832,182.642,534.392,179.506z M537.579,196.785c-1.816,1.283-2.19,6.199,2.727,6.199
	c4.916,0,5.984-4.168,5.984-4.168l0.037-4.98C546.327,193.835,539.396,195.502,537.579,196.785z"/>
<path d="M631.696,73.255l7.409-0.374c0,0-1.21-10.385-13.181-9.904c-3.686,0.148-14.4,2.512-13.895,15.497
	c0.504,12.869,9.246,15.39,15.285,15.123c6.037-0.268,11.359-4.718,12.106-11.237l-7.353-0.626c0,0-0.641,5.504-5.449,5.504
	c-4.81,0-6.412-4.569-6.52-7.668c-0.107-3.1,0.002-10.152,6.199-10.447C630.788,68.909,631.696,73.255,631.696,73.255z"/>
</svg>
