<?xml version="1.0" encoding="UTF-8" standalone="no"?>
<!-- Created with Inkscape (http://www.inkscape.org/) -->

<svg
   xmlns:dc="http://purl.org/dc/elements/1.1/"
   xmlns:cc="http://creativecommons.org/ns#"
   xmlns:rdf="http://www.w3.org/1999/02/22-rdf-syntax-ns#"
   xmlns:svg="http://www.w3.org/2000/svg"
   xmlns="http://www.w3.org/2000/svg"
   xmlns:sodipodi="http://sodipodi.sourceforge.net/DTD/sodipodi-0.dtd"
   xmlns:inkscape="http://www.inkscape.org/namespaces/inkscape"
   width="200mm"
   height="200mm"
   viewBox="0 0 708.66142 708.66141"
   id="svg7939"
   version="1.1"
   inkscape:version="0.91 r13725"
   sodipodi:docname="cadcc_cuadrado_delineado_negro.svg"
   inkscape:export-filename="/home/adderou/Projects/Logos/LogosFCFM/Ciencias de la Computación/cadcc_cuadrado_delineado_negro"
   inkscape:export-xdpi="90"
   inkscape:export-ydpi="90">
  <defs
     id="defs7941" />
  <sodipodi:namedview
     id="base"
     pagecolor="#ffffff"
     bordercolor="#666666"
     borderopacity="1.0"
     inkscape:pageopacity="0.0"
     inkscape:pageshadow="2"
     inkscape:zoom="0.35"
     inkscape:cx="-76.428571"
     inkscape:cy="520"
     inkscape:document-units="px"
     inkscape:current-layer="layer1"
     showgrid="false"
     inkscape:window-width="1366"
     inkscape:window-height="719"
     inkscape:window-x="0"
     inkscape:window-y="0"
     inkscape:window-maximized="1" />
  <metadata
     id="metadata7944">
    <rdf:RDF>
      <cc:Work
         rdf:about="">
        <dc:format>image/svg+xml</dc:format>
        <dc:type
           rdf:resource="http://purl.org/dc/dcmitype/StillImage" />
        <dc:title></dc:title>
      </cc:Work>
    </rdf:RDF>
  </metadata>
  <g
     inkscape:label="Layer 1"
     inkscape:groupmode="layer"
     id="layer1"
     transform="translate(0,-343.70079)">
    <g
       transform="translate(185.39282,-1004.2094)"
       id="g10554">
      <g
         style="fill:#000000;fill-opacity:1"
         transform="matrix(0.65754401,0,0,0.65754401,-931.37788,1728.6633)"
         id="g5238-2-3-2">
        <path
           inkscape:connector-curvature="0"
           id="path4887-3-2-2"
           style="font-style:normal;font-variant:normal;font-weight:bold;font-stretch:normal;font-size:medium;line-height:125%;font-family:Comfortaa;-inkscape-font-specification:'Comfortaa Bold';letter-spacing:-25.97725487px;word-spacing:0px;fill:#000000;fill-opacity:1;stroke:none;stroke-width:1px;stroke-linecap:butt;stroke-linejoin:miter;stroke-opacity:1"
           d="m 1310.367,398.19792 q -26.0897,0 -46.8954,-11.88898 -20.8057,-11.88899 -32.6947,-32.69472 -11.5587,-21.13597 -11.5587,-46.89544 0,-26.41997 11.2284,-47.22569 11.5588,-21.13598 32.0342,-32.69471 20.4755,-11.88899 46.235,-11.88899 38.9694,0 64.7289,29.72247 3.3025,3.63274 3.3025,8.58649 0,7.26549 -7.2655,12.21923 -3.3025,2.31175 -7.5957,2.31175 -7.5958,0 -12.8798,-5.9445 -8.2562,-8.91673 -18.1637,-12.87973 -9.5772,-4.29324 -22.1267,-4.29324 -25.4292,0 -41.2812,17.17297 -15.852,16.84273 -15.852,44.91395 0,17.83348 7.2655,32.03421 7.5957,13.87049 20.8057,21.79648 13.5403,7.92599 30.7132,7.92599 22.457,0 36.3275,-11.55874 6.2747,-4.62349 12.2192,-4.62349 4.6235,0 8.5865,2.97224 6.2748,5.284 6.2748,11.88899 0,4.95374 -3.963,8.91674 -23.778,22.12672 -59.445,22.12672 z" />
        <path
           inkscape:connector-curvature="0"
           id="path4889-7-0-4"
           style="font-style:normal;font-variant:normal;font-weight:bold;font-stretch:normal;font-size:medium;line-height:125%;font-family:Comfortaa;-inkscape-font-specification:'Comfortaa Bold';letter-spacing:-25.97725487px;word-spacing:0px;fill:#000000;fill-opacity:1;stroke:none;stroke-width:1px;stroke-linecap:butt;stroke-linejoin:miter;stroke-opacity:1"
           d="m 1483.0556,214.90939 q 25.4292,0 45.9047,12.21924 20.8057,11.88898 32.6947,33.02496 12.2192,20.80572 12.2192,46.56519 l 0,73.64566 q 0,7.26549 -4.9537,12.21924 -4.6235,4.62349 -11.889,4.62349 -7.2655,0 -12.2193,-4.62349 -4.6235,-4.95375 -4.6235,-12.21924 l 0,-12.21923 q -11.5587,14.20073 -28.0712,22.12672 -16.5125,7.92599 -35.6669,7.92599 -23.778,0 -43.2627,-11.88898 -19.1545,-11.88899 -30.383,-32.69472 -10.8982,-21.13597 -10.8982,-46.89544 0,-25.75947 11.889,-46.56519 11.8889,-21.13598 32.6947,-33.02496 21.1359,-12.21924 46.5652,-12.21924 z m 0,153.56607 q 16.5124,0 29.7224,-7.92599 13.5403,-8.25624 21.136,-22.12673 7.5957,-14.20073 7.5957,-31.70396 0,-17.50323 -7.5957,-31.70396 -7.5957,-14.20073 -21.136,-22.12672 -13.21,-8.25624 -29.7224,-8.25624 -16.5125,0 -30.0527,8.25624 -13.21,7.92599 -21.136,22.12672 -7.5958,14.20073 -7.5958,31.70396 0,17.50323 7.5958,31.70396 7.926,13.87049 21.136,22.12673 13.5402,7.92599 30.0527,7.92599 z" />
      </g>
      <g
         style="fill:none;fill-opacity:1;stroke:#000000;stroke-width:7.60405397;stroke-miterlimit:4;stroke-dasharray:none"
         transform="matrix(0.65754401,0,0,0.65754401,-931.37788,1728.6633)"
         id="g5242-5-6-7">
        <path
           inkscape:connector-curvature="0"
           id="path4891-9-1-7"
           style="font-style:normal;font-variant:normal;font-weight:normal;font-stretch:normal;font-size:medium;line-height:125%;font-family:Comfortaa;-inkscape-font-specification:Comfortaa;letter-spacing:-25.97725487px;word-spacing:0px;fill:none;fill-opacity:1;stroke:#000000;stroke-width:7.60405397;stroke-linecap:butt;stroke-linejoin:miter;stroke-miterlimit:4;stroke-dasharray:none;stroke-opacity:1"
           d="m 1772.0642,225.80763 q 0.3302,0.99075 0.3302,2.97224 l 0,77.60866 q 0,25.75947 -12.2192,46.89544 -11.889,21.13598 -33.025,33.35521 -20.8057,11.88899 -46.5652,11.88899 -25.7594,0 -46.8954,-11.88899 -20.8057,-12.21923 -33.025,-33.35521 -11.8889,-21.13597 -11.8889,-46.89544 0,-25.75947 11.5587,-46.56519 11.889,-21.13598 32.0342,-33.02496 20.4755,-12.21924 45.5745,-12.21924 21.4662,0 39.2997,9.24699 17.8334,8.91674 29.3922,24.76872 l 0,-96.76313 q 0,-5.61425 3.6327,-9.24699 3.6328,-3.63275 9.247,-3.63275 5.6142,0 8.9167,3.63275 3.6328,3.63274 3.6328,9.24699 l 0,73.97591 z M 1680.585,375.4107 q 18.8243,0 34.0158,-8.91674 15.1914,-9.24699 23.7779,-24.76872 8.9168,-15.85198 8.9168,-35.33671 0,-5.61424 -0.3303,-8.25624 -0.3302,-0.6605 -0.3302,-1.65125 -3.3025,-25.75947 -21.7965,-42.27195 -18.1637,-16.51248 -44.2535,-16.51248 -18.8242,0 -34.3459,8.91674 -15.1915,8.91674 -24.1082,24.76872 -8.5865,15.52173 -8.5865,35.00646 0,19.48473 8.5865,35.33671 8.9167,15.52173 24.1082,24.76872 15.5217,8.91674 34.3459,8.91674 z" />
        <path
           inkscape:connector-curvature="0"
           id="path4893-22-5-5"
           style="font-style:normal;font-variant:normal;font-weight:normal;font-stretch:normal;font-size:medium;line-height:125%;font-family:Comfortaa;-inkscape-font-specification:Comfortaa;letter-spacing:-25.97725487px;word-spacing:0px;fill:none;fill-opacity:1;stroke:#000000;stroke-width:7.60405397;stroke-linecap:butt;stroke-linejoin:miter;stroke-miterlimit:4;stroke-dasharray:none;stroke-opacity:1"
           d="m 1886.4533,398.52817 q -25.7594,0 -46.2349,-11.88899 -20.4755,-12.21923 -32.3645,-33.02496 -11.5587,-21.13597 -11.5587,-46.89544 0,-26.41997 11.2285,-47.22569 11.2285,-21.13598 31.0434,-33.02496 19.815,-11.88899 44.5837,-11.88899 41.2812,0 67.0407,31.70396 2.642,2.97225 2.642,6.93525 0,5.28399 -5.6142,9.24698 -2.9723,1.9815 -6.2748,1.9815 -4.9537,0 -9.5772,-4.95374 -9.9075,-10.89824 -21.7965,-16.18223 -11.889,-5.61425 -26.42,-5.61425 -18.1637,0 -32.3644,8.91674 -14.2008,8.58649 -22.1267,24.43847 -7.5958,15.85198 -7.5958,35.66696 0,19.48473 8.2562,35.33671 8.2563,15.52173 23.1175,24.43847 14.8613,8.91674 34.0157,8.91674 26.42,0 42.6022,-14.20073 4.2933,-3.63275 8.9168,-3.63275 3.963,0 7.2655,2.642 4.6235,3.96299 4.6235,8.91674 0,4.29324 -3.3025,7.26549 -23.778,22.12672 -60.1055,22.12672 z" />
        <path
           inkscape:connector-curvature="0"
           id="path4895-8-5-4"
           style="font-style:normal;font-variant:normal;font-weight:normal;font-stretch:normal;font-size:medium;line-height:125%;font-family:Comfortaa;-inkscape-font-specification:Comfortaa;letter-spacing:-25.97725487px;word-spacing:0px;fill:none;fill-opacity:1;stroke:#000000;stroke-width:7.60405397;stroke-linecap:butt;stroke-linejoin:miter;stroke-miterlimit:4;stroke-dasharray:none;stroke-opacity:1"
           d="m 2057.2068,398.52817 q -25.7595,0 -46.2349,-11.88899 -20.4755,-12.21923 -32.3645,-33.02496 -11.5587,-21.13597 -11.5587,-46.89544 0,-26.41997 11.2285,-47.22569 11.2284,-21.13598 31.0434,-33.02496 19.815,-11.88899 44.5837,-11.88899 41.2812,0 67.0407,31.70396 2.642,2.97225 2.642,6.93525 0,5.28399 -5.6143,9.24698 -2.9722,1.9815 -6.2747,1.9815 -4.9537,0 -9.5772,-4.95374 -9.9075,-10.89824 -21.7965,-16.18223 -11.889,-5.61425 -26.42,-5.61425 -18.1637,0 -32.3644,8.91674 -14.2008,8.58649 -22.1268,24.43847 -7.5957,15.85198 -7.5957,35.66696 0,19.48473 8.2562,35.33671 8.2563,15.52173 23.1175,24.43847 14.8612,8.91674 34.0157,8.91674 26.42,0 42.6022,-14.20073 4.2933,-3.63275 8.9167,-3.63275 3.963,0 7.2655,2.642 4.6235,3.96299 4.6235,8.91674 0,4.29324 -3.3025,7.26549 -23.7779,22.12672 -60.1054,22.12672 z" />
      </g>
      <g
         id="g10537">
        <g
           id="g10533">
          <path
             id="path4930-0-9-5-9-7-7-0"
             d="m 122.10849,1418.5544 -30.54492,39.4121 0.0976,0.076 c -53.51224,31.3227 -87.253913,89.0233 -87.253903,152.2071 0,17.2902 2.53378,34.1677 7.30078,50.2089 l -25.00196,-19.375 -7.81054,10.0782 39.41211,30.5429 0.7832,-1.0117 c 17.901003,41.0561 51.164873,74.6875 94.201173,92.5137 37.64184,15.5917 78.54519,17.3423 116.10352,6.582 l -15.50977,20.0137 10.07813,7.8105 27.82031,-35.9004 c 19.67749,-8.6449 37.94782,-20.9634 53.72656,-36.7421 l -9.01562,-9.0157 c -15.10078,15.1008 -32.65331,26.78 -51.55469,34.8321 l -0.51172,-0.3965 -0.70898,0.916 c -39.40496,16.4104 -84.54319,17.105 -125.55078,0.1191 -61.1624,-25.3343 -101.011733,-84.974 -101.011723,-151.1757 0,-66.2017 39.849323,-125.8454 101.011723,-151.1797 61.16239,-25.3343 131.51451,-11.339 178.32617,35.4726 l 9.01562,-9.0156 c -49.44635,-49.4464 -123.36869,-64.9191 -188.3437,-39.7813 l 15.01953,-19.3808 -10.07812,-7.8106 z"
             style="color:#000000;font-style:normal;font-variant:normal;font-weight:normal;font-stretch:normal;font-size:medium;line-height:normal;font-family:sans-serif;text-indent:0;text-align:start;text-decoration:none;text-decoration-line:none;text-decoration-style:solid;text-decoration-color:#000000;letter-spacing:normal;word-spacing:normal;text-transform:none;direction:ltr;block-progression:tb;writing-mode:lr-tb;baseline-shift:baseline;text-anchor:start;white-space:normal;clip-rule:nonzero;display:inline;overflow:visible;visibility:visible;opacity:1;isolation:auto;mix-blend-mode:normal;color-interpolation:sRGB;color-interpolation-filters:linearRGB;solid-color:#000000;solid-opacity:1;fill:#000000;fill-opacity:1;fill-rule:evenodd;stroke:none;stroke-width:12.75024414;stroke-linecap:butt;stroke-linejoin:miter;stroke-miterlimit:4;stroke-dasharray:none;stroke-dashoffset:0;stroke-opacity:1;color-rendering:auto;image-rendering:auto;shape-rendering:auto;text-rendering:auto;enable-background:accumulate"
             inkscape:connector-curvature="0" />
          <path
             style="fill:#000000;fill-opacity:1;fill-rule:evenodd;stroke:#000000;stroke-width:7.78035402;stroke-linecap:butt;stroke-linejoin:miter;stroke-miterlimit:4;stroke-dasharray:none;stroke-opacity:1"
             d="m 6.333117,1420.7504 0,39.6531 -39.653,0 0,0 z"
             id="path7188-3-6-1"
             inkscape:connector-curvature="0" />
        </g>
        <g
           id="g7315-9-4-2"
           transform="translate(-861.78527,1347.943)"
           style="fill:#000000;fill-opacity:1">
          <path
             d="m 940.74507,274.80431 q -0.71191,3.64855 -2.49169,6.76316 -1.69079,3.11462 -4.36045,5.42833 -2.66968,2.22472 -6.22924,3.47058 -3.55955,1.24583 -7.92001,1.24583 -4.62743,0 -8.80992,-1.5128 -4.0935,-1.51282 -7.20811,-4.36046 -3.11462,-2.93664 -4.98339,-7.11913 -1.77977,-4.18248 -1.77977,-9.6108 l 0,-1.06787 q 0,-5.33934 1.77977,-9.61082 1.86877,-4.27147 4.98339,-7.20811 3.11461,-2.93663 7.20811,-4.53843 4.18249,-1.60181 8.80992,-1.60181 4.18247,0 7.74204,1.24585 3.55955,1.24585 6.22923,3.55956 2.75866,2.22473 4.44944,5.33934 1.77979,3.11461 2.40271,6.76316 l -6.94115,1.6018 q -0.26697,-2.31371 -1.33483,-4.44945 -0.97888,-2.22473 -2.75865,-3.82653 -1.6908,-1.69079 -4.1825,-2.66966 -2.49168,-0.97888 -5.78428,-0.97888 -3.20361,0 -6.05125,1.24585 -2.75865,1.15685 -4.8944,3.38158 -2.13573,2.13573 -3.38158,5.16136 -1.15685,3.02563 -1.15685,6.58519 l 0,1.06787 q 0,3.73753 1.15685,6.76315 1.24585,2.93665 3.38158,4.98339 2.13575,2.04675 4.98339,3.20361 2.84765,1.06787 6.14025,1.06787 3.29258,0 5.69529,-0.97889 2.49169,-1.06786 4.18248,-2.66966 1.77978,-1.6908 2.75866,-3.82653 1.06787,-2.13574 1.42382,-4.44945 l 6.94114,1.6018 z"
             style="font-style:normal;font-variant:normal;font-weight:normal;font-stretch:normal;font-size:medium;line-height:125%;font-family:'Space Mono';-inkscape-font-specification:'Space Mono';letter-spacing:0px;word-spacing:0px;fill:#000000;fill-opacity:1;stroke:none;stroke-width:1px;stroke-linecap:butt;stroke-linejoin:miter;stroke-opacity:1"
             id="path5336-6-61-5-9-8"
             inkscape:connector-curvature="0" />
          <path
             d="m 1050.6744,282.9913 -1.0679,0 q -2.1357,4.44945 -5.9622,6.58519 -3.7376,2.13572 -7.9201,2.13572 -4.3604,0 -8.098,-1.42382 -3.7375,-1.51281 -6.5852,-4.36046 -2.7586,-2.93663 -4.3604,-7.11911 -1.6018,-4.18249 -1.6018,-9.6998 l 0,-1.42383 q 0,-5.42833 1.6018,-9.61081 1.6018,-4.18249 4.3604,-7.03014 2.8477,-2.93663 6.5852,-4.44945 3.7376,-1.51281 7.9201,-1.51281 4.5384,0 8.1869,2.04675 3.7376,1.95776 5.8733,6.14024 l 1.0679,0 0,-6.94114 6.9411,0 0,35.06166 q 0,2.66968 2.4027,2.66968 l 2.2248,0 0,6.40721 -4.7165,0 q -3.0256,0 -4.9833,-1.95777 -1.8688,-1.95775 -1.8688,-4.98338 l 0,-0.53393 z m -14.2383,2.13574 q 3.1146,0 5.6953,-1.15687 2.6697,-1.15685 4.5385,-3.29259 1.8687,-2.13574 2.9366,-5.07237 1.0679,-3.02562 1.0679,-6.67417 l 0,-1.06788 q 0,-3.55955 -1.0679,-6.49619 -1.0679,-3.02563 -3.0256,-5.16137 -1.8688,-2.13573 -4.5385,-3.29258 -2.5806,-1.24585 -5.6063,-1.24585 -3.1146,0 -5.6953,1.15686 -2.5806,1.15686 -4.5384,3.29259 -1.8688,2.04675 -2.9366,5.07237 -1.0679,2.93664 -1.0679,6.4962 l 0,1.42383 q 0,7.56406 3.9155,11.83553 4.0045,4.18249 10.3227,4.18249 z"
             style="font-style:normal;font-variant:normal;font-weight:normal;font-stretch:normal;font-size:medium;line-height:125%;font-family:'Space Mono';-inkscape-font-specification:'Space Mono';letter-spacing:0px;word-spacing:0px;fill:#000000;fill-opacity:1;stroke:none;stroke-width:1px;stroke-linecap:butt;stroke-linejoin:miter;stroke-opacity:1"
             id="path5338-1-8-0-0-9"
             inkscape:connector-curvature="0" />
          <path
             d="m 1053.522,170.17034 -1.0678,0 q -1.0679,2.04674 -2.7587,3.55955 -1.6018,1.51282 -3.5595,2.49169 -1.8688,0.97888 -4.0045,1.42383 -2.1358,0.53393 -4.0935,0.53393 -4.4495,0 -8.276,-1.51282 -3.8265,-1.51281 -6.7632,-4.36046 -2.8476,-2.84764 -4.5384,-7.03012 -1.6018,-4.27148 -1.6018,-9.69981 l 0,-1.42381 q 0,-5.33935 1.6908,-9.52183 1.6908,-4.27148 4.5384,-7.11913 2.8477,-2.93663 6.6742,-4.44944 3.8265,-1.51282 8.098,-1.51282 4.5384,0 8.4539,2.04675 4.0045,1.95776 6.1403,6.14025 l 1.0678,0 0,-25.0949 6.9412,0 0,62.29229 -6.9412,0 0,-6.76315 z m -14.7721,1.42382 q 3.1146,0 5.7843,-1.15686 2.6696,-1.15686 4.6274,-3.29259 2.0467,-2.13575 3.2036,-5.07238 1.1568,-3.02562 1.1568,-6.67418 l 0,-1.06787 q 0,-3.55956 -1.1568,-6.4962 -1.1569,-3.02562 -3.2036,-5.16135 -1.9578,-2.13574 -4.7164,-3.2926 -2.6697,-1.24584 -5.6953,-1.24584 -3.1146,0 -5.8733,1.15686 -2.6697,1.15685 -4.7164,3.29259 -1.9578,2.13574 -3.1146,5.07237 -1.0679,2.93664 -1.0679,6.49621 l 0,1.42381 q 0,3.73754 1.0679,6.67418 1.1568,2.93664 3.1146,5.07237 2.0467,2.04675 4.7164,3.2036 2.6697,1.06788 5.8733,1.06788 z"
             style="font-style:normal;font-variant:normal;font-weight:normal;font-stretch:normal;font-size:medium;line-height:125%;font-family:'Space Mono';-inkscape-font-specification:'Space Mono';letter-spacing:0px;word-spacing:0px;fill:#000000;fill-opacity:1;stroke:none;stroke-width:1px;stroke-linecap:butt;stroke-linejoin:miter;stroke-opacity:1"
             id="path5340-8-7-4-9-3"
             inkscape:connector-curvature="0" />
          <path
             d="m 1060.5522,390.79103 q -0.7119,3.64856 -2.4917,6.76316 -1.6908,3.11462 -4.3605,5.42834 -2.6697,2.22472 -6.2292,3.47057 -3.5596,1.24585 -7.92,1.24585 -4.6275,0 -8.8099,-1.51282 -4.0935,-1.51281 -7.2082,-4.36046 -3.1146,-2.93663 -4.9833,-7.11913 -1.7798,-4.18247 -1.7798,-9.6108 l 0,-1.06787 q 0,-5.33934 1.7798,-9.61081 1.8687,-4.27147 4.9833,-7.20811 3.1147,-2.93664 7.2082,-4.53844 4.1824,-1.6018 8.8099,-1.6018 4.1824,0 7.742,1.24585 3.5596,1.24584 6.2292,3.55955 2.7587,2.22473 4.4495,5.33935 1.7798,3.1146 2.4027,6.76315 l -6.9412,1.60181 q -0.2669,-2.31371 -1.3348,-4.44945 -0.9789,-2.22472 -2.7586,-3.82653 -1.6908,-1.69078 -4.1825,-2.66967 -2.4917,-0.97888 -5.7843,-0.97888 -3.2036,0 -6.0513,1.24585 -2.7586,1.15686 -4.8944,3.38158 -2.1357,2.13574 -3.3815,5.16137 -1.1569,3.02562 -1.1569,6.58518 l 0,1.06787 q 0,3.73754 1.1569,6.76316 1.2458,2.93665 3.3815,4.98339 2.1358,2.04675 4.9834,3.2036 2.8477,1.06787 6.1403,1.06787 3.2926,0 5.6953,-0.97888 2.4917,-1.06787 4.1824,-2.66967 1.7798,-1.69079 2.7587,-3.82652 1.0679,-2.13575 1.4238,-4.44946 l 6.9412,1.6018 z"
             style="font-style:normal;font-variant:normal;font-weight:normal;font-stretch:normal;font-size:medium;line-height:125%;font-family:'Space Mono';-inkscape-font-specification:'Space Mono';letter-spacing:0px;word-spacing:0px;fill:#000000;fill-opacity:1;stroke:none;stroke-width:1px;stroke-linecap:butt;stroke-linejoin:miter;stroke-opacity:1"
             id="path5336-3-7-9-8-1-6"
             inkscape:connector-curvature="0" />
        </g>
        <g
           id="g7307-2-5-0"
           transform="translate(-861.78527,1347.943)"
           style="fill:#ffffff;stroke:#000000">
          <rect
             ry="41.42857"
             transform="matrix(0.70710678,-0.70710678,0.70710678,0.70710678,0,0)"
             y="871.79901"
             x="652.91345"
             height="121.21831"
             width="121.21831"
             id="rect4908-2-9-5"
             style="opacity:1;fill:#ffffff;fill-opacity:1;stroke:#000000;stroke-width:13;stroke-linecap:butt;stroke-linejoin:miter;stroke-miterlimit:4;stroke-dasharray:none;stroke-dashoffset:1.29999995;stroke-opacity:1" />
          <rect
             ry="41.42857"
             transform="matrix(0.70710678,-0.70710678,0.70710678,0.70710678,0,0)"
             y="693.19885"
             x="474.31326"
             height="121.21831"
             width="121.21831"
             id="rect4908-6-6-7-1"
             style="opacity:1;fill:#ffffff;fill-opacity:1;stroke:#000000;stroke-width:13;stroke-linecap:butt;stroke-linejoin:miter;stroke-miterlimit:4;stroke-dasharray:none;stroke-dashoffset:1.29999995;stroke-opacity:1" />
          <rect
             ry="41.42857"
             transform="matrix(0.70710678,-0.70710678,0.70710678,0.70710678,0,0)"
             y="857.4845"
             x="310.02762"
             height="121.21831"
             width="121.21831"
             id="rect4908-6-7-1-7-1"
             style="opacity:1;fill:#ffffff;fill-opacity:1;stroke:#000000;stroke-width:13;stroke-linecap:butt;stroke-linejoin:miter;stroke-miterlimit:4;stroke-dasharray:none;stroke-dashoffset:1.29999995;stroke-opacity:1" />
          <g
             id="g7303-0-6-0"
             style="fill:#ffffff;stroke:#000000">
            <rect
               style="opacity:1;fill:#ffffff;fill-opacity:1;stroke:#000000;stroke-width:13;stroke-linecap:butt;stroke-linejoin:miter;stroke-miterlimit:4;stroke-dasharray:none;stroke-dashoffset:1.29999995;stroke-opacity:1"
               id="rect4908-6-7-5-61-7-8"
               width="121.21831"
               height="121.21831"
               x="488.62778"
               y="1036.0847"
               transform="matrix(0.70710678,-0.70710678,0.70710678,0.70710678,0,0)"
               ry="41.42857" />
            <rect
               style="opacity:1;fill:#ffffff;fill-opacity:1;stroke:#000000;stroke-width:10;stroke-linecap:butt;stroke-linejoin:miter;stroke-miterlimit:4;stroke-dasharray:none;stroke-dashoffset:1.29999995;stroke-opacity:1"
               id="rect4908-6-7-5-3-5-3-5"
               width="41.258785"
               height="41.258785"
               x="528.60748"
               y="1076.0645"
               transform="matrix(0.70710678,-0.70710678,0.70710678,0.70710678,0,0)"
               ry="14.100944" />
          </g>
        </g>
      </g>
    </g>
  </g>
</svg>
