<?xml version="1.0" encoding="utf-8"?>
<!-- Generator: Adobe Illustrator 16.0.0, SVG Export Plug-In . SVG Version: 6.00 Build 0)  -->
<!DOCTYPE svg PUBLIC "-//W3C//DTD SVG 1.1//EN" "http://www.w3.org/Graphics/SVG/1.1/DTD/svg11.dtd">
<svg version="1.1" id="Layer_1" xmlns="http://www.w3.org/2000/svg" xmlns:xlink="http://www.w3.org/1999/xlink" x="0px" y="0px"
	 width="244.333px" height="250px" viewBox="0 0 244.333 250" enable-background="new 0 0 244.333 250" xml:space="preserve">
<g>
	<path fill="#FFFFFF" d="M150.553,150.049c-1.523,0-2.551,0.477-3.078,1.428c-0.529,0.953-0.793,3.078-0.793,6.379v41.26
		c0,3.43,0.254,5.684,0.762,6.764c0.508,1.078,1.48,1.617,2.92,1.617c1.65,0,2.75-0.604,3.301-1.811
		c0.549-1.205,0.824-4.158,0.824-8.854v-38.977c0-3.088-0.264-5.162-0.793-6.221C153.167,150.578,152.12,150.049,150.553,150.049z"
		/>
	<path fill="#FFFFFF" d="M80.19,188.389c-0.656,2.031-0.982,4.951-0.982,8.76c0,4.359,0.285,7.172,0.855,8.441
		c0.572,1.27,1.703,1.902,3.396,1.902c1.607,0,2.654-0.494,3.143-1.488c0.486-0.994,0.73-3.607,0.73-7.84v-17.33
		C83.227,183.84,80.846,186.355,80.19,188.389z"/>
	<path fill="#FFFFFF" d="M215.696,2.777H28.637c-14.621,0-26.471,10.848-26.471,24.229v195.985c0,13.381,11.85,24.23,26.471,24.23
		h187.059c14.619,0,26.471-10.848,26.471-24.23V27.007C242.167,13.625,230.315,2.777,215.696,2.777z M112.975,220.889H88.028v-7.506
		c-1.564,3.01-3.586,5.268-6.061,6.77c-2.477,1.504-5.428,2.258-8.855,2.258c-4.486,0-8.602-1.26-12.346-3.775
		c-3.746-2.518-5.619-8.029-5.619-16.535v-6.92c0-6.305,0.994-10.6,2.984-12.885c1.988-2.285,6.918-4.951,14.789-7.998
		c8.42-3.301,12.928-5.523,13.521-6.666c0.592-1.145,0.889-3.469,0.889-6.982c0-4.398-0.328-7.268-0.984-8.6
		c-0.656-1.334-1.746-2-3.27-2c-1.734,0-2.814,0.561-3.236,1.682s-0.635,4.031-0.635,8.73l0.002,8.82H55.149v-5.646
		c0-6.518,0.75-11.543,2.252-15.076s4.518-6.654,9.045-9.363c4.529-2.707,10.41-4.062,17.646-4.062
		c8.674,0,15.213,1.535,19.615,4.604c4.4,3.068,7.045,6.834,7.934,11.301c0.889,4.465,1.334,13.656,1.334,27.578V220.889z
		 M180.133,220.889h-25.646v-6.109c-2.453,2.547-5.035,4.453-7.744,5.727c-2.707,1.271-5.543,1.908-8.506,1.908
		c-3.977,0-7.426-1.049-10.346-3.145c-2.92-2.094-4.793-4.516-5.619-7.268c-0.826-2.75-1.238-7.236-1.238-13.457v-39.42
		c0-6.477,0.414-11.064,1.238-13.773c0.826-2.707,2.719-5.088,5.682-7.141c2.961-2.053,6.494-3.08,10.602-3.08
		c3.174,0,6.084,0.574,8.729,1.719c2.646,1.146,5.047,2.863,7.205,5.154v-23.885h25.645V220.889z M215.745,220.889h-26.406v-84.234
		h26.406V220.889z M215.745,131.514h-26.406v-13.395h26.406V131.514z"/>
</g>
</svg>
