<?xml version="1.0" encoding="utf-8"?>
<!-- Generator: Adobe Illustrator 16.0.0, SVG Export Plug-In . SVG Version: 6.00 Build 0)  -->
<!DOCTYPE svg PUBLIC "-//W3C//DTD SVG 1.1//EN" "http://www.w3.org/Graphics/SVG/1.1/DTD/svg11.dtd" [
	<!ENTITY ns_extend "http://ns.adobe.com/Extensibility/1.0/">
	<!ENTITY ns_ai "http://ns.adobe.com/AdobeIllustrator/10.0/">
	<!ENTITY ns_graphs "http://ns.adobe.com/Graphs/1.0/">
	<!ENTITY ns_vars "http://ns.adobe.com/Variables/1.0/">
	<!ENTITY ns_imrep "http://ns.adobe.com/ImageReplacement/1.0/">
	<!ENTITY ns_sfw "http://ns.adobe.com/SaveForWeb/1.0/">
	<!ENTITY ns_custom "http://ns.adobe.com/GenericCustomNamespace/1.0/">
	<!ENTITY ns_adobe_xpath "http://ns.adobe.com/XPath/1.0/">
]>
<svg version="1.1" id="Layer_1" xmlns:x="&ns_extend;" xmlns:i="&ns_ai;" xmlns:graph="&ns_graphs;"
	 xmlns="http://www.w3.org/2000/svg" xmlns:xlink="http://www.w3.org/1999/xlink" x="0px" y="0px" width="792px" height="249.5px"
	 viewBox="-239 -268.5 792 249.5" enable-background="new -239 -268.5 792 249.5" xml:space="preserve">
<metadata>
	<sfw  xmlns="&ns_sfw;">
		<slices></slices>
		<sliceSourceBounds  width="739.286" height="163.123" x="23.857" y="410.607" bottomLeftOrigin="true"></sliceSourceBounds>
	</sfw>
</metadata>
<g>
	<path fill="#CECECE" d="M-50.248-100.705v20.894c0,17.583-25.746,17.629-25.746,0v-20.894h2.545v20.894
		c0,14.459,20.655,14.412,20.655,0v-20.894H-50.248z"/>
	<path fill="#CECECE" d="M-38.203-90.811v4.23c1.826-3.266,5.139-4.613,8.454-4.662c6.339,0,10.711,3.895,10.711,10.472v13.695
		h-2.352v-13.642c0-5.383-3.316-8.264-8.455-8.218c-4.899,0.05-8.311,3.747-8.311,8.645v13.211h-2.352v-23.731H-38.203z"/>
	<path fill="#CECECE" d="M-6.175-98.543c0,2.498-3.796,2.498-3.796,0C-9.971-101.044-6.175-101.044-6.175-98.543z M-9.296-90.903
		v23.824h2.352v-23.824H-9.296z"/>
	<path fill="#CECECE" d="M1.123-90.811h2.593l8.646,20.99l8.645-20.99H23.6l-9.943,23.731h-2.593L1.123-90.811z"/>
	<path fill="#CECECE" d="M29.742-78.947c0-7.109,5.381-12.246,12.057-12.246s12.634,4.081,11.722,13.353H32.144
		c0.481,5.57,4.756,8.791,9.655,8.791c3.125,0,6.772-1.247,8.549-3.604l1.683,1.346c-2.307,3.028-6.437,4.565-10.232,4.565
		C35.123-66.743,29.742-71.403,29.742-78.947z M51.407-79.906c-0.048-5.861-3.891-9.125-9.609-9.125
		c-4.898,0-9.126,3.314-9.655,9.125H51.407z"/>
	<path fill="#CECECE" d="M65.421-90.811l0.096,4.23c1.489-3.222,4.853-4.468,7.878-4.468c1.779-0.052,3.507,0.434,5.092,1.394
		l-1.057,1.921c-1.248-0.766-2.641-1.104-4.035-1.104c-4.418,0.05-7.83,3.603-7.83,7.925v13.834h-2.352v-23.731H65.421z"/>
	<path fill="#CECECE" d="M101.919-86.486c-2.402-2.115-4.756-2.498-7.397-2.498c-3.698-0.05-7.252,1.345-7.157,4.369
		c0.098,3.17,4.229,3.796,7.206,4.324c4.226,0.722,10.04,1.441,9.8,6.964c-0.146,5.239-5.574,6.63-9.753,6.63
		c-4.179,0-8.31-1.587-10.375-4.754l1.73-1.539c1.969,2.834,5.524,4.034,8.693,4.034c2.883,0,7.255-0.769,7.399-4.521
		c0.095-3.407-3.841-4.079-7.733-4.705c-4.611-0.77-9.174-1.634-9.223-6.389c-0.046-4.657,4.611-6.679,9.414-6.627
		c3.458,0,6.485,0.959,8.839,3.17L101.919-86.486z"/>
	<path fill="#CECECE" d="M116.32-98.543c0,2.498-3.796,2.498-3.796,0C112.524-101.044,116.32-101.044,116.32-98.543z
		 M113.199-90.903v23.824h2.352v-23.824H113.199z"/>
	<path fill="#CECECE" d="M148.644-100.705v33.626h-2.306v-5.239c-1.97,3.605-5.859,5.621-9.896,5.621
		c-6.628,0-11.866-4.369-11.866-12.25c0-7.827,5.285-12.246,11.914-12.246c4.083,0,7.923,1.73,9.846,5.57v-15.082H148.644z
		 M126.883-78.947c0,6.582,4.372,9.944,9.705,9.944c5.571,0,9.705-4.085,9.705-9.993s-4.229-9.944-9.705-9.944
		C131.255-88.938,126.883-85.623,126.883-78.947z"/>
	<path fill="#CECECE" d="M181.825-90.811c0,7.928,0,15.804,0,23.731h-2.353v-5.043c-2.306,3.699-5.858,5.43-9.706,5.43
		c-6.624,0-12.056-4.995-12.056-12.25c0-7.25,5.427-12.151,12.056-12.151c3.845,0,7.733,1.777,9.706,5.476v-5.187h2.353V-90.811z
		 M160.065-78.947c0,5.957,4.323,9.944,9.701,9.944c13.21,0,13.21-19.839,0-19.839C164.389-88.841,160.065-84.902,160.065-78.947z"
		/>
	<path fill="#CECECE" d="M214.573-100.705v33.626h-2.306v-5.239c-1.971,3.605-5.859,5.621-9.896,5.621
		c-6.63,0-11.867-4.369-11.867-12.25c0-7.827,5.284-12.246,11.914-12.246c4.083,0,7.922,1.73,9.846,5.57v-15.082H214.573z
		 M192.811-78.947c0,6.582,4.375,9.944,9.707,9.944c5.571,0,9.705-4.085,9.705-9.993s-4.229-9.944-9.705-9.944
		C197.186-88.938,192.811-85.623,192.811-78.947z"/>
	<path fill="#CECECE" d="M264.511-100.705v33.626h-2.307v-5.239c-1.97,3.605-5.858,5.621-9.895,5.621
		c-6.627,0-11.865-4.369-11.865-12.25c0-7.827,5.284-12.246,11.914-12.246c4.08,0,7.923,1.73,9.846,5.57v-15.082H264.511z
		 M242.753-78.947c0,6.582,4.372,9.944,9.703,9.944c5.574,0,9.706-4.085,9.706-9.993s-4.229-9.944-9.706-9.944
		C247.125-88.938,242.753-85.623,242.753-78.947z"/>
	<path fill="#CECECE" d="M274.063-78.947c0-7.109,5.378-12.246,12.055-12.246c6.676,0,12.633,4.081,11.721,13.353h-21.376
		c0.48,5.57,4.758,8.791,9.655,8.791c3.123,0,6.773-1.247,8.552-3.604l1.679,1.346c-2.306,3.028-6.436,4.565-10.23,4.565
		C279.44-66.743,274.063-71.403,274.063-78.947z M295.722-79.906c-0.048-5.861-3.889-9.125-9.604-9.125
		c-4.902,0-9.128,3.314-9.655,9.125H295.722z"/>
	<path fill="#CECECE" d="M352.531-71.739c-3.361,3.362-7.829,5.042-12.25,5.042c-11.336,0-17.245-7.927-17.292-17.003
		c-0.096-8.981,5.766-17.39,17.292-17.39c4.421,0,8.889,1.681,12.25,5.045l-1.778,1.538c-2.881-2.886-6.677-4.276-10.472-4.276
		c-9.799,0-14.842,6.918-14.793,14.988c0.097,7.878,5.091,14.699,14.793,14.699c3.795,0,7.638-1.443,10.519-4.277L352.531-71.739z"
		/>
	<path fill="#CECECE" d="M363.517-100.705v14.313c1.922-3.41,5.233-4.708,8.549-4.755c6.629,0,9.942,4.277,9.942,10.473v13.595
		h-2.306v-13.595c0-4.9-2.306-8.217-7.637-8.217c-4.996,0-8.456,3.846-8.456,8.793v13.019h-2.35v-33.626H363.517z"/>
	<path fill="#CECECE" d="M394.876-98.543c0,2.498-3.796,2.498-3.796,0C391.08-101.044,394.876-101.044,394.876-98.543z
		 M391.752-90.903v23.824h2.353v-23.824H391.752z"/>
	<path fill="#CECECE" d="M406.783-100.705v33.626h-2.352v-33.626H406.783z"/>
	<path fill="#CECECE" d="M415.617-78.947c0-7.109,5.379-12.246,12.057-12.246c6.677,0,12.632,4.081,11.721,13.353H418.02
		c0.479,5.57,4.755,8.791,9.654,8.791c3.121,0,6.772-1.247,8.551-3.604l1.681,1.346c-2.307,3.028-6.438,4.565-10.231,4.565
		C420.996-66.743,415.617-71.403,415.617-78.947z M437.279-79.906c-0.047-5.861-3.889-9.125-9.605-9.125
		c-4.899,0-9.126,3.314-9.654,9.125H437.279z"/>
</g>
<path fill="#CECECE" d="M-7.862-152.061c-9.891,9.717-20.304,13.529-32.975,13.529c-24.811,0-45.466-14.915-45.466-45.279
	c0-30.379,20.655-45.298,45.466-45.298c12.147,0,21.521,3.468,30.886,12.664l-13.358,14.055c-5.029-4.507-11.28-6.763-17.179-6.763
	c-14.231,0-24.646,10.413-24.646,25.343c0,16.302,11.111,24.981,24.295,24.981c6.774,0,13.534-1.91,18.745-7.116L-7.862-152.061z"/>
<path fill="#CECECE" d="M67.475-227.605h20.631v86.94h-20.28l-1.056-12.697c-4.938,10.232-18.516,15.172-28.217,15.34
	c-25.749,0.177-44.791-15.691-44.791-46.202c0-29.981,19.925-45.675,45.318-45.504c11.641,0,22.751,5.474,27.689,14.113
	L67.475-227.605z M15.272-184.222c0,16.579,11.464,26.453,25.744,26.453c33.866,0,33.866-52.73,0-52.73
	C26.737-210.499,15.272-200.801,15.272-184.222z"/>
<path fill="#CECECE" d="M159.697-140.567v-46.556c0-11.459-6-21.869-17.81-21.869c-11.641,0-18.521,10.41-18.521,21.869v46.559
	h-21.513v-87.12h19.925l1.587,10.578c4.587-8.813,14.634-11.985,22.925-11.985c10.407,0,20.814,4.226,25.75,16.226
	c7.755-12.351,17.813-15.875,29.102-15.875c24.683,0,36.857,15.165,36.857,41.262v46.915h-21.517v-46.917
	c0-11.462-4.762-21.159-16.401-21.159c-11.647,0-18.874,10.057-18.874,21.515v46.559H159.697z"/>
<path fill="#CECECE" d="M249.224-117.701v-109.904h20.109l1.415,11.992c6.695-9.703,18.333-13.931,28.207-13.931
	c26.813,0,44.618,19.921,44.618,45.504c0,25.387-16.046,45.494-43.913,45.494c-9.165,0-22.75-2.824-28.912-12.343v33.188H249.224z
	 M322.061-184.04c0-13.586-9.175-24.696-24.684-24.696c-15.527,0-24.696,11.11-24.696,24.696c0,13.572,10.046,24.685,24.696,24.685
	C312.008-159.355,322.061-170.471,322.061-184.04z"/>
<path fill="#CECECE" d="M508.647-204.456c-6.146-5.736-13.179-7.647-21.446-7.647c-10.19,0-15.807,3.125-15.807,8.517
	c0,5.569,5.09,8.699,16.166,9.399c16.345,1.042,37.082,4.694,37.082,27.484c0,15.131-12.483,28.176-37.256,28.176
	c-13.711,0-27.418-2.255-40.074-15.305l10.551-15.138c6.145,6.787,20.211,11.83,29.869,12.001c8.092,0.175,15.65-4,15.65-10.261
	c0-5.911-4.937-8.347-17.227-9.042c-16.346-1.215-35.853-7.133-35.853-26.616c0-19.827,20.725-26.786,36.552-26.786
	c13.533,0,23.724,2.61,33.737,11.308L508.647-204.456z"/>
<path fill="#CECECE" d="M439.993-138.709l-0.155-88.915h-23.439l-0.033,44.05c0.014,6.265-2.063,12.088-5.832,16.383
	c-3.869,4.404-9.267,6.836-15.21,6.843c-5.131,0.015-9.437-1.419-12.782-4.252l0,0c-4.557-3.855-7.068-10.199-7.087-17.853
	l-0.048-45.171h-23.757l0.065,45.396c0.027,15.332,5.018,27.993,14.08,35.652c6.235,5.267,14.204,8.053,23.053,8.03
	c11.778-0.016,20.525-3.898,30.183-13.395l0.14-0.137L439.993-138.709z"/>
<path fill="#FF3333" d="M-98.398-177.486l-42.627-49.916h-28.328l27.837,32.816c3.723,4.389,5.719,9.696,5.626,14.954
	c-0.102,5.388-2.442,10.295-6.611,13.823c-3.595,3.053-7.46,4.604-11.498,4.604l0,0c-5.479-0.005-11.007-2.959-15.562-8.319
	l-16.406-19.351l-28.677-0.088l28.569,33.669c9.114,10.745,20.133,16.665,31.028,16.665c7.498-0.005,14.739-2.778,20.936-8.04
	c8.254-6.997,12.93-16.773,14.139-30.637l0.015-0.178h21.557V-177.486z"/>
</svg>
