<?xml version="1.0" encoding="utf-8"?>
<!-- Generator: Adobe Illustrator 16.0.0, SVG Export Plug-In . SVG Version: 6.00 Build 0)  -->
<!DOCTYPE svg PUBLIC "-//W3C//DTD SVG 1.1//EN" "http://www.w3.org/Graphics/SVG/1.1/DTD/svg11.dtd" [
	<!ENTITY ns_extend "http://ns.adobe.com/Extensibility/1.0/">
	<!ENTITY ns_ai "http://ns.adobe.com/AdobeIllustrator/10.0/">
	<!ENTITY ns_graphs "http://ns.adobe.com/Graphs/1.0/">
	<!ENTITY ns_vars "http://ns.adobe.com/Variables/1.0/">
	<!ENTITY ns_imrep "http://ns.adobe.com/ImageReplacement/1.0/">
	<!ENTITY ns_sfw "http://ns.adobe.com/SaveForWeb/1.0/">
	<!ENTITY ns_custom "http://ns.adobe.com/GenericCustomNamespace/1.0/">
	<!ENTITY ns_adobe_xpath "http://ns.adobe.com/XPath/1.0/">
]>
<svg version="1.1" id="Layer_1" xmlns:x="&ns_extend;" xmlns:i="&ns_ai;" xmlns:graph="&ns_graphs;"
	 xmlns="http://www.w3.org/2000/svg" xmlns:xlink="http://www.w3.org/1999/xlink" x="0px" y="0px" width="792px" height="249.5px"
	 viewBox="0 0 792 249.5" enable-background="new 0 0 792 249.5" xml:space="preserve">
<metadata>
	<sfw  xmlns="&ns_sfw;">
		<slices></slices>
		<sliceSourceBounds  width="739.286" height="163.123" y="211.528" x="26.733" bottomLeftOrigin="true"></sliceSourceBounds>
	</sfw>
</metadata>
<g>
	<path fill="#CECECE" d="M191.629,185.623v20.895c0,17.582-25.746,17.629-25.746,0v-20.895h2.545v20.895
		c0,14.459,20.655,14.412,20.655,0v-20.895H191.629z"/>
	<path fill="#CECECE" d="M203.674,195.518v4.229c1.826-3.267,5.139-4.612,8.454-4.662c6.339,0,10.711,3.896,10.711,10.472v13.695
		h-2.352V205.61c0-5.384-3.316-8.265-8.455-8.218c-4.899,0.05-8.311,3.746-8.311,8.645v13.211h-2.352v-23.73H203.674
		L203.674,195.518z"/>
	<path fill="#CECECE" d="M235.702,187.785c0,2.498-3.796,2.498-3.796,0C231.906,185.284,235.702,185.284,235.702,187.785z
		 M232.581,195.426v23.823h2.352v-23.823H232.581z"/>
	<path fill="#CECECE" d="M243,195.518h2.593l8.646,20.99l8.645-20.99h2.593l-9.943,23.73h-2.593L243,195.518z"/>
	<path fill="#CECECE" d="M271.619,207.381c0-7.109,5.381-12.246,12.057-12.246c6.676,0,12.634,4.082,11.722,13.354h-21.377
		c0.481,5.57,4.756,8.791,9.655,8.791c3.125,0,6.772-1.247,8.549-3.604l1.683,1.346c-2.307,3.027-6.437,4.564-10.232,4.564
		C277,219.585,271.619,214.926,271.619,207.381z M293.284,206.422c-0.048-5.861-3.891-9.125-9.609-9.125
		c-4.898,0-9.126,3.314-9.655,9.125H293.284z"/>
	<path fill="#CECECE" d="M307.298,195.518l0.096,4.229c1.489-3.222,4.853-4.468,7.878-4.468c1.779-0.053,3.507,0.434,5.092,1.394
		l-1.057,1.921c-1.248-0.766-2.641-1.104-4.035-1.104c-4.418,0.05-7.83,3.604-7.83,7.925v13.834h-2.352v-23.731H307.298
		L307.298,195.518z"/>
	<path fill="#CECECE" d="M343.796,199.842c-2.402-2.115-4.756-2.498-7.397-2.498c-3.698-0.05-7.252,1.346-7.157,4.369
		c0.098,3.17,4.229,3.797,7.206,4.324c4.226,0.723,10.04,1.441,9.8,6.964c-0.146,5.239-5.574,6.63-9.753,6.63
		c-4.179,0-8.31-1.587-10.375-4.754l1.73-1.539c1.969,2.834,5.524,4.034,8.693,4.034c2.883,0,7.255-0.769,7.399-4.521
		c0.095-3.407-3.841-4.08-7.733-4.705c-4.611-0.771-9.174-1.635-9.223-6.389c-0.046-4.658,4.611-6.68,9.414-6.628
		c3.458,0,6.485,0.959,8.839,3.171L343.796,199.842z"/>
	<path fill="#CECECE" d="M358.197,187.785c0,2.498-3.796,2.498-3.796,0C354.401,185.284,358.197,185.284,358.197,187.785z
		 M355.076,195.426v23.823h2.352v-23.823H355.076z"/>
	<path fill="#CECECE" d="M390.521,185.623v33.626h-2.306v-5.239c-1.97,3.605-5.859,5.621-9.896,5.621
		c-6.628,0-11.866-4.369-11.866-12.25c0-7.826,5.285-12.246,11.914-12.246c4.083,0,7.923,1.73,9.846,5.57v-15.082H390.521z
		 M368.76,207.381c0,6.582,4.372,9.944,9.705,9.944c5.571,0,9.705-4.085,9.705-9.993s-4.229-9.943-9.705-9.943
		C373.132,197.391,368.76,200.705,368.76,207.381z"/>
	<path fill="#CECECE" d="M423.702,195.518c0,7.928,0,15.804,0,23.73h-2.353v-5.043c-2.307,3.699-5.859,5.43-9.707,5.43
		c-6.623,0-12.056-4.994-12.056-12.25c0-7.25,5.427-12.15,12.056-12.15c3.846,0,7.733,1.777,9.707,5.476v-5.187h2.353V195.518z
		 M401.941,207.381c0,5.957,4.324,9.944,9.701,9.944c13.211,0,13.211-19.839,0-19.839
		C406.266,197.487,401.941,201.426,401.941,207.381z"/>
	<path fill="#CECECE" d="M456.45,185.623v33.626h-2.306v-5.239c-1.972,3.605-5.859,5.621-9.896,5.621
		c-6.63,0-11.867-4.369-11.867-12.25c0-7.826,5.284-12.246,11.914-12.246c4.083,0,7.922,1.73,9.846,5.57v-15.082H456.45z
		 M434.688,207.381c0,6.582,4.375,9.944,9.707,9.944c5.571,0,9.705-4.085,9.705-9.993s-4.229-9.943-9.705-9.943
		C439.063,197.391,434.688,200.705,434.688,207.381z"/>
	<path fill="#CECECE" d="M506.388,185.623v33.626h-2.307v-5.239c-1.97,3.605-5.858,5.621-9.896,5.621
		c-6.627,0-11.865-4.369-11.865-12.25c0-7.826,5.285-12.246,11.914-12.246c4.08,0,7.924,1.73,9.847,5.57v-15.082H506.388z
		 M484.63,207.381c0,6.582,4.372,9.944,9.703,9.944c5.573,0,9.706-4.085,9.706-9.993s-4.229-9.943-9.706-9.943
		C489.002,197.391,484.63,200.705,484.63,207.381z"/>
	<path fill="#CECECE" d="M515.939,207.381c0-7.109,5.379-12.246,12.056-12.246c6.676,0,12.633,4.082,11.721,13.354H518.34
		c0.48,5.57,4.758,8.791,9.655,8.791c3.123,0,6.772-1.247,8.552-3.604l1.68,1.346c-2.307,3.027-6.437,4.564-10.23,4.564
		C521.316,219.585,515.939,214.926,515.939,207.381z M537.6,206.422c-0.049-5.861-3.89-9.125-9.604-9.125
		c-4.902,0-9.128,3.314-9.655,9.125H537.6z"/>
	<path fill="#CECECE" d="M594.408,214.589c-3.361,3.362-7.829,5.042-12.25,5.042c-11.336,0-17.245-7.927-17.292-17.003
		c-0.097-8.981,5.766-17.39,17.292-17.39c4.421,0,8.889,1.681,12.25,5.045l-1.778,1.538c-2.881-2.886-6.677-4.276-10.472-4.276
		c-9.799,0-14.842,6.918-14.793,14.988c0.097,7.878,5.091,14.699,14.793,14.699c3.795,0,7.638-1.443,10.519-4.277L594.408,214.589z"
		/>
	<path fill="#CECECE" d="M605.395,185.623v14.313c1.922-3.409,5.232-4.707,8.549-4.754c6.629,0,9.941,4.276,9.941,10.473v13.595
		h-2.306v-13.595c0-4.9-2.306-8.217-7.638-8.217c-4.996,0-8.455,3.846-8.455,8.793v13.019h-2.351v-33.626H605.395z"/>
	<path fill="#CECECE" d="M636.753,187.785c0,2.498-3.796,2.498-3.796,0C632.957,185.284,636.753,185.284,636.753,187.785z
		 M633.629,195.426v23.823h2.354v-23.823H633.629z"/>
	<path fill="#CECECE" d="M648.66,185.623v33.626h-2.353v-33.626H648.66z"/>
	<path fill="#CECECE" d="M657.494,207.381c0-7.109,5.379-12.246,12.057-12.246c6.677,0,12.632,4.082,11.721,13.354h-21.375
		c0.479,5.57,4.756,8.791,9.654,8.791c3.121,0,6.772-1.247,8.551-3.604l1.682,1.346c-2.308,3.027-6.438,4.564-10.231,4.564
		C662.873,219.585,657.494,214.926,657.494,207.381z M679.156,206.422c-0.047-5.861-3.89-9.125-9.605-9.125
		c-4.898,0-9.126,3.314-9.654,9.125H679.156z"/>
</g>
<path fill="#CECECE" d="M234.015,134.268c-9.891,9.717-20.304,13.528-32.975,13.528c-24.811,0-45.466-14.915-45.466-45.279
	c0-30.379,20.655-45.298,45.466-45.298c12.147,0,21.521,3.468,30.886,12.664l-13.358,14.055c-5.029-4.507-11.28-6.763-17.179-6.763
	c-14.231,0-24.646,10.413-24.646,25.343c0,16.302,11.111,24.981,24.295,24.981c6.774,0,13.534-1.91,18.745-7.116L234.015,134.268z"
	/>
<path fill="#CECECE" d="M309.352,58.723h20.631v86.94h-20.28l-1.056-12.696c-4.938,10.231-18.516,15.172-28.217,15.34
	c-25.749,0.177-44.791-15.691-44.791-46.203c0-29.981,19.925-45.675,45.318-45.504c11.641,0,22.751,5.474,27.689,14.113
	L309.352,58.723z M257.149,102.106c0,16.579,11.464,26.453,25.744,26.453c33.866,0,33.866-52.729,0-52.729
	C268.614,75.829,257.149,85.527,257.149,102.106z"/>
<path fill="#CECECE" d="M401.574,145.762V99.205c0-11.459-6-21.869-17.81-21.869c-11.641,0-18.521,10.41-18.521,21.869v46.559
	H343.73v-87.12h19.925l1.587,10.578c4.587-8.813,14.634-11.985,22.925-11.985c10.407,0,20.813,4.226,25.75,16.226
	c7.755-12.351,17.813-15.875,29.103-15.875c24.683,0,36.856,15.165,36.856,41.262v46.916h-21.517V98.848
	c0-11.462-4.762-21.159-16.401-21.159c-11.647,0-18.874,10.057-18.874,21.515v46.56h-21.51V145.762z"/>
<path fill="#CECECE" d="M491.102,168.627V58.723h20.108l1.415,11.992c6.695-9.703,18.333-13.931,28.207-13.931
	c26.813,0,44.618,19.921,44.618,45.504c0,25.388-16.046,45.494-43.913,45.494c-9.165,0-22.75-2.824-28.912-12.343v33.188H491.102z
	 M563.938,102.288c0-13.586-9.174-24.696-24.684-24.696c-15.527,0-24.695,11.11-24.695,24.696c0,13.572,10.045,24.685,24.695,24.685
	C553.885,126.973,563.938,115.857,563.938,102.288z"/>
<path fill="#CECECE" d="M750.524,81.872c-6.146-5.736-13.18-7.647-21.446-7.647c-10.19,0-15.808,3.125-15.808,8.517
	c0,5.569,5.091,8.699,16.166,9.399c16.346,1.042,37.082,4.694,37.082,27.484c0,15.131-12.482,28.176-37.256,28.176
	c-13.711,0-27.418-2.255-40.074-15.305l10.552-15.138c6.145,6.787,20.211,11.829,29.869,12.001c8.092,0.175,15.649-4,15.649-10.261
	c0-5.911-4.937-8.347-17.227-9.042c-16.347-1.215-35.854-7.133-35.854-26.616c0-19.827,20.726-26.786,36.552-26.786
	c13.533,0,23.725,2.61,33.737,11.308L750.524,81.872z"/>
<path fill="#CECECE" d="M681.87,147.619l-0.155-88.915h-23.438l-0.033,44.05c0.014,6.265-2.063,12.088-5.832,16.383
	c-3.869,4.404-9.268,6.835-15.21,6.843c-5.131,0.015-9.438-1.419-12.782-4.252l0,0c-4.558-3.855-7.067-10.199-7.087-17.853
	l-0.048-45.171h-23.757l0.064,45.396c0.027,15.332,5.018,27.994,14.08,35.652c6.234,5.268,14.204,8.053,23.053,8.03
	c11.778-0.017,20.525-3.897,30.184-13.396l0.14-0.137L681.87,147.619z"/>
<path fill="#FF3333" d="M143.479,108.842l-42.627-49.916H72.524l27.837,32.816c3.723,4.389,5.719,9.696,5.626,14.954
	c-0.102,5.388-2.442,10.295-6.611,13.823c-3.595,3.053-7.46,4.604-11.498,4.604l0,0c-5.479-0.005-11.007-2.959-15.562-8.319
	L55.91,97.453l-28.677-0.088l28.569,33.669c9.114,10.745,20.133,16.665,31.028,16.665c7.498-0.005,14.739-2.778,20.936-8.04
	c8.254-6.997,12.93-16.773,14.139-30.637l0.015-0.178h21.557v-0.002H143.479z"/>
</svg>
