<?xml version="1.0" encoding="utf-8"?>
<!-- Generator: Adobe Illustrator 16.0.0, SVG Export Plug-In . SVG Version: 6.00 Build 0)  -->
<!DOCTYPE svg PUBLIC "-//W3C//DTD SVG 1.1//EN" "http://www.w3.org/Graphics/SVG/1.1/DTD/svg11.dtd" [
	<!ENTITY ns_extend "http://ns.adobe.com/Extensibility/1.0/">
	<!ENTITY ns_ai "http://ns.adobe.com/AdobeIllustrator/10.0/">
	<!ENTITY ns_graphs "http://ns.adobe.com/Graphs/1.0/">
	<!ENTITY ns_vars "http://ns.adobe.com/Variables/1.0/">
	<!ENTITY ns_imrep "http://ns.adobe.com/ImageReplacement/1.0/">
	<!ENTITY ns_sfw "http://ns.adobe.com/SaveForWeb/1.0/">
	<!ENTITY ns_custom "http://ns.adobe.com/GenericCustomNamespace/1.0/">
	<!ENTITY ns_adobe_xpath "http://ns.adobe.com/XPath/1.0/">
]>
<svg version="1.1" id="Layer_1" xmlns:x="&ns_extend;" xmlns:i="&ns_ai;" xmlns:graph="&ns_graphs;"
	 xmlns="http://www.w3.org/2000/svg" xmlns:xlink="http://www.w3.org/1999/xlink" x="0px" y="0px" width="612px" height="615.08px"
	 viewBox="0 0 612 615.08" enable-background="new 0 0 612 615.08" xml:space="preserve">
<metadata>
	<sfw  xmlns="&ns_sfw;">
		<slices></slices>
		<sliceSourceBounds  height="574.696" width="530.4" y="-525" x="127.811" bottomLeftOrigin="true"></sliceSourceBounds>
	</sfw>
</metadata>
<image display="none" overflow="visible" width="440" height="438" xlink:href="92AA9D4.jpg"  transform="matrix(1 0 0 1 86 177)">
</image>
<circle fill="none" stroke="#1666A7" stroke-width="9.6" stroke-miterlimit="10" cx="303.011" cy="305.504" r="260.4"/>
<circle fill="none" stroke="#1666A7" stroke-width="9.6" stroke-miterlimit="10" cx="303.011" cy="305.503" r="186.474"/>
<g>
	<path fill="#FFFFFF" d="M303.119,448.303c-2.647-2.877-7.085-4.014-11.083-3.865c0,0-45.029,0.027-47-0.006
		c-11.426-0.574-15.635-10.592-15.635-19.719l0.021-174.127h146.279c0.01,11.028,0.15,175.139,0.023,176.331
		c-0.494,8.057-5.395,15.744-13.806,17.316c-1.233,0.23-48.404,0.205-48.404,0.205C309.764,444.436,305.706,445.199,303.119,448.303
		z"/>
	<path fill="#10B057" d="M236.428,257.498h63.595v69.431c-9.786,1.058-17.613,7.916-19.034,17.587h-44.561V257.498z"/>
	<path fill="#FFCE34" d="M304.929,257.498h63.924v87.223h-45.066c-1.33-9.701-9.099-16.619-18.857-17.77V257.498z"/>
	<path fill="#EE2D29" d="M236.385,349.493h44.751c0.351,10.816,8.653,19.258,19.25,20.405v69.27c0,0-3.194-1.637-11.166-1.637
		h-34.925c-12.395,0-17.91-2.701-17.91-18.359V349.493z"/>
	<path fill="#1666A7" d="M369.043,349.493v69.679c0,17.115-5.518,18.359-17.91,18.359h-34.925c-7.972,0-10.438,2.002-10.438,2.002
		V369.86c10.446-1.283,17.858-9.658,18.205-20.367H369.043z"/>
	<path fill="#FFFFFF" d="M301.022,329.833c-0.385,0.037-1.423,0.154-2.557,0.424c-9.024,2.146-13.583,8.627-13.583,18.236
		c0,10.588,9.302,17.544,17.714,17.544c8.207,0,17.84-5.474,17.84-17.989c0-9.918-6.314-14.528-8.235-15.58
		c-1.8-0.992-3.826-2.114-5.966-1.82c-1.323,0.177-5.336,0.275-5.165,0.148c0.417-0.302,0.147-2.514-0.318-2.979l-0.697-1.006
		c3.486-1.085,8.012-0.714,11.296,0.851c6.958,3.318,12.845,10.607,12.845,20.18c0,11.604-8.823,21.761-21.376,21.761
		c-12.565,0-21.579-10.294-21.579-21.236c0-10.046,5.606-18.666,16.761-20.818l2.015-0.079c0.481,0.484,0.662,1.169,1.085,1.707
		L301.022,329.833z M302.886,332.77l14.354,24.204h-28.794L302.886,332.77z M349.66,319.33c0.389-0.02,0.787-0.033,1.08-0.026
		c4.601,0.076,6.216,2.375,5.331,6.841c-0.116,0.596-0.33,1.359-0.525,2.17l5.213,7.996c0.967,1.239-0.368,3.274-1.9,2.112
		l-1.004-1.059c-0.209,0.088-0.78,0.068-1.11,0c-2.431-0.472-4.061-3.226-4.228-5.966c-0.03-0.471-0.335-2.334-0.316-2.694
		l-4.261-5.739c-0.47,0.101-3.54,0.578-3.54,0.578c-5.627-0.178-5.017-4.046-4.809-5.704c0.125-1,0.837-3.029,1.531-4.683
		l-6.005-8.453c-0.718,0.055-7.768,1.003-10.55-2.198c-2.797-3.226-1.229-8.655,0.211-12.504c-0.824-1.243-3.494-5.104-3.646-5.177
		c-0.419-0.2-2.032,1.239-2.959-0.687c-0.841-1.752,2.062-4.789,2.062-4.789c1.818-3.034,5.128,2.37,6.692,4.947
		c1.688-4.595,2.893-10.157-2.149-12.605c-0.302-0.15-0.994-0.435-1.108-0.476c-1.569-0.029-2.647-0.028-3.962-0.951l-1.429-0.898
		c-0.686-0.581-4.438-2.114-3.223-3.521c1.693-1.962,6.351-0.974,8.249-0.342c9.89,3.296,11.918,10.111,9.188,18.876
		c-0.588,1.89-1.357,3.719-2.076,5.565l6.552,9.984c0.655,0.002,1.487,0.011,1.986,0.034c0.937,0.044,2.267,0.246,2.267,0.246
		c6.911,1.296,6.565,6.293,4.707,11.205c-0.11,0.297-0.432,0.685-0.687,1.27L349.66,319.33z M314.371,400.643l6.105-3.941v-16.712
		h3.038v-2.384c0,0,0.428,0.028,0.848,0.076c2.999,0.338,5.812-2.837,8.715-3.074c-0.403-0.759-0.855-2.128-0.855-3.068
		c0-2.788,0.958-4.283,2.909-5.977c0.622-0.456,0.809,0.712,0.522,1.38c-0.498,1.158,2.044,2.188,1.714-0.668
		c-0.162-1.392-1.458-2.199-1.998-3.376c-0.073-0.158-0.429-0.809-0.429-0.809s0.779,0.434,1.285,0.664
		c3.233,1.473,5.934,3.837,3.9,7.611c1.305,0.846,1.624,2.734,1.141,4.242c2.736,0.606,5.243,3.384,8.301,3.061
		c0.438-0.047,1.013-0.161,1.013-0.161v2.482h2.97v16.792l4.379,0.477c0.28,0.014,0.809,1.031,0.809,1.031
		c0.233,1.018,0.212,2.135,0.101,3.162c0.509,0.084,4.668,0.744,5.092,1.238c0.972,1.125,0.401,4.461-0.237,5.42
		c-0.255,0.381-14.045,17.805-14.045,17.805l-38.511-12.754v-5.383l-2.053-0.666l7.285-3.947l0.047-1.857L314.371,400.643z
		 M302.997,170.226l7.602,14.616l14.724,1.562l-11.407,11.403l2.927,15.207l-13.845-7.404l-13.748,7.404l2.341-15.499
		l-11.211-11.111l14.619-1.463L302.997,170.226z M248.143,403.221l2.81-12.583c0.256-1.134,0.501-1.708,1.367-1.79
		c0.872-0.082,1.064,0.633,1.174,1.255l2.354,12.709l-3.563-8.281L248.143,403.221z M284.908,385.363
		c5.001,4.504,5.404,12.209,0.901,17.208c-4.503,5.004-12.208,5.408-17.209,0.904c-5.003-4.506-5.405-12.209-0.902-17.21
		C272.201,381.263,279.906,380.862,284.908,385.363z M246.465,407.469l42.612-0.031v18.289c-2.494-1.049-1.661-2.295-3.648-3.264
		l-0.564-0.262c-0.178-0.08-1.834-0.471-1.834-0.752v-9.232h-32.967c-0.403,0-1.104-1.725-1.335-2.021
		C248.029,409.303,246.339,408.734,246.465,407.469z M251.476,360.105l2.542,0.262l-2.27,1.996l0.71,2.791l-2.501-1.344l-2.55,1.422
		l0.514-2.809l-2.106-2.084l2.637-0.22l1.515-2.915L251.476,360.105z M293.141,305.284c0,0-2.795,5.212-9.509,5.212
		c-6.715,0-8.008-5.212-8.008-5.212H293.141z M244.902,276.093l3.045,1.166l17.015-1.771l1.718-11.559l2.326,11.559l17.015,1.771
		l3.045-1.166l0.375,2.168h-20.145l0.752,16.388v27.022h5.463l-5.964,4.587l0.375,10.384c0,0,1.503,0.916,1.503,2.043
		c0,1.126-1.754,1.378-1.754,1.378h-2.331h-0.712h-2.333c0,0-1.753-0.252-1.753-1.378c0-1.127,1.503-2.043,1.503-2.043l0.375-10.384
		l-5.964-4.587h5.463v-27.022l0.751-16.388h-20.145L244.902,276.093z M240.441,305.284h17.516c0,0-1.291,5.212-8.006,5.212
		S240.441,305.284,240.441,305.284z"/>
	<path fill="#010101" d="M311.04,205.037l-1.842-9.019l6.791-6.216l-9.148-1.036l-3.811-8.38l-3.814,8.38l-9.146,1.036l6.791,6.216
		l-1.842,9.019l8.012-4.539L311.04,205.037z M313.305,208.238l-10.273-5.821l-10.274,5.821l2.361-11.57l-8.711-7.974l11.733-1.329
		l4.892-10.748l4.891,10.748l11.733,1.329l-8.709,7.974L313.305,208.238z M318.563,215.476l-15.646-8.864l-15.647,8.864l3.596-17.62
		l-13.267-12.141l17.87-2.025l7.448-16.368l7.449,16.368l17.868,2.025l-13.266,12.141L318.563,215.476z M315.696,211.487
		l-2.912-14.262l10.74-9.83l-14.464-1.639l-6.029-13.25l-6.029,13.25l-14.465,1.639l10.739,9.83l-2.911,14.262l12.666-7.174
		L315.696,211.487z M335.382,216.274c1.068,0.804-0.136,2.408-1.207,1.604l-9.123-6.851c0.406-0.531,0.793-1.076,1.165-1.637
		L335.382,216.274z M364.104,213.404c1.266,0.438,0.608,2.335-0.656,1.897l-34.251-11.86c0.228-0.626,0.433-1.264,0.614-1.912
		L364.104,213.404z M313.755,156.456c0.399-1.277,2.316-0.676,1.915,0.602l-3.226,10.277c-0.625-0.231-1.261-0.442-1.905-0.632
		L313.755,156.456z M333.651,169.282c1.075-0.794,2.269,0.82,1.193,1.615l-9.098,6.721c-0.384-0.549-0.788-1.084-1.209-1.603
		L333.651,169.282z M341.319,142.139c0.812-1.062,2.407,0.152,1.597,1.219l-22.046,28.916c-0.508-0.432-1.034-0.848-1.574-1.243
		L341.319,142.139z M311.175,220.798c0.641-0.205,1.271-0.431,1.891-0.677l3.412,10.218c0.423,1.27-1.48,1.905-1.906,0.636
		L311.175,220.798z M341.835,192.314c1.339,0,1.339,2.008,0,2.008h-10.971l0.002-0.475c0-0.514-0.013-1.024-0.039-1.533H341.835z
		 M318.748,217.053c0.551-0.381,1.085-0.782,1.604-1.204l21.306,28.541c0.802,1.07-0.808,2.271-1.607,1.199L318.748,217.053z
		 M363.669,171.617c1.267-0.427,1.91,1.474,0.642,1.904l-34.769,11.749c-0.202-0.641-0.429-1.271-0.675-1.89L363.669,171.617z
		 M301.938,130.183c0-1.338,2.007-1.338,2.007,0v35.421c-0.449-0.021-0.901-0.033-1.355-0.033c-0.218,0-0.435,0.003-0.651,0.008
		V130.183L301.938,130.183z M270.454,216.274l9.165-6.884c0.368,0.562,0.756,1.106,1.163,1.638l-9.123,6.851
		C270.589,218.682,269.383,217.078,270.454,216.274z M241.73,213.404l34.292-11.875c0.184,0.648,0.387,1.286,0.614,1.912
		l-34.249,11.86C241.121,215.739,240.467,213.842,241.73,213.404z M292.079,156.456l3.215,10.247
		c-0.645,0.189-1.279,0.4-1.905,0.632l-3.225-10.277C289.763,155.78,291.678,155.178,292.079,156.456z M272.182,169.282l9.116,6.734
		c-0.424,0.518-0.826,1.054-1.212,1.603l-9.095-6.722C269.914,170.102,271.105,168.488,272.182,169.282z M264.515,142.139
		l22.024,28.892c-0.541,0.396-1.066,0.811-1.576,1.243l-22.043-28.916C262.106,142.292,263.704,141.078,264.515,142.139z
		 M294.661,220.798l-3.399,10.177c-0.425,1.27-2.327,0.634-1.904-0.636l3.413-10.218
		C293.389,220.368,294.02,220.593,294.661,220.798z M263.997,192.314h11.012c-0.029,0.509-0.042,1.02-0.042,1.533l0.004,0.475
		h-10.974C262.66,194.322,262.66,192.314,263.997,192.314z M287.085,217.053l-21.303,28.536c-0.8,1.072-2.406-0.129-1.607-1.199
		l21.307-28.541C286,216.271,286.537,216.672,287.085,217.053z M242.166,171.617l34.802,11.764c-0.246,0.619-0.474,1.249-0.676,1.89
		l-34.769-11.751C240.257,173.09,240.897,171.19,242.166,171.617z M301.89,222.116c0.233,0.007,0.465,0.01,0.699,0.01
		c0.438,0,0.875-0.012,1.309-0.03v25.332h-2.008V222.116L301.89,222.116z M283.585,285.655l-6.13,18.696h6.13V285.655z
		 M275.913,304.351l7.672-22.488v-2.611h-13.977c0.271,2.844,0.512,5.634,0.679,8.071c0.683,9.99,0.344,29.804,0.263,33.882h5.278
		c0.892,0,1.148,0.825,0.416,1.33l-5.798,4.002c0.031,1.506,0.157,7.024,0.441,10.168c0.902,0.466,1.46,0.748,1.445,1.992
		c-0.02,1.626-1.505,2.212-2.833,2.101h-3.165l-2.093-0.002c0,0-0.167-0.004-0.399-0.041c-2.392-0.391-3.104-3.356-0.729-4.034
		c0.194-3.053,0.229-8.681,0.234-10.189l-5.702-3.999c-0.727-0.51-0.469-1.328,0.42-1.328h4.98
		c-0.087-4.175-0.477-24.78,0.161-33.847c0.171-2.428,0.423-5.265,0.709-8.176h-13.936v2.7l7.667,22.471h1.689
		c0,0-0.492,1.377-0.84,1.969c-2.009,3.422-5.656,5.045-9.613,5.045c-4.834,0-7.986-2.982-9.795-7.014h1.762l7.67-22.478v-2.693
		h-4.41c-1.332,0-0.39-2.896-0.296-3.366c0.475-2.391,2.943,0.328,3.549,0.773c1.104,0.183,4.883-0.369,5.879-0.501
		c3.16-0.414,6.663-0.938,8.47-1.064c0.314-0.021,2.153-0.188,2.694-0.639c0.805-7.576,1.647-14.389,1.647-14.389
		c0.122-0.986,1.328-0.984,1.448,0.001c0,0,0.836,6.819,1.628,14.471c0.563,0.438,2.366,0.603,2.677,0.623
		c4.227,0.299,8.403,1.206,12.631,1.536c0.539,0.041,1.174,0.119,1.717,0.029c0.682-0.5,1.541-1.59,2.394-1.693
		c1.462-0.173,1.446,2.522,1.581,3.454c0.066,0.462-0.255,0.834-0.723,0.834h-4.364v2.606l7.675,22.492h1.774
		c0,0-0.637,1.418-1.003,1.992c-1.938,3.036-5.057,5.02-8.792,5.02c-5.115,0-8.809-2.416-10.453-7.012h1.669V304.351z
		 M291.178,304.351l-6.133-18.703v18.703H291.178z M242.395,304.355h6.129v-18.689L242.395,304.355z M249.982,304.355h6.125
		l-6.125-18.683V304.355z M257.1,305.814h-15.607c1.68,2.477,4.27,4.093,7.395,4.093C252.225,309.907,255.306,308.639,257.1,305.814
		z M288.368,276.667c-0.662,0.533-1.401,0.893-1.715,1.124h1.906C288.505,277.456,288.438,277.054,288.368,276.667z
		 M282.619,277.792c-3.275-0.41-7.627-1.011-10.914-1.243c-1.055-0.075-1.829-0.228-2.401-0.415l0.164,1.658H282.619z
		 M268.085,278.648c-0.216-2.352-0.53-9.05-0.574-9.812c-0.046-0.759-0.142-1.237-0.142-1.237l0.146,53.605l1.577-0.001
		c0.077-4.001,0.422-23.807-0.261-33.78C268.651,284.785,268.384,281.735,268.085,278.648z M245.154,276.6
		c-0.07,0.389-0.137,0.787-0.19,1.124h1.905C246.556,277.492,245.816,277.135,245.154,276.6z M250.903,277.724h13.16l0.169-1.664
		c-0.578,0.19-1.358,0.344-2.416,0.422C258.53,276.712,254.178,277.315,250.903,277.724z M264.59,336.507h4.816
		c-0.245-2.957-0.367-7.629-0.409-9.512h-4.189C264.796,328.907,264.755,333.636,264.59,336.507z M270.191,337.967h-6.299
		c-0.217,0.098-0.462,0.167-0.702,0.314c-0.238,0.75,0.494,1.027,1.088,1.056h2.061h3.197l0.081,0.007c0,0,0.091,0.007,0.225,0.007
		c0.859-0.019,1.487-0.824,0.796-1.166C270.48,338.106,270.331,338.041,270.191,337.967z M264.47,325.537h4.854l4.161-2.871h-13.107
		L264.47,325.537z M266.056,321.205l0.148-53.578c0,0-0.063,0.576-0.152,1.482c-0.091,0.907-0.591,9.455-0.604,9.45
		c-0.315,3.163-0.597,6.273-0.782,8.901c-0.637,9.052-0.243,29.656-0.156,33.743L266.056,321.205z M276.485,305.81
		c1.797,2.825,4.875,4.094,8.214,4.094c2.922,0,5.835-1.645,7.433-4.094H276.485z M320.453,266.124
		c0.633-0.034,1.989,0.397,1.741,1.266c-0.311,1.086-2.84,0.362-2.529-0.726C319.728,266.434,319.974,266.149,320.453,266.124z
		 M355.981,330.016c-0.103,0.836-0.074,1.609,0.217,2.169c0.641,1.225,1.285,2.445,1.947,3.655l1.319,1.945
		c0,0,0.486,0.32,0.907,0.132c0.423-0.19,0.365-0.787,0.365-0.787L355.981,330.016z M354.133,324.57l-0.002,0.109
		c-0.019,1.187-0.347,2.511-0.514,3.49c-0.03,0.311-0.065,0.672-0.097,1.032c-0.091,1.664,0.024,3.133,0.88,4.733
		c0.937,1.751,1.871,2.379,2.457,2.609l-0.239-0.449c-0.855-1.417-1.701-2.758-2.017-4.27c-0.137-0.517-0.171-0.971-0.126-1.477
		c0.007-0.129,0.015-0.26,0.029-0.392c0.032-0.312,0.08-0.595,0.125-0.86c0.084-0.494,0.608-2.374,0.688-2.661
		c0.061-0.264,0.121-0.541,0.182-0.838c0.795-3.744-0.372-5.167-4.139-5.263l1.009,1.543
		C353.752,322.165,354.134,323.275,354.133,324.57z M321.479,283.995c1.072,0.506,2.952,3.545,3.602,4.518l1.359-3.578
		c-0.752-1.183-3.112-5.25-4.665-5.715c-0.111,0.011-0.227,0.081-0.249,0.091c-0.141,0.156-0.235,0.368-0.359,0.539
		c-0.406,0.566-2.49,2.868-2.046,3.79C319.543,284.522,320.421,283.492,321.479,283.995z M331.906,300.776
		c-3.517-0.256-4.86-3.415-3.901-6.643l0.818-2.321c0.377-1.076,0.812-2.152,1.26-3.234l0.17-0.436
		c1.472-3.523,2.989-7.121,2.879-10.949c-0.122-4.219-2.475-8.313-9.481-10.669c-1.245-0.418-6.473-1.501-7.752-0.14
		c0.316,0.659,3.347,2.519,4.148,3.079c1.133,0.792,2.487,0.901,3.838,0.914c0,0,0.474,0.149,1.02,0.416
		c8.079,3.933,3.77,12.084,1.625,18.146c0,0-1.714,4.603-2.099,5.771c-2.099,6.346,1.633,9.177,7.572,9.392
		c0.908,0.032,1.643,0.035,2.197,0.025l-1.808-2.661L331.906,300.776z M345.729,320.599c-1.609-0.203-2.494-1.604-2.326-3.203
		c0.377-3.598,2.785-6.557,3.247-10.144c0.295-2.29-0.289-5.115-4.932-6.009c-1-0.155-2-0.249-3.012-0.278l2.126,3.222
		c4.021,0.994,3.457,4.513,2.179,7.501c-1.534,3.272-5.654,10.669,1.481,10.978c0.849-0.045,1.699-0.107,2.539-0.244
		L345.729,320.599z M341.375,311.747l0.299-0.644c0.269-0.633,0.513-1.275,0.67-1.898l-4.912-7.478l-1.504-2.262l-5.341-8.157
		l-0.339,0.887l-0.228,0.605l-0.626,1.783l-0.019,0.072l3.266,4.651l1.497,2.133L341.375,311.747z M347.961,323.722
		c-0.45,0.089-0.905,0.175-1.223,0.216c-0.874,0.117-2.24,0.185-2.24,0.185c-5.829-0.23-5.669-4.623-5.438-6.295
		c0.139-1.007,0.909-2.918,1.627-4.555l-5.445-7.752c-0.915,0.047-2.108,0.079-3.291,0.039c-2.35-0.084-5.679-0.449-7.998-3.027
		c-2.907-3.225-0.993-8.451,0.513-12.304c-0.862-1.295-2.078-3.105-2.71-3.948c-0.53-0.711-0.776-0.91-0.898-0.968
		c-0.35-0.167-2.087,0.966-3.052-1.04c-0.938-1.958,1.457-4.109,2.36-5.553c1.905-3.055,5.262,1.729,6.943,4.453
		c1.496-4.509,2.091-9.274-3.47-11.342c-4.167-0.118-3.902-1.262-6.872-2.825c-1.254-0.663-1.973-1.334-2.252-1.958
		c-0.166-0.052-0.314-0.111-0.42-0.145c-1.189-0.391-1.984-0.865-2.932-1.66c-0.272-0.229-0.244-0.427-0.11-0.638
		c0.154-0.239,0.457-0.463,0.782-0.224c1.285,0.927,1.526,1.058,3.012,1.057c1.271-1.255,4.99-1.735,9.269-0.299
		c9.983,3.357,12.15,10.161,9.244,19.032c-0.607,1.853-1.392,3.644-2.13,5.449l6.504,9.865c0.741,0.014,1.521,0.03,1.936,0.054
		c0.956,0.053,2.311,0.265,2.311,0.265c7.042,1.358,6.973,6.63,4.986,11.648c-0.116,0.293-0.335,0.75-0.59,1.301l4.033,6.141
		c0.395-0.014,0.777-0.022,1.05-0.018c4.677,0.12,6.441,2.43,5.472,7.023c-0.121,0.564-0.338,1.304-0.537,2.092l5.537,8.325
		c1.023,1.311-0.848,4.359-3.461,2.485l-0.504-0.721c-1.735,0.712-4.184-2.212-4.854-3.463c-0.966-1.809-1.12-3.357-1.056-5.168
		L347.961,323.722z M346.592,319.135l0.304,0.437l5.372,7.621l0.069-0.404c0.063-0.426,0.123-0.822,0.155-1.002l0.063-0.343
		c0.021-0.134,0.035-0.241,0.042-0.306l0.023-0.211l-6.944-10.575l-0.036,0.082c-0.292,0.724-0.554,1.479-0.693,2.168l-0.031,0.164
		L346.592,319.135z M339.446,385.262c3.809-0.99,5.49,1.461,8.973,1.657c0.972,0.053,0.891,1.509-0.082,1.455
		c-3.438-0.193-5.453-2.497-8.523-1.698C338.872,386.919,338.504,385.507,339.446,385.262z M339.501,379.825
		c4.079-0.95,5.375,1.538,8.925,1.729c0.973,0.05,0.896,1.508-0.076,1.454c-3.413-0.18-5.24-2.524-8.517-1.76
		C338.886,381.467,338.553,380.046,339.501,379.825z M339.477,390.632c3.987-1.107,5.463,1.579,8.89,1.651
		c0.974,0.021,0.941,1.48-0.033,1.461c-3.24-0.072-5.375-2.564-8.468-1.705C338.929,392.301,338.538,390.892,339.477,390.632z
		 M334.634,392.039c-3.089-0.859-5.227,1.633-8.468,1.705c-0.973,0.02-1.002-1.439-0.029-1.461c3.425-0.072,4.902-2.758,8.89-1.651
		C335.964,390.892,335.573,392.301,334.634,392.039z M334.687,386.675c-2.506-0.652-3.651,0.444-5.793,1.17
		c-0.77,0.26-1.651,0.47-2.729,0.529c-0.972,0.054-1.056-1.402-0.083-1.458c3.482-0.195,5.164-2.647,8.972-1.657
		C335.997,385.507,335.628,386.919,334.687,386.675z M334.668,381.248c-3.276-0.765-5.1,1.578-8.516,1.76
		c-0.972,0.054-1.05-1.404-0.076-1.454c3.548-0.19,4.845-2.679,8.925-1.729C335.949,380.046,335.616,381.467,334.668,381.248z
		 M346.415,408.459l-29.227-6.395v3.688l29.227,7.666V408.459z M337.94,375.966v21.233c1.885-0.566,3.897-0.895,5.848-0.895
		c2.11,0,4.242,0.379,6.273,0.928v-18.874c-4.135,0.437-6.161-3.181-9.048-3.181C339.917,375.178,338.893,375.482,337.94,375.966z
		 M336.481,397.146v-21.19c-0.204-0.108-0.421-0.217-0.621-0.297c-0.614-0.244-1.451-0.481-2.378-0.481
		c-2.884,0-5.151,3.634-9.071,3.19l-0.012,18.694c1.776-0.664,3.754-0.863,5.633-0.863
		C332.067,396.199,334.448,396.475,336.481,397.146z M336.401,374.305c0.335,0.135,0.609,0.269,0.813,0.376
		c0.84-0.432,1.76-0.743,2.702-0.881c0.199-0.043,0.399-0.068,0.603-0.068c0.192-0.471,0.237-1.027,0.038-1.658
		c-0.727,1.447-2.76,0.453-1.703-1.344c0.622-1.06,1.16-1.681,1.047-3.059c-0.109-1.35-1.261-2.302-2.358-2.896
		c0,0,0.452,1.001,0.545,1.62c0.545,3.603-3.586,2.829-2.783,0.802c-0.873,0.83-2.056,1.977-2.056,4.313
		c0,0.833,0.24,1.599,0.667,2.226l0.253,0.02C335.05,373.841,335.82,374.074,336.401,374.305z M358.192,401.5
		c0.071-0.57,0.157-1.326,0.143-1.643c-0.015-0.412-0.023-0.832-0.08-1.242l-10.379,9.641v4.322
		c2.881-2.957,9.783-10.047,10.008-10.322c0.181-0.219,0.295-0.727,0.301-0.756H358.192L358.192,401.5z M350.712,423.977
		c3.479-4.449,12.49-15.979,12.695-16.285c0.436-0.66,0.502-2.637,0.316-3.879l-13.012,15.133V423.977L350.712,423.977z
		 M311.987,408.775v3.146v0.965l37.268,12.273v-5.932L311.987,408.775z M312.723,406.129l-1.599,0.883l0.236,0.07l38.372,10.766
		l12.788-14.873c-0.941-0.164-2.183-0.375-3.109-0.533c-0.799,1.596-5.947,6.488-6.205,6.75c-2.784,2.865-5.829,5.986-5.829,5.986
		l-31.109-8.16L312.723,406.129z M319.794,398.297l-3.43,2.094l30.62,6.699l7.429-6.898c-0.939-0.166-6.938-1.217-9.755-1.4
		c-2.697-0.182-6.48,0.076-7.289,0.135l-0.129,0.047l-0.065-0.018l-0.153-0.033c-0.87-0.055-4.516-0.277-7.12-0.131
		c-2.986,0.162-10.106,1.42-10.106,1.42L319.794,398.297L319.794,398.297z M356.765,398.006l-2.228-0.234v2.305L356.765,398.006z
		 M351.522,398.096c0.521,0.094,1.037,0.188,1.548,0.277v-2.223l0.008-15.52h-1.556V398.096L351.522,398.096z M321.254,395.693
		l0.067-0.041l-0.012,2.744c0.424-0.07,0.983-0.162,1.631-0.262V380.63h-1.688L321.254,395.693L321.254,395.693z M312.479,401.053
		l7.314-4.469V379.17h3.146v-2.741c0,0,1.229,0.444,1.632,0.489c2.923,0.329,5.04-2.386,7.744-3.054
		c-0.345-0.718-0.536-1.528-0.536-2.394c0-2.79,1.371-4.572,3.322-6.267c0.623-0.456,1.027-0.602,1.023-0.614
		c0.02-0.009,0.042-0.026,0.042-0.026c-0.008-0.012-0.015-0.02-0.024-0.03c-0.416-0.533-0.883-1.03-1.16-1.638
		c-0.074-0.156-0.374-1.264-0.374-1.264s1.304,0.479,1.811,0.711c3.232,1.473,6.285,3.889,4.252,7.662
		c1.243,0.807,1.702,2.371,1.332,3.819c2.781,0.587,4.815,3.41,7.873,3.087c0.422-0.047,1.644-0.465,1.644-0.465v2.724h3.016v17.134
		l3.487,0.365c1.342,0.141,1.553,0.654,1.691,1.918c0.089,0.818,0.096,1.605,0.011,2.426c1.269,0.215,3.898,0.662,4.391,0.762
		c1.791,0.357,1.098,5.832,0.504,6.725c-0.254,0.383-14.426,18.506-14.426,18.506l-42.599-14.029l2.935-1.857v-2.76l-3.151-0.947
		l8.349-4.607v-1.033L312.479,401.053z M303.839,326.812c1.305-0.02,1.33,1.502,0.025,1.522
		C302.56,328.353,302.533,326.833,303.839,326.812z M302.774,346.86c1.061,0,1.922,0.856,1.922,1.921
		c0,1.059-0.862,1.918-1.922,1.918c-1.061,0-1.923-0.859-1.923-1.918C300.852,347.716,301.714,346.86,302.774,346.86z
		 M259.598,391.082l-7.579-19.988c0.48-0.112,0.945-0.262,1.392-0.446l7.551,19.916C261.308,391.475,259.941,391.99,259.598,391.082
		z M247.335,407.914c0.029,1.078,1.53,1.607,2.171,2.426c0.177,0.225,0.894,1.359,1.186,1.359h32.821l0.009,8.936
		c0.367,0.594,2.574,0.865,2.999,2.23c0.25,0.811,1.129,1.357,1.853,1.689v-16.67L247.335,407.914z M256.385,406.447l-0.394-1.895
		l-1.601-2.018l-2.098-5.578l-2.465,6.041l-1.56,1.51l-0.462,1.947L256.385,406.447z M249.011,401.139l3.339-8.182l2.941,7.824
		l-1.908-9.798c-0.188-1.081-0.582-1.313-0.995-1.278c-0.68,0.065-0.885,0.481-1.12,1.52L249.011,401.139z M285.464,384.901
		c5.298,4.77,5.726,12.935,0.955,18.232c-1.335,1.482-2.936,2.584-4.665,3.297l8.078-0.008v20.115c0,0-1.107-0.283-1.408-0.389
		c-3.382-1.207-2.244-2.488-4.031-3.359c-0.927-0.449-2.339-0.91-2.339-2.174v-7.459h-31.362c-1.59,0-1.786-1.742-2.704-2.291
		c-1.719-1.033-2.692-2.518-1.72-4.252l3.578-15.709c0.215-0.952,0.597-2.481,2.405-2.65c1.64-0.154,2.35,1.218,2.568,2.473
		l3.062,15.721l14.031-0.01c-1.33-0.549-2.594-1.33-3.725-2.348c-5.299-4.771-5.727-12.934-0.956-18.235
		C272.003,380.558,280.165,380.129,285.464,384.901z M277.985,403.164c-2.273,1.199-4.441,1.59-6.074,1.676
		c2.507,1.195,5.344,1.412,7.961,0.695c-0.318-0.432-0.861-1.141-1.581-2.008L277.985,403.164z M285.275,395.668
		c-0.567,1.045-1.303,2.15-2.249,3.303c-1.206,1.469-2.476,2.582-3.738,3.418c0.711,0.855,1.389,1.736,2.027,2.643
		c1.488-0.633,2.865-1.594,4.02-2.875c1.296-1.439,2.159-3.117,2.598-4.871c-0.424-0.238-1.35-0.771-2.546-1.543L285.275,395.668z
		 M287.018,389.269c0.014,1.36-0.237,3.096-1.112,5.11c0.752,0.486,1.52,0.951,2.3,1.389
		C288.451,393.553,288.05,391.283,287.018,389.269z M276.118,385.774c1.753-0.927,3.672-1.577,5.598-1.638
		c-2.38-1.123-5.054-1.376-7.555-0.778c0.325,0.429,0.792,1.027,1.377,1.731C275.729,385.318,275.923,385.546,276.118,385.774z
		 M268.627,392.996c0.944-1.82,2.277-3.466,3.969-4.854c0.678-0.557,1.42-1.102,2.209-1.602c-0.746-0.879-1.457-1.789-2.127-2.725
		c-1.619,0.629-3.119,1.636-4.36,3.016c-1.195,1.328-2.022,2.856-2.488,4.465c0.387,0.213,1.349,0.764,2.613,1.578L268.627,392.996z
		 M266.972,400.332c-0.062-2.104,0.3-4.141,1.053-6.023c-0.822-0.539-1.662-1.049-2.522-1.527
		C265.115,395.363,265.612,398.041,266.972,400.332z M273.854,398.857l-4.053,4.461c0.183,0.021,0.418,0.049,0.7,0.063
		c2.313,0.133,4.511-0.365,6.487-1.357C275.996,400.926,274.949,399.865,273.854,398.857z M280.184,391.891l-5.342,5.883
		c1.221,1.102,2.384,2.268,3.477,3.492c1.328-0.855,2.534-1.945,3.578-3.221c0.686-0.834,1.45-1.961,2.109-3.227
		C282.69,393.906,281.412,392.93,280.184,391.891z M285.055,386.531l-3.892,4.285c1.108,0.952,2.263,1.854,3.459,2.694
		c0.966-2.289,1.431-4.827,0.45-6.822l0.089-0.044L285.055,386.531z M280.07,389.846l3.673-4.043
		c-2.204-0.559-4.539,0.045-6.624,1.096C278.059,387.921,279.042,388.907,280.07,389.846z M273.743,396.809l5.34-5.877
		c-1.154-1.037-2.26-2.134-3.304-3.282c-0.818,0.509-1.582,1.065-2.258,1.62c-1.475,1.213-2.735,2.801-3.638,4.575
		C271.214,394.766,272.503,395.756,273.743,396.809z M268.604,402.465l0.067-0.029l4.093-4.549
		c-1.113-0.963-2.273-1.873-3.475-2.723c-0.905,2.316-1.203,4.852-0.627,7.236l-0.068,0.055L268.604,402.465z M252.323,359.089
		l4.608,0.479l-3.724,3.272l1.186,4.668l-4.281-2.303l-4.133,2.308l0.848-4.625l-3.459-3.419l4.528-0.38l2.21-4.253L252.323,359.089
		z M251.391,360.462l-1.281-2.464l-1.289,2.479l-2.173,0.181l1.754,1.735l-0.428,2.337l2.126-1.188l2.063,1.109l-0.588-2.314
		l1.888-1.66L251.391,360.462z M257.504,367.351l9.348,7.471c0.76,0.608-0.15,1.748-0.91,1.141l-9.358-7.48
		C256.919,368.13,257.228,367.753,257.504,367.351z M258.93,381.148l-5.237-10.62c0.448-0.2,0.876-0.435,1.28-0.702l5.267,10.679
		C260.67,381.377,259.36,382.021,258.93,381.148z M265.57,382.271l-10.357-12.606c0.399-0.282,0.775-0.595,1.124-0.933
		l10.359,12.613C267.314,382.095,266.188,383.021,265.57,382.271z M276.115,378.506l-18.395-11.483
		c0.26-0.411,0.485-0.845,0.679-1.296l18.487,11.538C277.712,377.781,276.94,379.019,276.115,378.506z M298.657,331.151
		c-0.861,0.211-1.682,0.471-2.458,0.773c-6.162,2.504-10.3,8.722-10.3,16.589c0,2.781,0.733,5.33,1.961,7.557l14.562-24.158
		c-0.59-0.028-1.179-0.166-1.775-0.492c-0.252-0.139-0.456-0.319-0.643-0.516C299.548,330.968,299.098,331.051,298.657,331.151z
		 M299.365,326.153l0.02-68.112h-61.948v85.515h43.408c1.585-9.32,7.962-14.602,17.563-16.979
		C298.724,326.423,299.043,326.283,299.365,326.153z M324.919,343.555h43.432v-85.515h-61.889v67.183
		c1.797,0.211,3.608,0.754,5.401,1.605C318.144,329.817,323.482,335.61,324.919,343.555z M252.555,436.527h0.063h38.557
		c2.825,0,5.251,0.258,7.892,1.324l0.319,0.131v-67.597c-10.591-1.576-17.834-10.084-18.815-19.753h-43.133v67.846l-0.002,4.232
		c0,10.248,4.611,13.816,11.048,13.816H252.555z M369.905,418.697l-0.001,4.014c0,10.945-5.151,15.369-12.599,15.369h-1.904h-5.309
		h-35.751c-3.868,0-6.111,0.383-9.434,2.227v-69.738c-0.641,0.052-1.292,0.077-1.956,0.077c-0.682,0-1.355-0.029-2.017-0.082
		l0.001,69.708c0,0-1.285-0.686-1.952-0.955c-2.496-1.008-5.142-1.238-7.812-1.238h-38.557c-0.519,0-1.036,0.006-1.553,0h-2.581
		c-7.445,0-12.6-4.424-12.6-15.369v-4.199v-69.429h44.586c-0.009-0.231-0.013-0.462-0.013-0.695c0-1.14,0.059-2.233,0.171-3.278
		h-44.744v-88.62h65.056l-0.002,69.142c1.307-0.357,2.634-0.525,3.975-0.508v-68.634h64.994v88.62h-44.756
		c0.098,0.894,0.149,1.813,0.149,2.756c0,0.412-0.009,0.821-0.028,1.227h44.635V418.697L369.905,418.697z M355.727,436.527h1.577
		c6.438,0,11.049-3.568,11.049-13.816v-3.801l-0.001-0.207l-0.003-68.059h-43.204c-1.12,9.955-8.219,18.232-18.683,19.753v67.591
		c2.712-1.193,5.247-1.461,8.182-1.461h40.758H355.727z M295.242,346.649c2.361-1.223,5.007-1.934,7.669-1.934
		c2.634,0,5.268,0.708,7.623,1.91l-7.641-12.673L295.242,346.649z M312.749,350.3l-2.608,1.279
		c-1.947,1.726-4.774,2.816-7.354,2.816c-2.463,0-5.158-0.963-6.948-2.703l-2.796-1.395l-3.492,5.793h26.689L312.749,350.3z
		 M317.966,356.125c1.14-2.252,1.816-4.935,1.816-8.06c0-7.58-4.051-13.463-10.645-16.163c-2.205-0.899-4.033-0.194-5.787-0.02
		L317.966,356.125z M288.782,357.552c3.29,4.723,8.872,7.645,13.95,7.645c5.17,0,11.087-2.491,14.417-7.645H288.782z
		 M300.938,327.104l0.43,0.443l0.101,0.104l0.117,0.126c0.305,0.323,0.63,0.657,0.782,1.032c0.05,0.086,0.1,0.174,0.145,0.261
		c0,0-0.049,0.409-0.154,0.646c-0.064,0.142-0.143,0.275-0.233,0.399c-0.061,0.083-0.128,0.164-0.198,0.24
		c1.312,0.288,3.333-0.271,4.359-0.411c2.197-0.3,4.594,1.131,6.442,2.143c1.95,1.068,8.516,5.986,8.516,15.979
		c0,12.618-10.229,18.589-18.512,18.589c-8.494,0-18.291-7.459-18.291-18.142c0-9.077,4.157-13.922,8.366-16.461
		c3.548-2.143,7.089-2.621,8.078-2.719l0.018-0.102c-0.406-0.513-0.871-0.976-1.335-1.439l-1.146,0.22
		c-11.112,2.143-16.505,10.378-16.505,20.371c0,10.881,8.519,20.802,21.039,20.802c12.504,0,20.884-9.779,20.884-21.324
		c0-9.519-5.664-16.415-12.604-19.715C308.062,326.638,304.331,326.115,300.938,327.104z M298.368,351.759
		c-0.525-0.826-0.828-1.806-0.828-2.857c0-0.633,0.111-1.24,0.314-1.806c-1.327,0.481-2.589,1.136-3.735,1.923l-0.153,0.107
		l2.744,1.369c0,0,0.222,0.234,0.469,0.438C297.55,351.244,297.95,351.519,298.368,351.759z M307.949,347.09
		c0.204,0.566,0.314,1.176,0.314,1.812c0,1.01-0.281,1.953-0.767,2.758c0.673-0.369,1.289-0.807,1.812-1.3l2.556-1.237l-0.118-0.081
		C310.581,348.242,309.297,347.578,307.949,347.09z M299.776,346.57c-0.487,0.65-0.776,1.456-0.776,2.332
		c0,2.146,1.746,3.891,3.903,3.891c2.154,0,3.9-1.744,3.9-3.891c0-0.887-0.303-1.679-0.802-2.334
		c-1.003-0.232-2.052-0.355-3.08-0.355C301.868,346.212,300.806,346.333,299.776,346.57z M303.04,449.729
		c-0.366-0.451-3.627-4.564-10.873-4.295c0,0-45.947,0.029-47.958-0.006c-15.063-0.76-15.703-17.967-15.703-21.441l0.021-175.04
		h148.723c0,0,0.156,176.077,0.023,177.336c-1.16,18.904-15.963,19.15-15.963,19.15h-46.952
		C305.615,445.434,303.405,449.277,303.04,449.729z M303.016,446.553c2.587-3.104,7.374-3.863,11.128-3.863h46.049
		c0,0,0.822,0.023,2.056-0.209c8.412-1.572,11.787-9.258,12.282-17.314c0.127-1.193-0.015-162.257-0.024-173.286H231.274
		l-0.021,171.081c0,9.129,2.687,19.145,14.111,19.721c1.971,0.033,25.894,0.018,41.149,0.01l5.851-0.006
		C296.363,442.537,300.37,443.676,303.016,446.553z"/>
</g>
<g>
	<circle fill="none" cx="302.711" cy="301.904" r="204"/>
	<path fill="#1666A7" stroke="#1666A7" stroke-width="1.2" stroke-miterlimit="10" d="M159.151,154.336
		c-0.024,2.231-1.078,4.433-3.161,6.604c-2.129,2.22-4.318,3.448-6.567,3.684c-2.249,0.236-4.523-0.749-6.824-2.956l-11.002-10.552
		l2.198-2.292l11.003,10.553c1.544,1.481,3.107,2.193,4.691,2.137c1.583-0.057,3.115-0.857,4.596-2.401
		c1.403-1.464,2.074-2.959,2.011-4.487c-0.064-1.528-0.867-3.032-2.412-4.513l-11.002-10.553l2.198-2.292l11.003,10.553
		C158.085,149.933,159.175,152.106,159.151,154.336z"/>
	<path fill="#1666A7" stroke="#1666A7" stroke-width="1.2" stroke-miterlimit="10" d="M152.456,130.478l22.04,6.854l0.051-0.042
		l-12.371-14.888l2.314-1.923l15.255,18.36l-2.674,2.222l-21.834-6.764l-0.051,0.042l12.243,14.734l-2.314,1.923l-15.256-18.36
		L152.456,130.478z"/>
	<path fill="#1666A7" stroke="#1666A7" stroke-width="1.2" stroke-miterlimit="10" d="M172.306,115.008l13.811,19.47l-2.591,1.837
		l-13.81-19.47L172.306,115.008z"/>
	<path fill="#1666A7" stroke="#1666A7" stroke-width="1.2" stroke-miterlimit="10" d="M194.818,128.73l-19.619-15.98l2.909-1.78
		l16.62,14.091l0.057-0.035l-4.929-21.246l2.823-1.728l5.218,24.793L194.818,128.73z"/>
	<path fill="#1666A7" stroke="#1666A7" stroke-width="1.2" stroke-miterlimit="10" d="M211.07,93.027l1.171,2.405l-11.964,5.824
		l3.321,6.823l11.152-5.429l1.171,2.405l-11.152,5.429l3.614,7.425l12.054-5.868l1.17,2.405l-14.91,7.258l-10.448-21.463
		L211.07,93.027z"/>
	<path fill="#1666A7" stroke="#1666A7" stroke-width="1.2" stroke-miterlimit="10" d="M226.688,87.018
		c2.135-0.781,3.996-0.868,5.582-0.262c1.586,0.607,2.713,1.82,3.379,3.641c0.498,1.361,0.625,2.667,0.383,3.918
		c-0.243,1.251-0.976,2.314-2.198,3.189l0.023,0.063c0.695-0.111,1.3-0.095,1.815,0.048c0.516,0.144,0.968,0.375,1.358,0.696
		c0.39,0.32,0.734,0.71,1.034,1.17c0.298,0.46,0.579,0.951,0.841,1.473c0.241,0.529,0.475,1.072,0.703,1.629
		c0.228,0.558,0.483,1.093,0.766,1.607c0.283,0.514,0.593,0.988,0.93,1.422c0.337,0.435,0.731,0.783,1.183,1.045l-3.329,1.217
		c-0.293-0.154-0.55-0.416-0.768-0.787c-0.219-0.371-0.429-0.798-0.629-1.283c-0.201-0.484-0.416-1.005-0.643-1.563
		c-0.228-0.558-0.494-1.089-0.797-1.595c-0.283-0.514-0.577-0.994-0.882-1.439c-0.305-0.446-0.662-0.802-1.067-1.069
		c-0.406-0.267-0.869-0.43-1.389-0.489c-0.52-0.059-1.146,0.045-1.879,0.313l-7.285,2.664l3.502,9.577l-2.983,1.091l-8.199-22.419
		L226.688,87.018z M231.037,96.961c0.59-0.334,1.065-0.739,1.425-1.215c0.36-0.475,0.587-1.021,0.683-1.638
		c0.095-0.616-0.007-1.333-0.306-2.149c-0.413-1.13-1.064-1.937-1.952-2.418s-2.034-0.467-3.436,0.046l-7.41,2.71l2.859,7.818
		l6.217-2.273C229.807,97.589,230.447,97.295,231.037,96.961z"/>
	<path fill="#1666A7" stroke="#1666A7" stroke-width="1.2" stroke-miterlimit="10" d="M251.684,83.088
		c-1.214-0.489-2.621-0.534-4.221-0.134c-0.648,0.163-1.271,0.387-1.865,0.673c-0.595,0.287-1.097,0.642-1.508,1.066
		c-0.411,0.424-0.699,0.927-0.863,1.508c-0.165,0.582-0.153,1.25,0.036,2.007c0.179,0.713,0.534,1.239,1.066,1.577
		c0.533,0.338,1.185,0.56,1.958,0.665c0.772,0.105,1.625,0.14,2.558,0.101c0.933-0.038,1.885-0.063,2.858-0.077
		c0.973-0.013,1.939,0.015,2.899,0.085c0.959,0.07,1.853,0.266,2.68,0.587c0.827,0.322,1.546,0.809,2.157,1.459
		c0.611,0.652,1.06,1.55,1.346,2.696c0.308,1.232,0.296,2.355-0.036,3.369s-0.863,1.904-1.589,2.672
		c-0.727,0.768-1.595,1.41-2.603,1.926c-1.008,0.516-2.042,0.907-3.102,1.172c-1.297,0.324-2.565,0.469-3.803,0.434
		c-1.238-0.035-2.377-0.272-3.417-0.713c-1.041-0.44-1.944-1.11-2.708-2.011c-0.765-0.899-1.323-2.052-1.674-3.458l2.919-0.73
		c0.243,0.973,0.642,1.764,1.196,2.372c0.554,0.608,1.196,1.063,1.926,1.362c0.729,0.3,1.532,0.456,2.408,0.466
		c0.875,0.011,1.746-0.092,2.611-0.309c0.692-0.173,1.373-0.412,2.043-0.717c0.67-0.306,1.247-0.685,1.731-1.14
		c0.484-0.454,0.831-0.994,1.042-1.622c0.21-0.626,0.211-1.362,0-2.206c-0.2-0.8-0.573-1.396-1.119-1.788
		c-0.546-0.392-1.21-0.656-1.991-0.794c-0.781-0.137-1.64-0.193-2.575-0.166s-1.888,0.053-2.858,0.077
		c-0.971,0.024-1.933,0.013-2.887-0.037c-0.955-0.048-1.838-0.207-2.651-0.474c-0.814-0.267-1.519-0.7-2.117-1.297
		c-0.597-0.597-1.028-1.425-1.293-2.485c-0.292-1.167-0.307-2.237-0.044-3.211c0.262-0.973,0.718-1.833,1.37-2.583
		c0.651-0.749,1.446-1.384,2.384-1.906c0.938-0.521,1.937-0.915,2.996-1.18c1.189-0.297,2.327-0.432,3.414-0.406
		c1.086,0.027,2.089,0.248,3.008,0.661c0.919,0.414,1.715,1.024,2.388,1.832c0.673,0.809,1.19,1.845,1.553,3.11l-2.919,0.73
		C253.798,84.633,252.897,83.578,251.684,83.088z"/>
	<path fill="#1666A7" stroke="#1666A7" stroke-width="1.2" stroke-miterlimit="10" d="M264.625,77.201l4.128,23.511l-3.128,0.549
		l-4.128-23.511L264.625,77.201z"/>
	<path fill="#1666A7" stroke="#1666A7" stroke-width="1.2" stroke-miterlimit="10" d="M279.105,75.242
		c3.66-0.362,6.568,0.292,8.727,1.96c2.158,1.668,3.425,4.41,3.802,8.225c0.197,1.996,0.15,3.787-0.141,5.373
		c-0.292,1.585-0.851,2.951-1.679,4.096c-0.827,1.146-1.935,2.067-3.321,2.764c-1.388,0.697-3.068,1.143-5.042,1.338l-8.151,0.805
		l-2.346-23.755L279.105,75.242z M281.455,96.309c0.354-0.035,0.796-0.106,1.323-0.214s1.079-0.297,1.657-0.567
		c0.578-0.27,1.141-0.633,1.69-1.091c0.548-0.457,1.021-1.053,1.419-1.786c0.398-0.733,0.696-1.631,0.894-2.692
		c0.197-1.061,0.224-2.324,0.079-3.788c-0.14-1.419-0.404-2.675-0.792-3.768c-0.388-1.092-0.937-2.001-1.646-2.727
		c-0.71-0.725-1.584-1.243-2.623-1.555c-1.039-0.312-2.29-0.396-3.754-0.251l-5.323,0.526l1.82,18.432L281.455,96.309z"/>
	<path fill="#1666A7" stroke="#1666A7" stroke-width="1.2" stroke-miterlimit="10" d="M306.188,74.07l8.939,24.019l-3.51-0.057
		l-2.49-7.229l-10.096-0.164l-2.791,7.144l-3.243-0.053l9.68-23.717L306.188,74.07z M308.169,88.112l-3.798-11.196l-0.067-0.001
		l-4.225,11.066L308.169,88.112z"/>
	<path fill="#1666A7" stroke="#1666A7" stroke-width="1.2" stroke-miterlimit="10" d="M327.393,75.355
		c3.654,0.41,6.362,1.656,8.126,3.737c1.763,2.082,2.43,5.027,2.003,8.837c-0.224,1.994-0.644,3.735-1.259,5.225
		c-0.616,1.49-1.447,2.709-2.495,3.656c-1.049,0.948-2.324,1.618-3.825,2.01c-1.503,0.393-3.239,0.478-5.21,0.257l-8.14-0.913
		l2.659-23.722L327.393,75.355z M325.296,96.45c0.354,0.04,0.801,0.062,1.339,0.066c0.537,0.004,1.117-0.065,1.739-0.208
		c0.621-0.144,1.248-0.382,1.88-0.715c0.631-0.333,1.218-0.816,1.761-1.451c0.542-0.634,1.021-1.45,1.435-2.446
		c0.414-0.997,0.704-2.226,0.867-3.688c0.159-1.417,0.163-2.701,0.012-3.851c-0.152-1.149-0.499-2.152-1.042-3.01
		c-0.543-0.857-1.29-1.546-2.24-2.068c-0.951-0.521-2.157-0.864-3.619-1.028l-5.316-0.596l-2.063,18.406L325.296,96.45z"/>
	<path fill="#1666A7" stroke="#1666A7" stroke-width="1.2" stroke-miterlimit="10" d="M361.793,81.772
		c3.549,0.967,6.033,2.614,7.455,4.941s1.629,5.341,0.622,9.04c-0.527,1.935-1.21,3.592-2.047,4.969
		c-0.838,1.377-1.847,2.454-3.027,3.229c-1.182,0.775-2.545,1.242-4.089,1.398c-1.545,0.157-3.273-0.025-5.188-0.547l-7.903-2.152
		l6.273-23.032L361.793,81.772z M356.48,102.293c0.344,0.094,0.781,0.184,1.313,0.271c0.53,0.087,1.114,0.107,1.75,0.061
		c0.637-0.046,1.292-0.186,1.968-0.417c0.675-0.232,1.33-0.62,1.963-1.164c0.633-0.543,1.231-1.276,1.794-2.197
		s1.037-2.091,1.424-3.51c0.375-1.376,0.575-2.644,0.603-3.803c0.026-1.159-0.162-2.204-0.566-3.134
		c-0.405-0.93-1.037-1.726-1.896-2.388s-1.999-1.186-3.418-1.572l-5.161-1.406l-4.868,17.871L356.48,102.293z"/>
	<path fill="#1666A7" stroke="#1666A7" stroke-width="1.2" stroke-miterlimit="10" d="M393.371,92.599l-0.968,2.493l-12.405-4.812
		l-2.744,7.076l11.563,4.485l-0.967,2.494l-11.564-4.485l-2.986,7.699l12.499,4.848l-0.967,2.494l-15.46-5.997l8.633-22.255
		L393.371,92.599z"/>
	<path fill="#1666A7" stroke="#1666A7" stroke-width="1.2" stroke-miterlimit="10" d="M418.103,109.236
		c-0.636-1.337-1.68-2.42-3.132-3.249c-1.239-0.707-2.432-1.079-3.577-1.117c-1.146-0.038-2.229,0.172-3.246,0.631
		c-1.019,0.458-1.951,1.114-2.796,1.966c-0.846,0.852-1.577,1.82-2.195,2.904c-0.674,1.181-1.177,2.376-1.507,3.586
		c-0.331,1.21-0.435,2.369-0.311,3.479s0.499,2.151,1.125,3.124c0.625,0.972,1.558,1.812,2.797,2.519
		c0.909,0.519,1.803,0.83,2.682,0.933c0.877,0.104,1.725,0.035,2.541-0.205c0.816-0.24,1.58-0.645,2.291-1.215
		c0.71-0.57,1.336-1.264,1.881-2.083l2.759,1.574c-1.763,2.459-3.822,3.978-6.18,4.558c-2.357,0.58-4.862,0.113-7.515-1.4
		c-1.607-0.917-2.854-1.993-3.739-3.229c-0.886-1.237-1.449-2.565-1.69-3.986c-0.242-1.421-0.187-2.902,0.168-4.445
		s0.962-3.069,1.823-4.58s1.883-2.807,3.065-3.89c1.182-1.083,2.467-1.884,3.853-2.402s2.856-0.712,4.412-0.582
		c1.555,0.13,3.126,0.648,4.714,1.553c1.084,0.619,2.027,1.349,2.83,2.191c0.802,0.843,1.421,1.76,1.855,2.752
		c0.435,0.993,0.663,2.053,0.687,3.182s-0.203,2.29-0.677,3.482l-2.759-1.574C418.791,112.067,418.737,110.574,418.103,109.236z"/>
	<path fill="#1666A7" stroke="#1666A7" stroke-width="1.2" stroke-miterlimit="10" d="M432.102,114.204l-6.062,8.282l10.144,7.424
		l6.063-8.282l2.563,1.876l-14.099,19.262l-2.563-1.875l6.457-8.822l-10.144-7.424l-6.457,8.822l-2.563-1.876l14.099-19.262
		L432.102,114.204z"/>
	<path fill="#1666A7" stroke="#1666A7" stroke-width="1.2" stroke-miterlimit="10" d="M452.079,129.805l-15.528,18.13l-2.412-2.066
		l15.528-18.13L452.079,129.805z"/>
	<path fill="#1666A7" stroke="#1666A7" stroke-width="1.2" stroke-miterlimit="10" d="M459.028,136.066l-14.775,15.197l9.061,8.81
		l-1.864,1.917l-11.338-11.023l16.64-17.115L459.028,136.066z"/>
	<path fill="#1666A7" stroke="#1666A7" stroke-width="1.2" stroke-miterlimit="10" d="M481.592,160.452l-2.031,1.74l-8.657-10.104
		l-5.764,4.938l8.07,9.419l-2.03,1.74l-8.07-9.419l-6.271,5.373l8.723,10.181l-2.03,1.74l-10.79-12.592l18.128-15.531
		L481.592,160.452z"/>
</g>
<g>
	<path fill="none" d="M373.631,115.285c105.717,38.949,159.844,156.227,120.893,261.947
		c-38.948,105.719-156.228,159.846-261.947,120.893C126.856,459.174,72.73,341.898,111.684,236.178
		C150.634,130.459,267.909,76.333,373.631,115.285z"/>
	<path fill="#1666A7" stroke="#1666A7" stroke-width="1.2" stroke-miterlimit="10" d="M128.158,420.676
		c2.019,3.074,2.791,5.953,2.315,8.639c-0.475,2.688-2.316,5.082-5.519,7.188c-1.676,1.102-3.285,1.891-4.824,2.369
		c-1.54,0.477-3.009,0.615-4.407,0.416c-1.398-0.201-2.728-0.754-3.99-1.66c-1.261-0.904-2.437-2.186-3.526-3.844l-4.498-6.846
		l19.95-13.107L128.158,420.676z M110.589,432.539c0.195,0.297,0.463,0.654,0.804,1.07c0.34,0.418,0.763,0.818,1.271,1.205
		c0.507,0.387,1.091,0.717,1.75,0.99c0.66,0.273,1.407,0.416,2.241,0.428c0.834,0.012,1.768-0.141,2.799-0.459
		c1.032-0.316,2.162-0.879,3.391-1.688c1.192-0.783,2.183-1.6,2.97-2.451s1.338-1.76,1.65-2.725s0.366-1.98,0.159-3.045
		c-0.206-1.064-0.712-2.211-1.521-3.441l-2.937-4.471l-15.48,10.17L110.589,432.539z"/>
	<path fill="#1666A7" stroke="#1666A7" stroke-width="1.2" stroke-miterlimit="10" d="M146.961,445.645l-2.073,1.689l-8.406-10.314
		l-5.883,4.795l7.836,9.613l-2.073,1.691l-7.836-9.615l-6.402,5.217l8.47,10.393l-2.073,1.689l-10.476-12.855l18.504-15.08
		L146.961,445.645z"/>
	<path fill="#1666A7" stroke="#1666A7" stroke-width="1.2" stroke-miterlimit="10" d="M156.653,455.592
		c1.698,1.707,2.542,3.436,2.538,5.186c-0.006,1.75-0.799,3.41-2.381,4.98c-1.58,1.572-3.25,2.357-5.007,2.359
		c-1.758,0.004-3.476-0.857-5.157-2.58l-5.138-5.17l-6.923,6.883l-2.24-2.254l16.931-16.826L156.653,455.592z M147.789,462.893
		c1.256,1.297,2.448,1.975,3.575,2.033c1.127,0.059,2.196-0.414,3.208-1.42c1.011-1.006,1.487-2.068,1.428-3.188
		c-0.06-1.119-0.725-2.32-1.999-3.6l-4.383-4.41l-6.214,6.174L147.789,462.893z"/>
	<path fill="#1666A7" stroke="#1666A7" stroke-width="1.2" stroke-miterlimit="10" d="M160.709,463.393l1.708-2.057l14.691,12.189
		l-1.708,2.059l-6.124-5.082l-13.535,16.313l-2.445-2.027l13.536-16.313L160.709,463.393z"/>
	<path fill="#1666A7" stroke="#1666A7" stroke-width="1.2" stroke-miterlimit="10" d="M174.251,480.484
		c1.233-0.986,2.57-1.695,4.01-2.129c1.439-0.434,2.945-0.543,4.517-0.326c1.569,0.215,3.143,0.85,4.72,1.898
		c1.575,1.051,2.766,2.26,3.57,3.625s1.283,2.797,1.439,4.293c0.154,1.496,0.015,3.002-0.421,4.52
		c-0.435,1.518-1.104,2.955-2.005,4.309c-0.902,1.354-1.969,2.525-3.202,3.51c-1.233,0.986-2.57,1.697-4.01,2.131
		c-1.441,0.432-2.943,0.537-4.507,0.313c-1.563-0.227-3.133-0.865-4.71-1.914c-1.577-1.051-2.77-2.254-3.58-3.611
		c-0.811-1.355-1.293-2.781-1.448-4.277s-0.015-3.004,0.421-4.521c0.435-1.518,1.104-2.953,2.005-4.309
		C171.952,482.641,173.019,481.471,174.251,480.484z M172.108,488.979c-0.389,1.146-0.566,2.295-0.528,3.445
		c0.038,1.148,0.335,2.252,0.892,3.305c0.557,1.055,1.438,1.982,2.644,2.785c1.206,0.805,2.401,1.26,3.588,1.367
		c1.188,0.107,2.319-0.043,3.395-0.449c1.075-0.41,2.067-1.014,2.975-1.814c0.909-0.801,1.696-1.703,2.364-2.705
		c0.667-1.002,1.195-2.076,1.584-3.223c0.39-1.146,0.565-2.295,0.528-3.443c-0.038-1.15-0.335-2.252-0.892-3.307
		c-0.557-1.053-1.438-1.982-2.644-2.785c-1.206-0.803-2.402-1.258-3.589-1.367c-1.187-0.107-2.318,0.043-3.393,0.451
		c-1.076,0.408-2.068,1.014-2.977,1.814c-0.908,0.801-1.695,1.701-2.364,2.703C173.026,486.758,172.497,487.832,172.108,488.979z"/>
	<path fill="#1666A7" stroke="#1666A7" stroke-width="1.2" stroke-miterlimit="10" d="M193.393,507.686l-1.801,3.244l-3.244-1.801
		l1.8-3.246L193.393,507.686z"/>
	<path fill="#1666A7" stroke="#1666A7" stroke-width="1.2" stroke-miterlimit="10" d="M223.032,499.525
		c3.403,1.393,5.668,3.33,6.796,5.814c1.127,2.484,0.965,5.5-0.487,9.049c-0.759,1.855-1.639,3.416-2.638,4.682
		c-0.999,1.266-2.132,2.211-3.398,2.836c-1.268,0.625-2.678,0.922-4.229,0.889c-1.552-0.033-3.246-0.426-5.082-1.176l-7.581-3.102
		l9.037-22.094L223.032,499.525z M215.253,519.244c0.33,0.135,0.753,0.279,1.269,0.43c0.517,0.15,1.093,0.242,1.73,0.273
		c0.637,0.033,1.305-0.025,2.004-0.174c0.699-0.146,1.395-0.453,2.089-0.914c0.695-0.463,1.378-1.117,2.049-1.963
		c0.67-0.844,1.285-1.947,1.842-3.309c0.54-1.32,0.893-2.555,1.063-3.701c0.168-1.148,0.108-2.207-0.18-3.182
		c-0.289-0.971-0.82-1.84-1.591-2.6c-0.772-0.762-1.839-1.422-3.201-1.979l-4.951-2.025l-7.013,17.143L215.253,519.244z"/>
	<path fill="#1666A7" stroke="#1666A7" stroke-width="1.2" stroke-miterlimit="10" d="M252.66,509.51l-0.758,2.564l-12.761-3.77
		l-2.15,7.279l11.895,3.514l-0.757,2.564l-11.895-3.514l-2.339,7.92l12.856,3.797l-0.758,2.566l-15.902-4.699l6.762-22.893
		L252.66,509.51z"/>
	<path fill="#1666A7" stroke="#1666A7" stroke-width="1.2" stroke-miterlimit="10" d="M268.047,512.563l-4.213,23.496l-3.126-0.561
		l4.213-23.496L268.047,512.563z"/>
	<path fill="#1666A7" stroke="#1666A7" stroke-width="1.2" stroke-miterlimit="10" d="M276.146,513.873l10.56,20.523l0.066,0.008
		l1.948-19.26l2.993,0.303l-2.402,23.75l-3.459-0.35l-10.479-20.314l-0.065-0.006l-1.928,19.059l-2.993-0.303l2.401-23.75
		L276.146,513.873z"/>
	<path fill="#1666A7" stroke="#1666A7" stroke-width="1.2" stroke-miterlimit="10" d="M311.045,539.029
		c-1.375,0.568-2.764,0.863-4.167,0.887c-1.783,0.027-3.381-0.277-4.796-0.91c-1.414-0.637-2.621-1.502-3.619-2.602
		s-1.765-2.369-2.3-3.809c-0.537-1.439-0.816-2.941-0.841-4.502c-0.028-1.738,0.186-3.396,0.64-4.975s1.145-2.967,2.074-4.162
		c0.928-1.195,2.094-2.156,3.499-2.881c1.403-0.725,3.052-1.102,4.947-1.131c1.292-0.021,2.514,0.109,3.668,0.393
		c1.15,0.281,2.184,0.74,3.096,1.371c0.914,0.633,1.684,1.439,2.313,2.422s1.066,2.172,1.311,3.574l-3.174,0.049
		c-0.172-0.91-0.475-1.691-0.908-2.342s-0.965-1.184-1.596-1.598c-0.631-0.412-1.346-0.719-2.139-0.918
		c-0.795-0.199-1.639-0.293-2.529-0.277c-1.449,0.021-2.686,0.332-3.713,0.928c-1.027,0.596-1.862,1.373-2.504,2.33
		c-0.643,0.959-1.11,2.047-1.402,3.266c-0.293,1.221-0.43,2.465-0.408,3.734c0.019,1.248,0.215,2.443,0.591,3.586
		c0.375,1.143,0.915,2.146,1.619,3.016c0.706,0.871,1.568,1.559,2.591,2.066c1.022,0.508,2.202,0.75,3.539,0.729
		c1.249-0.02,2.348-0.236,3.299-0.652c0.953-0.418,1.752-0.982,2.398-1.693c0.646-0.713,1.129-1.545,1.449-2.498
		c0.318-0.951,0.445-1.975,0.387-3.066l-7.624,0.121l-0.042-2.674l10.462-0.166l0.199,12.57l-2.006,0.031l-0.883-2.963
		C313.561,537.547,312.416,538.463,311.045,539.029z"/>
	<path fill="#1666A7" stroke="#1666A7" stroke-width="1.2" stroke-miterlimit="10" d="M337.447,512.869l0.33,2.654l-13.205,1.637
		l0.936,7.533l12.307-1.527l0.33,2.654l-12.311,1.525l1.018,8.195l13.305-1.648l0.328,2.654l-16.455,2.039l-2.938-23.688
		L337.447,512.869z"/>
	<path fill="#1666A7" stroke="#1666A7" stroke-width="1.2" stroke-miterlimit="10" d="M344.078,511.547l16.615,16.021l0.064-0.016
		l-4.367-18.857l2.93-0.68l5.387,23.256l-3.387,0.783l-16.471-15.848l-0.066,0.016l4.322,18.662l-2.93,0.678l-5.387-23.254
		L344.078,511.547z"/>
	<path fill="#1666A7" stroke="#1666A7" stroke-width="1.2" stroke-miterlimit="10" d="M366.922,505.508l7.137,22.779l-3.029,0.949
		l-7.139-22.779L366.922,505.508z"/>
	<path fill="#1666A7" stroke="#1666A7" stroke-width="1.2" stroke-miterlimit="10" d="M386.945,498.117l0.971,2.492l-12.402,4.822
		l2.748,7.072l11.561-4.494l0.969,2.494l-11.561,4.494l2.992,7.697l12.496-4.857l0.969,2.492l-15.457,6.008l-8.648-22.25
		L386.945,498.117z"/>
	<path fill="#1666A7" stroke="#1666A7" stroke-width="1.2" stroke-miterlimit="10" d="M400.078,491.613
		c2.027-1.031,3.863-1.342,5.512-0.932c1.648,0.412,2.912,1.48,3.793,3.209c0.656,1.291,0.941,2.572,0.852,3.844
		s-0.691,2.414-1.799,3.43l0.031,0.059c0.676-0.193,1.277-0.25,1.807-0.17s1.006,0.256,1.432,0.527
		c0.428,0.271,0.814,0.617,1.168,1.037c0.352,0.422,0.689,0.875,1.012,1.361c0.305,0.496,0.602,1.006,0.895,1.533
		c0.293,0.525,0.609,1.027,0.953,1.502c0.342,0.477,0.707,0.908,1.094,1.301c0.387,0.391,0.82,0.688,1.301,0.895l-3.158,1.607
		c-0.309-0.115-0.596-0.346-0.857-0.688s-0.521-0.74-0.779-1.197s-0.533-0.949-0.826-1.475s-0.621-1.021-0.982-1.488
		c-0.342-0.475-0.691-0.916-1.049-1.322s-0.754-0.717-1.189-0.932c-0.436-0.217-0.914-0.322-1.438-0.318s-1.133,0.184-1.828,0.537
		l-6.91,3.521l4.631,9.086l-2.83,1.441l-10.84-21.268L400.078,491.613z M405.594,500.961c0.545-0.402,0.969-0.861,1.268-1.377
		c0.301-0.516,0.461-1.086,0.48-1.709s-0.166-1.322-0.563-2.096c-0.547-1.072-1.289-1.795-2.229-2.166s-2.074-0.219-3.404,0.459
		l-7.031,3.582l3.779,7.418l5.898-3.006C404.447,501.732,405.049,501.365,405.594,500.961z"/>
	<path fill="#1666A7" stroke="#1666A7" stroke-width="1.2" stroke-miterlimit="10" d="M412.682,484.436l12.359,20.422l-2.717,1.645
		l-12.359-20.422L412.682,484.436z"/>
	<path fill="#1666A7" stroke="#1666A7" stroke-width="1.2" stroke-miterlimit="10" d="M425.043,476.211l21.379,14.131l-2.867,2.023
		l-6.275-4.371l-8.25,5.818l1.957,7.416l-2.65,1.869l-6.162-24.863L425.043,476.211z M434.918,486.385l-9.666-6.803l-0.055,0.037
		l3.109,11.43L434.918,486.385z"/>
	<path fill="#1666A7" stroke="#1666A7" stroke-width="1.2" stroke-miterlimit="10" d="M453.605,456.391
		c-1.465,0.23-2.799,0.922-4.006,2.078c-1.031,0.986-1.727,2.025-2.088,3.111c-0.363,1.09-0.469,2.188-0.318,3.293
		c0.148,1.107,0.514,2.188,1.088,3.238c0.576,1.055,1.297,2.031,2.16,2.932c0.941,0.982,1.943,1.803,3.01,2.465
		s2.148,1.09,3.248,1.287c1.098,0.197,2.203,0.133,3.314-0.189c1.109-0.322,2.18-0.979,3.209-1.965
		c0.756-0.725,1.309-1.492,1.658-2.307c0.35-0.811,0.523-1.643,0.527-2.494c0.002-0.852-0.17-1.697-0.514-2.541
		c-0.346-0.842-0.832-1.641-1.463-2.396l2.295-2.197c1.855,2.389,2.725,4.797,2.611,7.221c-0.115,2.426-1.275,4.695-3.48,6.807
		c-1.336,1.279-2.723,2.168-4.16,2.666s-2.869,0.66-4.301,0.486c-1.432-0.172-2.836-0.646-4.215-1.426
		c-1.377-0.777-2.668-1.795-3.871-3.049c-1.203-1.256-2.154-2.605-2.857-4.047s-1.104-2.9-1.207-4.377
		c-0.104-1.475,0.131-2.939,0.697-4.395c0.566-1.453,1.51-2.813,2.83-4.078c0.9-0.863,1.869-1.559,2.906-2.088
		c1.035-0.529,2.092-0.861,3.166-0.996s2.156-0.053,3.246,0.246c1.088,0.299,2.137,0.846,3.145,1.639l-2.293,2.197
		C456.514,456.537,455.068,456.162,453.605,456.391z"/>
	<path fill="#1666A7" stroke="#1666A7" stroke-width="1.2" stroke-miterlimit="10" d="M459.803,444.766l17.785,15.922l-2.119,2.367
		l-17.787-15.922L459.803,444.766z"/>
	<path fill="#1666A7" stroke="#1666A7" stroke-width="1.2" stroke-miterlimit="10" d="M485.475,451.262l-23.984-8.059l2.096-2.689
		l20.514,7.346l0.041-0.055l-12.084-18.154l2.033-2.611l13.605,21.375L485.475,451.262z"/>
	<path fill="#1666A7" stroke="#1666A7" stroke-width="1.2" stroke-miterlimit="10" d="M476.926,422.453l19.777,13.365l-1.777,2.631
		l-19.779-13.365L476.926,422.453z"/>
	<path fill="#1666A7" stroke="#1666A7" stroke-width="1.2" stroke-miterlimit="10" d="M481.297,415.635l18.281,10.729l6.396-10.898
		l2.305,1.354l-8.004,13.639l-20.586-12.084L481.297,415.635z"/>
</g>
</svg>
