<?xml version="1.0" encoding="utf-8"?>
<!-- Generator: Adobe Illustrator 16.0.0, SVG Export Plug-In . SVG Version: 6.00 Build 0)  -->
<!DOCTYPE svg PUBLIC "-//W3C//DTD SVG 1.1//EN" "http://www.w3.org/Graphics/SVG/1.1/DTD/svg11.dtd" [
	<!ENTITY ns_extend "http://ns.adobe.com/Extensibility/1.0/">
	<!ENTITY ns_ai "http://ns.adobe.com/AdobeIllustrator/10.0/">
	<!ENTITY ns_graphs "http://ns.adobe.com/Graphs/1.0/">
	<!ENTITY ns_vars "http://ns.adobe.com/Variables/1.0/">
	<!ENTITY ns_imrep "http://ns.adobe.com/ImageReplacement/1.0/">
	<!ENTITY ns_sfw "http://ns.adobe.com/SaveForWeb/1.0/">
	<!ENTITY ns_custom "http://ns.adobe.com/GenericCustomNamespace/1.0/">
	<!ENTITY ns_adobe_xpath "http://ns.adobe.com/XPath/1.0/">
]>
<svg version="1.1" id="Layer_1" xmlns:x="&ns_extend;" xmlns:i="&ns_ai;" xmlns:graph="&ns_graphs;"
	 xmlns="http://www.w3.org/2000/svg" xmlns:xlink="http://www.w3.org/1999/xlink" x="0px" y="0px" width="860.566px" height="300px"
	 viewBox="0 0 860.566 300" enable-background="new 0 0 860.566 300" xml:space="preserve">
<metadata>
	<sfw  xmlns="&ns_sfw;">
		<slices></slices>
		<sliceSourceBounds  height="237.329" width="804.515" y="184.14" x="29.862" bottomLeftOrigin="true"></sliceSourceBounds>
	</sfw>
</metadata>
<g>
	<path fill="none" stroke="#73797D" stroke-width="1.9399" stroke-miterlimit="3.8635" d="M126.387,111.791v123.721
		c0,2.363-1.908,4.283-4.263,4.283H83.345c-2.593-0.063-4.467,4.27-4.467,4.27s-1.882-4.334-4.591-4.27
		c0.003-0.004-38.689,0-38.689,0c-2.354,0-4.263-1.92-4.263-4.283L31.332,111.8L126.387,111.791L126.387,111.791z"/>
	<path fill="none" stroke="#73797D" stroke-width="0.9654" stroke-miterlimit="3.8637" d="M93.118,131.491l-3.777-6.022
		c-4.525,1.045-3.413-2.88-0.961-4.423c2.695-1.691,5.742-1.096,3.787,2.648c0,0,0.871,1.417,2.324,3.729
		C94.491,127.424,93.499,129.309,93.118,131.491L93.118,131.491z M109.83,151.686l10.293,16.347l-0.757,0.761l-3.608-2.861
		c0,0-0.22-2.391-0.793-2.883c-1.938-1.673-0.789-2.594-1.539-4.146c-0.749-1.547-5.147-2.741-6.17-5.067
		c0.019,0.112-1.694-2.717-1.694-2.717C109.486,150.424,109.83,151.686,109.83,151.686L109.83,151.686z M97.762,132.408
		c-0.017-0.035,3.659,6.018,3.644,5.939c-2.274-0.275-3.378-0.929-3.831-2.152C97.039,134.816,97.458,132.982,97.762,132.408
		L97.762,132.408z M42.747,189.96l8.036,20.292 M43.403,190.549l7.459,14.42 M43.949,190.77l6.784,10.18 M44.352,190.587l6.22,7.392
		 M44.275,189.9l9.006,8.512 M44.201,189.402l12.34,9.232 M44.008,188.979l18.118,10.639 M53.804,156.624l-0.275,6.271h3.654
		l-0.277-6.271H53.804L53.804,156.624z M56.838,154.9l-1.486-33.625l-1.52,33.625H56.838L56.838,154.9z M49.186,154.936H61.52v1.687
		H49.186V154.936L49.186,154.936z M59.242,162.904c0,2.521-1.742,4.265-3.891,4.265c-2.146,0-3.889-1.741-3.889-4.265H59.242
		L59.242,162.904z M49.692,139.633c0,3.221-2.661,5.832-5.942,5.832s-5.943-2.611-5.943-5.832H49.692L49.692,139.633z
		 M98.485,131.184c0,0,1.312,1.783,2.717,0.953c2.574-1.521-0.604-10.189-5.903-5.779c-1.165,0.973-2.723,5.478-2.421,8.365
		c0.303,2.892,1.586,6.545,4.842,7.301c1.966,0.457,5.882-0.637,7.508,2.041c1.209-0.453,2.531-5.229-0.847-5.387
		c-3.332-0.15-6.152-0.721-6.661-2.129C96.511,133.201,98.485,131.184,98.485,131.184L98.485,131.184z M101.486,144.738
		c-1.309,0.636-2.268,2.15-1.811,3.835c0.457,1.687,2.503,2.692,5.394,2.54c0.161-0.008,0.312-0.021,0.46-0.028
		c2.558-0.19,3.7-0.5,4.564,0.947c0.913-1.071,0.648-3.459-0.652-4.563C107.466,145.783,102.329,147.922,101.486,144.738
		L101.486,144.738z M107.204,153.866c-0.304,1.379-1.235,3.224-0.457,4.897c1.063,2.295,3.043,1.071,3.653,2.444
		c0.607,1.374,0.023,3.427,1.37,3.827c2.588,0.766,1.677,3.363,3.047,3.212c1.21-0.136,1.253-4.2,0-5.354
		c-1.828-1.686-0.611-2.908-1.522-4.285C112.378,157.232,109.029,156.62,107.204,153.866L107.204,153.866z"/>
	<path fill="none" stroke="#73797D" stroke-width="0.6207" stroke-miterlimit="3.8637" d="M80.567,162.426
		c0-0.095,0.076-0.17,0.172-0.17c0.096,0,0.171,0.075,0.171,0.17c0,0.096-0.075,0.17-0.171,0.17
		C80.644,162.602,80.567,162.52,80.567,162.426L80.567,162.426z M99.833,128.152c0.247-0.088,0.539,0.094,0.652,0.406
		c0.113,0.315,0.005,0.646-0.237,0.735c-0.246,0.092-0.539-0.092-0.651-0.408C99.483,128.573,99.591,128.243,99.833,128.152
		L99.833,128.152z"/>
	<path fill="none" stroke="#73797D" stroke-width="0.9654" stroke-miterlimit="3.8637" d="M52.724,210.262
		c0-4.869,3.923-8.808,8.765-8.808c4.842,0,8.765,3.938,8.765,8.808c0,4.861-3.923,8.807-8.765,8.807
		C56.646,219.068,52.724,215.123,52.724,210.262L52.724,210.262z M70.557,231.906h-4.265v-8.235H40.068v-4.213h30.487
		L70.557,231.906L70.557,231.906z M43.86,211.225c0-0.988,0.8-1.795,1.791-1.795c0.987,0,1.786,0.807,1.786,1.795
		c0,0.994-0.799,1.799-1.786,1.799C44.661,213.023,43.86,212.221,43.86,211.225L43.86,211.225z M43.939,210.71l-3.063,8.707
		l4.731-6.394 M47.359,210.71l3.061,8.707l-4.731-6.394 M53.981,206.121c-0.442,2.4,4.035,2.371,3.654,3.674
		c-0.918,3.135,0.913,3.021,1.218,4.666c0,0-0.305,3.898,0.76,4.209c0.61-0.84,0.154-2.486,0.913-3.367
		c0.801-0.916,1.904-1.418,1.904-3.057c0-1.191-1.65-1.568-2.134-1.914c-0.531-0.383-1.522-0.689-2.206-0.689
		c0,0-1.751-3.365-1.218-3.979c0.607-0.533,1.523,0.763,1.901,0.763c0.8,0,0.95-1.604,2.207-1.604c0-0.386-0.077-1.571-0.305-1.688
		c-1.257,0-2.053,0.614-3.122-0.688C57.559,202.441,54.426,203.712,53.981,206.121L53.981,206.121z M64.224,201.794
		c-0.98-0.376-2.477-0.228-2.477-0.228c1.296,0.613,1.22,2.33,1.752,2.33c1.068,0,1.599-0.877,2.664-1.067
		C66.166,202.829,65.203,202.17,64.224,201.794L64.224,201.794z M70.168,208.521c0-2.201-2.939-4.93-2.939-4.93
		s-1.446,2.68-0.764,5.434c0.686,0.074,2.665-0.152,2.665-0.152c0.497,0.229,0.304,1.033,0.304,1.527c0,1.227-0.381,4.36-0.381,4.36
		S70.168,210.729,70.168,208.521L70.168,208.521z"/>
	<polygon fill="none" stroke="#73797D" stroke-width="0.6207" stroke-miterlimit="3.8637" points="42.479,185.217 41.584,187.148 
		39.521,187.396 41.032,188.823 40.625,190.885 42.45,189.878 44.318,190.9 43.951,188.803 45.42,187.396 43.356,187.107 	"/>
	
		<line fill="none" stroke="#73797D" stroke-width="1.9399" stroke-miterlimit="3.8635" x1="78.859" y1="191.357" x2="78.859" y2="243.719"/>
	
		<path fill="none" stroke="#73797D" stroke-width="0.9657" stroke-linecap="round" stroke-linejoin="round" stroke-miterlimit="3.8637" d="
		M86.419,216.828l-2.252,2.561c-0.301,0.352-0.142,2.717,0.01,3.396c1.778,0.713,26.972,8.637,26.972,8.637l10.248-11.168
		l-1.603-0.689c-0.453-0.729,0.998-3.189,0.998-3.189l-4.96-1.956 M111.163,226.467c-0.4,0.324-0.305,4.512,0.019,4.977
		c0.02,0,10.217-11.188,10.217-11.188l-1.059-0.964c-0.09-1.006,0.182-2.822,0.182-2.822L111.163,226.467L111.163,226.467z
		 M110.208,219.583c-0.42,0.19-0.67,5.677-0.1,5.713c0.002-0.005,8.416-9.56,8.416-9.56l-0.815-0.459L110.208,219.583
		L110.208,219.583z"/>
	
		<path fill="none" stroke="#73797D" stroke-width="0.6204" stroke-linecap="round" stroke-linejoin="round" stroke-miterlimit="3.8637" d="
		M89.499,212.334l-2.629,2.686c-0.377,0.203-0.092,2.721,0,3.426c0.921,0.253,23.228,6.879,23.228,6.879l8.396-9.661l-2.663-0.954"
		/>
	<path fill="none" stroke="#73797D" stroke-width="0.9654" stroke-miterlimit="3.8637" d="M113.857,198.35v15.994
		c-2.184-0.521-10.389-1.572-11.225-0.269c-0.683-1.304-7.278-0.716-11.238,0.166V198.85c-0.502,2.228-2.016,3.035-2.016,3.035
		v13.566l11.694-0.842c1.296,0.842,2.779,0.305,3.272,0.072l11.226,0.363v-15.188C115.571,199.864,114.461,199.768,113.857,198.35
		L113.857,198.35z M113.857,214.346c-2.388,0-9.512-1.914-11.188-0.229c1.522-0.037,1.563,0.952,0,0.993
		c-1.674-0.112-1.407-1.071,0-0.955c-1.447-1.877-11.255,0.389-11.255,0.389l-0.021-15.688c2.721,0,5.541-1.313,7.455-1.313
		s3.929,0.813,3.929,0.813s3.011-1.221,5.137-1.221c2.519,0,3.814,2.061,5.83,1.352
		C113.708,199.458,113.857,214.346,113.857,214.346L113.857,214.346z"/>
	
		<line fill="none" stroke="#73797D" stroke-width="0.6207" stroke-miterlimit="3.8637" x1="102.744" y1="198.376" x2="102.648" y2="214.061"/>
	<path fill="none" stroke="#73797D" stroke-width="0.6708" stroke-miterlimit="3.8637" d="M91.062,219.736l-0.842,0.852
		c-0.39,0.449-0.394,3.98,0.009,4.162c-0.009,0.059,1.823,0.529,1.01,0.159c-0.174-1.136-0.105-3.584,0.2-3.935l0.919-0.897
		L91.062,219.736L91.062,219.736z M93.993,220.577l-0.804,0.856c-0.388,0.44-0.549,4.072-0.144,4.25
		c-0.013,0.066,1.978,0.435,1.164,0.063c-0.178-1.137-0.106-3.584,0.2-3.936l0.851-0.851L93.993,220.577L93.993,220.577z
		 M101.112,222.682l-0.956,1.006c-0.389,0.449-0.595,3.895-0.189,4.072c-0.012,0.068,2.021,0.619,1.21,0.243
		c-0.177-1.128-0.106-3.582,0.199-3.935l1.032-1.043L101.112,222.682L101.112,222.682z M103.815,223.523l-0.956,1.01
		c-0.391,0.441-0.554,3.918-0.153,4.1c-0.011,0.063,1.983,0.588,1.171,0.217c-0.179-1.135-0.106-3.584,0.2-3.935l1.032-1.044
		L103.815,223.523L103.815,223.523z M91.06,215.359l-0.64,0.648c-0.295,0.342-0.354,3.301-0.048,3.438
		c-0.008,0.049,0.834,0.337,0.95,0.294c0.125-0.007-0.07-0.312-0.129-0.454c-0.134-0.861-0.078-2.725,0.154-2.99l0.695-0.675
		L91.06,215.359L91.06,215.359z"/>
	<path fill="none" stroke="#73797D" stroke-width="0.9654" stroke-miterlimit="3.8637" d="M102.782,198.23
		c-3.042-0.076-3.874-2.506-3.874-2.506l1.183-0.055c0,0-1.485-0.902-1.155-1.791c-0.024-0.041,1.034,0.112,1.034,0.112
		s-0.446-1.218-0.042-2.021l0.947,0.396c0.272-1.619,1.948-1.996,1.948-1.996s1.561,0.21,2.018,1.996l0.947-0.396
		c0.404,0.803-0.033,2.021-0.033,2.021s1.058-0.153,1.034-0.112c0.331,0.889-1.156,1.791-1.156,1.791l1.186,0.055
		C106.817,195.725,105.825,198.156,102.782,198.23L102.782,198.23z"/>
	
		<line fill="none" stroke="#73797D" stroke-width="1.9399" stroke-miterlimit="3.8635" x1="31.248" y1="176.564" x2="64.09" y2="176.564"/>
	
		<line fill="none" stroke="#73797D" stroke-width="1.8699" stroke-miterlimit="3.8637" x1="93.757" y1="176.564" x2="126.336" y2="176.564"/>
	<polygon fill="none" stroke="#FFFFFF" stroke-width="0.9654" stroke-miterlimit="3.8637" points="78.904,164.432 89.378,182.852 
		68.338,182.852 	"/>
	<path fill="none" stroke="#73797D" stroke-width="0.9654" stroke-miterlimit="3.8637" d="M78.814,173.537
		c3.791,0,7.087,3.119,7.046,3.613c0.035,0.466-3.257,3.59-7.046,3.59s-7.091-3.124-7.057-3.59
		C71.722,176.656,74.895,173.391,78.814,173.537L78.814,173.537z M75.281,177.139c0-1.959,1.58-3.545,3.528-3.545
		c1.949,0,3.53,1.59,3.53,3.545c0,1.957-1.581,3.549-3.53,3.549C76.86,180.684,75.281,179.096,75.281,177.139L75.281,177.139z"/>
	<path fill="#73797D" stroke="#73797D" stroke-width="0.6207" stroke-miterlimit="3.8637" d="M78.369,177.139
		c0-0.244,0.198-0.44,0.444-0.44c0.241,0,0.44,0.196,0.44,0.44c0,0.246-0.199,0.446-0.44,0.446
		C78.566,177.585,78.369,177.385,78.369,177.139L78.369,177.139z"/>
	<path fill="none" stroke="#73797D" stroke-width="0.9654" stroke-miterlimit="3.8637" d="M78.916,164.042
		c-6.922,0-12.588,5.657-12.588,12.61c0,6.955,5.61,12.594,12.532,12.594c6.922,0,12.533-5.639,12.533-12.594
		c0-6.256-4.54-11.442-10.49-12.428c-2.214,0.162-2.327-0.646-2.405-1.063c-0.204-1.134,1.271-1.8,2.323-1.8
		c1.828,0,1.674,1.07,2.77,1.3c5.825,1.979,10.015,7.519,10.015,14.034c0,8.182-6.601,14.813-14.742,14.813
		c-8.143,0-14.742-6.633-14.742-14.813c0-8.185,6.12-14.493,14.344-13.881C78.333,163.354,78.916,164.042,78.916,164.042
		L78.916,164.042z"/>
	<polygon fill="none" stroke="#73797D" stroke-width="1.7342" stroke-miterlimit="3.8635" points="78.839,59.692 74.329,68.811 
		64.136,70.287 71.483,77.577 69.967,87.458 78.839,82.951 87.713,87.458 86.083,77.486 93.198,70.504 83.421,68.903 	"/>
	<path fill="none" stroke="#73797D" stroke-width="0.8952" stroke-miterlimit="3.8635" d="M78.839,60.019v22.932 M64.484,70.501
		l21.598,6.985 M69.967,87.458l13.452-18.555 M87.713,87.458L74.332,68.812 M93.198,70.504l-21.714,7.075"/>
	<path fill="none" stroke="#73797D" stroke-width="1.7342" stroke-miterlimit="3.8635" d="M71.364,77.666L40.831,87.729
		 M116.709,62.724l-23.493,7.742 M74.303,68.791L55.444,42.766 M105.12,111.825L87.549,87.394 M83.435,68.875l18.768-26.223
		 M52.158,111.825l17.787-24.431 M64.388,70.474l-23.447-7.75 M116.598,87.729L86.199,77.544 M78.839,35.03v25.578"/>
	<path fill="none" stroke="#73797D" stroke-width="0.8952" stroke-miterlimit="3.8635" d="M70.953,81.165l-12.545,9.072
		 M99.328,60.367l-12.341,9.009 M75.895,84.525l-4.809,14.868 M86.746,50.973l-4.771,14.75 M81.869,84.536l4.774,14.76
		 M70.976,50.838l4.852,15.001 M86.639,80.955l12.462,9.098 M58.181,60.176l12.437,9.079 M88.534,75.29l15.712,0.003 M53.547,75.29
		H69.02"/>
	<path fill="none" stroke="#73797D" stroke-width="0.9654" stroke-miterlimit="3.8637" d="M104.612,143.311
		c0.69,1.021,2.094,3.402,2.054,3.402c0,0-3.311,0.229-4.489-0.88c-0.259-0.394-2.25-3.606-2.25-3.606
		S103.927,142.286,104.612,143.311L104.612,143.311z M43.736,126.102l-5.857,13.479l11.725,0.032L43.736,126.102L43.736,126.102z
		 M61.166,139.633c0,3.221,2.661,5.832,5.942,5.832c3.285,0,5.942-2.611,5.942-5.832H61.166L61.166,139.633z M67.12,126.102
		l5.859,13.479l-11.725,0.032L67.12,126.102L67.12,126.102z M53.639,162.014l3.504-1.646 M53.526,159.76l3.503-1.646"/>
	<path fill="none" stroke="#73797D" stroke-width="0.6207" stroke-miterlimit="3.8637" d="M55.279,125.867H43.743v-1.375h11.423
		L55.279,125.867L55.279,125.867z M55.469,124.492h11.608v1.375H55.543L55.469,124.492L55.469,124.492z M94.413,201.809
		c1.598-0.053,3.661-1.635,5.95-0.871 M94.398,203.557c1.594-0.047,3.672-1.558,5.962-0.787 M94.382,205.311
		c1.597-0.047,3.685-1.482,5.975-0.719 M94.373,207.063c1.595-0.047,3.693-1.412,5.985-0.645 M94.357,208.816
		c1.596-0.047,3.708-1.336,5.995-0.573 M94.341,210.57c1.596-0.053,3.722-1.264,6.011-0.496 M111.106,201.293
		c-1.597-0.052-3.728-1.119-6.016-0.354 M111.109,203.139c-1.597-0.052-3.729-1.139-6.017-0.369 M111.111,204.986
		c-1.597-0.053-3.728-1.16-6.016-0.396 M111.111,206.832c-1.597-0.053-3.728-1.182-6.013-0.413 M111.116,208.678
		c-1.598-0.054-3.729-1.197-6.014-0.435 M111.118,210.521c-1.598-0.051-3.728-1.215-6.016-0.447"/>
	<polygon fill="none" stroke="#73797D" stroke-width="0.9654" stroke-miterlimit="3.8637" points="78.904,164.432 89.378,182.852 
		68.338,182.852 	"/>
	<path fill="none" stroke="#73797D" stroke-width="0.6708" stroke-miterlimit="3.8637" d="M93.294,215.896l-0.639,0.646
		c-0.296,0.343-0.354,3.3-0.048,3.438c0.145,0.084,0.835,0.406,0.95,0.359c0.124,0-0.09-0.375-0.129-0.518
		c-0.135-0.861-0.08-2.723,0.152-2.991l0.698-0.679L93.294,215.896L93.294,215.896z"/>
	<polygon fill="#73797D" points="77.792,82.951 79.708,82.951 79.708,161.133 78.817,162.338 78.458,162.816 77.861,162.408 	"/>
	<path fill="none" stroke="#73797D" stroke-width="0.6708" stroke-miterlimit="3.8637" d="M102.388,218.514l-0.642,0.651
		c-0.293,0.34-0.353,3.3-0.048,3.438c-0.009,0.052,0.834,0.334,0.95,0.293c0.124-0.004-0.071-0.311-0.129-0.453
		c-0.136-0.854-0.08-2.721,0.153-2.985l0.696-0.679L102.388,218.514L102.388,218.514z M104.623,219.053l-0.638,0.648
		c-0.297,0.342-0.354,3.307-0.047,3.439c0.144,0.082,0.833,0.406,0.949,0.362c0.125-0.004-0.09-0.38-0.129-0.521
		c-0.136-0.858-0.079-2.727,0.152-2.99l0.697-0.684L104.623,219.053L104.623,219.053z"/>
</g>
<g>
	<path fill="#E30613" d="M296.267,149.625h11.669v22.081h-11.669v62.769c-2.609,22.172-17.031,38.767-40.39,37.849v-22.074
		c9.952,0.336,15.882-3.461,16.917-15.256l0.061-63.285h-11.003V149.63h11.003l0.006-14.845
		c0.551-23.392,14.897-40.593,40.786-37.614v21.883c-11.077-0.877-17.273,3.624-17.383,15.908v14.665L296.267,149.625
		L296.267,149.625z"/>
	<path fill="none" stroke="#73797D" stroke-width="1.9164" stroke-miterlimit="3.8637" d="M159.681,272.063V96.724"/>
	<path fill="#73797D" d="M182.99,149.979c0-12.529,6.209-17.113,17.384-16.231v-21.881c-26.074-3.001-40.441,14.466-40.796,38.112
		v20.646v69.872h23.412v-69.872h16.497v-20.646H182.99L182.99,149.979z"/>
	<path fill="#73797D" d="M240.624,240.496h18.268v-22.585h-16.32c-14.722,0-24.12-10.058-24.12-22.938
		c0-12.88,9.4-22.938,24.12-22.938h16.32v-22.407h-18.268c-27.846,0-45.588,19.938-45.588,45.349
		C195.036,220.385,212.777,240.496,240.624,240.496L240.624,240.496z"/>
	<path fill="#73797D" d="M447.791,187.965c0-23.813-15.069-40.568-40.605-40.568c-11.879,0-22.166,4.939-29.082,12.875
		c-6.559-7.936-16.665-12.875-29.082-12.875c-24.998,0-41.137,17.462-41.137,40.568v52.567h23.408v-53.095
		c0-10.229,7.271-17.287,17.729-17.287c15.428,0,17.025,12.17,17.025,17.287v53.095h23.403v-53.095
		c0-10.229,7.442-17.287,17.731-17.287c15.431,0,17.202,12.17,17.202,17.287v53.095h23.404v-52.567H447.791L447.791,187.965z"/>
</g>
<g>
	<path fill="#73797D" d="M544.89,222.961v10.379c0,0.828,0.114,1.623,0.344,2.383c0.245,0.74,0.617,1.393,1.115,1.953
		c0.521,0.559,1.174,1.005,1.964,1.34c0.809,0.316,1.773,0.477,2.898,0.477c1.146,0,2.109-0.16,2.9-0.477
		c0.805-0.335,1.459-0.781,1.961-1.34c0.516-0.563,0.891-1.213,1.121-1.953c0.243-0.76,0.359-1.555,0.359-2.383v-10.379h-1.551V233
		c0,0.938-0.104,1.742-0.313,2.4c-0.219,0.654-0.523,1.188-0.938,1.612c-0.414,0.405-0.912,0.711-1.506,0.907
		c-0.595,0.183-1.271,0.271-2.031,0.271c-0.748,0-1.418-0.092-2.014-0.271c-0.596-0.196-1.093-0.5-1.504-0.907
		c-0.41-0.425-0.724-0.958-0.938-1.612c-0.214-0.658-0.314-1.466-0.314-2.4v-10.039H544.89L544.89,222.961z"/>
	<polygon fill="#73797D" points="562.318,222.961 562.318,239.17 563.869,239.17 563.869,225.461 563.916,225.461 573.414,239.17 
		575.146,239.17 575.146,222.961 573.597,222.961 573.597,236.677 573.547,236.677 564.054,222.961 	"/>
	<polygon fill="#73797D" points="580.185,222.961 580.185,239.17 581.736,239.17 581.736,222.961 	"/>
	<polygon fill="#73797D" points="585.016,222.961 591.043,239.17 592.842,239.17 598.895,222.961 597.252,222.961 592.002,237.469 
		591.955,237.469 586.66,222.961 	"/>
	<polygon fill="#73797D" points="601.99,222.961 601.99,239.17 613.359,239.17 613.359,237.855 603.541,237.855 603.541,231.457 
		612.627,231.457 612.627,230.139 603.541,230.139 603.541,224.281 613.24,224.281 613.24,222.961 	"/>
	<path fill="#73797D" d="M618.738,230.658v-6.377h5.795c1.188,0,2.072,0.284,2.648,0.864c0.578,0.574,0.865,1.362,0.865,2.363
		c0,0.493-0.098,0.942-0.299,1.334c-0.18,0.376-0.432,0.707-0.752,0.976c-0.32,0.273-0.691,0.483-1.115,0.635
		c-0.428,0.142-0.875,0.205-1.35,0.205H618.738L618.738,230.658z M617.186,222.961v16.209h1.557v-7.196h5.887
		c0.732-0.026,1.301,0.092,1.713,0.364c0.428,0.273,0.74,0.637,0.955,1.09c0.229,0.441,0.375,0.947,0.436,1.521
		c0.076,0.561,0.129,1.127,0.164,1.701c0.014,0.168,0.027,0.362,0.045,0.592c0.016,0.227,0.029,0.465,0.041,0.699
		c0.029,0.23,0.07,0.459,0.117,0.688c0.063,0.213,0.137,0.394,0.229,0.541h1.713c-0.17-0.194-0.305-0.463-0.414-0.813
		c-0.086-0.366-0.158-0.741-0.201-1.135c-0.051-0.412-0.071-0.812-0.092-1.205c-0.016-0.394-0.031-0.722-0.045-1.003
		c-0.031-0.479-0.1-0.93-0.207-1.337c-0.094-0.423-0.254-0.792-0.479-1.112c-0.212-0.32-0.494-0.58-0.848-0.773
		c-0.346-0.205-0.787-0.356-1.323-0.428v-0.05c1.056-0.212,1.849-0.694,2.378-1.454c0.529-0.752,0.799-1.65,0.799-2.677
		c0-0.728-0.141-1.354-0.41-1.888c-0.26-0.545-0.611-0.982-1.072-1.313c-0.438-0.351-0.961-0.608-1.572-0.772
		c-0.594-0.166-1.229-0.254-1.896-0.254h-7.461v0.006H617.186L617.186,222.961z"/>
	<path fill="#73797D" d="M634.799,233.834h-1.551c-0.047,1,0.082,1.854,0.387,2.576c0.318,0.709,0.771,1.285,1.35,1.748
		c0.572,0.446,1.273,0.793,2.104,1.016c0.818,0.216,1.711,0.318,2.67,0.318c0.953,0,1.779-0.095,2.467-0.275
		c0.684-0.164,1.256-0.381,1.709-0.658c0.473-0.281,0.836-0.604,1.096-0.952c0.275-0.349,0.479-0.688,0.611-1.022
		c0.154-0.346,0.248-0.67,0.279-0.975c0.041-0.297,0.064-0.539,0.064-0.725c0-0.666-0.113-1.232-0.35-1.704
		c-0.211-0.472-0.516-0.868-0.914-1.181c-0.383-0.334-0.824-0.604-1.348-0.821c-0.496-0.226-1.041-0.413-1.617-0.567l-3.971-0.974
		c-0.336-0.077-0.656-0.175-0.957-0.294c-0.289-0.125-0.547-0.275-0.781-0.475c-0.227-0.195-0.404-0.435-0.543-0.707
		c-0.123-0.289-0.182-0.623-0.182-1c0-0.604,0.111-1.115,0.342-1.521c0.229-0.407,0.521-0.73,0.893-0.977
		c0.385-0.259,0.816-0.438,1.301-0.545c0.504-0.125,1.021-0.183,1.553-0.183c0.58,0,1.127,0.082,1.645,0.249
		c0.531,0.154,0.996,0.386,1.395,0.707c0.402,0.3,0.732,0.693,0.979,1.156c0.258,0.457,0.398,0.99,0.432,1.613h1.555
		c0-0.828-0.168-1.563-0.498-2.181c-0.318-0.635-0.752-1.168-1.299-1.593c-0.555-0.419-1.191-0.739-1.92-0.95
		c-0.73-0.212-1.5-0.313-2.309-0.313c-1.146,0-2.076,0.164-2.807,0.498c-0.729,0.313-1.313,0.709-1.732,1.176
		c-0.412,0.476-0.689,0.978-0.846,1.496c-0.15,0.531-0.227,0.99-0.227,1.39c0,0.635,0.098,1.172,0.293,1.608
		c0.217,0.44,0.486,0.813,0.822,1.112c0.334,0.3,0.725,0.541,1.16,0.726c0.457,0.181,0.922,0.338,1.395,0.457l3.631,0.882
		c0.381,0.092,0.768,0.21,1.164,0.364c0.393,0.136,0.752,0.319,1.064,0.547c0.336,0.228,0.604,0.507,0.807,0.838
		c0.211,0.339,0.316,0.724,0.316,1.177c0,0.597-0.146,1.099-0.436,1.524c-0.285,0.408-0.654,0.748-1.1,1.024
		c-0.422,0.259-0.887,0.447-1.389,0.565c-0.5,0.123-0.965,0.179-1.393,0.179c-0.742,0-1.443-0.063-2.102-0.203
		c-0.652-0.151-1.229-0.396-1.713-0.729c-0.475-0.326-0.846-0.771-1.119-1.334C634.912,235.367,634.783,234.67,634.799,233.834
		L634.799,233.834z"/>
	<polygon fill="#73797D" points="650.221,222.961 650.221,239.17 651.773,239.17 651.773,222.961 	"/>
	<path fill="#73797D" d="M656.832,222.961v16.209h5.635c2.486-0.055,4.352-0.748,5.6-2.063c1.262-1.334,1.893-3.346,1.893-6.042
		c0-2.689-0.631-4.697-1.893-6.02c-1.248-1.323-3.109-2.023-5.6-2.088h-5.635V222.961z M658.385,237.855v-13.574h3.313
		c1.172,0,2.176,0.129,3.018,0.383c0.852,0.246,1.551,0.635,2.1,1.185c0.547,0.546,0.947,1.246,1.205,2.106
		c0.268,0.86,0.395,1.904,0.395,3.111c0,1.217-0.129,2.252-0.395,3.113c-0.258,0.861-0.658,1.568-1.205,2.109
		c-0.549,0.545-1.248,0.94-2.1,1.201c-0.842,0.24-1.846,0.362-3.018,0.362L658.385,237.855L658.385,237.855z"/>
	<path fill="#73797D" d="M676.436,232.82l3.262-8.311l3.146,8.311H676.436L676.436,232.82z M678.895,222.961l-6.549,16.209h1.646
		l1.963-5.035h7.418l1.986,5.035h1.664l-6.391-16.209H678.895L678.895,222.961z"/>
	<path fill="#73797D" d="M690.166,222.961v16.209h5.637c2.48-0.055,4.352-0.748,5.598-2.063c1.264-1.334,1.893-3.346,1.893-6.042
		c0-2.689-0.629-4.697-1.893-6.02c-1.246-1.323-3.113-2.023-5.598-2.088h-5.637V222.961z M691.719,237.855v-13.574h3.313
		c1.17,0,2.176,0.129,3.012,0.383c0.854,0.246,1.551,0.635,2.098,1.185c0.555,0.546,0.953,1.246,1.212,2.106
		c0.263,0.86,0.388,1.904,0.388,3.111c0,1.217-0.129,2.252-0.388,3.113c-0.255,0.861-0.657,1.568-1.212,2.109
		c-0.547,0.545-1.244,0.94-2.098,1.201c-0.834,0.24-1.842,0.362-3.012,0.362L691.719,237.855L691.719,237.855z"/>
	<path fill="#73797D" d="M721.193,222.961v16.209h5.635c2.479-0.055,4.346-0.748,5.594-2.063c1.264-1.334,1.896-3.346,1.896-6.042
		c0-2.689-0.633-4.697-1.896-6.02c-1.248-1.323-3.113-2.023-5.594-2.088h-5.635V222.961z M722.744,237.855v-13.574h3.311
		c1.17,0,2.18,0.129,3.014,0.383c0.852,0.246,1.553,0.635,2.1,1.185c0.547,0.546,0.955,1.246,1.213,2.106
		c0.26,0.86,0.387,1.904,0.387,3.111c0,1.217-0.129,2.252-0.387,3.113c-0.256,0.861-0.666,1.568-1.213,2.109
		c-0.547,0.545-1.248,0.94-2.1,1.201c-0.832,0.24-1.844,0.362-3.014,0.362L722.744,237.855L722.744,237.855z"/>
	<polygon fill="#73797D" points="738.486,222.961 738.486,239.17 749.855,239.17 749.855,237.855 740.039,237.855 740.039,231.457 
		749.123,231.457 749.123,230.139 740.039,230.139 740.039,224.281 749.736,224.281 749.736,222.961 	"/>
	<path fill="#73797D" d="M779.324,227.869h1.557c-0.104-0.847-0.365-1.597-0.775-2.25c-0.396-0.646-0.896-1.195-1.51-1.635
		c-0.592-0.457-1.262-0.799-2.01-1.023c-0.73-0.223-1.479-0.336-2.256-0.336c-1.279,0-2.404,0.231-3.377,0.701
		c-0.957,0.453-1.76,1.078-2.396,1.861c-0.639,0.773-1.121,1.665-1.438,2.682c-0.318,1.012-0.48,2.078-0.48,3.196
		c0,1.117,0.162,2.19,0.48,3.201c0.314,1.017,0.801,1.917,1.438,2.685c0.641,0.772,1.439,1.393,2.396,1.862
		c0.973,0.453,2.098,0.679,3.377,0.679c0.955,0,1.822-0.156,2.602-0.453c0.789-0.303,1.479-0.734,2.055-1.293
		c0.574-0.563,1.053-1.244,1.418-2.039c0.357-0.809,0.6-1.705,0.707-2.701h-1.555c-0.076,0.723-0.254,1.406-0.523,2.041
		c-0.273,0.623-0.631,1.162-1.07,1.636c-0.443,0.472-0.963,0.838-1.58,1.114c-0.604,0.268-1.295,0.402-2.049,0.402
		c-1.078,0-2.01-0.205-2.787-0.604c-0.773-0.412-1.414-0.949-1.918-1.613c-0.484-0.684-0.854-1.447-1.094-2.295
		c-0.229-0.859-0.35-1.73-0.35-2.611c0-0.891,0.119-1.761,0.35-2.609c0.241-0.844,0.605-1.604,1.094-2.266
		c0.504-0.684,1.145-1.229,1.918-1.638c0.777-0.409,1.707-0.608,2.787-0.608c0.592,0,1.158,0.094,1.686,0.268
		c0.553,0.172,1.045,0.419,1.488,0.754c0.459,0.329,0.838,0.752,1.146,1.248C778.963,226.693,779.189,227.25,779.324,227.869
		L779.324,227.869z"/>
	<polygon fill="#73797D" points="785.139,222.961 785.139,239.17 786.691,239.17 786.691,231.318 796.371,231.318 796.371,239.17 
		797.922,239.17 797.922,222.961 796.371,222.961 796.371,229.998 786.691,229.998 786.691,222.961 	"/>
	<polygon fill="#73797D" points="802.98,222.961 802.98,239.17 804.533,239.17 804.533,222.961 	"/>
	<polygon fill="#73797D" points="809.596,222.961 809.596,239.17 820.273,239.17 820.273,237.855 811.148,237.855 811.148,222.961 	
		"/>
	<polygon fill="#73797D" points="823.514,222.961 823.514,239.17 834.877,239.17 834.877,237.855 825.064,237.855 825.064,231.457 
		834.145,231.457 834.145,230.139 825.064,230.139 825.064,224.281 834.764,224.281 834.764,222.961 	"/>
	<polygon fill="#73797D" points="545.049,199.123 545.049,215.334 546.603,215.334 546.603,207.615 554.402,207.615 
		554.402,206.295 546.603,206.295 546.603,200.438 555.39,200.438 555.39,199.123 	"/>
	<path fill="#73797D" d="M559.138,197.828l3.018-3.201h-1.78l-2.396,3.201H559.138L559.138,197.828z M558.543,199.123v16.211h1.554
		v-16.211H558.543L558.543,199.123z"/>
	<path fill="#73797D" d="M565.354,210.004h-1.551c-0.047,0.994,0.082,1.85,0.389,2.561c0.318,0.713,0.77,1.297,1.346,1.749
		c0.58,0.453,1.279,0.796,2.103,1.021c0.821,0.215,1.709,0.315,2.673,0.315c0.962,0,1.777-0.088,2.466-0.269
		c0.688-0.17,1.257-0.387,1.711-0.659c0.472-0.29,0.839-0.606,1.097-0.95c0.272-0.35,0.479-0.691,0.619-1.025
		c0.146-0.344,0.239-0.676,0.271-0.975c0.049-0.305,0.067-0.548,0.067-0.729c0-0.664-0.113-1.23-0.34-1.703
		c-0.217-0.467-0.521-0.861-0.92-1.18c-0.379-0.332-0.824-0.605-1.348-0.818c-0.498-0.227-1.045-0.415-1.617-0.567l-3.973-0.974
		c-0.336-0.075-0.65-0.174-0.957-0.297c-0.289-0.119-0.547-0.276-0.777-0.479c-0.229-0.195-0.408-0.436-0.549-0.707
		c-0.121-0.281-0.18-0.617-0.18-0.992c0-0.611,0.113-1.115,0.34-1.521c0.232-0.408,0.525-0.738,0.895-0.975
		c0.381-0.266,0.813-0.443,1.299-0.547c0.5-0.119,1.021-0.181,1.553-0.181c0.576,0,1.13,0.075,1.646,0.247
		c0.529,0.15,0.998,0.385,1.394,0.705c0.412,0.301,0.733,0.688,0.979,1.154c0.261,0.455,0.397,0.99,0.433,1.605h1.553
		c0-0.824-0.168-1.551-0.5-2.174c-0.318-0.639-0.754-1.163-1.303-1.59c-0.549-0.43-1.185-0.743-1.916-0.951
		c-0.732-0.212-1.5-0.32-2.306-0.32c-1.146,0-2.077,0.168-2.813,0.498c-0.727,0.319-1.303,0.713-1.729,1.184
		c-0.411,0.469-0.692,0.97-0.842,1.498c-0.151,0.525-0.229,0.99-0.229,1.384c0,0.638,0.098,1.173,0.299,1.608
		c0.211,0.438,0.488,0.813,0.822,1.108c0.334,0.306,0.721,0.548,1.164,0.724c0.452,0.184,0.92,0.342,1.389,0.459l3.629,0.894
		c0.382,0.086,0.77,0.206,1.164,0.358c0.396,0.14,0.752,0.32,1.072,0.541c0.336,0.229,0.602,0.515,0.799,0.842
		c0.213,0.334,0.32,0.729,0.32,1.181c0,0.595-0.146,1.101-0.437,1.522c-0.285,0.402-0.652,0.748-1.099,1.02
		c-0.424,0.26-0.887,0.447-1.393,0.568c-0.5,0.123-0.967,0.179-1.395,0.179c-0.742,0-1.441-0.063-2.098-0.202
		c-0.654-0.146-1.226-0.391-1.709-0.725c-0.476-0.332-0.846-0.776-1.123-1.336C565.47,211.529,565.34,210.832,565.354,210.004
		L565.354,210.004z"/>
	<polygon fill="#73797D" points="580.246,199.123 580.246,215.334 581.797,215.334 581.797,199.123 	"/>
	<path fill="#73797D" d="M598.236,204.027h1.553c-0.104-0.848-0.365-1.6-0.773-2.252c-0.396-0.648-0.896-1.189-1.506-1.629
		c-0.596-0.459-1.264-0.8-2.01-1.025c-0.729-0.228-1.482-0.342-2.26-0.342c-1.275,0-2.402,0.232-3.375,0.707
		c-0.959,0.452-1.76,1.072-2.398,1.856c-0.639,0.772-1.119,1.674-1.438,2.685c-0.32,1.018-0.482,2.084-0.482,3.2
		c0,1.119,0.162,2.188,0.482,3.203c0.316,1.01,0.799,1.907,1.438,2.675c0.643,0.78,1.439,1.398,2.398,1.863
		c0.973,0.453,2.1,0.681,3.375,0.681c0.959,0,1.824-0.146,2.604-0.448c0.789-0.306,1.479-0.734,2.057-1.295
		c0.574-0.562,1.045-1.242,1.408-2.039c0.369-0.807,0.605-1.705,0.717-2.707h-1.561c-0.074,0.729-0.248,1.406-0.521,2.047
		c-0.271,0.617-0.637,1.162-1.072,1.636c-0.439,0.47-0.965,0.833-1.578,1.112c-0.606,0.271-1.289,0.399-2.051,0.399
		c-1.078,0-2.006-0.2-2.785-0.606c-0.775-0.403-1.412-0.942-1.918-1.61c-0.49-0.683-0.854-1.442-1.096-2.292
		c-0.23-0.862-0.346-1.732-0.346-2.607c0-0.893,0.111-1.765,0.346-2.609c0.24-0.853,0.604-1.604,1.096-2.272
		c0.5-0.681,1.143-1.228,1.918-1.628c0.779-0.411,1.707-0.611,2.785-0.611c0.596,0,1.155,0.086,1.688,0.271
		c0.553,0.167,1.041,0.414,1.484,0.744c0.459,0.341,0.836,0.753,1.143,1.256C597.869,202.855,598.102,203.408,598.236,204.027
		L598.236,204.027z"/>
	<path fill="#73797D" d="M605.824,208.977l3.26-8.313l3.156,8.313H605.824L605.824,208.977z M608.291,199.123l-6.551,16.211h1.645
		l1.961-5.037h7.42l1.984,5.037h1.672l-6.395-16.211H608.291L608.291,199.123z"/>
	<path fill="#73797D" d="M619.752,210.004h-1.551c-0.047,0.994,0.082,1.85,0.387,2.561c0.32,0.713,0.771,1.297,1.354,1.749
		c0.574,0.453,1.271,0.796,2.098,1.021c0.82,0.215,1.709,0.315,2.672,0.315c0.959,0,1.777-0.088,2.463-0.269
		c0.688-0.17,1.261-0.387,1.713-0.659c0.477-0.29,0.832-0.606,1.1-0.95c0.271-0.35,0.475-0.691,0.609-1.025
		c0.158-0.344,0.244-0.676,0.275-0.975c0.047-0.305,0.063-0.548,0.063-0.729c0-0.664-0.111-1.23-0.342-1.703
		c-0.211-0.467-0.518-0.861-0.911-1.18c-0.386-0.332-0.825-0.605-1.351-0.818c-0.502-0.227-1.043-0.415-1.615-0.567l-3.975-0.974
		c-0.34-0.075-0.656-0.174-0.961-0.297c-0.285-0.119-0.547-0.276-0.773-0.479c-0.229-0.191-0.411-0.436-0.549-0.707
		c-0.121-0.281-0.18-0.617-0.18-0.992c0-0.611,0.112-1.115,0.346-1.521c0.229-0.408,0.521-0.738,0.888-0.975
		c0.382-0.266,0.813-0.443,1.3-0.547c0.506-0.119,1.021-0.181,1.559-0.181c0.578,0,1.125,0.075,1.641,0.247
		c0.537,0.15,1,0.385,1.391,0.705c0.412,0.301,0.736,0.688,0.979,1.154c0.268,0.455,0.404,0.99,0.438,1.605h1.553
		c0-0.824-0.168-1.551-0.502-2.174c-0.32-0.639-0.754-1.163-1.301-1.59c-0.545-0.43-1.188-0.743-1.92-0.951
		c-0.727-0.212-1.498-0.32-2.305-0.32c-1.143,0-2.077,0.168-2.807,0.498c-0.729,0.319-1.31,0.713-1.736,1.184
		c-0.405,0.469-0.689,0.97-0.846,1.498c-0.148,0.525-0.229,0.99-0.229,1.384c0,0.638,0.104,1.173,0.302,1.608
		c0.211,0.438,0.482,0.813,0.816,1.108c0.337,0.306,0.727,0.548,1.166,0.724c0.453,0.184,0.919,0.342,1.395,0.459l3.631,0.894
		c0.377,0.086,0.77,0.206,1.162,0.358c0.393,0.14,0.748,0.32,1.069,0.541c0.332,0.229,0.604,0.515,0.798,0.842
		c0.217,0.334,0.316,0.729,0.316,1.181c0,0.595-0.145,1.101-0.434,1.522c-0.285,0.402-0.654,0.748-1.095,1.02
		c-0.427,0.26-0.892,0.447-1.39,0.568c-0.506,0.123-0.971,0.179-1.393,0.179c-0.748,0-1.449-0.063-2.104-0.202
		c-0.653-0.146-1.227-0.391-1.711-0.725c-0.475-0.332-0.846-0.776-1.12-1.336C619.867,211.527,619.744,210.832,619.752,210.004
		L619.752,210.004z"/>
	<polygon fill="#73797D" points="650.139,208.656 650.139,215.334 651.691,215.334 651.691,208.656 658.127,199.123 
		656.279,199.123 650.939,207.342 645.576,199.123 643.75,199.123 	"/>
	<polygon fill="#73797D" points="671.693,199.123 671.693,215.334 673.244,215.334 673.244,201.33 673.291,201.33 678.881,215.334 
		680.344,215.334 685.912,201.33 685.953,201.33 685.953,215.334 687.506,215.334 687.506,199.123 685.229,199.123 679.611,213.338 
		673.977,199.123 	"/>
	<path fill="#73797D" d="M694.178,208.977l3.271-8.313l3.145,8.313H694.178L694.178,208.977z M696.648,199.123l-6.555,16.211h1.646
		l1.965-5.037h7.414l1.984,5.037h1.67l-6.395-16.211H696.648L696.648,199.123z"/>
	<polygon fill="#73797D" points="704.094,199.123 704.094,200.438 709.756,200.438 709.756,215.334 711.307,215.334 
		711.307,200.438 716.99,200.438 716.99,199.123 	"/>
	<polygon fill="#73797D" points="719.646,199.123 719.646,215.334 731.016,215.334 731.016,214.019 721.201,214.019 
		721.201,207.615 730.283,207.615 730.283,206.295 721.201,206.295 721.201,200.438 730.9,200.438 730.9,199.123 	"/>
	<polygon fill="#73797D" points="734.264,199.123 734.264,215.334 735.814,215.334 735.814,201.33 735.861,201.33 741.451,215.334 
		742.91,215.334 748.484,201.33 748.529,201.33 748.529,215.334 750.082,215.334 750.082,199.123 747.799,199.123 742.184,213.338 
		736.547,199.123 	"/>
	<path fill="#73797D" d="M759.813,197.828l3.014-3.201h-1.779l-2.396,3.201H759.813L759.813,197.828z M756.754,208.977l3.266-8.313
		l3.148,8.313H756.754L756.754,208.977z M759.221,199.123l-6.553,16.211h1.646l1.963-5.037h7.418l1.98,5.037h1.672l-6.395-16.211
		H759.221L759.221,199.123z"/>
	<polygon fill="#73797D" points="768.217,199.123 768.217,200.438 773.879,200.438 773.879,215.334 775.432,215.334 
		775.432,200.438 781.113,200.438 781.113,199.123 	"/>
	<polygon fill="#73797D" points="783.887,199.123 783.887,215.334 785.439,215.334 785.439,199.123 	"/>
	<path fill="#73797D" d="M801.877,204.027h1.553c-0.104-0.848-0.357-1.6-0.771-2.252c-0.396-0.648-0.896-1.189-1.506-1.629
		c-0.598-0.459-1.268-0.8-2.016-1.025c-0.729-0.228-1.479-0.342-2.256-0.342c-1.273,0-2.398,0.232-3.377,0.707
		c-0.957,0.452-1.758,1.072-2.395,1.856c-0.643,0.772-1.121,1.674-1.439,2.685c-0.318,1.018-0.479,2.084-0.479,3.2
		c0,1.119,0.158,2.188,0.479,3.203c0.318,1.01,0.799,1.907,1.439,2.675c0.637,0.78,1.438,1.398,2.395,1.863
		c0.977,0.453,2.104,0.681,3.377,0.681c0.957,0,1.822-0.146,2.604-0.448c0.789-0.306,1.477-0.734,2.053-1.295
		c0.578-0.562,1.047-1.242,1.412-2.039c0.363-0.807,0.604-1.705,0.713-2.707h-1.553c-0.078,0.729-0.252,1.406-0.527,2.047
		c-0.271,0.617-0.631,1.162-1.067,1.636c-0.442,0.47-0.972,0.833-1.581,1.112c-0.605,0.271-1.291,0.399-2.051,0.399
		c-1.082,0-2.014-0.2-2.786-0.606c-0.776-0.403-1.411-0.942-1.919-1.61c-0.482-0.683-0.852-1.442-1.098-2.292
		c-0.229-0.862-0.34-1.732-0.34-2.607c0-0.893,0.111-1.765,0.34-2.609c0.246-0.853,0.613-1.604,1.098-2.272
		c0.508-0.681,1.143-1.228,1.919-1.628c0.772-0.411,1.704-0.611,2.786-0.611c0.596,0,1.158,0.086,1.688,0.271
		c0.551,0.167,1.043,0.414,1.485,0.744c0.459,0.341,0.837,0.753,1.14,1.256C801.516,202.855,801.742,203.408,801.877,204.027
		L801.877,204.027z"/>
	<path fill="#73797D" d="M809.467,208.977l3.268-8.313l3.146,8.313H809.467L809.467,208.977z M811.926,199.123l-6.549,16.211h1.646
		l1.963-5.037h7.416l1.984,5.037h1.67l-6.395-16.211H811.926L811.926,199.123z"/>
	<path fill="#73797D" d="M823.395,210.004h-1.553c-0.047,0.994,0.082,1.85,0.385,2.561c0.324,0.713,0.775,1.297,1.355,1.749
		c0.578,0.453,1.275,0.796,2.098,1.021c0.82,0.215,1.709,0.315,2.672,0.315c0.959,0,1.777-0.088,2.467-0.269
		c0.686-0.17,1.254-0.387,1.711-0.659c0.469-0.29,0.832-0.606,1.094-0.95c0.273-0.35,0.479-0.691,0.615-1.025
		c0.15-0.344,0.246-0.676,0.273-0.975c0.047-0.305,0.068-0.548,0.068-0.729c0-0.664-0.113-1.23-0.344-1.703
		c-0.215-0.467-0.516-0.861-0.912-1.18c-0.381-0.332-0.828-0.605-1.346-0.818c-0.506-0.227-1.049-0.415-1.619-0.567l-3.979-0.974
		c-0.336-0.075-0.653-0.174-0.957-0.297c-0.289-0.119-0.547-0.276-0.773-0.479c-0.229-0.195-0.408-0.436-0.543-0.707
		c-0.127-0.281-0.188-0.617-0.188-0.992c0-0.611,0.113-1.115,0.349-1.521c0.228-0.408,0.521-0.738,0.888-0.975
		c0.381-0.266,0.813-0.443,1.305-0.547c0.498-0.119,1.016-0.181,1.551-0.181c0.578,0,1.125,0.075,1.643,0.247
		c0.53,0.15,0.994,0.385,1.393,0.705c0.41,0.301,0.734,0.688,0.982,1.154c0.26,0.455,0.4,0.99,0.432,1.605h1.553
		c0-0.824-0.168-1.551-0.502-2.174c-0.316-0.639-0.754-1.163-1.299-1.59c-0.547-0.43-1.186-0.743-1.92-0.951
		c-0.727-0.212-1.5-0.32-2.305-0.32c-1.145,0-2.078,0.168-2.813,0.498c-0.725,0.319-1.303,0.713-1.729,1.184
		c-0.408,0.469-0.691,0.97-0.85,1.498c-0.146,0.525-0.227,0.99-0.227,1.384c0,0.638,0.098,1.173,0.301,1.608
		c0.211,0.438,0.484,0.813,0.818,1.108c0.338,0.306,0.723,0.548,1.166,0.724c0.453,0.184,0.918,0.342,1.393,0.459l3.629,0.894
		c0.377,0.086,0.771,0.206,1.16,0.358c0.396,0.14,0.758,0.32,1.07,0.541c0.336,0.229,0.604,0.515,0.801,0.842
		c0.219,0.334,0.318,0.729,0.318,1.181c0,0.595-0.146,1.101-0.431,1.522c-0.289,0.402-0.655,0.748-1.097,1.02
		c-0.428,0.26-0.893,0.447-1.393,0.568c-0.504,0.123-0.971,0.179-1.395,0.179c-0.748,0-1.448-0.063-2.098-0.202
		c-0.654-0.146-1.229-0.391-1.713-0.725c-0.477-0.332-0.842-0.776-1.123-1.336C823.514,211.529,823.379,210.832,823.395,210.004
		L823.395,210.004z"/>
	<polygon fill="#73797D" points="545.049,175.285 545.049,191.496 546.603,191.496 546.603,183.772 554.402,183.772 
		554.402,182.463 546.603,182.463 546.603,176.601 555.39,176.601 555.39,175.285 	"/>
	<path fill="#73797D" d="M559.945,185.139l3.264-8.307l3.148,8.307H559.945L559.945,185.139z M562.41,175.285l-6.549,16.211h1.641
		l1.965-5.041h7.421l1.983,5.041h1.668l-6.395-16.211H562.41L562.41,175.285z"/>
	<path fill="#73797D" d="M585.521,180.189h1.551c-0.104-0.852-0.363-1.6-0.773-2.249c-0.393-0.649-0.895-1.194-1.502-1.634
		c-0.596-0.454-1.268-0.797-2.01-1.023c-0.731-0.227-1.484-0.34-2.26-0.34c-1.277,0-2.404,0.231-3.375,0.709
		c-0.959,0.448-1.76,1.063-2.396,1.861c-0.641,0.768-1.121,1.665-1.438,2.676c-0.319,1.012-0.481,2.083-0.481,3.202
		c0,1.118,0.162,2.187,0.481,3.196c0.315,1.021,0.8,1.908,1.438,2.687c0.641,0.771,1.438,1.388,2.396,1.861
		c0.971,0.448,2.098,0.681,3.375,0.681c0.957,0,1.82-0.154,2.602-0.453c0.791-0.306,1.477-0.738,2.051-1.295
		c0.578-0.563,1.053-1.242,1.416-2.044c0.369-0.799,0.604-1.704,0.709-2.698h-1.553c-0.074,0.726-0.252,1.404-0.525,2.039
		c-0.271,0.615-0.631,1.166-1.066,1.635c-0.439,0.471-0.968,0.838-1.58,1.113c-0.605,0.274-1.289,0.406-2.05,0.406
		c-1.077,0-2.009-0.199-2.786-0.613c-0.773-0.402-1.412-0.938-1.919-1.604c-0.483-0.684-0.854-1.444-1.098-2.297
		c-0.229-0.858-0.345-1.729-0.345-2.606c0-0.896,0.115-1.764,0.345-2.606c0.243-0.854,0.61-1.604,1.098-2.273
		c0.503-0.682,1.146-1.229,1.919-1.632c0.777-0.407,1.706-0.613,2.786-0.613c0.597,0,1.157,0.093,1.688,0.274
		c0.553,0.168,1.049,0.418,1.486,0.748c0.459,0.334,0.834,0.744,1.143,1.248C585.158,179.014,585.387,179.565,585.521,180.189
		L585.521,180.189z"/>
	<path fill="#73797D" d="M591.109,175.285v10.375c0,0.834,0.109,1.629,0.342,2.381c0.242,0.744,0.615,1.395,1.119,1.955
		c0.516,0.563,1.17,1.013,1.963,1.342c0.805,0.313,1.773,0.479,2.896,0.479c1.145,0,2.107-0.165,2.9-0.479
		c0.807-0.329,1.463-0.777,1.961-1.342c0.516-0.563,0.891-1.211,1.117-1.955c0.246-0.752,0.369-1.547,0.369-2.381v-10.375h-1.559
		v10.033c0,0.939-0.104,1.738-0.314,2.408c-0.209,0.648-0.521,1.188-0.936,1.613c-0.408,0.402-0.918,0.707-1.506,0.908
		c-0.596,0.181-1.271,0.271-2.037,0.271c-0.738,0-1.412-0.088-2.006-0.271c-0.596-0.201-1.094-0.506-1.506-0.908
		c-0.412-0.428-0.723-0.965-0.938-1.613c-0.211-0.67-0.314-1.469-0.314-2.408v-10.033H591.109L591.109,175.285z"/>
	<polygon fill="#73797D" points="608.492,175.285 608.492,191.496 619.176,191.496 619.176,190.177 610.045,190.177 
		610.045,175.285 	"/>
	<polygon fill="#73797D" points="618.506,175.285 618.506,176.601 624.162,176.601 624.162,191.496 625.717,191.496 
		625.717,176.601 631.4,176.601 631.4,175.285 	"/>
	<path fill="#73797D" d="M635.273,185.139l3.264-8.307l3.15,8.307H635.273L635.273,185.139z M637.738,175.285l-6.549,16.211h1.641
		l1.965-5.041h7.416l1.99,5.041h1.666l-6.389-16.211H637.738L637.738,175.285z"/>
	<path fill="#73797D" d="M648.938,175.285v16.211h5.639c2.479-0.06,4.346-0.744,5.594-2.063c1.264-1.33,1.895-3.352,1.895-6.038
		c0-2.692-0.631-4.694-1.895-6.019c-1.248-1.338-3.115-2.025-5.594-2.09h-5.639V175.285z M650.49,190.177v-13.579h3.311
		c1.17,0,2.174,0.132,3.01,0.384c0.854,0.245,1.557,0.642,2.104,1.183c0.551,0.545,0.953,1.25,1.211,2.107
		c0.262,0.866,0.387,1.905,0.387,3.116c0,1.208-0.129,2.247-0.387,3.11c-0.258,0.857-0.66,1.566-1.211,2.107
		c-0.547,0.547-1.248,0.947-2.104,1.208c-0.83,0.241-1.838,0.358-3.01,0.358L650.49,190.177L650.49,190.177z"/>
	<path fill="#73797D" d="M679.545,175.285v16.211h5.635c2.486-0.06,4.352-0.744,5.6-2.063c1.266-1.33,1.893-3.352,1.893-6.038
		c0-2.692-0.629-4.694-1.893-6.019c-1.248-1.338-3.109-2.025-5.6-2.09h-5.635V175.285z M681.098,190.177v-13.579h3.313
		c1.172,0,2.178,0.132,3.02,0.384c0.85,0.245,1.555,0.642,2.102,1.183c0.545,0.545,0.943,1.25,1.207,2.107
		c0.262,0.866,0.383,1.905,0.383,3.116c0,1.208-0.123,2.247-0.383,3.11c-0.264,0.857-0.662,1.566-1.207,2.107
		c-0.547,0.547-1.252,0.947-2.102,1.208c-0.84,0.241-1.846,0.358-3.02,0.358L681.098,190.177L681.098,190.177z"/>
	<polygon fill="#73797D" points="696.771,175.285 696.771,191.496 708.137,191.496 708.137,190.177 698.324,190.177 
		698.324,183.772 707.408,183.772 707.408,182.463 698.324,182.463 698.324,176.601 708.023,176.601 708.023,175.285 	"/>
	<path fill="#73797D" d="M737.197,180.189h1.553c-0.109-0.852-0.367-1.6-0.779-2.249c-0.391-0.649-0.895-1.194-1.506-1.634
		c-0.594-0.454-1.264-0.797-2.006-1.023c-0.732-0.227-1.484-0.34-2.262-0.34c-1.277,0-2.402,0.231-3.377,0.709
		c-0.955,0.448-1.758,1.063-2.396,1.861c-0.635,0.768-1.121,1.665-1.434,2.676c-0.318,1.012-0.486,2.083-0.486,3.202
		c0,1.118,0.168,2.187,0.486,3.196c0.313,1.021,0.799,1.908,1.434,2.687c0.639,0.771,1.439,1.388,2.396,1.861
		c0.975,0.448,2.1,0.681,3.377,0.681c0.957,0,1.824-0.154,2.602-0.453c0.795-0.306,1.48-0.738,2.053-1.295
		c0.578-0.563,1.055-1.242,1.418-2.044c0.365-0.799,0.602-1.704,0.707-2.698h-1.553c-0.078,0.726-0.252,1.404-0.521,2.039
		c-0.273,0.615-0.627,1.166-1.07,1.635c-0.439,0.471-0.965,0.838-1.576,1.113c-0.605,0.274-1.293,0.406-2.055,0.406
		c-1.076,0-2.008-0.199-2.785-0.613c-0.773-0.402-1.414-0.938-1.914-1.604c-0.49-0.684-0.854-1.444-1.098-2.297
		c-0.23-0.858-0.344-1.729-0.344-2.606c0-0.896,0.111-1.764,0.344-2.606c0.238-0.854,0.604-1.604,1.098-2.273
		c0.5-0.682,1.141-1.229,1.914-1.632c0.777-0.407,1.707-0.613,2.785-0.613c0.594,0,1.158,0.093,1.689,0.274
		c0.545,0.168,1.043,0.418,1.486,0.748c0.453,0.334,0.834,0.744,1.139,1.248C736.83,179.014,737.057,179.565,737.197,180.189
		L737.197,180.189z"/>
	<polygon fill="#73797D" points="743.055,175.285 743.055,191.496 744.605,191.496 744.605,175.285 	"/>
	<polygon fill="#73797D" points="749.598,175.285 749.598,191.496 760.963,191.496 760.963,190.177 751.15,190.177 751.15,183.772 
		760.23,183.772 760.23,182.463 751.15,182.463 751.15,176.601 760.848,176.601 760.848,175.285 	"/>
	<polygon fill="#73797D" points="764.701,175.285 764.701,191.496 766.252,191.496 766.252,177.781 766.293,177.781 
		775.791,191.496 777.525,191.496 777.525,175.285 775.973,175.285 775.973,188.994 775.93,188.994 766.434,175.285 	"/>
	<path fill="#73797D" d="M794.291,180.189h1.553c-0.104-0.852-0.357-1.6-0.771-2.249c-0.396-0.649-0.896-1.194-1.506-1.634
		c-0.596-0.454-1.268-0.797-2.014-1.023c-0.725-0.227-1.479-0.34-2.256-0.34c-1.275,0-2.4,0.231-3.379,0.709
		c-0.955,0.448-1.756,1.063-2.395,1.861c-0.641,0.768-1.121,1.665-1.438,2.676c-0.32,1.012-0.48,2.083-0.48,3.202
		c0,1.118,0.16,2.187,0.48,3.196c0.316,1.021,0.799,1.908,1.438,2.687c0.639,0.771,1.438,1.388,2.395,1.861
		c0.978,0.448,2.103,0.681,3.379,0.681c0.957,0,1.822-0.154,2.604-0.453c0.791-0.306,1.477-0.738,2.051-1.295
		c0.578-0.563,1.053-1.242,1.418-2.044c0.361-0.799,0.598-1.704,0.707-2.698h-1.553c-0.076,0.726-0.252,1.404-0.525,2.039
		c-0.273,0.615-0.631,1.166-1.068,1.635c-0.443,0.471-0.965,0.838-1.574,1.113c-0.611,0.274-1.299,0.406-2.057,0.406
		c-1.078,0-2.008-0.199-2.787-0.613c-0.771-0.402-1.412-0.938-1.918-1.604c-0.484-0.684-0.852-1.444-1.094-2.297
		c-0.227-0.858-0.346-1.729-0.346-2.606c0-0.896,0.119-1.764,0.346-2.606c0.242-0.854,0.607-1.604,1.094-2.273
		c0.506-0.682,1.146-1.229,1.918-1.632c0.779-0.407,1.707-0.613,2.787-0.613c0.598,0,1.156,0.093,1.688,0.274
		c0.553,0.168,1.045,0.418,1.486,0.748c0.459,0.334,0.842,0.744,1.146,1.248C793.926,179.014,794.158,179.565,794.291,180.189
		L794.291,180.189z"/>
	<polygon fill="#73797D" points="800.154,175.285 800.154,191.496 801.707,191.496 801.707,175.285 	"/>
	<path fill="#73797D" d="M809.004,185.139l3.264-8.307l3.15,8.307H809.004L809.004,185.139z M811.467,175.285l-6.549,16.211h1.646
		l1.961-5.041h7.418l1.986,5.041h1.668l-6.395-16.211H811.467L811.467,175.285z"/>
	<path fill="#73797D" d="M823.395,186.158h-1.553c-0.047,1.002,0.082,1.854,0.385,2.563c0.324,0.715,0.775,1.3,1.355,1.748
		c0.578,0.458,1.275,0.794,2.098,1.024c0.82,0.213,1.709,0.318,2.672,0.318c0.959,0,1.777-0.1,2.467-0.273
		c0.686-0.162,1.254-0.383,1.711-0.654c0.469-0.286,0.832-0.605,1.094-0.951c0.273-0.35,0.479-0.693,0.615-1.023
		c0.15-0.351,0.246-0.676,0.273-0.979c0.047-0.303,0.068-0.547,0.068-0.725c0-0.66-0.113-1.231-0.344-1.698
		c-0.215-0.476-0.516-0.864-0.912-1.181c-0.381-0.334-0.828-0.606-1.346-0.819c-0.506-0.229-1.049-0.419-1.619-0.573l-3.979-0.969
		c-0.336-0.083-0.653-0.174-0.957-0.301c-0.289-0.117-0.547-0.275-0.773-0.479c-0.229-0.194-0.408-0.429-0.543-0.704
		c-0.127-0.287-0.188-0.613-0.188-0.996c0-0.604,0.113-1.111,0.349-1.523c0.228-0.403,0.521-0.729,0.888-0.971
		c0.381-0.264,0.813-0.438,1.305-0.549c0.498-0.119,1.016-0.182,1.551-0.182c0.578,0,1.125,0.087,1.643,0.255
		c0.53,0.147,0.994,0.386,1.393,0.701c0.41,0.304,0.734,0.688,0.982,1.159c0.26,0.447,0.4,0.988,0.432,1.609h1.553
		c0-0.832-0.168-1.562-0.502-2.186c-0.316-0.633-0.754-1.158-1.299-1.584c-0.547-0.428-1.186-0.742-1.92-0.958
		c-0.727-0.212-1.5-0.313-2.305-0.313c-1.145,0-2.078,0.166-2.813,0.496c-0.725,0.32-1.303,0.715-1.729,1.182
		c-0.408,0.472-0.691,0.969-0.85,1.504c-0.146,0.525-0.227,0.988-0.227,1.379c0,0.636,0.098,1.172,0.301,1.607
		c0.211,0.438,0.484,0.813,0.818,1.114c0.338,0.304,0.723,0.548,1.166,0.728c0.453,0.188,0.918,0.33,1.393,0.453l3.629,0.889
		c0.377,0.094,0.771,0.212,1.16,0.359c0.396,0.145,0.758,0.319,1.07,0.547c0.336,0.229,0.604,0.506,0.801,0.842
		c0.219,0.328,0.318,0.729,0.318,1.182c0,0.588-0.146,1.1-0.431,1.521c-0.289,0.405-0.655,0.748-1.097,1.021
		c-0.428,0.259-0.893,0.442-1.393,0.565c-0.504,0.119-0.971,0.183-1.395,0.183c-0.748,0-1.448-0.063-2.098-0.201
		c-0.654-0.151-1.229-0.396-1.713-0.728c-0.477-0.33-0.842-0.782-1.123-1.342C823.514,187.687,823.379,186.99,823.395,186.158
		L823.395,186.158z"/>
</g>
<path fill="#73797D" d="M350.817,142.325c0,0,11.85-1.824,20.393,6.535c0,0,12.589-22.366,39.357-29.446L401,112l4.147-13.072
	C405.147,98.929,370.667,105.667,350.817,142.325z"/>
<path fill="#60AF27" d="M409.667,108.167l5.57-11.332c0,0,37.788-7.11,67.792,18.629c18.305,15.703,29.221,34.536,31.65,59.655
	c2.303,23.806-4.648,49.447-26.364,71.186l-1.751-11.788l-12.734-2.524c0,0,23.204-20.615,20.574-52.871
	C491.5,143.5,462.482,113.5,419.807,117.61L409.667,108.167z"/>
<path fill="#73797D" d="M366.727,245.435h36.201c0,0,31.072,14.562,62.601-6.731l14.565,1.829l1.002,11.963
	c0,0-20.346,18.026-53.129,18.026C399.084,270.521,378.454,256.873,366.727,245.435z"/>
<g>
	<text transform="matrix(0.9663 0 0 1 545.8887 132.6567)"><tspan x="0" y="0" fill="#60AF27" font-family="'HelveticaNeue'" font-size="27.1581">Oficina de Ingeniería</tspan><tspan x="0" y="29" fill="#60AF27" font-family="'HelveticaNeue'" font-size="27.1581">para la Sustentabilidad</tspan></text>
</g>
</svg>
