<?xml version="1.0" encoding="UTF-8" ?>
<!DOCTYPE svg PUBLIC "-//W3C//DTD SVG 1.1//EN" "http://www.w3.org/Graphics/SVG/1.1/DTD/svg11.dtd">
<svg width="1800pt" height="800pt" viewBox="0 0 1800 800" version="1.1" xmlns="http://www.w3.org/2000/svg">
<g id="#191919ff">
<path fill="#191919" opacity="1.00" d=" M 563.82 148.51 C 579.53 148.49 595.24 148.50 610.95 148.50 C 619.24 148.44 627.66 151.54 633.50 157.53 C 638.50 162.54 641.22 169.90 640.10 176.96 C 639.38 182.26 636.46 186.98 632.74 190.72 C 637.67 193.95 641.98 198.44 643.90 204.10 C 646.41 210.96 645.10 218.95 640.82 224.83 C 635.22 232.66 625.52 236.92 616.02 236.99 C 598.62 237.01 581.22 237.00 563.82 236.99 C 563.81 207.50 563.81 178.00 563.82 148.51 M 588.01 166.69 C 587.99 172.92 588.00 179.14 588.00 185.37 C 594.67 185.30 601.34 185.53 608.01 185.26 C 612.81 185.00 617.56 181.08 617.62 176.06 C 617.76 170.92 612.82 166.90 607.95 166.75 C 601.30 166.59 594.65 166.74 588.01 166.69 M 588.01 200.18 C 587.99 206.41 587.99 212.65 588.01 218.88 C 596.01 218.81 604.01 219.00 612.01 218.79 C 617.05 218.59 622.24 214.39 621.85 209.02 C 621.65 204.03 616.82 200.31 612.04 200.22 C 604.03 200.12 596.02 200.23 588.01 200.18 Z" />
<path fill="#191919" opacity="1.00" d=" M 649.82 148.63 C 672.84 148.62 695.86 148.62 718.88 148.63 C 718.87 155.02 718.88 161.42 718.87 167.81 C 704.70 167.84 690.54 167.77 676.37 167.85 C 676.42 173.00 676.26 178.15 676.47 183.30 C 688.37 183.19 700.27 183.28 712.18 183.25 C 712.19 189.64 712.19 196.04 712.18 202.43 C 700.25 202.45 688.31 202.43 676.38 202.44 C 676.37 207.58 676.38 212.72 676.37 217.86 C 690.97 217.90 705.58 217.86 720.18 217.88 C 720.20 224.07 720.16 230.27 720.20 236.46 C 731.52 207.50 742.68 178.48 753.96 149.51 C 763.55 149.50 773.14 149.47 782.73 149.52 C 793.95 178.71 805.26 207.87 816.49 237.05 C 807.99 237.07 799.49 237.06 790.98 237.06 C 788.79 231.15 786.42 225.31 784.42 219.33 C 773.70 218.99 762.98 219.28 752.27 219.19 C 750.08 225.14 747.88 231.08 745.71 237.04 C 713.74 236.96 681.78 237.02 649.82 236.99 C 649.81 207.54 649.81 178.09 649.82 148.63 M 759.16 200.86 C 765.27 200.89 771.38 200.87 777.49 200.87 C 774.45 192.67 771.39 184.47 768.33 176.28 C 765.25 184.46 762.23 192.67 759.16 200.86 Z" />
<path fill="#191919" opacity="1.00" d=" M 814.82 148.76 C 822.98 148.74 831.14 148.74 839.31 148.76 C 839.34 165.53 839.27 182.30 839.34 199.07 C 839.37 205.34 842.41 212.01 848.32 214.75 C 855.13 217.57 864.18 217.14 869.49 211.50 C 872.96 207.93 874.51 202.89 874.49 197.99 C 874.53 181.58 874.47 165.16 874.51 148.75 C 882.65 148.75 890.79 148.74 898.94 148.76 C 898.95 165.17 898.93 181.58 898.94 197.99 C 898.93 202.34 899.19 206.79 897.97 211.03 C 895.34 221.25 887.36 229.49 877.94 233.87 C 868.94 238.18 858.64 239.03 848.85 237.77 C 838.30 236.30 828.08 231.07 821.53 222.56 C 817.20 217.01 814.71 210.03 814.81 202.97 C 814.81 184.90 814.80 166.83 814.82 148.76 Z" />
<path fill="#191919" opacity="1.00" d=" M 926.63 156.76 C 947.16 144.06 975.56 145.86 994.16 161.33 C 988.41 166.69 982.25 171.59 976.33 176.77 C 964.86 167.27 946.08 167.79 935.94 179.01 C 929.12 186.00 928.35 197.85 934.55 205.48 C 944.18 218.18 964.32 219.35 976.33 209.37 C 982.29 214.46 988.27 219.53 994.20 224.67 C 972.83 242.87 937.75 242.12 917.63 222.35 C 908.78 213.80 903.64 201.25 905.13 188.90 C 906.49 175.48 915.27 163.64 926.63 156.76 Z" />
<path fill="#191919" opacity="1.00" d=" M 998.82 148.63 C 1007.60 148.62 1016.39 148.62 1025.18 148.63 C 1025.19 159.58 1025.19 170.53 1025.18 181.49 C 1035.00 181.53 1044.82 181.46 1054.64 181.52 C 1054.75 170.56 1054.65 159.59 1054.69 148.63 C 1063.48 148.62 1072.27 148.62 1081.05 148.63 C 1081.07 178.11 1081.06 207.58 1081.06 237.06 C 1072.27 237.07 1063.48 237.07 1054.69 237.05 C 1054.68 226.06 1054.68 215.07 1054.69 204.07 C 1044.85 204.05 1035.02 204.06 1025.18 204.07 C 1025.18 215.07 1025.19 226.06 1025.18 237.06 C 1016.39 237.07 1007.60 237.07 998.82 237.05 C 998.81 207.58 998.81 178.11 998.82 148.63 Z" />
<path fill="#191919" opacity="1.00" d=" M 1088.82 148.63 C 1111.84 148.62 1134.85 148.62 1157.87 148.63 C 1157.87 155.02 1157.88 161.42 1157.87 167.81 C 1143.70 167.83 1129.54 167.78 1115.37 167.84 C 1115.43 173.00 1115.23 178.16 1115.49 183.31 C 1127.38 183.16 1139.27 183.29 1151.17 183.24 C 1151.20 189.64 1151.18 196.03 1151.18 202.43 C 1139.25 202.45 1127.31 202.43 1115.38 202.44 C 1115.36 207.58 1115.38 212.72 1115.37 217.86 C 1129.97 217.89 1144.58 217.86 1159.18 217.88 C 1159.19 224.25 1159.18 230.62 1159.18 236.99 C 1135.73 237.00 1112.27 237.00 1088.82 237.06 C 1088.81 207.58 1088.81 178.11 1088.82 148.63 Z" />
<path fill="#191919" opacity="1.00" d=" M 1167.82 148.63 C 1191.82 148.62 1215.82 148.62 1239.82 148.63 C 1239.81 155.03 1239.82 161.42 1239.81 167.81 C 1224.60 167.83 1209.40 167.80 1194.19 167.82 C 1194.18 172.96 1194.18 178.10 1194.19 183.24 C 1206.37 183.26 1218.56 183.24 1230.75 183.25 C 1230.75 189.64 1230.74 196.03 1230.75 202.43 C 1218.57 202.45 1206.38 202.43 1194.20 202.44 C 1194.17 213.96 1194.20 225.47 1194.18 236.99 C 1185.39 237.00 1176.60 237.00 1167.82 236.99 C 1167.81 207.54 1167.81 178.09 1167.82 148.63 Z" />
<path fill="#191919" opacity="1.00" d=" M 262.87 256.82 C 290.52 253.53 319.80 256.61 344.33 270.58 C 367.79 283.44 385.02 306.31 392.39 331.88 C 398.46 353.00 398.61 375.58 394.52 397.09 C 390.27 417.86 381.53 437.49 370.65 455.60 C 362.81 468.41 354.25 480.87 344.10 491.96 C 323.21 514.73 296.97 531.98 269.25 545.30 C 229.84 563.80 185.74 569.61 142.56 569.40 C 138.41 559.86 134.10 549.62 125.32 543.39 C 154.57 470.78 183.82 398.18 213.05 325.57 C 204.00 330.58 194.63 335.50 184.22 336.86 C 178.76 323.60 176.40 309.21 176.61 294.90 C 186.08 288.94 195.46 282.85 204.88 276.81 C 212.36 272.15 219.78 267.19 228.14 264.20 C 239.28 260.04 251.08 258.06 262.87 256.82 M 277.26 315.44 C 251.69 380.30 226.03 445.13 200.43 509.98 C 219.70 507.18 238.98 502.52 256.37 493.52 C 270.60 486.20 284.19 476.99 294.37 464.48 C 303.88 453.34 311.40 440.65 317.30 427.27 C 325.00 410.08 335.03 393.27 336.68 374.10 C 338.41 359.38 335.00 343.44 324.58 332.43 C 312.86 319.16 294.11 315.88 277.26 315.44 Z" />
<path fill="#191919" opacity="1.00" d=" M 752.73 261.75 C 754.70 260.06 757.53 260.08 759.99 259.76 C 769.24 259.21 779.34 260.17 786.93 266.02 C 791.81 269.75 793.76 276.09 793.42 282.06 C 708.43 377.58 623.45 473.12 538.47 568.65 C 538.16 568.87 537.52 569.31 537.20 569.54 C 531.81 569.35 526.47 567.93 521.74 565.33 C 517.33 563.10 513.46 559.73 508.58 558.56 C 504.71 557.38 500.15 556.85 497.41 553.56 C 495.39 551.14 496.08 547.84 496.09 544.96 C 497.21 521.68 501.46 498.70 505.81 475.85 C 511.04 449.75 516.66 423.73 523.23 397.94 C 527.58 380.21 533.59 362.97 538.57 345.43 C 542.20 333.15 545.58 320.80 549.75 308.70 C 552.27 301.74 554.93 294.54 559.90 288.91 C 565.88 282.94 574.46 280.59 582.58 279.31 C 592.11 278.26 602.85 278.10 610.74 284.42 C 596.96 342.03 583.27 399.66 569.60 457.30 C 594.39 430.17 618.78 402.68 643.73 375.69 C 679.35 337.03 715.73 299.08 752.73 261.75 Z" />
<path fill="#191919" opacity="1.00" d=" M 868.95 271.13 C 899.96 267.78 931.01 264.77 961.98 260.99 C 967.05 260.44 972.58 260.31 977.19 262.82 C 981.16 265.47 982.02 270.58 983.49 274.80 C 985.74 276.34 988.15 277.80 989.88 279.98 C 992.84 283.60 993.84 288.31 996.28 292.24 C 995.45 295.17 994.52 298.06 993.74 301.00 C 963.60 308.36 933.61 316.48 903.05 321.99 C 893.73 323.80 884.36 325.33 875.00 326.90 C 867.41 342.54 859.86 358.20 852.28 373.86 C 878.29 371.71 904.29 369.63 930.29 367.40 C 933.08 369.79 935.47 372.78 936.45 376.38 C 937.82 380.13 936.53 384.56 939.05 387.93 C 943.08 394.45 947.29 401.61 946.03 409.62 C 915.60 417.75 884.97 425.42 853.86 430.51 C 844.94 431.85 835.96 432.94 826.93 433.12 C 817.49 447.73 808.01 462.34 799.36 477.43 C 793.02 488.74 787.37 500.52 783.69 512.98 C 807.44 508.83 830.95 502.99 855.03 500.97 C 874.67 499.24 894.99 499.47 913.74 506.25 C 919.27 516.40 917.50 528.23 919.30 539.23 C 917.86 541.41 916.37 543.56 914.86 545.70 C 854.18 554.88 793.50 564.12 732.82 573.32 C 730.75 571.69 728.70 570.05 726.70 568.36 C 726.21 564.96 725.70 561.30 723.33 558.64 C 721.46 556.46 718.74 555.33 716.25 554.07 C 716.79 533.90 720.10 513.76 726.87 494.72 C 736.31 466.77 753.44 442.45 768.14 417.15 C 765.67 409.65 762.98 402.22 760.25 394.81 C 760.67 392.07 762.40 389.66 763.34 387.05 C 771.18 384.71 779.21 383.15 787.19 381.35 C 798.39 361.61 807.93 340.99 818.41 320.86 C 810.82 319.60 804.76 313.65 802.36 306.49 C 800.09 299.46 799.38 292.06 798.75 284.74 C 821.51 277.40 845.25 273.83 868.95 271.13 Z" />
<path fill="#191919" opacity="1.00" d=" M 1595.17 264.28 C 1613.45 261.67 1632.45 266.77 1647.30 277.66 C 1676.93 298.93 1692.17 337.20 1688.40 373.10 C 1685.73 394.25 1678.88 414.68 1670.12 434.04 C 1655.11 466.92 1634.37 497.27 1608.73 522.77 C 1595.77 535.42 1581.33 546.67 1565.42 555.38 C 1548.55 564.58 1529.38 570.10 1510.06 569.29 C 1500.81 569.00 1491.71 566.94 1483.01 563.87 C 1467.86 559.19 1453.39 551.20 1442.89 539.14 C 1430.60 524.99 1424.04 506.52 1422.58 487.98 C 1420.89 466.22 1424.74 444.32 1431.66 423.72 C 1443.37 389.36 1462.72 357.86 1486.67 330.69 C 1505.78 309.43 1528.04 290.53 1553.72 277.70 C 1566.80 271.31 1580.71 266.31 1595.17 264.28 M 1603.39 315.57 C 1583.40 322.77 1564.44 333.32 1548.71 347.71 C 1537.38 358.15 1527.24 369.95 1519.13 383.06 C 1499.73 415.05 1489.81 452.61 1490.37 489.99 C 1490.68 496.66 1490.50 503.60 1492.93 509.93 C 1503.17 515.61 1516.03 514.21 1526.35 509.39 C 1540.68 502.66 1552.00 491.13 1562.42 479.48 C 1575.86 464.09 1586.94 446.81 1596.87 429.01 C 1606.30 412.06 1614.47 394.40 1621.11 376.18 C 1625.78 363.11 1630.01 349.74 1631.79 335.94 C 1628.87 329.93 1625.05 324.30 1620.97 319.00 C 1616.92 313.66 1609.22 313.61 1603.39 315.57 Z" />
<path fill="#191919" opacity="1.00" d=" M 513.07 267.62 C 522.93 267.89 532.88 265.37 542.67 267.53 C 543.78 270.01 544.90 272.50 545.96 275.01 C 511.15 350.80 476.33 426.60 441.52 502.39 C 431.31 524.80 420.82 547.09 410.79 569.58 C 401.73 569.03 392.02 567.98 384.41 562.56 C 377.09 556.73 371.75 548.92 366.07 541.58 C 373.83 520.93 381.64 500.28 389.75 479.76 C 397.31 460.10 406.49 441.13 414.72 421.75 C 428.99 387.72 446.84 355.35 465.63 323.64 C 474.61 308.80 483.70 294.00 493.87 279.93 C 496.75 276.18 499.48 272.17 503.27 269.26 C 506.02 267.00 509.78 267.73 513.07 267.62 Z" />
<path fill="#191919" opacity="1.00" d=" M 1072.12 272.62 C 1092.64 269.47 1113.63 270.27 1134.10 273.44 C 1153.33 276.43 1172.51 282.24 1188.74 293.25 C 1198.57 299.99 1206.56 310.08 1208.81 321.98 C 1213.77 341.91 1212.14 363.88 1201.98 381.95 C 1194.37 395.86 1182.13 406.65 1168.62 414.65 C 1144.54 429.34 1117.27 437.98 1089.70 443.25 C 1094.52 449.38 1100.26 454.69 1105.88 460.06 C 1120.08 473.86 1135.33 486.69 1147.77 502.19 C 1155.08 510.88 1160.97 520.84 1164.21 531.77 C 1166.28 536.19 1165.97 541.42 1163.59 545.66 C 1158.68 553.87 1156.90 563.51 1151.94 571.71 C 1149.11 572.07 1146.29 572.44 1143.47 572.81 C 1110.77 540.24 1078.01 507.73 1045.29 475.18 C 1031.58 506.02 1018.02 536.92 1004.35 567.78 C 996.63 566.52 989.08 564.30 981.89 561.23 C 976.65 559.15 971.77 556.14 966.26 554.80 C 961.80 553.56 956.72 551.93 954.40 547.57 C 953.75 546.09 952.82 544.33 953.63 542.74 C 983.88 474.16 1014.14 405.58 1044.38 337.00 C 1028.84 338.14 1013.70 342.00 998.79 346.34 C 996.48 344.57 994.19 342.78 991.91 340.99 C 992.73 327.18 995.67 313.53 995.40 299.65 C 1008.23 292.16 1021.53 285.27 1035.77 280.85 C 1047.64 277.13 1059.87 274.71 1072.12 272.62 M 1105.43 329.17 C 1094.89 351.34 1084.21 373.46 1073.65 395.62 C 1090.45 389.99 1107.58 385.12 1123.75 377.78 C 1134.42 372.73 1145.31 367.17 1153.13 358.07 C 1158.74 351.82 1162.46 343.77 1162.75 335.31 C 1157.06 330.32 1149.18 329.32 1141.93 328.68 C 1129.77 327.96 1117.59 328.92 1105.43 329.17 Z" />
<path fill="#191919" opacity="1.00" d=" M 1366.21 288.30 C 1379.37 285.71 1392.62 283.41 1406.00 282.33 C 1417.44 281.77 1429.66 284.69 1438.11 292.82 C 1446.44 300.79 1450.74 311.89 1453.84 322.76 C 1447.28 337.09 1434.72 347.74 1420.98 354.92 C 1407.77 361.74 1392.89 364.59 1378.14 365.28 C 1375.95 360.28 1371.38 357.00 1368.54 352.45 C 1366.75 349.68 1366.50 346.28 1367.14 343.11 C 1359.12 345.11 1351.07 346.97 1343.17 349.41 C 1331.84 352.90 1320.30 356.62 1310.60 363.67 C 1305.25 367.32 1300.33 372.27 1298.84 378.79 C 1307.69 383.97 1318.20 384.72 1327.94 387.34 C 1346.65 392.00 1366.32 394.44 1383.59 403.51 C 1399.83 413.19 1414.80 429.08 1415.70 448.93 C 1416.14 467.09 1406.71 483.51 1397.55 498.53 C 1389.26 512.82 1376.52 523.82 1363.03 533.03 C 1336.10 551.29 1305.74 564.36 1274.23 572.32 C 1254.01 577.05 1232.56 579.71 1212.15 574.64 C 1196.13 570.22 1180.21 559.27 1175.61 542.53 C 1171.20 525.88 1178.05 508.48 1188.36 495.44 C 1201.98 478.42 1221.52 465.90 1242.90 461.37 C 1248.19 463.74 1253.31 467.81 1255.48 473.41 C 1256.99 477.02 1257.83 480.86 1258.78 484.66 C 1244.57 490.37 1231.18 501.15 1227.04 516.47 C 1233.67 518.50 1240.70 517.43 1247.45 516.65 C 1262.86 514.38 1277.80 509.77 1292.46 504.61 C 1305.28 500.54 1318.19 495.98 1329.39 488.35 C 1341.25 480.07 1350.73 467.47 1352.39 452.79 C 1347.58 449.18 1341.63 447.78 1335.97 446.10 C 1323.74 442.66 1311.57 439.01 1299.41 435.32 C 1283.24 430.48 1267.25 423.69 1254.31 412.63 C 1239.68 400.19 1234.68 377.94 1242.43 360.40 C 1249.00 345.39 1261.01 333.42 1274.37 324.27 C 1301.89 305.70 1333.84 294.75 1366.21 288.30 Z" />
</g>
<g id="#89018bff">
<path fill="#89018b" opacity="1.00" d=" M 126.00 602.00 C 213.25 602.00 300.50 602.00 387.75 602.00 C 387.75 615.33 387.75 628.67 387.75 642.00 C 300.50 642.00 213.25 642.00 126.00 642.00 C 126.00 628.67 126.00 615.33 126.00 602.00 Z" />
</g>
<g id="#004cffff">
<path fill="#004cff" opacity="1.00" d=" M 387.75 602.00 C 474.46 602.00 561.17 602.00 647.88 602.00 C 647.87 615.33 647.87 628.67 647.88 642.00 C 561.17 642.00 474.46 642.00 387.75 642.00 C 387.75 628.67 387.75 615.33 387.75 602.00 Z" />
</g>
<g id="#008113ff">
<path fill="#008113" opacity="1.00" d=" M 647.88 602.00 C 734.56 602.00 821.25 602.00 907.94 602.00 C 907.94 615.33 907.94 628.67 907.94 642.00 C 821.25 642.00 734.56 642.00 647.88 642.00 C 647.87 628.67 647.87 615.33 647.88 602.00 Z" />
</g>
<g id="#ffee00ff">
<path fill="#ffee00" opacity="1.00" d=" M 907.94 602.00 C 994.65 602.00 1081.35 602.00 1168.06 602.00 C 1168.06 615.33 1168.06 628.67 1168.06 642.00 C 1081.35 642.00 994.64 642.00 907.94 642.00 C 907.94 628.67 907.94 615.33 907.94 602.00 Z" />
</g>
<g id="#ff8d00ff">
<path fill="#ff8d00" opacity="1.00" d=" M 1168.06 602.00 C 1254.77 602.00 1341.48 602.00 1428.18 602.00 C 1428.18 615.33 1428.18 628.67 1428.18 642.00 C 1341.48 642.00 1254.77 642.00 1168.06 642.00 C 1168.06 628.67 1168.06 615.33 1168.06 602.00 Z" />
</g>
<g id="#ff0000ff">
<path fill="#ff0000" opacity="1.00" d=" M 1428.18 602.00 C 1514.79 602.00 1601.39 602.00 1688.00 602.00 C 1688.00 615.33 1687.99 628.66 1688.00 642.00 C 1601.39 642.00 1514.79 642.00 1428.18 642.00 C 1428.18 628.67 1428.18 615.33 1428.18 602.00 Z" />
<path fill="#ff0000" opacity="1.00" d=" M 1689.00 602.00 L 1690.00 602.00 C 1690.00 615.33 1690.00 628.67 1690.00 642.00 L 1689.00 642.00 C 1689.00 628.67 1689.00 615.33 1689.00 602.00 Z" />
</g>
<g id="#d65415ff">
<path fill="#d65415" opacity="1.00" d=" M 1688.00 602.00 L 1689.00 602.00 C 1689.00 615.33 1689.00 628.67 1689.00 642.00 L 1688.00 642.00 C 1687.99 628.66 1688.00 615.33 1688.00 602.00 Z" />
</g>
</svg>
