<?xml version="1.0" encoding="utf-8"?>
<!-- Generator: Adobe Illustrator 16.0.0, SVG Export Plug-In . SVG Version: 6.00 Build 0)  -->
<!DOCTYPE svg PUBLIC "-//W3C//DTD SVG 1.1//EN" "http://www.w3.org/Graphics/SVG/1.1/DTD/svg11.dtd" [
	<!ENTITY ns_extend "http://ns.adobe.com/Extensibility/1.0/">
	<!ENTITY ns_ai "http://ns.adobe.com/AdobeIllustrator/10.0/">
	<!ENTITY ns_graphs "http://ns.adobe.com/Graphs/1.0/">
	<!ENTITY ns_vars "http://ns.adobe.com/Variables/1.0/">
	<!ENTITY ns_imrep "http://ns.adobe.com/ImageReplacement/1.0/">
	<!ENTITY ns_sfw "http://ns.adobe.com/SaveForWeb/1.0/">
	<!ENTITY ns_custom "http://ns.adobe.com/GenericCustomNamespace/1.0/">
	<!ENTITY ns_adobe_xpath "http://ns.adobe.com/XPath/1.0/">
]>
<svg version="1.1" id="Layer_1" xmlns:x="&ns_extend;" xmlns:i="&ns_ai;" xmlns:graph="&ns_graphs;"
	 xmlns="http://www.w3.org/2000/svg" xmlns:xlink="http://www.w3.org/1999/xlink" x="0px" y="0px" width="685.576px" height="612px"
	 viewBox="0 0 685.576 612" enable-background="new 0 0 685.576 612" xml:space="preserve">
<metadata>
	<sfw  xmlns="&ns_sfw;">
		<slices></slices>
		<sliceSourceBounds  height="554.75" width="632.016" y="-597.179" x="20.441" bottomLeftOrigin="true"></sliceSourceBounds>
	</sfw>
</metadata>
<g>
	<path fill-rule="evenodd" clip-rule="evenodd" fill="#EE3625" d="M122.305,42.428c12.482,0.547,24.507,3.125,35.959,8.181
		c14.245,6.29,26.33,15.455,36.281,27.428c0.496,0.596,1.126,1.12,1.337,2.101c-9.45,8.236-18.953,16.518-28.522,24.858
		c-0.785-0.475-1.087-1.232-1.543-1.834c-8.24-10.875-18.862-18.214-32.12-21.622c-6.121-1.574-12.318-1.592-18.559-0.848
		c-9.719,1.158-18.722,4.323-26.829,9.792c-14.513,9.789-23.194,23.376-25.728,40.722c-2.225,15.219,0.354,29.584,8.749,42.602
		c8.324,12.909,20.269,20.935,35.021,24.889c6.842,1.834,13.818,2.481,20.87,1.872c6.762-0.586,13.085-2.721,19.052-5.92
		c8.132-4.36,14.925-10.249,20.243-17.812c0.226-0.321,0.47-0.629,0.712-0.938c0.047-0.061,0.124-0.097,0.37-0.283
		c9.509,8.284,19.054,16.599,28.513,24.839c0.059,0.814-0.455,1.144-0.784,1.546c-15.269,18.664-34.672,30.742-58.417,34.875
		c-33.304,5.799-62.547-3.114-86.916-26.638c-14.956-14.437-24.061-32.219-27.665-52.741c-0.572-3.257-0.953-6.548-1.423-9.824
		c-0.055-0.386-0.068-0.79-0.416-1.063c0-3.314,0-6.63,0-9.944c-0.222-1.211,0.371-2.302,0.509-3.464
		c0.538-4.533,1.004-9.08,2.021-13.541C28.556,95.4,41.28,75.786,61.357,61.089c14.687-10.749,31.185-16.863,49.375-18.283
		c1.507,0.088,2.982-0.215,4.469-0.378C117.569,42.428,119.937,42.428,122.305,42.428z"/>
	<path fill-rule="evenodd" clip-rule="evenodd" fill="#EE3625" d="M231.904,46.684c12.279,0,24.425,0,36.832,0
		c18.629,35.468,37.308,71.029,55.954,106.527c0.256-0.021,0.342-0.01,0.412-0.038c0.067-0.026,0.142-0.081,0.174-0.145
		c18.712-35.4,37.419-70.801,56.169-106.283c12.276,0,24.547,0,36.924,0c0,62.52,0,124.917,0,187.25
		c-0.089,0.127-0.121,0.201-0.178,0.25c-0.059,0.05-0.136,0.098-0.209,0.105c-0.467,0.045-0.935,0.112-1.402,0.112
		c-11.759-0.003-23.519-0.011-35.278-0.03c-0.221,0-0.442-0.133-0.808-0.25c0-35.076,0-70.171,0-105.409
		c-0.385,0.361-0.072,0.054-0.385,0.095c-0.062,0.008-0.137,0.04-0.175,0.085c-0.1,0.121-0.197,0.25-0.269,0.389
		c-18.107,34.825-36.213,69.652-54.323,104.476c-0.024,0.045-0.111,0.058-0.345,0.174c-18.12-35.119-36.243-70.241-54.365-105.364
		c-0.155,0.04-0.311,0.08-0.465,0.12c-0.15,35.134-0.143,70.269-0.53,105.378c-1.755,0.417-34.583,0.528-37.607,0.149
		C231.623,232.538,231.477,50.674,231.904,46.684z"/>
	<path fill-rule="evenodd" clip-rule="evenodd" fill="#EE3625" d="M558.566,234.31c-18.308-35.477-36.424-70.589-54.54-105.7
		c-0.134,0.044-0.268,0.088-0.402,0.132c-0.173,35.138-0.346,70.275-0.521,105.556c-12.675,0-25.178,0-37.68,0
		c-0.375-1.716-0.488-184.08-0.104-187.535c12.184,0,24.385,0,36.861,0c18.602,35.414,37.281,70.979,56.173,106.943
		c9.594-18.062,18.922-35.828,28.292-53.573c9.384-17.774,18.765-35.549,28.176-53.381c12.318,0,24.583,0,36.944,0
		c0,62.525,0,124.923,0,187.309c-1.704,0.481-32.76,0.676-37.503,0.251c-0.074-0.066-0.137-0.112-0.186-0.168
		c-0.053-0.059-0.102-0.124-0.133-0.196c-0.029-0.069-0.044-0.147-0.047-0.225c-0.014-0.236-0.027-0.472-0.027-0.709
		c-0.016-34.647-0.028-69.292-0.045-103.939c0-0.058-0.063-0.116-0.098-0.173c-0.076-0.018-0.157-0.061-0.229-0.05
		c-0.063,0.01-0.12,0.077-0.17,0.127c-0.055,0.056-0.111,0.116-0.146,0.185C595.053,164.063,576.924,198.965,558.566,234.31z"/>
	<path fill-rule="evenodd" clip-rule="evenodd" fill="#6C747D" d="M104.484,462.359c0-16.965,0-33.805,0-50.646
		c-0.163-0.029-0.325-0.059-0.488-0.088c-5.787,16.879-11.574,33.758-17.411,50.783c-3.747,0-7.504,0-11.554,0
		c-2.927-8.32-5.608-16.865-8.449-25.355c-2.819-8.426-5.55-16.881-8.482-25.818c-0.52,1.238-0.384,2.061-0.384,2.842
		c-0.009,15.229-0.003,30.459-0.017,45.688c0,0.85,0.195,1.734-0.298,2.676c-4.794,0-9.637,0-14.607,0c0-22.654,0-45.18,0-67.846
		c7.49,0,14.879,0,22.56,0c5.237,14.477,10.253,29.125,15.641,44.121c1.587-3.1,2.333-6.047,3.391-8.867
		c1.108-2.949,2.139-5.93,3.191-8.9c1.026-2.896,2.032-5.801,3.058-8.699c1.053-2.971,2.123-5.936,3.181-8.904
		c1.029-2.889,2.054-5.779,3.111-8.752c7.49,0,14.876,0,22.246,0c0.459,1.762,0.644,63.275,0.219,67.611
		C117.778,462.654,108.246,462.785,104.484,462.359z"/>
	<path fill-rule="evenodd" clip-rule="evenodd" fill="#6C747D" d="M57.606,522.916c0,16.975,0,33.949,0,51.061
		c-5.057,0-9.832,0-14.59,0c-0.43-1.805-0.595-63.6-0.198-67.654c1.652-0.449,18.293-0.605,22.625-0.18
		c5.118,14.488,10.275,29.092,15.626,44.24c2.062-5.297,3.672-10.186,5.417-15.023c1.738-4.82,3.427-9.656,5.142-14.484
		c1.739-4.898,3.482-9.793,5.254-14.777c7.511,0,14.966,0,22.398,0c0.346,2.197,0.359,65.672,0.013,67.871
		c-4.749,0-9.524,0-14.453,0c-0.493-2.438-0.156-4.869-0.217-7.273c-0.062-2.445-0.014-4.893-0.014-7.34s0-4.893,0-7.34
		c0-2.367,0-4.736,0-7.104c0-2.445,0-4.893,0-7.34c0-2.445,0-4.893,0-7.34c0-2.426,0-4.854,0-7.475
		c-0.363,0.441-0.077,0.031-0.381,0.115c-0.069,0.02-0.147,0.084-0.177,0.148c-0.125,0.285-0.247,0.57-0.347,0.863
		c-5.685,16.549-11.367,33.098-17.053,49.645c-0.024,0.072-0.082,0.135-0.134,0.193c-0.05,0.059-0.113,0.107-0.298,0.275
		c-3.556,0-7.243,0-11.188,0c-5.621-17.02-11.258-34.092-16.896-51.164C57.959,522.861,57.783,522.889,57.606,522.916z"/>
	<path fill-rule="evenodd" clip-rule="evenodd" fill="#6C747D" d="M413.761,590.172c2.715-4.041,5.297-7.885,7.884-11.738
		c1.694,1.111,3.157,2.184,4.723,3.076c4.79,2.732,9.92,3.557,15.279,2.223c5.031-1.254,7.705-4.625,8.024-9.813
		c0.082-1.336,0.038-2.68,0.031-4.02c0-0.215-0.104-0.432-0.149-0.611c-0.306-0.148-0.506-0.02-0.666,0.148
		c-3.736,3.93-8.438,5.404-13.704,5.152c-6.324-0.299-11.815-2.566-16.055-7.424c-3.16-3.623-4.855-7.936-5.434-12.633
		c-0.748-6.08,0.065-11.953,3.081-17.396c3.062-5.523,7.52-9.422,13.792-10.582c7.48-1.383,14.26,0.182,19.638,6.006
		c0.101,0.107,0.253,0.168,0.667,0.432c0-1.898,0-3.637,0-5.303c2.115-0.469,10.853-0.502,13.139-0.111
		c0.353,0.395,0.226,0.893,0.226,1.346c-0.005,14.432,0.003,28.863-0.054,43.293c-0.014,3.486-0.669,6.896-1.856,10.184
		c-2.624,7.268-7.842,11.77-15.239,13.51c-8.693,2.043-17.371,1.643-25.831-1.381C418.594,593.578,416.082,592.268,413.761,590.172z
		 M450.939,550.363c-0.019-5.338-4.08-11.531-11.622-11.518c-6.446,0.014-11.387,5.088-11.388,11.486
		c-0.001,6.811,5.514,11.559,11.594,11.543C445.678,561.859,450.936,556.525,450.939,550.363z"/>
	<path fill-rule="evenodd" clip-rule="evenodd" fill="#6C747D" d="M376.829,422.813c0.409-0.566,0.646-0.873,0.86-1.193
		c2.756-4.16,6.662-6.383,11.589-6.861c2.613-0.254,5.205-0.084,7.748,0.582c4.523,1.184,7.58,4.033,9.344,8.324
		c1.371,3.34,1.824,6.875,1.864,10.42c0.103,8.996,0.036,17.994,0.032,26.99c0,0.383-0.046,0.764-0.068,1.109
		c-1.77,0.469-10.887,0.594-14.21,0.217c-0.544-0.768-0.282-1.664-0.284-2.502c-0.023-8.127-0.022-16.258-0.007-24.385
		c0.003-1.434-0.085-2.84-0.586-4.193c-0.901-2.434-2.768-3.768-5.397-3.867c-4.769-0.184-7.998,2.449-8.724,7.174
		c-0.216,1.4-0.336,2.813-0.33,4.24c0.027,6.945,0.019,13.891,0.004,20.834c-0.001,0.852,0.158,1.725-0.183,2.545
		c-1.719,0.395-10.66,0.502-13.922,0.164c-0.55-0.76-0.286-1.656-0.288-2.49c-0.023-7.654-0.026-15.311-0.006-22.967
		c0.004-1.668-0.13-3.314-0.566-4.92c-0.831-3.061-2.874-4.584-6.048-4.586c-4.297-0.004-7.152,2.318-7.984,6.572
		c-0.348,1.779-0.516,3.584-0.508,5.41c0.031,6.865,0.019,13.732,0.003,20.598c-0.001,0.766,0.179,1.566-0.274,2.416
		c-4.592,0-9.204,0-13.793,0c-0.405-1.857-0.529-42.965-0.163-46.143c1.593-0.463,10.076-0.594,13.444-0.197
		c0.572,1.713,0.008,3.545,0.416,5.639c1.829-2.307,3.725-4.225,6.242-5.396c2.553-1.191,5.224-1.756,8.026-1.672
		c2.793,0.086,5.479,0.674,7.963,1.988C373.539,417.994,375.352,420.039,376.829,422.813z"/>
	<path fill-rule="evenodd" clip-rule="evenodd" fill="#6C747D" d="M224.728,532.045c0-10.418,0-20.408,0-30.35
		c1.833-0.471,11.086-0.582,14.216-0.211c0.397,1.676,0.544,68.852,0.158,72.283c-1.663,0.434-10.257,0.514-12.989,0.1
		c-0.422-1.729,0.003-3.545-0.25-5.313c-0.361-0.193-0.577,0.035-0.79,0.271c-5.359,5.93-12.039,7.471-19.588,5.68
		c-7.159-1.695-12.403-5.955-14.989-12.852c-3.707-9.891-2.785-19.426,3.72-27.973c4.52-5.939,10.804-8.164,18.167-7.461
		c1.018,0.096,2.042,0.217,3.038,0.436C219.209,527.494,221.182,528.623,224.728,532.045z M214.268,562.42
		c3.743,0.035,6.988-1.105,9.337-4.152c3.222-4.18,3.051-11.305-0.178-15.486c-3.905-5.059-13.249-5.248-17.52-0.598
		c-1.783,1.941-2.666,4.275-2.926,6.826C202.24,556.27,206.292,562.402,214.268,562.42z"/>
	<path fill-rule="evenodd" clip-rule="evenodd" fill="#6C747D" d="M98.515,291.586c-3.623,2.964-7.333,6-10.879,8.902
		c-0.706,0.104-0.972-0.212-1.239-0.49c-5.933-6.18-17.006-6.112-23.679-0.854c-4.032,3.178-6.396,7.366-7.499,12.265
		c-1.208,5.369-0.827,10.691,1.377,15.766c2.491,5.734,6.584,9.854,12.82,11.279c6.927,1.584,12.98,0.02,17.636-5.674
		c0.245-0.299,0.521-0.57,0.885-0.967c4.086,3.053,8.113,6.059,12.161,9.082c-0.134,1.117-0.877,1.742-1.48,2.428
		c-3.938,4.471-8.908,7.32-14.648,8.627c-10.018,2.281-19.643,0.928-28.552-4.197c-9.14-5.262-14.171-13.473-15.907-23.746
		c-1.136-6.721-0.73-13.404,1.55-19.843c4.094-11.561,12.409-18.603,24.165-21.538c7.398-1.848,14.842-1.844,22.135,0.781
		c4.001,1.441,7.517,3.63,10.37,6.817C98.036,290.565,98.434,290.856,98.515,291.586z"/>
	<path fill-rule="evenodd" clip-rule="evenodd" fill="#6C747D" d="M237.791,462.467c-5.013,0-9.646,0-14.255,0
		c-0.4-1.824-0.522-68.803-0.154-72.162c1.632-0.447,10.411-0.582,14.34-0.189c0.022,1.977,0.056,4,0.067,6.021
		c0.012,2.131,0.002,4.262,0.002,6.391c0,2.051,0,4.102,0,6.154c0,2.129,0,4.26,0,6.389c0,2.049,0,4.098,0,6.184
		c0.796-0.01,0.815-0.684,1.104-1.064c2.725-3.592,6.511-5.107,10.842-5.477c2.693-0.23,5.354,0.115,7.95,0.877
		c4.131,1.211,6.976,3.846,8.6,7.82c1.117,2.73,1.712,5.602,1.806,8.516c0.316,9.938,0.119,19.879,0.119,29.816
		c0,0.15-0.069,0.301-0.108,0.449c-1.638,0.479-11.418,0.563-14.114,0.1c-0.275-0.791-0.142-1.66-0.143-2.506
		c-0.013-7.1-0.001-14.199-0.011-21.299c-0.003-2.055-0.168-4.102-0.763-6.078c-1.005-3.344-3.112-4.908-6.61-4.963
		c-4.484-0.072-7.089,1.951-8.198,6.279c-0.397,1.551-0.473,3.111-0.472,4.691c0.002,7.18,0,14.357,0,21.535
		C237.791,460.727,237.791,461.5,237.791,462.467z"/>
	<path fill-rule="evenodd" clip-rule="evenodd" fill="#6C747D" d="M154.658,575.164c-6.414-0.07-12.3-1.771-17.328-5.891
		c-5.304-4.346-7.98-10.057-8.394-16.846c-0.173-2.842-0.025-5.67,0.739-8.445c2.044-7.422,6.643-12.676,13.693-15.598
		c8.221-3.406,16.514-3.258,24.5,0.748c7.714,3.867,11.949,10.289,12.764,18.9c0.749,7.92-1.429,14.832-7.3,20.373
		c-3.663,3.457-8.105,5.391-13.02,6.291C158.448,575.037,156.571,575.301,154.658,575.164z M154.915,562.412
		c5.191-0.012,8.994-2.533,10.639-7.059c0.826-2.271,1.027-4.623,0.634-6.982c-0.63-3.779-2.413-6.832-6.059-8.447
		c-3.317-1.469-6.738-1.557-10.105-0.197c-4.148,1.678-6.14,4.98-6.599,9.303C142.608,556.729,147.125,562.535,154.915,562.412z"/>
	<path fill-rule="evenodd" clip-rule="evenodd" fill="#6C747D" d="M444.425,303.317c6.234-0.027,11.488,1.389,16.21,4.57
		c6.089,4.102,9.346,9.951,10.111,17.145c0.581,5.451-0.308,10.715-3.208,15.479c-4.193,6.889-10.558,10.445-18.365,11.57
		c-5.32,0.766-10.571,0.268-15.539-1.887c-8.428-3.654-13.351-10.012-14.501-19.207c-0.678-5.412,0.159-10.561,2.841-15.305
		c3.731-6.602,9.603-10.268,16.902-11.812C440.887,303.445,442.929,303.248,444.425,303.317z M445.08,316.092
		c-5.299-0.254-10.426,2.703-11.484,9.283c-1.009,6.271,1.458,13.67,10.541,14.232c5.636,0.348,10.282-2.369,11.801-8.035
		c0.243-0.906,0.396-1.855,0.439-2.793C456.777,320.186,451.371,315.979,445.08,316.092z"/>
	<path fill-rule="evenodd" clip-rule="evenodd" fill="#6C747D" d="M324.968,443.879c-11.14,0-22,0-32.854,0
		c-0.104,3.029,2.246,6.463,5.592,7.816c6.107,2.469,11.055,0.518,15.096-4.574c3.395,2.492,6.672,4.896,10.006,7.346
		c-1.23,1.861-2.732,3.119-4.311,4.291c-11.046,8.191-26.824,5.756-34.898-2.744c-3.675-3.871-5.761-8.484-6.29-13.717
		c-0.755-7.471,0.992-14.252,6.312-19.836c3.837-4.027,8.615-6.279,14.018-7.295c3.681-0.693,7.375-0.744,11.036,0.117
		c7.469,1.754,12.261,6.475,14.798,13.594C325.173,433.645,325.208,438.594,324.968,443.879z M291.925,433.801
		c4.5,0.482,17.118,0.291,18.616-0.266c-0.561-5.369-4.23-8.654-9.411-8.418C295.964,425.35,291.943,429.082,291.925,433.801z"/>
	<path fill-rule="evenodd" clip-rule="evenodd" fill="#6C747D" d="M264.194,555.537c0.922,3.838,3.029,6.678,6.867,7.947
		c5.789,1.916,10.299-0.23,13.943-4.723c1.731,0.752,8.568,5.715,10.107,7.348c-2.233,2.955-5.126,5.145-8.484,6.578
		c-10.123,4.32-19.765,3.273-28.523-3.402c-5.287-4.029-7.887-9.715-8.416-16.32c-0.325-4.057,0.074-8.039,1.643-11.83
		c2.867-6.932,8.056-11.373,15.093-13.656c4.64-1.506,9.429-1.932,14.235-0.879c8.596,1.883,13.611,7.457,15.852,15.748
		c1.01,3.738,1.225,7.742,0.85,12.473c-0.723,0.67-1.636,0.361-2.462,0.365c-9.307,0.023-18.612,0.01-27.918,0.023
		C266.127,555.209,265.246,555.025,264.194,555.537z M264.167,545.152c3.059,0.365,16.999,0.264,18.643-0.123
		c0.077-3.826-2.242-7.047-5.907-8.096C271.173,535.293,264.666,538.738,264.167,545.152z"/>
	<path fill-rule="evenodd" clip-rule="evenodd" fill="#6C747D" d="M119.565,332.508c0.238,3.512,2.857,6.803,6.386,8.141
		c4.923,1.863,9.043,0.527,14.454-4.809c3.348,2.203,6.51,4.75,9.751,7.043c0.023,0.896-0.569,1.264-0.986,1.689
		c-5.645,5.754-12.535,8.182-20.534,7.705c-5.498-0.328-10.515-1.982-14.877-5.369c-5.624-4.363-8.512-10.203-8.966-17.268
		c-0.304-4.732,0.443-9.281,2.718-13.49c3.746-6.926,9.741-10.749,17.311-12.295c3.425-0.701,6.888-0.797,10.336-0.166
		c8.243,1.507,13.425,6.49,16.044,14.309c1.527,4.559,1.58,9.262,1.364,14.121c-2.235,0.439-4.426,0.164-6.597,0.213
		c-2.207,0.051-4.415,0.012-6.622,0.012c-2.208,0-4.416,0-6.624,0s-4.416-0.035-6.623,0.01
		C123.925,332.398,121.733,332.154,119.565,332.508z M137.854,322.326c0.368-4.627-3.329-8.434-8.148-8.557
		c-5.769-0.146-10.297,3.621-10.13,8.557C125.669,322.326,131.768,322.326,137.854,322.326z"/>
	<path fill-rule="evenodd" clip-rule="evenodd" fill="#6C747D" d="M302.754,343.074c-2.094,2.76-4.559,4.664-7.35,6.189
		c-10.209,5.59-24.578,3.463-32.241-5.045c-3.56-3.953-5.563-8.566-5.942-13.861c-0.308-4.297,0.024-8.514,1.818-12.512
		c3.551-7.91,9.842-12.291,18.16-13.988c3.504-0.715,7.039-0.779,10.577-0.11c6.67,1.261,11.495,4.946,14.472,11.022
		c2.685,5.477,3.001,11.324,2.695,17.539c-3.732,0.068-7.335,0.025-10.937,0.033c-3.709,0.008-7.418,0.002-11.128,0.002
		c-3.62,0-7.239,0-10.771,0c-0.47,0.918-0.14,1.574,0.112,2.221c2.77,7.098,12.101,9.102,17.948,3.838
		c0.868-0.781,1.643-1.666,2.591-2.637C296.08,338.193,299.31,340.555,302.754,343.074z M290.337,322.359
		c0.032-3.771-2.022-6.844-5.381-8.014c-3.606-1.254-7.024-0.691-10.019,1.666c-1.965,1.547-3.097,3.641-3.253,6.348
		C277.942,322.359,284.05,322.359,290.337,322.359z"/>
	<path fill-rule="evenodd" clip-rule="evenodd" fill="#6C747D" d="M373.237,573.996c-4.626,0-9.245,0-13.84,0
		c-0.423-1.818-0.566-42.809-0.183-46.338c1.657-0.422,10.035-0.531,13.559-0.15c0.283,1.777,0.008,3.645,0.154,5.42
		c0.398,0.178,0.547-0.041,0.673-0.223c3.073-4.445,7.48-6.404,12.712-6.625c2.924-0.123,5.826,0.281,8.576,1.389
		c3.576,1.438,5.916,4.07,7.326,7.611c1.184,2.971,1.717,6.104,1.76,9.246c0.129,9.541,0.071,19.088,0.077,28.631
		c0,0.299-0.097,0.596-0.171,1.018c-4.682,0-9.3,0-13.894,0c-0.638-0.814-0.39-1.715-0.395-2.557
		c-0.045-7.729-0.059-15.459-0.098-23.188c-0.008-1.5-0.141-2.99-0.581-4.439c-0.804-2.648-2.446-4.373-5.248-4.82
		c-4.109-0.656-8.286,0.947-9.49,5.703c-0.511,2.018-0.591,4.053-0.598,6.1c-0.021,6.861-0.003,13.725-0.015,20.588
		C373.563,572.209,373.728,573.092,373.237,573.996z"/>
	<path fill-rule="evenodd" clip-rule="evenodd" fill="#6C747D" d="M159.814,432.709c-0.15-3.482-1.766-5.738-4.591-7.105
		c-3.427-1.66-6.893-1.252-10.305,0.15c-2.223,0.916-4.038,2.428-5.724,4.064c-1.463-0.824-5.947-5.248-7.771-7.666
		c1.259-1.398,2.816-2.441,4.449-3.363c6.333-3.574,13.15-4.668,20.318-3.887c2.042,0.223,4.052,0.605,5.987,1.313
		c5.344,1.951,8.38,5.912,9.832,11.275c0.957,3.535,1.171,7.16,1.217,10.777c0.096,7.492,0.032,14.988,0.025,22.482
		c0,0.543,0.101,1.111-0.34,1.68c-4.229,0-8.524,0-13.093,0c0-1.723,0-3.316,0-4.857c-0.667-0.094-0.808,0.244-0.988,0.465
		c-2.187,2.666-5.027,4.236-8.335,5.057c-4.824,1.197-9.557,0.994-14.085-1.123c-4.982-2.33-7.802-6.213-8.066-11.826
		c-0.278-5.893,1.908-10.438,7.154-13.357c3.291-1.832,6.888-2.645,10.566-3.205c3.989-0.609,8.017-0.547,12.028-0.77
		C158.555,432.787,159.017,432.756,159.814,432.709z M159.718,442.209c-3.642-0.17-7.01-0.166-10.34,0.482
		c-1.855,0.361-3.674,0.906-5.192,2.107c-2.976,2.357-2.601,6.395,0.745,8.164c0.345,0.184,0.705,0.363,1.08,0.465
		c4.253,1.146,8.092,0.316,11.449-2.529c1.231-1.045,1.999-2.439,2.242-4.045C159.925,445.385,159.911,443.898,159.718,442.209z"/>
	<path fill-rule="evenodd" clip-rule="evenodd" fill="#6C747D" d="M627.513,462.457c-4.298,0-8.532,0-12.821,0
		c-0.526-1.662,0-3.336-0.345-4.832c-0.428-0.207-0.57,0.033-0.706,0.201c-2.255,2.834-5.229,4.496-8.705,5.32
		c-5.169,1.225-10.2,0.881-14.911-1.688c-4.509-2.457-6.874-6.303-7.073-11.496c-0.274-7.148,3.184-11.566,9.028-14.088
		c4.182-1.805,8.62-2.455,13.116-2.744c2.981-0.193,5.972-0.262,9.021-0.387c0.474-0.889,0.221-1.705-0.056-2.514
		c-1.076-3.135-4.185-5.385-7.781-5.631c-3.973-0.27-7.448,0.986-10.51,3.469c-0.723,0.586-1.415,1.211-2.006,1.719
		c-2.638-2.518-5.185-4.947-7.827-7.473c0.83-1.111,1.874-1.809,2.904-2.49c6.676-4.412,14.061-5.732,21.909-4.926
		c2.118,0.217,4.198,0.637,6.209,1.387c5.258,1.955,8.212,5.887,9.654,11.143c0.947,3.451,1.186,6.998,1.229,10.537
		c0.09,7.572,0.029,15.145,0.023,22.717C627.864,461.225,627.97,461.791,627.513,462.457z M614.304,442.211
		c-3.675-0.174-7.12-0.172-10.521,0.527c-1.773,0.365-3.511,0.9-4.967,2.051c-2.984,2.355-2.628,6.395,0.717,8.166
		c0.345,0.184,0.705,0.361,1.078,0.465c4.157,1.145,7.938,0.359,11.274-2.352c1.387-1.125,2.243-2.639,2.465-4.428
		C614.521,445.246,614.54,443.836,614.304,442.211z"/>
	<path fill-rule="evenodd" clip-rule="evenodd" fill="#6C747D" d="M461.705,462.463c-4.326,0-8.554,0-12.883,0
		c-0.441-1.676,0.003-3.34-0.296-4.895c-0.464-0.223-0.649,0.104-0.828,0.322c-3.349,4.094-7.902,5.604-12.948,5.887
		c-4.016,0.225-7.821-0.625-11.33-2.705c-8.696-5.152-8.392-18.559-0.371-23.58c3.56-2.23,7.487-3.248,11.563-3.893
		c3.987-0.629,8.021-0.545,12.033-0.787c0.542-0.033,1.104,0.094,1.791-0.277c0.365-1.117-0.136-2.209-0.657-3.221
		c-1.6-3.098-4.326-4.49-7.685-4.715c-3.982-0.268-7.425,1.135-10.452,3.65c-0.604,0.502-1.17,1.047-1.963,1.762
		c-2.626-2.471-5.06-5.084-7.643-7.732c1.776-1.963,3.854-3.229,6.036-4.289c5.974-2.904,12.286-3.857,18.873-3.059
		c1.723,0.207,3.418,0.508,5.09,1.016c5.254,1.6,8.593,5.096,10.301,10.23c0.824,2.48,1.339,5.053,1.429,7.65
		c0.323,9.309,0.131,18.623,0.126,27.936C461.891,461.91,461.815,462.059,461.705,462.463z M448.533,442.205
		c-2.494,0-4.701-0.139-6.884,0.035c-2.498,0.203-5.017,0.498-7.311,1.68c-2.521,1.297-3.602,3.02-3.343,5.42
		c0.272,2.516,2.044,3.629,4.21,4.188c3.915,1.012,7.483,0.131,10.656-2.318c1.494-1.154,2.346-2.76,2.639-4.607
		C448.72,445.213,448.675,443.803,448.533,442.205z"/>
	<path fill-rule="evenodd" clip-rule="evenodd" fill="#6C747D" d="M192.869,350.918c0-0.717,0-1.484,0-2.254
		c0-7.021-0.002-14.043,0-21.064c0-1.895-0.065-3.779-0.46-5.646c-0.753-3.566-2.723-5.541-5.895-5.832
		c-4.337-0.396-7.345,1.162-8.683,4.592c-0.871,2.232-1.079,4.588-1.075,6.969c0.009,6.865,0.003,13.727,0.003,20.592
		c0,0.859,0,1.719,0,2.539c-1.802,0.502-11.815,0.57-14.233,0.115c0-15.398,0-30.816,0-46.37c4.524,0,8.909,0,13.417,0
		c0.637,1.802,0.042,3.706,0.376,5.516c0.664-0.078,0.788-0.594,1.062-0.93c3.081-3.784,7.094-5.643,11.931-5.81
		c2.616-0.091,5.191,0.131,7.708,0.93c3.84,1.22,6.557,3.663,8.161,7.347c1.145,2.631,1.758,5.396,1.896,8.25
		c0.366,7.568,0.095,15.145,0.165,22.715c0.025,2.76,0.003,5.518,0.003,8.24C205.483,351.311,195.647,351.389,192.869,350.918z"/>
	<path fill-rule="evenodd" clip-rule="evenodd" fill="#6C747D" d="M403.794,304.448c3.466,0,6.821,0,10.118,0
		c0.531,2.218,0.512,9.582-0.032,11.628c-3.298,0-6.656,0-10.255,0c0,11.76,0,23.307,0,34.996c-4.919,0-9.596,0-14.455,0
		c0-11.598,0-23.09,0-34.598c-1.649-0.75-3.232-0.303-4.762-0.41c-1.482-0.104-2.982,0.129-4.435-0.135
		c-0.493-1.674-0.618-7.564-0.227-11.333c2.947-0.441,6.008,0.035,8.959-0.261c0.609-0.804,0.382-1.618,0.392-2.374
		c0.046-3.467-0.093-6.938,0.271-10.396c0.257-2.452,0.812-4.815,1.979-7.001c2.104-3.936,5.64-5.832,9.822-6.669
		c4.535-0.907,9.094-0.733,13.635,0.045c0.301,0.051,0.58,0.225,0.847,0.334c0.215,1.516-0.229,10.163-0.594,11.745
		c-0.634,0.311-1.226,0.018-1.821-0.149c-1.628-0.457-3.292-0.426-4.93-0.197c-2.223,0.311-3.764,1.5-4.291,3.798
		c-0.212,0.924-0.416,1.843-0.413,2.798c0.009,2.365-0.002,4.73,0.006,7.096C403.608,303.593,403.683,303.819,403.794,304.448z"/>
	<path fill-rule="evenodd" clip-rule="evenodd" fill="#6C747D" d="M250.243,304.371c0,3.606,0.004,6.833-0.005,10.059
		c-0.001,0.461,0.086,0.949-0.426,1.586c-3.801,0-7.792,0-11.513,0c-0.78,0.645-0.627,1.236-0.628,1.76
		c-0.015,4.895-0.019,9.787,0,14.68c0.003,0.945,0.064,1.896,0.191,2.832c0.363,2.693,1.652,4.043,4.278,4.678
		c2.305,0.559,4.54,0.24,6.764-0.393c0.37-0.105,0.731-0.234,1.231-0.396c0,3.961,0,7.799,0,11.643
		c-1.081,0.705-2.265,0.852-3.411,1.035c-4.393,0.703-8.798,0.854-13.152-0.223c-4.645-1.146-8.164-3.682-9.738-8.412
		c-0.605-1.82-0.702-3.707-0.699-5.609c0.01-6.314,0.003-12.627,0.002-18.939c0-0.773,0-1.547,0-2.535c-3.102,0-5.989,0-8.794,0
		c-0.627-1.795-0.734-8.816-0.221-11.534c2.832-0.458,5.751,0.044,8.708-0.288c0.599-1.436,0.231-2.939,0.293-4.398
		c0.063-1.496,0.014-2.998,0.014-4.497c0-1.493,0-2.985,0-4.437c1.744-0.463,11.315-0.574,14.378-0.175
		c0.41,4.409-0.112,8.892,0.294,13.565C241.908,304.371,245.897,304.371,250.243,304.371z"/>
	<path fill-rule="evenodd" clip-rule="evenodd" fill="#6C747D" d="M214.976,450.443c0,4.115,0,7.885,0,11.627
		c-0.764,0.768-1.735,0.818-2.642,1.008c-4.931,1.02-9.873,1.125-14.745-0.238c-4.833-1.354-8.191-4.334-9.329-9.381
		c-0.396-1.762-0.5-3.586-0.493-5.408c0.023-5.994,0.014-11.988,0.002-17.982c-0.001-0.775,0.134-1.57-0.266-2.586
		c-2.776,0-5.653,0-8.462,0c-0.464-2.004-0.528-8.586-0.136-11.447c2.812-0.311,5.713,0.07,8.834-0.24c0-4.561,0-9.014,0-13.383
		c1.944-0.531,11.705-0.615,14.549-0.154c0,4.406,0,8.865,0,13.578c4.301,0.186,8.38,0.006,12.404,0.115
		c0.449,1.816,0.532,8.258,0.152,11.352c-1.968,0.25-4,0.08-6.017,0.109c-2.042,0.031-4.086,0.008-5.983,0.008
		c-0.709,0.635-0.501,1.309-0.503,1.908c-0.017,4.813-0.014,9.623-0.005,14.434c0.002,1.104,0.066,2.195,0.333,3.285
		c0.711,2.9,2.268,4.299,5.266,4.512C210.227,451.725,212.494,451.566,214.976,450.443z"/>
	<path fill-rule="evenodd" clip-rule="evenodd" fill="#6C747D" d="M503.561,462.385c-4.212,1.359-8.419,1.672-12.689,1.275
		c-1.564-0.146-3.126-0.369-4.645-0.83c-6.171-1.867-9.573-6.268-9.644-12.74c-0.072-6.625-0.019-13.248-0.021-19.873
		c0-0.848,0-1.695,0-2.779c-3.107,0-5.986,0-9.004,0c0-3.9,0-7.555,0-11.477c2.954,0,5.83,0,8.974,0
		c0.072-4.711-0.005-9.172,0.047-13.586c1.747-0.484,10.829-0.607,14.467-0.201c0.254,4.461-0.043,8.99,0.175,13.699
		c4.175,0,8.17,0,12.093,0c0.611,1.881,0.667,9.211,0.109,11.535c-3.95,0-7.949,0-11.782,0c-0.688,0.699-0.484,1.363-0.486,1.965
		c-0.019,4.969-0.014,9.936-0.006,14.904c0.002,0.709,0.007,1.424,0.099,2.125c0.426,3.236,2.193,4.934,5.448,5.152
		c1.175,0.078,2.373,0.053,3.54-0.092c1.073-0.131,2.119-0.482,3.177-0.736C503.882,452.346,503.99,459.342,503.561,462.385z"/>
	<path fill-rule="evenodd" clip-rule="evenodd" fill="#6C747D" d="M579.101,421.016c-3.175,3.32-6.218,6.502-9.189,9.609
		c-0.709,0.127-0.938-0.361-1.253-0.67c-4.639-4.566-13.879-2.686-16.563,3.623c-1.591,3.744-1.583,7.506-0.033,11.262
		c2.551,6.182,11.886,8.41,16.496,3.643c0.27-0.277,0.587-0.51,1.072-0.93c3.123,3.271,6.203,6.494,9.188,9.619
		c0.033,0.859-0.518,1.119-0.916,1.461c-2.882,2.488-6.291,3.904-9.974,4.619c-6.129,1.191-12.12,0.596-17.762-2.129
		c-8.755-4.227-13.273-11.279-13.622-21.014c-0.207-5.797,1.194-11.088,4.75-15.736c3.771-4.928,8.859-7.719,14.822-9.027
		c5.531-1.215,10.972-0.863,16.262,1.211C574.816,417.512,577.019,418.854,579.101,421.016z"/>
	<path fill-rule="evenodd" clip-rule="evenodd" fill="#6C747D" d="M307.517,501.383c4.784,0,9.333,0,13.861,0
		c0.473,1.805,0.541,70.211,0.069,72.6c-4.583,0-9.191,0-13.93,0C307.517,549.77,307.517,525.688,307.517,501.383z"/>
	<path fill-rule="evenodd" clip-rule="evenodd" fill="#6C747D" d="M652.2,462.463c-4.707,0-9.264,0-13.807,0
		c-0.063-0.059-0.123-0.111-0.177-0.166c-0.055-0.057-0.152-0.117-0.152-0.176c-0.032-23.672-0.059-47.342-0.079-71.014
		c0-0.303-0.044-0.637,0.367-1.023c4.463,0,9.073,0,13.67,0C652.468,391.848,652.644,458.287,652.2,462.463z"/>
	<path fill-rule="evenodd" clip-rule="evenodd" fill="#6C747D" d="M347.476,303.805c0,4.373,0,8.597,0,12.828
		c-0.908,0.281-1.651-0.064-2.398-0.203c-2.908-0.541-5.803-0.537-8.667,0.215c-3.04,0.797-5.123,2.689-6.167,5.668
		c-0.845,2.408-1.062,4.914-1.058,7.451c0.011,6.309,0.011,12.617-0.005,18.926c-0.003,0.766,0.188,1.566-0.272,2.408
		c-4.666,0-9.354,0-14.17,0c0-15.531,0-30.945,0-46.34c1.788-0.416,11.594-0.486,14.391-0.082c0,2.097,0,4.247,0,6.395
		c2.767-3.508,5.616-6.573,10.103-7.418C341.952,303.141,344.676,303.121,347.476,303.805z"/>
	<path fill-rule="evenodd" clip-rule="evenodd" fill="#6C747D" d="M512.989,303.728c0,4.432,0,8.665,0,13.079
		c-0.846-0.143-1.593-0.266-2.338-0.395c-2.909-0.508-5.813-0.539-8.675,0.24c-3.023,0.822-5.11,2.697-6.133,5.705
		c-0.51,1.504-0.801,3.035-0.919,4.621c-0.525,7.014-0.196,14.035-0.289,21.057c-0.013,0.941-0.002,1.883-0.002,2.791
		c-1.78,0.484-9.129,0.619-13.98,0.283c-0.046-0.051-0.101-0.107-0.153-0.164c-0.05-0.059-0.134-0.117-0.139-0.18
		c-0.037-0.471-0.08-0.943-0.079-1.416c0.014-14.754,0.032-29.508,0.06-44.262c0.001-0.135,0.131-0.27,0.265-0.529
		c4.546,0,9.156,0,13.845,0c0.403,2.341,0.008,4.604,0.325,7.389c2.569-4.291,5.515-7.472,10.202-8.327
		C507.622,303.138,510.269,303.173,512.989,303.728z"/>
	<path fill-rule="evenodd" clip-rule="evenodd" fill="#6C747D" d="M512.283,416.035c4.737,0,9.364,0,13.955,0
		c0.09,0.096,0.145,0.15,0.193,0.209c0.051,0.061,0.136,0.125,0.136,0.189c0.033,14.977,0.06,29.955,0.08,44.932
		c0.001,0.301-0.071,0.604-0.146,1.178c-4.741,0.057-9.423,0.018-14.059,0.027C512.029,460.623,511.902,419.977,512.283,416.035z"/>
	<path fill-rule="evenodd" clip-rule="evenodd" fill="#6C747D" d="M333.575,527.316c0.682,0,1.222,0,1.761,0
		c4.014,0,8.027,0,11.909,0c0.187,0.189,0.247,0.242,0.297,0.303c0.048,0.057,0.121,0.123,0.124,0.188
		c0.035,0.705,0.083,1.414,0.082,2.121c-0.014,14.506-0.033,29.014-0.061,43.52c0,0.135-0.131,0.27-0.269,0.535
		c-4.542,0-9.152,0-13.734,0C333.266,572.188,333.154,530.516,333.575,527.316z"/>
	<path fill-rule="evenodd" clip-rule="evenodd" fill="#6C747D" d="M332.132,512.678c-0.047-4.66,3.696-8.48,8.338-8.51
		c4.636-0.027,8.442,3.756,8.463,8.41c0.02,4.496-3.73,8.314-8.249,8.398C336.029,521.063,332.18,517.328,332.132,512.678z"/>
	<path fill-rule="evenodd" clip-rule="evenodd" fill="#6C747D" d="M519.406,409.488c-3.714,0.32-8.398-3.002-8.398-8.363
		c0-4.748,4.197-8.479,8.484-8.326c4.62,0.164,8.181,3.664,8.261,8.295C527.839,406.156,523.459,409.756,519.406,409.488z"/>
</g>
</svg>
