<?xml version="1.0" encoding="UTF-8" standalone="no"?>
<!-- Generator: Adobe Illustrator 16.0.0, SVG Export Plug-In . SVG Version: 6.00 Build 0)  -->

<svg
   xmlns:ns="&amp;#38;#38;ns_sfw;"
   xmlns:dc="http://purl.org/dc/elements/1.1/"
   xmlns:cc="http://creativecommons.org/ns#"
   xmlns:rdf="http://www.w3.org/1999/02/22-rdf-syntax-ns#"
   xmlns:svg="http://www.w3.org/2000/svg"
   xmlns="http://www.w3.org/2000/svg"
   xmlns:sodipodi="http://sodipodi.sourceforge.net/DTD/sodipodi-0.dtd"
   xmlns:inkscape="http://www.inkscape.org/namespaces/inkscape"
   version="1.1"
   id="Layer_1"
   x="0px"
   y="0px"
   width="1201.6018"
   height="397.64597"
   viewBox="0 0 1201.6018 397.64597"
   enable-background="new 0 0 685.576 612"
   xml:space="preserve"
   sodipodi:docname="cmm_talks.svg"
   inkscape:version="0.92.3 (2405546, 2018-03-11)"><defs
   id="defs77">
	
	
	
	
	
	
	
	
	
	
	
	
	
	
	
	
	
	
	
	
	
	
	
	
	
	
	
	
	
	
	
	
	
	
</defs><sodipodi:namedview
   pagecolor="#ffffff"
   bordercolor="#666666"
   borderopacity="1"
   objecttolerance="10"
   gridtolerance="10"
   guidetolerance="10"
   inkscape:pageopacity="0"
   inkscape:pageshadow="2"
   inkscape:window-width="1920"
   inkscape:window-height="1017"
   id="namedview75"
   showgrid="false"
   inkscape:zoom="0.5"
   inkscape:cx="444.52839"
   inkscape:cy="-28.383779"
   inkscape:window-x="-8"
   inkscape:window-y="-8"
   inkscape:window-maximized="1"
   inkscape:current-layer="Layer_1"
   fit-margin-top="50"
   fit-margin-left="50"
   fit-margin-right="50"
   fit-margin-bottom="50" />
<metadata
   id="metadata2">
	<ns:sfw>
		<ns:slices />
		<ns:sliceSourceBounds
   height="554.75"
   width="632.016"
   y="-597.179"
   x="20.441"
   bottomLeftOrigin="true" />
	</ns:sfw>
<rdf:RDF><cc:Work
     rdf:about=""><dc:format>image/svg+xml</dc:format><dc:type
       rdf:resource="http://purl.org/dc/dcmitype/StillImage" /><dc:title></dc:title></cc:Work></rdf:RDF></metadata>
<path
   style="clip-rule:evenodd;fill:#ee3625;fill-rule:evenodd"
   inkscape:connector-curvature="0"
   id="path4"
   d="m 223.53089,124.45425 c 12.482,0.547 24.507,3.125 35.959,8.181 14.245,6.29 26.33,15.455 36.281,27.428 0.496,0.596 1.126,1.12 1.337,2.101 -9.45,8.236 -18.953,16.518 -28.522,24.858 -0.785,-0.475 -1.087,-1.232 -1.543,-1.834 -8.24,-10.875 -18.862,-18.214 -32.12,-21.622 -6.121,-1.574 -12.318,-1.592 -18.559,-0.848 -9.719,1.158 -18.722,4.323 -26.829,9.792 -14.513,9.789 -23.194,23.376 -25.728,40.722 -2.225,15.219 0.354,29.584 8.749,42.602 8.324,12.909 20.269,20.935 35.021,24.889 6.842,1.834 13.818,2.481 20.87,1.872 6.762,-0.586 13.085,-2.721 19.052,-5.92 8.132,-4.36 14.925,-10.249 20.243,-17.812 0.226,-0.321 0.47,-0.629 0.712,-0.938 0.047,-0.061 0.124,-0.097 0.37,-0.283 9.509,8.284 19.054,16.599 28.513,24.839 0.059,0.814 -0.455,1.144 -0.784,1.546 -15.269,18.664 -34.672,30.742 -58.417,34.875 -33.304,5.799 -62.547,-3.114 -86.916,-26.638 -14.956,-14.437 -24.061,-32.219 -27.665,-52.741 -0.572,-3.257 -0.953,-6.548 -1.423,-9.824 -0.055,-0.386 -0.068,-0.79 -0.416,-1.063 0,-3.314 0,-6.63 0,-9.944 -0.222,-1.211 0.371,-2.302 0.509,-3.464 0.538,-4.533 1.004,-9.08 2.021,-13.541 5.536,-24.261 18.26,-43.875 38.337,-58.572 14.687,-10.749 31.185,-16.863 49.375,-18.283 1.507,0.088 2.982,-0.215 4.469,-0.378 2.368,0 4.736,0 7.104,0 z" /><path
   style="clip-rule:evenodd;fill:#ee3625;fill-rule:evenodd"
   inkscape:connector-curvature="0"
   id="path6"
   d="m 333.12989,128.71025 c 12.279,0 24.425,0 36.832,0 18.629,35.468 37.308,71.029 55.954,106.527 0.256,-0.021 0.342,-0.01 0.412,-0.038 0.067,-0.026 0.142,-0.081 0.174,-0.145 18.712,-35.4 37.419,-70.801 56.169,-106.283 12.276,0 24.547,0 36.924,0 0,62.52 0,124.917 0,187.25 -0.089,0.127 -0.121,0.201 -0.178,0.25 -0.059,0.05 -0.136,0.098 -0.209,0.105 -0.467,0.045 -0.935,0.112 -1.402,0.112 -11.759,-0.003 -23.519,-0.011 -35.278,-0.03 -0.221,0 -0.442,-0.133 -0.808,-0.25 0,-35.076 0,-70.171 0,-105.409 -0.385,0.361 -0.072,0.054 -0.385,0.095 -0.062,0.008 -0.137,0.04 -0.175,0.085 -0.1,0.121 -0.197,0.25 -0.269,0.389 -18.107,34.825 -36.213,69.652 -54.323,104.476 -0.024,0.045 -0.111,0.058 -0.345,0.174 -18.12,-35.119 -36.243,-70.241 -54.365,-105.364 -0.155,0.04 -0.311,0.08 -0.465,0.12 -0.15,35.134 -0.143,70.269 -0.53,105.378 -1.755,0.417 -34.583,0.528 -37.607,0.149 -0.407,-1.737 -0.553,-183.601 -0.126,-187.591 z" /><path
   style="clip-rule:evenodd;fill:#ee3625;fill-rule:evenodd"
   inkscape:connector-curvature="0"
   id="path8"
   d="m 659.79189,316.33625 c -18.308,-35.477 -36.424,-70.589 -54.54,-105.7 -0.134,0.044 -0.268,0.088 -0.402,0.132 -0.173,35.138 -0.346,70.275 -0.521,105.556 -12.675,0 -25.178,0 -37.68,0 -0.375,-1.716 -0.488,-184.08 -0.104,-187.535 12.184,0 24.385,0 36.861,0 18.602,35.414 37.281,70.979 56.173,106.943 9.594,-18.062 18.922,-35.828 28.292,-53.573 9.384,-17.774 18.765,-35.549 28.176,-53.381 12.318,0 24.583,0 36.944,0 0,62.525 0,124.923 0,187.309 -1.704,0.481 -32.76,0.676 -37.503,0.251 -0.074,-0.066 -0.137,-0.112 -0.186,-0.168 -0.053,-0.059 -0.102,-0.124 -0.133,-0.196 -0.029,-0.069 -0.044,-0.147 -0.047,-0.225 -0.014,-0.236 -0.027,-0.472 -0.027,-0.709 -0.016,-34.647 -0.028,-69.292 -0.045,-103.939 0,-0.058 -0.063,-0.116 -0.098,-0.173 -0.076,-0.018 -0.157,-0.061 -0.229,-0.05 -0.063,0.01 -0.12,0.077 -0.17,0.127 -0.055,0.056 -0.111,0.116 -0.146,0.185 -18.128,34.899 -36.257,69.801 -54.615,105.146 z" />
<flowRoot
   xml:space="preserve"
   id="flowRoot864"
   style="font-style:normal;font-weight:normal;font-size:40px;line-height:1.25;font-family:sans-serif;letter-spacing:0px;word-spacing:0px;fill:#6c747d;fill-opacity:1;stroke:none"
   transform="matrix(2.4028534,0,0,2.4028534,-892.85853,-34.890381)"><flowRegion
     id="flowRegion866"
     style="fill:#6c747d;fill-opacity:1"><rect
       id="rect868"
       width="202"
       height="175"
       x="718"
       y="26.000002"
       style="fill:#6c747d;fill-opacity:1" /></flowRegion><flowPara
     id="flowPara870"
     style="font-style:normal;font-variant:normal;font-weight:bold;font-stretch:normal;font-family:'Gotham Black';-inkscape-font-specification:'Gotham Black,  Bold';fill:#6c747d;fill-opacity:1">TALKS</flowPara></flowRoot><flowRoot
   xml:space="preserve"
   id="flowRoot906"
   style="font-style:normal;font-weight:normal;font-size:40px;line-height:1.25;font-family:sans-serif;letter-spacing:0px;word-spacing:0px;fill:#6c747d;fill-opacity:1;stroke:none"
   transform="matrix(3.2931356,0,0,3.2931356,124.64441,97.10395)"><flowRegion
     id="flowRegion908"
     style="fill:#6c747d;fill-opacity:1"><rect
       id="rect910"
       width="702"
       height="326"
       x="-30"
       y="-10.670211"
       style="fill:#6c747d;fill-opacity:1" /></flowRegion><flowPara
     id="flowPara912"
     style="font-size:85.33333588px;fill:#6c747d;fill-opacity:1">(       )</flowPara></flowRoot></svg>