<?xml version="1.0" encoding="utf-8"?>
<!-- Generator: Adobe Illustrator 16.0.0, SVG Export Plug-In . SVG Version: 6.00 Build 0)  -->
<!DOCTYPE svg PUBLIC "-//W3C//DTD SVG 1.1//EN" "http://www.w3.org/Graphics/SVG/1.1/DTD/svg11.dtd" [
	<!ENTITY ns_extend "http://ns.adobe.com/Extensibility/1.0/">
	<!ENTITY ns_ai "http://ns.adobe.com/AdobeIllustrator/10.0/">
	<!ENTITY ns_graphs "http://ns.adobe.com/Graphs/1.0/">
	<!ENTITY ns_vars "http://ns.adobe.com/Variables/1.0/">
	<!ENTITY ns_imrep "http://ns.adobe.com/ImageReplacement/1.0/">
	<!ENTITY ns_sfw "http://ns.adobe.com/SaveForWeb/1.0/">
	<!ENTITY ns_custom "http://ns.adobe.com/GenericCustomNamespace/1.0/">
	<!ENTITY ns_adobe_xpath "http://ns.adobe.com/XPath/1.0/">
]>
<svg version="1.1" id="Layer_1" xmlns:x="&ns_extend;" xmlns:i="&ns_ai;" xmlns:graph="&ns_graphs;"
	 xmlns="http://www.w3.org/2000/svg" xmlns:xlink="http://www.w3.org/1999/xlink" x="0px" y="0px" width="792px" height="396.85px"
	 viewBox="0 0 792 396.85" enable-background="new 0 0 792 396.85" xml:space="preserve">
<metadata>
	<sfw  xmlns="&ns_sfw;">
		<slices></slices>
		<sliceSourceBounds  height="329.854" width="660.175" y="142.492" x="75.428" bottomLeftOrigin="true"></sliceSourceBounds>
	</sfw>
</metadata>
<g enable-background="new    ">
	<path fill="#4D4D4F" d="M79.289,111.288h21.969v162.723H79.289V111.288z"/>
	<path fill="#4D4D4F" d="M237.176,129.425l-18.009,14.434c-4.758-4.938-9.071-8.622-12.937-11.049s-9.452-3.64-16.756-3.64
		c-7.987,0-14.467,1.804-19.437,5.412c-4.969,3.608-7.454,8.256-7.454,13.944c0,4.925,2.169,9.275,6.51,13.054
		c4.339,3.778,11.737,7.913,22.19,12.403s18.592,8.672,24.416,12.543c5.822,3.872,10.604,8.148,14.343,12.826
		c3.74,4.681,6.522,9.616,8.35,14.805c1.828,5.19,2.742,10.679,2.742,16.465c0,13.528-4.917,25.058-14.752,34.588
		c-9.835,9.527-21.735,14.293-35.699,14.293c-13.625,0-25.653-3.726-36.083-11.176c-10.432-7.45-18.457-18.626-24.077-33.528
		l22.225-6.259c8.088,18.309,20.478,27.461,37.168,27.461c8.089,0,14.816-2.418,20.181-7.258c5.365-4.838,8.047-10.951,8.047-18.337
		c0-4.414-1.407-8.849-4.219-13.308c-2.814-4.456-6.309-8.128-10.484-11.014c-4.177-2.887-10.821-6.199-19.931-9.936
		c-9.112-3.735-16.124-7.158-21.037-10.264c-4.914-3.105-9.167-6.808-12.755-11.104c-3.588-4.296-6.216-8.571-7.883-12.826
		s-2.499-8.807-2.499-13.656c0-11.657,4.682-21.592,14.05-29.803c9.366-8.21,20.733-12.317,34.103-12.317
		c8.855,0,17.838,1.916,26.95,5.748C223.551,115.759,231.129,121.592,237.176,129.425z"/>
	<path fill="#4D4D4F" d="M400.939,116.908v25.162c-17.542-8.6-33.678-12.9-48.408-12.9c-18.903,0-34.827,6.104-47.77,18.311
		c-12.944,12.208-19.415,27.199-19.415,44.978c0,18.119,6.62,33.238,19.861,45.36c13.24,12.122,29.824,18.183,49.75,18.183
		c14.475,0,29.802-4.554,45.981-13.666v25.417c-14.732,7.833-30.698,11.751-47.897,11.751c-25.206,0-46.748-8.529-64.629-25.589
		c-17.881-17.06-26.822-37.632-26.822-61.712c0-23.653,8.791-43.903,26.375-60.751c17.582-16.849,38.765-25.272,63.543-25.272
		C367.431,106.179,383.908,109.755,400.939,116.908z"/>
	<path fill="#4D4D4F" d="M427.779,111.288h21.969v162.723h-21.969V111.288z"/>
</g>
<text transform="matrix(1 0 0 1 75.9282 319.6602)" fill="#4D4D4F" font-family="'TwCenMT-Regular'" font-size="40.8">INSTITUTO</text>
<g enable-background="new    ">
	<path fill="#4D4D4F" d="M93.277,338.705l-2.809,2.251c-0.742-0.77-1.415-1.345-2.018-1.723c-0.603-0.379-1.474-0.568-2.614-0.568
		c-1.246,0-2.256,0.282-3.031,0.845c-0.775,0.563-1.163,1.288-1.163,2.175c0,0.769,0.338,1.447,1.015,2.036s1.831,1.234,3.461,1.935
		c1.631,0.7,2.9,1.353,3.809,1.956c0.908,0.604,1.654,1.271,2.237,2.001c0.583,0.729,1.018,1.5,1.303,2.309
		c0.285,0.81,0.428,1.666,0.428,2.568c0,2.11-0.767,3.908-2.301,5.395c-1.534,1.486-3.39,2.229-5.568,2.229
		c-2.125,0-4.001-0.581-5.628-1.743c-1.627-1.162-2.879-2.905-3.755-5.229l3.466-0.976c1.262,2.855,3.194,4.283,5.797,4.283
		c1.262,0,2.311-0.378,3.147-1.133c0.837-0.754,1.255-1.708,1.255-2.859c0-0.688-0.22-1.381-0.658-2.076
		c-0.439-0.695-0.984-1.268-1.635-1.718s-1.688-0.967-3.109-1.55c-1.421-0.582-2.515-1.116-3.281-1.601
		c-0.767-0.484-1.43-1.062-1.99-1.732c-0.56-0.67-0.97-1.337-1.229-2c-0.26-0.664-0.39-1.374-0.39-2.13
		c0-1.818,0.73-3.368,2.191-4.648c1.461-1.281,3.234-1.922,5.319-1.922c1.381,0,2.782,0.299,4.203,0.896
		C91.152,336.573,92.334,337.483,93.277,338.705z"/>
	<path fill="#4D4D4F" d="M98.118,335.876h3.427v25.381h-3.427V335.876z"/>
	<path fill="#4D4D4F" d="M122.622,338.705l-2.809,2.251c-0.742-0.77-1.415-1.345-2.018-1.723c-0.603-0.379-1.474-0.568-2.614-0.568
		c-1.246,0-2.256,0.282-3.031,0.845c-0.775,0.563-1.163,1.288-1.163,2.175c0,0.769,0.338,1.447,1.015,2.036s1.831,1.234,3.461,1.935
		c1.631,0.7,2.9,1.353,3.809,1.956c0.908,0.604,1.654,1.271,2.237,2.001c0.583,0.729,1.018,1.5,1.303,2.309
		c0.285,0.81,0.428,1.666,0.428,2.568c0,2.11-0.767,3.908-2.301,5.395c-1.534,1.486-3.39,2.229-5.568,2.229
		c-2.125,0-4.001-0.581-5.628-1.743c-1.627-1.162-2.879-2.905-3.755-5.229l3.466-0.976c1.262,2.855,3.194,4.283,5.797,4.283
		c1.262,0,2.311-0.378,3.147-1.133c0.837-0.754,1.255-1.708,1.255-2.859c0-0.688-0.22-1.381-0.658-2.076
		c-0.439-0.695-0.984-1.268-1.635-1.718s-1.688-0.967-3.109-1.55c-1.421-0.582-2.515-1.116-3.281-1.601
		c-0.767-0.484-1.43-1.062-1.99-1.732c-0.56-0.67-0.97-1.337-1.229-2c-0.26-0.664-0.39-1.374-0.39-2.13
		c0-1.818,0.73-3.368,2.191-4.648c1.461-1.281,3.234-1.922,5.319-1.922c1.381,0,2.782,0.299,4.203,0.896
		C120.497,336.573,121.679,337.483,122.622,338.705z"/>
	<path fill="#4D4D4F" d="M125.969,335.876h15.519v3.467h-6.056v21.914h-3.427v-21.914h-6.036V335.876z"/>
	<path fill="#4D4D4F" d="M145.114,335.876h14.065v3.467h-10.638v6.335h10.638v3.427h-10.638v8.726h10.638v3.427h-14.065V335.876z"/>
	<path fill="#4D4D4F" d="M184.211,334.82l6.942,26.437h-3.397l-4.201-16.152l-7.233,17.129l-7.255-17.271l-4.259,16.294h-3.378
		l6.943-26.437l7.945,18.915L184.211,334.82z"/>
	<path fill="#4D4D4F" d="M204.192,334.9l11.983,26.356h-3.633l-2.945-6.494h-10.77l-2.913,6.494h-3.605L204.192,334.9z
		 M204.183,342.821l-4.06,9.053h8.164L204.183,342.821z"/>
	<path fill="#4D4D4F" d="M234.862,338.705l-2.809,2.251c-0.742-0.77-1.415-1.345-2.018-1.723c-0.603-0.379-1.474-0.568-2.614-0.568
		c-1.246,0-2.256,0.282-3.031,0.845c-0.775,0.563-1.163,1.288-1.163,2.175c0,0.769,0.338,1.447,1.015,2.036s1.831,1.234,3.461,1.935
		c1.631,0.7,2.9,1.353,3.809,1.956c0.908,0.604,1.654,1.271,2.237,2.001c0.583,0.729,1.018,1.5,1.303,2.309
		c0.285,0.81,0.428,1.666,0.428,2.568c0,2.11-0.767,3.908-2.301,5.395c-1.534,1.486-3.39,2.229-5.568,2.229
		c-2.125,0-4.001-0.581-5.628-1.743c-1.627-1.162-2.879-2.905-3.755-5.229l3.466-0.976c1.262,2.855,3.194,4.283,5.797,4.283
		c1.262,0,2.311-0.378,3.147-1.133c0.837-0.754,1.255-1.708,1.255-2.859c0-0.688-0.22-1.381-0.658-2.076
		c-0.439-0.695-0.984-1.268-1.635-1.718s-1.688-0.967-3.109-1.55c-1.421-0.582-2.515-1.116-3.281-1.601
		c-0.767-0.484-1.43-1.062-1.99-1.732c-0.56-0.67-0.97-1.337-1.229-2c-0.26-0.664-0.39-1.374-0.39-2.13
		c0-1.818,0.73-3.368,2.191-4.648c1.461-1.281,3.234-1.922,5.319-1.922c1.381,0,2.782,0.299,4.203,0.896
		C232.737,336.573,233.919,337.483,234.862,338.705z"/>
	<path fill="#4D4D4F" d="M271.538,336.753v3.925c-2.736-1.342-5.252-2.013-7.55-2.013c-2.948,0-5.432,0.952-7.451,2.856
		c-2.019,1.904-3.028,4.242-3.028,7.016c0,2.826,1.033,5.184,3.098,7.074c2.065,1.892,4.652,2.837,7.759,2.837
		c2.258,0,4.648-0.711,7.172-2.132v3.964c-2.298,1.222-4.788,1.833-7.471,1.833c-3.931,0-7.291-1.33-10.08-3.991
		c-2.789-2.66-4.184-5.869-4.184-9.625c0-3.689,1.371-6.848,4.114-9.476c2.742-2.628,6.046-3.942,9.911-3.942
		C266.312,335.079,268.882,335.638,271.538,336.753z"/>
	<path fill="#4D4D4F" d="M274.606,348.417c0-3.663,1.381-6.801,4.144-9.416c2.763-2.614,6.083-3.922,9.961-3.922
		c3.785,0,7.046,1.317,9.782,3.952s4.104,5.763,4.104,9.386c0,3.836-1.352,7.077-4.054,9.726c-2.703,2.647-6.02,3.971-9.951,3.971
		c-3.878,0-7.179-1.333-9.901-4.001S274.606,352.213,274.606,348.417z M298.911,348.576c0-2.799-1.009-5.157-3.028-7.074
		c-2.019-1.918-4.502-2.876-7.451-2.876c-2.802,0-5.203,0.975-7.202,2.926c-1.999,1.95-2.998,4.292-2.998,7.024
		c0,2.773,1.026,5.119,3.078,7.036c2.052,1.917,4.565,2.875,7.541,2.875c2.736,0,5.097-0.978,7.082-2.935
		S298.911,351.271,298.911,348.576z"/>
	<path fill="#4D4D4F" d="M328.067,334.82l6.942,26.437h-3.397l-4.201-16.152l-7.233,17.129l-7.255-17.271l-4.259,16.294h-3.378
		l6.943-26.437l7.945,18.915L328.067,334.82z"/>
	<path fill="#4D4D4F" d="M339.392,335.876h5.1c2.882,0,5.206,0.678,6.973,2.032c1.766,1.354,2.649,3.115,2.649,5.279
		c0,2.179-0.933,4.005-2.799,5.479c-1.866,1.475-4.698,2.191-8.497,2.151v10.439h-3.427V335.876z M342.819,338.904v8.886
		c2.603-0.026,4.532-0.396,5.787-1.106c1.255-0.71,1.883-1.849,1.883-3.416c0-1.182-0.475-2.205-1.424-3.068
		C348.115,339.336,346.033,338.904,342.819,338.904z"/>
	<path fill="#4D4D4F" d="M359.473,335.876h3.427v21.954h8.268v3.427h-11.694V335.876z"/>
	<path fill="#4D4D4F" d="M374.395,335.876h14.065v3.467h-10.638v6.335h10.638v3.427h-10.638v8.726h10.638v3.427h-14.065V335.876z"/>
	<path fill="#4D4D4F" d="M398.461,335.916h3.466v18.607c0,5.06-2.104,7.59-6.315,7.59c-1.461,0-2.902-0.378-4.323-1.136l1.713-2.828
		c1.116,0.385,2.025,0.577,2.729,0.577c1.82,0,2.73-1.222,2.73-3.665V335.916z"/>
	<path fill="#4D4D4F" d="M407.186,348.417c0-3.663,1.382-6.801,4.145-9.416c2.762-2.614,6.082-3.922,9.961-3.922
		c3.785,0,7.045,1.317,9.781,3.952s4.104,5.763,4.104,9.386c0,3.836-1.352,7.077-4.054,9.726c-2.702,2.647-6.02,3.971-9.95,3.971
		c-3.879,0-7.18-1.333-9.902-4.001S407.186,352.213,407.186,348.417z M431.49,348.576c0-2.799-1.009-5.157-3.027-7.074
		c-2.02-1.918-4.502-2.876-7.451-2.876c-2.803,0-5.203,0.975-7.201,2.926c-2,1.95-2.998,4.292-2.998,7.024
		c0,2.773,1.025,5.119,3.077,7.036s4.565,2.875,7.54,2.875c2.736,0,5.098-0.978,7.082-2.935
		C430.498,353.596,431.49,351.271,431.49,348.576z"/>
	<path fill="#4D4D4F" d="M455.197,338.705l-2.809,2.251c-0.742-0.77-1.414-1.345-2.018-1.723c-0.604-0.379-1.475-0.568-2.613-0.568
		c-1.246,0-2.257,0.282-3.031,0.845c-0.775,0.563-1.163,1.288-1.163,2.175c0,0.769,0.339,1.447,1.015,2.036
		c0.678,0.589,1.831,1.234,3.461,1.935c1.631,0.7,2.9,1.353,3.809,1.956c0.908,0.604,1.654,1.271,2.237,2.001s1.018,1.5,1.303,2.309
		c0.285,0.81,0.428,1.666,0.428,2.568c0,2.11-0.767,3.908-2.302,5.395c-1.533,1.486-3.39,2.229-5.567,2.229
		c-2.126,0-4.001-0.581-5.628-1.743s-2.879-2.905-3.756-5.229l3.467-0.976c1.262,2.855,3.193,4.283,5.797,4.283
		c1.262,0,2.312-0.378,3.148-1.133c0.836-0.754,1.255-1.708,1.255-2.859c0-0.688-0.22-1.381-0.658-2.076s-0.983-1.268-1.636-1.718
		c-0.65-0.45-1.688-0.967-3.108-1.55c-1.421-0.582-2.515-1.116-3.28-1.601c-0.768-0.484-1.431-1.062-1.99-1.732
		c-0.56-0.67-0.97-1.337-1.229-2c-0.26-0.664-0.39-1.374-0.39-2.13c0-1.818,0.73-3.368,2.191-4.648
		c1.461-1.281,3.234-1.922,5.319-1.922c1.381,0,2.782,0.299,4.203,0.896S454.254,337.483,455.197,338.705z"/>
</g>
<g enable-background="new    ">
	<path fill="#4D4D4F" d="M481.018,335.876h6.156c4.873,0,8.5,1.289,10.877,3.865c2.377,2.577,3.566,5.519,3.566,8.825
		c0,3.334-1.229,6.282-3.686,8.846s-6.03,3.845-10.719,3.845h-6.195V335.876z M484.484,339.263v18.567h0.199
		c2.576,0,4.516-0.116,5.816-0.349c1.302-0.232,2.537-0.74,3.706-1.523c1.169-0.784,2.099-1.823,2.789-3.118s1.036-2.72,1.036-4.273
		c0-1.952-0.552-3.719-1.654-5.299c-1.102-1.58-2.42-2.643-3.954-3.188s-3.596-0.817-6.186-0.817H484.484z"/>
	<path fill="#4D4D4F" d="M505.342,335.876h14.065v3.467H508.77v6.335h10.638v3.427H508.77v8.726h10.638v3.427h-14.065V335.876z"/>
</g>
<g enable-background="new    ">
	<path fill="#4D4D4F" d="M536.918,335.876h3.427v25.381h-3.427V335.876z"/>
	<path fill="#4D4D4F" d="M546.703,334.86l18.766,19.29v-18.274h3.467v26.557l-18.766-19.205v18.029h-3.467V334.86z"/>
	<path fill="#4D4D4F" d="M599.618,339.94l-2.569,2.53c-2.59-2.537-5.586-3.806-8.985-3.806c-2.976,0-5.452,0.956-7.431,2.866
		c-1.979,1.911-2.969,4.299-2.969,7.165c0,2.508,0.959,4.766,2.879,6.776c1.919,2.01,4.565,3.015,7.939,3.015
		c5.06,0,8.24-2.197,9.542-6.594h-6.853v-3.467h10.816c0,1.738-0.115,3.124-0.348,4.158s-0.715,2.175-1.445,3.422
		c-0.73,1.246-1.703,2.363-2.918,3.352s-2.518,1.694-3.904,2.118c-1.389,0.425-3.045,0.637-4.971,0.637
		c-4.383,0-7.879-1.377-10.488-4.131c-2.61-2.753-3.916-5.902-3.916-9.445c0-3.729,1.336-6.905,4.005-9.525
		c2.669-2.621,5.903-3.933,9.702-3.933c2.258,0,4.319,0.343,6.186,1.026C595.756,336.79,597.666,338.067,599.618,339.94z"/>
	<path fill="#4D4D4F" d="M607.251,335.876h14.065v3.467h-10.639v6.335h10.639v3.427h-10.639v8.726h10.639v3.427h-14.065V335.876z"/>
	<path fill="#4D4D4F" d="M626.18,334.86l18.767,19.29v-18.274h3.466v26.557l-18.766-19.205v18.029h-3.467V334.86z"/>
	<path fill="#4D4D4F" d="M654.512,335.876h3.428v25.381h-3.428V335.876z"/>
	<path fill="#4D4D4F" d="M664.217,335.876h14.064v3.467h-10.638v6.335h10.638v3.427h-10.638v8.726h10.638v3.427h-14.064V335.876z"/>
	<path fill="#4D4D4F" d="M683.883,335.876h5.498c2.736,0,4.964,0.681,6.684,2.042c1.721,1.36,2.58,3.104,2.58,5.228
		c0,1.7-0.557,3.2-1.668,4.502c-1.113,1.301-2.85,2.217-5.207,2.748l7.373,10.861h-3.977l-7.04-10.439h-0.776v10.439h-3.467V335.876
		z M687.35,338.944v8.846c5.113,0.106,7.67-1.375,7.67-4.443c0-1.075-0.299-1.955-0.896-2.64c-0.598-0.684-1.395-1.148-2.391-1.395
		C690.736,339.067,689.275,338.944,687.35,338.944z"/>
	<path fill="#4D4D4F" d="M704.166,333.347l2.65-5.539h4.701l-4.402,5.539H704.166z M704.664,335.876h3.428v25.381h-3.428V335.876z"
		/>
	<path fill="#4D4D4F" d="M724.121,334.9l11.982,26.356h-3.633l-2.945-6.494h-10.77l-2.912,6.494h-3.605L724.121,334.9z
		 M724.111,342.821l-4.06,9.053h8.164L724.111,342.821z"/>
</g>
<g>
	<path fill="#87171A" d="M480.162,212.494c-1.44,4.516-2.925,9.045-1.428,10.203c1.088,0.844,3.536-0.121,6.289-1.861
		c3.48-2.198,3.963-3.271,4.885-7.254c1.063-4.594,1.596-7.858-0.993-7.156c-1.152,0.313-2.591,1.168-4.206,2.13
		C482.701,209.748,480.741,210.687,480.162,212.494z"/>
	<path fill="#121344" d="M489.473,192.211c-1.412,1.896-2.563,4.856-1.281,6.163c1.281,1.305,3.697,0.338,5.417-1.355
		c1.715-1.69,4.858-7.135,2.199-7.785C493.147,188.578,491.43,189.57,489.473,192.211z"/>
	<path fill="#87171A" d="M503.156,194.936c-0.979,3.729-1.207,5.924-0.071,6.822c1.136,0.896,3.167,0.384,6.698-2.325
		c3.529-2.708,3.554-3.75,4.206-7.374c0.653-3.627,1.161-6.964-1.33-6.31c-2.489,0.651-5.293,2.514-7.107,3.892
		C503.738,191.019,503.508,193.603,503.156,194.936z"/>
	<path fill="#121344" d="M516.723,194.674c-3.271,1.731-4.737,1.692-5.853,6.384c-1.111,4.689-1.208,5.174-1.354,6.332
		c-0.146,1.164,0.198,3.533,5.009,0.824c4.807-2.707,5.292-2.807,6.211-7.543c0.918-4.739,1.466-7.153-0.352-7.159
		C518.305,193.509,517.582,194.217,516.723,194.674z"/>
	<path fill="#121344" d="M494.156,209.677c-0.453,3.348-0.453,6.529,2.05,5.223c2.502-1.307,5.04-2.539,5.587-4.243
		c0.542-1.705,1.485-6.095,0.035-6.13C500.377,204.492,494.583,206.519,494.156,209.677z"/>
	<path fill="#121344" d="M517.206,249.14c0,0,0,0-1.959-2.83c-1.96-2.83-3.484-0.438-5.366,1.523
		c-1.887,1.959-4.498,4.133-5.104,6.164c-0.607,2.029,0.606,3.193,2.129,5.494c1.522,2.305,3.918,0,3.918,0l6.384-6.508
		c1.813,5.438,4.934,3.985,5.513,3.479c0.581-0.508,9.509-9.282,9.509-9.282c3.417,6.309,12.833,7.469,12.833,7.469
		s-2.686,5.658-4.425,9.285c-1.743,3.629-3.12,6.528,0.219,6.893c7.155,0.777,6.527-2.029,7.688-2.902
		c1.159-0.867,5.802-12.693,7.108-13.418c1.306-0.727,26.103-3.109,54.26-31.846c49.181-50.195,51.261-86.464,51.84-92.171
		c0.579-5.707,1.741-35.786-26.694-33.657c-31.038,2.325-61.994,36.269-61.994,36.269s-30.834,17.118-36.441,20.795
		c-5.61,3.675-5.74,0.694-3.71-2.306c2.032-2.997,23.711-44.699,25.644-46.923c1.936-2.224,16.345-15.278,16.345-15.278
		s0-3.193,0.581-4.063c0.579-0.87,13.153-10.446,13.733-10.541c0.579-0.097,0.579,2.031,0.579,2.031
		c3.482-2.806,14.508-9.286,14.895-10.447c0.388-1.161,2.708-6.188,2.708-6.188s11.222-6.578,12.092-6.867
		c0.867-0.291,0.774,4.544,0.774,4.544c1.835-1.063,12.96-6.286,13.829-6.577c0.871-0.289,1.548-5.801,4.354-7.154
		c2.804-1.355,11.508-2.613,11.412-2.322c-0.099,0.291-1.452,5.416-1.452,5.416c5.707-2.417,12.188-2.611,12.188-2.611l5.706-7.736
		c8.994-0.582,9.77-0.291,9.673,0.482s-3.387,7.545-3.387,7.545c2.127-0.193,10.445,2.224,10.445,2.224s6.866-8.221,7.738-8.221
		c0.871,0,7.062,4.061,7.062,4.061l-5.807,9.575c2.709,1.645,7.547,8.024,7.547,8.024l8.22-6.382l4.063,8.123l-7.446,9.189
		c1.259,1.644,2.129,11.799,2.129,11.799l7.929-3.773V91.03l-7.155,6.864c-0.291,4.064-1.863,14.146-1.863,14.146l6.313-1.668
		l-3.48,14.001l-6.946,5.224l-5.896,16.32l4.571-0.072c0,0-4.134,14.217-6.312,15.668c-2.176,1.45-6.456,3.262-6.456,3.262
		l-8.27,14.873c0,0,3.556,1.667,3.264,3.264c-0.29,1.596-9.792,15.666-9.792,15.666l-5.149,0.508l-10.155,14.22
		c1.015,1.161,1.887,4.934,1.887,4.934s-9.721,13.637-10.882,14c-1.16,0.361-5.658-0.725-5.658-0.725l-9.355,10.807v6.746
		c-32.353,34.965-46.496,38.588-46.496,38.588c0.869-7.613,0.577-9.064-2.468-7.541c-3.046,1.523-13.42,8.486-14.871,10.154
		c-1.449,1.666-2.104,9.213-2.104,9.213c-21.76,12.332-47.294,12.692-47.294,12.692s0,0,1.813-4.133
		c1.813-4.138-2.323-4.789-2.323-4.789s-6.454-0.651-8.196-0.651c-3.264,0-6.309,7.182-6.309,7.182
		c-4.789-0.799-10.447-5.076-10.447-5.076s2.902-3.193,3.774-4.645c0.867-1.453-1.962-3.334-1.962-3.334
		c-2.537-2.615-3.553-2.472-4.278-2.25c-0.727,0.219-4.206,4.641-4.206,4.641c-5.297-4.279-9.068-13.564-9.068-13.564
		s5.806-5.656,7.183-6.893c1.378-1.23-1.016-6.311-0.291-6.816c0.725-0.51,5.514-4.209,5.729-5.225
		c0.22-1.016,0.146-1.305-0.071-3.844c-0.219-2.537-2.685-0.871-2.685-0.871l-4.281,3.266l-0.867-7.979l8.339-6.894
		c0,0,0.146-4.784,0.146-7.907c0-3.117-2.392-1.312-2.392-1.312s-7.254,4.793-8.126,6.463c-0.869,1.668-0.437,8.483-0.437,8.483
		l-7.107,5.412c-0.29-16.717,1.306-20.498,1.306-20.498l15.523-9.647c0,0,0,0,0.073,5.151c0.071,5.148,3.697,3.048,3.697,3.048
		l5.514-4.209c0,0-0.145,2.95,0,6.819c0.146,3.869,4.063,1.256,4.063,1.256l6.916-6.381c0,0,0-3.336,0.05-6.819
		c0.047-3.48-2.469-2.08-2.469-2.08l-6.384,4.498l0.293-7.357l7.445-4.489c0,0-0.049,0.481,0,4.108
		c0.05,3.629,2.563,1.84,3.627,1.308c1.064-0.533,5.076-3.968,5.076-3.968s0.049,4.111,0.001,5.853
		c-0.048,1.742,1.838,1.936,2.807,1.547c0.967-0.385,3.771-2.563,3.771-2.563c-0.823,4.399,2.176,12.038,2.176,12.038
		L517.206,249.14z M499.069,272.567c1.342,2.228,2.177,3.287,2.612,3.818c0.435,0.533,1.549,1.646,4.159-1.063
		c2.61-2.707,5.224-5.707,5.705-6.723c0.483-1.017,0.583-2.224-0.677-4.015c-1.258-1.787-2.563-4.543-4.884-2.319
		c-2.322,2.227-4.74,5.075-5.9,6.286C498.925,269.765,497.996,270.785,499.069,272.567z M526.248,260.526
		c-2.374,2.894-2.708,3.726-3.384,4.546c-0.68,0.821-1.404,3.528,0.919,4.108c2.32,0.584,3.432-0.045,5.124-2.271
		c1.692-2.224,3.871-5.369,2.515-6.576C530.07,259.125,527.299,259.248,526.248,260.526z M530.166,271.794
		c-2.375,3.607-3.287,5.078-3.676,6.771c-0.387,1.69-0.387,2.555,3.19,2.463c3.953-0.1,3.578-0.82,5.514-3.676
		c1.935-2.849,4.402-7.154,1.84-7.492C534.471,269.521,531.849,269.237,530.166,271.794z M511.438,283.231
		c-0.906,0.689-2.646,3.847-3.882,5.438c-1.231,1.599-2.682,3.556-2.177,5.771c0.318,1.391,3.12,0.944,4.937,0.979
		c1.813,0.033,3.585-0.088,4.271-0.813c0.689-0.724,3.924-5.896,5.193-8.4c1.269-2.5-0.216-3.389-2.358-3.445
		C513.25,282.647,512.347,282.542,511.438,283.231z M562.361,271.261c-3.592,1.709-5.479,2.541-6.131,4.57
		c-0.652,2.031-1.449,4.389-1.85,6.021c-0.399,1.631-0.435,4.352,2.901,2.791c3.338-1.558,6.347-2.861,7.107-3.373
		c0.763-0.506,1.595-1.23,2.501-4.644c0.909-3.408,2.033-6.826,0.582-6.985C566.024,269.485,563.501,270.72,562.361,271.261z"/>
	<g>
		<path fill="#D22027" d="M479.178,210.72c-1.438,4.514-2.924,9.041-1.426,10.203c1.085,0.84,3.535-0.125,6.287-1.859
			c3.479-2.203,3.959-3.274,4.883-7.256c1.065-4.596,1.595-7.858-0.991-7.156c-1.153,0.312-2.594,1.166-4.205,2.125
			C481.717,207.972,479.753,208.912,479.178,210.72z"/>
		<path fill="#2D378F" d="M488.488,190.433c-1.412,1.897-2.565,4.857-1.283,6.166c1.283,1.304,3.701,0.337,5.416-1.353
			c1.717-1.694,4.861-7.138,2.201-7.787C492.162,186.806,490.445,187.799,488.488,190.433z"/>
		<path fill="#D22027" d="M502.172,193.157c-0.977,3.73-1.21,5.928-0.072,6.824c1.138,0.894,3.169,0.381,6.701-2.322
			c3.525-2.711,3.552-3.749,4.204-7.377c0.653-3.626,1.16-6.964-1.329-6.31c-2.492,0.652-5.297,2.514-7.109,3.892
			C502.751,189.245,502.522,191.826,502.172,193.157z"/>
		<path fill="#2D358D" d="M515.736,192.897c-3.272,1.73-4.737,1.694-5.851,6.383c-1.112,4.693-1.211,5.176-1.354,6.338
			c-0.145,1.158,0.2,3.529,5.007,0.822c4.81-2.709,5.296-2.806,6.212-7.543c0.919-4.741,1.469-7.154-0.35-7.158
			C517.322,191.733,516.6,192.442,515.736,192.897z"/>
		<path fill="#2D358D" d="M493.171,207.903c-0.452,3.347-0.452,6.527,2.051,5.222c2.501-1.308,5.04-2.537,5.584-4.242
			c0.544-1.707,1.487-6.094,0.035-6.131C499.394,202.716,493.6,204.748,493.171,207.903z"/>
		
			<linearGradient id="SVGID_1_" gradientUnits="userSpaceOnUse" x1="545.9482" y1="308.0244" x2="639.5276" y2="145.94" gradientTransform="matrix(1 0 0 -1 0 397.8496)">
			<stop  offset="0" style="stop-color:#EFF9FE"/>
			<stop  offset="0.2583" style="stop-color:#989BC8"/>
			<stop  offset="0.494" style="stop-color:#6467A7"/>
			<stop  offset="0.6893" style="stop-color:#424793"/>
			<stop  offset="0.8368" style="stop-color:#2C3589"/>
			<stop  offset="0.9194" style="stop-color:#252E85"/>
		</linearGradient>
		<path fill="url(#SVGID_1_)" d="M514.046,245.149c0,0,0,0-1.96-2.828c-1.96-2.829-3.48-0.436-5.367,1.527
			c-1.888,1.953-4.498,4.131-5.105,6.162c-0.608,2.031,0.607,3.191,2.134,5.494c1.521,2.305,3.914,0,3.914,0l6.386-6.51
			c1.812,5.438,4.93,3.99,5.513,3.48c0.578-0.507,9.508-9.281,9.508-9.281c3.416,6.309,12.835,7.469,12.835,7.469
			s-2.685,5.658-4.428,9.285c-1.739,3.629-3.116,6.531,0.221,6.893c7.155,0.777,6.527-2.033,7.688-2.902
			c1.162-0.871,5.805-12.692,7.108-13.42c1.306-0.727,26.104-3.106,54.258-31.844c49.183-50.199,51.261-86.464,51.841-92.171
			c0.579-5.707,1.742-35.786-26.69-33.657c-31.038,2.322-61.997,36.27-61.997,36.27s-30.832,17.117-36.44,20.795
			c-5.612,3.671-5.741,0.689-3.71-2.307c2.029-2.998,23.707-44.699,25.641-46.924c1.937-2.226,16.349-15.279,16.349-15.279
			s0-3.193,0.58-4.063s13.152-10.445,13.732-10.541c0.582-0.097,0.582,2.028,0.582,2.028c3.48-2.804,14.506-9.282,14.894-10.444
			c0.388-1.158,2.71-6.189,2.71-6.189s11.219-6.576,12.088-6.867c0.871-0.291,0.773,4.547,0.773,4.547
			c1.837-1.065,12.96-6.287,13.83-6.578c0.871-0.289,1.548-5.803,4.353-7.155c2.806-1.355,11.511-2.612,11.416-2.322
			c-0.101,0.29-1.453,5.416-1.453,5.416c5.705-2.419,12.188-2.61,12.188-2.61l5.705-7.738c8.996-0.581,9.771-0.292,9.672,0.482
			c-0.096,0.773-3.385,7.546-3.385,7.546c2.126-0.194,10.444,2.224,10.444,2.224s6.867-8.221,7.739-8.221
			c0.867,0,7.059,4.062,7.059,4.062l-5.804,9.573c2.708,1.644,7.546,8.025,7.546,8.025l8.222-6.383l4.063,8.125l-7.448,9.188
			c1.257,1.643,2.128,11.799,2.128,11.799l7.932-3.771v11.509l-7.158,6.867c-0.288,4.062-1.858,14.145-1.858,14.145l6.309-1.668
			l-3.48,14l-6.946,5.224l-5.893,16.322l4.567-0.076c0,0-4.135,14.218-6.311,15.668c-2.177,1.453-6.455,3.265-6.455,3.265
			l-8.27,14.872c0,0,3.554,1.667,3.265,3.264c-0.291,1.595-9.792,15.668-9.792,15.668l-5.15,0.507l-10.156,14.217
			c1.017,1.16,1.887,4.934,1.887,4.934s-9.721,13.639-10.881,14.002s-5.659-0.725-5.659-0.725l-9.354,10.807v6.746
			c-32.354,34.961-46.499,38.59-46.499,38.59c0.872-7.619,0.58-9.068-2.466-7.547c-3.047,1.525-13.419,8.49-14.872,10.158
			c-1.447,1.668-2.102,9.213-2.102,9.213c-21.763,12.33-47.294,12.693-47.294,12.693s0,0,1.813-4.138
			c1.813-4.133-2.322-4.784-2.322-4.784s-6.455-0.654-8.196-0.654c-3.266,0-6.311,7.184-6.311,7.184
			c-4.788-0.801-10.445-5.08-10.445-5.08s2.901-3.189,3.771-4.643c0.871-1.451-1.959-3.338-1.959-3.338
			c-2.54-2.611-3.555-2.465-4.278-2.244c-0.727,0.213-4.209,4.643-4.209,4.643c-5.295-4.279-9.066-13.566-9.066-13.566
			s5.804-5.657,7.183-6.891c1.378-1.236-1.017-6.313-0.291-6.818c0.726-0.51,5.513-4.209,5.729-5.227
			c0.218-1.014,0.146-1.303-0.071-3.844c-0.22-2.535-2.684-0.867-2.684-0.867l-4.28,3.264l-0.87-7.979l8.342-6.892
			c0,0,0.146-4.787,0.146-7.907c0-3.119-2.394-1.31-2.394-1.31s-7.254,4.791-8.126,6.461c-0.87,1.67-0.434,8.486-0.434,8.486
			l-7.11,5.408c-0.29-16.715,1.306-20.496,1.306-20.496l15.522-9.648c0,0,0,0,0.074,5.148c0.071,5.154,3.699,3.047,3.699,3.047
			l5.513-4.207c0,0-0.146,2.951,0,6.818c0.146,3.869,4.061,1.262,4.061,1.262l6.918-6.387c0,0,0-3.338,0.048-6.816
			c0.049-3.484-2.468-2.08-2.468-2.08l-6.382,4.494l0.29-7.354l7.446-4.49c0,0-0.048,0.482,0,4.107
			c0.051,3.627,2.563,1.838,3.628,1.305c1.063-0.531,5.077-3.963,5.077-3.963s0.048,4.108,0,5.852
			c-0.047,1.74,1.837,1.936,2.804,1.547c0.97-0.385,3.773-2.563,3.773-2.563c-0.823,4.399,2.175,12.041,2.175,12.041
			L514.046,245.149z M508.101,279.47c-0.903,0.689-2.646,3.842-3.88,5.438c-1.23,1.598-2.684,3.557-2.178,5.77
			c0.318,1.388,3.122,0.941,4.936,0.978c1.813,0.037,3.584-0.084,4.273-0.812c0.69-0.725,3.922-5.897,5.193-8.397
			c1.269-2.506-0.219-3.391-2.359-3.447C509.915,278.888,509.009,278.781,508.101,279.47z"/>
		<path fill="#D22027" d="M495.911,268.582c1.338,2.224,2.175,3.287,2.608,3.819c0.438,0.531,1.548,1.646,4.16-1.063
			c2.611-2.707,5.223-5.709,5.707-6.723c0.483-1.017,0.58-2.224-0.679-4.013c-1.256-1.789-2.563-4.547-4.884-2.321
			c-2.321,2.223-4.739,5.075-5.899,6.284C495.765,265.776,494.836,266.796,495.911,268.582z"/>
		<path fill="#D22027" d="M523.087,256.541c-2.372,2.892-2.707,3.722-3.384,4.545c-0.677,0.822-1.403,3.529,0.917,4.108
			c2.321,0.582,3.436-0.049,5.126-2.271c1.693-2.227,3.869-5.368,2.516-6.579C526.908,255.136,524.137,255.259,523.087,256.541z"/>
		<path fill="#D22027" d="M527.004,267.806c-2.373,3.609-3.289,5.078-3.676,6.771c-0.387,1.694-0.387,2.562,3.193,2.469
			c3.95-0.103,3.578-0.821,5.513-3.678c1.935-2.854,4.398-7.156,1.836-7.496C531.308,265.537,528.689,265.253,527.004,267.806z"/>
		<path fill="#D22027" d="M559.199,267.274c-3.591,1.705-5.479,2.539-6.13,4.57c-0.651,2.033-1.45,4.389-1.85,6.021
			s-0.435,4.352,2.9,2.791c3.337-1.559,6.348-2.865,7.11-3.373c0.762-0.508,1.596-1.234,2.5-4.643
			c0.905-3.41,2.031-6.828,0.582-6.984C562.862,265.498,560.342,266.731,559.199,267.274z"/>
	</g>
</g>
</svg>
